<?xml version="1.0" encoding="utf-8"?>
<!-- Generator: Adobe Illustrator 23.0.1, SVG Export Plug-In . SVG Version: 6.00 Build 0)  -->
<svg version="1.1" id="Layer_1" xmlns="http://www.w3.org/2000/svg" xmlns:xlink="http://www.w3.org/1999/xlink" x="0px" y="0px"
	 viewBox="0 0 2332.3 927.4" style="enable-background:new 0 0 2332.3 927.4;" xml:space="preserve">
<style type="text/css">
	.st0{fill:#135229;stroke:#F6EB0F;stroke-width:9;stroke-miterlimit:10;}
	.st1{fill:none;}
	.st2{fill:#EBC71C;}
	.st3{fill:#ECC800;}
	.st4{fill:#EC008C;}
	.st5{fill:#FFFFFF;}
</style>
<g>
	<g>
		<path class="st1" d="M99.5,250.9c0,0-74-63.5-63-153c0,0,39,62,120.5,80c0,0-7-104,30-163.5c0,0,4.5,76,90.5,153.5
			c0,0,49.5,47.5,61,61.5s10,25.5,5,29s-17.5,9-44.5-19s-54-49-73.5-42.5"/>
		<path class="st2" d="M334.3,265.8c-10.7,0-23.6-7.8-38.6-23.3c-31.6-32.7-54.1-46.3-68.8-41.4l-2.8-8.5
			c18.6-6.2,43.5,7.7,78.2,43.6c12,12.4,28.4,25.7,38.7,18.4c0.9-0.6,1.5-2,1.7-3.7c0.3-2.4,0.3-9.2-7.6-18.8
			c-11-13.4-58.8-59.3-60.6-61.1c-45-40.6-67.6-80.8-78.6-107.4c-6.1-14.8-9.5-27.1-11.3-35.7c-28.8,58.7-23.1,148.5-23.1,149.5
			l0.4,6l-5.9-1.3c-43-9.5-74.2-31.2-92.8-47.8c-10.4-9.3-18.1-18-23.2-24.2c-3.2,79.9,61.7,136.6,62.4,137.2l-5.9,6.8
			c-0.8-0.7-19.2-16.6-36.5-43.9c-16-25.3-33.9-65.5-28-113l1.5-12.6l6.7,10.7c0.4,0.6,37.2,57.7,111.9,76.6
			c-0.9-23.4-1.6-107.7,31-160.1l7.5-12l0.8,14.1c0,0.2,1.3,18.9,12.9,46.7c10.7,25.6,32.6,64.4,76.2,103.7l0.1,0.1
			c2,1.9,49.8,47.8,61.4,61.9c9.8,11.9,10.2,21.2,9.6,25.7c-0.6,4.3-2.5,7.8-5.5,9.8C342.5,264.6,338.6,265.8,334.3,265.8z"/>
	</g>
	<rect x="295" y="269.4" transform="matrix(0.7985 -0.602 0.602 0.7985 -99.9672 249.1345)" class="st2" width="54.3" height="9"/>
	<g>
		<path class="st1" d="M2250.2,250.9c0,0,74-63.5,63-153c0,0-39,62-120.5,80c0,0,7-104-30-163.5c0,0-4.5,76-90.5,153.5
			c0,0-49.5,47.5-61,61.5s-10,25.5-5,29s17.5,9,44.5-19s54-49,73.5-42.5"/>
		<path class="st2" d="M2015.4,265.8c-4.3,0-8.2-1.2-11.8-3.7c-3-2.1-4.9-5.6-5.5-9.8c-0.6-4.5-0.2-13.8,9.6-25.7
			c11.5-14,59.3-59.9,61.4-61.9l0.1-0.1c43.6-39.3,65.5-78.1,76.2-103.7c11.6-27.8,12.8-46.5,12.9-46.7l0.9-14.1l7.4,12
			c32.6,52.4,31.9,136.7,31,160.1c74.9-19,111.5-76,111.9-76.6l6.7-10.7l1.5,12.6c5.8,47.6-12,87.7-28,113
			c-17.3,27.3-35.7,43.3-36.5,43.9l-5.9-6.8c0.3-0.2,18.4-16,34.9-42.2c13.8-21.9,29.1-55.4,27.5-95c-5,6.3-12.7,14.9-23.2,24.2
			c-18.6,16.6-49.8,38.3-92.8,47.8l-5.9,1.3l0.4-6c0.1-1,5.7-90.8-23.1-149.5c-1.8,8.6-5.1,20.9-11.3,35.7
			c-11,26.6-33.6,66.8-78.6,107.4c-1.8,1.8-49.5,47.6-60.6,61.1c-7.9,9.6-8,16.3-7.6,18.8c0.2,1.7,0.9,3.1,1.7,3.7
			c10.3,7.2,26.7-6,38.7-18.4c34.7-36,59.5-49.9,78.2-43.6l-2.8,8.5c-14.7-4.9-37.3,8.6-68.8,41.4
			C2039,258,2026.1,265.8,2015.4,265.8z M2250.2,250.9l-2.9-3.4c0,0,0,0,0,0L2250.2,250.9z"/>
	</g>
	
		<rect x="2023" y="246.8" transform="matrix(0.602 -0.7985 0.7985 0.602 588.3124 1728.0421)" class="st2" width="9" height="54.3"/>
	<g>
		<path class="st1" d="M2324,307.2c-8.7-22.7-31.5-33-31.5-33l-156.1-73.4c-0.5-0.2-1-0.4-1.4-0.6c-6.1-2.2-12.4-3.6-18.9-3.1
			c-6,0.5-12.4,2.7-16.8,7c-2.8,2.7-4.5,6.4-6.3,9.8c-147.9,279.8-504,477-919.8,477c-415.8,0-771.8-197.2-919.8-477
			c-1.8-3.4-3.5-7.1-6.3-9.8c-4.4-4.3-10.7-6.5-16.8-7c-6.5-0.5-12.8,0.9-18.9,3.1c-0.5,0.2-1,0.4-1.4,0.6L53.7,274.3
			c0,0-22.9,10.3-31.5,33c-7.7,18.3-3.8,41.3,10.7,63.4c211,320.5,642.3,552.2,1140.1,552.2v0c0,0,0.1,0,0.1,0s0.1,0,0.1,0v0
			c497.8-0.1,929.1-231.7,1140.1-552.2C2327.8,348.6,2331.7,325.6,2324,307.2z"/>
		<path class="st2" d="M1173.1,927.4c-239.6,0-474.6-54.1-679.7-156.4c-97.9-48.9-187.5-107.9-266.3-175.4
			C148.6,528.2,82,453.4,29.2,373.1C13.9,349.9,9.8,325.3,18,305.6c9.2-24.1,32.9-35,33.9-35.4l156-73.4c0.7-0.3,1.3-0.6,1.8-0.7
			c7.7-2.8,14.5-3.9,20.9-3.4c7.8,0.6,14.7,3.6,19.5,8.2c3,2.9,4.9,6.6,6.6,9.8l0.6,1c152.4,288.3,511.9,474.6,915.8,474.6
			c403.9,0,763.3-186.3,915.8-474.6l0.6-1.1c1.7-3.2,3.6-6.9,6.6-9.8c4.8-4.7,11.8-7.6,19.5-8.2c6.4-0.5,13.2,0.6,20.8,3.3
			c0.6,0.2,1.2,0.4,1.9,0.8l156.1,73.4c0.9,0.4,24.6,11.3,33.8,35.4c8.2,19.7,4.1,44.3-11.2,67.6c-52.8,80.2-119.4,155.1-198,222.5
			c-78.8,67.5-168.3,126.6-266.3,175.4c-205,102.3-440,156.4-679.5,156.4L1173.1,927.4z M227.4,201.6c-4.4,0-9.2,1-14.6,2.9
			c-0.4,0.1-0.8,0.3-1,0.4l-0.1,0L55.6,278.3c-0.3,0.1-21.4,9.9-29.3,30.5l-0.1,0.1c-7.1,16.9-3.3,38.5,10.3,59.2
			c220,334.2,666,550.2,1136.3,550.2l0.1,0c470.3-0.1,916.4-216,1136.4-550.2c13.6-20.7,17.4-42.3,10.3-59.2l-0.1-0.1
			c-7.9-20.7-29-30.4-29.2-30.5l-156.3-73.5c-0.2-0.1-0.6-0.2-0.9-0.4c-6.4-2.3-12-3.3-17.1-2.8c-5.6,0.5-10.7,2.6-14,5.7
			c-2,1.9-3.4,4.6-4.9,7.5l-0.6,1.1c-36.9,69.8-86.9,134.9-148.5,193.7c-61.1,58.3-132.7,109.3-212.8,151.6
			c-166,87.7-360.5,134.1-562.4,134.1c-201.9,0-396.4-46.4-562.4-134.1C530.6,519,459,468,397.9,409.7
			C336.2,351,286.2,285.8,249.3,216l-0.6-1.1c-1.5-2.9-2.9-5.6-4.9-7.5c-3.3-3.2-8.4-5.3-14-5.7
			C229.1,201.6,228.3,201.6,227.4,201.6z"/>
	</g>
	<g>
		<path class="st3" d="M225.9,485.4l-32.1-33.7l5.5-6l11.8,6.6l53.2-50.8l-5.9-12l6.2-5.2l32,33.6l-6,6.3l-11.7-7.6l-53.3,50.9
			l7,12.1L225.9,485.4z"/>
		<path class="st2" d="M322.9,529l33.6-39.9l-7.5-11.6l5.9-5.8l29.9,26.4l-5.4,7l-12.9-6.9c-1.1,1.1-3.2,3.3-6.1,6.6
			c-2.9,3.2-6.4,7-10.3,11.3c-4,4.3-8.1,8.8-12.5,13.6c-4.4,4.8-8.5,9.3-12.4,13.6c-3.9,4.3-7.3,8-10.3,11.3c-3,3.2-5,5.5-6.1,6.7
			l-9.5-5.4l4.8-59.6l2.9-33.4l-0.5-0.3l-39.5,46l8.3,11.3l-6.3,6.3l-30.2-26.7l5.1-6.6l13.3,6.5l49.7-53.5l-8-12.5l6.2-5.5
			c6,5.5,11.2,10.2,15.7,13.9c4.5,3.8,7.8,6.5,9.8,8.2c-0.6,2-1.1,3.8-1.4,5.6c-0.3,1.7-0.5,3.3-0.7,4.7l-3.5,39.9l-2.6,28.6
			L322.9,529z"/>
		<path class="st3" d="M421.4,521.7c1,0.7,2.1,1.7,3.5,2.8c1.4,1.2,2.8,2.5,4.2,3.9c1.4,1.4,2.8,3,4.2,4.8c1.4,1.7,2.7,3.6,3.8,5.4
			l4.7-2l4.8,3.5l-18.8,26l-6.3-3.4l4.4-15.4c-1.2-2.5-2.8-5-5-7.5c-2.2-2.5-4.5-4.6-6.9-6.3c-3.1-2.3-6.1-3.5-8.9-3.7
			c-2.8-0.2-5.2,1-7.2,3.7c-1,1.3-1.3,3-1.2,5c0.2,2,0.8,4.3,1.8,6.8c1,2.5,2.3,5.4,3.9,8.5c1.6,3.1,3.3,6.4,5.1,9.8
			c1.8,3.2,3.3,6.3,4.6,9.4c1.3,3.1,2.1,6.2,2.5,9.3c0.4,3.1,0.2,6.2-0.5,9.3c-0.8,3.1-2.3,6.2-4.7,9.4c-2.3,3.1-5.1,5.8-8.4,8
			c-3.3,2.2-7,3.6-11.2,4.2c-4.2,0.6-8.7,0.2-13.7-1.3c-5-1.4-10.4-4.3-16.1-8.5c-1.3-1-2.8-2.2-4.5-3.6c-1.6-1.4-3.3-2.9-4.8-4.5
			c-1.6-1.6-3.1-3.2-4.5-4.9c-1.4-1.7-2.6-3.3-3.5-4.9l-4.8,1.6l-5.2-3.8l21-29.3l6.2,3.3l-5.4,16.7c0.5,1.8,1.3,3.5,2.3,5.2
			c1,1.7,2.2,3.3,3.4,4.9c1.3,1.6,2.6,3,3.9,4.3c1.3,1.3,2.6,2.4,3.8,3.2c2.6,1.9,5,3.2,7.2,3.9c2.2,0.7,4.1,1,5.8,0.8
			c1.7-0.2,3.2-0.7,4.5-1.5c1.3-0.9,2.4-1.9,3.4-3.2c2.4-3.3,2.9-7.2,1.3-11.8c-1.5-4.6-4-9.8-7.3-15.7c-2.2-3.9-4.1-7.6-5.7-11.2
			c-1.6-3.6-2.7-7.1-3.4-10.4c-0.7-3.4-0.8-6.6-0.2-9.8c0.5-3.1,1.9-6.2,4.1-9.2c2.1-2.8,4.6-5.2,7.6-7.1c3-1.9,6.4-3.1,10.1-3.5
			c3.7-0.5,7.8,0,12.1,1.2C412,515.7,416.6,518.1,421.4,521.7z"/>
		<path class="st3" d="M515.4,600.9l-8.2-9.7l4.9-6.7l32.9,20.2l-4.1,7.8l-12.9-4.1l-27.7,44.7c-3.9,6.2-8.1,10.6-12.6,13.2
			c-4.5,2.6-9.1,4-13.8,4.2c-4.7,0.2-9.4-0.6-13.9-2.3c-4.6-1.7-8.8-3.7-12.7-6.1c-3.4-2.1-6.7-4.7-10.1-7.8
			c-3.3-3.1-6-6.8-7.9-10.8c-1.9-4.1-2.9-8.6-2.7-13.6c0.1-5,1.9-10.3,5.4-16.1l28.4-46.4l-8.6-9.9l4.8-6.5l38.6,23.6l-4.2,7.6
			l-12.7-3.9L453,619.8c-1.7,2.8-3.1,5.6-4.2,8.4c-1.1,2.8-1.6,5.5-1.4,8.2c0.2,2.7,1.1,5.4,2.9,8c1.7,2.6,4.6,5.2,8.6,7.6
			c3.6,2.2,7,3.5,10.1,3.8c3.1,0.3,6-0.2,8.6-1.4c2.6-1.2,5.1-3.1,7.4-5.6c2.3-2.5,4.4-5.3,6.4-8.6L515.4,600.9z"/>
		<path class="st3" d="M565.4,679.4l-1.7-0.9c-1.2-0.7-2.6-1.5-4.2-2.4c-1.6-0.9-3.3-2-4.9-3.4l-12.9,25.9l10.7,8.9l-4.5,7.8
			l-40.8-20.3l3.1-7.4l12.9,1.8l33-66.1l-8.5-8.1l4.5-6.9c3.4,1.8,6.5,3.4,9.2,4.8c2.7,1.4,5.9,3,9.5,4.8c4.3,2.1,8.5,4.1,12.5,6
			c4,1.9,8,3.7,11.9,5.7c4,2,7.6,4.4,10.7,7c3.1,2.7,5.5,5.6,7.2,8.8c1.7,3.2,2.5,6.7,2.5,10.5c0,3.8-1.1,7.8-3.3,12.2
			c-1.3,2.5-2.8,4.9-4.6,7c-1.8,2.1-4,3.9-6.4,5.4c-2.4,1.5-5.2,2.6-8.2,3.3c-3,0.7-6.3,0.9-9.8,0.5l10,47.3l-4.3,4.7l-17.3-4.2
			L565.4,679.4z M592,660c1.3-2.6,2-5,2-7.3c0-2.2-0.5-4.3-1.5-6.1c-1-1.9-2.5-3.6-4.3-5.1c-1.9-1.5-4-2.9-6.5-4.1
			c-2.5-1.2-5.1-2.2-7.9-3L560,661.8c1,0.7,2.1,1.4,3.2,2c1.2,0.6,2.1,1.1,2.8,1.5c3.8,1.9,7.1,3,10,3.4c2.9,0.4,5.3,0.2,7.4-0.5
			c2.1-0.7,3.8-1.8,5.2-3.3C590,663.4,591.1,661.8,592,660z"/>
		<path class="st3" d="M666.6,734.8L638,723.3l-12.7,15.1l10.2,7l-3.6,8.2L598.1,740l2.7-8.2l11.8,1.2l48.1-52.3
			c2.2-2.4,4.4-4.8,6.6-7.3c2.2-2.5,4.3-5.1,6.3-7.7l16.1,3l0.7,0.8l-1.5,94.5l6.3,5.5l-4.2,8.1l-39.2-15.8l2.6-8.3l11,0.8
			L666.6,734.8z M656.2,701.5l-10.9,12.9l22.1,8.9l1.3-17.2l1.3-20.3l-0.5-0.2L656.2,701.5z"/>
		<path class="st3" d="M791,773.7l14.1-50.2l-11.6-7.4l3-7.7l38.1,11.7l-2.1,8.6l-14.6-0.9c-0.6,1.5-1.5,4.3-2.8,8.5
			c-1.3,4.1-2.9,9-4.8,14.5c-1.8,5.5-3.8,11.4-5.8,17.5c-2,6.2-3.9,12-5.7,17.5c-1.8,5.5-3.4,10.3-4.8,14.5c-1.4,4.2-2.3,7-2.8,8.6
			l-10.9-1l-20.2-56.3l-11.1-31.6l-0.6,0l-17,58.2l12.2,6.9l-3.2,8.4l-38.5-11.8l1.9-8.2l14.8,0.4l23.2-69.2l-12.4-8.1l3.3-7.6
			c7.7,2.6,14.4,4.6,20,6.2c5.6,1.6,9.8,2.7,12.3,3.4c0.2,2.1,0.6,3.9,1,5.7c0.4,1.7,0.9,3.2,1.3,4.6l13.3,37.8l9.5,27.1L791,773.7z
			"/>
		<path class="st3" d="M833.8,770.7c1.4-6.2,3.6-12.2,6.5-17.9c2.9-5.7,6.6-10.6,11.1-14.7c4.5-4,9.7-6.9,15.8-8.7
			c6.1-1.7,12.9-1.8,20.6,0c3.5,0.8,6.9,1.9,10.3,3.3c3.3,1.4,6.8,3.7,10.3,6.8l4.3-4.6l6.9,1.5l-6.8,31.1l-7-0.5l-3.1-14.8
			c-2.2-2.4-4.6-4.2-7.3-5.4c-2.7-1.2-5.4-2.1-8.3-2.7c-4.2-0.9-8-0.8-11.4,0.3c-3.4,1.2-6.4,3.2-8.9,6c-2.6,2.8-4.8,6.3-6.6,10.4
			c-1.8,4.1-3.3,8.6-4.4,13.5c-1.1,4.7-1.7,9.2-2,13.5c-0.3,4.3,0.2,8.3,1.4,11.9c1.2,3.6,3.3,6.7,6.3,9.3c3,2.6,7.2,4.5,12.6,5.7
			c2.9,0.6,6.6,1.2,11.2,1.8c4.6,0.5,9.5,0.6,14.8,0.1l0.4,12.6c-2.6,0.8-5.5,1.3-8.6,1.6c-3.1,0.3-6.1,0.4-9.1,0.3
			c-3-0.1-5.9-0.3-8.7-0.6c-2.8-0.3-5.3-0.8-7.5-1.2c-14.4-3.2-24.4-9.6-30-19.2C831,800.5,830.1,787.4,833.8,770.7z"/>
		<path class="st3" d="M996.3,820.8l-7.7,26.4l-1.7,1.2c-3.3-0.5-6.4-1-9.3-1.5c-2.9-0.5-5.8-1-8.7-1.5c-2.9-0.5-5.9-1-9.1-1.6
			c-3.1-0.5-6.6-1.1-10.3-1.7c-2.4-0.4-5.1-0.8-8.2-1.3c-3.1-0.5-6.4-1-9.7-1.4c-3.4-0.5-6.7-0.9-10-1.4c-3.3-0.5-6.3-0.9-8.9-1.2
			l0.3-8.1l13-1.9l11.3-73l-10.6-5.1l2.3-8.4c2.3,0.4,5,1,8.3,1.5c3.3,0.6,6.6,1.1,10,1.7c3.4,0.6,6.6,1.1,9.6,1.6
			c3,0.5,5.4,0.8,7.2,1.1c3.1,0.5,6.1,0.9,8.9,1.3c2.8,0.4,5.6,0.8,8.4,1.2c2.8,0.4,5.6,0.8,8.4,1.2c2.8,0.4,5.9,0.8,9.1,1.2
			l1.4,1.1l-3.9,26.8l-6.9,0.4l-4.1-16.9c-1.3-0.2-3.2-0.5-5.7-0.9c-2.5-0.4-5.2-0.8-7.9-1.2c-2.8-0.4-5.5-0.8-8-1.2
			c-2.6-0.4-4.5-0.7-5.9-0.9l-4.4,28.1l30.4,3.6l-2,13.2l-30.1-5.8l-4.9,31.3c1.6,0.3,3.9,0.6,6.8,1.1c2.9,0.4,5.9,0.9,9,1.3
			c3.1,0.4,6.1,0.9,9,1.2c2.9,0.4,5.1,0.7,6.8,1l11.9-15L996.3,820.8z"/>
		<path class="st3" d="M1133.3,823.5l3.7,36.9l-32.3-18.2l-30.4,15.2l6.1-35.4l-23.8-26.7l34.8-5.2l17.3-31.3l15.5,32.4l34.2,8.9
			L1133.3,823.5z"/>
		<path class="st3" d="M1213.5,762.3c1.9-0.1,3.7-0.2,5.4-0.2c1.7,0,3.3-0.1,4.9-0.1c1.6,0,3.3-0.1,5-0.2c1.7-0.1,3.6-0.2,5.6-0.3
			c4.8-0.3,9.4-0.6,13.8-1c4.4-0.4,8.8-0.7,13.1-1c10-0.6,18,1.3,24.2,5.8c6.2,4.4,9.5,11.4,10.1,21c0.2,4.3-0.3,8.3-1.5,12.2
			c-1.3,3.9-3.3,7.4-6,10.5c-2.8,3.1-6.4,5.6-10.9,7.6c-4.5,2-9.7,3.2-15.8,3.6c-1.7,0.1-3.6,0.1-6,0.1c-2.3-0.1-4.8-0.2-7.5-0.6
			l1.5,26.4l13.9,2.3l0.1,9l-45.9,2.7l-1-8l12.2-4.7l-4.3-73.7l-11.5-2.7L1213.5,762.3z M1273.9,789.2c-0.4-6-2.3-10.4-6-13
			c-3.6-2.6-8.4-3.8-14.4-3.4c-2.8,0.2-5.5,0.6-8.2,1.3l2,33.3c1.2,0.1,2.4,0.2,3.6,0.1c1.2,0,2.2-0.1,2.9-0.1
			c4.2-0.2,7.7-0.9,10.3-2.1c2.7-1.2,4.7-2.6,6.3-4.4c1.5-1.7,2.5-3.7,3-5.7C1273.9,793.2,1274,791.2,1273.9,789.2z"/>
		<path class="st3" d="M1356.9,817.6l-30.6,3.8l-3.8,19.3l12.3,1.2l0.8,8.9l-36.1,4.4l-1.6-8.5l10.9-4.6l16.8-69
			c0.8-3.2,1.6-6.3,2.2-9.6c0.7-3.2,1.3-6.5,1.8-9.8l15.5-5.2l1,0.3l44.4,83.4l8.2,1.7l0.3,9.1l-41.9,5.1l-1.7-8.5l10-4.7
			L1356.9,817.6z M1331.7,793.5l-3.3,16.6l23.6-2.9l-7.2-15.7l-8.7-18.4l-0.5,0.1L1331.7,793.5z"/>
		<path class="st3" d="M1438.7,779.8l9-33.2l-12.5-1.2l-1.1-8.5l36.1-7.1l2.1,8.6c-2.4,1.6-4.5,3.3-6.2,5c-1.7,1.7-3.2,3.5-4.5,5.4
			c-1.3,1.9-2.4,3.9-3.5,6.2c-1,2.2-2,4.7-3,7.5l-9.5,27.1l5.9,30.8l13.9,0.7l1.3,8.9l-46,8.8l-2.1-7.8l11.9-6.5l-5.4-28.5l-31.4-39
			l-12.3-1.6l-0.8-8.4l31.2-6.3c0.7,2.6,1.5,4.9,2.6,7c1.1,2.1,2.3,4.2,3.9,6.2l19.5,25.9L1438.7,779.8z"/>
		<path class="st3" d="M1509,717.2c1.2-0.3,2.6-0.6,4.4-0.9c1.8-0.3,3.7-0.6,5.7-0.7c2-0.2,4.1-0.3,6.4-0.3c2.2,0,4.5,0.2,6.6,0.5
			l1.4-4.9l5.8-1.5l8.4,31l-6.6,2.7l-9.2-13.2c-2.7-0.7-5.6-0.9-8.9-0.8c-3.3,0.1-6.4,0.6-9.2,1.3c-3.8,1-6.6,2.5-8.5,4.6
			c-1.9,2.1-2.5,4.7-1.7,7.9c0.4,1.6,1.4,2.9,3.1,4c1.7,1.1,3.8,2.1,6.4,2.9c2.6,0.8,5.6,1.6,9.1,2.3c3.4,0.7,7.1,1.5,10.9,2.2
			c3.6,0.6,7,1.4,10.2,2.4c3.2,1,6.2,2.3,8.8,3.9c2.7,1.6,5,3.7,6.9,6.3c1.9,2.5,3.4,5.7,4.4,9.6c1,3.8,1.3,7.6,0.9,11.6
			c-0.3,4-1.6,7.7-3.8,11.3c-2.2,3.6-5.4,6.9-9.7,9.9c-4.3,3-9.9,5.4-16.7,7.2c-1.6,0.4-3.5,0.8-5.6,1.2c-2.1,0.4-4.3,0.7-6.6,0.9
			c-2.2,0.2-4.5,0.4-6.7,0.4c-2.2,0-4.2-0.1-6-0.4l-1.8,4.7l-6.3,1.6l-9.5-34.8l6.4-2.7l9.6,14.7c1.7,0.7,3.6,1.2,5.5,1.5
			c2,0.3,4,0.4,6,0.4c2,0,3.9-0.1,5.8-0.3c1.8-0.2,3.5-0.5,4.9-0.9c3.1-0.8,5.6-1.8,7.6-3.1c1.9-1.2,3.4-2.6,4.3-4
			c1-1.4,1.5-2.9,1.7-4.5c0.2-1.6,0-3.1-0.4-4.7c-1-3.9-3.8-6.8-8.3-8.5c-4.5-1.7-10.1-3.1-16.8-4.2c-4.4-0.7-8.5-1.6-12.3-2.6
			c-3.8-1-7.2-2.3-10.3-3.9c-3-1.6-5.6-3.6-7.7-6c-2.1-2.4-3.6-5.4-4.6-8.9c-0.9-3.4-1.1-6.8-0.7-10.4c0.4-3.5,1.6-6.9,3.6-10
			c2-3.2,4.9-6,8.6-8.6C1498.4,720.8,1503.2,718.7,1509,717.2z"/>
		<path class="st3" d="M1691.8,724.1l18.1,32.3l-36.8-3.7l-21.7,26.1l-8.6-34.9l-32.5-14.9l29.8-18.7l3.3-35.6l27.2,23.5l34.9-5.6
			L1691.8,724.1z"/>
		<path class="st3" d="M1768.6,618.2c9.1-4.7,17.3-6.1,24.7-4.3c7.3,1.8,13.2,7.1,17.7,15.6c2.4,4.6,3.8,9.7,4.3,15.2
			c0.5,5.5,0.1,11.3-1,17.3c-1.2,6-3.1,12.1-5.7,18.3c-2.6,6.2-5.8,12.3-9.6,18.2l0.3,0.5l29.3-16.6l0.6-17.8l6.1-1.7l9.7,26.9
			l-0.7,2c-3,1.6-7.1,3.6-12.1,6c-5.1,2.5-10.9,5.4-17.4,8.8c-1.4,0.7-2.7,1.4-4,2.1c-1.3,0.7-2.9,1.5-5,2.6c-2,1.1-4.6,2.4-7.8,4.1
			c-3.1,1.7-7.2,3.9-12.3,6.6l-6.5-7.5c3.4-6.8,6.6-13.5,9.4-20.1c2.8-6.6,5-13,6.6-19.1c1.6-6.1,2.3-11.9,2.3-17.3
			c-0.1-5.5-1.3-10.5-3.6-15c-2.6-5-5.7-8.2-9.3-9.4c-3.6-1.2-8.1-0.4-13.6,2.4c-3.4,1.8-6.7,4.1-9.8,7c-3.1,2.9-5.7,6-8,9.3
			l-9.6-6.9c2.6-5.4,5.9-10.5,9.9-15.3C1757.3,625.5,1762.4,621.5,1768.6,618.2z"/>
		<path class="st3" d="M1882.6,554.3c5.5-3.7,11.4-7.6,17.6-11.9c6.2-4.2,12-8.3,17.5-12.1l2.2-0.1l16.5,24.3l-5.2,4.7l-17.5-12.4
			l-16.3,10.8l41.1,61.8l13.4-4.6l4.4,7.4l-38.9,25.8l-4.9-6.1l8.5-10.8l-41.2-62l-16.1,10.7l4.6,21l-6.3,3l-16.2-24.6l1.2-2.2
			c5.6-3.5,11.4-7.2,17.6-11.2C1870.9,562,1876.8,558.1,1882.6,554.3z"/>
		<path class="st3" d="M2024.4,507.3c4.2,5.3,7.6,10.8,10.3,16.7c2.7,5.9,4.1,11.8,4.3,17.8c0.2,6-1,11.9-3.6,17.7
			c-2.6,5.8-7.1,11.3-13.6,16.4c-11.8,9.4-23.3,13-34.3,10.7c-11-2.3-21.5-9.6-31.3-22c-4.1-5.2-7.5-10.7-10.2-16.6
			c-2.7-5.9-4.2-11.9-4.4-17.9c-0.3-6,0.9-12,3.6-17.9c2.7-5.9,7.3-11.5,14-16.8c5.6-4.5,11.3-7.5,17.1-9c5.7-1.5,11.4-1.7,16.9-0.6
			c5.6,1.1,11,3.5,16.3,7.2C2014.7,496.6,2019.7,501.4,2024.4,507.3z M1966.9,506.4c-3.7,2.9-6,6.2-6.9,9.8
			c-0.9,3.6-0.9,7.3,0.1,11.1c0.9,3.8,2.5,7.6,4.8,11.3c2.2,3.8,4.6,7.3,7.2,10.5c3.5,4.4,7,8.3,10.5,11.4c3.5,3.2,6.9,5.5,10.3,7.1
			c3.4,1.5,6.8,2.1,10.2,1.7c3.4-0.4,6.8-2,10.2-4.7c3.5-2.8,5.8-6,6.7-9.4c0.9-3.5,1-7.1,0.3-10.9c-0.8-3.8-2.2-7.6-4.4-11.4
			c-2.1-3.8-4.6-7.4-7.3-10.8c-3-3.8-6.2-7.2-9.7-10.4c-3.4-3.1-6.9-5.5-10.5-7.2c-3.6-1.7-7.2-2.5-10.8-2.4
			C1973.9,502.3,1970.4,503.7,1966.9,506.4z"/>
		<path class="st3" d="M2149.1,455.5c-2.8,2.7-5.7,5.6-8.7,8.6c-3,3-6.4,6.4-10,10.1c-3.5,3.6-7,7.2-10.3,10.8
			c-3.3,3.5-6.3,6.8-9.1,9.8l-6.3-5.7l9.1-16.1l-49.6-48l-13.8,10.9l-6.1-5.9l19.3-29.5l4.9,0.1l60,58.1l14.4-9.6L2149.1,455.5z"/>
	</g>
	<g>
		<path class="st4" d="M594.1,237.1l5.3-5.4c2.6,2.2,4.9,4.1,6.9,5.7c2,1.6,4,3.2,6,4.8c1.2,0.9,2.5,1.9,4,3.1
			c1.5,1.1,3,2.3,4.5,3.4c1.5,1.2,3,2.3,4.4,3.4c1.4,1.1,2.7,2.1,3.8,2.9c3.5,2.8,6,5.5,7.4,8c1.4,2.6,2.2,5,2.4,7.2
			c0.2,2.2-0.1,4.2-0.9,6c-0.7,1.8-1.5,3.2-2.4,4.4c-1.2,1.5-2.6,2.7-4.2,3.5c-1.6,0.8-3.2,1.4-4.9,1.6c-1.6,0.3-3.2,0.4-4.7,0.2
			c-1.5-0.1-2.6-0.4-3.5-0.8l-0.3,0.4c1.1,1.6,2,3.4,2.8,5.4c0.8,2,1.2,4,1.2,6.1c0.1,2.1-0.2,4.2-0.9,6.4c-0.6,2.2-1.8,4.3-3.4,6.4
			c-2,2.5-4.2,4.3-6.7,5.6c-2.5,1.3-5.1,2-7.8,2.2c-2.7,0.2-5.5-0.2-8.2-1.1c-2.7-0.9-5.3-2.3-7.7-4.2c-2.5-2-5.1-4.1-7.8-6.4
			c-2.7-2.3-5.6-4.6-8.5-7c-2.7-2.2-5.3-4.2-7.8-6.1c-2.5-1.9-5.3-4-8.4-6.4l3.9-5.9l8.7,3.4l31.6-39.9L594.1,237.1z M606.3,273.6
			c1.5,1,3,1.5,4.3,1.6c1.3,0.1,2.5,0,3.6-0.3c1.1-0.3,2-0.8,2.7-1.4c0.8-0.6,1.3-1.2,1.7-1.7c1.7-2.2,2.2-4.4,1.5-6.6
			c-0.7-2.2-2.2-4.1-4.2-5.8c-0.4-0.3-1-0.8-1.7-1.3c-0.7-0.5-1.4-0.9-1.9-1.2l-29,36.6c0.4,0.7,0.9,1.3,1.5,1.9
			c0.6,0.6,1.2,1.1,1.7,1.6c3.4,2.7,6.6,3.9,9.8,3.5c3.1-0.3,5.6-1.7,7.6-4.1c0.9-1.2,1.7-2.4,2.2-3.7c0.6-1.3,0.8-2.7,0.8-4.1
			c-0.1-1.4-0.5-2.9-1.4-4.4c-0.9-1.5-2.2-3.1-4-4.7l3.8-5.9L606.3,273.6z"/>
		<path class="st4" d="M679.5,348.9l-14.3,16.6l-1.5,0.2c-4-2.7-8-5.5-12.2-8.3c-4.2-2.8-8.5-5.8-13.2-8.9c-1.4-1-3.1-2.1-5.1-3.4
			c-1.9-1.3-3.9-2.6-6-3.9c-2.1-1.3-4.2-2.7-6.2-4c-2-1.3-3.9-2.5-5.5-3.5l3.4-6.1l9.1,2.4l28-42.3l-6.2-7.7l4.4-5.4l30.9,20.5
			l-3.8,6.4l-9.6-3.6l-27.3,41.1c1,0.7,2.3,1.5,4,2.7c1.7,1.1,3.4,2.2,5.2,3.4c1.8,1.2,3.6,2.3,5.3,3.4c1.7,1.1,3,1.9,4,2.6
			l13.4-5.7L679.5,348.9z"/>
		<path class="st4" d="M720.9,373.2l-18.2-10l-9.4,9l6.1,5.5l-4,6.5l-23.7-13l3.1-6.6l8.7,2l36.6-31c4.1-3.4,8.1-7,11.9-10.8l14,4.4
			l0.6,0.7l-8.5,66.9l4,4.3l-4.6,6.4l-29.2-16.1l2.9-6.9l7.3,1.2L720.9,373.2z M717.6,349l-7.9,7.5l13.1,7.2l2.3-10.9l2.6-12.8
			l-0.4-0.1L717.6,349z"/>
		<path class="st4" d="M761.9,380c1.9-4.2,4.3-8,7.3-11.6c3-3.5,6.4-6.4,10.2-8.5c3.8-2.1,8-3.4,12.6-3.7c4.6-0.3,9.4,0.7,14.6,3
			c2.6,1.2,4.8,2.4,6.9,3.9c2,1.4,4,3.5,6,6.1l3.8-2.5l5.6,2.5l-10.1,22.4l-5.6-1.5l-0.7-11.1c-1.2-2-2.6-3.5-4.2-4.5
			c-1.6-1-3.1-1.9-4.5-2.5c-2.4-1.1-4.8-1.5-7-1.1c-2.2,0.3-4.3,1.2-6.3,2.7c-2,1.4-3.8,3.4-5.5,5.7c-1.7,2.4-3.2,5.1-4.6,8.2
			c-1.4,3-2.4,5.9-3.1,8.7c-0.7,2.8-0.9,5.5-0.6,7.9c0.3,2.4,1.2,4.6,2.8,6.7c1.5,2,3.9,3.7,7.2,5.2c1.5,0.7,3.8,1.5,7,2.6
			c3.2,1.1,6.8,1.9,10.7,2.5l-2.1,11.1c-2.1,0.2-4.4,0.1-6.7-0.2c-2.4-0.3-4.7-0.7-7-1.2c-2.3-0.5-4.4-1.2-6.4-1.8
			c-2-0.7-3.6-1.3-4.9-1.9c-9.9-4.4-16.2-10.5-18.9-18.1C755.4,401.2,756.7,391.6,761.9,380z"/>
		<path class="st4" d="M845.2,452.5l-35-12.5l1.8-6.8l10,0.4l17.1-47.8l-7.9-6l3-6.3L869,386l-2.1,7.1l-10.2-1.1l-17.1,47.9l8.6,5.6
			L845.2,452.5z M883,460.2l-3.5,4.6l-15.6-2l-15-44.7l0.8-2.2l27.6-16.4l-7.1-5.5l3-6.4l27.4,9.7l-2.5,7.1
			c-2.6,0.3-4.9,0.7-6.9,1.1c-2,0.4-3.9,1-5.7,1.6c-1.8,0.6-3.5,1.3-5.1,2c-1.6,0.7-3.4,1.5-5.2,2.4l-10.5,5.2L883,460.2z"/>
		<path class="st4" d="M917,479.5c-2.8,3.5-5.9,6.2-9.3,8c-3.5,1.8-7.2,3-11.3,3.4c-4,0.5-8.2,0.5-12.4,0.2l-0.1-10.9
			c5.9-0.6,10.4-2.4,13.8-5.3c3.3-2.9,5.7-6.8,7-11.7l14.3-50.6l-9.2-5.9l2.5-6.3l36.4,10.3l-1.6,7.2l-10.1-0.4l-13.6,48.2
			C921.9,471.5,919.8,476.1,917,479.5z"/>
		<path class="st4" d="M984.9,469l-20.4-4.3l-6.4,11.3l7.4,3.5l-2,7.3l-26.4-5.6l1-7.2l8.9-0.6l26.1-40.3c2.9-4.5,5.7-9.1,8.3-13.8
			l14.7,0.2l0.7,0.5l11.2,66.5l5.1,3l-2.5,7.4l-32.6-7l0.8-7.4l7.4-0.9L984.9,469z M974.7,446.8l-5.4,9.4l14.6,3.1l-1-11.1l-1.2-13
			l-0.4,0L974.7,446.8z"/>
		<path class="st4" d="M1026,463.7c0.6-4.5,1.9-8.9,3.7-13.2c1.9-4.2,4.3-7.9,7.4-11.1c3.1-3.1,6.8-5.5,11.1-7.1
			c4.3-1.6,9.3-2,14.8-1.2c2.8,0.4,5.3,1,7.7,1.8c2.3,0.8,4.8,2.2,7.5,4.1l2.9-3.4l6,0.8l-3.3,24.3l-5.8,0.1l-3.8-10.5
			c-1.7-1.6-3.5-2.6-5.3-3.2c-1.8-0.6-3.5-0.9-5-1.2c-2.6-0.4-5-0.1-7,0.9c-2.1,1-3.8,2.4-5.3,4.3c-1.5,1.9-2.7,4.3-3.6,7.1
			c-1,2.8-1.7,5.8-2.1,9.1c-0.4,3.3-0.6,6.3-0.5,9.3c0.1,2.9,0.6,5.5,1.6,7.7c1,2.2,2.5,4.1,4.5,5.6c2.1,1.5,4.8,2.5,8.3,3
			c1.6,0.2,4.1,0.4,7.4,0.5c3.4,0.1,7-0.1,11-0.7l1.2,11.2c-2,0.8-4.2,1.3-6.5,1.7c-2.3,0.4-4.7,0.7-7,0.8s-4.6,0.1-6.7,0.1
			c-2.1-0.1-3.9-0.2-5.2-0.4c-10.7-1.5-18.5-5.5-23.3-12C1025.8,485.9,1024.2,476.3,1026,463.7z"/>
		<path class="st4" d="M1126.1,509.9l-37.1-2.3l-0.2-7l9.7-2.4l3.1-50.6l-9.2-3.5l1.1-6.9l37,2.3l-0.1,7.4l-10.1,1.7l-3.1,50.8
			l9.8,3L1126.1,509.9z M1164.6,506.8l-2,5.4l-15.5,2.4l-26.8-38.8l0.1-2.4l22-23.4l-8.3-3.3l1.1-7l29,1.7l-0.5,7.5
			c-2.4,1-4.5,2-6.4,3c-1.8,1-3.5,2-5.1,3.1c-1.5,1.1-3,2.2-4.4,3.3c-1.4,1.1-2.8,2.4-4.3,3.7l-8.6,7.9L1164.6,506.8z"/>
		<path class="st4" d="M1210.2,441.6c3.4,0,6.5-0.1,9.3-0.3c2.8-0.1,5.4-0.3,8-0.4c3.8-0.2,7.3-0.4,10.5-0.7
			c3.2-0.3,6.4-0.5,9.6-0.6c7.5-0.4,13.4,1.2,17.7,4.6c4.3,3.4,6.6,8.6,7,15.5c0.2,3.1-0.2,6.1-1.1,8.9c-0.9,2.9-2.4,5.5-4.4,7.7
			c-2.1,2.3-4.7,4.1-7.9,5.6c-3.2,1.5-7.1,2.3-11.6,2.5c-1.3,0.1-2.7,0.1-4.2,0.1c-1.5,0-3-0.1-4.6-0.3l0.8,16.6l10.3,1.8l-0.2,7.7
			l-36.7,1.8l-1-7l8.9-3.3l-2.5-50.8l-8.3-2.2L1210.2,441.6z M1252.9,462c-0.2-3.7-1.3-6.5-3.4-8.3c-2.1-1.8-4.8-2.7-8.2-2.5
			c-0.7,0-1.5,0.1-2.2,0.2c-0.7,0.1-1.5,0.3-2.4,0.5l1.1,21.7c0.5,0,0.9,0.1,1.3,0c0.4,0,0.9,0,1.3-0.1c2.6-0.1,4.7-0.6,6.3-1.3
			c1.6-0.7,2.9-1.6,3.8-2.7c0.9-1.1,1.5-2.3,1.9-3.6C1252.8,464.6,1252.9,463.3,1252.9,462z"/>
		<path class="st4" d="M1315.9,482.4l-20.7,2.4l-2.4,12.8l8.2,0.9l0.5,7.6l-26.8,3.1l-1.3-7.2l8.3-3.4l11.8-46.5
			c1.3-5.2,2.5-10.4,3.4-15.7l14-4.5l0.8,0.2l31.9,59.4l5.8,1.2l0,7.9l-33.1,3.9l-1.6-7.2l6.7-3.3L1315.9,482.4z M1299.1,464.6
			l-2.1,10.7l14.8-1.7l-4.5-10.2l-5.3-11.9l-0.4,0.1L1299.1,464.6z"/>
		<path class="st4" d="M1381,452.8l5.4-21.1l-8.9-1.2l-0.6-7.1l28.2-5.4l1.9,7.3c-2.1,1.4-3.9,2.8-5.3,4.2c-1.4,1.4-2.7,2.8-3.8,4.3
			c-1.1,1.5-2,3.1-2.8,4.7c-0.8,1.6-1.5,3.4-2.3,5.3l-6.4,17.4l4,21.4l10.3,0.5l0.9,7.6l-36.5,6.9l-1.9-6.7l8.8-4.7l-3.9-20.5
			l-21-26l-9.7-1.4l-0.5-7.1l26.5-5.2c0.5,1.9,1.1,3.6,1.9,5.1c0.8,1.5,1.6,2.9,2.6,4.4l12.5,17.6L1381,452.8z"/>
		<path class="st4" d="M1434.3,408.6c0.9-0.2,2-0.5,3.3-0.7c1.3-0.2,2.7-0.4,4.2-0.6c1.5-0.1,3.1-0.2,4.7-0.2c1.6,0,3.1,0.1,4.6,0.4
			l1.1-3.6l4.7-1.2l6.2,23.5l-5.5,2.4l-6.5-9c-1.5-0.4-3.5-0.5-5.8-0.4c-2.3,0.1-4.4,0.4-6.2,0.9c-2.3,0.6-4,1.5-5.2,2.6
			c-1.2,1.1-1.5,2.6-1,4.6c0.2,0.9,1,1.8,2.3,2.5c1.3,0.7,2.9,1.4,4.9,2c1.9,0.6,4.1,1.1,6.5,1.6c2.4,0.5,4.9,1,7.3,1.6
			c2.3,0.5,4.6,1.1,6.7,1.8c2.1,0.7,4.1,1.6,5.9,2.7c1.8,1.1,3.3,2.6,4.7,4.4c1.3,1.8,2.4,4.1,3.1,6.8c0.7,2.6,1,5.4,0.8,8.3
			c-0.2,2.9-1,5.7-2.6,8.4c-1.5,2.7-3.9,5.2-7,7.5c-3.2,2.3-7.4,4.1-12.7,5.5c-1.4,0.4-2.9,0.7-4.6,1c-1.7,0.3-3.4,0.5-5.1,0.7
			c-1.7,0.2-3.4,0.3-5,0.4c-1.6,0.1-3,0-4.3-0.1l-1.5,3.4l-5.2,1.4l-7.1-27.1l5.3-2.3l7,10.8c1.1,0.4,2.4,0.7,3.9,0.8
			c1.5,0.1,2.9,0.2,4.4,0.1c1.5-0.1,2.9-0.2,4.2-0.4c1.3-0.2,2.5-0.4,3.5-0.6c2.1-0.6,3.8-1.2,4.9-2c1.1-0.8,1.9-1.6,2.4-2.4
			c0.5-0.9,0.7-1.7,0.7-2.5c0-0.8-0.1-1.6-0.3-2.3c-0.3-1.1-0.9-2-1.8-2.7c-0.9-0.7-2.1-1.4-3.4-1.9c-1.4-0.5-3-1-4.8-1.4
			c-1.8-0.4-3.7-0.8-5.9-1.2c-2.8-0.5-5.5-1.2-8.2-1.9c-2.7-0.7-5.3-1.6-7.6-2.8c-2.3-1.2-4.3-2.7-6-4.5c-1.7-1.8-2.9-4.1-3.6-6.9
			c-0.7-2.6-0.9-5.2-0.6-8c0.3-2.7,1.1-5.3,2.6-7.8c1.5-2.5,3.7-4.7,6.5-6.7C1426.1,411.4,1429.8,409.8,1434.3,408.6z"/>
		<path class="st4" d="M1540.6,403.8c3.6-1.1,6.9-1.6,9.9-1.3c3,0.3,5.6,1.1,7.9,2.4c2.3,1.3,4.2,3,5.9,5.1c1.6,2.1,2.9,4.4,3.8,6.8
			c1.4,3.8,2,7.3,1.8,10.7c-0.2,3.3-1.2,6.4-2.8,9.2c-1.6,2.8-3.8,5.3-6.7,7.5c-2.9,2.2-6.2,4-10,5.4c-4.7,1.8-9,2.9-13,3.4
			c-4,0.5-7.8,0.6-11.3,0.1l-0.5-11.5c3.5-0.1,6.7-0.4,9.7-1.1c3-0.7,5.4-1.3,7.3-2c3.9-1.5,6.6-3.6,7.8-6.3c1.3-2.7,1.3-5.8,0-9.3
			c-1.2-3.3-3.2-5.2-5.9-5.9c-2.7-0.7-5.7-0.4-9,0.9c-0.8,0.3-1.6,0.6-2.4,1c-0.8,0.4-1.5,0.8-2.2,1.3l-5.2-5.4l10.2-23.1l-0.3-0.3
			l-15.9,6.9l-1.9,10.1l-6,0.8l-4.8-20.2l0.6-1.1l21-7.6c2.9-1,5.8-2.1,8.7-3.2c2.9-1.1,6.1-2.4,9.5-3.8l6.4,8.8l-13.1,21.3
			L1540.6,403.8z"/>
		<path class="st4" d="M1616.9,341.7c2-1,4.3-2.2,6.7-3.5c2.5-1.3,5-2.6,7.6-4c2.6-1.3,5.1-2.7,7.6-4c2.5-1.3,4.8-2.5,6.8-3.6
			l1.8,0.1l10.1,19.9l-4.5,3.2l-12.4-10.1l-11.1,5.6l23.2,45.8l10.1-2.2l3,6.9l-33.2,16.8l-3.8-5.7l7.2-7.2l-23.3-45.9l-11.1,5.6
			l0.8,15.9l-5.3,1.8l-10.1-19.9l1.1-1.6c2.1-1,4.4-2.1,6.9-3.3c2.5-1.2,5-2.5,7.5-3.7c2.5-1.3,5-2.5,7.5-3.7
			C1612.5,343.8,1614.8,342.7,1616.9,341.7z"/>
		<path class="st4" d="M1725.5,318.5c2.4,3.8,4.3,8,5.7,12.4c1.4,4.4,2,8.8,1.7,13.2c-0.3,4.4-1.7,8.6-4.1,12.7
			c-2.4,4.1-6.2,7.7-11.4,11c-5.1,3.1-9.9,5.1-14.3,6c-4.4,0.8-8.6,0.6-12.4-0.6c-3.8-1.2-7.5-3.4-10.8-6.5c-3.4-3.1-6.6-7.1-9.5-12
			c-2.4-3.8-4.3-8-5.8-12.4c-1.5-4.4-2.1-8.9-1.7-13.3c0.3-4.4,1.8-8.7,4.3-12.9c2.5-4.2,6.6-8,12.2-11.5c4.7-2.9,9.2-4.6,13.5-5.3
			c4.3-0.7,8.4-0.3,12.3,1c3.9,1.3,7.5,3.5,11,6.6C1719.5,310,1722.7,313.9,1725.5,318.5z M1685.1,315c-2.7,1.7-4.4,3.7-5,6.2
			c-0.6,2.4-0.6,5-0.1,7.6c0.6,2.6,1.5,5.2,2.8,7.8c1.3,2.6,2.6,4.8,3.7,6.7c1.9,3.1,3.9,5.9,5.8,8.2c1.9,2.3,3.8,4.1,5.8,5.4
			c2,1.3,4,2,6,2.1c2.1,0.1,4.2-0.6,6.5-2c2.5-1.5,4.1-3.4,4.9-5.6c0.7-2.2,0.9-4.6,0.5-7.1c-0.4-2.5-1.2-5-2.4-7.6
			c-1.2-2.5-2.4-4.9-3.8-7.1c-1.5-2.5-3.3-4.9-5.2-7.3c-1.9-2.4-3.9-4.3-6-5.9c-2.1-1.5-4.3-2.5-6.6-2.9
			C1689.7,313,1687.4,313.6,1685.1,315z"/>
		<path class="st4" d="M1760.7,247.3c6.3-5.1,12.3-7.4,17.9-6.9c5.6,0.5,10.4,3.3,14.6,8.5c2.2,2.8,3.9,5.9,4.9,9.5
			c1.1,3.5,1.6,7.4,1.6,11.4c0,4.1-0.5,8.4-1.4,12.9c-0.9,4.5-2.3,9.1-4,13.8l0.3,0.3c2.7-2.4,5.5-4.7,8.2-7.1
			c2.7-2.4,5.6-4.9,8.6-7.5l-1.6-12.5l4.6-2.4l11.6,19l-0.2,1.6c-1.3,1-3.6,2.8-6.9,5.4c-3.3,2.5-7.4,5.8-12.3,9.7
			c-0.7,0.6-1.5,1.2-2.3,1.8c-0.8,0.6-1.9,1.5-3.3,2.6c-1.4,1.1-3.2,2.6-5.4,4.4c-2.2,1.8-5.1,4.2-8.6,7.1l-6.3-4.8
			c1-4.5,2-9.1,3-13.9c1-4.8,1.7-9.4,2.1-13.9c0.4-4.5,0.2-8.8-0.5-12.8c-0.7-4-2.2-7.5-4.6-10.5c-0.9-1.1-1.9-2.1-2.9-2.8
			c-1-0.8-2.1-1.2-3.3-1.4c-1.2-0.2-2.5,0-4,0.6c-1.4,0.5-3.1,1.5-4.8,3c-2.1,1.7-4,3.7-5.8,6c-1.8,2.3-3.2,4.8-4.4,7.4l-9.5-4.5
			c1.1-4.4,2.7-8.6,5-12.7C1753.1,254.5,1756.4,250.7,1760.7,247.3z"/>
	</g>
	<g>
		<path class="st5" d="M502.3,326l-29.6,29.1l2.6,4.5l-2.4,2.4l-9.6-7.2l-0.4-0.9l2.7-4.4l-0.1-0.2l-7-0.5c-1.8-1.1-3.3-2.3-4.5-3.4
			c-1.8-1.9-3-3.7-3.6-5.5c-0.6-1.8-0.7-3.6-0.4-5.4c0.3-1.8,1-3.5,2.1-5.2c1.1-1.7,2.4-3.3,3.9-4.8c1.8-1.8,3.7-3.2,5.6-4.3
			c1.9-1.1,3.9-1.8,5.9-2.1c2-0.3,4,0,6,0.8c2,0.8,4,2.1,5.9,4.1c0.9,1,1.8,2,2.6,3.1c0.8,1.1,1.5,2.5,2.1,4l6.9-6.8l-2.4-4.3
			l2.5-2.5l10.9,8.4L502.3,326z M464.1,331.2c-0.9,0.9-1.8,1.9-2.5,2.9c-0.7,1-1.2,2-1.5,3.1c-0.3,1-0.3,2.1,0,3.1
			c0.2,1,0.8,2,1.8,3c0.8,0.8,1.7,1.5,2.8,2c1.1,0.6,2.1,1,3,1.2l12.4-12.2c-0.3-0.8-0.7-1.6-1.3-2.4c-0.6-0.8-1.2-1.5-1.8-2.1
			c-1-1-2.1-1.7-3.1-2.1c-1.1-0.4-2.2-0.4-3.3-0.3c-1.1,0.2-2.2,0.6-3.3,1.3C466.1,329.4,465.1,330.2,464.1,331.2z"/>
		<path class="st5" d="M510.3,353.1c2.5,2.3,4.1,4.4,5,6.4c0.9,2,1.3,3.9,1.2,5.7c-0.1,1.8-0.6,3.4-1.5,5c-0.9,1.5-1.9,3-3,4.2
			l-1,0.3l-16.8-13.8c-2.4,2.8-3.6,5.3-3.5,7.6c0.1,2.2,1.4,4.6,4.1,7c0.8,0.7,1.9,1.6,3.4,2.5c1.5,1,3,1.8,4.6,2.5l-2.2,4.8
			c-2.1-0.4-4.3-1.3-6.7-2.6c-2.4-1.3-4.5-2.8-6.5-4.6c-2.3-2.1-4-4.2-5.1-6.2c-1.1-2-1.7-4-1.7-6c0-2,0.4-3.9,1.3-5.9
			c0.9-1.9,2.3-3.8,4-5.7c1.4-1.5,3-2.9,4.7-4.1c1.8-1.2,3.7-2,5.7-2.3c2.1-0.4,4.2-0.2,6.6,0.6
			C505.3,349.2,507.8,350.7,510.3,353.1z M505.7,364.7c0.6-0.6,1.1-1.3,1.6-2c0.4-0.7,0.7-1.4,0.9-2.1c0.1-0.7,0.1-1.4-0.1-2.1
			c-0.2-0.7-0.7-1.4-1.5-2.1c-0.8-0.8-1.7-1.3-2.6-1.4c-0.9-0.2-1.7-0.1-2.6,0.1c-0.9,0.3-1.7,0.7-2.5,1.2c-0.8,0.6-1.5,1.2-2.1,1.9
			L505.7,364.7z"/>
		<path class="st5" d="M522.2,401.5l-6.3,0.3c-0.9-0.4-1.7-0.9-2.6-1.4c-0.9-0.5-1.6-1-2.3-1.5c-1.5-1.2-2.5-2.4-3.1-3.7
			c-0.6-1.2-0.9-2.4-1-3.6c0-1.2,0.2-2.3,0.6-3.3c0.4-1,1-2,1.7-2.8c0.3-0.4,0.7-0.8,1.2-1.2c0.5-0.4,1-0.8,1.7-1.2
			c0.6-0.3,1.3-0.6,2.1-0.8c0.7-0.2,1.6-0.2,2.5-0.1c0.4,0.1,1,0.2,1.7,0.4c0.7,0.2,1.7,0.6,2.8,1.2c1.1,0.6,2.5,1.4,4.2,2.4
			c1.7,1,3.6,2.4,5.9,4.2l1.6-1.9c1.2-1.4,1.7-2.6,1.4-3.7c-0.2-1-1.2-2.2-2.8-3.6c-1-0.8-2.3-1.8-4-2.8c-1.7-1.1-3.3-1.9-4.9-2.6
			l2.1-4.9c2.2,0.5,4.5,1.3,6.9,2.5c2.4,1.1,4.7,2.5,6.7,4.2c3,2.5,4.9,5.1,5.5,7.8c0.7,2.7-0.3,5.5-2.8,8.5L531.2,406l3.4,4.3
			l-2.3,2.7c-1.3-0.2-2.7-0.7-4.4-1.4c-1.6-0.7-3.1-1.6-4.4-2.7c-0.5-0.4-0.9-0.8-1.3-1.3c-0.4-0.5-0.7-1-0.9-1.6
			c-0.2-0.6-0.2-1.2-0.1-2c0.1-0.7,0.5-1.6,1.1-2.6L522.2,401.5z M518.3,396.5c0.7,0.6,1.6,1.1,2.7,1.5c1.1,0.4,2.3,0.7,3.5,0.7
			l4.2-5.1c-1.9-1.3-3.5-2.2-4.8-2.7c-1.3-0.5-2.3-0.8-3.1-0.8c-0.8,0-1.4,0.1-1.9,0.4c-0.4,0.3-0.8,0.6-1.1,0.9
			c-0.7,0.8-1,1.7-1,2.6C516.9,394.9,517.3,395.7,518.3,396.5z"/>
		<path class="st5" d="M550.8,422.9l2.6,4l-2.2,2.7L536,418l1.8-2.8l5.4,1.6c0.2-0.3,0.9-1.1,1.9-2.5c1.1-1.4,2.4-3.1,3.9-5
			c1.5-2,3.1-4.1,4.8-6.3c1.7-2.3,3.4-4.4,4.9-6.4c1.5-2,2.9-3.8,4-5.3c1.1-1.5,1.9-2.5,2.3-3l-2.9-3.9l2.1-2.8l11.9,6.7l0.5,0.8
			L550.8,422.9z"/>
		<path class="st5" d="M589.7,416.9c2.7,1.9,4.7,3.8,5.8,5.7c1.2,1.9,1.8,3.7,1.9,5.5c0.1,1.8-0.2,3.5-0.9,5.1
			c-0.7,1.6-1.5,3.2-2.4,4.6l-0.9,0.4l-18.4-11.6c-2.1,3.1-2.9,5.7-2.6,7.9c0.4,2.2,2,4.4,5,6.5c0.9,0.6,2.1,1.3,3.7,2.1
			c1.6,0.8,3.2,1.4,4.9,1.9l-1.5,5.1c-2.1-0.2-4.5-0.7-7-1.7c-2.5-1-4.8-2.2-7-3.8c-2.6-1.8-4.5-3.7-5.9-5.5
			c-1.4-1.9-2.2-3.8-2.5-5.8c-0.3-2-0.1-4,0.6-6c0.7-2,1.8-4.1,3.3-6.2c1.2-1.7,2.6-3.2,4.2-4.6c1.6-1.4,3.4-2.4,5.4-3
			c2-0.6,4.2-0.7,6.6-0.2C584.3,413.6,586.9,414.8,589.7,416.9z M586.6,429c0.5-0.7,0.9-1.4,1.3-2.2c0.4-0.7,0.6-1.5,0.6-2.2
			c0.1-0.7-0.1-1.4-0.4-2.1c-0.3-0.7-0.9-1.3-1.7-1.9c-0.9-0.7-1.9-1-2.7-1.1c-0.9-0.1-1.7,0.1-2.6,0.5c-0.8,0.4-1.6,0.9-2.3,1.5
			c-0.7,0.7-1.3,1.4-1.9,2.2L586.6,429z"/>
		<path class="st5" d="M616.3,441.2l0.1,0.1c1-0.2,2.1-0.4,3.3-0.5c1.2-0.1,2.3-0.1,3.4-0.1c1.1,0.1,2.3,0.3,3.4,0.6
			c1.1,0.3,2.2,0.8,3.3,1.5c0.5,0.3,0.8,0.8,0.9,1.5c0.1,0.7-0.2,1.4-0.7,2.2c-0.5,0.8-1.3,1.6-2.4,2.6c-1.1,0.9-2.2,1.6-3.5,2
			l-9.4-7.1c-0.2,0.3-0.7,1.1-1.5,2.3c-0.8,1.2-1.7,2.6-2.8,4.2c-1,1.6-2.1,3.3-3.3,5.1c-1.1,1.8-2.2,3.4-3.1,4.8l3.3,4.1l-1.9,2.7
			l-16.4-10.6l1.6-2.9l5.6,1.2c0.2-0.3,0.6-0.9,1.1-1.7c0.6-0.9,1.2-1.9,2-3c0.7-1.1,1.5-2.4,2.4-3.7c0.8-1.3,1.7-2.6,2.5-3.8
			c0.8-1.2,1.5-2.3,2.1-3.3c0.6-1,1.1-1.7,1.5-2.2l-3.3-3.7l1.9-2.9l11.2,5l0.5,0.7L616.3,441.2z"/>
		<path class="st5" d="M662.4,469.1C662.5,469.1,662.5,469.1,662.4,469.1c0,0.1,0,0.1,0.1,0.1l6.4-1.7c1.1,0.3,2.1,0.6,3.1,1
			c1,0.4,1.8,0.8,2.5,1.1c2.3,1.3,4,2.7,5.1,4.2c1.1,1.6,1.4,3.4,0.8,5.5l6.9-1.9c1.1,0.3,2.1,0.6,3.2,1c1.1,0.4,2,0.8,2.7,1.2
			c2.9,1.6,4.8,3.4,5.6,5.4c0.8,2,0.4,4.4-1.1,7.2l-9.2,17l3.5,3.5l-1.7,2.7l-15.6-8.4l1.4-2.9l4.8,0.7c1.3-2.3,2.6-4.6,3.8-7
			c1.2-2.3,2.4-4.7,3.7-7c0.9-1.7,1.3-3.1,1.1-4.3c-0.2-1.1-1.2-2.2-2.9-3.1c-0.7-0.4-1.7-0.7-3.1-1c-1.4-0.3-2.8-0.4-4.2-0.3
			c-0.8,1.4-1.5,2.8-2.2,4.2c-0.7,1.3-1.5,2.7-2.2,4.1c-0.7,1.4-1.5,2.8-2.2,4.2c-0.8,1.4-1.6,3-2.5,4.7l3.4,3.4l-1.8,2.7l-15.5-8.4
			l1.4-2.9l4.8,0.7c1.2-2.3,2.4-4.7,3.7-7c1.3-2.3,2.5-4.6,3.8-7c0.9-1.7,1.3-3.1,1-4.3c-0.2-1.1-1.2-2.2-2.9-3.1
			c-0.8-0.4-1.9-0.8-3.2-1c-1.3-0.3-2.7-0.4-4.3-0.4c-1.5,2.9-3.1,5.7-4.6,8.6c-1.5,2.8-3,5.7-4.6,8.6l3.5,3.4l-1.8,2.8l-15.8-8.5
			l1.3-2.9l5.2,0.8l10.4-19.2l-3.5-3.4l1.5-2.8l10.8,3.9l0.5,0.6L662.4,469.1z"/>
		<path class="st5" d="M721.8,530.8l0.7-5c0,0-0.1,0-0.1-0.1c0,0,0-0.1-0.1-0.1l-6.7,1.9c-1.1-0.2-2.3-0.5-3.6-1
			c-1.3-0.5-2.4-0.9-3.2-1.3c-3-1.4-5-3.1-5.8-5c-0.9-1.9-0.6-4.3,0.7-7.2l7.8-16.7l-3.7-3.2l1.5-3.1l13,4.1
			c0.1,0.1,0.4,0.3,0.6,0.7c-1.5,3.2-3,6.4-4.4,9.5c-1.5,3.2-2.9,6.4-4.4,9.6c-0.8,1.6-0.9,3-0.6,4.1c0.4,1.1,1.4,2.1,3.1,2.9
			c0.8,0.4,1.8,0.7,3.2,0.9c1.4,0.3,2.8,0.3,4.2,0.2l7.7-16.4l-3.7-3.2l1.5-3.1l13,4l0.6,0.7l-11.5,24.5c0.7,0.6,1.3,1.1,2,1.6
			c0.7,0.5,1.4,1.1,2.1,1.7l-1.5,3.2l-11.7-3.6L721.8,530.8z"/>
		<path class="st5" d="M765.5,513.5c1.9,0.8,3.7,1.8,5.4,2.9c1.7,1.1,3.2,2.4,4.3,3.7c-0.6,1.4-1.2,2.7-1.7,4
			c-0.6,1.3-1.1,2.7-1.7,4l-3.3-0.9c0-0.9-0.1-1.8-0.1-2.7c-0.1-0.9-0.1-1.8-0.2-2.6c-0.7-0.9-1.4-1.5-2.3-2.1
			c-0.8-0.5-1.5-0.9-1.9-1.1c-1.4-0.6-2.5-0.7-3.3-0.5c-0.8,0.2-1.4,0.8-1.7,1.5c-0.2,0.4-0.2,0.8-0.2,1.2c0.1,0.4,0.3,0.9,0.6,1.4
			c0.3,0.5,0.8,1.1,1.5,1.8c0.6,0.7,1.4,1.5,2.4,2.4c1.4,1.3,2.6,2.5,3.6,3.7c1,1.2,1.7,2.3,2.2,3.4c0.5,1.1,0.8,2.2,0.8,3.4
			c0,1.1-0.3,2.3-0.8,3.6c-0.5,1.3-1.3,2.4-2.3,3.3c-1,0.9-2.2,1.6-3.7,1.9c-1.5,0.4-3.3,0.4-5.3,0.1c-2-0.3-4.4-1-7-2.1
			c-2.2-0.9-4.3-2-6.1-3.3c-1.9-1.3-3.2-2.4-4-3.6l3.2-9l3.3,0.7l0.3,5.8c0.5,0.8,1.3,1.6,2.3,2.3c1,0.7,1.9,1.2,2.8,1.6
			c0.7,0.3,1.4,0.5,2.1,0.6c0.7,0.1,1.4,0.2,2,0.1c0.6,0,1.2-0.2,1.6-0.5c0.5-0.3,0.8-0.7,1-1.2c0.3-0.6,0.3-1.2,0.2-1.8
			c-0.1-0.6-0.4-1.1-0.7-1.7c-0.4-0.6-0.8-1.1-1.4-1.7c-0.6-0.6-1.2-1.2-1.8-1.9c-1-1-1.9-2-2.9-3c-1-1-1.9-2.1-2.5-3.2
			c-0.7-1.1-1.1-2.3-1.4-3.5c-0.2-1.2,0-2.5,0.5-3.9c1.1-2.6,3-4.3,5.8-5.1C757.4,511.1,761,511.6,765.5,513.5z"/>
		<path class="st5" d="M788.5,544.5c-0.5,1.2-0.8,2.2-0.9,3.1c-0.2,0.9-0.2,1.6,0,2.2c0.2,0.6,0.5,1.1,1,1.5
			c0.5,0.4,1.2,0.8,2.1,1.1c0.9,0.3,1.7,0.6,2.6,0.8c0.9,0.2,2,0.5,3.5,0.8l-0.7,5.3c-2,0.1-3.9-0.1-5.7-0.4
			c-1.9-0.3-3.7-0.8-5.5-1.5c-3.7-1.4-6.1-3.2-7.1-5.2s-0.9-4.6,0.3-7.8l6.7-17.4l-4.7-1.8l1.1-2.9c1-0.1,2-0.1,3.1-0.1
			c1,0,2.1,0,3.1-0.1c0.9-1,1.8-1.9,2.7-2.9c0.9-0.9,1.8-1.9,2.7-2.9l5.3,0.5l0.6,0.8l-3.3,8.6l9.2,3.5L803,534l-9.2-3.5
			L788.5,544.5z"/>
		<path class="st5" d="M844.9,542.8c1.9,0.6,3.8,1.4,5.6,2.4c1.8,1,3.3,2.1,4.6,3.4c-0.5,1.4-0.9,2.8-1.4,4.2
			c-0.5,1.4-0.9,2.7-1.4,4.2l-3.4-0.7c-0.1-0.9-0.2-1.8-0.4-2.7c-0.2-0.9-0.3-1.8-0.4-2.6c-0.8-0.8-1.6-1.4-2.4-1.9
			c-0.9-0.4-1.5-0.7-2-0.9c-1.4-0.5-2.5-0.5-3.3-0.2c-0.8,0.3-1.3,0.9-1.6,1.7c-0.1,0.4-0.2,0.8-0.1,1.2c0.1,0.4,0.3,0.8,0.7,1.3
			c0.4,0.5,0.9,1,1.6,1.6c0.7,0.6,1.5,1.3,2.6,2.2c1.5,1.2,2.8,2.3,3.9,3.4c1.1,1.1,1.9,2.2,2.5,3.2c0.6,1.1,1,2.1,1.1,3.3
			c0.1,1.1-0.1,2.4-0.5,3.7c-0.4,1.3-1.1,2.5-2,3.5c-0.9,1-2.1,1.8-3.6,2.2c-1.5,0.5-3.2,0.7-5.3,0.6c-2.1-0.1-4.5-0.6-7.2-1.5
			c-2.3-0.7-4.4-1.7-6.4-2.8c-2-1.1-3.4-2.2-4.3-3.2l2.4-9.3l3.4,0.5l0.8,5.8c0.6,0.8,1.4,1.5,2.5,2.1c1,0.6,2,1.1,2.9,1.4
			c0.7,0.2,1.4,0.4,2.1,0.4c0.7,0.1,1.4,0.1,2-0.1c0.6-0.1,1.1-0.3,1.6-0.6c0.4-0.3,0.7-0.7,0.9-1.3c0.2-0.6,0.2-1.2,0.1-1.8
			c-0.2-0.6-0.4-1.1-0.9-1.6c-0.4-0.5-0.9-1.1-1.5-1.6c-0.6-0.5-1.3-1.1-2-1.7c-1-0.9-2.1-1.8-3.2-2.7c-1.1-0.9-2-1.9-2.8-3
			c-0.8-1-1.3-2.2-1.6-3.4c-0.3-1.2-0.2-2.5,0.2-4c0.9-2.7,2.7-4.6,5.3-5.6C836.7,541.1,840.3,541.3,844.9,542.8z"/>
		<path class="st5" d="M870.4,571.8c-0.4,1.2-0.6,2.3-0.7,3.1c-0.1,0.9,0,1.6,0.2,2.2c0.2,0.6,0.6,1.1,1.1,1.4
			c0.5,0.4,1.3,0.7,2.2,0.9c0.9,0.3,1.8,0.5,2.6,0.6c0.9,0.1,2.1,0.3,3.5,0.5l-0.2,5.3c-1.9,0.2-3.9,0.2-5.7,0.1
			c-1.9-0.2-3.8-0.5-5.6-1c-3.8-1.1-6.3-2.6-7.5-4.6c-1.2-2-1.3-4.6-0.4-7.8l5.2-17.9l-4.8-1.4l0.9-3c1-0.2,2-0.3,3-0.4
			c1-0.1,2.1-0.2,3.1-0.4c0.8-1,1.7-2.1,2.5-3.1c0.8-1,1.7-2.1,2.5-3.1l5.3,0.1l0.7,0.7l-2.6,8.8l9.5,2.7l-1.3,4.4l-9.5-2.7
			L870.4,571.8z"/>
		<path class="st5" d="M902.2,589.1l-5.6,2.9c-1,0-1.9-0.1-2.9-0.1c-1-0.1-1.9-0.2-2.7-0.4c-1.8-0.5-3.3-1.1-4.4-2
			c-1.1-0.8-1.9-1.8-2.4-2.8c-0.5-1-0.8-2.1-0.9-3.3c0-1.1,0.1-2.2,0.3-3.3c0.1-0.5,0.3-1,0.6-1.6c0.3-0.6,0.6-1.2,1-1.8
			c0.4-0.6,0.9-1.1,1.5-1.6c0.6-0.5,1.3-0.9,2.2-1.1c0.4-0.1,1-0.2,1.7-0.4c0.7-0.1,1.8-0.2,3-0.1c1.3,0,2.9,0.2,4.8,0.4
			c1.9,0.2,4.3,0.6,7.1,1.2l0.6-2.4c0.5-1.8,0.4-3.1-0.3-3.9c-0.6-0.8-2-1.5-4.1-2c-1.3-0.3-2.9-0.6-4.8-0.9
			c-1.9-0.2-3.8-0.3-5.5-0.3l-0.2-5.3c2.2-0.5,4.7-0.7,7.3-0.7c2.7,0,5.3,0.3,7.9,1c3.8,1,6.6,2.5,8.3,4.6c1.7,2.1,2.1,5.1,1.1,8.9
			l-3.9,15.3l4.9,2.5l-0.9,3.5c-1.2,0.4-2.8,0.6-4.5,0.6c-1.8,0-3.5-0.1-5.1-0.6c-0.6-0.1-1.2-0.3-1.8-0.6c-0.6-0.2-1.1-0.6-1.5-1
			c-0.4-0.4-0.7-1-0.9-1.8c-0.2-0.7-0.2-1.7-0.1-2.8L902.2,589.1z M896.5,586.3c0.9,0.2,1.9,0.3,3,0.2c1.2-0.1,2.3-0.4,3.5-0.8
			l1.6-6.4c-2.3-0.4-4.1-0.5-5.5-0.4c-1.4,0.1-2.4,0.3-3.2,0.6c-0.7,0.3-1.3,0.7-1.5,1.1c-0.3,0.4-0.5,0.9-0.6,1.2
			c-0.3,1.1-0.2,2,0.2,2.8C894.5,585.5,895.3,586,896.5,586.3z"/>
		<path class="st5" d="M939.5,568.5c0.3,0.2,0.6,0.4,0.7,0.5l0.5,5.2c0,0,0.1,0,0.1,0c0,0,0,0,0.1,0l6.1-3.4c1.1,0,2.3,0,3.5,0.1
			c1.2,0.1,2.4,0.3,3.4,0.5c3.4,0.7,5.7,1.9,7,3.6c1.3,1.6,1.6,4.1,0.9,7.3c-0.3,1.4-0.6,2.7-0.9,4c-0.3,1.3-0.6,2.7-0.9,4.2
			c-0.3,1.5-0.6,3-1,4.8c-0.3,1.7-0.7,3.6-1.2,5.7l4,2.3l-0.7,3.4l-17.9-3.8l0.6-3.4c1.9-0.3,3-0.4,3.6-0.5c0.5-0.1,0.8-0.1,0.9-0.1
			c0.5-2.5,1.1-5.1,1.6-7.6c0.5-2.5,1-5,1.6-7.5c0.4-1.8,0.3-3.1-0.2-4.1c-0.5-1-1.8-1.7-3.8-2.1c-0.4-0.1-0.8-0.1-1.5-0.2
			c-0.6,0-1.2,0-1.9,0c-0.7,0-1.4,0.1-2.1,0.2c-0.7,0.1-1.4,0.3-2,0.5l-3.9,18.3c0.6,0.4,1.3,0.7,1.9,1.1c0.7,0.4,1.3,0.7,1.9,1.1
			l-1,3.4l-17.8-3.8c0-0.6,0.1-1.1,0.2-1.7c0.1-0.5,0.2-1.1,0.3-1.7l5.1-0.7l4.5-20.8l-4.4-2.2l0.7-3.4c2,0.1,4,0.2,6,0.3
			C935.5,568.3,937.5,568.4,939.5,568.5z"/>
		<path class="st5" d="M1007.1,566.9l-7.1,40.9l4.7,2.2l-0.6,3.4l-12-0.2l-0.8-0.5l-0.3-5.1l-0.2-0.1l-6,3.7c-2.1,0.2-4,0.1-5.6-0.2
			c-2.6-0.4-4.6-1.2-6.1-2.4c-1.5-1.2-2.7-2.6-3.4-4.2c-0.8-1.6-1.2-3.4-1.3-5.4c-0.1-2,0-4.1,0.4-6.2c0.4-2.5,1.1-4.7,2-6.8
			c0.9-2.1,2.1-3.8,3.6-5.1c1.5-1.4,3.3-2.3,5.3-2.9c2.1-0.6,4.5-0.6,7.2-0.1c1.3,0.2,2.6,0.6,3.9,1c1.3,0.5,2.7,1.1,4.1,2l1.7-9.6
			l-4.5-2.1l0.6-3.4l13.7,0.5L1007.1,566.9z M979.1,593.3c-0.2,1.3-0.3,2.6-0.3,3.8c0,1.2,0.2,2.4,0.6,3.4c0.4,1,1,1.9,1.8,2.6
			c0.8,0.7,1.9,1.2,3.2,1.4c1.1,0.2,2.2,0.2,3.4,0c1.2-0.2,2.3-0.4,3.2-0.8l3-17.1c-0.7-0.5-1.5-0.9-2.5-1.2
			c-0.9-0.3-1.8-0.6-2.7-0.7c-1.4-0.2-2.7-0.2-3.8,0.1c-1.1,0.3-2,0.9-2.8,1.7c-0.8,0.8-1.5,1.8-2,2.9
			C979.7,590.7,979.3,592,979.1,593.3z"/>
		<path class="st5" d="M1065.4,605.7c-0.3,2.2-0.9,4.3-1.8,6.3c-0.9,2-2.2,3.7-3.9,5.1c-1.6,1.4-3.6,2.5-5.9,3.2
			c-2.3,0.7-5,0.8-8,0.5c-3-0.4-5.6-1-7.7-2.1c-2.1-1-3.7-2.3-4.9-3.9c-1.2-1.6-2-3.4-2.5-5.5c-0.4-2.1-0.5-4.5-0.2-7
			c0.3-2.3,0.9-4.4,1.9-6.4c1-2,2.3-3.6,4-5c1.7-1.4,3.7-2.4,6-3.1c2.3-0.7,5-0.8,8.1-0.5c2.8,0.3,5.2,1,7.2,2c2,1,3.6,2.3,4.9,3.9
			c1.2,1.6,2.1,3.5,2.5,5.6C1065.6,600.9,1065.7,603.2,1065.4,605.7z M1041.2,602.4c-0.2,1.6-0.3,3.2-0.3,4.6c0,1.5,0.2,2.8,0.6,3.9
			c0.4,1.2,1,2.1,1.8,2.9c0.8,0.8,2,1.2,3.4,1.4c1.4,0.2,2.6,0,3.6-0.5c1-0.5,1.8-1.2,2.4-2.1c0.6-0.9,1.1-2,1.5-3.3
			c0.4-1.2,0.6-2.6,0.8-4c0.2-1.5,0.2-3,0.2-4.4c0-1.5-0.2-2.8-0.6-4c-0.4-1.2-1-2.2-1.8-3c-0.8-0.8-1.9-1.3-3.3-1.5
			c-1.5-0.2-2.7,0-3.7,0.6c-1,0.6-1.8,1.3-2.4,2.3c-0.6,1-1.1,2.1-1.4,3.3C1041.6,599.9,1041.4,601.1,1041.2,602.4z"/>
		<path class="st5" d="M1082.9,590.6c0.4,0.2,0.6,0.3,0.8,0.4l1.1,5.1c0,0,0.1,0,0.1,0c0,0,0,0,0.1,0l5.6-4.2
			c1.1-0.2,2.3-0.3,3.5-0.3c1.3,0,2.4,0,3.4,0.1c3.5,0.3,5.9,1.2,7.4,2.6c1.5,1.5,2.1,3.8,1.8,7.1c-0.1,1.4-0.2,2.8-0.3,4.1
			c-0.1,1.3-0.2,2.8-0.3,4.2c-0.1,1.5-0.2,3.1-0.4,4.8c-0.1,1.7-0.3,3.7-0.4,5.8l4.2,1.8l-0.3,3.5l-18.2-1.5l0.1-3.5
			c1.8-0.5,3-0.8,3.5-1c0.5-0.1,0.8-0.2,0.9-0.2c0.2-2.6,0.4-5.2,0.6-7.7c0.2-2.5,0.4-5.1,0.6-7.6c0.1-1.8-0.1-3.2-0.7-4.1
			c-0.6-0.9-2-1.4-4.1-1.6c-0.4,0-0.9,0-1.5,0c-0.6,0-1.2,0.1-1.9,0.2c-0.7,0.1-1.3,0.3-2,0.5c-0.7,0.2-1.3,0.4-1.9,0.7l-1.4,18.7
			c0.7,0.3,1.4,0.6,2.1,0.8c0.7,0.3,1.4,0.6,2.1,0.8l-0.5,3.5l-18.1-1.5c0-0.6-0.1-1.1,0-1.7c0-0.5,0-1.1,0-1.7l4.9-1.4l1.7-21.2
			l-4.6-1.6l0.3-3.4c2-0.2,4-0.3,6-0.4C1078.9,590.9,1080.9,590.8,1082.9,590.6z"/>
		<path class="st5" d="M1168.7,627.9c-1.9-0.1-4-0.2-6.1-0.3c-2.1-0.1-4.5-0.2-7.2-0.2c-2.5-0.1-5-0.1-7.5-0.1c-2.4,0-4.7,0-6.7,0
			l0-4l9-2l0.8-32.1l-8.7-1.3l0.1-4l17.4-2.7l1.6,1.7l-0.9,38.8l8.4,1.9L1168.7,627.9z"/>
		<path class="st5" d="M1183.5,628l23.1-38c0,0,0-0.1-0.1-0.1l-0.1-0.1l-19.4,0.8l-4,6.7l-3.2-0.7l1.9-13.5l0.7-0.5c3,0,5.6,0,8,0
			c2.4,0,4.7,0,6.9,0c2.4,0,4.8-0.1,7.3-0.1c2.5,0,5.2-0.1,8.1-0.2l2.5,3.2l-21.7,43.2l-9,0.8L1183.5,628z"/>
		<path class="st5" d="M1262.5,621.1l-4.4,4.5c-0.9,0.3-1.8,0.5-2.8,0.8c-1,0.2-1.9,0.4-2.7,0.4c-1.9,0.1-3.5-0.1-4.8-0.5
			c-1.3-0.5-2.3-1.1-3.2-1.9c-0.8-0.8-1.5-1.8-1.9-2.8c-0.4-1.1-0.6-2.1-0.7-3.2c0-0.5,0-1.1,0-1.7c0-0.7,0.2-1.3,0.4-2
			c0.2-0.7,0.5-1.3,1-2c0.4-0.6,1-1.2,1.8-1.8c0.4-0.2,0.9-0.5,1.5-0.9c0.7-0.4,1.6-0.7,2.9-1.1c1.2-0.4,2.8-0.7,4.7-1.1
			c1.9-0.4,4.3-0.7,7.2-1.1l-0.2-2.5c-0.1-1.8-0.6-3.1-1.5-3.6c-0.9-0.6-2.4-0.8-4.5-0.7c-1.3,0.1-2.9,0.3-4.8,0.7
			c-1.9,0.4-3.7,0.8-5.3,1.4l-1.9-5c2-1.1,4.2-2.1,6.7-3c2.5-0.8,5.1-1.4,7.8-1.5c3.9-0.3,7,0.4,9.3,1.8c2.3,1.5,3.6,4.2,3.8,8.1
			l1,15.8l5.4,0.8l0.2,3.6c-1.1,0.7-2.4,1.4-4.1,2c-1.7,0.6-3.4,0.9-5,1.1c-0.6,0-1.2,0-1.8,0c-0.6,0-1.2-0.2-1.7-0.5
			c-0.5-0.3-1-0.8-1.4-1.4c-0.4-0.6-0.7-1.5-0.9-2.7L1262.5,621.1z M1256.3,620.2c0.9-0.1,1.9-0.3,2.9-0.8c1.1-0.4,2.1-1.1,3.1-1.9
			l-0.4-6.6c-2.3,0.4-4.1,0.8-5.3,1.3c-1.3,0.5-2.2,1-2.8,1.6c-0.6,0.5-1,1-1.1,1.6c-0.1,0.5-0.2,1-0.2,1.4c0.1,1.1,0.4,2,1,2.6
			C1254.1,620,1255,620.3,1256.3,620.2z"/>
		<path class="st5" d="M1290.2,590.1c0.4,0.1,0.7,0.2,0.9,0.2l2,4.8c0,0,0.1,0,0.1,0c0,0,0,0,0.1,0l4.8-5.1c1-0.4,2.2-0.7,3.4-0.9
			c1.2-0.3,2.4-0.4,3.4-0.5c3.5-0.3,6,0.1,7.8,1.2c1.7,1.2,2.8,3.4,3.1,6.7c0.1,1.4,0.3,2.8,0.4,4.1c0.1,1.3,0.3,2.7,0.4,4.2
			c0.2,1.5,0.3,3.1,0.5,4.8c0.2,1.7,0.4,3.7,0.6,5.8l4.5,1l0.4,3.5l-18.2,1.8l-0.5-3.5c1.7-0.8,2.8-1.4,3.2-1.6
			c0.5-0.2,0.7-0.3,0.8-0.4c-0.3-2.6-0.5-5.1-0.8-7.7c-0.3-2.5-0.5-5.1-0.8-7.6c-0.2-1.8-0.7-3.1-1.4-3.9s-2.2-1.1-4.3-0.9
			c-0.4,0-0.8,0.1-1.4,0.3c-0.6,0.1-1.2,0.3-1.8,0.6c-0.6,0.2-1.3,0.5-1.9,0.9c-0.6,0.3-1.2,0.7-1.7,1l2,18.6
			c0.7,0.1,1.4,0.3,2.2,0.4c0.7,0.1,1.5,0.3,2.2,0.4l0.2,3.6L1282,624c-0.2-0.6-0.3-1.1-0.3-1.7c-0.1-0.5-0.2-1.1-0.3-1.7l4.6-2.3
			l-2.1-21.1l-4.8-0.8l-0.3-3.4c1.9-0.6,3.9-1.1,5.8-1.5C1286.3,591.1,1288.3,590.6,1290.2,590.1z"/>
		<path class="st5" d="M1353.8,567.9l5.7,41.1l5.1,0.6l0.5,3.4l-11.5,3.5l-0.9-0.2l-1.9-4.8l-0.2,0l-4.6,5.4c-2,0.8-3.8,1.3-5.4,1.6
			c-2.6,0.4-4.8,0.2-6.6-0.4c-1.8-0.6-3.3-1.6-4.5-2.9c-1.2-1.3-2.2-2.9-2.9-4.8c-0.7-1.9-1.2-3.9-1.5-6c-0.3-2.5-0.4-4.8-0.1-7.1
			c0.3-2.2,0.9-4.2,1.9-6c1-1.8,2.4-3.2,4.2-4.4c1.8-1.2,4.1-1.9,6.8-2.3c1.3-0.2,2.7-0.3,4.1-0.2c1.4,0,2.9,0.2,4.5,0.6l-1.3-9.6
			l-4.9-0.6l-0.5-3.5l13.2-3.7L1353.8,567.9z M1335.2,601.6c0.2,1.3,0.5,2.5,0.9,3.7c0.4,1.2,0.9,2.2,1.6,3c0.7,0.8,1.5,1.5,2.5,1.9
			c1,0.4,2.1,0.5,3.5,0.4c1.1-0.2,2.2-0.5,3.3-1c1.1-0.5,2-1.1,2.8-1.7l-2.4-17.2c-0.8-0.2-1.7-0.4-2.7-0.4c-1,0-1.9,0-2.8,0.2
			c-1.4,0.2-2.6,0.6-3.5,1.3c-0.9,0.7-1.7,1.5-2.2,2.5c-0.5,1-0.8,2.1-1,3.4C1335,598.9,1335,600.3,1335.2,601.6z"/>
		<path class="st5" d="M1397.4,580.2C1397.4,580.2,1397.5,580.2,1397.4,580.2c0.1,0,0.1,0,0.1,0l3.8-5.4c1-0.5,2-0.9,3-1.2
			c1-0.3,1.9-0.6,2.6-0.8c2.6-0.5,4.8-0.6,6.7-0.1c1.9,0.5,3.2,1.7,4.2,3.7l4-5.9c1-0.5,2-0.9,3.1-1.3c1.1-0.4,2-0.6,2.9-0.8
			c3.3-0.7,5.9-0.5,7.8,0.5c1.9,1,3.2,3.1,3.8,6.2l3.9,18.9l4.9,0.5l0.5,3.2l-17.3,3.6l-0.8-3.1l4.2-2.5c-0.5-2.6-1-5.2-1.6-7.8
			c-0.6-2.6-1.1-5.2-1.7-7.7c-0.4-1.9-1-3.2-1.9-3.9c-0.9-0.7-2.3-0.9-4.3-0.5c-0.8,0.2-1.8,0.6-3,1.2c-1.2,0.7-2.4,1.5-3.4,2.5
			c0.3,1.6,0.7,3.1,1,4.6c0.3,1.5,0.6,3,0.9,4.5c0.3,1.5,0.7,3.1,1,4.7c0.4,1.6,0.7,3.3,1.1,5.2l4.8,0.4l0.4,3.2l-17.2,3.6l-0.8-3.1
			l4.2-2.5c-0.6-2.6-1.1-5.2-1.7-7.7c-0.5-2.6-1.1-5.2-1.6-7.8c-0.4-1.9-1-3.2-2-3.9c-0.9-0.7-2.3-0.9-4.2-0.5
			c-0.9,0.2-1.9,0.6-3.1,1.3c-1.2,0.6-2.3,1.5-3.5,2.5c0.7,3.2,1.3,6.4,2,9.5c0.7,3.1,1.3,6.3,2,9.5l4.8,0.3l0.5,3.3L1390,610
			l-0.8-3.1l4.5-2.8l-4.4-21.4l-4.9-0.3l-0.6-3.1l10.7-4l0.7,0.2L1397.4,580.2z"/>
		<path class="st5" d="M1482.5,589.4l-2.6-4.4c0,0-0.1,0-0.1,0c0,0-0.1,0-0.1,0l-4,5.7c-1,0.5-2.1,1-3.4,1.5
			c-1.3,0.5-2.4,0.8-3.3,1.1c-3.2,0.8-5.8,0.8-7.7-0.1c-1.9-0.9-3.2-2.9-4-6l-4.7-17.8l-4.9-0.1l-0.9-3.3l12.7-5.2
			c0.2,0,0.5,0,0.9,0.1c0.9,3.4,1.8,6.8,2.7,10.1c0.9,3.4,1.8,6.8,2.7,10.2c0.5,1.7,1.2,2.9,2.2,3.5c1,0.6,2.4,0.7,4.2,0.2
			c0.8-0.2,1.8-0.7,3.1-1.3c1.2-0.7,2.3-1.5,3.3-2.5l-4.6-17.5l-4.9-0.1l-0.9-3.3l12.6-5.2l0.9,0.2l6.9,26.2c0.9,0,1.7,0,2.6,0
			c0.9,0,1.7,0,2.6,0l0.9,3.4l-11.3,4.7L1482.5,589.4z"/>
		<path class="st5" d="M1505,548.3c1.9-0.6,3.9-1,6-1.2c2-0.2,4-0.2,5.7,0.1c0.4,1.4,0.8,2.8,1.2,4.2c0.4,1.4,0.8,2.8,1.2,4.2
			l-3.1,1.4c-0.6-0.7-1.2-1.4-1.8-2c-0.6-0.6-1.2-1.3-1.8-1.9c-1.1-0.2-2.1-0.3-3.1-0.1c-1,0.1-1.7,0.3-2.2,0.4
			c-1.4,0.4-2.4,1-2.9,1.7c-0.5,0.7-0.6,1.5-0.4,2.3c0.1,0.4,0.3,0.8,0.6,1c0.3,0.3,0.7,0.5,1.3,0.7c0.6,0.2,1.3,0.3,2.2,0.4
			c0.9,0.1,2,0.2,3.4,0.3c1.9,0.1,3.6,0.3,5.1,0.6c1.5,0.3,2.8,0.7,3.9,1.2c1.1,0.5,2,1.2,2.7,2.1c0.7,0.9,1.3,2,1.7,3.3
			c0.4,1.3,0.5,2.7,0.3,4c-0.2,1.3-0.7,2.6-1.7,3.9c-0.9,1.2-2.3,2.4-4,3.5c-1.8,1.1-4,2-6.8,2.9c-2.3,0.7-4.6,1.2-6.8,1.4
			c-2.2,0.2-4,0.2-5.4-0.2l-3.3-9l3-1.5l3.9,4.3c1,0.3,2,0.4,3.2,0.3c1.2-0.1,2.2-0.3,3.2-0.5c0.7-0.2,1.4-0.5,2-0.8
			c0.6-0.3,1.2-0.7,1.6-1.2c0.4-0.4,0.8-0.9,1-1.4c0.2-0.5,0.2-1,0-1.6c-0.2-0.6-0.5-1.1-1-1.5c-0.5-0.4-1-0.7-1.6-0.8
			c-0.6-0.2-1.4-0.3-2.2-0.4c-0.8-0.1-1.7-0.2-2.6-0.3c-1.4-0.1-2.7-0.3-4.2-0.4c-1.4-0.1-2.8-0.4-4-0.8c-1.2-0.4-2.3-1-3.3-1.8
			c-0.9-0.8-1.6-1.9-2.1-3.4c-0.8-2.7-0.4-5.3,1.2-7.6C1497.3,551.5,1500.4,549.7,1505,548.3z"/>
		<path class="st5" d="M1542.5,557.6c0.4,1.2,0.8,2.2,1.2,3c0.4,0.8,0.9,1.3,1.4,1.7c0.5,0.4,1.1,0.5,1.8,0.5c0.7,0,1.4-0.2,2.3-0.5
			c0.9-0.3,1.7-0.6,2.5-1c0.8-0.4,1.9-0.9,3.2-1.6l2.8,4.5c-1.5,1.3-3,2.4-4.7,3.3c-1.6,0.9-3.4,1.7-5.2,2.3
			c-3.8,1.3-6.7,1.4-8.8,0.5c-2.1-0.9-3.6-3-4.7-6.2l-5.9-17.7l-4.7,1.6l-1-2.9c0.7-0.7,1.5-1.4,2.3-2.1c0.8-0.7,1.6-1.3,2.3-2.1
			c0.1-1.3,0.2-2.6,0.3-4c0.1-1.3,0.2-2.6,0.3-4l4.4-3l1,0.2l2.9,8.7l9.4-3.1l1.4,4.3l-9.4,3.1L1542.5,557.6z"/>
		<path class="st5" d="M1596.8,500.2l15.4,38.5l5.1-0.6l1.3,3.2l-10.3,6.1l-1,0l-3-4.2l-0.2,0l-3.2,6.3c-1.7,1.3-3.4,2.2-4.9,2.8
			c-2.4,1-4.6,1.4-6.5,1.2c-1.9-0.2-3.6-0.8-5.1-1.8c-1.5-1-2.8-2.3-3.9-4c-1.1-1.7-2.1-3.5-2.9-5.5c-0.9-2.3-1.5-4.6-1.8-6.8
			c-0.3-2.2-0.2-4.3,0.4-6.3c0.5-1.9,1.5-3.7,3-5.3c1.5-1.6,3.5-2.9,6.1-3.9c1.2-0.5,2.5-0.9,3.9-1.2c1.3-0.3,2.8-0.5,4.5-0.4
			l-3.6-9l-4.9,0.6l-1.3-3.2l11.9-6.8L1596.8,500.2z M1586.8,537.4c0.5,1.2,1.1,2.4,1.7,3.4c0.7,1,1.4,1.9,2.3,2.5
			c0.9,0.7,1.8,1.1,2.9,1.2c1,0.2,2.2,0,3.4-0.5c1-0.4,2-1,3-1.8c0.9-0.8,1.7-1.5,2.3-2.3l-6.4-16.1c-0.9,0-1.8,0.1-2.7,0.3
			c-1,0.2-1.8,0.5-2.7,0.8c-1.3,0.5-2.4,1.2-3.1,2.1c-0.8,0.9-1.3,1.9-1.5,3c-0.3,1.1-0.3,2.3-0.1,3.5
			C1586,534.8,1586.3,536.1,1586.8,537.4z"/>
		<path class="st5" d="M1625,509.3l0.2,0c0.4-1,0.8-2,1.4-3c0.5-1,1.1-2,1.8-2.9c0.7-0.9,1.5-1.8,2.4-2.6c0.9-0.8,1.9-1.4,3.1-1.9
			c0.5-0.2,1.1-0.2,1.7,0.1c0.6,0.3,1.1,0.9,1.5,1.8c0.4,0.8,0.7,2,0.9,3.4c0.2,1.4,0.1,2.7-0.2,4l-11.1,4c0.2,0.4,0.5,1.2,1.1,2.5
			c0.6,1.3,1.2,2.8,2,4.6c0.8,1.7,1.6,3.6,2.5,5.5c0.9,1.9,1.7,3.7,2.4,5.2l5.2-0.5l1.2,3.1l-17.8,7.9l-1.6-2.9l4.1-4
			c-0.1-0.3-0.4-1-0.8-1.9c-0.4-0.9-0.9-2-1.5-3.3c-0.6-1.2-1.1-2.6-1.8-4c-0.6-1.4-1.2-2.8-1.8-4.1c-0.6-1.3-1.1-2.5-1.6-3.6
			c-0.5-1.1-0.8-1.9-1.1-2.4l-4.9,0.7l-1.4-3.1l10.3-6.6l0.9,0L1625,509.3z"/>
		<path class="st5" d="M1669.2,514.4l-2.3,5.8c-0.7,0.6-1.5,1.2-2.3,1.8c-0.8,0.6-1.6,1.1-2.3,1.4c-1.7,0.8-3.2,1.3-4.6,1.3
			c-1.4,0.1-2.6-0.1-3.7-0.6c-1.1-0.4-2-1.1-2.8-1.9c-0.8-0.8-1.4-1.7-1.9-2.7c-0.2-0.4-0.4-1-0.6-1.6c-0.2-0.6-0.3-1.3-0.4-2
			c-0.1-0.7,0-1.4,0.1-2.2c0.1-0.8,0.5-1.5,1-2.3c0.2-0.4,0.6-0.8,1.1-1.4c0.5-0.6,1.2-1.3,2.2-2.1c1-0.8,2.3-1.8,3.9-2.8
			c1.6-1.1,3.7-2.3,6.2-3.7l-1.1-2.3c-0.8-1.7-1.7-2.6-2.8-2.8c-1-0.2-2.5,0.2-4.4,1.1c-1.2,0.6-2.6,1.4-4.2,2.5
			c-1.6,1.1-3.1,2.2-4.4,3.4l-3.6-3.9c1.4-1.8,3.1-3.6,5.1-5.3c2-1.7,4.2-3.2,6.6-4.4c3.5-1.7,6.6-2.3,9.3-1.9
			c2.7,0.5,4.9,2.5,6.6,6l7,14.2l5.3-1.3l1.6,3.2c-0.7,1.1-1.7,2.2-3.1,3.4c-1.3,1.2-2.7,2.1-4.2,2.9c-0.5,0.3-1.1,0.5-1.7,0.7
			c-0.6,0.2-1.2,0.3-1.8,0.2c-0.6-0.1-1.2-0.3-1.8-0.8c-0.6-0.4-1.2-1.1-1.9-2.1L1669.2,514.4z M1663.1,516c0.8-0.4,1.6-1,2.4-1.8
			c0.8-0.8,1.5-1.8,2.1-2.9l-2.9-5.9c-2,1.2-3.5,2.3-4.4,3.3c-1,1-1.6,1.8-2,2.5c-0.4,0.7-0.5,1.3-0.4,1.9c0.1,0.5,0.2,1,0.4,1.3
			c0.5,1,1.1,1.7,1.9,2C1661,516.6,1661.9,516.5,1663.1,516z"/>
		<path class="st5" d="M1702.9,479.7l3.7,19.9l-4.9,3.9c-0.8-0.6-1.9-1.5-3.1-2.5c-1.3-1-2.6-2.1-4.1-3.3c-1.5-1.2-3-2.4-4.6-3.7
			c-1.6-1.3-3.1-2.5-4.6-3.7c-1.5-1.2-2.9-2.3-4.1-3.3c-1.3-1-2.3-1.8-3.2-2.5l-3.5,0.6l-1.7-3.1l12-7.2c0.7,1.1,1.4,2.1,2.3,3.2
			c0.9,1,1.7,1.9,2.4,2.6l10.4,9.3l0.2-0.1l-4.6-20.9l6.2-3.4c0.9,0.7,2.2,1.8,3.9,3.1c1.6,1.3,3.4,2.8,5.2,4.2
			c1.8,1.5,3.5,2.9,5.2,4.2c1.6,1.3,2.9,2.4,3.9,3.1l0.2-0.1c-0.1-0.8-0.4-1.9-0.7-3.5c-0.3-1.5-0.7-3.1-1.1-4.8
			c-0.4-1.7-0.7-3.3-1.1-4.8c-0.3-1.5-0.6-2.7-0.7-3.4l-5.1,0.9l-1.7-3c0.7-0.5,1.7-1,2.7-1.6c1.1-0.6,2.1-1.2,3.2-1.9
			c1.1-0.7,2.2-1.3,3.2-1.9c1.1-0.6,2-1.1,2.7-1.6l2,2.7c-0.8,1.9-1.1,3.7-1.2,5.6c0,1.8,0.2,3.9,0.5,6.1l3.1,20.2l-4.8,3.7
			l-17.8-13.1L1702.9,479.7z"/>
		<path class="st5" d="M1766.1,449.4c0.7,1.1,1.4,1.9,2,2.5c0.6,0.6,1.2,1.1,1.8,1.3c0.6,0.2,1.2,0.2,1.8,0.1c0.6-0.2,1.3-0.5,2.1-1
			c0.8-0.5,1.5-1,2.2-1.6c0.7-0.6,1.6-1.4,2.7-2.4l3.9,3.6c-1.1,1.6-2.3,3.1-3.7,4.4c-1.3,1.3-2.8,2.5-4.5,3.6
			c-3.3,2.2-6.1,3.1-8.4,2.7c-2.2-0.4-4.3-2-6.1-4.8l-10.2-15.6l-4.2,2.7l-1.7-2.6c0.5-0.9,1.1-1.7,1.7-2.6c0.6-0.8,1.2-1.7,1.7-2.6
			c-0.2-1.3-0.5-2.6-0.7-3.9c-0.2-1.3-0.5-2.6-0.7-3.9l3.5-4l1,0l5,7.7l8.2-5.4l2.5,3.8l-8.2,5.4L1766.1,449.4z"/>
		<path class="st5" d="M1805.5,417.4c1.3,1.8,2.3,3.8,2.9,5.9c0.6,2.1,0.8,4.2,0.6,6.4c-0.3,2.2-1,4.3-2.3,6.3
			c-1.3,2.1-3.1,4-5.6,5.7c-2.5,1.8-4.8,3-7.1,3.6c-2.2,0.6-4.3,0.8-6.3,0.4c-2-0.4-3.8-1.2-5.5-2.4c-1.7-1.3-3.4-3-4.9-5.1
			c-1.3-1.9-2.3-3.8-2.9-6c-0.6-2.1-0.7-4.3-0.4-6.4c0.3-2.2,1.1-4.3,2.4-6.4c1.3-2.1,3.2-4,5.6-5.8c2.3-1.6,4.5-2.8,6.7-3.4
			c2.2-0.6,4.2-0.7,6.2-0.4c2,0.4,3.9,1.2,5.6,2.4C1802.4,413.6,1804,415.3,1805.5,417.4z M1785.4,431.2c0.9,1.3,1.9,2.5,2.9,3.6
			c1,1.1,2,1.9,3.1,2.5c1.1,0.6,2.1,0.9,3.3,0.9c1.1,0,2.3-0.4,3.5-1.3c1.2-0.8,1.9-1.7,2.3-2.8c0.4-1,0.5-2.1,0.3-3.2
			c-0.2-1.1-0.5-2.2-1.1-3.4c-0.6-1.2-1.3-2.3-2.1-3.5c-0.9-1.2-1.8-2.4-2.8-3.4c-1-1.1-2.1-1.9-3.2-2.6c-1.1-0.6-2.2-1-3.4-1
			c-1.1,0-2.3,0.3-3.5,1.2c-1.2,0.9-2,1.8-2.3,2.9c-0.3,1.1-0.4,2.2-0.2,3.3c0.2,1.1,0.6,2.3,1.2,3.4
			C1784,429.1,1784.7,430.1,1785.4,431.2z"/>
		<path class="st5" d="M1863.6,391.5c-1.5,1.2-3.1,2.5-4.8,3.8c-1.7,1.3-3.5,2.9-5.5,4.5c-2,1.6-3.8,3.3-5.7,4.8
			c-1.8,1.6-3.5,3.1-5.1,4.4l-2.7-2.9l5.5-7.4l-20.6-24.6l-7.4,4.8l-2.5-3l11.3-13.5l2.3,0.2l24.9,29.7l7.6-4.1L1863.6,391.5z"/>
		<path class="st5" d="M1865.1,350.7c0.4-0.6,0.9-1.1,1.3-1.6c0.5-0.5,0.9-1,1.5-1.4c1.6-1.5,3.2-2.6,5-3.4c1.8-0.8,3.5-1.2,5.3-1.2
			c1.8,0,3.6,0.3,5.3,1.1c1.8,0.8,3.5,2,5.1,3.7c1.4,1.5,2.6,3.3,3.4,5.2c0.8,1.9,1.2,4,1.1,6.1c-0.1,2.1-0.6,4.3-1.6,6.5
			c-1,2.2-2.6,4.3-4.8,6.4c-2.4,2.2-4.8,3.8-7.1,4.7c-2.3,0.9-4.6,1.2-6.8,1c-2.2-0.2-4.3-0.9-6.4-2c-2-1.1-3.9-2.7-5.7-4.6
			c-3-3.2-5-6.5-6.1-10.1c-1.1-3.5-1.5-7.1-1.2-10.7c0.2-3.6,1-7.1,2.2-10.6c1.2-3.4,2.6-6.6,4.3-9.6l5.1,2.1
			c-1.8,4.8-2.9,8.9-3.1,12.3c-0.3,3.4-0.1,6.4,0.5,8.9c0.6,2.5,1.5,4.6,2.8,6.3c1.2,1.7,2.4,3.2,3.6,4.5c2.6,2.8,5,4.5,7.3,5.2
			c2.3,0.7,4.5,0.1,6.5-1.8c1-0.9,1.7-2,2.1-3c0.4-1.1,0.5-2.1,0.3-3.3c-0.2-1.1-0.6-2.2-1.2-3.3c-0.6-1.1-1.4-2.1-2.4-3.2
			c-1.3-1.4-2.5-2.4-3.6-3.1c-1.1-0.7-2.2-1-3.3-1.1c-1.1-0.1-2.1,0.1-3.2,0.6c-1.1,0.5-2.3,1.2-3.5,2.1L1865.1,350.7z"/>
	</g>
</g>
</svg>
