<svg id="Layer_1" data-name="Layer 1" xmlns="http://www.w3.org/2000/svg" viewBox="0 0 180 250"><defs><style>.cls-1{fill:#e2cf00;}.cls-2{fill:#d40000;}.cls-3{fill:#131f67;}</style></defs><title>all_cards</title><g id="g4922"><path id="path147-6-9-8-7-0-5-6-9-6-3" d="M166.12,209.93c3.17-.07,4.59-3.76,2.24-6.62-.34-.42-.37-.66.25-.26,1.58,1.1,4.61.38,4.76-3,.19-4.12-5.37-5.3-6.41-.93-.05.46-.42.45-.33-.2A14,14,0,0,1,168,193.9h-3.76a14.22,14.22,0,0,1,1.37,5.06c.08.65-.28.66-.34.2-1-4.37-6.6-3.19-6.4.93.15,3.34,3.18,4.06,4.76,3,.62-.4.59-.16.24.26-2.34,2.86-.92,6.55,2.25,6.62Z"/><path id="path147-6-9-8-7-4-5-62-08-0-2" d="M13.88,40.07c-3.16.07-4.58,3.76-2.24,6.62.34.42.38.66-.25.26-1.57-1.1-4.6-.38-4.76,3C6.44,54,12,55.21,13,50.84c.06-.47.42-.45.33.2A13.81,13.81,0,0,1,12,56.1h3.77A13.81,13.81,0,0,1,14.4,51c-.09-.65.27-.67.33-.2,1,4.37,6.6,3.19,6.41-.93C21,46.57,18,45.85,16.37,47c-.62.4-.58.16-.24-.26,2.34-2.86.92-6.55-2.24-6.62h0Z"/><path id="path39-7-2-1" d="M14.53,34.64H17.2l-3.93-9.77-3,4.13,0,5.64H12.4v2.91H5V34.64H7.41v-21H5V11.09h7.55v2.63H10.42l0,10.24L17,13.64H14.64V11.09h8v2.55H20.55l-5.42,8.44,5.31,12.56h2.35v2.91H14.55l0-2.91Z"/><path id="path39-3-8-1-1" d="M165.47,215.36H162.8l3.93,9.77,3-4.13,0-5.64H167.6v-2.91H175v2.91h-2.45v21H175v2.55h-7.55v-2.63h2.08l.05-10.24L163,236.36h2.33v2.55h-8v-2.55h2.12l5.42-8.44-5.31-12.56h-2.35v-2.91h8.25l0,2.91Z"/><g id="g5429-3-1-8"><g id="layer1-6-4-4-1"><g id="KC-7-1-9"><g id="g3440-6-4-8"><g id="g3454-7-1-1"><path id="path3450-5-0-3" class="cls-1" d="M129.79,20.8l-66.18.32,8.41,16c17.2-1.55,32.27-.17,48,.34ZM84.6,76.91c-.07.09-2.76.79-2.48,1.4,7,15,10.13,27.27,13.06,42.73a6.79,6.79,0,0,1,3.87-1.16c-1.18-5.74,6-6.45,6.09-.45,1.39.32,2.81.33,4.06,1.73a96,96,0,0,1,14.42-46.47c-8.9,3.53-22,12.33-22,12.33S90.8,82.52,84.6,76.91Zm54.09,1.8c-11.85,11.27-16.48,42.54-15.63,43-15.27-.51-19.9,16.35-6.66,25.45-.52,1.76-1.82,3.2-2.82,4.75a10.78,10.78,0,0,0,4.34,1.12c1.14,1.34,2.25,2.89,3.47,3a22.42,22.42,0,0,0,3.39-3.14,23.93,23.93,0,0,0,4.07-1.34c-1.17-1.63-2.54-3.27-2.58-4.79,11.51-8.13,9.93-19.19-.45-24.84,3.09-18.62,7.6-30.51,12.83-39ZM57.12,93.09c-1.51.74-2.33,2.29-3.42,3.51a12.19,12.19,0,0,0-4.37,1.22s3.43,4.75,3.22,5c-11.13,7.31-11,18-.35,25C54,143,41.12,167.07,40.47,166.37l0,5c9.17-10,14.41-28.18,14.93-42.82,18.31-1.22,19-19,6.35-25.62-1-.89,3.17-5,3.17-5-1.05-1-2.81-1.15-4.35-1.28A18.38,18.38,0,0,0,57.12,93.09Zm77.45,12.27c2.59,5.77,12-1.26,13.69,1.81,1.33,1.74,4.23,1.92,4.07-1-.54-2.9-2.45-3.54-10-2.28-2.87.48-4.05.77-4-.55C136.28,100.92,134.58,104.19,134.57,105.36Zm8.78,8.42c-2.12,0-2.48,8.32-2.45,10.82-6.15,9.72,12.61,8.62,4.5-2,.28-1.38-1-3.64-1-4.64C143.73,117.89,143.44,114.14,143.35,113.78ZM33.55,126.33c-.19,2.51,1.65,10.15,2.33,9.89,2.4-3.88,2.12-7.2,1.87-11C43.48,114.2,23.92,118.73,33.55,126.33Zm35.69,1.77c-.85,16.25-4.82,32.19-13.83,46,7.75-3.62,15.27-8.29,22.55-12.29l17,10.55a6.71,6.71,0,0,0,2.32-1.29c-7.84-11.48-10.26-28-13.68-43a12,12,0,0,1-3.74,1.39c-.18,5.19-5.61,6.87-6.72.1Zm-41,12.68c-1.82.11-3.18,4.61,2,5.28,3.62.51,8.27-1.27,10.57-.45,2.68,4.28,5.08-2,1.5-3-3.84-1.11-11.67,1.77-12.54-.68C29.25,141.06,28.7,140.75,28.2,140.78ZM59,211.16,48.78,229.32l65.6-.4-8.57-17.32C106,211.41,77.15,215,59,211.16Z"/><path id="path3446-6-3-4" class="cls-2" d="M73,38.82l1.3,2.36c15.37-2.53,27.47-2.93,43.36.15l1.45-2.46C104.65,36.25,89.85,35.16,73,38.82Zm14.5,35.6,13.4,8.69,9.16-6.47-1.66-2.45c-5.67,12.53-15.64,2.62-19.37-3.27C89.07,70.92,88.05,73.2,87.54,74.42Zm36,4.2a1.86,1.86,0,0,1,1.91,1.29c.53,1.07.73.81.39-.53-.53-2.1,1.7-3.47,3.8-2.07,1.51,1,1.45,3.47-.21,3.93-1.34.36-1.37.72-.2.66,2.11-.11,2.67,2.72,1.17,4.1a2.39,2.39,0,0,1-4.13-1.53c-.09-.56-.21-.56-.39-.24a5.4,5.4,0,0,0-.48,3.19l-3.12-1.93a8,8,0,0,0,2.59-1.72c.11-.11.18-.19.18-.24s-.34,0-1,.1c-1.88.19-3.33-1-3-2.81A2.36,2.36,0,0,1,123.55,78.62Zm-13.75,49c3.39-3.89,7.6-6.39,13.46-6,.74-16.29,6.38-30.78,15.41-43.83l-9.94-6-4,2.4C115.57,87.9,109.3,105.13,109.8,127.66ZM35.36,89.59s-6.73,5-9.85,7.48L25.66,142l.87.29c.06.1-.08-.66.32-1a4.61,4.61,0,0,1,1.15-.72c.86-.31.9-.89.1-1.39a1.89,1.89,0,0,1-.8-2,1.68,1.68,0,0,0-.27-1.33,2.34,2.34,0,0,1-.08-2.12c.14-.36.13-.46-.13-1a2.5,2.5,0,0,1-.12-2,5.05,5.05,0,0,0,.15-1.34c0-1.79,1.44-3,4.16-3.35,1.07-.15,1.1-.19.61-1.09-2.75-5,3.44-7.67,3.9-6.87Zm84.82,2.5a4.57,4.57,0,1,1-4.49,4.63A4.56,4.56,0,0,1,120.18,92.09Zm0,.82a3.66,3.66,0,1,0,3.71,3.6A3.65,3.65,0,0,0,120.22,92.91Zm.1,1.16a2.48,2.48,0,1,1-2.44,2.51A2.48,2.48,0,0,1,120.32,94.07ZM29.88,95.94a2.06,2.06,0,0,1,.59.09,1.47,1.47,0,0,1,.91,2.32c-.48.74-.42.81.42.49a1.2,1.2,0,0,1,1.53.35c1.57,1.56-.77,4.18-2.31,2.59-.76-.78-.83-.55-.3.8.17.44.45,1.12.45,1.12l-2.26,0s.35-.91.52-1.33c.39-1,.4-1.18-.41-.53a1.74,1.74,0,1,1-2.23-2.66c.34-.33.89-.35,1.66,0,.56.22.63.06.21-.46A1.65,1.65,0,0,1,29.88,95.94Zm46.76,4c-.92,6-.12,14.47-.14,19,2.45.47,2.48,2.14,2.85,4.22,1.19-.42,3.79,1.34,4.15,1.19C83.77,118.25,80.6,100.52,76.64,100Zm40.59,6c3.47.28,2.8,3,1.77,4.08-.49.56-.4.82.14.49,1.46-.89,2.63-.25,3.1,1.28.81,2.62-2.62,4.87-4.15,2.52-.52-.79-.83-.61-.71.22a11.44,11.44,0,0,0,.86,2.46l-3.4-.3s1-1.74,1.22-2.21c.38-1,.18-1.23-.55-.45-2.13,2-5.08-.54-3.71-3.13a2,2,0,0,1,3.28-.68c.91.6,1.11.34.3-.38C113.86,108.55,115.18,105.84,117.23,106Zm-87.18,2.14h.11a1.87,1.87,0,0,1,.91.25,1.52,1.52,0,0,1,.55,2.24c-.31.47-.22.77.13.46a1.48,1.48,0,0,1,1.94.51c1.05,1.64-1,3.8-2.32,2.43-.57-.61-.8-.63-.73-.23.19.74.68,2,.68,2l-2.36,0a14.87,14.87,0,0,0,.62-2c.09-.54-.12-.46-.69.18a1.15,1.15,0,0,1-1.74.22c-1.72-1.15-.34-4.08,1.45-3.09.62.34.71.14.23-.5A1.55,1.55,0,0,1,30.05,108.14Zm122.5-1c-3.82,4-2.62,1.62-.85,4.63,0,2,1.17,3.55.25,6.68a1.85,1.85,0,0,0-.16,1.53c-.28,3.46-3,3.42-5.74,4,.44,0,4.26,7-2.87,7.6l.09,28.76L154.44,152l0-44.9ZM68.67,122.28c-3.17,2-7.62,7.16-13.22,6.05a78.83,78.83,0,0,1-14.94,43.78,93.88,93.88,0,0,0,9,5.1,28.85,28.85,0,0,0,6.36-3.86C66,157.75,69.19,140.69,68.67,122.28ZM95,125.56c.57,9.22,2.06,17.95,6.85,24.95l.32-19.59c-1.7-.41-3.1-1.51-3.6-4.65ZM60.41,131l3.2.07s-.73,1.45-1,2.26c-.39,1-.2,1.19.53.51a2.4,2.4,0,0,1,3.25-.18c2.11,2.12-.1,5.57-2.59,4.06-1.07-.65-1.25-.43-.4.49,1.65,1.53-.08,3.74-2,3.75a2.46,2.46,0,0,1-2.41-2.35,2.07,2.07,0,0,1,1-1.93c.7-.4.2-.65-.56-.24-2.48,1.33-4.14-2.1-2.27-4.06,1.08-1.13,2.22-1,3.32.06.76.75,1,.68.82-.21a11.36,11.36,0,0,0-.85-2.23Zm86.29,2.7H149c-.23.57-.52,1.15-.7,1.71s-.06.69.55.1c1.58-1.07,3.26,0,2.92,1.68a1.58,1.58,0,0,1-2.33,1.23c-1-.45-.67-.26-.1.42a1.53,1.53,0,0,1-.39,2.37,1.78,1.78,0,0,1-2.59-2.33c.61-.95.33-.85-.23-.39-.83.62-2.09-.25-2.11-1.45-.1-1.72,1.64-2.69,2.86-1.47.58.49.73.43.47-.29A14.13,14.13,0,0,0,146.7,133.7Zm.12,12.54,2.4,0a3.86,3.86,0,0,1-.4.88c-.44.82-.37,1.67.08,1.09a1.76,1.76,0,0,1,2.93.49c.62,1.38-.59,2.91-1.85,2.33-.82-.38-.87-.3-.33.49a1.55,1.55,0,0,1-.56,2.25c-1.69,1.08-3.71-1.08-2.31-2.45.38-.37.26-.55-.19-.3-1.87,1-3.24-1.51-1.63-3,.69-.62,1.21-.58,2.34.2.35.24.42,0,.16-.62A7.15,7.15,0,0,0,146.82,146.24Zm-89.11,1.51a4.85,4.85,0,1,1-4.77,4.92A4.85,4.85,0,0,1,57.71,147.75Zm.06.86a4,4,0,1,0,4,3.93A4,4,0,0,0,57.77,148.61Zm0,1.53a2.46,2.46,0,1,1-2.41,2.49A2.45,2.45,0,0,1,57.81,150.14Zm-6.08,11.75,2.8,1.37s-1.33,1.08-1.85,1.63c-.67.72-.63,1.05.28.71a2.43,2.43,0,0,1,3.5,2.12c0,2.4-2.8,3.56-4.16,1.74-.4-.54-.88-.76-.69-.32a2.55,2.55,0,0,1-.63,3,2.75,2.75,0,0,1-2.41.27c-2-1.06-2.14-3.41-.19-4.34,1-.47,1-.91,0-.67-2,.5-3.18-1.93-1.73-3.6s4-1.41,4.32,1.22c0,.46.36.12.5-.59A16.58,16.58,0,0,0,51.73,161.89Zm26,4s-10.22,5.83-9.91,6.08c.06,0,2.26,3.15,2.26,3.15,5.08-11.52,17.23-2,19.17,3.9a5.36,5.36,0,0,0,1,.39c0-.41.88-4.5.88-4.5ZM61,208.39l-1.65,2.35c-.57.24,25.5,4.67,46.05.17l-1.42-2.7c-16.74,4.28-43.24.48-43,.18Z"/><path id="path3444-9-5-7" class="cls-3" d="M23.88,19.17V230.83H156.12V19.17ZM63.53,20.8l66.39-.25L117.65,41.6c.12-1.11-23.86-4.51-43.45-.36Zm-37.78.5H61.86L74,43.14a4.18,4.18,0,0,1,.29,2.8A13.93,13.93,0,0,1,73,49c0-.45-3.51-.9-3.21,2.15a2.83,2.83,0,0,0,4.74,1.62c.31,0,.31.26.24.77-.18,1.18-1.43,4.93-2.29,5.17-4.37-3.59-5.93,3-3,4.28a4.62,4.62,0,0,0,5.56-1.92c.94-1.58.83-1.32,1.13.59.11.71.26,1.53.34,1.9.25,1.16,0,1.39-1.94,1.91a30.79,30.79,0,0,1-4.76,1.3,5.25,5.25,0,0,0-4.52,5.42c0,.58,0,.86-.12,1A138.32,138.32,0,0,0,25.75,95.91Zm82.88,52a42.63,42.63,0,0,1-2.39-6.46C105.15,58.67,105,49,103.79,41.46l1.53.17a63.44,63.44,0,0,1,1.18,8.11c.31,2.93.63,9,.88,11.83.39,4.17,2.27,10.83,3.43,12.51,1.9,2.74,5.71,1,4.43-2.29-.66-1.69-3.22-1.41-2.86.34,0,.31.24-.22.61-.55a1.45,1.45,0,0,1,1.71,2.12c-.81,1.78-3.2,1-4-1.27-.95-2.67,2.24-4.68,4.63-3.05,2.66,1.82,2.66,6.42.52,7.88C112.26,78.57,109.81,75.94,108.63,73.26Zm8.91,3.38c-.15-.08,0-.36.18-1a6.21,6.21,0,0,0-1.36-6.25c-.89-1-1.23-1.2-.76-1.38,1-.39,3.19,1.2,3.79,2.77a5.87,5.87,0,0,1-.09,4.88C118.71,76,117.81,76.75,117.54,76.64ZM120.25,75c0-.29.2-1.21.24-1.66a6.06,6.06,0,0,0-2.07-4.87c-1.2-1.16-1.31-1.27-.17-1.29,2.93,0,4.8,4.7,3.45,7C121.35,74.58,120.29,75.34,120.25,75Zm2.49-1.61c.86-4-3-6.75-3.13-6.63.2-.9,1.75-.38,2.28,0,2,1.33,3.11,4.81,1.9,6.78a1.28,1.28,0,0,1-.51.52c-.41.25-.65.46-.73.28s.16-.73.19-.92ZM88.34,60.24c.41-.41.53-.42,1.32-.12,2.46.93,4.42-.84,3.84-2.7A2.53,2.53,0,0,0,91.8,56c-.92-.1-.94.39.06.77a1.24,1.24,0,0,1,.27,2.35c-1.27.86-3.35-1.32-4.87-1.14a1.18,1.18,0,0,0-.78,1.74C86.8,60.27,87.9,60.62,88.34,60.24ZM85.62,60c-.86-.4-1.18-.39-1-1.32.11-.62,1-4.75,1.4-6.35,1.24-4.78.07-7.43-3.45-8.5a8.4,8.4,0,0,0-6.87.94l-.44-1.35c10.19-2.68,27.59-2.08,27.53-2a27.81,27.81,0,0,1,.61,4.13,49,49,0,0,0-5-2.14c-2.62-.81-6.76.08-7.5,1.58-.41.86-.2,1.43,1.57.48,2.88-1.56,8.76-.37,10.83,1.28.48.38.46.46.47.91,0,.68,0,.71-.89.21-5-2.53-9.17-2.24-10.63,1.09-.34-.11-1.62-.33-1.62-.33l1.38,2,.26,2.14s2.25,1.25,3.49,1.78.52,0-1-1.08c-1.1-.77-.23-1,.5-.72a7.41,7.41,0,0,0,6.2-.83,3,3,0,0,1,2.61.16s.24,1.87.47,5.77c.12,1.84.34,4.25.47,5.24.39,3,.5,3.16-1.07,1.72-.52-.48-1.4-1.27-1.41-1.23-.2.93,2.11,2.56,2.65,3.12.82.84,1.48,3,1.15,3.14s-2.4-1.79-4.13-3.47A16.17,16.17,0,0,0,100.59,65c-.35.24,1.1,1.88,2.46,3.11,1.59,1.43,1.77,1.56,1.24,1.78-1,.4-1.87-.1-4.27-2.08A6.64,6.64,0,0,0,98.84,67c-.22.29,2,2.38,2.49,2.56.93.34,1.2,1.24.47,1.59-.49.24-2.32-.76-3.78-2a3.37,3.37,0,0,0-1-.56c-.29.19,1.34,1.61,2.91,2.55s1.77,1.15,1.38,1.92-3.72-1-5.4-2.93c-.36-.4-.64-.57-.57-.43.73,2,3.14,3.48,4.93,4.06a4.34,4.34,0,0,1,1,.4c.51.41.4.83-.15,1.07C99.16,75.7,96.15,73.39,94,71c-.24-.1-.1.22,0,.32,1.8,2.87,5.23,5.06,7.31,4.65,1.21-.24,2.18.13,2.19.53s-.66.87-2,1c-3,.21-7.55-3-10.24-7.13-.09-.13-.19-.18-.19-.1-.08.87,1.6,3,2.88,4.23,3.82,3.64,7.42,4.87,10.23,2.82,1.59-1.23,3.12-3.93.76-4.83-1.25-.47-2,1.25-1,.76,1.41-.17,1.72.58,1.54,1.28a1.65,1.65,0,0,1-2.52.89c-1.69-.91-1.33-4,.86-4.6a3.35,3.35,0,0,1,3.91,2.78c.35,2.47-2.43,5.13-4.65,5.8C95.52,81.58,89.59,71,89.56,70.77c-.38-.73-.84-1.12-1.13-.27-.31,1.24-2,4.88-2.94,4.86.29-1.28,1.49-3.44,1.2-5.33-.51,1.55-1.58,4.86-3.62,6.62-.53.49-2.09,1.06-1-.19,1.29-1.82,3-4.31,2.64-6.64-.35.52-.53,1.85-.93,2.73-1,2.2-3.12,4.81-4.54,5.23-1,.31-.94,0,.13-1.17s3.17-4.77,3-6.3c-.06-.68-2.11,5.85-6,7.64a1.7,1.7,0,0,1-1.63-.1c1.52-.87,5.7-5,5.3-9.7l-.55,1.74c-1.42,4.48-4.46,7.43-6.84,7.67-1.89.19-3.22-.57-2.75-.91A6.64,6.64,0,0,0,76,73.42c1.6-2.44,2.2-6.36,1.23-10.51A71.25,71.25,0,0,1,75.87,52.2c2.69.92,5.4,1.54,8,.51-.27,1.07-.71,1.21-1.4,2-.5.6-.33.74,1.63-.65.57-.4.78-.73.88-.62s-.09,1.28-.66,3.48c-.86,3.29-.63,3.53,2.52,4.77a2.08,2.08,0,0,1,1,.7c.1.11.62,1.05.67,1.08s.08-.95,0-1.21a2.46,2.46,0,0,0-.87-1.42A6.42,6.42,0,0,0,85.62,60Zm59.51,42.9,0-3.41,3.31,2.35,0,1.13Zm-5.66.74-.12-63.16,3.81-2.53c.8,2.5.79,7.87.49,10.26-.49,1.56-.72,8.49-.15,12a35.44,35.44,0,0,1-.06,9.68,61.58,61.58,0,0,0,.28,8.72,26.54,26.54,0,0,1-.18,7,28.46,28.46,0,0,0,.13,7,59.2,59.2,0,0,1,.33,10.48C143.46,103.74,139.19,103.82,139.47,103.61Zm5-66.1s2.56,1.69,3.79,2.54l0,2.72-3.7-2.42Zm-38.2,4.4,1.59.1a91.65,91.65,0,0,1,1.15,10.77c.08,5.78.79,11.88,2.15,15.87L110,69.88c-2-4.58-2.13-11.8-2.57-16.69a92,92,0,0,0-1.15-11.28Zm38.51-.58,3.44,2.34,0,2.95-3.47-2.3Zm-36.22.79,1.39.16c.42,3.9,1.07,6.55,1.31,10.85.32,5.57,1.29,10.14,1.88,14.48l-1,.35c-.69.32-1.85-4.82-2.36-15.23C109.62,49.58,109.09,46,108.6,42.12Zm2.1.15,1.66.3c.73,9.88,1.89,19.17,3.11,24.49l-1.45.09c-1.79-7.6-1.9-16.4-3.32-24.88Zm2.4.35,1.52.27c1.84,22.6,3,22.31,3.32,23.2l-1.65.67c-1.78-6.49-2.14-15.65-3.19-24.14ZM120,64.83c-.26.76-.88.69-1.55.77a33.94,33.94,0,0,1-1.52-7c-.69-5.33-.94-10.32-1.67-15.58l1.82.19C117,43.27,118.39,61.76,120,64.83ZM80.88,45c2.39.11,4.38,1.19,4.58,2.77,0,.35-.24.18-.57-.07a7.12,7.12,0,0,0-7.24-1c-.62.22-1.12.57-1.4.52a.64.64,0,0,1-.14-.86C76.78,45.16,79.69,44.9,80.88,45Zm-5.57,3.17c.06,2.49-.55,3.86-1.85,4.43-1.57.7-3.59-.79-2.61-2.45.74-1.26,2-.88,2.26.44l2-4.46S75.31,47.5,75.31,48.13Zm73-.4,0,2.56-3.69-2.47.25-2.46Zm-65.43-.34c1.82.72,2.49,1.61,2.55,2-.1.29-.28.09-1.61-.63a6.35,6.35,0,0,0-7,.14c-.58.11-.64-.22-.06-.85A6.34,6.34,0,0,1,82.89,47.39Zm13.8-.48a11.21,11.21,0,0,1,5.13,1.17,8.21,8.21,0,0,1,1.81,1c.38.19.41,1,.13,1.1s-.64-.16-1.23-.57c-3.84-2.5-6.6-2.19-8.82-.65a1.6,1.6,0,0,1-.65.16c-.42,0-.45-.21-.27-.44a5.58,5.58,0,0,1,3.9-1.77Zm47.93,1.8,3.7,2.59v2.54l-3.93-2.73Zm-66.72,1,.54,0c1.26,3.06,2.84,1.48,3.49.26l.66.1C81.56,54.22,77.37,52.07,77.9,49.74Zm-.92.41c.61.08.59.77.78,1.27.43,1.13-1.19.17-1.47-.1C75.82,50.82,76.49,50.2,77,50.15ZM95.28,50c1.59,2.43,2.51,1,3.42-.07l.43.14c-.11,1.75-3,3.61-4.43,0Zm4.9.28a3,3,0,0,1,.83.25c.87.35.82.61-.14,1-1.55.69-2.08.78-1.62-.19C99.51,51,99.69,50.37,100.18,50.31Zm-6.06.37a1.44,1.44,0,0,1,.69,1.12c0,.36-1.17-.06-1.17-.64C93.68,50.79,93.88,50.5,94.12,50.68Zm-10.68.14c.8.29.7.67.15,1-1,.55-1.42.45-.78-.42C83.11,51,83.17,50.82,83.44,50.82Zm60.93,1.28,4,2.82,0,2.59-4-2.74A10.62,10.62,0,0,1,144.37,52.1Zm-69.17,4c.19,0,.26.64.31,1.56.07,1.53-1.48,3.66-3.05,4.39-1.89.88-3.91-.36-3.58-2.19s2.71-1.76,2.8-.2c-.23.41.1.75.23.72a5.88,5.88,0,0,0,2.66-3,5.41,5.41,0,0,1,.54-1.29A.18.18,0,0,1,75.2,56.1Zm69.07-.47,4,2.92v2.57l-4-2.73a13,13,0,0,1,0-2.76ZM95.73,59.7c-.3.51,0,1.42.57.65A1.65,1.65,0,0,1,99,62.29c-1.12,1.34-2.5.91-5.41-.2-2.12-.82-2.46-.54-3,0s-.21,1.45.35,1.44c1.72.39,3.21.77,5,1.15,3.76.77,6-4.09,2.62-5.87A2.49,2.49,0,0,0,95.73,59.7Zm-16.6.56C77.66,61.58,78.86,65,81,65.35a4.61,4.61,0,0,0,1.9-.17c1.51-.44,3.17-1.34,3.24-1.86.31-2.37-3.21-.24-3.68,0a2.09,2.09,0,0,1-2.87-.22c-1.34-1.81,1-3.88,2.51-1.67.36.56.23-.39-.17-1A2,2,0,0,0,79.13,60.26Zm65.4-.75,3.76,2.67,0,2.47L144.63,62Zm.28,3.63,3.56,2.57.06,2.57-3.73-2.46C144.77,64.89,144.79,64,144.81,63.14Zm-20,1.48c3.13,0,4.9,4.69,3.25,6.62-.49.57-.89.72-1.11.51a7.45,7.45,0,0,1,.06-1.15A5.39,5.39,0,0,0,125.39,66C124.37,65,124,64.64,124.85,64.62Zm-38.55.74c-.59.21-1.21.64-1.7.53a.73.73,0,0,0-.89.51c-.72,1.44-.5,1.9.92,1.09.68-.39.91-.25,2.72.09a6.78,6.78,0,0,0,3.3-.08c1.41-.36,2.25-.39,3,0s1.2.93,1.22.49-.53-1.83-.63-2.26c0-.21-.4,0-.73,0-1.17.08-2.56-1-3.47-.41-.72.44-.82.56-1.81,0C87.45,64.86,86.94,65.13,86.3,65.36Zm37.71.32c2.12,1.77,2.66,3.35,2.46,4.64-.11.94-.18,2-1.1,2.54a2.79,2.79,0,0,1-.65.17c.71-2.67-.13-5.06-3.13-7.61A2.17,2.17,0,0,1,124,65.68Zm-47.81,0a.86.86,0,0,1,.3,0c.37.12.43,1.08.14,1.38s-.53.06-.86-.71C75.53,66,75.79,65.68,76.2,65.68Zm-2,.75c.77,0,1.07.69,1.2,1.26s0,1.92-.44,1.42a4.51,4.51,0,0,0-.86-1.55C73.39,67,73.47,66.44,74.24,66.43Zm-2.18.71a2.53,2.53,0,0,1,.43,0c1.21.2,2.14,2.13,1.86,3.23-.64,1.17-.88.38-1.09-.69a6.53,6.53,0,0,0-1-1.49C71.67,67.49,71.57,67.16,72.06,67.14Zm72.65-.56,3.68,2.65v2.82l-3.85-2.59C144.63,68.47,144.67,67.52,144.71,66.58Zm-75,1.15c1.8,0,3.34,2.1,2.77,4.13s-4.21,1.66-3.63-.45a1,1,0,0,1,1.43-.67c.89.55.79-.34.23-.66a1.58,1.58,0,0,0-2.34.8c-.93,3.44,3.49,4.62,5.89,1.06.88-1.3,1.84-2.69,2.36-3.29s.58-.47.5.21c-.3,3.2-2.53,7.2-6.71,7-4-.38-5.32-4.7-2.26-7.39A3.05,3.05,0,0,1,69.67,67.73Zm21.5.17a4.82,4.82,0,0,1-4.29.36c-1.08-.47-1.07,0-.6.46,1.36,1.16,3.83.63,4.89,0C91.51,68.49,91.62,67.88,91.17,67.9ZM148.4,73v2.57l-4.1-2.76a11.49,11.49,0,0,1,.13-2.51Zm-4,.86,3.91,2.58.11,2.55-3.8-2.36Zm.27,3.57L148.45,80l.05,2.79-3.7-2.44Zm-91.1,2.93L51.32,87.3l1.5.09,1,1.83,1-1.87,1.57-.12Zm91.26.92,3.6,2.48.05,2.57-3.74-2.59Zm-.15,3.15,3.7,2.67.07,2.73-4.18-2.79ZM62.13,86l-2.26,7.41,1.28-.17,1.19,2,1.21-1.78,1.14.06Zm-17,.55-2.15,7.37h1.44l1.22,1.86L46.67,94l1.64,0Zm99.15,1.35,4.34,3,0,2.9L144.41,91Zm4.29,6.89,0,2.54-3.64-2.6-.4-2.82Zm-77.34.44-2.64,7.49h1.77l1.08,1.8.86-1.8h1.42Zm74,.75,3.38,2.32,0,2.61-3.33-2.24Zm-64.09,30.3-1.93-1.86a2.78,2.78,0,0,1,2.56-.43,2.68,2.68,0,0,1,.51,4.23,2.71,2.71,0,0,1-3,.05Zm-1.72-3.06A3.92,3.92,0,0,0,76.64,119s-.2-18.16-.18-18.71c0,.08-.32-2-.35-2.09h0l-.3-.07c0,1.84.17,20.72.14,20.84-2.33.27-3,1.85-3.19,4a3.53,3.53,0,0,0-3,1.14c-.67-.93-.17-2.29-.7-3.25-1.61,5.65,1.52,9,4.26,8.71.43,5.42,6.4,6.41,6.19-.17,7.21-.43,4.77-7.07-.11-6.19ZM45.48,100.41l-2.61,7.34,1.83-.21.67,1.35c2.93-2.59,4.41,1.41,2.92-2Zm99.24,13a.92.92,0,0,1,.87.7c.06,1.23-1.6,1-1.65.17A.85.85,0,0,1,144.72,113.46Zm1.08,8.06a1.11,1.11,0,0,1,1.88.63c0,.78-.88,1-1.59.6A.8.8,0,0,1,145.8,121.52Zm.11,2.18c3.92.3,6.84-2.37,5.59-4.29,1.06-1.33.19-2.09.48-2.85a2.39,2.39,0,0,0-.07-2.71c-.17-2.47-.89-2.79-1.95-4.1-.32-.39.74-.76,1.15-1.41-1.25.33-1.92-.31-2.6-1.15-7.27.34-13.8.85-13.55,10.73-1.05,4.19.72,7.92,5.8,6.77,1.11-1,.38-2.44.24-3.13a8.62,8.62,0,0,1,.21-4c.43-2.76,2.45-5.32,2.67-1,.35-.55.18-.63.77-.85,1.39-.5,1.39.91,1.1,1.48-.18.29-.46.26-.74.23s-.93-.2-.94-.35c-.11.45.73,1.29.65,1.71s-.19.37.18.1c1.75-1.25,2.85,1.55.32,1.23C146.46,120.75,144.62,122.7,145.91,123.7Zm-2.59-15.08c1.38-.07,1.71-.08,1.64.64.26,1.34.6,2,2.34,1.82s2.31-.34.54.73a3.44,3.44,0,0,1-2.23.37c-1.07-.09-1-.2-1.6.16a3.63,3.63,0,0,1-1,.5l-1.13.24a8,8,0,0,1-1.9,4.11c-1.21,1.38-1.83,1.62-.34,1.52.55,0,.27-.24.51,2a12.32,12.32,0,0,0,.34,2c.39,1,.44,1.52-1,1.6-3.68.28-4.53-3.31-4-5.14a19.91,19.91,0,0,0,.24-2c0-.42-.06-.77-.05-1.19.08-3.41.89-4.32,3.92-6.54A7.2,7.2,0,0,1,143.32,108.62Zm3.23.19c1.69,0,3.33.78,2.51,1.31a4.22,4.22,0,0,1-3-.18C145.41,109.45,145.67,108.82,146.55,108.81Zm-75.67,2.9-.68,1.19a12.38,12.38,0,0,1-.57,6.69L71,121.41l1.1-1.89,1.73,0Zm79.34-.56a1.24,1.24,0,0,1,.86,1.85c-.61,1.36-4.72,2-4.72,2a3.25,3.25,0,0,0-.38-1.81,14.4,14.4,0,0,0,3.31-1.24C149.68,111.61,149.91,111.16,150.22,111.15Zm.81,3.1c.4,0,.61.29.72.88a1.21,1.21,0,0,1-.32.93,7.1,7.1,0,0,1-5,1.64,9.33,9.33,0,0,1,.18-1.83c1.41,0,3.79-1.21,4.46-1.62Zm-41.82,7c-1.4-2-4.51-1.73-4.18-1.59,0-1.73-.27-4.12-2.9-4.37s-4,3.3-3,4.79c-1.63-.69-4.09,1-4.09,1.18-.21,0-2.08,5,3.59,5.23a5.72,5.72,0,0,0,3.22,4.44l0,19.14.64.87.06-20.06c2.9-.12,3.26-3.46,3-4.22a5.14,5.14,0,0,0,3.44-1l.34,3.27s.68-1.16.53-1.77c-1.26-18.79,5.52-39.12,14.43-52.3.48-.55.62-1.22.86-1.22,2.17-1.17,3.54-2,3.54-2,3.58,1.72,10,5.89,10,5.89l.11,26.78c-.1-.27,11.91-1.35,11.73-1,0,0-1.05-.41-1.07-1.12l-.31-62.67L144,36.14s-4.33,2.83-5.54,3.8l.14,36.89-9.31-5.46s.15-1.31.16-1.73c-.15-5-2.62-6.72-7.31-5.23-.63.2-1.07.38-1.38.12-2-5.8-2.86-21-2.86-21L131.1,21l22.48-.13.39,86,.81,45.06-11.47,8.37-.17-28.86a14.16,14.16,0,0,0-2.07-.84.29.29,0,0,0-.08.54,10.21,10.21,0,0,0,1.46.64l.24,28.61s-4.46,3-6.45,4.26c-3.73,2.05-7.4,4-11.25,5.71s-12.16,5.12-12.16,5.12c-.72-2.41-7.89-8-16-4.05a10.42,10.42,0,0,0-2.27.94c-3.07.56-4.08,3.86-4.55,7.06,0,.12.25.1.25.11s.74-3.07,1-3.67a4.29,4.29,0,0,1,1.74-2.13c.18,0,.33.25.09.7a13.41,13.41,0,0,0-1,3.6c-.1.78-.13,1.41,0,1.43s.71-2.36,1-3.2c.81-2.2,1.32-3.11,2.1-3.58s1-.41.83.1a16.24,16.24,0,0,0-1.91,6.54c0,.5.21.51.41-.31.65-2.59,1.54-6.1,3.65-7.14.9-.41,1.3-.39,1.2-.1a14.17,14.17,0,0,0-3.11,7.84c0,.38.17.31.49-.51.85-3.14,2.11-5.8,3.6-7.11a3.36,3.36,0,0,1,1.87-.71c1.77-.23,1.83.43.29,1.33-1.76,1-3.79,4.76-4,7.56-.07,1,.27,1.08.51-.21,1-5.57,5.81-9.26,9.63-7.55,1.71.77,2,1.83.53,1.36-3-1-6.39,1.19-7.77,4.19-1.26,2.71-1.23,4.14-.35,7.77.6,3.35,1.77,7.64,1.39,10.93-.42.64-1.74-.27-3.29-.46a5.83,5.83,0,0,0-3.06.16c-.85.33-1.33.41-1.49,0-.05-.15.66-.87,1-1.27.51-.64.22-.75-.49-.05a8.89,8.89,0,0,1-1.3,1.18c-.45.09-.47-.42-.11-1.71,1.27-5,.93-5.1-1.25-6.11-2.16-.83-1.47-1.24-2.43-2.07-.68.53.88,2.95,2.64,3.49,1.44.43,1.26,1.17.63,3.15-.64,2.78-1.73,6.45-1.1,8.92,1.33,5.18,6.58,5.07,10.6,3l.49,1.32C99.93,207.51,82,208.69,76,208a16.16,16.16,0,0,1-.7-4,31.63,31.63,0,0,0,5.59,2c2.32.37,5.9.39,6.82-1.76.28-.63,0-1.16-.81-.8a14.28,14.28,0,0,1-6,1,14,14,0,0,1-5.2-1.43,1.18,1.18,0,0,1-.53-1.63c.35-.08.8.31,1.07.45,3.09,1.56,4.78,1.86,6.79,1.26,1.53-.45,3.58-2.1,3.07-2.57-.51.18-2.22,1.62-3.4,1.93-2.43.65-5-.34-7.53-2-.78-.67-.43-1.17.53-.63,3.77,1.91,5.35,3.17,9,.5.8-.6,1.25-.52,1.73-.16,1.87,1.68,1.87.74.49-1a5.23,5.23,0,0,1-.78-1.55,3.3,3.3,0,0,0-.42-1.16,6,6,0,0,0-2.07-1.12c-1.26-.56-1.68-.29-.75.17,1.64.8,2.43,1.66.4,1.19a7.82,7.82,0,0,0-6.67.85c-1.36.67-2,1.39-2.29-.13-.68-3.15,0-7.43-.92-12.94-.18-1-.39-1.72-.17-1.86s1,.49,1.86,1.72c.39.56,1.18,1.63,1.18,1.41,0-1.17-1.78-3.36-3.28-4.22-.82-.47-1.38-2.66-.44-2.18a27.3,27.3,0,0,1,5.22,4.86c.33.55.61.2.26-.45a14.26,14.26,0,0,0-2-2.37c-1.53-1.5-1.7-1.43-1.41-1.73.58-.61,1.82.17,4,2.18.57.72,1.32,1.37,1.23,1,.22-.56-2-2.95-3.31-3.59-.25-.15-.28-.31-.26-.61.13-1.13,2.67.53,4.79,2.46.79.73.13-.64-.79-1.56a9.63,9.63,0,0,0-2.67-2c-.78-.32-.83-1-.21-1.29,2.11-.09,4.3,2.08,5.6,3.78.36.47.69.83.32-.05a8,8,0,0,0-5.46-4.48c-1.41-.25-1.38-1.53-.05-1.38s3.85,1.48,5.88,3.52c.59.6,1.58,2,1.38,1.15A7.27,7.27,0,0,0,83.73,177a12.26,12.26,0,0,0-5.63-3.55c-1-.27-3.79.28-3.81-.21s.3-.58,1.2-.88c3.51-1.17,8.64,1.85,11.44,6.49.21.33.58.47.61.39-1.36-3.79-5.57-7.23-8.91-7.82-2.28-.36-4.58.22-5.67,1.76-1.23,1.73-.75,4.05,1.1,3.86,1-.09.89-.64.87-.66s-.63.2-1,.13c-1.26-.24-1.13-2.53.72-2.31,2.12.26,2.42,3.62,0,4.33-2.19.65-3-.36-3.59-1.54-.88-1.75.06-4.56,1.61-5.63,4.33-3,9.81-.49,12.9,2.5A13.93,13.93,0,0,1,89,179c.18.44.56.4.39-.06C85,167.79,72,166.49,70.11,175.15c-3.14-5-5.9-5.29-10.12-3.13-4.31,1.78-6.42,3.23-10.41,5.11l-9-4.86c-.53-9-.23-18-.19-27,0-.21-2,.15-5.26.66-8.78,1.76-8-2.95-9.17-3.19-.61-.12-.57.14-.74-16.45,0-4.82-.14-13.29-.21-18.83S24.9,97.3,25,97.2a6.74,6.74,0,0,1,1.11-.92c2.14-1.52,3.34-2.44,8-6a13,13,0,0,1,1.33-1c.53,10,.05,20.44.32,29h.39L36,89.55C35.16,89.34,54.42,78,65,74.37a1.63,1.63,0,0,1,.7.16c6,7.44,22,5.18,23.28-3.88,2.64,5.53,14.24,16.26,19.54,3.32,0,0,1.92,3.72,3.57,4,3.71.5,4.12-.09,12.27-4.05a88.81,88.81,0,0,0-15.12,47.37Zm-5-3.54a3.78,3.78,0,0,1,.1,2.08c-.24.5-.59.49-.59.49L102,118.73l-1.76,1.64a2.46,2.46,0,1,1,4.06-2.66Zm46.66-.25c1.16-.07.56,1.26-1.15,2.17a3.16,3.16,0,0,1-2.35.52,1.94,1.94,0,0,1,.1-1.45,30.09,30.09,0,0,1,3.4-1.24ZM76.28,120a2.36,2.36,0,0,1,2.44,2.5,3.12,3.12,0,0,1-.32,1.32l-2.15-1.58L74.61,124c-.27.09-1.28-1.16-.59-2.52A2.54,2.54,0,0,1,76.28,120Zm31,.74a2.43,2.43,0,0,1,.36,4.32c-.83.47-2.14.72-2.76-.21l1.78-1.94-2-1.72A3,3,0,0,1,107.29,120.72Zm43.31-.66c.31,0,.38.11.47.41.26.82-.39,1.65-1.5,1.91s-.92.37-1.41-.55c-.38-.72-.48-.69.11-.92S149.76,120.4,150.6,120.06ZM99.28,121.3s-1.28,1.3-1.84,1.84l1.93,2c.09.24-2.22,1.29-3.44-.29a2.76,2.76,0,0,1,.78-3.66C97.85,120.53,99.5,121.1,99.28,121.3Zm2.76-.23a2.07,2.07,0,0,1,.06,4.13,2.07,2.07,0,0,1-.06-4.13Zm-28.15,3.47-1.84,1.94,2,2.18a10.06,10.06,0,0,1-2.15.15c-2.72-.51-2.45-3.7-.35-4.55A2.45,2.45,0,0,1,73.89,124.54Zm-36.25.66s.36,4.11.69,5.51c-.21,1.6-1.25,2.69-1.71,4.33-.25.73-1.18,1.71-1.36.68-.67-1.27,0-2.84-.58-3.75s-.2-1.33-.39-2.22c-.52-.73-.77-1.06-.68-1.71-.11-2.9-.84-2.33-2.12-2.09-5,.43-5,3.31-4.68,7-.71,3.43.6,2.62.56,3.23-.07,1,.09,2.35.38,2.5,1.78,2,1.87,3.46,4.18,3.11,3.92.3,10.14-.28,11.48-5.06C44.25,129.94,44.51,123.53,37.64,125.2Zm38.92-.66a2,2,0,1,1-2,2A2,2,0,0,1,76.56,124.54Zm-37.21,1a3.16,3.16,0,0,1,2.33.83c1.54,1.48,1.61,2.82.92,8.5a5.45,5.45,0,0,1-1.49,3.52,13.53,13.53,0,0,1-4.84,2.38,7.87,7.87,0,0,1-2,.19c-.58,0-.92-.27-1-.76.13-1.32-1.22-1.45-2-1.38-1.39.06-1.54.21-.67-.47s3.27-.78,3.71-.33a4.33,4.33,0,0,1,3-1.13,2.52,2.52,0,0,1-.3-1.87c.59-1,1.58-2.87,2.62-3.56,1-1.34.15-.74-.49-.71-.36,0-.33-.11-.39-.35a22.62,22.62,0,0,1-.62-4.19C38.09,125.7,38.61,125.59,39.35,125.59ZM32.8,127a.77.77,0,0,1,0,1.23.89.89,0,0,1-1.47-.61A.91.91,0,0,1,32.8,127Zm69.38,2.85a2.58,2.58,0,0,1-2.41-3.49c.34-.49.49-.42.49-.42l1.9,1.7,1.82-1.91A2.46,2.46,0,0,1,102.18,129.89Zm-71.41-2.77a3,3,0,0,0,.07,1.29c-.33.24-1.74.65-2.5,1a.65.65,0,0,1-.83-.76c.2-.84,1.43-1.39,2.33-1.65A1.11,1.11,0,0,1,30.77,127.12Zm.31,2.4c.51-.06.36,1,.17,1.61-.19.41-.75.39-1.26.42-.88,0-2,1.08-2.48.92-.16-.08-.28-.5-.29-.77C27.32,130.22,29.77,129.68,31.08,129.52Zm2.68,1.54a1.17,1.17,0,0,1-1.17.24.91.91,0,0,1-.2-1.64C33.54,129.27,34.24,130.36,33.76,131.06Zm73.73-2.44-1,1.54-1.54,0,2.49,7.65,1.15-3c.15-1.37.33-2.74.48-4.12Zm-32.73.64,2,1.61,1.69-1.73c1.25,2.81-.19,4.09-1.73,4.06C75,133.16,73.18,131.55,74.76,129.26Zm-43.19,2.9c.63-.12.36,1.57.27,1.62a9.09,9.09,0,0,0-2.83,1c-1.54,1.21-2.2.47-1.48-1C28.2,132.94,30.68,132.18,31.57,132.16Zm2,.08a.89.89,0,0,1,.75,1.42.93.93,0,0,1-1.56-.61A.83.83,0,0,1,33.53,132.24Zm-1,4.29c.09.39,0,.27-.76.48a11.33,11.33,0,0,0-1.67.71c-1,.48-1.23.74-1.56.69a.84.84,0,0,1-.67-.45c-.33-1.09.56-2.2,2.62-3a8,8,0,0,1,1.46-.31C32.65,134.68,31.9,135.76,32.52,136.53Zm1.22-1.65c1,0,1.19,1.32.44,1.55C32.43,136.88,32.58,134.88,33.74,134.88Zm-1.23,4.9a.61.61,0,0,1,0,.94c-.58.29-2.8,0-2.81-.58,0-.41.73-.55,1.42-.56S32.29,139.56,32.51,139.78Zm100,.68-1.82,2.44,2.45,6.15,2.23-7.44-1.75.7ZM29.25,146.77c.42,18.92.35,62.28.35,62.28L35,212.71l5.65-4.07c-.06-13.65-.11-23.06-.16-35.7l8.28,4.56s.26.37.22,2.08c-.57,4.71,4,7.78,7,5.91,1.16-.49,1.25-.57,1.5-.21.68,1,1.45,5.36,1.57,8.13.2,4.18,1.29,12.69,1.56,12.75L47.1,229H25.75V144a7.26,7.26,0,0,0,3.5,2.81ZM107.54,145l-1,1.55H105.3l2.14,7.92,2.6-7.74-1.43-.18ZM40,208.1s-2.62,1.89-3.46,2.43c-.44.17-.66.2-.76-.23a14,14,0,0,1,.26-3.12,11.31,11.31,0,0,0-.08-3.73,19.24,19.24,0,0,1-.08-5.28,47.57,47.57,0,0,0,0-8.47,55.23,55.23,0,0,1-.05-8.57,30.58,30.58,0,0,0-.23-7.63c-.68-3.79-.8-5.1-.09-7.95a10,10,0,0,0,.35-3.43,42.31,42.31,0,0,0-.81-7c-.41-2.53-.44-2.88-.06-6.89.08-.81.11-1.35.41-1.61s4.11-.52,4.11-.52Zm-9.84-61.26,4.07,0A14.64,14.64,0,0,0,33.8,150l-3.63-2.39Zm.06,1.64,3.58,2.34a20.45,20.45,0,0,0,.08,2.93l-3.64-2.42Zm0,3.72L34,154.83c.15,1,.46,2.06.58,3l-4.35-2.95Zm124.12,1,.2,75.72h-38.2l-12.11-23.32a21.29,21.29,0,0,1,.42-3.24c.36-1.32.46-1.61,1-1.67a2.54,2.54,0,0,0,3.34-1.27c.57-1.27-.58-3.19-2.36-3.61a3.09,3.09,0,0,0-2.5.83c-.5.42-.61.47-.71.1-.23-.82.5-3.06,1.8-5,.73-1.07.93-1.38,1.16-1a2.34,2.34,0,0,0,3.76.37,2.85,2.85,0,0,0-1.38-4.36c-4.14-1.33-6,2.84-6,2.83l-.89-5c5-1.22,7.86-1.65,9.45-3.17a6.53,6.53,0,0,0,1.68-5.09s13.85-5.63,20.33-9.13a155.85,155.85,0,0,0,21-14Zm-21.09.54-1,1.81h-1.45l2.94,7.63,2.24-8-1.4.12ZM30.38,156l4.4,3a12.79,12.79,0,0,1,.09,3l-4.63-3.07Zm85.8-.93-1.09,1.46-1.26-.14,2.47,7.55c.75-2.18,1.44-5.14,2.18-7.33l-1.17.06Zm-85.87,4.82,4.55,3a5.64,5.64,0,0,1-.27,2.47l-4.29-2.76Zm94.4.43-1.1,2.13-1.47-.2,2.63,7.24,2.87-7.17-1.78.09Zm-94.4,3.08,3.95,2.91c.06,0-.22,1.32-.16,2.05L30.35,166Zm.11,3.6,3.68,2.53a16,16,0,0,0,.22,2.68l-4-2.6Zm-.06,3.66,4.25,3,.23,2.44-4.51-2.84Zm35,1c4.08,1.53,7.91,9.31,7.79,19.38-.08,7,2,17,2,16.86s-1.18.16-1.52-.11a65.09,65.09,0,0,1-2.29-15,80.33,80.33,0,0,0-.65-8.25c-.67-3-1.4-6.52-3.32-8.81-1.49-1.72-3.2-2-4.22-.09-.83,1.59.93,4.22,2.39,3.34.35-.2.56-.53.1-.52a1.82,1.82,0,0,1-1.58-2.88c1.69-1.76,4.64,2.17,3.27,4.33-.6.93-2.18,1.1-3.44.75a5.43,5.43,0,0,1-2.57-6.88,3.24,3.24,0,0,1,4.05-2.09Zm-4.94,1c.33,0,.11.63-.2,1.59-.72,2.29.63,5.85,2.51,6.56.56.38.53.53.16.74-1.23.69-3.45-1.38-4-3.68-.42-1.67-.32-3.64.48-4.47a2.21,2.21,0,0,1,1-.73ZM30.31,174l4.55,3a8.2,8.2,0,0,1,0,2.92l-4.54-3.18Zm27.41,0c.34,0,.21.55.12,1.58a6.05,6.05,0,0,0,2.21,5.58c.71.61.9.8.59,1.12S59,182.08,58,181.06c-1.79-1.87-2.38-5.39-1-6.67.31-.28.54-.43.72-.43Zm50.52.41c1.94-.08,3.58.68,3.76,3.06.26,3.48-3,5.38-5.23,3.38-2-2,0-5.14,2.37-3.67,1.18.74-.23,2.44-1.18,1.56-.43-.39-.62-.15-.31.31.92,1.38,2.74.23,2.61-1-.26-2.39-3.19-2.36-4.3-1.43a25.57,25.57,0,0,0-3.83,4.55c-.81,1.19-1,1.16-.87-.32.32-3.89,3.95-6.34,7-6.46Zm-52.85.76c.3,0,.18.43.2,1.58a6.88,6.88,0,0,0,2.94,5.8c.52.58-.15,1-1.14.71-2.25-.7-4.56-5.55-2.65-7.64C55,175.29,55.22,175.14,55.39,175.13Zm-2.2,1c.32,0,.14.63.17,1.85.06,2.58.86,3.82,2.77,5.4.63.51.71.46.46.74-.66.76-2.88-.32-3.83-1.86-1.12-1.84-1.29-4.62-.24-5.67C52.81,176.27,53,176.11,53.19,176.1ZM51,177.34c.25,0,.11.47.15,1.58.1,2.71.71,4,2.42,5.29,1.08.79,1.34.55,1,.86-.58.55-2.15.08-3.33-.92-1.77-1.5-2.27-5.19-.83-6.46C50.7,177.46,50.88,177.34,51,177.34Zm-20.63.38,4.36,3-.12,2.56-4.34-2.94Zm76.31,4.8a2.57,2.57,0,0,1-2.23-3.1c.07-.49.35-.77.66-.13.26,1,.93,2.41,1.85,2.68C107.35,182.08,107,182.59,106.7,182.52Zm-38.21-3c2,5.05,2,10.58,2.3,15.8.44,6.94,1.67,11.61,2.07,12.4,0,0-2,0-2.06-.26,0,0-1.84-9.2-1.57-13.75a42.81,42.81,0,0,0-1.57-11.58c-.64-1.79-.67-.61.83-2.61Zm-38.12,2,4.19,2.75c-.05.95-.06,1.89-.05,2.83l-4.12-2.92Zm56.46-.23c0,.15.6.28,1.55,0a6.06,6.06,0,0,1,2.91,0c.86.24.95,0,.17-.38a4,4,0,0,0-1.88-.52C88.68,180.41,86.82,180.9,86.83,181.24Zm17-.11a8.8,8.8,0,0,0,.71,1c.54.63.69.63.45.89-.57.59-1.76-.27-1.88-1.36C103,180.81,103.39,180.31,103.83,181.13Zm-37.59.22c2,2.8,2.25,9.37,2.29,14a69.1,69.1,0,0,0,1.57,11.87,1.7,1.7,0,0,1-1.46,0c-.5-.66-.81-2.5-1.4-7.5-.15-1.29-.44-5.39-.51-8.69-.06-2.92-1.68-9.22-1.68-9.22A2.59,2.59,0,0,1,66.24,181.35Zm-2.18.7c1.78,4,2.07,8,2.15,12.78a89.17,89.17,0,0,0,1.47,12.25c-.6.06-1.24.11-1.49-.16a2.55,2.55,0,0,1-.37-1,87.11,87.11,0,0,1-1.24-11.85c-.35-5.62-.44-7-1.23-9.81-.45-1.59-.61-1.55-.27-1.86a1.68,1.68,0,0,1,1-.34Zm20.09.92c0,1.86.29,1.1.94.8.5,0,.9.23,1.82.57,1.16.43,1.06.57,1.88.17.51-.25.91-.34,1.15-.14a2.25,2.25,0,0,0,2.9-.29,2.69,2.69,0,0,1,1.6-.09c.66.06.49-.36.57-1.2s-.21-.82-1-.56a3.82,3.82,0,0,1-2.26.08,7.6,7.6,0,0,0-3.9-.05c-2.05.32-2.16.12-2.62-.18a4.1,4.1,0,0,0-1.12-.61c-.2,0-.13.69,0,1.5Zm18.18-.86c.2-.1.29.17.56.52.45.59.59.87.21.93-1,.14-1.26,0-1.22-.59s.13-.69.45-.86ZM62,183c1.48,1.49,1.85,9.86,2,11.66.53,9.77,1.46,11.17,1,11.9-.56,0-.75.2-1.12-.29-1.26-3.58-1.19-7.25-1.39-11A43.52,43.52,0,0,0,61,185.22c-.46-1.63-.45-1.66.38-2.11A1.52,1.52,0,0,1,62,183Zm-2,1.17a46.3,46.3,0,0,1,1.71,11.23,87.89,87.89,0,0,0,1.15,11,1.55,1.55,0,0,1-1.44-.47c-1.61-7.12-1.1-14-3-21.19a1.09,1.09,0,0,1,1.54-.53Zm-29.53.88,4.35,3.13.09,2.67-4.44-3.16Zm64.72-.34c-2.46,1-3.1,1.74-2.71,2.43s1.3.38,3.92-.71c2-.82,2.57-.47,3,.77,0,1.82-1.78,2-2.78,1.79-.43,0-.37,0,.09.59,2,1.59,4.51-1.52,3.27-3.5C98.94,184.28,97.27,183.76,95.15,184.71Zm-15.44.74c-2,1.6-1.3,4.47.39,4.91a1.72,1.72,0,0,0,1.44-.06c.26-.17.26-.44-.26-.53-1.57-.26-2.46-1.41-1.7-2.58s2.09-.92,4.71.21c2.27,1,3.26.68,3.53-.49.11-.52,0-1-1.12-1C83.68,185.75,81.68,183.91,79.71,185.45Zm27.15,4.4c-.13-.82-1.47,0-2.36,1.49s-1,1.65-1.15.15c-.26-2.23,2.05-4,3.49-4,1.74-.2,2.88.77,2.93,1.89a1.48,1.48,0,1,1-2.91.5Zm-76.53-1.31,4.61,3.17a17.54,17.54,0,0,1,.06,2.61l-4.63-3ZM85.7,189.6a2.29,2.29,0,0,0,.58,4.13c1.47.3,1.58-.74.11-1a1.15,1.15,0,0,1-.68-1.64c.7-1.15,2-.41,2.75-.05,1.67.8,2.54,1.09,3.07.54.94-1,.1-2.73-1.14-2.11a1.52,1.52,0,0,1-1.3.15,5.45,5.45,0,0,0-3.39,0Zm-55.33,2.71,4.53,3.11-.13,2.75L30.51,195Zm.09,3.78,4.27,3a18.09,18.09,0,0,0,0,2.37l-4.31-2.8Zm75.45.59c3.42.33,2.29,4.27-.1,3.21-.64-.48-.83-.44-1.54,1.29-.9,2.21-1.12,2-1-.53S104.51,196.7,105.91,196.68Zm-27,.6a.26.26,0,0,1,.19.05c.23.26-.46,1.28-1,1.89-.43.28-1.49-.49-1.23-.86A4.7,4.7,0,0,1,79,197.28Zm4.57,2-.61.08c-.93-2.06-2.84-1.58-3.44.33l-.84-.1C79.48,197.28,82.52,195.84,83.52,199.31Zm17.23.47-1,.06c-.93-2.24-2.24-2.57-3.36-.36l-.8-.23C96.93,196.42,99.24,196.2,100.75,199.78Zm-5.18-2.55c.53,0,.46.21-.09,1s-.59.76-1.07.4C93.62,198,94.93,197.27,95.57,197.23Zm4.91.06.35.05c1.07.27,1.56.77,1,1.42-.32.41-.64.57-.86.29C100.28,197.87,99.88,197.26,100.48,197.29ZM84.36,198c.11.44-.24.75-.63.38a.83.83,0,0,1-.27-.59.66.66,0,0,1,.9.21Zm-53.94,1.52,4.39,3.15a19.07,19.07,0,0,1,.16,2.72l-4.51-3Zm63.94.95c2.53,1.74,5.49,1.72,7.34.19.42-.34.78-.35.79,0-.27,1.22-3.49,2.78-6,1.9a6.15,6.15,0,0,1-3.42-2.27C92.52,199.42,93.63,200,94.36,200.47Zm-1.07.85c3.69,3.19,6.63,2.31,8.86.7.32-.09.33.21.4.76.1.71-.49,1.06-2.09,1.54-3.09.92-6.72-.09-7.37-2.17C93,201.74,92.85,201.21,93.29,201.32ZM30.4,203.23l4.45,3.06-.14,2.34-4.33-2.94Zm.07,3.58,4.2,2.85v1.94l-4.08-2.92Zm30.5.91c17.91,4.06,30.6,2.13,43.06-.07l11,21.7-66.51.09C52.9,222.39,56.52,214.68,61,207.72Z"/><path id="path3442-2-7-0" d="M62.64,20.08c1.92,3.3,3.43,6.71,5.16,10.09l.27.18.41.78,0,.38,1,1.64v.35l4.34,8.09c3.58-1.34,33-3.75,43.86.2l1.58-2.7h.38l2.8-4.92-.05-.41.94-1.07.14-.49,3.08-4.84,0-.78,3.85-6.45ZM129.2,21s-2,3.88-3,5.45c-.83-.67-3.27-.22-3.12,2.35-4-1.5-4.92,3.24-1.86,4.31-1.57,1.37-3.08-.18-4.27-1.24-1.17.29-3.59,1.15-5-1.38,0,0,.57.31,1.15.65,3.24,1,3.5-3.4,1.09-4.12a6,6,0,0,0-.88-.11c.81-3.37-4.39-4.55-4.49-.5a3.78,3.78,0,0,0-1.09,0c-2.76.5-2.13,4.58.69,4.39a3,3,0,0,1,.74,0c-.05.65-3.46,1.9-5.92-.35-1.17.89-3,2-5.42-.21,1.58-.07,3.1-.52,3.08-2.32a2.48,2.48,0,0,0-2.57-2.27A2.77,2.77,0,0,0,96,23a2.5,2.5,0,0,0-2.34,2.65,2.38,2.38,0,0,0-2.25,2.62c.38,1.81,1.78,2,3.37,1.69-1.94,3.12-5.09,1.49-6.06.5-1.15,1.08-3.17,2.54-5.65.54,1.32-.22,2.79-1,2.55-2.85a2.38,2.38,0,0,0-2.54-1.82A2.3,2.3,0,0,0,80.63,24c-1.87.18-1.76,2.54-1.74,2.56a2.3,2.3,0,0,0-2.22,2.86c.53,1.41,1.66,1.85,3.72,1.47-2.41,2.26-3.94,1.38-5.25.91a3.12,3.12,0,0,1-4.3.53c3.56.17,3-6.13-1.23-3.85-3-3.54-3-2-5.64-7.17ZM96,27.23a1,1,0,0,1,.54.12c.55.28.66.78.32,1.51a1.81,1.81,0,0,0-.27.82c3.92,7.24,12.56,4,13.38.64a1.06,1.06,0,0,0-.16-.67,1,1,0,0,1,.14-1.39,1.06,1.06,0,0,1,1.7,1.23,1.38,1.38,0,0,0-.18,1c2.22,5.05,6.64,5.43,10.34,3.43-1.7,3.06-8.32,4.94-11.1-2.44-4.44,6-11.48,5.9-14.67-.89-2.87,7-11.54,7.11-14.7,1.35C78.51,38.52,71.85,37,70,32.9c6.19,4.48,10.27-.2,11-2.2a2.61,2.61,0,0,0-.34-.43c-.79-.77-.77-1.69,0-2.05a1.11,1.11,0,0,1,1.5,1.53c-.15.28-.29.34-.19.58,1.93,4.5,11.41,5.81,13.33-.5a1.37,1.37,0,0,0-.14-1A1.08,1.08,0,0,1,96,27.23ZM68.36,29.77c1.5.09,1.08,1.38.78,1.47Zm55.54.81s-.92,1.67-.92,1.67C122.48,31.46,122.61,30.47,123.9,30.58Zm-5.06,8.31a11.86,11.86,0,0,1-1.27,2.3c-17.71-4.55-42.43-.6-43-.16L73.44,39C89,35.87,104.46,36.53,118.84,38.89ZM88.92,70.36c-1.71,6.61-5.86,7.28-10.86,8.09-6.19,1-10.23-1.27-12.12-4.72,0,0-8.86,3.35-12.09,5.3C60.57,82.12,69.45,89,74.5,96.71c1.8,2.37,1.71,1.83,1.71,7,0,11.25,0,15.44,0,15.44,2.77.41,2.92,2.33,2.77,4.47,2.23-1,4.37.22,4.36,2.33,0,3.87-3.81,2.82-4.6,2.39,1.23,3.41-.21,4.82-1.69,5-1.83.21-3.92-.67-3.31-4.57a3.74,3.74,0,0,1-4.85-3l-.1-4c4.92-9.27-1.25-16.8-7-19.28,0,0,1.64-3.4,3.75-4.35.22-.07-1.28-2.27-3.8-1.79-1.17,0-.89,0-2-1.41-2.16-2.81-3.17-3-5.28,0-.93,1.32-1.15,1.36-2.24,1.38s-3.06.89-3.46,1.67c-.09.18.38.36,1,1.1.91,1,2.3,2.51,2.08,4-4.77,2-12.68,10.48-4.36,21.41l-6,.08-.28-38.91L37,88.06l.19,30.47-1.2-.39c.1-9.72,0-19.44-.36-29.16L24.59,97l.49,45.7,1.18.25c.87,6.23,13.17,1.87,13.89,2.41l.15,25.39-.54,1.26,9.79,5.36,9-4.66a8.74,8.74,0,0,0,1.67-.46c3.72-2,6.5-1.53,8.52,1.36,1.25,1.78,1.46,2,1.46,2,.76-5.14,5.3-7,9.71-5.69,3.24,1,7.67,4.23,9,8.18a4.07,4.07,0,0,0,.49.86l.18.08c0-.1-.21-.59-.29-.83-4.54-10.46-17.35-12.07-19.33-3.52l-1.81-2.55,9.54-5.86,13,8.6s-.61,3-.68,4.32l.22.11a11.6,11.6,0,0,1,1.31-4.73,4.72,4.72,0,0,1,1.07-1.34c.77-.45,1.5-.4,2.29-1.15L93,170.75l0-4.58,3.82,5.37c1.21-.28,5.89-1.68,8.67-.13.31.1,4.38-1.06,6.92,4.63L124.6,171s.78-.44.79-.56c-12.18-4.5-24.47-20.45-23.29-20.7,0,0,0-1.64.06-5.66.1-4.47,0-9,.12-13.53-4.15-1.32-3.12-4.67-3.12-4.67-2.49.55-2.88.06-3.51-.38l-.43-4.24a4,4,0,0,1,4.23-1,4.15,4.15,0,0,1-.08-3.36,3,3,0,0,1,4-1.11c1.89,1.29,1.29,4,1,4.36a3.62,3.62,0,0,1,4.94,2.05,107.6,107.6,0,0,1,2-17.19A97.41,97.41,0,0,1,121.18,79c.71-1.25,1.62-2.49,2.36-3.66a15.28,15.28,0,0,0,1-1.71,9.81,9.81,0,0,1-1.92.79,11.4,11.4,0,0,0-2.64.92,14.38,14.38,0,0,1-3.5,2c-3.91,1.53-6.54-.75-8.17-4.22-.9,4.41-4.93,8.14-10.89,5.82-3.36-1.79-4.41-2.93-7.56-7.6A4.66,4.66,0,0,0,88.92,70.36Zm.13.72c2.22,4.41,5.55,7.53,8.79,8.78a8.1,8.1,0,0,0,10.67-5.22l1.11,1.9-8.75,6.23L87.66,74.35A23.15,23.15,0,0,0,89.05,71.08Zm39.74.3-3.92,2.32s-2.6,4.21-3.48,5.8a89.25,89.25,0,0,0-9.8,25.65A117.08,117.08,0,0,0,109.85,117a70,70,0,0,0-.27,10.44l.3.33s-.48.85-.82,1.56A9.47,9.47,0,0,0,108,134.6a13.92,13.92,0,0,0,7.69,12.13l.58.26a11.72,11.72,0,0,1-2.14,3.5c-.92,1-1.11,1-.79,1.49.45.66,1.91,1.23,3.72,1.2.64,0,.64,0,1.82,1.29,2.31,2.52,3,2.47,5.11-.39a2,2,0,0,1,1.9-1.08c1.34,0,3.79-1.12,3.78-1.63-1.65-.73-3.57-4.52-3.26-4.56,9-4.79,11-14.74,4.35-22l6.31-.1.24,39.67c1.23-.82,4-2.59,4-2.59l-.09-30.87a17.38,17.38,0,0,0,1.72.53l.25,29.4s8.11-5.73,12-8.72l-.23-45H154l.14,45-10.71,7.84L143.33,132l1.16-.17c3.14-.44,4.59-4.45,2.51-7.06-.74-.93-.22-.87,1.36-1.17,2.78-.25,4.32-2.36,3.51-3.86-.34-.65.11-.58.4-1.19a2.93,2.93,0,0,0,.08-1.55,1.94,1.94,0,0,1,.3-1.3,2,2,0,0,0-.4-1.9,2.54,2.54,0,0,1-.32-1.69c0-.91-.35-1-1.31-1.92-.74-.67-.15-.82.92-1.37,1.69-.87,1.81-4-.44-5.27-1.2-.7-3.38-.65-8.12.1-1.8.29-3.91.48-3.91.48s0-17.59-.14-26.66Zm0,.63s9.62,5.64,9.55,5.79c-3.23,4.44-15.28,22.11-15.37,43.48-8.84-1.11-12.45,5.81-12.88,5.79a87.21,87.21,0,0,1,14.85-52.82Zm-6.06,3.44,0,.64-1.9,2.85-.05-2.85Zm-3,1,.07,4.6-3.91,3-.22-4.8Zm-36.2,1,2,1.39-.07,4.57-3-5.51ZM138.52,79l0,3.3c-7.7,10.89-11.74,23.32-13,39.07l-1.87-.06A74.57,74.57,0,0,1,138.52,79Zm-52.15.34,4.75,3.11-.2,5.2L86.6,84.91l-.4-1.06Zm28.76.22,0,4.84-3.67,2.73-.17-4.8ZM70.66,80.86c.54,0,1,.4,1.08,1.15.4,3.22,2.84,2.29,3.42,3.26.22.33-.3.61-2,.48-3.06-.23-5.3-2.71-3.73-4.35A1.75,1.75,0,0,1,70.66,80.86Zm21.17,2.07,4.06,2.59,0,5.34-4-2.43Zm18.51,0,.31,4.72-4.44,3-.16-4.69Zm8.45,0-2.55,5.44L101.36,99.13,89,91.12l-2.29-5.25,14.4,9.42ZM78.68,85.12c3.95,0,7,4.16,8,7.85.75,2.43.87,3.31,1,7.18s.2,4.62.94,5.17c.45.35.59.25.64-.44.13-1.55,2-.6,2,1,0,1.82-1.95,2.4-3.42,1-.79-.74-.8-.74-1,.72-.17,1-1.3,7.08,1.6,8.6.54.05.67-.39.27-.9-.81-1,.81-2.2,2.13-1.55,1.6.79,1.44,3.37-.27,4.29-2,1-4.48-.14-5.66-2.67-.87-1.86-.87-4.44,0-8.27a24.38,24.38,0,0,0,.68-4.24c0-.44.08-.93.11-1.08.1-.41-.11-.43-.81-.07-1.91,1-4,.28-4.51-1.49-.62-2.11,1.73-4.3,3.18-3,.56.51.49,1-.17,1.34-1.14.56-.75,2,.46,1.75,4-1.2.34-12.44-4.16-13.22-3-.51-5.31,2.88-3.15,4.7.84.71,1.7.33,1.51-.67-.26-1.41,1.6-1.26,2.29.18,1.12,2.34-1.77,4.24-4.47,3C71,91.45,74.29,85.21,78.68,85.12ZM96.6,86l4,2.68,0,5.22-4-2.36Zm8.78.45,0,4.79-3.85,2.8V89Zm10.36,3.14-2,5.49-12.42,8.51L91.11,97.18l-1.76-5.09,12.07,7.84ZM35.15,90v27.82c-4,.17-6.33,4.16-3.32,7.93l-1.13.15c-2.73.38-4.55,1.82-4.19,3.57a2.08,2.08,0,0,1-.16,1.35,2.22,2.22,0,0,0,.15,1.89,1,1,0,0,1,.07,1.05,2,2,0,0,0,.13,2c.45.44.32.79.26,1.5-.07,1,.11,1.39.74,1.78.8.5,1.1,1.32.19,1.25-.46,0-2.06,1.51-2.06,1.51l-.15-44.64ZM57,93.58c.72,0,1.46.9,2.52,2.43.65,1.1.66.95,2.13.89a4.22,4.22,0,0,1,2.81,1c.15.18-.24.22-1.2,1.19a9.38,9.38,0,0,0-1.77,2.52.58.58,0,0,1-1,.08c-.19-.3.31-1.27,1.24-2.42,1.32-1.28,1-1.41-.87-1.2-1.35.14-1.49.07-2-.75-1.53-3-2.34-2.94-3.8.09-.4.85-.24.8-2,.66-1.36-.1-1.7.24-.93,1a6,6,0,0,1,1.6,3.29l-.93.08a8.5,8.5,0,0,1-.4-.85A8.89,8.89,0,0,0,50.74,99c-1-1.12-.47-1.74,1.85-2,1.29-.14,1.32-.16,1.91-1C55.55,94.49,56.25,93.58,57,93.58Zm56.32,2.77L112,101.09l-10.6,7.45-8.61-5.77L91.6,98.31l9.9,6.28ZM76.77,100.1A73,73,0,0,1,81,110c1,3.37,2.31,13.13,2,13.73-.75-1-3.24-.81-3.27-.8A3.77,3.77,0,0,0,76.8,119Zm34.85,2.19L110.57,107l-9,6.54-7.45-5.1-1-4.51,8.23,5.51Zm-52.43.26,1.17.41.22,8.44,9,1.5.21,1.45-10.45-1.69C59.25,109.06,59.19,102.55,59.19,102.55Zm-4.58.25.25,9.82c-.1,0-7.52,1-10.37,1.77l.17-1.34s5.16-1.13,8.9-1.56c0-2.74,0-5.63,0-8.43Zm84,1.81a16.75,16.75,0,0,0,3.86-.35c6.77-1.19,8.6-.71,9.47,1.39,1,3.24-2.6,3.32-3.24,1.26-.4-1.34-1.85-1-6.71.11-4.15,1-6.79.2-6.74-2.16S138,102.22,138.56,104.61ZM82.9,102.83a1.52,1.52,0,0,1,0,3,1.5,1.5,0,0,1-1.53-1.49A1.52,1.52,0,0,1,82.9,102.83Zm-22,.27,1.07.33s.16,6.4.19,6.41c2.31.51,7.14,1.41,7.14,1.41l.25,1.27c-2-.48-8.47-1.53-8.47-1.53C60.87,108.21,60.89,103.1,60.89,103.1Zm-7.8.12s0,5.11-.08,7.86c0,0-5.48.87-8.27,1.46l.21-1c2.22-.5,4.62-1,7.06-1.51,0-2,0-6.42,0-6.42Zm3.93,1.1a1.23,1.23,0,0,1,1.24,1.21A1.22,1.22,0,1,1,57,104.32Zm91.64,3.19a1.81,1.81,0,0,0,2.12,1c-.19.06-1.06.57-1,.74s-.37,1.5.23,1.55c2.25.22,1.11,2.56,1.38,2.92.61.69,1.05,1.13.63,2s-.9.74-.49,1.4c.9,1.35-.34,1.63-.23,2.55a3.72,3.72,0,0,1,.07,1.74c-.62,1.3-2.79,2.05-5.2,2.15-.35,0-.09-.55-.25-.91-.6-.38-.27-1-.07-1.43s.2-.55-.17-.84c-1-.64-1-.93-.89-1.4.22-1.37,0-1.5-.4-1.71s-.46-.84-.22-1.58c.16-.51,0-.64-.21-1.1a1.3,1.3,0,0,1-.19-.6c.07-.71-.56-.71-1.44,0a33.37,33.37,0,0,0-1.49,4.07c-.36.83-.42,1.69,0,3.6.83,2.91.21,3.4-3.06,2.78-2.46-.61-3.19-3.24-2.5-6.46a4.34,4.34,0,0,0,0-1.43,6.67,6.67,0,0,1,1.85-5.81c2.57-2.43,3.85-2.8,9.17-2.46a8.23,8.23,0,0,1,2.25.28,5.79,5.79,0,0,1,.07-1Zm-38.37.67-.62,4.51-5,3.54c-2.36-1.86-4.17-1.24-5.83.76-1.31-.67-3.94-2.49-3.94-2.49l-.67-5.12,7.27,5.05Zm-53.16,1.07a1.22,1.22,0,1,1-1.21,1.24A1.23,1.23,0,0,1,57.13,109.25Zm52.32,4.63-.27,4.35-1.78,1.34-1.79-.19-.42-2.69Zm-52.35,0a1.22,1.22,0,1,1,0,2.44,1.21,1.21,0,0,1-1.23-1.2A1.23,1.23,0,0,1,57.1,113.91Zm4.9.14a1.2,1.2,0,0,1,1.23,1.2,1.22,1.22,0,1,1-1.23-1.2Zm-9.75.23a1.22,1.22,0,1,1-1.2,1.24A1.23,1.23,0,0,1,52.25,114.28Zm90.58.2c.35,0,.86.48.61,1.24s-.1,1.17.45,1.88.39.68.32,1.06c-.11,2.52,1.5,1.43.8,3.26a3.26,3.26,0,0,0,.12,1.43c-.16-.43-3.12-.39-3.38.05-.42-.07-.95-2.86-.53-3.23a3.61,3.61,0,0,1,.53.75c.39.68.48.65.36-.13C141.61,117.67,141.91,114.5,142.83,114.48Zm-75.91.21a1.24,1.24,0,0,1,1.24,1.21,1.22,1.22,0,0,1-2.44,0A1.23,1.23,0,0,1,66.92,114.69Zm-19.73.23a1.22,1.22,0,1,1-1.2,1.24A1.22,1.22,0,0,1,47.19,114.92Zm47.77.35,3.65,2.38a7.36,7.36,0,0,0,.2,2.18A4.33,4.33,0,0,0,95.23,121Zm-26,3.8-.29,1.29a45.6,45.6,0,0,0-22.91.08l-.59-1.35A40.28,40.28,0,0,1,69,119.07Zm-34-.08a3.73,3.73,0,0,1,2.87,1.22,3.68,3.68,0,0,1-1.27,5.47A3.6,3.6,0,0,1,31.67,121,3.5,3.5,0,0,1,34.91,119Zm74.12.37,0,1.3-.91-.76ZM90,119.42a2.4,2.4,0,1,1-2.35,2.44A2.4,2.4,0,0,1,90,119.42Zm-55,.08a2,2,0,0,0-1.1.36c-.63.59,0,.61.85.76,1.49.28,1.91,1.57,1.77,3s.3,1.25.64.78A3,3,0,0,0,35,119.5Zm69.39.64-.07,0S104.33,120.17,104.36,120.14Zm-47.25.75c1.79,0,2,2.91.39,6.21-.47,1-.71.86-1.24-.63C55,122.78,55.26,120.93,57.11,120.89Zm4.14.08a1.19,1.19,0,0,1,1,.43c1,1.1.22,2.88-2.34,5.62-.62.66-.94.92-1.17.92-.65,0-.64-.09.09-2.47.32-1,.63-2.2.7-2.55A2.21,2.21,0,0,1,61.25,121Zm-6.48,2.64c.18.82.48,2,.68,2.53a4.28,4.28,0,0,1,.3,1.21c-.16.43-1.31-.16-2.12-1.11-1.64-1.91-2.3-3.58-2-4.47a1.68,1.68,0,0,1,2.36-.4A4.46,4.46,0,0,1,54.77,123.61Zm11.32-1.9c1.73,1-.26,3.36-4.14,5.3-1.66.83-1.54.45-.28-1.18a18.58,18.58,0,0,0,1.44-2.27C63.8,122.18,64.5,120.81,66.09,121.71Zm-17.28,0c.55,0,1.11.58,2.15,2.09A23.87,23.87,0,0,0,52.64,126a3.5,3.5,0,0,1,.8,1.1c-.17,1.06-5.57-2.3-6-3.71A1.38,1.38,0,0,1,48.81,121.72Zm77.28,3.07c1,2,1.06,3.26.25,3.71a1.87,1.87,0,0,1-2.64-1.76,14.89,14.89,0,0,0-1-3.25c-.38-.89-.43-1.45-.12-1.49A6.67,6.67,0,0,1,126.09,124.79Zm-6.46-1.52a16.85,16.85,0,0,0-.77,3.46,2.62,2.62,0,0,1-.27.93c-1,2-3.33.38-2.47-1.75.78-1.92,2.75-3.92,3.53-4C120.18,121.87,119.68,123.1,119.63,123.27Zm1.58-1.1c.39,0,.71.81,1.22,2.25.68,2,.65,3.46-.08,4.11-1.58,1.38-3.23-.63-2.59-3.15C120.27,123.36,120.76,122.21,121.21,122.17Zm-52.79.36c2,28.88-12.81,51.11-13.87,51.72l-5,2.75-8.82-4.81a75.79,75.79,0,0,0,15-43.68A13.66,13.66,0,0,0,68.42,122.53Zm48.45.09c.62-.17.19.37-.42,1.25s-1.5,3.51-2.18,3.92c-1.5.73-3.21-.66-2.3-1.86A12.16,12.16,0,0,1,116.87,122.62Zm9,.19a3.9,3.9,0,0,1,1.32.47c3.14,1.54,4.69,3.57,3.35,4.54-.95.68-2,.15-2.9-1.64a16.22,16.22,0,0,0-1.29-2Q125.26,122.81,125.84,122.81Zm17.65,1a3.66,3.66,0,1,1-3.6,3.71A3.65,3.65,0,0,1,143.49,123.84Zm-1.11,1c-2.38,1.06-1.66,4.79.38,5.33.87.24,1.92-.12,1.49-.53-2.71-.85-2.72-2.85-1.63-4.31C142.79,125,142.56,124.71,142.38,124.79ZM43.5,129.93c-.1,2.11.36,4.56-.65,6.85-1.52,3.52-6.42,5.14-9,4.82a2.33,2.33,0,0,0-1.72-.21,1.33,1.33,0,0,1-1.07,0c-.34-.15-.66.05-1-.07s-1-.84-.93-1.27c.12-.61.07-1.07-.64-1.27-1-.27-1.19-.81-.9-2.38.06-.34.14-.49-.08-.64a1.75,1.75,0,0,1-.53-2.35c.31-.55.55-.94,0-1.38-.22-.5-.18-.69.3-1.33s.59-.68.27-1.2c-.74-1.17.09-2,1.08-2.52a14.2,14.2,0,0,1,3.88-1c.52,0,.49.49.81.93.46.72-.19,1.76.18,2.12a1.22,1.22,0,0,1,.75,1.18,2.67,2.67,0,0,0,.31,1.75,2.18,2.18,0,0,1,.13,1.89c-.25.51-.22.47.1.78a3,3,0,0,1,.37,1.77l1.36-.13a13.07,13.07,0,0,1,2-5.09c-.08-1.79-.76-3.43-.7-5.8C41.2,124.15,43.62,127,43.5,129.93Zm52.09-4a10.34,10.34,0,0,0,3,1A4.23,4.23,0,0,0,101.7,131c0,3.21,0,18.06,0,18.06-3.49-5.86-5.65-13.43-6.11-23.18Zm-58.37.52a9.56,9.56,0,0,1,.25,1.26c.22,1.69,0,1.92-.46.76-.53-1.35-.55-.3,0,2.8a2.11,2.11,0,0,1,0,1.43c-.11.31-.32,1-.48,1.63-.47,1.7-.75,2.19-1.23.83-.25-.69-.46-.79-.28-1.33a1.86,1.86,0,0,0-.28-1.84,1.93,1.93,0,0,1-.26-1.06c.14-1.56-.56-1.58-.69-2,0-.61-.27-2.1.15-2.06a6.66,6.66,0,0,0,2.2-.15C36.4,126.61,37.22,126.43,37.22,126.43Zm52,.2A2.35,2.35,0,1,1,86.92,129,2.35,2.35,0,0,1,89.24,126.63ZM53,128.06l1.78.34c.4.13.11,24.71-14.13,42.45l-.12-4.11C47.3,156.91,52.18,144.86,53,128.06Zm30.16.52.32,5.87c-1-.86-3.54-2.45-3.52-2.49v-2.17A3.92,3.92,0,0,0,83.16,128.58Zm-13.71.08a5.49,5.49,0,0,1,1.17.89l-1.16.79Zm40.75.29a44.24,44.24,0,0,0,22.71.55l.51,1.44a41.84,41.84,0,0,1-24.18-.49ZM73,130.05l.41,2.53-4.34,2.82.21-3.85,2.26-1.47Zm38.36,2.11a1.27,1.27,0,1,1,0,2.54,1.26,1.26,0,0,1-1.28-1.25A1.27,1.27,0,0,1,111.37,132.16Zm19.73.11a1.27,1.27,0,1,1,0,2.54,1.27,1.27,0,0,1,0-2.54Zm-36.95,3.95c.56,2,.44,6.54-.29,9.61a40.33,40.33,0,0,0-.35,4.2c-.14.17,4.35-3.72,5.79,1.39a2.49,2.49,0,0,1-2.87,2.93c-.26-.1-.18-1,.07-1.48.75-1.52-1.39-2.32-2.6-1-2.81,3.12.08,11,4.48,11.8,3.66.64,6.59-3,4.15-5.18-1.07-.95-2.77.36-2,1.57s-.71,1.81-1.87.61c-2-2.09.25-5.23,3.31-4.5,4.89,1.11,3.89,8.78-1.24,9.21A8,8,0,0,1,92.51,161c-1.55-2.92-1.67-5.25-1-10.36.43-3,.08-5.6-.76-5.58a.82.82,0,0,0-.9.77c-.15,1.11-.28,1.32-1,.92a2,2,0,0,1,.07-3.29c1.48-1.14,3.4.65,3.32.95a5.22,5.22,0,0,0,.38-1.65c.65-4.24-.79-8.71-2.56-8-.39.16-.34.34.17.62,1.18.67.14,2.38-1.35,2.21-2.1-.25-2.58-3.19-.73-4.49C91.14,131.52,93.52,134,94.15,136.22Zm-14.36-3.54s3.73,2.29,3.93,2.87c.13.38.28,3.65.28,3.65l-6.48-4.06-9.28,5.75c.15-1.26.82-4.52.82-4.52L74,133.24C74,133.43,77.41,135.68,79.79,132.68Zm46.35.22a1.28,1.28,0,0,1,0,2.55,1.28,1.28,0,0,1,0-2.55Zm-9.88,0a1.28,1.28,0,1,1-1.24,1.29A1.27,1.27,0,0,1,116.26,132.92Zm5,.29A1.27,1.27,0,1,1,120,134.5,1.27,1.27,0,0,1,121.23,133.21ZM108.79,135c3.36.7,6.73,1.42,10,1.78l.13,9.91-.94,0-.14-8.86a50,50,0,0,1-8.81-1.61Zm25,.32-.18,1.17s-5.81,1-8.85,1.4c-.05,2,0,8.67,0,8.67l-1.17.21V136.69C127,136.31,130.44,135.92,133.79,135.33Zm-56.28.56,6.85,4.54.81,4.81-8-5.32s-7.23,4.88-9.94,6.69l.83-4.53Zm31.61.9a69.79,69.79,0,0,0,8.27,1.43l.11,8-1.26-.34-.11-6.48a53.91,53.91,0,0,1-6.58-1.07Zm24.38.24-.23,1.08s-4.41.67-6.69,1.08c-.2,0-.13,7-.13,7l-1.09.17-.12-8.15Zm-12.36.89a1.27,1.27,0,1,1-1.25,1.29A1.27,1.27,0,0,1,121.14,137.92ZM77.41,140.8l8.09,5.47a32.85,32.85,0,0,1,1.14,4.44l-9.31-6-11.66,7.74L67,147.64ZM28.35,141A1.35,1.35,0,0,1,29.56,142c.35,1,1,1.35,2.73,1.32,3.39-.18,6.93-1.78,10.13-.58,1.55.57,2.11,2.87.81,3.47s-2,.24-2.51-.87c-.45-.47-1-.4-4,.12-1.33.22-2.91.42-4.23.52-3.38.28-5.25-.79-5.67-2.81A1.83,1.83,0,0,1,28.35,141Zm92.73,1.86a1.27,1.27,0,1,1-1.26,1.29A1.26,1.26,0,0,1,121.08,142.82Zm-24.8,1.55A1.65,1.65,0,0,1,98,146a1.65,1.65,0,1,1-1.67-1.63Zm-18.86,1.15,9.74,6.53,1.71,4.9-11.35-7.39-13.88,9.05,1.67-5.05Zm48.09,1.54a12.82,12.82,0,0,0,2.86,4.13s-.64,1.23-3,1.16c-1.26,0-1.32.16-1.75,1a9.31,9.31,0,0,1-1.74,2.15c-.81.62-2.32-.31-3.56-2.2-.46-.69-.65-.85-2-.83-2.11.05-2.87-.54-1.77-1.48,1-1.17,1.63-2.44,2.48-3.67l1,.11a7.86,7.86,0,0,1-1.83,3.44c-.55.63.22.86,1.58.57.85-.26,1.07-.16,1.71,1.16,1.32,2.51,2,2.39,3.58-.16.55-1.13.53-1.24,2-.92,1.62.17,2.11,0,1.44-.6a9.41,9.41,0,0,1-2.08-3.84Zm-48,3.36s12,7.91,12,7.73l2.42,5.71-14.14-9.43L60.49,165.69l2.59-5.64Zm.46,5.19,4.2,2.77v5l-4.29-2.89Zm-1.07.14.07,4.92-3.76,2.25L73,158.31Zm-4.78,3.17,0,.19.09,0h0l.14,4.44-4.33,3v-5Zm11.09.06,3.95,2.64.16,5.27L83,164.08Zm4.88,3.22L92,165l.13,5.26-4-2.73Zm-21,0,0,4.86-3.94,2.76-.19-5Zm41.67,6.28c-.78.81-1.07.71-1.74-.64a3.26,3.26,0,0,0-3.24-2c-1.91,0-.66-1.22,1.36-1.37C108.64,164.32,110.41,166.66,108.77,168.5Zm-46.7-2.86.1,4.88-3.92,2-.12-2.32,2-3.54ZM57,172.17l.13.89-.72.28Zm47.19,35.18c-16.5,3.54-32.32,2.29-43.68.19l-5.19,8.88H55l-1.34,2.3.14.26s-4.31,8.29-6.12,10.91c21.21-.21,67.75-.31,67.75-.31l-2.83-5.72.15-.15-2.8-6-.91-1a19.5,19.5,0,0,1-1-2.23,44,44,0,0,0-2-4l-.23,0ZM61.12,208.6c.22.18,21.14,4.13,42.82.07l1.18,2c-19,4.38-46.43.2-45.34-.21Zm.36,3.92a6.38,6.38,0,0,1,5.16,2.68,15.28,15.28,0,0,1,1.09,2.15,11.63,11.63,0,0,1,1.82-2.28,7.88,7.88,0,0,1,5.67-2c2.34.08,4.92,1.35,7.26,5,.58-2.12,8.29-9.34,14.65-.34.72-2.39,4.12-7.16,9.62-3.83.38.81.77,1.69.77,1.69-3.25-2.28-8.61-.75-9.87,2.81a1.49,1.49,0,0,0,.2,1.08c1.67,2.4-2.68,2.34-1.39.4a1.15,1.15,0,0,0-.13-1.38A9.09,9.09,0,0,0,90,215.13a8.69,8.69,0,0,0-6.45,3.36,1.53,1.53,0,0,0-.13,1.67,1,1,0,0,1-.23,1.25,1,1,0,0,1-1.59-1.2c.28-.48.24-1.07-.34-1.89A8.54,8.54,0,0,0,75,215c-3.39.08-6.81,2.53-6.6,4.54.1.89-.14,1.22-.86,1.12-.88-.13-1-1-.36-1.64a1.2,1.2,0,0,0,0-1.12c-3.59-4.86-9-3.44-10.18-2.36a5.47,5.47,0,0,1,4.55-3Zm-3.19,3.37a4.35,4.35,0,0,1,3.25,1.82c.33-.34,3.37-1.8,4.85.28-3.87-.29-3.92,3.83-1.06,4.22-1.3,4,4.55,4.22,4.18.48,4.37.65,3.83-4.9-.28-4.31,2.15-1.58,3.62-1.07,6.21.73.87-1.13,4.42-2.19,5.29-.21-4.07-.25-3.38,4.47-.34,4.51-.9,3.28,5.08,4.48,4.15-.41,3.8.27,3.25-4.87-.39-4.45.27-.93,4-1.33,5.6.45,1.49-1.37,3.15-2.31,6.14-.35-4.08-.68-4.13,4.62-.34,4.3-.36,3.52,5,3.57,4.1-.48,4.07-1.1,1.83-5.47-1.16-4.27,1.33-1.59,3.59-.84,4.49-.51,2.77-3.19,5.19-.53,5.19-.53-4.83-.5-3.78,6.39.92,3.89a2.57,2.57,0,0,0,2.53,2.85l2.28,4.73-64.67.43,3.57-6.29a2.34,2.34,0,0,0,2.86-2.12C59.91,222,60.2,217,57,216.26A2.1,2.1,0,0,1,58.29,215.89Zm-2.52,1.79c.42.68.07,1.12-.66,1.14A8.77,8.77,0,0,0,55.77,217.68Zm53.2.88.42.88C108.94,219.26,108.88,219.06,109,218.56Z"/></g></g></g></g></g><path id="path147-0-8-1-3-6-2-4-7" d="M131.75,223.79c7.91-.17,11.46-9,5.6-15.9-.85-1-.94-1.58.62-.62,3.95,2.63,11.51.9,11.9-7.11.48-9.88-13.41-12.72-16-2.22-.14,1.11-1,1.08-.83-.49a32.46,32.46,0,0,1,3.43-12.15H127a32.63,32.63,0,0,1,3.42,12.15c.22,1.57-.69,1.6-.82.49-2.61-10.5-16.51-7.66-16,2.22.39,8,8,9.74,11.91,7.11,1.55-1,1.47-.38.62.62-5.87,6.87-2.32,15.73,5.6,15.9Z"/><path id="path147-0-8-1-0-3-83-7-5-7" d="M48.26,26.21c7.92.17,11.47,9,5.61,15.9-.85,1-.94,1.58.61.61,4-2.62,11.52-.89,11.91,7.12.48,9.88-13.42,12.72-16,2.22-.14-1.11-1-1.08-.83.49A32.63,32.63,0,0,0,53,64.7H43.55A32.46,32.46,0,0,0,47,52.55c.22-1.57-.69-1.6-.83-.49-2.61,10.5-16.5,7.66-16-2.22.39-8,8-9.74,11.9-7.12,1.56,1,1.47.39.62-.61-5.86-6.87-2.31-15.73,5.61-15.9Z"/></g></svg>