<?xml version="1.0" encoding="utf-8"?>
<!-- Generator: Adobe Illustrator 23.0.1, SVG Export Plug-In . SVG Version: 6.00 Build 0)  -->
<svg version="1.1" xmlns="http://www.w3.org/2000/svg" xmlns:xlink="http://www.w3.org/1999/xlink" x="0px" y="0px"
	 viewBox="0 0 180 250" style="enable-background:new 0 0 180 250;" xml:space="preserve">
<style type="text/css">
	.st0{fill:#FFFFFF;}
	.st1{fill:#E2CF00;}
	.st2{fill:#131F67;}
	.st3{fill:#D40000;}
	.st4{fill:#100F08;}
</style>
<g id="white-background">
	<rect class="st0" width="180" height="250"/>
</g>
<g id="Layer_1">
	<g id="g6583_1_" transform="matrix(0.99999718,0,0,1.000002,-5.9698507,-7.5442065)">
		<path id="path7499-2-5_1_" d="M19.8,47.6c-3.5,4.4-7.2,6.9-7.3,10.4c0,1.1,0.7,3,2.8,3.4c1.4,0.2,3.3-0.8,3.3-2.8
			c0-0.4,0.5-0.4,0.5,0.2c-0.1,1.6-0.6,3.4-1.6,4.9c1.5,0,3,0,4.6,0c-0.9-1.5-1.5-3.3-1.6-4.9c0-0.5,0.5-0.6,0.5-0.2
			c0,2,1.9,3,3.3,2.8c2.1-0.4,2.8-2.2,2.8-3.4C27,54.5,23.3,52,19.8,47.6L19.8,47.6z"/>
		<path id="path7503-7-0_1_" d="M172.1,217.5c-3.5-4.4-7.2-6.9-7.3-10.4c0-1.1,0.7-3,2.8-3.4c1.4-0.2,3.3,0.8,3.3,2.8
			c0,0.4,0.5,0.4,0.5-0.2c-0.1-1.6-0.6-3.4-1.6-4.9c1.5,0,3,0,4.6,0c-0.9,1.5-1.5,3.3-1.6,4.9c0,0.5,0.5,0.6,0.5,0.2
			c0-2,1.9-3,3.3-2.8c2.1,0.4,2.8,2.2,2.8,3.4C179.3,210.6,175.6,213.1,172.1,217.5L172.1,217.5z"/>
		<path id="path39-5-1-0_1_" d="M20.5,42.2h2.7l-3.9-9.8l-3,4.1l0,5.6h2.1v2.9h-7.4v-2.9h2.4v-21l-2.4,0v-2.5h7.5v2.6h-2.1l0,10.2
			l6.6-10.3h-2.3v-2.5h8v2.5h-2.1l-5.4,8.4l5.3,12.6h2.4l0,2.9h-8.3L20.5,42.2L20.5,42.2z"/>
		<path id="path39-5-7-0-0_1_" d="M171.4,222.9h-2.7l3.9,9.8l3-4.1l0-5.6h-2.1V220h7.4v2.9h-2.4v21l2.4,0v2.5h-7.5v-2.6h2.1l0-10.2
			l-6.6,10.3h2.3v2.5h-8v-2.5h2.1l5.4-8.4l-5.3-12.6h-2.4l0-2.9h8.3L171.4,222.9L171.4,222.9z"/>
		<path id="path4096-2-4-0_1_" class="st2" d="M29.8,26.7h132.2v211.7H29.8V26.7z M123.7,237c-4.9-8.9-12.7-23.4-12.9-23.5
			c-2.9,1.5-32.2,5.4-46.3,1.7c-4.8,7.2-9.6,14.4-13.8,21.6L123.7,237z M78.7,210.4c-0.7,0-1.6,0.5-1.4,0.1c0.1-0.2,0.3-2.5,0.4-3.3
			c0.2-0.4,0.5,0.6,0.5,1.5c0,0.5,0.2,0.1,1.9,0.2c1.8,0.1,3.3,0.4,3.9,0.6c2.1,0.5,6.3,0.1,8-1.2c1-0.7,1.3,0.1,0.3,0.8
			c-4.5,3.4-8,2.1-11.9,1.5C79.9,210.5,79.3,210.4,78.7,210.4L78.7,210.4z M80.6,207.2c-0.3-0.2-0.5-0.2-0.8,0c-1.4,0.6-1-0.3,0-1.2
			c0.5-0.4,0.4-0.6,0.1-1.1c-0.2-0.2-0.5-0.3-0.4-0.6c0.3-1.4,2.3-3.6,4.6-4.6c0.9-0.4,1.1,0-0.1,0.7c-1.8,1.1-2.4,2-1.4,1.6
			c2-0.7,3.9-0.2,6.4,1.1c0.7,0.4,1.1,0.4,1.7,0.4c0.5-0.4,0.9,0.1,1.2,0.3c0.2,0.1,0.2,0.2,0.4,0.2c1.5-0.3,0.6,0.6-1.4,2.1
			C87.3,208.6,83.4,209.8,80.6,207.2L80.6,207.2z M86.1,207.8c1.5-0.4,3.3-1.4,4.4-2.3c1.3-1.2,0.6-1-1-0.3
			c-2.2,1.1-3.8,1.4-6.3,1.3c-2.1,0-2-0.1-2.1,0.1C80.9,207.6,83.8,208.5,86.1,207.8z M82.1,204.3c0.1-0.4,0.2-0.9,0.1-1.1
			c-0.2-0.3-0.6-0.1-1.1,0.6c-0.3,0.4-0.3,0.5,0,0.8c0.2,0.1,0.3,0.2,0.4,0.2C81.9,205,82,204.6,82.1,204.3L82.1,204.3z M83,204.8
			c0.6-2.2,2.1-2.1,3.1-0.1l0.7,0c-1.5-4.1-4.4-2-4.5,0C82.7,204.9,83,204.8,83,204.8z M88.4,204.4c0.7-0.4,0.6-0.6-0.3-1.1
			c-0.6-0.3-0.9-0.4-1.1-0.2c0,0.4,0,1.1,0.3,1.5C87.6,204.8,88,204.6,88.4,204.4z M78.8,198.2c-0.1-0.2-0.1-0.6,0.4-0.8
			c2.9-1.3,0.8-4.2-1.5-2.1c-0.7,0.6-1.8,0.9-2.6,0.5c-0.8-0.3-0.8-1.3,0.2-1.5c0.3-0.1,1.2-0.2,1.5-0.5c3.9-2.1,6,2.5,3.2,4
			C79.5,198.2,78.9,198.4,78.8,198.2L78.8,198.2z M67.9,194.1c-1.6-0.7-1.8-3.2-0.3-4.2c0.9-0.6,1.9-0.8,4.5,0.5
			c1.8,0.9,2.9-0.1,2.9,1c0,0.6-0.1,1.3-1.1,1.4c-1.7,0.3-2.9-2.1-5.2-1.9c-1.6,0.2-1.4,2.1-0.2,2.5C69.9,193.9,69,194.5,67.9,194.1
			z M97.1,194.5c-0.3,0.1-0.4-0.5-0.3-0.8c0.8-1.9,1.5-3.4,2.2-5.1c0.6-1.4,1-2,1.2-2c0.3,0,0.4,0.2-0.1,1.1
			C99.5,189.3,97.1,194.6,97.1,194.5L97.1,194.5z M84,194c-0.7-0.5-0.6-1.2,0.2-0.7c1,0.7,2.7-0.6,2.4-1.8c-0.4-1.5-2.4-1.9-4.1-0.5
			c-2.6,2.1-5.5,2.2-5.5,0.6c0-0.5-0.1-0.6,1-0.7c1.3-0.1,2.7-0.7,3.4-1.1c3.2-2,6.6-0.6,5.9,2.7C87.1,193.9,85.2,194.7,84,194z
			 M72.2,189.2c-0.3,0-0.7,0.3-0.9,0.2c-0.3-0.2-0.2-0.8-0.4-1.4c-0.4-1.1,0-0.8,0.7-0.5c0.9,0.4,1.8,0.3,2.6,0
			c0.8-0.3,1.9-0.2,3.6,0c1.4,0.2,2.1,0.1,3.4-0.2c1.4-0.4,1-0.3,0.8,0.6c-0.1,0.5-0.3,1.3-0.5,1.5c-0.9-0.5-1.6-0.3-2.3,0
			c-1,0.4-1.7,0.5-2.6,0.3c-0.8-0.4-1.2-0.4-1.9,0C73.7,190.1,73.2,189.2,72.2,189.2L72.2,189.2z M92.4,186.9
			c0.2-0.3,0.5-0.8,0.7-1.3c2.1-4.1,2.2-5.3,0.8-6.7c-2-1.9-3.7-1.1-5.6,2.7c-0.5,0.9-0.7,1.6-0.9,1.9c-0.2,0.3-0.5,0.1-0.6-0.1
			c-0.2-0.2,1.9-4.2,2.7-5.1c2.2-2.3,6.2-0.5,5.9,2.6c-0.1,1.6-0.4,2.4-1.9,5.3c-0.4,0.7-0.7,1.3-0.8,1.6
			C92.1,188.2,92.2,187.2,92.4,186.9L92.4,186.9z M72.7,186.7c0.3-1.5,5.1-2.2,6.3-0.2c0.1,0.2,0.1,0.2-0.5,0
			c-2.4-0.8-2.9-0.8-5.2,0.2C73,186.8,72.7,186.9,72.7,186.7L72.7,186.7z M90.8,186.4c0-0.1,0.2-0.7,0.4-1.2c1.6-3.1,2-3.9,1.5-4.4
			c-0.9-1.1-2.2-0.1-3.4,3.1c-0.4,1.2-0.7,1-0.9,0.8c-0.4-0.4,1.4-4.2,2.3-4.7c2-1.2,3.5,0.2,2.6,2.7c-0.7,1.1-1.2,2.9-1.9,3.8
			C91.2,186.9,90.8,186.8,90.8,186.4L90.8,186.4z M83.7,181.4c-0.1-0.2,0.1-0.4,0.8-1.8c0.9-2,1.2-2.7,0.8-3.9
			c-0.7-2-3.2-2.5-4.8-1.2c-0.5,0.4-0.9,1-1.1,1.6c-0.6,1.2-1,2.8-1.4,3.2c-0.3,0.3-0.7,0.4-0.7-0.2c0.4-1.1,0.5-1.9,1.4-3.5
			c2.2-4.7,8.4-2.5,7,2.4c-0.5,1.8-1.2,3.2-1.5,3.6C84.1,181.8,83.7,181.6,83.7,181.4z M82.3,180.5c0-0.2,0.2-0.6,0.5-1.2
			c1.1-2.6,1.1-3.4-0.5-3.4c-0.9,0.1-1.1,0.5-1.9,2.6c-0.3,0.7-0.4,1.1-0.6,1.3c-0.2,0.2-0.5,0.1-0.6,0c-0.3-0.3,1.1-3.7,1.9-4.3
			c1.8-1.5,4,0.6,3,2.6c-0.5,1.4-0.9,2.3-1.2,2.7C82.6,181,82.2,181,82.3,180.5L82.3,180.5z M44.9,150.1l-5.3-0.4
			c0.9,5.7,1,11.9,0,16.4c-0.8,3.8-0.8,6.6-0.6,9.9c0.3,3.8,1.9,7.1,2.3,11.1c0.3,2.9-0.4,6-0.9,8.9c-1,4.9-0.8,5.4-0.6,11.1
			c0.1,5.3-0.4,5.1-0.7,4.8c0,0-0.1-1-0.1-2.1c0-1.1-0.1-3.9-0.1-5.8c-0.1-3.8,0.3-7.1,0.6-8.5c0.6-2.8,1.3-5.7,0.9-8.8
			c-0.9-3.9-2.1-7.8-2.5-11.6c-0.5-4.7,0.8-9.3,1.2-12.7c0.4-3.3,0-8.9-0.9-11.3c-0.1-0.8-0.8-1.8-0.8-1.8c-0.8-0.1-1.6-0.2-2.7-0.2
			c-0.1,22.5,0,44.9,0,67.4l5,4.6l5.1-4.8L44.9,150.1z M45.3,175.9c0,0,7.6,4.4,15.9,8.6c-0.8-4.9,1.7-5.6,4.1-6.2
			c-0.6-9.5,8.1-7.5,9.4,0.7l0.9,0c1.5-4.1,3-6.9,6.4-7.6c2.7-0.5,5.3,1.2,5.9,5.1c-0.1-0.3,8.8-5.2,9,5.2c4.1-2.5,6.9-0.3,8.1,2.8
			c1.7-2.6,6-2.7,7.4-2.9c0.5-0.5,1.3-0.9,2.8-0.9c1.3-0.1,3.1-1,4,0.1c1.4,0.2,2.4,0,3.6,0.9c0.9,0.7,2,2.3,3.5,1.2
			c3-1.4,6.3-2.1,9-3.8c0,0-0.7-0.9-0.5-0.8c0.1,0,0.4,0.5,0.9,0.7c0.2,0.1,1.8-0.9,1.8-0.9c-11.1-12.7-20.2-37.6-14.2-60.6
			c0.2-0.4-0.5-0.5-0.8-0.7c0.1-0.2,1.7,0.1,1,1.5c-0.7,4.4-1.5,9.2-1.7,12.8c0,0.4,0,0.8,0,0.8c24.8,11.4,21.8,36.2,15.4,44.8
			l1,1.3c0.4,0.3,19.5-10.8,18.9-11.3l3.6-1.8l-0.6-48.6l-14.3-1.1c0,0,0.2-0.4,0.3-0.5c0.1-3-0.1-7.4,0-11
			c0.1-10.5,0.2-14.1,0-14.4c-4.4-2.9-11-7.1-16.5-9.2c0.2,0.1-0.1,4.3-0.3,4.6c-5.2,1.6-2.8,3.8-4.7,6c-1.3,1.4-4.3,1.7-5.7,0
			c-1.7-1.7-2.5-5.5-2.5-5.5c-2.7,2.9-2.2,6.5-5.8,7.8c-5.9,2.9-7.8-5.8-7.4-5.6c-2.3,2.2-8.6,3.9-9.3-5.2c-2.8,2.6-6,1.3-7.4-1.9
			c-1.7,0.1-3.7,1.4-5.4,2.2c-1.6,0.7-3.7,1.1-5.3,1.1c-1.9,0.2-3.5,0.2-5.3-0.3c-0.8,0.3-2.7-0.5-3.2-1.7c-0.9-1-1.6-1.1-2.5-0.9
			c-2.8,1.5-5.9,1.8-9.2,3.4c-0.2,0.1,0.3,0.4,0.1,0.4c-0.1,0-1.8,0.8-1.8,0.8c16.9,22.2,17.8,44.7,14.3,60.6
			c-0.1,0.6-0.2,1,0.2,1.4c-0.5-0.1-0.5,0.1-0.6-0.3l1.8-13.3c0.1-1.6,0.3-1.5-1.2-2.1c-1.3-0.6-2.6-1.1-3.6-1.8
			c-4.1-3.1-8.8-6.8-11.1-11.5c-6.5-10.1-4.3-22.1,0.5-31.6l-1.2-1.3c-14.2,7.1-22.6,14.8-22.6,14.8l0.1,47.7l14.6,1.7L45.3,175.9z
			 M38.2,144c-0.5-0.5-1.7-0.6-2.2-0.2c-0.1,0.1-0.4,0.6-0.4,0.6c-0.7-0.2-1.1-0.3-1.2-0.9l0.7-1.1c0.6-0.8,1.4-1.1,2.7-1.4
			c0.5-0.1,1.2-0.2,1.5-0.3c1-0.4,1.4-1.4,0.3-1c-0.7,0.2-1.8,0.1-1.9-0.5c-0.1-0.6-0.6-0.8-1.1-0.7c-1,0.2-1.9,0.8-2.8,1.3
			c-0.4,0.2-1.1,0.8-1.1,0.8c-0.1,0.2-0.5-1.1-0.1-1.5c0.5,0.1,0.9,0.1,1.4-0.1c1.2-0.5,2.4-1.1,3.6-1.5c0.8-0.3,0.8-0.3,0.6-0.8
			c-0.1-0.2-0.2-0.9-0.1-1.2c0.1-0.4,0.1-0.6-0.1-0.7c-0.5-0.4-1.9,0-3.7,0.9c-0.6,0.3-0.9,0.4-1.3,0.7c0.2-0.6,0.1-0.7,0.1-1.3
			c0.8,0.1,1.4-0.2,2-0.5c0.5-0.3,1.1-0.5,2.4-0.7c0.4,0,0.2-1.4-0.2-1.8c-0.4-0.4-1.2-0.4-2.3-0.1c-0.9,0.2-2,0.4-2.7,1.4
			c-0.8,0.7,0-1.2,1.5-2c0.6,0,2-0.3,2.4-0.4c0.6-0.1,0.6-1.4-0.2-2c-0.5-0.4,1.8-0.5,1.8-0.3c0,0.1-0.1,0.6,0.1,0.8
			c1,0.3,1,1.1,1.1,1.5c1.2,1.9,1.7,0.7,2.5,0.1c-0.2,4.1,1.3,4.6,1.5,4.9c-2,3.7-0.5,3.8,1.4,4.7c0,0-0.7,0.3-1.2,0.3
			c-0.7,0-2.2,0.8-2.8,1.4c-0.3,0.3-0.4,0-1.7,0c-1.3,0-1.4,0.1-2,0.3c-1.2,0.5-1.2,1,0,0.8c1.2-0.2,2.4,0.5,2.5,1.5
			c0.1,0.2,0,0.5,0,0.5c-0.3,0-0.8,0-0.8-0.1C38.5,144.8,38.5,144.3,38.2,144L38.2,144z M40,139c0.3-0.2,0.4-0.8,0.1-1
			c-0.3-0.2-1.4-0.1-1.7,0.2C37.7,138.7,39,139.6,40,139z M40.7,136.5c0.4-0.3,0.5-1.1,0.1-1.5c-0.6-0.7-2.2-0.3-2.2,0.6
			C38.5,136.6,39.9,137.2,40.7,136.5L40.7,136.5z M40.2,133.1c0.1-0.8-0.7-1.3-1.5-1c-0.9,0.5-0.4,1.5,0.8,1.5
			C40.2,133.6,40.2,133.6,40.2,133.1z M37.5,129.7c-0.4,0.2-0.5,0.7,0,1.1C39.1,131.7,38.6,129.3,37.5,129.7z M152.4,134.7
			c-0.7-2.7-2.7,0-2.7,0c-0.1-2.7,0.4-3.9-1.6-4.9c2.1-3.1,1.6-3.5-0.6-4.7c0.2,0,2.9-0.6,3.3-2.1c0.1,0.1,4.2,1.1,4.7-1.2
			c-1.2,0.6-3.7,0.7-3.7-1.8c0.2-0.1,0.8,0.1,0.8,0.1c-0.3,1.5,2.5,1.9,3,0.7c0,0,0.9,0.6,1.4,0.7c0,0-1.3,1.9-2.5,2.2
			c-2.2,0.7-2.9,0.9-2.9,1.4c0,0.2,0.4,0.2,1,0.3c1.4,0.1,1.3,0.4,1.5,0.8c0.2,0.4,0.3,0.5,0.8,0.4c1.6-0.5,2.3-0.8,3.4-1.9
			c0.1,0,0.3,1.1,0.4,1.2c0-0.2-1.1,0.1-2.8,1.1c-1.4,0.8-1.9,0.9-2.1,1.2c-0.1,0.2,0.2,0.7,0.2,1.2c0,0.5-0.3,0.7-0.1,0.8
			c0.3,0.2,0.7,0.1,1.2,0c1.2-0.3,2.1-0.8,3.2-1.4c-0.2,0.4,0.2,1.5,0.2,1.5s-0.5-0.4-1-0.2c-0.8,0.4-2.2,0.9-2.6,1
			c-0.4,0.1-0.5,0.1-0.7,0.2c-0.2,0.1-0.1,0.5-0.1,1c0,0.4-0.1,0.7,0.1,0.8c0.5,0.2,1.5,0.1,2.6-0.3c0.4-0.2,1.4-0.7,1.4-0.7
			l-0.3,1.5c-0.4-0.4-1.5-0.1-2.3,0.2c-0.4,0.1-0.5,0.4-0.6,0.7c-0.2,0.6,0.2,1,0.6,1.1c0.3,0.1,0.7,0.1,0.7,0.1
			c-2,0.7-1.6,1-2.7,0.5C153,135.9,152.6,135.4,152.4,134.7L152.4,134.7z M154.4,134.7c-0.3-0.4-0.9-0.6-1.2-0.4
			c-0.3,0.2-0.2,0.5-0.1,0.7C153.4,135.7,155.1,135.4,154.4,134.7z M153.3,132.8c0.5-0.6,0-1.4-0.9-1.4c-0.6,0-0.9,0.4-0.9,0.8
			C151.5,133.1,152.9,133.3,153.3,132.8z M152.3,130.5c0.9-0.2,1.1-1.1,0.5-1.7c-0.4-0.4-1.7-0.5-2.1-0.1
			C149.9,129.7,150.9,130.9,152.3,130.5L152.3,130.5z M153,127.5c0.5-0.3,0.6-0.7,0.2-1.2c-0.8-0.7-2.2-0.2-1.8,0.8
			C151.7,127.6,152.4,127.8,153,127.5L153,127.5z M50.5,104.6c0.8-0.3,1.3-0.9,2.1-1.3c0.5-0.3,0.4-0.2-0.3-0.6
			c-0.5-0.2-1.6-1.3-1.7-1.1C50.3,102,50.4,104.5,50.5,104.6z M69.5,131.2c0-0.5,0.1-1.3,0.1-1.9c0.1-1.1-0.1-0.8-0.7-0.4
			c-0.4,0.3-1.1,0.7-1.4,0.8c-1.1,0.5-1,0.6,0.6,1.3C69.4,131.6,69.5,131.5,69.5,131.2L69.5,131.2z M68.1,128.6c1-0.7,1.4-1,1.4-1.7
			c0-0.8-0.1-1.1-0.8-0.6c-2.5,2-5.1-1.9-2.8-4.1c0.5-0.4,1.1-1.1,1.1-1.3c0-1.3-1.4,0-2.5,1.7c-1.3,1.6-2.1,3.5-1,5.4
			C64.3,129.4,66.3,129.7,68.1,128.6L68.1,128.6z M62.3,126.1c0-0.6,0.1-1.3,0.2-1.5c0.3-0.7,0.3-0.8-1-0.2
			c-0.5,0.2-1.1,0.3-1.4,0.3c-1.1,0-0.8,0.3,0.7,1.6C62.4,127.5,62.4,127.6,62.3,126.1L62.3,126.1z M65.9,120
			c0.2-0.4-0.2-0.5-0.5-0.5c0,0-0.6,0.4-1.2,0.9c-2,1.5-3.4,1.7-4.4,0.5c-1-1.2-0.6-2.6,1.6-4.2c1-0.7,1.2-0.8,0.7-1.1
			c-0.4-0.2-0.4-0.2-1.8,0.7c-2.8,1.9-3.7,3.2-3.4,5.1c0.1,0.8,0.5,1.2,0.9,1.5C60.6,125.5,64.3,122.2,65.9,120z M68.7,121.2
			l-0.2-2.6c-2.9-2.5-5.6-6.7-6.5-10.2c-1-3.1-0.2-9.6,0-9.1l-1.5-2.9c-1.3,3.1-1.9,7.8-0.5,12.7C61.2,113.1,63.7,118.1,68.7,121.2
			L68.7,121.2z M56.7,119.6c0.9-1.7,0.9-1.6-0.8-1.6c-2,0-1.8-0.3-0.7,1.5C56.1,120.9,56,121,56.7,119.6z M57.9,117.2
			c1.2-0.4,0.9-0.3,2.4-1.3c1.8-1.1,1.8-1.8,0.1-0.9c-2.3,1.1-4.3,0.8-5-0.6c-0.7-1.3,0.7-3,3-3.6c0.8-0.2,1.2-0.4,1.2-0.7
			c0-1-3.9,0.3-5.4,1.9C51,115,53.7,118.6,57.9,117.2L57.9,117.2z M52.9,112.5c0.1-0.2,0.4-0.5,0.6-0.9c1.1-1.3,0.2-0.9-0.8-1.2
			c-0.5-0.2-1-0.4-1.3-0.3c-0.6,0.1,0.2,1.2,0.4,1.9C52.3,113.6,52.3,113.5,52.9,112.5z M57,109.7c1.9-0.2,2.1-0.4,2.1-0.8
			c0-0.4-0.2-0.3-1.2-0.2c-2.6,0.4-4.3-0.3-4.7-1.7c-0.4-1.4,1.4-2.8,3.7-2.7c1.3,0,2.1-0.4,1.3-0.8c-0.4-0.2-3.9-0.2-4.7,0.1
			c-2.3,0.7-3.3,2-3,3.7c0.3,2.2,1.5,2.8,4.4,2.7C55.6,110,56.3,109.7,57,109.7z M58.5,102.5c0-0.3-0.6-0.4-2.4-0.7
			c-2.4-0.4-3.5-2.6-2.1-4c0.6-0.5,1.9-0.7,2.6-0.6c1.6,0.3,2.6,0.6,2.6,0.1c0-0.5-0.5-0.5-3.5-1.2c-4.6-1-7.1,3.5-3.4,5.7
			C53.8,102.7,58.5,103.2,58.5,102.5z M59.7,96.1c0-0.2-0.1-0.3-0.5-0.4c-0.5-0.2-0.8-0.2-2-1c-1.5-1-2-3-1-4.1c1-1-0.8-2.2-2.2-1.1
			c-1.5,1.2-1.3,3.1,0.3,4.6C55.9,95.5,59.7,96.9,59.7,96.1z M52.3,95.8c1.6-0.7,2.7-0.3,1.5-1.3c-0.7-0.6-1.3-2.4-1.7-0.9
			c-0.4,0.9-0.6,2.5-0.6,2.7C51.5,96.4,51.5,96.2,52.3,95.8z M108.4,92c-1.8-0.4-3-2.5-2.6-4.6c0.3-1.1,1.3-3.8,1.5-4
			c0.8-0.6,0.7,0.2,0,1.7c-0.7,1.5-1.2,2.7-1,3.6c0.3,1.3,0.8,2.2,2.1,2.5c0.9,0.2,1.8-0.2,2.4-0.6c0.8-0.6,1.5-2,2.4-3.9
			c0.3-0.5,0.7-2.2,1.1-1.2c0.2,0.5-1.7,4.1-2.4,5C111.2,91.6,109.7,92.3,108.4,92z M119.3,90.8c0.9,0.8,2.4,1.3,3.3,1
			c2.4-0.8,3.5-3.1,2.6-6.7c-0.5-2-0.8-3.3-1.2-3.5c-0.2-0.1-0.4,0.1-0.6,0.4c-0.2,0.3,0.1,0.6,0.4,1.6c1.1,4,0.8,5.8-0.5,6.6
			c-2,1.1-3.7-0.2-4.3-3c-0.1-0.4-0.4-1.3-0.4-1.3c-0.2-0.4-1.4-0.3-1,1C117.7,87.7,118.7,90.2,119.3,90.8z M129.6,80.2
			c0-1.4-3-7.6-3.2-6.9c0,0,0,1.4,0.1,2c0,0.2,0.2,0.4,0.3,0.6c2.6,4.6,2.2,7.9-0.1,8.6c-0.8,0.3-0.9,0.7-0.6,1
			c0.7,0.8,2.4-0.7,2.8-1.3C129.8,83.1,129.7,80.9,129.6,80.2z M86.2,79.2c1-1.1,3.1-4.8,3.8-6.8c2-5.9,4.2-12.6,4.8-18.9
			c0.1-0.8,0.1-2,0.1-2.1c-0.2-0.2-1.2-0.1-1.5,0.1c-0.2,0.2-0.1,0.7-0.1,1.3c-0.9,7-2.6,13.4-5.1,19.9c-1.1,2.8-2.1,4.7-3.4,6.6
			c-0.2,0.3-0.5,0.7-0.6,0.9c-0.3,0.5-0.1,0.8,0.3,0.6C85.1,80.5,85.7,79.7,86.2,79.2L86.2,79.2z M82.9,80.9c3.1-4.3,5.3-9.4,7-15.5
			c1.1-3.9,2-7.9,2.6-11.9c0.1-0.9,0.2-1.4,0-1.7c-0.4-0.1-1.2,0-1.5,0.2c-0.2,0.3-0.1,0.8-0.2,1.9c-0.4,3-1,6-2,10
			c-2.7,8.8-5.1,13.7-8.3,18c-0.3,0.4-0.5,0.6-0.5,0.7c0,0.2,0.3,0.2,0.9-0.1C81.7,81.9,82.4,81.5,82.9,80.9L82.9,80.9z M78.1,83.2
			c1.5-0.9,4.2-4.6,6.1-8.7c2.1-4.8,3.9-10.2,5.1-14.9c0.5-2,1.2-7.2,1.1-7.5c-0.1-0.4-1.6-0.1-1.4,0.2c0,0-1.5,8.2-3.1,12.8
			c-3,8.4-5.5,14.1-8.3,16.9c-0.4,0.4-1.1,1.1-1.1,1.1s0,0.3,0.2,0.4C77.4,83.5,77.8,83.4,78.1,83.2L78.1,83.2z M75.8,82.8
			c3.4-1.9,7.5-10.9,10.7-22.2c0.6-1.9,1.6-8.4,1.6-8.4s-1.4,0.1-1.6,0.3c-0.3,0.4-0.2,1.4-0.6,3.7c-1.5,7.1-3.7,13.6-7.1,20.1
			c-1.4,2.8-3.9,5.5-5.4,6.3c-0.8,0.4-1.1,0.9-0.5,0.9c1,0,1.1,0.3,1.9-0.2L75.8,82.8z M122.9,183.2c-2.6,0-4.8,2.5-6.7,5.6
			c-4.1,6.4-6.9,17-7.6,22.7l1.6-0.3c-0.2,0.1,2.9-15.1,7.7-21.6c2.6-4.1,2.5-4.2,4-4.5c1.8-0.5,3.3,1.5,2.4,2.7
			c-0.3,0.4-0.7,0.1-0.6-0.5c0.3-1.9-2.4-2.2-3.1-0.4c-0.9,2.1,1.4,4,3.7,3.1c2-0.7,2.9-3.5,1.4-5.6
			C124.9,183.8,123.9,183.2,122.9,183.2z M109.3,183c-3.1,3.9-4.6,7.9-6.5,13.3c-1.9,5.4-3.3,10.8-3.8,16.9l1.7-0.2
			c-0.1-3.9,4.2-22.6,10.3-29.6c0.3-0.4,0.6-0.8,0.6-0.9C111.2,181.5,109.7,182.6,109.3,183z M116.2,181.5c-4,3.3-7.2,10.4-9.3,17.1
			c-2.3,7.2-3.3,13.7-3.1,13.7l1.6-0.2c-0.1-0.4,4.5-25.6,13-30.2c0.7-0.4,0.9-0.7,0.3-0.9C117.6,180.8,116.8,181.1,116.2,181.5z
			 M120.6,181.6c-8.7,1.2-14.4,28-14.6,30.2c0,0,0,0.2,0,0.2l1.7-0.4c0,0,0-0.1,0-0.1c1.2-6.9,2.4-11.7,5.1-17.8
			c2.1-4.6,5-10.5,9.4-11c0.4,0,0.7,0.1,0.6-0.3C122.5,181.6,121.2,181.5,120.6,181.6L120.6,181.6z M68.6,173.1
			c-3.2,0.8-3.3,4.6-1.2,9.4c0.2,0.4,0.1,0.6,0.3,0.7c0.4,0.3,0.6-0.1,0.7-0.4c0.1-0.4-0.1-1-0.5-1.9c-1.3-3.4-1-5.3,0.3-6.1
			c3.3-1.7,4.2,1.8,4.7,3.4c0.1,0.4,0.2,0.9,0.4,1c0.7,0.1,1-0.1,1-0.1c0,0-0.9-3-1.4-4.1C72,173.1,70,172.7,68.6,173.1L68.6,173.1z
			 M45.7,176.7l0,39.9l-6,5.7c-2.6-2.2-6-5.7-6-5.7l0.1-67.5l-1.9-0.2c-0.5,29,0,58.6,0,87.6h17.7l14.8-23.2c0,0,0.2-0.3,0.2-0.4
			c0.2-0.4,0.2-1.1,0.1-3.6c0-1,0.1-1.8-0.1-2c-0.1-0.2-0.5-0.1-0.8,0.1c-0.3,0.1-0.5,0.1-0.3-0.3c0.1-0.2,0.4-0.6,0.6-1.1
			c0.8-1.4,1-1.8,0.8-3.3c-0.1-0.4-0.4-0.7-0.7-1.1c-2.5-3.7-3.5-9.1-2.3-13.1c0.4-1.8,0.3-2.1-0.6-3.5L45.7,176.7z M123.9,133.8
			c-1.6-0.8-1.6-0.8-1.6,0.8c0,1.2,0,1.5,0.5,1.3c0.6-0.3,1.4-0.6,2-0.9C125.9,134.6,124.5,134.1,123.9,133.8z M130.3,137.9
			c-1.3-1-0.8-0.9-1.2,1.4c-0.2,1.4-0.5,1.4,0.9,1c0.8-0.3,2.5-0.1,1.7-1C131.8,139.2,130.6,138.1,130.3,137.9z M79.7,172.8
			c-1.9,1.2-3.9,6.9-3.9,6.9c-6.8,0.8-9.6,7.5-9.9,13c-0.2,4.4-0.5,9.5-0.1,10c4.4-2,6.1,0.3,6.6-0.3c0.2-0.3-1-1.2-2.5-2
			c-0.3-0.2-0.9-0.5-1.1-0.7c-0.5-0.4,1.1-0.1,2.1,0.6c1.3,0.9,1.5,0.7,1-1.9c-0.6-2.8-0.7-3.2,1.4-4.3c0.9-0.4,1.4-0.8,2-1.5
			c0.5-0.6,0.6-0.7,0.4,0.1c-0.3,1.4-1.6,2-2.7,2.6c-0.6,0.3-0.8,0.9-0.8,1.4c0,0.5,0.6,3.3,0.9,4.1c0.3,0.8,0.3,1.7,0.5,2.5
			c0.5,2.2,0.5,2.6,0.3,4.2c-0.2,0.9-0.2,1.5-0.2,2c0,0.5,0.1,1.2,0.1,1.2c0,0-1.2-1.2-3.9-0.2c-1.9,0.8-3.4,0-4.5-0.6
			c-0.2,0.9-0.2,1.8-0.2,2.8c11,2,20.4,1.7,28.3,0.9c0.2-2.3,1.2-9.8,3.3-16.5c0.9-2.8,1.9-5.7,3-7.7c0.8-1.3,1.5-2.2,1.8-2.4
			c0.1-0.1,0.1-0.1,0.1-0.1v-0.2c0-0.4-0.1-1.1-0.5-1.4c-0.9-0.7-2.4,0.2-2.8,1.8c-0.4,1-2.3,5.2-2.5,5.1c-0.1-0.1-0.4-0.1-0.3-0.4
			c0.7-1.7,1.7-3.5,2.3-5.1c0.8-2.2,2.5-3.4,3.8-2c0.4,0.5,0.6,0.9,0.8,1.1c0.2,0.1,0.4,0,0.5-0.2c0.5-0.7-0.6-2.4-1.8-2.7
			c-1.7-0.5-3,0.8-5,4.9c-1.1,2.4-1.3,3-1.5,2.8c0,0-0.3,0-0.2-0.4c0.2-1,1.7-3.8,2.8-5.6c1.6-2.7,4.6-2.9,5.8-0.6
			c0.2,0.3,0.2,0.7,0.4,1c0.4,0.5,1,0.4,1.2-0.4c-0.2-0.5-1.2-2.5-1.9-2.8c-1.7-1.2-3.7-0.9-5.4,0.6c-0.4,0.3-0.8,1.1-1.9,3.4
			c-1.7,3.7-1.7,3.7-2.2,3.1c0.7-1.8,2.4-4.7,3.2-6.5c0.1-0.3,0.2-0.6,0.2-0.8c0-1.3,0.2-3.6-2.6-5.3c-2.4-1.3-5.5,0.1-6.5,2.6
			c-0.8,1.9-1.4,3.2-1.8,3.5c-0.6,0.4-0.5-0.2-0.4-0.3c0.8-1.7,2-3.5,2.1-5.2C87.6,172.1,82.8,170.4,79.7,172.8L79.7,172.8z
			 M55,84.3c3.7-1.7,6.3-2.6,10.1-3.7c0.5-0.2,0.6-0.3,0.1-1.4c-2.4-4.8,4.2-8.6,6.4-3.9c0.3,0.6,0.4,1,0.7,0.7
			c0.6-0.7,1.2-1.8,1.9-2.9c2.5-3.9,3.7-8.4,5-12.3c0.6-2.3,1.3-4.7,1.6-7.2c-5-8.7-13.8-24.8-13.8-24.8H31.7v70.1
			C41.5,90.6,48.2,87.7,55,84.3L55,84.3z M94.5,81.8c0.4-0.5,0.8-1.2,2.3-4.3c0.3-0.6,0.7-1.4,0.9-1.8c0.2-0.7,1.1-1.2,0.7,0.1
			c-0.1,0.3-0.3,0.7-0.5,1.2c-0.5,0.9-1,2-1.3,2.8c-1.9,3.9-1.9,6.2,0.3,7.9c1.6,1.6,5,1.7,6.9-0.8c0.3-0.4,0.5-0.9,0.6-1.1
			c0.8-1.9,1.4-2.9,1.5-3.1c0.8-1,0.9,0.2-0.3,2.2c-1.4,2.2-1.4,4.7-0.2,6.4c1.8,2.5,5.1,2.6,7.3,0.6l0,0c1.1-1.3,2-2.9,2.7-5
			c0.2-0.5,0.3-0.8,0.4-1.1c0.2-0.4,0.4-0.6,1.1-0.7c4.5-0.9,8.3-5.5,8.8-10.6c0.1-0.7,0.3-1.9,0.3-2.6c0.1-1.4,0.1-8.9,0-9.3
			c-0.1-0.2-0.2-0.4-0.5-0.4c-0.2,0-0.5,0.1-1,0.2c-1.5,0.5-2.2,0.7-3.6,0.2c-0.5-0.2-0.8-0.2-1-0.2c-0.6,0.1,0.2,1,2,2
			c0.8,0.4,1.4,1,0.8,1c-0.2,0-2.4-1.2-2.7-1.3c-1-0.6-0.7,0.2-0.2,2.2c0.7,2.8,0.3,3.5-1.9,4.6c-0.4,0.2-0.9,0.6-1.2,0.9
			c-1.1,1.7-0.9,0.4-0.3-0.5c1-1,0.4-1.4-1.6-0.7c-2.3,0.8-3.4,0.2-4-1.1c-0.7-1.5,0.6-3.3,1.8-3.3c0.4,0,0.3,0.1-0.2,0.5
			c-0.7,0.5-1,0.9-1,1.7c-0.1,1.6,1,2.2,2.6,1.2c0.7-0.5,1.3-0.8,1.9-1c0.6-0.1,1.4,0.1,1.4,0.5c0,0.2,0,0.6,0,0.7
			c0.1,0.5,0.9-0.2,1.3-0.5c1.2-0.9,1.1-1.1,0.8-2.5c-0.5-2-0.8-3.9-1.3-5.9c-0.3-1.1-0.3-2.3-0.2-3.4c0.1-0.5,0.3-1.7,0.3-2.4
			c0-0.8,0-1.9,0-1.9c1.2,0.9,1.7,1.1,2.8,0.6c1.8-0.7,2.9-0.7,4.4,0.1c0.6,0.3,1.1,0.5,1.1,0.5l0.1-2.3c0,0-1.4-0.3-3.9-0.6
			c-7.7-1-23.5-1.2-24.1-0.3c-0.1,0.2-0.3,1.9-0.7,4.2c-0.9,4.8-2,9.5-3.4,14.2c-0.3,1-0.6,1.3-0.4,1.4c0.1,0,0.3-0.4,0.5-0.5
			c0.8-0.9,0.2,1.2-1,3.7c-0.1,0.2-0.2,0.5-0.2,0.5c0,0.2-0.7,1.9-1.2,2.9c-0.3,0.7-0.6,0.8-0.6,0.4c0.3-1.4,1.3-3.3,1.4-4.6
			c-0.8,1.2-2,3.1-2.8,4.2c-0.2,0.3,0,0.4,0.2,0.8c0.5,1.4,1.8,1.5,2.5,0.3c0.4-0.7,1.7-3.4,2.1-4.6c0.5-1.2,0.8-1.8,0.9-1.9
			c0.3-0.2,0.4,0.5-0.2,1.7c-1.6,3.5-2.4,5.4-3.2,6.1c-0.6,0.6-1.7,0.5-2.3-0.5c-1-1.7-1.9-1.1-1,0.6c1,1.8,3.2,1.9,4.3,0.3
			c0.4-0.5,2.2-4,2.7-5.4c0.3-0.8,0.7-1.4,0.8-1.4c0.6-0.2-0.1,1.5-1.8,5.1c-0.6,1.4-1.5,2.8-2.7,3.3c-3,0.7-3.4-0.9-4.4-2.7
			c-0.5-0.4-1,0.3-0.8,1.1c0.3,1.3,0.9,1.8,1.8,2.4C90.9,83.9,93.5,83.1,94.5,81.8L94.5,81.8z M107.7,89.2c-0.3-0.6-0.2-1.2-0.1-1.8
			c0.3-1.3,0.8-2.5,1.4-3.6c1-0.5,0.2,1.4,0.1,1.6c-1.2,2.5-1.3,3.4-0.2,3.7c0.9,0.2,1.4-0.3,2.3-2.5c0.5-1.1,0.6-1.6,0.8-1.7
			c0.3-0.1,0.5,0,0.5,0.3c-0.6,1.4-1,3-2,4.2C109.6,90.3,108.2,90.3,107.7,89.2z M98.9,87.3c-0.4-0.1-1.1-0.6-1.6-1.1
			c-1.7-1.5-1.4-3.6,0.7-7.6c0.2-0.3,0.8-1.5,0.9-1.9c0.3-0.7,0.7-0.4,0.7,0c0,0.1-0.5,1.2-1,2.2c-2.3,4.4-2.2,6.3,0,7.3
			c2.2,1,3.1,0.4,4.8-3c1-2.5,1.5-2.6,1.4-1.6c0,0.4-1.2,2.8-2,3.9C101.7,87.4,100.8,87.7,98.9,87.3z M99.1,85.2
			c-0.8-0.5-1.2-1.8-0.7-2.9c0.5-0.9,1.6-4.3,2.2-4.4c0.9,0,0.4,0.7-0.7,2.8c-1.3,2.7-1.2,3.5-0.2,3.9c0.9,0.4,1.4-0.4,2.7-3.6
			c0.2-0.5,0.5-1,0.7-0.9c0.2,0,0.6,0.1-0.1,1.6c-0.2,0.3-0.5,1.1-0.8,1.8C101.2,85.3,100.1,85.8,99.1,85.2L99.1,85.2z M114.3,79.3
			c-0.4-0.2-2.1-0.9-1.9-1.4c0-0.1,0.1,0,0.2,0c1.6,1.1,3.6,1.3,5.6-0.1c0.3-0.3,0.6-0.1,0.4,0.3C118.1,79.3,115.3,79.8,114.3,79.3z
			 M109.2,77.5c0-0.1,0.2-0.5,0.3-1c0.2-0.7,0.1-1.2,0.3-1.2c0.7,0.4,2,0.4,2.6,0c0.7-0.4,2.1-0.6,2.6-0.2c0.7,0.5,1.1,0.3,1.6-0.1
			c0.6-0.5,0.6-0.3,1.6,0.1c0.8,0.3,1.1,0.5,1.4,0.4c0.1,0,0.4-0.3,0.5-0.3c0.3,0,0.3,0.8,0.5,1.6c0.2,0.7,0.1,0.9-0.6,0.5
			c-0.5-0.3-1.9-0.5-3.3,0c-1.1,0.3-1.3,0.2-2.1,0.1c-1.9-0.3-3.3-0.6-4.8,0.3C109.2,78.1,108.9,78.3,109.2,77.5L109.2,77.5z
			 M104.3,74c-0.9-1.9,1.2-4.4,3.1-3.5c0.6,0.3,1.2,1.4,0.3,0.9c-4.3-0.9-3.2,5.5,1.4,2.1c3.1-2.1,5.3-2.4,5.5-0.4
			c-0.1,0.7-0.7,0.6-1.2,0.7c-1.3,0.2-1.8,0.4-3.2,1C107.9,75.5,105.7,76.1,104.3,74L104.3,74z M121.3,74.9c-1.1-0.3-2-0.7-3.1-0.9
			c-1.1-0.2-1.6-0.8-1.4-1.5c0.2-0.8,1.3-0.9,2.9,0.1c1.8,1.1,3.1,1.4,3.8,1c1.3-0.9,0.6-2.2-0.7-2.6c-1-0.3-0.3-0.6,0.8-0.3
			c1.7,0.6,1.7,3.7,0,4.3C123.1,75.1,122.1,75,121.3,74.9L121.3,74.9z M106.5,64.8c1.2-0.8,2.4-1.4,2.8-1.9c0.2-0.2,0.8-1,0.4-0.8
			c-2.5,1.5-5.4,0.3-7.5-0.8c-1-0.5-0.8-0.3-1.5-0.2c-0.5,0-1,0.1-1-0.2c0-0.2-0.3-0.1-0.5-0.1c-0.8-0.1-0.3-1.1,1.3-2.3
			c1.9-1.3,3.6-2.2,5.3-2.6c1.7-0.4,3.5-0.2,4.8,1.1c0.5,0.5,0.5,0.8,0.9,0.5c1-0.7,1.1,0.2,0.2,1c-0.6,0.6-0.4,0.7,0.4,1.3
			c0.4,0.3,0.1,0.5-0.1,0.9c-0.1,0.2,0,0.5-0.1,0.7c-0.2,0.8-3.8,3.7-5.2,4.2C105.7,65.7,106.2,65,106.5,64.8L106.5,64.8z
			 M109.1,59.6l-0.6,0c-0.7,2.1-2,2.9-3,0.3l-0.5,0C104.9,62.1,108.6,63.4,109.1,59.6z M105.1,61.6c-0.3-0.4-0.5-1.4-0.8-1.4
			c-0.7,0-1.7,0.1-1.5,0.5C103.2,61.4,105.4,62,105.1,61.6z M110,61.2c0.7-0.4,0.8-0.7,0.4-1.1c-0.6-0.6-0.8-0.3-1,0.6
			C109.2,61.5,109.3,61.6,110,61.2z M101,59.7c4.4-2,6.1-2.3,7.9-1.8c0.4,0.1,0.8,0.3,1,0.3c0.9-0.1,0.3-1-1.2-1.6
			c-1.8-0.6-2.9-0.3-6.3,1.4C100.5,59.1,98.8,60.7,101,59.7L101,59.7z M113.9,57.2c-0.1-0.1-0.3-0.9-0.4-1.2
			c-0.1-0.3-0.1-0.6-0.2-0.6c-2.1,0.3-3.9-0.1-4.3-0.2c-3.1-0.7-6.1-0.6-8.3,0.3c-0.5,0.2-1.2,0.6-1.3,0.6c-0.2,0.2-0.4,0-0.4-0.2
			c0-0.2,1.4-1.3,2.2-1.8c2.6-1.3,5.4-1.5,8.5-0.7c2,0.8,3.3,0.6,4.5,0.1c0.6-0.3,0.2,0.4,0,1.3c-0.1,0.6,0,1.2,0,1.5
			C114.2,57.2,114.1,57.6,113.9,57.2L113.9,57.2z M160.1,236.6v-70.2c-17.6,12.2-25.4,14.6-33.7,17.6c2.8,5.7-3.3,10.5-6.8,4.8
			c-3.6,4.1-8.6,18.3-8.8,23c0,0,9.6,16.6,14.3,24.9L160.1,236.6z M96,213.5c0.3-3.5,1.1-9.5,3.4-16.5c1-2.9,2.2-6.3,3.9-9.3
			c0.7-1.1,0.7-1.5,0-1.1c-0.4,0.2-2.5,2.6-2.8,3.1c-3.1,6.7-4.6,14.7-5.8,20.8c-0.3,1.4-0.3,3.1-0.3,3.1L96,213.5z M98.3,213.3
			c0.7-8.6,3.9-20.2,8.6-27.7c0.4-0.7,1-1.3,1-1.6c-0.1-0.7-1.9,0.5-3.3,2.7c-1.6,3.1-3.2,6.5-4.4,10.2c-1.7,5.2-3,10.1-3.4,16.6
			L98.3,213.3z M102.8,212.5c0.5-4.9,2-9.5,3.3-14c1.6-5.6,3.7-9.7,6.1-13.3c0.8-1.2,1.7-2.3,2.6-3.4c0.1-0.1,0.2-0.4,0.2-0.5
			c-0.6-0.1-1,0.1-1.5,0.3c-0.6,0.3-1.5,1.2-2,1.8c-3.5,4.4-5.4,9.6-7.1,14.9c-1.7,5-2.9,9.9-3.1,14.4L102.8,212.5z M71.6,208.7
			c0.7-0.1,1.2,0.1,1.4-0.1c0.2-0.2,0.1-0.7,0.2-1.3c0.1-1.4,0-1.3-0.9-0.4c-1.4,1.5-4,2-5.5,1.1c-0.8-0.4-1.3-0.8-1.4-0.4
			c-0.1,0.4,0,0.8,0.4,1C67.6,209.5,69.4,208.9,71.6,208.7z M69.9,207.7c1-0.3,2-0.8,2.5-1.6c0.5-0.8,0.5-0.9,0.1-0.7
			c-2,1-3.3,1.5-5,1.2c-2.4-0.4-2.5-0.1-0.9,0.9C67.6,208.1,68.5,208.1,69.9,207.7z M66.4,204.7c0.4-0.3,0.5-1.4,0.2-1.5
			c-0.3-0.1-0.7,0.5-0.9,0.9C65.6,204.7,66,204.9,66.4,204.7L66.4,204.7z M70.1,204.6l0.6-0.1c-0.3-2.8-3.4-2.9-3.9,0.3l0.5,0.1
			C67.9,202.4,69.8,202.4,70.1,204.6L70.1,204.6z M72.1,204.2c0.9-0.5,0.6-1.2-0.6-1.4c-0.8-0.2-0.8,0.5-0.4,1.4
			C71.3,204.6,71.5,204.5,72.1,204.2L72.1,204.2z M65,200.7c0-0.3-0.1-0.8-0.3-1.1c-1.1-2.2-1.7-4.8-1.5-8c0.1-2.3,0.1-3-0.4-3
			c-0.7,0.3-1.1,4.6-0.2,8.2C63.2,199.3,65,202.4,65,200.7z M64.9,197.2c-0.1-1.2,0.2-3.9,0.1-4.5c-0.2-0.8-0.6-1.5-0.9-1.7
			c-0.4-0.3-0.5,0.3-0.4,1.7C64.1,196.2,64.6,198.8,64.9,197.2L64.9,197.2z M65.3,191c0.3-0.5,0.2-1-0.4-2.1
			c-2.3-4.5-2.6-7.5-0.2-8.7c0.3-0.1,0.4-0.1,0.6-0.2c0.8-0.4,0.5-1.2-0.7-0.9c-3.1,0.9-3.7,3.8-1.1,9.2
			C64.9,191.1,65.1,191.4,65.3,191z M65.9,188.5c0-0.2,0.1-0.9,0.2-1.1c0-0.2-0.3-0.6-0.6-1.4c-0.9-2.3-0.9-3.2,0.1-3.8
			c0.3-0.2,0.6-0.2,0.7-0.4c0.1-0.3,0.1-0.9-0.1-1c-1.4,0-2,0.8-2.3,1.6c-0.4,1.2,0,3,1.1,5.2C65.4,188.2,65.6,189.4,65.9,188.5
			L65.9,188.5z M66.9,185.6c0.7-1.5,0-3.4-1-2.8c-0.7,0.4-0.7,0.9-0.3,2.1C66.1,186.4,66.4,186.6,66.9,185.6z M69.5,181.6
			c0.3-0.3,0-0.7-0.5-2.4c-0.5-1.4-0.3-2.4,0.6-2.6c1.3-0.3,1.7,1.8,2,2.7c0.1,0.7,0.6,0.9,1,0.4c0.1-0.1,0.1-0.2,0-1
			c-0.8-3.2-1.9-4.3-3.6-3.5c-1.6,0.7-1.4,2.4-0.2,5.9c0.2,0.5,0.3,0.8,0.4,0.9C69.1,182,69.3,181.8,69.5,181.6z M70.9,180.5
			c0.4-0.4,0.4-0.2-0.1-1.6c-0.5-1.5-0.8-1.9-1.3-1.3c-0.3,0.3-0.2,0.7,0.2,1.9C70.2,181,70.3,181.1,70.9,180.5L70.9,180.5z
			 M137.5,175.2c2.5-1.7,1.5-4.9-1.8-6.1c-0.4-0.1-0.8-0.3-1-0.4c-1.5-0.7-2.7-1-2.7-0.4c0,0.3,0.5,0.5,1.9,1.2
			c2.2,1.1,2.7,2.3,1.6,3.8C134.7,174.6,136.1,175.9,137.5,175.2z M139.8,171.4c0.2-0.9,0.5-1.7,0.7-2.2c0.2-0.8-0.1-0.6-0.6-0.5
			c-1.4,0.7-2.4,0.3-1.7,1.3C138.9,171.4,139.5,172.4,139.8,171.4z M139.6,168.3c1.7-1,2.1-3.8,0.5-5.1c-0.4-0.3-1.1-0.7-1.9-1
			c-1.6-0.5-4-0.7-4.9-0.5c-0.2,0.2-0.2,0.6,0,0.7c0.2,0.1,0.7,0.2,1.3,0.2c2.4,0.2,3.6,1,3.5,2.7c-0.1,1.8-1.5,2.5-4.1,1.9
			c-1.4-0.3-2-0.2-1.5,0.2c0.7,0.4,2.1,0.9,3.5,1.2C137.2,168.8,138.6,168.9,139.6,168.3L139.6,168.3z M131.2,167.8
			c2-4.4,3-15.9-8.2-24.3l0.4,2.3c6.6,5.8,8.2,13.1,6.8,19.9L131.2,167.8z M141.2,159.9c-0.7,0.5-1.3,0.9-2.2,1.3
			c-0.5,0.2-0.6,0.3,0.2,0.7c0.4,0.2,0.9,0.5,1.2,0.8c0.4,0.4,0.8,0.6,1,0.4C141.4,162.5,141.6,160.4,141.2,159.9z M137.9,160.8
			c2.3-0.7,3.5-1.8,3.2-3.6c-0.4-2.7-2.6-3.2-6.8-2.2c-2,0.5-2.2,1.5-0.3,1c2.4-0.6,4.3,0.3,4.1,2.1c-0.1,1.5-1.4,2.4-3.5,2.4
			c-1.1,0-1.5,0.1-1.3,0.5C133.3,161.2,137,161.1,137.9,160.8z M134.2,154.4c3.7-1.3,5.4-3.2,4.6-5.5c-1-2.6-4.2-2.6-7.5-0.2
			c-1.5,1.1-1.3,1.5,0.2,1c1.9-0.9,3.1-1,3.9-0.3c1.4,1.3,0.5,3.5-1.7,4.2c-1,0.4-1.4,0.7-1.4,1C132.3,155.1,132.5,155,134.2,154.4
			L134.2,154.4z M140.4,154.4c0.1-0.8-0.8-3.4-1.2-2.8c-0.1,0.2-0.4,0.9-0.9,1.3c-1.3,1.1-1,0.7,0.2,1.1
			C139.3,154.1,140.3,154.6,140.4,154.4z M130.6,148.7c3.7-2.2,5.2-5.3,3.2-7.3c-1.7-1.9-4.6-0.8-7.3,2.6c-1.2,1.5-0.3,1.4,1.4-0.1
			c1.9-1.7,4.4-0.9,4.4,1.3c0,0.9-1.3,2.4-2.5,3.2c-0.4,0.2-0.4,0.6-0.3,0.8C129.6,149.2,129.9,149.1,130.6,148.7z M137.2,146.4
			c-0.2-0.6-1.6-3.1-1.9-3c-0.3,0.6-0.3,1.5-0.7,2.2c-0.5,1-0.5,0.9,1.2,0.9C137,146.4,137.2,146.6,137.2,146.4L137.2,146.4z
			 M126.2,143.5c3.1-3.3,3.4-7.1,0.5-8c-1.6-0.5-4.2,0.7-4.3,1.9c0,0.8,0.1,0.9,0.8,0.6c2.8-1,5,1.6,2.4,4.7
			c-0.6,0.9-0.7,1.1-0.5,1.3C125.3,144.3,125.5,144.3,126.2,143.5z M160.1,115.6V28.8h-18.4L127,51.8l0,5.7c0,0.2,0.3,0.3,0.5,0.1
			c0.8-0.6,0.5,0-0.4,1.5c-1,1.5-0.7,2.7,0.4,4.3c2.2,3.3,3.4,9.5,2.5,12.7c-0.4,1.2-0.4,1.7-0.2,2.4c0.3,0.8,0.4,1.2,1.2,1.7
			c0.7,0.5,6.2,2.6,15.2,8.4l0-40.7l5.6-5.4l6,5.7l0.2,67.2C158,116,160.1,116.7,160.1,115.6L160.1,115.6z M156.9,48.3l-5-4.7
			l-4.9,4.6c0,21.9,0.1,66.8,0.1,66.8l4.9,0.4c0,0,0.4-1-0.1-3.7c-0.7-4-0.6-8.8,0.5-16.2c0.7-4.5,0-8.5-1-12.6
			c-0.9-2.8-0.9-5.3-0.8-7.8c0.3-3.9,1.4-6.9,1.6-12.6c0.1-3.2-0.1-6.4,0-10.4c0-0.5,0.3-0.5,0.3,0.1c0.2,3.6,0.3,7,0.3,10.5
			c-0.1,4.6-1.2,9.3-1.3,13.5c-0.1,2.9-0.1,3.9,1.1,7.4c1.9,5.5,0.7,14.1,0.6,14.2c-0.8,5.5-1.4,12.4,1.3,17.7l2.7,0.2L156.9,48.3z
			 M122.5,89.6c1.5-0.7,1.8-1.9,1-4.8c-0.1-0.5-0.3-1.1-0.4-1.4c-0.2-0.7-0.5-0.8-0.9-0.2c-0.3,0.3,0,0.4,0.4,2
			c0.6,2.4,0.2,3.2-0.6,3.2c-0.8,0-1.4-0.7-1.6-2.2c-0.1-0.5-0.2-0.9-0.3-1.1c-0.2-0.4-0.5-0.3-0.7,0.1c-0.3,0.5,0.2,2.6,0.9,3.6
			C120.9,89.9,121.4,90.1,122.5,89.6z M122.1,87.4c0.3-0.6-0.1-2-0.3-3c-0.2-0.5-0.4-0.7-0.8-0.6c-0.5,0.1-0.5,0.7-0.3,1.6
			C121.1,87.4,121.3,87.7,122.1,87.4z M126.6,84c1.7-1,1.8-2.6,0.7-5.6c-0.5-1.2-1-2.1-1.4-2.1c-0.1,0.8-0.2,1.2-0.1,1.5
			c0.1,0.3,0.4,0.7,0.5,1.1c1,2.2,0.7,3.5-0.2,4.2C125.2,83.7,125.8,84.2,126.6,84L126.6,84z M71.4,82.8c4-0.8,7.5-7.2,9.8-12.9
			c2-5.7,4.2-12,4.6-17.2c0,0-1.5,0.1-1.7,0.4c-0.2,0.3-0.2,1-0.4,1.9c-1,4.8-1.9,8.5-3.7,13c-1.2,3.1-2.6,6.7-6,11.5
			c-1.1,1.3-2.4,2.2-4,2.4c-0.4,0.1-1.1,0-1.3,0.1c-0.3,0.2,0,0.7,0.8,0.9C70.2,83,70.9,82.9,71.4,82.8L71.4,82.8z M125.9,82.1
			c0.6-0.6,0.7-1.4,0-3c-0.2-0.5-0.3-0.7-0.5-0.6c-0.5,0.1-1,1.4-0.7,2.4C125.1,82.2,125.3,82.6,125.9,82.1L125.9,82.1z M70,81.1
			c1.2-0.2,2.6-1.1,3.7-2.5c2.2-2.9,3.7-6.1,4.8-8.6c0.9-2,2.5-6.4,2.9-8c0.9-3.4,1.4-5.6,1.9-8c0-0.2,0.1-0.6,0-0.7
			c-0.5-0.1-1.5-0.1-1.8,0.3c-0.6,3.9-1.8,7.8-2.8,11c-1.6,5.5-6.1,14.3-8.6,14.7c-1.3,0.2-2.9-0.9-2.6-2.1c0.2-0.7,0.3-1,0.6-1.2
			c0.9-0.3,1.4,0.3,0.4,0.7c-1.1,1,0.9,2.4,2.1,1.4c2.1-1.7-1-5-3.4-3.5c-2.7,1.7-2,4.6-0.3,6C67.7,81.1,68.7,81.2,70,81.1L70,81.1z
			 M89.4,77.1c1.7-1.7,3-4,3.9-6.8c2-6.3,3.7-13.5,4.3-19.2c0,0-1.4-0.1-1.8,0.2c-0.2,0.2,0,0.4-0.6,4.6c-1,6-2.5,12-4.7,17.2
			c-0.9,2.1-1.1,2.4-1.8,3.4C87.7,78,88.1,78.4,89.4,77.1z M126.9,64c-0.2-0.1-0.1,0-0.2,0c-0.2,0.2-0.1,1,0.4,2.2
			c1.4,2.2,1.5,6.5,1.4,8.2c0,0.5-0.1,0.8,0.1,1.2c0.1,0.4,0.4,0.9,0.8,0.1c0.5-3.2,0.1-6.5-1.1-9.3C127.9,65.4,127.4,64.5,126.9,64
			L126.9,64z M127.9,73.4c0.2-0.9-0.2-4.3-0.8-5.5c-0.2-0.5-0.6-0.5-0.6,0c0,1.2-0.1,3.4,0,4.1C127.2,73.4,127.7,74.3,127.9,73.4
			L127.9,73.4z M124.8,59.6l-0.7,0c0,2.2-2,2.9-2.7,0.2l-0.6,0.1C121.7,63.7,125.2,62,124.8,59.6L124.8,59.6z M120.8,61.3
			c-0.3-1-0.2-1.4-1.1-0.9c-0.7,0.3-1,0.7-0.1,1.1C120.5,61.9,121.1,61.9,120.8,61.3L120.8,61.3z M125.8,60.7c0.3-0.5,0.2-1-0.2-1
			c-0.3,0-0.4,0.2-0.5,0.8C125,61.4,125.4,61.6,125.8,60.7z M126.1,57c0.3-0.1,0.2-0.4,0.1-0.9c-1.1-1.5-3.7-1-4.7-0.7
			c-1.1,0.4-1.4,0.2-2.1-0.1c-0.6-0.1-0.7,0-0.9,0.3c-0.1,0.3-0.2,0.8-0.2,1.6c0,0.7,0,1.1,0.2,0.8c1-0.9,2.1-2,3.8-2.1
			C124.4,55.9,126.1,57,126.1,57L126.1,57z M118.8,59c0,0.3,0.3,0.1,0.9-0.3c2.4-1.4,3.8-1.2,5.8-0.5c0.5,0.2,0.7-0.3,0.2-0.7
			C123.4,55.5,120.4,56.7,118.8,59z M127.5,49.9l12.9-21.4l-71.9-0.1l12.2,22.7C90.6,48.8,107,45.9,127.5,49.9z"/>
		<path id="path4098-7-2-7_1_" class="st1" d="M63.7,217c1.5-2.3,9.1,1.8,9.5,3.4c4.5-3.5,9.9-3.8,14.3,0.6
			c4.5-4.9,9.3-4.6,14.3-1.7c-0.6-1.1,6.4-6,10.6-2.9l11.4,20.3L50.6,237C54.9,230.5,58.7,222.7,63.7,217z M31.7,110.8
			c-0.4-1.1-2-12.4,2.1-12.7c6.6,2.9,15,13.4,18.9,19.7c4.8,7.9,9.7,26.1,7,25.3c-0.4-0.1,8.3,8.6,8.9,9.4
			c1,1.4-14.7,27.5-17.2,26.5c-0.8-0.3-6-3.4-6-3.4l0.2-8.7l0.1-17.6l-14.3-1.2l0.5-3.8c4.8,0.4,9.7,1.3,14.2,0.3
			c2.9-5.4,1.8-13.4-1.7-16.6c-1.9-1.1-3.6-0.8-5.5-0.5C31.1,126.3,35.1,113.4,31.7,110.8z M160.1,116.7l0,3.2
			c-5.1,1.1-14-3.2-16.7,3.7c0.3,7.5,2,10.8,3.2,13c0.9,2,7-0.3,9.2,1.8c6.2,7.7,4.7,17.8,4.8,27l-2.7,1.4
			c-18.6-11-32.9-45.1-34.9-54.9c-0.1-6.2,17.1-26.3,17.1-26.3c0,0,6.3,3.8,6.3,3.8c0.2,0.1-0.1,26.3-0.1,26.2
			C151.2,115.9,155.9,116.3,160.1,116.7z M123.2,92.6c-21.7,38-12.8,66.2,3.1,90.4c0,0-1.4,0.3-1.5,0.2c-3.5-3.1-5.9-2.6-7.7-2.6
			c-3.4-0.1-4.4,1-6.3,1.2c-5,0.5-4.6,0.6-8.9-1c-5.4-4.4-12.6-7.7-18.3-9.5c-4.6,0.4-11.6,2.6-14.2,0.8c18.4-34,15.6-55.7-3.4-91.3
			c1.6,0.5,1.8,1.9,3,2.3c3.9,1.5,9.3,0.9,12.5-0.5c5.1-2.3,10.6,3.9,26.4,10.9c1.3,0.7,2.9-0.4,4.3-0.7c2.9-0.6,5.4-1.8,7.6-1.1
			C120.5,92,123.2,92.6,123.2,92.6z M79.4,48.2c-0.9-1.7-10.5-20-10.5-20l71.2,0.4l-10.7,17.6c-1,1-6,3.6-11.1-2.4
			c-0.1,0.9-7.6,6.2-14-0.2c-3.9,3.5-7.8,5.6-14.4,1.6C89.7,46.3,84.6,51.3,79.4,48.2L79.4,48.2z"/>
		<path id="path4094-0-9-9_1_" class="st3" d="M87.2,220.6c-6.9-6.5-14.1-0.6-13.9-0.3c-2.7-2.8-5.4-5.1-9-3.9c0,0,0-1,0-1
			c10.7,2,27.2,2.5,46.4-1.6l1,2.1c-5.2-1.8-7.8,0.6-10.1,3.5C93.3,214.3,91.3,218.8,87.2,220.6z M103.2,145.3l4.9-0.1
			c0.9,14.2,12.8,36,13.1,36c-0.8-1.1-8.7-0.2-8.6-0.1C108.3,169.6,103.6,158.1,103.2,145.3z M74.8,179c0,0-1.6-4.1-2.5-5.8
			c5.1-8.8,9.3-17.9,11.5-28l3.5,0C86.2,159.2,75.1,180.4,74.8,179z M137.6,177.2c7.7-13.9,6.4-34-15.5-45c0,0,0.6-14.7,2.2-14.7
			c0.4,0.1,9.9-0.1,9.9-0.1c2.5-6.1,6.5-13.5,12.1-18.5l0.1,16.4c-4.1,0.4-6.7,1.7-7.9,5l-5.7,1.3c0.4,16.5,6.6,31.7,25,45.4
			c-4.4,3.8-19.4,11.5-19.3,11.3L137.6,177.2z M45.5,166.8l0.2-17.1c2.8-0.6,5,0.2,7.3-4.8c0,0,3.9,1.8,5.1,2.5
			C54.5,153.9,51.4,160.8,45.5,166.8z M82.1,136.5l0.2-8.7l8.2,0.2c-0.7,2.9-0.9,5.9,0,8.8L82.1,136.5z M100.9,136.4
			c0.6-2.8,1-5.7-0.2-8.7l8.9,0.2l-0.2,8.6L100.9,136.4z M83.9,119.4c-1.5-17-13.1-36.3-13.3-35.9c1.4,0.2,3.8,0.9,5.1,0.3
			c1.6,0.3,3,0.1,3.1-0.1c0.1-0.6,10.8,24.7,9.4,35.6C88.1,119.8,84.3,119.8,83.9,119.4L83.9,119.4z M104.5,119.6
			c1.3-7.9,4.5-22.3,12.2-33.9c0.9,2.1,1.6,4.2,2.8,6.1c-5.8,8.4-9.3,18.1-11.5,27.9L104.5,119.6z M51.3,115.3
			c-3.5-7.2-18.1-18.5-17.3-17.3c6-5.4,12.8-8.9,19.5-12.3c0,0,1.2,1.1,1,1.4c-4.1,6.5-6.1,20.4-2.1,28.3
			c3.8,8.5,10.7,13.5,17.6,17.4c-0.5,5.3-0.8,9.1-2.1,14.4c0,0-4.4-2.3-7.9-3.8C59.3,133.4,57.2,124.4,51.3,115.3L51.3,115.3z
			 M89.9,45.1c5.1,3.1,9.7,2.8,14.2-1.5c5.6,5.1,11.7,2.7,14.2,0.4c2.4,2.7,5.5,4.2,10,3.3l-1.1,2.4c0.3-1.2-31.1-3.3-46.3,1
			c0,0-0.9-1.8-0.8-1.8C81.4,48.8,85.8,50.4,89.9,45.1L89.9,45.1z"/>
		<path id="path4092-7-7-9_1_" d="M67.8,27.7l12.7,23.7c0,0,0.4-0.1,0.6-0.1c17.6-3.4,31.5-3.9,46.5-1.3l13.3-22.1
			C116.6,27.6,67.8,27.7,67.8,27.7z M69.2,28.7l70.6,0.1l-4,6.5c-2.4-0.7-3.7,0.4-4,2.6c0,0-0.3-0.1-0.8-0.2
			c-3.5-0.4-3.9,4.2-0.7,4.8c0.8,0.1,1,0,1,0c-2.9,2.4-4.5,0.8-5.9,0c0,0.3-2.6,2.2-5-0.1c3.5,0.3,4-3.1,2.3-4.4
			c-0.3-0.3-0.7-0.6-0.7-0.6c0.8-0.7,1-1.7,0.5-2.7c-1-2.2-4.3-2-4.8,0.3c-0.2,0.9-0.2,1.1-0.2,1.1c-2.7,0.2-3.2,2.7-2.3,4.1
			c0.5,0.8,1.7,1,2.7,0.9c-1.4,2-4.7,1.3-6.1-0.3c-2.3,2.7-4.9,2.4-6.2,0.9c0.9,0,1.5,0,2.3-0.8c1.4-1.3,0.7-3.6-1.3-4.2
			c-0.4-0.1-0.7-0.2-0.7-0.2c0,0,0.1-0.1,0.1-0.8c0.5-4-5.5-3.6-4.9,0.3c0.1,0.5,0.2,0.7,0.2,0.7s-0.6,0-1,0.1
			c-3.3,1.5-1,5.8,1.5,4.7c0.2-0.1,0.9-0.4,1-0.4c-3.2,3.9-5.8,1.1-6.5,0.7c-2.1,3.2-5.9,1-5.9,0.8c0.2,0.1,0.9-0.1,1.6-0.4
			c2.1-1.1,1.5-3.9-0.1-4.5c-0.5-0.2-1.1-0.2-1.8-0.1c0,0,0.1-0.7,0-1c-1-3.8-5.8-1.9-4.6,1.3c0.1,0.3,0.4,0.6,0.4,0.6
			s-0.6,0.4-0.9,0.7c-2.3,2.1,0,5.4,2.7,4c0.3-0.2,0.7-0.6,0.8-0.5c-1.3,2.3-3.1,3.1-5.9,1.2c-1.7,2.7-4.4,1.6-5.2,0.2
			c2.5,0.2,4.2-4.7-0.7-4.8c-0.4-1.3-0.4-3.4-3.5-3L69.2,28.7z M103.7,37.1c0.6,0,1,0.5,1,1c0,0.6-0.5,1-1,1c-0.6,0-1-0.5-1-1
			C102.7,37.5,103.1,37.1,103.7,37.1z M119.5,37.2c0.6,0,1.1,0.5,1.1,1.1c0,0.6-0.5,1.1-1.1,1.1c-0.6,0-1.1-0.5-1.1-1.1
			C118.4,37.7,118.9,37.2,119.5,37.2z M88.5,38.4c0.6,0,1,0.5,1,1c0,0.6-0.5,1-1,1c-0.6,0-1-0.5-1-1C87.5,38.8,88,38.4,88.5,38.4z
			 M132.8,39.6l-0.9,1.6C130.9,40.4,131.6,39.2,132.8,39.6z M76.2,41.9l-0.9-1.7C76.9,40.3,76.4,41.5,76.2,41.9z M103.6,40.9
			c6.1,6.9,11.5,4.9,15,0.3c1.5,3.9,4.9,6.6,10.8,4c-0.4,0.6-1.2,1.7-1.2,1.7c-5.2,1.4-7.7-1-9.7-3.4c-5.3,4.4-10.2,3.3-14.3-0.5
			c-3.5,4.4-9.1,5.3-14.3,1.8c-2.4,3.5-5.8,5-10.1,3.2c0,0-0.9-1.4-1-1.5c0.6,0.5,8.6,3.8,10.5-4.1C91.9,47,101,47.3,103.6,40.9
			L103.6,40.9z M104.2,43.8c6.8,6.4,14,0.9,14.1,0.5c0.1,0.4,4,5,9.6,3.3l-0.9,1.6c-10.5-1.8-20.3-2.9-42.5,0.3c0,0,3.5-1.1,5.3-3.9
			C90.9,46.2,98.6,50.5,104.2,43.8z M80.3,49.1c0,0,3,0.3,3.2,0.4c0.3,0.2-2.5,1-2.5,0.9L80.3,49.1z M86.3,79.6
			c-0.2,0-0.4,0.2-0.8,0.6c-0.8,0.8-1,0.9-1.8,1c-0.6,0.1-1.8,0.8-2.6,1.5c-0.2,0.2-0.6,0.3-1.1,0.4c-0.4,0.1-1,0.2-1.2,0.2
			c-0.3,0-0.6,0.1-0.7,0.2c-0.4,0.2-1,0.3-1.8,0.1c-0.7-0.2-0.8-0.2-1.6,0.1c-1.1,0.3-1.9,0.3-2.4,0c-0.6-0.3-1.4-0.5-2-0.3
			c-0.8,0.3-2.9-1-2.9-1.8c0-0.2-1.2-1.1-1.5-1.1c-1.1-0.2-10.5,3.6-10.5,3.8c11.6,14.4,21.4,36.4,14,63.2l-1.3-0.6
			c1.1-4.9,1.5-9.8,1.9-14.8c-21.8-9.5-23.7-31.4-15.2-45.3l-1.4-1.5c-5.1,2.7-10.3,4.3-23,15l0,17.3c0,15.6,0,30.9,0,30.9
			c4.6,0.5,9.6,0.9,14.6,1.4c0,0-0.1,15.5-0.2,21.5c-0.1,5.1,0.1,4.8,0.1,4.8l16.5,8.7c-1.2-4.6,1.7-6.4,4.1-6.2
			c-1.1-4.4,1.6-6.5,4.6-5.9c2,0.4,2.7,1.5,3.9,5.2c0.2,0.6,0.4,1.4,0.4,1.4l1.2,0c1.4-3.1,2.4-7.1,5.8-7.6c4.5-0.7,6.1,2.4,6.1,5.5
			c4.3-3.8,9.5-0.9,9.2,4.8c2.2-1.4,5.9-2.7,8.2,2.7c0.9-0.2,1.3-1.2,2.5-1.5c0.5-0.1,1.5-0.7,1.5-0.7l0-0.2c0,0,1-0.3,2.3-0.5
			c1.1,0.4,0.8,0.4,1.4-0.3c0.7-0.3,1.7-0.6,2.6-0.5c0.9,0.1,1.3,0.1,1.8-0.1c0.8-0.4,1.5-0.4,2,0.1c0.3,0.4,0.8,0.2,1.4,0.2
			c1.1,0,2.5,0.4,2.9,1.3c0.6,0.7,2.1,1.3,2.1,1.3l1.1-0.3l0.1-0.4l9.4-3.6c-19.1-21-18.6-48.8-14.1-62.8l1.7,0.8
			c-0.9,4.2-2,8.5-1.8,14.7c17.2,7.7,25.7,27.6,15.3,44.9l1.1,1.4c4.3-1.8,15.2-8,19-11.3l0.8,0.1c0,0,2.3-1.5,3.3-2.3l0.1-46
			l-0.8,0.2l-0.1-2.7l-14.2-1.1c0.2-0.1,0.3-0.2,0.4-0.5l-0.1-25.5c-0.5-0.8-12.4-7.8-16.8-9.4c-0.2,0-0.1,0.3,0,1
			c0.2,2.5-1.5,4.7-3.4,4.7c-0.7,0-0.8,0.3-0.8,1.7c0,2-0.7,3.4-2.8,4.2c-2.5,0.9-4.3-0.4-5.7-5.7c-0.4-1.4-1.1-1-1.8,0.8
			c-0.3,0.9-1.5,3.2-2.1,4.4c-0.5,0.9-1.3,1.3-2.4,1.8c-0.9,0.4-2.7,0.4-3.8-0.2c-1.9-1-2.7-2.2-3.3-5.1c-0.1-0.4-0.3-0.4-1,0.1
			c-3.4,2.6-8.3-0.1-8.2-4.6c0-1.3,0-1.4-0.8-0.7c-2.3,1.9-5.5,0.9-6.8-2.1C86.7,79.9,86.5,79.6,86.3,79.6L86.3,79.6z M66.5,81.2
			c0.2,0,1,1,1,1c0.7,0.8,1.6,1.2,2.6,1.7c0.1-0.1,11.4,15.1,13.3,36l5.3,0c-1-20.4-6.6-30.2-9.1-36.5l1.9-0.6
			c4.2,8.1,9.4,24.6,9.2,39H82c-1.2-14.5-6.8-28.6-14.7-39.2C66.8,81.9,66.3,81.4,66.5,81.2C66.5,81.2,66.5,81.2,66.5,81.2
			L66.5,81.2z M63.2,83.3l0.9,2.8c0,0,0.1-0.6,0.4-0.9c1.7-1.6,3.4,0.5,2.6,3.3c-0.2,0.9-0.5,2.5-0.5,2.5s-1.7-0.9-2.6-1.2
			c-2.4-1-3.2-3-1.4-3.3c0.3,0,0.9-0.1,0.9-0.1c-0.8-0.6-2.4-2-2.4-2L63.2,83.3z M71.2,83.7c0.7,0.4,2.6,0.9,3.7,0.5
			c0.9-0.3,1.5-0.1,2.4-0.1c0.5,0,1.5-0.2,1.5-0.2c5.1,10.8,8.7,23.7,9.3,35.5l-4,0c-1.5-12.5-6.3-25.2-12.5-34.6
			C71.3,84.3,71,83.7,71.2,83.7L71.2,83.7z M88.1,83.8c1.6,0,3.2,1.6,4.1,4.1c0.5,1.4,0.7,1.3,1.4,1.1c1.7-0.6,3.5,1.3,1.2,1.6
			c-2.2,0.4-1,4.8-1.2,5.2c-0.9,0.2-2.6-3.6-2.6-4.7c0.1-2.7-2.4-5-4-3.9c-0.8,0.5-0.7,0.9-0.9,0.7c-0.7-0.6-0.9-2.3,0-3.2
			C86.7,84.1,87.4,83.8,88.1,83.8z M134.6,84.8c0,0,0.1,3.6,0,4.4c-0.3,2.4-3.4,2.6-3.5,0.7c-0.5,0.8-0.9,1.7-1.1,2.6l-2.2-1.5
			c0.8-0.6,1.6-1.1,2.3-1.9c-1.6,0.1-2.6-1.3-1.5-2.5C129.8,85.2,133.1,85,134.6,84.8L134.6,84.8z M53.3,85.9l1,1.1
			c-8.7,15.5-5.6,35.3,15.4,45.7c-0.1,4.8-0.7,9.6-1.9,14l-7.8-3.8c0.1-17.5-9.8-34.2-25.6-45.2C40.2,93.2,46.5,89.1,53.3,85.9
			L53.3,85.9z M116.8,86.1c0.4,2,2.3,5.7,2.4,5.5c0-0.1-8,10.3-11.5,27.7l-3,0C106.7,107.7,110.6,96.8,116.8,86.1z M141.5,86.5
			l1.6,1c-8.3,7-13.8,15.8-17.8,25.3l-2.1-1C129.4,98,135.6,91.9,141.5,86.5L141.5,86.5z M143.7,88.1c0.4,0,0.9,0.6,1.7,1
			c0.8,0.4,0.6,0.7-0.9,1.8c-1.7,1.3-1.9,1.3-1.9-0.6C142.7,89,143,88.2,143.7,88.1C143.6,88.1,143.7,88.1,143.7,88.1L143.7,88.1z
			 M141.8,90.1c0.1,0,0.2,0,0.2,0.1c0.1,0.5,0.1,1.7-0.1,2.8c-0.2,0.8-2.4,2.6-3.2,3.4c-0.3,0.2-0.5,0.1-0.5-0.2
			c0-0.6,0.1-1.4,0.1-2.2c0-0.2,0-0.5,0.2-0.7C139.6,91.9,141.2,90.1,141.8,90.1z M145.9,90.7C146,90.7,146,90.7,145.9,90.7
			c0.2,0.1,0.2,2.7,0.1,2.9c-0.6,0.2-2.4-0.1-2.8-0.3C143.1,92.9,145.5,90.7,145.9,90.7L145.9,90.7z M68.2,91.5l0.6,2.5
			c0,0,0.2-0.3,0.2-0.4c1.2-1.8,2.7-0.8,2.6,1.8c0,0.8-0.7,4-0.7,4s-4.5-2.2-4.9-3.1c-0.3-0.9,0.1-1.8,1-1.8c0.3,0,0.6-0.1,1,0
			l-1.9-2L68.2,91.5z M119.8,91.8l2,0.8c-4.3,7-8.7,13.9-11.9,29.5h-8.6c1.2-9.6,3.6-19,8-28.2c0,0,1.7-0.5,2.6-0.8
			c0,0-7.1,16.3-7.9,26.8l4.1,0.1C110.5,109.8,114.6,99.2,119.8,91.8z M103.6,92.1c1.2,0,2,0.8,1.9,2.2c0,1.3-0.1,1.5-1.1,1
			c-1.2-0.7-2.2-0.7-3.3,0.1c-0.6,0.4-1.2,0.8-1.2,0.8s0.5-2.3,1.3-3C102.1,92.5,102.9,92.1,103.6,92.1z M99.2,95.5
			c-0.1,0.8-0.3,1.1-0.5,1.8c0,0,0.7-0.3,1-0.4c1.5-0.7,3.1,0.6,3.1,2.2c0.1,1-1.1,2.3-2.4,2.3c-0.5,0-1-0.1-1.4-0.5
			c0.3,1.9,0.4,2.8-1,3.7c-1.2,0.8-3.6-0.1-3.4-2.2l0.1-1.3l-1.2,0.2c-3.3,0.1-3.3-3.9-0.7-4.5c1.1-0.2,2.2,0.6,2.2,0.6
			c-0.5-1-0.5-2.7,0.2-3.5C96.8,91.8,99.4,93.6,99.2,95.5L99.2,95.5z M127.7,93c0.2,1.5,0.8,3.1,0.6,4.6c-0.3,1.8-1.8,2.9-3,1.7
			c-0.1-0.1-0.4-0.4-0.4-0.4c-0.5,0.7-0.9,2.6-0.9,2.6l-2.1-1.3c0,0,1.5-1,1.9-1.6c0.1-0.2,0.2-0.5,0.2-0.5
			c-1.2,0.4-2.2-0.8-1.9-1.9C122.7,94.4,125.9,93.7,127.7,93L127.7,93z M142.4,94.1c0.8,0,2,0.2,3,0.3c0.7,0.1,0.3,0.6-1.3,2.2
			c-1.5,1.5-1.5,1.4-2.7,1.3c-2.8,0-3.2,0-1.6-1.7c0.8-0.9,1.6-1.7,2.2-2C142.1,94.1,142.2,94.1,142.4,94.1L142.4,94.1z M137.5,94.4
			C137.5,94.4,137.5,94.4,137.5,94.4c0.3,0.2,0.2,1,0.2,2.1c0,1.2,0,1.2-0.5,1.9c-0.7,0.8-1.2,1.7-1.9,2.4c-0.6,0.6-0.6,0.6-0.9-1
			c-0.3-1.5-0.2-2,1.8-4.1C136.8,94.9,137.2,94.4,137.5,94.4z M146.1,95.2l0,3c-5.7,5.6-9.5,11.8-12.2,18.7l-2-0.8
			C135.4,107.4,140.5,100.5,146.1,95.2L146.1,95.2z M96.8,97.1c-0.9,0-1.7,0.8-1.7,1.7c0,0.9,0.8,1.7,1.7,1.7s1.7-0.8,1.7-1.7
			C98.5,97.8,97.8,97.1,96.8,97.1z M96.8,97.6c0.6,0,1.2,0.5,1.2,1.2c0,0.7-0.5,1.2-1.2,1.2c-0.6,0-1.2-0.5-1.2-1.2
			C95.7,98.1,96.2,97.6,96.8,97.6z M33.7,98.3c17.7,11.4,25.7,29.1,25.6,44.3l-1-0.5c-1-21.5-12.7-34.7-25.2-43.2L33.7,98.3z
			 M138.6,98.5c0.4,0,0.9,0.1,1.7,0.2c1.5,0.1,1.6,0.2,0.6,1.3c-0.3,0.3-0.8,1-1.2,1.5c-0.4,0.5-0.8,1-1,1.1c-0.3,0.1-2.9,0-3.6-0.1
			c-0.2,0,0.1-0.3,1.3-2.1c1-1.4,1.1-1.8,2-1.9C138.5,98.5,138.5,98.5,138.6,98.5L138.6,98.5z M146,99.1c0,0,0.4,9.8,0.1,16
			c-4-0.2-6.4,1.4-7.4,4.3l-4.2-2.1C137.5,109.3,141.7,103.7,146,99.1z M133.5,99.3c0.2,0,0.4,0.5,0.4,1.4c0.3,1.7,0.2,1.9-0.5,3
			c-0.3,0.5-0.8,1.3-1.1,1.7c-0.4,0.7-0.7,0.9-0.8,0.6c-0.6-1.8-0.7-2.9-0.5-3.3c0.3-0.6,1.8-2.8,2-3
			C133.2,99.4,133.4,99.3,133.5,99.3z M32.4,99.5c14.2,8.8,24.7,24,25.1,42.2c0,0-3-1.4-4.9-2.5l-0.1-1.8l1,0l0.3,2l2.2-0.1l-0.6-5
			l-3.4,0.3l-0.7-2.8l1-0.2l0.6,1.8l2.2-0.6l-1.2-4.4l-3.4,0.9l-1.1-3l1.1-0.4l0.9,1.8l2.1-0.7l-2-4.5l-3.1,1.5l-1.6-2.9l1.2-0.7
			l1,1.7l1.9-1l-2.4-4.1l-3,1.7l-1.5-2.3l0.9-0.6l1,1.2l1.7-1.2l-2.6-3.5l-2.9,2.2l-2.1-2.5l1-0.8l1.5,1.3l1.6-1.4l-3.1-3.4
			l-2.7,2.5l-2-1.8l1-1.1l1.3,1l1.3-1.6l-3.4-2.8l-2.5,2.5l-2.4-1.6v-1.2c0.8,0.3,1.6,0.7,2.4,1.1l1.3-1.9l-3.6-2.5L32.4,99.5z
			 M72.1,100.2l0.5,3.1c0.5-0.8,0.9-1.4,2-1.1c1.3,0.5,1.3,2.5,0.2,5.6c-0.2,0.6-0.5,1.1-0.5,1.1s-0.6-0.2-1-0.5
			c-0.8-0.6-2.2-1.2-2.9-2.3c-0.7-1.2-0.7-2.8,0.6-2.6c0.3,0,0.8,0.1,0.8,0.1l-2-2.6L72.1,100.2z M31.7,101.2l2.5,1.6l-0.5,0.9
			l-2-0.9V101.2z M93.5,101.9c0.7,1-1.8,4,1.5,5.1c0,0,0.1,0.7-0.6,1.1c-1.6,1.2-3.9-1-3.2-3.2C91.6,103.5,92.9,101.9,93.5,101.9z
			 M100.3,102c0,0,1,0.7,1.2,0.9c1.8,1.8,1.8,4.3,0.2,5.2c-1.1,0.6-2.3,0.1-2.8-0.7c-0.2-0.4,0.1-0.8,0.5-0.8c0.8,0,1.4-1.5,1.2-3.1
			C100.5,102.8,100.3,102,100.3,102z M121.9,102.6c0,0,0.2,2.2,0.5,3.1c1,2.7-0.3,4.3-2.1,3.4c-0.3-0.1-0.7-0.7-0.7-0.7l-0.2,3.1
			l-2.6-0.7c0.6-0.9,1.3-1.5,1.9-2.5c0,0-0.4,0-0.7,0c-1.5,0.1-2.1-1.6-0.5-3C118.8,104.1,121.9,102.6,121.9,102.6L121.9,102.6z
			 M135.2,103.3c0.3,0,0.7,0,1.2,0c1.6,0,2-0.2,1.3,0.8c-0.3,0.4-1,1.5-1.2,1.9c-0.4,0.8-0.5,1-1.2,1.1c-1,0.2-2.1,0.1-3.2,0.1
			c-0.2,0,0.3-0.9,0.5-1.4c0.7-1.3,1.1-2.2,1.7-2.4C134.7,103.3,134.9,103.3,135.2,103.3L135.2,103.3z M130.2,104.3
			c0.2,0,0.3,0.3,0.5,1.1c0.4,1.7,0.5,1.7-0.2,3.1c-0.4,0.7-1,1.9-1.2,2.4c-0.6,1.3-0.7,1.3-1.1,0.1c-0.8-2.2-0.8-1.9,0.4-4.4
			C129.5,105.1,129.9,104.3,130.2,104.3z M36.8,104.9l2.3,1.8l-0.7,0.6l-1.3-0.9l-1.9,2l3.1,2.8l2.6-2.6l2.2,2.3l-0.7,0.6l-1.3-1.3
			l-2,1.7l2.9,3.5l3-2.3l1.8,2.4l-0.8,0.5L45,115l-1.9,1.3l2.4,3.4l3-1.7l1.7,2.8l-0.9,0.5l-1-1.5l-2.2,1.2l2,3.9l3.2-1.4l1.3,3
			l-1,0.4l-0.8-1.8l-2.2,0.9l1.5,4.1l3.3-0.9l0.8,3.1l-1,0.3l-0.5-1.7l-2.1,0.5l0.9,4.2l3.4-0.2l0.4,3.4l-1,0l-0.3-2l-2.1,0
			c0,0.7,0.1,2.2,0.1,2.2l-1.3-0.6c-1.9-12.8-8.8-23.5-18.9-30.9l-0.1-1.5l2.5,1.6C34.1,107.4,36.4,105.4,36.8,104.9z M134.7,107.9
			c0.7,0,0.4,0.5-0.5,2.2c-1,1.8-1.1,1.9-2.9,2.3c-2.2,0.5-2.1,0.7-0.9-1.9c0.5-1,0.8-1.8,1.2-2.2c0.6-0.4,1.6-0.3,2.8-0.4
			C134.5,107.9,134.6,107.9,134.7,107.9L134.7,107.9z M31.8,108.4c10.6,6.9,17.3,21,18.1,29.6c0,0-0.3-0.2-0.9-0.5
			c-0.8-0.4-1-0.6-1.2-1.8c-2.1-10.5-8-19.4-16-25.7L31.8,108.4z M127.2,110.2c0.4-0.1,1.3,3.1,1,3.8c-0.2,0.5-1.7-0.7-2.3-0.9
			C125.6,112.9,126.9,110.2,127.2,110.2L127.2,110.2z M76.2,110.3l-0.1,3.3c0,0,0.4-0.5,0.6-0.6c0.8-0.6,2,0.2,2,1.2
			c0.1,1.4-0.1,1.9-1.2,3.8c-0.3,0.6-0.8,1.3-0.8,1.3s-1.3-0.9-2.7-2.3c-1.5-1.5-1.2-3.6,0.1-3.6c0.4,0,0.8,0.1,1.1,0.2
			c-0.3-1-1.4-2.9-1.4-2.9L76.2,110.3z M117.5,112.8c0,0,0.7,0.9,1.5,3.3c0.8,2.3-0.4,4-2,3.2c-0.3-0.2-0.6-0.5-0.6-0.5
			c-0.1,1.1,0.1,3.1,0.1,3.1l-2.6-0.4c0,0,1.4-2.2,1.5-2.8c0,0-0.2,0.1-0.9,0.1c-2.6,0-2-3.1,0.9-4.8
			C116,113.8,117.5,112.8,117.5,112.8L117.5,112.8z M132.3,112.9c0.6,0,0.3,0.5-0.3,1.8c-0.7,1.4-0.5,1.3-1.9,0.5
			c-2-1-1.9-1.1,0.7-1.8C131.4,113,132,112.9,132.3,112.9z M95.8,113.3c2,0,3.5,2,3.2,4.8c-0.5,4.9-0.2,4.6,0.3,5
			c1,0.9-0.3,1.4-1.5,0.6c-0.8-0.6-1.1-1.2-1-3.8c0-3.1-0.1-3.9-1.2-3.6c-0.7,0.2-0.9,0.8-0.8,2.8c0.1,2.9-0.1,3.7-1.2,4.6
			c-1.2,0.9-2.5,0.1-1.4-0.5c0.5-0.6,0.6-1.3,0.4-3C92.4,118.6,91.5,113.2,95.8,113.3z M146.3,115.7c3.9,0.1,13.7,0.9,13.7,0.9
			l0.1,2.9c-0.4,0.3-7.7-0.8-13.1-0.7c-1.3,0-2.1,0.6-3.1,0.1c0.9,0.4,0.8,4.7-3.1,3.7c-3.3-1.2-1.7-5.6,2.5-6.7
			C144.4,115.8,145.3,115.7,146.3,115.7L146.3,115.7z M124,117.7l8.4,4.1c1.2,15.8,6.6,32.4,25.1,45c-3,2.1-10.5,7.4-19.1,11
			l-0.7-0.8c10.2-17.4,2.5-36.5-15.3-45.2C122.4,127.1,123,122.4,124,117.7z M153.4,120.3c1.6-0.1,2,0.1,2.2,0.9
			c0.1,0.7,0.6,0.9,1.2,0.6c1.5-0.5,2.4,2.1,1.2,3.2c-0.8,0.7-0.6,1,0,1c1.5,0,1.5,2-0.1,3.2c-0.6,0.5-0.6,0.7,0,1
			c1.1,0.6,0.9,1.7-0.5,2.6c-0.8,0.5-0.8,0.6-0.2,0.8c1.6,0.4,0,2.8-1.8,2.4c-0.7-0.2-1.4,0-2.1,0.4c-1.9,0.8-2.2,1-4.3,0.7
			c-1.8-0.3-2.6-0.9-3.1-2.5c-1.1-3.2-2.2-6.8-2.2-10.4c-0.2-2.2,3.5-4.1,5.2-4.2C150.3,119.8,151.9,120.3,153.4,120.3L153.4,120.3z
			 M39,120.4c1.9,0,3.5,1.6,3.5,3.5c0,1.9-1.6,3.5-3.5,3.5c-1.9,0-3.5-1.6-3.5-3.5C35.5,121.9,37.1,120.4,39,120.4z M77.7,121.4
			l-0.3,3.1c0,0,0.5-0.4,0.6-0.5c0.9-0.8,2.3,0.1,2,1.3c-0.1,1-1.9,4.1-2.6,4.8c0,0-2.9-3.1-3.2-3.8c-0.7-1.4,0.3-2.8,1.5-2.2
			c0.2,0.1,0.7,0.5,0.7,0.5l-0.9-2.9L77.7,121.4z M39.3,121.6c-1.2,0-2.4,0.8-2.2,1.8c0.1,0.4,0.8-0.2,1.4-0.6
			c0.5-0.3,1.1-0.4,1.7-0.1c0.5,0.2,0.7,0.6,1,1c0.2,0.3,0.5,0.5,0.7,0.4c0.1-0.2,0.1-0.4,0-0.5C41.5,122.2,40.4,121.6,39.3,121.6
			L39.3,121.6z M133,122.1l1.2,0.6c1.7,22.3,12.9,35.4,24.7,43.2l-0.9,0.6C143.5,157.2,133.5,140.5,133,122.1z M134.9,123
			c0,0,3.1,1.6,4.8,2.3l0.1,2l-1.1,0l-0.4-1.9l-2.3,0.2l0.7,4.7l3.7-0.5l0.5,2.8l-1.2,0.3l-0.6-1.7l-2.1,0.5l1.4,4.5l3.3-1.1l1,3
			l-1.1,0.4l-0.7-1.7l-2.2,0.8l1.7,4.4l3.4-1.1l1.4,2.8l-1,0.5l-1-1.7l-2.1,1.1l2.4,4.1l3.1-1.6l1.4,2.2l-1.1,0.8l-1-1.4l-1.7,1.1
			l2.7,3.7l2.7-2l2,2.3l-0.9,0.8l-1.4-1.4l-1.6,1.4l3.2,3.5l2.8-2.4l2,1.8l-0.6,0.6l-1.3-0.8l-1.8,1.9l3.3,2.9l2.7-2.9l2.3,1.7v1.2
			l-2-1l-1.3,2l3.4,2.6l0,1C140.9,154.1,135.9,136.3,134.9,123L134.9,123z M95.6,123.2c0.8,0,1.7,0.8,3.2,2.4c4,4.7,3,12-2.3,15.8
			c-0.8,0.6-1.1,0.5-2-0.3c-5.4-4.7-5.7-10.9-0.9-16.4C94.3,123.8,95,123.3,95.6,123.2L95.6,123.2z M115,123.9c1,1.5,2.3,3.1,2.4,5
			c-0.1,1.8-1.3,2.2-2.6,1.1c-0.2,1,0.4,2.9,0.4,2.9l-2.3-0.2c0,0,0.9-1.6,0.9-2.6c-1.6,1.1-2.8-0.3-2.6-1.5
			C111.6,126.4,113.3,125.1,115,123.9L115,123.9z M95.7,125.1c-0.2,0-0.4,0.1-0.7,0.4c-1.4,1.1-2.5,2.6-3.1,4
			c-1.2,3.1-0.4,6.6,2.3,9.3c1.4,1.4,1.9,1.3,4-1.6c1.8-2.4,2.2-5.5,1.1-8.1c-0.5-1.3-1.5-2.6-2.7-3.5
			C96.2,125.2,95.9,125.1,95.7,125.1L95.7,125.1z M140.3,125.7l1.8,0.9c2.3,15.2,9.7,24.5,18.1,30.8l0,1.4l-2.2-1.7l-2.7,2.8
			l-2.2-1.8l0.8-0.8l1.2,0.8l1.6-1.8l-3.1-2.8l-2.7,2.4l-2.3-2.3l0.7-0.6l1.6,1.4l1.7-1.6l-3-3.4l-2.7,2.1l-1.9-2.5l0.8-0.5l1,1.4
			l2.1-1.3l-2.2-3.4l-3.1,1.6l-1.6-2.9l0.9-0.4l1,1.6l2-0.9l-2-4l-3.2,1.1l-1.2-3.2l0.9-0.3l0.8,1.9l2.2-0.7l-1.5-4.3l-3.3,0.9
			l-0.8-3.2l1-0.2l0.5,1.7l2.3-0.5l-0.8-4.1l-3.4,0.4c-0.1-0.7-0.6-2.6-0.6-3.3l1-0.1l0.3,1.8l2.3-0.1L140.3,125.7z M95.8,126
			c1.2,0.2,2.8,2.6,3.1,3.5c0.7,1.7,0.7,3.7,0.1,5.3c-0.5,1.3-2,3.5-2.9,4.2c-0.8,0.4-1.4,0.1-2.5-1.4c-2.1-2.9-2.5-6.4-0.9-8.8
			C94.1,127,95,126,95.8,126L95.8,126z M142.7,126.7l0.9,0.4c1.1,8.8,6.3,20.9,16.5,28.1v1.1C152.2,150.7,144.9,140.8,142.7,126.7
			L142.7,126.7z M95.6,127.3c-3.6,2.7-3,6.9-0.3,9.8C98.2,135.2,99.3,130,95.6,127.3z M41.3,127.5c2,0,3.3,0.7,3.9,2.1
			c1,2.2,1.1,2.6,1.3,3.7c0.1,0.7,0.3,1.6,0.4,2.2c1,5.9,0.3,8.1-3.3,9c-1.1,0.3-2.6,0.4-3.6,0.1c-0.3-0.1-1.3-0.1-2.1-0.1
			c-1.6-0.1-2-0.2-2.8-0.9c-0.3-0.2-0.6-0.4-0.9-0.5c-1.8-0.3-2.3-1.9-1-3.1c0.8-0.7,0.8-0.8,0.8-0.9c0-0.1-0.4-0.1-0.7-0.1
			c-1.8,0-1.8-1.9,0-3.2c0.9-0.6,1.2-1.2,0.7-1.1c-1.6,0.4-2.2-2-0.5-2.8c0.9-0.5,1.6-0.9,0.7-1c-0.7,0.1-1.3-0.5-1.1-1.1
			c0.3-0.8,1.8-1.5,2.6-1.2c0.7,0.2,1.3,0.4,1.8,0.1c1-0.7,1.5-1.1,2.4-1.2C40.3,127.5,40.8,127.5,41.3,127.5L41.3,127.5z M101,128
			l8.3,0.2l-0.2,8.1l-7.8-0.1C101.2,136.1,102.9,132.5,101,128z M82.5,128.2l7.9,0.1c-1.3,3.1-0.8,6.2-0.3,8l-7.7-0.1L82.5,128.2z
			 M95.7,128.2c2.1,1.2,2.7,5.8-0.2,8.1C92.6,133.4,93.2,129.8,95.7,128.2z M76.2,131.7l2.1,0.2l-0.8,3c0,0,0.3-0.4,0.5-0.4
			c2.7-1.3,2.9,1.6,0.1,4.3c-0.6,0.6-1.6,1.4-1.6,1.4s-0.8-1.2-1.4-2.2c-0.7-1.1-1.2-2.2-1.1-2.8c0.2-0.9,1.2-1.5,1.9-0.9
			c0.3,0.3,0.7,0.7,0.7,0.7L76.2,131.7z M114,133.9c0,0,0.9,0.9,1.4,1.5c1.9,2.1,2.2,4,1.2,4.6c-0.8,0.4-1.3,0.1-2-0.4
			c0.1,1.3,1.1,3.2,1.1,3.2l-2.8,0.5c0,0,0.7-2.6,0.6-3.5c0,0-0.6,0.4-0.8,0.6c-1.8,0.7-2.7-1.4-1.2-3.5
			C112.9,135,114,133.9,114,133.9z M152.2,137.8c1.9,0,3.4,1.5,3.4,3.4c0,1.9-1.5,3.4-3.4,3.4c-1.9,0-3.4-1.5-3.4-3.4
			C148.8,139.3,150.3,137.8,152.2,137.8z M153.9,139.4c-0.1,0-0.3,0.4-0.3,1.1c-0.2,1.5-1.4,2.1-2.8,1.4c-0.6-0.3-1-0.7-1-0.4
			c0,0.2,0.4,1.1,0.8,1.4c1.2,1.1,4,0.8,4-1.7C154.5,140.1,154.1,139.3,153.9,139.4z M92.2,140.6c0.4,0,0.8,0.1,1.1,0.4
			c0.9,0.6,1.1,1.4,1.2,4.5c0.1,2.7,0,2.8,0.4,3.1c1.1,0.8,1.7-0.4,1.4-3.2c-0.3-2.6,0.6-4.6,2.2-4.5c0.8,0,0.9,0.5,0.3,1.1
			c-0.6,0.6-0.8,1.4-0.6,2.9c0.5,3.9,0.1,5.8-1.6,6.6c-1.7,0.8-3.9-0.1-4.3-2.3c-0.2-1.4-0.2-3.2-0.1-4.8c0-1.7,0-1.9-0.6-2.9
			C91.5,141,91.8,140.7,92.2,140.6z M49.3,141.9c0.9,0,1.9,0.5,2.5,1.8c1.4,2.9-1.7,5.3-4.5,5.5c-4.9,0.1-10.7-0.6-15.6-1.3l0.1-2.8
			c4.5,0.3,9.6,0.6,15,0.9C46.2,143.4,47.7,141.9,49.3,141.9L49.3,141.9z M74.9,142.5l2.7,0.6l-1.7,2.8c0.5-0.2,0.9-0.4,1.4-0.2
			c1.1,0.4,1.1,1.8,0.3,3.1c-0.6,1-2.4,2.1-3.7,2.8c-0.7-1.5-2.2-4.1-1.6-5.5c0.3-0.8,1.2-1.1,2.1-0.7c0.3,0.2,0.8,0.4,0.8,0.4
			L74.9,142.5z M81.4,142.5l8.3,0.1c-1.2,8.4-3.6,19.6-8.2,28.8l-1.9,0.5c4.1-9.1,6.8-17.6,8.1-27.1h-4.1
			c-2.4,10.2-5.9,19.7-11.3,27.9l-2.4-0.8C75.5,162.7,80.1,152.4,81.4,142.5L81.4,142.5z M100.3,142.7h9.2
			c1.7,17.1,7.5,28.8,16,40.3c0,0-0.5,0.1-0.9,0c-0.9-1.1-1.7-1.8-3-2.1c-7.2-10.4-12-25-13.2-36.1h-5.5c0.6,14,4.5,25.4,9.6,36.6
			l-2.8,0.5C105.6,171.9,101.1,163.3,100.3,142.7L100.3,142.7z M114.6,144.8c0.8,0.6,1.6,1.2,2.4,1.7c2.1,1.5,2.1,4.2,0,4.2
			c-0.2,0-0.7,0-0.7,0s0.8,1.8,1.3,2.7c-0.8,0.2-2.6,0.6-2.6,0.6s0.3-1.8,0.2-3.3c0,0-0.3,0.4-0.6,0.5c-1.3,0.6-2.5-0.6-2.3-2
			C112.5,147.4,114.6,144.8,114.6,144.8L114.6,144.8z M53,145.1l4.5,2.3c-3.1,7.1-6.6,13.7-11.8,18.7l0.1-16.3
			C48.7,149.7,51.5,149.7,53,145.1z M84,145.4h2.8c-1.2,13-9.8,30.7-11.4,32.8l-0.5,0.4c0,0-1.1-4-2.4-5.4
			C77.3,166.6,82.4,154,84,145.4z M103.7,145.4h4.2c1.3,10.4,4.5,21.6,12.6,35.3c0,0-0.8,0.1-1.4-0.3c-1.4-0.9-2.3,0.3-3.2,0.2
			c-1.3-0.1-1.5-0.1-2.8,0.2C106.4,166.6,104.5,155.4,103.7,145.4z M58.1,147.7l1.5,0.7c-3.2,7.5-6.1,13.5-13.8,20.8l0-2.2
			C51.1,161.9,54.8,154.9,58.1,147.7z M60.3,148.8c0.7,0.3,1.5,0.7,2.2,1.1c0.2,0.1,0.2,0.3,0.2,0.5c-0.3,0.7-1.5,1-2,1.2
			c-0.6,0.2-1.1,0.3-1.2,0.3c-0.7,0.2-0.4-0.5,0.3-2C60,149.2,60.1,148.8,60.3,148.8z M63.3,150.4c0.5,0,2.3,1,2.7,1.3
			c0.1,0.4-0.3,1.1-0.8,2.4c-0.9,1.9-1.1,2-1.3,0.4c0-0.3-0.3-1.2-0.5-1.8C63,151.3,62.9,150.5,63.3,150.4L63.3,150.4z M66.6,151.9
			c0,0,1.1,0.5,1.4,0.7c-4.7,14.2-17.3,26-17.3,25.7l-2-1.2C57.1,169.6,63.3,160.6,66.6,151.9z M61.6,152.1c0.5,0,0.1,0.6-0.6,1.9
			c-0.6,1.3-0.8,1.8-1.3,2c-0.8,0.3-1.9,0.3-2.9,0.5c-0.4,0.1-0.2-0.3,0.4-1.6c0.8-1.6,0.8-1.9,2-2.2
			C59.9,152.6,60.9,152.1,61.6,152.1z M63.2,155c0.5,1.8,0.5,2.1,0.2,2.7c-0.6,1.1-1.4,2.5-1.6,2.8c-0.6,0.9-0.7,0.7-1-1.5
			c-0.2-1.4-0.4-2-0.2-2.6c0.3-0.7,1.1-2.3,1.6-3.2C62.7,151.3,63.1,154.8,63.2,155z M71.9,153.4l2.5,0.8l-1.9,2.4
			c0,0,0.8-0.1,0.9-0.1c2,0.1,1.6,2.1,0.1,3.3c-0.6,0.6-3.7,2-3.7,2c-0.3-1.7-1-2.9-0.8-4.6c0.1-1,0.2-1.8,1.4-1.9
			c0.6,0,0.9,0.6,1.3,1.1L71.9,153.4z M116.9,155.5c0,0,1.5,0.8,2.9,1.8c1.8,1.4,2.1,3,0.3,3.7c-0.2,0.1-0.8,0-0.8,0
			c0.5,0.9,1.7,2.2,1.7,2.2c-0.6,0.4-1.4,0.7-2.4,1c0,0-0.2-2.2-0.4-3c0,0-0.2,0.5-0.5,0.7c-1.7,1.1-3.1-1-2.2-3.6
			C116,156.8,116.9,155.5,116.9,155.5z M97.8,155.9c4.3-0.1,1.8,7-0.4,6.6c0-0.1,1.8-4.2-0.7-4.9C95.6,157.3,96.6,155.9,97.8,155.9
			L97.8,155.9z M90.7,156.4c1.4,0,2.3,0.9,1,1.5c-2,0.9-0.8,3.2-0.8,4.5c0,0.8-1.8-0.7-2.2-2.3C88.2,158.1,88.5,156.6,90.7,156.4
			L90.7,156.4z M58.5,157.2c0.3,0,0.5,0,0.6,0.1c0.1,0.3-0.5,1.4-1.4,2.7c-0.5,0.7-0.7,0.9-1,1.1c-0.7,0.4-1.6,0.3-2.4,0.3
			c-1.2,0-1,0,0.3-2.1c0.6-0.9,1-1.7,1.3-1.9C56.1,157.4,57.6,157.2,58.5,157.2L58.5,157.2z M60.1,158.6c0,2.6,0.9,3.4,0.2,4.2
			c-0.8,1.3-1.8,2.7-2.2,3.1c-0.6,0.7-0.5,0.6-0.7-1.3c-0.1-1.4-0.2-2.3-0.1-2.8c0.5-1.3,1.1-1.9,1.8-3.2
			C59.7,157.6,60.1,157.7,60.1,158.6z M94.4,159.9c1.3,0,2,1.4,2,2.6l-0.1,1.2c1.6-0.6,3.7,0,3.7,1.6c0.2,2.7-1.8,2.4-3.5,2.3
			c0.2,0.1,0.4,2.5-0.6,3.4c-1.6,1.8-4.5,0-3.8-2.6c0.2-0.5,0.2-0.9,0.2-0.9s-1.1,0.4-1.4,0.4c-3.2-0.1-3-4.7,0.3-4.1
			c0.7,0.1,1.1,0.3,1.1,0.3s-0.1-0.3-0.2-0.7C91.6,161.5,92.6,159.9,94.4,159.9z M158.4,160.7l1.7,1v1.9l-2.5-1.8L158.4,160.7z
			 M55,162c0.7,0,1.2,0,1.1,0.2c0,0.3-1.5,2.4-2.4,3.4c-0.7,0.8-0.9,0.7-2.7,0.6c-0.7,0-1.2,0-1.2-0.2c0.8-1.1,2-2.5,2.8-3.7
			C53,162.2,54.1,162,55,162z M56.7,162.9c0.1,0,0.2,0.3,0.2,0.9c0,0.5,0.1,1.9,0.1,2.5c0.1,1.1,0.1,1.1-0.4,1.8
			c-0.6,0.6-1.2,1.5-1.9,2.2c-1.1,1.2-1,1.3-1-1.3c0-2.1-0.1-2.1,0.3-2.6c0.2-0.3,0.9-1.1,1.4-1.8C56.1,163.5,56.5,162.9,56.7,162.9
			z M67.3,163.3l2.3,1.2l-2.3,2.3c0,0,0.6,0,0.8,0c1.5,0.3,1.4,1.9-0.1,3c-0.9,0.6-4,1.7-4,1.7c-0.1-1.3-0.4-2.5-0.3-4
			c0-0.7,0.1-1.4,0.6-1.9c0.3-0.4,0.9-0.6,1.7-0.1c0.4,0.4,0.6,0.8,0.6,0.8L67.3,163.3z M94.4,164.1c-0.9,0-1.6,0.7-1.6,1.6
			c0,0.9,0.7,1.6,1.6,1.6c0.9,0,1.6-0.7,1.6-1.6C96,164.8,95.3,164.1,94.4,164.1z M120,164.5c0,0,3,1.1,4.4,2.4
			c1.3,1.1,0.7,2.8-0.6,2.8c-0.1,0-0.6-0.1-0.6-0.1c0.4,0.6,1.8,2.2,1.8,2.2l-2.3,0.9c0,0-0.4-1.8-0.7-2.8c-0.8,1.9-2.8,0.7-2.9-0.5
			C118.8,167.8,119.5,166.1,120,164.5L120,164.5z M94.4,164.6c0.6,0,1.1,0.5,1.1,1.1c0,0.6-0.5,1.1-1.1,1.1c-0.6,0-1.1-0.5-1.1-1.1
			C93.3,165.1,93.8,164.6,94.4,164.6z M50.1,167c0.8,0,1.8,0,2.3,0.1c0.3,0.3-0.4,1.1-1.8,2.6c-1.1,1.2-1.3,1-2.6,1
			c-2.3,0-2.3,0-1.3-1.2c1.1-1.3,1.8-2.1,2.3-2.4C49.2,167,49.6,167,50.1,167L50.1,167z M52.8,168.1c0.2,0,0.2,0.6,0.1,2l-0.1,2.4
			l-1.8,1.7c-2,1.8-1.8,1.9-1.8,0.2c0-1.4,0-2.3,0.3-2.9c0.9-1.1,1.8-2,2.8-3.1C52.6,168.2,52.7,168.1,52.8,168.1L52.8,168.1z
			 M97.7,168.7c0.5,0,1.7,2.1,2.1,3.9c0.7,4.1,3.2,6.1,4.9,4.4c0.7-1,0.8,0.1,0.7,0.6c-0.4,5.2-6.3,3-6.9-2.1
			c-2.1,1.3-4-1.4-2.8-1.3C98.6,173.2,97.8,170.5,97.7,168.7L97.7,168.7z M90.8,168.7c0.3,1.8-3,4.9-4.8,2.7c-0.9-1.1-0.1-3.4,1.1-2
			C88.5,170.4,89.7,169.3,90.8,168.7L90.8,168.7z M46.3,171.2c0.7,0,1.6,0.1,2.1,0.1c0.6,0.1,0.2,0.3-1.1,1.5c-1.1,1-1.4,1.5-1.6,1
			c-0.1-0.7,0-1.5,0-2.5C45.8,171.2,46,171.2,46.3,171.2L46.3,171.2z M61.4,172.4l2,1.4l-2,1.8c1.8-0.1,1.9,1.6,1.2,2.5
			c-0.4,0.6-2.1,1.3-3.8,1.6c-1,0.2-1.8,0.3-1.8,0.3s0-0.8-0.1-2.1c-0.1-2.6,0.1-3.7,1.1-4.2c0.7-0.4,1.9,0.2,2.2,0.9
			c0.1,0.2,0.4,0.6,0.4,0.6L61.4,172.4z M48.7,172.5C48.7,172.5,48.7,172.5,48.7,172.5c0.1,0.2-0.3,4.4-0.3,4.4l-2.9-1.6
			C45.6,175.4,48.5,172.6,48.7,172.5L48.7,172.5z M124.5,173.1c2,1,3.6,0.8,4.9,2c1.2,0.6,0.8,2.4,0,2.7c-0.4,0.1-1,0.1-1,0.1
			c0.7,0.9,2.3,2,2.3,2l-2.5,1.1c0,0-0.3-1.7-0.7-2.6c-0.5,1.4-2,1.3-2.9,0.7c-0.6-0.5-0.9-2.1-0.6-3.5
			C124.1,175.1,124.5,173.1,124.5,173.1L124.5,173.1z M111.1,213c-24.8,5.9-44.9,2.2-46.9,1.6l-1.6,2.4c-0.2,0.4-0.3,1.6-1.4,1.9
			l-1.6,2.4l0.3,0.3l-1.4,1.2l0.3,0.4l-1,1.5l-0.4,0l-2.4,3.7l0.4,0.4l-5.5,8.6l74.4,0C120,229.2,115.4,221.2,111.1,213L111.1,213z
			 M110.6,214.1l0.4,1.2c-1.2-0.2-2.7-0.2-4.1-0.3C108.2,214.7,109.5,214.4,110.6,214.1z M106.3,215.1c-2.4,1.1-3.8,2.4-4.9,3.8
			c-1.4-1.1-3.1-1.8-5.1-2.3L106.3,215.1z M64.5,215.7l1.1,0.1c0,0-0.4,0.3-0.6,0.2C64.8,216,64.5,215.7,64.5,215.7z M111.9,216.4
			l0.7,1.3c-1.6-0.9-8.5-2.8-10.5,4.1c-2.1-2.8-10.5-6.8-14.9,1.8c-1.2-2.3-8.4-9-14.9-0.5c-2.6-5.3-4.7-5.8-9.4-5
			c3.3-3.2,8,0.1,10,2.9c5.6-4.7,10.3-3.3,14.4,0.5c5.3-5.8,10.6-4.4,14.3-1.5C104.3,216.1,106.9,214.9,111.9,216.4z M68.6,216.4
			c3.3,0.5,6.7,0.7,10,0.8c-1.9,0.7-3.9,1.3-5.5,2.8C71.9,218.3,70.3,217.3,68.6,216.4L68.6,216.4z M92.7,216.9
			c-1.8,0.9-3.8,2.2-5.3,3.5c-1.7-1.4-3.4-2.6-5.3-3.2C85.4,217.4,89.3,217.3,92.7,216.9z M114,219.7c0,0-0.7,0.1-0.9,0.2
			c-2.9,0.8-2.3,4.9,0.7,4.9c0.3,0,1-0.1,1-0.1c-0.1,2.8,0.8,3.5,3.7,3.3l4.9,8.7l-71.9-0.3l4.6-7.3c2.3,0.3,3.7-1,3.2-3
			c0,0,1.4,0.4,1.8,0.4c2.6,0,3.3-4,0.8-4.7c-0.3-0.1-1-0.2-1.1-0.2c1.1-2.9,4.3-1.2,5.2,0c2-1.7,4.2-0.9,5.2,1.2
			c0,0-0.4-0.2-0.5-0.3c-2.4-1.7-4.6,1.9-2.2,3.5c0.2,0.2,0.7,0.3,0.7,0.3s-0.3,0.2-0.5,0.7c-1.2,2,0.7,4.5,3.1,3.9
			c1.8-0.7,1.8-2.1,1.8-3.5c0,0,0.6,0,1.2,0.1c2.2,0,2.8-2.7,1.5-4c-0.7-0.7-1.6-0.6-2.1-0.7c2.5-2.4,4.2-0.8,5.9,0.4
			c0.3,0,3-3.4,6.3-0.1c-1.6-0.4-3.2,0.6-3.3,2.3c0,1.1,0.8,2,2.5,2.1c-0.2,0.5-0.3,0.9-0.3,1.5c0,1.8,1.3,2.8,3.1,2.6
			c1.4-0.2,2.5-1.8,2-3.2c-0.2-0.6-0.5-0.8-0.5-0.8c3.9,0.5,3.8-4.5,0.8-4.8c-0.7-0.1-1.3,0.2-2,0.9c1.8-3.6,5-2.9,6.2-1.4
			c1.7-1.2,4-2.9,6.7,0.1c-0.5-0.1-1.1-0.1-1.6,0c-2.2,0.6-2.2,3.4-0.5,4.2c0.5,0.2,1.1,0.4,1.7,0.4c-0.6,2.3,2,4,3.8,2.9
			c1.3-0.8,1.7-2.7,0.2-4.4c2.4-0.1,2.6-3.1,1.2-4.1c-1.1-0.8-2.4-0.4-3.3,0.7c-0.3-0.9,2.1-3.8,5.4-1.7
			C110.2,218.6,112,218.2,114,219.7L114,219.7z M115,222l0.9,1.7C115.3,223.8,114.5,223.1,115,222z M103,223.7
			c0.6,0,1.1,0.5,1.1,1.1c0,0.6-0.5,1.1-1.1,1.1c-0.6,0-1.1-0.5-1.1-1.1C101.9,224.2,102.4,223.7,103,223.7z M59.3,223.8
			c0.1,0.6,0.2,1.1-0.8,1.2L59.3,223.8z M71.5,224.8c0.5,0,1,0.4,1,1c0,0.5-0.4,1-1,1c-0.5,0-1-0.4-1-1
			C70.5,225.2,71,224.8,71.5,224.8L71.5,224.8z M87.6,225.1c0.6,0,1,0.5,1,1s-0.5,1-1,1c-0.6,0-1-0.5-1-1S87,225.1,87.6,225.1z"/>
		<path id="path153-6-3-1-9-0-4-7_1_" d="M54.2,33.8c-7.4,10.5-15.4,16.6-15.5,24.8c0,2.7,1.4,7.2,5.9,8.1c2.9,0.6,7-1.8,7.1-6.6
			c0-1,1-0.9,1,0.4c-0.1,3.8-1.3,8.2-3.4,11.8c3.2,0,6.5,0,9.7,0c-2-3.6-3.2-8-3.4-11.8c0-1.3,1-1.3,1-0.4c0.1,4.8,4.1,7.2,7.1,6.6
			c4.5-0.9,6-5.4,5.9-8.1C69.6,50.4,61.7,44.3,54.2,33.8z"/>
		<path id="path153-6-3-1-8-6-4-8-4_1_" d="M137.7,231.3c-7.4-10.5-15.4-16.6-15.5-24.8c0-2.7,1.4-7.2,5.9-8.1
			c2.9-0.6,7,1.8,7.1,6.6c0,1,1,0.9,1-0.4c-0.1-3.8-1.3-8.2-3.4-11.8c3.2,0,6.5,0,9.7,0c-2,3.6-3.2,8-3.4,11.8c0,1.3,1,1.3,1,0.4
			c0.1-4.8,4.1-7.2,7.1-6.6c4.5,0.9,6,5.4,5.9,8.1C153.1,214.7,145.1,220.8,137.7,231.3L137.7,231.3z"/>
	</g>
</g>
</svg>
