<svg id="Layer_1" data-name="Layer 1" xmlns="http://www.w3.org/2000/svg" viewBox="0 0 180 250"><defs><style>.cls-1{fill:#d40000;}</style></defs><title>all_cards</title><g id="g11270-7-7"><path id="path10038-5-0" class="cls-1" d="M13.88,56.1s-1.79-2.56-4.21-5.56c-1.62-2-2.91-4.19-3-6.07a3.89,3.89,0,0,1,3.53-4.4c2.36-.1,3.32,1.65,3.71,3.1.39-1.45,1.35-3.2,3.72-3.1a3.9,3.9,0,0,1,3.53,4.4c-.12,1.88-1.41,4.06-3,6.07C15.68,53.54,13.88,56.1,13.88,56.1Z"/><path id="path10040-7-6" class="cls-1" d="M166.12,193.9s-1.8,2.56-4.22,5.56c-1.62,2-2.91,4.19-3,6.07a3.9,3.9,0,0,0,3.53,4.4c2.37.1,3.33-1.66,3.72-3.1.39,1.44,1.35,3.2,3.71,3.1a3.89,3.89,0,0,0,3.53-4.4c-.12-1.88-1.41-4.06-3-6.07C167.91,196.46,166.12,193.9,166.12,193.9Z"/><path id="path10046-1-1" class="cls-1" d="M48.26,64.7s-3.76-6.14-8.84-13.36c-3.4-4.83-6.11-10.05-6.36-14.56-.29-5.14,2.45-10.31,7.41-10.56s7,4,7.79,7.45c.82-3.48,2.83-7.7,7.79-7.45s7.7,5.42,7.41,10.56c-.25,4.51-3,9.73-6.36,14.56C52,58.56,48.26,64.7,48.26,64.7Z"/><path id="path10048-2-0" class="cls-1" d="M131.74,144.24s-3.76-6.14-8.84-13.35c-3.39-4.83-6.11-10.06-6.36-14.57-.29-5.14,2.45-10.3,7.41-10.55s7,4,7.79,7.44c.82-3.47,2.83-7.69,7.79-7.44s7.7,5.41,7.41,10.55c-.25,4.51-3,9.74-6.36,14.57C135.5,138.1,131.74,144.24,131.74,144.24Z"/><path id="path10052-3-1" class="cls-1" d="M131.74,64.7S128,58.56,122.9,51.34c-3.39-4.83-6.11-10.05-6.36-14.56-.29-5.14,2.45-10.31,7.41-10.56s7,4,7.79,7.45c.82-3.48,2.83-7.7,7.79-7.45s7.7,5.42,7.41,10.56c-.25,4.51-3,9.73-6.36,14.56C135.5,58.56,131.74,64.7,131.74,64.7Z"/><path id="path10056-4-2" class="cls-1" d="M48.26,144.24s-3.76-6.14-8.84-13.35c-3.4-4.83-6.11-10.06-6.36-14.57-.29-5.14,2.45-10.3,7.41-10.55s7,4,7.79,7.44c.82-3.47,2.83-7.69,7.79-7.44s7.7,5.41,7.41,10.55c-.25,4.51-3,9.74-6.36,14.57C52,138.1,48.26,144.24,48.26,144.24Z"/><path id="path10066-9-2" class="cls-1" d="M131.74,185.3s-3.76,6.14-8.84,13.36c-3.39,4.82-6.11,10.05-6.36,14.56-.29,5.14,2.45,10.31,7.41,10.56s7-4,7.79-7.45c.82,3.48,2.83,7.69,7.79,7.45s7.7-5.42,7.41-10.56c-.25-4.51-3-9.74-6.36-14.56C135.5,191.44,131.74,185.3,131.74,185.3Z"/><path id="path10068-1-2" class="cls-1" d="M48.26,185.3s-3.76,6.14-8.84,13.36c-3.4,4.82-6.11,10.05-6.36,14.56-.29,5.14,2.45,10.31,7.41,10.56s7-4,7.79-7.45c.82,3.48,2.83,7.69,7.79,7.45s7.7-5.42,7.41-10.56c-.25-4.51-3-9.74-6.36-14.56C52,191.44,48.26,185.3,48.26,185.3Z"/><path id="path23-5-2-7-3" class="cls-1" d="M6.07,29.41A52.32,52.32,0,0,1,6,19.73c.82-5.22,2.83-7.61,6.18-8.39s7.84.09,8.85,4.45l-2.73.05c-1.47-2.95-5.2-2.16-7.3-.88-1.68,1-2.44,5.29-2.11,5.55,0,0,3.17-2.33,5.67-2.16,5.34.55,7.54,5.16,7.35,9.51-.17,5.23-1.83,9.41-7.49,9.69-5.39-.2-7.85-3.12-8.37-8.14ZM19.34,28c0-3.63-1.62-6.35-4.76-6.65s-6.3,2.75-6.08,6.45,1.66,6.84,5.47,6.82c4.09,0,5.35-4,5.37-6.62Z"/><path id="path23-6-5-1-7-1" class="cls-1" d="M173.93,220.59a52.32,52.32,0,0,1,0,9.68c-.82,5.22-2.83,7.61-6.18,8.39s-7.85-.09-8.85-4.45l2.73-.05c1.47,3,5.2,2.16,7.3.88,1.68-1,2.44-5.29,2.11-5.55,0,0-3.17,2.33-5.67,2.16-5.34-.55-7.54-5.16-7.36-9.51.17-5.23,1.84-9.42,7.5-9.69,5.39.2,7.85,3.12,8.37,8.14ZM160.66,222c0,3.63,1.62,6.35,4.76,6.65s6.3-2.75,6.08-6.45-1.66-6.84-5.47-6.82c-4.09,0-5.35,4-5.37,6.62Z"/></g></svg>