<?xml version="1.0" encoding="utf-8"?>
<!-- Generator: Adobe Illustrator 23.0.1, SVG Export Plug-In . SVG Version: 6.00 Build 0)  -->
<svg version="1.1" xmlns="http://www.w3.org/2000/svg" xmlns:xlink="http://www.w3.org/1999/xlink" x="0px" y="0px"
	 viewBox="0 0 180 250" style="enable-background:new 0 0 180 250;" xml:space="preserve">
<style type="text/css">
	.st0{fill:#FFFFFF;}
	.st1{fill:#E2CF00;}
	.st2{fill:#131F67;}
	.st3{fill:#D40000;}
	.st4{fill:#100F08;}
</style>
<g id="white-background">
	<rect class="st0" width="180" height="250"/>
</g>
<g id="Layer_1">
	<g id="g5526_1_" transform="matrix(0.99999718,0,0,1.000002,-2.9818333,-5.5506344)">
		<path id="path147-0-8-1-6-13-2-22-1-5_1_" d="M134.7,32.1c-7.9,0.2-11.5,9-5.6,15.9c0.9,1,0.9,1.6-0.6,0.6
			c-3.9-2.6-11.5-0.9-11.9,7.1c-0.5,9.9,13.4,12.7,16,2.2c0.1-1.1,1-1.1,0.8,0.5c-0.2,4.3-1.6,8.3-3.4,12.1c3.1,0,6.6,0,9.4,0
			c-1.8-3.9-3.2-7.9-3.4-12.1c-0.2-1.6,0.7-1.6,0.8-0.5c2.6,10.5,16.5,7.7,16-2.2c-0.4-8-8-9.7-11.9-7.1c-1.6,1-1.5,0.4-0.6-0.6
			C146.2,41.1,142.6,32.3,134.7,32.1C134.7,32.1,134.7,32.1,134.7,32.1L134.7,32.1z"/>
		<path id="path147-0-8-1-6-75-2-83-21-1-8_1_" d="M51.2,32.1c-7.9,0.2-11.5,9-5.6,15.9c0.9,1,0.9,1.6-0.6,0.6
			c-3.9-2.6-11.5-0.9-11.9,7.1c-0.5,9.9,13.4,12.7,16,2.2c0.1-1.1,1-1.1,0.8,0.5c-0.2,4.3-1.6,8.3-3.4,12.1c3.1,0,6.6,0,9.4,0
			c-1.8-3.9-3.2-7.9-3.4-12.1c-0.2-1.6,0.7-1.6,0.8-0.5c2.6,10.5,16.5,7.7,16-2.2c-0.4-8-8-9.7-11.9-7.1c-1.6,1-1.5,0.4-0.6-0.6
			C62.7,41.1,59.2,32.3,51.2,32.1C51.2,32.1,51.2,32.1,51.2,32.1L51.2,32.1z"/>
		<path id="path147-0-8-1-6-7-5-5-7-3-5-5_1_" d="M134.7,229.7c-7.9-0.2-11.5-9-5.6-15.9c0.9-1,0.9-1.6-0.6-0.6
			c-3.9,2.6-11.5,0.9-11.9-7.1c-0.5-9.9,13.4-12.7,16-2.2c0.1,1.1,1,1.1,0.8-0.5c-0.2-4.3-1.6-8.3-3.4-12.1c3.1,0,6.6,0,9.4,0
			c-1.8,3.9-3.2,7.9-3.4,12.1c-0.2,1.6,0.7,1.6,0.8,0.5c2.6-10.5,16.5-7.7,16,2.2c-0.4,8-8,9.7-11.9,7.1c-1.6-1-1.5-0.4-0.6,0.6
			C146.2,220.6,142.6,229.5,134.7,229.7C134.7,229.7,134.7,229.7,134.7,229.7L134.7,229.7z"/>
		<path id="path147-0-8-1-6-75-6-1-2-7-9-3_1_" d="M51.2,229.7c-7.9-0.2-11.5-9-5.6-15.9c0.9-1,0.9-1.6-0.6-0.6
			c-3.9,2.6-11.5,0.9-11.9-7.1c-0.5-9.9,13.4-12.7,16-2.2c0.1,1.1,1,1.1,0.8-0.5c-0.2-4.3-1.6-8.3-3.4-12.1c3.1,0,6.6,0,9.4,0
			c-1.8,3.9-3.2,7.9-3.4,12.1c-0.2,1.6,0.7,1.6,0.8,0.5c2.6-10.5,16.5-7.7,16,2.2c-0.4,8-8,9.7-11.9,7.1c-1.6-1-1.5-0.4-0.6,0.6
			C62.7,220.6,59.2,229.5,51.2,229.7C51.2,229.7,51.2,229.7,51.2,229.7L51.2,229.7z"/>
		<path id="path147-0-8-1-6-2-00-7-1-1-4_1_" d="M93,58.6c-7.9,0.2-11.5,9-5.6,15.9c0.9,1,0.9,1.6-0.6,0.6
			c-3.9-2.6-11.5-0.9-11.9,7.1c-0.5,9.9,13.4,12.7,16,2.2c0.1-1.1,1-1.1,0.8,0.5c-0.2,4.3-1.6,8.3-3.4,12.1c3.1,0,6.6,0,9.4,0
			c-1.8-3.9-3.2-7.9-3.4-12.1c-0.2-1.6,0.7-1.6,0.8-0.5c2.6,10.5,16.5,7.7,16-2.2c-0.4-8-8-9.7-11.9-7.1c-1.6,1-1.5,0.4-0.6-0.6
			C104.4,67.6,100.9,58.8,93,58.6C93,58.6,93,58.6,93,58.6L93,58.6z"/>
		<path id="path147-0-8-1-6-2-0-8-6-8-1-8_1_" d="M93,203.2c-7.9-0.2-11.5-9-5.6-15.9c0.9-1,0.9-1.6-0.6-0.6
			c-3.9,2.6-11.5,0.9-11.9-7.1c-0.5-9.9,13.4-12.7,16-2.2c0.1,1.1,1,1.1,0.8-0.5c-0.2-4.3-1.6-8.3-3.4-12.1c3.1,0,6.6,0,9.4,0
			c-1.8,3.9-3.2,7.9-3.4,12.1c-0.2,1.6,0.7,1.6,0.8,0.5c2.6-10.5,16.5-7.7,16,2.2c-0.4,8-8,9.7-11.9,7.1c-1.6-1-1.5-0.4-0.6,0.6
			C104.4,194.1,100.9,203,93,203.2C93,203.2,93,203.2,93,203.2L93,203.2z"/>
		<path id="path147-6-9-8-7-0-5-6-83-3-7_1_" d="M169.1,215.5c3.2-0.1,4.6-3.8,2.2-6.6c-0.3-0.4-0.4-0.7,0.2-0.3
			c1.6,1.1,4.6,0.4,4.8-3c0.2-4.1-5.4-5.3-6.4-0.9c-0.1,0.5-0.4,0.5-0.3-0.2c0.1-1.8,0.6-3.4,1.4-5.1c-1.3,0-2.5,0-3.8,0
			c0.7,1.6,1.3,3.3,1.4,5.1c0.1,0.7-0.3,0.7-0.3,0.2c-1-4.4-6.6-3.2-6.4,0.9c0.2,3.3,3.2,4.1,4.8,3c0.6-0.4,0.6-0.2,0.2,0.3
			C164.5,211.7,165.9,215.4,169.1,215.5C169.1,215.5,169.1,215.5,169.1,215.5L169.1,215.5z"/>
		<path id="path147-0-8-1-6-75-2-9-77-44-0-7_1_" d="M51.2,85.1c-7.9,0.2-11.5,9-5.6,15.9c0.9,1,0.9,1.6-0.6,0.6
			c-3.9-2.6-11.5-0.9-11.9,7.1c-0.5,9.9,13.4,12.7,16,2.2c0.1-1.1,1-1.1,0.8,0.5c-0.2,4.3-1.6,8.3-3.4,12.1c3.1,0,6.6,0,9.4,0
			c-1.8-3.9-3.2-7.9-3.4-12.1c-0.2-1.6,0.7-1.6,0.8-0.5c2.6,10.5,16.5,7.7,16-2.2c-0.4-8-8-9.7-11.9-7.1c-1.6,1-1.5,0.4-0.6-0.6
			C62.7,94.2,59.2,85.3,51.2,85.1C51.2,85.1,51.2,85.1,51.2,85.1L51.2,85.1z"/>
		<path id="path147-0-8-1-6-75-2-8-0-3-9-3_1_" d="M51.2,176.6c-7.9-0.2-11.5-9-5.6-15.9c0.9-1,0.9-1.6-0.6-0.6
			c-3.9,2.6-11.5,0.9-11.9-7.1c-0.5-9.9,13.4-12.7,16-2.2c0.1,1.1,1,1.1,0.8-0.5c-0.2-4.3-1.6-8.3-3.4-12.1c3.1,0,6.6,0,9.4,0
			c-1.8,3.9-3.2,7.9-3.4,12.1c-0.2,1.6,0.7,1.6,0.8,0.5c2.6-10.5,16.5-7.7,16,2.2c-0.4,8-8,9.7-11.9,7.1c-1.6-1-1.5-0.4-0.6,0.6
			C62.7,167.6,59.2,176.5,51.2,176.6C51.2,176.6,51.2,176.6,51.2,176.6L51.2,176.6z"/>
		<path id="path147-0-8-1-6-75-2-9-7-1-9-7-9_1_" d="M134.7,85.1c-7.9,0.2-11.5,9-5.6,15.9c0.9,1,0.9,1.6-0.6,0.6
			c-3.9-2.6-11.5-0.9-11.9,7.1c-0.5,9.9,13.4,12.7,16,2.2c0.1-1.1,1-1.1,0.8,0.5c-0.2,4.3-1.6,8.3-3.4,12.1c3.1,0,6.6,0,9.4,0
			c-1.8-3.9-3.2-7.9-3.4-12.1c-0.2-1.6,0.7-1.6,0.8-0.5c2.6,10.5,16.5,7.7,16-2.2c-0.4-8-8-9.7-11.9-7.1c-1.6,1-1.5,0.4-0.6-0.6
			C146.2,94.2,142.6,85.3,134.7,85.1C134.7,85.1,134.7,85.1,134.7,85.1L134.7,85.1z"/>
		<path id="path147-0-8-1-6-75-2-8-5-1-52-2-8_1_" d="M134.7,176.6c-7.9-0.2-11.5-9-5.6-15.9c0.9-1,0.9-1.6-0.6-0.6
			c-3.9,2.6-11.5,0.9-11.9-7.1c-0.5-9.9,13.4-12.7,16-2.2c0.1,1.1,1,1.1,0.8-0.5c-0.2-4.3-1.6-8.3-3.4-12.1c3.1,0,6.6,0,9.4,0
			c-1.8,3.9-3.2,7.9-3.4,12.1c-0.2,1.6,0.7,1.6,0.8,0.5c2.6-10.5,16.5-7.7,16,2.2c-0.4,8-8,9.7-11.9,7.1c-1.6-1-1.5-0.4-0.6,0.6
			C146.2,167.6,142.6,176.5,134.7,176.6C134.7,176.6,134.7,176.6,134.7,176.6L134.7,176.6z"/>
		<path id="path147-6-9-8-7-4-5-62-52-8-0_1_" d="M16.9,45.6c-3.2,0.1-4.6,3.8-2.2,6.6c0.3,0.4,0.4,0.7-0.2,0.3
			c-1.6-1.1-4.6-0.4-4.8,3c-0.2,4.1,5.4,5.3,6.4,0.9c0.1-0.5,0.4-0.5,0.3,0.2c-0.1,1.8-0.6,3.4-1.4,5.1c1.3,0,2.5,0,3.8,0
			c-0.7-1.6-1.3-3.3-1.4-5.1c-0.1-0.7,0.3-0.7,0.3-0.2c1,4.4,6.6,3.2,6.4-0.9c-0.2-3.3-3.2-4.1-4.8-3c-0.6,0.4-0.6,0.2-0.2-0.3
			C21.4,49.4,20,45.7,16.9,45.6C16.9,45.6,16.9,45.6,16.9,45.6L16.9,45.6z"/>
		<path id="path31-6-7-6_1_" d="M8.8,43.1V16.6h2.6v26.5H8.8z"/>
		<path id="path33-9-3-6_1_" d="M19,16.6c-2.5,0-4.5,2.3-4.5,5.1v16.3c0,2.8,2,5.1,4.5,5.1h1.4c2.5,0,4.5-2.3,4.5-5.1V21.7
			c0-2.8-2-5.1-4.5-5.1H19z M19.8,19.1c1.5,0,2.6,1.1,2.6,2.5v16.6c0,1.4-1.2,2.5-2.6,2.5c-1.5,0-2.6-1.1-2.6-2.5V21.7
			C17.1,20.3,18.3,19.1,19.8,19.1L19.8,19.1z"/>
		<path id="path31-1-4-0-7_1_" d="M177.2,218v26.5h-2.6V218H177.2z"/>
		<path id="path33-5-7-4-0_1_" d="M166.9,244.5c2.5,0,4.5-2.3,4.5-5.1v-16.3c0-2.8-2-5.1-4.5-5.1h-1.4c-2.5,0-4.5,2.3-4.5,5.1v16.3
			c0,2.8,2,5.1,4.5,5.1H166.9z M166.2,242c-1.5,0-2.6-1.1-2.6-2.5v-16.6c0-1.4,1.2-2.5,2.6-2.5c1.5,0,2.6,1.1,2.6,2.5v16.6
			C168.8,240.8,167.7,242,166.2,242L166.2,242z"/>
	</g>
</g>
</svg>
