<svg id="Layer_1" data-name="Layer 1" xmlns="http://www.w3.org/2000/svg" viewBox="0 0 180 250"><defs><style>.cls-1{fill:#d40000;}.cls-2{fill:#e2cf00;}.cls-3{fill:#131f67;}</style></defs><title>all_cards</title><g id="g4942"><path id="path147-6-9-8-7-0-5-6-46-4-5" d="M166.12,209.93c3.17-.07,4.59-3.76,2.24-6.62-.34-.42-.37-.66.25-.26,1.58,1.1,4.61.38,4.76-3,.19-4.12-5.37-5.3-6.41-.93-.05.46-.42.45-.33-.2A14,14,0,0,1,168,193.9h-3.76a14.22,14.22,0,0,1,1.37,5.06c.08.65-.28.66-.34.2-1-4.37-6.6-3.19-6.4.93.15,3.34,3.18,4.06,4.76,3,.62-.4.58-.16.24.26-2.34,2.86-.92,6.55,2.25,6.62Z"/><path id="path147-6-9-8-7-4-5-62-9-4-5" d="M13.88,40.07c-3.16.07-4.58,3.76-2.24,6.62.34.42.38.66-.25.26-1.58-1.1-4.6-.38-4.76,3C6.44,54,12,55.21,13,50.84c.06-.46.42-.45.33.2A13.81,13.81,0,0,1,12,56.1h3.77A13.81,13.81,0,0,1,14.4,51c-.09-.65.27-.67.33-.2,1,4.37,6.6,3.19,6.41-.93C21,46.57,18,45.85,16.37,47c-.62.4-.58.16-.24-.26,2.34-2.86.92-6.55-2.24-6.62h0Z"/><path id="path37-5-2-4" d="M8,28.8H5.8v-3H8s0-1.62.08-4.49c.14-6.1.29-7,2.07-8.73,3.51-3.32,9.39-.62,9.32,4.38-.1,7,0,13.77-.23,14.72-.37,1.68-.41,1.77-.26,2.08.31.61,3,.88,3,.71v3a5.53,5.53,0,0,1-4.5-1.19,6.69,6.69,0,0,1-6.55.8C9.05,36.16,7.64,33.9,8,28.8Zm7.52,5.26c-1.1-1.58-3-3.74-4.7-4.51-.11,1.82.05,3.35.69,4.17a2.58,2.58,0,0,0,4,.34Zm.91-17.41C15.63,14.34,13.53,13.56,12,15c-1,.9-1.12,1.84-1.14,7,0,3.16,0,4.49,0,4.49,3,1,5.78,4.43,5.76,4.39l.07-9.57a26.52,26.52,0,0,0-.23-4.63Z"/><path id="path37-3-2-7-4" d="M172,221.2h2.22v3H172s0,1.62-.08,4.49c-.14,6.1-.29,7-2.07,8.73-3.51,3.32-9.39.62-9.32-4.38.1-7.05,0-13.77.23-14.72.37-1.68.41-1.77.26-2.08-.31-.62-3-.88-3-.71v-3a5.5,5.5,0,0,1,4.5,1.19,6.67,6.67,0,0,1,6.55-.8c1.86.87,3.28,3.13,2.9,8.23Zm-7.52-5.26c1.1,1.58,3,3.74,4.7,4.51.11-1.82,0-3.35-.69-4.17a2.58,2.58,0,0,0-4-.34Zm-.91,17.41c.82,2.31,2.92,3.09,4.45,1.65,1-.9,1.12-1.84,1.14-7,0-3.16,0-4.49,0-4.49-3-1-5.78-4.43-5.76-4.39l-.07,9.57a26.52,26.52,0,0,0,.23,4.63Z"/><g id="g5457-6-3-6"><g id="g3405-1-0-4"><path id="path3391-4-8-9-0" class="cls-1" d="M96.34,229.27c.44-6.55.06-13.58.36-18.9-.2-.38.53-1.41.57-1.41a7.2,7.2,0,0,1,0-4.62c4.3-16.32,12.08-29,20.1-40.86,6.51,19.57-14,33.3-18.25,50.41-1.44,5.92-1.22,10.06-1.77,15.41Zm-34,.25L38,192l5.29-2.57,25,39.93ZM93.8,160.05c.22,1.08,1.07,1.66,2,1.17s1-.52.43.33A1.76,1.76,0,0,0,99,163.63a1.42,1.42,0,0,0,.14-2c-.57-.54-.7-.81.15-.41,2.13.86,3.3-2.21,1.24-3.24a2.07,2.07,0,0,0-2,.37c-.47.49-.54.32-.41-.06a7.93,7.93,0,0,1,.3-1,5.66,5.66,0,0,0,.24-.81l-2.18,0s.18.5.36.92.23.69.31.85c.29.59-.06.37-.65-.06a1.69,1.69,0,0,0-2.46.36A2.52,2.52,0,0,0,93.8,160.05ZM97,129.55l4.67-.14,5.15,14.16c-4.12,6.82-5.23,14.51-.44,22.3l-14.84,0c3.48-11.75,4-24.2,5.46-36.35ZM101.84,148a1.62,1.62,0,0,0,.13-2.25c-.71-.85-.55-.89.42-.34,1.39.81,2.72-.93,1.9-2.47a1.84,1.84,0,0,0-2.86-.32c-.53.72-.48.06-.06-.9.15-.35.37-1,.37-1l-2.27,0s.29.64.45,1.05c.41,1.09.43,1.44-.21.74a1.75,1.75,0,0,0-3,1.35,1.51,1.51,0,0,0,2.2,1.5c.62-.36.89-.45.2.38a1.77,1.77,0,0,0,.32,2.29A2,2,0,0,0,101.84,148Zm-31.35,4.42c.18-.14.25,0,.14.13a8.05,8.05,0,0,1-.55.6c-1.06,1.18.31,2.67,2,2.44,1.16-.16,1.84-2,1-2.7-.28-.18-.5-.22-.71-.47,0-.1,0-.17.14-.13s.46.31.61.35a1.67,1.67,0,0,0,2.17-.91,2.18,2.18,0,0,0-.71-2.31,1.67,1.67,0,0,0-2.24.44c-.59.78-.67,0-.19-1a6.58,6.58,0,0,0,.31-1l-2.09.11s.12.45.3,1c.46,1.18.79,1.51.2.91-2.54-1.5-3.39.53-3.43,1.34A1.81,1.81,0,0,0,70.49,152.39Zm10.19-23h3.77c-2.84,15-8.65,27.64-18.43,36.31l-18.41-.06-8.87-6.18,3.43-4.44C65.53,157.46,75.48,145.91,80.68,129.42ZM63.75,164.28a1.65,1.65,0,0,0,.83-2.56c-.66-.75-.72-1,.29-.4,1.35.78,2.66-.79,2-2.32a1.79,1.79,0,0,0-2.66-.6c-.82.61-.8.34-.37-.63a7.93,7.93,0,0,0,.37-1.25l-2.3,0a8.83,8.83,0,0,0,.33.93c.39.86.53,1.25.35,1.25s-.37-.26-.54-.41a2,2,0,0,0-2.18-.06c-1.38,1.31-.6,3.61,1.15,3.19,1.14-.28,1.4-.71.46.36-1.16,1.31.63,3.19,2.27,2.47Zm-14.55-.45a1.53,1.53,0,0,0,.74-2.26c-.53-.71-.8-1.17.16-.53,1.27.64,2.38-.21,2.36-1.65a1.8,1.8,0,0,0-3-1.3,2.29,2.29,0,0,1-.51.29c-.16,0,.12-.81.43-1.35.13-.23.36-.7.36-.7l-2.31-.09a8.91,8.91,0,0,0,.31,1.11c.37,1,.46,1.3-.18.75-1.74-1.62-3.59.44-2.86,2.22a1.46,1.46,0,0,0,2.27.5c.63-.49.31.16-.12.67C45.69,162.9,47.43,164.65,49.2,163.83Zm105.32-37.71.12,2.78-29.8,24.77-1.25-1.91ZM43.68,131.33c4.29-3,9.06-8.51,13.77-11.36C60.89,127.86,52.82,135.59,43.68,131.33ZM122,129.88c-3-16.67,14.93-13.19,14-11.71Zm-96.47-10.2,29.5-24,1.34,2L25.27,123.14ZM106.36,95.5c.09.25,1,1.2,1,1.29-.25-.19-1.77-1-2.51-.21a2.75,2.75,0,0,0-.55,1.76,1.75,1.75,0,0,0,2.92.9c.31-.27.58-.59.64-.47s-.11.55-.25.92-.76,1.15-.33,1.15h2.1a4.45,4.45,0,0,0-.33-1c-.47-1-.45-1.56.12-.83,1.1,1.42,3.23.23,3-1.47a1.59,1.59,0,0,0-2.33-1.34c-.1.06-.39.35-.43.35s.19-.46.39-.85c.68-1.29-.33-2.49-1.87-2.36a2.17,2.17,0,0,0-1,.4A1.7,1.7,0,0,0,106.36,95.5Zm25.48-12a50.82,50.82,0,0,0,8.85,6.42l-2.78,4.39C119,92.53,105.3,100,99.57,120.15l-3.11.59c1.17-12.58,5.4-25.06,17.91-37.25Zm-18.1,3c0,.59,1.11,1.3.86,1.47s-.76-.51-1.06-.54a1.78,1.78,0,0,0-.47,3.52,2.68,2.68,0,0,0,1.56-.4c.34-.28.58-.51.65-.49s-.16.65-.4,1.1a12.93,12.93,0,0,0-.53,1.28h2.48s-.23-.76-.45-1.3-.34-1.12-.15-1.07.17.23.35.38a1.85,1.85,0,0,0,3.06-.91c.39-1.35-1.23-2.74-2.36-2-.4.26-.4.06,0-.53a1.76,1.76,0,0,0-.06-1.84A2,2,0,0,0,113.74,86.48Zm17.8,4c-.06-.3,0-.22.33.11A1.83,1.83,0,0,0,135,90.1c.44-1.37-.89-2.93-2-2.39-.6.28-.61.18-.27-.27a1.7,1.7,0,0,0-1.61-2.65,1.66,1.66,0,0,0-1.54,2.5c.28.47.19.57-.3.33-1.42-.69-2.75,1.56-1.7,2.89a2,2,0,0,0,2.84.09c.43-.41.43-.21.11.64a13.9,13.9,0,0,1-.57,1.35l2.46,0A10.34,10.34,0,0,1,131.54,90.48ZM78.79,120.65c.72-.18-2.53-10.43-4.9-15,2.7-6.47,6.41-12.74.18-22l15.15,0c-4.68,10.58-4.78,37.28-5.88,37.35Zm1.33-11.87a4.4,4.4,0,0,1-.79-1.86c-.09-.53,0-.56.32,0,1.35,1.49,3.18,0,3.19-1.27s-1.26-2.23-2.17-1.63c-.63.42-.81.3-.24-.49a1.62,1.62,0,0,0-1.5-2.52c-1.86,0-2.57,1.75-1.24,3,1,.92.07.38-.71,0-1.53-.63-2.53.91-1.84,2.47a1.6,1.6,0,0,0,2.66.49c.45-.48.86-.76.62,0a10.4,10.4,0,0,1-.81,1.82Zm2.35-16.26a5.8,5.8,0,0,1-1-2c-.06-.31.16-.23.67.21,1.63,1.39,3.87-1.11,2.35-2.64a1.31,1.31,0,0,0-1.66-.36c-.76.4-.7.21-.32-.2a1.65,1.65,0,0,0-.08-2.23c-1.66-1.48-4.28.72-2.74,2.29.67.69.35.6-.39.16-1.39-.83-2.94,1.45-1.89,2.79,1.24,1,2.17.53,3-.13.19-.1.35-.14.35-.06s-.86,2.17-.86,2.17ZM62.6,86.2c-.93-.07-1.59-8.68-.46-11.4,2.41-11.51,9.76-19.88,14.34-26.93C83.82,37.38,82.91,20,83.22,20.65l1,.12S83.46,31,83.91,35.6c.47,4.06.37,4.31.08,4.71-.08.38,0,1.49,0,1.87-3.26,15-11.06,30.48-19.11,42.14ZM138.08,60,113.29,21l6-.54c2.21,3.5,23.74,36.8,23.74,36.8Z"/><path id="path3395-8-0-1-6" class="cls-2" d="M36,230.21c2.82-10.3-4.82-34.27-9.59-37.4,5.59-.24,12.33-.14,12.11-.66,0,0,23.81,37.33,23.62,37.53s-26.14.53-26.14.53Zm96.48-58.46c-5.77-.82-3.49-5.59.22-6.09-.49.08.39-2.37,3.38-3.37.68-1.22,1.22-3.32,1.84-4.3-1.79.59-4,2.1-12.12.91.71-3.85,8.5-4.51,11.31-3.91,1.62.37,3.23,2.78,3.72,2.83,5-.83,11.36,3.68,9.44,8.26-.3.66-1.06-.77-2.74-1.38-5.45-2-5.83-4.91-7.08-6.22-.45-.09-2.86,4.66-2.86,4.66l.75,3.23c1.31-.12,7.11,3.45-.11,5.87C136.23,179.11,132.47,174.26,132.48,171.75Zm13.67-30.64c-.31-.32.24-2.45,1-3.68a2.15,2.15,0,0,1,1.84-1c1,.17.81,1.56-.46,5.61C148.46,142.6,147.17,142.66,146.15,141.11ZM31.27,112.73c-1.59,0-.17-4.3.81-5.66.32-.43,1.58.48,1.64,1.1C33.84,109.28,32.12,113.17,31.27,112.73ZM30.14,83.54A24.16,24.16,0,0,1,36.58,87c1.81,1.35,1.32,4,2.77,4.23,1-.48,2.77-4.82,2.77-4.82s.46-2.22-.82-2.91C38.12,81.8,38.18,80,38.38,79.8c.94-2.44,2.82-2,3.83-2.14,0-1.34,0-4.15,2.75-3.86,2.42.23,2.66,3.68,1.64,3.71,0-.06,4.58-.66,4.53,2.37,0,1.64-2.75,3.73-3.6,3,0,0,.46,3.27-3.66,4.39-1,1-1.75,5.13-1.75,4.76,2.48-2.23,6.37-2.76,12.51-2-3.8,7-14.32,3.74-15.14,2.38C34.2,90.83,29.24,88.76,30.14,83.54ZM75.44,66.7c5.59.5,11.71-1.25,16.37-.32.53.07,1.1.85,1.42,1,2.41,1.3,4.93.9,8.8-.56,1-.36,18.7-.23,18.7-.23,4,6,11.22,17.15,11.38,16.77,0,0-9.84-.11-14.37.16-3.18.19-1.31.62-3.52.72C98.71,95.88,95.76,121,95.76,121s4.93-1.3,6.22.06c6.09-17.78,17.66-25.89,33.8-24.31,7.46.74,16.36,8,16.36,8l-16,13c-12.37-6.22-17.66,12.11-13.91,12.15l32.13-26.19s.55,2.14.5,2.21c-2.29,3-40.6,34-40.6,34L112.61,138s-1,.94-1.61,1.56a3.45,3.45,0,0,0,1.08,2.67c-7.59,6.07-7.84,17.21-2.25,23.3,0,0-2.48.17-2.74.22-3.15.53-6.41-15-.16-22.18-3.16-6.17-5.1-14.55-5.49-14.94.08,1-5,.66-5,.66A169.29,169.29,0,0,1,91.74,166l23.25.5L105.1,183.6S94,183.33,89.2,183c-5-2.9-7.87-.69-12.56.38-6.67.2-16.5-.11-16.5,0a80.19,80.19,0,0,0-11.77-17.1c-.62-1,19.75-.4,19.75-.4s10.18-15.35,12-19.69c1.45-3.38,4.7-15.71,4.7-15.71.15.64-1.85-3.2-6.51-3.11C74.49,152.85,44.08,161.45,25.78,145l-.17-3,40.33-32.62,1.79,2.07c-.39-.31-24.76,19.91-24.35,19.78C50.6,135.06,59,132,58,119.64A136.79,136.79,0,0,0,73.76,105.8c.11-.19,5.56,12.2,5.42,14.58,3.14-1,5,1.16,4.94.78C83,114,89.28,86.83,89.4,83.71c-3.49-.28-8.13-.15-15.39-.44,5.83,11.26,3.81,18.9-4.35,25.84L68,107c.69.38,11.92-9.3,2.88-23.78-.41,0-4.77-.39-4.77-.39S75,68.69,75.44,66.7Zm43.33-46.57s25.45-.61,25.46.14A59.14,59.14,0,0,0,154.3,57.84s-11.28-.4-11.07-.26Z"/><path id="path3393-8-5-4-3" class="cls-3" d="M156.12,19.17H23.88V230.83H156.12Zm-12.43.92s-1.71,22.4,10,37.08c-7.16-1.09-11.26,0-15.44,2.95l.57.58c5.75-3.52,10.62-2.59,15.61-2V87.49c0,1.4-6,.78-9.63-2a17,17,0,0,1-5-4.79c-.31-.49-.63-1-.72-1.07-.33-.39-2.43-4.27-6.26-11.62-1.95-3.74-4.53-8.83-6.62-12.78-1.36-2.56-3.88-7.39-4.06-7.78-.37-.8-3.11-6.14-4.18-8.08-2.82-5.13-7.37-14.08-9-17.29-.36-.83-.9-1.21.08-1.19a3.58,3.58,0,0,1,.55,0c.18.09.39-.29.39-.29Zm-118,121.24v-2.26l38.53-31.62L65.46,109ZM63,86l-.51.17c-1-4.39-.42-10.26.74-14.67,1.7-6.12,4.86-11,8.39-16,8.06-11.26,11.63-19.76,11.49-34.9l1.15.13c0,2.39-.37,4.19-.46,7.37a56.8,56.8,0,0,0,.28,9.33c.18,1.63.28,2.69,0,2.91a1,1,0,0,0-.13.88c0,.45-.08,1.36-.08,1.36C82.05,51.57,72.15,74.68,63,86Zm4.81,20.48-2-2.49a1.74,1.74,0,0,1-.16-2.68c4.07-4.12,4.1-9.35.16-14.05-.26-.6,1.23-3.62,1.23-3.62l3.1,0c4.83,5.86,6.15,16.22-2.29,22.79Zm2.84-23.26c.1-.4-4.59-.25-4.59-.25C69,78.6,71.47,74.14,73.9,69.68c3.78-6.76,9-18.59,10.66-27.17,1.22,10,3,24.93,11.61,25.51,2.82.2,6.09-1.73,6.63-1.41l17.89-.14A69.39,69.39,0,0,0,133,83.74a46.35,46.35,0,0,0,11.4,4.39c2.24.56,2.46.19,6.89.82a9.11,9.11,0,0,0,2.93-.33c-3.54,2.79-7.62,2-12.12.8-.25-.06-.51-.14-.78-.23l-3.39,5.09c-7.56-1.78-31.83-.52-38.23,25.79,0,0,.66.33.51.15,5.08-22.83,26.54-27.39,36.77-25.11l-.88,1.34c-17-2.07-30.8,8.51-34.09,23.53l.33.29c6.37-22.69,33.15-31.09,49.75-15.36l3.05-2.15-.1,2.91-40.82,34.1-1.63-1.68s-.29.21-.62.48c-1,.88-1.47,1.09-1.17,1.58s1.44,1.59,1.49,1.71c-6.77,5.5-8.92,16.11-2.49,23.54.72.78.59,1,.46.11-5.77-6.26-5-17.34,2.16-22.59l1.45,1.9c-3.17,6.93-4.86,17.75,3.47,18.69,3,8-.45,17.42-4.28,23.75-4.06,7.3-9,13.36-12.06,21.31-1.49,3.32-3.87,13.15-3.74,20.67h-.9c0-3.07.2-6.7.23-9,.13-11.33.11-10.66.36-10.95.09-.09.33-.2.35-.27s-.19-.36-.27-.64a4,4,0,0,1-.23-1.2c0-.42.41-1,.34-1.17-1.79-6.25-1.94-17.49-7.73-22.66-2.83-2.43-6.6-2.52-11.48-.53-10.76,0-9.17.57-17.86.07a80.5,80.5,0,0,0-12.68-17.7c-2.21-2.45-5.28-3.8-8.16-5.57a13.85,13.85,0,0,1,3.9-4.83,7.2,7.2,0,0,1,.89-1.24c29.32,2.81,35.67-25.5,34.34-24.78l-.26.22c-8,29.17-36.55,28.11-50.89,15.5,0,0-2,1.75-2-.17,0-1.75.64-2.26.64-2.26L66,109.3c.74.47,1.53,2,1.86,1.85.74-.39,1.84-1.18,1.8-1.65a19.21,19.21,0,0,0-1.47-2.64C79,95.75,74.13,90.79,70.67,83.17ZM85.93,20.71a.6.6,0,0,1,.52.3c.24.39-.74,2.64-1.34,3s-.61-.06-.2-2.24A1.24,1.24,0,0,1,85.93,20.71Zm59.06.06h9.46V56.44C147.49,46.68,143.88,35.46,145,20.77Zm-56.56.06c.24,0,.44.06.51.23.24.6-1.13,3.2-2.82,5.35-.88,1.12-1.32,1.44-1.59,1.18-.24-.51-.23-1.1.58-2A20.1,20.1,0,0,0,87.38,22C87.58,21.41,87.78,20.87,88.43,20.83ZM98,21c.27,0,.55,0,.62.13A18.57,18.57,0,0,0,106.46,29c.46.26.24.9.4,1.36-3.52-.52-8.15-5.5-9.38-9.13C97.47,21,97.73,21,98,21Zm5.51,0c.7.71,1.8,1.56,2,2.37a2.6,2.6,0,0,1,.15,1.34c-.61.38-3.65-3.14-3.53-3.55A1.58,1.58,0,0,1,103.52,21Zm-13.19-.05c.29,0,.75,0,.82.22.38,1.53-3.14,7.51-5.7,9.2-.91.6-1,.45-.9-.56,0-.68.12-.63,1-1.52a17.74,17.74,0,0,0,3.6-5C90.23,21.05,90,20.91,90.33,20.91Zm2.38,0a.91.91,0,0,1,.73.26c.12.2,0,.53-.15.93a26.15,26.15,0,0,1-7.41,10.64c-1.32,1-1.54,1-1.64,0,0-.61.23-.78.85-1.21a17.91,17.91,0,0,0,6.53-8.94c.21-.68.13-1.3.51-1.5A1.16,1.16,0,0,1,92.71,20.93Zm17.8,5.66c.14.24,1.12,1.77.32,1.19a26.09,26.09,0,0,1-1.89-2c-2.25-2.55-2.32-2.39-2.28-3,0-.83-.57-2.19.71-1.83C108.64,22.36,109.43,24.75,110.51,26.59ZM100.23,21a4.37,4.37,0,0,1,.81.09c1.49,2.79,5.12,5.24,5.1,5.22a5,5,0,0,1,0,1.43c-.07.37-5.76-3.93-6.39-6.51C99.77,21,100,21,100.23,21Zm-4,.05c1.33,2.45,4.09,8,10.56,10.24.47.1,1,1.42.6,1.78a18.15,18.15,0,0,1-12.17-12A1.09,1.09,0,0,1,96.19,21Zm-1.74.48c-.22,0,3,9.43,12.39,12.25.81.25,1.28.6,1.23,1.07s0,.68-.94.23a10.34,10.34,0,0,0-9.21-.41c-.48.24-1,.89-.58,1.3.22.21.76.06,1.44-.21,3.53-1.37,8.93-.56,9.89,1.59.68,1.53.79,2.66.42,2.84s-.76-.37-1.6-1.1c-2.69-2.35-5.9-3-8.46-.75-.55.49-1.1.4-1.29.6s0,.64.19,1.07a1,1,0,0,1,0,.95,3.88,3.88,0,0,0-.2,1.67c.05,1.2.85,2.24,3.15,3.83,1.79,1.23,3.19,1.93,1,.17-3.76-3-4.44-4.27-2-3.22s5.8,0,8.19-1.82c.82,0,1.3-.16,1.73.16,1.78,4.17,3.24,9.72,5.61,15.1-2.83,3.18-12.68,11-19.71,10.71-6.06-.24-8.2-10.14-9.54-15.61A34.34,34.34,0,0,1,85.27,44a.35.35,0,0,1,.27-.06,11.6,11.6,0,0,0,3.65.12c1.62-.38,1.94-.67,2-.43s-.56.91-1.74,1.71c-.51.35-2,1.06-1.84,1.17.36.23,2.15-.72,2.46-1,.47-.4.79-.43,1-.21s.32,0-.55,2.14c-1,2.37-.86,2.59,1,4.05A8.08,8.08,0,0,1,93,52.75c.18.3.3.64.39.75.31.42.12-.26-.07-1.33a4.11,4.11,0,0,0-1.56-2c-1-.71-.86-1.4,0-3.81,2.49-7.11,1.86-10.28-.88-11.82-1.24-.7-4.71-.51-5.8.4-.54.45-.46-.43-.38-.49C91.23,30,92.77,25.66,94.45,21.51ZM107.15,25a76.47,76.47,0,0,1,5.59,6.14,24.2,24.2,0,0,1,1.79,2.93c.12.18.23.39.15.47s-.3-.12-.45-.23c-1.37-1-7-7.44-7-7.44C107,25.8,106.77,25.44,107.15,25Zm1.12,4.35s4.9,5.34,7.7,8a31.53,31.53,0,0,1,1.58,3.1c0,.12-.6-.33-.6-.33-3.1-2.85-6-6-8.94-9.08,0,0-.23-1.26-.24-1.77C107.84,29,108.14,29.24,108.27,29.34ZM118.89,43c.66,1.07,1.14,2,1.46,2.65.52,1,.35,1-.11.66-3.51-2.86-6.44-6.34-9.74-9.53-.43-.44-1.29-1.42-1.29-1.42s-1.07-2.3-.38-2.25c.54.21.9.8,1.25,1.17C111.81,36.14,115.11,39.32,118.89,43ZM88.32,35.39a4.51,4.51,0,0,1,3.59,1.21c.66.81.92,2.08.56,2.45s-1-.42-1-.42c-3.41-1.91-4.58-1-6.42-.43-.27.08-.55-.63-.21-1.33C85.49,35.71,87.21,35.42,88.32,35.39Zm21.42,1.8c3.64,3.64,7.34,7.68,11.28,10.81.55.47.93.77,1.18,1,.52,1,1.72,3.47,1.72,3.47-4.22-2.94-13.73-13.09-13.63-13S109.5,37.62,109.74,37.19Zm-7.12.6a5.77,5.77,0,0,1,2,.43c1.84.73,3,1.5,1.09,1.24a15.06,15.06,0,0,0-4.51-.22c-1.8.29-1.94.49-2.1.2C98.65,38.7,100.62,37.81,102.62,37.79Zm-15,.22a5,5,0,0,1,2.08.45c2.25,1,2.64,1.61.73,1.3a11.89,11.89,0,0,0-4.1.2,7.9,7.9,0,0,0-1,.37c-.46.15-.59-.19-.39-.77A2.64,2.64,0,0,1,87.61,38Zm16.23,2.85.47,0c-.58,3.27-3.85,3-4.73.15H100C101.76,43.71,103.05,42.13,103.84,40.86Zm1.82.17c1.52,0,1.42.89-.16,1.5-1.2.46-1.34.38-.9-.52S105,41,105.66,41Zm-15.57.12a2.12,2.12,0,1,1-4.22.27l.4,0c1.34,2.52,2.9,1,3.38-.25Zm1.83.4c.46.32.18.75-.83,1.37s-1.15-.12-.4-1.07A1,1,0,0,1,91.92,41.55Zm7.13,0c.18-.06.61.73.24.92-.21.12-.53-.21-.57-.45A.43.43,0,0,1,99.05,41.55Zm12.31.18A105.05,105.05,0,0,0,125,54.33a25,25,0,0,1,1.39,2.81c-.2.24-.3.22-.87-.06a92.31,92.31,0,0,1-14-13.57C111.29,42.86,110.88,42.23,111.36,41.73ZM85.2,42c.31,0,.75.68.51,1.1-.2.16-.51-.09-.64-.28a.77.77,0,0,1,0-.69A.21.21,0,0,1,85.2,42Zm27.31,4.17c0-.1,12.76,12.81,14.4,12.57.76.45,2.66,4.12,2.66,4.12s.05.33-.26.18C127.15,62,118.11,54.53,113.5,49A21.85,21.85,0,0,1,112.51,46.2ZM97.32,48.1c2.23,1.07,1.27,3.27-1.09,1.87-1.85-1.12-3.32-1.22-3.31-.25a1.1,1.1,0,0,0,1,.93,18.74,18.74,0,0,1,2.65.59c1.4.3,2.45-.07,2.8-.92a2.23,2.23,0,0,0-1.75-2.93c-.94.08-.7.53-.3.71ZM115,51.63A90.58,90.58,0,0,0,130.2,64.48a24.31,24.31,0,0,1,1.34,2.73c0,.19-.23,0-.23,0-4.49-2.58-10.41-7.71-16-13.52a14.82,14.82,0,0,1-.71-2.13C114.71,51.5,114.85,51.58,115,51.63Zm-14.79,2.56c-.2,0-.47.33-.8.52-.69.37-.9.47-2.58,0-.91-.27-1.06-.25-1.6.15a1,1,0,0,1-1.27.17c-1-.43-1.4-.12-2.28.19s-1.13-.07-1.89-.24a16.47,16.47,0,0,0,0,3.15s.79-.46,1.21-.68c.74-.37.63-.31,1.7-.27a8.44,8.44,0,0,0,4.21-.23,3.31,3.31,0,0,1,3.26.44c.55.45,1.28.38.86-.46a5.07,5.07,0,0,1-.45-1.73c.06-.59-.07-1-.29-1Zm16.89,2.37c3,2.87,6.69,7.24,15.39,12.31.45.79,1.06,1.84,1.45,2.66,0,.23,0,.43-.24.36a73,73,0,0,1-15.81-12.36,19.75,19.75,0,0,1-1.34-3C116.59,56.2,116.94,56.49,117.06,56.56Zm-1.26,1.1,3.32,6.22-11.2,0A43.44,43.44,0,0,0,115.8,57.66Zm-18.56.14c-1.84.73-2.12.88-3.94.44-1.06-.26-.77.35-.23.61a4.92,4.92,0,0,0,4.11-.32C97.67,58.21,98,57.5,97.24,57.8Zm-1.89,1.92c-1.93,0-3.74.7-3.88,1.48,0,.15.13.32.43.14,1.31-.79,4.55-1,7-.16.39.14.46-.1,0-.44A5.57,5.57,0,0,0,95.35,59.72Zm24.44,2.66a71.73,71.73,0,0,0,14.92,10.86,20.18,20.18,0,0,0,1.51,2.81C128.91,72.52,121,65.54,121,65.54a24.61,24.61,0,0,1-1.54-3.18C119.38,62,119.68,62.3,119.79,62.38Zm2.49,5.19A83.42,83.42,0,0,0,136.56,77c.31.3,1.08,2.11,1.33,2.3s-.31.19-.85-.09c-4-1.82-12.52-7.68-12.52-7.68C123.7,70.22,122.52,68.82,122.28,67.57ZM42.42,91.09a40.94,40.94,0,0,0,1.64-3.93,3.75,3.75,0,0,0,3.35-1.48c.92,0,1.63,0,2.88-.06,0-1.23,0-3,0-3,1.27-1.31,2.13-2.81.16-5.12,0,0-.08-1.08-.11-2.91a21.92,21.92,0,0,0-2.94,0,3.19,3.19,0,0,0-5.45,0s-1.31.07-2.21.08c0,.48-.18,2.65-.18,2.65s-3.83,2.61.15,5.68l-.06,2.59a16.74,16.74,0,0,1,2.25.19S40.4,89.28,39.4,91c-.34.09-.26-.11-.68-1.28a8.93,8.93,0,0,0-2.58-3.62c-1.29-1-3.06-1.31-4.3-2.17s-2-1.91-2.41-1.71a11.66,11.66,0,0,0,.19,4.37c.63,2.54,4.3,4.17,7.37,5.38.23.15.44.38.44.47,0,.42-.4.29-1.41.19a2.16,2.16,0,0,0-2.68,1.56,7.4,7.4,0,0,1-.85,1.23,5.44,5.44,0,0,0-.67.88,17.07,17.07,0,0,1-.67,1.59,3.34,3.34,0,0,0-.54,1.43,31.45,31.45,0,0,0,.18,5.81c.2,1.14,1.64,1.79,2.13,1.88.76.14.9.91.78,1.54-.59,3.1-2.38,5-3,4-.15-.27-.31-1.53-.35-1.52a4.08,4.08,0,0,0-.2,1.51,1,1,0,0,0,1.3.6c.88-.32,1.57-1.18,2.11-3.15.22-.8.43-1.25.81-1.31.69,0,1.77,1.47,1.77,1.47-3.59,3-10.48,8.4-10.48,8.4V20.77H82.33A49,49,0,0,1,78.91,42c-3.31,7.43-8.44,13-12.37,19.8A36.51,36.51,0,0,0,61.9,87.28a58.65,58.65,0,0,1-12.8,12.3l-4.52-4.75s.68-.06,1.48-.09c3.68-.41,7.66-.93,9.2-4.75.22-.43.13-.62-.13-.68-2.88.4-5.39,0-7,.11-4,.29-5.69,1.67-5.69,1.67Zm.44,2.81s-4.62-2.19-5-2.25c-2-.37-6.87-2.89-7.69-4.61-.11-.22-.38-3.36-.47-4,0-.2.12-.2.32-.05.52.36,2.53,1.67,3.27,2,3.08,1.48,4.27,2.54,5,4.78a7,7,0,0,0,.49,1.27c.25.26.35.24.66,0A15.1,15.1,0,0,0,42,86.14c.08-.2.25-.41.15-.7-.24-.81-.83-1.85-.22-2.64-1.93.09-3.77-1.31-3.54-2.72.52-2.6,1.63-2.13,3.7-2.51-.24-6,5.41-4.56,5.4-.37,6.2.53,3.27,6.25-.34,5.37,1.43,3.26-2.86,4.48-3.46,3.92-.25,1.05-1.88,4.44-2.23,5.44,4.6-3.25,12-1.8,13.07-2C51.89,95.49,43.15,94.13,42.86,93.9Zm82.82-20.51c1.17.89,11.07,7.07,12.9,7.21,0,0,.87,1,1.6,1.87s.92,1,1,1.13-.25.15-.3.15c-4.46-1.93-9-4-12.85-7.17a4.6,4.6,0,0,1-.89-1C126.79,75.15,125.79,73.55,125.68,73.39Zm3.28,5c4.53,2.53,8.38,5,12.51,6.32a5.4,5.4,0,0,1,1.18.44c.29.21,1.55,1,1.85,1.16,1.88,1.1,2.08,1,1.61,1.23s-3.82-.76-6.62-1.79c-5-1.83-6.71-2.86-8.5-4.47C130.59,80.84,128.7,78.59,129,78.37ZM38.66,92.52a3,3,0,0,1,1.63.72,21.41,21.41,0,0,0,3,1.9l.46.19,4.46,5-11.47,9.3s-.93-1-1.23-1.27-.2-.55.15-.89a1.55,1.55,0,0,0,.26-1.16,1.22,1.22,0,0,1,.49-1.32,1.24,1.24,0,0,0,.48-1,1.55,1.55,0,0,1,.63-.82,1.75,1.75,0,0,0,.77-2.13c-.11-.35-.17-.44.29-.75a2.11,2.11,0,0,0,1.08-1.86,1.25,1.25,0,0,0,0-.35c-.16-.85.59-.64,1.2.42a8.53,8.53,0,0,1,.6,2.61c.2,1.28.34,1.62.41,1.44.39-1-.08-4.88-1.25-5.41-1.73-.76-3.16-2.33-2.73-2.94.15-.21.17-.14,1.22.35a9.49,9.49,0,0,0,1.27.51c1.22,0,.48-.48.08-.53a5.52,5.52,0,0,1-2.06-1.23C38.12,92.78,38.28,92.53,38.66,92.52Zm-2.94.66c1.13,0,1.34.29,1.35,1.25,0,.57.22,1,1.11,2.14.37.46.61.81.59,1s-.15,0-1.38-.16c-.44,0-.67-.06-.82.17-.42.63-1.32,0-1.88-1C33.37,94.42,33.84,93.2,35.72,93.18Zm21.36,1.34,12.19,14.87-1.38,1.07L55.66,95.78Zm-2,.91,1.3,2.2s-3.77,3.22-4.77,4.12c-8,6.49-26.14,21.2-26.14,21.2l-.25-3Zm-22,.4c.24,0,.51.3.9.89A12.73,12.73,0,0,0,35.74,99c1.49,1.37,1.63,1.25.43,1.38-.48,0-.64,0-.93.72-.89,1.1-3.5-2.84-2.89-4.35C32.59,96.11,32.79,95.82,33,95.83ZM37.28,98a1.61,1.61,0,0,1,.85.27c.65.27.69.42.59,1s-.56.74-1.44,0C36.61,98.6,36.72,98,37.28,98Zm19.46.36,1.44,1.84L25.71,126.38v-3C26.5,123.46,47.31,105.4,56.74,98.32Zm-25.21.3c.08,0,.22.28.58.82a9.26,9.26,0,0,0,2.18,2.4c.72.55.81.86.31.86a.91.91,0,0,0-.66.49c-.31.52-.34.4-.81.12a3.5,3.5,0,0,1-1.63-1.78,5.16,5.16,0,0,1-.08-2.68C31.46,98.7,31.49,98.63,31.53,98.62Zm5.13,2.09a1.07,1.07,0,0,1,.88,1.71c-.31.3-.58.44-1.19.08-.8-.47-.94-1.19-.29-1.6A1.35,1.35,0,0,1,36.66,100.71Zm-5.33,2.08c.17,0,.49.25,1,.78a6.43,6.43,0,0,0,1.39.93c.63.35.66.47.32.75-.15.12-.63.13-.76.51-.37,1.08-1.95-.18-2.1-1.73C31.11,103.24,31.1,102.8,31.33,102.79Zm4,.13a1,1,0,0,1,.7,1.84c-.45.33-1.59-.24-1.7-.84C34.23,103.54,34.9,102.91,35.3,102.92Zm24.24.9a1.09,1.09,0,1,1-1.08,1.08A1.08,1.08,0,0,1,59.54,103.82Zm-3.25.45a1.09,1.09,0,1,1-1.09,1.08A1.08,1.08,0,0,1,56.29,104.27Zm-21.81,1.45a.74.74,0,0,1,.21,0c1,0,1.05,1,.46,1.5a.76.76,0,0,1-1.14,0C33.19,106.61,33.5,105.77,34.48,105.72Zm24.24,1.59a1.09,1.09,0,0,1,0,2.17,1.09,1.09,0,1,1,0-2.17Zm95.6.06v2.74L115.9,142l-1.3-1.69Zm-97.81.23L53.66,114l-.85-1.64H50.68l.66-1.9-1.26-1.52ZM117,134.07l5.06-4c-2.18-11,6.51-15.32,14.77-12.13l5.14-4.37C132.45,105.53,110,111,117,134.07ZM48.57,112.66a1.09,1.09,0,1,1-1.09,1.08A1.08,1.08,0,0,1,48.57,112.66Zm-3.31.26A1,1,0,0,1,46.31,114a1.07,1.07,0,1,1-1.05-1.06Zm17.59,2.21-5,4C59.13,129.62,54,135,43,131.37l-5.32,4.21C52.07,145.44,70.88,132.73,62.85,115.13Zm-15.44,1a1.09,1.09,0,1,1,0,2.17,1.09,1.09,0,1,1,0-2.17Zm105.52.27a1.09,1.09,0,1,1,0,2.17,1.09,1.09,0,1,1,0-2.17Zm-107.77.26L42,122.93l-.79-1.9-2.16,0,.7-2.21-1.35-1.13Zm103.46.67,1,1.67,2.1,0-.79,1.59,1.52,1.57-6.86,1.68ZM37.51,121.87A1.09,1.09,0,1,1,36.42,123,1.08,1.08,0,0,1,37.51,121.87Zm-3.13.12a1.09,1.09,0,1,1,0,2.17,1.09,1.09,0,1,1,0-2.17Zm108.94.65a1.09,1.09,0,1,1-1.09,1.08A1.08,1.08,0,0,1,143.32,122.64Zm11.13.16v2.41l-31.2,25.87-1.31-1.68ZM36.56,125.15a1.09,1.09,0,1,1-1.09,1.09A1.09,1.09,0,0,1,36.56,125.15Zm109,.26a1.09,1.09,0,1,1-1.08,1.09A1.09,1.09,0,0,1,145.54,125.41Zm-3.08.2a1.09,1.09,0,1,1-1.09,1.09A1.09,1.09,0,0,1,142.46,125.61Zm12.17.38-.09,3.07c-9.72,8.27-29.6,24.68-29.53,24.69l-1.51-2.07S145.3,133,154.63,126Zm-120.07-.45-3,6.75-1.29-1.82-1.9-.13.45-1.82-1.73-1.18Zm104,2.67,1.91-.36-.33,2,1.35,1.41-7.06,1.54,3.41-6.3Zm10.54,32.86c1.43,2.13,1.34,4.46.74,4.82-.63-.35-1.18-1-1.83-1.25-3.29-1.41-5.91-2.57-6.38-4.65C139.83,155.29,147.9,159.3,149.09,161.07Zm-17.27-12.49,11.05-9a11.46,11.46,0,0,1,2,1.26c.11.44-.19.57-.64,1a1.55,1.55,0,0,0-.35,1.09c0,.61.19.89-.06,1.16-.42,0-.75.52-.73,1s-.43.71-.69,1c-.45.45-.59.54-.88,2.06,0,.15,0,.55-.24.75-.64.06-1.1,1.62-1.39,1.72a1.85,1.85,0,0,1-1.39-1.44,7.39,7.39,0,0,1,0-2.29,6.54,6.54,0,0,0,.18-1.74c-.12-.46-.42-.18-.42.46a11.3,11.3,0,0,1-.26,1.76c-.16.73-.61,1.7-.41,2.28.3.86,1.4,1.22,1.9,1.67a7.19,7.19,0,0,1,1.74,2.05c1.05,1.91,1.05,2.23.79,3.67-.15.82-1,.68-1.44.35,0,0-3.11-2.26-4.47-3.38a15.11,15.11,0,0,1-4.35-5.36Zm4.19,6.17a35.45,35.45,0,0,1,4.27,2.71l-2.81,5.83a11.13,11.13,0,0,1,.72,3.19c3.56-.28,5.48,5.7-.06,5.15.64,3.69-5.33,6.59-5.17,0-6.22.48-4.13-6.54-.3-5.23-.11-3,1.88-3.36,3.28-4.09a12.59,12.59,0,0,0,1.86-4.23l-.28-.9h0c-1.18,2-6.2,2.64-11.72,1.55,1.49-3.53,6-3.42,10.21-3.95Zm-11,4.44c-.19.7-.19.69.66.61.43-.05,2.16,0,3.36,0,2.22.17,5.72.18,7.47-1.15.34-.32.53-.3.59-.12.15.86-1.55,3.69-1.55,3.69l-2.81,1.54s-1.15.06-2.57,0l0,2.52a3.26,3.26,0,0,0,.05,5.64l-.1,2.75,2.71.05c1.8,1.71,3.27,1.71,4.92.09h3.13v-3a3.26,3.26,0,0,0,.18-5l0-3-2.41,0s-.49-.39-.51-.69a40,40,0,0,1,2.1-4.06c.43-.63.32-.27,1,1.18,1,2.07,2,2.91,4.53,4.14a14.06,14.06,0,0,1,3.73,2.22c.52.5.83.35,1-.4a6,6,0,0,0-.61-4.82c-1.92-3.19-5.28-3.34-5.82-4.08-.06-.17.62-.38,1.35-.7a10.37,10.37,0,0,0,3.37-4,5.9,5.9,0,0,1,.48-2.18,4.62,4.62,0,0,0,.27-2.32,5.29,5.29,0,0,1,.08-2.35,5.14,5.14,0,0,0-.88-2.81c-.22-1.05-.17-.77.5-3.13.11-.38.88-3.65-.1-3.88,0,0,.1.13.13.19a5.56,5.56,0,0,1-.14,3.06c-.76,2.63-.78,2.93-1.47,2.71a16.56,16.56,0,0,1-1.42-1,13,13,0,0,1,.25-2.46c-.16.42-.26,1.49-.74,1.74-.26.06-.62-.17-1.3-.75-.25-.22-.81-.61-.81-.61s7.85-6.71,10.82-8.93v99.31l-56.36,0c-.7-6.15,1.15-14.29,4.22-22.44,1.9-5,4.63-8.77,7.7-13.28,5.9-8.6,10.36-17.33,8.64-28.4a17.44,17.44,0,0,1-.37-2.87,32.15,32.15,0,0,1,5.63-7.1c3-2.48,7.3-6.2,7.64-6a13.4,13.4,0,0,0,3.8,4.71c.28.3.28.57-.36.7-4.21,0-8.54.89-10,4.6ZM27,131a1.09,1.09,0,1,1-1.09,1.08A1.08,1.08,0,0,1,27,131Zm105.58.24a1.09,1.09,0,1,1-1.09,1.09A1.09,1.09,0,0,1,132.55,131.22Zm2.37,3a1.09,1.09,0,1,1-1.09,1.08A1.08,1.08,0,0,1,134.92,134.2Zm-3.52.46a1.09,1.09,0,1,1-1.09,1.09A1.09,1.09,0,0,1,131.4,134.66Zm-3.89,2.47,2-.09a14.46,14.46,0,0,0-.52,2.16l1.6,1.17-6.94,1.18,3-6.13ZM122.78,155l-11.69-15,1.41-1.14,11.78,14.88Zm-1.43-14.61a1.09,1.09,0,1,1-1.09,1.08A1.08,1.08,0,0,1,121.35,140.4Zm24.53,1.68c1,.73,0,1.76-.9,1.36a.76.76,0,0,1-.11-1.44A.9.9,0,0,1,145.88,142.08Zm1.26.7c1,0,2.05,2.31,1.85,3s-.55.81-1.92-.35-1.38-1.19-.83-1.8c.3-.35.45-.82.9-.84Zm-23.1.42a1.09,1.09,0,1,1-1.09,1.09A1.09,1.09,0,0,1,124,143.2Zm-3.38.42a1.09,1.09,0,1,1-1.08,1.08A1.08,1.08,0,0,1,120.66,143.62Zm23.92.77c1.07.16,1.35,1,.86,1.57-.67.82-2.18.08-1.82-.89a1,1,0,0,1,1-.68Zm1.92,1.22c.43,0,1.06.55,1.75,1.51s.84,1.43.62,2.09c-.32,1-.52,1.14-1.22.2-.26-.35-.88-1.18-1.31-1.64-.94-1-1.08-.73-.53-1.47C146.07,146,146.25,145.64,146.5,145.61ZM144,146.75c1,.5,1.06,1.14.49,1.6a1.67,1.67,0,0,1-2.09-.73C142,146.65,143.07,146.16,144,146.75Zm1.63,1.43c.55,0,1,.53,1.67,1.6,1.13,1.83,1.2,2.45.23,3.66-.7.86-.77.91-1.45-.47a10.79,10.79,0,0,0-2.6-3.25c-.41-.33-.56-.8-.26-.83l.8,0a1.23,1.23,0,0,0,1-.37A1,1,0,0,1,145.61,148.18Zm-3.92,1.43a2.19,2.19,0,0,1,1.66.81c.55.59.49,1.12-.6,1.22-.49.19-1.82-.68-1.83-1.26A.73.73,0,0,1,141.69,149.61Zm2.57,2.12h.08c.45,0,.69.46,1.2,1.49.79,1.58.56,2.43-.8,3.13-.92.47-1.63.61-1.75.07,0-.15,0-.61-.11-1a4.63,4.63,0,0,0-.76-2c-.83-1.25-1-1.7-.06-1.33a1.77,1.77,0,0,0,1.56-.11,1.57,1.57,0,0,1,.64-.22Zm-4.62,2.54c-.32,0-.52.18-.43.7.28.14.74,0,1.08.13s.75.92,1.24.79c.05-.63-1.19-1.61-1.89-1.62Zm-94.25,11c-2.55-1.21-8.85-4-11.89-4-5.63-1.58-5.82-.86-7.79-1.37a20.91,20.91,0,0,1,20.09,5C47,166.05,46.34,165.71,45.39,165.25ZM52,189.82c6,10.35,11.56,22,20.91,39.29l-.89.28-35.67.07c1.76-19.09-8.58-37.28-9.28-36.56,8.08.14,14.78-1.41,16.2-4.38l-1.15-.33c-4.7,4.05-11.75,4.24-16.45,3,.1-9.94-.31-20.45,0-30.39a14.28,14.28,0,0,1,13.07,5.67C44,173.25,47.47,181.9,52,189.82ZM35.69,162.26c1.43-.1,9.23,3.1,12.73,5.49a20.66,20.66,0,0,1,2.39,2.91c0,.46-.69-.11-4.06-2A79.3,79.3,0,0,0,39,165l-.36-.15a3.93,3.93,0,0,0-.51-.47c-.92-.71-2.71-2-2.41-2.08Zm3.79,3.63a58,58,0,0,1,14,7.75,11.36,11.36,0,0,1,1.84,3.11c-.55-1-10.38-6.9-13.83-8.25C41.45,168.5,39.48,165.89,39.48,165.89Zm2.76,3.75c.43-.25,11.86,6.48,13.54,8.22a11.67,11.67,0,0,1,2.54,3.95c0,.51-.55.07-1.57-.87a54.49,54.49,0,0,0-12.94-8.52Zm2.12,3.91c5.37,2.27,12.12,7.72,15.52,11a6.33,6.33,0,0,1,1.58,2.62c.07.35-.11.33-.18.52-4.41-5.05-14.11-10.82-15.4-11.27A20.41,20.41,0,0,1,44.36,173.55Zm17.83,15.74c.62.63,1.6,2.83,1.38,3.1s-.09.06-.35-.12A101.15,101.15,0,0,0,48.5,180.85c-.57-.28-2.47-3.27-2.07-3.33,3.16,1,12.21,8.23,15.76,11.77Zm-13.08-7.16a2.52,2.52,0,0,1,.61.32c5.57,3.06,13.64,10.76,15.17,12.62a5.13,5.13,0,0,1,.85,2.26c-.07.5-.27.07-2.52-2.14A81.44,81.44,0,0,0,51,185.38c-.85-.58-.69-.66-1.3-1.72S48.88,182.11,49.11,182.13Zm35.59.11c4,.12,5.53,3.12,8,8.64A45.34,45.34,0,0,1,95.6,205.3c0,.26-.48,0-.7,0a7.45,7.45,0,0,0-3.93-.17c-1.12.29-2.2.25-1-.5.38-.25,1.39-1.18,1.92-1.51,1.09-.68.43-.67-.65-.14-.82.4-1.36.91-1.7,1s-.08-.63.12-1.12c1.15-2.84,1.5-4.51-.22-5a4.24,4.24,0,0,1-1.39-.86c-.23-.23-.43-1.14-.51-1.18s-.13.83-.13,1a3.23,3.23,0,0,0,1.29,1.88c1.2.85,1.44,1.09.79,3.12-.91,2.84-1.11,3.53-1.28,4.19-.09.38-.28,1-.37,1.44a15.4,15.4,0,0,0-.25,4.36c.39,3,3.62,4.46,8,2.8.41-.16.58,0,.58,0-3.45,3.51-7.33,5.74-9.59,12.82-2.91-5.84-7-10.41-13.87-12.25l-.1-1.21c2.39,1.14,7,2.69,10,.94,1.58-1.07,1.1-1.76-.81-1-2.27.88-6.38.78-8.43-.37a1.1,1.1,0,0,0-1,0c-.11-.68-1.09-3.27-1-4.24-.08-.14.62-.14.76,0A9.06,9.06,0,0,0,78.53,212a5.46,5.46,0,0,0,4-1.89c.11-.1.64-.17.71-.25s0-.32,0-.39-.22-.39-.35-.7a1.23,1.23,0,0,1-.17-.8c0-.19.13-.29.22-.42a1,1,0,0,0,0-.73.46.46,0,0,1-.09-.67c.41-.46-3.48-4-4.24-4-.28,0-.12.51.44.88,2,1.31,3.42,3,3.09,3.24s-1.13-.2-2-.41a7.1,7.1,0,0,0-6.33,1c-.88.72-3.21.83-3.21.83,0-1.27-5.39-15.39-5.4-14.78,2-2.26,8.08-7.63,14.22-9.95a13.43,13.43,0,0,1,5.28-.75ZM61.42,185.4l11.14.18c-2.8,1.4-7.89,6.45-7.89,6.45C63.21,189.11,62.77,187.65,61.42,185.4Zm-9.64,1.47c.83,0,9.68,7.19,10.94,8.89.15.2,1.05,1.15,2,2.09,2.29,2.29,3.23,3.61,3.24,4.56,0,.44-.4.15-1-.52a65.1,65.1,0,0,0-13.23-11.72c-.64-.35-2.64-3-2-3.29Zm30.27,1.32c-.25,0-.21.23-.08.45,1.41,1.24,5.11,1.19,6.39.19s-.36-.43-.83-.23a5.71,5.71,0,0,1-3.84,0,14.1,14.1,0,0,0-1.64-.42Zm3.41,2c-1.29,0-2.65.4-2.35.87.11.18.47.5,1.32,0,1.22-.6,3.73.19,3.81.21.25.07-.84-.72-1.2-.88A4,4,0,0,0,85.46,190.21Zm-31.23,1.34c4.75,2.9,10.55,8.71,14,12.85a4.12,4.12,0,0,1,1,2.11c0,.74-.15.33-3.31-2.86a91.63,91.63,0,0,0-8.69-7.82c-1.48-1.08-1.75-1.22-2.45-2.5S53.91,191.53,54.23,191.55Zm29.62,1a4.46,4.46,0,0,1-3.23-.06c-1.05-.36-.8-.05-.41,1.08a7,7,0,0,1,.3,1.36c0,.25,0,.27.74-.14s.78-.48,2.15-.16,1.41.2,2.07-.14.69-.47,1.08-.32a2.93,2.93,0,0,0,2.61-.07,1.1,1.1,0,0,1,1.34,0c.47.24.66.09.47-.38a7.61,7.61,0,0,1-.22-1.24c0-.48-.12-.92-.32-.81a4.77,4.77,0,0,1-2.08.76c-1.31,0-2.46-.81-4.5.08Zm-58.14,1c11.85,14.72,10,35.94,9.56,35.77l-9.56,0Zm31,3a73,73,0,0,1,13.49,13.07c.53.69.1.91.37,1.74.09.31-.43-.15-1.93-1.76-1.88-2-5-5-7-6.77a24.23,24.23,0,0,1-3.33-3C58,199.17,56.45,196.56,56.74,196.48Zm26.64,1.36h-.14a1.82,1.82,0,0,0-1.1,3.29c.54.5,1.4.8,1.4.53a1.74,1.74,0,0,0-.46-.48c-1.2-.92-1.08-2.36.29-2.37.47,0,.5.16,1.6.94,1.29.93,2.81.93,2.8,0,0-.68-.27-1.38-1.42-1.27a2.38,2.38,0,0,1-1.83-.38A3,3,0,0,0,83.38,197.84Zm-23.56,4.33c3.62,2.42,8.6,7.91,11.14,11.14a2,2,0,0,1,.39,2.05c-.06.09-.5-.19-.5-.19-2.94-3.45-6.28-6.59-9.55-9.78C61.3,205.39,59.35,202.27,59.82,202.17Zm35.11,5.24-.78.39C93,206,91.88,206,91,208.08l-.58-.15c-.44-.48,1.56-5,4.54-.52Zm-.18-1.51c.33,0,.9.19,1,.52a.43.43,0,0,1-.46.64,4.11,4.11,0,0,1-.72-.86C94.44,206,94.51,205.9,94.75,205.9Zm-13.3,2.17-.87,0c-1.67-2.18-2.92-.72-3.67.2l-.93-.13C76.13,205.78,80.38,204.94,81.45,208.07ZM90,206.21a1.07,1.07,0,0,1,.39.07,3.22,3.22,0,0,0-.49,1.43c-.34.14-.82.43-1.18.06C88,207.16,89.05,206.19,90,206.21Zm-13.68.24c.42,0,.29,0,.11.2a4.25,4.25,0,0,0-.56,1c0,.26-.1.36-.34.36a10.7,10.7,0,0,1-1.39-.14C73.75,207.56,75.22,206.49,76.29,206.45Zm5.3.31c.28,0,.21.36.12.51s-.24.27-.34,0a1.19,1.19,0,0,0-.18-.3c-.13-.17-.12-.18,0-.21ZM95.9,208.5c1,0,.34,1.7-1.08,2.12a5.34,5.34,0,0,1-5.19-.44c-1-.59-1.36-1.22-.45-1,3.42.94,4.25.77,6.32-.56A.6.6,0,0,1,95.9,208.5ZM63,208.13c3.41,2.88,6,6.14,8.7,9.14a2.33,2.33,0,0,1,.7,1.76c-.13.54-1.25-.76-1.25-.76s-6.66-7.1-6.66-7.1A20.79,20.79,0,0,1,63,208.13Zm10.19,1a10.13,10.13,0,0,1,1.47.31c3.27,1,4.27,1,6.15.09,1.2-.54,1.7-.47,1.19.36-1,1.52-4.29,1.69-6.8.84a7,7,0,0,1-1.89-1.09C72.92,209.27,72.84,209.11,73.14,209.12Zm15.12,1a2.88,2.88,0,0,1,1,.46c2.75,1.56,4.78,1.27,6.47.23.31-.28.47-.15.51.12.15.95.19,1.63-.24,2.09a3.61,3.61,0,0,1-1.33.6c-2.66.89-5.9.25-6.52-1.74C88,210.87,87.83,210.16,88.26,210.13ZM66.47,214.4a0,0,0,0,1,0,0c.19,0,.63.41,1.33,1.2,3.66,4.14,5.68,6.51,5.31,7.71,0,0,0,.26-.21.12a24.27,24.27,0,0,1-4.87-5.6C66.72,215.66,66.17,214.42,66.47,214.4Zm29.47,2.91c-3.08,2.35-6.82,7.95-7.16,10.7-.06.53,0,.93-.2,1.12s-.51.16-1,.07c-.28,0-.21-.08-.28-.41-.27-1.26,1-4.43,3.46-8.18,1.31-2,4.31-4.62,5.14-4.63C96.48,216.21,95.94,217.33,95.94,217.31ZM73.1,216a2.7,2.7,0,0,1,1,.31,19,19,0,0,1,5.6,3.07c3.34,2.72,7,9.16,6,9.77-.48.26-.82.1-1-.5a15.28,15.28,0,0,0-.81-1.78A20.07,20.07,0,0,0,74.61,218c-1.52-.74-1.67-.66-1.79-1.28C72.73,216.24,72.82,216,73.1,216Zm22.8,2.37c.28,0,.34.48.25,1.5-.08.82-.13.81-1.05,1.78a15,15,0,0,0-4,6.86.62.62,0,0,1-.21.43c-.38.33-.86.17-1.19.16s-.17-.64-.13-.93a20.94,20.94,0,0,1,5-8.58C95.21,218.83,95.65,218.42,95.9,218.4Zm-22.23.07c1.47,0,6.68,3.85,8.79,7.25,1.38,2.22,1.75,3.13,1.43,3.45a1.74,1.74,0,0,1-1.29.05c-.36-.14-.49-.67-1.15-1.91a15.29,15.29,0,0,0-6.89-6.8,2.87,2.87,0,0,1-.93-.55C73.45,219.59,73.22,218.55,73.67,218.47Zm.79,2.89A11.75,11.75,0,0,1,77.23,223c1.86,1.36,4.7,5.53,4.11,6.12a1.41,1.41,0,0,1-1.17.07A21.92,21.92,0,0,0,74.53,223C74.22,222.48,73.47,221.22,74.46,221.36Zm-4.14.62c.08,0,.43.32,1.07,1,1.87,2,3.06,4.13,2.78,5.22-.23.93-.5.42-2.64-3.65C70.62,222.82,70.19,222,70.32,222Zm25.61.06a6.41,6.41,0,0,1-.17,2c-.08.41-.35.6-.61.91a11.61,11.61,0,0,0-1.72,3.26c-.31.89-.16,1.11-1.26,1-.52-.07-.39-.21-.19-.79.69-1.94,2.35-5.06,4-6.37Zm-21.28,2.12c0-.58,5,4.44,4.34,5-.65.12-1,.14-1.31-.09a18.49,18.49,0,0,0-2.92-3.46Zm21,1.58h0a9.54,9.54,0,0,1-.09,3.39,1.81,1.81,0,0,1-1.39,0,.45.45,0,0,1-.2-.58C94.21,228,95.29,225.82,95.65,225.74Zm-18.87,3.39c-.16.25-1.13.29-1.49,0a4.5,4.5,0,0,1-.1-1.9C75.56,227,76.91,228.8,76.78,229.13Z"/><path id="path3389-2-3-5-0" d="M112.34,19.54l.63.82-3.67,0c.6.51,14.17,27.73,31.52,59.18,2.87,5.51,8.34,7.5,14.7,7.74l-16.84-27c1.79-1,5.35-3.59,7.51-3.1.13.66.77.39.78-.19h.78l.27.43h3.28l.27-.39,2.82.41c-7.54-9.27-11.52-23.55-10.23-37.49l-25,0-.34-.44Zm-3,.84h0ZM80.55,38.53c-2.85,9.15-9.88,16.69-14,24.27C62,71.08,61,78.28,62.23,86.16l.82.07A135.45,135.45,0,0,0,84.12,42.5c.09-.34-.07-.92,0-1.26a1,1,0,0,1,.09-1c.24-.25.15-1.24,0-2.87a66.3,66.3,0,0,1,0-13.08c.31-3.38.29-3.91.29-3.91l-1.63,0A50.38,50.38,0,0,1,80.55,38.53Zm39.28-17.75,2.68.06c.42,8.18,7.33,9.24,8.39,9.12-1.76,5.53,1.16,11.6,8.19,12.46-1.61,5.13,1.25,11.89,6.87,11.71l.6.37a6.68,6.68,0,0,0-.42,2.28,18.45,18.45,0,0,0-2.74.43C136.13,46.28,119.83,20.78,119.83,20.78Zm23.86,0c-.82,9.14,1,21.69,5.33,29.1a3.65,3.65,0,0,1-.23.63c-.41.62-.61.09-.86-.41-.92-1.69-2.65-2-3.41-1-1.68,2.27.14,3.17,1.55,4.46-5.76-.35-7.68-6.67-6.35-9.8a4.12,4.12,0,0,0,.71,2.13c1.62,2.45,4,.39,3.31-1.55a11.05,11.05,0,0,0-1.31-2.14,7.2,7.2,0,0,0,2-.55,1.59,1.59,0,0,0,.74-1.72,3.41,3.41,0,0,0-.49-1.51,2.3,2.3,0,0,0-1.79-.85c-1.19.08-1.34.89-2.12,1.45-.19-1.47-1.13-2.59-2.67-2.31a2,2,0,0,0-1.3,3c.36.8.87,1,1.38,1.73-8.28-.93-7.37-10.73-6.46-10.55,0,0,.25-.05.18.33-.47,2.39,2.51,3.83,3.82,2.08.84-1.41-.95-3.64-.95-3.64a8.29,8.29,0,0,0,1.73-.57c2.16-1.24-.14-4.81-2.15-3.94-.71.32-.89,1-1.58,1.32-.46-.51-.48-1.07-1.31-1.52-2.27-1.26-3.69,1.72-2.44,3,.52.53,1.43,1,1.25,1.08-7-.89-7-8.23-6.81-8.18Zm-60.5.06h1c-.29,4.36-.91,10.11-.51,14.36.48,4.06.5,4.63.21,5s-.19.66-.11,1a2,2,0,0,1,0,1.05,90.61,90.61,0,0,1-3.33,10.51C75.91,65.27,68.52,78.85,62.72,86c0,0-.26,0-.26,0A35.92,35.92,0,0,1,66,64.35c3.58-6.89,9.22-12.77,12.56-20a49.63,49.63,0,0,0,4.6-23.52Zm35.65,0,23.61,36.6-4.31,2.11L114,20.94ZM132.68,28a1.11,1.11,0,1,1-1.11,1.11A1.11,1.11,0,0,1,132.68,28Zm7.83,12.21a1.12,1.12,0,1,1-1.12,1.11A1.12,1.12,0,0,1,140.51,40.16ZM84.26,42.34c.4,1.59-7.49,25.53-18.71,40.76l4.9.1.15.54c6.86,10.1,2.57,19-3,23.19l1.92,2.55-1.73,1.4-1.73-2c-14,10.5-41.45,33.75-41.45,33.75l.16,3.73,2.13-1.68c13.91,13.42,43.38,12.68,51.12-15l2.07,0c-4.68,20.3-23.71,28.25-38.07,24.88l-3.36,4.82.9.48c-.17-.26-.32-.34-.07-.58l2.85-3.67c21.49,2.75,34.46-9.38,38.67-25.8l2.74.05a66.62,66.62,0,0,1-18.09,35.44c-6.67,0-18.41-.18-18.41-.18,4.28,4.13,12.44,16.73,12.76,18,0,0,8.4.27,17.41,0,3.3-1.48,7.72-2.08,9.78-1,3.62,1.82,7,8.58,8.56,19.42.4,2.8.76,4,.86,4.54,0,.11.27.18.31.16s-.22.49-.24.91a2.37,2.37,0,0,0,.2,1.28.55.55,0,0,1,.19.58,4.38,4.38,0,0,1-.51.53c-.08,6.32,0,12.05-.39,19.82h1.25c0-12.5,3.77-24.07,9.6-32,3.55-5.22,7.3-10.86,9.37-16.22a30.54,30.54,0,0,0,1.41-17.73l-.85,0c-5.13-3.5-7.22-11-.9-16.33l-2.24-2.9c-6.31,4.87-7.76,13.84-1.22,21.26h-2.56c-6.38-7.93-5-17,2.41-23.55l-1.65-2.09,1.79-1.57,1.62,1.76,41.14-34.27,0-3.75-3.16,2.55c-18.45-17-45.82-5.07-49.83,15.42l-2.51,0c5.26-22,24.64-28.28,38.66-25.35L142,89.4A20.66,20.66,0,0,1,134.6,85a18.43,18.43,0,0,1-2.33-2.19c-6.64-7-11.15-16.71-11.36-16.73l-18,0c-2.65,1.3-7.19,2.79-9.67.79-5.35-4.31-7.14-13-7.88-18.57-.22-1.74-.41-4.77-.57-5.77a.41.41,0,0,0-.48-.16Zm64,9.65a1.09,1.09,0,1,1,0,2.18,1.09,1.09,0,0,1,0-2.18Zm2.35,1.28a13.29,13.29,0,0,1,2.12,3.59c-.42,0-.81.12-1.27-.24a5,5,0,0,0-1.28-2.87Zm-3.3,1.62a2,2,0,0,1,.4,1.79c-.44.09-.74.06-.89-.1A1.91,1.91,0,0,1,147.32,54.89ZM75.52,66.83l16.76,0c2.91,2.22,5.76,1.93,9.9.14h18.64l1.05,1.91H74.61C74.87,68.19,75.52,66.83,75.52,66.83Zm-1.39,3h48.24l1.22,2H72.94Zm4.66,2.84H84.2L82.2,76H76.61Zm12,0H96L93.67,76H88.55Zm16.71,0L105.34,76h-5.25l2.25-3.36Zm6.48,0h5.17L117.22,76h-5.35Zm-69.49.53c-3.35,0-2.73,4.39-2.41,4.25C40,77,38.43,78,38.17,79.74a3.08,3.08,0,0,0,3.61,3.16,3.9,3.9,0,0,0,.33,2.71s0,.31-1.24,3c-1.52,3.17-1.83,3.32-2.52,1.24-.75-2.24-1.9-3.37-4.89-4.82a18.77,18.77,0,0,1-2.5-1.5c-1.34-1-1.36-1-1.29,1,.08,2.65.88,3.81,3.72,5.37a20.36,20.36,0,0,0,4.52,1.84,14.58,14.58,0,0,1,3.42,1.53,8.46,8.46,0,0,0,3.17,1,16.26,16.26,0,0,0,7.63-1.53c1.23-.71,1.7-1.34,2.6-3.15a21.17,21.17,0,0,1-4.51-.21c-2.94-.17-4.4,0-6.63,1.16-1.86,1-2,1.13-1.19-.46a23.14,23.14,0,0,0,1-2.45c.32-.86.41-.93,1.23-1a3,3,0,0,0,3-3,5.15,5.15,0,0,0,0-1c1.22.18,3.71-.42,3.63-2.94-.07-2.26-1.68-2.78-3.67-2.93A3.17,3.17,0,0,0,44.5,73.18Zm0,.7c2.94,0,2.87,2.71,1.59,4.23l-1.56-1.28L43.31,78C41.94,77.12,41.94,73.86,44.54,73.88Zm80.41,0L126.4,76h-3ZM70.08,77h5.54L73.4,80.08H68.17S69.34,78.09,70.08,77Zm17.45,0L85.44,80.2H80.6L82.54,77ZM94,77h5l-2,3.44H92.09Zm11.77,0h5.06l-2.06,3.44h-5Zm11.46,0h5.22l-2.15,3.44h-5Zm-72.62.64,2.48,2.5-2.42,2.42-2.5-2.39ZM50.92,80c-.44,2.9-3.25,2.75-4,1.33L48,80.07l-1.4-1.38C48,76.52,51.25,77.85,50.92,80Zm-8.35-1.39-1.34,1.51,1.47,1.41c-1,1.32-4.6,1.22-3.87-1.95A2.08,2.08,0,0,1,42.57,78.65Zm85.23-.37,1.54,2.11-2.88,0Zm-60,2.59,61.87.2,1.66,2c-21.61.37-42.76-.35-64.83-.36ZM46,82.18c2.45,1.5.64,4.66-2,4.12-2-.85-2.36-2.88-.6-4.06l1.38,1.14Zm21.22,1.21H65.56l-1.64,1.92c6.21,6.53,6,12.19.19,17.13l2.33,2.6C72.94,99.51,74.38,90.8,67.25,83.39Zm6.39.25c3.48,5.43,6.5,15.72-3.89,25.14l-1.25-1.52c9-8.8,6.91-16.21,2.86-23.55Zm1,.14,14.05,0c-3,11.43-5.11,18.16-5.43,36l-4.06,0c.44-.41-2.1-10.79-5.07-14.39C80.31,95,77,89,74.6,83.78Zm-44.19,0a6,6,0,0,1,1.71.9c.88.52,2,1.18,2.53,1.47a6.49,6.49,0,0,1,3.44,3.65c.41,1.16.15,1.18-1,.09a33.47,33.47,0,0,0-4.15-3.12c-.83-.56-1.09-.47-.61.22a9,9,0,0,0,2.59,2c1.09.67,2.59,2,2.47,2.19s-.29.16-.82-.07l-1.74-.71c-3.06-1.24-4.37-2.76-4.55-5.29C30.19,84.2,30.13,83.79,30.41,83.79Zm64.12.06a3.9,3.9,0,0,1,.48.78c.11.51-.38,1-1.93,1.66-.54.23-1,.36-1,.67.07.73,1.47,1.84,1.3,2.84-.32.76-2.26,1.5-2.75,2.4,0,.61,1.26,1.56,1.08,2.39-.09.25-.5.51-1.1,1-1.24,1.07-1.31,1.23-.86,2.06,1,1.93,1.09,1.79-.35,3.16s-1.42,1.37-.72,2.57.71,1.23-.29,2.06-.94,1-.42,2,.62,1-.23,1.75-1.19,1-.48,2.08.78,1.1,0,2-.87.93-.45,1.53c.53.76.63,1,.08,1.8s-.6.84,0,1.68a2.53,2.53,0,0,1,.38,1.49H85.48a4.35,4.35,0,0,0-.22-1.36c-.49-.89-.48-1.17.11-2s.5-.87-.06-1.68-.49-.81.25-1.74.71-1.26.32-1.75c-.91-1.16-.91-1.64,0-2.41.7-.58.76-.84.16-1.84s-.66-1.07.42-2,1.09-1,.35-2.11-.68-1.17.48-2.23,1.18-1.09.41-2.45-.72-1.26.68-2.5,1.87-1.31.48-3c-.77-1.32-.22-1.45,1-2.1,2.23-1.36,1.21-1.28.28-3.29-.79-1.36-.34-1.37,1-2,.34-.15.71-.32,1.1-.53.91-.51.42-1,.42-1Zm2.92,0,6.7.08c-7.77,9.9-11.51,22.56-12.86,35.92l-2.53,0C88.6,109.41,91.89,96.38,97.45,83.88Zm34.44.23c3.84,3.22,6.68,5.06,8.7,5.79,0,0-2.7,4.48-2.91,4.31a32.85,32.85,0,0,0-38.26,25.56l-2.45,0a53.51,53.51,0,0,1,6.65-20.71,57.35,57.35,0,0,1,12.22-15Zm-26.77-.17,3.3.06s.62.75.9,1c1.43,1.62,1.55,1.3-1.59,3.06-2,1.12-2.87,1.64-3,2.11s.87,1.41,1,2c0,.07-2.7,1.87-3.19,2.12-.68.33-.72.62,0,1.79.78,1.35.72,1.3-1,2.47s-2,1-1.26,2.16c1,1.57.51,1.92-1.77,3.15-.58.31-.59.62-.19,1.69.56,1.5.71,1.35-.47,2.16-1.39.95-1.64,1-1.33,1.56.9,1.7,1.25,2.11.06,2.67-.92.42-.93.66-.43,1.78s.64,1.08-.26,1.72-1.33.46-.52,1.42c.65.76.59,1.37.07,1.83-.45.19-.66,1.05-.53,1.07l-1.16,0a1.31,1.31,0,0,1,.32-2c.15-.28,0-.48-.4-1.14-.5-.91-.48-1,.24-1.55s.76-.4.27-1.59c-.57-1.38-.54-1.54.35-2.18s.89-.77.3-2-.64-1.28.93-2.32c1.1-.72,1.11-.68.53-2-.4-.93-.12-1.26,1.38-2.28.85-.58.92-.7.52-1.39-1.11-1.92-1.1-2,.81-3.21,1.56-1,1.55-1.1,1-2.44s-.71-1.35,1.43-2.63c1.77-1.06,1.86-1,1.14-2.27-.91-1.58-.85-1.32,2.68-3.33,1.28-.87,2.43-.57,1.16-2C105.8,84.71,105.12,83.94,105.12,83.94Zm-62.39,2.6c.24,0,.43.29.42.85a6.71,6.71,0,0,1-.77,2.34c-.75,1.59-1.49,2.76-1.88,2.76-.93,0-.9-.19.32-2.58.56-1.1,1.14-2.34,1.23-2.59C42.25,86.8,42.51,86.55,42.73,86.54Zm11.35,3.6c0,3.35-10.54,5-11.09,3.35,1.84-1.44,7.28-.8,8.44-2.08-1.39-.08-3.28.14-4.57.17-1.61,0-4.21.71-4.24,1-.17-.89,2.77-2.55,5.09-2.65S52.25,90.09,54.08,90.14ZM55,95.26s-20.6,17-30.79,25.22l.07,3.67,32.59-26.6Zm-.07.84,1.32,1.6L25.65,122.55l-.11-2.61Zm96.7,8.72-1.1,1.17c-29.88-22.16-57.4,11.49-42.22,35.57a6.25,6.25,0,0,1-1.2,1.08C90.19,114.69,122.55,82,151.62,104.82ZM135.18,100a9.79,9.79,0,0,1,6.13,2.75c1.54,1.85,1.09,2.67-.86.93-2.1-1.52-3.83-1.87-.92-.08a4.57,4.57,0,0,1,1.25,1.25c.11.31-.43,0-2.87-.9a8.09,8.09,0,0,1-3.76-2.92C133.79,100.27,134.29,100,135.18,100Zm-6.29,0a4.59,4.59,0,0,1,1.33.13,9.15,9.15,0,0,1,3.61,1.55c.54.42.37.73-.26.46a16.68,16.68,0,0,0-3.49-1c-.61.07,0,.46.87.68,1.93.48,2.89,1,1.51,1a37.1,37.1,0,0,1-4.72,0c-1.43-.16-3.58-1.47-3.08-1.93S127.3,100,128.89,100Zm-6.13,2c2.53,0,3.9,1,1.13,1.16-4.76.76-5.67,1.79-.39.56,1.22-.29,1.2.15.35.57-.69.33-1.56.5-2.28.85a10.36,10.36,0,0,1-5.45.22C114.41,104.73,119.79,102,122.76,102Zm20.39.43c1.28,0,4,1.88,5.23,3.62.79,1.13.4,2-.81,1-.24-.18-2-1.65-2.06-1.68s1.44,1.45,1.67,1.87.66,1.19-.2,1.21c-1.34-.17-4.5-3.68-4.52-5.42C142.46,102.63,142.72,102.44,143.15,102.45Zm-15.89,1c.54,0,.26.26-.75,1-1.83,1.29-.87,1,1.26-.07a8.13,8.13,0,0,1,1.71-.64l.73-.16c.57-.18.13.53-.81,1.27a16.92,16.92,0,0,1-5.71,3.18c-2,.49-2.37.55-1.65-.67,1.15-1.93,2.82-3.47,4.42-3.77A4.59,4.59,0,0,1,127.26,103.44Zm6.57,0a15.57,15.57,0,0,1,3.41.49c1.11.35.82.42-.52.57-2.51.27-1.46.56,1,.52,3.33,0-1.67,1.2-3.29,1.44A15.29,15.29,0,0,1,130,106c-1.06-.2-.43-1,1.57-1.92A5.22,5.22,0,0,1,133.83,103.47Zm20.58.45.09,2.14-40.31,33.61-1.37-1.51Zm-13.72,1.84c1.61,0,3.93,1.09,3.69,1.76-.1.25-.28.24-1.5-.09-.81-.21-2.25-.44-2.06-.26a11.32,11.32,0,0,0,1.62.59c1.42.34,3.12,1.14,2.75,1.38-.66.4-1.27.09-2,0-2-.27-5.16-1.26-5.68-1.75S139,105.78,140.69,105.76Zm-18.8.12c.29,0,.4.29.12.65a13.59,13.59,0,0,0-1,1.7,10.37,10.37,0,0,1-3.49,3.7c-1.3.8-1.48.67-1.37-1a5.72,5.72,0,0,1,3.16-4.42c.81-.12,1.28-.33.42.69-1.51,1.81-.47,1.62.94-.43C121.13,106.11,121.6,105.87,121.89,105.88Zm-5.24.24c.88,0,1.17.31,0,.83a17.74,17.74,0,0,0-3.24,2.14c-.09.28.71-.15,2-.87,1.76-1,1.91-.94,1.06.16a12.32,12.32,0,0,1-5.1,3.37c-2.55.69-2.48.21-1.06-1.68a7.62,7.62,0,0,1,4.24-3.58A7.25,7.25,0,0,1,116.65,106.12Zm-43.18.32c9.24,15.88,4.11,32-6.61,40.25-11.21,8.61-28.64,8.1-38.93-2.23l1.43-1.34S45.58,159.6,66,145c10.37-7.42,14.65-24.94,6.1-37.16Zm-41.39,0-.07,0a20.21,20.21,0,0,0-1.72,5.05,1.29,1.29,0,0,0,.38,1.16c.24.24.63.09.75,0,.78-.35,1.21-.89,1.9-2.61a4.49,4.49,0,0,0,.43-2.44,1.65,1.65,0,0,0-.61-.74A2.94,2.94,0,0,0,32.08,106.47Zm.18.72a1.66,1.66,0,0,1,1.19,1c0,.74-.42,2-.74,1.8-.53-.66-1.14-.24-1.24-.48a5,5,0,0,1,.72-2.34Zm99.78.59a16.84,16.84,0,0,1,11.2,3.85l-1.61,1.46a17.55,17.55,0,0,0-20.07-.16c-4.81,3.34-9.06,10.73-4.89,21.14l-1.51,1.36a18.69,18.69,0,0,1,6.1-24.68,20.48,20.48,0,0,1,10.38-3ZM71.29,109c.13,0,.32.41.3.91s-.28,1.38-.69,1.54-.74-1.17-.74-1.17A5.18,5.18,0,0,1,71.29,109Zm73.55.47a2.36,2.36,0,0,1,.47,0c.46.05.47.46,0,.86s-.71.44-1.18.1-.44-.53-.08-.79A1.6,1.6,0,0,1,144.84,109.47ZM66,109.56l1.36,1.68L62.59,115l-.57,0L25.87,144.92v-2.65Zm75.53,4-4.92,4c-9.84-5.1-17.73,4-15,12.23l-4.26,3.69C109.74,112.74,132,105.61,141.48,113.61Zm-25.78-3.19h0a.18.18,0,0,1,.09.07,10.41,10.41,0,0,1-.42,3.44,1.5,1.5,0,0,0-.17.53,21.15,21.15,0,0,1-1.62,3.38,8.52,8.52,0,0,0-.63,1.38c-.57,2.73-1.8-1.67-1.37-4.22.21-1.2,1.92-3.68,2.41-3.5.25.1.24.29-.21,1.25-1.23,2.67-1.54,4-.24,1.46C115.08,111.23,115.47,110.47,115.7,110.42Zm-83.64.06a.45.45,0,0,1,.41.32,1.25,1.25,0,0,1,0,.74,1.42,1.42,0,0,1-1.3.91.58.58,0,0,1-.52-.47,1.15,1.15,0,0,1,.31-.9A1.63,1.63,0,0,1,32.06,110.48Zm37.48.17c.59,0,1.2,1.59.81,2.31s-.38.47-.94-.66c-.29-.59-.52-1.23-.52-1.23l.48-.38.12,0Zm-1,.66a7.77,7.77,0,0,1,.77,2c.09.54.07.44-.52.22a2.74,2.74,0,0,1-.86-.83,5.14,5.14,0,0,0-.39-.58Zm3.69.24c.31,0,.64.3,1,1.06,1.14,2.87,1,6.09-.25,7.61-.21.26-.26.27-.52.11a2.9,2.9,0,0,1,0-1.88,5.37,5.37,0,0,0,.27-1.41c0-1.1-.27-1.24-.42-.22-.16,1.18-.35,2-.67,1.3-.16-.36-.24-.72-.37-1.11C70.57,114.53,71.32,111.58,72.25,111.55Zm-5,.73s1.11,1.42,1.56,1.93c.16.27.15.34-.1.44-.44.16-1.9-.8-2.47-1.1-.31-.25-.18-.44-.18-.44C66.47,112.81,66.87,112.52,67.26,112.28Zm43.44,0c.59,0,.59.2,0,1.1-3.5,5-2.79,4.28-.57,1.53,1.24-1.53,1.46-1.67,1.59-1.33a18.19,18.19,0,0,1-2.13,4.31,9.23,9.23,0,0,1-2.42,1.83c-1.67.84-1.48.5-.87-1.58C107.05,115,109,112.35,110.7,112.33Zm-45.49,1.74c9.6,23.81-16.69,34.26-28.56,23.25l1.39-1.1c16.5,11.16,32.79-6.72,25.33-20.71C63.37,115.51,64.05,115,65.21,114.07Zm2.22.58c1.58.16,3.92,3,4,4.65.25,1.14-.08,1.33-.64.53-.94-1.74-.83-.64,0,1.1.42.87.52,1.92.08,2-.61-.13-1.93-2.22-2.33-3.08A10,10,0,0,1,67,115.46C66.91,114.93,67.05,114.65,67.43,114.65Zm-4.77.78c7.31,14-8.42,30.79-24.43,19.93l4.8-3.8c8.35,4,17.67-1,15-12.44Zm73,2.61-13.19,11C119.71,119.91,129.68,114.72,135.62,118Zm-24.5,0c.43-.09.79,2.67.87,6.53s.18,4.15-1,2.76a11.58,11.58,0,0,1-1.37-1.62c-.78-1.47-.53-3-.32-5.18s.93-1.7.81.41c-.08,1.36-.06,3,.15,3s.1-.14,0-.32a34.25,34.25,0,0,1,.56-5.28C111,118.14,111,118,111.12,118Zm-36.37,1.67c1,.37,1.23,3.54.19,6.61A4.43,4.43,0,0,1,72.8,129c-.72.38-.89.25-.57-.41A10.55,10.55,0,0,0,73.4,125c.1-1.36-.62-.27-.56.31-.56,2.53-1.3,2.91-1.21.25a6.51,6.51,0,0,1,1.26-4.16C73.36,120.73,73.86,119.8,74.75,119.68Zm33.1.32c.39,0,.48.52.13,1.55a31.4,31.4,0,0,0-1,3c.06,0,.95-2.07,1.13-2.4.3-.56.41-.66.67-.64a10,10,0,0,1-.13,3.35c-.54,2.75-2.42,5.59-3.14,4.74-1.17-1.37-.62-7,.93-8.64C107.06,120.31,107.54,120,107.85,120Zm-50.26.42C59,130.14,51,134.3,44,131.36,44.16,131.33,57.59,120.42,57.59,120.42Zm32.9.18,1.41,1.83,2.57.14-1.32,1.93L94.46,127l-2.87.06-1.65,1.89-1.43-1.71L86,127.08l1.46-2.32-1.17-2.23,2.7-.12Zm-21.55.83A7.24,7.24,0,0,1,71,124.29c.48,1.85.3,5.37-.37,5.24-.72-2.52-.44-3.83-.7-3.54-.45.47.28,4.34,0,5.3-.12.24-.51,0-.94-.68-1.17-1.67-1-8.21-.12-9.17Zm85.79,3.94L123,151.56l1.83,2.35,29.93-24.64Zm-45.79.46c.13,0,.45.19,1,.84a16.35,16.35,0,0,1,2.54,4.79,16.1,16.1,0,0,0,.55,1.69c.22.54.24.68.11.84-.55.68-2.85-1-3.59-2.65-1-2.28-1.07-4.34,0-2.34.38.73.85,1.8.84,1.37a13.33,13.33,0,0,0-.81-2.33C109.38,127.61,108.58,125.9,108.94,125.83Zm45.45.63.06,2.17-29.52,24.62-1.16-1.41Zm-46.1,1.34c.14,0,.21.21.17.65-.14,1.43-.49,4.55-.42,4.83s.47-2.07.57-2.46c.5-2.07,1.27,2.87.81,5.08-.08.35-.22.91-.3,1.25a5,5,0,0,1-.42,1.09c-.84,1.31-2.81-3.91-2.47-6.57C106.43,130,107.79,127.75,108.29,127.8ZM74.13,129c.39,0,.46.35.4,1.15-.23,2.72-2,5.58-4,6.34s-2.17.61-1-.81c.89-1.07,1.43-2.19,1.28-2.34s-.29.37-1,1.29c-.9,1.16-1,.18-.23-1.52a6.89,6.89,0,0,1,2.71-3.13A4.92,4.92,0,0,1,74.13,129Zm18,.82a86,86,0,0,1-9,35.55H77.8c6.48-9.51,10.61-21.29,11.76-35.51Zm2.33,0a10.47,10.47,0,0,1,1.12,1.37c.35.61.45,1.14-.2,1.6-.75.63-1.06.4.17,2,.64.83.43,1-.37,1.66s-.87.76-.1,1.73,1,1.2-.11,2-1,.89-.22,2.07.91,1.07-.43,2.19c-1.13,1-1.16.7-.06,2.46.4.65.37.69-.37,1.34-1.81,1.61-1.72,1.51-1.46,1.93,2,2.84,1.09,2.76-.86,4.12-.39.34-.29.71.59,2.14.75,1.2.64,1.47-1.11,2.67s-1.89,1.42-1,2.69.91,1.17-.55,2.47c-.65.58-1.19,1.12-1.19,1.12H85.06s.68-.62,1.14-1c2.66-2,2.65-1.75,1.53-3.16-1-1.25-.9-1.34.11-2,.72-.51,1.69-1,2.42-1.57.39-.28.1-.51-.55-1.75s-.78-1.22.59-2.34,1.52-1.18.71-2.73-.83-1.42.2-2.26c1.52-1.24,1.6-1.17.79-2.61-.64-1.15-.64-1.11.44-2.19s1-1,.31-2-.62-1.15.24-1.91.8-.78,0-1.83-.75-1,.17-1.77c.49-.43,1-.86,1-1.06a5.91,5.91,0,0,0-1-1.94c-.18-.27.18-.35.76-1s.56-.46.12-1.27c-.24-.43-.7-1.17-.7-1.17Zm-8.66,0,.92,0s.16.2.38.42c.59.6.61,1,0,1.28s-.35.74.12,1.44.5.65-.22,1.38-1.13.78-.31,1.93c.47.53.41,1.08-.32,1.55-.56.37-1.48.67-.51,2.07.48,1,.52.93-.48,1.63-1.32.94-1.57.78-1,2.15.67,1.52.74,1.54-.65,2.56-1.62,1.19-1.67,1.29-1,2.7s.7,1.07-1,2.4c-1.26,1-1.54,1-1.17,1.83.7,1.51,1,1.92-1,2.95-2.34,1.2-2.46,1.29-1.33,3.07.91,1.44.71,1.24-.8,2.1-2.18,1.26-3.15,1.8-3.22,2.19s1.71,1.75,1.71,1.75l-3,.08s-1.28-1-1.78-1.52c-1.38-1.33-1.39-.9,3.19-3.11,2.53-1.23,2.32-.95,1.9-1.66-1.22-2.11-1.26-2.33,1-3.48,2-1,1.64-1.07,1.16-2.57-.42-1.32-.35-1.2.69-2,2.54-1.87,2.47-1.68,2.07-2.6s-.69-1.32-.39-1.77c.91-1.3,2.85-1.58,2.06-3.13-.37-1-.51-1.23.61-2.09s1-.74.37-1.84-.67-1.18.48-2c.82-.75.81-.73.35-1.46-.64-1-.61-1,.3-1.82.73-.65.86-.68.39-1.39-.62-.94-.52-1.15.31-1.61.5-.29.5-.4.45-.88a5.13,5.13,0,0,0-.27-.63Zm11.43.06h4.24a34.72,34.72,0,0,0,5.09,13.54c-5.36,8.58-4.15,15.71-.87,22l-13.43-.05A117.41,117.41,0,0,0,97.18,129.87Zm-29.11,0c.15,0,.26.24.53.69.85,1.44.25,3.49-1,5.63-.93,1.61-1.1.38-.67-1.93.27-1.46-.47.73-.82,2.49-.19.95-.65,1.72-1.15,1.68s-.32-1.42-.31-1.71c.11-2.11.9-3.6,2.43-5.7C67.66,130.26,67.89,129.91,68.07,129.9ZM111.36,134a1.71,1.71,0,0,1,.83.27l1.1.64c1.17.64,1.27.84.71,1.49-.69.8-1.14.5-2.33-.84C110.86,134.68,110.85,134,111.36,134Zm-.39,1.77a1.68,1.68,0,0,1,1,.64c.77.88.68,1.63-.18,1.42-.35-.51-.53-1.29-.87-1.87C110.82,135.85,110.86,135.78,111,135.79Zm37.89.11a2.94,2.94,0,0,0-2.25,2c-.73,3.07-.73,2.94-.08,3.39l.43.28c.39.3.91.77,1,.68.62,0,1.57-3.93,1.54-4.74s.07-1-.15-1.35A.5.5,0,0,0,148.86,135.9ZM110.4,136a.22.22,0,0,1,.18.07,5.79,5.79,0,0,1,.94,2,1.07,1.07,0,0,1-.12.49c-.43.82-1.09,0-1.16-1.38,0-.78,0-1.15.16-1.17Zm38.34.6h.09c.51,0,.43.54-.27,1.3-.37.39-1.13.58-1.38.34s.39-1.34,1.21-1.57A1.8,1.8,0,0,1,148.74,136.57ZM63.55,137h.09a.93.93,0,0,1,.65.34,1.77,1.77,0,0,1,0,1.59c-.4,1.4-3,4.11-4,4.12-.56-.1,1.79-3.08,1.86-3.58-.17-.17-1.63,1.51-2.32,2.68a6.48,6.48,0,0,1-.84,1.29c-.5.05-1.06.37-1.07,0,.09-1.49,3-4.74,4-5.64a2.59,2.59,0,0,1,1.56-.84Zm7.06.14c2.25,0-2.19,4.9-5.07,5.62a6.13,6.13,0,0,1-2.67.09c-.12-.19,0-.34.39-.43a15.84,15.84,0,0,0,3.53-2.25c0-.27-1.22.19-2.26.86-.67.43-1,.34-.62-.18a8,8,0,0,1,6.7-3.71Zm39.1,0c.13,0,.26.26.34.83.41,1.06.43,1.34,0,1.66-.66.53-.82.38-.81-.84,0-1,.22-1.67.43-1.65Zm-74.43,1.4s.83.31.49.7-1.26,0-1.26,0Zm113.51,0c.27,0,.27.23.13.86a6,6,0,0,1-1,2.53,3.64,3.64,0,0,1-1.14-.68c-.1-.1-.43-.35-.47-.51a1.57,1.57,0,0,1,.41-1.53,1.08,1.08,0,0,1,.63-.21,3.55,3.55,0,0,0,.87-.28A1.84,1.84,0,0,1,148.79,138.58ZM35.57,139.77a5.84,5.84,0,0,1,1.78.25,23.74,23.74,0,0,1,5.19,2.29c.68.66-1.1,1.35-3.25,1.37-1.14,0-1.35-.22-2.93-1.16-.2-.13-1.12-.73-.85-1s1.17.08,2.26.64c.36.18,1.23.13,1.23,0a17.34,17.34,0,0,0-3.83-1.52c-1.08-.34-1.05-.69-.39-.83a5.19,5.19,0,0,1,.79-.06Zm-2.15.75s.45.4,1,.84a7.66,7.66,0,0,1,1.9,1.84c.74.91,1.92,3.17,1.79,3.58-.3.93-3.45-.71-6-3.28A17.53,17.53,0,0,1,30.8,142l1-.88s.86.72,1.86,1.6c1.87,1.64,1.86,1.08,0-.66l-1-.93C32.62,140.86,32.92,140.58,33.42,140.52Zm76.94.08s1,1,1.38,1.52c-6.13,6-8.47,14.31-2.56,23.2h-2.84c-5.31-10.43-2.79-18.29,4-24.71Zm-51.84.24c.38,0,0,.43-.64,1.58-1.26,2.14-1.51,2.68-3.56,3.22a10.32,10.32,0,0,1-1.6.06c-.88.11-.48,0,.87-.87,1.87-1.21.28-.59-1.45.3-1,.51-2.06.49-2.15.22s.41-.53.7-.79c2.64-2.35,3.45-2.26,5.9-3.1A11.73,11.73,0,0,1,58.52,140.84ZM47.5,143a12.6,12.6,0,0,1,2.64.27c.52.12,1.37.23.65.87A8.87,8.87,0,0,1,46.15,146c-.23,0-3.58-.23-2.87-.94a9.61,9.61,0,0,1,1-.14c1.86-.35,1.36-.64-.93-.52-2.86.15-3-.15-.82-.74a19.1,19.1,0,0,1,4.57-.68Zm15.3.21c1.28,0,2.27.22,2.28.7,0,.79-2.41,2.51-4,2.85l-1.18.26a20.71,20.71,0,0,1-3.91-.09c-1.44-.52-.44-.72,2.19-1,1.14-.13,1.69-.43,1.69-.64a4.63,4.63,0,0,0-2.1,0c-1.41.18-1.13-.23.62-1.14A11,11,0,0,1,62.8,143.2Zm-23.59,1.09a6.22,6.22,0,0,1,1.32.45c1.53.45,3.63.95,5.06,2.51,1.16,1.12,1.45,1.48,1.2,1.87s-3.89.12-5.41-.53a7.06,7.06,0,0,1-2.73-2.13c-1.32-1.92-.77-2.42.91-1.08,2,1.61,2.32,1.78,2.68,1.71.14,0-.21-.37-.89-.87-1.7-1.26-2.53-1.94-2.14-1.93Zm12.45,2.06a6.64,6.64,0,0,1,3.7.88c2.06.72,1.56,1.36-2.09,2.27a6.73,6.73,0,0,1-5-.69c-2.94-1.8-2.75-2.16.54-1.36,1.07.27,2.15.32,2.22.12s-1.26-.49-2.32-.84-.16-.35,2.14-.37Zm84.62,7.8-.54.26a12.9,12.9,0,0,1-2.26.28,16.34,16.34,0,0,0-5,1.05,8.13,8.13,0,0,0-3.35,3.29c1.5-.1,10,1.43,12.36-1.62.49-.64-1.27,4.82-2.17,5.06-2.24-.27-3.19,3.24-3,3.09-2.26.87-4,1.39-3.44,4,.25,1.14,1.41,2.49,3.87,2.15-.67,4.53,4.89,5.71,5.5.24,0,0,1.09-.2,1.51-.25,2.53-.6,3.15-4.3-.57-5.47-1-.3-1.1-.5-1.1-.5a3.34,3.34,0,0,0-.45-2.68c.82-2,2.86-5.71,2.86-5.71Zm.4,1.12c.51.68-2.16,1.81-5,2.06a17.74,17.74,0,0,0-2.08.24c-.31.54,5.5.15,7.3-.86.62-.35.68,0,.41.49-2.1,2.69-7.16,2-11.13,1.56-.22-.23,0-.51.86-1.23a8.62,8.62,0,0,1,5.37-2C133.12,155.49,136.35,154.89,136.68,155.27Zm3.13,2.79a49.67,49.67,0,0,1-2.27,4.69c-.23.23-1.07.39-1-.5s1.82-4.91,2.3-5A.85.85,0,0,1,139.81,158.06Zm1.21.27c.56,4,3.65,5,6.61,6.29.77.36,1.43,1,2.22,1.4,1.46-2-.19-5.85-2.77-7.11-1.91-.89-3.65-1.6-4.73-1.52-.62.05-1.32.44-1.33.94Zm1.59-.25a12.92,12.92,0,0,1,2.53.55,6.55,6.55,0,0,1,4.93,5.14c0,.1.15,2.06-.3,2-.68-.19-1-.87-2.13-1.33a16.28,16.28,0,0,1-4.44-2.37,4.53,4.53,0,0,1-1.58-2.57c-.12-.82.16-.9.85-.24,1.55,1.23,3.07,1.65,4.6,2.83.43.33,2,1.17.91.12a19.1,19.1,0,0,0-3.89-2.48c-1.53-.73-2.37-1.63-1.48-1.64Zm-117.52,4,17.49,27.26c-4.31,2.27-6.43,3.26-13.58,2.7l0,.36-3-.18c5.25,8.17,11.72,18.82,9.89,37.41l21.31,0,.36.34c.31.21.78-.37.78-.37l9.61-.05.26.31,4.48,0S52.19,191.62,41.9,172.63c-4.23-7.61-8.63-11-16.81-10.5Zm110.3.9a2.19,2.19,0,0,1,2.3,2.29,4.88,4.88,0,0,1-.67,1.91l-1.56-1.49L134,167.23a2.54,2.54,0,0,1-.93-2.41,2.76,2.76,0,0,1,2.35-1.79Zm-18.09.54c1.48,5.76,3.08,13.69-9.76,32-7.59,10.84-10.08,21.07-10.38,33.55h-.77c.36-6.85.41-19.27.41-19.27l.72-.64a4.23,4.23,0,0,1-.47-1.15c-.24-1,0-.7.59-3.5,2.62-13.55,19.66-41,19.66-41Zm-68.55,2.64,65.06.3-.86,1.7-63-.45Zm86.72.49,2.42,2.35-2.36,2.64L133,169.1Zm-2,1-1.32,1.4,1.15,1.2c-1.18,2.46-4.31.54-4.2-1.3.12-2.16,2.64-3,4.37-1.3Zm4.18,2.78,1.05-1.33-1.19-1.3c1.94-1.91,3.78-.23,4,1.37S139,172.84,137.67,170.48Zm-77.06-1.63,5.33.05-2,3.7-5.41,0Zm11.87,0h4.9l-2.07,3.75h-5Zm11.56,0h5.19l-2.1,3.75H81.79Zm11.62,0H101L99,172.63H93.53Zm11.84,0h5.12l-2.07,3.75h-5.27Zm-56.56,0h3.44L53,171.37Zm85.83,2.36a2.35,2.35,0,0,1-1.45,4.22,2.4,2.4,0,0,1-1.25-4.3l1.48,1.35Zm-72.41,2h5l-1.89,3.37h-4.9Zm11.13,0H81L79,176.66H73.82Zm11.75,0h5.47l-1.78,3.38H85.41Zm11.72,0h5.42l-1.69,3.38H97Zm-44.7.13h3.45l-1.47,2.7Zm2.6,3.91,50.72.45-.86,1.64H58.15Zm1.79,2.94,47.52.12-1.09,2.27-16.42-.08c-3.21-2.38-6.87-1.28-11,.08,0,0-12.56.13-17.51,0Zm-15.81,9.61,25.07,39.45-5.54-.06-23.8-37.11Zm-5,2.57,23.66,36.87c-1.08,0-2.09,0-3.18,0a9.41,9.41,0,0,0-8.38-10.27c2-8.06-3.93-11.44-7.86-12.08C43.65,196.51,35,195,34.84,195.13a9.3,9.3,0,0,0-.24-2.19ZM34,193c0,.22.45,2.3-.49,1.92L33.43,193Zm-5,.05c.34,1.39,1.05,1.66,2,2.59,0,0-1.24.21-1.52,0a11.81,11.81,0,0,1-1.6-2.61Zm3.7,2.35a1.08,1.08,0,1,1-1.08,1.08A1.08,1.08,0,0,1,32.7,195.43Zm2.15.83c3.11-.2,7.63,3.12,6.44,9.35a10.29,10.29,0,0,0-1-2.07c-2.14-2.88-4.67,1.07-3,2.68.84.8,1.23,1.11,1.14,1.18a2.26,2.26,0,0,0-2.57,3.21c1.33,2.43,3.17,1.14,4.24-.3,0,0,.66,2.18,1.32,2.45a2.25,2.25,0,0,0,2.86-1.32c.7-1.79-1-2.25-1.38-3.26,3.6.12,8.19,5.37,6.1,9.92a2.46,2.46,0,0,0-3-2.76c-1.08.38-1.46,1.95-.59,3.57a6.74,6.74,0,0,0,.43.71,5.26,5.26,0,0,0-1.18.27c-2.81,1.73.81,6.44,2.91,3.49a6.36,6.36,0,0,1,.56-.75c.35.66.45,1.58,1.08,1.9,2.59,1.3,3.75-1.44,2.66-2.79l-1.31-1.63c-.1-.49,7.77,1.57,6.81,9.21l-20.88,0c1.94-11.73-2.75-25.16-5.14-29.25l1-1.36c.26.5.69,1.78,1.45,2,2.42.78,3.16-.91,2.83-2.64-.17-.92-1.46-1.67-1.88-1.8Zm5.53,11a1,1,0,1,1-1,1A1,1,0,0,1,40.38,207.3Zm7.84,12.23a1,1,0,1,1-1,1A1,1,0,0,1,48.22,219.53Z"/></g></g><path id="path147-0-8-1-3-6-7-5-8" d="M131.75,223.79c7.91-.17,11.46-9,5.6-15.9-.85-1-.94-1.58.62-.62,3.95,2.63,11.51.9,11.9-7.11.48-9.88-13.41-12.72-16-2.22-.14,1.11-1,1.08-.83-.49a32.46,32.46,0,0,1,3.43-12.15H127a32.63,32.63,0,0,1,3.42,12.15c.22,1.57-.69,1.6-.82.49-2.61-10.5-16.51-7.66-16,2.22.39,8,8,9.74,11.91,7.11,1.55-1,1.47-.38.62.62-5.87,6.87-2.32,15.73,5.6,15.9Z"/><path id="path147-0-8-1-0-3-83-6-6-4" d="M48.26,26.21c7.92.17,11.47,9,5.61,15.9-.85,1-.94,1.58.62.61,3.94-2.62,11.51-.89,11.9,7.12.48,9.88-13.42,12.72-16,2.22-.14-1.11-1-1.08-.83.49A32.63,32.63,0,0,0,53,64.7H43.55A32.46,32.46,0,0,0,47,52.55c.22-1.57-.69-1.6-.83-.49-2.61,10.5-16.5,7.66-16-2.22.39-8,8-9.74,11.9-7.12,1.56,1,1.47.39.62-.61-5.86-6.87-2.31-15.73,5.61-15.9Z"/></g></svg>