<svg id="Layer_1" data-name="Layer 1" xmlns="http://www.w3.org/2000/svg" viewBox="0 0 180 250"><title>all_cards</title><g id="g8417-9-8"><path id="path6748-4-0" d="M13.88,40.07C10.41,44.46,6.69,47,6.63,50.42A3.33,3.33,0,0,0,9.4,53.78,2.88,2.88,0,0,0,12.71,51c0-.4.48-.39.48.16a10.48,10.48,0,0,1-1.58,4.92h4.55a10.48,10.48,0,0,1-1.58-4.92c0-.55.48-.56.47-.16a2.88,2.88,0,0,0,3.31,2.76,3.34,3.34,0,0,0,2.78-3.36c-.06-3.43-3.78-6-7.26-10.35Z"/><path id="path6752-9-1" d="M166.12,209.93c-3.48-4.39-7.2-6.92-7.26-10.35a3.34,3.34,0,0,1,2.78-3.36A2.88,2.88,0,0,1,165,199c0,.4.47.39.47-.16a10.48,10.48,0,0,0-1.58-4.92h4.55a10.46,10.46,0,0,0-1.57,4.92c0,.55.47.56.47.16a2.88,2.88,0,0,1,3.31-2.76,3.32,3.32,0,0,1,2.77,3.36c-.06,3.43-3.78,6-7.25,10.35Z"/><path id="path6760-2-4" d="M90,26.21C82.56,36.76,74.6,42.83,74.47,51.06c0,2.67,1.4,7.2,5.94,8.06,3,.56,7-1.8,7.09-6.62,0-1,1-.93,1,.38A27.25,27.25,0,0,1,85.13,64.7h9.74a27.25,27.25,0,0,1-3.38-11.82c0-1.31,1-1.34,1-.38.09,4.82,4.14,7.18,7.09,6.62,4.54-.86,6-5.39,5.94-8.06C105.4,42.83,97.44,36.76,90,26.21Z"/><path id="path6774-6-2" d="M90,223.79c-7.44-10.55-15.4-16.62-15.53-24.85,0-2.67,1.4-7.2,5.94-8.06,3-.57,7,1.8,7.09,6.62,0,1,1,.93,1-.38a27.25,27.25,0,0,0-3.38-11.82h9.74a27.25,27.25,0,0,0-3.38,11.82c0,1.31,1,1.34,1,.38.09-4.82,4.14-7.19,7.09-6.62,4.54.86,6,5.39,5.94,8.06C105.4,207.17,97.44,213.24,90,223.79Z"/><path id="path15-3-8-9" d="M6.31,37.5l.13-1.64c.41-5,1.5-6.74,7.68-12,3-2.55,4-3.81,4.12-5.27.39-3.45-2.67-4.52-4.67-4.54C11,14,8.06,15.59,9.45,19.23l-2.9.87c-.59-3.4,0-6.58,2.73-8,3.63-1.85,8.28-1.12,10.63,1.78A6.91,6.91,0,0,1,21,20.64C18.53,26,10.14,28.4,9.44,34.63h9.28V31.16h2.74v6.39l-15.15,0Z"/><path id="path15-3-5-1-4" d="M173.69,212.5l-.13,1.64c-.41,5-1.5,6.74-7.68,12-3,2.55-4,3.81-4.12,5.27-.39,3.45,2.67,4.52,4.67,4.54,2.59,0,5.51-1.54,4.12-5.18l2.9-.87c.58,3.4,0,6.58-2.73,8-3.63,1.85-8.28,1.12-10.63-1.78a6.91,6.91,0,0,1-1.1-6.75c2.48-5.39,10.87-7.76,11.56-14h-9.27v3.47h-2.74v-6.39l15.15.05Z"/></g></svg>