<svg id="Layer_1" data-name="Layer 1" xmlns="http://www.w3.org/2000/svg" viewBox="0 0 180 250"><title>all_cards</title><g id="g5120"><path id="path147-0-8-1-6-1-1-0-9-1-8" d="M90,106.09c-7.92.17-11.47,9-5.61,15.9.85,1,.94,1.58-.62.61-3.94-2.62-11.51-.9-11.9,7.12-.48,9.87,13.42,12.72,16,2.22.14-1.11,1-1.08.83.49a32.46,32.46,0,0,1-3.43,12.15h9.42a32.46,32.46,0,0,1-3.43-12.15c-.22-1.57.69-1.6.83-.49,2.61,10.5,16.5,7.65,16-2.22-.39-8-8-9.74-11.9-7.12-1.56,1-1.47.39-.62-.61,5.86-6.88,2.31-15.73-5.61-15.9Z"/><path id="path147-6-9-8-7-0-5-0-8-3" d="M166.12,209.93c3.17-.07,4.59-3.76,2.24-6.62-.34-.42-.37-.66.25-.26,1.58,1.1,4.6.38,4.76-3,.19-4.12-5.37-5.3-6.41-.93-.05.46-.42.45-.33-.2A14,14,0,0,1,168,193.9h-3.76a14.22,14.22,0,0,1,1.37,5.06c.08.65-.28.66-.34.2-1-4.37-6.6-3.19-6.4.93.15,3.34,3.18,4.06,4.76,3,.62-.4.59-.16.24.26-2.34,2.86-.92,6.55,2.25,6.62Z"/><path id="path41-6-3-5-1" d="M5.75,37.55V35.29H7.92l4.62-24.2h2.63l5.1,24.2H22v2.26h-6V35.29h1.61L17,31.58H11l-.47,3.71h1.62v2.26ZM16.5,28.94,13.88,16l-2.45,13Z"/><path id="path41-6-4-0-2-8" d="M158,212.45v2.26h2.17l4.62,24.2h2.64l5.09-24.2h1.75v-2.26h-6v2.26h1.61l-.64,3.71h-6l-.46-3.71h1.61v-2.26Zm10.75,8.61L166.11,234l-2.45-12.95Z"/><path id="path147-6-9-8-7-4-5-6-8-9" d="M13.88,40.07c-3.16.07-4.58,3.76-2.24,6.62.34.42.38.66-.25.26-1.57-1.1-4.6-.38-4.76,3C6.44,54,12,55.21,13,50.84c.06-.47.42-.45.33.2A13.81,13.81,0,0,1,12,56.1h3.77A13.81,13.81,0,0,1,14.4,51c-.09-.65.27-.67.33-.2,1,4.37,6.6,3.19,6.41-.93C21,46.57,18,45.85,16.37,47c-.62.4-.58.16-.24-.26,2.34-2.86.92-6.55-2.24-6.62h0Z"/></g></svg>