<?xml version="1.0" encoding="utf-8"?>
<!-- Generator: Adobe Illustrator 23.0.1, SVG Export Plug-In . SVG Version: 6.00 Build 0)  -->
<svg version="1.1" xmlns="http://www.w3.org/2000/svg" xmlns:xlink="http://www.w3.org/1999/xlink" x="0px" y="0px"
	 viewBox="0 0 180 250" style="enable-background:new 0 0 180 250;" xml:space="preserve">
<style type="text/css">
	.st0{fill:#FFFFFF;}
	.st1{fill:#E2CF00;}
	.st2{fill:#131F67;}
	.st3{fill:#D40000;}
	.st4{fill:#100F08;}
</style>
<g id="white-background">
	<rect class="st0" width="180" height="250"/>
</g>
<g id="Layer_1">
	<g id="g8426-7-4_1_" transform="matrix(0.99553774,0,0,0.99680134,17.536569,79.60164)">
		<path id="path6816-2-4_1_" d="M-3.7-39.7c-3.5,4.4-7.2,6.9-7.3,10.4c0,1.1,0.7,3,2.8,3.4c1.4,0.2,3.3-0.8,3.3-2.8
			c0-0.4,0.5-0.4,0.5,0.2C-4.4-26.9-5-25.1-6-23.6c1.5,0,3,0,4.6,0c-1-1.5-1.5-3.4-1.6-4.9c0-0.5,0.5-0.6,0.5-0.2c0,2,1.9,3,3.3,2.8
			c2.1-0.4,2.8-2.3,2.8-3.4C3.6-32.7-0.2-35.3-3.7-39.7L-3.7-39.7z"/>
		<path id="path6820-0-2_1_" d="M149.2,130.7c-3.5-4.4-7.2-6.9-7.3-10.4c0-1.1,0.7-3,2.8-3.4c1.4-0.2,3.3,0.8,3.3,2.8
			c0,0.4,0.5,0.4,0.5-0.2c-0.1-1.6-0.6-3.4-1.6-4.9c1.5,0,3,0,4.6,0c-1,1.5-1.5,3.4-1.6,4.9c0,0.5,0.5,0.6,0.5,0.2
			c0-2,1.9-3,3.3-2.8c2.1,0.4,2.8,2.3,2.8,3.4C156.5,123.8,152.7,126.3,149.2,130.7L149.2,130.7z"/>
		<path id="path6828-8-3_1_" d="M72.8-53.6C65.3-43,57.3-36.9,57.2-28.6c0,2.7,1.4,7.2,6,8.1c3,0.6,7-1.8,7.1-6.6c0-1,1-0.9,1,0.4
			c-0.1,3.8-1.4,8.2-3.4,11.9c3.3,0,6.5,0,9.8,0c-2-3.6-3.3-8-3.4-11.9c0-1.3,1-1.3,1-0.4c0.1,4.8,4.2,7.2,7.1,6.6
			c4.6-0.9,6-5.4,6-8.1C88.3-36.9,80.3-43,72.8-53.6L72.8-53.6z"/>
		<path id="path6842-0-7_1_" d="M72.8,144.6c-7.5-10.6-15.5-16.7-15.6-24.9c0-2.7,1.4-7.2,6-8.1c3-0.6,7,1.8,7.1,6.6
			c0,1,1,0.9,1-0.4c-0.1-3.8-1.4-8.2-3.4-11.9c3.3,0,6.5,0,9.8,0c-2,3.6-3.3,8-3.4,11.9c0,1.3,1,1.3,1,0.4c0.1-4.8,4.2-7.2,7.1-6.6
			c4.6,0.9,6,5.4,6,8.1C88.3,128,80.3,134.1,72.8,144.6L72.8,144.6z"/>
		<path id="path6844-7-0_1_" d="M72.8,26.2c-7.5,10.6-15.5,16.7-15.6,24.9c0,2.7,1.4,7.2,6,8.1c3,0.6,7-1.8,7.1-6.6c0-1,1-0.9,1,0.4
			c-0.1,3.8-1.4,8.2-3.4,11.9c3.3,0,6.5,0,9.8,0c-2-3.6-3.3-8-3.4-11.9c0-1.3,1-1.3,1-0.4c0.1,4.8,4.2,7.2,7.1,6.6
			c4.6-0.9,6-5.4,6-8.1C88.3,42.9,80.3,36.8,72.8,26.2L72.8,26.2z"/>
		<path id="path17-9-11-4_1_" d="M-12.3-48l2.1-1.5c1.8,2.9,3.8,4.8,6.8,4.5c4.6-0.3,6.5-5.1,5.5-8.7c-0.9-3.2-4.7-4.8-7.7-3.1
			c-0.7,0.4-1.4,0.7-1.5,0.7c-0.3,0-1-1.4-0.9-1.8c2-2.9,6.9-8.1,6.9-8.1h-7.7v3.4h-2.9v-6.2h15v2.1c0,0-4,4.1-5.4,6.4
			c3.3,0.1,5.9,2.2,6.9,5.4c0.6,1.7,0.3,5.6-0.4,7.3c-1.2,2.8-4.5,5.1-7.5,5.2C-8.3-41.9-11-45.4-12.3-48L-12.3-48L-12.3-48z"/>
		<path id="path17-9-1-0-8_1_" d="M157.9,139.1l-2.1,1.5c-1.8-2.9-3.8-4.8-6.8-4.5c-4.6,0.3-6.5,5.1-5.5,8.7
			c0.9,3.2,4.7,4.8,7.7,3.1c0.7-0.4,1.4-0.7,1.5-0.7c0.3,0,1,1.4,0.9,1.8c-2,2.9-6.9,8.1-6.9,8.1h7.7v-3.4h2.9v6.2h-15v-2.1
			c0,0,4-4.1,5.4-6.4c-3.3-0.1-5.9-2.2-6.9-5.4c-0.6-1.7-0.3-5.6,0.4-7.3c1.2-2.8,4.5-5.1,7.5-5.2
			C153.9,133,156.6,136.5,157.9,139.1L157.9,139.1z"/>
	</g>
</g>
</svg>
