<?xml version="1.0" encoding="utf-8"?>
<!-- Generator: Adobe Illustrator 23.0.1, SVG Export Plug-In . SVG Version: 6.00 Build 0)  -->
<svg version="1.1" xmlns="http://www.w3.org/2000/svg" xmlns:xlink="http://www.w3.org/1999/xlink" x="0px" y="0px"
	 viewBox="0 0 180 250" style="enable-background:new 0 0 180 250;" xml:space="preserve">
<style type="text/css">
	.st0{fill:#FFFFFF;}
	.st1{fill:#E2CF00;}
	.st2{fill:#131F67;}
	.st3{fill:#D40000;}
	.st4{fill:#100F08;}
</style>
<g id="white-background">
	<rect class="st0" width="180" height="250"/>
</g>
<g id="Layer_1">
	<g id="g7120_1_" transform="matrix(0.99553491,0,0,0.99680337,10.742907,-8.1397611)">
		<path id="path6351-0_1_" class="st2" d="M13.5,27.7c0.1,63.8,0,142.1,0,211.7h132.2V27.7H13.5z M52.2,28.9
			C75,29.6,98,28.9,121,29.1c0,0-8.4,14.5-10.9,19.1c-0.6,1-0.6,1.7-0.3,2.1c0.5,0.6,0.4,1.7-0.1,2.4c-0.2,0.3-0.3,0.4-0.3,0.6
			c0,0.2,0.1,0.3,0.2,0.6c0.4,1.4-0.6,2.4-1.8,2.8c-0.7,0.3-2.4,0.5-3.6,0.4c-7.6-0.4-22.6-6.8-28.8-7.3c-4.3-1.2-9.8-0.8-14.4-0.5
			c-0.9,0.1-0.7-2-0.7-2C59.7,40.8,55,35,52.2,28.9z M122.2,29.7H144V33l-9.2,9.3c-0.9,0.9-1.5,1.6-1.5,1.6l-0.1,8.4
			c-6.2-3.3-7.4-7.3-8.5-11.6c-10.3,7.6-10.8,24.3,0.5,32.9c0.1-3.7,2.9-11.1,8-11.6l0.1,29l-6.2-6l-13.5,0.2
			c2.2-3.6,2.3-6.5,0.8-9.8c-2.4-5.5-6.2-18.1-5.9-18.1c0,0,0.1-0.3,0.4-0.3c1.1-0.2,1.8-1.3,1.5-2.6c-0.1-0.4-0.1-0.3,0.2-0.9
			c1.1-1.9-0.2-3.9-0.2-3.9L122.2,29.7z M50.7,29.7l8.1,14.7c0,0-0.1,0.7-0.1,1.1c0.1,0.6,0.3,1.1,0.6,1.6c0.2,0.3,0.4,0.8,0.4,1.3
			c0.1,0.7,0.1,0.7,1.1,1.7c0.2,0.2,0.3,0.3,0.2,0.5c-0.4,0.9-0.1,2.7,0.6,4.9c0.9,2.7,1.1,2.7-0.5,6.4c-0.3,0.8-0.8,1.8-1.2,2.7
			c-2,4.1-2.3,5.3,1.1,7.5c1,0.6,1.3,1.2,1,2.4c-0.2,1-0.2,1.6,0.2,2.1c0.3,0.4,0.6,0.4,0.5,0.7c-0.1,0.2-0.3,1-0.2,1.7
			c0.2,1.8-1.9,4.5-3.9,5.5c-0.4,0.3-0.5-0.1-0.7-0.4c-2-3.5-7-2.1-7.3,2.1c-0.1,1.1-0.1,1.6-0.3,1.8c-0.1,0.1-0.4,0.2-0.4,0.2
			s-7.5,4.9-12.2,7.4c-0.3,0.2-0.6,0.4-0.8,0.5c-0.3,0.1-0.4,0-0.6-0.2c-1.8-3.3-0.8-7.3-0.6-8.7c0-0.5-0.5-0.6-1.1-0.6
			c-1.1,0-2.6,1.1-3,2.1c-0.3,0.9-0.5,1.4-0.7,1.4c-0.3,0-0.4-0.4-1-1.6c-1.4-2.6-1.6-2.9-2.8-4.4c-1-1.2-1.9-1.4-2.9-0.5
			c-0.7,0.6-0.7,0.1-1.3-0.2c-1-0.7-2.5-0.1-2.6,0.9c0,0.8,0,1.4-0.9,1.5c-0.9,0.1-1.3,1.2-1.1,2.9c0.1,0.9,0.2,1-0.1,1.4
			c-0.9,1.1-1,1.8-0.5,3.3c1.4,4.2,3.4,7.1,5.3,10.9c0,0-4.7,2.7-7.5,4.3V29.7H50.7z M144.2,33.9l0.1,68.2L134,92
			c0,0-0.2-13.1-0.2-18.4c0-5.3,0.1-10.7,0.1-11.7c0-1,0.1-5.2,0.1-9.6c0.1-9.1-0.8-8,0.9-9.7L144.2,33.9z M124,42.1l0.6,1.6
			c-4.3,2.5-9.6,16.3,0.1,26.4l-0.2,2.1C114.3,63,116.2,49.8,124,42.1z M124.7,44c1.5,3.1,3.2,5.8,5.5,7.4c-1.2,3-1.8,6.2,0.3,10.6
			c-1.5,0.8-3.5,3-5.6,7.3C117.2,61.7,119,50.5,124.7,44z M67.7,49.8c4.3,0,8.7,0.7,12.8,1.9c2.6,12.9,7.1,21.7,7.1,26.7
			c0,0-0.4-0.1-1.1-0.6c-1.9-1.3-4.3-0.6-5.6,1.1c-1.2,1.6,0,3.9-0.6,4.8c-1.2,1.8-4.3,5-4.8,4.9c-0.4-0.1-0.3-0.2,1-2.3
			c1.4-2.1,2.4-4,2-4.5c-0.2-0.2-0.3,0.2-1.3,2c-2.4,4.2-4.5,6.8-5.4,6.4c-0.4-0.2-0.2-0.5,1.6-2.9c2-2.7,2.6-4.3,2.4-5.1
			c-0.2-0.6-0.5,0.3-1.3,2c-0.9,1.7-2.5,3.7-3.8,5.5c-0.4,0.7-0.9,1.1-1.6,1.4c-0.5,0.2-1.3,0.6-1.8,0.5c-0.2,0-0.1-0.2,0.3-0.5
			c2.6-2.6,4.8-5.6,6-8.4c0.2-0.4-0.1-0.9-0.4-0.5c-1.9,3.4-4.6,7.6-7.5,9.5c-0.6,0.4-1.6,0.7-2.4,0.7c-1.4,0-0.9-0.4,0.4-1.2
			c2.8-1.8,6.7-6.9,7.3-8.8c0.1-0.4,0-0.7-0.3-0.6c-2.3,3.7-5.3,7.7-8.9,9.4c-1.9,0.9-4.3,1.1-5.5,0.5c-0.9-0.4-0.6-0.6,0.9-0.7
			c3.7-0.4,8-3.8,10.1-7.5c1.3-2,0.4-1.6-1.1,0.4c-2.4,3.3-7.3,6.5-10.3,6.3c-3-0.2-4.8-2.5-4.4-4.5c0.2-1.2,1.1-2.5,2.8-2.8
			c2.9-0.6,4.8,4,2.2,4.9c-0.9,0.3-1.3,0.1-0.9-0.3c2-0.9,1.1-3.2-0.6-3.5c-1-0.2-2.3,0.6-2.3,2.2c0,1.2,1,2.4,3,2.4
			c2.4,0,6-1.7,8.2-4.8c1.6-2.4,0.1-1.6-1,0c-1,1.4-4.4,3.4-4.6,3.3l0.1-1.6c0.1,0.3,5.1-3.2,4.8-5.8c-0.2-1.9,0.1-2.4,2-2.4
			c1.5,0,3.3,0.5,3.9,1.2c0.6,0.7,1.2,0.9,0.9-0.2c-0.4-1.8,0.1-2.1-1-1.8c-0.7,0.2-1.4-0.3-2.1-0.9c-0.8-0.6-1.8-0.8-3-0.8
			c-0.9,0-1.3,0-1.2-0.9c0.1-0.6,0.2-1.1,0-1.5c-0.3-0.6-1.4-1.3-2.7-2.2c-1.5-1.1-1.2-1.2,2-8.6c1.3-3.1,1.4-3.7,0.5-6
			c-1.3-3.6-1.5-5.1,0.9-5.6C64.9,49.9,66.3,49.8,67.7,49.8L67.7,49.8z M81.3,51.9l1.2,0.4c0,0,3.9,13.2,6.1,19.7
			c0.7,2,1.2,4.6,1.3,7.1c-0.1,3.4-2,5.9-4.4,6.2c-1.7,0.2-3.5-0.7-4.3-2.5c-0.7-1.8-0.2-3.9,1.9-4.6c3.5-1.2,6.1,3.2,2.6,4.6
			c-1.8,0.7-3.5-0.6-2.7-2.1c0.6-1,2.1-0.9,2.5,0.1c0.3,1.2,0.8,0.6,0.6-0.2c-0.7-2.5-3.8-1.9-4.1,0.4c0,2.8,3.1,3.5,5,1.9
			c1.4-1.3,1.6-3.6,1.2-5.6c-0.5-4.1-2.8-9.5-4.5-15.6C82.9,58.7,81.7,55,81.3,51.9L81.3,51.9z M130.8,52l2.3,0.9l-0.1,7.7l-2,0.7
			C128.5,57.4,130.7,52.1,130.8,52L130.8,52z M83.4,52.5l1.7,0.7c0.9,5.4,5.4,15.8,6.9,23.5c0.4,4.7,0.5,6-2.7,8.5v0h-1.7
			c0,0,0-0.1,0.7-0.7c4.1-3.1,1.7-9.9,0.1-15.1C85.8,61.1,83.4,52.5,83.4,52.5L83.4,52.5z M67.4,53.1c-0.2,0-0.4,0-0.7,0
			c-2.6,0.1-3,0.3-3,0.9c0,1.1,0.4,1.5,2.8,1.3c2.1-0.2,5.1,0.1,7.2,1c2.4,1,2.9,1.3,3.8,1.7c2.1,1.1,1.8,0-0.2-1.3
			C73.4,54.1,70.7,53,67.4,53.1L67.4,53.1z M86.1,53.5l1.6,0.6c0,0,0.4,1.3,0.6,2c1.6,6.9,5.8,14.7,6.3,22.8
			c0.1,2.7-0.3,5.1-2.3,6.3h-1.5c1.6-1.6,2.6-2,2.2-7.4C92.3,70.8,87.7,62.1,86.1,53.5z M88.9,54.6l1.5,0.5
			c1.7,9.4,10.2,23.3,4.8,30.1h-1.3c1.2-1.9,1.7-3.5,1.5-6C94.8,70.7,90.5,62.4,88.9,54.6L88.9,54.6z M91.4,55.4l1.6,0.5
			c2.2,9.5,10.5,25,4.6,29.3l-1.2,0C100.9,76.9,94.1,68.2,91.4,55.4z M94.2,56.3c0.5,0.3,1.2,0.4,1.7,0.6c1.7,7.2,4.7,14.2,6.1,20.9
			c0.5,3.7-0.3,6.4-2.6,7.4h-0.5c2.1-3.1,1.7-7,0.6-11.3C98,68.2,95.2,62,94.2,56.3z M69.1,56.5c-0.7,0-1.5,0.1-2.3,0.4
			c-0.8,0.3-0.7,1,0,0.8c0.3,0,0.7-0.1,1-0.2c1.9-0.3,4.3,0.4,7.1,2.1c0.7,0.4,1.4,0.8,1.6,1c0.5,0.4,1.1,0.4,0.9-0.1
			c-0.1-0.2-1.2-1.1-2.2-1.6C73.2,57.6,71.3,56.5,69.1,56.5L69.1,56.5z M96.9,57.1l1.6,0.2c3,13.9,9.7,22.5,4,27.6h-1.4
			c1.6-1.6,2.3-4.1,1.7-7c-0.5-3-2.1-7.7-3.4-11.9C98,61.2,96.8,57.1,96.9,57.1L96.9,57.1z M99.2,57.5l1.4,0.3
			c1.6,5.6,4.3,12.6,5.9,18.4c1,3.6,0.6,8-1.6,8.8l-1.2,0c1.9-2.5,2.2-5.2,1.3-8.6C103.2,69.4,100.5,63.3,99.2,57.5z M107.6,57.5
			c1.4,5.8,4.7,14.8,5.9,17.8c1.6,3.1,1.1,7.8-1.3,9.6l-1.1,0c1.4-1.3,1.8-3.4,1.6-5.6c-0.6-6.2-5-14.9-6.6-21.6L107.6,57.5z
			 M101.6,57.8l1.4,0.1c1.4,6.1,4.1,12.1,5.9,18.2c0.3,1.4,0.6,3.1,0.5,4.3c-0.2,2.6-1.3,4.7-2.3,4.7h-1c2-2.4,1.9-5.6,1-9
			C105.9,70.3,102.5,63.5,101.6,57.8z M65.1,57.8c-0.6,0-0.6,0.5,0.3,1.4c0.6,0.5,0.5,0.3,0.5,0.7c-0.1,1.4,0.1,2.6,0.6,1.2
			c0.1-0.4,0.4-0.8,0.6-0.7c0.4,0.1,0.2,0.9,0.4,1.3c0.3,0.7,0,0.8-0.8,0.6c-0.6-0.2-0.6,0.2-1,0.6c-0.6,0.7-0.5,1.1,0.4,0.9
			c0.2,0,0.3,0,0.4,0c0.3,0.1,0.6,0.3,1.3,0.8c0.9,0.7,2.3,1.7,3.1,1.8c1.4,0.2,1.1-0.4-0.1-0.9c-1-0.4-2.2-1.4-2.2-1.7
			c0-0.2,0.3-0.1,2.1-0.6c0.8-0.2,1.8-0.7,2.3-0.9c0.7-0.3,0.8-0.3,1.9-0.3c2,0.1,2.3,0,0.9-1c-2.8-2.1-6.5-3.4-8.5-2.6
			c-0.6,0.3-0.6,0.1-1-0.1C65.9,57.9,65.4,57.8,65.1,57.8L65.1,57.8z M105.2,58c1.9,7.5,5.7,14.2,6.6,21.3c0.2,2-0.1,4-1.8,5.7
			l-1.1,0c-0.2,0,1.6-2.7,1.4-5c0-1.2-0.1-2.6-0.4-3.9c-2.2-6.3-4.4-12-6.1-18L105.2,58z M70.2,60.4c0.4,0.1,0.4,0.3,0.3,0.6
			c-0.2,0.4-0.6,1.2-0.6,1.2s-0.5,0.1-0.6,0c-0.2-0.3,0.4-1.5,0.8-1.7C70.1,60.4,70.2,60.4,70.2,60.4L70.2,60.4z M71.5,60.7
			c0.1,0,0.1,0,0.2,0.1c0.5,0.2,1.4,0.6,1,0.9c-0.5,0.4-2.2,0.5-2.1,0.4l0.6-1.1C71.3,60.8,71.4,60.7,71.5,60.7z M66.1,67.2
			c0,0-0.1,0-0.1,0c-0.1,0.1,0.1,0.5,0.5,0.9c1.5,2.1-0.6,2.7-2.1,1.6c-1.4-1.1-3.7-1-3.3,0.2c0.1,0.4,0,0.6,0.8,0.6
			c0.7,0,0.9,0.1,1.5,0.5c2.5,1.7,5.7-0.6,4.1-3C67.1,67.6,66.4,67.2,66.1,67.2z M72.2,70.5c-0.9,0-1.5,0.7-0.3,0.9
			c4,0.7,1.3,4.9-1.5,2.7c-2.5-2.3-6-2.3-6-0.7c0,0.4,0,0.4,0.6,0.5c1.4,0.3,3.5,0.9,4.3,1.3c0.5,0.2,1,0.5,1.1,0.5
			c1.7,0.6,3.9-0.2,4.3-1.6C75.1,72.8,74.8,70.5,72.2,70.5z M22,83.8c0.5,0,1.1,0.5,1.5,1.2c0.9,1.6,2.1,4.2,2.8,5.7
			c0.2,0.4,0.2,0.7,0.2,0.9c0.1,0.9,0.3,1.2,0.9,0.8c0.5-0.4,1.2-1,0.4-1.1c-0.8-0.6-1.3-1.5-0.8-2.1c0.4-0.4,0.2-0.7-0.1-0.7
			c-1.2,0-2.9-3.4-2.1-4.2c1.1-1,2.3,0.2,4.9,5.3c1.1,2.3,1.2,4.7,0.2,3.5c-0.3-0.3-0.3-0.1-0.7,0.8c-0.3,0.7-0.5,1.1-1.6,2.1
			c-1.4,1.3-2.2,2.3-2.2,2.6c-0.1,0.4,0.7,0,1.3-0.7C28,96.7,28,96.3,28,98c0,1.5-0.1,1.8,0.2,1.8c0.4,0,0.6-1.2,0.8-2.6
			c0.2-1.3,0.9-1.9,2-2.7c0.3-0.2,0.3-0.3,0.3-0.9c-0.2-1.8,0.8-5.2,1.3-4.4c0.1,0.2,0.3,0.6,0.4,0.9c0.1,0.5,0.4,1,0.9,1.1
			c0.6,0.4,0.6,0.7,0.8,2.2c0.1,0.5,0.3,1.3,0.5,1.7c0.3,0.8,0.6,1.2,0.4,1.4c-0.1,0.1-0.3,0.3-0.3,0.3l-9.4,5.5c0,0-0.7,0.4-1,0.5
			c-0.7,0.3-1.2,0.1-1.6-0.5c-2-3-3.3-6.3-4.7-9.3c-0.8-1.8,0-3,1.1-1.6c0.4,0.6,0.2,0.9,0,2c0,0.2,0.1,0.1,0.5,0.2
			c0.5-0.1,0.8,0.4,0.8,1.3c-0.3,1.2,0.1,0.5,0.4,0.5c0.4,0,0.5,0.3,0.8,0.8c0.2,0.7,0.5,0.5,0.9,0c0.4-0.4,0.4-0.4-0.4-1.3
			c-1.3-1.4-3.1-4.5-3.5-6.4c-0.1-0.5-0.1-0.9,0-1.2c0.6-1.3,1.4-1.3,2.3,0.5c0.2,0.3,0.4,0.8,0.7,1.1c0.3,0.5,0.5,0.9,0.5,1.7
			c-0.3,0.7-0.3,0.7-0.1,0.8c0.6,0.2,1.6,1.2,1.6,2.1c0,0.9,0.2,1.4,0.9,0.9c0.8-0.6,0.5-0.9-0.3-1.7c-0.9-1-0.9-1.9-0.4-2.6
			c0.1-0.2,0-0.3-0.3-0.3c-1,0.1-2-1.2-1.3-2.1c0.3-0.6,0.3-0.7-0.2-0.7c-0.2,0-0.6,0-0.8-0.1c-0.3-0.5-0.9-1.3-0.9-1.9
			C21,84.2,21.5,83.8,22,83.8L22,83.8z M80.7,83.8c1.6,1,3.2,2,5.1,2.5C81.5,94,74.7,98,69,99.6c0.2,1,0.3,1.9,1.3,2.5
			c0-0.1-0.5-1.9-0.4-2.2c7.8-2,14.8-9.7,16.5-13.6l34.5-0.4c-25.6,24.5-26.6,59-5.7,87.8l-2.4,1.4c-16.1-24-15.9-47.2-11.1-62.7
			c3.4-11,9.6-19.4,14.2-24.2c0,0-18.7-0.3-28,0.1c-1.4,2.1-2.6,3.8-4.4,5.7c0,0,4.7-4.6,4.6-5.4c8.6,0,17.5-0.5,26.1,0.1
			c-10.1,12-15,24.5-15.9,36.2c0,1.5-0.1,0.7-0.6,1.2l-1.6,2.5l-1.3-2.6c-0.9-0.3-2.6,0.2-3.3-0.1c-3.5,15.8,0,34.9,4.7,47.3
			c0,0-1.2,0.7-2.6,0.5c-1.6-0.3-2,0.1-3.3,0.4c-1.6,0.3-2.1,0.3-2.5,0.7c-0.2,0.2-0.5,0.5-0.9,0.7c-3.8,1.4-8.3,6.6-8.3,6.5
			l-4.2-1.9c3.9-7.6,8.4-10.4,16.5-13.7l-0.7-3.4c-8.5,3.2-14,7-18.3,14.4c-5.2-0.1-26.3-0.2-26.3-0.2c8.6-9.8,15.4-24.5,16.1-35.9
			c0.2-2.2-0.1-1.2,0.9-1.8l1.6-1.8l1.2,1.8c0,0,0.9,1.1,1.4,0.2c1.6-16-0.1-34.2-7.8-46.9c1.4-0.1,2.7-0.1,4,0.6
			c3,6.8,4.8,15.3,5.6,21.6c1,8,0.8,17-0.2,24.7l0.5,0.1c1.5-10,1-20.6-0.4-29.8c-0.7-4.8-3-12.4-4.6-15.9c-0.4-1-0.8-1.2-0.4-1.4
			C73,92,77.3,88.9,80.7,83.8L80.7,83.8z M54.6,84.7c0.7,0,1.3,0.6,1.3,1.3c0,0.7-0.6,1.3-1.3,1.3c-0.7,0-1.3-0.6-1.3-1.3
			C53.3,85.3,53.9,84.7,54.6,84.7z M125.3,85.4c-2.8,2.5-5,5.1-7.3,7.8c6.9,9.4,14.5,19.7,20.9,27.9c0,0,2.2-1.3,2.2-1.5
			c0-0.1-0.2-0.5-0.2-0.4c-0.1,0.2-1.8,1.2-1.8,1.2l-20.3-26.7c0,0,1.1-1.3,1.4-1.7c1.6-0.5,6-6,6.2-5.8
			c3.4,2.6,13.8,13.8,17.8,17.2l0.1,31c-0.4,1.2-11.5,6-19.3,23.9c-3.9,2.2-8.3,3.4-12.3,5.3c0,0,1,1.6,1.5,2.1
			c-0.6-1.3-0.7-1.6,0.7-2.2l29.3-11.9l-0.1,2.4c-2.9,2.3-22.3,16.3-28.3,19.6c-28-39-10.2-72.4,6.2-87.9L125.3,85.4z M34.1,87.5
			c0.8,0,0.6,1.8,0.3,2.4c-0.6,0.4-1.1,0-1.1-0.8c0-0.3,0-0.5-0.1-0.6C32.7,88.2,33.4,87.4,34.1,87.5z M51.2,88.6
			c0.6,0.5,0.9,1.1,1.1,1.8c-0.9-0.1-3.2-0.8-2.1-1.3L51.2,88.6z M47,90.9c20.2,30.5,19.3,62.9-3.2,87.5l28.5,0
			c3.6-7.2,9.7-11.5,17.4-14.2l0.7,2.2c-8.9,2.9-13.4,7.6-17,14.1h-34c13.1-14,19.1-25.9,20-42c0.9-15.3-3-29.2-14.8-46L47,90.9z
			 M52.7,91.2l4.8,2.2l-0.7,4.9l-5-2.3L52.7,91.2z M44.1,92.6c25.5,38.5,14.6,65.6-5.8,88.1l-3.7,0.1l-8.7-8.1l0.2,49.2
			c0,0-8.5,8.3-9.5,9.3c-1,0.9-1.7-0.5-1.7-0.5l0-65.3l0.4-2.6l0.1-14.1l5.4-2.9l20.4,26.6c0,0-0.8,1.2-1.2,1.4c0.4,1,1.9-1.4,2-1.8
			c-7.4-9.1-21.1-27-21.1-27l-5.7,3c0,0,0.2-11.7,0.1-16.2c0.2-1.1,1-0.8,1.5-1.2c7.4-4.8,13.6-11.8,18.8-23.6
			c4-1.3,8.1-3.1,12.1-4.8l-5.7-8.6L44.1,92.6z M28.5,93.1c-0.2,0-0.8,0.2-1.5,0.9c-1.4,1.2-3.2,3.3-3.2,3.7c0.4,0.1,0.7-0.1,1-0.4
			c1.1-1.7,2.9-2.3,3.9-3.8C28.9,93.2,28.7,93.1,28.5,93.1z M41.3,94.9c0,0,4,5.8,5,7.3c-10.4,4.1-21.3,9.6-31,13.1v-2.3
			C15.3,112.9,33.4,99.3,41.3,94.9z M56.8,98.7l3.9,2l-1.1,4.4l-3.9-2.2L56.8,98.7z M60,106l3.2,2.3l-1.5,3.7l-3.2-2.2L60,106z
			 M33.9,108.7c0,0-0.5,1.7-1.3,3.3c-4,6.9-7.8,13-15.8,18.3c-0.3-0.3-1.2-1.8-1.2-1.8l-0.1-2c4.2-3.4,7.9-5.9,13.5-15.9l1.6-0.7
			l1.4,0.6l0.9-1.7L33.9,108.7z M50.5,108.7c-3.7,7.8-7.3,15.9-13.2,22l16.1,22.4C58.7,137.3,56.8,122.4,50.5,108.7z M30.3,110.4
			l-0.8,1.3l1.3,0.8l0.8-1.3L30.3,110.4z M28.1,110.6c-2.9,6.5-7.3,11.5-13,15.1l-0.2-9.6L28.1,110.6z M29.1,112.5l-0.8,1.3l1.3,0.8
			l0.8-1.3L29.1,112.5z M62,112.8l2.9,2.7l-1.7,3l-3-2.5L62,112.8z M106.5,114.1C106.5,114.1,106.5,114.1,106.5,114.1
			c-5.1,15.8-3.6,31,3.4,44.1c3.4-8.5,6.2-14.2,13-23.3C118.7,129.5,106.9,114,106.5,114.1L106.5,114.1z M28,114.4l-0.8,1.3l1.3,0.8
			l0.8-1.3L28,114.4z M50.2,116.2c4.6,11,4.2,20.9,1.7,29.4l-11.5-14.5C44.7,126,47.5,121,50.2,116.2z M26.8,116.3l-0.9,1.3l1.3,0.9
			l0.9-1.3L26.8,116.3z M25.5,118.1l-1,1.2l1.2,0.9l1-1.2L25.5,118.1z M63.4,119.4l2.6,2.5l-1.6,3.2l-2.6-2.4L63.4,119.4z M24,120
			l-1,1.2l1.2,1l1-1.2L24,120z M107.9,120.3l11.6,14.9c-3.9,4.6-7.1,10-10,15.9C106.3,141,104.8,131.1,107.9,120.3z M22.4,121.9
			l-1.1,1.1l1.1,1.1l1.1-1.1L22.4,121.9z M49.5,123.3l-5.3,7.7l6.1,7.7C50.9,134.6,51,129.7,49.5,123.3z M20.7,123.6l-1.1,1l1,1.1
			l1.1-1L20.7,123.6z M19,125.1l-1.2,1l1,1.2l1.2-1L19,125.1z M64.3,125.9l2.2,2.5l-2.2,2.6l-2.1-2.3L64.3,125.9z M91.9,126.3
			l1.5,0.1c-2.4,23.9,2.3,36,6.6,46.5c0,0,0,0.4-0.2,0.5c-0.7,0.2-2.1,0.5-3.2-0.5C91,158.4,89.7,140.4,91.9,126.3L91.9,126.3z
			 M17.1,126.6l-1.3,0.9l0.9,1.2l1.3-0.9L17.1,126.6z M109.7,127.5c-0.4,0-0.7,9.8,0.7,14.6l5.3-7.2L109.7,127.5z M95.9,129.1
			l1.8,2.4l-1.9,2.6l-1.9-2.4L95.9,129.1z M15.6,129.8c0.1,0,0.2,0.2,0.5,0.4c0.3,0.3,0.2,0.3-0.1,0.5c-0.5,0.4-0.6,0.3-0.6-0.3
			C15.5,129.9,15.5,129.8,15.6,129.8L15.6,129.8z M64.4,131.6l2,2.8l-2.2,2.8l-1.9-2.9L64.4,131.6z M95.8,135.1l2.1,2.5l-1.8,2.8
			l-2.3-2.6L95.8,135.1z M143.8,135.7l0.2,2.9l-0.7-1.1l-1.3,1l0.9,1.2l1.2-0.9l0.1,1.2c-7.3,5.3-10.5,11.3-13.4,15.9l-1.3,0.6
			l-1.5-0.5l-0.7,1.3l-1.3,0.3c0,0,2.6-5.6,7-11.2C136.8,141.3,143.8,135.6,143.8,135.7L143.8,135.7z M144.6,140.2l0.1,10.3l-13.1,5
			C135,149.8,139,144.5,144.6,140.2z M141.4,139l-1.2,1l1,1.2l1.2-1L141.4,139z M139.6,140.5l-1.2,1l1.1,1.1l1.2-1L139.6,140.5z
			 M95.9,141.1l2.5,2.6l-1.8,3.1l-2.6-2.5L95.9,141.1z M137.7,142.2l-1.1,1.1l1.2,1.1l1.1-1.1L137.7,142.2z M136,143.9l-1,1.1
			l1.3,1.1l1-1.1L136,143.9z M134.3,145.9l-1,1.2l1.3,1l1-1.2L134.3,145.9z M96.7,147.7l3.1,2l-1.5,3.7l-3.1-2.3L96.7,147.7z
			 M132.8,147.7l-0.9,1.3l1.4,0.9l0.9-1.3L132.8,147.7z M131.4,149.7l-0.8,1.3l1.4,0.9l0.8-1.3L131.4,149.7z M130.2,151.7l-0.8,1.3
			l1.5,0.8l0.8-1.4L130.2,151.7z M129,153.7l-0.8,1.3l1.6,0.7l0.6-1.3L129,153.7z M98.4,154.5l3.2,2.1l-1.4,3.8l-3.3-2.4L98.4,154.5
			z M144,158.3v79.1h-34.5c0,0-1.6-2.9-5-9.5c-1.4-2.8-2.7-4-2.8-6.2c0.1-1.3-0.5-2.8-1.5-3.4c-0.4-0.2-1,0-0.8-0.5
			c0.2-0.6-0.5-1.6-0.6-1.8c-0.2-0.4-0.1-0.4-0.1-1.8c0-1.3-0.1-1.8-0.4-2.8c-0.7-2.4-0.8-3.6-0.4-4.9c1-3.2,2.1-5.6,3.5-8.6
			c0.8-1.7,0.7-2.4-1.8-3.7c-1.8-0.9-2.1-0.9-1.9-2.3c0.1-0.6,0.2-1.1,0.1-1.4c-0.1-0.2-0.4-0.5-0.6-0.6c-0.2-0.2-0.2-0.6,0.1-0.9
			c0.2-0.3,0.2-0.8,0-1.5c-0.5-1.6,0.6-3.6,2.8-5c1-0.6,0.9-0.5,1.9,0.5c2.9,3.1,7.2,1.1,7.2-3.2c0-1.3-0.5-1.3,0.8-1.9
			c4.3-2.7,13.1-7.7,13.1-7.6c0.6,1.2,0.8,2.2,1.1,3.4c0.3,1.1,0.3,1.2,0.2,3.3c-0.1,1.9-0.2,2.3,0.3,2.5c2.5,0.3,3.1-0.6,3.6-2.3
			c0.2-0.7,0.6-0.6,0.9-0.3c1,1.8,2.2,3.6,3,4.8c1,1.6,2.7,2.4,3.6,1.6c0.2-0.6,0.3-0.6,1.5-0.4c1.4,0.3,2.1-0.5,2.3-1.5
			c0.1-0.4-0.2-0.4,0.5-0.8c1.8-1.3,1.1-3.2,0.9-4.3c0,0.1,0.8-0.5,0.8-1.5c0.1-5.4-4.6-13.1-4.5-12.9L144,158.3z M100.3,161.4
			l3.7,1.8l-0.9,4.4l-3.8-1.7L100.3,161.4z M136.2,163c2.1,2.5,3.7,6.6,4.5,9.2c0.4,1.3,0.4,2.8,0.1,3.1c-0.3,0.2-0.5,0-0.4-0.8
			c0.1-0.7,0.1-1.2-0.2-1.2c-0.8,0.2-0.9-1-0.8-1.3c0.1-0.2,0.2-0.3,0.2-0.4c0.2-0.5-0.3-0.4-0.9-0.4c-0.5,0-0.6-0.3-0.6-0.7
			c0-0.5-0.7-0.4-1.1,0c-0.4,0.4-0.3,0.8,0.2,1.1c0.7,0.4,1.3,1.4,2.9,5c0.9,2.1,0.7,3.5-0.5,3.5c-0.8,0-1.7-2.1-2.4-3.7
			c-0.2-0.4,0.3-0.8,0.4-1.1c0.4-0.6,0.4-0.7-0.3-0.7c-0.6,0-0.8,0-1.2-0.7c-0.1-0.3-0.2-0.7-0.2-1c0.3-0.8-0.3-1-0.9-0.7
			c-0.8,0.3-0.8,1,0.4,2.1c0.7,1.2,0.6,1.1-0.2,2c-0.1,0.3-0.1,0.5,0.3,0.5c0.9-0.3,1.9,1.3,1.6,1.9c-0.3,0.2-1,1.1-0.3,0.9
			c1.5-0.4,2.4,1.8,1.5,2.5c-1.3,0.7-1.6,0.4-3.6-3.5c-0.6-1.2-1.4-2.6-1.5-2.7c-0.1-0.1-0.1-0.5-0.1-0.8c0.1-0.7-0.2-0.9-0.9-0.6
			c-0.5,0.1-0.9,0.5-0.3,0.9c0.7,1.2,0.9,1.4,0.6,1.7c-0.9,0.7-0.5,0.7,0.5,0.9c0.5,0.1,0.7,0.4,0.9,0.7c0.5,1.1,1.4,2.7,1.5,3.1
			c0.3,0.8-0.2,1.2-1,1.2c-0.8,0-1.1-0.6-1.5-1.1c-1.4-1.9-2.4-3.8-3.8-6l0.2-2.1c0,0,0.4,0.1,0.6,0c0.4-0.2,0.7-0.8,0.9-1.7
			c0.4-0.7,2.6-2.4,3.4-3.3c0.2-0.1,0.3-0.3,0.3-0.4c0-0.3-1-0.1-1.6,0.6c-0.9,0.8-1.3,0.5-1.3-0.5c-0.1-1.3-0.9-0.6-0.9,0.6
			c-0.1,1-0.4,1.6-1.1,2.2c-1.3,1-1.1,0.8-1,2.2c0.1,2.5-0.9,4.6-1.5,3.2c-0.2-0.5-0.5-1.1-1.1-1.1c-0.4,0-0.6-0.4-0.8-1.4
			c-0.3-1.6-0.8-2.6-1.2-4.1L136.2,163z M103.5,168.5l4.3,1.7l-0.8,4.4l-4.2-1.6L103.5,168.5z M135.9,168.9
			C135.9,168.9,135.8,168.9,135.9,168.9c-1.3,0.9-2.4,1.9-3.7,2.7c-0.5,0.3-1.1,1-1.1,1.2c0,0.2,0.6,0.2,1.2-0.1
			c0.5-0.2,3.6-3.1,3.6-3.4C136.1,169.2,136.1,168.9,135.9,168.9z M96.9,174.3c1,0,0.4,0.3-1.8,1.8c-2.1,1.5-5.7,6.2-6.1,7.9
			c-0.2,0.8,0.3,0.9,0.9-0.2c2.6-5,7.5-9.5,12-9.3c2.2,0.1,3.4,0.7,1.6,1c-5,0.6-8.7,3.5-12,9.1c0,0.1,0.3,0.1,0.6-0.1
			c3-3.7,6.4-8.5,12.3-8.1c4.3,0.3,5.5,5.3,1.9,7.1c-3.1,1.5-6-2.2-3.4-4.4c0.8-0.7,1.4-0.4,0.6,0.3c-1.7,1.6,0.4,4.3,2.5,3.3
			c1.3-0.5,1.8-2.4,0.7-3.7c-2.5-3.1-7.9-0.7-11.6,4.2c-0.4,0.5-0.7,1.6-0.4,1.5c0.6-0.2,0.9-0.7,1.3-1.2c1.3-1.9,2.4-2.8,4.2-3.8
			c1.4-0.8,1.5-0.6,1,0.7c-0.2,0.6-0.4,0.7-0.9,1.1c-2.3,1.6-3.7,3.6-3.8,5c0,1,0.7,2.2-0.1,2.5c-1.3,0.6-4.9,0.1-5.8-1.1
			c-0.7-0.9-1-0.4-0.4,1.1c0.3,0.9,0.3,1.5,0.8,1.4c0.7-0.3,1.1-0.3,2.4,0.4c0.6,0.3,1.7,0.6,2.4,0.8c1.2,0.3,1.5,0.2,1.4,0.7
			c0,0.2,0,0.6,0,0.9c-0.2,1.6,1.1,2.1,2.9,3.1c1,0.6,0.6,1.2-0.6,4.2c-0.6,1.4-1.2,3.2-1.9,4.5c-0.7,1.5-0.8,3.2-0.3,5.2
			c0.9,3.6,1.5,5.4-0.1,5.7c-4,0.6-12.8,0.6-17.6-1.3c-1.2-9.2-7.7-22.9-6.9-26.4c1.7,2.5,8.6,1.8,6.5-5.2c0,0,0.6-0.9,1.7-2
			c2.9-3,3.7-3.5,2.3-0.8c-1.1,2-2.4,4.6-2.5,5.1c0,0.4,0.3,0.5,0.5,0.2c0.2-0.2,0.4-0.8,0.6-1.3c1.7-4.1,4.7-7.8,6.8-8.7
			c0.5-0.2,0.5,0,0.1,0.5c-2.4,3-4.3,5.8-5.6,9.4c-0.1,0.4,0.5,0.5,0.6,0.2c2.3-4.8,2.9-5.8,5.7-9.2c1.1-1.3,2.1-2,2.9-1.9
			c0.7,0.1,0.5,0.2-0.2,0.9c-0.5,0.5-1.2,1.3-2.4,2.8c-2.1,2.6-4.2,6.9-3.4,6.7c0.1,0.4,0.8-0.8,1.4-1.9c1.5-2.6,3.2-6,6.8-8.2
			C95.3,174.5,96.1,174.3,96.9,174.3L96.9,174.3z M26.4,175.1l6.5,6.5l13.1-0.2c-2.2,3.3-1,8.5,0.2,11.6c2.3,5.9,5.7,15.7,5.5,15.9
			c0,0-1.9,0.5-2.1,1.7c-0.3,1.8,0.5,1.6-0.6,3.3c-0.3,0.4-0.1,1,0.2,1.6c0.2,0.4,0.3,1,0,1.5l-11.5,20.5H15.5v-4l11.2-11.1
			l-0.1-8.1c6,1.8,8,7.9,8.5,12.5c10.8-9.8,10.5-24.6,0.3-33.9c-2,9.8-9.1,11.9-8.9,11.7L26.4,175.1z M107.6,176.3
			c0.7,0.1,1.6,0.2,2.3,0.5c-0.4,0.3-0.7,0.6-1,0.9C108.5,177.1,108,176.7,107.6,176.3z M125.7,176.4c0.6,0,1.3,1.7,0.9,2.1
			c-0.2,0.2-1,0.3-1.2,0.1C125,178.3,125.1,176.4,125.7,176.4z M105.1,179.3c0.7,0,1.4,0.6,1.4,1.4s-0.6,1.4-1.4,1.4
			c-0.7,0-1.4-0.6-1.4-1.4S104.3,179.3,105.1,179.3z M47.6,181.2l1,0c-1.8,2.4-2,4.4-1.4,7.4c0.7,3.3,6.1,15.9,6.5,19.3
			c0,0.2,0,0.6,0,0.6l-1.3,0.1c0,0-0.1-0.4-0.1-0.5c-1.9-6.2-3.7-11-5-14.7C46,189.6,44,183.7,47.6,181.2L47.6,181.2z M54.8,181.3
			C54.8,181.3,54.8,181.3,54.8,181.3l1,0c0,0-1.4,3-1.5,4.7c-0.1,2,0.4,4.2,1,6.4c1.6,4.7,3.9,9.9,5.2,15.8c0,0.1,0.2,0.6,0.2,0.6
			l-1.4-0.2c0,0-0.1-0.6-0.2-0.7c-1-5.2-3.6-10.6-5.2-15.7c-0.8-2.3-1.4-5.2-1.1-7.4C53,183.3,54.5,181.3,54.8,181.3L54.8,181.3z
			 M66.2,181.3c-1,1.5-1.9,3.5-2,5c-0.1,2.8,0.8,5.2,1.6,7.7c2.5,7.7,3.7,11.7,5,17.8l-1.3-0.6c0,0-0.1-0.3-0.1-0.4
			c-0.7-3.8-0.8-3.5-5-16.4c-1-3.1-1.9-5.8-1.7-8.4c0-1.5,1.3-4.4,2.7-4.6L66.2,181.3z M67.8,181.3H69c0,0-0.7,0.7-0.9,1
			c-2.2,3-1.6,6.3-0.5,10.2c1.5,5.3,4.3,11.3,5.7,19.4c0,0.2,0,0.9,0,0.9l-1.5-0.6c-1.4-7.4-4.7-15.2-6.3-21.9
			c-0.9-3.9-0.7-6.4,1.5-8.6C67.6,181.3,67.8,181.3,67.8,181.3z M52.5,181.3h0.9c0,0-1.6,2.6-1.6,4.1c-0.3,2.7,0.7,5.7,1.8,8.8
			c1.7,4.8,4,10.6,4.7,13.7c0,0.1,0.1,0.7,0.1,0.7l-1.6-0.1c0,0-0.1-0.7-0.2-1.1c-1.9-6.6-3.7-10.8-5.9-16.9
			c-0.3-0.9-0.9-4.5-0.2-6.8C51.1,181.9,52.5,181.3,52.5,181.3z M50,181.3l1,0c0,0-0.2,0.3-0.5,0.9c-1.8,3.3-1,6.4,0.1,9.8
			c1.5,4.5,3.9,10,5.4,15.3c0.1,0.3,0.2,1.2,0.2,1.2l-1.5,0c0,0-0.3-1.1-0.3-1.2c-0.8-4.8-5.3-12.9-6.4-19.1
			C47.4,184.9,47.9,182.9,50,181.3z M63.5,181.3c0,0-1.6,2.8-1.7,4.3c-0.3,3,0.7,5.5,1.8,8.9c1.9,5.9,4.6,12.7,4.8,15.9
			c0,0.1,0,0.5,0,0.5l-1.6-0.6c0,0-0.1-0.3-0.1-0.4c-1.4-5.7-3.1-11.4-5.4-17.7c-0.6-2.2-1.3-4.3-1.2-6.2c0.3-2.5,0.8-3.1,2.2-4.6
			L63.5,181.3z M70.7,181.3l1.3,0c0,0-0.4,0.2-1.3,1.2c-5.2,4.8,3.2,18.2,5.2,30.4c0,0.1,0.1,0.6,0.1,0.6l-1.5-0.5
			c-0.1-0.6-0.2-1.4-0.4-2c-1.6-6.3-3.7-12.7-5.6-18.5c-1.1-4.3-1.5-8,0.5-10.1C69.6,181.7,70.7,181.3,70.7,181.3z M57.1,181.3
			l1.4,0c-1,1.3-1.6,3.3-1.7,5c-0.1,2.1,0.5,4.1,1.2,6.3c1.4,4.4,3.4,9.2,4.8,15.1c0.1,0.4,0.1,0.6,0.2,0.8c0.1,0.3,0.2,0.7,0.2,0.7
			l-1.5-0.3c0,0-0.2-0.4-0.3-0.6c-0.2-0.3-0.3-0.7-0.4-1.2c-0.7-3.1-3.4-10.1-5-15.1C54.9,189.1,54.5,183.7,57.1,181.3L57.1,181.3z
			 M74.7,181.4c1.8-0.1,3.4,1.5,3.8,2.9c0.4,1.5-0.1,3.2-1.8,4.1c-2.7,1.4-5.6-2.3-3.5-4.3c1.6-1.5,4-0.4,3.5,1.6
			c-0.3,1.3-2.3,1.4-2.6,0.1c-0.1-0.4-0.3-0.9-0.5-0.6c-1,2.3,2.4,3.4,3.8,1.3c0.8-1.7-0.7-4-3.1-3.6c-3.2,0.6-3.5,4.6-2.2,9.3
			c1.8,7.4,6.2,17.4,6.2,22c0,0.1,0,0.2,0,0.2l-1.4-0.4c0,0,0-0.1,0-0.1c-0.8-6.4-5.6-17-7-25.2c-0.6-3.7,0.9-6.4,4.1-7.2
			C74.3,181.4,74.5,181.4,74.7,181.4z M60.9,181.4c-1,1.3-1.6,3.3-1.7,4.7c0,2.1,0.7,4.1,1.3,6.2c1.5,5.3,5.1,15,5,16.9
			c0,0.2,0.1,0.8,0.1,0.8l-1.4-0.4c0,0-0.1-0.1-0.2-0.3c-0.5-1.8-2.7-9.6-5.1-16.3c-1-2.7-1.4-4.8-1.3-6.6c0.2-2.5,0.9-3.5,2-4.9
			L60.9,181.4z M87.4,190.2c-3.6,0.2-3.3,4.6-1,5.3c0.8,0.2,1.3,0,1.4-0.1c0.1-0.2,0-0.5-0.5-0.6c-1.5-0.5-2.1-2.3-0.7-3
			c0.7-0.4,1.9-0.1,3.4,0.9c2.6,1.9,5.7,2,5.3,0.1c-0.1-0.5-0.3-0.5-2.2-0.8c-1.5-0.2-2.2-0.7-2.9-1.1
			C89.1,190.4,88.2,190.2,87.4,190.2z M35.8,194.3c9.3,9.1,7.9,23.3,0,30.5c-0.2-0.6-0.5-2-0.6-1.9c6-6.2,8.8-16.4,0.1-26.9
			C35.4,196,35.5,195.2,35.8,194.3z M94.2,194.5c-0.1,0-0.2,0-0.2,0c-2.4,0.7-2.9,3-1.3,4c1,0.6,1.7,0.2,0.5-0.5
			c-1-0.6-0.5-2.3,0.7-2.2c0.5,0,0.9,0.2,2.3,1.3c1.1,0.8,2.2,0.9,2.4-0.2c0.1-0.7-0.1-1-0.8-0.8c-0.3,0.1-0.5-0.1-0.9-0.4
			C95.9,195,94.8,194.5,94.2,194.5z M34.8,196.3c8.4,9.7,5.7,19.9,0,25.9c-1.6-4.6-5.4-7.4-5.4-7.4c1.4-3.2,2.3-6.5-0.4-10.7
			C31.6,201.8,33.6,199.3,34.8,196.3z M89.4,199.9c-0.4,0-0.3,0.4,0.7,1c2.2,1.5,2.4,1.8,0.3,1.7c-0.5,0-1.4,0.4-1.9,0.5
			c-2.8,0.9-2.9,0.9-4.3,0.5c-0.4-0.1-0.9-0.3-1.1-0.1c-0.3,0.3-0.6,0.5-0.3,0.9c0.3,0.3,0.8,0.5,1.4,0.9c3.3,1.9,3.5,2.3,7.4,2.4
			c0.4,0,0.7-0.2,0.9-0.2c0.6,0,1,0.1,1.6,0.7c1.2,1.1,1.2,0.3,0.5-1.1c-0.4-0.7-0.7-0.9-0.5-1.4c0.4-1.3-0.2-1.5-0.9-0.4
			c-0.6,0.9-0.6,0.9-1.2-0.3c-0.7-1.4-0.4-2,0.7-1.1c0.8,0.7,1,0.2,1.3-0.4c0.4-0.7,0.4-1.4-0.4-1.3c-0.4,0-0.8-0.2-1.2-0.5
			C91.9,201,90.6,200.1,89.4,199.9z M90.3,203.7c0.1,0,0.1,0,0.2,0.1c0,0.5-0.3,1.4-0.6,1.9c-0.1,0.2-0.2,0.2-0.4,0.3
			c-0.7,0.1-0.7-0.1-0.6-0.5C89.1,204.8,89.4,203.9,90.3,203.7C90.3,203.7,90.3,203.7,90.3,203.7L90.3,203.7z M88.6,204
			c0.3,0,0.3,0.1,0.2,0.3c-0.2,0.4-0.5,0.8-0.8,1.1c-0.5,0.3-1.4-0.7-1-1c0.5-0.2,0.9-0.4,1.5-0.5C88.5,204,88.6,204,88.6,204
			L88.6,204z M28.4,204.7c0.1,0,0.3,0,0.4,0.1c2,2.7,1.9,6.9,0.3,9.2c-0.1,0.2-0.2,0.2-0.4,0.1c-0.7-0.4-1.5-0.6-2.2-0.8v-8
			C27.2,205.2,27.8,204.7,28.4,204.7L28.4,204.7z M82,205.3c-0.2,0-0.2,0.1,0,0.3c3,2.1,7,4.6,10.8,3.7c0.3-0.1,0.6-0.3,0.6-0.6
			c0-0.2-0.4-0.4-0.8-0.3c-0.9,0.2-2.5,0.3-3.2,0.1c-2.6-0.4-4.9-2.1-6.9-3C82.3,205.4,82.1,205.3,82,205.3z M81.1,207.4
			c-0.1,0-0.1,0.1,0,0.4c0.4,1.2,4.6,4.1,7.9,5.1c2.8,0.8,6.9,0,6.7-1.3c-0.1-0.7-0.6-0.9-2.5-0.6c-4,0.8-7.8-0.9-10.8-2.7
			C81.7,207.7,81.3,207.4,81.1,207.4z M54.9,209.1c1.7,0,3.5,0.1,5.4,0.4c3.6,0.6,7.9,1.7,11.4,3.4c6.1,2.3,13.7,4,20.2,3.8
			c1.6,0,4.4-0.1,5-0.3c1.4-0.3,1.8,0,2.2,1.8c0.1,0.4,0.2,0.5,0.7,0.8c0.8,0.5,0.6,1,0.5,2.2c-0.1,1,0.5,1.5,2.8,5.8
			c2.7,4.9,5.3,10.6,5.3,10.6c-23.3,0-45.6-0.9-69.5-0.1c2.1-5.1,8-14.2,11.7-21.6c-0.9-2.3,0.2-2.6-0.3-3.2c-0.7-1.3-0.2-3,1.4-3.4
			C52.9,209.2,53.9,209.1,54.9,209.1z"/>
		<path id="path6353-8_1_" class="st1" d="M39.2,237.6c0,0,7.6-15.4,10.9-20.1c4.6-5.9,25.6,2.5,36,4.7c4.2,0.8,14,0.4,14,0.4
			l8.2,14.7L39.2,237.6z M23.4,220.1l-0.3-48l2.4,1.5l0.5,48.3l-10.3,9.9l-0.1-2.9L23.4,220.1z M29.6,214.6c2.5-5-0.3-11-0.3-11
			c1.4,0.4,5.4-7.2,5.8-7c6.1,7.5,7.2,18.6-0.3,25.5C32.9,217.3,29.7,214.6,29.6,214.6L29.6,214.6z M34.2,180.6
			c4.6-4.7,8.3-8.4,12-13.7c0.3-0.4-19.5-25.6-19.2-26c3.1-3.4,7.2-5.9,10.4-9.9c0,0,16.3,21.3,16.6,21.1c1.6-6.7,2.9-12.7,2.5-19.6
			c-1-17.8-8.6-28.7-8.7-28.5c-2.6,16.4-27.9,41.1-32.9,39.4l0-11.4c0.3,0.6,16-10.1,20.2-24.2c0.3-1,12.5-4.9,12.4-5.1
			c-0.5-1.3-5.9-8.9-5.9-8.9s2.2-1,2.4-1c6.9,8.6,12.1,19.9,13.9,30.7c2.2,11.6,3.6,33.5-19.8,57.3L34.2,180.6z M104.1,150.6
			c-3.6-11.3-3.6-23-1.9-31.2c2.6-14.8,11.9-25.4,19.5-33.5l3.3,0c0,0-3.9,4-5.3,5.5c-2.4,2.8-6,8.6-6,8.6l19.5,25.4l11.1-2.4
			c0,0-0.3,11.4,0,11.4c-8.6,7.1-14.8,13.6-19.3,24c-2.7,1-11.8,4.9-11.8,4.9c-4.3-1,12.8-27.8,9.5-28.3c-1.3-1.1-16.2-21.1-16.4-21
			c-6.8,20.9-0.2,42.8,11.9,58.1c-1.4,0.9-2.6,1.6-2.5,1.4C110.5,166.3,106,157.8,104.1,150.6L104.1,150.6z M68.6,140.1
			c0.8,1.2,4.2-25.5-4.9-46.8c0.9-0.7,8.4-2.1,8.4-2.1l2,6.4L69,99.7l0.9,3c4-1.9,12.6-4.8,17.9-13.6c0,0,25.7-0.2,26.3-0.2
			c0.5,0-5.2,5.6-10.7,16.8c-2.5,5.1-4.5,11.7-4.9,19.5c-0.1,1.5-5.9-7.2-5.9-7.2c1.4-7.4,5.3-14.7,9.2-22c0,0-5.9-0.3-10.1-0.2
			c-6.4,7-10.5,10.7-20.2,14.1c3.5,11.3,25.2,16.7,20.4,15.7c-1-0.2-2.2,10.4-1.2,22.4c0.2,9.6,5.4,25.5,5.5,25.4
			c0,0-3.4,0.8-3.7,0.2c0.6-0.1-5.1,1.3-5.1,1.3l-2-6l5.5-2.5l-0.9-3.4c0,0-12.2,3.7-18.1,14.3l-26.6,0
			c10.3-11.1,14.4-22.1,16.7-36.7C64.1,141.2,68.6,140.1,68.6,140.1L68.6,140.1z M134,44.1c3.3-2.8,10.1-10.1,10.1-10.1l0.1,3.7
			l-7.6,7.9l0.1,48.9l-2.6-2.5L134,44.1z M130.5,62c-1.4,0.7-4.1,3.9-5.4,7.5c-8.8-7.9-5.2-22.3-0.4-25.4c1.4,3.2,5.5,7.4,5.4,7.3
			C129.1,54.7,128.4,58.1,130.5,62z M52.3,29.2l68.1,0.1c-3.9,7.6-7.4,13.8-11.6,21.3c-2.1,2.6-48.6-8.4-48.9-7.3L52.3,29.2z"/>
		<path id="path6355-9_1_" class="st3" d="M15.5,227.9L15,163.8l7.7,7.5l0.5,49.3L15.5,227.9z M51,215.5c-1.6,0.2-0.7-1.2-0.4-2.6
			c0.2-0.8-0.6-1.5-0.6-1.8c0-1.4,1.1-2,5.8-1.9c11.2,0.8,16.9,4.3,23.3,6c6.1,1.6,12.2,1.6,19,1.4c0.5,0.3,2.3,4.9,2,5.4
			C84.8,225,65.3,213.8,51,215.5L51,215.5z M78.6,182.3c-1.6-1.2-3.1-1.4-4.6-1.6c2.6-4.6,5.8-8.8,11.1-11.4l2.5,6.1
			C84.4,176.9,81.4,178.8,78.6,182.3L78.6,182.3z M46.4,166.4c0,0-2.3,3.7-4.5,5.6c-6.4-8.6-20.8-26.9-20.8-26.9l-6.1,3.1
			c0,0,0-3.5,0.1-3.8c16.5-8.5,27.8-24.5,32.7-39.5c0,0,2.7,2.7,2.3,3.8c-4.5,11.8-12.1,23.7-23.3,32.6L46.4,166.4z M66.9,149
			l20.8,0l0.9,7.2c-8,2.7-14.5,8.1-20.7,14.4l-9.9-0.2C61.3,163.4,65.8,156.2,66.9,149L66.9,149z M143.9,118.6c0.7,2,0,4.2,0.3,4.1
			c-24.9,12.3-32,39.3-32,39.3s-2.4-3.7-2.3-4.3c12.9-28.6,21.5-29.5,23.2-32.6l-19.6-25.3l4.4-6l21,27.3
			C141,120.1,142.2,119.3,143.9,118.6z M131.6,155.6c4.2-7.6,8.6-12,12.9-15l-0.2,10L131.6,155.6z M15.2,125.8l0.1-9.7l12.8-5.5
			C24.5,118.3,19.7,122.4,15.2,125.8z M72.3,117.1l-0.8-6.8c7.8-3.4,14.7-7.9,20.2-14.1c6-0.3,10,0.1,10,0c0,0-5.7,8.3-9.4,21.4
			L72.3,117.1z M136.8,45.3l7.1-7.2l0.2,64l-7.1-6.9L136.8,45.3z M74.5,97.3L72.3,91c3.5-1.3,6.2-4.2,8.7-7.1c1.7,1.5,3.9,2,4.6,2.3
			C86.7,86.5,78.5,96.3,74.5,97.3z M61.2,49.4c0,0-0.9-0.5-0.8-1.2c0.3-0.9-0.9-3-0.9-3c15.1-4.6,37.1,8.3,50.1,5.6
			c-0.1,0.9,0,2-0.3,2.9c0.4,1.8,0.7,1.9-1.1,3c-9.2,2.6-18.8-2.9-27.8-5.6C73.1,48.6,67.2,49.2,61.2,49.4L61.2,49.4z"/>
		<path id="path6357-5_1_" class="st4" d="M51.5,28.3l2.8,5.2l-0.5,0.3c0.8,1.2,1.4,2.7,2.2,3.9l0.6-0.1c0.9,1.7,1.3,2.4,2.5,4.4
			l-0.5,0c0.3,0.9,1,1.5,1,2.2c0,0.8-0.2,1.6,0.3,2.2c0.6,0.7,0.7,0.8,0.5,1.2c-0.3,1,0.6,2.1,1.5,2c6.6-0.9,13.3-0.1,20,1.9
			c4.8,1.5,9.1,3.2,13.2,4.4c1.3,0.4,3.9,1,6.1,1.1c6.2,0.5,9.7-0.8,8.6-3.4c-0.1-0.2-0.3-0.4-0.3-0.5c0-0.2,0-0.4,0.4-0.7
			c1-1,0.4-1.8-0.2-2.9c0,0,7.9-14.2,11.9-21.2L51.5,28.3z M120.3,29.6l-5.8,10c-3.1-0.6-3.8,2-3.9,2.4c-4-1-3.4,4.2-1.4,4.5
			c0.1,0.8-3.3,1.7-5.1-0.1c2.8,0.4,3.8-3.3,0.4-4.1c4.5-3.3-3.9-8.3-4-1.4c-4-0.7-3.4,4.5-0.9,4.9c-1.3,1.4-5.1,1.5-7-1.5
			c3.4,1.7,5.2-2.8,1.7-4c4.3-3.8-4.1-7.2-3.9-1.2c-3.2-1.9-5.4,2.9-1.1,3.6c-0.2,0.9-5.8,0.9-7.2-1.4c3.9,0.9,4.1-3.9,0.6-4.3
			c3.5-4.4-5.4-6.7-3.9-0.6c-3.4-1.4-4.7,2.9-1.4,4.3c0.2,0.7-5.4,1.3-7.3-1.2c4.3-0.6,2.8-4.8,0-4.5c0,0,0-0.1,0.2-0.5
			c1.3-4.2-5.7-4.5-4.8-0.1c0.2,0.4,0.3,0.9,0.3,0.9c-1.9-0.4-3.1,0.4-3,2.2c0.5,2.4,1.8,2.2,3.4,1.8c0.7,0.7-3.9,3.1-6.9,1
			c3.6-1,1.8-5.2-1.2-4.6c-0.1-1.3-1.6-3.2-3.5-2.3l-2-3.9L120.3,29.6z M126.1,85.1l-4.2,0.1c-2.9,3-24.2,22.6-20.6,52.1
			c1.5,12.6,5.1,23.6,14.5,36.5l2.5-1.5l0.4,0.3l26.2-15l0-4.6l-30.4,12.7c-0.6-0.6-1-1.4-1.5-2.1l12.2-5.2c0,0,0.3-0.7,0.4-1.1
			c4-10.1,12.1-17.4,19.2-23.1c0-10-0.1-30.8-0.1-30.8l-18.3-18.2c-2.3,2.1-4.4,4.4-6.5,6.7l21,27.6l-1.9,1.2l-20.8-27.5
			C120.7,90.3,123.4,87.7,126.1,85.1L126.1,85.1z M144.8,103.1c0,0-0.1-47.5-0.2-70.4l0,0l-10.9,11.2l0,48.1L144.8,103.1z
			 M143.8,37.2l-7.7,7.9l0.1,48.9l-2-2V44.5l9.6-10.1L143.8,37.2z M68.8,36c0.2,0.4,0.1,1-0.2,1.4c-1.6,2,3.4,5.3,6.9,4.8
			c2.7-0.4,5-2.1,4-3.3c-0.8-1-0.3-2,0.7-2c1,0,1.8,0.8,0.9,1.9c-1.9,2.4,1,5.3,5.5,5.3c3.2,0,4.3-0.7,4.1-3
			c-0.1-1.1,0.1-1.4,0.9-1.5c1.2-0.3,1.8,1.1,0.8,2.1c-2.1,2.2,0.3,5.5,4.3,5.7c1.5,0.1,1.8,0,3.4-0.9c1.3-0.7,1.7-1.8,1.1-2.7
			c-0.8-1.1,0.3-2.4,1.5-1.9c0.9,0.4,1.3,1.1,0.3,2.2c-1.3,1.5-0.7,2.8,1.8,3.6c2,0.7,3.3,0.6,4.2-0.3c0.3-0.3,0.9-0.8,0.9-0.6
			c-0.6,1.1-1.2,2-1.2,2c-4.1,1.8-7.3-1.6-7.2-1.7c-4.2,2.4-8,1.9-11.1-2.2c-0.8,0.5-6.7,1.5-11-3.1c-4.3,2.1-8.3,1.2-11.8-1.2
			c-2.6,2.5-5.4,2.9-8.2,1.7l-0.8-1.7c0.2-0.1,1.1,1.7,5.6,0.9c1.5-0.3,4.1-2.8,2.6-4c-0.7-0.9-0.7-1.4-0.1-1.9
			C67.5,35.2,68.5,35.5,68.8,36L68.8,36z M57.8,38.3c0.3,0.5,0.3,1.3,0,0.8c-0.1-0.3-0.9-1.4-0.9-1.4C57.3,37.6,57.6,38,57.8,38.3
			L57.8,38.3z M143.9,38.6l0.1,63.1l-6.6-6.5L137,45.8L143.9,38.6z M67.8,41.7l2.1,1.3l-3.7,0L67.8,41.7z M79.4,42.8l1.7,1.7
			l-3.7-0.8L79.4,42.8z M111.9,43.7l-0.8,1.6C110.7,44.8,110.6,43.7,111.9,43.7z M125.1,69.9c1.3-3,3.1-6.7,5.9-7.9
			c-2.1-4.2-1.8-8.4-0.3-10.7c-2.2-2-4.4-4.4-5.7-7.9C118.1,49.4,117,61.7,125.1,69.9z M124.9,44.5l0.5,1.2
			c-6.1,7.4-4.2,17.1,0.2,22.3l-0.6,1.3C119.5,63.7,117.2,51.7,124.9,44.5z M88.6,48.7c7,2.1,12.7,5.3,20.8,2.4l0,1.6
			C104.3,56,93.9,52.5,87,50c-11.2-4.1-19.9-3.9-26.1-3.4c-0.5-0.1-1-1.5-0.1-1.5C72.4,44.9,70.5,43.4,88.6,48.7z M90.2,45.9
			l2.3,2.4c-1.7-0.5-3.4-1.1-5-1.9L90.2,45.9z M125.4,46.5l0.5,0.6c0.2,0.3-1.3,0.4-1,0.1L125.4,46.5z M85.8,51
			c8.4,3.1,17.6,6.3,23.7,3.5c0,0,0,1.2-0.7,1.5c0,0-0.6,0.5-2.8,0.8c-9.8,0.8-16.2-3.3-24.1-5.7c-3-0.9-7.8-2-12.8-2.2
			c-2.9-0.1-7.4,0.3-7.4,0.3c-1-0.1-1-0.7-1-1.2C69.2,46.9,77.1,47.7,85.8,51z M126.3,48c0.1,0,0.2,0,0.3,0l0.9,1.1l-1,1.6
			c0,0-0.9-0.8-1.4-1.6C124.9,48.6,125.6,48,126.3,48z M101.6,48.3l2.7,2c-2,0.1-4.2,0.2-6.5-0.7L101.6,48.3z M124.1,49.3
			c0.2,0,0.4,0.2,0.7,0.7c0.5,0.8,0.4,1-0.5,1.3c-1.3,0.4-1.4,0.3-1-0.8C123.6,49.7,123.9,49.3,124.1,49.3z M128.2,49.8l1.8,1.5
			c-1,2.6-1.6,5.8,0.4,10.5c-0.2,0-1.5,1.3-1.9,1.5C127.3,62.9,124.7,53.6,128.2,49.8L128.2,49.8z M126.1,51.8l-0.5,2.9
			c0,0.2-2-1.3-1.8-2.1C124.2,51.6,125.4,51.8,126.1,51.8z M122.9,52.8c0.2,0,0.6,0.6,1.1,1.3c0.4,0.6,0.3,0.8-0.5,1.5
			c-1.2,1.2-1.4,0.8-1.1-1.2C122.4,53.5,122.6,52.8,122.9,52.8z M125.3,55.4c0.2,0,0.3,0,0.4,0.1l0.1,2.8c0,0.3-2.2-0.1-2.5-1.2
			C123,56.5,124.4,55.4,125.3,55.4L125.3,55.4z M122.4,57.7c0.2,0,0.6,0.3,1.1,0.6c0.8,0.5,0.8,0.7,0.1,1.6c-0.8,1-1.2,0.9-1.3-0.9
			C122.3,58.3,122.2,57.8,122.4,57.7z M125.6,58.8c0.1,0,0.1,0,0.2,0.1c0.4,0.3,1,3.1,0.7,3.4c-0.4,0.4-2.2-0.1-2.6-0.8
			C123.5,60.9,124.9,58.8,125.6,58.8z M123.3,62.1c0.2,0,0.6,0.1,1.2,0.4c0.3,0.2,0.9,0.5,1.1,0.8c0.2,0.5-0.2,1.2-0.6,1.8
			c-0.3,0.4-0.6,0.1-1.3-1.2C123.2,62.8,123,62.1,123.3,62.1z M127.1,63.3c0,0,0.1,0,0.1,0c0.6,0.4,0.5,1.4-0.2,2.2
			c-0.9,0.9-1.7,0.2-1.1-0.9C126.3,63.8,126.8,63.3,127.1,63.3z M74.7,89.2c-0.5,0-1.4,0.5-1.8,1c-0.5,0.6-0.9,0.5-1.4,0.5
			c-0.6,0-1.6,0.1-2.9,0.7c-0.7,0.3-1.1,0.4-2.1,0.5c-0.7,0-1.4,0.1-1.5,0.2c-0.2,0.1-0.7,0.3-1.1,0.4c-0.9,0.3-0.6,0.5-0.1,1.7
			c2.7,7,4.7,15.1,5.4,21.7c0.8,7.6,0.6,16.8-0.5,23.8c-2.6,0-4.2-0.1-7-0.1c-1.9,15.2-6.9,27.2-17.1,38.1l27.4,0.1
			c3.1-8.4,17.5-14.7,17.9-14.3l0.8,3.1c0,0-10.3,1.5-17.2,14.5c0.7-0.4,3.3-0.1,5,1.6c3.4-4.3,9-7.1,9-7.1l0.2-0.5
			c0,0,1-0.3,1.9-0.5c0.3-0.1,0.9-0.2,1.3-0.3c0.6-0.2,0.9-0.4,1.8-0.4c2,0.2,3.9-0.4,3.9-0.4c-5.8-16-7.2-30.5-4.9-47.3
			c2.1,0,6.8,0.1,6.8,0.1c0.5-4.7,1.1-9.4,2.5-13.9c1.9-5.7,4.1-11,7.7-15.9c2-3.1,3.8-5.2,5.9-8.1L88,88.5
			c-3.5,6-10.4,10.9-15.9,13c-1.9,0.7-2.1,0.6-2.4-0.3c-0.6-1.6-0.5-1.5,0.9-1.9c0.5-0.1,2.1-1,4.5-2.1c5.2-2.6,8.7-7.4,10.8-10.7
			c0.8-1.3,0.3-1-1.2-1c-1.3-0.1-1.9-0.5-3.1-1.6c-0.4-0.4-0.6-0.7-0.8-0.7C79.3,85.5,76.8,88.4,74.7,89.2L74.7,89.2z M81,84.2
			c1.2,1.3,2.6,2,4.5,2.3c-3,4.7-6.7,8.4-10.9,10.6l-2.1-6C77.8,88.6,79.2,86.2,81,84.2z M124.8,86.1c-28.4,26.2-26.7,59.2-6.8,86
			l-2.1,1.2c-18.7-25-22-61.9,6.5-87.4L124.8,86.1z M106.9,89.3l7,0l-4.7,6.1l-6.4,0L106.9,89.3z M105.8,89.3l-3.9,6.1l-10.4,0.1
			c-6.2,7.7-12.9,11.4-19.8,14l-1.3-6.6c0,0,10.8-2.6,17.8-13.7L105.8,89.3z M95.2,89.8l-2.4,2.7l2.5,2.6l2.3-2.6L95.2,89.8z
			 M100.7,89.8l-2.4,2.5l1.9,2.6l2.5-2.5L100.7,89.8z M88.6,90.2l-0.4,4l3.2,1l0.5-3.4L88.6,90.2z M107.8,90.4l-2.3,3.6l3.4,0.1
			l2.4-3.6L107.8,90.4z M71.8,91.3l2.2,6.2l-2,0.9L70,92L71.8,91.3z M69.1,92.3l2.3,6.4l-1.9,0.6l-2.1-6.7L69.1,92.3z M71.9,117.5
			c0.3,8.9,0.4,14.2-1.1,22.1c-0.1,0.4-1.7,0-1.7,0c0.2,0.1,0.9-8.8,0.8-14.4c-0.1-10.6-1.9-21.2-6.1-31.7c0.8-0.5,2.8-0.7,2.8-0.7
			C69.2,100.7,71.6,109.3,71.9,117.5z M44,92.9c9.2,12.1,15.7,28.6,14.6,44.8c-1,18.9-8.2,29.8-20.8,42.9l-3.2,0.1
			c14.9-14.3,21.5-26.5,22-42.6c0.6-18.5-5.1-30.9-14.6-44L44,92.9z M14.7,109.5l0,4.4L46,100.6L41.5,94L14.7,109.5z M87.9,95.1
			l-3.4,0.2l0.1,3.4l3.5-0.1L87.9,95.1z M118.1,94.4l20.2,26.5l-5,3.7l-19.3-24.9L118.1,94.4z M102.3,96.2l6.1,0.1l-2.3,3.9l-5.8,0
			L102.3,96.2z M101.2,96.3c-2.8,5.2-6.6,11.1-8.8,20.6l-19.9,0c0-2.2-0.3-4.3-0.6-6.5c8.6-3.1,15.2-7.8,20.1-14L101.2,96.3z
			 M104.9,96.6l-2.6,1.5l1.6,1.8l2.9-1.1L104.9,96.6z M81.1,98.5l-0.9,3.4l3.2,1.2l0.6-4L81.1,98.5z M99.7,101l5.8,0l-2.4,4.9
			l-5.8-0.1L99.7,101z M113.5,100.4l19.1,24.8l-1.8,1.4l-18.7-24.2L113.5,100.4z M101.9,101.4l-2.6,2.2l2,2.3l2.4-1.9
			C103.7,103.9,101.9,101.4,101.9,101.4z M76.5,101.6l-0.8,3.3l3.4,0.9l0.6-3.5L76.5,101.6z M71.9,103.8l-0.7,3.2l3.2,0.9l0.7-3.1
			L71.9,103.8z M45.8,103.4c0.2,0-0.5,3.8-1.5,4.5c-0.5,0.3-0.7,0.3-1.2-0.2c-0.3-0.3-1.6-2.5-1.6-2.5l1.1-0.6
			c1.4,2.2,1.4,1.1,1.9-0.7L45.8,103.4z M40.5,105.7c0.4,0,1,0.5,1.6,1.6c0.9,1.5,0.9,1.6-0.6,2.1c-2.6,0.7-3.6,0.9-2.8-0.9
			C39.6,106.7,40,105.7,40.5,105.7L40.5,105.7z M48.3,105.4l1.8,3.1c-7.2,18.2-18.7,31.3-34.6,39.2l0-3
			C34.2,133.9,41.9,121.3,48.3,105.4z M97,106.7l5.6,0.1l-1.5,4.3l-6,0L97,106.7z M38.8,106.5C34.2,117.4,28,126.9,15.4,135l0-2.9
			c14.1-8.5,20.2-24.3,20.2-24.3L38.8,106.5z M110.1,106.5c3.3,0.1,6.8,3.7,6.5,6.7c-0.3,2.1,0.2,3.7,0.7,2.8c1.3-1.9,5-0.6,5,1.7
			c0,1.2-0.8,1.4-1.3,0.3c-0.7-1.6-2.6-1.7-2.9,0c-0.3,1.6,1.1,2.8,4.7,4.1c4.3,1,6.8,4.8,5.3,7c-0.5,0.6-0.8,0.7-0.9,0.4
			c0-0.1-0.1-0.5-0.2-1c-0.5-2.3-1.6-3.3-2.9-2.5c-0.7,0.4-0.6,0.9-0.2,1.6c0.5,0.9,0.2,1.3-0.7,0.8c-1.5-0.7-2-2.5-0.5-3.3
			c1.7-0.7,1.1-0.8-1-1.6c-4.6-1.6-6.6-4.5-6.8-10c0.1-2.5-0.3-3.4-1.4-3.7c-1.1-0.3-2.3,1.1-1.5,1.8c0.4,0.4,0.8,0.7,0.5,1
			c-0.7,0.7-2.5-0.4-2.5-1.6c0-0.8,0.3-1,1.5-1.9c0.3-0.3,0-0.7-0.4-0.8C109,109,109.1,106.6,110.1,106.5z M99.6,107.1l-2.8,1.6
			l1.5,2l3.1-1.5L99.6,107.1z M44.8,108.7c0.3,0,0.6,0.3,0.6,0.6c0,0.3-0.3,0.6-0.6,0.6c-0.3,0-0.6-0.3-0.6-0.6
			C44.2,109,44.5,108.7,44.8,108.7z M50.6,109c5.9,13,7.4,27.8,3.2,42.6l-16.1-20.9C43.9,123.8,48,115.8,50.6,109L50.6,109z
			 M28.9,109.9l-14.3,6l-0.1,10.7C22.5,121.2,25.8,115.6,28.9,109.9z M42.6,109.8c1.4,0,0.7,3.8-1.1,5.1c-0.7,0.5-1.1,0.5-1.3-0.6
			c-0.1-0.5-0.7-1.7-1.4-2.6c-0.8-1.1-0.8-1.1,0.4-1.2C40.5,110.6,41.6,109.9,42.6,109.8L42.6,109.8z M41.2,111.4
			c-1,0-1.4,0.5-0.7,1.1c0.5,0.6,0.9,0.4,1.3-0.4C42,111.7,41.8,111.4,41.2,111.4z M15.4,125.4l0-9.1l12.3-5.2
			C25.2,116.4,20.7,121.7,15.4,125.4L15.4,125.4z M124.2,132.7l-1.6,1.6l-15.8-20.6l1-2.6L124.2,132.7z M37.6,111.9
			c0.5,0,1.7,1.8,2.1,3.2c0.3,1,0,1.2-1.9,1.5c-0.8,0.2-2.8,0-2.7-0.5C35.4,115.2,37.4,111.9,37.6,111.9L37.6,111.9z M94.9,112.1
			l5.8,0.1l-1.3,4.7l-6-0.1L94.9,112.1z M97.4,112.4l-2.7,1.9l2.1,2.1l2.8-1.8L97.4,112.4z M106.5,114.4l16,20.7
			c-4.8,6.1-9.5,13-12.7,22.2C104.1,144.1,102,131.1,106.5,114.4z M41.5,116.2c0.3,0,0.6,0.3,0.6,0.6c0,0.3-0.3,0.6-0.6,0.6
			c-0.3,0-0.6-0.3-0.6-0.6C40.9,116.4,41.1,116.2,41.5,116.2z M39.6,117c1,0.1,0.1,3.2-1.4,4.4c-1.2,0.9-1.7,0.5-2-1.2
			c-0.1-0.6-0.7-1.6-1.3-2.4c-0.6-0.9-0.4-1,1.2-0.7C37.2,117.3,38.6,117,39.6,117z M93.1,117.7l6.1,0l-0.9,7.2L93.1,117.7z
			 M34.1,118.1c1,0.9,2.2,4,1.5,4.2c-0.7,0.3-4-0.1-4.3-0.5c-0.3-0.3-0.3-0.3,0.3-1c0.3-0.4,0.9-1.2,1.2-1.7
			C33.2,118.7,33.6,117.6,34.1,118.1z M37.5,118.2c-0.9,0-1,0.2-0.5,1.1c0.4,0.8,0.6,0.9,1.2,0.4C39,118.9,38.7,118.1,37.5,118.2z
			 M143.7,118.8l0.2,3.5c-23.3,11.5-32,38.7-32.1,38.7l-1.7-3.1C120.8,131.7,135,124.1,143.7,118.8L143.7,118.8z M34.1,123
			c1.4,0,1.8-0.1,1.8,0.4c0,1.4-1.3,3.3-2.9,4.1c-1.1,0.5-1.1,0.5-1.2-0.7c-0.1-1-0.4-2.2-0.9-3.2c-0.2-0.4-0.8-1.2,0-1
			C31.7,122.8,33.3,123,34.1,123L34.1,123z M37.2,122.7c0.3,0,0.6,0.3,0.6,0.6c0,0.3-0.3,0.6-0.6,0.6s-0.6-0.3-0.6-0.6
			C36.6,122.9,36.9,122.7,37.2,122.7z M29.8,123.5c0.3,0,0.5,0.5,0.8,1.3c0.6,1.6,0.8,2.5,0.6,2.9c-0.3,0.6-4.1,0.2-4.7-0.5
			C26.3,127.3,29.3,123.8,29.8,123.5z M32.6,123.9c-0.5,0-0.3,0.4,0.1,1.3c0.3,0.7,0.7,0.8,1.1,0.3c0.6-0.6,0.7-1.1,0.3-1.4
			C33.6,123.9,33.2,123.9,32.6,123.9z M143.9,127.5l0,1.2c-0.9-0.3-1.5-0.7-2.5-1c-0.6-0.2-1-0.4-0.4-1c0.9-1,1.8-1.7,2.9-2.3l0,1.3
			C142.2,126.4,142.3,127.1,143.9,127.5L143.9,127.5z M76.7,126.3h6.4v4.2h5l-0.4,4.8h-4.6v4.2h-6.4v-4.2h-4.6l0.4-4.8h4.2
			L76.7,126.3z M91.2,126.3c-3.3,16.1-0.3,33.2,4.8,47.1l-2.5,0.3c-3.9-11.1-7-27-3.9-47.4C89.5,126.3,90.7,126.3,91.2,126.3z
			 M138.9,126.6c0.3,0,0.6,0.3,0.6,0.6c0,0.3-0.3,0.6-0.6,0.6s-0.6-0.3-0.6-0.6C138.3,126.9,138.5,126.6,138.9,126.6z M25.8,127.9
			c0.2,0,0.9,0.3,1.4,0.4c0.9,0.2,1.6,0.3,2.4,0.4c1.6,0,1.8,0,1.1,1.3c-0.5,0.9-1.6,2.2-2.4,2.6c-1.1,0.6-1.5,0.5-1.5-0.6
			c0-0.7-0.3-2-0.7-2.9C25.8,128.4,25.5,128,25.8,127.9z M32.6,128.5c0.3,0,0.6,0.3,0.6,0.6c0,0.3-0.3,0.6-0.6,0.6
			c-0.3,0-0.6-0.3-0.6-0.6C32,128.7,32.2,128.5,32.6,128.5z M140.7,128.4c0.5,0,1.2,0.3,1.9,0.6c1.9,0.9,1.8,1.1-0.7,2.9
			c-1.8,1.4-2.3,1.6-2.4-0.7C139.5,129.4,139.7,128.4,140.7,128.4L140.7,128.4z M24.8,128.9c0.7,0,1.6,3.9,0.9,4.2
			c-1,0.5-4.3-0.5-4.3-1.4C21.5,131.5,24.5,128.9,24.8,128.9L24.8,128.9z M138.5,128.8c0.4,0,0.5,0.3,0.5,1.6c0,0.7,0.1,1.7,0.1,2.2
			c0.1,1,0,1.1-0.8,0.6c-0.5-0.3-1.6-0.8-2.7-0.9c-0.9-0.1-1-0.5-0.7-1.1C135.6,129.8,137.1,128.9,138.5,128.8z M27.6,129.3
			c-0.7,0-0.5,0.3-0.1,1.3c0.3,0.7,0.8,0.8,1.3,0.2c0.7-0.8,0.6-1.3-0.5-1.4C28.1,129.4,27.8,129.3,27.6,129.3z M137.6,130.3
			c-0.3,0-0.6,0.2-0.8,0.4c-0.6,0.4-0.9,0.7,0,1c0.8,0.3,1.2,0.4,1.1-0.3C137.9,130.9,137.9,130.3,137.6,130.3L137.6,130.3z
			 M77.3,130.8v4.2h5.1v-4.2H77.3z M133,131.1c0.3,0,0.6,0.3,0.6,0.6c0,0.3-0.3,0.6-0.6,0.6c-0.3,0-0.6-0.3-0.6-0.6
			C132.4,131.4,132.7,131.1,133,131.1z M37.2,131.8l16.1,20.7l-1.1,2.7l-16.6-21.8L37.2,131.8z M144,131.7l0,2.7
			c-1.8,1.3-13.4,9.7-19.4,23.8l-3.1,1.3C125.9,147.4,135.4,137,144,131.7L144,131.7z M21.2,132.8c1.1,0.3,2.1,1,3,1.2
			c1.1,0.1,1.5,0.1,1.2,0.7c-0.7,1.3-2,2.7-3.4,3.1c-1,0.3-1.4,0.2-1.3-0.4c0.3-1.1,0.3-2.1,0.3-3.1
			C21.3,133.7,20.8,132.9,21.2,132.8L21.2,132.8z M20,133.1c0.7,0.6,0.5,4.2-0.2,5c-0.4,0.4-1.5,0-3.2-0.9c-1.1-0.6-1.3-1-0.8-1.4
			C16.7,135.2,19.5,132.9,20,133.1L20,133.1z M135.3,133.2c0.3,0,0.8,0.1,1.3,0.2c2,0.5,2.5,0.9,0.7,2.3c-0.6,0.5-1.3,1.1-1.5,1.4
			c-0.9,1.1-1.6,0.3-1.8-1.7C133.9,133.8,134.1,133,135.3,133.2L135.3,133.2z M132.8,133.4c0.3,0,0.5,0.2,0.5,0.6
			c0,0.5,0.4,2.8,0.6,3.4c0.4,1.1,0.1,1.3-0.8,0.8c-0.6-0.3-2.3-0.6-3.2-0.5c-1,0.1-1-0.2-0.7-1.1
			C129.7,135,131.8,133.4,132.8,133.4L132.8,133.4z M22.2,134.1c-0.4,0-0.4,0.5-0.1,1.7c0.1,0.4,0.4,0.4,1-0.1
			c0.7-0.5,0.7-0.8-0.1-1.3C22.6,134.2,22.4,134.1,22.2,134.1z M26.8,134.2c0.3,0,0.6,0.3,0.6,0.6c0,0.3-0.3,0.6-0.6,0.6
			s-0.6-0.3-0.6-0.6C26.2,134.5,26.4,134.2,26.8,134.2z M130.9,136.5c0.3,0.3,1.3,0.3,1.5,0.1c0.3-0.3,0.1-1.4-0.1-1.6
			C131.7,134.8,130.5,136.1,130.9,136.5z M34,138.7c0.4,1.7,2.7,1.6,2.4-0.2c-0.2-1-0.2-1,0.3-1c2.4,0.1,2,3.9-0.8,3.6
			c-0.6,0.1-0.7,0.3-0.2,0.5c0.5,0.2,2.4,0.7,2.7,0.7c3,0,7.4,4.7,7.3,8.8c-0.1,2.7,0.9,4.7,1.8,4.9c0.7,0.2,1.8-0.5,1.7-1.3
			c-0.1-1.1,0.8-0.8,1.3,0c0.8,1.1-0.2,2.8-2.2,2.7c-0.8,0.2,0.6,0.7,1.7,1c1,0.1,0.2,1.2,0,1.5c-0.5,0.6-2.3,0.1-3.8-1
			c-1.7-1.4-2.5-3.3-2.7-6.9c-0.1-2.4-0.3-2.8-1-1.9c-1.2,2.2-4.2,1.1-4.6-1.2c-0.2-1.2,0.9-2.1,1.2-1c0.9,2.3,3.2,1.7,2.8-0.5
			c-0.2-1.5-1.7-2.3-4.7-3.2c-3.6-1-4.6-2.2-5.3-5.1c-0.3-1.3-0.3-2,0.4-2.6c0.3-0.3,0.8-0.7,0.8-0.7S33.8,137.8,34,138.7L34,138.7z
			 M127.2,136.9c0.3,0,0.6,0.3,0.6,0.6c0,0.3-0.3,0.6-0.6,0.6c-0.3,0-0.6-0.3-0.6-0.6C126.6,137.1,126.9,136.9,127.2,136.9z
			 M15.3,137.4c1.1,0.4,2,1,3.1,1.3c0.7,0.2,0.5,0.8-0.2,1.6c-0.8,1-1.6,1.4-2.8,2l0-1.6c1.4-0.5,2.3-1.6-0.1-2L15.3,137.4z
			 M130,138.4c0.4,0,1,0,1.6,0.2c1.7,0.3,1.9,0.5,0.9,1.7c-0.4,0.4-0.9,1.1-1.2,1.5c-1,1.4-1.5,0.9-2-0.9
			C128.7,138.9,128.5,138.2,130,138.4z M20.6,139c0.3,0,0.6,0.3,0.6,0.6c0,0.3-0.3,0.6-0.6,0.6s-0.6-0.3-0.6-0.6
			C20.1,139.3,20.3,139,20.6,139z M128.3,140.3c0.2,0.6,0.4,1.3,0.6,1.9c0.9,2,0.3,1.2-1.3,1.1c-1.1-0.1-2.9,0.1-3.3-0.2
			c-0.2-0.2,0-0.9,0.3-1.6c0.5-1,1.4-1.9,2.1-2.3C128.4,138.3,128,139.3,128.3,140.3z M29.5,139.6l18.4,24.3l-1.4,2.1l-19-25
			L29.5,139.6z M145,139.7c-9.6,6.9-13.3,15.3-14,16.4l14.1-5.4L145,139.7z M126.7,140.5c-0.5,0.1-1.3,1.1-1,1.5
			c0.2,0.2,1,0.2,1.3,0.1C127.7,141.8,127.3,140.5,126.7,140.5z M45.9,166.8l-3.9,4.9l-20.5-26.4l5.2-3.7L45.9,166.8z M144,141.1
			l0.1,9.1l-12,5C136.1,148.4,140.1,144.2,144,141.1z M61.8,141.9l4.8,6.3l-5.9-0.1L61.8,141.9z M122.7,142.4c0.3,0,0.6,0.3,0.6,0.6
			s-0.3,0.6-0.6,0.6c-0.3,0-0.6-0.3-0.6-0.6S122.4,142.4,122.7,142.4z M126.2,143.9c2.2,0,2.9,0.1,2.3,1.2c-0.9,1.1-1.4,2.1-2.3,3
			c-0.5,0.5-1.2-0.6-1.8-2.4c-0.5-1.5-0.2-1.8,0.6-1.8C125.9,143.9,126.1,143.9,126.2,143.9z M123.7,145.8c0.2,0.6,0.6,1.5,0.9,2.1
			c0.3,0.6,0.7,1.2,0.7,1.3c-0.1,0.3-0.3,0.3-0.9,0.1c-1.3-0.6-4.2,0-4.3-0.2c-0.4-0.6,0.2-2.3,1.5-3.5c0.6-0.6,1.2-0.9,1.5-1
			C123.4,144.6,123.4,145.1,123.7,145.8L123.7,145.8z M20.8,145.4l20.8,27l-1.4,1.8l-21.1-27.5c0,0-3.3,1.6-4.3,2.2l0.1,14l-0.6,0
			l0.1,70.7l11.6-11.6l-0.2-48c2.5,2.3,4.6,4.8,7.4,7.1l4.8,0c12.6-12.8,19.5-23.8,21-43.4c1-13.1-3.4-29.7-14.9-45.7l-2.8,1.7
			L47,102l-11.8,5.2c-4.7,9.9-10.3,19.1-20.5,24.4l-0.1,12.9l-0.2,0.3l0.1,4L20.8,145.4z M122.6,146.3c-0.6,0-1.4,1.2-1,1.6
			c0.5,0.2,1.2,0.2,1.5-0.2C123.3,147.4,123.2,146.5,122.6,146.3z M60.5,149.1l6.1,0l-1.6,5.2l-6-0.1L60.5,149.1z M118.6,149.1
			c0.3,0,0.6,0.3,0.6,0.6c0,0.3-0.3,0.6-0.6,0.6c-0.3,0-0.6-0.3-0.6-0.6C118,149.3,118.3,149.1,118.6,149.1z M87.4,149.2l0.8,6.8
			c-6.7,2.4-13.9,6.5-20.1,14.1c-1.1-0.1-9.7,0.1-9.7,0.1c0.2,0,7.9-14.5,8.8-20.9L87.4,149.2z M63.2,149.9l-2.8,1.9l2.2,2.3l2.9-2
			L63.2,149.9z M121.6,149.9c0.6,0,1.4,0.1,2,0.2c1,0.2,1.2,0.2,0.8,1.1c-0.5,1.1-1.5,3.2-1.8,3.3c-0.9,0.6-3.1-3.6-2.3-4.3
			C120.5,150,120.9,149.9,121.6,149.9L121.6,149.9z M118.9,151.2c0.3,0,0.6,0.5,0.7,1c0.1,0.6,1.1,1.9,1.7,2.6c0.8,0.8,0.7,1-0.4,1
			c-1.3,0.1-2.6,0.4-3.3,0.6c-1.1,0.4-1.3,0.3-1.1-1C116.8,153.4,118.1,151.2,118.9,151.2L118.9,151.2z M117.9,155.3
			c0.1,0.4,1.9-0.3,2-0.8c0-0.2-0.7-1.4-1.1-1.5C118.1,153.1,117.8,154.7,117.9,155.3z M58.9,155l5.8,0.1l-1.9,4.8l-5.7,0L58.9,155z
			 M61.5,155.6l-2.8,1.7l2.2,2.1l2.7-1.8L61.5,155.6z M120.3,156.5c0.5,0,1,0,1.1,0.2c0.3,0.5-0.9,3.3-0.9,3.3l-2,0.8
			c-0.4-0.9-1.2-1.8-1.4-2.8c-0.1-0.4,0.1-0.6,0.6-0.8C118.4,156.8,119.4,156.5,120.3,156.5L120.3,156.5z M114.8,156.7
			c0.3,0,0.6,0.3,0.6,0.6c0,0.3-0.3,0.6-0.6,0.6c-0.3,0-0.6-0.3-0.6-0.6C114.2,157,114.5,156.7,114.8,156.7z M88.5,156.8
			c0,0,1.2,7,1.3,6.3c-9.6,3.6-15.3,9-17.9,14.2l-18.1,0l4-6.3l10.7-0.1C73.7,164.7,80,159.7,88.5,156.8z M86.1,158.5l-0.9,2.8
			l2.7,1.7l1-3.1L86.1,158.5z M115.8,158.5c0.2,0,0.5,0.4,0.9,1.2c0.3,0.6,0.8,1.5,0.8,1.5l-0.8,0.3c-0.7-2.2-1.3-1.4-1.3,0.6
			l-1.1,0.4c0,0,0.1-1.9,0.8-3C115.4,158.9,115.6,158.5,115.8,158.5L115.8,158.5z M56.8,160.5l5.6,0.1l-2.3,4.8l-5.7-0.2L56.8,160.5
			z M81.3,160.9l-0.4,3.6l3,0.6l0.4-3.4L81.3,160.9z M59.2,160.9l-2.8,1.8l1.8,2.4l2.7-1.8L59.2,160.9z M76.9,164.1l-0.6,3.3
			l2.8,0.6l0.6-3.3L76.9,164.1z M15.4,164.3l7.1,7l0.4,48.9l-7,7.1L15.4,164.3z M53.9,166c0,0,5.7,0.2,5.7,0.2l-2.3,4.1l-1.9-0.1
			l2.6-1.7l-1.6-2.1l-2.6,1.7l1.5,2.1l-3.8-0.1L53.9,166z M90.5,167.3l1.9,6.3l-2.3,0.4l-1.7-6C89.1,167.7,89.8,167.5,90.5,167.3z
			 M72.3,167.7l0,3.8l3.1,0.3l0.1-3.6L72.3,167.7z M87.7,168.3l1.8,6l-1.5,0.4l-2.1-5.7C86.4,168.6,87,168.4,87.7,168.3z M85,169.5
			l2.3,5.9c-3.1,1.3-6.4,4-8.8,6.7c-1.8-1.3-2.9-1.5-4-1.8C77.5,174.6,81.2,171.6,85,169.5L85,169.5z M50.9,171l5.9,0.2l-4.1,6.2
			l-6.7,0L50.9,171z M68.5,171.2l-0.4,3.6l3.2,1.9l0.5-3.7L68.5,171.2z M64.7,171.7l-2.3,2.4l2.4,2.7l2.2-2.9L64.7,171.7z
			 M59.7,171.8l-2.7,2.5l2.1,2.8l2.5-2.8L59.7,171.8z M25.4,174.1l0.3,47.8l-9.9,9.6l-0.1-2.6l7.8-8.2c0-16.2,0-32.3-0.1-48.5
			L25.4,174.1z M51.7,172.6l-2.7,3.7l3.2,0l2.3-3.6L51.7,172.6z M34.9,195.7c-1.1,3.9-6,8.1-6.1,8c2.5,3.5,2.4,8.5,0.2,11
			c0-0.1,3.9,3.2,4.5,4.9c0.3,0.7,0.4,1.5,0.8,2.2c0.1,0.2,0.4,0.6,0.4,0.6C44.3,212.6,39.8,201.2,34.9,195.7z M35,196.7
			c9.3,11.6,3.2,22.1-0.1,25.1l-0.6-1c6.9-8,4-17.9,0-22.6L35,196.7z M34,199c0.1,0.2,0.4,0.7,0.2,0.7l-0.5-0.1L34,199z M33.9,200.3
			c0.2,0,0.4,0.1,0.5,0.2c0.2,0.3-0.8,3-1.4,2.4c-0.2-0.4-0.4-0.7-0.6-1c-0.2-0.4-0.1-0.6,0.4-1.1C33.2,200.4,33.6,200.3,33.9,200.3
			z M35.3,201c0.5,0,1.1,1.5,1.2,2.6c0,0.1-1.6-0.2-2-0.7C34.5,202.4,34.9,201.3,35.3,201z M31.6,202.2c2.8,5.6,2.6,10,0.2,14.1
			l-1.9-1.7c1.3-3.1,1.9-6.4-0.2-10.6L31.6,202.2z M33.5,203.6c0.2,0,0.8,0.1,1.3,0.2c1.9,0.6,1.9,1.8,0.1,2.7
			c-0.7,0.4-1,0.2-1.4-1.7C33.4,204,33.2,203.6,33.5,203.6L33.5,203.6z M37.2,205.8c0.4,0,0.5,0.7,0.6,1.9c0,1.1-0.2,1.2-1.1,0.4
			c-1-0.9-1.1-1.1-0.3-1.8C36.6,206.1,37,205.8,37.2,205.8L37.2,205.8z M34.6,207.6c0.2,0,0.7,0.3,1.2,0.7c1.3,1,1,1.6-0.5,2.1
			c-1,0.3-1,0.4-0.9-1.4C34.4,208.2,34.4,207.7,34.6,207.6z M51.6,209.2c-1.6,0.4-2.2,1.8-1.7,3.1c0.2,0.6,0.6,0.6,0.2,0.9
			c-0.5,0.5-0.7,1.8-0.2,2.3c0.6,0.4,0.8-0.3,0.1,0.9l-11.8,21.7l70.9-0.1l-8.5-15.9c0,0,0.7-2.6-0.7-2.9c-0.4-0.1-0.7-0.5-0.8-0.9
			c0.1-1.1-0.4-1.6-0.8-2.2c-6.7,1-12.6,0.5-17.4-0.6c-7-1.6-12-4.3-15.2-5.1C61.2,209.1,55.8,208.6,51.6,209.2z M55.4,209.4
			c5.5,0,11.7,1.6,16,3.5c4.5,1.8,9.2,3.2,14,3.9c3.9,0.5,7.9,0.2,11.7-0.1c0.4-0.1,0.8,0,1.1,0.3c0.8,0.9,0.2,1.4-1.7,1.6
			c-3.1,0.3-7,0.1-10.5-0.4c-5.5-0.6-11.3-2.3-16.3-4.4c-6.3-2.3-12-3.1-16.5-2.4c-2.5,0.4-2.9,0.4-2.9-0.2
			C50.3,210,51.4,209.4,55.4,209.4L55.4,209.4z M37.4,213.2c-0.2,0.6-2-1.3-1.9-1.8c0-0.2,1.4-1.1,2-1.5c0.3-0.2,0.2-0.1,0.3,0.1
			C37.7,210.7,37.7,212.5,37.4,213.2z M34.8,211.8c0.8,0.1,2.1,2.2,0.9,2.6c-1,0.3-1.9,0.5-2.1-0.2
			C34.2,212.5,34.4,211.9,34.8,211.8C34.7,211.8,34.8,211.8,34.8,211.8L34.8,211.8z M80.7,219.1c5,0.9,11.6,1.4,16,1.1
			c2.5-0.2,3-0.2,3,0.9c0,0.6,0.1,0.6-3.1,0.6c-2.7,0.2-5-0.1-7.6-0.2c-5.3-0.3-10.2-1.2-14.6-2.7c-5-1.3-9.3-3.8-14.1-4.3
			c-4.4-0.4-8.4,0.4-9.3,0.8c-0.3,0-0.4-0.4-0.4-0.8c0-0.4,0.2-0.7,0.5-0.9C63.7,210.3,70.5,217.2,80.7,219.1z M36.5,214.8
			c0.4,0,0.3,0.6-0.4,2c-0.6,1.1-0.8,1.1-1.2,0c-0.4-1.2-0.3-1.4,0.4-1.6C35.7,215.1,36.1,214.9,36.5,214.8z M33.5,215.5
			c0.5,0,1.2,2.3,0.8,2.7c-0.3,0.3-1.3,0.1-1.6-0.3C32.2,217.2,32.8,215.5,33.5,215.5z M55.8,216.1c2,0,3.9,0.2,5.8,0.5
			c-1,0.4-2.1,0.7-3.2,1.4C57.6,217.3,56.8,216.7,55.8,216.1z M58.3,218.8c7-3.9,9.9,1.5,11,2.3c6.1-1.4,7.3-0.7,10.7,3
			c6.1-3,9.1-0.4,11.6,1.2c3-2.8,6.8-2.9,8.8-1.5c0.4,0.6,0.9,1.4,0.9,1.6c0,0.2-0.2,0-0.9-0.5c-3.6-2.6-9.6,0.6-8,4
			c0.4,0.9,0.4,1.3-0.3,1.7c-0.9,0.6-2-0.4-1.4-1.4c1.1-1.7,0.3-3.2-2.3-4.5c-3.6-1.9-9.6,0.2-8.3,3c0.8,0.9,0.1,1.5-1,1.5
			c-1.2,0-1.6-0.8-0.8-1.7c0.9-1.1,0.7-2.1-0.4-3.4c-3.3-4.6-9.9-2.8-9,1.3c0.4,1-0.7,1.4-1.8,1c-0.7-0.3-0.6-1.4,0.2-1.8
			c0.9-0.1,1-1.4,0.9-2.2c-0.2-1.2-2-2.4-3.8-3.1c-1.3-0.5-2.5-0.6-3.5-0.5c-2,0.2-3.1,1.5-2.8,3.6c0.2,1.2-0.1,2.4-1.6,1.8
			c-0.8-0.4-0.6-1.2,0.2-2c2.8-2.7-2.8-6-6.2-3.7c-0.6,0.5-1,0.6-1,0.6C51.8,213.7,58.4,218.6,58.3,218.8z M67.5,218.1l4.2,1.6
			c-1,0.2-1.7,0.5-2.3,0.7L67.5,218.1z M56.5,219.8c-3.9-0.7-4.1,3.6-1.6,4.3c-3.5,4.8,5.7,6.7,4,0.7c4.6,0.8,3.8-4.4,0.3-4.4
			c0.8-2,7.2-0.5,6.9,1c-4.3,0.5-2.6,4.4-0.7,4.4c-4.5,4.3,4.5,8.2,4.3,1.8c3.6,0.8,4-4,0.6-4.3c1.3-1.8,5.8-0.7,7.1,1.4
			c-3.6,0.5-3.4,3.6-0.6,4.1c-3.6,4.5,5.2,6.2,4.3,0.9c3.1,1.1,4.9-3.1,0.8-4.3c4.2-2.5,8.7,1.2,8.2,1.3c-4.7-0.3-3.8,4.5-0.4,4.2
			c-2.2,4.9,6.5,5.2,4.3,0.1c3.9,0.1,3.6-4.4-0.2-4.7c2.3-1.7,5-1.9,6.7-0.3c-3.6,0.9-2.1,5.1,1.5,3.9c0.3,3.4,3.1,2.7,3.2,2.6
			l2.5,4.7l-68.1,0.1l5.8-10.7c3.4,0.2,3.3-3.1,3.2-3.2c2.3,1.6,4.7-2.4,1.4-3.6C52.7,217,56.8,219.6,56.5,219.8L56.5,219.8z
			 M34.4,219.5c-0.1,0.1-0.2,0.2-0.4,0C33.4,218.8,35,218.8,34.4,219.5z M48.4,221.3c0.3,0.2,0.1,0.9-0.1,1.1
			c-0.6,0.7-0.8,0.6-0.3-0.5C48.2,221.6,48.3,221.3,48.4,221.3L48.4,221.3z M78.3,221.6l3.5,0.9l-1.7,0.9
			C79.5,222.7,78.9,222.2,78.3,221.6z M89.3,223l3.8,0.2c-0.5,0.3-1,0.7-1.6,1.3C91.1,224.1,90.1,223.5,89.3,223z M102.2,227
			c0.2,0.4,1.1,2,1,2C101.9,229.2,101.6,227.4,102.2,227z"/>
		<path id="path12536_1_" class="st3" d="M37.9,73.1c-4.2-6.9-8.6-13.6-14.1-19.3c5.5-5.7,9.9-12.4,14.1-19.3
			C42.1,41.4,46.5,48,52,53.8C46.5,59.5,42.1,66.2,37.9,73.1z"/>
		<path id="path12538_1_" class="st3" d="M3.5,64.4c-1.8-2.9-3.6-5.7-5.9-8c2.3-2.4,4.1-5.2,5.9-8c1.7,2.9,3.6,5.7,5.9,8
			C7.1,58.8,5.2,61.6,3.5,64.4z"/>
		<path id="path12540_1_" class="st3" d="M121.4,194.1c-4.2,6.9-8.6,13.6-14.1,19.3c5.5,5.7,9.9,12.4,14.1,19.3
			c4.2-6.9,8.6-13.6,14.1-19.3C130,207.7,125.6,201,121.4,194.1z"/>
		<path id="path12542_1_" class="st3" d="M155.7,202.7c-1.8,2.9-3.6,5.7-5.9,8c2.3,2.4,4.1,5.2,5.9,8c1.7-2.9,3.6-5.7,5.9-8
			C159.3,208.3,157.5,205.6,155.7,202.7z"/>
		<path id="path12544_1_" class="st3" d="M4.1,42.9h2.7l-3.9-9.8l-3,4.1l0,5.7H2v2.9h-7.5v-2.9H-3V21.8l-2.5,0v-2.6h7.6v2.6H0
			l0,10.3l6.6-10.4H4.3v-2.6h8.1v2.6h-2.1l-5.4,8.5l5.3,12.6h2.4l0,2.9H4.2L4.1,42.9L4.1,42.9z"/>
		<path id="path12546_1_" class="st3" d="M155.1,224.2h-2.7l3.9,9.8l3-4.1l0-5.7h-2.1v-2.9h7.5v2.9h-2.5v21.1l2.5,0v2.6h-7.6v-2.6
			h2.1l0-10.3l-6.6,10.4h2.3v2.6h-8.1v-2.6h2.1l5.4-8.5l-5.3-12.6h-2.4l0-2.9h8.3L155.1,224.2L155.1,224.2z"/>
	</g>
</g>
</svg>
