<?xml version="1.0" encoding="utf-8"?>
<!-- Generator: Adobe Illustrator 23.0.1, SVG Export Plug-In . SVG Version: 6.00 Build 0)  -->
<svg version="1.1" xmlns="http://www.w3.org/2000/svg" xmlns:xlink="http://www.w3.org/1999/xlink" x="0px" y="0px"
	 viewBox="0 0 180 250" style="enable-background:new 0 0 180 250;" xml:space="preserve">
<style type="text/css">
	.st0{fill:#FFFFFF;}
	.st1{fill:#E2CF00;}
	.st2{fill:#131F67;}
	.st3{fill:#D40000;}
	.st4{fill:#100F08;}
</style>
<g id="white-background">
	<rect class="st0" width="180" height="250"/>
</g>
<g id="Layer_1">
	<g id="g6155_1_" transform="matrix(0.99999718,0,0,1.000002,-5.9698507,-6.5473594)">
		<path id="path163-0-2-7-7-1-8-7-00-1-2_1_" class="st3" d="M19.8,62.7c0,0-1.8-2.6-4.2-5.6c-1.6-2-2.9-4.2-3-6.1
			c-0.1-2.1,1.2-4.3,3.5-4.4c2.4-0.1,3.3,1.7,3.7,3.1c0.4-1.4,1.4-3.2,3.7-3.1c2.4,0.1,3.7,2.3,3.5,4.4c-0.1,1.9-1.4,4.1-3,6.1
			C21.6,60.1,19.8,62.7,19.8,62.7z"/>
		<path id="path163-0-2-7-7-1-8-1-9-4-6-8_1_" class="st3" d="M172.1,200.4c0,0-1.8,2.6-4.2,5.6c-1.6,2-2.9,4.2-3,6.1
			c-0.1,2.1,1.2,4.3,3.5,4.4c2.4,0.1,3.3-1.7,3.7-3.1c0.4,1.4,1.3,3.2,3.7,3.1c2.4-0.1,3.7-2.3,3.5-4.4c-0.1-1.9-1.4-4.1-3-6.1
			C173.9,203,172.1,200.4,172.1,200.4L172.1,200.4z"/>
		<path id="path39-51-8-0-0_1_" class="st3" d="M21.8,42.2h2.7l-3.9-9.8l-3,4.1l0,5.6h2.1v2.9h-7.4v-2.9h2.5v-21l-2.5,0v-2.5h7.5
			v2.6h-2.1l0,10.2l6.6-10.3h-2.3v-2.5h8v2.5h-2.1l-5.4,8.4l5.3,12.6h2.4l0,2.9h-8.3L21.8,42.2L21.8,42.2z"/>
		<path id="path39-3-9-6-0-8_1_" class="st3" d="M171.4,221.9h-2.7l3.9,9.8l3-4.1l0-5.6h-2.1V219h7.4v2.9h-2.5v21l2.5,0v2.5h-7.5
			v-2.6h2.1l0-10.2l-6.6,10.3h2.3v2.5h-8v-2.5h2.1l5.4-8.4l-5.3-12.6h-2.4l0-2.9h8.3L171.4,221.9L171.4,221.9z"/>
		<path id="path3876-2-1-7_1_" class="st1" d="M71.3,218.6c14.1,1.6,28.6,2,43.5,0.9c3.9,5.3,11.6,16.2,11.6,16.2l-70.1,0.6
			L71.3,218.6z M53.1,222.3c1.9-3.8,2.2-7.5,1.9-12.7c-0.3-4,2.2-7.2,4.9-6c2,0.9,1.1,4.8-1,4c-0.8-0.3-1.5,0-1.4,1.8
			c0.2,4.5,1.4,9.5,0.4,13.8C57.1,227.4,51.4,225.4,53.1,222.3z M35.5,216.5c-2.2-3.3,1.8-6.4,4.2-4.9c1.2,0.6,1,1.8-0.5,1.1
			c-2.1-0.9-4.3,2.3-2.5,3.5c0.8,0.6,1.1,0.5,0.5-0.2c-1.7-2,2.6-2.8,2.5-1.5c-0.3,1.6-0.3,2.2-0.5,2.5
			C38.4,218.4,36.7,217.7,35.5,216.5z M41.7,202.5c-2.4-3,0.4-5.3,0.3-5.3c0.7-0.8-5.7-12.7-4.9-12.8c8.1-0.9,16.3-0.2,24.4,0
			c0,0-4.3,7.8-6.1,11.7c-0.7,1.6,0.9,3.4,0.3,4.5c-2.1,2.3-0.8,4.8-2.1,4.9c-3.3-0.6-6.9-1-11.2,0
			C42.1,205.5,42.1,203.5,41.7,202.5L41.7,202.5z M76.7,119.3c4.1,20.9-1.9,43-15.8,57.6c-2-1.9-3.5-5.4-5.4-7.8
			c-5.4-1.6-9.3,0.3-13.1,2.2c-3.4-1.9-7.2-3.1-10.9-3l-0.1-3.2c3.7-0.1,7.7,0.3,11,2.3l5.2-2.1l-16.3-16.9l0.2-2.9l19.7,19.9
			l2.5,0.1C48.3,150.6,53.2,127,76.7,119.3L76.7,119.3z M104.2,145.5l2.9,13.6c0,0-16,15.9-24.4,24l-7-0.6
			c3.5-5.2,5.5-10.5,7.8-15.8L104.2,145.5z M160.9,164.2c-6.7,7.5-14.7,12.3-23.6,17.6c-3.6-4-7.9-8.4-10.4-12.3
			c7.8-4.2,15.1-7.4,22.7-14.6c-0.4,0.5-9.7,3.6-9.7,3.3c-0.3,1.6-0.1,2.5-1.6,2.9c-1.8-2.5-3.5-4.5-6.3-5.6
			c-1.2,0.1-2.7-0.7-2.7-0.7c0.8-0.2,0.4-9.8,0-9.9c0.9-0.3,1.7-0.9,2.9,0.4c0.6,0.4,5.9-5,7.7-6.9c7.1-0.6,13.5,0.1,20.5-0.1
			C160.4,146.8,160.9,155.7,160.9,164.2L160.9,164.2z M115.6,142.6c-0.2-0.4-2-14.5-0.3-23.4c4.7-14.9,3.5-19.1,15.7-33.8
			c0.8-0.8,3.6,1.7,5.7,6.1c6.1,3.8,13.8-1.1,13.8-1.1s3,2.5,9.8,3.8l-0.1,2.7c0,0.8-7.7-0.8-9.3-2.4c0,0-5.7,1.9-5.7,2.3
			c0,1.5,15.2,15.6,15.2,15.6l-0.1,3.3c0.1,0-20.9-21.8-21.2-19.5C145.1,121.8,135,134.8,115.6,142.6L115.6,142.6z M90.3,138.1
			L90,124.5l12.9,0.2l0.5,13.7L90.3,138.1z M31.5,123.4c0.3-0.5-0.5-25.3-0.4-25.3c8.2-8.2,16.2-12.7,24.2-17.7
			c3.6,3.6,6.7,6.6,9.4,11l-11.1,6.8c0.4,1.7-0.7,2.3,6.5,8.8c0.1-0.4,2.5-1.8,2.9,0.2c-1,4.2,0.4,7.7,0.6,10
			c-1,1.3-3.2-0.1-3.2-0.1c-1.4-1.5-6.9,5.8-8.5,6.6C45,123.5,31.1,123.9,31.5,123.4z M108.8,79.3c0,0.1,7.1,0,7,0.2
			c-1.3,3.1-4.2,9.4-7.1,16.3c-2.4,4-19.9,20.8-19.9,20.8c-0.8-4.9-2.1-9.6-3.4-14.4L108.8,79.3z M139.2,55.9
			c2.5,1.1,9.6,0.5,10.8,0c1.4,1,0.5,2.3,0.4,3c1.5,1.9,2.3,2.6,0.6,5.6c-0.4,0,5.2,12.6,5.3,12.6c0,0-5.9-2.8-8-4.7l-4.1,5.4
			l-4.7-6.1c0,0.6-9.1,6.6-9.2,6.3c-0.3-0.3,8.3-9.5,6.6-15c-0.4-1.3,0.5-2.6,1.2-3.8C138.5,58.5,137.9,57,139.2,55.9L139.2,55.9z
			 M134.5,54.8c0.4-0.4-2.2-11.8,0.6-16.4c1.2-1.7,3.3-1.8,4.2-0.4c0.7,1.9-1.4,4.5-1.8,5.8c-1.3,3.6,0.6,8.3-0.3,11.8
			C134.3,63,129.2,54.9,134.5,54.8L134.5,54.8z M153.7,49.8c-1.5,0.1-0.5-4.5-0.2-5.8c0-0.3,2.8-0.9,3.8,0.9
			C158.9,47.5,156.9,50.9,153.7,49.8L153.7,49.8z M135.5,26.8l-14.3,17.5c-14.5-1.7-29-2.7-43.8-0.5L65.5,27.1L135.5,26.8z"/>
		<path id="path3874-3-1-4_1_" class="st2" d="M162.1,25.7H29.8v211.7h132.2V25.7z M135.4,26.8l-15.9,19.6l-0.4,0.1
			c1.1,3.1,2.6,7,4,9.9c2.3,4.8,8.1,13.5,4.5,20.5c-0.4,0.6-0.7,0.9-1.1,0.9c-0.6,0-0.6-0.4-0.2-1.1c0.8-1.5,1.3-5.2,1-7.1
			c-0.2-1.2-0.9-3.1-2.2-6c-6-11.2-7.9-17.1-7.6-17.1c-0.1-0.1-0.2-0.1-0.4-0.2l-0.6-0.2c2.1,7.1,5.5,13,8.2,18.5
			c2.2,5.1,2.4,7.1,1.3,10.8c-0.4,1.4-1.3,2.4-2,2.4c-0.6,0-0.6-0.1-0.2-0.9c2.1-3.8,1.6-8-1-12.8c-3.8-8-6.1-13-7.5-18.1
			c0,0-0.7-0.2-0.9-0.3c1.1,5.3,4.3,11.5,7.2,17.7c2.4,4.8,3.1,8.4,2.3,11.2c-0.3,1.2-1.2,3-2.4,3.1c-0.5,0-0.5-0.2-0.1-0.9
			c1.8-3.1,2.1-6-1.1-12.5c-3-6-5.9-12.7-6.9-18.5c-0.1-0.5-1.4-1-1.1-0.3c1.6,6.9,4.8,14,8.1,20.9c1.9,4.3,2.1,7,0.7,9.4
			c-0.8,1.3-1,1.6-1.6,1.7c-0.7,0-0.7,0-0.3-0.8c1.7-3.6,1.4-6.8-0.9-12c-3.1-7.1-5.8-13-6.9-19.3c-0.2-0.1-1.3-0.5-1.1-0.2
			c1.6,6,3.6,11.5,6.2,17.2c0.9,1.9,2.4,5.7,2.8,7.6c0.9,3.6-1.1,8.6-3.8,8.8c-1,0.1-0.9-0.4,0.2-1.4c1.9-1.8,2.3-4.6,1.6-7.9
			c-0.5-2.5-1.3-5.2-2.5-8c-2.3-5.6-4.8-11.4-5.6-16.5c0-0.5-1-0.5-0.7,0c0.6,3.6,1.9,7.7,3.4,11.5c1.6,4.2,4.1,8.9,4.9,14
			c0.7,4.2-2,8.2-5.1,8.4c-3.8,0.3-4.6-3.5-3.6-5.3c1.5-2.7,5.8-1.1,4.5,1.6c-0.7,1.6-3,1.2-2.9-0.6c0-0.2,0.2-0.6,0.2-0.7
			c-0.1,0-0.4,0.3-0.5,0.5c-0.8,1.4,1.5,3.2,3.2,2.1c5.4-2.9,1.8-11.9-0.6-17.4c-2.3-5.1-3.9-9.7-4.7-14.4c-0.2-0.1-1.1-0.4-1-0.2
			c0.7,2.5,1,4.6,1.6,6.8c1,3.3,2.8,7,4.3,10.7c1.4,3.7,2.7,6.8,2.1,10.6c-0.1,0.4-0.2,0.8-0.4,1c-0.2,0.3-0.4,0.2-0.5-0.8
			c0-0.1-0.2-0.3-0.2-0.5c0.1-1.4,0-2.9-0.3-4.2c-0.3-1.1-0.9-2.3-2.2-4.5c-0.5-0.8-1.8-3.3-1.3-1.6c0.3,1,1.2,3.1,2.1,4.7
			c0.6,1,1.2,3.6,1,4.2c-0.2,0.5-0.6,0.5-0.8,0.4c-0.2-0.2-0.2-0.9-0.2-1.3c-0.2-1.8-2-5-3.3-6.2c-0.9-1,2.2,4.4,2.4,5.8
			c0.1,0.6,0.3,1.1,0.1,1.4c-0.1,0.2-0.4,0.2-0.7,0.1c-0.3-0.1-0.2-0.2-0.5-1.2c-0.5-1.6-1.1-2.4-2.3-3.8c-0.4-0.5-0.7,0.1,0,0.9
			c0.9,1.5,1.6,2.4,1.8,4.3c-0.6,0.8-0.9,0.7-2.1-1.5c-0.8-1.4-1.3-1.8-1.5-1.8c-0.5,0,0,0.7,1.5,3.1c0.8,1.3,0.8,2.1-0.1,2.1
			c-0.3,0-2-1.9-2.4-2.7c-0.4-0.7-0.8-1.2-0.8-0.4c0,0.3,1.1,2.1,1.8,2.9c1.1,1.3,1.5,1.6,1.6,2.2c0.1,0.3,0.2,0.8,0.3,1.1
			c0.3,1,0.1,1.2-0.4,0.7c-0.3-0.7-0.5-0.8-1.2-1.3c-0.6-0.5-1.5-1.7-2-2.5c-0.2-0.3-0.4-0.7-0.6-1c-0.6-1-1.3-1.1-0.8-0.1
			c0.3,0.5,0.7,1.3,1.1,1.9c0.7,1,0.6,1.6-0.3,1.6c-0.4,0-1.4-1.3-2-2.4c-0.4-0.7-1.1-1.2-1-0.5c0,0.2,0.5,1.4,1.3,2.3
			c0.8,1,0.9,1.6,0.1,1.6c-0.5,0-1-0.5-1.7-1.6c-0.7-1-1.1-1.4-1.3-1.2c-0.2,0.1,0.9,2.1,1.9,3.2c0.9,1,0.2,1.6-0.8,0.7
			c-0.6-0.5-1.7-2-2-2.7c-0.6-1.3-0.9-0.9-0.6,0.1c0.4,1.1,1,2.3,1.8,3.1c0.4,0.4,1.2,0.7,1.6,1.1c1.1,1,1.9,1.9,1.8,2.1
			c-3.3,0.2-6-3.3-6.7-5.5c-0.5-1.4-1.1-1.6-0.6,0.4c1.6,4.9,6.6,7.4,10,5.3c2.1-1.3,0.2-4.8-1.5-3.7c-0.5,0.3-0.5,1.2,0.1,0.7
			c1.1-0.9,2.2,1.3,1,1.9c-1.7,0.9-3.6-0.8-2.4-2.9c1.1-2.2,5.7-0.9,4.8,2.6c-0.5,1.6-2.9,3.5-4.9,3.6C98,84,95.4,81,94,78.2
			c-0.2-0.4-0.5-1.1-0.8-1.7c-0.2-0.5-0.4-0.9-0.4-0.9c0.4,3.5,3.7,7.8,6.7,8.5c4.9,1.2,6.3-1.8,9.5-4.8c0,0,2.4,0.3,2.4,0.3
			c0.2-0.1,4.6-0.3,4.7-0.2c-17.6,32.1-16.3,70.3-1.1,99.3c1,2.1,1.2,1.7-0.5,1.3c-1.7-0.4-3.3,0.2-4.7-0.1
			c-2.9-0.6-3.5,1.4-5.7,2.4c-2.8,1-2.1,3-2.8,4.8c-0.2,0.3-0.4,0.5-0.2,0.5c0.2-0.1,0.8-0.6,0.8-1.1c0.1-1.2,0.6-2.2,1.1-2.7
			c0.5-0.5,0.8-0.7,0.9-0.5c0.1,0.2,0,0.7-0.2,1.2c-0.7,1.3,0.2,5.5,0.3,2.5c0-2.4,1.5-5.1,3.5-6.2c1.6-0.8,2.1-0.7,0.8,0.5
			c-1.5,1.6-2.5,3.5-2.6,5.8c0,1,0.4,1.8,0.5,0.9c-0.1-4.4,4.4-9.4,9.1-6.9c0.2,0.2,0.4,0.5,0.4,0.7c-4.6-0.8-8.6,1.7-8,7.7
			c0,0,0.4-1.2,0.6-2.3c0.7-3.7,4.8-5.3,7.7-4.3c0.5,0.2,1,1,0.9,1.1c-3.5-1.1-7.4,2.2-7.6,5.9c-0.1,1.2,0,2.2,0.6,0.1
			c2.3-8.1,9.3-4.4,8.4-3.7c-5.4-0.7-7.4,3-7.3,7.3c0.1,0.4,0.3,0.5,0.4,0.9c0.7,1.6,1.1,3,1.1,5.9c-0.1,0.7,0.6,5.5-0.1,5.3
			c-2-0.7-3.5-1.6-6.9-0.1c-0.3,0-0.4-0.2-0.3-0.4c0.1-0.4,0.7-1.1,1.6-2.1c2.1-2.3,0.9-1.6-0.8-0.1c-1.1,1-0.9,0.3,0.2-3.1
			c0.4-1.4,0.2-1.6-1.7-2.5c-1.9-1-3.2-1.1-1.6-0.1c0.6,0.4,1.3,0.8,2,1.1c0.8,0.5,0.7,0.7,0.1,2.7c-1.2,3.9-1.6,5.3-1.6,8
			c0.2,6.4,6.2,5.8,9.7,4.3l0.1,4.2l13,18.4c0,0-45.5,0-69.8,0.4c1.4-3.4,16.1-17.5,17-20.1c0.1,0-1.6-5.2-2.5-7.5
			c-4.3-10.7-9.8-15.2-6.6-22.2c0.7-1.4,0.8-1.9,1.3-1.9c0.7,0,0.9,0.5,0.1,1.8c-3.5,5.9,3.9,16,6.4,22.4c0.4,1,2.1,5.9,2.4,7.5
			c0,0.5,1.2,0.7,0.9,0.1c-0.9-3.3-2.1-6.9-2.6-8.2c-2-4.8-4.1-8-6-12.7c-1.1-2.9-1.7-6.3,0-9.4c0.6-1.1,0.8-1.7,1.2-1.8
			c0.3,0,0.5,0.1,0.6,0.4c0,0.3-0.2,0.8-0.6,1.6c-2.9,5,2.3,13.1,4.8,18.8c1.7,3.8,3.2,7.7,3.7,11.3c0,0.2,0.3,0.9,1,0.5
			c-1.1-6.7-4.4-13.1-7.3-19.3c-2.4-4.9-3.4-9.1-0.1-13.1c0.3-0.3,0.9-0.2,0.9,0.2c0,0.3-0.2,0.8-0.7,1.9c-2.9,6.1,1.6,11,3.7,16.8
			c2,4.8,3.9,8.9,4.7,14c0.6,0.2,0.9,0.5,0.9-0.2c-1.5-7.3-4.7-13.8-7.5-20.1c-1.3-2.7-1.7-4-1.8-5.9c-0.1-2.5,1.1-5.7,2.3-6.5
			c0.3-0.2,0.5-0.3,0.7-0.1c0.4,0.2,0.3,0.3-0.4,1.7c-1.4,2.6-1.5,5.6-0.2,8.7c2.2,4.8,4.1,8.8,5.4,12.3c1.5,3.9,2.3,7.2,2.6,10.3
			c0,0,1,0.4,0.8-0.2c-0.6-4.2-2-8.6-3.5-12.4c-1.4-3.5-3.2-6.9-4.6-10.4c-1.8-4.2-0.3-8.8,3.3-11l1.7,0c-0.1,0-3.8,1.4-4,6.7
			c-0.2,5,2.2,8.1,3.9,12.4c2.1,5.1,4,9.6,4.4,15.1c0.2,0.2,1.1,0.2,1.1,0.2c-0.4-3.7-1.5-7.2-3-11.5c-1.6-4.6-3.2-6.6-4.8-11.4
			c-1-3.3-0.9-7.7,1.4-9.7c3.4-3.5,8.2-1,7,3c-0.9,2.8-4.7,2.2-4.7-0.4c0-1.7,2.1-2.1,2.7-0.9c0.2,0.2,0.3,1.3,0.3,1.4
			c0.1,0,0.3-0.9,0.3-1.1c0-1.4-1.9-2.5-3.3-1.8c-1.9,1-3.1,3.2-3,6.1c0.1,3.1,0.7,5.2,3.3,10.1c3,5.8,4,12,4.6,16.2
			c0.3-0.1,0.6,0,0.7,0c-0.4-5.7-2.3-11.6-4.6-16.5c-2.8-5.9-3.6-9.5-2.7-12.2c0.1-0.4,0.3-0.7,0.4-0.7c0.3,0,0.4,0.5,0.7,1.5
			c0.1,0.3,0,0.8-0.1,1.2c-0.2,2.4,1.4,7.5,3,9.7c0.5,0.6,1.1,0.6,0.5-0.5c-1.6-2.9-2.6-5.6-2.7-9.2c0-1,1.2-0.6,1.2-0.1
			c0.1,1.7,0.3,3.7,1.1,5.1c1.6,2.8,2.6,2.9,0.9-0.2c-0.4-0.7-1.4-3.8-1-4.9c0.2-0.2,0.5-0.3,0.7,0c0.5,1.7,1.1,3.5,2.3,4.8
			c0.6,0.7,0.7,0.4,0.4-0.5c-0.5-1-2.2-4.4-1.4-5.2c0.2-0.2,0.1-0.1,0.8,1c0.9,1.5,1.5,2.2,1.9,2.6c0.6,0.6,0.8,0.2,0.1-0.9
			c-1.3-2.1-2-3.9-1.5-4.3c0.4-0.4,0.5-0.2,1.5,1.5c0.4,0.8,1.1,1.9,1.3,2.1c0.2,0.3,0.4,0.3,0.4,0.1c-0.2-2.1-2-4.4-2.7-4.8
			c-0.1-0.2-0.1-1.8-0.1-1.8c2.6,1.4,2.7,2.9,4.5,5.3c0.2,0.2,0.4,0,0.4-0.4c-0.1-0.4-1.1-2.4-1.7-3.3c-0.5-0.7-0.5-1.1-0.1-1.3
			c0.7-0.3,1.7,0.7,2.7,2.6c0.5,0.9,1.1,1.4,1.1,0.9c0-0.2-0.9-2.5-1.5-3.1c-1-1.1-0.5-1.8,0.7-0.8c0.5,0.4,1.3,0.8,2,2.4
			c0.4,1,0.8,1.1,0.8,0.3c0-0.9-1.4-3-2.4-3.5c-0.7-0.4-1.2-1-1-1.3c0.7-1,3.3,1.5,4.2,3.8c0.3,0.7,0.7,1,0.9,0.7
			c0.2-0.2-0.3-1.8-0.9-2.6c-0.9-1.8-3.1-3.4-4.3-3.2c-0.2,0-0.9-1.4-0.9-1.4c3.3-0.5,6.4,3.4,7,4.8c1.1,2.8,1.6,2.4,0.7,0
			c-1.8-4.8-7.5-7.4-10.6-5.1c-1.8,1.3-0.7,4.4,1.1,3.9c0.7-0.3,1.4-1,0.2-0.8c-1.4,0.1-1.9-2-0.4-2.5c2.3-0.7,2.9,3,1,3.9
			c-2,0.8-3.9-0.4-3.7-2.6c0.3-4.1,5.4-5.3,10.3-2c1.4,0.9,3.1,4,3.7,5.9c0.2,0.6,0.9,0.9,0.9,0.8c0.2-0.2-1.4-3.6-1.9-4.4
			c-2.2-5-10-5.2-10-4.9c0,0-3.1,1.9-5.8,5.1l-7-0.6c17.8-28.6,19.1-70.7,0.9-100.4c0.2,0.2,3.5,1,4.6,0.1c0.8-0.4,1.1-0.5,2-0.2
			c1,0.4,2.1,0,3.2-1c0.8-0.8,0.9-1,1.4-0.9c1.6,0.2,2.7-0.7,3-3.1c0.1-0.9,0.2-1.9,0.1-1.7c-0.1,0.1-0.3,0.9-0.4,1.4
			C90.3,78,90,78.5,89.5,79c-0.9,0.7-1.4,0.3-1-0.8c0.3-0.7,0.6-2.6,0.2-3.4c-0.1-0.2-0.1,0.4-0.2,0.9c-1,3.7-2,5.5-3.7,6
			c-0.8,0.2-1.2,0.1-0.9-0.4c3.1-3.3,2.9-6.9,2.6-6.6c-0.7,2.1-1.9,5.2-3.9,6.5c-1.7,1.1-4.2,1.2-5.6,0.3c-0.8-0.5,0.4-0.7,2.2-0.7
			c3,0,5.9-4.1,5.4-7.5c-0.1-0.6-0.3,0-0.5,1.1c-1.1,3.7-3,6.3-7.4,5.5c-0.3-0.1-0.6-0.3-0.8-0.4c-0.7-0.5-0.5-0.8,1-0.7
			c3.2,0.4,5.9-2.6,5.9-6.2c0-1.7-0.3-1.7-0.5-0.4c-0.4,1.8-1.8,7.4-6.9,5.6c-0.9-0.5-1.4-1.1-1.1-1.2c3,0.6,5.7-0.1,6.8-4
			c0.5-1.7,0.3-3.4-0.1-4.8c-0.1-0.9-0.5-1.7-0.6-2.6c-0.3-2.6-0.7-5.4-0.6-8.2c0.2-0.2,0.3-0.2,1.1,0.4c1.7,1.1,3,0.9,4.7,0.2
			c2.2-0.8,2-0.7-0.3,2c-0.5,0.5-1,1.2-1,1.3c-0.6,1.1,0.5,0.3,1.3-0.7c1.1-1.4,1.4-1.8,1.6-1.8c0.1,1.6-0.5,3.5-0.8,4.7
			C86,64.4,86,64.7,86.9,65c0.4,0.2,1.1,0.5,1.6,0.7c1.9,0.9,1.7,0.2,0.2-0.7c-2-1.2-2.1-1.1-1.5-3c0.7-2.2,1-4.2,1.4-6.4
			c0.9-5.5-3.2-8.5-8.7-6.6c-0.3,0.2-0.7-2.9-0.6-3.7c0-0.3-0.8-0.2-1.6-1.1c0.2-0.2-8.1-10.7-12-17
			C89.8,27.3,113.6,26.8,135.4,26.8L135.4,26.8z M117.5,46.5C117.6,46.5,117.6,46.5,117.5,46.5C117.6,46.5,117.6,46.5,117.5,46.5z
			 M136.4,27.3h23.9v50.6l-2.4,0.1c0,0-3.9-6.7-4.9-9.9c-0.3-0.8-0.7-1.9-0.9-2.3c-0.4-1-0.7-1.1-0.1-1.7c1.1-1.2,0.8-3.6-0.2-4.7
			c-0.3-0.4-0.5-0.2-0.5-1.2c0-0.8,0.1-1.3-0.1-1.7c-0.3-0.7-0.6-0.7-0.1-1.5c0.5-0.8,1.2-2,1.5-3c0.5-1.6,0.1-1.9,1.2-1.5
			c2.6,0.8,4.8-1,4.7-3.7c-0.1-2.2-2.1-4.2-4.6-3.6c-0.6,0.1-0.7,0.1-1.5-0.4c-0.2-0.2-0.6-0.5-0.9-0.6c-0.4-0.2-0.7-0.1-0.9-0.4
			c-0.3-0.6-1.3-1.5-2.6-1.4c-0.8,0-1.7-0.2-2-0.4c-0.4-0.2-1.6,0-3.2-0.3c-0.7-0.1-1.2,0.2-1.6,0.2c-0.9,0-0.6-0.1-0.7-0.8
			c-1.2-3.8-4.6-3.3-6.2-0.5c-0.6,1.1-1,2.8-1.2,4.4l-9.3-0.1L136.4,27.3z M64.3,27.4c3.5,4.4,6.8,9.4,10.3,13.9
			c4.3,5.5,4.5,6.1,3.3,11.6c-0.6,3.1-0.9,3.8-2.2,3.6c-1.2-0.2-2.3,0.8-2.4,2c-0.3,2.3,1.9,3.7,4.1,2.6c1.2-0.6,1.2-0.7,0.8,1.3
			c-0.6,2.9-1.7,5.4-2.4,5.3c-1.9-4-6.4-1.1-4.9,3c-0.5,0.7,0.1,1.6,0.4,2.4c0,0,0,0.1-2.6,1c-12.8,3.8-28.3,13.7-37,23V27.6
			L64.3,27.4z M137.6,36.9c0.5,0,1.1,0.2,1.5,0.5c1.1,1,0.9,2.4-0.7,5c-1.6,3.7-1.2,6.6-0.8,10.4c0,2.2-0.8,4.4-2,5.3
			c-1.9,1.5-4.4-0.5-3.3-2.5c0.5-1,1.6-0.4,1.9-1.4c0.4-3.5-0.5-7.1-0.6-10.5c0-1.5,0.5-3.5,1.2-4.9
			C135.4,37.6,136.5,36.9,137.6,36.9L137.6,36.9z M140.6,42.9c-0.4,0.4-1.2,0.4-1.3-0.1c0-0.5,0.4-2,0.6-2.2
			C141.6,40.2,141.1,42.5,140.6,42.9z M143,40.5c1.3-0.1,2.2,3.3,1,5.3c-0.2,0-1.8,0-1.8,0.1c0-0.4,0.1-1.1,0.2-1.7
			c0.1-0.6,0.2-1,0-1.6C142,40.9,141.7,40.7,143,40.5L143,40.5z M145.5,40.5c0,0,0.1,0,0.2,0c1.3,0,2.1,2.6,1.7,5.4
			c-0.1,0.4-0.1,0.8-0.2,0.9c-0.6-0.2-2.1,0.4-2.1,0.4c-0.1-0.2-0.1-1,0.1-1.7c0.4-1.3,0.5-2.2,0-3.6
			C144.8,40.8,144.8,40.6,145.5,40.5L145.5,40.5z M148.9,41.3c1.5,0.2,1.6,4.3,1,5.7c-0.1,0.2-0.7,0.1-0.9,0.2
			c-1.3,0.4-1,0.5-0.8-1.5c0.1-1.4,0.1-2.4-0.1-3.6c-0.1-0.5-0.1-0.8,0.2-0.9C148.4,41.2,148.7,41.2,148.9,41.3L148.9,41.3z
			 M141.5,42.9c0.6,0.8,0.1,2.7-0.3,3.4c-0.5,0.8-0.7,0.8-0.4,1.2c0.1,0.1,0.4,0.9,0.2,1.2c-0.3,0.6,0.4,0.7,1.1,1
			c1.1,0.6,1.6,1.6,2.4,3.5c0.3,0.7,0.8,0.4,0.6-0.3c-0.2-0.6-0.3-1.5-0.5-2.1c-0.2-0.6,0-0.9,0.7-0.7c1,0.3,0.9,0,1.3-0.1
			c0.8-0.5,1.4,0.2,0.9,0.6c-0.3,0.2-0.9,0.3-1.6,0.5c-0.6,0.2-0.4,0.7,0.1,0.7c0.5,0,2.1-0.4,3.1-0.8c2.9-0.9,3-1.4,2.7,0.3
			c-0.4,2.2-1.6,3.9-3.5,4.4c-1.7,0.5-5.7,0.4-7.4-0.2c-1.7-0.8-1.8-1.3-2.3-2.8c-0.7-2-1.1-5.5-0.3-7.5c0.7-1.7,0.6-1.5,1.3-1.4
			c0.6,0.2,1.4,0,1.6-0.4C141.2,43.2,141.4,42.9,141.5,42.9L141.5,42.9z M152.7,44.1c0.2,0.9,0.2,1.8-0.1,2.5
			c-0.2,0.3-1.2,0.3-1.6,0.3c-0.2,0.1-0.2-3.1,0-3.4C151.6,42.7,152.3,43.4,152.7,44.1L152.7,44.1z M123.2,43.6l2.9,0v0.7l-3.4,0
			L123.2,43.6z M133.2,43.7v0.9l-4.3,0v5.7l4.8,0l0,1.2l-6.5,0l0-7.8L133.2,43.7L133.2,43.7z M155.3,43.5c4.4,1,2.5,5.9,0.8,6.2
			c-2.1,0.4-3.8,0.1-3.3-1.7c0.6-1.2,0.2-2.8,0.3-3.9C153.5,43.7,154.6,43.4,155.3,43.5z M121.8,45.2l4.3,0v0.9l-4.9,0L121.8,45.2z
			 M131.3,46.1c0.7,0,1.2,0.6,1.2,1.2c0,0.7-0.6,1.2-1.2,1.2s-1.2-0.6-1.2-1.2C130,46.7,130.6,46.1,131.3,46.1z M143.3,46.6
			c0.8,0.1,0.9,1.3,0.5,1.7c-0.4,0.4-1.2,0.2-1.4-0.4C142.2,47.3,142.7,46.6,143.3,46.6z M120.6,47.2l5.5,0v0.8l-5.5,0l-0.1-0.5
			L120.6,47.2z M151.4,47.5c0.8,0,1.2,0.6,0.8,1.2C151.4,49.5,149.9,48.2,151.4,47.5z M93,49.2c-1.2,1-0.2,2.1,1.4,1.1
			c3.5-2.1,8.7-0.4,12,1.3c0.7,0.3,0.7-0.5,0.1-1C103.5,47.8,96.8,46.2,93,49.2L93,49.2z M146.1,47.7c0.9,0,0.8,1.1,0.3,1.5
			c-0.5,0.2-0.6,0.2-1,0C144.9,49,145.2,47.7,146.1,47.7L146.1,47.7z M149.1,47.7c1,0.1,0.9,2.1-0.6,1.4
			C147.9,48.5,148.3,47.7,149.1,47.7z M120.8,48.8l5.3,0v0.9l-5-0.1L120.8,48.8z M86.4,50.8c1.5,1.2,1,1.2-1.4,0.4
			c-1.6-0.4-3.1-0.1-4.1,0.3c-1.2,0.5-1.4,0.3-0.9-0.5C81.3,49.5,85.1,49.8,86.4,50.8L86.4,50.8z M93.4,52.8
			c-0.1,0.4-0.6-0.3-1.3-0.2c-1,0.2-0.7,0.2,0.3,1.4c1,1.2,1.3,1.4,1.3,1.9c-0.1,0.7,0.1,1,0.7,1c0.3,0,0.7,0.3,1.2,0.8
			c1.7,1.5,2.5,2.3,3,2.5c2.2,1,1.2-0.1-0.2-1.1c-2.3-1.6-3.2-2.7-1.5-2.1c1.8,0.6,4.6,0.3,6-0.6c0.7-0.4,1.1-1.1,2.1-0.7
			c1.4,0.4,1.9-0.4,1.5-0.8c-0.6-0.4-2-0.9-3.3-1.8c-2.8-1.5-5.8-1.4-7.8-0.2c-1.2,0.7-1.6,0.2-0.4-0.5c4.6-2.5,8.3-0.1,11.2,1.7
			c0.5,0.3,0.9,0.3,0.9,0.1c-0.1-0.7-1.4-1.2-1.9-1.5C101,50,96.7,49.2,93.4,52.8L93.4,52.8z M121.5,50.5l4.6,0v0.9l-4.3,0
			L121.5,50.5z M83.9,51.7c1.3,0,4.1,1.2,4,2.1c-0.1,0.4-0.8,0-1.4-0.3c-1.2-0.7-3-0.9-4.7-0.6c-1.3,0.2-1.7,0.5-1.9,0.3
			C79.6,52.2,82.7,51.7,83.9,51.7z M133.9,52.4l0,1.6c-2.5,0.2-3,3-1.4,4.6c1.3,1.3,3.5,0.8,4.6-1c0.2-0.3,0.2-0.5,0.3-0.4
			c0.1,0.1,0.1,0.4,0.2,0.7c0.2,0.9-0.1,1.1-0.6,1.8c-0.9,1.2-1,2.7-0.5,3.8c0.2,0.3,0.5,0.8,0.4,1c0.3,0-2.8,8.9-7.5,13.4
			c-0.8,0.5-1.3-0.1-0.9-0.9c3.8-8.7-3.4-16.8-6.2-24.5L133.9,52.4L133.9,52.4z M100.4,53.9L101,54c-0.5,4-4.4,3.4-4.5,0.1l0.6,0
			C97.8,57.1,100.4,55.8,100.4,53.9L100.4,53.9z M78.6,54c0,0,0.3,0.4,0.3,0.7c0,0.9,0,2.3,0,2.7c-0.2,3.9-5.1,4.6-4.7,1.3
			c0.3-1.4,2-1.6,2.5-0.3c0.6,1.6,0.7-0.4,0.8-1C77.9,56.4,78.2,55.2,78.6,54L78.6,54z M101.9,54.2c0.2,0,0.6,0.2,0.8,0.5
			c0.3,0.3,0.2,0.5-0.5,0.9c-0.8,0.4-1.2,0.4-0.9-0.5C101.5,54.6,101.7,54.2,101.9,54.2z M138.2,54.5c0.1,0,0.4,0.2,0.3,0.6
			c-0.1,0.7-0.7,1.1-0.9,0.9C137.8,55.6,137.9,54.6,138.2,54.5z M96.2,55.8c-0.1,0.3-0.3,0.2-0.7-0.2c-0.5-0.4-0.4-0.7,0-0.9
			C96.2,54.2,96.2,55.5,96.2,55.8L96.2,55.8z M81.5,54.8c0.8,2.6,2.5,2.3,3.2,0.1l0.7,0c-0.2,3.3-4.3,3.3-4.4,0.1L81.5,54.8z
			 M80,55.1c0.2,0,0.1,0.8,0.1,0.8s-0.7-0.4-0.3-0.7C79.9,55.1,80,55.1,80,55.1z M86.1,55.3c0.1,0,0.2,0.1,0.4,0.2
			c0.4,0.3,0.3,0.4-0.1,0.8c-0.7,0.6-1,0.3-0.6-0.5C85.9,55.5,86,55.3,86.1,55.3z M139.4,55.9c0.3,0,0.7,0.1,1.6,0.4
			c2.5,0.7,5.8,0.6,8.6-0.1c0.9-0.2,1.5,1.3,1.1,2.5c-0.2,0.5-0.2,0.6,0.5,1.2c0.9,1,1.1,2.5,0.4,3.9c-0.5,1-0.5,0.9,0.1,2.7
			c1.3,3.8,3.2,7.3,5.2,10.8l-2.7-1c0,0-12,10.4-20.5,10.8l3.1,4.8c4.8,1.9,9.4,1.5,13.8-1.3c-0.1,0.4,5.4,3.1,9.9,3.4l0,3.2
			c-3.3-0.4-6.7-0.5-9.8-2.4c0,0-2.8,1.2-5.7,2.1l16,16.7l0,2.8c0,0-6.8-6.4-13.8-13.7l0.2,35.6l13.8,0.3
			c-0.4,9.3-0.3,15.1-0.2,25.7c-6.5,6.8-15.5,13.5-23.8,17.6c-3.9-3.8-7.2-7.9-10-12.4c-0.1-0.1,0.3-0.3,0.2-0.4
			c-0.1-0.1-0.6-0.2-0.7-0.3c-1.7-2.6-5.7-9.8-5.1-10c1.2,0.1,6.9-0.6,8.1-4.1c0-0.2-0.1-0.8,0-1.6c0.4-1.9,0.6-4.7-0.1-6.5
			c-1.2-3.2,2.5-2.2,2.6-2v-12.3c-4.8,3.9-9.6,7.7-16,9.3c-4-20.2,2.3-45.4,20.3-62.5l-1-0.1c-18.5,19.3-23.3,40.5-20.2,62.9
			c0,0,0.1,0.7,0.1,0.9c0,0.6-0.1,0.8-0.6,1.2c-0.5,0.3-0.9,0.6-0.9,1c0.1,0.7-0.6,0.7-1.5,0.7c-0.4-0.4-1,0.1-1.3,0.3
			c-0.5,0.1-0.7-1.8-1.3-0.4c-0.2,0.9-0.7,1-1.6,0.5c-0.6-0.2-0.6,0.1,0,0.9c0.8,0.9,1.5,2.2,1.4,2.6c-0.3,0.9-0.2,1.8,1.1,2.3
			c-0.1,0-0.8,2.7,1.2,2.7c0.6,0,2.2,0.3,2.2,0.3c0.1,0.5-0.1,0.8-0.3,1.1l-1.4-0.7L112,157l-1.8-0.1l4.4,5.5l0.5-4.3l5.2,0.7
			c0.8,2.2,6,14.2,16,23.1c-0.1,0.3-6.8,3.1-6.8,3.1l-1.1-3.3l-0.9,1.2l-1.5-0.4l-0.2,1.4l-1.4,0.4l2.4,1.6l-6.2,1.8
			c-17.4-28.2-25.2-67.2-3.6-108.7l5.5,0.1l-1.1,1.8l1.6-0.2l0.4,1.3l1.1-0.5l1.1,1.4l1.3-3.9c0,0,3.9,0.1,4.4,0
			c0.4,0,8.2-6.6,8-6.9c-0.1-0.2-8.5,6-8.8,5.8c0,0-0.8,0.2-0.2-0.6c1.2-1.4,2-2.5,3.2-4.5c2-2.7,2.9-6,3.3-8.2
			c0-0.2,0.1-0.5-0.1-0.8c-0.8-1.5-0.6-2.5,0.8-4.3c0.5-0.6,0.5-0.8,0.4-1.2c-0.3-0.9,0-1.6,0.6-2.2C139,56,139.1,55.9,139.4,55.9
			L139.4,55.9z M93.3,61.9c3.4,1.4,0.7,4.6-1.9,1.8c-1.3-1.4-2.4-1.3-3.1-0.3c-0.3,0.5,0.1,1.3,0.6,1c0.4-0.2,0.8-0.5,1.4,0
			c4.3,4,7.5-1.6,3.7-3C93.5,61.2,92.9,61.7,93.3,61.9L93.3,61.9z M79.2,61.7c0,0,0.1,0,0.1,0c0.2,0.1,0.2,1.5,0,2.1
			c-0.5,3-2.7,10.1-7.1,6.6c-1.7-1.4-0.2-4.8,1.9-3.6c1.6,0.9,0.5,3.1-1.2,1.8c-0.9-0.6-0.6,0.6,0.1,1c1.2,0.6,3.5-0.5,4.5-2.4
			c0.4-0.8,0.8-2.2,1.2-4.2C79,62.1,79,61.7,79.2,61.7L79.2,61.7z M79.6,67c0.4,2.2-1.3,6-3.6,6.6c-1.8,0.4-4-0.8-3.9-1.8
			c0-0.3,0.2,0.1,1.8,0.4c2.3,0.4,3.7-0.9,5-3.7C79.3,67.5,79.5,67,79.6,67L79.6,67z M85.2,68c0,0.2-0.1,0.9-0.2,1.3
			c-0.2,1-0.4,1.4,0.7,0.9c0.7-0.3,1.8-0.7,2.9-0.1c1.2,0.7,2.4,0.6,3.9-0.1c1.3-0.4,1.9-0.4,2.6,0c1.3,0.7,0.8,0.3,0.7-1.6
			c-0.1-1.3-0.5-1.1-0.9-0.6c-0.3,0.3-0.9,0.4-1.6,0c-0.8-0.4-1.9-0.2-2.3,0.1c-0.4,0.3-0.9,0.4-1.7-0.2c-0.5-0.3-0.8-0.2-1.4,0.1
			c-1,0.4-1.4,0.2-1.9-0.2C85.5,67.4,85.2,67.5,85.2,68L85.2,68z M80.3,69.6c0.1,0,0.1,0.5,0.1,1.5c-0.4,3.8-3.3,5.9-6.8,4
			c-1.5-0.9-1.3-1.5,0.2-0.9c2.4,0.9,4.7-0.3,5.9-3.4C80,70,80.2,69.6,80.3,69.6z M88.7,72.3c1.7,0.7,3.6,0.5,4.1-0.1
			c0.5-0.7-0.3-0.6-0.7-0.5c-1.5,0.4-2.5,0.2-3.1,0C87.2,70.9,87.3,71.7,88.7,72.3z M71,74.4c2.2,2.7,2.5,3.2,4.4,6.3
			c13.9,23.7,18.3,53.7,9.2,81c-2.5,7.5-6,15.2-10,21.3l-4.7,0.1l1.6-1.9l-2.2,0.2l-0.1-1.2l-1.7,0.5l-0.8-1.9l-1.5,4.3l-8.8,0
			c20.6-20.2,24.7-44.7,20.8-64.3c0,0,1.7-1.1,2-1.7c0.1-0.2,0.2-0.8,0.3-0.9c0.8-0.5,1.3-1,1.7-0.9c0.2,0.1,0.3,0.2,0.5,0.4
			c0.7,1.1,0.9,1.2,1.3,0.2c0.3-0.8,0.2-1.1,1.1-0.9c0.5,0.3,1.3,0.3,1.2,0.2c0-0.1-0.8-1-1.2-1.5c-0.9-1.2-1.1-1.5-1-2
			c0.1-0.8-0.5-1.7-0.9-1.9c0.1-2.2-0.7-2.4-3.1-2.9c0-0.4,0.1-0.7,0.2-1l1.4,1.1l0.5-2.1l1.9,0.1l-5.5-5.4c0,1.5,0.1,3.1,0,4.5
			c-2.6-0.1-5.2-1-5.2-0.8c-3.8-9-9.6-16.7-15.7-22.7l6.1-3l1.7,3.3l0.4-1.9l1.5,0.3l0.3-1.2l1.7-0.2l-1.9-1.8L71,74.4z M107.4,78.3
			c0.2,0.3,0.4,0.3,0.7,0.6l-0.6,0.4C107.6,78.9,107.5,78.7,107.4,78.3L107.4,78.3z M66.7,79.4c-0.5,0-0.9,0.4-0.9,1
			s0.4,0.9,0.9,0.9c0.5,0,0.9-0.4,0.9-0.9S67.2,79.4,66.7,79.4z M71.8,79.6c-0.5,0-0.9,0.4-0.9,1c0,0.5,0.4,1,0.9,1
			c0.5,0,0.9-0.4,0.9-1C72.7,80,72.3,79.6,71.8,79.6z M55.3,80.2c3,2.5,5.8,5.8,9.2,11L64.5,92l1,0.4c0,0,5.6,7.5,5.3,10.8
			c-1.9,0.4-3.7-0.1-7.1,3.1c-1.6-0.9-2.6-0.6-4.3-0.1c0,0,0,0.7,0.6,1c1.1-1.3,2.3-0.7,3-0.4c-0.2,0.1-0.8,7.5,0.3,9.1
			c0.9,2.5-1.5,2-3.1,1.4l0.5,11.8c5.3-6.2,16.6-10.3,15.8-9.8c5.7,30.2-7.8,50.3-21.9,65.1l7.4,0c0,0-6.4,10.3-6.8,13.2
			c0.4,0.9,1.4,2.9-0.3,4.3c-0.6,0.6-0.6,3.5-0.6,3.5c-3.9,0.1-7.3-1.2-11.7,0.4c-0.5,0.2-0.6-2.5-0.6-2.9c-2.5-2.2-0.2-6.1,0.1-5.8
			c-2-6-6.1-13.1-6.1-13.1s-2.5-0.1-3.9-0.2c-0.3-0.3-0.5-7.2-0.2-7.4c11.1,0.9,28.4-0.1,28.4-0.1l-4.7-6.6
			c-5.7-2.3-13.6,1.6-13.2,1.8c0,0-6.3-3.5-10.7-3l0.1-3.4c3.9,0,7.5,0.7,10.6,2.6l5.3-2l-16.3-17.3l0.2-2.8c5.3,5,14,14.6,14,14.6
			l0-36.2l-14,0l-0.4-7.3l-0.4-0.6l-0.2-5.2l0.4-0.5l-0.1-2.2l-0.1-0.3l-0.2-5.4l0.3-0.5l0-3.4C37.8,91.5,55.3,80.2,55.3,80.2
			L55.3,80.2z M67.3,81.3l1.6,7.2l1.1-1.4l1.7,0.5l0.1-1.7l1.5-0.5L67.3,81.3z M123.1,82.5c-0.5,0-0.9,0.4-0.9,1c0,0.5,0.4,1,0.9,1
			c0.5,0,0.9-0.4,0.9-1C124,82.9,123.6,82.5,123.1,82.5z M118.7,83.1c-0.5,0-0.9,0.4-0.9,1c0,0.5,0.4,1,0.9,1c0.5,0,0.9-0.4,0.9-1
			C119.6,83.5,119.2,83.1,118.7,83.1z M64.6,83.9c-0.5,0-0.9,0.4-0.9,1c0,0.5,0.4,1,0.9,1c0.5,0,0.9-0.4,0.9-1
			C65.5,84.3,65.1,83.9,64.6,83.9z M122,84.5l-6.6,6.2l1.8-0.1l0.3,1.8l1.6-0.8l1.3,1.2L122,84.5z M124.8,86.6c-0.5,0-0.9,0.4-0.9,1
			c0,0.5,0.4,1,0.9,1c0.5,0,0.9-0.4,0.9-1C125.8,87,125.4,86.6,124.8,86.6z M72.6,87.8c-0.5,0-0.9,0.4-0.9,1c0,0.5,0.4,1,0.9,1
			c0.5,0,0.9-0.4,0.9-1C73.6,88.2,73.2,87.8,72.6,87.8z M76.7,88.6c-0.5,0-0.9,0.4-0.9,1c0,0.5,0.4,1,0.9,1c0.5,0,0.9-0.4,0.9-1
			C77.7,89,77.2,88.6,76.7,88.6z M73,90c0.2,2.5,0.5,5.6,0.5,8.1l1.2-1.2l1.4,0.6l0.5-1.6l1.6-0.1L73,90z M113.4,92.1
			c-0.5,0-0.9,0.4-0.9,1c0,0.5,0.4,1,0.9,1c0.5,0,0.9-0.4,0.9-1C114.4,92.5,114,92.1,113.4,92.1z M70.3,92.3c-0.5,0-0.9,0.4-0.9,1
			c0,0.5,0.4,1,0.9,1c0.5,0,0.9-0.4,0.9-1C71.3,92.7,70.8,92.3,70.3,92.3z M117.2,92.5c-0.5,0-0.9,0.4-0.9,1c0,0.5,0.5,1,0.9,1
			c0.4,0,0.9-0.4,0.9-1C118.1,92.9,117.7,92.5,117.2,92.5z M116.6,94.6l-5.4,5.6l1.8,0.2l0.6,1.6l1.1-1l1.4,1L116.6,94.6z
			 M119.6,95.8c-0.5,0-0.9,0.4-0.9,1c0,0.5,0.4,1,0.9,1c0.5,0,0.9-0.4,0.9-1C120.5,96.2,120.1,95.8,119.6,95.8z M76.7,97.5
			c-0.5,0-0.9,0.4-0.9,1c0,0.5,0.4,1,0.9,1c0.5,0,0.9-0.5,0.9-1S77.2,97.5,76.7,97.5z M53.5,98.3l-1.4,1.1c1.1,0.4,1.8,1.4,1.8,1.4
			S53.7,100.2,53.5,98.3L53.5,98.3z M81.2,98.9c-0.5,0-0.9,0.4-0.9,1c0,0.5,0.4,1,0.9,1c0.5,0,0.9-0.4,0.9-1
			C82.1,99.4,81.7,98.9,81.2,98.9z M74.4,100.3c-0.5,0-0.9,0.4-0.9,1c0,0.5,0.4,1,0.9,1c0.5,0,0.9-0.4,0.9-1
			C75.4,100.7,74.9,100.3,74.4,100.3z M113.4,102.2c-0.5,0-0.9,0.4-0.9,1c0,0.5,0.4,1,0.9,1s0.9-0.4,0.9-1
			C114.3,102.6,113.9,102.2,113.4,102.2z M109.6,103.6c-0.5,0-0.9,0.4-0.9,1c0,0.5,0.4,1,0.9,1c0.5,0,0.9-0.4,0.9-1
			C110.6,104,110.2,103.6,109.6,103.6z M147.6,103.9l2,2.1v31.4l-1.9,0L147.6,103.9z M71.4,104.1c1.6,0,3.4,0.2,3.9,1.2
			c0.9,1.1-1,0.7-2.6,0.9c-1.5,0.2-0.6,0.5,1.4,0.6c2.8,0.2,3.9,0.2,4.4,0.9c0.2,0.6,0.1,1,0.1,1.7l-3.2-0.2c-1.7,0-2.7,0-3.1,0.1
			c-0.4,0.1-0.3,0.4-0.1,0.6c0.1,0.1,1.4,0.1,2.8,0.1c4,0.1,4.9,0.2,5.2,1.6c0.2,1.2-0.8,1-4.9,0.6c-1.8-0.2-2.8,0.3-3.1,0.4
			c-0.5,0.2,1.3,0.4,1.9,0.4c0.4-0.1,3,0.2,4,0.4c0.8,0.1,0.1,0.1-0.3,0.6c-0.3,0.4-0.2,0.9-0.6,1.1c-0.5,0.3-1.6,0.3-3.5,0.3
			c-2.1,0-3.1,0.5-0.2,0.7c1.9,0.1,2,0.1,2.2,0.6c0.4,1.4-0.5,1.6-2.4,1.9c-0.9,0.2-2.3,0.1-3.3,0c-4.1-0.3-5.5-1.3-6.1-3.1
			c-2.1-6.8,0.5-11,6.5-11.3C70.6,104.1,71,104.1,71.4,104.1L71.4,104.1z M112.9,104.4l-4.6,6.8l1.8-0.7l0.9,1.8l1.4-1l1.4,0.9
			L112.9,104.4z M78.2,105.2c0.2,0.3,0.1,0.5-0.3,0.7c-0.3,0.2-0.9,0-1.3-0.1c-0.5-0.2-0.5-1.1-0.1-1.2
			C77.1,104.5,77.8,104.8,78.2,105.2L78.2,105.2z M44.6,104.9l-2.1,2.3c0,0,2-0.7,3-1.1L44.6,104.9z M115.7,105.9
			c-0.5,0-0.9,0.4-0.9,1c0,0.5,0.4,1,0.9,1c0.5,0,0.9-0.4,0.9-1C116.7,106.3,116.3,105.9,115.7,105.9z M150.3,106.7
			c0,0,2.4,2.4,3.3,3.3l-0.9,0l0,1.9l2.8,0l1.5,1.5l-4.3,0v1.9l5.3,0l0-0.8l2.1,1.9l0.2,21.1l-10.1,0
			C150.3,127.1,150.3,117.1,150.3,106.7L150.3,106.7z M81.2,109c-0.1,0.5-0.5,0.5-1,0.2c-0.8-0.3-0.7-1.2-0.1-1.3
			C81.3,107.8,81.5,108.3,81.2,109L81.2,109z M84.4,109.4c-0.5,0-0.9,0.4-0.9,1c0,0.5,0.4,1,0.9,1c0.5,0,0.9-0.4,0.9-1
			C85.3,109.8,84.9,109.4,84.4,109.4z M81,110.1c0.4,0,0.7,0.2,0.9,0.4c0.5,0.5,0.3,1-0.2,1.3c-0.6,0.3-1.1-0.1-1.3-0.9
			C80.3,110.5,80.6,110.1,81,110.1z M110.6,112.6c-0.5,0-0.9,0.4-0.9,1c0,0.5,0.4,1,0.9,1c0.5,0,0.9-0.4,0.9-1
			C111.6,113.1,111.2,112.6,110.6,112.6z M79.5,113.8c0.8,0,1.1,0.9,0.6,1.3c-0.6,0.6-1.6,0.3-1.7-0.2
			C78.4,114.2,78.9,113.8,79.5,113.8z M107.3,114.2c-0.5,0-0.9,0.4-0.9,1c0,0.5,0.4,1,0.9,1c0.5,0,0.9-0.4,0.9-1
			C108.2,114.6,107.8,114.2,107.3,114.2z M110.6,114.8l-4.2,7.1l1.7-0.7l1,1.4l1.1-0.9l1.6,0.8L110.6,114.8z M77.5,116
			c0.8,0,1,0.6,0.4,1.1c-0.4,0.4-0.8,0.4-1.2,0C76,116.7,76.5,116,77.5,116z M113.6,116.1c-0.5,0-0.9,0.4-0.9,1c0,0.5,0.4,1,0.9,1
			c0.5,0,0.9-0.4,0.9-1C114.5,116.5,114.1,116.1,113.6,116.1z M82.9,116.8c-0.5,0-0.9,0.4-0.9,1c0,0.5,0.4,1,0.9,1
			c0.5,0,0.9-0.4,0.9-1C83.8,117.3,83.4,116.8,82.9,116.8z M152.8,117v2l5.3,0v-2L152.8,117z M82.9,118.8l-2,7.5l1.7-1l1.1,1.1
			l1-1.2l1.8,0.5L82.9,118.8z M86.5,119.6c-0.5,0-0.9,0.4-0.9,1c0,0.5,0.4,1,0.9,1c0.5,0,0.9-0.4,0.9-1
			C87.5,120.1,87.1,119.6,86.5,119.6z M79.9,120c-0.5,0-0.9,0.4-0.9,1c0,0.5,0.4,1,0.9,1c0.5,0,0.9-0.4,0.9-1
			C80.8,120.5,80.4,120,79.9,120z M152.8,120.6v1.8h5.3v-1.8L152.8,120.6z M109,123c-0.5,0-0.9,0.4-0.9,1c0,0.5,0.4,1,0.9,1
			c0.5,0,0.9-0.4,0.9-1C109.9,123.4,109.5,123,109,123z M152.8,124v2h5.3v-2H152.8z M43.1,124.2l1.9,0l0,34l-1.8-1.9L43.1,124.2z
			 M42.3,124.3l-0.1,31.1l-3.5-3.8l0.9,0v-2.1l-3.1,0l-1.3-1.3l4.4,0v-2.1l-5.2,0v1.3l-2.6-2.7l0-20.3L42.3,124.3z M109.1,125.3
			l-2.8,7.4l1.8-1l0.9,0.9l1-0.9l1.6,0.8L109.1,125.3z M34.5,125.6l0,2h5.2v-2H34.5z M112.4,126c-0.5,0-0.9,0.4-0.9,1
			c0,0.5,0.4,1,0.9,1c0.5,0,0.9-0.4,0.9-1C113.3,126.4,112.9,126,112.4,126z M105.9,126.1c-0.5,0-0.9,0.4-0.9,1c0,0.5,0.4,1,0.9,1
			c0.5,0,0.9-0.4,0.9-1C106.9,126.5,106.5,126.1,105.9,126.1z M83.7,126.5c-0.5,0-0.9,0.4-0.9,1c0,0.5,0.4,1,0.9,1
			c0.5,0,0.9-0.4,0.9-1C84.7,126.9,84.3,126.5,83.7,126.5z M152.8,127.2v2.1h5.3v-2.1H152.8z M83.6,128.4l-0.8,1.2L81,129l2.5,7.5
			l3.1-7.8l-1.8,1L83.6,128.4z M34.5,129v2h5.2v-2H34.5z M152.8,130.7v2.1h5.3v-2.1H152.8L152.8,130.7z M34.5,132.5v2h5.2v-2H34.5z
			 M109.1,132.9c-0.5,0-0.9,0.4-0.9,1c0,0.5,0.4,1,0.9,1c0.5,0,0.9-0.4,0.9-1C110,133.3,109.6,132.9,109.1,132.9z M80.7,133.8
			c-0.5,0-0.9,0.4-0.9,1c0,0.5,0.4,1,0.9,1s0.9-0.4,0.9-1C81.6,134.3,81.2,133.8,80.7,133.8z M86.7,134c-0.5,0-0.9,0.4-0.9,1
			c0,0.5,0.4,1,0.9,1s0.9-0.4,0.9-1C87.7,134.5,87.3,134,86.7,134z M152.8,134.2v1.9h5.3v-1.9H152.8L152.8,134.2z M109.1,135
			l-1.1,1.2l-1.6-0.5l3.7,6.9l1.9-7.4l-1.6,1L109.1,135z M34.5,135.7v2.3h5.2v-2.3H34.5z M83.7,136.8c-0.5,0-0.9,0.4-0.9,1
			c0,0.5,0.4,1,0.9,1s0.9-0.4,0.9-1C84.6,137.2,84.2,136.8,83.7,136.8z M83.6,138.7c-0.4,0.3-0.6,0.8-1,1.1l-1.7-0.7l1,9.4l4.8-8.9
			l-2.2,0.4L83.6,138.7z M34.5,139v2.3h5.2V139H34.5z M112.8,140.1c-0.5,0-0.9,0.4-0.9,1c0,0.5,0.4,1,0.9,1c0.5,0,0.9-0.4,0.9-1
			C113.7,140.5,113.3,140.1,112.8,140.1z M106.6,140.2c-0.5,0-0.9,0.4-0.9,1c0,0.5,0.4,1,0.9,1c0.5,0,0.9-0.4,0.9-1
			C107.6,140.7,107.2,140.2,106.6,140.2z M34.5,142.4v2.4h5.2v-2.4H34.5z M110.1,143c-0.5,0-0.9,0.4-0.9,1c0,0.5,0.4,1,0.9,1
			s0.9-0.4,0.9-1C111,143.4,110.6,143,110.1,143z M123.4,143c5.1,0.2,5.8,1.8,5.8,7.5c0,4.5-1.3,6.3-4.6,7.2c-1.2,0.3-5.7,0-6.9-0.4
			c0-0.4-0.7-1.3-0.8-2c0.3-0.1,1.3,0.1,3.3,0.2c1.6,0.2,2-0.1,1.5-0.4c-2.9-0.7-4.9-0.5-7.8-1.1c0-0.9-0.7-1.8-0.7-1.8
			c0.2-0.1,4.4,0.4,6.6,0.3c1,0,0.4-0.5,0-0.6c-2.6-0.4-4.3-0.3-7-0.7c0.1-0.7-0.3-1.3-0.7-1.9c0,0,1.4,0,4.2,0
			c1.5,0,2.8,0.1,3.5,0.1c1.1,0,1-0.5,0-0.6c-1.2-0.1-5.8-0.2-5.8-0.2c0.3-0.2,0.8-2.2,0.6-2.3c0,0,1.2,0,1.9,0
			c3.7-0.1,4.3-0.1,4.4-0.2c0.5-0.4-0.8-0.6-2.2-0.6c-0.6,0-1.4,0.1-1.4-0.2c0-0.3,0-0.9-0.3-1.5C119.3,143.1,121.4,143,123.4,143
			L123.4,143z M79.7,144.2c-0.5,0-0.9,0.4-0.9,1c0,0.5,0.4,1,0.9,1c0.5,0,0.9-0.4,0.9-1C80.7,144.6,80.2,144.2,79.7,144.2z
			 M115.9,144.4c0.6,0,0.8,1.1,0.2,1.3c-0.9,0.3-1.4,0.1-1.4-0.5C114.8,144.9,115.5,144.4,115.9,144.4L115.9,144.4z M85.9,145.4
			c-0.5,0-0.9,0.4-0.9,1c0,0.5,0.4,1,0.9,1c0.5,0,0.9-0.4,0.9-1C86.8,145.8,86.4,145.4,85.9,145.4z M112.9,146.5
			c2.1,0,1,2.9-0.6,1.9C111.4,147.8,112,146.5,112.9,146.5z M79,148.8c0,0-0.1,0-0.1,0.1l0.5,8.9l5.2-8.3l-2,0.8l-0.9-1.3l-1.1,0.9
			C80.1,150.2,79.2,148.8,79,148.8L79,148.8z M110.9,149.7c1,0.1,1.6,1.1,0.9,1.6C110.3,152,109.5,149.8,110.9,149.7z M108.6,151.7
			c-0.5,0-0.9,0.4-0.9,1c0,0.5,0.4,1,0.9,1c0.5,0,0.9-0.4,0.9-1C109.5,152.1,109.1,151.7,108.6,151.7z M112.2,152.5
			c0.8,0,1.2,1.2,0.4,1.6c-0.2,0.1-0.7,0.1-0.9,0C110.7,153.3,111.2,152.6,112.2,152.5L112.2,152.5z M76.8,154c-0.5,0-0.9,0.4-0.9,1
			c0,0.5,0.4,1,0.9,1s0.9-0.4,0.9-1C77.7,154.4,77.3,154,76.8,154z M149.1,155.2l-3.5,1.2v1.7C147.1,157.5,148,156.3,149.1,155.2
			L149.1,155.2z M116.2,156c0.6,0.3,0.8,1.1,0.3,1.4c-0.4,0.2-1.5,0.2-1.8-0.2C113.9,156,115.5,155.7,116.2,156L116.2,156z
			 M83.1,156.3c-0.5,0-0.9,0.4-0.9,1c0,0.5,0.4,1,0.9,1c0.5,0,0.9-0.4,0.9-1C84.1,156.7,83.6,156.3,83.1,156.3z M79.2,157.9
			c-0.5,0-0.8,0.4-0.8,0.8s0.4,0.8,0.8,0.8c0.5,0,0.8-0.4,0.8-0.8S79.7,157.9,79.2,157.9z M118.6,159.4c-0.5,0-0.9,0.4-0.9,1
			c0,0.5,0.4,1,0.9,1c0.5,0,0.9-0.4,0.9-1C119.5,159.8,119.1,159.4,118.6,159.4z M76.2,159.4l0,8.4l5.6-6.9l-1.9,0.4l-0.8-1.7
			l-1.2,0.8L76.2,159.4z M111.6,161.4c-0.5,0-0.9,0.4-0.9,1c0,0.5,0.4,1,0.9,1s0.9-0.4,0.9-1C112.6,161.8,112.1,161.4,111.6,161.4z
			 M139.5,161.4l-0.9,1.6l2.6-1.5L139.5,161.4z M115.4,162.5c-0.5,0-0.9,0.4-0.9,1c0,0.5,0.4,1,0.9,1s0.9-0.4,0.9-1
			C116.3,162.9,115.9,162.5,115.4,162.5z M118.6,163.5l-1.1,1.6l-1.5-0.5l-0.4,1.6l-1.8-0.1l5.8,5.1L118.6,163.5z M73.2,164.2
			c-0.5,0-0.9,0.4-0.9,1c0,0.5,0.4,1,0.9,1s0.9-0.4,0.9-1C74.2,164.6,73.8,164.2,73.2,164.2z M160.3,166.5v69.4h-32.4l-13.6-19
			c-0.3-3.1-0.1-6.2,1.2-10.3c1.3,0.9,4.2,0.4,4.1-3.2c-0.1-2.4-3.7-3.6-5.5-1.8c0.1-2.3,1-5.7,2.3-6.7c0.9,0.8,1.1,2.1,3.2,1.7
			c1.5-0.2,2.6-1.9,2-3.8c-0.2-0.5-0.2-1.1-0.2-1.5c0-0.4,0-1.1,0-1.5c-0.1-0.5-0.1-1.1-0.1-1.1C136.3,185.2,149.5,176,160.3,166.5
			L160.3,166.5z M79.9,166.8c-0.5,0-0.9,0.4-0.9,1c0,0.5,0.4,1,0.9,1s0.9-0.4,0.9-1C80.8,167.2,80.4,166.8,79.9,166.8z M75.4,167.7
			c-0.5,0-0.9,0.4-0.9,1c0,0.5,0.4,1,0.9,1s0.9-0.4,0.9-1C76.3,168.1,75.9,167.7,75.4,167.7z M122.3,168.2c-0.5,0-0.9,0.4-0.9,1
			c0,0.5,0.4,1,0.9,1c0.5,0,0.9-0.4,0.9-1C123.2,168.6,122.8,168.2,122.3,168.2z M72,169.2l-1.5,8.9l6.4-6.6l-1.8,0l-0.3-1.5
			l-1.6,0.5L72,169.2z M115.8,171.1c-0.5,0-0.9,0.4-0.9,1c0,0.5,0.4,1,0.9,1s0.9-0.4,0.9-1C116.8,171.5,116.4,171.1,115.8,171.1z
			 M120,172.1c-0.5,0-0.9,0.4-0.9,1c0,0.5,0.4,1,0.9,1s0.9-0.4,0.9-1C121,172.5,120.5,172.1,120,172.1z M68,173.3
			c-0.5,0-0.9,0.4-0.9,1c0,0.5,0.4,1,0.9,1s0.9-0.4,0.9-1C68.9,173.7,68.5,173.3,68,173.3z M123.8,174l-1.5,1.2l-1.4-0.9l-0.3,1.9
			l-1.2,0.6l5.1,3.6L123.8,174z M127.5,176.5c-0.5,0-0.9,0.4-0.9,1c0,0.5,0.4,1,0.9,1s0.9-0.4,0.9-1
			C128.5,177,128.1,176.5,127.5,176.5z M74,176.9c-0.5,0-0.9,0.4-0.9,1c0,0.5,0.4,1,0.9,1s0.9-0.4,0.9-1
			C74.9,177.3,74.5,176.9,74,176.9z M69.8,178.1c-0.5,0-0.9,0.4-0.9,1c0,0.5,0.4,1,0.9,1c0.5,0,0.9-0.4,0.9-1
			C70.7,178.5,70.3,178.1,69.8,178.1z M125.1,180.6c-0.5,0-0.9,0.4-0.9,1c0,0.5,0.4,1,0.9,1c0.5,0,0.9-0.4,0.9-1
			C126.1,181.1,125.6,180.6,125.1,180.6z M121.1,181.5c-0.5,0-0.9,0.4-0.9,1c0,0.5,0.4,1,0.9,1s0.9-0.4,0.9-1
			C122.1,181.9,121.7,181.5,121.1,181.5z M84.5,182.8C84.5,182.8,84.5,182.8,84.5,182.8c0.1,0.1,0.5,1,0.2,1.4
			c-0.2-0.1-0.8-0.7-0.7-0.9C84.1,183.2,84.4,182.8,84.5,182.8L84.5,182.8z M63,184.3c0,0,0.9,0,1.1,0.1c0,0.2-0.2,0.8-0.5,1.3
			c-1.2,2.9-1.4,6.1-0.2,9.2c2,4.2,7.5,14.2,7.1,15.2l-12.3,0.1l0.1-1.9c3.5-0.1,4-2.3,3.1-4c-0.6-1.2-2.3-1.9-3.8-1.3
			c-2.2,0.9-2.3,2-3.1,3.7l-0.4-0.4c0.7-0.9,0.9-1.7,0.8-2.7c-0.1-1-0.1-0.7,0.2-1.2c1.9-2.1,0.7-4.8,0.7-4.8
			C55.7,195.9,61.7,185.3,63,184.3L63,184.3z M34.9,184.6c3.5,2.8,6.5,12.2,6.3,12.4c-0.2-0.1-2.8,3,0,6c0,0-0.2,1.8,0.4,2.7
			c-1.3,2.6-1.5,2.8-1.6,5c0,0-0.2,0-1.4,0c-5.8,0-6.1,7.4-0.3,7.8c0.8,0.1,1.1-0.1,1.5,0.4c0.5,0.6,0.9,1.2,1.7,0.9
			c0.2,0,0.5,0.2,0.8,0.5c0.6,0.8,1.4,1.3,2.5,1.1c0.4,0,0.8,0.2,1.3,0.3c0.5,0.4,1.4,0.7,2.1,0.4c0.2-0.1,0.6-0.1,0.9,0
			c0.8,0.4,1.7,0.1,2-0.1c0.8-0.4,0.9,0.2,0.9,0.8c-0.4,1.4,0.5,2.7,1.8,3.2c2.8,0.9,4.2-0.9,4.8-4.3c0.1-0.7,0.3-1.6,0.3-1.6
			l9.3,0.2L55,235.8H31.7v-51.3C32.7,184.5,33.9,184.6,34.9,184.6L34.9,184.6z M118.6,187.4c1.7,0.7,1.8,1.9,0.1,1.3
			c-2.7-0.9-5.7,0.8-6.3,3.3c-0.1,0.4-0.2,0.8-0.3,0.9c-0.4,0.5-0.4,0-0.3-1.3c0.2-2.6,2.1-4.5,4.4-4.6
			C117.1,187,117.9,187.2,118.6,187.4L118.6,187.4z M117.8,189.2c0.7,0,1.5,0.2,2,0.7c0.6,0.7,0.4,1.2,0,1.1c-2.3-1-5.2,0.2-6.4,3.1
			c-0.7,1.8-0.8,0.8-0.5-0.6C113.4,191.1,115.3,189.3,117.8,189.2L117.8,189.2z M101.8,189.9c-1,0-2,0.2-2.4,0.7
			c-0.9,0.9-0.2,0.9,1.5,0.3c0.8-0.3,2.4-0.2,3.4,0.2c0.8,0.3,1.1,0.4,1.1,0.2C105.3,190.5,103.4,189.9,101.8,189.9z M120.5,192.9
			c0.4,1,0.1,2.7-1.3,2.9c-1.7,0.2-2.6-2.7,0.5-2.2c-0.4-1.2-1.8-0.9-2.5-0.6c-1.4,0.6-2.4,2.1-3.3,4.7c-0.3,0.8-0.5,1.2-0.6,1.1
			c-0.2-0.1-0.2-1.3,0.1-2.8c0.7-2.6,2.4-4.2,4.2-4.2C118.8,191.5,120.2,192,120.5,192.9L120.5,192.9z M95.6,191.7
			c-0.2,0,0.1,0.6,0.5,1.4c0.2,0.5,0.4,1.1,0.4,1.2c0,0.5,0.4,0.6,0.9,0.3c0.6-0.3,0.7-0.6,1.5-0.2c0.8,0.4,1.6,0.7,2.3,0.3
			c0.4-0.2,0.7-0.2,1.4,0c0.9,0.2,1,0.3,1.7,0c0.9-0.4,1.9-0.1,2.1,0.1c0.2,0.2,0.1-0.1,0.6-1.2c0.2-0.5,0.5-1.1,0.4-1.3
			c-0.1-0.2-0.9,0-1.8,0.3c-0.5,0.1-0.9,0.1-1.8-0.2c-1.9-0.5-3.1-0.4-4.3,0.2C99,192.9,97.3,192.4,95.6,191.7
			C95.6,191.7,95.6,191.7,95.6,191.7L95.6,191.7z M99.3,196.8c-0.9,0-1.6,0.5-2,1.3c-0.4,1,0.3,2.9,1.4,3.1c0.9,0.1,0.9-0.4,0.4-0.6
			c-0.7-0.2-1.6-1.3-1-2.2c0.4-0.6,1.5-0.6,2.3,0.1c1.6,1.5,3.4,1.6,3.8,0.3c0.1-0.5-0.3-1.2-0.9-1.1c-0.5,0.2-1.6,0.2-2.5-0.4
			C100.2,197,99.7,196.8,99.3,196.8z M116.2,201.7c4.1-0.2,2.3,5.4,0,3.9c-0.8-0.5-0.5-2.4,1.8-2.4c-2.2-1.7-3.7,0.4-3.2,2.7
			c-0.5,0.8-0.6,2.2-1,3.1c-0.5,0.9-0.9-1.5-0.4-3.9C113.9,202.8,114.7,201.8,116.2,201.7L116.2,201.7z M93.1,201.9
			c-0.8,0,0,0.9,0.2,1c2.5,2,3.8,3.3,1.7,2.6c-3.3-0.8-4.2,0.2-6.7,1.3c-0.5,0.2-0.6,0.1-1.2-0.1c-2.2-0.7-2.1,0.7,0.3,2
			c3.5,1.9,6.4,2.3,9.1,0.9c1.8-0.9,1.8-0.3,0.2,0.7c-2.8,1.6-5.7,1.4-10.2-1.4c-1.5-0.9-1.7-0.3-0.2,0.7c3.4,2.1,8,3.9,11.7,0.9
			c0.7-0.7,0.9-1,1.4-0.7c1.5,0.8,1-0.6,0-1.8c-0.4-0.4-0.6-0.8-0.6-1.1c0.1-1.1-0.5-1.1-1-1c-0.6,0-0.6-0.2-1.4-1.1
			C95.3,203.5,93.9,202.2,93.1,201.9L93.1,201.9z M59.1,207.6c-1.4,0.1-1.7,0.2-1.4,3.1c0.1,0.5,0.3,2.2,0.4,2.8
			c0.8,7.6,0.2,11-2,12c-0.8,0.3-1.5,0.2-2.1,0c-1.3-0.5-1.9-2.2-0.9-4.1c0.3-0.5,0.6-1.3,0.7-1.8c0.1-0.5,0.4-1.5,0.6-2.3
			c0.5-1.9,0.8-4.8,0.5-7.6c-0.2-1.9-0.2-2,0.3-3.3c1-1.9,1.7-2.8,3.8-2.9C61.6,203.7,62.3,207.4,59.1,207.6L59.1,207.6z
			 M111.1,207.5l-0.7,0c-0.8-2.7-2.5-1.8-2.7,0.1l-0.6,0C107.2,204,111.6,205,111.1,207.5L111.1,207.5z M49,205.5
			c4.5,0.4,5.3,1.6,5.7,7.1c0,2.7-0.1,4.3-0.5,4.9c-0.7,0.3-1.3-0.3-2.3,0.3c-0.5,0.3-0.4,0.4-0.7,0c-0.2-0.3,0-1.7,0.4-2.9
			c0.3-1.1-0.2-1.7-1.7-3.1c-0.4-0.4-0.8-0.9-1.1-1.6c-0.8-2.1-1.2-1.2-0.5,0.6c0.3,0.8,0.4,1.2-0.6,0.8c-0.6-0.2-1.1,0-1.5,0.3
			c-1.2,0.3-2.3-0.4-1.2-0.8c0.7-0.2,1.8-0.6,2.2-0.6c0.3,0,0.4-0.1,0.4-0.2c0-0.5-2.4-0.5-4.2,0.2c-2.2,1-2.4,0.9-2.2-0.8
			C41.6,205.7,45.4,205.2,49,205.5L49,205.5z M93.1,205.8c1.2-0.1,2.2,1.3,2,2.4l-0.5,0c-0.3-2.1-2.3-2.2-2.8,0.2l-0.8,0
			C91.5,206.5,92.3,205.9,93.1,205.8z M106.5,205.9c0.5,0.3,0.1,1-0.3,1.2c-0.2,0-0.8-0.4-0.6-0.6
			C105.8,206.1,106.2,206,106.5,205.9L106.5,205.9z M111.7,206.2c0.3,0,0.7,0.2,0.8,0.6c0,0.6-0.5,0.5-0.6,0.4
			C111.5,207,111.4,206.3,111.7,206.2L111.7,206.2z M95.9,206.7c0.8,0.1,1.2,1.2,0.2,1.2C95.6,208.1,95.6,207,95.9,206.7z
			 M90.7,206.9c0.1,0-0.1,0.9-0.3,1c-0.4,0.3-1,0-0.9-0.3C89.6,206.9,90.3,206.9,90.7,206.9L90.7,206.9z M105.5,209
			c1.6,0.6,3.7,1.2,5.7,0.5c0.7-0.3,1.3-0.6,1.3-0.3c0,0.3-0.6,0.8-1.6,1.1c-2.1,0.6-3.7,0.4-5.1-0.7
			C105.3,209.3,105.2,209,105.5,209L105.5,209z M104.8,209.9c2.6,1.5,5,1.7,7.1,0.6c0.9-0.3,0.9,0,0.9,0.5
			C109,214.4,104.2,210.9,104.8,209.9z M40.7,212.2c-0.6,1.3-1,4.6-2.1,5.5C31.4,217.4,36.1,207.8,40.7,212.2z M85.4,211.2
			c-0.4,0.2,0,1.2,0.6,1.5c5.5,2.4,8.4,2.7,11.5,1.6c1.3-0.5,2-1.5,2.1-2c0.1-0.6-0.8-0.7-2.2,0c-4.5,1.8-7.3,0.4-10.9-1
			C86.1,211.1,85.8,211.1,85.4,211.2L85.4,211.2z M64.3,211.2l0,8.1l-5.3-0.1l0.1-1.2l3.9,0.1l-0.1-5.8l-4.6,0l0-1.1L64.3,211.2
			L64.3,211.2z M65.5,211.3l5.2,0l0.3,0.8h-5.5V211.3L65.5,211.3z M44.3,213.8c-0.3,0.3-0.9,0.4-1.2,0.1c-0.6-0.6,0-1.6,0.9-1.6
			C44.9,212.4,45,213.2,44.3,213.8L44.3,213.8z M46.8,212.5c0.8,0,1.1,0.7,0.5,1.4c-0.4,0.4-0.6,0.4-1,0.1
			C45.8,213.6,46,212.5,46.8,212.5z M41.6,212.7c0.2,0,0.4,0,0.5,0.2c0.5,1-1.1,1.7-1.4,0.9C40.4,213.3,41,212.7,41.6,212.7z
			 M71.2,212.8l0.3,1l-6,0v-1L71.2,212.8z M49.6,213.1c0.9,0.1,0.8,1,0.3,1.4c-0.7,0.7-1.4,0.5-1.2-0.4
			C48.8,213.6,49.2,213.1,49.6,213.1z M44.7,216.1c-0.3,1.1,0.4,3.5,0.2,3.7c-0.4,0.5-1.1,0.3-1.5,0.1c-1.1-0.7-1.2-4.9-0.1-5.1
			c0.7,0.3,1.1-0.3,1.4-0.4C45.1,214.3,44.9,214.9,44.7,216.1z M60.7,214.4c0.6,0,1.1,0.5,1.1,1.1c0,0.6-0.5,1.1-1.1,1.1
			c-0.6,0-1.1-0.5-1.1-1.1C59.6,214.9,60.1,214.4,60.7,214.4z M65.5,214.6h6.2c0.4,0.5,0.3,0.9,0.2,1.2l-6.4,0V214.6L65.5,214.6z
			 M47.3,214.7c0.3,0,0.4,0.6,0.2,1.3c-0.3,1.3-0.3,3-0.1,3.7c0.2,0.5,0.3,0.9,0.2,1c-0.3,0.5-1.3,0.2-1.7-0.5
			c-1-1.9-0.9-5.4,0.4-5.2C46.8,215.3,47.1,214.9,47.3,214.7z M41.9,215.2c-0.3,0.5-0.1,3.2-0.1,3.4c0,0.3-0.8,0.1-1.2-0.1
			c-1.1-0.5-0.8-1.8-0.6-2.8c0.2-0.8,0.7-0.9,1.4-0.9C41.7,214.8,42.1,214.8,41.9,215.2L41.9,215.2z M50.3,215.3
			c0.3,0,0.4,0.2,0.3,1.2c-0.1,0.8-0.1,1.4,0,2.2c0.3,1.6,0.3,2-0.1,2.3c-0.5,0.4-1.1,0.3-1.6-0.2c-1-0.8-1.1-4.7-0.3-5
			C49.4,216,49.9,215.5,50.3,215.3L50.3,215.3z M71.7,216.5l-0.9,1.2h-5.3v-1.2L71.7,216.5L71.7,216.5z M52.9,218.2
			c0.8,0,0.7,1.5,0.2,2.4c-0.4,0.6-0.7,0.6-1.2,0.1C51.2,220,52,218.1,52.9,218.2z M70.1,218.6l-0.7,0.7l-3.9,0v-0.7L70.1,218.6
			L70.1,218.6z"/>
		<path id="path3872-3-7-5_1_" class="st3" d="M44.2,189.3l-6.4-5.1c7.6-0.2,15.2,0,22.9,0.1l-7.6,5.5c-1.6-1.7-2.5-4-4.7-5.1
			C46.7,185.4,45.6,187.8,44.2,189.3z M100.1,187.5c-0.2-0.1-0.3-0.4-0.4-1.2c-1.9-8.9-11.3-8.3-11.2-8c-0.1-0.4,11.6-11,18.5-19.3
			c2.1,6.4,8.4,21,8.1,20.9c0,0-1.8,0-6.5-0.1c-4.3,2-7.3,3.9-7.1,6.6c0,1-0.3,1.4-0.6,1.3C100.6,187.6,100.4,187.5,100.1,187.5z
			 M121.4,158.7c6.1-0.1,7.2-3.1,7.9-3.5c4-0.7,6.5,2,8.2,4.8c2.2,1.4,2,0.1,2.4-2l5.6-1.6l0,1.8c-1.7,0.9-4.3,3.3-4.3,3.3l-1.7-0.1
			l-1,1.3c-3.9,2.1-7.7,4.6-11.7,6.3C126.9,169,122,162.6,121.4,158.7L121.4,158.7z M45.7,159.3L45.6,124c2.5-0.2,7.1-0.2,7.1-0.2
			c1.9-3.4,4.6-5.1,7.3-7.1c0.4,4.4,0.5,8.5,0.4,12.9c-7.2,8.9-11.2,19.8-6.8,36.1l-2.7-0.3L45.7,159.3z M85.5,161.3
			c2.1-7.4,3.6-14.9,4.3-22.6l13.7-0.2l0.3,4.7L85.5,161.3z M132.2,145.2L132,132c10-12.1,10.6-22.6,6.9-35.9c3.3,0.8,5,3.4,8.2,6.9
			v34.5c-2.2,0.3-7.6,0.7-7.6,0.7C139.2,139.8,134.6,143.7,132.2,145.2L132.2,145.2z M89.8,124.3l-0.6-5.8l17.8-17.2
			c-1.5,7.4-3.3,15.1-3.8,23L89.8,124.3z M60.2,106.1c-1.3,0.8-6-4.1-6.7-7.4C54.7,97.1,65,92,65,92s6,7.8,5.8,11.1
			c-2.7,0.7-5,0.9-7,3.1C62.6,106.3,62.2,105,60.2,106.1z M52.1,99.5c1.4,0.2,0.5,2.2,0.3,3.6l-7.6,2.3
			C47.4,103.2,49.3,101.3,52.1,99.5L52.1,99.5z M76.8,82.3c1.6,0,3.2,0.6,4.4,0.1c0.4-0.2,1.3-0.4,2.3-0.3c2.3,0.7,3.1-1.8,4.5-1.8
			c1.9,0,2.9-1.3,2.9-4c0-1.1,0.1-1.3,0.3-1.4c0.6-0.3,1.3,0.1,1.4,0.8c1.3,4.9,4.7,9.2,10.1,8.9c-4.3,4.4-17.2,17.8-17.2,17.8
			C83.2,95.3,80.1,88.6,76.8,82.3L76.8,82.3z M131.8,78.1l7.8-5.7l4.7,5.7l4-5.4c2.4,1.7,7.8,5.5,7.8,5.5S139.9,78.4,131.8,78.1
			L131.8,78.1z"/>
		<path id="path3870-4-7-1_1_" d="M136.3,26.4l-71.7,0.5l13.9,18.7c14.8-3,27.7-1.1,41,1.3L136.3,26.4z M134.4,27.3l-4.8,6
			c-1.3-1.2-4.3-0.8-3.8,1.9c-3.7-1.9-4.4,3.3-1.3,3.1c-0.4,1-3.5,1.3-4.4-0.6c-3.2,1.8-4.2,0.1-5.1-1.1c4.1,2.8,6.1-3,1.6-3.3
			c1.8-3.6-4.5-5.2-4.2-0.5c-4.2-0.9-3.2,4.9-0.2,3.7c-2,3-5.2,1-5.9,0.4c-1.7,1.3-4.8,1.3-5.7-0.7c4.6,0.9,4.1-5.2,0-3.8
			c2.2-4.7-5.1-4.1-3.3-0.2c-4.1-0.2-3.2,5,0.4,4.1c-3.2,3.1-5.7,0.2-6.2,0.1c-1.9,2.1-5.3,1-5.7-0.3c3.3,1.3,4.4-4.3,0.2-3.9
			c1.1-3.6-4.9-4-3.6,0.1c-3.3-0.8-3.5,4.6,0.2,3.7c0.2,1.5-2.7,2.9-4.5,1.4c-1.3,0.7-2.7,1.9-4.5,0.2c2.6-0.4,3-4.9-1.2-3.9
			c0.2-2.7-1.3-2.9-3.3-2.2l-3.1-4.2L134.4,27.3z M85,34c-0.2,0.5-0.6,0.9-0.5,1.2c0.1,0.3,0.4,0.8,0.8,1.4c3.6,4.7,10.9,4.6,13-0.3
			c0.4-0.9,0.4-1.1-0.2-1.9c-0.6-0.9,0.1-1.9,0.9-1.8c1.2,0.1,1.4,1.2,0.8,1.9c-1.2,1.6,2.2,5.1,5.6,5.7c4.3,0.7,8.5-2.4,7.9-5.1
			c0-0.2-0.1-0.3-0.1-0.5c-0.5-2.3,3.2-1.2,1.9,0.3c-0.5,0.5-0.8,0.7-0.7,1.3c1.1,4.9,7,5.4,9.8,3.9c-3.6,6-9.4,1.4-10.4-2.8
			c-5.1,7.4-11.2,5.9-14.6-0.6c0.4,0.4-6.7,11.7-14.8,0.1c-3.4,9.3-9.7,3-9.2,2.6c2.9,1.6,8.1,1,8.6-4c0.1-0.6-0.4-0.7-0.7-1.1
			C81.6,31.8,86,31.8,85,34L85,34z M71.5,34.6c0.6,0.1,0.8,0.3,0.6,1L71.5,34.6z M127.1,36.4l-0.9,1.2C126,37,126,36.4,127.1,36.4z
			 M137.4,36.8c-2.2,0.1-4,3.2-3.8,7.3c0.1,2,0.4,7,0.5,7.8c0.2,1,0,2.5-0.4,2.6c-1,0.4-1.3,0.7-1.6,1.1c-0.7,1.2-0.1,2.6,1.3,3.2
			c1,0.4,2.3-0.2,3.2-1.5c0.5-0.7,0.6-1.1,1-2.9c0.2-0.8,0.2-2.2,0-3.5c-0.5-2.9-0.1-6.6,0.9-8.3c1.8-3.1,1.8-5.1-0.1-5.7
			C138,36.8,137.7,36.7,137.4,36.8L137.4,36.8z M137.2,37.2c2.6,0,2.5,2.6,1.1,3.4c-0.6,0.3-1.2,0.3-1.9-0.1
			c-0.8-0.4-0.7,0.1,0.1,0.6c0.9,0.7,1.3,0.6,0.8,2.2c-0.5,1.5-0.7,4.7-0.5,6.5c0.7,5,0.1,7.5-2,8.4c-1,0.4-2.1-0.2-2.4-1
			c-0.4-1.3,0.3-2.4,2.3-2.1c0,0,0.1-0.4-0.4-4.8c-0.7-6-0.4-10.2,0.7-11.7C135.7,37.9,136.5,37.2,137.2,37.2z M154.8,43.4
			c-0.6,0-1.3,0.2-1.9,0.5c0,0-0.1,2.7-0.2,3.1c-0.4,2.3-0.3,2.6,0.7,2.9c2.6,0.8,4.7-0.9,4.6-3.6C158,44.9,156.7,43.4,154.8,43.4z
			 M155.2,43.8c1.4,0,2.7,1.6,2.5,3.2c-0.1,1.9-1.8,2.9-3.4,2.6c-0.5-0.1-1-0.2-1.1-0.5c-0.3-0.5,0.2-0.7,1.3-0.7
			c1.2,0,1.4-0.2,1.8-0.8c0.8-1.3-0.2-3-1.5-2.7c-0.4,0.1-0.5,0.3,0,0.4c1.5,0.7,1,1.7,0.4,2.1c-0.6,0.5-1.7-0.2-1.9-0.6l0.1-2.5
			C153.4,44.3,153.9,43.8,155.2,43.8L155.2,43.8z M139.3,55.5c0,0-0.6,0.3-0.9,0.5c-0.6,0.6-0.8,1.5-0.4,2.3
			c0.1,0.4,0.1,0.4-0.4,1.1c-1.3,1.8-1.5,2.7-0.8,4.3c0.3,0.7,0.3,0.7,0,1.7c-1.3,4.1-3.8,8.8-6.5,12c-0.4,0.5-0.6,1-0.6,1
			s0.6,0,1-0.2c2.8-1.4,5.7-4.1,8.4-5.8c-4.3,3.5-8.9,6.7-8.9,6.7l5.8,0.3c-1.5,1.5-27.1,23.4-20.3,62.7c8-2,11.7-5.3,16-9.2
			c0,3.2,0.1,11.7,0.1,11.7c0.1-0.1-3.7-1.4-2.8,1.7c0.5,1.7,0.8,6.1-0.1,8.5c0,0.1,0.4,0.3,0.4,0.4c-0.1,0.1-0.6,0.1-0.6,0.1
			c-1.5,2.7-5.2,3.3-7,3.2c-0.7-0.1-0.4,0.9-0.3,1.2c0.3,1.4,1.9,4.4,5,9.3l0.8,0.1l-0.5,0.4c0.4,0.7,1.3,1.9,1.3,1.9l0,0.4
			c0,0,1.6,2.3,2.5,3.4c0.1,0.1,0.2-0.1,0.3,0c0.5,0.6,1.1,1.3,1.6,1.9c0,0-0.1,0.2,0,0.3c0.9,1,2.8,3.1,2.8,3.1l0.4-0.1l1.5,1.6
			c12-5.5,24.6-17.7,24.5-17.7l0.1-26.3l-14.3,0l-0.1-34.8l14.2,14.2l-0.1-4.1c-3.2-3.1-16.2-16.3-16.2-16.3
			c1.9-0.3,3.7-0.9,5.5-1.9c3.1,1.7,6.4,2.7,10.2,2.2l0-3.9c-4.3,0-7-1.4-8.9-3.2l-2.7-0.1c-4.9,3.8-8.4,2-12.1,1.3l-2.6-3.7
			l26.4-0.1l-0.2-9.1l-4,0.1l-2.6-1.9l3,1.3c0,0,0-0.5-0.7-1.5c-1.6-2.7-3.7-6.6-4.9-10.1c-0.6-1.8-0.6-1.7-0.1-2.7
			c0.7-1.4,0.5-3.1-0.4-4.1c-0.6-0.7-0.6-0.8-0.4-1.3c0.9-2-1.2-2.7-1.2-2.6C145.1,57.4,139.2,55.6,139.3,55.5L139.3,55.5z
			 M149.6,56.3c0.9,0,1,0.4,1,1c-0.1,1.2-1.6,1.7-2.4,1.8c-3.4,0.8-9.3,0.3-9.7-1.3c-0.3-1.2,0.4-1.8,2.9-1.2
			C145.3,57.5,147.7,56.6,149.6,56.3z M138.6,59.7c0.4,0,0.8,0.4,0.9,1c0.1,0.5-0.4,2-0.9,2.3c-1.1,0.8-2.1-0.5-1.3-1.9
			C137.8,60.2,138.2,59.7,138.6,59.7L138.6,59.7z M150.2,59.8c0.2,0,0.4,0,0.6,0.2c0.9,0.6,0.9,2.7,0.1,3c-0.8,0.3-1.6-0.5-1.6-1.9
			C149.4,60.3,149.8,59.8,150.2,59.8L150.2,59.8z M147.5,60.3c0.2,0,0.4,0,0.5,0.1c0.7,0.3,1.1,2.5,0.4,3.3
			c-0.5,0.5-1.7,0.5-2.1-0.6C145.9,61.7,146.6,60.3,147.5,60.3L147.5,60.3z M141.5,60.3c1,0,1.3,2.3,0.3,3.3c-0.9,0.8-2.2,0-1.8-1.6
			C140.2,61.3,140.7,60.4,141.5,60.3z M144.5,60.7c1.5,0.3,1.4,4-0.6,3.7C142.7,63.6,142.8,60.8,144.5,60.7z M137.8,64.7l2.2,0.2
			c-0.1,0-3.4,7.2-6.5,9.1C135.1,71.3,136.6,68,137.8,64.7L137.8,64.7z M150.7,64.8c1.3,3.4,2.6,6.8,4.3,10.3
			c-2.6-2.5-4.9-6.5-7.1-10.1L150.7,64.8z M140.6,65.1l1.4,0c0.5,2.2,1.3,3.6,2.3,4.8c0.8-1.4,1.4-3,1.9-4.7l1.1,0
			c0.4,0.3-1.3,6.9-3.1,7.7C142.4,71.4,140.8,67.4,140.6,65.1z M140,66.7c-0.1,0.2,2.2,5.8,4.2,7.6c1.9-1.8,3.1-4.2,3.9-7.1l6.1,8.7
			l-6-4.1c-1.2,2-2.5,3.9-4,5.5c-1.6-1.8-3.1-3.9-4.6-5.9c-2.3,1.7-3.9,3.6-6.9,5.2C132.7,76.6,138.6,70.1,140,66.7z M139.4,72.8
			l4.2,5.1l-11.1-0.2L139.4,72.8z M148.4,72.9l7,4.9L145,77.9L148.4,72.9z M92.5,75.3c0,0,0.1,0.3,0.1,0.5c1.2,5.1,4.7,9.4,9.9,8.9
			l-17,17.1c0,0-2.8-9.6-8.5-19.4c0,0,1,0.2,1.8,0.4c0.8,0.1,1.3,0.1,1.9-0.1c0.4-0.1,0.8-0.4,1.2-0.4c0.7-0.1,1.5,0.1,1.9,0.3
			c1.2,0.2,2-0.4,3.4-1.7c0.4-0.3,0.5-0.3,1-0.3c1.8,0,3-1.6,2.8-4L91,75.4l-0.2,1.2c-0.4,2.3-0.7,3.3-3,3.4c-0.5,0-0.8,0.4-1.6,1.1
			c-1.2,1.1-2.1,1.1-2.9,0.7c-0.9-0.4-1-0.2-1.8,0.2c-1,0.5-2.3,0.4-3.6,0c-1.7-0.5-1.5-0.3-1.5-0.3c10.1,18.1,13.6,35.5,13.4,50.9
			c-0.3,22-8,39.7-14.6,50.5c0,0,1.1-0.1,2.2-0.3c0.5-0.1,0.9,0,1.4,0.2c0.5,0.2,0.8,0.2,1.2,0.1c0.3,0,1.2,0,1.7,0.1
			c1.2,0.2,1.3,0,2.7-1.3c3.8-3.8,3.6-3.6,6.4-3.5c4.2,0.1,7.5,2.9,8.9,7.4c0.2,0.6,0.4,1.4,0.4,1.4l-0.3-1.2
			c-1.2-6-6.3-8.2-10.6-8.2l18-18.2c-0.1,0,4.2,13.9,7.9,20c0,0-1.1-0.5-3.2-0.2c-1.1,0.1-2.4,0-3.1-0.1c-0.9,0-1.5,0.2-2.6,1.2
			c-0.5,0.4-0.9,0.9-1.8,1.2c-2.2,0.9-3.1,1.9-3.1,4.3c0,0.4-0.1,1-0.1,1.2c0,0.1,0,0.2,0,0.2c0,0,0.1-0.1,0.1-0.2
			c0.1-0.2,0.3-0.6,0.5-1.6c0.3-1.8,0.7-2.4,2.4-3.3c0.5-0.2,1.6-0.9,2.1-1.3c1.6-1.3,2.1-1.6,3.4-1.3c0.7,0.2,1.3,0.3,2.3,0.1
			c1.2-0.1,1.2-0.2,2.5,0.1c0.8,0.2,1.9,0.4,1.9,0.4c-17.5-35.4-16.9-68.2,0.3-101.5c0,0-5.1,0.1-5.3,0.2c-0.1,0.1-0.7,0-1.4-0.1
			c-1.4-0.3-1.1-0.1-4.4,3.2c-4.1,4.1-10.5,0.8-12.5-6.1c-0.1-0.4-0.2-0.6-0.3-0.8C92.7,75.5,92.5,75.3,92.5,75.3L92.5,75.3z
			 M109.1,79.4c0.8,0.1,1.3,0.3,1.2,1l-24.1,23.8l-0.4-1.5L109.1,79.4z M114.1,79.5c-0.3,0.6-1.1,1.3-1.5,1.9L114,83l-0.7,1.3
			l-2-1.7l-3.8,3.8l3.2,3.6l-3,3.1l-1-1.1l1.6-1.7l-2.5-2.3l-4.4,4.3l3.6,3.7l-2.6,2.5l-1-1l1.4-1.5l-2.3-2.4l-4.1,4.2l3.2,3.6
			l-2.5,2.5l-1.1-1.1l1.2-1.3L94.7,99l-4.2,4.1l3.4,3.7l-2.5,2.2l-0.9-0.9l1.2-1.3l-2.3-2.4l-2.6,2.4l-0.4-1.6L112,79.6L114.1,79.5z
			 M115.6,79.9l-1.1,2.2l-0.8-0.9l1.1-1.1L115.6,79.9z M55.5,80c-0.7,0.2-15.8,8.7-24.5,18l0,3.5l-0.3,0.4l0.2,5.4l0.2,0.3l0.1,2.2
			l-0.3,0.6v6l0.5,0.1l0.1,7.4l14.2,0l0,35.3c0,0-8.3-9.2-14.3-14.7l0,4.1L47,165.3c-1.1,0.2-2.5,0.4-4.7,1.6
			c-5.2-3.2-11.1-2.3-11.1-2.3l0,4.2c3.8-0.4,7.2,0.2,11.2,2.9c3.3-2.2,7.2-3.6,13.1-1.8c1.3,2.1,2.6,4.2,3.9,5.6l-28.1,0.2l0,8.5
			c1.2,0,4.4,0,4.4,0c1.6,3.1,4.7,7.4,6,12.8c-1.8,2.1-1.6,3.9,0.1,6c0,1-0.3,2.1,0.8,3.1c3.6-1.8,7.6-1,10.6-0.1
			c1,0.3,1.4-0.9,1.4-2.3c-0.1-0.8-0.1-1.2,0.6-1.8c1.5-1.3,0.6-4.1,0.3-4.1c-0.1-2.4,7.6-14.5,7.6-14.3l-1.5,0.6l-6.5,0
			c17.2-16.7,24.4-35.8,22.9-57.4c-0.3-5.4-1.2-7.9-1.2-7.9c-6.1,2.7-11.1,4.7-15.9,9.9l-0.3-11.2c0.3,0.5,2.1,1,2.9,0.3
			c0.6-0.4,0.6-0.8,0.1-2.1c-0.7-2-0.9-6.2-0.4-7.7c0.1-0.2,0.1-0.6,0.2-1.1c0.1-0.6-0.1-0.6-0.1-0.6c0.1,0,0.7,0.1,0.8,0
			c2.1-1.8,4.3-3,7-3.1L71,102c-2-5.1-3.7-7.2-5.6-10c0,0-0.5-0.2-0.8-0.1l0.4-0.4C62.5,87.3,58.8,83.6,55.5,80
			C55.5,80,55.5,80,55.5,80L55.5,80z M55.3,80.7l1.8,1.7c-8.7,4.2-17.3,10.4-25.7,18.7l0.1-3.1C41.1,89.1,48.3,84.7,55.3,80.7
			L55.3,80.7z M111.1,83.8l1.1,1.1l-1.5,1.8l1,1l-0.5,1.4l-2.5-2.6L111.1,83.8z M56.9,83.9c0.6,0,1,0.5,1,1c0,0.6-0.5,1-1,1
			c-0.6,0-1-0.5-1-1C55.9,84.4,56.3,83.9,56.9,83.9z M131.2,85.4c17.7,19.9,8.6,48.7-15,55.7l-0.3-1.6c23.8-8.1,29.4-35.2,14-52.2
			L131.2,85.4z M60,85.5l1.1,1.3C51,91.7,41.2,99,31.6,109.5l-0.1-2.7C40.5,97.4,50,90.5,60,85.5L60,85.5z M53.5,85.9
			c0.6,0,1,0.5,1,1c0,0.6-0.5,1-1,1c-0.6,0-1-0.5-1-1C52.4,86.4,52.9,85.9,53.5,85.9z M50.3,87.9c0.6,0,1,0.5,1,1c0,0.6-0.5,1-1,1
			c-0.6,0-1-0.5-1-1C49.3,88.4,49.7,87.9,50.3,87.9z M60.8,88.6c0.6,0,1,0.5,1,1c0,0.6-0.5,1-1,1s-1-0.5-1-1
			C59.8,89,60.2,88.6,60.8,88.6z M105.8,89.3l1,1.1l-1.6,1.7l2.3,2.5l2.2-2.2l-1.1,3.2l-19.8,20l-0.4-2.1l1.6-1.6l-2.4-2.4l-0.4-1.6
			l2.4-2.2l1,1l-1.4,1.6l2.2,2.2l4-3.7l-3.3-3.7l2.7-2.7l0.9,0.9l-1.3,1.4l2.3,2.5l4.1-4l-3.4-3.6l2.7-2.7l1,1l-1.4,1.7l2.3,2.3l4-4
			l-3.3-3.5L105.8,89.3z M47.2,90c0.6,0,1,0.5,1,1c0,0.6-0.5,1-1,1c-0.6,0-1-0.5-1-1C46.2,90.5,46.6,90,47.2,90z M63.5,90.2l0.8,1.3
			c-12,6.1-20.3,12.3-32.6,26.3v-1.8C41.2,104.3,51.1,96.8,63.5,90.2L63.5,90.2z M57.5,90.4c0.6,0,1,0.5,1,1c0,0.6-0.5,1-1,1
			c-0.6,0-1-0.5-1-1C56.5,90.8,56.9,90.4,57.5,90.4z M150.5,90.8c2.1,1.9,6.6,3.8,9.4,3.6l0.1,2.3c-5,0.5-9.4-2.8-9.4-2.8
			c-3.9,2.4-7.8,2.7-11.9,1.6l-1.6-3.4C143.3,95,149,92.3,150.5,90.8L150.5,90.8z M126.6,91.4c0.2,0.4,1,0.9,1,0.9
			c4.7-1.2,6.1,3.6,3.9,6.4l0.6,2c0.8,0.2,1.6,0.4,2.2,0.9c1.1,0.8,1.8,2.2,1.6,3.6c0.2,1.6-2.2,3-2.3,2.9l0,2.2
			c0.7,0.5,1.4,1.1,1.9,1.9c1.1,1.9,0.7,3.8-1,5c-1,0.7-2.1,0.8-2.2,0.7l-1.1,2.5c0.9,0.5,1.2,1.5,1.4,2.1c0.3,1.4-0.7,3.3-1.9,4
			c-1.6,0.9-3.7,0.1-3.7,0.1l-1.5,1.5c0.4,1.3,0.5,2.1,0.3,2.9c-0.5,1.9-2.5,2.7-4.2,2.6c-1.3-0.1-2.2-1.1-2.2-1.1l-1.7,0.7
			c0,0,0,2.2-0.8,2.8c-0.3,0.3-1.2,0.9-1.2,0.9l-0.2-1.5c0.7-0.5,1.1-1.7,1-2.5l3.7-1.8c0,0.1,1,1.1,1.7,1.3
			c1.4,0.3,2.9-0.8,2.9-2.1c0-0.8-0.4-1.3-0.6-1.9l3.1-3.2c1.3,0.4,2.2,0.5,2.8,0.2c1.1-0.6,1.4-1.9,1.2-2.7
			c-0.2-0.9-1.1-1.5-1.1-1.6l1.7-4.4c0.8,0,1.3-0.1,1.9-0.5c1.3-0.9,1.1-2.5,0.6-3.3c-0.7-1-1.6-1.1-1.7-1.1l0.1-4.6
			c0,0,1.8-0.8,1.9-1.9c0.3-1.5-0.4-2.5-2.2-2.9c-1-0.2-1,0-1,0l-1.5-4.2c2.3-1.4,1.6-3.7,0.4-4.4c-1.2-0.8-3-0.1-3-0.1
			s-0.8-0.8-1.4-1.4L126.6,91.4z M64.9,92.2c1.5,2.1,4.1,6.2,5.5,9.8c0.1,0.2,0,1,0,1c-4.1,0.4-5.5,2-6.9,3.1
			c-1.1-0.6-1.6-1.3-3.6,0c0,0.1-5.2-3.2-6.2-7.5C57.4,96.3,60.9,94.1,64.9,92.2L64.9,92.2z M44.2,92.2c0.6,0,1,0.5,1,1
			c0,0.6-0.5,1-1,1c-0.6,0-1-0.5-1-1C43.1,92.7,43.6,92.2,44.2,92.2z M54,92.5c0.6,0,1,0.5,1,1c0,0.6-0.5,1-1,1c-0.6,0-1-0.5-1-1
			C53,92.9,53.4,92.5,54,92.5z M124.9,93.7c1.8,2.4,4.5,6.8,5.1,10.8c0.9,5.6,0.3,11.4-2.2,15.5c-4.6,8.7-12.6,10.6-12.6,10.9
			l-0.1-1.8c0.1,0.4,6.1-2.2,10.2-7.9c2.5-3.9,4-9.5,3.5-13.9c-0.3-6.3-4.7-12.1-4.8-12.1L124.9,93.7z M40.9,94.6c0.6,0,1,0.5,1,1
			c0,0.6-0.5,1-1,1c-0.6,0-1-0.5-1-1C39.9,95.1,40.4,94.6,40.9,94.6z M50.8,94.6c0.6,0,1,0.5,1,1c0,0.6-0.5,1-1,1c-0.6,0-1-0.5-1-1
			C49.7,95.1,50.2,94.6,50.8,94.6z M139.2,96.4c2.3,0.3,5.1,4.5,7.7,6.8l0,34.2l-7.6,0.2c-1,2.4-3.3,4.8-7,7.1v-12.8
			C144.8,118.4,141.4,103.6,139.2,96.4L139.2,96.4z M38.1,96.8c0.6,0,1,0.5,1,1c0,0.6-0.5,1-1,1c-0.6,0-1-0.5-1-1
			C37.1,97.2,37.6,96.8,38.1,96.8z M47.6,96.9c0.6,0,1,0.5,1,1c0,0.6-0.5,1-1,1c-0.6,0-1-0.5-1-1C46.5,97.4,47,96.9,47.6,96.9z
			 M144.6,97l15.6,15.9l-0.1,2.3l-17.6-18L144.6,97z M53.3,98.5l0.4,2c-0.5-0.8-0.5-1.1-1.4-1.2L53.3,98.5z M44.8,99.1
			c0.6,0,1,0.5,1,1c0,0.6-0.5,1-1,1c-0.6,0-1-0.5-1-1C43.8,99.6,44.3,99.1,44.8,99.1z M35.5,99.4c0.6,0,1,0.5,1,1c0,0.6-0.5,1-1,1
			s-1-0.5-1-1C34.5,99.9,34.9,99.4,35.5,99.4z M123.4,99.4l3.1,2.2l-1,4l-3.2-2.9L123.4,99.4z M52.1,99.7l0.5,0.3l-0.6,2.7l-7.1,2.6
			C47.2,103.4,49.5,101.2,52.1,99.7L52.1,99.7z M53.3,101c0.5,2,1.6,5,2.9,7.5c-0.9,0.5-4.2,2.3-4.2,3.2c0.5,1.6,3.9,3,3.9,3
			c-1.3,2.1-2.6,4.7-3.6,7.6c-0.6-1-0.7-5,0.6-6.7c-1.3-0.5-3-1.6-4.3-2.8c0.8-3,4.4-4.8,4.6-4.8C53.2,108.1,52.2,101.7,53.3,101
			L53.3,101z M41.7,101.5c0.6,0,1,0.5,1,1c0,0.6-0.5,1-1,1c-0.6,0-1-0.5-1-1C40.7,101.9,41.2,101.5,41.7,101.5z M120.8,101.6
			c4.6,8.7,1.9,16.2-5.5,21.6l0.2-2c5.1-3.7,8.4-11,4.7-18L120.8,101.6z M33,101.8c0.6,0,1,0.5,1,1c0,0.6-0.5,1-1,1
			c-0.6,0-1-0.5-1-1C32,102.3,32.4,101.8,33,101.8z M106.7,101.9c-3.4,12.7-3.3,18.5-3.7,22L89.9,124l-0.5-4.6L106.7,101.9z
			 M54.3,102.2c0,0,2.8,2.7,5.4,5l-0.3,0.6l-2.5,0.3C55,104.4,54.3,102.2,54.3,102.2z M51.9,103.6L51.9,103.6l0.2,1.9
			c-0.9,0-10.1,3.9-17.2,10.1c1.1-1.9,2.8-3.7,4.6-5.2C43.1,106.7,51.9,103.6,51.9,103.6L51.9,103.6z M38.8,104c0.6,0,1,0.5,1,1
			c0,0.6-0.5,1-1,1c-0.6,0-1-0.5-1-1C37.8,104.5,38.2,104,38.8,104z M44.6,105.2l0.5,0.5l-2.5,1.3L44.6,105.2z M61.7,105.8
			c0,0,0.1,0,0.1,0c0.4,0,0.5,0.2,0.8,0.4c-0.5-0.1-1-0.2-1.4-0.1C61.3,105.9,61.4,105.8,61.7,105.8L61.7,105.8z M52.3,106.2
			l0.2,1.4c-5.3,3-11.6,5.9-20.8,14.7v-2.9C37.5,114,44.2,109.5,52.3,106.2z M59.5,106.3c0.3,0.1,0.6,0.1,0.9,0c0,0-0.2,0.4-0.4,0.4
			C59.7,106.7,59.5,106.3,59.5,106.3L59.5,106.3z M61.7,106.4c0.7,0,1.1,0.6,1,1.4c-0.5,2.7-0.5,5.4,0.1,7.3c0.4,1.5,0.5,2,0.2,2.3
			c-3.1,2.2-4.8-7.6-2.2-10.4C61.1,106.6,61.4,106.4,61.7,106.4L61.7,106.4z M36.1,106.7c0.6,0,1,0.5,1,1c0,0.6-0.5,1-1,1
			c-0.6,0-1-0.5-1-1C35.1,107.2,35.6,106.7,36.1,106.7z M126.1,107l1.9,3.3l-2.7,3.1l-1.7-3.6L126.1,107z M59.1,108.8l-0.1,1.1
			c-1.4,0.4-2.6,1-3.7,1.9c-0.2,0.2,3.2,1.7,3.6,1.4l0,1.2c0,0.4-5.7-1.4-6.1-2.8C53.5,110.8,57.1,108.7,59.1,108.8L59.1,108.8z
			 M33.4,109.4c0.6,0,1,0.5,1,1c0,0.6-0.5,1-1,1c-0.6,0-1-0.5-1-1C32.4,109.8,32.8,109.4,33.4,109.4z M48.8,110.6
			c-0.4,0.8-1,1.8-1.1,2.9c-3.9,2.4-7.8,4.6-12.7,10l-2.6,0l-0.1-0.7C37.6,117.7,43.4,113.3,48.8,110.6L48.8,110.6z M58.8,110.9
			l0,1.4c-0.9,0-1.4-0.3-2.1-0.6C57.3,111.3,57.8,111,58.8,110.9L58.8,110.9z M87.9,111.1l0.7,0.8l-0.5,0.4L87.9,111.1z M48.7,114
			l1.4,0.9c-3.7,1.9-7.6,4.8-10.9,8.6h-2.8C39.9,119.6,43.8,116.1,48.7,114L48.7,114z M125.2,115.1l0.3,3.9l-3.6,2l0.1-4.1
			L125.2,115.1z M56.7,115.1l2.5,0.3l0.3,1.1c-2.1,1.3-3.9,2.9-5.6,4.5C54.5,118.8,55.5,116.8,56.7,115.1z M50.7,115.5l1.1,0.5
			l-0.4,1.8c-3,1.4-5.5,3.2-8,5.7h-2.9C43,120.7,47.2,117.3,50.7,115.5L50.7,115.5z M60,117.2C60,117.2,60,117.2,60,117.2l0.4,12
			c-10.7,12.6-10.1,24.8-7,35.9l-2-0.1c-2.4-3-5.5-6-5.5-6l0-34.9l7.4,0C54.9,120.1,59.7,117.2,60,117.2L60,117.2z M51.2,118.9
			l0.1,1.6c-1.5,0.9-2.8,1.9-3.9,3h-2.8C46.5,121.7,48.4,119.9,51.2,118.9z M76.4,119.7l0.4,1.9C52,130.6,47.5,157,62.1,175l-1,1.1
			C44.3,157.9,51.7,128.2,76.4,119.7z M51.4,121.6c0,0,0.1,1.4,0.2,1.9h-2.8C49.5,122.8,50,122,51.4,121.6z M121.3,122.2l-1.6,3.8
			l-4.3,0.1l1.9-3.8L121.3,122.2z M94.3,124.7h3.9v3.7h-3.9V124.7z M77.5,125.1l0.1,1.6c-1.7,0.9-1.3,2.3-1.7,2.3
			c-1.1,0.3-3.9,1.8-3.9,1.8c-1-0.9-2.3-0.7-3-0.2c-0.9,0.6-1.1,1.9-0.8,3l-3,3.5c-1.4-0.6-2.8-0.6-3.5,0.4c-0.8,1.1-0.5,2.4,0.8,4
			l-1.6,4.2c-0.2-0.3-2.9,0.6-2.9,2.2c0,1.7,2.2,2.8,2.2,3l-0.1,4.6c-0.1-0.2-2.3,0.7-2,2.9c0.3,2,3,1.8,3.1,2l1.5,4.4
			c-0.1-0.1-2,1.8-0.8,3.6c1,1.5,3.8,0.5,3.8,0.4l0.8,1.1l-0.9,1c0,0-0.4-0.5-0.6-0.4c-1.7,0.3-3.5-0.1-4.4-1.4
			c-1.2-1.9,0.1-4.8,0.6-4.8l-1-2.5c-1.9,0-3.5-1.7-3.5-3.1c-0.2-3,2.2-4.2,2.2-4.2l0.1-2.8c-0.1,0.2-2.4-1.4-2.3-3.3
			c0-1.3,1.2-2.9,2.5-3.5c0.4-0.2,1-0.5,1-0.5l0.9-2.3c0,0-1.3-1.9-1-3.9c0.6-2.9,4.4-2.7,5-2.4l1.8-2.2c-0.9-2,0.6-4.4,2.6-4.8
			c0.9-0.1,3.3,0.4,3.3,0.4l2.3-1.2C74.9,126.7,76.2,125.9,77.5,125.1L77.5,125.1z M90.3,129.2h3.3v3.7h-3.3V129.2z M99.2,129.2h3.8
			v3.7h-3.8V129.2z M77.7,130.2l0,1.4C56.1,142.1,65,163.9,68,166.4l-0.7,1.5C63.6,165.7,53.8,140.5,77.7,130.2L77.7,130.2z
			 M94.3,134h4l0,3.9h-4L94.3,134z M76.8,135.8l-1.3,3.5l-4,0.3l1.5-3.5L76.8,135.8z M157.6,138.4l2.7,0c-5.1,6-10.5,10-15.9,12.3
			c0,0,0-0.5,0.1-1c0.1-0.3-0.1-1.2-0.1-1.2C150.4,145.6,154.6,142.1,157.6,138.4L157.6,138.4z M143.7,138.4
			c-0.7,0.8-1.5,1.6-2.5,2.1l-0.4-2.2C141.7,138.4,143.7,138.4,143.7,138.4z M148.5,138.4c0.3,0.7-7.1,4.7-7.1,4.4l0-1.3l4-3
			L148.5,138.4z M150.1,138.4L150.1,138.4l2.1,0c-1.9,3-11.8,8.4-11.4,7.6l0.4-2.2C144.4,142.4,147.3,140.5,150.1,138.4L150.1,138.4
			z M153.6,138.4l2.7,0c-4.1,5.3-8.3,7.2-12.3,9.4c-0.2,0-0.1-0.1-0.9-0.1l-1.4-1.1C142,146.9,151,141.6,153.6,138.4z M77.2,138.6
			l-0.1,1.6c-5.7,5-8.1,11.3-5.1,18.7l-0.7,1.6C68.1,152.6,69,144.9,77.2,138.6L77.2,138.6z M103.3,138.8l0.3,4.3l-17.8,17.5
			c2.7-9.8,3.5-15.7,4.2-21.8L103.3,138.8z M160.5,139.8l0,2.4c-7,7.8-14.1,11.3-20.3,12.7l-0.1-0.9l2.8-1.8
			C152.1,148.3,156.1,144.2,160.5,139.8L160.5,139.8z M139.1,139.9c0.1,1.7-1.4,5-3.1,6.8l-3,0l-0.3-1.3
			C135.2,144.1,137.4,142.2,139.1,139.9L139.1,139.9z M140,140.4c1.1,1.8-0.5,6.4-0.6,6.2c-0.1,0.3,9.3,2.3-0.4,7.1
			c0.2,1.4,1.1,4.4,0.4,6.2c-0.2-0.7-1.9-5.5-3.2-6.7c3-0.9,5.2-2.7,5-3.4c-0.5-0.9-1.9-2-4.1-2.8C139,144.3,139.6,142.3,140,140.4
			L140,140.4z M70.4,141.3l0.3,3.6l-3.5,2.1l-0.3-4L70.4,141.3z M130.6,144.6c0.3,0,0.5,0.1,0.6,0.2c1.7,0.7,1.8,9.1,0.3,10
			c-1.1,0.7-1.9-0.4-1.9-0.6c0.7-3.9,0.3-6.3,0-9C129.7,144.8,130.2,144.6,130.6,144.6L130.6,144.6z M160.5,144.8v3
			c-10.1,10.5-20.9,18.8-32,23.4l-1-1.7C140.9,163.2,152.2,154.3,160.5,144.8z M158.7,145c-4.7,6.5-10.3,10.8-18.1,12.7l-0.1-1.9
			C150.1,153.7,159,145,158.7,145z M31.9,146.1c6.1,6.3,12.3,12.4,18.5,18.9l-2.5,0.1l-16.1-16.8L31.9,146.1z M104.2,146.4l0.2,1.5
			l-1.8,2l2.8,3l0.1,0.7l-2.4,2.5l-1.1-1.1l1.3-1.5l-2.2-2.4l-4.2,4l3.4,3.8l-2.6,2.5l-1-1.1l1.3-1.5l-2.3-2.5l-4.3,4.3l3.2,3.6
			l-2.1,2.4l-1-1.1l1.1-1.3l-2.3-2.4l-4.1,4l3.4,3.7l-2.7,2.7l-1.1-1l1.5-1.7l-2.5-2.4l-2,1.9c0,0,0.8-1.9,0.9-2.2
			c0.2-0.5,0.8-0.8,5.1-5.1C93.9,156.7,99.1,152,104.2,146.4L104.2,146.4z M133.3,147.4c1.5,0,4,0.4,5.2,1c2.3,1.2,1.6,2.2,0.1,2.9
			c-1.8,0.8-3.2,1.3-5.2,1.3l0.1-1c1.2-0.3,2.4-0.6,3.4-1.1c0.7-0.4,0.9-0.7,0.9-0.7s-0.7-0.7-1.8-1.1c-0.8-0.3-1.9-0.3-2.6-0.4
			L133.3,147.4z M66.9,148.7l1.9,2.8l-2.2,3.7l-2.1-3.2L66.9,148.7z M104.6,149c0.1,0.5,0.7,2.6,0.4,2.2l-1.2-1.4L104.6,149z
			 M133.4,149.3c1,0.1,2.1,0.1,2.9,0.5c-0.9,0.7-1.9,0.8-2.9,1L133.4,149.3z M159.3,150.7c0.6,0,1.1,0.5,1.1,1.1s-0.5,1.1-1.1,1.1
			c-0.6,0-1.1-0.5-1.1-1.1S158.6,150.7,159.3,150.7z M101,152.7l1,0.9l-1.2,1.5l2.3,2.4l2.8-2.6l0.4,1.7l-26.2,26l-1.5-0.1l1.7-2
			l-1.9-2l0.8-1.4l2.2,2l4.1-3.9l-3.3-3.5l2.8-2.9l1.1,0.9l-1.6,1.8l2.4,2.4l4.3-4.2l-3.4-3.7l2.7-2.6l1,0.9l-1.2,1.3l2.4,2.6
			l3.6-3.8l-3.3-3.6l2.9-2.9l0.9,0.9l-1.3,1.5l2.5,2.6l3.9-4.1l-3.2-3.5L101,152.7z M156.6,153.4c0.6,0,1.1,0.5,1.1,1.1
			c0,0.6-0.5,1.1-1.1,1.1c-0.6,0-1.1-0.5-1.1-1.1C155.5,153.9,156,153.4,156.6,153.4z M135.4,153.4c1.8,2.1,2.8,4.4,3.1,7
			c-1.4-2.2-3.2-4.1-5.6-5.8l0.4-1.1L135.4,153.4z M160.5,153.6v2.5c-7.9,9.1-17.6,15.9-27.4,20.6l-1.7-2.1
			C143,169.5,151.5,162.9,160.5,153.6z M148.8,155.4l-3.2,2.5v-1.1L148.8,155.4L148.8,155.4z M132.2,155.6c2.7,1.3,5,3.6,6.4,7
			c-3.7,2.4-7.8,4.3-11.8,6.2c-1.9-3-3.8-5.9-5.2-9.8c6,0,7.7-3.4,7.7-3.4C130.8,156.1,131.1,156.2,132.2,155.6L132.2,155.6z
			 M153.9,156.1c0.6,0,1.1,0.4,1.1,1.1c0,0.6-0.5,1.1-1.1,1.1c-0.6,0-1.1-0.5-1.1-1.1C152.9,156.4,153.4,156.1,153.9,156.1
			L153.9,156.1z M145.6,156.8l0,1.1c-1.5,1.4-4.5,3.6-4.5,3.6l-1.2-0.1l0.4-3.1C142.1,157.9,143.9,157.4,145.6,156.8L145.6,156.8z
			 M66.8,156.9l3,2.4l-0.9,3.8l-2.9-2.2L66.8,156.9z M106.5,157.7l0.3,1.1l-24.3,24.2l-1.4-0.2L106.5,157.7z M151.2,158.6
			c0.6,0,1.1,0.5,1.1,1.1s-0.5,1.1-1.1,1.1c-0.6,0-1.1-0.5-1.1-1.1S150.6,158.6,151.2,158.6z M160.2,158.6c0.1,0,0.3,0,0.3,0.1v2.1
			c-0.1,0-0.2,0.1-0.4,0.1c-0.6,0-1-0.5-1-1.1S159.5,158.6,160.2,158.6z M157.4,161.1c0.6,0,1.1,0.5,1.1,1.1s-0.5,1.1-1.1,1.1
			c-0.6,0-1.1-0.5-1.1-1.1S156.8,161.1,157.4,161.1z M147.9,161.1c0.6,0,1.1,0.5,1.1,1.1c0,0.6-0.5,1.1-1.1,1.1
			c-0.6,0-1.1-0.5-1.1-1.1C146.8,161.6,147.3,161.1,147.9,161.1z M139.8,161.5l1.2,0l-2.2,1.3C139.2,162.3,139.6,161.9,139.8,161.5
			L139.8,161.5z M160.5,162l0,2.3c-5.5,5.6-12.6,11.4-23.3,17l-1.4-1.4C144.6,175.7,152.8,169.9,160.5,162z M144.7,163.3
			c0.6,0,1.1,0.5,1.1,1.1s-0.5,1.1-1.1,1.1c-0.6,0-1.1-0.5-1.1-1.1S144.1,163.3,144.7,163.3z M154.7,163.4c0.6,0,1.1,0.5,1.1,1.1
			c0,0.6-0.5,1.1-1.1,1.1c-0.6,0-1.1-0.5-1.1-1.1C153.6,163.9,154.1,163.4,154.7,163.4z M42.4,167.9c3.8-2.2,6.9-2.5,11.3-1.8
			l1.3,2.6c-4.3-0.8-8.8-0.7-12.6,2.3c-4-2.5-7-3.3-10.3-2.9l-0.1-2.7C36.3,164.8,40.1,166.3,42.4,167.9L42.4,167.9z M141.6,165.5
			c0.6,0,1.1,0.5,1.1,1.1c0,0.6-0.5,1.1-1.1,1.1c-0.6,0-1.1-0.5-1.1-1.1C140.5,166,141,165.5,141.6,165.5z M151.9,165.9
			c0.6,0,1.1,0.5,1.1,1.1c0,0.6-0.5,1.1-1.1,1.1c-0.6,0-1.1-0.5-1.1-1.1C150.8,166.4,151.3,165.9,151.9,165.9z M138.2,167.6
			c0.6,0,1.1,0.5,1.1,1.1c0,0.6-0.5,1.1-1.1,1.1c-0.6,0-1.1-0.5-1.1-1.1C137.1,168.1,137.6,167.6,138.2,167.6z M148.7,168.3
			c0.6,0,1.1,0.5,1.1,1.1s-0.5,1.1-1.1,1.1c-0.6,0-1.1-0.5-1.1-1.1S148.1,168.3,148.7,168.3z M134.7,169.6c0.6,0,1.1,0.5,1.1,1.2
			c0,0.6-0.5,1.2-1.1,1.2c-0.6,0-1.1-0.5-1.1-1.2C133.6,170.2,134.1,169.6,134.7,169.6z M145.7,170.6c0.6,0,1.1,0.5,1.1,1.1
			c0,0.6-0.5,1.1-1.1,1.1c-0.6,0-1.1-0.5-1.1-1.1C144.6,171.1,145.1,170.6,145.7,170.6z M131.4,171.4c0.6,0,1.1,0.5,1.1,1.1
			c0,0.6-0.5,1.1-1.1,1.1c-0.6,0-1.1-0.5-1.1-1.1C130.3,171.9,130.8,171.4,131.4,171.4z M81.5,172.4l2.8,2.6l-2.9,2.9l-1.1-1
			l1.6-1.7l-1.1-1.5L81.5,172.4z M142.6,172.7c0.6,0,1.1,0.5,1.1,1.1c0,0.6-0.5,1.1-1.1,1.1c-0.6,0-1.1-0.5-1.1-1.1
			C141.5,173.2,142,172.7,142.6,172.7z M139.4,174.6c0.6,0,1.1,0.5,1.1,1.1c0,0.6-0.5,1.1-1.1,1.1c-0.6,0-1.1-0.5-1.1-1.1
			C138.2,175.1,138.7,174.6,139.4,174.6z M135.8,176.5c0.6,0,1.1,0.5,1.1,1.1c0,0.6-0.5,1.1-1.1,1.1c-0.6,0-1.1-0.5-1.1-1.1
			C134.7,177,135.2,176.5,135.8,176.5z M77.8,179.7l0.9,0.8l-1.4,1.7l-1.1,0L77.8,179.7z M60.1,184.4c-3.2,1.6-4.7,2.6-6.9,4.6
			l-3.2-4.5L60.1,184.4z M38.3,184.5l8.5,0.1l-2.8,4C42.1,186.7,40.2,185.3,38.3,184.5z M48.4,184.9c0.9,0.3,3.3,3.8,4.5,5.7
			c2.4-1.9,4.8-4.1,7.4-5.3c-3.1,3.3-5.8,6.7-7.7,9.9c-0.5-1.5-2.1-5.7-4-7.5c-3,2.8-4.2,6.3-4.2,6.3c-1.6-2.8-3.6-5.6-5.9-8.2
			c-0.4-0.5,2.8,1.5,5.9,4.5C45.3,188,47.6,185,48.4,184.9L48.4,184.9z M38.2,187.1c1.5,1.2,5.4,6.3,5.9,9.4l-1.9,0.1
			C41.2,193.5,39.5,190.3,38.2,187.1L38.2,187.1z M59.4,187.6c-1.4,3-3.2,6-4.5,9.3l-1.9-0.1C55.1,192.3,55.8,191.5,59.4,187.6z
			 M48.6,188.9C48.6,188.9,48.6,189,48.6,188.9c1.8,2.5,2.7,4.9,3.2,7.8l-1.4-0.1c0,0-1-2.9-1.6-4c-0.4-0.6-0.8-0.5-1.1,0
			c-0.7,1.2-0.9,2.5-1.3,3.8l-1.6-0.1C44.5,194.2,48,189,48.6,188.9L48.6,188.9z M48.3,197.4c0.6,0,1.3,0.7,1.3,2
			c0.1,0.6-0.4,1.9-0.9,1.9c-0.9,0.5-2-1-1.7-2.3C47.3,198,47.8,197.4,48.3,197.4L48.3,197.4z M45.2,197.7c1.3,0.1,1.6,3,1,3.6
			c-0.6,0.6-2.2,0.2-2.3-0.9C43.4,199.1,44.3,197.7,45.2,197.7z M51.5,197.6c1.4,0.2,1,3.4,0.3,3.8c-1.1,0.6-2-0.4-1.6-1.9
			C50.5,198.4,51,197.7,51.5,197.6z M54.7,198.2c1.6,0.2,0.7,3,0,3.5c-1,0.8-2-0.4-1.5-1.8C53.6,198.8,54.2,198.2,54.7,198.2
			L54.7,198.2z M41.9,198.3c1.2,0.2,1.8,2.8,1.1,3.6c-0.4,0.4-1.4-0.2-1.9-0.9C40.5,200.1,41.1,198.3,41.9,198.3z M54.2,204
			c0.1,1.4-0.9,1.4-3.9,0.7c-1.5-0.3-4.2-0.1-5.6,0.1c-2.3,0.4-2.6,0.3-2.6-0.7c0-1.1,1.3-1.7,4.3-1.8
			C48.5,202.3,53.9,202.3,54.2,204z M58.9,203.2c-3.6,0.3-4.5,4.8-4.1,6.5c0.3,2.8,0.2,5.7-0.4,7.6c-0.4,1.4-0.7,2.8-1.3,4.1
			c-0.9,1.9-0.7,3.3,0.7,4c1.1,0.6,2.6,0.4,3.4-0.5c1.6-1.7,1.8-5.4,0.8-13.7c-0.3-2.9-0.2-3.5,1.3-3.4
			C62.2,207.8,62.1,203.2,58.9,203.2L58.9,203.2z M58.4,207c-0.8-0.3-1.3,0.4-1.2,2.2c0,0.8,0.2,1.7,0.3,2.4
			c1.2,8,0.7,13.3-1.7,13.6c-2.1,0.3-3.5-1.2-2.5-2.9c0.6-0.9,1.1-1,2.2-0.6c1.6,1,1.2-0.4-0.2-1.5c-0.9-0.6-1-0.6-0.5-2.7
			c0.7-2.7,0.9-4.7,0.6-8.1c-0.3-2.4,0.5-5.7,3.5-5.8C62,203.7,61.1,208.1,58.4,207z M36.5,217.5c1,0.5,2,0.4,3,0
			c0.4-1.7,0.4-3.1,1.5-5.4c-1.9-1.9-5.1-1.2-6,0.8C34.2,214.9,35,216.8,36.5,217.5L36.5,217.5z M39.6,211.6c1.1,0.2,1,1.5-0.1,1.1
			c-2.6-1.2-4.7,2.4-2.6,3.8c1.1,0.6,1.5,0.3,0.5-0.6c-0.4-0.5-0.3-0.7-0.1-1.2c0.5-1,2.5-0.8,2.4-0.1c-0.4,2.3-0.7,3-1.4,3
			C34.2,217.8,33.5,210.3,39.6,211.6L39.6,211.6z M73.4,215.8c0,0-11.9,13.5-17.6,20.5l71.6-0.3l-13.6-19
			C102.1,219.7,88.4,218.9,73.4,215.8z M73,220.1c1.8,0,3.8,1.3,5.6,5.7c0.1,0,7.9-11.9,14.6,0.5c1.1-2.8,7.4-10,14.8-0.7
			c2.6-6.2,8.6-4.1,9.2-1.9c-0.1-0.5-5.7-1.8-8.2,2.3c-0.4,0.9-0.5,1.7,0,2.2c1.2,1.2-0.1,2.8-1.5,1.9c-0.5-0.4-0.6-1.1-0.2-1.7
			c1.2-0.9-1.3-3.8-3.3-4.8c-2.8-1.4-6.7-0.8-8.6,1.2c-1,1.1-1.6,2.1-1.8,2.8c-0.1,0.4,0,0.6,0.2,0.8c0.8,1,0.3,2.4-0.8,2.2
			c-1.5-0.2-1.3-1.6-0.3-2.3c0.3-0.1,0.2-0.3,0.1-0.6c-2.6-7.5-12.5-6.1-13.6-0.9c0,0.2-0.1,0.4-0.1,0.6c0.1,0.5,0.4,0.9,0.3,1.3
			c-0.5,1.6-2.4,1.1-2.5-0.2c0-0.6,0.6-0.8,0.9-1.3c0.2-0.3,0.3-0.8,0.1-1.2c-2.7-5.7-7.3-4.5-9.6-3.2
			C68.3,222.8,70.4,220.1,73,220.1L73,220.1z M70.1,223.4c1,0,1.9,0.5,2.7,1.4c2.8-1.5,4.8,1.1,4.5,1.3c-4-2.6-5.3,3.5-1.3,3.2
			c-1.7,3.6,4.4,5.1,3.7,0.5c3.8,1.3,4.4-3.9,0.6-3.8c1.2-2.2,4.5-1.6,5.8-0.2c1.6-2,5.5-0.1,5.9,1.6c-4.4-2.3-4.9,4.7-0.6,3.2
			c-1.3,4.4,5.5,3.8,3.6,0c4.2,1.4,3.7-5-0.5-3.7c-0.3-0.3,3.3-4,5.9-0.6c0.3-0.6,4.4-2.6,6.6,0.5c-4.8-1.6-3.9,4.8-0.4,3.6
			c-0.9,4.3,5.2,3.6,3.7-0.1c4.8,1.2,2.7-6.1-0.7-3.4c0.5-2.9,4.6-1.7,4.5-1.3c0,0,2.1-2.3,4.5-0.6c-3.7,0.3-2.5,5.4,1.1,3.9
			c0,1.7,1.4,2.9,3.3,2.3l3,4.2L57.2,236l5.5-6.6c1.8,1.5,3.7,0.8,4-1.6c4,2.5,5-3.4,1.3-3.6C68.7,223.7,69.4,223.4,70.1,223.4
			L70.1,223.4z M66.2,225.3c0.2,0.2-0.1,1-0.6,0.7L66.2,225.3z M119.8,227c0.2,0.3,0.3,0.5,0.6,0.8C120.4,228,119.3,227.6,119.8,227
			z"/>
		<path id="path163-0-2-5-8-7-5-6-5-5_1_" class="st3" d="M54.2,71.2c0,0-3.8-6.1-8.8-13.4C42,53.1,39.3,47.8,39,43.3
			c-0.3-5.1,2.5-10.3,7.4-10.6c5-0.3,7,4,7.8,7.4c0.8-3.5,2.8-7.7,7.8-7.4c5,0.2,7.7,5.4,7.4,10.6c-0.3,4.5-3,9.7-6.4,14.6
			C58,65.1,54.2,71.2,54.2,71.2z"/>
		<path id="path163-0-2-5-8-7-7-8-9-1-8_1_" class="st3" d="M137.7,191.8c0,0-3.8,6.1-8.8,13.4c-3.4,4.8-6.1,10.1-6.4,14.6
			c-0.3,5.1,2.5,10.3,7.4,10.6c5,0.3,7-4,7.8-7.4c0.8,3.5,2.8,7.7,7.8,7.4c5-0.3,7.7-5.4,7.4-10.6c-0.3-4.5-3-9.7-6.4-14.6
			C141.5,198,137.7,191.8,137.7,191.8L137.7,191.8z"/>
	</g>
</g>
</svg>
