<svg id="Layer_1" data-name="Layer 1" xmlns="http://www.w3.org/2000/svg" viewBox="0 0 180 250"><defs><style>.cls-1{fill:#131f67;}.cls-2{fill:#e2cf00;}.cls-3{fill:#d40000;}.cls-4{fill:#100f08;}</style></defs><title>all_cards</title><g id="g7120"><path id="path6351-0" class="cls-1" d="M24.19,19.51c.07,63.63-.05,141.67,0,211H155.83v-211ZM62.71,20.7c22.72.62,45.58-.05,68.47.13,0,0-8.31,14.48-10.84,19-.55,1-.6,1.71-.31,2.13a2.08,2.08,0,0,1-.09,2.36,1.26,1.26,0,0,0-.34.61c0,.16.13.33.25.62.4,1.39-.65,2.35-1.75,2.8a10.45,10.45,0,0,1-3.59.44c-7.59-.36-22.49-6.78-28.62-7.28-4.26-1.19-9.77-.77-14.3-.52-.86,0-.71-1.94-.71-1.94C70.16,32.49,65.49,26.75,62.71,20.7Zm69.7.73h21.73v3.36L145,34.05c-.85.87-1.52,1.59-1.52,1.59L143.37,44c-6.16-3.31-7.38-7.26-8.51-11.61-10.29,7.59-10.78,24.21.46,32.77.1-3.72,2.93-11,8-11.56l.07,29-6.18-6-13.42.17c2.21-3.59,2.26-6.44.83-9.8-2.41-5.5-6.13-18-5.85-18a.62.62,0,0,1,.41-.34,2,2,0,0,0,1.51-2.61c-.06-.41-.06-.32.22-.86a4,4,0,0,0-.21-3.88Zm-71.2,0L69.26,36a5.62,5.62,0,0,0-.06,1.06,3.7,3.7,0,0,0,.58,1.59A3.35,3.35,0,0,1,70.2,40c.08.73.08.73,1.13,1.68.23.2.27.32.19.53-.35.89-.15,2.7.54,4.86.88,2.72,1.1,2.69-.52,6.34-.34.76-.75,1.77-1.2,2.71-2,4.13-2.32,5.25,1.13,7.45a1.92,1.92,0,0,1,1,2.39c-.19,1-.23,1.59.23,2.14.31.35.58.41.5.69a5.07,5.07,0,0,0-.2,1.67c.21,1.83-1.91,4.52-3.84,5.47-.38.27-.49-.06-.71-.44-2-3.5-7-2.09-7.3,2.09-.09,1.1-.06,1.58-.34,1.82a4.26,4.26,0,0,1-.39.24S53,84.43,48.26,86.92c-.31.16-.58.43-.8.47a.61.61,0,0,1-.6-.15c-1.74-3.32-.78-7.25-.63-8.64,0-.49-.46-.58-1.09-.59a3.69,3.69,0,0,0-3,2.1c-.29.86-.47,1.42-.73,1.42s-.39-.35-1-1.6a17.8,17.8,0,0,0-2.82-4.43c-1-1.2-1.86-1.36-2.85-.47-.68.63-.66.08-1.24-.23-1-.69-2.53-.07-2.56.89s0,1.42-.86,1.47-1.31,1.24-1,2.92c.13.89.16,1-.11,1.35a2.84,2.84,0,0,0-.51,3.27c1.38,4.21,3.39,7,5.27,10.87,0,0-4.65,2.72-7.49,4.3V21.43Zm93.08,4.21.11,68-10.28-10.1s-.2-13-.19-18.37.09-10.66.07-11.65.05-5.21.08-9.54c.07-9.07-.76-7.95.93-9.69ZM134.2,33.8l.56,1.64c-4.3,2.47-9.57,16.22.1,26.32l-.19,2.08C124.52,54.64,126.4,41.45,134.2,33.8Zm.73,1.94c1.48,3,3.17,5.75,5.46,7.4a11.86,11.86,0,0,0,.33,10.59c-1.47.81-3.51,2.94-5.62,7.32C127.46,53.34,129.16,42.16,134.93,35.74ZM78.13,41.5a45.13,45.13,0,0,1,12.7,1.92c2.55,12.91,7,21.59,7,26.64a3.3,3.3,0,0,1-1.11-.6,4.07,4.07,0,0,0-5.56,1.1c-1.23,1.61,0,3.85-.62,4.78-1.19,1.75-4.26,5-4.78,4.87s-.31-.24,1-2.25,2.42-4,2-4.48c-.19-.19-.29.22-1.31,2-2.4,4.17-4.51,6.74-5.35,6.41-.39-.16-.19-.5,1.59-2.85,2-2.65,2.56-4.31,2.36-5-.15-.57-.46.34-1.29,2A55.61,55.61,0,0,1,81,81.46a3.35,3.35,0,0,1-1.62,1.36,4.38,4.38,0,0,1-1.76.51c-.24,0-.07-.17.25-.49a30.36,30.36,0,0,0,6-8.39c.2-.37-.08-.9-.4-.51-1.91,3.37-4.58,7.57-7.47,9.43a4.15,4.15,0,0,1-2.4.66c-1.43,0-.93-.36.37-1.19,2.78-1.79,6.68-6.92,7.31-8.73.15-.43,0-.67-.29-.65-2.29,3.66-5.31,7.68-8.82,9.37-1.89.9-4.28,1.08-5.45.51-.86-.42-.64-.56.88-.66,3.67-.37,8-3.81,10.1-7.46,1.25-2,.37-1.55-1,.39-2.43,3.33-7.26,6.51-10.25,6.26S61.6,79.35,62,77.34a3.48,3.48,0,0,1,2.79-2.81c2.9-.61,4.8,4,2.15,4.85-.91.29-1.25.07-.92-.29a1.81,1.81,0,0,0-.57-3.47,2.06,2.06,0,0,0-2.31,2.17c0,1.21,1,2.39,3,2.41,2.36,0,6-1.66,8.19-4.79,1.56-2.4.12-1.59-1,0a13.72,13.72,0,0,1-4.6,3.3l.11-1.62c.06.28,5.11-3.18,4.82-5.76-.19-1.87.08-2.44,2-2.41,1.45,0,3.3.52,3.84,1.19s1.17.87.9-.24c-.45-1.81.09-2.11-1-1.77-.72.24-1.36-.34-2.09-.85a4.76,4.76,0,0,0-3-.77c-.9,0-1.3,0-1.16-.87a2.87,2.87,0,0,0,0-1.53c-.28-.64-1.4-1.3-2.67-2.23-1.51-1.11-1.23-1.17,2-8.55,1.35-3.09,1.35-3.73.55-6-1.28-3.62-1.48-5.06.91-5.57a37.64,37.64,0,0,1,4.15-.23Zm13.55,2.1,1.24.35S96.78,57.15,99,63.6a27.41,27.41,0,0,1,1.32,7.12c-.06,3.43-2,5.9-4.36,6.17a4.21,4.21,0,0,1-4.31-2.54,3.33,3.33,0,0,1,1.84-4.57c3.49-1.25,6,3.21,2.63,4.58-1.77.71-3.46-.57-2.66-2.06a1.39,1.39,0,0,1,2.51.15c.3,1.15.8.61.59-.17a2.07,2.07,0,0,0-4.09.39c0,2.82,3.09,3.49,4.94,1.9C98.83,73.3,99,71,98.62,69c-.49-4.13-2.83-9.48-4.49-15.6a85.92,85.92,0,0,1-2.45-9.82Zm49.28.14,2.32.92-.05,7.67-2,.68c-2.59-3.95-.44-9.26-.3-9.27Zm-47.14.5,1.7.66c.94,5.41,5.34,15.75,6.89,23.46.43,4.64.5,6-2.64,8.47v0h-1.7s0-.1.74-.66c4.11-3.08,1.66-9.86.1-15.07-2.7-8.32-5.12-16.84-5.09-16.83Zm-15.93.54-.65,0c-2.58.14-3,.31-3,.86,0,1.06.42,1.53,2.81,1.27a15.75,15.75,0,0,1,7.13,1c2.36,1,2.92,1.26,3.77,1.69,2.12,1.1,1.75,0-.17-1.26-3.93-2.58-6.64-3.6-9.88-3.56Zm18.55.37,1.6.61s.42,1.25.57,2c1.56,6.91,5.79,14.67,6.29,22.75.11,2.65-.35,5.12-2.29,6.31h-1.46c1.57-1.56,2.61-2,2.17-7.42C102.63,62.42,98,53.74,96.44,45.15Zm2.83,1.12,1.48.55c1.7,9.32,10.12,23.26,4.76,30h-1.34a8.86,8.86,0,0,0,1.51-6c-.52-8.48-4.84-16.7-6.41-24.51Zm2.48.86,1.59.49c2.15,9.45,10.44,24.93,4.53,29.21l-1.16,0C111.16,68.48,104.41,59.88,101.75,47.13Zm2.77.88a9,9,0,0,0,1.71.56c1.67,7.14,4.73,14.17,6.12,20.82.46,3.64-.33,6.37-2.62,7.41h-.49c2.05-3.1,1.66-7,.57-11.24C108.33,59.88,105.47,53.62,104.52,48Zm-25,.13a7.31,7.31,0,0,0-2.33.36c-.83.32-.73,1,0,.84l1-.18c1.91-.33,4.25.35,7.1,2.08.69.41,1.43.81,1.62.95.52.39,1.08.39.89-.11a8.75,8.75,0,0,0-2.15-1.59c-2.07-1.25-4-2.33-6.21-2.35Zm27.71.62,1.6.24c3,13.83,9.62,22.42,4,27.55h-1.42a7.79,7.79,0,0,0,1.74-7c-.53-3-2.07-7.72-3.35-11.88-1.48-4.83-2.67-8.91-2.54-8.94Zm2.3.39,1.35.25c1.59,5.62,4.29,12.59,5.91,18.39,1,3.57.6,8-1.63,8.77l-1.15,0c1.89-2.52,2.16-5.16,1.3-8.56C113.52,61,110.83,54.94,109.51,49.15Zm8.36,0a169.93,169.93,0,0,0,5.84,17.79c1.57,3.13,1.1,7.77-1.27,9.61l-1.11,0c1.35-1.26,1.81-3.39,1.6-5.59-.61-6.23-5-14.87-6.62-21.51Zm-5.94.28,1.39.13c1.4,6.09,4.13,12,5.89,18.11a14.93,14.93,0,0,1,.51,4.3c-.25,2.59-1.32,4.63-2.26,4.63h-1c2-2.34,1.87-5.53,1-9C116.13,62,112.77,55.12,111.93,49.43Zm-36.39,0c-.58,0-.59.54.34,1.35.57.5.52.34.49.65-.14,1.35.07,2.59.63,1.2.15-.38.36-.79.58-.74.41.13.2.88.4,1.26.33.67,0,.84-.83.63-.59-.15-.62.17-1,.57-.63.71-.53,1.13.45.91a.82.82,0,0,1,.42,0,3.82,3.82,0,0,1,1.32.82A9.65,9.65,0,0,0,81.46,58c1.38.23,1.07-.43-.06-.86-1-.37-2.16-1.4-2.15-1.68s.3-.09,2-.57A17.51,17.51,0,0,0,83.56,54a3,3,0,0,1,1.92-.3c2,.06,2.27,0,.89-1-2.79-2.07-6.51-3.42-8.48-2.56-.6.26-.59.1-1-.15a3.06,3.06,0,0,0-1.33-.47Zm39.93.19c1.94,7.45,5.68,14.12,6.59,21.19a6.68,6.68,0,0,1-1.82,5.7l-1.13,0c-.17,0,1.58-2.7,1.43-5a13,13,0,0,0-.44-3.86c-2.2-6.29-4.36-12-6-18Zm-34.8,2.46c.44.08.45.29.3.55l-.63,1.19s-.53.1-.64,0,.44-1.53.79-1.71a.28.28,0,0,1,.18,0Zm1.22.22a.66.66,0,0,1,.24.08c.51.2,1.39.61,1,.93a3.5,3.5,0,0,1-2.11.38l.58-1.07C81.74,52.42,81.79,52.34,81.89,52.33Zm-5.34,6.51-.11,0c-.1.06.13.46.46.92,1.54,2.08-.59,2.7-2.1,1.58s-3.65-1-3.33.16c.11.42,0,.62.8.63a2.11,2.11,0,0,1,1.54.49c2.45,1.68,5.62-.57,4.07-3A2.05,2.05,0,0,0,76.55,58.84Zm6.06,3.25c-.89,0-1.46.67-.34.87,4,.71,1.31,4.85-1.5,2.72-2.53-2.29-5.92-2.27-6-.65,0,.41,0,.42.61.53a22,22,0,0,1,4.33,1.32,10,10,0,0,0,1.11.5c1.69.61,3.85-.19,4.28-1.61S85.22,62.09,82.61,62.09Zm-50,13.3a2.09,2.09,0,0,1,1.51,1.16c.93,1.58,2.07,4.24,2.79,5.7a1.66,1.66,0,0,1,.18.87c.06.86.35,1.19.86.8s1.19-1,.38-1.12c-.82-.62-1.28-1.52-.77-2.08.37-.4.23-.67-.07-.68-1.15,0-2.86-3.44-2.06-4.17,1.09-1,2.29.23,4.86,5.32,1.13,2.25,1.18,4.7.21,3.49-.33-.31-.26-.15-.65.82a5.24,5.24,0,0,1-1.63,2.13A10.79,10.79,0,0,0,36,90.17c-.06.43.72,0,1.3-.72,1.28-1.25,1.32-1.58,1.31.08,0,1.5-.09,1.77.18,1.76.43,0,.65-1.2.85-2.63a3.73,3.73,0,0,1,2-2.66c.3-.19.31-.33.25-.9-.21-1.82.83-5.21,1.3-4.37.07.19.27.63.38.94.09.48.39,1,.85,1,.57.43.57.66.77,2.23a8.35,8.35,0,0,0,.45,1.69c.29.76.56,1.21.4,1.43l-.33.32-9.33,5.54s-.74.4-1,.51A1.1,1.1,0,0,1,33.86,94a64.66,64.66,0,0,1-4.72-9.31c-.83-1.81,0-3,1.06-1.55.42.57.2.93,0,2,0,.2.15.12.49.18.55-.06.81.43.79,1.25-.34,1.19.13.55.36.49.43,0,.53.26.77.75.15.7.45.5.9,0s.37-.37-.37-1.26a18.46,18.46,0,0,1-3.52-6.42,2.26,2.26,0,0,1,0-1.23c.58-1.3,1.39-1.31,2.27.51a9.71,9.71,0,0,0,.65,1.11,2.5,2.5,0,0,1,.53,1.69c-.26.65-.3.66-.07.75a3.06,3.06,0,0,1,1.59,2.13c0,.91.2,1.4.92.86s.47-.87-.34-1.67c-.85-1-.9-1.88-.4-2.61.09-.24,0-.31-.26-.28a1.39,1.39,0,0,1-1.26-2.1c.32-.56.28-.7-.16-.72a2,2,0,0,1-.81-.07c-.29-.54-.9-1.31-.89-1.93.29-.88.73-1.23,1.2-1.23Zm58.49,0a19.28,19.28,0,0,0,5,2.5A27.81,27.81,0,0,1,79.47,91.18a3.37,3.37,0,0,0,1.27,2.53,11.12,11.12,0,0,1-.35-2.22c7.81-2,14.68-9.65,16.44-13.59l34.33-.38c-25.45,24.41-26.46,58.77-5.7,87.57l-2.39,1.39c-16-24-15.83-47-11-62.51a62,62,0,0,1,14.14-24.13s-18.61-.25-27.87.09a39.52,39.52,0,0,1-4.41,5.68s4.71-4.54,4.59-5.33c8.58,0,17.43-.5,26,.09-10,12-15,24.41-15.84,36.06,0,1.52-.12.67-.62,1.23l-1.59,2.46-1.27-2.56c-.86-.27-2.56.18-3.28-.08-3.53,15.74,0,34.75,4.69,47.15a5.12,5.12,0,0,1-2.61.54c-1.57-.35-2,.09-3.31.36-1.57.3-2.11.3-2.46.69a3.55,3.55,0,0,1-.93.74c-3.82,1.39-8.29,6.58-8.29,6.51l-4.2-1.89c3.87-7.59,8.41-10.32,16.39-13.69l-.74-3.39c-8.5,3.16-13.91,6.95-18.17,14.31-5.18-.07-26.14-.22-26.16-.15,8.55-9.72,15.29-24.39,16-35.82.18-2.23-.13-1.16.85-1.82l1.55-1.84L75.76,131s.87,1.12,1.43.19c1.56-15.94-.09-34.12-7.77-46.79a6.63,6.63,0,0,1,4,.64A81.2,81.2,0,0,1,79,106.54a103.25,103.25,0,0,1-.16,24.61l.52.07A102.73,102.73,0,0,0,79,101.51a74.76,74.76,0,0,0-4.54-15.82c-.43-1-.76-1.21-.35-1.35,9.36-.79,13.66-3.91,17-8.9Zm-25.95.84a1.3,1.3,0,1,1-1.3,1.3A1.3,1.3,0,0,1,65.14,76.28Zm70.36.66a76.83,76.83,0,0,0-7.25,7.79c6.84,9.41,14.45,19.62,20.85,27.77a16.86,16.86,0,0,0,2.2-1.47c0-.09-.17-.52-.22-.43a10.73,10.73,0,0,1-1.79,1.18L129.05,85.21l1.43-1.73c1.57-.51,6-5.93,6.17-5.82,3.43,2.62,13.77,13.76,17.75,17.17l.06,30.92c-.42,1.23-11.45,6-19.23,23.78-3.92,2.2-8.26,3.38-12.3,5.29a15.31,15.31,0,0,0,1.53,2.05c-.61-1.33-.72-1.58.68-2.15l29.14-11.88-.05,2.4C151.3,147.5,132,161.48,126,164.78c-27.88-38.87-10.11-72.12,6.15-87.66ZM44.69,79c.76,0,.57,1.78.29,2.39-.57.44-1.13,0-1.11-.78a1,1,0,0,0-.12-.57C43.33,79.81,44,79,44.69,79Zm17,1.1a3.51,3.51,0,0,1,1.11,1.78c-.86-.13-3.17-.8-2.09-1.31Zm-4.21,2.3c20.11,30.41,19.21,62.72-3.24,87.2l28.4,0c3.62-7.13,9.64-11.48,17.35-14.16l.67,2.24c-8.86,2.85-13.34,7.56-16.9,14.09H49.92c13-14,19-25.83,19.91-41.83.89-15.24-3-29.15-14.76-45.89Zm5.67.35L67.92,85l-.7,4.86-5-2.29Zm-8.56,1.36C80,122.52,69.11,149.51,48.86,172l-3.73.06L36.43,164,36.59,213s-8.48,8.31-9.45,9.31-1.69-.5-1.69-.5l0-65.08.37-2.55.12-14,5.4-2.85,20.27,26.56a7.85,7.85,0,0,1-1.19,1.42c.43,1,1.87-1.45,2-1.84-7.35-9.1-21-26.93-21-26.93l-5.69,3s.16-11.65.06-16.11c.22-1.06,1-.78,1.54-1.25,7.4-4.81,13.5-11.71,18.69-23.5,3.95-1.28,8.09-3.1,12-4.74l-5.71-8.56Zm-15.54.49a3.2,3.2,0,0,0-1.5.91c-1.36,1.24-3.15,3.26-3.15,3.65a1,1,0,0,0,1-.37c1.13-1.68,2.89-2.34,3.92-3.81C39.49,84.75,39.32,84.64,39.08,84.64Zm12.78,1.78s3.93,5.74,4.94,7.26c-10.37,4.1-21.22,9.53-30.84,13v-2.29S44,90.88,51.86,86.42Zm15.42,3.79,3.88,2-1.09,4.37L66.15,94.4Zm3.2,7.28,3.19,2.32-1.45,3.71L69,101.31Zm-26,2.72a19.59,19.59,0,0,1-1.32,3.26c-3.95,6.86-7.8,13-15.78,18.23a14.49,14.49,0,0,1-1.17-1.79l-.08-2C30.36,114.49,34,112,39.61,102l1.62-.66,1.38.6.94-1.67Zm16.58,0c-3.67,7.79-7.29,15.83-13.14,21.91l16,22.36C69.21,128.71,67.26,113.91,61.06,100.23Zm-20.16,1.7-.76,1.33,1.33.77.77-1.33Zm-2.17.14a33.55,33.55,0,0,1-13,15.08l-.22-9.53Zm1,1.94L39,105.34l1.33.77.77-1.33Zm32.75.28L75.39,107l-1.72,3-3-2.45Zm44.25,1.35h0c-5.07,15.78-3.55,30.85,3.41,44a91.53,91.53,0,0,1,12.9-23.25c-4.11-5.38-15.89-20.89-16.3-20.72Zm-78.13.25-.81,1.31,1.31.8.81-1.31Zm22.15,1.84a43.17,43.17,0,0,1,1.74,29.35L51.08,122.64A106.15,106.15,0,0,0,60.77,107.73Zm-23.33,0L36.57,109l1.27.87.87-1.28Zm-1.28,1.81-.95,1.22,1.21,1,.95-1.22Zm37.65,1.3,2.59,2.45-1.63,3.19-2.63-2.4Zm-39.15.59-1,1.17,1.17,1,1-1.17Zm83.49.35,11.53,14.88a77.89,77.89,0,0,0-9.93,15.82C116.54,132.46,115.09,122.57,118.15,111.82Zm-85.1,1.51L32,114.44l1.11,1.06,1.07-1.11ZM60,114.81l-5.27,7.63,6,7.72A37.27,37.27,0,0,0,60,114.81Zm-28.65.25-1.14,1,1,1.14,1.14-1Zm-1.67,1.49-1.2,1,1,1.19,1.19-1Zm45.06.79,2.17,2.53-2.2,2.6-2.06-2.31Zm27.54.45,1.48,0c-2.42,23.81,2.33,35.85,6.52,46.32,0,0,0,.42-.15.54a3.18,3.18,0,0,1-3.17-.48c-5.65-14.51-6.88-32.38-4.68-46.43Zm-74.54.31-1.24.9.9,1.24,1.24-.9Zm92.23.84c-.38,0-.7,9.8.7,14.58l5.31-7.19Zm-13.73,1.62,1.78,2.38-1.88,2.57-1.93-2.43Zm-79.94.65c.09,0,.24.23.52.43s.23.25-.07.49c-.46.37-.6.31-.59-.27s.07-.64.14-.65ZM74.83,123l2,2.8-2.17,2.79-1.86-2.93Zm31.24,3.55,2.06,2.52-1.77,2.76-2.26-2.64Zm47.82.53.18,2.9-.71-1.06-1.31,1,.91,1.21,1.15-.89.07,1.17c-7.27,5.26-10.41,11.29-13.36,15.82l-1.32.56-1.49-.47-.73,1.29-1.27.3a60,60,0,0,1,7-11.2,79.28,79.28,0,0,1,10.9-10.64Zm.84,4.54.07,10.31-13,5C145.16,141.21,149.14,135.86,154.73,131.62Zm-3.23-1.25-1.19,1,1,1.18,1.18-1Zm-1.83,1.55-1.14,1,1.06,1.14,1.15-1Zm-43.47.57,2.45,2.61-1.79,3.09-2.56-2.45Zm41.62,1.1-1.07,1.1,1.17,1.13,1.08-1.1Zm-1.69,1.74-1,1.14,1.25,1.08,1-1.14Zm-1.7,1.94-1,1.2,1.3,1,1-1.21ZM107,139.12l3.07,2-1.5,3.65-3.06-2.33Zm35.91,0-.9,1.25,1.38,1,.91-1.29Zm-1.39,2-.83,1.29,1.4.9L143,142Zm-1.24,1.95-.77,1.33,1.46.83.77-1.35Zm-1.12,2-.76,1.33,1.6.69.64-1.27Zm-30.49.82,3.14,2.13-1.39,3.82-3.32-2.34Zm45.43,3.76v78.81H119.82s-1.61-2.85-5-9.42c-1.43-2.79-2.64-4-2.77-6.17a3.56,3.56,0,0,0-1.52-3.36c-.36-.19-1,0-.76-.51s-.45-1.55-.63-1.75-.08-.43-.11-1.75a8.65,8.65,0,0,0-.36-2.75c-.68-2.42-.84-3.63-.44-4.89a69.39,69.39,0,0,1,3.46-8.59c.8-1.73.68-2.41-1.78-3.67-1.84-1-2.08-.94-1.85-2.32a2.61,2.61,0,0,0,.07-1.36,2.29,2.29,0,0,0-.56-.61c-.24-.21-.17-.63.07-.95s.25-.75,0-1.48c-.5-1.55.64-3.6,2.79-5,.95-.63.92-.5,1.91.54,2.9,3,7.2,1.13,7.21-3.16,0-1.33-.46-1.25.81-1.88,4.28-2.73,13.08-7.69,13-7.55a19,19,0,0,1,1.12,3.42c.32,1.08.27,1.16.16,3.26-.11,1.89-.16,2.33.28,2.46,2.54.27,3.12-.62,3.6-2.26.21-.72.62-.58.87-.27,1,1.75,2.19,3.58,3,4.83,1,1.6,2.69,2.39,3.58,1.64.18-.62.33-.64,1.45-.39a1.69,1.69,0,0,0,2.27-1.45c.05-.4-.24-.38.49-.78,1.8-1.33,1.11-3.16.84-4.26a1.61,1.61,0,0,0,.79-1.48c.09-5.34-4.54-13-4.44-12.83Zm-43.55,3.08,3.67,1.77-.87,4.39-3.77-1.7Zm35.74,1.63c2.11,2.45,3.64,6.54,4.43,9.2.39,1.33.44,2.84.09,3.05s-.51,0-.44-.8.07-1.18-.21-1.17c-.82.21-.85-1-.77-1.32a3.28,3.28,0,0,1,.2-.44c.21-.48-.32-.42-.87-.42s-.61-.29-.59-.75-.69-.41-1.07,0-.28.77.2,1.06c.68.42,1.33,1.44,2.91,5,.93,2.06.65,3.52-.45,3.5-.76,0-1.65-2.11-2.36-3.65-.19-.39.28-.84.44-1.05.42-.56.36-.73-.27-.74s-.83,0-1.19-.68a1.81,1.81,0,0,1-.18-1c.3-.8-.32-1-.92-.68-.76.31-.75,1,.4,2.1.75,1.22.55,1.13-.15,2-.15.29-.06.47.25.47.9-.27,1.87,1.34,1.6,1.89-.27.24-1,1.1-.29.93,1.47-.4,2.37,1.76,1.5,2.49-1.3.65-1.6.45-3.6-3.54-.62-1.23-1.36-2.56-1.45-2.7a1.85,1.85,0,0,1-.13-.79c.09-.72-.22-.89-.85-.6-.47.11-.89.5-.3.86.7,1.2.94,1.4.56,1.7-.87.69-.49.66.48.86a1.22,1.22,0,0,1,.85.68c.51,1.13,1.4,2.73,1.49,3,.29.83-.24,1.2-1,1.16s-1.11-.58-1.48-1.09c-1.39-1.93-2.39-3.84-3.8-6l.19-2a1.22,1.22,0,0,0,.58,0c.4-.2.65-.84.88-1.69s2.57-2.42,3.41-3.32a.61.61,0,0,0,.28-.37c0-.34-.95-.11-1.57.6-.92.81-1.31.54-1.28-.5-.09-1.29-.87-.64-.91.61a2.86,2.86,0,0,1-1.14,2.15c-1.31,1-1.09.78-1,2.23.11,2.53-.87,4.61-1.51,3.23-.23-.49-.49-1-1.06-1.07-.41,0-.61-.41-.83-1.39-.33-1.59-.79-2.61-1.22-4.07Zm-32.56,5.45,4.23,1.69-.79,4.42-4.19-1.6Zm32.27.41-.1,0a41.44,41.44,0,0,1-3.59,2.69,2.78,2.78,0,0,0-1.06,1.23c0,.19.58.19,1.14-.06a21.32,21.32,0,0,0,3.62-3.38C146.26,160.5,146.24,160.22,146,160.23Zm-38.86,5.37c1,0,.42.3-1.77,1.81s-5.64,6.15-6,7.89c-.19.79.32.85.88-.23,2.59-5,7.48-9.52,12-9.32,2.2.1,3.38.69,1.57.95-5,.61-8.71,3.45-12,9.12,0,.12.3.12.64-.1,3-3.65,6.34-8.48,12.25-8.09,4.26.26,5.47,5.32,1.93,7.05-3.08,1.51-5.92-2.16-3.37-4.34.83-.71,1.35-.39.55.33-1.71,1.55.39,4.31,2.47,3.26a2.36,2.36,0,0,0,.67-3.71c-2.49-3.05-7.84-.73-11.57,4.19-.39.52-.73,1.64-.4,1.52a2.89,2.89,0,0,0,1.27-1.2,11.25,11.25,0,0,1,4.15-3.77c1.4-.76,1.48-.62,1,.71a1.84,1.84,0,0,1-.93,1.09c-2.27,1.56-3.69,3.63-3.74,5,0,1,.66,2.23-.1,2.49-1.3.61-4.85.11-5.81-1.11-.69-.88-1-.37-.44,1.06.34.94.33,1.47.84,1.38.66-.35,1.1-.27,2.37.42a10.52,10.52,0,0,0,2.35.8c1.2.28,1.45.16,1.42.68a8.34,8.34,0,0,1,0,.89c-.19,1.56,1.11,2.1,2.89,3.12,1.05.61.63,1.22-.57,4.2-.63,1.35-1.16,3.16-1.93,4.53a7.43,7.43,0,0,0-.32,5.13c.86,3.56,1.48,5.37-.06,5.69-4,.6-12.71.58-17.49-1.26-1.22-9.17-7.7-22.78-6.87-26.3,1.66,2.5,8.61,1.84,6.52-5.15a15.63,15.63,0,0,1,1.7-2c2.91-2.95,3.63-3.44,2.25-.84A34.87,34.87,0,0,0,91,176.58c0,.4.29.49.53.17a8.45,8.45,0,0,0,.59-1.26c1.74-4.07,4.71-7.74,6.76-8.62.52-.23.5,0,.13.46a31.68,31.68,0,0,0-5.56,9.39.33.33,0,0,0,.64.17c2.26-4.73,2.94-5.81,5.72-9.15,1.09-1.31,2.11-2,2.92-1.9s.49.18-.16.87c-.49.53-1.23,1.27-2.41,2.76-2.09,2.63-4.2,6.91-3.42,6.69.13.35.79-.78,1.35-1.87,1.53-2.57,3.15-6,6.78-8.19a6.59,6.59,0,0,1,2.32-.5Zm-70.2.83,6.46,6.46,13-.17c-2.14,3.33-1,8.5.19,11.52,2.31,5.91,5.71,15.68,5.46,15.82,0,0-1.89.49-2.06,1.69-.25,1.77.52,1.64-.6,3.25-.25.36-.08,1,.18,1.58a1.49,1.49,0,0,1,0,1.46L48.16,228.47h-22v-4l11.1-11-.13-8.12c5.94,1.77,8,7.9,8.5,12.44C56.39,208,56.13,193.26,46,184c-2,9.78-9.06,11.82-8.9,11.62Zm80.86,1.16a6.18,6.18,0,0,1,2.27.5,4.53,4.53,0,0,0-1,.89A6.24,6.24,0,0,0,117.84,167.59Zm18,.07c.58,0,1.29,1.69.88,2.09a1.4,1.4,0,0,1-1.24.14C135.16,169.63,135.33,167.66,135.86,167.66Zm-20.51,2.94A1.35,1.35,0,1,1,114,172,1.34,1.34,0,0,1,115.35,170.6Zm-57.18,1.92,1,0c-1.77,2.37-2,4.4-1.38,7.36.71,3.32,6.09,15.82,6.44,19.26,0,.15,0,.59,0,.59l-1.32.09-.14-.49c-1.85-6.23-3.7-11-5-14.62-1.28-3.91-3.24-9.72.39-12.22Zm7.12,0h1a16.16,16.16,0,0,0-1.5,4.71,18.94,18.94,0,0,0,1,6.36c1.58,4.67,3.88,9.87,5.16,15.77,0,.06.15.64.15.64l-1.39-.19-.15-.69c-1-5.18-3.62-10.57-5.21-15.67a17.32,17.32,0,0,1-1.1-7.36,6.77,6.77,0,0,1,2-3.58Zm11.32,0a11.12,11.12,0,0,0-2,5,22.13,22.13,0,0,0,1.58,7.66,140.29,140.29,0,0,1,5,17.77l-1.33-.57s0-.34-.08-.44c-.72-3.83-.76-3.5-5-16.39-1-3.09-1.92-5.8-1.74-8.38,0-1.47,1.32-4.37,2.67-4.6Zm1.6,0h1.25s-.69.73-.89,1c-2.18,3-1.55,6.25-.47,10.12,1.49,5.31,4.24,11.25,5.68,19.35,0,.15,0,.93,0,.93l-1.48-.59C81,195.94,77.63,188.24,76,181.56c-.94-3.92-.67-6.4,1.51-8.54A3,3,0,0,1,78.21,172.56ZM63,172.6h.93s-1.55,2.56-1.55,4.07c-.26,2.69.71,5.67,1.83,8.79,1.73,4.8,4,10.6,4.7,13.66,0,.12.12.66.12.66l-1.63-.08a8.81,8.81,0,0,0-.18-1.08c-1.88-6.57-3.7-10.81-5.86-16.81a15.41,15.41,0,0,1-.23-6.82A3.54,3.54,0,0,1,63,172.6Zm-2.49,0,1,0s-.15.28-.53.93c-1.84,3.33-1,6.36.12,9.74,1.52,4.5,3.9,10,5.38,15.22a11.44,11.44,0,0,1,.2,1.18l-1.45,0s-.29-1.06-.31-1.18c-.82-4.83-5.23-12.87-6.38-19C57.91,176.21,58.45,174.18,60.51,172.6Zm13.46,0a15.62,15.62,0,0,0-1.73,4.29c-.28,3,.67,5.49,1.76,8.88,1.88,5.84,4.54,12.7,4.77,15.84l0,.48-1.64-.58s-.07-.33-.1-.44c-1.42-5.68-3.11-11.33-5.37-17.7-.56-2.14-1.3-4.31-1.23-6.15a6.21,6.21,0,0,1,2.22-4.6Zm7.19,0,1.32,0a6.82,6.82,0,0,0-1.33,1.21C76,178.59,84.38,192,86.32,204.18l.09.59L85,204.25c-.14-.6-.24-1.34-.41-2C83,196,80.87,189.6,79,183.78c-1.09-4.23-1.48-8,.46-10.05A4.7,4.7,0,0,1,81.16,172.61Zm-13.53,0,1.4,0a8.8,8.8,0,0,0-1.66,5,18.91,18.91,0,0,0,1.18,6.25C70,188.3,72,193.07,73.34,199c.08.39.15.64.18.82a7,7,0,0,0,.22.7l-1.48-.3s-.16-.38-.26-.58a7,7,0,0,1-.4-1.16c-.72-3.09-3.36-10.1-5-15-1.27-3.1-1.62-8.52,1-10.84Zm17.49,0a4.09,4.09,0,0,1,3.8,2.89,3.47,3.47,0,0,1-1.77,4.07c-2.71,1.37-5.63-2.27-3.49-4.28,1.62-1.53,4-.4,3.49,1.55a1.34,1.34,0,0,1-2.57.07c-.09-.43-.3-.85-.46-.62-1,2.34,2.35,3.44,3.74,1.26a2.64,2.64,0,0,0-3-3.56c-3.17.58-3.53,4.6-2.22,9.29,1.84,7.41,6.21,17.38,6.21,21.95,0,.06,0,.25,0,.25l-1.39-.41,0-.15c-.83-6.39-5.58-17-6.94-25.1-.59-3.71.86-6.4,4.1-7.13A2.8,2.8,0,0,1,85.12,172.67Zm-13.74.06a9,9,0,0,0-1.64,4.66,21.86,21.86,0,0,0,1.31,6.17c1.54,5.27,5.12,15,5,16.81,0,.19.14.8.14.8l-1.39-.42a3.06,3.06,0,0,1-.16-.33c-.46-1.81-2.66-9.55-5.12-16.25a18.61,18.61,0,0,1-1.34-6.57,7.65,7.65,0,0,1,2-4.86Zm26.39,8.73c-3.59.2-3.24,4.58-1,5.32.8.22,1.27,0,1.39-.14s0-.5-.54-.57c-1.51-.5-2-2.28-.68-3,.74-.39,1.93-.14,3.36.92,2.57,1.9,5.71,2,5.3.1-.1-.47-.3-.53-2.18-.79a7.09,7.09,0,0,1-2.88-1.05A5.49,5.49,0,0,0,97.77,181.46Zm-51.43,4.07c9.28,9.06,7.9,23.27,0,30.38-.17-.57-.51-2-.55-1.94,6-6.2,8.77-16.37.14-26.8C46,187.21,46.1,186.42,46.34,185.53Zm58.17.24a.53.53,0,0,0-.23,0c-2.41.65-2.91,3-1.35,4,1,.6,1.69.24.5-.49a1.22,1.22,0,0,1,.72-2.23c.54,0,.91.24,2.28,1.25,1.13.83,2.19.9,2.43-.23.15-.67-.08-1-.8-.79-.31.07-.5-.11-.93-.41A5.58,5.58,0,0,0,104.51,185.77Zm-59.13,1.78c8.37,9.71,5.68,19.83,0,25.77a17.31,17.31,0,0,0-5.35-7.43c1.43-3.17,2.29-6.48-.39-10.67A20.66,20.66,0,0,0,45.38,187.55Zm54.36,3.54c-.4,0-.27.37.66,1,2.2,1.5,2.39,1.77.25,1.73a6.34,6.34,0,0,0-1.87.52c-2.79.93-2.92.85-4.26.54-.44-.1-.89-.29-1.09-.11s-.64.45-.26.86a6.81,6.81,0,0,0,1.42.89c3.24,1.85,3.53,2.3,7.34,2.4.44,0,.66-.22.92-.22a2,2,0,0,1,1.57.72c1.15,1.05,1.21.29.52-1.09-.36-.72-.67-.9-.49-1.45.4-1.25-.17-1.5-.92-.39-.57.87-.63.85-1.16-.27-.71-1.39-.37-2,.69-1.13.81.69,1,.18,1.34-.36.41-.72.35-1.37-.39-1.31a1.41,1.41,0,0,1-1.16-.53A6.22,6.22,0,0,0,99.74,191.09Zm.91,3.78a.17.17,0,0,1,.18.13,5.24,5.24,0,0,1-.57,1.89c-.08.22-.22.25-.42.29-.67.12-.71-.09-.59-.5.24-.64.44-1.55,1.31-1.81Zm-1.69.31c.27,0,.28.1.17.34a6,6,0,0,1-.79,1.13c-.53.35-1.4-.71-1-1a4.43,4.43,0,0,1,1.5-.47l.14,0Zm-59.94.7a1,1,0,0,1,.45.09,8.54,8.54,0,0,1,.31,9.19.33.33,0,0,1-.43.14,12.21,12.21,0,0,0-2.18-.78v-8c.66-.14,1.23-.65,1.85-.64Zm53.36.65c-.16,0-.22.11,0,.31,3,2.14,7,4.61,10.76,3.65.35-.07.63-.26.56-.61s-.42-.41-.84-.31a10.23,10.23,0,0,1-3.18.15c-2.58-.42-4.85-2.07-6.83-3A.67.67,0,0,0,92.38,196.53Zm-.87,2c-.13,0-.12.12,0,.37.41,1.24,4.59,4.12,7.89,5.07,2.83.82,6.9,0,6.66-1.33-.12-.7-.64-.87-2.44-.64-4,.77-7.81-.85-10.72-2.66A6.17,6.17,0,0,0,91.51,198.57Zm-26.06,1.69a29.79,29.79,0,0,1,5.32.43,46.92,46.92,0,0,1,11.39,3.39c6,2.27,13.64,4,20.09,3.78a29.32,29.32,0,0,0,5-.27c1.44-.33,1.84,0,2.18,1.76.06.39.18.5.68.84.76.52.64,1,.54,2.17-.08,1,.51,1.5,2.83,5.8,2.65,4.89,5.24,10.57,5.24,10.57-23.23,0-45.38-.88-69.14-.14,2.13-5.07,8-14.2,11.61-21.54-.88-2.25.21-2.64-.25-3.17a2.28,2.28,0,0,1,1.36-3.41A28.93,28.93,0,0,1,65.45,200.26Z"/><path id="path6353-8" class="cls-2" d="M49.82,228.75s7.61-15.39,10.81-20c4.62-5.84,25.44,2.55,35.8,4.64,4.21.81,14,.43,14,.43l8.16,14.7ZM34,211.27l-.33-47.89,2.38,1.48L36.62,213l-10.3,9.86-.05-2.89Zm6.23-5.47c2.45-4.93-.29-11-.29-11,1.42.35,5.39-7.17,5.74-7,6.07,7.45,7.12,18.53-.29,25.4a19.61,19.61,0,0,0-5.16-7.48Zm4.53-33.87c4.61-4.71,8.26-8.38,11.92-13.65.3-.43-19.45-25.52-19.15-26,3.05-3.37,7.13-5.84,10.31-9.91,0,0,16.2,21.21,16.57,21,1.64-6.63,2.85-12.64,2.53-19.58-1-17.74-8.58-28.6-8.64-28.39-2.56,16.3-27.77,41-32.73,39.24l0-11.4c.3.57,16-10.08,20.1-24.15.3-1,12.45-4.9,12.37-5.05-.51-1.32-5.83-8.84-5.83-8.84a24.86,24.86,0,0,1,2.38-1,68.6,68.6,0,0,1,13.87,30.61C70.6,126.45,72,148.22,48.76,172Zm69.62-30a63.86,63.86,0,0,1-1.87-31.11c2.55-14.77,11.89-25.35,19.38-33.41h3.25l-5.3,5.48a81.12,81.12,0,0,0-5.94,8.59l19.38,25.33,11-2.39s-.34,11.33,0,11.33c-8.59,7.11-14.76,13.54-19.19,23.89-2.71,1-11.71,4.89-11.71,4.89-4.28-1,12.73-27.71,9.49-28.17-1.33-1.1-16.08-21-16.37-21-6.8,20.83-.17,42.69,11.8,58a8.49,8.49,0,0,1-2.47,1.36c-5.13-7.11-9.62-15.6-11.51-22.79ZM79,131.53c.77,1.19,4.22-25.41-4.85-46.7.87-.65,8.34-2.08,8.34-2.08l2,6.37-5.1,2.16,1,3c4-1.92,12.53-4.75,17.8-13.51,0,0,25.63-.22,26.17-.18s-5.22,5.57-10.68,16.74a50.53,50.53,0,0,0-4.9,19.44c-.08,1.53-5.86-7.19-5.86-7.19,1.44-7.37,5.3-14.63,9.14-21.89,0,0-5.9-.34-10-.22-6.41,7-10.42,10.69-20.07,14,3.52,11.27,25,16.69,20.26,15.66-1-.23-2.22,10.37-1.18,22.31.2,9.55,5.34,25.46,5.52,25.33,0,0-3.43.77-3.7.22.58-.13-5.1,1.3-5.1,1.3l-2-5.93,5.48-2.53-.88-3.34s-12.11,3.66-18,14.2l-26.48,0c10.21-11.08,14.38-22,16.6-36.53,2.16.39,6.6-.68,6.6-.68Zm65.14-95.67c3.33-2.79,10-10,10-10l.09,3.72-7.59,7.89.08,48.7-2.57-2.46Zm-3.51,17.82c-1.37.65-4.09,3.85-5.39,7.45-8.78-7.85-5.16-22.28-.35-25.28,1.39,3.15,5.43,7.32,5.34,7.24C139.29,46.38,138.58,49.73,140.62,53.68ZM62.81,21l67.78.12c-3.87,7.61-7.41,13.76-11.52,21.25-2.14,2.58-48.42-8.33-48.64-7.24Z"/><path id="path6355-9" class="cls-3" d="M26.18,219.05l-.45-63.94,7.7,7.48.46,49.11Zm35.35-12.39c-1.6.24-.69-1.23-.4-2.63.16-.79-.6-1.52-.59-1.76,0-1.39,1.06-2,5.77-1.92,11.11.77,16.85,4.33,23.23,6,6.1,1.58,12.15,1.55,18.89,1.4.49.28,2.29,4.93,2,5.4-15.24,3-34.68-8.19-48.86-6.47ZM89,173.55a9.82,9.82,0,0,0-4.6-1.63c2.61-4.6,5.77-8.79,11.06-11.41l2.46,6.09a25.69,25.69,0,0,0-8.92,7Zm-32.1-15.8a28.09,28.09,0,0,1-4.43,5.54c-6.4-8.58-20.71-26.84-20.71-26.84l-6.07,3.07a36.05,36.05,0,0,1,.12-3.78c16.39-8.45,27.64-24.42,32.6-39.37,0,0,2.64,2.69,2.29,3.83a75.3,75.3,0,0,1-23.16,32.5Zm20.45-17.4,20.7,0,.92,7.19c-7.93,2.66-14.47,8.09-20.59,14.36l-9.81-.17c3.21-7,7.69-14.21,8.78-21.41ZM154,110c.67,2,0,4.22.26,4.13-24.8,12.26-31.89,39.17-31.89,39.17s-2.35-3.72-2.24-4.3c12.83-28.52,21.42-29.37,23.07-32.47L123.66,91.3l4.41-6L149,112.54C151.09,111.58,152.28,110.78,154,110Zm-12.22,36.9c4.2-7.56,8.54-12,12.86-15l-.21,10ZM25.83,117.26l.11-9.68,12.77-5.5C35.18,109.78,30.39,113.9,25.83,117.26Zm56.9-8.71L82,101.74a57,57,0,0,0,20.13-14.09c5.94-.29,10,.12,10,0a81.17,81.17,0,0,0-9.4,21.37ZM147,37,154,29.89l.22,63.76-7.09-6.87ZM85,88.84l-2.24-6.31c3.52-1.32,6.19-4.19,8.67-7A13,13,0,0,0,96,77.82C97,78.06,88.85,87.87,85,88.84ZM71.72,41.06s-.88-.51-.79-1.23c.29-.93-.94-3-.94-3,15-4.56,36.92,8.27,49.9,5.57a10,10,0,0,1-.32,2.84c.41,1.82.7,1.88-1.08,3-9.12,2.58-18.74-2.93-27.66-5.56-7.27-2.29-13.17-1.7-19.11-1.58Z"/><path id="path6357-5" class="cls-4" d="M62,20.09l2.74,5.17-.47.32c.75,1.25,1.38,2.65,2.15,3.88L67,29.4c.9,1.73,1.27,2.37,2.44,4.41h-.53c.28.91,1,1.51,1,2.17,0,.81-.2,1.63.3,2.18s.66.84.54,1.22a1.6,1.6,0,0,0,1.53,2,47.28,47.28,0,0,1,20,1.89c4.81,1.52,9.09,3.22,13.13,4.42a32.32,32.32,0,0,0,6.07,1.14c6.16.45,9.61-.8,8.57-3.36-.08-.21-.26-.36-.28-.46s0-.41.35-.7c1-1,.45-1.78-.17-2.92l11.85-21.15Zm68.43,1.27-5.77,10a3.08,3.08,0,0,0-3.85,2.4c-4-1-3.39,4.16-1.38,4.51.13.75-3.29,1.69-5.1-.07,2.77.37,3.76-3.3.37-4.11,4.46-3.32-3.91-8.29-4-1.42-3.94-.7-3.42,4.5-.93,4.91-1.27,1.41-5,1.45-7-1.52,3.34,1.73,5.14-2.74,1.68-4,4.28-3.75-4.11-7.21-3.91-1.15-3.16-1.87-5.33,2.9-1.11,3.64-.24.86-5.77.86-7.17-1.36,3.92.9,4.1-3.87.64-4.26,3.47-4.4-5.34-6.63-3.86-.62-3.4-1.35-4.69,2.9-1.37,4.26.18.67-5.37,1.25-7.31-1.19,4.26-.64,2.77-4.77,0-4.44,0,0,0-.12.19-.52,1.31-4.15-5.71-4.5-4.74-.1.16.41.33.95.33.95-1.93-.4-3.11.39-3,2.2.48,2.41,1.75,2.23,3.38,1.75.68.72-3.93,3.1-6.82,1,3.54-1,1.75-5.17-1.22-4.61-.12-1.32-1.56-3.18-3.44-2.28l-2-3.91Zm5.8,55.32-4.16.06c-2.93,3-24.11,22.5-20.54,52,1.53,12.61,5,23.51,14.45,36.39l2.52-1.48.38.26,26.08-15v-4.55L124.75,157a13.11,13.11,0,0,1-1.46-2.13l12.13-5.16s.29-.74.38-1.08c4-10.08,12.09-17.39,19.14-23,0-9.93-.08-30.73-.08-30.73L136.62,76.72a82.31,82.31,0,0,0-6.49,6.72L151.07,111l-1.85,1.21L128.5,84.79a106.93,106.93,0,0,1,7.77-8.11Zm18.6,17.92s-.1-47.32-.24-70.17h0L143.77,35.58l0,48ZM154,28.94l-7.68,7.92.09,48.75-2-1.94V36.23l9.6-10ZM79.23,27.77A1.29,1.29,0,0,1,79,29.19c-1.57,1.95,3.36,5.33,6.91,4.74,2.7-.44,5-2.07,4-3.3-.81-1-.28-2,.69-2s1.8.81.94,1.89c-1.93,2.43,1,5.27,5.5,5.33,3.18,0,4.24-.74,4.07-3-.08-1.06.13-1.35.86-1.51,1.18-.26,1.78,1.09.8,2.12-2.11,2.23.29,5.5,4.28,5.71,1.46.08,1.75,0,3.38-.92,1.27-.72,1.72-1.81,1.09-2.65a1.23,1.23,0,0,1,1.53-1.85c.9.38,1.34,1.07.35,2.23-1.3,1.53-.68,2.79,1.82,3.63,1.94.67,3.29.58,4.2-.25.29-.26.92-.8.91-.63-.61,1.06-1.16,2-1.16,2A6.12,6.12,0,0,1,112,39c-4.21,2.42-7.94,1.91-11.08-2.16A10.7,10.7,0,0,1,90,33.74c-4.27,2.15-8.24,1.25-11.77-1.15A7.13,7.13,0,0,1,70,34.26l-.84-1.7c.21-.08,1.13,1.7,5.6.87,1.5-.28,4.08-2.8,2.64-4-.66-.93-.68-1.36-.1-1.92a1.28,1.28,0,0,1,1.89.29ZM68.28,30c.25.48.28,1.28,0,.8-.14-.25-.9-1.39-.87-1.42.36,0,.71.33.86.62Zm85.67.38L154,93.3l-6.54-6.49-.31-49.29ZM78.23,33.43l2.06,1.29-3.69,0Zm11.58,1.08,1.72,1.68-3.63-.76Zm32.38.87L121.42,37C121,36.47,120.84,35.41,122.19,35.38Zm13.07,26.16c1.31-2.95,3.07-6.7,5.91-7.89-2.12-4.21-1.84-8.41-.34-10.71a21.4,21.4,0,0,1-5.72-7.83C128.33,41.09,127.24,53.39,135.26,61.54Zm-.21-25.28.47,1.15c-6,7.39-4.17,17.09.2,22.27l-.63,1.3C129.75,55.34,127.41,43.43,135.05,36.26ZM99,40.44c7,2.05,12.6,5.25,20.69,2.4l0,1.58c-5.15,3.3-15.41-.19-22.34-2.75a58.11,58.11,0,0,0-26-3.4c-.54-.11-1-1.53-.1-1.54C82.81,36.6,80.94,35.15,99,40.44Zm1.58-2.79,2.3,2.44a36.75,36.75,0,0,1-5-1.89Zm35.08.6.45.62c.19.27-1.27.41-1,.1ZM96.12,42.71c8.35,3.14,17.55,6.27,23.59,3.46,0,0,0,1.2-.65,1.54a6.33,6.33,0,0,1-2.77.81c-9.77.8-16.11-3.25-24-5.64a54.14,54.14,0,0,0-12.73-2.2,66.82,66.82,0,0,0-7.41.28c-1-.08-1-.65-1-1.22A49.18,49.18,0,0,1,96.12,42.71Zm40.4-3a1.15,1.15,0,0,1,.32,0l.86,1.09-1,1.61a8,8,0,0,1-1.34-1.63C135.09,40.28,135.76,39.74,136.52,39.71ZM111.9,40l2.65,2a14.89,14.89,0,0,1-6.44-.71Zm22.41,1c.21,0,.43.22.68.65.5.84.43,1-.52,1.31-1.26.41-1.36.32-.95-.81C133.8,41.41,134,41,134.31,41Zm4,.52,1.79,1.5a12.93,12.93,0,0,0,.35,10.51c-.22,0-1.51,1.28-1.91,1.5-1.13-.47-3.63-9.75-.23-13.51Zm-2,2-.45,2.84c0,.24-2-1.34-1.8-2.13C134.39,43.28,135.57,43.48,136.29,43.51Zm-3.2,1c.23,0,.6.57,1,1.31.35.58.28.8-.5,1.5-1.15,1.17-1.38.79-1.12-1.19C132.64,45.15,132.82,44.51,133.09,44.51Zm2.37,2.58a.7.7,0,0,1,.4.11L136,50c0,.25-2.16-.1-2.45-1.15-.36-.68,1.08-1.75,1.92-1.73Zm-2.86,2.33a4.35,4.35,0,0,1,1.1.58c.8.47.82.68.13,1.57s-1.21.87-1.34-.94C132.45,50,132.4,49.45,132.6,49.42Zm3.19,1.06a.24.24,0,0,1,.18.07,6.6,6.6,0,0,1,.73,3.39c-.35.41-2.21-.13-2.62-.79S135.11,50.48,135.79,50.48Zm-2.27,3.27a3,3,0,0,1,1.17.41,2.72,2.72,0,0,1,1.06.75c.23.48-.15,1.18-.63,1.77-.33.38-.63.1-1.25-1.2C133.37,54.44,133.16,53.77,133.52,53.75ZM137.26,55a.27.27,0,0,1,.12,0c.63.35.52,1.39-.23,2.16s-1.67.22-1.05-1C136.49,55.49,137,55,137.26,55ZM85.16,80.8a3,3,0,0,0-1.77,1,1.28,1.28,0,0,1-1.4.48,6.7,6.7,0,0,0-2.84.71,4.59,4.59,0,0,1-2.12.46,6.17,6.17,0,0,0-1.54.21,10.38,10.38,0,0,1-1.11.39c-.93.27-.6.53-.06,1.73a89.62,89.62,0,0,1,5.35,21.6,101.57,101.57,0,0,1-.5,23.71c-2.6,0-4.22-.11-7-.07-1.86,15.13-6.91,27.14-17,37.95L82.5,169c3.12-8.34,17.39-14.7,17.86-14.23l.75,3s-10.26,1.47-17.17,14.49c.7-.43,3.28-.13,5,1.63a28.45,28.45,0,0,1,9-7.05l.19-.51a16.35,16.35,0,0,1,1.92-.52c.28-.06.87-.17,1.27-.3a3.29,3.29,0,0,1,1.84-.36,11.11,11.11,0,0,0,3.85-.39c-5.79-16-7.16-30.39-4.9-47.13,2.14,0,6.82.09,6.82.09A65.53,65.53,0,0,1,111.41,104a53.5,53.5,0,0,1,7.7-15.86c2-3,3.81-5.21,5.91-8.06l-26.7.06C94.78,86,88,91,82.5,93.06c-1.86.7-2.13.59-2.43-.28-.56-1.57-.53-1.5.93-1.92.48-.14,2-1,4.47-2.09,5.16-2.62,8.7-7.41,10.79-10.64.82-1.28.27-1-1.15-1a4.43,4.43,0,0,1-3.06-1.6c-.43-.4-.61-.68-.81-.66-1.53,2.19-4.08,5.08-6.08,5.93Zm6.27-5.06A7.11,7.11,0,0,0,95.93,78,30,30,0,0,1,85.06,88.64l-2.13-6C88.17,80.18,89.57,77.74,91.43,75.74ZM135,77.66c-28.24,26.11-26.58,59-6.8,85.76l-2.07,1.25c-18.58-24.89-21.94-61.71,6.44-87.12Zm-17.8,3.18h6.92l-4.71,6.11-6.32,0Zm-1.08,0L112.21,87l-10.38.14a43.68,43.68,0,0,1-19.69,14L80.82,94.5A31.87,31.87,0,0,0,98.54,80.81Zm-10.56.51-2.41,2.66,2.5,2.54L107.89,84Zm5.45-.07-2.44,2.54,1.91,2.55L113,83.94Zm-12,.46-.42,4,3.14,1,.46-3.41Zm19.08.15-2.28,3.56,3.43.06,2.4-3.55Zm-35.84.91L84.4,89l-2,.94-2-6.43Zm-2.63,1,2.29,6.37-1.91.63-2.11-6.63ZM82.3,109c.25,8.86.38,14.2-1.1,22-.08.41-1.67.05-1.67.05.2.06.9-8.8.84-14.37A86.82,86.82,0,0,0,74.3,85a9.94,9.94,0,0,1,2.76-.73C79.68,92.28,82,100.86,82.3,109ZM54.57,84.43c9.12,12.09,15.63,28.5,14.54,44.7-1,18.82-8.18,29.67-20.72,42.71l-3.23.08C60,157.69,66.57,145.51,67.08,129.45c.6-18.48-5-30.77-14.55-43.87ZM25.4,101.06l0,4.4L56.5,92.14,52,85.54ZM98.21,86.62l-3.38.18.11,3.41,3.52-.09ZM128.35,86l20.13,26.39-5,3.7-19.19-24.8Zm-15.78,1.8,6,.09-2.33,3.87-5.82,0Zm-1.11.09c-2.77,5.16-6.59,11-8.74,20.52l-19.83,0a51.08,51.08,0,0,0-.64-6.5c8.54-3.13,15.16-7.81,20-14Zm3.67.28-2.59,1.49,1.58,1.81L117,90.36ZM91.52,90l-.86,3.37,3.22,1.23.59-4ZM110,92.56l5.78,0-2.43,4.86-5.73-.08Zm13.77-.64,19.05,24.69L141,118,122.42,93.89Zm-11.57,1-2.61,2.17,2,2.26L114,95.46S112.21,93,112.21,93Zm-25.28.18-.8,3.26,3.34.89.6-3.5ZM82.3,95.3l-.68,3.22,3.15.85.66-3.1Zm-26-.32c.16,0-.53,3.83-1.54,4.52-.49.34-.74.26-1.16-.19S52,96.86,52,96.86l1.12-.56c1.36,2.17,1.36,1.12,1.87-.73ZM51.08,97.2c.45,0,1,.55,1.59,1.62.88,1.54.85,1.64-.59,2.09-2.6.68-3.56.85-2.77-.87s1.2-2.83,1.78-2.84Zm7.74-.3,1.77,3q-10.68,27.21-34.44,39l0-3C44.77,125.35,52.42,112.8,58.82,96.9Zm48.46,1.31,5.61.1-1.5,4.29-6,0ZM49.4,98c-4.57,10.88-10.81,20.37-23.28,28.39l-.05-2.89c14-8.44,20.06-24.26,20.06-24.26Zm70.91,0c3.32.09,6.81,3.71,6.46,6.7-.25,2.1.15,3.66.72,2.8,1.27-1.9,5-.64,5,1.65,0,1.21-.83,1.42-1.29.32-.69-1.62-2.63-1.66-2.91,0s1.08,2.77,4.69,4.07c4.23,1,6.78,4.79,5.27,7-.52.57-.83.72-.93.42,0-.09-.14-.54-.23-1-.48-2.29-1.58-3.24-2.91-2.46-.66.39-.58.91-.19,1.6.52.91.19,1.27-.73.8-1.47-.73-1.95-2.47-.53-3.28,1.68-.67,1.11-.82-1-1.55-4.59-1.57-6.56-4.44-6.8-9.92.08-2.5-.26-3.39-1.43-3.73s-2.3,1-1.53,1.77c.42.39.77.75.54,1-.71.69-2.49-.43-2.48-1.64,0-.79.31-1,1.49-1.88.33-.25,0-.74-.43-.74C119.21,100.47,119.34,98.08,120.31,98Zm-10.4.64-2.81,1.61,1.46,2,3.11-1.46Zm-54.57,1.58a.59.59,0,0,1,.59.58.6.6,0,0,1-.59.59.59.59,0,0,1-.58-.59A.58.58,0,0,1,55.34,100.22Zm5.75.25a61.4,61.4,0,0,1,3.21,42.45l-16-20.79a68.84,68.84,0,0,0,12.78-21.66Zm-21.62,1-14.26,6-.08,10.7C33.1,112.67,36.48,107.1,39.47,101.42Zm13.71-.09c1.41,0,.71,3.75-1.11,5-.67.51-1.12.45-1.34-.58a8.27,8.27,0,0,0-1.39-2.57c-.82-1.06-.81-1.08.39-1.16s2.42-.61,3.45-.74Zm-1.39,1.61c-1,0-1.35.47-.73,1.14s.93.44,1.28-.37C52.56,103.21,52.37,103,51.79,102.94ZM26.07,116.82l0-9.08,12.2-5.14a37.24,37.24,0,0,1-12.23,14.22Zm108.35,7.33-1.62,1.63-15.75-20.52,1-2.6ZM48.13,103.39c.52,0,1.72,1.83,2.06,3.15.25,1,0,1.18-1.87,1.45-.76.21-2.83,0-2.66-.54a23.13,23.13,0,0,1,2.47-4.06Zm57,.2,5.75.07-1.32,4.71-6-.09Zm2.54.29L105,105.73l2.11,2.09,2.84-1.75Zm9,2,15.92,20.67c-4.75,6-9.49,13-12.6,22.17C114.37,135.48,112.3,122.57,116.73,105.91ZM52,107.67a.59.59,0,0,1,.59.58.6.6,0,0,1-.59.59.59.59,0,0,1-.58-.59A.58.58,0,0,1,52,107.67Zm-1.83.79c1,.07,0,3.23-1.44,4.39-1.18.91-1.69.49-2-1.18a8.4,8.4,0,0,0-1.29-2.43c-.62-.9-.37-1,1.21-.68A15.45,15.45,0,0,0,50.2,108.46Zm53.23.77,6,0-.93,7.15Zm-58.7.33c1,.89,2.15,4,1.54,4.22a9.56,9.56,0,0,1-4.32-.49c-.25-.26-.25-.26.28-1,.29-.39.85-1.17,1.24-1.73C43.82,110.18,44.2,109.07,44.73,109.56Zm3.36.11c-.92,0-1,.15-.54,1.14.35.81.6.88,1.21.35C49.61,110.43,49.25,109.63,48.09,109.67Zm105.74.62.22,3.53c-23.16,11.48-31.83,38.6-32,38.6l-1.69-3.13c10.63-26.18,24.76-33.76,33.42-39ZM44.71,114.46c1.38,0,1.78-.12,1.77.39a5.21,5.21,0,0,1-2.83,4.06c-1.06.5-1.09.51-1.2-.74a9.92,9.92,0,0,0-.9-3.17c-.16-.36-.76-1.2,0-1a12.49,12.49,0,0,0,3.16.42Zm3.09-.32a.59.59,0,1,1-.58.59A.58.58,0,0,1,47.8,114.14Zm-7.38.81c.25,0,.49.5.78,1.26.61,1.64.8,2.53.62,2.92-.28.59-4.08.21-4.73-.46A41.57,41.57,0,0,1,40.42,115Zm2.74.41c-.54,0-.26.36.15,1.31.28.66.66.77,1.09.3s.66-1.1.29-1.37A3.73,3.73,0,0,0,43.16,115.36ZM154,118.92l0,1.19c-.91-.27-1.46-.65-2.49-1-.63-.21-1-.36-.45-1a10.9,10.9,0,0,1,2.87-2.34v1.34c-1.7.76-1.53,1.45,0,1.83Zm-66.95-1.2h6.4V122h5l-.39,4.81H93.45V131h-6.4v-4.22H82.48l.37-4.81h4.2Zm14.45,0c-3.24,16-.26,33.09,4.73,47l-2.52.28c-3.89-11.11-7-26.92-3.84-47.25C99.87,117.75,101,117.73,101.5,117.74Zm47.49.31a.58.58,0,1,1-.58.58A.58.58,0,0,1,149,118.05ZM36.44,119.4a12.68,12.68,0,0,1,1.44.43,8.71,8.71,0,0,0,2.34.36c1.6,0,1.8,0,1.12,1.33A7,7,0,0,1,39,124.08c-1.1.59-1.52.51-1.46-.57a8.25,8.25,0,0,0-.72-2.92C36.45,119.88,36.09,119.41,36.44,119.4Zm6.73.51a.59.59,0,1,1-.58.58A.58.58,0,0,1,43.17,119.91Zm107.65-.07a5.26,5.26,0,0,1,1.93.6c1.87.91,1.82,1.12-.71,2.92-1.84,1.4-2.28,1.55-2.35-.65-.06-1.85.14-2.85,1.13-2.87Zm-115.34.53c.74,0,1.56,3.87.9,4.22-1,.53-4.26-.51-4.25-1.39a14.58,14.58,0,0,1,3.35-2.83Zm113.1-.16c.45,0,.51.33.47,1.56,0,.65.09,1.72.13,2.21.1,1,0,1.1-.81.64a7.2,7.2,0,0,0-2.72-.88c-.94-.08-1-.46-.72-1.08A5.12,5.12,0,0,1,148.58,120.21Zm-110.34.58c-.65,0-.49.34-.09,1.31.29.69.78.75,1.29.17.71-.82.57-1.26-.47-1.41A5.24,5.24,0,0,0,38.24,120.79Zm109.49.92a2.45,2.45,0,0,0-.82.35c-.61.39-.85.66,0,1s1.2.39,1.14-.29c0-.41,0-1-.35-1Zm-60,.5v4.21h5.09v-4.21Zm55.5.37a.58.58,0,1,1-.59.58A.58.58,0,0,1,143.18,122.58Zm-95.35.65L63.9,143.86l-1.07,2.68L46.28,124.77Zm106.27-.1,0,2.7c-1.81,1.33-13.34,9.68-19.3,23.74l-3.13,1.33a57.58,57.58,0,0,1,22.4-27.77ZM31.86,124.28a22.1,22.1,0,0,0,3,1.17c1.14.14,1.53.07,1.22.66a6.64,6.64,0,0,1-3.36,3.13c-1,.32-1.44.2-1.29-.41a10.25,10.25,0,0,0,.3-3.11c.16-.57-.33-1.36.1-1.44Zm-1.23.24c.67.57.54,4.17-.21,5-.39.4-1.52,0-3.21-.93-1.11-.62-1.31-1-.76-1.39.94-.57,3.68-2.77,4.18-2.63Zm114.8.08a5.32,5.32,0,0,1,1.3.17c2,.45,2.44.9.74,2.26a13.75,13.75,0,0,0-1.5,1.36c-.92,1.13-1.56.31-1.76-1.73-.14-1.43.08-2.25,1.22-2.06Zm-2.51.19a.48.48,0,0,1,.53.57,20.3,20.3,0,0,0,.57,3.37c.36,1.05.1,1.29-.77.83A7.9,7.9,0,0,0,140,129c-1,.08-1-.19-.7-1.06.54-1.53,2.61-3.18,3.58-3.18Zm-110.08.74c-.4,0-.41.53-.14,1.74.08.38.41.36,1-.08s.71-.84-.13-1.34A1.75,1.75,0,0,0,32.84,125.53Zm4.55.14a.58.58,0,1,1-.58.58A.58.58,0,0,1,37.39,125.67ZM141,127.93a1.83,1.83,0,0,0,1.49.1,1.67,1.67,0,0,0-.08-1.56C141.85,126.27,140.67,127.5,141,127.93Zm-96.44,2.22c.35,1.67,2.69,1.58,2.43-.16-.16-1-.19-1,.32-1,2.41.12,2,3.93-.79,3.64-.58.07-.66.31-.17.51a17.27,17.27,0,0,0,2.65.68c3,0,7.41,4.66,7.3,8.8-.07,2.7.85,4.65,1.79,4.87.75.18,1.83-.5,1.74-1.33-.13-1.14.8-.79,1.33,0,.82,1.13-.24,2.77-2.18,2.64-.83.16.61.69,1.67,1,1,.06.15,1.25,0,1.46-.54.63-2.33.15-3.73-1-1.72-1.39-2.46-3.25-2.67-6.91-.13-2.35-.3-2.83-1-1.86-1.23,2.16-4.17,1.1-4.54-1.18-.21-1.21.86-2.09,1.2-1,.92,2.28,3.15,1.73,2.79-.53-.24-1.49-1.74-2.32-4.69-3.15-3.55-1-4.6-2.21-5.29-5.12-.31-1.29-.26-2,.42-2.64.34-.33.76-.67.76-.67s.48,2,.68,2.86Zm92.83-1.84a.58.58,0,1,1-.59.58A.58.58,0,0,1,137.41,128.31ZM26,128.86c1.06.38,2,.95,3.05,1.32.71.24.52.81-.22,1.61a7.14,7.14,0,0,1-2.75,2l0-1.62c1.37-.48,2.25-1.63-.06-2Zm114.13.91a7.83,7.83,0,0,1,1.64.16c1.68.34,1.88.49.87,1.68-.38.43-.94,1.1-1.24,1.47-1,1.38-1.53.91-2-.88S138.72,129.61,140.15,129.77Zm-108.85.67a.58.58,0,1,1-.58.58A.58.58,0,0,1,31.3,130.44Zm107.16,1.27c.16.59.4,1.34.59,1.87.91,2,.33,1.24-1.3,1.06-1.1-.12-2.86.07-3.29-.24-.19-.24,0-.89.34-1.62a5.82,5.82,0,0,1,2.07-2.3C138.58,129.69,138.18,130.69,138.46,131.71ZM40.08,131l18.35,24.26L57,157.31,38.11,132.36Zm115,.09a46.61,46.61,0,0,0-13.94,16.35l14-5.39Zm-18.21.79c-.53.14-1.28,1.11-.95,1.49a1.74,1.74,0,0,0,1.33.09C137.84,133.25,137.45,131.87,136.89,131.87ZM56.45,158.11,52.54,163,32.17,136.69,37.31,133Zm97.64-25.61.14,9.06-12,5A49.08,49.08,0,0,1,154.09,132.5Zm-81.81.77,4.79,6.24-5.86-.13Zm60.59.51a.59.59,0,1,1-.58.59A.58.58,0,0,1,132.87,133.78Zm3.51,1.48c2.19,0,2.93.15,2.29,1.22-.85,1.06-1.35,2.05-2.28,3-.54.54-1.21-.58-1.77-2.38-.45-1.45-.22-1.82.64-1.83S136.26,135.26,136.38,135.26Zm-2.53,2a12.84,12.84,0,0,0,.93,2.1,6.42,6.42,0,0,1,.69,1.32c-.06.27-.32.29-.89.08-1.25-.57-4.19,0-4.26-.25-.44-.62.21-2.31,1.45-3.49a3.1,3.1,0,0,1,1.47-.95c.32,0,.38.44.61,1.19Zm-102.38-.44L52.2,163.69l-1.44,1.75L29.8,138s-3.31,1.62-4.28,2.17l.13,13.92-.57,0,.09,70.51L36.73,213l-.15-47.84c2.46,2.3,4.56,4.77,7.37,7l4.81,0c12.55-12.77,19.43-23.7,20.94-43.27,1-13.09-3.34-29.56-14.88-45.52L52,85.11l5.57,8.39L45.78,98.73c-4.7,9.9-10.27,19-20.45,24.27l-.06,12.82-.18.26.14,4Zm101.34.92c-.55,0-1.41,1.23-1,1.63a1.3,1.3,0,0,0,1.49-.19A1.07,1.07,0,0,0,132.81,137.7ZM71,140.47l6.09,0-1.6,5.23-5.92-.12Zm57.82,0a.58.58,0,1,1-.58.58A.58.58,0,0,1,128.8,140.45Zm-31,.15.79,6.79a45.8,45.8,0,0,0-20.06,14c-1.07-.07-9.61.08-9.61.08.21,0,7.91-14.49,8.8-20.8Zm-24.11.64-2.79,1.91,2.18,2.33,2.89-2Zm58.1,0a11.87,11.87,0,0,1,2,.19c1,.2,1.19.22.84,1.06a16.31,16.31,0,0,1-1.77,3.32c-.94.59-3-3.6-2.32-4.33a2.29,2.29,0,0,1,1.23-.24Zm-2.67,1.29c.27,0,.63.5.73,1a9.65,9.65,0,0,0,1.68,2.59c.76.83.72,1-.36,1a13.28,13.28,0,0,0-3.26.62c-1.12.4-1.28.31-1.13-1,.21-2,1.53-4.14,2.34-4.21Zm-1,4.08c.15.39,1.88-.32,2-.77,0-.21-.7-1.4-1.11-1.45C128.3,144.51,128,146.09,128.12,146.63Zm-58.74-.26,5.76,0-1.89,4.74-5.69,0ZM72,147l-2.76,1.74,2.15,2.08L74,149Zm58.51.86c.49,0,1,0,1.11.22.31.5-.94,3.32-.94,3.32l-2,.8a12.3,12.3,0,0,1-1.37-2.8c-.07-.43.15-.58.62-.84a6,6,0,0,1,2.6-.7Zm-5.43.23a.58.58,0,1,1-.58.58A.58.58,0,0,1,125,148.09Zm-26.24.08s1.24,7,1.31,6.25c-9.6,3.61-15.21,9-17.87,14.15h-18l4-6.24,10.66,0A43.58,43.58,0,0,1,98.8,148.17Zm-2.3,1.65-.89,2.84,2.69,1.72,1-3Zm29.49.06c.22,0,.45.36.91,1.18.34.61.79,1.49.79,1.49l-.8.3c-.65-2.22-1.25-1.39-1.32.57l-1.1.44a8.49,8.49,0,0,1,.75-3c.36-.64.56-1,.77-1ZM67.3,151.82l5.58.07-2.33,4.83-5.67-.15Zm24.34.39-.44,3.59,3,.63.41-3.41Zm-22,0L66.92,154l1.81,2.38,2.65-1.78Zm17.65,3.14-.57,3.3,2.82.65.64-3.33Zm-61.26.2,7.06,7,.39,48.78-7,7Zm38.38,1.78s5.63.16,5.63.16l-2.26,4.09-1.93-.09,2.54-1.74-1.63-2.08-2.62,1.7,1.46,2.11-3.82-.08Zm36.39,1.21,1.92,6.33-2.31.4-1.73-6A13.9,13.9,0,0,1,100.84,158.58Zm-18.1.39,0,3.8,3.08.26.12-3.56Zm15.29.61,1.75,6-1.46.42-2.09-5.71A6.06,6.06,0,0,1,98,159.58Zm-2.67,1.24,2.25,5.89a26.29,26.29,0,0,0-8.76,6.65,9.45,9.45,0,0,0-4-1.76,25,25,0,0,1,10.48-10.78Zm-34,1.48,5.92.18-4.12,6.14H56.48Zm17.62.23-.39,3.59L81.77,168l.48-3.69Zm-3.82.5-2.25,2.38,2.39,2.73,2.19-2.85Zm-5,.13-2.67,2.45,2.13,2.77L72,165.59Zm-34.08,2.28.26,47.66-9.82,9.52-.08-2.56,7.82-8.16q0-24.18-.1-48.36ZM62.2,163.9l-2.71,3.7h3.22L65,164ZM45.47,187c-1.07,3.85-6,8-6.1,8,2.45,3.5,2.36,8.49.21,11,0-.05,3.93,3.2,4.48,4.88a22.73,22.73,0,0,0,.82,2.16c.11.18.44.62.44.62C54.89,203.83,50.33,192.46,45.47,187Zm.14,1c9.29,11.52,3.16,22.07-.08,25l-.62-1c6.91-8,4-17.87,0-22.54Zm-1,2.24c.07.19.43.73.16.7l-.47-.09Zm-.07,1.29a.54.54,0,0,1,.47.2c.18.32-.78,3-1.37,2.35-.18-.35-.39-.66-.55-1s-.07-.64.37-1.07A1.67,1.67,0,0,1,44.53,191.5Zm1.34.72c.47,0,1.14,1.51,1.2,2.57a3.7,3.7,0,0,1-2-.74A4.06,4.06,0,0,1,45.87,192.22Zm-3.63,1.2c2.79,5.63,2.62,10,.15,14.06l-1.92-1.65a11.29,11.29,0,0,0-.25-10.53Zm1.88,1.41a4.53,4.53,0,0,1,1.32.24c1.87.6,1.94,1.82.14,2.72-.74.37-1,.21-1.41-1.66-.21-.93-.37-1.27-.05-1.3ZM47.74,197c.36,0,.52.68.57,1.86s-.2,1.2-1.1.41-1.14-1.07-.25-1.78c.26-.2.61-.49.78-.49Zm-2.55,1.85a3.3,3.3,0,0,1,1.2.7c1.28,1,1,1.64-.46,2.11-1,.33-1,.37-.93-1.37C45,199.41,45,198.85,45.19,198.83Zm16.94,1.58a2.23,2.23,0,0,0-1.7,3.05c.23.57.59.57.17.92-.47.54-.72,1.8-.2,2.25s.77-.25.12.93L48.76,229.17l70.63-.13-8.49-15.9s.68-2.62-.68-2.94a1.1,1.1,0,0,1-.77-.89,2.64,2.64,0,0,0-.82-2.15,47.88,47.88,0,0,1-17.36-.61c-6.94-1.56-11.9-4.26-15.13-5.11A36.93,36.93,0,0,0,62.13,200.41Zm3.8.15a42.53,42.53,0,0,1,15.89,3.5A59.21,59.21,0,0,0,95.74,208a57,57,0,0,0,11.61-.05,1.23,1.23,0,0,1,1.14.32c.78.86.25,1.41-1.7,1.59a48.8,48.8,0,0,1-10.45-.37,62.74,62.74,0,0,1-16.21-4.34c-6.23-2.34-11.95-3.12-16.48-2.43-2.48.38-2.84.44-2.83-.23,0-1.3,1.09-1.9,5.11-1.9ZM48,204.34c-.24.55-1.94-1.26-1.92-1.77a9.78,9.78,0,0,1,2-1.48c.26-.21.24-.1.25.14A13.11,13.11,0,0,1,48,204.34ZM45.38,203c.79.1,2.08,2.22.94,2.55s-1.92.48-2-.2c.52-1.66.72-2.31,1-2.35Zm45.67,7.24A74.36,74.36,0,0,0,107,211.3c2.47-.25,3-.17,3,.86,0,.64.06.62-3.12.62a61.53,61.53,0,0,1-7.59-.24,52,52,0,0,1-14.56-2.71c-4.93-1.28-9.21-3.74-14-4.25-4.43-.44-8.42.35-9.25.81-.28,0-.43-.41-.41-.8a1.1,1.1,0,0,1,.47-.9C74.12,201.48,80.92,208.34,91.05,210.25ZM47,206c.42,0,.29.63-.41,2-.58,1.13-.82,1.12-1.15,0s-.32-1.37.39-1.56A10.46,10.46,0,0,1,47,206Zm-3,.63c.49,0,1.2,2.25.83,2.67s-1.31.11-1.61-.29C42.81,208.39,43.43,206.63,44.08,206.64Zm22.19.6a32.24,32.24,0,0,1,5.73.5,20.11,20.11,0,0,0-3.15,1.36A18.88,18.88,0,0,0,66.27,207.24ZM68.82,210c7-3.88,9.9,1.47,10.91,2.34,6.08-1.35,7.27-.69,10.66,3,6.1-3,9-.45,11.59,1.15,3-2.78,6.77-2.86,8.74-1.46a11.73,11.73,0,0,1,.92,1.63c0,.18-.25,0-.93-.52-3.58-2.56-9.52.63-7.93,4,.43.91.36,1.31-.28,1.67a1,1,0,0,1-1.39-1.44c1.06-1.74.26-3.19-2.3-4.53-3.62-1.9-9.53.22-8.32,3,.78.89.06,1.52-1,1.49s-1.55-.82-.81-1.65c.93-1.06.69-2.14-.4-3.36-3.25-4.63-9.82-2.8-9,1.26.38,1-.7,1.41-1.83,1-.72-.29-.61-1.4.17-1.79.91-.09,1-1.4.93-2.24-.16-1.22-2-2.43-3.74-3.07a8.09,8.09,0,0,0-3.44-.47,2.85,2.85,0,0,0-2.78,3.57c.19,1.2-.14,2.44-1.55,1.78-.77-.36-.58-1.23.21-2,2.76-2.7-2.81-6-6.17-3.73a2.63,2.63,0,0,1-1,.56C62.28,204.84,68.89,209.75,68.82,210Zm9.17-.71,4.2,1.58a12.46,12.46,0,0,0-2.34.74ZM67,211c-3.88-.74-4.09,3.59-1.57,4.3-3.47,4.78,5.63,6.63,4,.74,4.61.83,3.78-4.42.35-4.37.8-2,7.13-.48,6.86,1-4.28.45-2.57,4.35-.72,4.36-4.47,4.23,4.48,8.14,4.25,1.75,3.59.76,4-4,.56-4.33,1.26-1.78,5.78-.66,7,1.38-3.56.47-3.34,3.6-.55,4.11-3.54,4.5,5.17,6.17,4.26.93,3.12,1.08,4.84-3.08.79-4.27,4.14-2.47,8.64,1.2,8.15,1.28-4.72-.28-3.78,4.45-.36,4.2-2.18,4.91,6.44,5.19,4.26.09,3.87.07,3.53-4.42-.18-4.72,2.34-1.71,5-1.86,6.67-.26-3.53.93-2.06,5,1.49,3.9.33,3.44,3.12,2.71,3.19,2.6l2.5,4.67-67.77.11L56,217.74a2.74,2.74,0,0,0,3.15-3.19c2.27,1.62,4.72-2.41,1.39-3.57,2.72-2.84,6.75-.22,6.51,0ZM45,210.67c-.14.14-.17.23-.41,0C44,210,45.56,210,45,210.67Zm14,1.79c.3.24.09.91-.15,1.14-.61.65-.82.6-.28-.53.16-.34.31-.62.43-.61Zm29.69.3,3.52.85-1.67.94A20.59,20.59,0,0,0,88.66,212.76Zm11,1.42,3.83.24a10,10,0,0,0-1.62,1.3A12.26,12.26,0,0,0,99.67,214.18Zm12.77,3.91a18.92,18.92,0,0,1,1,2C112.18,220.33,111.85,218.49,112.44,218.09Z"/><path id="path12536" class="cls-3" d="M48.44,64.7c-4.18-6.87-8.58-13.54-14.07-19.24,5.49-5.71,9.89-12.38,14.07-19.25C52.63,33.08,57,39.75,62.52,45.46,57,51.16,52.63,57.83,48.44,64.7Z"/><path id="path12538" class="cls-3" d="M14.22,56.1a45.35,45.35,0,0,0-5.86-8,44.92,44.92,0,0,0,5.86-8,45.46,45.46,0,0,0,5.87,8A45.91,45.91,0,0,0,14.22,56.1Z"/><path id="path12540" class="cls-3" d="M131.56,185.31c-4.19,6.87-8.59,13.54-14.08,19.24,5.49,5.71,9.89,12.38,14.08,19.25,4.18-6.87,8.58-13.54,14.07-19.25C140.14,198.85,135.74,192.18,131.56,185.31Z"/><path id="path12542" class="cls-3" d="M165.78,193.9a45.41,45.41,0,0,1-5.87,8,45,45,0,0,1,5.87,8,44.92,44.92,0,0,1,5.86-8A45.35,45.35,0,0,1,165.78,193.9Z"/><path id="path12544" class="cls-3" d="M14.87,34.64h2.67l-3.93-9.77-3,4.13,0,5.64h2.11v2.91H5.3V34.64H7.75v-21H5.3V11.1h7.55v2.62H10.76l0,10.24,6.59-10.32H15V11.1h8v2.54H20.89l-5.42,8.44,5.31,12.56h2.35l0,2.91H14.89l0-2.91Z"/><path id="path12546" class="cls-3" d="M165.13,215.36h-2.67l3.93,9.77,3-4.13,0-5.64h-2.11v-2.91h7.44v2.91h-2.45v21h2.45v2.55h-7.54v-2.63h2.08l0-10.24-6.58,10.32H165v2.55h-8v-2.55h2.12l5.42-8.44-5.31-12.56h-2.35v-2.91h8.25l0,2.91Z"/></g></svg>