<svg id="Layer_1" data-name="Layer 1" xmlns="http://www.w3.org/2000/svg" viewBox="0 0 180 250"><defs><style>.cls-1{fill:#d40000;}</style></defs><title>all_cards</title><g id="g6758"><path id="path6790-5" class="cls-1" d="M13.88,56.1a45.35,45.35,0,0,0-5.86-8,44.92,44.92,0,0,0,5.86-8,45.46,45.46,0,0,0,5.87,8A45.91,45.91,0,0,0,13.88,56.1Z"/><path id="path6792-5" class="cls-1" d="M131.74,64.7c-4.18-6.87-8.58-13.54-14.08-19.24,5.5-5.71,9.9-12.38,14.08-19.25,4.18,6.87,8.58,13.54,14.08,19.25C140.32,51.16,135.92,57.83,131.74,64.7Z"/><path id="path6794-1" class="cls-1" d="M166.12,209.93a45.46,45.46,0,0,0-5.87-8,45.91,45.91,0,0,0,5.87-8,45.35,45.35,0,0,0,5.86,8A44.92,44.92,0,0,0,166.12,209.93Z"/><path id="path6796-2" class="cls-1" d="M48.26,64.7c-4.18-6.87-8.58-13.54-14.08-19.24,5.5-5.71,9.9-12.38,14.08-19.25,4.18,6.87,8.58,13.54,14.08,19.25C56.84,51.16,52.44,57.83,48.26,64.7Z"/><path id="path6806-6" class="cls-1" d="M48.26,144.22c-4.18-6.87-8.58-13.54-14.08-19.25,5.5-5.7,9.9-12.37,14.08-19.24,4.18,6.87,8.58,13.54,14.08,19.24C56.84,130.68,52.44,137.35,48.26,144.22Z"/><path id="path6808-6" class="cls-1" d="M131.74,144.23c-4.18-6.87-8.58-13.54-14.08-19.24,5.5-5.7,9.9-12.38,14.08-19.25,4.18,6.87,8.58,13.55,14.08,19.25C140.32,130.69,135.92,137.36,131.74,144.23Z"/><path id="path6812-0" class="cls-1" d="M48.26,223.79c-4.18-6.87-8.58-13.54-14.08-19.24,5.5-5.7,9.9-12.38,14.08-19.24,4.18,6.86,8.58,13.54,14.08,19.24C56.84,210.25,52.44,216.92,48.26,223.79Z"/><path id="path6814-4" class="cls-1" d="M131.74,223.8c-4.18-6.87-8.58-13.54-14.08-19.25,5.5-5.7,9.9-12.37,14.08-19.24,4.18,6.87,8.58,13.54,14.08,19.24C140.32,210.26,135.92,216.93,131.74,223.8Z"/><path id="path23-5-3-5-5" class="cls-1" d="M6.07,29.41A52.32,52.32,0,0,1,6,19.73c.82-5.22,2.83-7.61,6.18-8.39s7.84.09,8.85,4.45l-2.73.05c-1.47-2.95-5.2-2.16-7.3-.88-1.68,1-2.44,5.29-2.11,5.55,0,0,3.17-2.33,5.67-2.16,5.34.55,7.54,5.16,7.36,9.51-.17,5.23-1.84,9.42-7.5,9.69-5.39-.2-7.85-3.12-8.37-8.14ZM19.34,28c0-3.63-1.62-6.35-4.76-6.65s-6.3,2.75-6.08,6.44,1.66,6.85,5.47,6.83c4.09,0,5.35-4,5.37-6.62Z"/><path id="path23-6-5-6-6" class="cls-1" d="M173.93,220.59a52.32,52.32,0,0,1,0,9.68c-.82,5.22-2.83,7.61-6.19,8.39s-7.84-.09-8.84-4.45l2.73-.05c1.47,3,5.2,2.16,7.3.88,1.68-1,2.44-5.29,2.11-5.55,0,0-3.17,2.33-5.67,2.16-5.34-.55-7.54-5.16-7.36-9.51.17-5.23,1.84-9.41,7.5-9.69,5.39.2,7.85,3.12,8.37,8.14ZM160.66,222c0,3.63,1.62,6.35,4.76,6.65s6.3-2.75,6.08-6.45-1.66-6.84-5.47-6.82c-4.09,0-5.35,4-5.37,6.62Z"/></g></svg>