<svg id="Layer_1" data-name="Layer 1" xmlns="http://www.w3.org/2000/svg" viewBox="0 0 180 250"><title>all_cards</title><g id="g8409-3-3"><path id="path153-0-1-2-5-5-5-3-4" d="M13.88,40.07C10.41,44.46,6.69,47,6.63,50.42A3.33,3.33,0,0,0,9.4,53.78,2.88,2.88,0,0,0,12.71,51c0-.4.48-.39.48.16a10.48,10.48,0,0,1-1.58,4.92h4.55a10.48,10.48,0,0,1-1.58-4.92c0-.55.48-.56.47-.16a2.88,2.88,0,0,0,3.31,2.76,3.34,3.34,0,0,0,2.78-3.36C21.08,47,17.36,44.46,13.88,40.07Z"/><path id="path153-0-1-2-5-6-5-9-1-9" d="M166.12,209.93c-3.48-4.39-7.2-6.92-7.26-10.35a3.34,3.34,0,0,1,2.78-3.36A2.88,2.88,0,0,1,165,199c0,.4.48.39.47-.16a10.36,10.36,0,0,0-1.58-4.92h4.55a10.46,10.46,0,0,0-1.57,4.92c0,.55.47.56.47.16a2.88,2.88,0,0,1,3.31-2.76,3.32,3.32,0,0,1,2.77,3.36c-.06,3.43-3.78,6-7.25,10.35Z"/><path id="path153-6-3-1-6-92-7-2-9-8" d="M90,105.76c-7.44,10.55-15.4,16.62-15.53,24.85,0,2.66,1.4,7.19,5.94,8.06,3,.56,7-1.81,7.09-6.63,0-.95,1-.93,1,.38a27.25,27.25,0,0,1-3.38,11.82h9.74a27.25,27.25,0,0,1-3.38-11.82c0-1.31,1-1.33,1-.38.09,4.82,4.14,7.19,7.09,6.63,4.54-.87,6-5.4,5.94-8.06C105.4,122.38,97.44,116.31,90,105.76Z"/><path id="path41-4-9-2" d="M5.74,37.55V35.29H7.92l4.62-24.2h2.63l5.1,24.2H22v2.26h-6V35.29h1.61L17,31.58H11l-.47,3.71h1.62v2.26ZM16.5,28.94,13.88,16l-2.45,13Z"/><path id="path41-4-2-4-0" d="M158,212.45v2.26h2.17l4.62,24.19h2.64l5.09-24.19h1.75v-2.26h-6v2.26h1.61l-.64,3.71h-6l-.46-3.71h1.61v-2.26Zm10.75,8.61L166.12,234l-2.46-12.95Z"/></g></svg>