<?xml version="1.0" encoding="utf-8"?>
<!-- Generator: Adobe Illustrator 23.0.1, SVG Export Plug-In . SVG Version: 6.00 Build 0)  -->
<svg version="1.1" xmlns="http://www.w3.org/2000/svg" xmlns:xlink="http://www.w3.org/1999/xlink" x="0px" y="0px"
	 viewBox="0 0 180 250" style="enable-background:new 0 0 180 250;" xml:space="preserve">
<style type="text/css">
	.st0{fill:#FFFFFF;}
	.st1{fill:#E2CF00;}
	.st2{fill:#131F67;}
	.st3{fill:#D40000;}
	.st4{fill:#100F08;}
</style>
<g id="white-background">
	<rect class="st0" width="180" height="250"/>
</g>
<g id="Layer_1">
	<g id="g5120_1_" transform="matrix(0.99999712,0,0,1.000002,5.9820329,-5.5506344)">
		<path id="path147-0-8-1-6-1-1-0-9-1-8_1_" d="M84,111.6c-7.9,0.2-11.5,9-5.6,15.9c0.9,1,0.9,1.6-0.6,0.6
			c-3.9-2.6-11.5-0.9-11.9,7.1c-0.5,9.9,13.4,12.7,16,2.2c0.1-1.1,1-1.1,0.8,0.5c-0.2,4.3-1.6,8.3-3.4,12.1c3.1,0,6.6,0,9.4,0
			c-1.8-3.9-3.2-7.9-3.4-12.1c-0.2-1.6,0.7-1.6,0.8-0.5c2.6,10.5,16.5,7.7,16-2.2c-0.4-8-8-9.7-11.9-7.1c-1.6,1-1.5,0.4-0.6-0.6
			C95.5,120.7,91.9,111.8,84,111.6C84,111.6,84,111.6,84,111.6L84,111.6z"/>
		<path id="path147-6-9-8-7-0-5-0-8-3_1_" d="M160.1,215.5c3.2-0.1,4.6-3.8,2.2-6.6c-0.3-0.4-0.4-0.7,0.2-0.3c1.6,1.1,4.6,0.4,4.8-3
			c0.2-4.1-5.4-5.3-6.4-0.9c-0.1,0.5-0.4,0.5-0.3-0.2c0.1-1.8,0.6-3.4,1.4-5.1c-1.3,0-2.5,0-3.8,0c0.7,1.6,1.3,3.3,1.4,5.1
			c0.1,0.7-0.3,0.7-0.3,0.2c-1-4.4-6.6-3.2-6.4,0.9c0.2,3.3,3.2,4.1,4.8,3c0.6-0.4,0.6-0.2,0.2,0.3
			C155.5,211.7,157,215.4,160.1,215.5C160.1,215.5,160.1,215.5,160.1,215.5L160.1,215.5z"/>
		<path id="path41-6-3-5-1_1_" d="M-0.2,43.1v-2.3h2.2l4.6-24.2h2.6l5.1,24.2H16v2.3h-6v-2.3h1.6L11,37.1H5l-0.5,3.7h1.6v2.3H-0.2z
			 M10.5,34.5l-2.6-13l-2.5,13H10.5z"/>
		<path id="path41-6-4-0-2-8_1_" d="M152,218v2.3h2.2l4.6,24.2h2.6l5.1-24.2h1.8V218h-6v2.3h1.6l-0.6,3.7h-6l-0.5-3.7h1.6V218H152
			L152,218z M162.7,226.6l-2.6,12.9l-2.5-12.9H162.7L162.7,226.6z"/>
		<path id="path147-6-9-8-7-4-5-6-8-9_1_" d="M7.9,45.6c-3.2,0.1-4.6,3.8-2.2,6.6C6,52.7,6,52.9,5.4,52.5c-1.6-1.1-4.6-0.4-4.8,3
			c-0.2,4.1,5.4,5.3,6.4,0.9c0.1-0.5,0.4-0.5,0.3,0.2C7.3,58.4,6.8,60,6,61.7c1.3,0,2.5,0,3.8,0C9,60,8.5,58.4,8.4,56.6
			c-0.1-0.7,0.3-0.7,0.3-0.2c1,4.4,6.6,3.2,6.4-0.9c-0.2-3.3-3.2-4.1-4.8-3c-0.6,0.4-0.6,0.2-0.2-0.3C12.5,49.4,11.1,45.7,7.9,45.6
			C7.9,45.6,7.9,45.6,7.9,45.6L7.9,45.6z"/>
	</g>
</g>
</svg>
