<svg id="Layer_1" data-name="Layer 1" xmlns="http://www.w3.org/2000/svg" viewBox="0 0 180 250"><title>all_cards</title><g id="g5468"><path id="path147-0-8-1-6-13-2-5-7-1" d="M131.74,26.55c-7.92.17-11.47,9-5.61,15.89.85,1,.94,1.58-.61.62-4-2.62-11.52-.9-11.91,7.11-.48,9.88,13.42,12.72,16,2.22.14-1.1,1.05-1.08.83.49A32.63,32.63,0,0,1,127,65h9.41A32.46,32.46,0,0,1,133,52.88c-.22-1.57.69-1.59.83-.49,2.61,10.5,16.5,7.66,16-2.22-.39-8-8-9.73-11.9-7.11-1.56,1-1.47.39-.62-.62,5.86-6.87,2.31-15.72-5.61-15.89Z"/><path id="path147-0-8-1-6-75-2-83-8-8-7" d="M48.25,26.55c-7.91.17-11.46,9-5.6,15.89.85,1,.94,1.58-.62.62-4-2.62-11.51-.9-11.9,7.11-.48,9.88,13.41,12.72,16,2.22.14-1.1,1.05-1.08.83.49A32.46,32.46,0,0,1,43.55,65H53a32.63,32.63,0,0,1-3.42-12.15c-.22-1.57.69-1.59.82-.49,2.61,10.5,16.51,7.66,16-2.22-.39-8-8-9.73-11.91-7.11-1.55,1-1.47.39-.62-.62,5.87-6.87,2.32-15.72-5.6-15.89Z"/><path id="path147-0-8-1-6-7-5-5-7-8-7-8" d="M131.74,224.12c-7.92-.17-11.47-9-5.61-15.9.85-1,.94-1.57-.61-.61-4,2.62-11.52.9-11.91-7.12-.48-9.87,13.42-12.72,16-2.22.14,1.11,1.05,1.08.83-.49A32.63,32.63,0,0,0,127,185.63h9.41A32.46,32.46,0,0,0,133,197.78c-.22,1.57.69,1.6.83.49,2.61-10.5,16.5-7.65,16,2.22-.39,8-8,9.74-11.9,7.12-1.56-1-1.47-.39-.62.61,5.86,6.88,2.31,15.73-5.61,15.9Z"/><path id="path147-0-8-1-6-75-6-1-2-0-6-8" d="M48.25,224.12c-7.91-.17-11.46-9-5.6-15.9.85-1,.94-1.57-.62-.61-4,2.62-11.51.9-11.9-7.12-.48-9.87,13.41-12.72,16-2.22.14,1.11,1.05,1.08.83-.49a32.46,32.46,0,0,0-3.43-12.15H53a32.63,32.63,0,0,0-3.42,12.15c-.22,1.57.69,1.6.82.49,2.61-10.5,16.51-7.65,16,2.22-.39,8-8,9.74-11.91,7.12-1.55-1-1.47-.39-.62.61,5.87,6.88,2.32,15.73-5.6,15.9Z"/><path id="path147-0-8-1-6-7-5-7-3-0-9-6-4" d="M131.74,106.09c-7.92.17-11.47,9-5.61,15.9.85,1,.94,1.58-.61.61-4-2.62-11.52-.9-11.91,7.12-.48,9.87,13.42,12.72,16,2.22.14-1.11,1.05-1.08.83.49A32.63,32.63,0,0,1,127,144.58h9.41A32.46,32.46,0,0,1,133,132.43c-.22-1.57.69-1.6.83-.49,2.61,10.5,16.5,7.65,16-2.22-.39-8-8-9.74-11.9-7.12-1.56,1-1.47.39-.62-.61,5.86-6.88,2.31-15.73-5.61-15.9Z"/><path id="path147-0-8-1-6-75-6-6-5-3-0-0-2" d="M48.25,106.09c-7.91.17-11.46,9-5.6,15.9.85,1,.94,1.58-.62.61-4-2.62-11.51-.9-11.9,7.12-.48,9.87,13.41,12.72,16,2.22.14-1.11,1.05-1.08.83.49a32.46,32.46,0,0,1-3.43,12.15H53a32.63,32.63,0,0,1-3.42-12.15c-.22-1.57.69-1.6.82-.49,2.61,10.5,16.51,7.65,16-2.22-.39-8-8-9.74-11.91-7.12-1.55,1-1.47.39-.62-.61,5.87-6.88,2.32-15.73-5.6-15.9Z"/><path id="path147-6-9-8-7-0-5-6-4-2-8" d="M166.12,209.93c3.17-.07,4.59-3.76,2.24-6.62-.34-.42-.38-.66.25-.26,1.58,1.1,4.6.38,4.76-3,.19-4.12-5.37-5.3-6.41-.93-.06.46-.42.45-.33-.2A13.81,13.81,0,0,1,168,193.9h-3.77a14,14,0,0,1,1.38,5.06c.08.65-.28.66-.34.2-1-4.37-6.6-3.19-6.4.93.15,3.34,3.18,4.06,4.76,3,.62-.4.59-.16.24.26-2.34,2.86-.92,6.55,2.25,6.62Z"/><path id="path147-6-9-8-7-4-5-62-0-2-9" d="M13.88,40.07c-3.16.07-4.58,3.76-2.24,6.62.34.42.38.66-.25.26-1.58-1.1-4.6-.38-4.76,3C6.44,54,12,55.21,13,50.84c.06-.46.42-.45.33.2A13.81,13.81,0,0,1,12,56.1h3.77A13.81,13.81,0,0,1,14.4,51c-.09-.65.27-.67.33-.2,1,4.37,6.6,3.19,6.41-.93C21,46.57,18,45.85,16.37,47c-.62.4-.58.16-.24-.26,2.34-2.86.92-6.55-2.25-6.62Z"/><path id="path23-8-1-4" d="M6.07,29.41A52.32,52.32,0,0,1,6,19.73c.82-5.22,2.83-7.61,6.18-8.39s7.84.09,8.85,4.45l-2.73.05c-1.47-2.95-5.2-2.16-7.3-.88-1.68,1-2.44,5.29-2.11,5.55,0,0,3.17-2.33,5.67-2.16,5.34.55,7.54,5.16,7.35,9.51-.17,5.23-1.83,9.41-7.49,9.69-5.39-.2-7.85-3.12-8.37-8.14ZM19.34,28c0-3.63-1.63-6.35-4.76-6.65s-6.3,2.75-6.08,6.44,1.66,6.85,5.47,6.83c4.09,0,5.35-4,5.37-6.62Z"/><path id="path23-6-8-9-6" d="M173.93,220.59a52.32,52.32,0,0,1,0,9.68c-.82,5.22-2.83,7.61-6.18,8.39s-7.85-.09-8.85-4.45l2.72-.05c1.48,3,5.21,2.16,7.31.88,1.68-1,2.43-5.29,2.11-5.55,0,0-3.17,2.33-5.67,2.16-5.34-.55-7.54-5.16-7.36-9.51.17-5.23,1.84-9.41,7.5-9.69,5.39.2,7.85,3.12,8.37,8.14ZM160.65,222c0,3.63,1.63,6.35,4.77,6.65s6.3-2.75,6.08-6.45-1.67-6.84-5.47-6.82c-4.09,0-5.36,4-5.38,6.62Z"/></g></svg>