<?xml version="1.0" encoding="utf-8"?>
<!-- Generator: Adobe Illustrator 23.0.1, SVG Export Plug-In . SVG Version: 6.00 Build 0)  -->
<svg version="1.1" xmlns="http://www.w3.org/2000/svg" xmlns:xlink="http://www.w3.org/1999/xlink" x="0px" y="0px"
	 viewBox="0 0 180 250" style="enable-background:new 0 0 180 250;" xml:space="preserve">
<style type="text/css">
	.st0{fill:#FFFFFF;}
	.st1{fill:#E2CF00;}
	.st2{fill:#131F67;}
	.st3{fill:#D40000;}
	.st4{fill:#100F08;}
</style>
<g id="white-background">
	<rect class="st0" width="180" height="250"/>
</g>
<g id="Layer_1">
	<g id="g6716_1_" transform="matrix(0.99553491,0,0,0.99680337,8.7292473,-8.1397402)">
		<path id="path6516-8_1_" class="st3" d="M81.6,73.1c-4.2-6.9-8.6-13.6-14.1-19.3C73,48,77.4,41.4,81.6,34.5
			c4.2,6.9,8.6,13.6,14.1,19.3C90.3,59.5,85.8,66.2,81.6,73.1z"/>
		<path id="path6518-2_1_" class="st3" d="M5.2,64.4c-1.7-2.9-3.6-5.7-5.9-8c2.3-2.4,4.1-5.2,5.9-8c1.8,2.9,3.6,5.7,5.9,8
			C8.8,58.8,6.9,61.6,5.2,64.4z"/>
		<path id="path6522-0_1_" class="st3" d="M158.1,218.8c-1.7-2.9-3.6-5.7-5.9-8c2.3-2.4,4.1-5.2,5.9-8c1.7,2.9,3.6,5.7,5.9,8
			C161.7,213.1,159.8,215.9,158.1,218.8z"/>
		<path id="path6538-6_1_" class="st3" d="M81.6,232.7c-4.2-6.9-8.6-13.6-14.1-19.3c5.5-5.7,9.9-12.4,14.1-19.3
			c4.2,6.9,8.6,13.6,14.1,19.3C90.3,219.1,85.8,225.8,81.6,232.7z"/>
		<path id="path15-34-1-4-2_1_" class="st3" d="M-2.4,45.8l0.1-1.6c0.4-5.1,1.5-6.8,7.7-12c3-2.6,4-3.8,4.1-5.3
			c0.4-3.5-2.7-4.5-4.7-4.6c-2.6,0-5.5,1.5-4.1,5.2l-2.9,0.9c-0.6-3.4,0-6.6,2.7-8c3.6-1.8,8.3-1.1,10.7,1.8c1.6,2,1.9,4.7,1.1,6.8
			c-2.5,5.4-10.9,7.8-11.6,14H10v-3.5h2.7v6.4L-2.4,45.8L-2.4,45.8z"/>
		<path id="path15-5-4-6-4_1_" class="st3" d="M165.7,221.4l-0.1,1.6c-0.4,5.1-1.5,6.8-7.7,12c-3,2.6-4,3.8-4.1,5.3
			c-0.4,3.5,2.7,4.5,4.7,4.5c2.6,0,5.5-1.5,4.1-5.2l2.9-0.9c0.6,3.4,0,6.6-2.7,8c-3.6,1.8-8.3,1.1-10.7-1.8c-1.6-2-1.9-4.7-1.1-6.8
			c2.5-5.4,10.9-7.8,11.6-14h-9.3v3.5h-2.7v-6.4L165.7,221.4L165.7,221.4z"/>
	</g>
</g>
</svg>
