<svg id="Layer_1" data-name="Layer 1" xmlns="http://www.w3.org/2000/svg" viewBox="0 0 180 250"><defs><style>.cls-1{fill:#e2cf00;}.cls-2{fill:#131f67;}.cls-3{fill:#d40000;}</style></defs><title>all_cards</title><g id="g6503"><path id="path7431-0-1" d="M13.88,40.07C10.41,44.46,6.69,47,6.63,50.42a3.33,3.33,0,0,0,2.78,3.36A2.87,2.87,0,0,0,12.71,51c0-.4.48-.39.48.16a10.48,10.48,0,0,1-1.58,4.92h4.55a10.48,10.48,0,0,1-1.58-4.92c0-.55.48-.56.48-.16a2.87,2.87,0,0,0,3.3,2.76,3.33,3.33,0,0,0,2.78-3.36C21.08,47,17.36,44.46,13.88,40.07Z"/><path id="path7435-3-6" d="M166.12,209.93c-3.48-4.39-7.2-6.92-7.26-10.35a3.34,3.34,0,0,1,2.78-3.36A2.88,2.88,0,0,1,165,199c0,.4.48.39.47-.16a10.36,10.36,0,0,0-1.58-4.92h4.56a10.36,10.36,0,0,0-1.58,4.92c0,.55.47.56.47.16a2.88,2.88,0,0,1,3.31-2.76,3.34,3.34,0,0,1,2.78,3.36c-.07,3.43-3.79,6-7.26,10.35Z"/><path id="path37-0-2-9" d="M8,28.8H5.8v-3H8s0-1.62.08-4.49c.14-6.1.3-7,2.07-8.73,3.51-3.32,9.39-.62,9.33,4.38-.11,7,0,13.77-.24,14.72-.37,1.68-.41,1.77-.25,2.08.3.62,3,.88,3,.71v3a5.53,5.53,0,0,1-4.5-1.19,6.67,6.67,0,0,1-6.55.8C9.06,36.16,7.64,33.9,8,28.8Zm7.52,5.26c-1.1-1.58-3-3.74-4.7-4.51-.11,1.82.05,3.35.69,4.17a2.58,2.58,0,0,0,4,.34Zm.91-17.41C15.64,14.34,13.53,13.56,12,15c-1,.9-1.12,1.84-1.14,7,0,3.16,0,4.49,0,4.49,3,1,5.79,4.43,5.76,4.39l.07-9.57a26.52,26.52,0,0,0-.23-4.63Z"/><path id="path37-0-5-5-3" d="M172,221.2h2.22v3H172s0,1.62-.08,4.49c-.14,6.1-.29,7-2.07,8.73-3.51,3.32-9.39.62-9.32-4.38.1-7.05,0-13.77.23-14.72.37-1.68.41-1.77.26-2.08-.31-.62-3-.88-3-.71v-3a5.53,5.53,0,0,1,4.5,1.19,6.67,6.67,0,0,1,6.55-.8c1.87.87,3.28,3.13,2.9,8.23Zm-7.52-5.26c1.1,1.58,3,3.74,4.7,4.51.11-1.82,0-3.35-.69-4.17a2.58,2.58,0,0,0-4-.34Zm-.91,17.41c.82,2.31,2.92,3.09,4.45,1.65,1-.9,1.12-1.84,1.14-7,0-3.16,0-4.49,0-4.49-3-1-5.78-4.43-5.76-4.39l-.07,9.57a26.52,26.52,0,0,0,.23,4.63Z"/><path id="path4075-4-3-9" class="cls-1" d="M82.31,229.44l18.93-34.34a95.78,95.78,0,0,0,9.86,3.15c-5.13,13.31,0,30.87,0,30.87S82.3,229.41,82.31,229.44ZM30.44,170.79c-1.07-14.59.62-26.95,1.3-40.35.05-.19-6.14-4-6.14-4l14.55-8.17c1.45.75,2.28.62,2.63-.77-1.47-5-1.76-9.78,1.6-13.89,2.52-3,8.27-1.46,9.95-1.47,1.3,0,4.4-10.26-.84-13.29-1.11-.64-1.64,6-2.4,8.78-3.37-2-9.61-3.62-10.44-7.08-.42-1.91,5.7-5.6,4.5-7.77-1.75-3.14-6.28-7.85-8.22-6.56-1.83,1.65-6.19,5-6.17,7.31,1.37,4.13,4.84,4.42,6.66,8.33a52.9,52.9,0,0,0,3.8,4.39c-1.25,1.92.78,5.27.88,4.75L26.22,94.11s3.64,27.28-.2,31.31c-.41.43,3.4-1.07,3.46-.83,1.16,1.45,14,9.57,17.65,12.49,6.52-9.05,8.9-13,17.3-21.07,1.84-1.51,6-4.29,8.31-7.62a11.73,11.73,0,0,0,2.33-8c-.44-3-.71-5.09-2.59-7.5-4.33-5.57-11.22-10.89-11.1-11L63.74,80s8.5,7,12.09,12.14c2.43,3.47,1.34,7.45,3.43,8.16.5.17,3.94-.12,5.07.1.13,0,25,17.5,20.48,18.51-6.24,1.39-16.19.48-16.19.48-7.1-6.9-10.53-9.17-14.76-7,0,0-10.73,9.35-16.92,16.66-3.53,4.17-9.13,12.89-9.13,12.89-.41-.18-12.69-9.85-12.18-8.76,0,0,2.94,26.48,1.63,36.17-.9,8.23-2.13,17.07-2.68,24.67,1.75-.38,4.32-.87,4.8,1.77.43,3.62-4.25,2.78-4.35,2.47l2.6,5.57s-4,7-3.93,6.65S30,204.27,30,204.27s2.78-5,3.2-6c.29-.7-4.26,1.83-4.44-1.84s4.75-2.87,4.49-2.39c-.61-8.07-2-16.41-2.83-23.21Zm60.87,18.15c.11-.08-10.75-4.34-20.72-3.94-3.51-1.36-9.24-2.78-13.06-.24a140.94,140.94,0,0,1-11.79-9.26c1.06,0,5.6-26,7.6-34.19-1.15-11,9.46-11,10.38-2.17,11.43,11.77,25.43,23.94,39.86,35.92-2.29,4.74-10.58,8.35-12.27,13.88Zm25-77.59C103.27,98.12,76,74.47,76,74.47L88.76,62.06c6.7,2,13.59,3.65,21.38,3.73,0,0,8.53,3.85,13.06,0L135,75.08s-4.89,25.6-7.76,34.53c.06,3.54-1.28,7.85-4.8,8.49-3,.55-5.3-3.68-6.13-6.75ZM142.65,80.7c1.36-8.32,1.64-14.38,2.58-24.09-5.88,1.72-5.8-6.17,0-4.1l-2.68-5.87,4-6.62,3.64,6.28L147,51.87c6.51.32,4.94,6.34-.67,4.89,1.06,9.3,3.39,18.7,3.28,27.89,2,14.75-2.48,35.27-1.74,35.76l6.35,4.35-1.08,32.09-10-4.38-3,2c1,1.89,2.18,3.7,2.59,5.75,0,0,6.91,5.66,5.95,7.42.44.26-4.92,7.33-6.49,7.15-3-.34-6.48-4.2-7.48-6.94-.84-2.77,6.2-5.47,5.32-7.5-1.07-2.42-3.75-3.58-6.13-4.29a10.43,10.43,0,0,1-4.94-3.57s-1.27,10.26-2.5,9.44c-4.94-3.3-1.56-13.76-.64-13.47a41,41,0,0,0,4.7.73c9,.94,8.37-10.05,6.63-15.37-.62-2.08,2-1.42,3.17-1.73,4.36-1.28,11.1-5.76,11.1-5.76a156.24,156.24,0,0,1-18.76-12.49,85.78,85.78,0,0,1-11.28,14.85c-4.45,4.42-5.17,5.93-12.62,11.63-.14.11-5.65,6.65-3,14.3,2.24,6.54,13,13.62,12.94,14.09l-2.12,2c.08.12-15.25-9.47-14.89-19.78,0-.39-7-.53-7-.53L74.46,131.78l17.12-.07,8.79,7.14,5.49.29c.36.31.56-1.45,5.39-5,9.24-6.86,20.69-24.48,20.69-24.48l12.12,8.48c-.6-12.73-2.67-26.43-1.41-37.4ZM98.57,20.54S86,44.06,79.09,55.14l-9.78-2.79c4.1-10.82.18-31.44-.85-32Z"/><path id="path4073-4-2-4" class="cls-2" d="M23.88,19.17V230.83H156.12V19.17Zm91.41,153.52a114.46,114.46,0,0,1,18.26-14.06c2.25-1.35,2.93-1.54,3.81-.74,1.44,1.3,2.34,2.43,1.87,3.35a3.84,3.84,0,0,1-.45.55l-3.46-1.31,1.12,3.9c-3.11,1.27-3.06,4.62-.05,6.4l-2.07,4.74,4.81-2.11a3.19,3.19,0,0,0,5.74,0l4.34,2.11-1.49-5.29c1.42-1.35,2.26-3.51,0-5.51l1-4.14-3.93,1.27c-1-1.34-1.55-1.25-1.77-1.61a6.3,6.3,0,0,0-.73-2.73A17.93,17.93,0,0,0,140.6,155c-.3-.52-.06-.56,1.51-1.41.73-.39,1.34-.79,1.34-.79s7.67,3.85,10.82,5.32v70.92h-42.1c-4.76-14.15-1.34-26.44-.08-31.58-2.22-.19-13.67-3.88-14-5.15,4.54-7.18,10.69-13.69,17.21-19.65ZM32.94,193.34c-5.52-1.77-5.58,4.85-2.76,5.36a5,5,0,0,0,2.64-.12c.28,0-3.31,5.54-3.31,5.54s2.88,5.2,4.26,7.41l4.34-7.68-2.84-5.31c4.45,2.26,6.75-4.47,2.08-5.35a5.09,5.09,0,0,0-2.37.41l2.45-23c2,1.34,5.6,4,5.6,4,.82,12.68.22,23.24,7.33,41.68l.07,12.77H25.65V162.14l4.54,3.05c.09.38-.69.13-.27,4.79.38,4.21,1.66,11.51,3,23.36ZM120.65,21.13a5.39,5.39,0,0,1,.35,1.26c1,3.28,4.43,7.22,7.17,8.25,1,.37,1.33.92.77,1.47-.7.7-3.58-1.21-5.71-3.68-1.94-2.25-3.23-4.1-3.52-5.51a4.14,4.14,0,0,1-.13-1.81A.6.6,0,0,1,120.65,21.13Zm3.42-.35c.36,0,.85.42,1.14,1.19a9.12,9.12,0,0,0,3.53,4.45c.46.32.64.8.41,1.08a.69.69,0,0,1-.33.19c-1.34.37-4.88-3.71-5.17-6.24C123.59,20.9,123.79,20.78,124.07,20.78Zm4.4,0c.72,0,1.06,1.48.65,2.26-.27.25-.86-.13-1.39-1.11S127.46,20.83,128.47,20.83Zm-2.39,0c.16,0,.49-.09.66.15a6.87,6.87,0,0,0,2.36,3.53c.16.29.23.9-.11,1.06-.81.36-3.26-2.41-3.28-4,0-.48.15-.72.37-.73Zm-3.11,1a12,12,0,0,0,4.8,6.27c1.33.85,1.84,1.33,1.22,1.76a1,1,0,0,1-.34.18c-3.11-1.18-6.94-5.68-7.07-8.85C122.26,20.32,122.86,21.29,123,21.83ZM112.19,34a13.45,13.45,0,0,0-5.27,1.11c-2.27,1-2.83,1.7-2.5,2s1.69-.45,2.42-.54c4-1,6.67-1.22,9.24-.1,2,.86,2,.47.67-1A6.21,6.21,0,0,0,112.19,34Zm13.92,2.15c1.3,0,2.64.29,3.11.9.37,2-.62,1.07-1.41.67a6.77,6.77,0,0,0-3.68-.79c-.79.12-.81.08-.36-.17a5,5,0,0,1,2.34-.61Zm-15.48.77c-3.73.29-5,2.17-7.43,4.11-1,.75-.77,1.33.44,1.13a6.76,6.76,0,0,1,4.12.5c2.22.76,3.81,1.07,5,.61,2.3-.89,2.1-.74-1.19,2.44-1.76,1.41-1,1.33.73.11a10.54,10.54,0,0,0,2.51-2.29c.13-.28.14-1.28.39-1.28.84,0,.41-1-.35-1.49-.51-.35-.39-.72.25-1.41,1-1.06.68-1.54-.43-.88-.19.1-.29-.22-1-.63a5.48,5.48,0,0,0-3.1-.92Zm2.7,1.39c.9.76.51,1-1.46.95a14.39,14.39,0,0,0-5.06.81c-2.24.74-2.38.76-1.06-.36C107.56,38.17,111.25,36.63,113.33,38.31ZM125,37.66a4.53,4.53,0,0,1,2.36.49c1.88,1,2.3,1.92.2,1.2a7.9,7.9,0,0,0-4.31-.06c-1.27.35-1.49.47-1.31-.21S123.48,37.69,125,37.66ZM110.2,40.71c.44,2.22,2.14,1.49,2.31.15h.61c-.26,1.79-2.7,3.28-3.65-.15.2,0,1.09,0,.73,0Zm13.51,0h.46c.31,1.7,1.9,2.26,2.59.13h.55C126.89,44.43,123.11,42.7,123.71,40.74Zm-14.81.17c.31.11.45.94.39,1.16-.1.46-1.6,0-1.91-.47C107.69,41.27,108.43,40.74,108.9,40.91Zm20.35.38v.62c-.69.17-1,.55-1.62.43a2.2,2.2,0,0,1,.34-1.41,1.1,1.1,0,0,1,1.28.36ZM114.18,42a1.43,1.43,0,0,1-.74.27c-.07-.59-.17-1.27.57-1.27A.58.58,0,0,1,114.18,42Zm8.62-1c.26,0,.57.67.6,1-.07.62-1.61.37-1.61-.25,0-.26.64-.8,1-.8ZM108.72,64.58c-1.19-.59-10.19-6-12.5-15.68l-.46,1c1,2.31,2.42,6.06,2.42,6.06-.06-.33.37,2.51,1.29,7.32A6.26,6.26,0,0,1,97.92,63c-1.19-4.4-1.47-7.85-2.47-12.16L95,52s1.25,7.73,2.1,10.76c-.49,0-1.38-.25-1.38-.25-.71-3.26-1.25-5.45-1.92-8.72l-.61.79a50.67,50.67,0,0,1,1.66,7.66,5.06,5.06,0,0,1-1.79-.47s-.9-4.69-1-4.76a2.25,2.25,0,0,0-.48.8,19.63,19.63,0,0,1,.73,3.69A19.91,19.91,0,0,1,90,60.91a3.88,3.88,0,0,0-.85,1c.35,1.49,21,4.72,19.77,3.49,0,.13,9.11,4,14.2.7,0,0,8.84,6.54,12.3,9.15a7.88,7.88,0,0,0,2.44,2.56l3.51,2.69c1,.79,1.42.22,1.58-1.27.17-1.65,1.37-12.78,1.66-15.15,1-8,1-7.92-.17-7.55-1.87.56-3.55-.17-3.55-2.07a2.55,2.55,0,0,1,1.79-2.57,4.14,4.14,0,0,1,1.34-.12c.24,0,.69.07.73.08.6,0-2.3-5.25-2.3-5.25s2.77-4.91,4.1-6.73l3.58,6.45L147.21,52c5.7-.43,5.14,6.72-.44,4.33,0,0,0,2.12,0,2,.05-.61,0-1.12.23-1.24,5.42,2,6.52-5.82.69-5.45,1-1.67,2-3.39,3-5.23l-4.21-7.65-4.77,7.89,2.4,4.93a4,4,0,0,0-1.55,0c-3.53.72-2.77,6.38,1.27,5.6a5.81,5.81,0,0,0,1.15-.44l-2.61,23.12s-.25.2-1.3-.55-3.73-2.74-3.89-2.94a93.54,93.54,0,0,0-7.05-40.06c-.27-.74-.11-15.4-.11-15.4h24.25V89.05c-1.26-.79-2.75-1.83-4-2.74a1.1,1.1,0,0,1-.46-1.28c-.43.91-.17,1.3-.17,1.3l5.31,4.22-.22,67s-8.56-4.39-13.83-6.51c-2.38-1-2.49-.69-2.49-.69s1.68,3.75,1.21,4.43c1.13,1.09,3,3.36,3.13,5.58a7.11,7.11,0,0,1,2.06,2.25l3.18-1.15-.72,3.3c3.38,2.36.12,5.54-.5,5.25a36.6,36.6,0,0,1,1.83,4.64,33.47,33.47,0,0,1-4-1.83c-1.94,3.81-5.22.61-5.25.05l-3.64,1.62,1.29-4.13c-2.34-1.42-3.92-3.56-.13-5.87l-.88-3.22,3.12,1.22s.58-.93,1-1.61c-1.17-5-8.83-4.1-11.29-8.64a67.22,67.22,0,0,1-1.22,7.73c-.24,5.42-4.06-.07-4.06-5.81,0-1.29,1.64-5.65,2.19-5.87s6,2.56,9.72-.06c1.67-1.73,4.55-6.6,1.78-14.23-.92-1.77,1.74-2,2.61-1.39,0,0,8-4.17,11.6-6.17-6.06-3.31-18.64-12.13-18.63-12.55-1.68,2.66-3.6,4.89-6.31,8.64-4.38,5.14-7.8,10-13.36,14.13-7.83,5.67-9.66,11.38-7.48,18.08.88,2.9,2.66,5.84,5.57,6.85,1.48,1.49,7.43,7.11,7.43,7.11-9.93,9-16.75,16.41-21.53,24.59,4,2.12,13.77,5.18,13.77,5.18-3.62,12-2,21.48.41,31,0,0-28.25,0-42.92-.42a4.5,4.5,0,0,1-1.73-.07c-.06-1.06,2.64-4,3.45-3.59.41-.39,1.26-.6,1.11-1.09-2-.24-5.09,3.24-5.21,4.68H64.82c-.25-.21,2.19-5.88,7.07-6.33,0,.21.66-.44.13-.71-5.69.67-8.35,7-8.18,7H63a11.59,11.59,0,0,1,9.9-8.4s.94-.33.69-.88c-6.44,1.12-9.65,3.9-11.2,9.28H61.18c.84-5.46,6.49-10.25,12.86-10.09.2-.13.45-.28.34-.9-7.07.8-10.6,3.15-13.51,9.21-2.6-6.73-9.83-9.92-9.92-9.95s-.17-1.88.23-1.8c6.17,2.22,8.52-3.11,8.26-6.21a25.64,25.64,0,0,0-.62-5.16,22.32,22.32,0,0,1-.86-4.67c0-1,.34-1.15,1-1.47,1.32-.6,2.15-2.76,1.85-3-.68,1.57-2.47,1.84-3.3,2.9-.66.87-.37,2.25.81,7.06.71,2.94-.14,1.59-1.81.67l-1.12-.63c.75.77,1.55,1.49,2.31,2.24s.3,1-.68.65a5.89,5.89,0,0,0-5.17.47c-.41.29-.55.26-.65,0-.46-7.47.33-12.07,2.81-17.68,1.61-3.82,4-6.68,7.19-6.88s7.83.85,12,3.69c4.93,3.34,9.73,8.41,10.24,14.63a3.63,3.63,0,0,0,.55-.85c.22-.74-.6-3-1.89-5.54-.23-1.93-.9-5.33-1.43-7.63a1.64,1.64,0,0,1,1.49.21c.9,3.8,1.55,6.76,2.32,11.85,0,.49.65-.74.65-1.07-.11-.75-2.24-10.71-2.19-10.48,0-.34,2,.1,1.74.42,0,0,1.53,8.35,1.64,8.09l.51-.71s-1.46-6.1-1.27-7.27c.12-.18,1.25.18,1.61.37.45.6.73,2.78.92,4.26.52.4.63-.74.59-1-.38-.59-.77-2.8-.48-2.91a4.18,4.18,0,0,1,1.78.64c.29.26,1.42-1.3,1.13-1.56a62.34,62.34,0,0,0-19.59-3.78,9.74,9.74,0,0,1-3.95-.93c-5.26-1.89-9.61,0-10.24.59-6.42-4.44-13.59-10.65-19.3-14.61a2.82,2.82,0,0,0-1-.28c-.91,6.89-1.54,14.87-2.31,21.23-.32,2.52-.36,2.72-.24,2.79s.3,0,.38-.08c1.87-.69,3.57-.24,4.47,1.45a2.59,2.59,0,0,1-3.91,2.86c-.83-.43-1-.35-.57.46.66,1.45,2.55,5.27,2.55,5.27S35,209,33.66,210.4c-1.25-2-2.86-4.07-3.55-6.27,1-1.93,2.85-4.41,3.44-6.31a1.56,1.56,0,0,0-.94.17c-3.27,1.54-3.79-1.35-3.75-2.39C29,193.48,30.8,193,33.49,194c-2.91-19.23-3.53-30.18-2.79-29a59.65,59.65,0,0,1-5.25-4.2l.2-139.92H67.27c4.28,11.43,3.1,25.17.55,32.32A42,42,0,0,1,82.13,58.1c-8.76,12.79-22.51,26.61-37.4,35.46-.84.38-3.62-1.34-3.94-3-.08-.4.14-1.18.59-1.16,1.09.35,2.15.83,3.22,1.27,0,0-1.49-3.72-.77-4.29A6.26,6.26,0,0,0,45,85.47a3,3,0,0,0-.15-4.14,4.63,4.63,0,0,0-1.25-.92s1.05-2.9,1.57-4.27L41,77.5c-1.34-1.85-3.8-3.29-5.61-.54-.35.74-.28.63-2.84-.5-1.45-.64-2.34-1-2.34-1,.54,1.62,1.25,3.13,1.87,5-2.84,1.8-2.19,4.85.2,5.76L31,90.37s2.69-1,4.15-1.39a7.8,7.8,0,0,1,1.66,2.5,10.55,10.55,0,0,0,3.06,4.46,20.57,20.57,0,0,1-4.07,2.36l6,2.44c-.38-1.28-1.18-2.22-1.26-3.83a2.53,2.53,0,0,0-1.05-2.35c-1.65-1.43-1.82-3.12-2.37-4.24a4.21,4.21,0,0,1-1.6-1.9c-.4-.83-3,1.12-3.4.75s.84-3.14.7-3.4c-1.07-.09-4-2.41-.5-5L31.28,76.6s2.7,1.18,4,1.84c.9-4.19,5-2.18,5.66-.38,0,0,3.25-1.06,3-.2s-.62,2.71-.62,2.71c2.92,2.58,2.32,3.84-.06,5.53a16.13,16.13,0,0,0,.54,3.49,27.08,27.08,0,0,0-2.74-1c-.43.43-.93,1.22-.85,1.62C41,93.42,45,94.33,51,97.66c.21-2.11,1.67-5,1.83-7.5.1-1.84.17-1.87,1.47-1.28,3.42,2.46,2.37,9.22,1.13,12-.74,1.57-.86,1.53-2.3,1.07a14.55,14.55,0,0,0-7.44.28c-2.67,1.09-3.93,7-4,8.83a12.3,12.3,0,0,0,1,5.54c.37,1.35-.31,2.4-1.54,2-.28-.09-.93-.34-.93-.34l-11.54,6,2.17,1.28s-1.6-1-.61-1.47l9.9-5.15c1.84.72,1.59.87,2.79-.38a1.91,1.91,0,0,1,2-.65c5.84.55,8.42-.29,9.43-2.73.15-.36.1-.35.69-.65a2.39,2.39,0,0,0,1.68-2.17c0-.64.31-.72.8-1.17a2.26,2.26,0,0,0,.52-2.94c-.27-.5-.47-.66-.36-1.18a3.19,3.19,0,0,0-1-2.75c-1-1.11-1-.92.86-2.62,3.59-3.4,6.76-6,10.25-9.09,2.39-2.1,2.14-2,3.07-1a14.24,14.24,0,0,1,3.22,13.94c-.07.23-.1.21.08,0,1-1.09,1-6.6.17-9-1-3-2-4.56-5.33-7.5-2.08-1.87-7.75-7.28-7.75-7.28,8.25-7.13,17.13-16,22.12-24.13C80.88,54.85,69,52.33,69,52.33c1.48-3,4.4-16.75-.6-31.93,14.67.67,29.45-.4,44.1.59,0,0,.23-.09.35-.12.41-.11.62.18.52.63-.32,1.16-2,3.88-3.23,3.65-.54-.2-.39.82-.63,1.25,1.9-.24,4.13-2.64,4.69-5,.31-.5.5-.58.81-.48s.26.44-.12,1.59c-1.19,2.87-3.6,5.54-6.4,5.28l-.37,1c3.79-.06,6.71-3.59,7.57-6.24.61-1.57.63-1.78,1.24-1.63.5.46.19,1.13,0,1.67-1.9,6.06-7.13,7.67-9.73,7.41-.31,0-.37.25-.27.75,5.59.37,10-4.43,10.67-8.54.3-1.14.83-1.53,1.14-1a2.56,2.56,0,0,1,0,1.37c-1.53,6.49-8.48,10.18-12.72,9.13-.2-.19-.52.71-.06,1,8.57-.32,11.22-4.73,13.18-8.62,2.33,3.5,4.24,7.12,9.83,9.24,0,0,.55,1.23.11,1.5-.23.14-.58.08-1.09,0-6.82-1.09-9.07,5.25-6.17,14.73.79,2.59.44,2.19-1.26,3.82-.81.77-1.19,2.14-1,2.17.29-.16.39-.6,1.09-1.19.31-.25.94-.49,1.41-.82,1.26-.72,1.25-1.22.8-2.94-.34-1.28-1.19-5.17-1.2-5.57,0-.75.18-.67,1.12,0,1.3,1,2,.9.46-.34a6,6,0,0,1-1.19-1.12c-.26-.37-.1-.6.41-.44a7.42,7.42,0,0,0,6.64-.71c.26,6.26-.6,15.74-5.86,22.52-4,4.51-11.75,1.1-14.61-.33Zm6.18-14.36a3.2,3.2,0,0,0-1.07.32c-1.55.88-1.18,4,.51,4.44a3.18,3.18,0,0,0,2.44-.29,3.88,3.88,0,0,1,1.9-.46c.56.23.74-.26.86-.82.27-1.25-1.78-1.28-3.41,0-2.06,1.63-3.64-.77-1.7-2.58.64-.41.63-.63.47-.62Zm-16,6.7,1.73,2,1.09,4.74a3,3,0,0,1-1.46-.25A58,58,0,0,1,98.9,56.92Zm23.56,1.2h-.06a2.62,2.62,0,0,1-.84.23c-.26,0-.65-.15-.93-.14a6.17,6.17,0,0,0-1.65.35.7.7,0,0,1-.66,0,4.06,4.06,0,0,0-2.71,0,2.11,2.11,0,0,1-1.74,0c-.21-.11-.43-.38-.46-.35a13.63,13.63,0,0,0-.49,1.94c0,.19-.13.49,0,.52s.4-.24.78-.43c.79-.4,1.67-.37,3.21,0,1.91.47,2.65.33,3.77-.24a2.69,2.69,0,0,1,2-.4c.15,0,.54.24.59.19s-.18-.66-.43-1.22c-.17-.4-.24-.56-.36-.54Zm-20.54,2.14a17.54,17.54,0,0,0,2.6,2.22l0,1.52a8.57,8.57,0,0,1-1.93-.16C102.34,63.24,101.47,60.27,101.92,60.26Zm13.75,1a2,2,0,0,0,.51.24c2.66,1-.13.74-.39,1.69,0,.08.12.1.25,0a10.56,10.56,0,0,1,4.16-.4c1.32.44,1.4.14.13-.52-.92-.36.2-.61.58-.93.78-.5.24-.71-.76-.23a4.74,4.74,0,0,1-3.59,0,3.42,3.42,0,0,0-.88-.36c-.34,0-.16.34,0,.45ZM105.19,63l1.56,1.22L105.16,64ZM69.9,93.47a.57.57,0,1,0,0,1.14.57.57,0,1,0,0-1.14ZM72,94l-7.14,3.38,1.88.63v2l1.74-.55.73,1.82Zm.32,1.6a.57.57,0,1,0,0,1.13.57.57,0,1,0,0-1.13ZM63.24,99.1a.56.56,0,0,0-.57.56.57.57,0,0,0,.57.57.58.58,0,0,0,.57-.57A.57.57,0,0,0,63.24,99.1Zm2.19,1.05-8,3.67,2.38.72L59.16,107l1.94-.81,1.08,1.64Zm.24,1.75a.57.57,0,0,0-.57.57.58.58,0,0,0,.57.57.57.57,0,0,0,.57-.57A.56.56,0,0,0,65.67,101.9Zm-15.92.37c3,0,6.4,1.13,7.56,3.71.31,1.28-1,2-3.67,1.31-4.48-1.22-5.32-1.36-4.57-.6a2,2,0,0,0,1,.57,23.67,23.67,0,0,0,5.83,1.14c1.21-.16,2,.4,1.74,1.4s-1.9,1.6-4.25,1.27a33.61,33.61,0,0,1-4.59-.86c-1-.32-1.07-.29-.58.44.26.37.28.68.66.75a32.36,32.36,0,0,1,4.8.35c2.64.24,3.06,1,1.11,2.13-.92.54-3.68.39-5.24-.17-1.12-.4-3.69-1-2.7-.2.24.19.16.65.57.79,1.36.19,5.2.46,5.8,1,.38.35-.49,1.23-2.28,1.69-2.7.51-6.73.3-7.8-.42-2-4-.91-10.56,2.18-13.12a7.58,7.58,0,0,1,4.47-1.18Zm17.69,2.08a.57.57,0,1,0,.57.57A.57.57,0,0,0,67.44,104.35Zm2.38.61-8.28,4.11,2.1.62-.5,2.4,1.94-.8,1.18,1.62Zm.07,2a.56.56,0,0,0-.57.57.57.57,0,0,0,.57.57.58.58,0,0,0,.57-.57A.57.57,0,0,0,69.89,107Zm4.82,4.85c-3.68,3.56-7.82,6.38-11.6,9.83l.82,0L66,119.77l58-.18-1.36,2,.57.24a19.87,19.87,0,0,0,1.62-2.68c-12.75,0-22.59,0-36.57.11-2.55-2.52-5.24-4.87-7.91-7.26ZM57.07,114.1a.56.56,0,0,0-.57.57.57.57,0,0,0,.57.57.58.58,0,0,0,.57-.57A.57.57,0,0,0,57.07,114.1Zm75.75.43c5,3.71,11,8.25,15.88,11,2,.85,1.78,1.15-.22,2.09-2,1.22-5.25,2.79-8,4.17-1.19.44-1.7-.14-2.55,0a1.59,1.59,0,0,0-1.14.74c-.59.78-.43.75-3.6.61s-4.52-.07-5.2.28-1.8,1.48-1.8,2a1.4,1.4,0,0,1-1,1.24,1.88,1.88,0,0,0-1.61,1.73,3.09,3.09,0,0,1-1,1.41,2.09,2.09,0,0,0-.55,2.48,2,2,0,0,1,.21,1.42c-.22,2.58-.4,2.37,2.38,4.28L110.41,160.2c-.33.26-.42.23-.72,0a11.24,11.24,0,0,1-3.63-5.5c-2.39-6.57.53-12,4.42-15.26,1.34-1.15,3.15-2.51,3.65-2.86C121.45,130.4,127.81,121.6,132.82,114.53ZM59.18,115l-8.09,3.81,2.6.44-.5,2.25,1.89-.72,1,1.89Zm.5,1.78a.57.57,0,0,0-.57.57.56.56,0,0,0,.57.57.57.57,0,0,0,.57-.57A.58.58,0,0,0,59.68,116.79Zm74.2,2.5-.92-2.16s-2.55,6.27-3.1,8.4l8.52-4.33-2.72-.51.31-2.45Zm-92.5.39a.56.56,0,0,0-.57.57.57.57,0,0,0,.57.57.58.58,0,0,0,.57-.57A.57.57,0,0,0,41.38,119.68Zm2.48.52s-6,2.81-8.75,4l2.54.53-.44,2.46,2.29-.89.92,2.43Zm.32,1.85a.58.58,0,0,0-.57.57.57.57,0,0,0,.57.57.56.56,0,0,0,.57-.57A.57.57,0,0,0,44.18,122.05Zm85.28.41a.57.57,0,0,0-.58.57.58.58,0,0,0,.58.57A.57.57,0,0,0,130,123,.56.56,0,0,0,129.46,122.46Zm9.85.52-2.87,7.94L144.2,127l-2.11-.58v-2l-1.73.5Zm-91.67,1.91a.57.57,0,1,0,0,1.13.57.57,0,1,0,0-1.13Zm84.84.14a.57.57,0,0,0-.57.57.56.56,0,0,0,.57.56.57.57,0,0,0,.57-.56A.58.58,0,0,0,132.48,125ZM50,125.61l-8.22,4,2.55.59-.28,2.56,2.07-1.18,1.13,2.34Zm.51,1.69a.55.55,0,0,0-.54.57.57.57,0,0,0,.57.56.56.56,0,0,0,.57-.56A.6.6,0,0,0,50.53,127.3Zm85.47.5a.58.58,0,0,0-.57.57.57.57,0,0,0,.57.57.56.56,0,0,0,.57-.57A.57.57,0,0,0,136,127.8Zm-11.33,2.61-.76-2.13-3,7.84,8.18-3.74-2.6-.6,0-2.05Zm-8.3-1.68c-.1,0-.18,0-.18.08A24.93,24.93,0,0,1,114.1,131L90,131.25c.05,0,2,.54,2,.54,3.17,2.52,8.13,7,8.13,7l6-.24c3.32-3.24,8.31-5.71,10.53-9.72a.4.4,0,0,0-.25-.09ZM139,130.34a.58.58,0,0,0-.57.57.57.57,0,0,0,.57.57.56.56,0,0,0,.57-.57A.57.57,0,0,0,139,130.34Zm-18.63,2.74a.57.57,0,1,0,0,1.13.57.57,0,1,0,0-1.13Zm12.25.82c1.73,0,3.4,0,3.83.38,2.67,2.24,1.41,12.72-2,14.05-3.7.83-6.26,1-9.47-1.13-.91-.44-2.72-1.78-2.37-2.88.48-1.36,1.81-1.26,5.6-.08,1.38.43,2.14.34,2.5.07s-.1-.53-.81-.53a16,16,0,0,1-2.54-.62,9.83,9.83,0,0,0-2.79-.62c-1.57-.1-2-.16-2-1.11,0-1.79,2.49-2,7.08-1a11.25,11.25,0,0,0,1.79.26c.17.07-.35-.59-.44-1-.17-.14-.46-.2-1.25-.23-2.95-.29-5.4-.49-5.45-.87-.26-1.89,3.56-2.41,7.52-.89,1,.39,1,.23,1-.07,0-.54-1.71-1.49-4.22-1.46s-2.1-1.22-.1-2.14C129.22,133.74,130.88,133.91,132.61,133.9Zm-9.44,2a.57.57,0,0,0,0,1.13.57.57,0,1,0,0-1.13Zm-8.79,3.92-.51-2.12L110.54,146l8.39-4.25-2.76-.52.24-1.73Zm-4.27,3.31a.57.57,0,1,0,.56.57A.56.56,0,0,0,110.11,143.16Zm8.35,2.34-.7-2-2.82,7.18,7.15-3.19-2.11-.57.3-2.18Zm-5.69,0a.57.57,0,1,0,.56.57A.56.56,0,0,0,112.77,145.52Zm1.83,2.74a.57.57,0,1,0,0,1.13.57.57,0,1,0,0-1.13Zm-3.6,1.68-2.41,6.79,6.72-3.24-2-.64s.1-1.53-.08-1.46l-1.38.39Zm6,.81a.57.57,0,1,0,0,1.13.57.57,0,1,0,0-1.13ZM108.07,154a.57.57,0,0,0-.57.57.58.58,0,0,0,.57.57.57.57,0,0,0,.57-.57A.56.56,0,0,0,108.07,154Zm2.57,2.63a.57.57,0,1,0,.57.56A.56.56,0,0,0,110.64,156.65ZM75.17,187.94c-.31.05-1.1-.68-1.26-1a1.38,1.38,0,0,1,1.18.18C75.3,187.3,75.45,187.81,75.17,187.94Zm2.44-.49c-.11.83.41,2.33.31,2.69-.27.13-1.6-1.3-1.93-1.65a5.77,5.77,0,0,1,0-1.35,2,2,0,0,1,1.59.31Zm2.41.41c.28,1.84,1.1,4.8,1,5.8a16.2,16.2,0,0,1-1.91-2.18,14.36,14.36,0,0,1-.65-4A2.19,2.19,0,0,1,80,187.86Zm-16.14-.2a6.13,6.13,0,0,1-2.93.71c-.94,0-2.57-.49-2.4-.37.43.76,1.55.36,1.57.86-.28.5-1,.45-1.39.92-.08.13.1.23.63.18a7.93,7.93,0,0,1,5.57-.09c.4.09.14-.29,0-.4a2.55,2.55,0,0,0-1-.41c-1.66-.29-.93-.46.18-.95.82-.3,1-1-.23-.45Zm3.6,2.33a9.6,9.6,0,0,0-1.38.55,4.9,4.9,0,0,1-3.35-.07,3.09,3.09,0,0,0-2.82.36,2.28,2.28,0,0,1-2.28.29c-.81-.46-.81-.3-.41.83.11.29-.09,1.15.26,1.34s.58-.35.79-.42,1.51.52,2.24-.13c1.3-.46,1.69.3,2.58.22,1.47-.51,2.38-1,3.63-.05.08-.38.37-2.4.84-2.88a.11.11,0,0,0-.1,0Zm-2.66,5.83c-1,0-1.62.66-3,.54a1,1,0,0,0-1,1.57c.32.5.75.59,2.23-.09.61-.27,1.45-.88,1.94-.83,1.45.14,1.79,1.53.59,2.7-.58.34-.59.72-.41.72a2.11,2.11,0,0,0,1.66-1.2c.6-1.81-.48-3.44-2-3.41Zm4.71,8.32a8.3,8.3,0,0,0-4,2.86c-.63,1-1.23,2.1-.79,2.65s.86.89.9,1.14-.25.42-.53.73c-1.2,1.34-.91,1.41.77.54.85-.44,1.25-.61,1.81-.47a9.16,9.16,0,0,0,5-.38c.62-.23,1.23-.54,1.28-.38a6.88,6.88,0,0,1-6.75,1.89c-.2-.05-.35,0-.35,0s.33.42,1,.73c1.15.51,3.92,0,5.65-1.29,3.42-2.23,5.31-4.36,2.61-3.47-1.24.41-1.7.33-3.2-.34-2.25-1-4-1.31-5.84-.66-2.37.82-.56-1.12,2.1-2.8.58-.37.65-.79.31-.78Zm-12.74,5.8H56c-.56-1.89-1.92-1.89-2.51,0l-.66-.05c.64-2.35,3.08-2.84,4,0Zm14,.15-.59,0c-.36-1.15-1.62-2.15-2.51-.28l-.41-.08c.72-3,3.63-1.33,3.51.33Zm-3.94-1.72c.37,0,.46.42,0,1.09-.29.48-.65.44-1,.08s-.3-.37,0-.69A1.57,1.57,0,0,1,66.86,208.37Zm4.36,0a4.2,4.2,0,0,1,.8.24c.9.31,1.1.56.74.92a1.3,1.3,0,0,1-1.37.27c0-.45-.46-.8-.48-1.25C70.91,208.44,71.06,208.39,71.22,208.38Zm-14.08,0c.63,0,1.46.34,1.4.69s-.68.65-1.19.69c-.34.05-.32-.09-.41-.33s-.18-.49-.24-.7c-.14-.41.13-.34.44-.35Zm-4.25.13s-.35,1-.51,1.39c-1.3-.07-1.18-.64-.56-1A2.18,2.18,0,0,1,52.89,208.53Zm-1,2.46a5.93,5.93,0,0,1,.94.34,9.79,9.79,0,0,0,4.57,0c.72-.16,1-.38,1.21-.27s0,.91-1,1.36a6.6,6.6,0,0,1-5,0c-1.33-.67-1.48-1.39-.72-1.38Zm-.35,1.48a5.77,5.77,0,0,0,3.95.92c2.26-.08,2.66-.36.76.64s-4.47.76-5-.25C50.93,213.21,51.13,212.52,51.52,212.47Zm10.95,1.35h0c.19,1.22,2.24,2.33,3.22,2.59,2.08.92,5.4,0,7.9-1.06,1.82-.78,2.48-2,.31-1.29-3.5,1.08-7.88,1.16-10.08.32a6.28,6.28,0,0,0-1.33-.56ZM51,218.37c4.37,1,9.65,7.7,9.63,10.63H59.2a14.25,14.25,0,0,0-8.28-9.53c-.25-.91.07-1.12.06-1.1Zm-.07,1.89A13.75,13.75,0,0,1,58.73,229H57.21a11.69,11.69,0,0,0-6.31-7.21,3.36,3.36,0,0,1,0-1.53Zm0,2.29c2.66.78,5,4.27,5.68,6.45H55.25a7.88,7.88,0,0,0-4.4-4.89,4,4,0,0,1,0-1.56Zm0,2.37A5.89,5.89,0,0,1,54.53,229H53.31a7,7,0,0,0-2.44-2.92C50.87,225.85,50.86,224.92,50.86,224.92Zm.13,2c.13-.09,2,1.59,1.68,2.05H51c0-.52,0-2.06,0-2.05Z"/><path id="path4071-9-6-8" class="cls-3" d="M98.6,20.86C95.43,27,79.17,54.51,79,55.47l4.16,1.83L103.38,21Zm47.83,23-1.76,2.49,1.43,2.85,1.73-2.72ZM72.06,71.48S66.23,77.25,64,79.94c4.9,4.87,14.26,11,14.33,20.39l6.45,0L105.62,119s18.92.14,19.27.06,7.11-9.67,7.11-9.67l12,8.7s-.57-9.37-1-15.12c-.15-3.84-.28-6.21,2.54-7.91-3.87-1.84-3.63-5.22-.78-7.7-.94-1.3-2.35-1.54-2.56-6.13a12.07,12.07,0,0,0-1.89-1.54l-.78.69c-2.48,2.23-4.18,4.49-4.46,6-.53,2.81,2.34,4.74,4,2.69.47-.58.89-.42.89.33,0,1.54-1.94,2.4-3.58,1.61a2,2,0,0,0-.75-.28c-.06.06,1.62,4.17,2.08,5.07a11,11,0,0,1,1.21,4.61c.06,1.69,0,1.91-.76,4.83-.75,2.76-.4,4.4.94,4.4.75,0,.73.72,0,1-1.62.56-2.63-.62-2.68-3.16,0-1.54-.06-1.58-.86-1.21-2.76,1.3-5.77-1-4.47-3.44.28-.51.6-.35.77.38a2.16,2.16,0,0,0,2.33,2c3,0,4.23-4.22,2.51-8.45-.34-.85-.52-.8-1,.28-.71,1.68-1.91,2.18-2.89,1.2-.33-.33-.49-.87-.27-.89l.73,0c1.74-.06,2.34-1.74,1.53-4.27a22.11,22.11,0,0,1-1-3.83,7.34,7.34,0,0,1,.82-5.08A23,23,0,0,1,137,81.28c1.3-1.3,2.41-2.3,2.41-2.3-1.23-1-2.35-1.83-3.74-2.87,0,0-8.89,24.32-8.26,33.79-1.13,12.48-10.34,9-11,.39Zm-.4,3.65c3,0,5,4,6.19,12.25.38,2.76,2.06,6.61,3.28,7.52C84.21,97.2,89,95.43,89,92c0-4.27-6-4.9-6.11-.64,0,1-.54,1.06-1,.1a3.18,3.18,0,0,1,.82-3.25c.55-.52.51-.61-.54-1.19-3.67-2-5.23-5-3.27-6.3.86-.56,2,.15,1.49.9-.84,1.18-.85,1.36-.15,2.34s1.75,1.66,4,2.32a18.73,18.73,0,0,1,3.06,1,4.87,4.87,0,0,1,2.82,6.17c-.21.58-.41,1.16-.45,1.28-.1.27,0,.27,1.84,0,2.85-.38,6,.64,7.58,2.43a8.8,8.8,0,0,1,1.54,4.93,11.14,11.14,0,0,0,.24,1.75c.13.61.3,1.64.38,2.29.75,6.18,5.91,9.34,8.14,5,1.41-2.74-1.84-5.48-3.49-3-.58.89-1.18.48-.85-.57.65-2.06,3.23-2.41,5-.68a4.89,4.89,0,0,1,.94,4.4c-.24.71-.22.75.31.57a4.54,4.54,0,0,1,3.94.76c1.73,1.84,1.38,4-.74,4.76a1.81,1.81,0,0,1-2.41-1.14c-.16-.8.4-1,.82-.34.81,1.29,2.55.25,2.14-1.28-.47-1.73-2-2.1-4.7-1.16-4.37,1.5-5.78,1.37-7.87-.7-1.49-1.47-2-2.75-2.46-5.56-.44-3.11-.48-3.2-1.26-2.54-3.69,3.13-8.57-1.6-5.44-4.71,1-1,1.68-.13.81.95-1.27,1.58.38,3.77,2.46,3.26,3.78-.93,3-6.45-1.08-7.73-1.25-.4-4.68-.23-7.31.34C80.8,98.47,77.55,95.34,76,85.2A37.17,37.17,0,0,0,75,80.59c-.83-3-3.65-4.67-5.18-3-1.23,1.31-.59,3.08,1.12,3.08s1.18,1.17-.59,1.33c-3.08.27-3.62-4.84-.66-6.3a4.69,4.69,0,0,1,2-.55ZM31.41,77l1,3.69,3.8,1.07L35,78.26Zm9.82,1.14-1,3.29,2.84-1,1-3.15Zm31.31,5.38a1.09,1.09,0,1,1-1.1,1.09A1.09,1.09,0,0,1,72.54,83.48ZM36.15,85.39l-3.31,1.1-.58,2.61,3-.68Zm6.91,1.18-2.38-.72.56,2.69,2.6,1Zm106.39-.51-1.58,1.22c4.6,4-.36,7.82-.52,7.56,3.33,2.19,2.74,5.64,2.3,8.81-.78,5.64-1.09,11-2,16.77a45.61,45.61,0,0,0,6.67,3.81s0-33.94,0-33.94ZM92.73,91.17a1.09,1.09,0,1,1-1.1,1.09A1.09,1.09,0,0,1,92.73,91.17ZM25.52,94l.14,31.68,6.58-11.72-4.53-5.21,3.92-4.16A113.9,113.9,0,0,1,25.52,94Zm64.1,4.83a1.09,1.09,0,1,1-1.1,1.09A1.09,1.09,0,0,1,89.62,98.79ZM104.56,102a1.09,1.09,0,1,1-1.09,1.09A1.09,1.09,0,0,1,104.56,102Zm42.81,35.29,4.83,4.94-3.83,4.68,6,10.06-.09-31.1ZM25.46,126.92,25.69,161l5.17,3.76,1.31-1.23c-3.33-3.55-1.34-6.19,1.17-7.72-4.43-1-3.09-6.89-2.82-9.61-.11-5,1.75-10.79,1.18-15.64Zm29.78,4.73-7.41,10.28s-8.14-6.14-12.25-8.91c.44,4.44.84,10.1,1.39,14.87,1.33,7-2.14,7.09-2.17,7.76,5.51,4.16.88,8.06.06,7.86,2.93,1.59,2.69,6.43,2.69,6.43l1.39.78.64-.37a12.18,12.18,0,0,0,4.47-5.52c1-3.18-1.83-5.82-3.57-3.4-.86,1.18-1.54.39-.84-1a2.72,2.72,0,0,1,3.42-1.28c.65.35.51-.55-.49-3a27.36,27.36,0,0,1-1.08-3.62,10.74,10.74,0,0,1,.51-6.17c1.14-3.17.74-5.17-1.09-5.34-1-.1-1.08-.4-.29-.85,1.78-1,3.5.43,3.43,2.84,0,1.31,0,1.33.67,1.05,3.5-1.4,6.27,2.22,3.82,5-.75.85-1.22.31-.73-.83.76-1.76,0-3-1.74-3-2.59,0-4,3.53-3,7.44.32,1.22.37,1.24,1.23.42s1.33-.95,1.92-.78c1.22.37,1.54,1.66.37,1.5-2-.27-2.55,1.83-1.41,5.57,1.51,5,0,9-4.49,11.87-.22.14-.58.42-.58.42a30,30,0,0,0,5.1,3.78l8.14-32.74a26.13,26.13,0,0,0-.34-2.73c0-8.79,8.23-9.63,10.8-1.65A19.64,19.64,0,0,0,65.37,141l42.86,37.88s8-7.7,7.89-7.91c-6.08-6.1-14.29-10.41-14.59-20.09-1.46-.05-6.33,0-6.33,0l-20.83-19c-6.54,0-12.34-.43-19.13-.23Zm11.67.71c1.15,0,2.3.56,2.3,1.51s-.55,1-1,.34c-.63-.93-1.38-1-2.13-.21-2.09,2.19,1.16,4.19,4.9,3,2.28-.72,3.39-.91,4.23-.74,3.53.7,5.24,3.07,5.54,7.7.15,2.35.15,2.34,1.17,1.41a3.89,3.89,0,0,1,6.63,2.33A3.14,3.14,0,0,1,85.76,151c-.58,0-.49-.6.13-.9a2.34,2.34,0,0,0,.11-4c-1.93-1.22-4.48.68-4.45,3.32q.06,4.77,7.12,4.37l3.84-.18c2.24-.1,4.65-.52,6.94,1.2,2.4,1.9,4,5.67,4.66,11.12,1.08,6.71,1.9,8.51,4.16,8.67a2.37,2.37,0,0,0,2.48-2.37,1.75,1.75,0,0,0-2.17-1.44c-1.14.37-1.37-.85-.25-1.32,1.55-.64,3.44.6,3.86,2.54.24,1.13-1,3.29-2.38,3.83-3.5,1.42-6-1.47-6.81-7.91a38.91,38.91,0,0,0-1.7-7.48c-1.7-4.65-4.5-6.57-7.54-5.18-3.44,1.57-2.76,6.71.89,6.67,2,.16,2.43-1.31,2.47-2.88,0-1.16,1.36-.07,1.47.73a3.58,3.58,0,0,1-1.53,2.73c-1.24.82-.8.77.47,1.11,3.42.62,6,5.12,3.91,6.65-1.06.64-2.18-.3-1.45-1.23,1.17-1.49-.81-3.82-4.41-4.61-4.72-1-6.59-4.53-4.89-8.12.56-1.19.61-1.16-1.69-1-5.06.28-6.86-.41-8.56-3.34-.51-.88-.74-2.06-.85-4.4-.19-4.2-.58-6.8-1.11-7.53-2.63-3.62-8.1-2.53-7.41,1.47a2.27,2.27,0,0,0,4,1.25c1.12-1.16,1.65-.08.55,1.13-2.64,2.91-7.24-.49-5.88-4.35.32-.88.36-.85-1.34-.9-3.77-.11-5.57-3.33-3.13-5.61a2.39,2.39,0,0,1,1.61-.62ZM76,146.17a1.09,1.09,0,1,1-1.1,1.09A1.09,1.09,0,0,1,76,146.17ZM91.18,150a1.09,1.09,0,1,1-1.09,1.09A1.09,1.09,0,0,1,91.18,150Zm-3.25,7.11a1.1,1.1,0,1,1-1.1,1.09A1.09,1.09,0,0,1,87.93,157.15Zm48.2,4.25.69,3.22,2.51.66-.39-2.76Zm8.79,1.11-.06,1.92,2.24.26.79-3.3Zm-37.53,2.89a1.09,1.09,0,1,1-1.09,1.09A1.09,1.09,0,0,1,107.39,165.4Zm32.1,4.44-2.63.73-1.26,3.63L139,173Zm5.14.33.32,2.69,3.24,1.46-1.1-3.84Zm-47.71,23-20.1,36.19,5.49-.07,19-34.13Zm-63.2,8.76-1.78,2.38L33.63,207l1.93-2.78Z"/><path id="path4069-2-6-0" d="M67.86,20c3.7,11.17,4,22.18.84,32.76,1.83.1,9.81,2.13,14.2,4.83-.81,2.09-13.27,17.35-21.72,24.22,2.4,2.37,5.05,4.74,7.83,7.36,4.2,4,5.68,6.71,6,11.86a14.22,14.22,0,0,1-2.52,7.74,17.63,17.63,0,0,1-5,4.6c-2.36,1.56-5.82,4.92-10.16,9.87-1.66,1.89-4.46,5.32-6.77,8.6C49.59,133,47,136.71,47,136.71a126.9,126.9,0,0,0-18-12.35s9.29-4.94,11.25-5.94c1.5,1,3.54.13,2.56-2a14.45,14.45,0,0,1,1.74-13.21c.56-.84,1.89-1.32,4.05-1.47.93-.06,1.92,0,2.91-.05a4.93,4.93,0,0,1,1.85.43c1.76,1,2.11-.27,3.21-4.41s-.67-9.33-3.17-9.35c-.59,0-.92.22-.8,1.68a4.3,4.3,0,0,1-.46,2.38,17.1,17.1,0,0,0-1.15,5c.36.08-2.32-2.66-6.56-3.75-2.76-.32-4.15-3.74-4-3.74a5.87,5.87,0,0,1,.78-1.29,18.46,18.46,0,0,0,3,1.3s-.26-1.37-.36-1.74c-.51-1.91-.48-2.2.25-2.59,1.84-1,2-2.74.6-4.34a2.93,2.93,0,0,0-1.15-.87l.9-3.59s-.82.18-1.49.38c-1.91.58-1.77.6-2.58-.33-1.78-2-4.5-1.63-4.9.7-.05.25-.16.66-.16.66l-4.09-2a43.32,43.32,0,0,0,1.18,4.19c-3.57,2.76-.55,5.21.42,5.47,0,0-.83,2.64-1.12,3.74l4-1.14a4,4,0,0,0,1.6,1.88c.21,2.26,2,4.08,3.17,5.17a4.28,4.28,0,0,1,.06,1.36c-.26,1.31,1.08,3.39,1.31,3.52-5.53-2.26-11.3-5-16.86-7.62L25.26,161s1.3,1.15,3.87,3c1.24.88,1.24.88,1,1.9-.34,1.34-.26,2.36.89,11.17.61,4.67,1.27,9.5,1.86,13.84a23.83,23.83,0,0,1,.27,2.59c-1.23-.56-3-.62-3.94.41a2.79,2.79,0,0,0,2,4.66,2.45,2.45,0,0,0,1.37-.5.8.8,0,0,1,.65,0l-3.53,6.17L33.78,211l4-7.28L34.88,198a1.37,1.37,0,0,1,.69.17,3.72,3.72,0,0,0,1.3.37c2.05,0,2.48-.92,2.69-2.6,0-2.16-1.72-3.14-4.1-2.33a4,4,0,0,1-.79.17L37.17,170l1.33,1,.44-.24-1.17-1c.26-3.81-1-5.16-2.37-6.08C40,161.06,38,157,35,155.73c0,0,2-1.15,2.36-2.35s.21-2.78-.17-5.8c-.29-4.66-1.29-14.29-1.29-14.29,4,3,8.06,6.19,11.91,9.22l7.7-10.67L74,132s14.11,12.76,21.22,19.27l6.13,0s.06.65.13,1.09c.58,6.3,4.82,10.63,8.68,13.66,1.58,1.41,5.47,5.11,5.47,5.11l-7.21,7.24-44.18-39.3s-.21-.57-.3-.92c-1-4.16-3.78-5.91-6.3-5.61s-4.9,2.9-4.78,7.31a13.41,13.41,0,0,0,.26,1.88l-8.07,33.49s-3.23-2.46-5-3.64l-.38.22,4.72,3.54.35-.15,1.34,1,.11.72c4.13,2.8,11.14,8,11.14,8,3.3-2.45,6.78-1.63,10.26-.71a16.88,16.88,0,0,0,3.88.84,59,59,0,0,1,19.27,3.77L67.61,229.83l44.17.09c-2.18-8.57-4.49-17.27-.36-31.89-4.35-.88-14-4.74-14-4.74s0-.22.36-.72c1.8-2.55,6.32-9.46,10.57-13.46.51-.37,7.91-7.52,8-7.74a1.68,1.68,0,0,1,.51-.8c.68-.45,2.49-2.16,2.49-2.16l-9.25-8a2,2,0,0,1-.54-.12c-1.29-.72-3.63-4.73-4.2-7.42-1.32-6.18,1.12-11.07,8-16.09,6.73-4.59,19.47-22.38,19.51-22.78,6.88,5.67,12.24,8.6,18.29,12.32-3.65,2.09-6.63,3.48-9.19,4.86-1.66.95-1.88,1.14-3.29.75-1.58,0-2.13.62-1.72,2,2.4,3.79,1.37,12.6-1.88,14.29a9.29,9.29,0,0,1-7.83.24c-1.75-.56-1.73-.56-2.51,1a11.15,11.15,0,0,0-.24,10.19c1.3,2.81,3.23,4.08,3.47.31.14-2.22,1.12-4.81,1.09-7.2a11.4,11.4,0,0,0,6.51,4c2.17.34,4.47,3.05,4.4,4.15-.6.6-.78,1.36-.87,1.31-1.06-.34-3.35-1.31-3.35-1.31l1,3.43a3.5,3.5,0,0,1-.63.39c-2.16,1.09-2,4.05.24,5.23.46.24.5.36.3,1-.28,1.4-.9,2.35-1.23,3.74a13.76,13.76,0,0,0,2.88-1.17l1-.47.61.65a2.74,2.74,0,0,0,4.34,0l.64-.66,1.79.9c1.69.85,2.13,1,2.13,1s-1-3.76-1.15-4.19a1,1,0,0,0-.45-.52c-.24-.09-.2-.15.44-.65,1.62-1.29,1.79-3,.4-4.4a5.78,5.78,0,0,1-.59-.62l.84-3.48-3.48,1.15a3.87,3.87,0,0,0-2-1.94c-.06-1.57-.26-3.19-3-5.64.91-.84-.17-2.84-1.07-4,1.53.51,5.34,2.12,5.34,2.12l.58,0,1.82.87.22.33s5.73,2.69,8.36,3.95c0-.14,0-3,0-34,0-18.52,0-33.75,0-33.84A10.68,10.68,0,0,0,153.71,89c-1.21-.91-1.46-1.09-3-2.11-1.23-.81-1.15-.81-.89-1.75s.28-2.57-.1-5.36c-.29-2.05-1.33-9.29-2.06-15.12-.51-4.1-.63-5-.75-5.67a9.14,9.14,0,0,1,0-2.4c5.75,2.48,6.21-5.76.44-4.64,1.1-2.22,2-3.25,3-5.62-1.21-2.58-3.87-7-3.87-7l-4.22,7.32,2.48,5.06c-2.85-.51-4.37,1.56-3.84,3.42a2.46,2.46,0,0,0,3.55,1.44c1.07-.42,1.07-.53.12,7.5-.28,2.37-1.53,13.47-1.7,15.12-.12,1.11-.19,1.42-.65,1.17a10.81,10.81,0,0,1-1.58-1l-.34.32c.54.44,1.19,1,1.86,1.62-.15,2.94-.09,4.64,2.36,6.08-4.45,2.78-1.85,7,.77,7.67-1.56.4-3.1,2.4-2.72,6.37l1.26,16.35-12.07-8.92-7.09,10.1L106,119,84.92,100s-4.62-.06-6.51-.1c.22-.1-.4-5.85-3.44-9.61-3.32-3.92-10.85-10.4-10.85-10.4l7.92-8,44.45,39.86s.22,1.13.33,1.61c1.49,6.29,8.67,6.67,10.2.26a16.86,16.86,0,0,0,.43-3.73,16.51,16.51,0,0,1,.5-2.34c2.39-9.33,4.43-17.38,6.78-26.35.32-1.23.66-2.61.76-3,.39-1.82.33-1.81,2.24-.37,1.17.87,1.65,1.19,1.65,1.19l.37-.39c-1.31-1-3.55-2.62-3.55-2.62l0-.69c-7.22-5.15-8.7-6.51-13-9.89-3.31,2.91-8,1.73-11,.7-.77-.3-2.64-.78-2.64-.78a63.26,63.26,0,0,1-20-3.41L113.21,20h-9.13l-.32.36H99L99,20Zm87.21,138M94.82,20.9l3.23.06L78.92,55l-2-.79s.19-.09.19-1.53a4.3,4.3,0,0,0-1-3.1c-.59-.79-.83-.83.87-.6a4.47,4.47,0,0,0,4.58-6.25c-.53-1.14-.46-1.21,1-1.35A4.52,4.52,0,0,0,85.1,33.6c-.57-.51-.32-.84.75-.61,3.36.72,6-3,4.63-5.91-.43-.81,0-.95.57-1a4.69,4.69,0,0,0,3.77-5.15ZM69,20.91H84c-2,3.07,1.54,4.89,2,4.67-3.23,1.76-2.34,4.24-.67,5.09s4.07.08,3.42-3.49l.8-.35c.78.88,1.55,6.32-4.39,5.56-1.06-.13-1.63.85-.75,1.4,4.7,5.38-2.65,7.75-3,6.86l0-.91c2,.36,4.53-2.19,2.3-4.46-1.27-1.29-4.94-.66-4.31,3.25-2.18-3.23-4.55-2.25-5.19-.54a2.57,2.57,0,0,0,2.3,3.44c-2.42,2-1.24,4.27.42,4.77,1.84.55,3.71-.19,3.21-3.52,0-.31.67-.21.72-.23,1.9,4.72-2.64,6.46-5.09,5.48-.91-.35-1.38,1-.42,1.76,1.46,1.07,1,4.17.84,4.21a42.44,42.44,0,0,0-6.47-1.73A58.13,58.13,0,0,0,69,20.91Zm23.88,0h1.35a4.29,4.29,0,0,1-4.13,4.67A5.58,5.58,0,0,0,90,24c1.24-.28,2.88.06,2.93-3.12Zm5.91.11,4.32,0L82.81,57l-3.25-1.67ZM88.16,23.74a1.38,1.38,0,1,1-1.38,1.38A1.38,1.38,0,0,1,88.16,23.74ZM79.5,39.41a1.28,1.28,0,1,1-1.28,1.28A1.27,1.27,0,0,1,79.5,39.41Zm66.92,1,3.44,6-3.93,6.92-3.28-6.63Zm-.07,2-2.42,4,2.2,4.08,2.5-3.87Zm.05,1.71,1.25,2.41L146.13,49l-1.26-2.58Zm-3.33,8.09a2.11,2.11,0,0,1,.82.17c2.32,1,1.58,4.48-.9,4.26a2.68,2.68,0,0,1-1.06-.41A2.24,2.24,0,0,1,143.07,52.26Zm5.66.06a2.24,2.24,0,0,1,1.12,4.16,2.48,2.48,0,0,1-3.18-.79,2.37,2.37,0,0,1,.87-3.08A2.6,2.6,0,0,1,148.73,52.32Zm-2.81,4c.2,0,.42,1,.62,2.7.07.62.27,2.16.44,3.43.32,2.71.65,5.23.93,7.85.06.51.2,1.61.31,2.43,1.17,8.49,1.44,11.2,1.16,11.92-.74,2.54-4.21,2.73-5.66,1.26-1.09-1.11-1.25-2.34-.82-5.52.25-1.83.35-2.76,1.08-9.78.17-1.65.42-3.83.55-4.86.29-2.75.64-5.32,1-8C145.65,56.76,145.78,56.32,145.92,56.33ZM89.11,62.64s11.11,3.65,19.56,3.48a6.92,6.92,0,0,1,3,.49c.91.3,2.35.7,3.2.9a12,12,0,0,0,6.92-.47c.32-.13.79-.52,1.26-.37.29.08.71.65.71.65-7.4,2-24.71,1.6-35.49-2.92Zm57.08,1.16c-.05,0-.1.07-.15.16-.18.28,0,2.15.64,8.09,1.28,11.36,1.28,11.6-.28,12.79-.76.59-.88.83-.52,1s.26.16.81,0c1.31-.36,1.86-1.39,1.85-3.51A36.38,36.38,0,0,0,148,76.6c-.17-1.37-.41-3.3-.53-4.3-.84-7.07-1-8.54-1.28-8.5ZM88,65c11.06,3.94,22.62,5.06,36.55,2.93,0,0,1.34.87,2,1.29l-.47.11.21,1.91,2.37-.37s1.28,1,2.23,1.63C118.47,76.27,98.41,75.62,86,70.14a6.05,6.05,0,0,1-.74-.49,4.3,4.3,0,0,1,.92-1.4l2.26.64.65-2-1.73-.63Zm2.9,2.45-.73,2,3.16.93.54-2.06Zm4.83,1.26L95.3,71l3.17.58.4-2.24ZM101,69.77,100.72,72l3.36.36.21-2.25Zm23.11,0-2.86.31.18,2,2.89-.34Zm-5,.56-2.84.19.1,2,2.85-.18Zm-12.79,0v2.17l2.91.11,0-2.22Zm8,.27h-2.68v2.07l2.71,0Zm-31.1.37c.29,0,1,.63,1.22,1.35.54,1.41.3,3-.55,3.49-1.14.71-2.49-.4-1.7-1.39a1.26,1.26,0,0,1,.5-.4c.59-.19.73-1.11.41-2.71C83,71.16,83,71.06,83.14,71.06Zm4.29.54A77.51,77.51,0,0,0,127,74s-6.63,27-6.77,27Zm-5.87.08c.63,0,.75,1.06.18,1.63-.73.72-2.11.14-1.82-.76A3,3,0,0,1,81.56,71.68Zm3.44.63c.13,0,.38.24.77.77,1.35,1.8,1.45,3.82.25,4.74-1.41,1.07-2.44-.6-1.27-2.06.31-.37.35-1.07.17-2.62C84.86,72.59,84.87,72.32,85,72.31Zm46.43.65a2.81,2.81,0,0,1,1,.38c.86.42,1.16,1,.75,1.52-.6.73-2.25-.7-1.94-1.67,0-.15.1-.23.22-.23Zm-1.29.93c.21,0,.55.42,1,1.22.26.51.41.66.84.81,1,.37,1.21,1.42.31,1.74s-1.7-.36-2.15-2.07C129.79,74.46,129.86,73.87,130.14,73.89Zm-42.83.76c.15,0,.43.32.88,1,1.34,2,.88,5.74-.81,6.62A1.36,1.36,0,0,1,85.53,82c-.88-.87-.66-1.55.63-2,1.11-.4,1.46-1.65,1.12-3.92-.13-.91-.14-1.36,0-1.37Zm6.37.62c8.18,6.72,15.56,13.92,25.07,22.32,2.26-6.92,5.56-21.29,5.57-21.34C124,76.54,108.34,78.75,93.68,75.27Zm30.64,1s0,0,0,0Zm5.07-1a5.19,5.19,0,0,1,.75,1.94,4.79,4.79,0,0,0,1.33,2.28c1.61.27,2.3,1.17,1.5,2-.59.58-1.85.25-2.46-.64-1.15-1.67-1.93-5.54-1.12-5.54Zm-91.23.93A2.16,2.16,0,0,1,40.3,78.1c.28,1.46-.55,2.53-1.26,2.36S38,79,38,79a5.28,5.28,0,0,1-.5,1.48c-.68,1-2.12-.51-1.87-2A2.55,2.55,0,0,1,38.16,76.22Zm58.19.39a98.76,98.76,0,0,0,27.19.53l-5,19.35Zm-6.72,0c.13,0,.4.24.82.69,1.39,1.45,1.78,3.48.89,4.48-.55.61-.92.68-1.5.28-.74-.5-.8-1.27-.12-1.62s.68-1,.19-2.37c-.37-1-.48-1.48-.28-1.46Zm-58.09.5,3.25,1.34L36,81.22l-3.25-.84Zm12.3.36-1,2.72-2.51.93,1-2.94Zm84.86.57c.12,0,.3.34.52,1.06.53,1.76.76,2.21,1.25,2.44a.9.9,0,0,1,.1,1.68c-.48.22-.63.18-1-.27a6.49,6.49,0,0,1-1-3.21C128.49,78.65,128.55,78.07,128.7,78.07ZM92.49,79.3c.09,0,.23.13.43.37,1.27,1.5,1.41,3.8.27,4.48s-2.63-.7-1.67-1.5L92,82.3c.27-.2.29-.32.31-1.62C92.29,79.72,92.33,79.31,92.49,79.3Zm9.6.16,15.57,14.1,3.58-14A112.67,112.67,0,0,1,102.09,79.46Zm-38.26.71c4.92,5.17,11.36,9.36,12.89,14.5a17,17,0,0,1-5.69,20,60.9,60.9,0,0,0-9.9,8.87c-4.74,5-7.9,10.51-11.06,14.5-.54.67-2,2.77-2,2.77s-.7.79-3-1.14A110.49,110.49,0,0,0,26,126.54L28.74,125a126.31,126.31,0,0,1,18.41,12.7s4.87-7.09,6.42-9.12c2.26-2.91,3.84-4.79,5.94-7,5.36-6.59,10.89-8.77,13.19-12.11a14.43,14.43,0,0,0,.75-15.63c-2.74-4.72-8.06-8-11.59-11.87Zm46.7.38h6.09s-.9.74-1.58,1.2c-.43.29-.93.25-1.88-.15s-2.63-1-2.63-1Zm7,0,1.42,0A22.61,22.61,0,0,1,115.35,84c-.19.08-.29.11-.72,0-2.91-1-5.58-2.18-8.41-3.33h2.52s1.22.39,3.05,1.14c2.09.87,2.63,1.13,3.44.6s1.42-1.29,2.27-1.78Zm2.88,0-.51,1.86a34.89,34.89,0,0,1-4,3.47c-.34.18-.33.21-1.8-.36-5.41-2.09-8-3.45-8-3.45l-1.1-1s1.41.4,2.34.77c.63.25,1.72.65,2.4.91s2.21.9,3.23,1.29c2.34.92,2.21,1,4.46-1a32.79,32.79,0,0,1,3-2.49Zm-82,.17,2.37,2.7-3.15,2.63-2.38-2.78Zm89.61,0a11.32,11.32,0,0,0,1.79,3.07c.66.63.83,1.11.44,1.47-1,.63-1.21-.39-1.53-1.06-.56-1.17-1.24-2.76-.7-3.48ZM42.6,81h.19c2.51,0,3.11,3.75.74,4.64a2.3,2.3,0,0,1-2.35-.35c-.52-.51-.59-.94-.24-1.21a4.52,4.52,0,0,1,1.85-.41A15.11,15.11,0,0,1,41.08,83c-1-.59-.14-1.91,1.52-2Zm51.85,0c.14,0,.39.29.74.87,1.27,2.09,1.2,6.06-.12,7.07a1.53,1.53,0,0,1-2.13-.19c-.76-.83-.52-1.68.61-2.18s1.31-1.55.86-4.2C94.26,81.45,94.27,81,94.45,81Zm-61.11.07a2,2,0,0,1,1.84.85c.27.44.14.76-.37,1a13.15,13.15,0,0,1-1.77.46,10.26,10.26,0,0,1,1.81.46c.85.37.78,1.06-.46,1.65-2.41,1.13-4.68-2-2.69-3.75a2.57,2.57,0,0,1,1.64-.65Zm63.17,1.49h0a2.26,2.26,0,0,1,1,.89c1.43,1.89,1.68,4.73.46,5.28s-2.21-.62-1.28-1.67c.65-.75.57-1.84-.3-4-.13-.32-.1-.48,0-.5Zm30.92.09c.11,0,.32.45.65,1.37.73,2,1.35,2.86,2.1,2.86a1,1,0,0,1,.69,1.81c-1.47,1-3.39-1.49-3.53-4.61,0-.94,0-1.42.09-1.43Zm-7.76,1-.43,1.65s-1,1-1.72,1.59c-1.14,1-1.42,1.17-2.31.86-1.39-.47-2.75-.9-4.19-1.34l-3.33-2.74,7.59,2.95s.66.2.89,0C117.17,85.61,118.26,84.84,119.67,83.66Zm7.17,1.54c.09,0,.19.1.25.41.35,1.55.85,2.67,1.27,2.85a.82.82,0,0,1,.51,1.15c-.65,1.35-2.35-1-2.35-3.29,0-.64.16-1.08.32-1.12Zm-27.41.11c.09,0,.24.14.48.37,1,1,1.36,3.94.52,4.78-1.22,1.21-2.52-.6-1.34-1.86.32-.33.32-.36.24-1.84C99.28,85.73,99.28,85.32,99.43,85.31Zm-63.61.29L35,88.31,32.38,89,33,86.76Zm3.15.28a1.13,1.13,0,0,1,.69.25,2.38,2.38,0,0,1,.66,3.06,2.28,2.28,0,0,1-2.41,1.13A2.17,2.17,0,0,1,35.83,88a2.22,2.22,0,0,1,.75-1.68c.31-.22.57-.13.84.32s.68,1.42.68,1.42a7.76,7.76,0,0,1,.16-1.53A.78.78,0,0,1,39,85.88Zm2,.24,1.9.64.75,2.57-2.13-.82Zm108.34.48a21.78,21.78,0,0,1,3.14,2.28c.65.51,1.75,1.49,1.75,1.49l-.07,33.55L148,120.11l.32-2.94s.84-8.87,1.49-13.52c.45-5.19,1.45-6.67-2-8.87,3.75-2.34,2.69-6,.34-7.51Zm-30.56.12-.34,1.54c-1.23,2.1-2.34,2-4.23,1l-2.27-1.92a33.35,33.35,0,0,1,3.7,1.22,1.25,1.25,0,0,0,1.47-.38c.58-.52,1-.91,1.67-1.48Zm-16.81.81c.77.84,1,1.66.9,3.69-.14,1.45-.08,2.53-1.27,3.34a2,2,0,0,1-2,0c-1.08-.72-.48-2.16.93-2.23.89,0,1.26-2.92.75-4.73-.08-.28,0-.47.08-.48a1.06,1.06,0,0,1,.65.41Zm24.1-.11c.17,0,.48.44.66,1.16a2.65,2.65,0,0,0,1.21,1.93c.74.37,1,1.1.51,1.53-.95.85-1.91-.17-2.22-2.35C126.18,89.44,125.75,87.44,126,87.42Zm20.28.36a3.15,3.15,0,0,1,3.3,3.28,3.41,3.41,0,0,1-2,3.13c-3.1.91-4.79-1.15-4.76-3.16A3.36,3.36,0,0,1,146.32,87.78Zm-42.54,1.16c1.77,1.77,1.85,5.55.12,5.55-2.08-.69-.46-1.91-.42-2.23a8.22,8.22,0,0,0-.44-3.35C102.91,88.19,103.59,88.73,103.78,88.94Zm42.66-.17c-.38,0-.35.36.33,1a1.68,1.68,0,0,1-.93,3c-.72,0-.9.48-.27.74,2.43,1,4.09-2.71,1.91-4.25A2.24,2.24,0,0,0,146.44,88.77Zm-93,.5c2,.66,2.63,4.37,2.71,5.68.09,2.28-1,6-1.93,6.75-2.46,1.93-3.61-4.88-1.51-9.27a2.76,2.76,0,0,0,.33-1.74c-.09-.89.06-1.42.4-1.42Zm64.65.36a13.09,13.09,0,0,1-.51,1.72c-.31.7-.53.72-1.23.12-.4-.33-1-1-1-1,.62.1,1.17.42,1.69.16A3,3,0,0,0,118.12,89.63Zm7.42.05c.14,0,.32.4.55,1.16.65,2.11,1.21,2.9,2.06,2.9a1.07,1.07,0,0,1,.39,2.11,1.76,1.76,0,0,1-1.28,0c-.94-.25-2.23-3.42-2.05-5,.09-.75.19-1.13.33-1.13Zm-86.1,1.23c.52,0,.72.24,1,.86a5.26,5.26,0,0,0,2,2c1.84.89,3.78,1.6,5.59,2.5,2.36,1.18,4.47,4.78,3,5.16a5.42,5.42,0,0,1-1.66.08,2.93,2.93,0,0,1-.76-.88,10,10,0,0,0-6.18-4.27c-2.18-.56-4.14-3.24-4.56-4.5-.11-.33-.11-.58.18-.66a5.65,5.65,0,0,1,1.35-.29Zm66.38.22c.1,0,.24.1.46.33,1.3,1.39,1.46,3.93.29,4.65s-2.37-.51-1.38-1.61c.44-.48.44-.48.44-1.93,0-1,0-1.42.19-1.44Zm18.92,1.61c.15,0,.39.43.67,1.28.4,1.2.45,1.29.91,1.53.78.4.91,1,.34,1.57-1.07,1-2.14-.65-2.14-3.4,0-.66.08-1,.22-1Zm-17,.19a1.52,1.52,0,0,1,.58.47c1.59,1.88,1.27,6.28-.51,6.94-.59.22-.77.23-1.14.07-1.32-.57-1.16-2,.47-2.84C108.37,96.91,107.5,92.94,107.75,92.93ZM26.36,94.32l6.57,3.24s1.8,3.78,2.63,5.2c.57,1,1.71,1.93.53,2.58-2,1.34-3.1,2.1-3.08,2.93,0,.67.85,1.35,2,2.68,1.62,1.89,1.6,1.46.13,4.35A32.91,32.91,0,0,0,33,121.93l-6.64,3.4a40.57,40.57,0,0,1,6.91-11.56,30.17,30.17,0,0,1-5.26-4.9,38.22,38.22,0,0,1,4.43-4.48,29.2,29.2,0,0,1-6.12-10.07Zm83.12.05h0c.27,0,.9.7,1.46,1.8.71,1.41.78,3.2.14,3.83-1.09,1.09-2.52-.31-1.49-1.48.72-.52.52-1.82,0-3.17-.26-.65-.25-.95-.1-1ZM25.63,95a61.77,61.77,0,0,0,5.58,9.35l-4.28,4.47a46.34,46.34,0,0,0,5.16,5.06c-2.75,3-4.56,7.31-6.36,11.34Zm98.37.08c.15,0,.36.45.58,1.33.27,1.11.46,1.39,1.11,1.67,1,.44,1.06,1.44,0,1.8a1.43,1.43,0,0,1-1.35-.73,5.44,5.44,0,0,1-.58-2.49C123.75,95.61,123.84,95.07,124,95.09Zm23.72.67c1.62.45,2.2,2.06,1.89,5-.42,4-.92,8.45-1.32,12.12-.47,4.24-.85,6.93-.85,6.93l-.4-.3s.11-2.29.26-3.7c.37-3.16.57-5.94.87-9.1.69-7,.52-9.26-.76-9.91-1-.5-1.41-.2-.68.48,1.39,1.07,1.35,1.52-.14,18.84-.15,1.79-.22,3.06-.22,3.06l-1.89-1.17s-.13-1.48-.31-3.72c-.43-4.23-.68-8.73-1-12.78-.3-4.32.51-5.83,3.2-5.93a4.09,4.09,0,0,1,1.31.13ZM113,98.27c.21.57,1.15,4.83-1.25,3.61a.86.86,0,0,1-.21-1.47,3.06,3.06,0,0,0,.39-2.75c-.16-.76-.36-1.4-.36-1.4.47.17,1.38,1.86,1.43,2ZM41.67,96.93a11.31,11.31,0,0,1,5.69,3c.9.94.85,1.7-.54,1.79s-1.37.42-2-.14a3.45,3.45,0,0,0-1.48-.87C41.29,100.44,40.26,96.66,41.67,96.93Zm81.94,1.12a11.73,11.73,0,0,1,.41,1.5c.3,1.35,1.23,2.34,2.07,2.22.56-.07,1.34.1,1.42.77a1.11,1.11,0,0,1-.75,1.35,2,2,0,0,1-2.08-.45c-1.25-1.17-2-5-1.07-5.39Zm-9.77,0c.73.28,1.66,2.6,1.76,4.44,0,1.32-.21,3-1.35,3.61a1.27,1.27,0,0,1-1.8-.45,1.34,1.34,0,0,1,.72-1.94c1-.46,1.35-2.51.73-4.52C113.87,98.91,113.36,98,113.84,98.1Zm-77.54,1,5.36,2.71a13,13,0,0,0-1.82,3.16A23.54,23.54,0,0,1,36.3,99.06Zm79.55.93c.1,0,.4.29.67.55,1.34,1.29,1.92,3.63,1.11,4.49-.64.68-1.77.63-2-.09-.07-.35.31-1,.47-1.32a4.35,4.35,0,0,0-.08-2.8C115.89,100.37,115.74,100,115.85,100Zm-37.21.53,6,.21L105,118.92l-1.9,0L84.43,102l-5.79,0ZM43.77,103.8a14.47,14.47,0,0,0-1.52,12.36c1.07,2.91-1.28,3.08-2.24,1.17a13.13,13.13,0,0,1-.95-6.58c.32-4.29,2.31-8.6,3.9-9.12S44.22,103.21,43.77,103.8Zm83.09,8.8c-.62,2.86-1.76,4.29-3.38,4.88-6.62,2.44-9.5-10.86-3.36-14,5.85-1.94,7.55,5.38,6.74,9.16Zm-48.59-8.69L84,104c5.21,4.71,10.8,9.11,16.37,14.85H97.66l-1-.93c-5-4.48-8.76-8.13-13.61-12.29l-5.1-.14Zm43.56.88c-3.09.12-3.34,4.29-3.25,5.87.23,2.27,1.14,5.63,4,5.36,2.13-.21,3.11-2.71,2.92-5.73-.18-2.83-1.35-5.5-3.7-5.5Zm-44.08,1.38,5,.11c4.41,3.84,9.08,8,13.72,12.6H94.29l-.74-.72C89.79,114.78,86,111,82.34,108l-5.2-.2Zm44.16.16c.88.33,1,2.45.26,3.33-.53.61-1.73-.53-1.84-2A1.27,1.27,0,0,1,121.91,106.33Zm-82.78.27a25,25,0,0,0-.84,4.59l-2.09-2.65Zm84.37,2.56a.92.92,0,1,1-.93.92A.93.93,0,0,1,123.5,109.16Zm-42.08.46,10,9.35-2.84,0-8.19-7.39-5.2-.2,1-1.76Zm38.82.16a.93.93,0,1,1-.93.92A.93.93,0,0,1,120.24,109.78Zm11.88,0a191.46,191.46,0,0,0,21.82,14.82,9.27,9.27,0,0,1-2.61,1.41,125.68,125.68,0,0,1-18.79-12.53c-4.47,6.55-13,18.47-20.68,24-4.82,3.43-7.24,7.66-7.23,12.6,0,5.12,1.83,8.44,6.88,12.63,3.26,2.7,6.82,6.15,6.82,6.15l-1.88,1.61a110.55,110.55,0,0,1-10.67-9.67c-2.87-2.87-4.14-9.16-3.66-12.55.67-4.62,2.21-7.93,6.6-11.49A48.1,48.1,0,0,0,113.6,133c13.65-14.54,18.52-23.16,18.52-23.16ZM123,112.18c.51,1,.8,2.44-.82,2.53-1,.06-1.51-1.53-.68-2.95.63-1.11,1.19-.16,1.5.42Zm-48.1-.28,5.39.16s5.32,4.61,8,7.17h18c9.92,0,18.08,0,18.13.08a11.37,11.37,0,0,1-1.28,2l-59.53,0s3.68-3.26,5-4.17A30,30,0,0,0,74.89,111.9Zm-36.47,2.23a21.2,21.2,0,0,0,1.39,4.21l-4.14,2.18a45.58,45.58,0,0,1,2.75-6.39ZM153.18,126a45.5,45.5,0,0,1-5.56,10.22c-.51.66-.87,1.18-.87,1.18l5.07,4.83-4.4,4.65a28.34,28.34,0,0,1,5.65,9.6,38.86,38.86,0,0,1-5.57-2.63c-.69-1.73-1.4-3.57-2.18-5.16-1.8-3.62-1.77-3.27-.31-4.33,2.15-1.56,2.79-1.92,2.23-2.71-.39-.55-2.92-3.54-3.08-3.63s-.12-.59.31-1.3a40.48,40.48,0,0,0,3.41-8.08Zm1,.18.14,30.44c-1.82-3.64-3.7-7.35-5.81-9.67-.08-.16,4.59-4.7,4.59-4.7-1.71-1.58-2.71-2.52-5.1-4.71C150.29,134.23,152.13,129.86,154.14,126.21ZM25.73,127.27l5.81,3.36c-.31,4.29-.69,9.92-1.29,15.64-.5,4.46-.7,6.52.09,7.76a9.69,9.69,0,0,0,2.49,1.88c-3.06,1.23-4.24,4.86-.81,7.58a15,15,0,0,0-1.2,1L26.05,161Zm90.87,1.54a34.81,34.81,0,0,1-5.46,5.15,35,35,0,0,0-5.43,4.51s-3.41,0-5.73-.11l-8-7.1s.28-.1-10.58,0c-14,.11-25.43,0-25.43,0l1.6-2.23Zm28.46,1.39a25.23,25.23,0,0,1-3.55,7,16.75,16.75,0,0,0-1.3-4.5ZM32.28,131l.69.49s-.41,5.25-.55,6.79c-.25,2.84-.36,5.4-.61,8.29-.5,5.75-.42,6.59.71,7.48.87.65,1.47.35.69-.47a2.33,2.33,0,0,1-.66-1.59,25.11,25.11,0,0,1,.06-4.36c.87-15.17,1-15.68,1.06-15.69l1.74,1.12c-.1.23,1.59,15.29,1.42,19-.2,4.38-6.12,3.41-6.4.16-.11-.75,1-13,1-13Zm48.26.88,2.32.07,14.33,13.12,4.88.1-.43,1.66-4.72,0Zm8.88,0h2.25l8.2,7.41,5,.07-1,1.43-5-.15Zm-2.8,0,12.12,10.89,4.13.21-.63,1.49-4.9-.14L83.72,131.93Zm-11.69,0h2.52l19,17,5,.09-.08,1.53-6,0Zm63.77.48c1,.25,1.49,1.22,2.2,4.8.82,4.17-1,10.95-3.19,12.22-1.16.9-2.42-.06-1.6-1.24,2.66-3.85,3-10.15,1.44-13.68C137.05,133.39,137.56,132.22,138.7,132.42Zm-80.39.63c6,.07,7.62,12.46,1.66,14.19-3.87.57-5.86-2.92-6.42-6.06C52.89,137.26,54.62,133,58.31,133.05ZM55,140.48c.36,2.48,1.91,5.32,4.15,5.08,3-.32,3.33-4.25,3-6.23-.36-2.38-1.68-4.55-3.79-4.67C55.24,134.49,54.7,138.56,55,140.48Zm3.25-4.82c.84,0,1.46,1.11,1.23,2.5-.15.9-.49,2-1.51,1.26a3.65,3.65,0,0,1-.79-2.64C57.24,136.16,57.55,135.68,58.23,135.66Zm83.48,2.86,2.85,3.28-3.24,2.25A14.84,14.84,0,0,0,141.71,138.52Zm-81.42.3a.93.93,0,0,1,0,1.85.93.93,0,1,1,0-1.85Zm-3.32.56a.93.93,0,1,1-.93.93A.93.93,0,0,1,57,139.38Zm1.88,1.2a2.08,2.08,0,0,1,1,.93,2.33,2.33,0,0,1,.26,2.56c-.89,1.05-2.28-.07-2.11-1.7.12-1.19.44-1.91.84-1.79Zm7.94,3.61a1.22,1.22,0,0,1,.55,2.33c-.74.49-.91,2.11-.45,4.34.38,1.62.18,1.87-.79.41C64.45,148.63,64.88,144.19,66.79,144.19Zm-3.11.85c1.16,0,1.54.84.86,1.52a2.75,2.75,0,0,0,.08,2.56c.63,1.39.48,1.8-.69.47C62.3,147.86,62.32,145.09,63.68,145Zm77.08.67a30.8,30.8,0,0,1,3.56,6.63l-5.73-2.62Zm-83.82,7c-.41-.47-.61-2-.94-2.63s-.48-1.23-.9-1.21c-2.43.21-2.33-2.1-.93-2.54C57.05,145.48,58.1,152.41,56.94,152.76Zm12-2.33c-.41,1.21-.11,1.93,0,3.22.08.59.11.75-.38.3-1.15-1-1.76-4.41-.72-5C69.22,148.06,69.64,149.49,69,150.43Zm57.47-1.62A1.72,1.72,0,0,1,128,150a14.65,14.65,0,0,1,.18,5.49c-.35,2.3-.91,4.41-1.14,6-.81,1-2.81-2.44-3-5.12-.31-2.13.42-6.55,2.07-7.49a1.12,1.12,0,0,1,.37-.09Zm7.74.36c.5,0,.39.15.76.54a3,3,0,0,0,1.59,1c1.65.51,3.46,2.8,2.76,3.49-.55.44-2.05-.38-2.56-.56l-1.53-.52c-1.38-.46-3.36-3-2.74-3.51A4.11,4.11,0,0,1,134.17,149.17Zm-4,.42c1,0,1.3.27,1.88,1.36a7.37,7.37,0,0,0,4.8,3.42c3,.9,5.55,2.62,5.42,5.81a7.08,7.08,0,0,0-2.13.27,6.48,6.48,0,0,0-4.63-4c-4.07-.92-7.85-5-6.78-6.66a3,3,0,0,1,1.44-.16ZM60,149.8l35.15,30.49c-14.83-5.48-28.45-5.36-41.61-3.34Zm15,2c-.07.94-1.38,1.15-1.65,1.38-.65.57-.57,2.22-.28,4.13.21,1.15-.08,1.1-.69.2a7.1,7.1,0,0,1-.34-6C72.92,149.43,75.05,150.48,75,151.82Zm-20.22-1.5c1.35.14,1.72,2,1.78,3.18,0,1.67-.48,1.61-.75,0-.12-.71-.35-1-.92-1.16C53.54,152,53.45,150.32,54.74,150.32Zm16.34,1.87c-.35.38-.36,2.15,0,3.34.17.65-.15.7-.59.18-1.46-1.7-1.59-4.58-.24-5.14,1.1-.28,1.38,1.06.87,1.62ZM55.87,155.6c0,1.69-.36,1.85-.87.22a2,2,0,0,0-.53-.87c-1-.65-1.13-1.16-.57-1.72C55.26,152.13,55.85,155.09,55.87,155.6ZM61,154.1l-4.77,20.25c11.73-1,17.06-1.19,29.59,1.25Zm14.21.33c.72.18,1,1.12.13,2-.28.35-.53.89-.2,2.32.46,2-.31,1.33-1.25-.52C73.3,157.05,73.58,154,75.22,154.43Zm-22.44.07c1.27,0,2.46,2.06,2.47,4.31,0,1.82-.24,1.69-.92-.05-.48-1.15-.87-1.57-1.73-1.87C51,156.33,51.13,154.5,52.78,154.5Zm8.61.58L83.47,174.3a93.88,93.88,0,0,0-26.53-.47Zm18.38.73c1.73,0,2.41,2.13.29,2.87-1.27.45-.73,3-.5,4.51.09.57-.09.61-.45.1-1.34-2-2.08-6.9.66-7.48Zm-2.34,2.39a2.35,2.35,0,0,0-.13,2c.56,2,.7,2.44-.47,1.39-1.23-1.3-1.77-3.87-.74-4.63s2.21.09,1.34,1.26ZM33.8,156.61c2.05,0,3.54,1.31,3.46,3.15A3.31,3.31,0,0,1,34,163.18a3.25,3.25,0,0,1-3.43-3.28,3.09,3.09,0,0,1,3.2-3.29Zm0,.82a2.45,2.45,0,0,0-1.28,4.49c.83.61,1.49.44.8-.21a2.07,2.07,0,0,1,.93-3.61c.84-.18.51-.67-.45-.67Zm28.55.52L59.5,171.59a79.47,79.47,0,0,1,18.16-.12Zm-9.51.52c1.41-.07,1.82,2,1.83,2.87,0,1.08-.13,1.65-.33,1.07-.47-1.37-.94-2.12-1.44-2.12a1.38,1.38,0,0,1-.74-.43A.85.85,0,0,1,52.81,158.47Zm9.78.54,1.86,1.58c-1.2-.52-2.22.83-2.22.83Zm19.15,2.58c-.54.68-.54,2.1-.12,3.77.12.46-.31.12-.75-.44a4.41,4.41,0,0,1-1.08-3.27C80,159.11,83.2,159.6,81.74,161.59ZM52.3,160.37c1.2.14,1.66,2.65,1.63,3.4s-.22,1.33-.38.85A6.46,6.46,0,0,0,52,161.73c-.95-.6-.68-1.27.26-1.36Zm92.22,2.81a2.3,2.3,0,0,1-.87,2.08c-.56.3-.9-.11-1.23-1.12-.25-.75-.34-1-.34-1s-.2.94-.27,1.13c-.43,1.3-1.85,1.31-2.44-.14-.64-1.69,1.13-3.43,2.49-3.36a2.59,2.59,0,0,1,2.66,2.45Zm-80.45-1.89a11,11,0,0,1,2.07.73l1.63,1.44s-1.5-.65-2-.83c-1.27-.45-1.24-.45-2.26.38s-1.92,1.48-1.92,1.48l.33-1.85s1.54-1.35,2.18-1.35Zm-10.72,4.54c.24,2-.31,2.12-.84.26-.46-1.6-.91-2.18-1.68-2.18a1.21,1.21,0,0,1-.63-2.32C52.62,160.91,53.24,165.06,53.35,165.83Zm83-4.28,2.23,1,.47,2.3-2.05-.51Zm-50,.21a1.3,1.3,0,1,1,.77,2.46c-1,.24-1,1.79-.72,4.05a9.47,9.47,0,0,1,.17,1.22c-.15.41-.66-.21-1.35-1.66-1-2.63-.71-5.57,1.13-6.07Zm61.42,0-.62,2.66-1.89-.13-.07-1.63Zm-63.63,1.73c-1,1.49-.1,2.87.13,4,0,.67-.84,0-1.35-1-1-2.06-1.12-3.73-.17-4.47C84,161.27,84.63,162.66,84.07,163.46Zm-19.37-.37a7.3,7.3,0,0,1,1.9.6c.79.3,2.61,1,2.61,1l2.41,2.13s-2.12-.78-3.59-1.4c-3.32-1.4-2.85-1.45-5.47.55-.76.57-1.55,1.23-1.55,1.23l.32-1.71a20.84,20.84,0,0,1,2.23-1.87C64.09,163.28,64.33,163.09,64.7,163.09Zm-30.9.81A3.4,3.4,0,0,1,37,166.7a7.61,7.61,0,0,1,0,2.52c-1.17,8.95-1.69,17.26-2.77,25.55-.13.4-.27.25-.45-.46-1.25-7.52-2.06-15.77-3.11-23.22-.24-2.78-1-6.42,2.57-7.13a2.72,2.72,0,0,1,.55-.06Zm-.1,1a2.41,2.41,0,0,0-2,1.21c-.64,1.35-.48,4.09.74,12.33.11.68.25,1.83.32,2.54a18,18,0,0,0,.71,4.24c.4.62.45,0,.17-2.18-.15-1.09-.35-2.76-.44-3.71-.55-3.9-.67-6.68-1-10.24-.17-1.76.53-3.05,1.86-3.4.72-.19.76-.51.09-.73A1.93,1.93,0,0,0,33.7,164.89Zm112.41.11a2.46,2.46,0,0,1,1,4.69c-.9.45-2.42.24-2.79-.48a.84.84,0,0,1,.47-1.13,9.75,9.75,0,0,1,1.35-.54s-1.31-.26-1.68-.88c-.8-1.33.66-1.63,1.68-1.66ZM52.7,168.74c0,.65-.36.38-.44,0a5.16,5.16,0,0,0-1.3-2.19c-.56-.45-.7-1.07-.31-1.45C52.09,163.83,52.69,168.33,52.7,168.74ZM136.93,165a2.94,2.94,0,0,1,2,.74c.71.71.67,1-.51,1.4-.58.21-1,.38-1,.38s.53.21.93.32c1.13.37,1.07,1,0,1.8-1.42,1.06-3.7-.34-3.67-2.2a2.25,2.25,0,0,1,2.14-2.44Zm5.24,0,2.27,2.49-2.65,2.73-2.49-2.72Zm-77.06.24h.1c.7,0,1.82.48,4.57,1.58L73,168.1l2.47,2.18s-3.39-1.06-4.57-1.65c-.25-.13-.82-.37-1.25-.53l-2.38-.93c-1.89-.76-1.91-.77-2.54-.23-.27.22-.94.74-1.48,1.15l-1.75,1.32c-.5.38-1.13,1-1.13,1l.4-2.1a11.9,11.9,0,0,1,1-.83l2-1.49C64.33,165.5,64.62,165.24,65.11,165.22Zm24.34,1.84c.07.44,0,.52-.48,1s-.72,1.71-.26,3.09a3.57,3.57,0,0,1,.25.87c-.67.67-2.45-3.57-2-4.84.5-1.51,2.17-1.53,2.51-.16Zm-38.93.18a1.42,1.42,0,0,1,1.28,1.06c.73,2,.28,4.55-.47,2.22a4.51,4.51,0,0,0-.78-1.3c-.27-.28-.86-.6-.84-1.05a.89.89,0,0,1,.81-.93Zm15.18.06a5,5,0,0,1,1.41.45c.64.26,2.46.87,3.49,1.26,1.6.62,3.27,1.43,3.27,1.43l-3.62-.2s-1.24-.41-2-.71c-2.66-1.09-2.51-1.08-3.83-.08a14,14,0,0,0-1.07.93l-1.85.11a17.05,17.05,0,0,1,2.12-1.85c.41-.3,1-.74,1.24-1A1.14,1.14,0,0,1,65.7,167.3Zm28.39.72a1.27,1.27,0,0,1,1.49,1.36A1.86,1.86,0,0,1,94,170.87a11.23,11.23,0,0,0-.43,4.91c.27,1.17-.23,1.19-.74.07C92,174,90.77,168.64,94.09,168Zm-2.89,2a4,4,0,0,0-.34,2.79c.27,1.28.32,1.6-.41.8-1.41-1.88-1.62-4.86-.31-5.21A1,1,0,0,1,91.2,170Zm-42.33-1.4c2.21.35,2.86,4.09,2.55,5.69-.58,1.93-.56.62-.76-.18-.54-1.95-1.17-3-1.84-3.12-1.81-.3-1.56-2.64,0-2.39Zm16.89.73h.11c.73.12,2.67.72,1.83.92l-2.87,0c-.55,0,.37-.9.93-.94Zm77.18.62c.28,0,.66.3,1.1.75,1,1,.58,2.66-.8,3.47a2.48,2.48,0,0,1-3.44-3.3c.65-1.2,1.44-1,2.1.7.13.21,0-.21.23-.72s.53-.88.81-.9Zm-3.63.12-.65,2.6L136,174l1-3.2Zm5.48.44,2.1.17,1.17,3.38-3-1.29Zm-49.61,1.91c1.53.06,1.68,1.5.81,2.13a2.48,2.48,0,0,0-.56,2.23c0,.48.14,1.07.13,1.14,0,.23-.2.2-.47-.09C93.48,176.1,93.7,172.38,95.18,172.44ZM49,173c1,0,2.07,2.77,1.53,3.82-.34.62-.67.47-.79-.25a1.56,1.56,0,0,0-1.18-1.37C47.41,174.84,47.78,173,49,173Zm49,1.68a1,1,0,0,1,.14,1.7c-.52.37-.65.68-.73,1.67.17,2.27-1.11.83-1.23-1.23C96.08,175.69,96.69,174,98,174.68Zm-49.8.69c.69,0,1.52,1.24,1.34,2-.1.58-.4.47-.83,0a2.54,2.54,0,0,0-.7-.31.86.86,0,0,1,.19-1.71Zm19.74,1c9.39-.05,19.16,1.44,27.27,4.67l-.67,1.19-2.13-.73-.73,1.93,1.76.66-.83,1.78c-9.58-3.14-19.91-5.48-37.08-2.94-.85-.6-2.39-1.76-2.39-1.76l1.37-.3-.18-1.9-3.47.61-1-1a75.5,75.5,0,0,1,18.09-2.16Zm31.49.41c.9,0,1.46,1,.8,1.44-.46.3-1.49.38-1.69.14C98.08,177.81,98.69,176.74,99.4,176.74Zm-32.81,1.18,0,2,2.83-.09.06-1.87Zm4.94,0v1.94l2.75.09.13-1.9Zm-7.19.14-2.78.18.09,1.81L64.4,180Zm12.43.29-.07,1.87,2.8.31.2-1.9Zm-17.6.09-2.8.36.24,1.86,2.72-.3Zm23,.61L81.9,181l2.61.38.34-1.85Zm5.17,1.09-.25,2,2.65.56.35-1.83Zm-18.76,2.27a66.9,66.9,0,0,1,23.58,4.05A12.05,12.05,0,0,1,91,188.59a63,63,0,0,0-18.7-3.82,9.64,9.64,0,0,1-3.25-.39c-4.26-1.39-8-2-11.48.06l-1.41-1a79.31,79.31,0,0,1,12.44-1ZM31.4,193.69c2,0,3,3.09.85,4.39a2.21,2.21,0,0,1-1.93,0,2.28,2.28,0,0,1,.16-4.2,2.17,2.17,0,0,1,.92-.19Zm65.79.1c.72.44,3.39,1.61,3.39,1.61l-18.7,33.66-4.52,0Zm-60.29.08a2.28,2.28,0,1,1-.09,4.55C34.55,198.29,33.53,194.24,36.9,193.87Zm64.28,1.75c.51.27,2.32.57,2.48.92.07.18-.07.52-.11,1a5,5,0,0,0,.82,3.21c1.07,1.47-.09.79-1.15.79-2.4-.62-5.47,2.64-4.3,6,.27.74.21.8-1.07,1.19a4.65,4.65,0,0,0-2.8,6.74c.73,1.44.76,1.36-.53,1.47-3.58.29-5.65,3.45-4.15,6.69.23.5.08.63-.7.78-2.44.45-3.53,2.48-3.84,4.71l-3.23,0Zm3.1,1.19,6.21,1.68c-2.58,8.73-2.94,18.87.16,30.6H96.39c2-1.77,1.2-4.22-1.12-4.76,2.25-1.29,2.25-4.71-.44-5.12-2.37-.36-3.6,1.88-2.54,4.13l-1,.28a4.44,4.44,0,0,1-.55-.87c-.9-2.6,1-5.17,4.16-5.16,2,0,2.38-.55,1.29-1.76a3.91,3.91,0,0,1,1.2-6.36,2.2,2.2,0,0,1,1.86-.19l.06,1.43s-.47,0-.84.1c-2.8.45-2.28,4.9.56,4.86a2.71,2.71,0,0,0,2.69-2.91v-1.18c1.44,2.45,3.91,2.63,5,.63,1.23-2.35-1-3.82-3.27-3.58,0,0,.48-.31.77-.46a2.49,2.49,0,1,0-3.37-1.27,7.34,7.34,0,0,0,.31.75l-1.08.27a1.6,1.6,0,0,1-.36-.36c-1.85-2.89,1.13-6.08,4.89-5.35,1.38.43,1.33-.52.56-1.38-.83-1.23-1.45-2.63-.84-4Zm-70.12,1.26,3.25,5.71-3.65,6.59-3.61-6.17Zm-.33,3-2.26,3.1,2.22,3.56,2.1-3.6Zm-.09,1.17,1.47,2-1.48,2.41-1.46-2.26Zm67.3,6.17a1.24,1.24,0,1,1-1.24,1.24A1.25,1.25,0,0,1,101,208.38Zm-8.76,15.51a1.28,1.28,0,1,1,0,2.56,1.28,1.28,0,1,1,0-2.56Zm-2,.87a2.66,2.66,0,0,0,.29,1.62c-1.86.11-2.35,1.52-2.53,2.71H86.43c.28-4,3.78-4.12,3.9-4.33Z"/><path id="path153-6-3-1-9-55-1-6" d="M48.26,26.21c-7.44,10.55-15.4,16.62-15.53,24.85,0,2.67,1.4,7.2,5.94,8.06,2.95.56,7-1.8,7.09-6.62,0-1,1-.93,1,.38A27.25,27.25,0,0,1,43.39,64.7h9.74a27.25,27.25,0,0,1-3.38-11.82c0-1.31,1-1.34,1-.38.09,4.82,4.14,7.18,7.09,6.62,4.54-.86,6-5.39,5.94-8.06-.13-8.23-8.09-14.3-15.53-24.85Z"/><path id="path153-6-3-1-8-6-8-8-0" d="M131.74,223.79c-7.44-10.55-15.4-16.62-15.53-24.85,0-2.67,1.41-7.2,6-8.06,2.94-.56,7,1.8,7.08,6.62,0,1,1,.93,1-.38a27.25,27.25,0,0,0-3.38-11.82h9.75a27,27,0,0,0-3.38,11.82c0,1.31,1,1.34,1,.38.08-4.82,4.14-7.18,7.08-6.62,4.54.86,6,5.39,5.95,8.06-.14,8.23-8.1,14.3-15.54,24.85Z"/></g></svg>