<?xml version="1.0" encoding="utf-8"?>
<!-- Generator: Adobe Illustrator 23.0.1, SVG Export Plug-In . SVG Version: 6.00 Build 0)  -->
<svg version="1.1" xmlns="http://www.w3.org/2000/svg" xmlns:xlink="http://www.w3.org/1999/xlink" x="0px" y="0px"
	 viewBox="0 0 180 250" style="enable-background:new 0 0 180 250;" xml:space="preserve">
<style type="text/css">
	.st0{fill:#FFFFFF;}
	.st1{fill:#E2CF00;}
	.st2{fill:#131F67;}
	.st3{fill:#D40000;}
	.st4{fill:#100F08;}
</style>
<g id="white-background">
	<rect class="st0" width="180" height="250"/>
</g>
<g id="Layer_1">
	<g id="g8447-5-9_1_" transform="matrix(0.99553774,0,0,0.99680134,-103.31667,79.601599)">
		<g id="g8459-0-4_1_" transform="matrix(-1,0,0,-1,3489.2901,-631.00533)">
			<path id="path6950-9-9_1_" d="M3253.2-775.7c-7.5,10.6-15.5,16.7-15.6,24.9c0,2.7,1.4,7.2,6,8.1c3,0.6,7-1.8,7.1-6.6
				c0-1,1-0.9,1,0.4c-0.1,3.8-1.4,8.2-3.4,11.9c3.3,0,6.5,0,9.8,0c-2-3.6-3.3-8-3.4-11.9c0-1.3,1-1.3,1-0.4c0.1,4.8,4.2,7.2,7.1,6.6
				c4.6-0.9,6-5.4,6-8.1C3268.6-759,3260.7-765.1,3253.2-775.7L3253.2-775.7z"/>
			<path id="path6952-6-0_1_" d="M3218.6-761.8c-3.5,4.4-7.2,6.9-7.3,10.4c0,1.1,0.7,3,2.8,3.4c1.4,0.2,3.3-0.8,3.3-2.8
				c0-0.4,0.5-0.4,0.5,0.2c-0.1,1.6-0.6,3.4-1.6,4.9c1.5,0,3,0,4.6,0c-1-1.5-1.5-3.4-1.6-4.9c0-0.5,0.5-0.6,0.5-0.2
				c0,2,1.9,3,3.3,2.8c2.1-0.4,2.8-2.3,2.8-3.4C3225.9-754.8,3222.1-757.3,3218.6-761.8L3218.6-761.8z"/>
			<path id="path6956-5-0_1_" d="M3371.6-591.3c-3.5-4.4-7.2-6.9-7.3-10.4c0-1.1,0.7-3,2.8-3.4c1.4-0.2,3.3,0.8,3.3,2.8
				c0,0.4,0.5,0.4,0.5-0.2c-0.1-1.6-0.6-3.4-1.6-4.9c1.5,0,3,0,4.6,0c-1,1.5-1.5,3.4-1.6,4.9c0,0.5,0.5,0.6,0.5,0.2
				c0-2,1.9-3,3.3-2.8c2.1,0.4,2.8,2.3,2.8,3.4C3378.8-598.3,3375.1-595.8,3371.6-591.3L3371.6-591.3z"/>
			<path id="path6958-4-1_1_" d="M3337-775.7c-7.5,10.6-15.5,16.7-15.6,24.9c0,2.7,1.4,7.2,6,8.1c3,0.6,7-1.8,7.1-6.6
				c0-1,1-0.9,1,0.4c-0.1,3.8-1.4,8.2-3.4,11.9c3.3,0,6.5,0,9.8,0c-2-3.6-3.3-8-3.4-11.9c0-1.3,1-1.3,1-0.4c0.1,4.8,4.2,7.2,7.1,6.6
				c4.6-0.9,6-5.4,6-8.1C3352.5-759,3344.5-765.1,3337-775.7L3337-775.7z"/>
			<path id="path6970-5-5_1_" d="M3253.2-577.4c-7.5-10.6-15.5-16.7-15.6-24.9c0-2.7,1.4-7.2,6-8.1c3-0.6,7,1.8,7.1,6.6
				c0,1,1,0.9,1-0.4c-0.1-3.8-1.4-8.2-3.4-11.9c3.3,0,6.5,0,9.8,0c-2,3.6-3.3,8-3.4,11.9c0,1.3,1,1.3,1,0.4c0.1-4.8,4.2-7.2,7.1-6.6
				c4.6,0.9,6,5.4,6,8.1C3268.6-594.1,3260.7-588,3253.2-577.4L3253.2-577.4z"/>
			<path id="path6972-5-8_1_" d="M3337-577.4c-7.5-10.6-15.5-16.7-15.6-24.9c0-2.7,1.4-7.2,6-8.1c3-0.6,7,1.8,7.1,6.6
				c0,1,1,0.9,1-0.4c-0.1-3.8-1.4-8.2-3.4-11.9c3.3,0,6.5,0,9.8,0c-2,3.6-3.3,8-3.4,11.9c0,1.3,1,1.3,1,0.4c0.1-4.8,4.2-7.2,7.1-6.6
				c4.6,0.9,6,5.4,6,8.1C3352.5-594.1,3344.5-588,3337-577.4L3337-577.4z"/>
			<path id="path6980-6-3_1_" d="M3295.1-695.9c-7.5,10.6-15.5,16.7-15.6,24.9c0,2.7,1.4,7.2,6,8.1c3,0.6,7-1.8,7.1-6.6
				c0-1,1-0.9,1,0.4c-0.1,3.8-1.4,8.2-3.4,11.9c3.3,0,6.5,0,9.8,0c-2-3.6-3.3-8-3.4-11.9c0-1.3,1-1.3,1-0.4c0.1,4.8,4.2,7.2,7.1,6.6
				c4.6-0.9,6-5.4,6-8.1C3310.6-679.2,3302.6-685.3,3295.1-695.9L3295.1-695.9z"/>
			<path id="path21-4-5-5_1_" d="M3210.2-771.1l2.6,0c0.5,1.6,1.6,3.2,3.1,3.7c4.2,1,7-1.4,7.9-4.2c1.1-3.4,0-8.1-2.9-9.7
				c-2.4-1.4-6-0.2-7.7,2.7l-1.8-1.1l1-11.1h12v2.6h-9.7l-0.2,4.6c2.1-1.5,5.3-1.5,7.4-0.4c4,1.9,5.8,6.3,5,11.4
				c-1.1,5.1-3.4,8-8.7,8.4C3212.3-764.2,3210.2-768.3,3210.2-771.1L3210.2-771.1L3210.2-771.1z"/>
			<path id="path21-4-9-2-8_1_" d="M3380-581.9l-2.6,0c-0.5-1.6-1.6-3.2-3.1-3.7c-4.2-1-7,1.4-7.9,4.2c-1.1,3.4,0,8.1,2.9,9.7
				c2.4,1.4,6,0.2,7.7-2.7l1.8,1.1l-1,11.1h-12v-2.6h9.7l0.2-4.6c-2.1,1.5-5.3,1.5-7.4,0.4c-4-1.9-5.8-6.3-5-11.4
				c1.1-5.1,3.4-8,8.7-8.4C3377.9-588.9,3380-584.8,3380-581.9L3380-581.9L3380-581.9z"/>
		</g>
	</g>
</g>
</svg>
