<?xml version="1.0" encoding="utf-8"?>
<!-- Generator: Adobe Illustrator 23.0.1, SVG Export Plug-In . SVG Version: 6.00 Build 0)  -->
<svg version="1.1" xmlns="http://www.w3.org/2000/svg" xmlns:xlink="http://www.w3.org/1999/xlink" x="0px" y="0px"
	 viewBox="0 0 180 250" style="enable-background:new 0 0 180 250;" xml:space="preserve">
<style type="text/css">
	.st0{fill:#FFFFFF;}
	.st1{fill:#E2CF00;}
	.st2{fill:#131F67;}
	.st3{fill:#D40000;}
	.st4{fill:#100F08;}
</style>
<g id="white-background">
	<rect class="st0" width="180" height="250"/>
</g>
<g id="Layer_1">
	<g id="g5943_1_" transform="matrix(0.99999718,0,0,1.000002,-3.9778391,-6.5473594)">
		<path id="path10378-7-1_1_" class="st3" d="M17.9,62.7c0,0-1.8-2.6-4.2-5.6c-1.6-2-2.9-4.2-3-6.1c-0.1-2.1,1.2-4.3,3.5-4.4
			c2.4-0.1,3.3,1.7,3.7,3.1c0.4-1.4,1.4-3.2,3.7-3.1c2.4,0.1,3.7,2.3,3.5,4.4c-0.1,1.9-1.4,4.1-3,6.1C19.6,60.1,17.9,62.7,17.9,62.7
			L17.9,62.7z"/>
		<path id="path10380-5-9_1_" class="st3" d="M170.1,200.4c0,0-1.8,2.6-4.2,5.6c-1.6,2-2.9,4.2-3,6.1c-0.1,2.1,1.2,4.3,3.5,4.4
			c2.4,0.1,3.3-1.7,3.7-3.1c0.4,1.4,1.3,3.2,3.7,3.1c2.4-0.1,3.7-2.3,3.5-4.4c-0.1-1.9-1.4-4.1-3-6.1
			C171.9,203,170.1,200.4,170.1,200.4z"/>
		<path id="path35-67-2-8-6_1_" class="st3" d="M17.8,17.6v2.8h2.7c0,0,0.1,2.7,0.1,8.3c0,5.5,0.1,8.2-0.2,9.8
			c-0.9,3.6-6.2,3.6-7.3,1c-0.6-1.5-0.4-2.7-0.5-4.2H9.7c0,0,0,0.8,0,1.7c0,4.1,1.4,6,4.5,6.8c3.3,0.9,7.1-0.5,8.4-3.2
			c0.8-1.6,0.7-1.7,0.7-11.2c0-6.4,0.1-9,0.1-9H26v-2.8H17.8L17.8,17.6z"/>
		<path id="path35-6-7-4-8-8_1_" class="st3" d="M170.2,245.5v-2.8h-2.7c0,0-0.1-2.7-0.1-8.3c0-5.5-0.1-8.2,0.2-9.8
			c0.9-3.6,6.2-3.6,7.3-1c0.6,1.5,0.4,2.7,0.5,4.2h2.9c0,0,0-0.8,0-1.7c0-4.1-1.4-6-4.5-6.8c-3.3-0.9-7.1,0.5-8.4,3.2
			c-0.8,1.6-0.7,1.7-0.7,11.2c0,6.4-0.1,9-0.1,9h-2.5v2.8H170.2L170.2,245.5z"/>
		<g id="g3347-7-8-1_1_" transform="matrix(0.99431686,0,0,0.99733632,2558.8278,-1241.0201)">
			<g id="g3498-4-3-9_1_" transform="matrix(0.15515913,0,0,0.15515913,604.9465,621.11516)">
				<g id="g2997-9-2-6_1_">
					<g id="g3884-5-1-3_1_" transform="matrix(0.99998259,0.0059011,-0.0059011,0.99998259,1.5988528,-2.1391077)">
						<g id="g3000-2-1-2_1_">
							<path id="path2993-7-5-1_1_" class="st1" d="M-19434.6,4364.4l-59.9,39.3l-0.6,45.4c-35.8-16.8-51.4-44.5-57.3-77.1
								c-10,12.7-7.6,76.5-7.6,76.5c-9.1,4.8-12.5,11-18.3,16.5c5.8,9.4,22.2,25.4,22.2,25.4c-0.1-0.3-7.1,66.5,1.8,69.1
								c8-28.5,18.6-53.4,58.3-79.6c0,0,1.2,105.9-0.7,208.3c-16.9-11.4-52.7-31.9-75.9-53c29.6-38.4-1.1-88.1-45.5-54.7
								c-29-15.4-33.8-88.7-41.2-127c-1.4-7.7-8.3-30.3-8.3-30.3s-95.3-25.6-136.2-23.2c34.9,88.6,28.8,196.9-123,218.1
								c-72.6,33.5-156.5,70.8-237.8,140.2c-14.5,102.6-67.4,153.4-104.8,181.5c0.5,41.5,0.2,82.7,2.2,124.6
								c0,0.3,34.2-22.6,39.6-18.5c29.8,185.1,135.1,221.2,124.6,226.4c-1.7,0.8-34.2,34.5-34.2,34.5l-128.8-83.2
								c-3.6,128.1-0.3,258.7,2.3,387.1c22.6-12.8,64-43.5,64-43.5l0.4-43.6c-0.2-4.1,58.6,36,59,84.1c4.6,3.1,14.1-69.4,5-77.2
								l23.8-24.7l-26-24.6c0,0,6.3-41-7.2-64.6c-8.4,54.1-53.5,71.3-53.5,71.3s-2.1-197.7-3.2-197.8l80.9,50.2
								c-43.3,59.3,33.7,78,42.5,49.2c49.9,45.6,31.1,100.6,53.2,165.6l140.9,24.8c-58.6-106.5,3.6-228.6,117.5-220.6
								c21.3-9,40.5-21.8,40.5-21.8s-14.3-22.9-32.3-44.1l-243.8-2.6l112.4-212.2l-74.8-2c0,0,60-128.3,46.8-138.5
								c-4.6-3.6-2.9-44.9-2.9-44.9l66.8,2.1c2.5-29.5-33.1-141.8-82.8-215.1l274,0.8l-153,214.5l82.9,1.9l-48.8,101.1l8.4,78.6
								l-73.5,2.8c13.3,109,95.6,223.4,124.4,258.7c47.3-11.4,135.4-79.2,190.1-121.4c6.7-73.2,31.7-135.6,97.7-182.5l-0.5-120.5
								c0,0-37.7,24.5-37.7,22.8c0-26.1-14-80.3-39.5-128.5c-27.4-51.7-72.1-98.5-82.4-101.4c23.3-35.5,33.3-38.7,33-39.3
								l128.6,80.8L-19434.6,4364.4z M-20078.8,4625c0,0-24.9,9.6-46.5,9.4c-38.8,2.2-68.4,5.5-83.9,37.2
								c-3.1,9.6,3.9,13.1,9.1,15.6C-20171.2,4651-20093.2,4698.2-20078.8,4625z M-20250.1,4791.5c0,5.1,5.8,13.4,8.6,4.7
								c2.5-6.2,2.9-16.2,0.1-22.3C-20249.2,4769.6-20250,4786.5-20250.1,4791.5z M-19828.9,4963.5l-37.9,0.4l0,44.2l38.1-0.2
								L-19828.9,4963.5z M-19455.4,5181.2c-0.8,4.4-4.8,24.1,4.5,20.7C-19440.1,5193.4-19449.6,5155.1-19455.4,5181.2z
								 M-19490.4,5292.3c-4.5-6.5-18.3,9.7-29.6,10.4c-50.5,3-87.7-3.5-93.7,49c29-18.6,69.8-10.4,96.1-16.6
								C-19498.7,5328.7-19477,5311.5-19490.4,5292.3z"/>
							<path id="path3504-0-2-5_1_" class="st2" d="M-20272.7,5672.5l-8.1-1367.8l857.1-5.1l8.1,1367.8L-20272.7,5672.5z
								 M-20238.7,4785.8c0.7-13.2-4.8-18.6-9.5-9.5c-1.1,2.1-4.6,25,4.1,25.7C-20238.4,4802.6-20239,4791.5-20238.7,4785.8z
								 M-20252.5,4801.4c-0.1-3.1-2-4.4,2.1-31.5c-8.2-3.1-15.3-16.2-9.4-24.5c2.3-3.2,1.6-4,0.7-6.7c-2.4-6.7-1.2-12.2,5.1-16.5
								c4-2.8,4.2-3.5,2.9-7.1c-3.4-9.3-0.3-18.3,8.6-21.5c6.2-2.2,5-2.5,5.6-6.4c1.4-8.7,6.2-14.1,15.1-13.2
								c8.2,0.8,8.8,0.8,9.4-3.2c1.9-11,15.3-23.1,32.8-31.4c8.7-4.1,23.1-7.1,50.8-7.2c15.9-0.4,35.6-2.6,46.6-12.3
								c1.8-1.7,4.3-6.2,5.2-5.6c2.1,1.4,1.6,12.4-2.4,22.4c-11.6,29.2-27.6,37.3-72.7,37.3c-13.5-0.6-33.3,1.4-41.7,9.9
								c-2.5,2.6-4.1,5.1-3.2,6.5c18.7,2.5,38,10.8,49.4,47.4c33.8-24.1,87.7-61,154.5-94.5c-8.3-43.8,29.9-50.7,51.4-42.2
								c0,0,0.5-2.9-0.3-6.2c-0.8-3.2-2-7.4-6-12.9c-1-2-7.1-5.7-5.9-8.7c1.9-4.9,1-6.2-3.1-10.7c-2.7-2.9-1-9.2-0.3-11.7
								c0.8-4.7,3.9-11.4,1.1-13.9c-4.3-3.9-18.8-10.4-26.3-15.6c-8.3-5.9-8.5-11.3,3.5-30.9c5.4-11.4,10.6-23.7,14.9-31.9
								c6.6-12.4,7.2-20.6,3.1-27.6c-5.3-9.2-4.5-20.2-4.4-19.9c0,0-50-68.6-70.5-96l-232.9,1.4l3.1,524.6l39.8-38.1l-10.9-12.7
								c-1.5,7.4-0.1,14.6-9.2,15.1C-20249.1,4805.7-20252,4804.4-20252.5,4801.4z M-20110.5,5502.5c1.2-20.8-9-54.8-24.3-78.4
								c0.8,17.9,2.2,39.8-1.3,57.4L-20110.5,5502.5z M-19744.3,5554.6c-1.8-0.6-17.1-1.4-26.6-1.9c-31.7-1.5-52.4-16.5-66.2-37.3
								c-3.4-5.1-2-4.9,5.5,0.9c21.1,16.2,40.9,25.8,58.2,23.3c24.5-3.6,37.8,5.2,34.4,15.6
								C-19739.6,5557.2-19739.8,5556.1-19744.3,5554.6z M-19827.6,5508.7c-4.9-4.2-5.3-6.1,0.5-2.3c17.9,11.7,39.5,30.7,65.9,19.3
								c5.5-3.5,0.4-3-8.8-2c-14.1,1.6-31.3-5.4-52.5-19.8c-10.3-7-5.8-13,5.8-7.5c3.6,1.7,7.2,2.9,9.6,3.1
								c11.4-7.6,35.4-7.7,34.8-7.6c2.7-2.4-6.3-6-19.7-10.9c-8.7-3.2-10.8-4.5-4.3-4.8c5.6-0.2,14.5,2.5,21,6.6
								c10.7,6.8,16.1,10.5,19.3,10.9c5.2,0.4,10.6,1.1,1.6,5.3c-4.1,1.9-3.7,2.4-3.2,6.9c0.8,7.1,1.2,7,4.5,11
								c5.6,6.1,8.1,17.4,0.1,10.4c-1.7-0.8-1.9,0.7-6.6,2.6C-19786.9,5537.7-19807.5,5525.8-19827.6,5508.7z M-19776.8,5510.4
								c1.5-2,3.8-7.2,4.1-8.6c-0.6-3.3-3.5-2.3-5-0.4c-2.6,3.1-6.1,7.8-3.2,9.3C-19779.5,5511.5-19778.1,5512.1-19776.8,5510.4z
								 M-19786.2,5508.3l6.1-10.9c-1.5-0.7-22.2,3.7-18.9,6.6C-19796.2,5506.7-19786.2,5508.3-19786.2,5508.3z M-19763.1,5471.9
								c-9.5-5-12.3-15.7-5.3-23c5.9-6.1,15.9-5.6,28,1.7c4.2,2.6,6.8,3.9,9.7,2.8c4.8-1.8,6.7,0.9,6.3,4.7
								c-0.8,8.3-13.8,10.4-22.1,1c-10.9-12.5-22.7-3.7-19.2,5.4c1.8,4.6,5.2,5.3,9.2,7
								C-19756.5,5472.3-19760.4,5473.3-19763.1,5471.9z M-19806.5,5416.3c15.6-4.3,38.9,12,51.5,9.7c5.5-1.2,4.7,6.6-0.9,9.5
								c-6.6,3.4-16,1.2-36.1-9.1c-16.5-8.7-29.8,6-18.7,16.8c2.4,2.2,5.8,3.5,10,3.3c5.6-0.3,7.2,1.2,0,3.1
								c-4.1,1.1-11.8-0.5-15.5-4.2C-19825,5436.5-19822.9,5419.4-19806.5,5416.3z M-20137.6,5370.3c-0.6-18.4,9.3-28.8,9.5-28.8
								l-70.5-46.9l2.2,189c34.7-22.2,45.9-49.9,47.7-85.6c69.2,76,48.3,169.2,5.7,222.5c-2-32.4-11.9-70.7-51.7-90.1l0.2,38.7
								l-66.5,46.8l0.3,45.4l156.2-0.9l74.3-111.3c-13.8-49.2-12.1-90.2-21.4-112.7c-7-18.5-20.2-42.4-28.6-38.6
								C-20108.7,5420.3-20136.9,5394.3-20137.6,5370.3z M-20078.3,5391.8c24.4,17.3,31.1,45.7,36.2,70.9
								c0.2,0.2,13.3,85.6,13.7,86.8c1.7,4.7,1.1,9.4-3,12.9c-22.3,30.7-65.8,96.6-65.8,96.6l430.6,0
								c-23.2-33.1-41.3-65.8-63.3-92.9c0.9-1.5-1.8-20.1-5.5-26.1c-3.8-6.2-4.7-9.4-2.2-15.1c6.2-14,12.6-29.2,18.3-42.1
								c11-24.7,12.3-24.9-3-32.8c-18.1-10.3-21.3-13.7-17.6-25.6c1.4-4.3,1.5-6.1-4.1-7.2c-2.6-0.5-8.9-2-13.1-3.1
								c-12.2-3.7-8.7-1.4-13.1,1.8c-3.4,1.7-6.3-4.7-10.4-12.2c-4.6-8.6-5.8-8.8,1.8-4.4c14,8.2,38.9,4.8,30.1-4.7
								c-4.3-4.6-8.3-7-7.9-17.6c0.4-10.5,0.5-13.6-6.7-15c-14.4-2.8-30-1.5-43.3,1.9c-40.6,10.3-73,45.5-85.2,71.6
								c-2.8,4.6,3.6,4.3,6.4,4.3c13.3-1.3,22.9,19.8,14.2,29.3c-4,4.2-8,1.7-3.8-3.8c4.9-9.1-2.5-21-13.2-17.9
								c-13.5,3.9-13.8,21.3-15.4,33.3c-4.4,34.8,13.7,81.2,18.1,90.7c0,0,1,1.4,0.6,1.4c-0.3,0-2.5,2-3.4,1
								c-3.1-3.5-11.2-31.9-15.6-52.2c-8.6-56.2,5.7-108,52.7-137.6c41.6-30.1,62.6-23.8,86.3-25.4c8.1-2.9,19.3-7.4,27.8-11.6
								c74.1-38.9,141.6-77,203.6-127.3c45.4-34.4,66.9-62.2,105.8-97.3l-5.1-194.9c0,0-4-3.2-4-6.3c2.5-13.1-20.4,8.8-35.2,16.2
								c-9.8-89.4-59.1-177-118.4-228.1l2.4-3.3c0,0,19.8,12.8,29.7,18.9l-0.1-12.5l-23.9-14.6c-1.1-4.5-0.5-5.3,4.7-5.3l19.1,13.8
								l-0.1-11.4l-15.5-9.7l4.9-6.2l8.3,5.3c-3.6-9,1.4-8.7,6.5-2.8c2.1,2.7,4.9,6.2,6,9.5c0.4,1.3,1.8,4.4,1.8,4.4l13.6,9.9
								c0,0-0.5-4.9-0.1-6.4c2.2-7.1,18.7,15.6,16.6,16.2l13.9,9.8c3.2-5,15.6,4.8,16.2,9.7c1.1,2.1,47.8,31.6,47.8,31.6l0.4-16.4
								l5-6.5l0-379.7l-61.6,39.6l-0.4,46c-29.3-9.2-54.8-51.1-58.7-77.3c-1.9-1-10.1,51.8-5.4,74.8c-7.7,5.8-20.6,19.2-20.5,19.2
								l23.6,25.3c0,0-4.5,39-3.2,58.4c1,9.2,1.2,10.1,4,10.1c2.2,0,4.2-2.4,4.2-4.5c5.4-23.2,23.2-59.5,54.4-72
								c2.1-0.1,1.1,206.8,1.1,206.8l-77.9-52.1c-3.9-3.3,5-3.1,10.4-20.7c13.8-45.2-35.1-60.9-53.8-34.7
								c-3.1,0-16.1-15.8-18.1-22.4c-14.5-28.6-17.5-61.2-20.4-87.3c-1.8-11.9-6.3-31.3-10-43c-2-6.3-2.2-10.8,2-16.6
								c17.8-37,52.4-62.6,65.3-100l-431.7,1.2c27.5,22.2,51.6,84.6,76.6,92.5c-11.9,1.6-7.8,11.9-3.1,23.1
								c5.8,13.7,5.2,16.5-9.1,44.8c-21,41.5-22.1,37.9-0.9,50.6c13.1,8.2,15.5,10,13.6,21.3c-1.8,11.3-2.4,7.8,8.4,8.7
								c5.8,0.5,10.4,1.5,13,2.6c3,1.3,5.2,3.1,9,1.9c6.4-2.1,6.5-0.6,6.8,4.1c0.1,2,3.2,6,4.1,7.6c2.5,4,1.3,4.7-3.2,1.9
								c-13.9-8.6-37.1-4.8-28.5,4.6c3.5,3.9,7.2,16.8,7.5,23.2c0.6,11.5,8.2,15.5,23.9,13.1c30.3-2.4,98.5-40.2,114.2-82.3
								c-35,12.1-28-30.7-15.5-29.4c0,0-3.3,7.6-3.4,11.9c-0.3,15.3,12.6,16.4,21.4,5.5c3.8-5.7,8.4-26.8,5.9-50.7
								c-3-28.8-14.9-61-17.1-69c50.8,118.5,5.1,171-65.1,205.5c-26.9,11.3-30.6,11.3-46.5,12.1c-10.9,0.9-20.6,6.4-31.1,9.8
								c-60.1,28.9-133.9,65-199.8,118.5c-47.3,35.2-84.9,66.9-122.2,107.5l1.1,209.6c11.3-1.8,29.5-12.8,40.3-19.2
								c12.9,78.2,54,168.6,121.4,222.4c0,0-1.6,3-1.6,2.9c-9.6-6.3-19.2-12.5-28.5-17.2l-0.4,10l22.7,15.3c0.6,2.4-3.8,5.8-3.8,5.8
								l-18.7-12.7l-0.1,10.2l14.5,9.1c3.9,3.9-4.7,5.9-4.7,5.9l-8.6-6.1c0,0,0.6,4.9,0.4,5.8c-2.2,7.5-14.6-9-16.9-17.2l-12.2-7.1
								c1.8,4.9-2.6,5.6-6,4.4c-9.2-4.5-8.7-12.3-10.6-16.8l-16.2-10.1c-2.7,15.3-19.3-6.1-16.7-11.3l-20.8-13.9
								c1.1,0.4-7.9,2.3-11,0.4c-3.5-2.3-4.8-11.6-4.8-11.6l-12.5-7.6l0.1,13.4l128.4,87.9l-1.8,3.5l-134-89.9l7.7,393.4l64.8-45.1
								c-1.3-14.7,1.3-27.9,0-44.7c33.5,20.5,44.9,34.4,59.9,77.7c9.4-24.8,7.6-48.4,3.2-70.3c8.5-7,16.8-13.8,21-24.3
								c-8.1-10.9-16-14-24.5-24.1c-0.7-12.4,6.4-49.5-3.5-61.6c0,0-17.7,53.9-56.3,70.3c-1.5-56.8-1-199.5-1-199.5s39.9,27,60.3,38
								c9.6,5,16.2,8.1,16.4,11.7c0.1,1.8-3.7,4.2-5.4,6.8c-1,1.6-5.3,17-3.6,29c0.8,8.8,5.1,14.4,9.1,18.6
								C-20110.8,5408.7-20087.5,5402.2-20078.3,5391.8L-20078.3,5391.8z M-20001.9,5290.8l151.8-213.5
								c18.7,78.1,49.8,149.6,90.3,214.3L-20001.9,5290.8z M-19927.5,5066.9c0,0,10.6-21.1,15.4-32.3l-18.7,0.1l11.1-12.6l27.9-0.2
								l-14.7,31.7l11.8-0.1l16.2-31.7l43.5-0.3l-15,31.7l10-0.1l16.1-31.7l40.4-0.2l-14,31.7l9.5-0.1l8.2-16l2.2,29l-40.2,0.2
								l15.7-32.3l-12.9,0.1l-17.7,32.3l-37.6,0.2l16.1-32.3l-14.3,0.1l-17.7,32.3L-19927.5,5066.9z M-19804.3,4953l16-34.1
								l-12.8,0.1l-17.7,33.4l-40.1,0.2l15.6-33l-10,0.1c-6.7,10.4-17.4,31.6-17.4,31.6l-42.5,0.3c0,0,11.9-22.4,16.6-33.4
								l-10.5,0.1l-8.5,13.6c-3-5-1.1-18.5-1.7-24.1l40.1-0.2l-15.9,32.8l12.8-0.1l17.4-32.8l42.3-0.2l-17.1,32.8l10-0.1l16.9-31
								l43.1-0.3l-14.9,31l13.3-0.1l-5.8,13.5L-19804.3,4953z M-19844.3,4893.9l-8.1,1.6c-10.9-88.1-60.6-177.8-81.6-214.8l244.6,2
								L-19844.3,4893.9z M-19560.1,4383c0,0-23.2,29.9-24.4,79.9l22.1-17.8C-19564.1,4394.4-19560.1,4383-19560.1,4383z
								 M-19584.3,4466.6c-0.2,37.2,9.8,60.8,22.3,79.3c0.1-23.9,2.4-48.2,3.7-54.6L-19584.3,4466.6z M-20185.5,5181.4l-79.4-53.6
								l0.1,11.9l94.4,62.8L-20185.5,5181.4z M-20199.9,5152.5c-21.2-10.4-65.1-42.9-65.1-42.9l0.1,10.8l69.8,48.1
								c1.4,1.3,3.2,1,3.8-0.5C-20194.1,5163.4-20197.4,5157.2-20199.9,5152.5z M-20219.6,5105.7l-45.6-31.2l0.1,9.8
								c11.7,10.3,50.2,34.7,50.2,34.7L-20219.6,5105.7z M-20265.3,5067.3l42.9,27.2l-2.7-12.1l-30.5-20.3L-20265.3,5067.3z
								 M-19499.5,4682.5l1.1-195.5c-44.4,21.2-52.9,82.2-51.4,84.1c-44.6-45.1-61.9-142.8-0.1-209c4.8,21.1,6.5,51.7,50.7,79.4
								l0.9-41.4l61.2-39.5l-0.3-48.9l-148.1,0.9c-22.8,29-45.5,62.6-68,93.4c-8.4,11.5-10.5,16.9-8.9,22.9
								c15.2,53.1,12.6,118.7,44.1,149.5c41.8-39.5,81.4,19.3,49,55.9L-19499.5,4682.5z M-20133.2,5531.5
								c5.8,17.8,2.1,53.7,1.7,53.7c6.8-3.7,24.9-55.8,20.2-75.3 M-19903,4554c-10.5-2.9-18.4-7.3-29.4-6.2
								c-8.7,0.9-11.7-1.9-6.4-6.6c6.9-5.9,13.6-8.3,26.5-1.7c38.8,19.8,39.8-9.5,22.4-11.4c-5-0.6-4.7-3.7,0.2-2.9
								C-19862.7,4526-19870.7,4561.6-19903,4554z M-19948.4,4525c-5.1-1.8-11.3-4.9-13.6-4.3c-5.7,1.6-5.9-1.6-5.3-5.3
								c1.6-9,10.8-7.4,23.1,0.2c17.5,10.9,24.1-5,8.2-13.4c-5.4-2.8-3.7-3.7-0.6-3.8c8.3-0.4,16.1,10.7,14,19.9
								C-19928.1,4533.1-19941.6,4527.4-19948.4,4525z M-19897.4,4497.6c-11.3-1.9-27.8-16.9-35.4-17.9c-4.3-0.5-9.3,0.1-10.7-1.6
								c-4.2-5.2,7.6-5.2,8.4-7.1c0-4.4,0.3-7.1,0.1-8.6c-2.1-2.8-10.4-14-10.1-19.4c0.2-0.3,4.3,3,6.4,3c20.1-10.7,33.9-6.1,51,1.3
								c7.1,3,25.3,16.9,25.5,19.1c0.4,3.7-7.7-3.2-14.1-7.4c-15.6-10.7-29.7-18.2-49.2-11.7c-3,1.1-2.5,1.6,7.5,0.9
								c9.8-0.6,17.8,2.3,30.4,10.3c3.1,2,6.9,5.4,9.1,6.5c15.8,7.3,19.2,14.6,9.2,12.7c-2.1-0.4-6.3-2.6-10.4-4
								c-7.2-2.5-4.7-1.7-11.5,1.5c-2.4,1.1-8.3,3.5-13,4.1c-3.7,0.6-15.6,0.6-10.3,5.6c5.6,5.5,14.9,9.6,21.3,12.1
								C-19888.5,4498.9-19892,4498.5-19897.4,4497.6z M-19896.2,4473.3c7.3-2.7,1.6-8.8-7.8-10.1c-2.1-0.3-6.7,9.8-6.8,11.9
								C-19910.8,4476.7-19900.2,4474.9-19896.2,4473.3z M-19916.5,4474.6c1.7-1.1,7.3-9.2,7.3-10.5c0-5.2-6.7-3.7-8.2,1.7
								C-19919.3,4472.4-19919.4,4476.4-19916.5,4474.6z M-19940.2,4432.7c-6.1-2.6-14.4-14.2-4.9-12.3c2,0.5,12.6,0.9,19.4,0.9
								c23.2,0,46.4,10.3,61.2,25.4c8.2,8.4,8.8,14.7,0.5,8.9C-19893.7,4429.5-19911.7,4434.5-19940.2,4432.7z M-19705.7,5335.5
								l-8.2,4.4c0,4.5,1.7,3.8,5.3,7c0,0-5,0.8-8.7,0.6c-6-0.4-7.4-0.3-4.7,3.9c1.2,1.9,2.9,4.8,2.9,4.8s-3.3,0.7-8.2-0.6
								c-7.4-2-11.2-0.9-8.4,3.1c0.8,1.1,2.3,3.2,2.3,3.2c-5.4-1.2-15.4-5.9-15.4-5.9l-7,2.2
								C-19741.6,5385.3-19691.9,5367.9-19705.7,5335.5z M-19463.1,5295.3c7.7-6.5,3.9-14.3-7.4-20c-4.7-2.4-4.2-2.4-11.8,2.1
								c-9.3,5.5-10,5.8-3.3,12.8C-19477.5,5298.6-19468.7,5300.1-19463.1,5295.3z M-19491.8,5277.4c7.1-3.2,4.4-2.6,3.9-10
								c-2.1-8.5,2.7-9.1,5-17c1-4.3-2.7-2.7-9.8,3.9c-5.9,5-7.6,6.2-7.6,3.8c0.7-2-4.1-7.1-8.3-7.8c-3.6-0.6-3.2-1.4,0.2-5.9
								c6-7.8,8.4-17.7,4.3-26.3c-5.2-10.9-6.9-12.5-18.2-2.9c-5.8,5.4-14,9.5-17.9,16.1c-2.8,4.9-1.1,9.5,3.4,19
								C-19525.4,5274-19508,5284.6-19491.8,5277.4z M-19452,5277.3c12.4-4.9,7.3-18.3-12.2-31.6c-11.8-8.1-15.1-8-5.1,0.8
								c6.4,5.6,7.4,7.6,4.7,11.6c-2.3,3.4-4.6,7.4-2.3,10.5C-19463.4,5273.4-19457.3,5279.4-19452,5277.3z M-20154.8,5259.2
								l-13.6-8.4l0.1,11.7l13.6,8L-20154.8,5259.2z M-19474.9,5265.8c2.7-1.9,5-7.2,5-9.5c0.6-5.4-8.3-4.1-12.5,2
								C-19487.2,5264.9-19481.5,5270.4-19474.9,5265.8z M-19444.5,5247.2c6.2-6.5,3.1-13.3-9.7-21.4c-4.9-3.2-7.4-5.2-6.8,1.1
								c0.2,1.9-1.9,4.5-3.3,6c-4.4,4.9-2.4,5.8,10.2,13.6C-19447.7,5250.5-19448,5250.9-19444.5,5247.2z M-20154.9,5239l-13.6-8.1
								l0.1,10.6l13.7,9L-20154.9,5239z M-20184.6,5249.8l0.1-10.6l-17.7-11.5l-0.2,11.8L-20184.6,5249.8z M-19491.5,5241.4
								c-2.2,6.1,6.9,3.3,7.4,2.7c1.6-3.1,0.2-3.4-0.6-3.7C-19486.4,5239.7-19492.6,5240.8-19491.5,5241.4z M-19487.6,5233.7
								c3.1-1,3.5-0.6,3-6.2c-0.7-8.5,0.6-9.1,6.2-12.9c4.5-3,4.5-2.6,4.4-7.7c-0.1-6.3,0.3-9,8.6-10.3c3.4-0.5,5.3-1.4,5.6-4
								c0.4-4.5-6.8-12-15.9-16.3c-1.3,0-21.4,17.5-26.9,23.6l-3.4,3.7l4.2,7.6c6.5,11.9,5.5,16.3,1.8,32.1
								c-0.7,4.2,2.5,3.6,3.4-1.5C-19495.6,5236.9-19494.9,5235.1-19487.6,5233.7z M-19457.2,5191.3c-1.5,9.6,3.5,15.5,8.2,10.7
								c2.6-2.6,4.6-23.8,2.8-27.2C-19455.9,5164.6-19456.8,5189-19457.2,5191.3z M-19612.6,5351.2c36-21.2,82.5-4.3,108.5-21.7
								c12.1-13.4,24.3-22,17.4-31.1c-5.4-7.1-8.9-8.2-8.9-8.2c0.4,0.5-19,16.9-47.2,13.3
								C-19589.9,5302.1-19612,5316.9-19612.6,5351.2z M-19551.2,5300.9c23,0.7,41.7-3.4,50.2-10.1c5.3-4.1,6.1-4.9-2.2-5.5
								c-17.9-1.3-36.1-21.8-41.8-41.7c-1.2-4.1-2.6-8.5-2.6-8.5c-47.3,38-151.7,98-151.7,98c7.1,32.1-16.2,51.3-48,40.1
								c-5.5-0.5-4.8,6.6-3.7,9.5c1.8,4.7,5.6,8.7,6.4,9.3c4.7,4,5.6,6.6,5,10.5c-0.7,3.8-0.6,3.7,2.1,5.1c4.8,2.5,4.6,6.1,2,13.6
								c-2.7,10.5-2.9,13.1,4.7,18.1c9.8,6.2,29,12.9,26.2,22.2c-6.3,21.3-16.7,39.6-25.8,59.5c-3.4,5.5-2.6,14.6,0.1,18.8
								c3.4,6.5,3.1,14.2,7.4,20.2c24.3,35.3,45.1,65.8,67.2,97.7l226.4-1.3l-3.1-522.3c0,0-38,34.8-37.9,37.2
								c0.2,2.9,8.3,7.4,11.9,8c0.1-1.6-0.1-7.8,0.4-10c0.3-3.2,10.5-2.4,13.9,0.3c2.4,1.9,1.7,14.5-0.6,24.7
								c-1.9,8.4-1.6,8.5,2,13.3c4.4,5.9,6,10.9,5.5,17.5c-0.3,3.6-0.2,6.5,0.8,8.9c2.5,5.7,1.8,13.7-0.9,17.4
								c-3.9,5.4-3.9,6.2-3.1,9.1c3.3,10,2.1,18.5-9.1,22.9c-1.4,0.6-3,3-3.9,5.2c-4.8,16-14,16.1-26.6,11.5
								c-8.7,34.5-44.8,43.3-70.8,42.4c-27.1-0.9-54.7,1.3-66.9,19C-19615.2,5319.8-19596.5,5299.6-19551.2,5300.9L-19551.2,5300.9z
								 M-19469.8,5231.1c4.6-1.7,5.1-6.5,1.3-9.6c-6-4.7-12.8,0.2-9.9,6.9C-19476.9,5232.3-19474.3,5232.8-19469.8,5231.1z
								 M-20184,5220.1l-18.1-12.3l0.2,11.1l18.1,11.4L-20184,5220.1z M-20149.8,5229.1l-12.9-15.2c-37.8-22.7-70.6-48.1-102.1-68.5
								l-0.1,14.1l9,4.4c0,0,0.7-3.1,1.3-4.9c1.1-3.4,11.5,6,14.9,13.6c0.8,1.9,2.6,6.1,2.6,6.1l12.1,6.6c0,0,0.2-3.4,0.2-4.4
								c0-7.2,13,2.6,18.9,14.4c1.4,2.9,3.3,5.9,3.3,5.9l11.4,6.8c4.4-6.1,15.9,2.2,18.9,9.5c3.8,9.3,10.3,10.1,10.6,10.2
								L-20149.8,5229.1z M-20217.9,5227.4l0-10.8l-18.9-12.2l-0.2,11L-20217.9,5227.4z M-19442.4,5223.7c0.5-2.8-2.4-13.9-6.6-14.5
								c-2.6-0.4-6.8,3.6-6.8,6.4C-19455.8,5219.3-19442.9,5226.8-19442.4,5223.7z M-19457.8,5210.7c4.1-4.5-1.1-10.3-7.4-8.2
								c-7.5,2.4-4.8,9.1,3.5,9.2C-19459.8,5211.8-19458.7,5211.7-19457.8,5210.7z M-20219,5207.3l0-10.3l-17.5-11.3l-0.3,10.1
								L-20219,5207.3z M-20253.2,5203.8l0.1-9.9l-11.5-7.8l0.1,11.9L-20253.2,5203.8z M-20253,5174.1l-11.7-7.5l0.1,10.8l12.2,6.9
								L-20253,5174.1z M-20205.7,5141.1c-1.2-3.2-6.2-13.2-6.2-13.2l-53.2-36.4l0.1,11.3l59.5,39.2L-20205.7,5141.1z M-20231,5054
								l-0.7-4.6l-4.7,2.5L-20231,5054z M-20242.3,5055.2l-7.4,4l22.5,14.3l-1.9-10.3L-20242.3,5055.2z M-19466,4928.9l5.7-4.2
								l-10.2-6.8l-0.7,7L-19466,4928.9z M-19455.7,4922.2l7.5-6.3l-25.5-17.6l1.9,11L-19455.7,4922.2z M-19437.8,4912.8l0-7.6
								l-41.3-27.3l2.9,13.8c7.3,4.1,16.2,10.1,25.5,16.6C-19444.8,4912.4-19444.8,4914-19437.8,4912.8z M-19437.9,4898.8l-0.1-12
								l-47.8-31.1l3.9,14.1L-19437.9,4898.8z M-19438,4880.7l-0.1-12.6l-57.8-37.4l6.4,16.6L-19438,4880.7z M-19438.2,4849
								l-72.9-47.8l9.4,18.4l63.6,41.6L-19438.2,4849z M-19438.3,4830.6l-91.5-59.6l10.3,16.8l81.2,53.8L-19438.3,4830.6z
								 M-19438.4,4811l-3.4,0c-0.2,8.6-9.7,2.4-13.3-7c-2.7-6.3-3.3-7.9-3.3-7.9l-18.4-12.2c0.4,2.5,1.5,9.6,1.5,9.6l-12.4-7.4
								c0,0-3.6-11.8-3.8-11.9l-21.2-14.1c0.5,2.4,0.8,6.4-0.5,6.7c0,0-6.4-2.7-9.4-6.9c-3.1-4.4-3.6-8.8-3.6-8.8l-17.3-11l-4.3,0.5
								c0,0-2.3-1.5-4.5-3.3c-4.1-7.2-8.9-8.3-14.7-11.2c0,0,12.2,14,18.7,22.2c6,7.6,13.2,13.1,13.2,13.1l96.6,63.2L-19438.4,4811z
								 M-19438.5,4791.3l-7.5-4.4l0.6,11.6l6.9,4.6L-19438.5,4791.3z M-20188.9,4770.2c0.5-0.7-1.5-1.6-3.6-6.1
								c-5.2-11.3-5.8-15.2-3.1-27.1c1.3-5.7-3.9-8.1-6.3-2c-1.8,4.7-4.7,7.4-7.5,7c-2.6-0.3-3.1,0.8-2,4.3
								c1.4,4.9-1.5,11.4-5.7,13.2c-4.2,1.1-5,3.8-3.8,7.6c2,6.4-4.9,11.8-10.3,11.5c-8.4-0.4-5.1,7.2,5.1,14.3
								c3.8,2.7,5.5,4.1,8.4,2.7C-20210,4788.4-20195.8,4778-20188.9,4770.2z M-19459.2,4789.2l-0.5-11.1l-21.2-14.1l2.7,14.8
								L-19459.2,4789.2z M-19438.5,4784.4l-0.1-11.2l-8.7-5.5l0.5,11.9L-19438.5,4784.4z M-20234.8,4771.8c2,2,4.1,2.2,7.3,0.3
								c3.7-1.9,2.3-4.8-1.6-6.7C-20232.8,4763.4-20237.8,4769.2-20234.8,4771.8z M-20241.1,4766.9c-0.3-2.3,2.6-5.5,4.5-5.6
								c4.3-0.3,3.6-2.6-1.4-5.5c-2.3-1.4-6.5-4.6-8-5.7c-7.5-5.3-14.6,3-9,10C-20250.4,4765.8-20243.6,4769.2-20241.1,4766.9z
								 M-19461.4,4769.2l-1.7-12.3l-19.2-12.5l1.6,13.6L-19461.4,4769.2z M-20156,4743.2c1-1.7,1.3-3.4,1.2-5.4
								c-0.4-7.8-4.5-16.9-10.2-24.5c-4.2-5.7-9.4-10.5-14.6-13.3c-14.7-7.4-34.1-4-31.2,5.5c2.1,6.5,1.6,11.9-4,15.2
								c-3.8,2.2-4.3,5.2-0.2,5.2c2.9,0,10.7-2.7,13.9-7.8c4.5-7.2,7.1-11.3,6.2,0.3c-0.4,4.9,0.2,4.5,7.8,4.1
								c10.3-0.6,8.4,1.3,2.4,6c-8.7,6.8-10.4,18.2-5.9,27.8c2.8,6,4.7,9.1,8.3,8.3C-20174.7,4759.6-20162.1,4749.4-20156,4743.2z
								 M-19495.2,4753.8l-18.9-12.2l0.8,13.1l20.4,11.8L-19495.2,4753.8z M-20216.9,4746c-6.9-8.6-15,2.5-9.7,7.3
								C-20222.8,4756.5-20213.2,4753.1-20216.9,4746z M-20233.2,4747.3c-0.9-2.7,4.1-7,4.9-8.8c2.3-5-18.2-18.8-24.5-10.5
								c-4.3,5.7-1.3,11.4,10.6,19.1C-20235.1,4751.7-20231.7,4751.7-20233.2,4747.3z M-19497.1,4734.6l-17.4-10.6l0.4,11.3
								l18.5,10.9L-19497.1,4734.6z M-19527.7,4744.9l-0.1-11.6l-17.6-12l-0.2,12L-19527.7,4744.9z M-20208.5,4735.3
								c3.2-3.1,2.1-4.1-4.1-3.8c-3.9,0.2-5.1-0.4-5.3,1.4C-20218.5,4736.7-20211.8,4738.5-20208.5,4735.3z M-20223.1,4731
								c0.3-0.8-1.9-2.4-5.5-5.3c-6.9-5.7-7.7-9.2-1.1-13.7c9.3-6.4-0.5-15.3-11.4-11.6c-8.8,3-8.8,11.8-3.5,17.4
								C-20237.4,4722.5-20224.4,4736-20223.1,4731z M-19527.9,4715.3l-17.3-11.6l0.1,11.4l17.3,9.9L-19527.9,4715.3z
								 M-20219.9,4720.1c7.6-3.9,8-13.7,0.3-10.1c-3.2,1.5-7.3,5.5-7.3,7.3C-20226.9,4720.8-20223.8,4722.1-20219.9,4720.1z
								 M-20214.4,4697.7c9.9-5.4,8.4-10.3-1.6-16.4c-12.1-6.8-20.5,6.4-10.5,15.4C-20221.3,4701.4-20220.1,4700.8-20214.4,4697.7z
								 M-20201.6,4688.1c16.1-17.3,26.8-16.5,48.1-16.2c55,0.2,71.8-26.1,69.9-44.4c-26.7,13.3-50.6,6.4-76,10.4
								c-43.9,10-48.9,30.5-51.9,42.3L-20201.6,4688.1z M-19981.3,4628c14.2,0,13.5,0.5,7.6-11.1c13.8,1.8,19.4,8.3,14.8-5.3
								c7.3,2.6,11.7,4.5,19.3,6.9l4.8-2.8c-29.4-28.1-61.6-4-52.9,24.5l10.8-5.2L-19981.3,4628z"/>
							<path id="path3502-5-8-1_1_" class="st3" d="M-19903.9,5659.5l6.6-32.7l60.6,2.6c0,0,7.2,20.5,10.1,29.7L-19903.9,5659.5z
								 M-20043.9,5659.5l31.9-52.9l45.7,12l-10.3,41.3L-20043.9,5659.5z M-19955.1,5659.8l13.5-56.4c-26.2-5.6-50.8-9.2-79.7-16.7
								l-46.4,73.7l-28.2-0.6c24.1-32.2,68-97.3,68-97.3c101.9,34.1,204.4,39.4,307.4,20.4c0,0,38.3,49.6,52.1,76.5l-26.8-1.1
								l-33.6-55.2c-23.2,2.6-46,5.8-70.2,7l16.9,48.7l-26.6,0.2l-15.4-48.6c-29-0.9-53.4,1.5-88.2-3.7l-12,53L-19955.1,5659.8z
								 M-19763.3,5658.7l-9.4-34.6l32.7-4c0,0,15.3,26.3,23.7,38.3L-19763.3,5658.7z M-20058.8,5338.7
								c40.3-61.7,182.7-259.4,182.7-259.4l21.1,0.7c0,0-127.5,178.6-189,268.6L-20058.8,5338.7z M-20266.8,5244.3l50.3,35.5l2,279
								l-50.7,35.9L-20266.8,5244.3z M-20061.5,4786.7l30.7,58.8c-128.2,122-102,264.2-32.4,365.3c0,0-8.8,22.8-28.1,47
								c-93.8-60.6-123.1-219.5-122.4-221.2C-20111.3,4944.8-20097.6,4915.6-20061.5,4786.7z M-19532.2,5218.2
								c6.1-89.8,50-148.8,99.3-184.9l3.1,91.3C-19462.1,5155.7-19496.2,5187.8-19532.2,5218.2z M-19667.4,5128.5
								c112.3-105.4,115.2-254,32.4-362.7l33.4-46.9c48,50.4,95.1,103.3,115.7,226.6c-71.2,56.4-133.8,149.2-150,242.6
								L-19667.4,5128.5z M-19823.6,5007.7l-0.5-42.8l42.2-0.5l-1,42.7L-19823.6,5007.7z M-19912.9,5007.9l-0.9-42.6l41.7,0.1
								l-0.4,43.2L-19912.9,5007.9z M-19841.3,4893.3c0,0,138.8-195.3,193.3-265.8l11.7,8.5l-184.5,258.3L-19841.3,4893.3z
								 M-20168.9,4759.2c0.3,76.7-48.9,137.8-99.2,177.8l0.2-87.4L-20168.9,4759.2z M-19436,4384.6l2.3,340.6l-47.4-28l2.3-285.6
								L-19436,4384.6z M-19661.2,4406.1c-106.9-26.9-204.2-34.6-306.3-12.2c-13.4-15.7-58.6-81.2-58.6-81.2l25.8,0.2l36.9,57.9
								l69.6-9.5l-18.2-47.2l28.7,0l14.6,46.3c-0.1-0.4,56.7,0.2,88.3,3.7c4.9-17.2,14.1-51.5,14.1-51.5l31.6-0.2
								c-4,16.5-14.7,55.7-14.7,55.7c25.9,3.4,74.1,15.3,74.5,15.8c16.7-23.8,32.3-47.5,47.4-71.3l30.8-0.3
								C-19605.5,4327.6-19659.5,4406.8-19661.2,4406.1z M-19681.1,4365.4l-47.2-10.6l12.1-41.3l65.9-0.4L-19681.1,4365.4z
								 M-19952,4352.1l-22.2-38.2l42.2-0.2l14.2,33.7L-19952,4352.1z M-19856.3,4343.7l-6.6-30.5l76.6-0.5l-7.6,32.5
								L-19856.3,4343.7z"/>
							<path id="path3500-9-6-1_1_" d="M-20031.6,4311.7l68.7,97.3c0.3-0.3,38.1-7.7,75.3-9.8c37-2,81.1,0,81.5,1.1
								c0,0,11.9,34.8,15.9,52c5.4,22.9,5,49.2-0.4,66.8c-7.9,25.7-12.1,33.4-30,51.1c-13.3,12.9-32.1,27-51.5,34.6
								c-26.9,11.3-29.6,11.3-45.5,12.1c-10.5,0.6-11.6,1-17.3,4c-1.8,0.6-2.9,2.5-4.5,3c-1.3,0.5-3.9,0-3.9,0
								c-87.4,38.7-155.8,81.6-207.4,119.9c-0.6,0.4-1,2.4-1.6,2.9c-4.2,3.5-8.1,6.1-12.2,9.3c-0.6,0.4-1.8-0.3-2.4,0.1
								c-60.7,47-95,85-107.7,96l2.5,217.2c0,0,27.7-14.3,41.9-23c10.5,84,53.2,165.5,120.2,221.9l-28.7,39.8l-133.9-90.4l4.2,400.8
								l70.6-49.3l-0.2-42.3c21.2,14,41.9,19.4,57.2,83.6c11.9-22.7,10.6-56.3,5.1-78.8c0.1,0,17.9-14.8,23.3-26.1l-26.5-23
								c0,0,6.5-56.2-6-67.5c-9.7,25.6-17.4,52.6-54,72.5l-1.6-195.2c18.4,11.4,35.8,24.3,53.9,36l2.5-0.5l18.8,12.6
								c0,0-2,4-3.8,6.7c-22.5,34.4,15.6,76.2,46.3,50.7c12-10,34.9,31.1,39.4,70.6c4.5,25.6,7,57.3,14.2,79.5
								c2.2,6.5,1.4,10.1-3.2,14.1c-23.4,33.2-70.5,100-70.5,100l34.2-0.2l2.5-3.9l-25.2,0.1c21.6-28.8,42.1-62.4,64.5-90.6
								c84.2,30.9,221.8,37.3,304.8,17.8c17.3,23.8,34.1,48.8,50.8,73l-23.9,0.1l3.3,5.1l32.3-0.2l-68.7-99.1
								c-46.8,14.1-161.3,9.4-159.2,8.3c0,0-0.3-0.8-4.4-12c-20-62.9-22.2-118.7,26.8-164.2c26-23.3,55.2-38.7,87.9-36
								c14.6-0.4,14.9-1.2,20.9-3.9c3.3-1.5,10.3-3.1,10.3-3.1l33-18.4l4.4-0.9l9.5-5l1.9-2.3l15.3-7.8l1.7,0.1l20.7-12l0.3-1.7
								l8.1-5.1l2,2c2.3,0.2,81.2-51.9,114-80.9l2.1,0.7c38.4-31.2,90.5-80.4,106-99l-1.4-93l-1.3-1.1l-1.1-103l-3,0l-0.2-12.7
								c-17,6.4-35.7,22.2-37,21.6c-11.4-87.1-52.3-167.1-118.7-225.7l27.9-38.7l131.1,86.5l0.2-25.5l1.6,0
								c1-97.7,0.4-351.1,0.4-351.1l-1.3-0.1l-0.2-20.2l-66.5,42.7l-0.7,42.8c-29.6-9.4-48.6-44.6-55-76c-8.6,3.5-12.4,36.6-9,78.6
								c-9.1,5.5-14.9,11.4-20.5,18.6c7.3,9,15.4,16.4,24.3,24c-1.8,4-5.4,60-1.5,66.9c1.8,5.1,8,4.3,8-1
								c8.7-43.7,50.3-72.6,52.6-70l0.2,201.3l-74.4-51.1c15.5-17.5,18.6-47-1.1-61.3c-19.7-14.3-38.9-2-43.4,7.2
								c-24.2-15.4-32.6-73.1-36.2-95.6c-0.9-11-3.9-25.9-7.2-39.3c-2.1-8.4-4.6-16.5-4.9-24c-0.2-3.6,0.3-5.1,3.5-9.6l71.4-101.9
								l-36.8,0.1l-0.4,0.6l28.9-0.1l-64.4,92c-97.9-29.9-199.3-36.7-307.6-16.7l-54-74.5l24.3-0.2l-1-1.6L-20031.6,4311.7
								L-20031.6,4311.7z M-19975.1,4312.2l1,1.8l42.1-0.4l-0.6-1.5C-19932.6,4312.1-19975,4312.2-19975.1,4312.2z M-19912.7,4312
								l0.8,2.2l28.7-0.1l-0.9-2.2L-19912.7,4312L-19912.7,4312z M-19766.1,4312l-0.3,1l31.7-0.1l0.3-1L-19766.1,4312z
								 M-19863,4312.6l0.3,1.3l76.4-0.5l0.3-1.2L-19863,4312.6z M-19716,4312.4l-0.3,1.1l65.9-0.4l0.6-1L-19716,4312.4
								L-19716,4312.4z M-19437.6,4366.5l0.3,13.8l-44.1,28.2c-0.8,58.9-1.1,285.6-1.1,285.6l-10.6-6.8l0.4-283.8
								C-19492.8,4403.4-19453.8,4378.2-19437.6,4366.5z M-19553.7,4378.3l1.5,0l0.5,3.2l-2.6,0L-19553.7,4378.3z M-19550.5,4386.6
								l1.2,4.3l-6.5,0l1.1-4.2L-19550.5,4386.6L-19550.5,4386.6z M-19438.7,4388.2l0.1,9l-38.1,23.9l-0.1-8.9L-19438.7,4388.2z
								 M-19556.6,4396.4l10,0.1l1.7,5l-12.6,0.1L-19556.6,4396.4z M-19801.9,4400.5l6.7,1c15.5,36.2,19.7,67.3,22.5,99.7
								c6.3,42,18.9,84.1,27.6,102l-9.8,0c-1.1-0.1-22.2-60.9-26.7-96.8c-1.2-7.1-0.8-13.7-1.2-20.3
								C-19785.1,4458.1-19789.1,4437.3-19801.9,4400.5L-19801.9,4400.5z M-19789.3,4401.9l8.5,0.8c6.1,25.7,14.9,50,18.6,75.8
								c5.9,41.3,9.2,83.6,29.5,124.3l-8,0c-12.4-27.5-20.1-56.2-25.1-87.3c-3.9-17.8-4-31.2-6.1-47.3
								C-19774.5,4448.8-19782.1,4424.2-19789.3,4401.9z M-19776.4,4403l8.5,1.2c5.8,25.5,15.6,53.6,18.2,76.7
								c5.5,47.1,13.2,90.9,28.3,121.9l-6-0.1c-23.4-44.3-24-83.9-30.7-125.5C-19761.9,4452.7-19770.1,4428.2-19776.4,4403
								L-19776.4,4403z M-19762.8,4404.9l7.5,1.1c5.4,25.4,15,54.2,17.3,80c4.1,45.7,12.5,80.2,29.8,117l-7.1,0.2
								c-20.9-35.8-23.9-79.9-30.6-124.5C-19749.4,4454-19757.6,4429.2-19762.8,4404.9z M-19438.7,4403.1l0.1,11.1l-38.1,24.6
								l-0.1-11L-19438.7,4403.1z M-19750.4,4407l7.9,1.2c5.2,24.5,14.8,50.6,17.2,74.5c4,40.8,11.9,82,29,119.9l-7.3,0.5
								c-18.2-38.3-26.2-73.1-29.8-117.2C-19735.5,4461.2-19745.2,4431.1-19750.4,4407z M-19542.4,4406l2.8,6.6l-18.3,1l0.2-7.4
								L-19542.4,4406L-19542.4,4406z M-19737.5,4409.4l9.4,1.8c10.2,39.1,13,76.1,19.9,113.3c8.7,46.2,17.8,69.4,25.1,77.9
								l-7.7,0.3c-19.1-39.9-26.1-79.7-30.7-120.9C-19724.2,4457.5-19732.4,4433.6-19737.5,4409.4L-19737.5,4409.4z M-19723.2,4412
								l7.1,1.4c8.7,31.9,12.7,61.8,16.6,90.8c7.1,55,25.8,96.7,29.8,98.6l-7.9-0.3c-17.2-23.3-23.8-63.2-32.5-119.4
								C-19713.8,4458.3-19717.6,4435-19723.2,4412L-19723.2,4412z M-19711.7,4414.2l8,1.9c0,0,7.4,28.1,13.1,65.4
								c4.7,31.1,7.5,92.3,41.7,127.4c17.1,17.5,47.2,32.6,67.5,15.9c8.7-7.5,14.3-19.3,8.9-32c-9-21.2-38.8-17.4-28.8,4.9
								c1.1,5.3-5.9,5.6-10.8,0.4c-5.2-5.5-3.9-11.9-0.3-17.8c7.6-12.4,28.2-13.7,40.3-2.8c19.4,18.7,11.3,50.9-13.1,61.3
								c-28.1,12-64.5-12.3-79-35.6c-24-40.6-27.9-79.3-33.7-120.4C-19700.8,4460.6-19706.4,4437.2-19711.7,4414.2L-19711.7,4414.2z
								 M-19699.6,4417.4l8.1,1.9c0,0.1,9.1,39.6,12.2,63c3.8,28.9,8,63.1,20.7,89.3c7.9,16.3,19.2,30.1,30.7,38
								c9.9,6.8,18.7,11.2,31.8,8.3c15.1-3.4,15.6-26.6,1.2-26.5c-7.4,0-2.6-7,3.5-7.3c21.7-0.8,22.5,33.1,2.1,40.8
								c-23.3,8.8-48.7-7.4-64.5-27.8c-27.7-42.1-26.8-80.7-33-114.7C-19688.5,4464.5-19699,4418.3-19699.6,4417.4z
								 M-19535.3,4417.6l5,6.6l-27.6,0l0.1-6.3L-19535.3,4417.6L-19535.3,4417.6z M-19687.5,4420.7l7.8,2.6c0.2,0,8,30.7,12.9,66.9
								c5.8,35,7.8,64.1,26.2,89.2c7.7,10.5,22.1,24.4,31.1,26c5.6,1.2,11.4-0.1,12.8-4.3c2.3-6.9,8.3-3.8,8.4,2.5
								c0,4.4-3.2,9-8.7,10.6c-26.8,4.8-51.5-28.5-59.1-45.4c-10.2-24.6-14.7-52.2-19.3-86.5
								C-19677.3,4467.9-19686.4,4421.6-19687.5,4420.7z M-19438.6,4420.5l-0.1,11.1l-37.9,24.1l-0.1-10.8L-19438.6,4420.5z
								 M-19675.8,4424l8.7,2.3c0,0,7.4,27,11.9,60.3c4.6,33.8,14.3,73.1,32,93.3c1.6,1.9,2.7,3.3,3.4,4.5c1.3,2.8-0.2,7.4-1.5,7.5
								c-31.5-16-39.3-81.2-42.2-103.3C-19667.5,4454.5-19675.8,4424-19675.8,4424z M-19553.6,4428.5l27.7,0.6l6.6,6.4l-36.7-0.1
								C-19559.8,4431.5-19557.4,4432-19553.6,4428.5z M-19438.5,4436.9l0.1,9.2l-38.1,24.3l-0.1-9.4L-19438.5,4436.9z
								 M-19552.5,4440.5l40.6,0.5l14.3,8.3l-62-0.1L-19552.5,4440.5z M-19438.4,4451.4l0.1,11l-38.1,24l-0.1-10.4L-19438.4,4451.4z
								 M-19567.5,4454.3l68.9,0.3l0.2,7.4l-74.7-1.5L-19567.5,4454.3z M-19576.4,4467l77.9-0.3l0.2,8.2l-70.9-0.3L-19576.4,4467
								L-19576.4,4467z M-19438.3,4467.5l0.1,11.5l-38.1,23.7l-0.1-10.9L-19438.3,4467.5z M-19561.6,4480.3l59.7-0.1l-6.4,6.9
								l-45-0.2L-19561.6,4480.3z M-19438.2,4483.6l0.1,10.8l-38.1,24.1l-0.1-10.7L-19438.2,4483.6z M-19516.6,4492.3l-7.2,7
								l-31-0.2l1-6.4L-19516.6,4492.3z M-19438.1,4499.5l0.1,11.6l-38.1,23.4l-0.1-10.1L-19438.1,4499.5z M-19555.2,4504.4
								l25.5,0.4l-3.9,5.3l-22.4,0.2L-19555.2,4504.4L-19555.2,4504.4z M-19784.8,4515.1c4,29.2,25.8,88.1,25.8,88.1l-8.4,0.1
								c0.4,0.6-15.5-37.1-21.4-72.6C-19789.6,4527.3-19787.3,4515.9-19784.8,4515.1L-19784.8,4515.1z M-19556.8,4515.4l19.7,0.2
								l-4.2,7.6l-16,0.1L-19556.8,4515.4L-19556.8,4515.4z M-19438,4516.5l0.1,10.2l-38.1,23.5l-0.1-9.3L-19438,4516.5z
								 M-19557.3,4527.5l13,0.3l-3,7l-10.1-0.2L-19557.3,4527.5z M-19437.9,4532.3l0.1,10.8l-38.1,23.8l-0.1-10.5L-19437.9,4532.3z
								 M-19792.7,4536.7c4,21.3,20.5,64,21.8,66.8l-7.2,0.1c-0.3,1-17.2-38.3-19-55.1C-19798.1,4545-19796.2,4538-19792.7,4536.7
								L-19792.7,4536.7z M-19557.4,4539.8l7.7,0.3l-1.3,4l-6.3,0.2L-19557.4,4539.8z M-19556.7,4549.4l4,0.1l-0.9,3.8l-2.5,0
								L-19556.7,4549.4L-19556.7,4549.4z M-19437.8,4548.9l0.1,8.8l-38.1,24.2l0-8.3L-19437.8,4548.9z M-19802.2,4552
								c5.9,17.1,11.8,34.4,18.8,51.1l-8.6-0.2c-5.7-12-9.8-25.5-14.3-38.7C-19807.5,4558.7-19805,4554-19802.2,4552L-19802.2,4552z
								 M-19810.7,4563.5l14.5,39.4l-8.1,0c-3.4-7.9-7.2-16.8-9.8-24.9C-19816.8,4569.5-19816.6,4569.2-19810.7,4563.5z
								 M-19437.7,4563.7l0.1,10.4l-38.1,23.7l-0.1-9L-19437.7,4563.7z M-19820.2,4574.4c1.9-0.2,2,2.2,3.7,6.9l7.9,21.8l-10-0.2
								c-3-6.9-4.8-12.9-5.6-19.6c-0.3-3.2-0.9-6.5,1.4-7.9C-19821.6,4574.8-19820.8,4574.5-19820.2,4574.4L-19820.2,4574.4z
								 M-19830.7,4582.7c1.7,0,2.3,3,3.7,7.6l4.2,12.8l-9.3-0.2c-2.8-6-3.9-10.4-3.1-16.7
								C-19833.1,4583.7-19831.7,4582.7-19830.7,4582.7L-19830.7,4582.7z M-19437.6,4580.4l0.1,10.9l-38.1,23l-0.1-10.1
								L-19437.6,4580.4z M-19840.3,4590.6l4,12.6l-8.4-0.1c-1.4-2.9-0.5-6.6-0.6-9.9L-19840.3,4590.6z M-19851.2,4597.1
								c0.1,0,0.2,0,0.3,0.1c1.2,5.6,0.1,5.9,0.1,5.9l-11.7,0C-19862.6,4603.1-19853.1,4597.1-19851.2,4597.1L-19851.2,4597.1z
								 M-19437.5,4598l0.1,8.7l-38.1,23.9l-0.1-8.8L-19437.5,4598z M-19891.6,4614.4l229.5-0.7l7.7,10.7c0,0-22.3,0.7-95.5,0.7
								c-61.6,1.2-185.3-0.2-185.3-0.2l12-5.7C-19906.5,4618.7-19891.3,4614.3-19891.6,4614.4z M-19437.4,4613l0.1,9.6l-38.1,23.2
								l-0.1-9.3L-19437.4,4613z M-20083.2,4626c-18.4,8.2-35.6,10.3-48.5,9.4c-27.7-2.1-70.1,9.7-78.4,36.2
								c-2.6,9.3-2.7,9.6,2.5,14.3c2.5,2.3,5,4.1,5.5,3.9c4.4-4,10.3-11.3,16.6-13.4c8.3-2.5,12.8-2.9,26.5-3.6
								c29.4-1.5,36.1-2.7,43.4-4.7c16.1-4.3,32.2-20.2,33.1-37.7C-20082.6,4628.4-20083.2,4626-20083.2,4626z M-20084,4628.4
								c-2.9,36.6-42.7,41.6-60.3,40.7c-35.5-1.9-49.5,8.7-55.1,15.3c-1.8,1.8-2.9,1.4-2.6-0.3c4-20.3,37-21.2,53.5-21.1
								c40.7,1.6,50.8-17.9,49.7-18.1c-3.1,1.4-5.4,2.6-8.5,4.1c-1.3,0.6-1.1-0.2-4.6-2.3c-0.1,0.3-4,9.3-9.3,0.8
								c0.1,0.4-3.7,7.6-10.8,1c0,0.7-4.2,6.9-11.2,0.7c-6.5,5.6-9.6,2.5-12.4-1.3c-2,1.2-8,9.4-13.1,0.7c-5.3,3.4-7.6,7.1-12.2,4.9
								c-10.8,2-20,13-23.8,23.1c-1.2,3.5-3.6,4-3.9,0.2c-1.3-10.5,15.9-28.8,33.4-33.9c13.6-4,22.8-6.9,52.6-5.9
								C-20105.5,4637.5-20084,4628.4-20084,4628.4z M-19648.5,4628.6l10.8,7.2l-185.7,257.5l-16.5-0.3L-19648.5,4628.6
								L-19648.5,4628.6z M-19948.9,4630.6l21.3-0.1l0.2,34.9l-18.3,0.1l-6.6-9.6c1.7,1,3.7,1.6,5.8,1.5c6.3,0,11.4-5.1,11.3-11.4
								c0-6.3-5.2-11.3-11.5-11.2c-6.3,0-11.4,5.1-11.4,11.4c0,0.6,0.1,1.1,0.1,1.6l-6.9-10.1c0,0,2.9-1.7,9.8-4.9
								C-19953.2,4632.1-19948.9,4630.6-19948.9,4630.6z M-19883.3,4630.2l36.1-0.2l0.2,34.9l-36.1,0.2L-19883.3,4630.2z
								 M-19804.3,4629.7l37.3-0.2l0.2,35.2l-37.3,0L-19804.3,4629.7z M-19723.7,4629.2l37.3-0.2l0.2,34.9l-37.3,0.2
								L-19723.7,4629.2z M-19437.9,4628.4l0.6,10.9l-38.1,23.3l-0.1-10.8L-19437.9,4628.4z M-19706.3,4633.6c-6.7,0-12.1,5.4-12,12
								c0,6.6,5.5,12,12.2,11.9c6.7,0,12-5.4,12-12.1C-19694.2,4638.9-19699.7,4633.6-19706.3,4633.6z M-19865.1,4635.2
								c-6.7,0-12,5.4-12,12c0,6.6,5.5,12,12.1,11.9c6.7,0,12-5.4,12-12.1C-19853,4640.4-19858.5,4635.1-19865.1,4635.2z
								 M-19786.5,4634.9c-6.7,0-12,5.4-12,12c0,6.6,5.5,12,12.1,11.9c6.7,0,12-5.5,12-12.1S-19779.8,4634.9-19786.5,4634.9z
								 M-19745.8,4636.1c5.6,0,10.1,4.4,10.2,10c0,5.6-4.5,10.1-10.1,10.1c-5.6,0-10.2-4.4-10.2-10S-19751.4,4636.2-19745.8,4636.1
								z M-19905.8,4637.2c5.6,0,10.2,4.4,10.2,10c0,5.6-4.5,10.1-10.1,10.1c-5.6,0-10.1-4.4-10.2-10
								C-19915.9,4641.8-19911.4,4637.2-19905.8,4637.2z M-19665.9,4636.1c2.4,0,4.6,0.9,6.3,2.4l-10.9,14.9
								c-2.7-1.6-4.6-4.5-4.6-7.9C-19675.3,4640.4-19671.1,4636.2-19665.9,4636.1z M-19824.4,4637.1c5.6,0,10.2,4.4,10.2,10
								s-4.5,10.1-10.1,10.1c-5.6,0-10.2-4.4-10.2-10C-19834.5,4641.7-19830,4637.2-19824.4,4637.1z M-19946.7,4638.6
								c4.2,0,7.6,3.3,7.6,7.4c0,4.1-3.3,7.5-7.5,7.6c-4.2,0-7.6-3.3-7.6-7.5C-19954.2,4642-19950.9,4638.6-19946.7,4638.6z
								 M-19969.9,4639.1c64.8,81,99.5,163.2,115,253l-10.8-0.4c-18.4-97.6-59.2-181.2-114.1-248.6L-19969.9,4639.1L-19969.9,4639.1
								z M-19706.3,4637.6c4.4,0,8,3.5,8,7.9c0,4.4-3.5,8-7.9,8c-4.4,0-8-3.5-8.1-7.9
								C-19714.3,4641.2-19710.7,4637.7-19706.3,4637.6z M-19865.1,4639.2c4.4,0,8,3.5,8.1,7.9c0,4.4-3.5,8-8,8c-4.4,0-8-3.5-8-7.9
								C-19873.1,4642.8-19869.5,4639.2-19865.1,4639.2z M-19786.4,4639c4.4,0,8,3.5,8,7.9c0,4.4-3.5,8-7.9,8c-4.4,0-8-3.5-8.1-7.9
								C-19794.4,4642.6-19790.9,4639-19786.4,4639z M-19586.2,4643.5c4.4,32.2-3.8,53-28.5,56.5c-31.5,4.5-35.6,6.9-35.6,36.5
								c0,35.1-5.2,45.3-30.2,48.2c-28.2,3.3-34.7,6.7-32,41.4c2,25.4-8,36.3-29.7,41.1c-17,3.8-31.6,9.5-37.8,26.5l-15.5,0.3
								c3.9-26.8,30.9-39.7,48.2-40.7c18.7-4.5,22.6-10.8,19.3-43.3c-2.4-24.5,6.6-32,35.6-37.8c23.2-4.7,28.8-11.3,27.4-30.2
								c-2.9-40.4-0.3-46.5,22.8-51.5c11.8-2.8,30.9-4.2,38.2-13.2c8.3-10.2,6.1-18.8,5.3-31.3L-19586.2,4643.5L-19586.2,4643.5z
								 M-19437.2,4643.7l0.1,10.6l-38.1,23.6l-0.1-10.3L-19437.2,4643.7z M-19998.6,4653.2c-8,35.1,20.2,42.5,37.3,48.3
								c19.9,6.8,24.8,16.7,22.8,51.5c-1.6,26.3,1.4,32.1,18.6,41.1c26.3,13.3,33.5,32.4,22,60.4c-7.1,17.3-3.3,22.1,1.4,37.1
								l-12.7-0.1c-0.9,0.3-11.8-18.7-2.7-39.3c10.7-24.4,10.3-36.6-14-47.4c-18.8-8.4-24.6-16.3-25.9-33.7c-0.5-7.3-0.5-11,1.1-27
								c2.1-20.1-5.2-28.7-35.2-39.6c-13.4-4.8-22.5-16.3-25.4-34.4c-0.8-5.1-0.1-11-0.1-11L-19998.6,4653.2L-19998.6,4653.2z
								 M-19550.8,4654.4l114.3,74.6l-0.7,16.7l-121.3-79.4L-19550.8,4654.4z M-19624.1,4656.5c5.5,0,10,4.4,10,9.8
								c0,5.5-4.4,9.9-9.9,10s-10-4.4-10-9.8C-19634.1,4661-19629.6,4656.5-19624.1,4656.5z M-19982.3,4662.9c5,0,9.1,4,9.1,8.9
								c0,5-4,9-9,9.1c-5,0-9.1-4-9.1-8.9C-19991.4,4667-19987.3,4663-19982.3,4662.9z M-19437.5,4660.8l-0.3,10.1l-37.4,23.2
								l-0.1-10.1L-19437.5,4660.8z M-19941.7,4670.4l259.4-1.5l-6.6,8.9l-247.9-1.1L-19941.7,4670.4z M-20031.7,4671.3
								c34.7,44.4,68.8,90.1,95.4,176.5l-11.1,4.3c-22-69.5-55.4-127.2-94.8-174.8L-20031.7,4671.3L-20031.7,4671.3z M-19437,4675.7
								l0.1,11l-28.6,17.5l-8.5-5.4L-19437,4675.7z M-20046.9,4680.5l5.1,6.6c0,0-5.5,4.3-11.7,8.8c-16.9,12.2-19.1,13.5-20.2,21.4
								c-2.6,18.7,16.8,27.8,36.1,16.9c6.9-3.2,22.1-12.9,22.1-12.9l4.4,6.4c0,0-21.8,16.4-34.6,20.1c-28.1,8.3-49.3-27-28.6-48.1
								c3.2-3.2,9.8-7.6,15.2-11C-20053.5,4685.1-20046.9,4680.5-20046.9,4680.5z M-19931,4684.2l239,0l-151.4,208.1l-6.8-0.3
								C-19862.5,4814.6-19892.2,4747-19931,4684.2L-19931,4684.2z M-20035.2,4693.6l14.1,19.3c0,0-9.1,8.7-24,16.9
								c-12,6.6-25.1-5.2-17.6-16C-20055.1,4703.2-20035.2,4693.6-20035.2,4693.6z M-19437,4692.1l0.1,10.1l-16.5,10.2l-7.6-4.8
								L-19437,4692.1z M-20036.9,4703.4c-6.6,0.4-17.6,7.9-21.3,14.4c-1.6,2.8-1,5.1,0.5,7c2.3,2.9,5,2.7,12.9-1.6
								c16.2-8.7,19.2-13.8,12-18.8c-1-0.7-2.2-1-3.5-1C-20036.5,4703.4-20036.7,4703.4-20036.9,4703.4z M-20037.4,4707.5
								c1.1-0.1,2.3,0.2,3.3,0.1c2.8,1.1,2,4.6-1,5.4c-0.6-1-5.5-1.1-5.2,3.8c-1.2,2.8-1.1,2.6-4.7,3c-2.4-0.6-3.9,1.1-4.4,2.1
								c-2.5,1.3-5.5,0.9-6-0.5c-0.6-1.4,1.4-5.6,3.2-5.6c0.8,0.1,2.3-1.2,3.8-2.2c-0.1-2.7,3.1-3.1,4-3.1c0.9,0.2,3.9,0.2,5.4-2.3
								C-20038.6,4707.8-20038,4707.6-20037.4,4707.5z M-19436.9,4706.4l0.1,15.6l-12-7.5L-19436.9,4706.4z M-20100.1,4712.3
								c43.8,50.8,75.5,104.9,95.9,180l-8.7,6c-13.5-52.6-34.1-108.2-94.6-180.3L-20100.1,4712.3z M-19590.8,4710.1
								c19.8,16.5,101,91.5,117.2,225.4l-10.8,6.6c-9.1-70.7-37.6-151.6-113.4-223L-19590.8,4710.1z M-19629.7,4715
								c5.5,0,10,4.4,10,9.8c0,5.5-4.4,9.9-9.9,10c-5.5,0-10-4.4-10-9.8C-19639.6,4719.5-19635.2,4715-19629.7,4715z
								 M-20112.2,4721.7c0,0,9.2,9.3,9.2,11.5c0,4.4-3.5,6.9-24.5,14.7c-3.5,1.3-19,5-19,5l-0.6-7.5c7.9-2.9,29.2-8.1,30.7-12.6
								c0.7-1.8-3.1-6.2-2.3-6.2L-20112.2,4721.7z M-19967.1,4722.8c5,0,9.1,4,9.1,8.9c0,5-4,9-9,9.1s-9.1-4-9.1-8.9
								C-19976.2,4726.9-19972.1,4722.8-19967.1,4722.8z M-19600.7,4723.2c66.2,63.4,102.9,142.1,111.8,223.5
								c-76.3,62.3-127.9,140.5-148,237.9c-10.3-16.9-19.1-36.3-28.7-55.2c101.7-89.8,122.3-250.7,33.2-362.8L-19600.7,4723.2
								L-19600.7,4723.2z M-20003.1,4737.7l4.7,7.1c0,0-1,0.9-15.2,9.8c-20.9,13-24.3,21.5-17.2,34.7c7.2,13.5,15.2,14.1,37.7,3.2
								c7.9-3.9,14.7-7.9,14.7-7.9l3.6,7.4c0,0-10,8.2-29.4,15.4c-18.2,6.8-35.5-4.5-38.9-25.4c-2.4-15.2,4.2-23.4,30.7-38.6
								C-20009.5,4741.7-20003.1,4737.7-20003.1,4737.7z M-19689.5,4739.2c5.5,0,10,4.4,10,9.9c0,5.5-4.4,9.9-9.9,10
								c-5.5,0-10-4.4-10-9.8C-19699.4,4743.7-19695,4739.3-19689.5,4739.2z M-20096.1,4742l6.1,5.6c0,0-2.6,3.8-17.4,12.8
								c-13.3,8-14.7,6.8-8,12.3c12.4,10.3,29.8,33.2,29.7,39.2c-0.1,5.7-5.2,11-15.1,15.5c-5.4,2.5-26.8,10.2-30,10.7
								c-6.3,0.7-8,3.2-1.7,8.8c10.7,12.1,19.9,38,16.3,45.9c-4.1,8.9-9,10.5-48.4,12.5c-4.5,0.2-6.6-1-4.2,4.7
								c1.8,4.1,3.7,9.8,7.3,27.4c3.2,15.7,2.7,22.7-3.4,26c-3.5,1.9-30.9,1.4-42.3-0.8c-13-2.4-14.4-2.6-12.2,5.8
								c2.8,11.6,4.7,42.6-4.1,48.6c-3.7,2.4-7.6,1.8-23.7-3.5c-10.3-3.4-19.2-7.3-19.2-7.3l0.1-9.6c8.4,3.4,31.4,13.1,37.9,9.9
								c7.7-11.1-3.3-49.6-7.5-57.8c-5-9.9,0.2-12,11.6-6c6,4.2,57.8,24.1,54.7,6c-3.2-17.1-9-36.6-19.9-48.8
								c-10.1-11.3-5.1-16,6.1-11c19.9,8.7,60.8,6.3,58.8-2.8c-2.8-14.8-16.5-34.8-35.1-50.3c-5.2-4.3-5.4-6.2,0.7-7.3
								c17.3-1.5,67-6.8,60-18.4c-6-9.4-14-19.9-20.8-25.5c-11.2-9.2-22.4-13.2-27.4-15l0.3-7.1
								C-20124.4,4760.5-20112.7,4753.7-20096.1,4742z M-20150.8,4749.3c-7.6,84.5-42.8,154.2-115.9,203.2l-0.5-9.5
								c64.2-48.5,94.8-117.1,102.8-183.3L-20150.8,4749.3z M-20088.5,4753l6.1,5.3c0,0-1.5,2.3-10.2,9.3c-6.7,5.2-4.4,3.2,0.3,9.3
								c4.1,4.9,11.5,14.6,11.5,14.6l-2.1,13.1c-7.7-10.8-14.1-18.6-25.5-30.1c-5.8-5.9-5.5-6,2.7-10.3
								C-20099.6,4760.7-20094.6,4756.6-20088.5,4753z M-19994.4,4753.7C-19994.4,4753.7-19994.4,4753.7-19994.4,4753.7
								c0.1,0,12,21,12,23c-7,6.5-25.3,16-32.8,13.9c-11.6-3.6-13.5-15.9-2.4-23.2c9.6-7,21.5-13.1,23.2-13.6
								C-19994.5,4753.7-19994.5,4753.7-19994.4,4753.7L-19994.4,4753.7z M-19923.7,4760.4c5,0,9.1,4,9.1,8.9c0,5-4,9-9,9
								c-5,0-9.1-4-9.1-8.9C-19932.7,4764.4-19928.7,4760.4-19923.7,4760.4z M-19996.9,4761.6c-8.6,2.3-17,10-21.7,13.4
								c-1.7,1.2-0.3,7.4,1.3,9.5c2.2,2.7,6.1,2.2,10.8-0.4c2-1.1,5.5-2.9,7.9-4c6.6-3.1,9.4-5.4,9.1-7.9
								C-19990.6,4768.8-19993.4,4761.3-19996.9,4761.6z M-20170.3,4765.9c1.9,9.5-3.7,26.1-6.9,35.5
								c-19.2,25.2-47.1,38.2-73.6,47.1c-5.9,2-13.8,1-13.8,1C-20228.2,4811.7-20196.8,4783.9-20170.3,4765.9z M-19996.4,4765.5
								c2.4,0.1,4.2,3.2,3.4,5c-4.1,2.3-6.5,0.4-5.9,3.5c0,0,0.4,4.9-5.6,5c-1.5-0.6-4.1-0.5-5.3,0.8c-4.2,1.8-8-1.9-3.4-4
								c1.2-0.6,4.3-1.6,5.2-3.5c0.4-2.4,2.4-4.2,4.5-2.9c1.1,0.1,3.7,0.2,4.5-1.6c-0.3-2,1.1-2.2,2.1-2.3
								C-19996.7,4765.5-19996.5,4765.5-19996.4,4765.5L-19996.4,4765.5z M-20245.9,4771.1c-1-0.1-1.8,0-2,0.3
								c-1.8,1.7-4.5,27.8-2.6,29.7c2.6,2.6,9.7,3.3,10.4,0.2c2.2-10.3,1.6-17.9,2.6-26.6
								C-20237.4,4773.2-20242.8,4771.4-20245.9,4771.1L-20245.9,4771.1z M-20243,4774c0.9,0.2,1.7,1.4,2.3,3.6
								c-0.1,4.3-0.5,13.3-2.2,18.3c-1,3.9-4.1,3-5.2-0.5c-1.2-3.7-0.3-14.3,1.9-18.6C-20245,4774.6-20243.9,4773.8-20243,4774z
								 M-20072.5,4773l6.4,7.7c-12.6,126-102.5,235.5-199,279.3l-0.3-8.3C-20155.2,4993.3-20089.2,4896.9-20072.5,4773z
								 M-19634.8,4771l12.1,16.3l-17.2,0.6L-19634.8,4771z M-20149.2,4779.3c5.9,0,37.6,19,33.4,28.7c-3.3,7.7-29.7,8.4-41.8,7.4
								l1.8-7.4c0,0,3.7,1.3,17.7-0.3c14.8-1.1,13.6-6.1-3.3-16.6c-7.3-4.5-9-5.6-9-5.6L-20149.2,4779.3L-20149.2,4779.3z
								 M-20061.8,4789.1c9.9,16.3,19.2,34.7,28,55.2c-118.5,112.4-108.3,264.3-32.6,363.7l-32.1,43.6
								c-65.1-60.9-100.8-136.2-113.2-216.3C-20117.6,4967.4-20073.8,4866.4-20061.8,4789.1L-20061.8,4789.1z M-19619.3,4791.5
								l7.2,13.5l-17.1-0.2L-19619.3,4791.5z M-19693,4798.7c5.5,0,10,4.4,10,9.8c0,5.5-4.4,9.9-9.9,9.9c-5.5,0-10-4.4-10-9.8
								C-19703,4803.2-19698.5,4798.7-19693,4798.7z M-19970.2,4803l3.4,7.7c0.2,1-24.1,8.7-31.8,18.5c-7.2,9.1-6.4,18.5-2.3,25
								c7,9.2,11.9,10.5,23.5,6.9c9.5-3,16.5-6.9,25.9-11.7l1.5,3.9c0-0.2-13.5,8-23.8,13.8c-3.9,2.2-8.5,3.1-12.6,3.1
								c-23.5-0.4-36.2-30.5-16.9-48.4c2.8-2.6,12.4-7.9,20.5-12.1C-19977.5,4806.7-19970.2,4803-19970.2,4803z M-19658.6,4805.9
								c78.4,110.9,25.9,233.1-24,276.6l-1.4-13.1c83.9-96.1,53.9-207.5,18.4-256.9L-19658.6,4805.9z M-19608.6,4810.6l6.2,13.7
								l-18.1-1.8L-19608.6,4810.6z M-19921.8,4817c5,0,9.1,4,9.1,9c0,5-4,9-9,9c-5,0-9.1-4-9.1-8.9
								C-19930.8,4821-19926.8,4817-19921.8,4817z M-19667.8,4817.2c68.7,97.9,31.6,254.8-98,303.3l-0.7-11
								c132.1-55.8,144.3-202.3,90.6-284.6L-19667.8,4817.2z M-19963.1,4819.6l8.7,23c-10.8,7.3-15,8.5-27.1,11.5
								c-9.5,2.2-17.1-14.1-9.8-20.5C-19982.9,4826.4-19973.9,4823.2-19963.1,4819.6z M-20184,4820.9c1.6-0.1-0.1,3.9-4.1,13.8
								c-8.9,21.8-9.5,22.3-32.3,26c-11.9,1.9-20.7,2.5-29.1,1.7c-12.7-1.1-18.2-4.7-10-6.5c23.9-5.4,50.3-17.8,67.4-29.8
								C-20187.7,4822.9-20185.1,4821-20184,4820.9z M-19751,4821.1c6.2,0,11.2,4.9,11.3,11.1c0,6.1-5,11.1-11.2,11.2
								c-6.2,0-11.2-4.9-11.2-11C-19762.2,4826.1-19757.2,4821.1-19751,4821.1z M-20089.6,4826.2l-0.9,8.6c0,0-13.8,7.3-20.3,10.1
								c-5,2-5.3,2.5-3.7,7.1c3.3,9.2,9.6,20.5,9.6,20.5l-5.7,13c-3.6-11.7-7.4-24-13.9-34.8c-6.2-8.5-7.3-9.5,2.2-11.4
								C-20110,4835.1-20100.4,4832-20089.6,4826.2z M-19966.2,4828.2c-6.8,0.3-20.8,6.1-22.2,11.5c-0.8,3,0.1,7.3,2.7,8.3
								c7,2.5,21.1-3.3,24.8-8.5c1.2-1.6-0.6-5-1.9-7.1C-19963.7,4830.7-19963.6,4828.1-19966.2,4828.2z M-19965.8,4832.8
								c0.1,0,0.2,0,0.4,0c1.1-0.1,5.3,5.1,0.7,4.7c-1.6-0.1-3.1,0.5-4.4,1.8c-0.1,2.5-3.8,3.5-5.5,2.6c-1.3-0.6-3.1,0.7-3.3,1.5
								c-2.6,1.9-5.9,1.8-6.4,0.5c-0.9-0.9,1.7-4.8,4-4.7c0.5,0,2.1-1.1,3.7-2.4c0.7-2.6,3.5-2.2,5.3-2.1
								C-19969.4,4835.6-19967.6,4833-19965.8,4832.8z M-19599.9,4831l5.1,13.7l-17.9-1.5L-19599.9,4831z M-19682.6,4834.6
								c6,1.7,9.4,7.2,6.1,12.8c-3.7,4.7-7.1,4.8-12.5,4.5c4.4,5.2,6.4,12.3,2.2,17c-6.5,6.7-19.2-3.4-18.2-4.3L-19682.6,4834.6z
								 M-20167.5,4842.5c0,0,27.6,23.3,27.9,33.9c0.1,4-1.2,5.3-4.4,6.4c-10.8,3.6-40.9-5.3-40.9-5.3l3.8-7.3
								c4.7,1.3,28.1,7.1,30,4.2c2.1-3.1-19.6-23.8-19.6-23.8L-20167.5,4842.5z M-20031.1,4851.5l3.4,11.4l-11.2-2.7
								L-20031.1,4851.5z M-19592.2,4850.9l3,15.7l-18-4.1L-19592.2,4850.9z M-19935.2,4853.2l2.7,9.2
								c-119,55.7-153.2,182.1-90.3,285.9l-7,9.6C-20113.9,5024.4-20030.3,4887.8-19935.2,4853.2z M-20207,4864.1
								c2.4,0,2.8,1.3,2.8,2.7c0,1.9-12,17.2-15.8,20.7c-8.4,3.5-41.2-9.9-46.1-20.4c-1-3.1,2.2-1.7,9.5-0.3
								C-20238.3,4871.8-20219.8,4864.6-20207,4864.1L-20207,4864.1z M-19889,4862.4c5,0,9.1,3.9,9.1,8.9c0,5-4,9-9,9.1
								c-5,0-9.1-4-9.1-8.9C-19898,4866.5-19894,4862.4-19889,4862.4z M-20042.7,4863.5l1.7,14l-13.9-0.7L-20042.7,4863.5z
								 M-20265,4875.7c9.1,8.1,22.5,14.7,34.4,16.9c7.4,1.6,5.2,2.3-1.5,9.4c-6.4,6.7-5.8,7.5-12.4,4.3
								c-10.9-5.4-22.8-17.8-22.4-24.5C-20266.6,4878.9-20266.2,4875.7-20265,4875.7z M-19586.9,4873.2l2.3,14.9l-17.1-5.8
								L-19586.9,4873.2z M-20059.5,4881.4l5.6,13.3l-15.1-0.3L-20059.5,4881.4L-20059.5,4881.4z M-19686.1,4882.3
								c7.1-0.4,9.9,5.1,10,9.5c0,1.9-0.4,5-0.4,5c8.8-5.7,20.6-1.1,20.4,7.9c-0.4,12.8-6.7,12.9-17,11.3c5.7,9.2-1,18.2-11.5,14.8
								c-9.7-3.1-7.9-13.2-3.4-19.2c-22.7,3.8-28.6,36-2.3,45.4c-5.3-8.1-6.7-17.8,4.8-19.5c10.6-1.6,15.2,6.4,10.6,16.1
								c10-3.5,19.4,2.1,16.5,11.8c-3.6,11.7-14,11-20.2,3.9c4.5,10.6-5.7,18.2-13.5,14.2c-12.2-6.4-6.3-18,1.9-21.1
								c-31.4-3-38.4,40.1-15.3,46.1c-6-3.7-6.7-20.6,6.8-18.4c13.3,2.6,10.2,14.9,1.7,20.5c10.3-2.2,20,6.6,13.8,15.7
								c-7.3,10.7-17.6,3.2-21.4-4.1c1.2,9.7-4.9,16-13,12.4c-13.8-6.2-3.7-21.9,7-21c-21.9-12.7-51.4,14.4-33.8,36.5
								c-0.7-10.1,4.3-18.4,11.3-17.3c6.2,0.6,11.6,7.6,9.9,13.1c-1.6,4.7-6.9,8.3-12.5,9.5c16.7,1.7,18.2,13.5,11.3,19.3
								c-11.7,9.9-17.2-1.4-20-8c-2.3,16.5-21.9,11-22.6-0.9c-0.7-13,14.4-12.9,17.2-12.1c0.4-0.5-11.8-12.3-24.7-13.9l0-7.6
								c50.6-31.9,67.8-87.3,51.4-139.6l3-3.5c8.3,6.2,16.7,19.7,32,14.6c0,0-3.6-2.5-5.4-4.2
								C-19701.4,4892-19697.1,4882.9-19686.1,4882.3L-19686.1,4882.3z M-20020.9,4893.9l5.3,7.6c-76.5,90.1-61.9,192.6-17.2,260.3
								l-6.4,7.8C-20078.7,5119.9-20111.4,4999-20020.9,4893.9L-20020.9,4893.9z M-20265.2,4896.4c6.4,3.6,10.7,9.1,16.6,13.9
								c4.6,3.7,4.6,4.3,0.8,7.9c-8.5,8.2-13.4-3.6-16.1-8.4C-20267.3,4903.3-20267.7,4896.7-20265.2,4896.4L-20265.2,4896.4z
								 M-19964.6,4895.2c5.8,0.5,9.7,6.1,9.4,10.7c-0.1,2,0.1,3.6,0.1,3.6s1.7-2.1,3-4.5c6.5-11,20.7-4.8,18.5,7.8
								c-1.1,5.9-11,8.2-13.8,6.6c2.6,7,9.7,8.6,18.2,11.6c3,0.5,8.1,2,8.1,2l0.2,4.8c-46.1,29.2-71.9,78.4-54.6,145.4l-5.1,6.9
								c-9.5-22.2-18-21.7-33.3-22.5c0,0,3.8,2.6,6,5.2c4.7,5.4,2.7,15-3.8,16c-14.9,2.4-15.1-8.1-13.2-15.2c0,0-2.7,2.2-4,3.1
								c-5.9,3.9-13.3-0.1-14-7.6c-0.7-7.1,1.7-11.7,9.1-12.7c2.5-0.3,6.3,0.3,6.3,0.3s-1.5-2.8-2.3-4.4
								c-3.6-6.9,4.1-12.8,11.3-11.4c11.3,2.6,10.4,12.3,4,19.9c17.4,1.2,26.5-10.2,25.2-21.4c-1.7-13.7-8.1-21.1-21.8-23.4
								c0,0,2.2,3.4,3.2,5.1c3.5,6.2-1.5,13.8-8.8,13.8c-7.6,0-12.4-6.9-9.6-13.7c0.7-1.7,3.5-3.8,3.1-3.9c-0.3-0.1-4.2,1.1-5.3,1.3
								c-9.1,1.5-15-6.4-11.2-14.4c2.7-5.6,10.8-7.2,16.7-4.5c0.9,0.3,2.1,1.6,2.3,1.3c0.2-0.3-0.6-2.1-0.9-3.4
								c-1.9-7.2,1.6-11.2,9.5-10.7c11.1,0.6,15.3,9.6,7.9,17.7c-1.9,2.1-4.8,5.2-4.8,5.2c0.4,1.6,15.8,2.6,23.7-5.6
								c9.1-9.5,10.4-29.4,1.2-35.8c-1.5-1.1-4.6-3.2-4.6-3.2c4.4,8.7-3.6,18.7-10.7,16.9c-14.2-3.3-13.1-14.9-3.7-18.6
								c0,0-9.5-3.5-12.2-7.2c-3.9-5.3-2.6-10.3,2-14.1c5.8-4.7,14.1-1.7,18.1,4c2.4-7.3,5.7-12.3,15.8-8.4c7,3.3,7,12.6-0.7,17.7
								c-2.5,1.6-6.9,3.2-6.9,3.2s6.7,3.7,14.8,3.8c15.6,0.1,27.9-18.3,21.5-32.2c-1.3-2.8-4.5-6.5-4.5-6.5s-0.3,4.9-1.3,6.8
								c-3.6,7-11.9,7.2-16.8,2.8c-4.5-4-3.2-9.3,0.2-13c2.6-2.8,5-3.3,8.6-5.1c-4.2-1.4-8.8-2.4-10.9-6.6
								c-1.9-4.1-0.6-9.1,4.3-12.2C-19968.6,4895.4-19966.5,4895-19964.6,4895.2L-19964.6,4895.2z M-19582.8,4894.7l1.2,15.8
								l-17.8-6.7L-19582.8,4894.7z M-20071.7,4898.5l6.5,14.3l-16.5,0L-20071.7,4898.5z M-19727.4,4896.5
								c15.8,56.7-5.7,97.7-46.8,129.9l-4.6-5.9c32.1-27.4,56.1-59.7,45.1-116.8L-19727.4,4896.5z M-20202.2,4899.5
								c0,0,24.1,30.6,19.4,41.1c-6.3,10-44.1-11.2-43.6-12.3l4.7-4.5c6,2.4,24.7,12.5,28.8,10.8c1.4-9.3-9.7-21.3-13.9-29.3
								L-20202.2,4899.5z M-19917.2,4897.8l181.7,2.2l-5.4,9.5l-14.2,0.2l-27.8,49.4l-130.6,0.7L-19917.2,4897.8L-19917.2,4897.8z
								 M-20121.1,4904l-6.2,11.3c-5.9,1.8-23.6,2.2-25,3.4c2.2,5.8,4.6,22.7,4.6,22.7l-6.9,8.9c-1.9-10.9-5.1-24.7-7.9-34.8
								c-2.4-8.6-1.7-6.7,16.7-8.2C-20137.6,4906.8-20129.1,4905.8-20121.1,4904L-20121.1,4904z M-20083.8,4917.4l7.5,13.1
								l-15.1,0.2L-20083.8,4917.4z M-20265.7,4919.3c0.8-0.3,5.5,4.9,6.4,6.4c-0.3,3.4-5.7,5.3-6.5,4.1c-0.3-0.5-0.5-8.2,0-10.3
								C-20265.7,4919.4-20265.7,4919.3-20265.7,4919.3z M-19580.4,4915.5l-0.1,16.5l-18-7.8L-19580.4,4915.5z M-19437.5,4918.3
								l-0.2,10.7c-65.1,32-161.9,117.6-188.8,270.2l-5.7-6.2C-19605.3,5047.3-19510.1,4960.7-19437.5,4918.3z M-20093.9,4936.9
								l8.2,12.1l-14.6,1.7L-20093.9,4936.9z M-19579.9,4938.5l-1.4,14.6l-17.8-9.6L-19579.9,4938.5z M-19920.8,4943.6
								c0.1,3.5,0.4,6,0.6,9.4c-40.1,26.1-53.4,66.9-46.4,118l-5.5,8.2C-19985.5,5032.9-19972.6,4975.6-19920.8,4943.6z
								 M-20250,4947.5c0,0,15.5,34.2,9.5,42.3c-5.9,4.8-19.5-3.1-25.7-6.2l-0.2-8.2c0,0,4.7,2.4,9.5,4.2c9.8,4.2,9.8-0.9,4.3-15.2
								c-1.9-5-3.8-10.8-3.8-10.8L-20250,4947.5z M-19454.6,4943.9c4.1,2.4,17.4,6.2,17.4,6.2l-0.1,9.7l-27.4-9.6L-19454.6,4943.9z
								 M-20103.3,4958.3l10.5,10.8l-14.6,3.4L-20103.3,4958.3z M-19467.6,4955.7c1-0.1,2-0.1,3.1,0.1c9.3,0,27.2,7.3,27.2,7.3
								l-0.1,10.8c-9.1-2.6-19.7-7.5-29.3-8.9c-7.6-1-7.1,3.2-7.1,13.9c0,14.4,3.8,27.4,10.8,41.8c5.8,11.9,2.8,15.1-6.6,9.8
								c-17-11.4-53-19.9-58.5-13.2c-5.7,6.9,5.8,41.2,18.8,57.5c5.3,6.6,5.6,7.7,3.2,10.3c-2,2.1-5.2,2.3-10.9,0.5
								c-18.7-5.8-45.8-7-53.6-1.9c-7.7,5,12.6,39.3,29.6,50.2c11,7.7,8.9,11.6-8.8,12.1c-29,0.3-51.2,6.9-49.9,14.7
								c2.2,13.3,21,31.5,42.6,41.1c13.2,5.3,7.7,7.4-1,10.6c-14.6,5-28.7,12.9-42.4,20.4l-6.7-8.4c0,0,13.8-8.8,28.9-17.3
								c3.5-2,3.3-2.7-1.6-6.8c-16.1-13.3-28-28.1-30.5-38.2c-2.5-9.8,2.4-16,17-21.5c9-3.5,12.3-4.5,20.3-6.3
								c11.5-2.6,11.6-3,6.7-11.7c-2.2-3.9-5.9-10.4-8.1-14.4c-17.3-28.9-8.3-39.4,31.3-40.3c9.7-0.6,11.6-0.6,11-3.9
								c-2.2-13.7-8.4-29.3-7.6-40.9c1.7-17.5,19.8-21.8,51.6-14.1c7.4,1.8,7.9,1.4,6.5-4.5
								C-19487.6,4979.6-19482.4,4956.9-19467.6,4955.7L-19467.6,4955.7z M-19581.2,4958.4l-2.7,17l-17-11.1L-19581.2,4958.4z
								 M-20214.5,4966.1l46.7,2.8l-7.4,8.7l-28.2-0.4l-0.9,23.9l-9,7.7L-20214.5,4966.1z M-19911.8,4966.1l38.4-0.2l-0.1,40.4
								l-38.3,0.2L-19911.8,4966.1z M-19866,4965.9l35.8-0.2l0.2,40.4l-35.5,0.6L-19866,4965.9L-19866,4965.9z M-19823.1,4965.6
								l38.4-0.2l-0.1,40.4l-38,0.2L-19823.1,4965.6z M-19488,4966.9c-0.8,10.4,1.5,29.1,2.4,37.2c-0.6,2.4-2.3,2.1-12.3-0.1
								c-7-2.3-26.3-2.8-26.3-2.8l8-8.6c6.6,0.7,11.8,0.6,18.7,1.5c-0.1-6.8,0.1-19.8,0.1-19.8L-19488,4966.9L-19488,4966.9z
								 M-20109.3,4978.5l10.8,10.7l-13.7,3.6L-20109.3,4978.5z M-19584.8,4978.9l-4.2,17.3l-15.6-13.8L-19584.8,4978.9z
								 M-19459.1,4978.6c7.8-0.2,14.3,2.3,21.5,8.6l0.1,8.8l-15.3-6.7c-0.1,10.1,9,28.2,9,28.2l-7.2,3.4
								c-6.4-10.2-10.8-19.3-11.2-30.8C-19462.2,4985.9-19462.9,4978.9-19459.1,4978.6z M-20114.4,4999.9l12.8,7.5l-14.1,5.8
								L-20114.4,4999.9z M-19589.6,5000.7l-6.2,17.8l-13.7-15.3L-19589.6,5000.7z M-20266.1,5010.4l34.5,11.4l-6.1,6.5l-28.6-8.8
								L-20266.1,5010.4z M-19783.1,5012.2l3.2,62.9l-181.9-0.4l6.3-8.9l11.8-0.2l30.8-52.3L-19783.1,5012.2z M-20116.7,5019.1
								l13.6,9.4l-14,6.2L-20116.7,5019.1z M-19436.6,5020.6l0.1,10.3c-43.7,32.5-90.9,88.3-98.4,186.5l-11.8,10.1
								C-19541.4,5131.7-19501.6,5065.3-19436.6,5020.6z M-19596.8,5021.9l-6.3,16l-12.7-14.8L-19596.8,5021.9z M-19544.4,5024.6
								c-0.2,9.5,7.7,39,7.7,39c-12,0.7-23.6-0.6-36.5,3l6-10.8c0,0,5.6-0.6,10.5-1.6c10.2-2.1,9.1-0.8,6.7-9.6
								c-2.3-8.3-2.4-10-2.4-10S-19545.2,5024.5-19544.4,5024.6z M-19510.9,5026.4c11.9,0,29.9,10.5,38,16.6l-4.2,4.7
								c-1.2,0.4-18-8.4-31.2-10.4c4.4,8.4,6.4,14.7,16.1,28.1l-6.1,6.1c-1.9-0.4-25.9-35.3-19.7-43.2
								C-19516.1,5026.9-19513.6,5026.4-19510.9,5026.4z M-20215.6,5038.7c16.3,94.4,54.2,159.1,113.8,217.2l-6,7.9
								c-70-62.9-108.5-143.2-118.9-218.9L-20215.6,5038.7L-20215.6,5038.7z M-20117.6,5042.1l12.8,6.9l-13.1,7.7L-20117.6,5042.1z
								 M-19436.6,5038.4l0,13.9l-8.1-8C-19442.6,5042.3-19439.9,5040.3-19436.6,5038.4z M-19605.4,5042.2l-8.6,16l-11.5-15
								L-19605.4,5042.2z M-19449,5048.2c11.6,1.5,15.5,24.6,11.6,29.1c-1.8-2.8-17.9-12.6-25.1-16.7
								C-19462.9,5059.3-19451.3,5048.9-19449,5048.2z M-19635.6,5061.1l18.6,1.6l-9.8,15.3L-19635.6,5061.1z M-20117.3,5063.9
								l14.5,6.9l-13.1,9.3L-20117.3,5063.9z M-19463.6,5066.8c2.4,0,5.1,1,8.5,2.8c13.1,7.2,20,15,19.4,22.1
								c-0.3,3.2-2.1,3.9-4.3,1.6c-3.8-4.2-16.8-9.7-27.9-11.8c-8.4-1.6-9.2-2.3-6.7-6.2
								C-19470.7,5069.6-19467.6,5066.8-19463.6,5066.8z M-19687.4,5074.8c20.6,75.6,56.3,133.6,101,181.3l-9.2,7.8
								c-34-38.2-71.3-83-102.2-180L-19687.4,5074.8z M-19647.2,5078.7l18.6,2.7l-10.8,13.8L-19647.2,5078.7z M-19909.5,5081
								c2.2,0.1-6.2,32.3-35.7,34.7c-18.7,3.2-20.8,6.3-20.9,35.2c-0.2,39.2-6.5,48.4-38.7,51c-21.3,1.7-24.1,6.1-20.3,36.5
								c3.6,29-7.3,43.8-34.5,43.9c-23.6,2.1-33.2,13-33.1,34.7c0.1,8.8,0.2,10.9,0.2,10.9l-15.2,1.3c0,0-0.1-14.3,1.1-21.2
								c4.5-28.1,16.5-39.4,42-39.4c19.7-1.6,22.7-4.8,21.9-34.5c-0.9-30.2-1.3-30,6.5-37.9c5.1-5.1,10.9-7.4,21.2-8.5
								c32.2-3.2,34.7-5.4,34.5-38.2c-3.1-27.3,4.3-44,21.8-45.5c35.3-3,34.3-22,32.8-22.8l16.4-0.4
								C-19909.5,5081-19909.5,5081-19909.5,5081L-19909.5,5081z M-19837.3,5080.6c21.4,110.8,87.5,214.2,123.6,252.3l-7,3.7
								c-52.8-64.3-100.8-138.2-125.1-255.8L-19837.3,5080.6L-19837.3,5080.6z M-19874.7,5080.9l16.4,0.1l-187.1,264.8l-10-7.4
								L-19874.7,5080.9L-19874.7,5080.9z M-19851.8,5080.9c18.1,63.8,32.4,126.2,88.6,209.5l-236.4-0.1L-19851.8,5080.9z
								 M-19786.5,5080.8c1.4-0.6,7.1,32.3-1.1,47.6c-7.3,20.6-3.6,32.2,12.6,39.6c27.9,12.7,35,25.5,31.6,57.2
								c-2.3,22.2,4.5,32.8,25.5,39.8c25,8.3,36,21.6,36,43.5c0,3.4-1.2,7.2-1.2,7.2l-13.9,8.2c0,0,0.1-3,0.7-6.5
								c3.5-24.3-1.2-30.8-30.1-42.1c-27.3-10.6-34.1-23.1-29.7-54.3c1.5-10.2-0.7-20.4-5-28.1c-7.2-12.6-22.9-12.3-34.3-23.8
								c-9.4-9.8-10.5-23.5-2.7-47.2c4.8-14.6,5.6-20.2,1.7-32.3c-2.6-8-3.6-8.7-3.6-8.7L-19786.5,5080.8z M-20114.8,5086.2
								l16.1,4.3l-12,12.5L-20114.8,5086.2z M-19477.9,5085.8c5.5-0.2,16.2,1.7,24.9,5.9c20.1,9.8,23.7,17.9,6.2,13.6
								c-9.9-2.4-24.1-1.8-37.8,1.7c-14.5,3.6-14.1,3.8-9.2-4.9C-19487.5,5091-19485.9,5086-19477.9,5085.8z M-19550,5090.3
								c12.1-0.3,24.4,3.1,35.9,7.3l-3.6,6.2c-8-1.3-16.3-5.1-28.4-4.1c5,9.4,10.9,14.2,18.9,22.5l-2.9,6.3
								c-0.7,0.8-23.2-17.5-27.7-29.9C-19559.9,5093-19558.1,5090.6-19550,5090.3z M-19812.7,5093.3c6,0,10.9,4.8,10.9,10.7
								c0,5.9-4.8,10.8-10.8,10.8c-6,0-10.9-4.8-10.9-10.7C-19823.5,5098.2-19818.7,5093.4-19812.7,5093.3z M-19588.3,5092.3
								c0,0,17.9,34.6,16.7,35.9c-10.9,4.9-22.8,7.4-34.9,11.8l2.2-10.1c0,0,4-0.3,17.4-5.5c6.4-2.5-7.1-20.2-7.1-20.2
								L-19588.3,5092.3z M-19660,5095.3l18.3,3.2l-12.1,13.6L-19660,5095.3z M-20002.3,5097.5c4.3-0.4,11.1,7.9,11.1,7.9l-22,30.6
								c-10.6-2-8.4-17.9,1.3-18.5c2.2,0,6.3,0.4,6.3,0.4s-3-1.6-4.7-3.8C-20017,5106.3-20010.9,5098.2-20002.3,5097.5z
								 M-19710.4,5103.3c25.8,0.1,26.3,31.5,21.4,41.9c-3.5,7.2-9,11.1-25.4,18.6c-14.3,6.5-15.9,6.1-15.9,6.1l-3.5-7.6
								c0,0,8.3-3.7,17.3-7.3c18.5-7.5,22.9-13.2,20.8-26.5c-3-18.8-17.7-21.7-45.9-8.9c-3.3,1.5-7.4,3-7.4,3l-2-3.8
								c0.4-0.4,22.6-12.1,35.1-15C-19714,5103.4-19712.1,5103.3-19710.4,5103.3z M-20108.9,5109.1l14.6,4.7l-10.6,10.4
								L-20108.9,5109.1z M-19459.5,5109.3c12.9-0.1,23.5,2,23.5,6.5c0,2.2-0.5,2.4-12.1,4c-17.6,2.5-46.9,17.6-63.3,31.5
								c-9.7,8.2-7.2,6.3-3.2-5.6c4-11.8,10.1-26,13.4-28.1C-19492.9,5112.2-19474.1,5109.4-19459.5,5109.3z M-19670.1,5112.2
								l12.4,2.6l-8,7.8L-19670.1,5112.2z M-19711.6,5119.1c4.4-0.1,6.6,2,8.4,6.2c3.8,9.1,0.1,14.5-14.2,20.7
								c-6.5,2.9-12.3,7-19.4,8.4l-9.2-24c0,0,2.8-1.1,12.2-5C-19723.1,5120.9-19716.1,5119.2-19711.6,5119.1z M-19753.5,5122.2
								c29.2,80.4,64.6,132.5,102,175.7l-8.9,5.6c-39.7-46.1-76.4-100.2-103-180L-19753.5,5122.2z M-19436.5,5122.9
								c1.2,0.1,1.9,0.6,1.7,1.4c0,3.4-51.3,52.3-80.7,77.1c-13.4,11.3-12.9,11.3-14.1,9.9c-0.8-8.4,4.8-38.3,8.2-43.5
								c19.6-20.8,49.9-37.9,79.4-44.4C-19439.6,5123-19437.8,5122.8-19436.5,5122.9z M-19713.7,5124.9c-3.5,0.1-8.7,2.2-15.6,4.9
								c-10.1,3.9-10.9,8.6-6.4,14.4c2,2.5,4,1.9,13.7-1.9c9.9-4,14.2-5.7,14.8-9.2C-19706.4,5127.9-19709.3,5124.7-19713.7,5124.9z
								 M-19712.8,5127.6c1.9,0,3.5,1.6,3.5,3.7c0,1.6-2.3,3.1-4.6,3.1c-0.8,0-2.9,0.5-4.2,1.8c-1.3,1.8-2.1,3.6-4.4,3.2
								c-1.3-0.2-3.8-0.3-4.8,0.5c-4.5,3.9-9,0.7-7-3.2c0.5-1,2.4-1.5,3.8-1.5c1.3,0,4.2-0.3,4.6-1.9c0.5-1.9,3.4-2.4,5.4-2.4
								c2.2,0.3,3.9-0.8,4.5-1.7c0.8-0.7,1.8-1.5,2.7-1.6C-19713.1,5127.6-19712.9,5127.6-19712.8,5127.6L-19712.8,5127.6z
								 M-19946.1,5129.6c6,0,10.9,4.8,10.9,10.7c0,5.9-4.8,10.8-10.8,10.8c-6,0-10.9-4.8-10.9-10.7
								C-19956.9,5134.5-19952.1,5129.6-19946.1,5129.6z M-20102.9,5130.7l16.4,2.1l-10.3,13.2L-20102.9,5130.7z M-19775,5137.1
								c6,0,10.9,4.8,10.9,10.7c0,5.9-4.8,10.8-10.8,10.8c-6,0-10.9-4.8-10.9-10.7C-19785.8,5142-19781,5137.1-19775,5137.1z
								 M-20095.5,5151.2l17.8,1l-10.1,13.6L-20095.5,5151.2z M-20001.4,5153.2c6,0,10.9,4.7,10.9,10.7c0,5.9-4.8,10.8-10.8,10.8
								s-10.9-4.8-10.9-10.7C-20012.2,5158.1-20007.3,5153.2-20001.4,5153.2z M-19556.2,5157.3c7.4-0.2,16.1,0.5,16.1,0.5l-2,8.3
								c-9.1,0.9-20.7-1.5-30.4,2.6c3.6,5.8,24.8,14,27.2,16.1c0.2,0.9-1.7,8.8-1.7,8.8c0.6,2-35.9-14.4-37.2-28.5
								C-19584.2,5160.2-19568.5,5157.6-19556.2,5157.3z M-19681.2,5166.6c20.7,0.1,31,28.7,23.1,41.4c-3.2,5.8-10.3,12.6-19.7,18.6
								c-4.5,2.9-16.6,8.8-16.6,8.8l-5.5-8.3c0,0,4.8-1.9,9.3-4.4c11.3-6.5,34.3-20.2,23.1-38.7c-6.3-10-15.7-11.9-35.1-1.9
								c-14.5,7.4-17.8,8.1-17.8,8.1l-3.7-6.6C-19723.1,5184.2-19695.2,5167.3-19681.2,5166.6z M-19614.6,5167.3
								c10,18.9,26.9,33.1,31.6,36.5c0,0-16.7,10.8-26.7,17.7l-5.9-6.8l14.3-12.4l-16.4-22.4L-19614.6,5167.3z M-20084.6,5172
								l16.2-0.1l-6.8,14.6L-20084.6,5172L-20084.6,5172z M-19456.3,5170.9c-1.8,9.4-2,19.3-2.7,30.3c3.6,3.2,6.8,4.8,9.6,4.6
								c3.1-9.9,5.3-21,3.7-32.5C-19448.7,5171-19452.6,5171.3-19456.3,5170.9z M-19451.4,5173.7c0.4-0.1,0.9-0.1,1.3,0.1
								c2,1,1.9,2.4,1.9,4.2c0,6.2,0.9,13.9-1.7,19.8c-1.5,3.4-5,2.1-5.1-2.5c-0.2-6.2,1.1-11.5,1.4-17.2
								C-19453.4,5175.8-19452.6,5174.1-19451.4,5173.7z M-19682.3,5183.6c10.7,0.7,14.8,9.6,10.9,15.9c-9.6,12.3-19.4,14.5-32,21.7
								l-12.7-23.3C-19716.1,5197.9-19691.6,5184-19682.3,5183.6z M-19682.6,5188.9c-7,0.9-11.5,4.3-17.4,7.2c-7.2,3.6-9.6,9-4.6,14
								c5.5,6,24.3-8.4,27.4-11.9c1.9-3,1.6-5.7-1.1-7.8C-19679.5,5189.4-19680.9,5188.9-19682.6,5188.9z M-20071.1,5192.1l15.9,0.1
								l-8.5,12.1L-20071.1,5192.1z M-19682.9,5191.7c0.7,0,1.3,0.3,1.8,0.6c2.7,1.9,2.5,5.3-1.3,6.3c-1.9,0.5-5.2,0.5-5.3,3.1
								c0,1.9-3,2.6-4.6,2.4c-1.7-0.3-4.6-0.4-5.1,1.7c-1.4,2.9-2.5,3-4.6,1c-2.2-2.2-1.2-5,3.1-5.5c1.8-0.2,3.4-1.5,4.1-2.9
								c-0.1-1.8,1.2-2.9,3.2-2.5c2.8,0,4.7-1.1,6.7-3.8C-19684.3,5191.8-19683.6,5191.7-19682.9,5191.7z M-19774,5193.2
								c6,0,10.9,4.7,10.9,10.7c0,5.9-4.8,10.8-10.8,10.8c-6,0-10.9-4.8-10.9-10.7S-19779.9,5193.2-19774,5193.2z M-20005.2,5214.3
								c6,0,10.9,4.8,10.9,10.7s-4.8,10.8-10.8,10.8c-6,0-10.9-4.7-10.9-10.7C-20016,5219.2-20011.2,5214.4-20005.2,5214.3z
								 M-19548.8,5220.7l0.1,8.1c0.3,0.4-16.8,8-26.8,12.6c-3.2,1.8-1.9,5.2-1.7,8.7l-4.8,3.3c0,0-6.7-4.8-7.6-7.9
								C-19592.2,5235.7-19560.8,5223.8-19548.8,5220.7z M-20264.4,5225.4l124.6,83.5l-8.4,12.3l-115.7-77.2L-20264.4,5225.4z
								 M-19641.3,5224.5c8.1,0,14.3,4.5,20.4,13.8c12.1,18.4,6.2,33-18.5,48c-11.5,7-11.6,7.1-11.6,7.1l-5.9-7.1
								c0,0,8.4-4.9,11.8-7.1c20.3-12.9,25.9-24.2,16.9-36.9c-8.7-12.2-17.8-11.2-42.8,4.9c-5.1,3.2-11.1,5.8-11.1,5.8l-5.6-7.4
								c0,0,14.2-7.3,19-10.4C-19657.5,5227.9-19648.4,5224.5-19641.3,5224.5z M-19727.9,5230.5c6,0,10.9,4.8,10.9,10.7
								c0,5.9-4.8,10.8-10.8,10.9c-6,0-10.9-4.8-10.9-10.7C-19738.8,5235.4-19733.9,5230.5-19727.9,5230.5z M-20064.1,5235.5
								c6,0,10.9,4.8,10.9,10.7s-4.8,10.8-10.8,10.8c-6,0-10.9-4.7-10.9-10.7C-20074.9,5240.4-20070.1,5235.6-20064.1,5235.5z
								 M-19641.7,5241.6c4.1-0.2,7.2,2.5,8.9,6.5c4.4,10.4-1.4,18.1-22.6,30.1c-1.8,1-5.5,3-5.5,3l-15.8-21.3c0,0,5.5-3.8,10.7-6.9
								C-19654.4,5245.4-19647,5241.8-19641.7,5241.6z M-19643.7,5246.8c-1,0-2.1,0.4-3.5,1.2c-5.4,3.1-14.5,6.6-18.8,12.2
								c-2.5,3.5-1.3,6.9,3.5,11.3c4,2.6,24.8-12.7,25.3-17.1C-19639,5249.7-19640.7,5246.7-19643.7,5246.8z M-20263.4,5251.6
								l3.5,2.3l-3.5,2.7L-20263.4,5251.6z M-19643.5,5250.5c1.3,0.1,2.5,0.4,3.1,1.1c1.5,1.9,0.6,5-2.6,5.6
								c-1.6,0.3-4.1,0.7-4.8,3.2c-0.7,1.6-2.9,3-5.1,2.9c-2.6-0.6-3.9,1-4,2.1c-1.2,2.1-4.4,2.5-6.3,0.5c-1.5-1.6,1.1-6.1,2.9-6
								c0.3,0.1,2.2,0.6,4.5-2.5c0.5-2.2,3.1-3.6,5-3.6c1.9,0.6,3.1-1.5,3.8-2.7C-19646.1,5250.7-19644.8,5250.4-19643.5,5250.5z
								 M-20255.1,5256.9l5,3.3l-13.2,9.4l0-7.5L-20255.1,5256.9z M-20245.4,5263.1l6.8,4.5l-24.6,17.7l-0.1-9.5L-20245.4,5263.1z
								 M-20232.7,5271.1l7.2,4.7l-37.6,25.5l-0.1-9.8L-20232.7,5271.1z M-20219,5277.8l0,8.1l-44,30.9l0-8.2L-20219,5277.8z
								 M-20214,5283.7l9.5,6.4l4,276l-59.3,41l0-12.1l49.8-36.2L-20214,5283.7L-20214,5283.7z M-19496.1,5286.9
								c-13.3,15.2-31.2,16.3-46.8,16c-42.1,0.8-68.2,3.2-73.3,53.1c17.1-12.8,35.2-14.6,56.3-14.1c26.6-0.2,38.6-2,49.4-7.4
								c17.3-8.7,28.3-24.2,26.1-35C-19486.5,5297.1-19491.9,5287.4-19496.1,5286.9z M-20218.9,5293.6l0.1,9.5l-44,29.6l-0.1-9.7
								L-20218.9,5293.6z M-19714.6,5291.5c6,0,10.9,4.8,10.9,10.7c0,5.9-4.8,10.8-10.8,10.8c-6,0-10.9-4.7-10.9-10.7
								C-19725.4,5296.4-19720.6,5291.5-19714.6,5291.5z M-20002.9,5294.3c78.1,2,243.8,0,243.8,0l8.9,12.6l-260.6-1.2
								L-20002.9,5294.3z M-19494.3,5291.7c2.4-0.2,2.7,3-2.2,7.8c-9.3,9.1-18.9,13.7-49.6,13.3c-32.4-0.4-45,4.8-53.3,19.2
								c-2.4,4.2-2.3,5.8,1.2,2.6c2.9-3.5,9.6-10.3,12.5-3.9c5.5-3.6,10.2-9.1,13.1-2.2c1.6-0.4,10.9-9.7,13.1-1.5
								c4.4-5,8.3-6.6,10.4,0.5c6.3-3,9.7-8.7,13.3-0.9c5.1-3.7,8.9-8.2,12-1.3c4.4-1.3,8.8-9.3,11.3-2.9
								c0.5,0.1,16.2-9.4,20.6-18.7c3.6-8.2,7-2.8,2.9,5.6c-10.6,20.6-28.8,28.2-70.8,28.5c-25.5,0.2-36,2.7-44,7.4
								c-12.8,7.5-6-11.3,2.9-22.7c11.3-14.4,24.2-18.7,59.6-17.6c19.4,0,31.7-2.7,36.9-7
								C-19499.9,5294.3-19496.7,5291.9-19494.3,5291.7z M-20069.9,5299.5c6,0,10.9,4.8,10.9,10.7c0,5.9-4.8,10.8-10.8,10.8
								s-10.9-4.8-10.9-10.7C-20080.7,5304.4-20075.9,5299.5-20069.9,5299.5z M-20218.9,5308.3l0.1,9.7l-44,30.2l-0.1-9.9
								L-20218.9,5308.3z M-20005.3,5311.7l34.3-0.2l0.2,35.9l-34.3,0.2L-20005.3,5311.7z M-19928.5,5311.3l36.9-0.2l0.2,35.9
								l-36.9,0.2L-19928.5,5311.3z M-19846.4,5312l35.6-0.2l0.2,34.8l-35.6,0.2L-19846.4,5312z M-19769.3,5312.2l23.7,0.7
								c0,0,13.3,16.5,18.9,24.2l-17.5,9l-24.9,0.2L-19769.3,5312.2L-19769.3,5312.2z M-19988.8,5315.9c-6.7,0-12,5.4-12,12
								c0,6.6,5.5,12,12.1,11.9c6.7,0,12-5.4,12-12.1C-19976.7,5321.2-19982.1,5315.9-19988.8,5315.9z M-19910,5316.6
								c-6.7,0-12,5.4-12,12c0,6.6,5.5,12,12.1,11.9c6.7,0,12-5.4,12-12.1C-19897.9,5321.9-19903.3,5316.6-19910,5316.6z
								 M-19829.4,5316.5c-6.7,0-12,5.4-12,12s5.5,12,12.2,11.9c6.7,0,12-5.5,12-12.1S-19822.7,5316.4-19829.4,5316.5z
								 M-20021.7,5320c2.4,1.7,4,4.4,4,7.5c0,5.1-4.1,9.3-9.3,9.4c-1.8,0-3.5-0.5-5-1.4L-20021.7,5320z M-19988.8,5320
								c4.4,0,8,3.5,8.1,7.9c0,4.4-3.5,8-8,8c-4.4,0-8-3.5-8-7.9C-19996.7,5323.6-19993.2,5320-19988.8,5320z M-19790,5319.1
								c5.3,0,9.7,4.3,9.7,9.6c0,5.3-4.3,9.6-9.6,9.7c-5.4,0-9.7-4.3-9.7-9.6C-19799.6,5323.5-19795.3,5319.1-19790,5319.1z
								 M-19749.1,5318.9c-6.7,0-12,5.4-12,12s5.5,12,12.1,11.9c6.7,0,12-5.4,12-12.1S-19742.5,5318.9-19749.1,5318.9z
								 M-19949.7,5320.4c5.4,0,9.7,4.3,9.7,9.6c0,5.3-4.3,9.7-9.6,9.7c-5.4,0-9.7-4.3-9.7-9.6
								C-19959.3,5324.8-19955,5320.5-19949.7,5320.4z M-19910,5320.7c4.4,0,8,3.5,8.1,7.9c0,4.4-3.5,8-8,8c-4.4,0-8-3.5-8-7.9
								C-19917.9,5324.3-19914.4,5320.7-19910,5320.7z M-20218.8,5322.7l0.1,9.7l-44,30.9l-0.1-9.5L-20218.8,5322.7z
								 M-19829.4,5320.5c4.4,0,8,3.5,8,7.9c0,4.4-3.5,8-8,8c-4.4,0-8-3.5-8.1-7.9C-19837.3,5324.1-19833.8,5320.5-19829.4,5320.5z
								 M-19869.8,5321.8c5.4,0,9.7,4.3,9.7,9.6c0,5.3-4.3,9.6-9.6,9.7c-5.4,0-9.7-4.3-9.8-9.6
								C-19879.4,5326.1-19875.1,5321.8-19869.8,5321.8z M-19749.1,5322.9c4.4,0,8,3.5,8,7.9c0,4.4-3.5,8-8,8c-4.4,0-8-3.5-8-7.9
								C-19757.1,5326.5-19753.5,5323-19749.1,5322.9z M-20092.6,5333.3c20.6-0.4,42.9,9.9,55.5,27c19.1,25.1,32,57.2,38,99.4
								c3,20.9,13.2,83.6,18.8,98.4l-7.7-1.4c-1,0.5-11.1-39.4-17.6-92.2c-2.4-19.5-6.7-44.8-18.3-67.7c-13.2-26.2-35.6-54-65.1-56
								c-17.3-1.2-33.4,9.6-35,24.8c-2.4,12,4.7,23,14,26.7c9.1,3.6,19.9,0.8,21.1-11.5c0.2-2,0-4.1-0.8-5.9
								c4.2-0.7,7.4,1.2,9.1,4.7c0.9,0.1,0.1,17.8-13.9,21.4c-16.9,5.6-36.5-10.9-38.2-27.9c-1.2-14.3,9.6-32,23.4-36.9
								C-20104,5334.3-20098.4,5333.4-20092.6,5333.3z M-20218.7,5339.5l0.1,9.9l-44,30.5l-0.1-9.9L-20218.7,5339.5z M-20091.6,5345
								c24.7-0.8,48.9,26.4,59.2,44.3c10.7,18.7,19.3,48.6,22.4,76.6c5.2,47.8,14.7,86.8,16.6,88.6l-6.7-1.4
								c-1.4,0.9-10.9-42.1-16.9-90.1c-3.3-26.9-13.6-53.6-25.7-74.1c-11.2-18.9-26.1-33-43.8-35c-11.1-1-22.4,2.2-24.6,13.8
								c-1.1,6.8,2.5,13.4,10.6,14c1.9,0.1,3.7,0.3,4.1,0.3c4.3,0.7-2.4,7.7-6.8,7.1c-15.9-2.1-23.3-23.1-10.9-34.3
								C-20106.7,5348.2-20099.1,5345.3-20091.6,5345z M-20038.6,5351.7l277.4,1.2c0,0,0.3,4.9-17,4.2c-14.7-0.6-24.2,1.5-33.9,4.6
								l-218,0.8L-20038.6,5351.7z M-20218.6,5356l0.1,9.1l-44,31l-0.1-10.1L-20218.6,5356z M-20089.6,5359.1
								c5.3-0.1,10.8,1.2,14.9,3.6c34.5,19.6,47.9,68.5,52.6,99.4c6.4,45.7,13.8,88.2,15.8,89.2l-7.5-1.6c-1,0-9.4-39.6-14.8-84
								c-4.3-35.9-16.9-71.9-41.6-86.9c-15.8-10.5-18.9-11.6-26.1-5.3c-6.3,5.4-12.7-2.6-7.5-9.2
								C-20100.2,5360.8-20095,5359.2-20089.6,5359.1z M-20218.5,5372.3l0,7.5l-44,30.8l-0.1-8.9L-20218.5,5372.3z M-20016.6,5371.3
								c0.6-0.5,24.1,38.6,31.8,100.5c4.1,32.6,15.5,88.1,17.3,88.6l-8.1-0.8c-8.4-32.7-13.2-63.7-17.8-91.7
								c-5.2-31.6-9.3-59.7-29.4-96.3L-20016.6,5371.3C-20016.6,5371.3-20016.6,5371.3-20016.6,5371.3L-20016.6,5371.3z
								 M-20011.3,5371.6l7.2,0.1c12.5,23.3,25.8,59.4,30.6,95.7c4.1,31.4,8.2,63.2,19.7,96.4l-7.7-2.1
								c-9.9-26.9-13.5-59.5-18.9-93.2C-19986.4,5431.1-19995.7,5398.7-20011.3,5371.6z M-19966.8,5371.4
								c12.8,32.4,21.1,47.8,27.1,87.7c4.7,31,11.2,69.7,25.8,110.7l-7.3-0.3c-10.8-28.3-19.2-66.2-23.2-102.7
								c-5.4-49.5-28-95.6-28.3-95.4L-19966.8,5371.4L-19966.8,5371.4z M-19979.2,5371.5c0.7-1,24.3,45.3,30.1,96.4
								c3.8,34,12,67.5,23.2,99.9l-7.5-0.1c-8.7-9.8-15.4-56.7-22.8-100.5c-7.5-44.7-17.9-72.1-29.4-95.5L-19979.2,5371.5
								C-19979.2,5371.6-19979.2,5371.6-19979.2,5371.5L-19979.2,5371.5z M-19998,5371.7l6.6,0c17.6,37.5,24.9,59.9,30.5,96.3
								c7,46,13.8,87.5,21,98.3l-8.1-0.5c-11.4-33.1-16.6-66.2-20.8-99.4C-19973.3,5430.4-19983.9,5399.7-19998,5371.7
								L-19998,5371.7z M-19961.4,5371.8l7.9,0.1c13.7,27.2,25.2,60.3,29.4,98.3c2.3,20.6,6.3,52.1,22.2,100.8l-6.3-0.4
								c-12.9-32.6-20.8-71-25.6-104.6C-19938.7,5432.2-19947,5404.3-19961.4,5371.8L-19961.4,5371.8z M-19912.9,5371.7
								c7.5,18.9,13.8,37.7,17.9,57l-4.4,8.7c-7.1-25.5-15.1-45.3-23-65.4L-19912.9,5371.7z M-19948.8,5372l9.6,0.2
								c16.7,37.9,25.4,78,27.8,91.5c0,0,2.3,11.9,2.5,15.8c-0.4,33.2,5.6,56.8,18.2,92.4l-5.7-0.4c-14.7-41.4-18.7-70.8-22.6-99
								C-19922.3,5437.2-19934.1,5400.8-19948.8,5372L-19948.8,5372z M-19926.7,5372.1c10,24.3,17.6,47.7,24.5,71.2
								c-0.3,5.3-0.8,11.2-4.2,15.5c-8.2-28.7-15.1-58.5-27.6-86.6L-19926.7,5372.1L-19926.7,5372.1z M-19908.6,5372.2l7.6,0.1
								l15.4,43l-5.9,6.5C-19896,5407.6-19900.6,5392-19908.6,5372.2z M-19864.3,5372.3l5.6,12.9l-5.9,5.1c0,0-6.2-12.1-7.8-17.8
								L-19864.3,5372.3z M-19853,5372.2l2.8,7.4l-5,3.8l-4-11.1L-19853,5372.2z M-19896.5,5372.6l7.8,0c3.2,9,11.8,31.1,11.8,31.1
								l-5.6,5.9C-19882.5,5409.6-19893.2,5381.7-19896.5,5372.6L-19896.5,5372.6z M-19884.3,5372.5l6.9,0
								c2.1,5.9,8.7,22.1,8.7,22.1l-4.8,4.5L-19884.3,5372.5z M-19848.1,5372.6l6.9,0.3l-0.8,1.7l-4.3,2.1L-19848.1,5372.6z
								 M-20073,5383.5c28.8,14.9,37,59.9,40.3,84.6c5.7,43.2,12,78.3,13.3,79.2l-6.4-1c0,0-4.8-22.2-8.2-43.3
								c-2.8-17.6-5-32.3-5.8-39c-0.5-4.2-1.2-9.1-1.6-10.9c-4.1-17.7-5.4-21.8-10.7-32.6c-5-10.3-6.8-12.9-15.1-22.1
								c-3.2-3.5-6.3-6.1-7.4-8.4C-20076.2,5387-20073,5383.5-20073,5383.5z M-20218.4,5386.7l0.1,8.5l-44,31.2l-0.1-9.7
								L-20218.4,5386.7z M-20218.3,5401.6l0.1,9.8l-44,29.2l-0.1-8.7L-20218.3,5401.6z M-20218.2,5418.3l0.1,9.1l-44,30.8l-0.1-9.4
								L-20218.2,5418.3z M-20144.4,5427l3.9,0l0.3,6.4l-6-0.3L-20144.4,5427L-20144.4,5427z M-20218.1,5435.3l0.1,9.7l-44,29.2
								l-0.1-9L-20218.1,5435.3z M-20148.9,5438.6l9.3,0l-0.1,6.7l-12-0.3L-20148.9,5438.6L-20148.9,5438.6z M-20154.2,5449.3
								l15.3,0.2l0,6.3l-19-0.2L-20154.2,5449.3L-20154.2,5449.3z M-20218,5451.1l0.1,10.2l-44,29.4l-0.1-10.2L-20218,5451.1z
								 M-20162,5461.3l22.5,0.1l-0.1,5.3l-26.8,0L-20162,5461.3z M-20217.9,5467.5l0.1,10l-44,28.3l-0.1-9L-20217.9,5467.5z
								 M-20171.3,5472l30.8,0.2l-0.7,5.1l-35.2,0.1L-20171.3,5472z M-20217.8,5483.1l0.1,9.6l-44,28.8l-0.1-9.2L-20217.8,5483.1z
								 M-20182.8,5482.9l40.6,0.7l8.6,7.7l-63.1,0.7L-20182.8,5482.9L-20182.8,5482.9z M-20195,5497.1l69.8,0.4l4.9,4.4l-74.8,0.7
								L-20195,5497.1z M-20217.7,5499.4l0.1,10.2l-44,29l-0.1-9.3L-20217.7,5499.4z M-20194.9,5508.2l77.3-0.1l-5.6,6.2l-71.8,0.6
								L-20194.9,5508.2L-20194.9,5508.2z M-20217.6,5516l0.1,9.3l-44,30l-0.1-10.7L-20217.6,5516z M-20196.7,5520.8l66.8-0.2
								l-7.8,6.1l-46.2,1.3L-20196.7,5520.8L-20196.7,5520.8z M-20217.5,5532.4l0.1,8.9l-44,31.7l-0.1-9.9L-20217.5,5532.4z
								 M-20177.1,5533.3l39.2-0.1l0.8,5.2l-33.7,0.1L-20177.1,5533.3z M-20166.2,5544l30.1,0.1l1.5,6.8l-26.8-0.2L-20166.2,5544
								L-20166.2,5544z M-20217.4,5549l0,8.2l-44,30.9l-0.1-9.1L-20217.4,5549z M-20133.9,5555.3l0.4,6.4l-18,0.8l-5.1-6.7
								L-20133.9,5555.3L-20133.9,5555.3z M-20134,5566.7l-0.1,6.8l-12.5,0.3l-2.9-6.5L-20134,5566.7L-20134,5566.7z
								 M-20145.1,5578.8l9.9,0l-0.8,5.2l-7.7,0.1L-20145.1,5578.8z M-20142,5591.3l4.8,0l-0.8,4.1l-2.5,0L-20142,5591.3z
								 M-20043.9,5659.5l-2.3,2.9l69-0.4l0.7-2.9L-20043.9,5659.5z M-19954.9,5659l-1.2,4l31.2-0.2l0.8-4L-19954.9,5659z
								 M-19904,5659.5l-0.9,3.7l79.6-0.5l-1.3-3.7L-19904,5659.5z M-19808.7,5658.9l1.6,4.5l26.8-0.2l-1.8-4.5L-19808.7,5658.9z
								 M-19716.2,5658.4l-47,0.3l1.7,5.1l48.7-0.3L-19716.2,5658.4L-19716.2,5658.4z"/>
						</g>
					</g>
				</g>
			</g>
		</g>
		<path id="path163-0-2-5-8-7-5-0-7-4_1_" class="st3" d="M52.2,71.2c0,0-3.8-6.1-8.8-13.4C40,53.1,37.3,47.8,37,43.3
			c-0.3-5.1,2.5-10.3,7.4-10.6c5-0.3,7,4,7.8,7.4c0.8-3.5,2.8-7.7,7.8-7.4c5,0.2,7.7,5.4,7.4,10.6c-0.3,4.5-3,9.7-6.4,14.6
			C56,65.1,52.2,71.2,52.2,71.2L52.2,71.2z"/>
		<path id="path163-0-2-5-8-7-7-8-0-0-6_1_" class="st3" d="M135.7,191.8c0,0-3.8,6.1-8.8,13.4c-3.4,4.8-6.1,10.1-6.4,14.6
			c-0.3,5.1,2.5,10.3,7.4,10.6c5,0.3,7-4,7.8-7.4c0.8,3.5,2.8,7.7,7.8,7.4c5-0.3,7.7-5.4,7.4-10.6c-0.3-4.5-3-9.7-6.4-14.6
			C139.5,198,135.7,191.8,135.7,191.8z"/>
	</g>
</g>
</svg>
