<?xml version="1.0" encoding="utf-8"?>
<!-- Generator: Adobe Illustrator 23.0.1, SVG Export Plug-In . SVG Version: 6.00 Build 0)  -->
<svg version="1.1" xmlns="http://www.w3.org/2000/svg" xmlns:xlink="http://www.w3.org/1999/xlink" x="0px" y="0px"
	 viewBox="0 0 180 250" style="enable-background:new 0 0 180 250;" xml:space="preserve">
<style type="text/css">
	.st0{fill:#FFFFFF;}
	.st1{fill:#E2CF00;}
	.st2{fill:#131F67;}
	.st3{fill:#D40000;}
	.st4{fill:#100F08;}
</style>
<g id="white-background">
	<rect class="st0" width="180" height="250"/>
</g>
<g id="Layer_1">
	<g id="g6785_1_" transform="matrix(0.99553491,0,0,0.99680337,9.8277174,-8.1397402)">
		<path id="path6926-2_1_" class="st3" d="M4.1,64.4c-1.7-2.9-3.6-5.7-5.9-8c2.3-2.4,4.1-5.2,5.9-8c1.7,2.9,3.6,5.7,5.9,8
			C7.7,58.8,5.8,61.6,4.1,64.4z"/>
		<path id="path6928-9_1_" class="st3" d="M122.5,73.1c-4.2-6.9-8.6-13.6-14.1-19.3c5.5-5.7,9.9-12.4,14.1-19.3
			c4.2,6.9,8.6,13.6,14.1,19.3C131.1,59.5,126.7,66.2,122.5,73.1z"/>
		<path id="path6930-6_1_" class="st3" d="M157,218.8c-1.7-2.9-3.6-5.7-5.9-8c2.3-2.4,4.1-5.2,5.9-8c1.7,2.9,3.6,5.7,5.9,8
			C160.6,213.1,158.7,215.9,157,218.8z"/>
		<path id="path6932-2_1_" class="st3" d="M38.6,73.1c-4.2-6.9-8.6-13.6-14.1-19.3C30,48,34.4,41.4,38.6,34.5
			c4.2,6.9,8.6,13.6,14.1,19.3C47.2,59.5,42.8,66.2,38.6,73.1z"/>
		<path id="path6938-4_1_" class="st3" d="M80.5,113c-4.2-6.9-8.6-13.6-14.1-19.3c5.5-5.7,9.9-12.4,14.1-19.3
			c4.2,6.9,8.6,13.6,14.1,19.3C89.2,99.4,84.7,106.1,80.5,113z"/>
		<path id="path6942-4_1_" class="st3" d="M38.6,152.8c-4.2-6.9-8.6-13.6-14.1-19.3c5.5-5.7,9.9-12.4,14.1-19.3
			c4.2,6.9,8.6,13.6,14.1,19.3C47.2,139.3,42.8,146,38.6,152.8z"/>
		<path id="path6944-9_1_" class="st3" d="M122.5,152.9c-4.2-6.9-8.6-13.6-14.1-19.3c5.5-5.7,9.9-12.4,14.1-19.3
			c4.2,6.9,8.6,13.6,14.1,19.3C131.1,139.3,126.7,146,122.5,152.9z"/>
		<path id="path6948-4_1_" class="st3" d="M38.6,232.7c-4.2-6.9-8.6-13.6-14.1-19.3c5.5-5.7,9.9-12.4,14.1-19.3
			c4.2,6.9,8.6,13.6,14.1,19.3C47.2,219.1,42.8,225.8,38.6,232.7z"/>
		<path id="path6950-4_1_" class="st3" d="M122.5,232.7c-4.2-6.9-8.6-13.6-14.1-19.3c5.5-5.7,9.9-12.4,14.1-19.3
			c4.2,6.9,8.6,13.6,14.1,19.3C131.1,219.1,126.7,225.8,122.5,232.7z"/>
		<path id="path6956-4_1_" class="st3" d="M80.5,192.8c-4.2-6.9-8.6-13.6-14.1-19.3c5.5-5.7,9.9-12.4,14.1-19.3
			c4.2,6.9,8.6,13.6,14.1,19.3C89.2,179.2,84.7,185.9,80.5,192.8z"/>
		<path id="path27-00-7-8-6_1_" class="st3" d="M-4.6,38.1c0.1-3.6,1.4-4.9,4-6.8c-2-1.5-2.9-3.6-2.7-5.4c0.4-4.4,3.9-6.7,7.6-6.6
			c3.8,0.1,7,3.1,7.3,6.3c0.2,2.8-0.6,4.2-2.6,5.6c2.4,2,3.9,3.3,3.8,6.8c-0.1,3.5-3.1,7.7-8.3,7.8C-0.8,46-4.7,41.6-4.6,38.1
			L-4.6,38.1L-4.6,38.1z M10,38.1c0.2-3.2-2.6-5.4-5.9-5.4c-3.2,0-6,2.6-6,5.5c0,3.1,3.7,4.8,6,4.8C7.1,43,9.8,40.9,10,38.1L10,38.1
			z M9,26.5C9,23.8,6.5,21.9,3.9,22C1.6,22-0.8,23.8-0.8,26c0,2.8,2.8,4.3,5.2,4.3C6.5,30.4,8.9,28.6,9,26.5L9,26.5L9,26.5z"/>
		<path id="path27-0-1-9-8_1_" class="st3" d="M148.3,229.1c0.1,3.6,1.4,4.9,4,6.8c-2,1.5-2.9,3.6-2.7,5.4c0.4,4.4,3.9,6.7,7.6,6.6
			c3.8-0.1,7-3.1,7.3-6.3c0.2-2.8-0.6-4.2-2.6-5.6c2.4-2,3.9-3.3,3.8-6.8c-0.1-3.5-3.1-7.7-8.3-7.8S148.2,225.5,148.3,229.1
			L148.3,229.1L148.3,229.1z M162.9,229.1c0.2,3.2-2.6,5.4-5.9,5.4c-3.2,0-6-2.6-6-5.5c0-3.1,3.7-4.8,6-4.8
			C160,224.1,162.7,226.3,162.9,229.1L162.9,229.1z M161.9,240.6c0.1,2.7-2.5,4.7-5.1,4.6c-2.3-0.1-4.8-1.8-4.8-4.1
			c0-2.8,2.8-4.3,5.2-4.3C159.4,236.7,161.8,238.5,161.9,240.6L161.9,240.6L161.9,240.6z"/>
	</g>
</g>
</svg>
