<?xml version="1.0" encoding="utf-8"?>
<!-- Generator: Adobe Illustrator 23.0.1, SVG Export Plug-In . SVG Version: 6.00 Build 0)  -->
<svg version="1.1" xmlns="http://www.w3.org/2000/svg" xmlns:xlink="http://www.w3.org/1999/xlink" x="0px" y="0px"
	 viewBox="0 0 180 250" style="enable-background:new 0 0 180 250;" xml:space="preserve">
<style type="text/css">
	.st0{fill:#FFFFFF;}
	.st1{fill:#E2CF00;}
	.st2{fill:#131F67;}
	.st3{fill:#D40000;}
	.st4{fill:#100F08;}
</style>
<g id="white-background">
	<rect class="st0" width="180" height="250"/>
</g>
<g id="Layer_1">
	<g id="g11103-4-9_1_" transform="matrix(0.99553774,0,0,0.99680134,-159.99209,318.48631)">
		<path id="path10308-5-1_1_" class="st3" d="M209.2-201.4c0,0-3.8-6.2-8.9-13.4c-3.4-4.8-6.1-10.1-6.4-14.6
			c-0.3-5.2,2.5-10.3,7.4-10.6c5-0.3,7,4,7.8,7.5c0.8-3.5,2.8-7.7,7.8-7.5c5,0.3,7.7,5.4,7.4,10.6c-0.3,4.5-3,9.8-6.4,14.6
			C213-207.6,209.2-201.4,209.2-201.4z"/>
		<path id="path10310-7-8_1_" class="st3" d="M174.7-263.2c0,0-1.8-2.6-4.2-5.6c-1.6-2-2.9-4.2-3-6.1c-0.1-2.2,1.2-4.3,3.5-4.4
			c2.4-0.1,3.3,1.7,3.7,3.1c0.4-1.5,1.4-3.2,3.7-3.1c2.4,0.1,3.7,2.3,3.5,4.4c-0.1,1.9-1.4,4.1-3,6.1
			C176.5-265.8,174.7-263.2,174.7-263.2z"/>
		<path id="path10312-3-5_1_" class="st3" d="M327.6-125c0,0-1.8,2.6-4.2,5.6c-1.6,2-2.9,4.2-3,6.1c-0.1,2.2,1.2,4.3,3.5,4.4
			c2.4,0.1,3.3-1.7,3.7-3.1c0.4,1.5,1.4,3.2,3.7,3.1c2.4-0.1,3.7-2.3,3.5-4.4c-0.1-1.9-1.4-4.1-3-6.1
			C329.4-122.4,327.6-125,327.6-125z"/>
		<path id="path10314-8-8_1_" class="st3" d="M251.1-220.3c0,0-3.8-6.2-8.9-13.4c-3.4-4.8-6.1-10.1-6.4-14.6
			c-0.3-5.2,2.5-10.3,7.4-10.6c5-0.3,7,4,7.8,7.5c0.8-3.5,2.8-7.7,7.8-7.5c5,0.3,7.7,5.4,7.4,10.6c-0.3,4.5-3,9.8-6.4,14.6
			C254.9-226.5,251.1-220.3,251.1-220.3L251.1-220.3z"/>
		<path id="path10318-3-7_1_" class="st3" d="M209.2-254.6c0,0-3.8-6.2-8.9-13.4c-3.4-4.8-6.1-10.1-6.4-14.6
			c-0.3-5.2,2.5-10.3,7.4-10.6c5-0.3,7,4,7.8,7.5c0.8-3.5,2.8-7.7,7.8-7.5c5,0.3,7.7,5.4,7.4,10.6c-0.3,4.5-3,9.8-6.4,14.6
			C213-260.8,209.2-254.6,209.2-254.6z"/>
		<path id="path10322-4-6_1_" class="st3" d="M293-201.4c0,0-3.8-6.2-8.9-13.4c-3.4-4.8-6.1-10.1-6.4-14.6
			c-0.3-5.2,2.5-10.3,7.4-10.6c5-0.3,7,4,7.8,7.5c0.8-3.5,2.8-7.7,7.8-7.5c5,0.3,7.7,5.4,7.4,10.6c-0.3,4.5-3,9.8-6.4,14.6
			C296.8-207.6,293-201.4,293-201.4z"/>
		<path id="path10324-9-8_1_" class="st3" d="M293-254.6c0,0-3.8-6.2-8.9-13.4c-3.4-4.8-6.1-10.1-6.4-14.6
			c-0.3-5.2,2.5-10.3,7.4-10.6c5-0.3,7,4,7.8,7.5c0.8-3.5,2.8-7.7,7.8-7.5c5,0.3,7.7,5.4,7.4,10.6c-0.3,4.5-3,9.8-6.4,14.6
			C296.8-260.8,293-254.6,293-254.6z"/>
		<path id="path10332-8-6_1_" class="st3" d="M251.1-167.9c0,0-3.8,6.2-8.9,13.4c-3.4,4.8-6.1,10.1-6.4,14.6
			c-0.3,5.2,2.5,10.3,7.4,10.6c5,0.3,7-4,7.8-7.5c0.8,3.5,2.8,7.7,7.8,7.5c5-0.3,7.7-5.4,7.4-10.6c-0.3-4.5-3-9.8-6.4-14.6
			C254.9-161.8,251.1-167.9,251.1-167.9z"/>
		<path id="path10334-5-0_1_" class="st3" d="M293-186.8c0,0-3.8,6.2-8.9,13.4c-3.4,4.8-6.1,10.1-6.4,14.6
			c-0.3,5.2,2.5,10.3,7.4,10.6c5,0.3,7-4,7.8-7.5c0.8,3.5,2.8,7.7,7.8,7.5c5-0.3,7.7-5.4,7.4-10.6c-0.3-4.5-3-9.8-6.4-14.6
			C296.8-180.7,293-186.8,293-186.8z"/>
		<path id="path10336-3-5_1_" class="st3" d="M209.2-186.8c0,0-3.8,6.2-8.9,13.4c-3.4,4.8-6.1,10.1-6.4,14.6
			c-0.3,5.2,2.5,10.3,7.4,10.6c5,0.3,7-4,7.8-7.5c0.8,3.5,2.8,7.7,7.8,7.5c5-0.3,7.7-5.4,7.4-10.6c-0.3-4.5-3-9.8-6.4-14.6
			C213-180.7,209.2-186.8,209.2-186.8z"/>
		<path id="path10338-2-9_1_" class="st3" d="M293-133.6c0,0-3.8,6.2-8.9,13.4c-3.4,4.8-6.1,10.1-6.4,14.6
			c-0.3,5.2,2.5,10.3,7.4,10.6c5,0.3,7-4,7.8-7.5c0.8,3.5,2.8,7.7,7.8,7.5c5-0.3,7.7-5.4,7.4-10.6c-0.3-4.5-3-9.8-6.4-14.6
			C296.8-127.5,293-133.6,293-133.6z"/>
		<path id="path10340-9-7_1_" class="st3" d="M209.2-133.6c0,0-3.8,6.2-8.9,13.4c-3.4,4.8-6.1,10.1-6.4,14.6
			c-0.3,5.2,2.5,10.3,7.4,10.6c5,0.3,7-4,7.8-7.5C210-99,212-94.8,217-95c5-0.3,7.7-5.4,7.4-10.6c-0.3-4.5-3-9.8-6.4-14.6
			C213-127.5,209.2-133.6,209.2-133.6z"/>
		<g id="g7724-24-8-9-7_1_" transform="matrix(1,0,0,0.9999803,1980.6157,-1572.2811)">
			<g id="g8345-9-7-5-1_1_">
				<path id="path31-8-2-9-8_1_" class="st3" d="M-1814.1,1290.5v-26.5h2.6v26.5H-1814.1z"/>
				<path id="path33-2-3-1-6_1_" class="st3" d="M-1803.8,1263.9c-2.5,0-4.5,2.3-4.5,5.1v16.4c0,2.8,2,5.1,4.5,5.1h1.5
					c2.5,0,4.5-2.3,4.5-5.1V1269c0-2.8-2-5.1-4.5-5.1H-1803.8z M-1803.1,1266.4c1.5,0,2.7,1.1,2.7,2.5v16.6c0,1.4-1.2,2.5-2.7,2.5
					c-1.5,0-2.7-1.1-2.7-2.5V1269C-1805.7,1267.6-1804.5,1266.4-1803.1,1266.4L-1803.1,1266.4z"/>
			</g>
		</g>
		<g id="g7724-2-5-0-2-7_1_" transform="matrix(-1,0,0,-0.9999803,4261.3055,-244.23701)">
			<g id="g8345-5-0-9-6-9_1_">
				<g id="g10963-5-1_1_" transform="translate(-5.30767,-0.32920043)">
					<path id="path31-1-3-2-1-5_1_" class="st3" d="M3930.9-137.5v-26.5h2.6v26.5H3930.9z"/>
					<path id="path33-5-5-3-3-1_1_" class="st3" d="M3941.2-164.1c-2.5,0-4.5,2.3-4.5,5.1v16.4c0,2.8,2,5.1,4.5,5.1h1.5
						c2.5,0,4.5-2.3,4.5-5.1V-159c0-2.8-2-5.1-4.5-5.1H3941.2z M3942-161.6c1.5,0,2.7,1.1,2.7,2.5v16.6c0,1.4-1.2,2.5-2.7,2.5
						c-1.5,0-2.7-1.1-2.7-2.5V-159C3939.3-160.4,3940.5-161.6,3942-161.6L3942-161.6z"/>
				</g>
			</g>
		</g>
	</g>
</g>
</svg>
