<?xml version="1.0" encoding="utf-8"?>
<!-- Generator: Adobe Illustrator 23.0.1, SVG Export Plug-In . SVG Version: 6.00 Build 0)  -->
<svg version="1.1" xmlns="http://www.w3.org/2000/svg" xmlns:xlink="http://www.w3.org/1999/xlink" x="0px" y="0px"
	 viewBox="0 0 180 250" style="enable-background:new 0 0 180 250;" xml:space="preserve">
<style type="text/css">
	.st0{fill:#FFFFFF;}
	.st1{fill:#E2CF00;}
	.st2{fill:#131F67;}
	.st3{fill:#D40000;}
	.st4{fill:#100F08;}
</style>
<g id="white-background">
	<rect class="st0" width="180" height="250"/>
</g>
<g id="Layer_1">
	<g id="g5495_1_" transform="matrix(0.99999718,0,0,1.000002,-0.9898215,-5.5505123)">
		<path id="path147-0-8-1-6-13-2-2-3-8_1_" d="M132.7,32.1c-7.9,0.2-11.5,9-5.6,15.9c0.9,1,0.9,1.6-0.6,0.6
			c-3.9-2.6-11.5-0.9-11.9,7.1c-0.5,9.9,13.4,12.7,16,2.2c0.1-1.1,1-1.1,0.8,0.5c-0.2,4.3-1.6,8.3-3.4,12.1c3.1,0,6.6,0,9.4,0
			c-1.8-3.9-3.2-7.9-3.4-12.1c-0.2-1.6,0.7-1.6,0.8-0.5c2.6,10.5,16.5,7.7,16-2.2c-0.4-8-8-9.7-11.9-7.1c-1.6,1-1.5,0.4-0.6-0.6
			C144.2,41.1,140.6,32.3,132.7,32.1C132.7,32.1,132.7,32.1,132.7,32.1L132.7,32.1z"/>
		<path id="path147-0-8-1-6-75-2-83-9-8-9_1_" d="M49.2,32.1c-7.9,0.2-11.5,9-5.6,15.9c0.9,1,0.9,1.6-0.6,0.6
			c-3.9-2.6-11.5-0.9-11.9,7.1c-0.5,9.9,13.4,12.7,16,2.2c0.1-1.1,1-1.1,0.8,0.5c-0.2,4.3-1.6,8.3-3.4,12.1c3.1,0,6.6,0,9.4,0
			c-1.8-3.9-3.2-7.9-3.4-12.1c-0.2-1.6,0.7-1.6,0.8-0.5c2.6,10.5,16.5,7.7,16-2.2c-0.4-8-8-9.7-11.9-7.1c-1.6,1-1.5,0.4-0.6-0.6
			C60.7,41.1,57.2,32.3,49.2,32.1C49.2,32.1,49.2,32.1,49.2,32.1L49.2,32.1z"/>
		<path id="path147-0-8-1-6-7-5-5-7-62-3-0_1_" d="M132.7,229.7c-7.9-0.2-11.5-9-5.6-15.9c0.9-1,0.9-1.6-0.6-0.6
			c-3.9,2.6-11.5,0.9-11.9-7.1c-0.5-9.9,13.4-12.7,16-2.2c0.1,1.1,1,1.1,0.8-0.5c-0.2-4.3-1.6-8.3-3.4-12.1c3.1,0,6.6,0,9.4,0
			c-1.8,3.9-3.2,7.9-3.4,12.1c-0.2,1.6,0.7,1.6,0.8,0.5c2.6-10.5,16.5-7.7,16,2.2c-0.4,8-8,9.7-11.9,7.1c-1.6-1-1.5-0.4-0.6,0.6
			C144.2,220.6,140.6,229.5,132.7,229.7C132.7,229.7,132.7,229.7,132.7,229.7L132.7,229.7z"/>
		<path id="path147-0-8-1-6-75-6-1-2-41-4-5_1_" d="M49.2,229.7c-7.9-0.2-11.5-9-5.6-15.9c0.9-1,0.9-1.6-0.6-0.6
			c-3.9,2.6-11.5,0.9-11.9-7.1c-0.5-9.9,13.4-12.7,16-2.2c0.1,1.1,1,1.1,0.8-0.5c-0.2-4.3-1.6-8.3-3.4-12.1c3.1,0,6.6,0,9.4,0
			c-1.8,3.9-3.2,7.9-3.4,12.1c-0.2,1.6,0.7,1.6,0.8,0.5c2.6-10.5,16.5-7.7,16,2.2c-0.4,8-8,9.7-11.9,7.1c-1.6-1-1.5-0.4-0.6,0.6
			C60.7,220.6,57.2,229.5,49.2,229.7C49.2,229.7,49.2,229.7,49.2,229.7L49.2,229.7z"/>
		<path id="path147-0-8-1-6-2-00-7-5-5-3_1_" d="M91,71.9c-7.9,0.2-11.5,9-5.6,15.9c0.9,1,0.9,1.6-0.6,0.6
			c-3.9-2.6-11.5-0.9-11.9,7.1c-0.5,9.9,13.4,12.7,16,2.2c0.1-1.1,1-1.1,0.8,0.5c-0.2,4.3-1.6,8.3-3.4,12.1c3.1,0,6.6,0,9.4,0
			c-1.8-3.9-3.2-7.9-3.4-12.1c-0.2-1.6,0.7-1.6,0.8-0.5c2.6,10.5,16.5,7.7,16-2.2c-0.4-8-8-9.7-11.9-7.1c-1.6,1-1.5,0.4-0.6-0.6
			C102.5,80.9,98.9,72,91,71.9C91,71.9,91,71.9,91,71.9L91,71.9z"/>
		<path id="path147-0-8-1-6-7-5-7-3-0-4-4-6_1_" d="M132.7,111.6c-7.9,0.2-11.5,9-5.6,15.9c0.9,1,0.9,1.6-0.6,0.6
			c-3.9-2.6-11.5-0.9-11.9,7.1c-0.5,9.9,13.4,12.7,16,2.2c0.1-1.1,1-1.1,0.8,0.5c-0.2,4.3-1.6,8.3-3.4,12.1c3.1,0,6.6,0,9.4,0
			c-1.8-3.9-3.2-7.9-3.4-12.1c-0.2-1.6,0.7-1.6,0.8-0.5c2.6,10.5,16.5,7.7,16-2.2c-0.4-8-8-9.7-11.9-7.1c-1.6,1-1.5,0.4-0.6-0.6
			C144.2,120.7,140.6,111.8,132.7,111.6C132.7,111.6,132.7,111.6,132.7,111.6L132.7,111.6z"/>
		<path id="path147-0-8-1-6-75-6-6-5-3-2-4-8_1_" d="M49.2,111.6c-7.9,0.2-11.5,9-5.6,15.9c0.9,1,0.9,1.6-0.6,0.6
			c-3.9-2.6-11.5-0.9-11.9,7.1c-0.5,9.9,13.4,12.7,16,2.2c0.1-1.1,1-1.1,0.8,0.5c-0.2,4.3-1.6,8.3-3.4,12.1c3.1,0,6.6,0,9.4,0
			c-1.8-3.9-3.2-7.9-3.4-12.1c-0.2-1.6,0.7-1.6,0.8-0.5c2.6,10.5,16.5,7.7,16-2.2c-0.4-8-8-9.7-11.9-7.1c-1.6,1-1.5,0.4-0.6-0.6
			C60.7,120.7,57.2,111.8,49.2,111.6C49.2,111.6,49.2,111.6,49.2,111.6L49.2,111.6z"/>
		<path id="path147-0-8-1-6-2-0-8-6-42-9-6_1_" d="M91,189.9c-7.9-0.2-11.5-9-5.6-15.9c0.9-1,0.9-1.6-0.6-0.6
			c-3.9,2.6-11.5,0.9-11.9-7.1c-0.5-9.9,13.4-12.7,16-2.2c0.1,1.1,1,1.1,0.8-0.5c-0.2-4.3-1.6-8.3-3.4-12.1c3.1,0,6.6,0,9.4,0
			c-1.8,3.9-3.2,7.9-3.4,12.1c-0.2,1.6,0.7,1.6,0.8,0.5c2.6-10.5,16.5-7.7,16,2.2c-0.4,8-8,9.7-11.9,7.1c-1.6-1-1.5-0.4-0.6,0.6
			C102.5,180.9,98.9,189.7,91,189.9C91,189.9,91,189.9,91,189.9L91,189.9z"/>
		<path id="path147-6-9-8-7-0-5-6-1-6-9_1_" d="M167.1,215.5c3.2-0.1,4.6-3.8,2.2-6.6c-0.3-0.4-0.4-0.7,0.2-0.3
			c1.6,1.1,4.6,0.4,4.8-3c0.2-4.1-5.4-5.3-6.4-0.9c-0.1,0.5-0.4,0.5-0.3-0.2c0.1-1.8,0.6-3.4,1.4-5.1c-1.3,0-2.5,0-3.8,0
			c0.7,1.6,1.3,3.3,1.4,5.1c0.1,0.7-0.3,0.7-0.3,0.2c-1-4.4-6.6-3.2-6.4,0.9c0.2,3.3,3.2,4.1,4.8,3c0.6-0.4,0.6-0.2,0.2,0.3
			C162.5,211.7,163.9,215.4,167.1,215.5L167.1,215.5L167.1,215.5z"/>
		<path id="path147-6-9-8-7-4-5-62-4-0-0_1_" d="M14.9,45.6c-3.2,0.1-4.6,3.8-2.2,6.6c0.3,0.4,0.4,0.7-0.2,0.3
			c-1.6-1.1-4.6-0.4-4.8,3c-0.2,4.1,5.4,5.3,6.4,0.9c0.1-0.5,0.4-0.5,0.3,0.2c-0.1,1.8-0.6,3.4-1.4,5.1c1.3,0,2.5,0,3.8,0
			c-0.7-1.6-1.3-3.3-1.4-5.1c-0.1-0.7,0.3-0.7,0.3-0.2c1,4.4,6.6,3.2,6.4-0.9c-0.2-3.3-3.2-4.1-4.8-3c-0.6,0.4-0.6,0.2-0.2-0.3
			C19.5,49.4,18,45.7,14.9,45.6L14.9,45.6L14.9,45.6z"/>
		<path id="path27-3-3-2_1_" d="M6.2,35.4c0.1-3.6,1.4-4.9,4-6.7c-2-1.5-2.9-3.6-2.7-5.4c0.4-4.4,3.9-6.6,7.6-6.5
			c3.7,0.1,7,3.1,7.2,6.3c0.2,2.8-0.6,4.1-2.6,5.6c2.4,2,3.9,3.3,3.8,6.8c-0.1,3.5-3,7.7-8.3,7.8C10,43.2,6.1,38.9,6.2,35.4
			L6.2,35.4L6.2,35.4z M20.8,35.4c0.2-3.2-2.6-5.4-5.9-5.4c-3.1,0-6,2.6-6,5.5c0,3.1,3.7,4.8,6,4.8C17.9,40.3,20.6,38.1,20.8,35.4
			L20.8,35.4z M19.8,23.9c0.1-2.7-2.5-4.6-5-4.6c-2.3,0.1-4.7,1.8-4.7,4.1c0,2.8,2.8,4.2,5.1,4.3C17.3,27.7,19.7,25.9,19.8,23.9
			L19.8,23.9z"/>
		<path id="path27-0-0-5-0_1_" d="M158.5,225.7c0.1,3.6,1.4,4.9,4,6.7c-2,1.5-2.9,3.6-2.7,5.4c0.4,4.4,3.9,6.6,7.6,6.5
			c3.7-0.1,7-3.1,7.2-6.3c0.2-2.8-0.6-4.1-2.6-5.6c2.4-2,3.9-3.3,3.8-6.8c-0.1-3.5-3-7.7-8.3-7.8
			C162.3,217.9,158.3,222.2,158.5,225.7L158.5,225.7L158.5,225.7z M173,225.7c0.2,3.2-2.6,5.4-5.9,5.4c-3.1,0-6-2.6-6-5.5
			c0-3.1,3.7-4.8,6-4.8C170.1,220.8,172.8,223,173,225.7L173,225.7L173,225.7z M172,237.2c0.1,2.7-2.5,4.6-5,4.6
			c-2.3-0.1-4.7-1.8-4.7-4.1c0-2.8,2.8-4.2,5.1-4.3C169.5,233.4,171.9,235.2,172,237.2L172,237.2z"/>
	</g>
</g>
</svg>
