<svg id="Layer_1" data-name="Layer 1" xmlns="http://www.w3.org/2000/svg" viewBox="0 0 180 250"><defs><style>.cls-1{fill:#d40000;}</style></defs><title>all_cards</title><g id="g6836"><path id="path7062-5" class="cls-1" d="M13.88,56.1a45.35,45.35,0,0,0-5.86-8,44.92,44.92,0,0,0,5.86-8,45.46,45.46,0,0,0,5.87,8A45.91,45.91,0,0,0,13.88,56.1Z"/><path id="path7064-0" class="cls-1" d="M131.74,64.7c-4.18-6.87-8.58-13.54-14.08-19.24,5.5-5.71,9.9-12.38,14.08-19.25,4.18,6.87,8.58,13.54,14.08,19.25C140.32,51.16,135.92,57.83,131.74,64.7Z"/><path id="path7066-9" class="cls-1" d="M166.12,209.93a45,45,0,0,0-5.87-8,45.41,45.41,0,0,0,5.87-8,45.35,45.35,0,0,0,5.86,8A44.92,44.92,0,0,0,166.12,209.93Z"/><path id="path7068-2" class="cls-1" d="M48.26,64.7c-4.18-6.87-8.58-13.54-14.08-19.24,5.5-5.71,9.9-12.38,14.08-19.25,4.18,6.87,8.58,13.54,14.08,19.25C56.84,51.16,52.44,57.83,48.26,64.7Z"/><path id="path7070-0" class="cls-1" d="M131.74,117.73c-4.18-6.86-8.58-13.54-14.08-19.24,5.5-5.7,9.9-12.37,14.08-19.24,4.18,6.87,8.58,13.54,14.08,19.24C140.32,104.19,135.92,110.87,131.74,117.73Z"/><path id="path7072-0" class="cls-1" d="M48.26,117.73c-4.18-6.86-8.58-13.54-14.08-19.24,5.5-5.7,9.9-12.37,14.08-19.24,4.18,6.87,8.58,13.54,14.08,19.24C56.84,104.19,52.44,110.87,48.26,117.73Z"/><path id="path7074-4" class="cls-1" d="M90,91.21C85.82,84.35,81.42,77.67,75.92,72c5.5-5.7,9.9-12.38,14.08-19.24,4.18,6.86,8.58,13.54,14.08,19.24C98.58,77.67,94.18,84.35,90,91.21Z"/><path id="path7084-9" class="cls-1" d="M48.26,223.79c-4.18-6.87-8.58-13.54-14.08-19.24,5.5-5.7,9.9-12.38,14.08-19.24,4.18,6.86,8.58,13.54,14.08,19.24C56.84,210.25,52.44,216.92,48.26,223.79Z"/><path id="path7086-7" class="cls-1" d="M131.74,223.8c-4.18-6.87-8.58-13.54-14.08-19.25,5.5-5.7,9.9-12.37,14.08-19.24,4.18,6.87,8.58,13.54,14.08,19.24C140.32,210.26,135.92,216.93,131.74,223.8Z"/><path id="path7088-6" class="cls-1" d="M131.74,170.76c-4.18-6.87-8.58-13.54-14.08-19.25,5.5-5.7,9.9-12.37,14.08-19.24,4.18,6.87,8.58,13.54,14.08,19.24C140.32,157.22,135.92,163.89,131.74,170.76Z"/><path id="path7090-8" class="cls-1" d="M48.26,170.73c-4.18-6.87-8.58-13.54-14.08-19.24,5.5-5.7,9.9-12.38,14.08-19.24,4.18,6.86,8.58,13.54,14.08,19.24C56.84,157.19,52.44,163.86,48.26,170.73Z"/><path id="path7092-79" class="cls-1" d="M90,197.27c-4.18-6.86-8.58-13.54-14.08-19.24,5.5-5.7,9.9-12.38,14.08-19.24,4.18,6.86,8.58,13.54,14.08,19.24C98.58,183.73,94.18,190.41,90,197.27Z"/><g id="g8345-9-6-9-5"><path id="path31-8-2-5-6" class="cls-1" d="M5.8,37.55V11.1H8.38V37.55Z"/><path id="path33-2-0-3-1" class="cls-1" d="M16,11.1a4.78,4.78,0,0,0-4.48,5V32.5a4.78,4.78,0,0,0,4.48,5h1.45a4.78,4.78,0,0,0,4.48-5V16.15a4.78,4.78,0,0,0-4.48-5Zm.75,2.5a2.56,2.56,0,0,1,2.64,2.51V32.68a2.65,2.65,0,0,1-5.29,0V16.11a2.58,2.58,0,0,1,2.65-2.51Z"/></g><g id="g8345-5-0-8-9"><path id="path31-1-3-1-4" class="cls-1" d="M174.19,212.45V238.9h-2.57V212.45Z"/><path id="path33-5-5-1-9" class="cls-1" d="M164,238.91a4.79,4.79,0,0,0,4.48-5.06V217.5a4.78,4.78,0,0,0-4.48-5.05h-1.45A4.78,4.78,0,0,0,158,217.5v16.35a4.79,4.79,0,0,0,4.48,5.06Zm-.75-2.51a2.56,2.56,0,0,1-2.64-2.51V217.32a2.65,2.65,0,0,1,5.29,0v16.57a2.58,2.58,0,0,1-2.65,2.51Z"/></g></g></svg>