<svg id="Layer_1" data-name="Layer 1" xmlns="http://www.w3.org/2000/svg" viewBox="0 0 180 250"><title>all_cards</title><g id="g5421"><path id="path147-0-8-1-6-7-2-1-6-3" d="M90,26.55c-7.92.17-11.47,9-5.61,15.89.85,1,.94,1.58-.62.62-3.94-2.62-11.51-.9-11.9,7.11-.48,9.88,13.41,12.72,16,2.22.14-1.1,1-1.08.83.49A32.46,32.46,0,0,1,85.29,65h9.42a32.46,32.46,0,0,1-3.43-12.15c-.22-1.57.69-1.59.83-.49,2.61,10.5,16.5,7.66,16-2.22-.39-8-8-9.73-11.9-7.11-1.56,1-1.47.39-.62-.62,5.86-6.87,2.31-15.72-5.61-15.89Z"/><path id="path147-0-8-1-6-1-4-5-4-2" d="M90,224.12c-7.92-.17-11.47-9-5.61-15.9.85-1,.94-1.58-.62-.61-3.94,2.62-11.51.9-11.9-7.12-.48-9.87,13.41-12.72,16-2.22.14,1.11,1,1.08.83-.49a32.46,32.46,0,0,0-3.43-12.15h9.42a32.46,32.46,0,0,0-3.43,12.15c-.22,1.57.69,1.6.83.49,2.61-10.5,16.5-7.65,16,2.22-.39,8-8,9.74-11.9,7.12-1.56-1-1.47-.39-.62.61,5.86,6.88,2.31,15.73-5.61,15.9Z"/><path id="path147-6-9-8-7-0-5-4-9-1" d="M166.12,209.93c3.17-.07,4.58-3.76,2.24-6.62-.34-.42-.38-.66.25-.26,1.58,1.1,4.6.38,4.76-3,.19-4.12-5.37-5.3-6.41-.93-.05.46-.42.45-.33-.2A14,14,0,0,1,168,193.9h-3.77a14,14,0,0,1,1.38,5.06c.08.65-.28.66-.34.2-1-4.37-6.6-3.19-6.4.93.15,3.34,3.18,4.06,4.76,3,.62-.4.59-.16.24.26-2.34,2.86-.92,6.55,2.25,6.62Z"/><path id="path147-6-9-8-7-4-5-9-2-7" d="M13.88,40.07c-3.16.07-4.58,3.76-2.24,6.62.34.42.38.66-.25.26-1.58-1.1-4.6-.38-4.76,3C6.44,54,12,55.21,13,50.84c.06-.46.42-.46.33.2A13.81,13.81,0,0,1,12,56.1h3.77A13.81,13.81,0,0,1,14.4,51c-.09-.66.27-.67.33-.2,1,4.37,6.6,3.19,6.41-.93C21,46.57,18,45.85,16.37,47c-.62.4-.58.16-.24-.26,2.34-2.86.92-6.55-2.25-6.62Z"/><path id="path15-9-1-0-1" d="M5.91,37.5,6,35.86c.41-5,1.49-6.74,7.67-12,3-2.55,4-3.81,4.13-5.27.39-3.45-2.68-4.52-4.67-4.54-2.59,0-5.52,1.54-4.12,5.18l-2.9.87c-.59-3.4,0-6.58,2.73-8,3.63-1.85,8.28-1.13,10.63,1.78a6.88,6.88,0,0,1,1.09,6.75C18.13,26,9.73,28.4,9,34.63h9.28V31.16h2.73v6.39l-15.14,0Z"/><path id="path15-5-7-4-9-4" d="M173.69,212.5l-.13,1.63c-.41,5.05-1.5,6.75-7.68,12-3,2.55-4,3.81-4.12,5.27-.39,3.45,2.67,4.52,4.67,4.54,2.59,0,5.51-1.54,4.12-5.18l2.9-.87c.58,3.4,0,6.58-2.73,8-3.63,1.85-8.28,1.12-10.63-1.78a6.91,6.91,0,0,1-1.1-6.75c2.48-5.39,10.87-7.76,11.56-14h-9.27v3.48h-2.74v-6.39l15.15.05Z"/></g></svg>