<?xml version="1.0" encoding="utf-8"?>
<!-- Generator: Adobe Illustrator 23.0.1, SVG Export Plug-In . SVG Version: 6.00 Build 0)  -->
<svg version="1.1" xmlns="http://www.w3.org/2000/svg" xmlns:xlink="http://www.w3.org/1999/xlink" x="0px" y="0px"
	 viewBox="0 0 180 250" style="enable-background:new 0 0 180 250;" xml:space="preserve">
<style type="text/css">
	.st0{fill:#FFFFFF;}
	.st1{fill:#E2CF00;}
	.st2{fill:#131F67;}
	.st3{fill:#D40000;}
	.st4{fill:#100F08;}
</style>
<g id="white-background">
	<rect class="st0" width="180" height="250"/>
</g>
<g id="Layer_1">
	<g id="g11369-4-9_1_" transform="matrix(0.99553774,0,0,0.99680134,-10.596038,318.48631)">
		<path id="path9834-5-2_1_" class="st3" d="M24.6-263.2c0,0-1.8-2.6-4.2-5.6c-1.6-2-2.9-4.2-3-6.1c-0.1-2.2,1.2-4.3,3.5-4.4
			c2.4-0.1,3.3,1.7,3.7,3.1c0.4-1.5,1.4-3.2,3.7-3.1c2.4,0.1,3.7,2.3,3.5,4.4c-0.1,1.9-1.4,4.1-3,6.1
			C26.4-265.8,24.6-263.2,24.6-263.2z"/>
		<path id="path9836-5-8_1_" class="st3" d="M177.5-125c0,0-1.8,2.6-4.2,5.6c-1.6,2-2.9,4.2-3,6.1c-0.1,2.2,1.2,4.3,3.5,4.4
			c2.4,0.1,3.3-1.7,3.7-3.1c0.4,1.5,1.4,3.2,3.7,3.1c2.4-0.1,3.7-2.3,3.5-4.4c-0.1-1.9-1.4-4.1-3-6.1
			C179.3-122.4,177.5-125,177.5-125z"/>
		<path id="path9840-3-6_1_" class="st3" d="M101-254.6c0,0-3.8-6.2-8.9-13.4c-3.4-4.8-6.1-10.1-6.4-14.6
			c-0.3-5.2,2.5-10.3,7.4-10.6c5-0.3,7,4,7.8,7.5c0.8-3.5,2.8-7.7,7.8-7.5c5,0.3,7.7,5.4,7.4,10.6c-0.3,4.5-3,9.8-6.4,14.6
			C104.8-260.8,101-254.6,101-254.6z"/>
		<path id="path9850-2-3_1_" class="st3" d="M101-174.8c0,0-3.8-6.2-8.9-13.4c-3.4-4.8-6.1-10.1-6.4-14.6
			c-0.3-5.2,2.5-10.3,7.4-10.6c5-0.3,7,4,7.8,7.5c0.8-3.5,2.8-7.7,7.8-7.5c5,0.3,7.7,5.4,7.4,10.6c-0.3,4.5-3,9.8-6.4,14.6
			C104.8-181,101-174.8,101-174.8z"/>
		<path id="path9854-8-0_1_" class="st3" d="M101-133.6c0,0-3.8,6.2-8.9,13.4c-3.4,4.8-6.1,10.1-6.4,14.6
			c-0.3,5.2,2.5,10.3,7.4,10.6c5,0.3,7-4,7.8-7.5c0.8,3.5,2.8,7.7,7.8,7.5c5-0.3,7.7-5.4,7.4-10.6c-0.3-4.5-3-9.8-6.4-14.6
			C104.8-127.5,101-133.6,101-133.6z"/>
		<path id="path17-2-9-8-4_1_" class="st3" d="M15.9-287.7l2.1-1.5c1.8,2.9,3.8,4.8,6.8,4.5c4.6-0.3,6.5-5.1,5.5-8.7
			c-0.9-3.2-4.7-4.8-7.7-3.1c-0.7,0.4-1.4,0.7-1.5,0.7c-0.3,0-1-1.4-0.9-1.8c2-2.9,6.9-8.1,6.9-8.1h-7.7v3.4h-2.9v-6.2h15v2.1
			c0,0-4,4.1-5.4,6.4c3.3,0.1,5.9,2.2,6.9,5.4c0.6,1.7,0.3,5.6-0.4,7.3c-1.2,2.8-4.5,5.1-7.5,5.2C19.9-281.5,17.3-285,15.9-287.7
			L15.9-287.7L15.9-287.7z"/>
		<path id="path17-5-3-9-1-3_1_" class="st3" d="M186.2-100.6l-2.1,1.5c-1.8-2.9-3.8-4.8-6.8-4.5c-4.6,0.3-6.5,5.1-5.5,8.7
			c0.9,3.2,4.7,4.8,7.7,3.1c0.7-0.4,1.4-0.7,1.5-0.7c0.3,0,1,1.4,0.9,1.8c-2,2.9-6.9,8.1-6.9,8.1h7.7V-86h2.9v6.2h-15v-2.1
			c0,0,4-4.1,5.4-6.4c-3.3-0.1-5.9-2.2-6.9-5.4c-0.6-1.7-0.3-5.6,0.4-7.3c1.2-2.8,4.5-5.1,7.5-5.2
			C182.1-106.7,184.8-103.2,186.2-100.6L186.2-100.6L186.2-100.6z"/>
	</g>
</g>
</svg>
