<?xml version="1.0" encoding="utf-8"?>
<!-- Generator: Adobe Illustrator 23.0.1, SVG Export Plug-In . SVG Version: 6.00 Build 0)  -->
<svg version="1.1" xmlns="http://www.w3.org/2000/svg" xmlns:xlink="http://www.w3.org/1999/xlink" x="0px" y="0px"
	 viewBox="0 0 180 250" style="enable-background:new 0 0 180 250;" xml:space="preserve">
<style type="text/css">
	.st0{fill:#FFFFFF;}
	.st1{fill:#E2CF00;}
	.st2{fill:#131F67;}
	.st3{fill:#D40000;}
	.st4{fill:#100F08;}
</style>
<g id="white-background">
	<rect class="st0" width="180" height="250"/>
</g>
<g id="Layer_1">
	<g id="g8542-3-6_1_" transform="matrix(0.99553774,0,0,0.99680134,-405.44958,79.60161)">
		<g id="g8587-4-9_1_" transform="translate(-4.1467285e-5,2.9626465e-5)">
			<path id="path7293-3-2_1_" d="M455.7-53.6c-7.5,10.6-15.5,16.7-15.6,24.9c0,2.7,1.4,7.2,6,8.1c3,0.6,7-1.8,7.1-6.6
				c0-1,1-0.9,1,0.4c-0.1,3.8-1.4,8.2-3.4,11.9c3.3,0,6.5,0,9.8,0c-2-3.6-3.3-8-3.4-11.9c0-1.3,1-1.3,1-0.4c0.1,4.8,4.2,7.2,7.1,6.6
				c4.6-0.9,6-5.4,6-8.1C471.2-36.9,463.2-43,455.7-53.6z"/>
			<path id="path7295-4-8_1_" d="M421.2-39.7c-3.5,4.4-7.2,6.9-7.3,10.4c0,1.1,0.7,3,2.8,3.4c1.4,0.2,3.3-0.8,3.3-2.8
				c0-0.4,0.5-0.4,0.5,0.2c-0.1,1.6-0.6,3.4-1.6,4.9c1.5,0,3,0,4.6,0c-1-1.5-1.5-3.4-1.6-4.9c0-0.5,0.5-0.6,0.5-0.2
				c0,2,1.9,3,3.3,2.8c2.1-0.4,2.8-2.3,2.8-3.4C428.4-32.7,424.7-35.3,421.2-39.7L421.2-39.7z"/>
			<path id="path7297-5-1_1_" d="M455.7,91.4c-7.5-10.6-15.5-16.7-15.6-24.9c0-2.7,1.4-7.2,6-8.1c3-0.6,7,1.8,7.1,6.6
				c0,1,1,0.9,1-0.4c-0.1-3.8-1.4-8.2-3.4-11.9c3.3,0,6.5,0,9.8,0c-2,3.6-3.3,8-3.4,11.9c0,1.3,1,1.3,1,0.4c0.1-4.8,4.2-7.2,7.1-6.6
				c4.6,0.9,6,5.4,6,8.1C471.2,74.8,463.2,80.9,455.7,91.4z"/>
			<path id="path7299-3-5_1_" d="M574.1,130.7c-3.5-4.4-7.2-6.9-7.3-10.4c0-1.1,0.7-3,2.8-3.4c1.4-0.2,3.3,0.8,3.3,2.8
				c0,0.4,0.5,0.4,0.5-0.2c-0.1-1.6-0.6-3.4-1.6-4.9c1.5,0,3,0,4.6,0c-1,1.5-1.5,3.4-1.6,4.9c0,0.5,0.5,0.6,0.5,0.2
				c0-2,1.9-3,3.3-2.8c2.1,0.4,2.8,2.3,2.8,3.4C581.4,123.8,577.6,126.3,574.1,130.7L574.1,130.7z"/>
			<path id="path7301-4-0_1_" d="M539.6-53.6C532.1-43,524.1-36.9,524-28.6c0,2.7,1.4,7.2,6,8.1c3,0.6,7-1.8,7.1-6.6
				c0-1,1-0.9,1,0.4c-0.1,3.8-1.4,8.2-3.4,11.9c3.3,0,6.5,0,9.8,0c-2-3.6-3.3-8-3.4-11.9c0-1.3,1-1.3,1-0.4c0.1,4.8,4.2,7.2,7.1,6.6
				c4.6-0.9,6-5.4,6-8.1C555.1-36.9,547.1-43,539.6-53.6z"/>
			<path id="path7303-7-8_1_" d="M455.7-0.4c-7.5,10.6-15.5,16.7-15.6,24.9c0,2.7,1.4,7.2,6,8.1c3,0.6,7-1.8,7.1-6.6
				c0-1,1-0.9,1,0.4c-0.1,3.8-1.4,8.2-3.4,11.9c3.3,0,6.5,0,9.8,0c-2-3.6-3.3-8-3.4-11.9c0-1.3,1-1.3,1-0.4c0.1,4.8,4.2,7.2,7.1,6.6
				c4.6-0.9,6-5.4,6-8.1C471.2,16.3,463.2,10.2,455.7-0.4z"/>
			<path id="path7305-6-7_1_" d="M497.7-19.3c-7.5,10.6-15.5,16.7-15.6,24.9c0,2.7,1.4,7.2,6,8.1c3,0.6,7-1.8,7.1-6.6
				c0-1,1-0.9,1,0.4c-0.1,3.8-1.4,8.2-3.4,11.9c3.3,0,6.5,0,9.8,0c-2-3.6-3.3-8-3.4-11.9c0-1.3,1-1.3,1-0.4c0.1,4.8,4.2,7.2,7.1,6.6
				c4.6-0.9,6-5.4,6-8.1C513.1-2.6,505.1-8.7,497.7-19.3z"/>
			<path id="path7309-8-5_1_" d="M539.6-0.4c-7.5,10.6-15.5,16.7-15.6,24.9c0,2.7,1.4,7.2,6,8.1c3,0.6,7-1.8,7.1-6.6
				c0-1,1-0.9,1,0.4c-0.1,3.8-1.4,8.2-3.4,11.9c3.3,0,6.5,0,9.8,0c-2-3.6-3.3-8-3.4-11.9c0-1.3,1-1.3,1-0.4c0.1,4.8,4.2,7.2,7.1,6.6
				c4.6-0.9,6-5.4,6-8.1C555.1,16.3,547.1,10.2,539.6-0.4z"/>
			<path id="path7313-6-8_1_" d="M455.7,144.6c-7.5-10.6-15.5-16.7-15.6-24.9c0-2.7,1.4-7.2,6-8.1c3-0.6,7,1.8,7.1,6.6
				c0,1,1,0.9,1-0.4c-0.1-3.8-1.4-8.2-3.4-11.9c3.3,0,6.5,0,9.8,0c-2,3.6-3.3,8-3.4,11.9c0,1.3,1,1.3,1,0.4c0.1-4.8,4.2-7.2,7.1-6.6
				c4.6,0.9,6,5.4,6,8.1C471.2,128,463.2,134.1,455.7,144.6z"/>
			<path id="path7315-7-3_1_" d="M539.6,144.6c-7.5-10.6-15.5-16.7-15.6-24.9c0-2.7,1.4-7.2,6-8.1c3-0.6,7,1.8,7.1,6.6
				c0,1,1,0.9,1-0.4c-0.1-3.8-1.4-8.2-3.4-11.9c3.3,0,6.5,0,9.8,0c-2,3.6-3.3,8-3.4,11.9c0,1.3,1,1.3,1,0.4c0.1-4.8,4.2-7.2,7.1-6.6
				c4.6,0.9,6,5.4,6,8.1C555.1,128,547.1,134.1,539.6,144.6z"/>
			<path id="path7317-0-2_1_" d="M497.7,110.3c-7.5-10.6-15.5-16.7-15.6-24.9c0-2.7,1.4-7.2,6-8.1c3-0.6,7,1.8,7.1,6.6
				c0,1,1,0.9,1-0.4c-0.1-3.8-1.4-8.2-3.4-11.9c3.3,0,6.5,0,9.8,0c-2,3.6-3.3,8-3.4,11.9c0,1.3,1,1.3,1,0.4c0.1-4.8,4.2-7.2,7.1-6.6
				c4.6,0.9,6,5.4,6,8.1C513.1,93.7,505.1,99.8,497.7,110.3z"/>
			<path id="path7319-5-6_1_" d="M539.6,91.4c-7.5-10.6-15.5-16.7-15.6-24.9c0-2.7,1.4-7.2,6-8.1c3-0.6,7,1.8,7.1,6.6
				c0,1,1,0.9,1-0.4c-0.1-3.8-1.4-8.2-3.4-11.9c3.3,0,6.5,0,9.8,0c-2,3.6-3.3,8-3.4,11.9c0,1.3,1,1.3,1,0.4c0.1-4.8,4.2-7.2,7.1-6.6
				c4.6,0.9,6,5.4,6,8.1C555.1,74.8,547.1,80.9,539.6,91.4z"/>
			<path id="path31-5-4-7_1_" d="M413.1-42.2v-26.5h2.6v26.5H413.1z"/>
			<path id="path33-4-6-8_1_" d="M423.4-68.7c-2.5,0-4.5,2.3-4.5,5.1v16.4c0,2.8,2,5.1,4.5,5.1h1.5c2.5,0,4.5-2.3,4.5-5.1v-16.4
				c0-2.8-2-5.1-4.5-5.1H423.4z M424.1-66.2c1.5,0,2.7,1.1,2.7,2.5v16.6c0,1.4-1.2,2.5-2.7,2.5c-1.5,0-2.7-1.1-2.7-2.5v-16.6
				C421.5-65.1,422.6-66.2,424.1-66.2L424.1-66.2z"/>
			<g id="g8583-6-9_1_" transform="matrix(-1,0,0,1,6929.1386,0)">
				<path id="path31-5-5-6-7_1_" d="M6346.9,133.3v26.5h2.6v-26.5H6346.9z"/>
				<path id="path33-4-3-7-9_1_" d="M6357.2,159.8c-2.5,0-4.5-2.3-4.5-5.1v-16.4c0-2.8,2-5.1,4.5-5.1h1.5c2.5,0,4.5,2.3,4.5,5.1
					v16.4c0,2.8-2,5.1-4.5,5.1H6357.2z M6357.9,157.3c1.5,0,2.7-1.1,2.7-2.5v-16.6c0-1.4-1.2-2.5-2.7-2.5c-1.5,0-2.7,1.1-2.7,2.5
					v16.6C6355.3,156.2,6356.4,157.3,6357.9,157.3L6357.9,157.3z"/>
			</g>
		</g>
	</g>
</g>
</svg>
