<?xml version="1.0" encoding="utf-8"?>
<!-- Generator: Adobe Illustrator 23.0.1, SVG Export Plug-In . SVG Version: 6.00 Build 0)  -->
<svg version="1.1" xmlns="http://www.w3.org/2000/svg" xmlns:xlink="http://www.w3.org/1999/xlink" x="0px" y="0px"
	 viewBox="0 0 180 250" style="enable-background:new 0 0 180 250;" xml:space="preserve">
<style type="text/css">
	.st0{fill:#FFFFFF;}
	.st1{fill:#E2CF00;}
	.st2{fill:#131F67;}
	.st3{fill:#D40000;}
	.st4{fill:#100F08;}
</style>
<g id="white-background">
	<rect class="st0" width="180" height="250"/>
</g>
<g id="Layer_1">
	<g id="g8417-9-8_1_" transform="matrix(0.99553774,0,0,0.99680134,77.963108,79.60164)">
		<path id="path6748-4-0_1_" d="M-64.4-39.7c-3.5,4.4-7.2,6.9-7.3,10.4c0,1.1,0.7,3,2.8,3.4c1.4,0.2,3.3-0.8,3.3-2.8
			c0-0.4,0.5-0.4,0.5,0.2c-0.1,1.6-0.6,3.4-1.6,4.9c1.5,0,3,0,4.6,0c-1-1.5-1.5-3.4-1.6-4.9c0-0.5,0.5-0.6,0.5-0.2
			c0,2,1.9,3,3.3,2.8c2.1-0.4,2.8-2.3,2.8-3.4C-57.1-32.7-60.9-35.3-64.4-39.7L-64.4-39.7z"/>
		<path id="path6752-9-1_1_" d="M88.5,130.7c-3.5-4.4-7.2-6.9-7.3-10.4c0-1.1,0.7-3,2.8-3.4c1.4-0.2,3.3,0.8,3.3,2.8
			c0,0.4,0.5,0.4,0.5-0.2c-0.1-1.6-0.6-3.4-1.6-4.9c1.5,0,3,0,4.6,0c-1,1.5-1.5,3.4-1.6,4.9c0,0.5,0.5,0.6,0.5,0.2
			c0-2,1.9-3,3.3-2.8c2.1,0.4,2.8,2.3,2.8,3.4C95.8,123.8,92,126.3,88.5,130.7L88.5,130.7z"/>
		<path id="path6760-2-4_1_" d="M12.1-53.6C4.6-43-3.4-36.9-3.5-28.6c0,2.7,1.4,7.2,6,8.1c3,0.6,7-1.8,7.1-6.6c0-1,1-0.9,1,0.4
			C10.5-23,9.2-18.6,7.2-15c3.3,0,6.5,0,9.8,0c-2-3.6-3.3-8-3.4-11.9c0-1.3,1-1.3,1-0.4c0.1,4.8,4.2,7.2,7.1,6.6
			c4.6-0.9,6-5.4,6-8.1C27.6-36.9,19.6-43,12.1-53.6z"/>
		<path id="path6774-6-2_1_" d="M12.1,144.6C4.6,134.1-3.4,128-3.5,119.7c0-2.7,1.4-7.2,6-8.1c3-0.6,7,1.8,7.1,6.6c0,1,1,0.9,1-0.4
			c-0.1-3.8-1.4-8.2-3.4-11.9c3.3,0,6.5,0,9.8,0c-2,3.6-3.3,8-3.4,11.9c0,1.3,1,1.3,1,0.4c0.1-4.8,4.2-7.2,7.1-6.6
			c4.6,0.9,6,5.4,6,8.1C27.6,128,19.6,134.1,12.1,144.6z"/>
		<path id="path15-3-8-9_1_" d="M-72-42.2l0.1-1.6c0.4-5.1,1.5-6.8,7.7-12c3-2.6,4-3.8,4.1-5.3c0.4-3.5-2.7-4.5-4.7-4.6
			c-2.6,0-5.5,1.5-4.1,5.2l-2.9,0.9c-0.6-3.4,0-6.6,2.7-8c3.6-1.8,8.3-1.1,10.7,1.8c1.6,2,1.9,4.7,1.1,6.8
			c-2.5,5.4-10.9,7.8-11.6,14h9.3v-3.5h2.7v6.4L-72-42.2L-72-42.2z"/>
		<path id="path15-3-5-1-4_1_" d="M96.2,133.3L96,135c-0.4,5.1-1.5,6.8-7.7,12c-3,2.6-4,3.8-4.1,5.3c-0.4,3.5,2.7,4.5,4.7,4.6
			c2.6,0,5.5-1.5,4.1-5.2l2.9-0.9c0.6,3.4,0,6.6-2.7,8c-3.6,1.8-8.3,1.1-10.7-1.8c-1.6-2-1.9-4.7-1.1-6.8c2.5-5.4,10.9-7.8,11.6-14
			h-9.3v3.5h-2.7v-6.4L96.2,133.3L96.2,133.3z"/>
	</g>
</g>
</svg>
