<svg id="Layer_1" data-name="Layer 1" xmlns="http://www.w3.org/2000/svg" viewBox="0 0 180 250"><title>all_cards</title><g id="g8484-9-4"><path id="path7018-7-4" d="M48.26,26.21c-7.44,10.55-15.4,16.62-15.53,24.85,0,2.67,1.4,7.2,5.94,8.06,2.95.56,7-1.8,7.09-6.62,0-1,1-.93,1,.38A27.25,27.25,0,0,1,43.39,64.7h9.74a27.25,27.25,0,0,1-3.38-11.82c0-1.31,1-1.34,1-.38.09,4.82,4.14,7.18,7.09,6.62,4.54-.86,6-5.39,5.94-8.06-.13-8.23-8.09-14.3-15.53-24.85Z"/><path id="path7020-0-8" d="M13.88,40.07C10.41,44.46,6.69,47,6.63,50.42A3.33,3.33,0,0,0,9.4,53.78,2.88,2.88,0,0,0,12.71,51c0-.4.48-.39.48.16a10.48,10.48,0,0,1-1.58,4.92h4.55a10.48,10.48,0,0,1-1.58-4.92c0-.55.48-.56.47-.16a2.88,2.88,0,0,0,3.31,2.76,3.34,3.34,0,0,0,2.78-3.36c-.06-3.43-3.78-6-7.26-10.35Z"/><path id="path7024-7-1" d="M166.12,209.93c-3.48-4.39-7.2-6.92-7.26-10.35a3.34,3.34,0,0,1,2.78-3.36A2.88,2.88,0,0,1,165,199c0,.4.48.39.47-.16a10.36,10.36,0,0,0-1.58-4.92h4.55a10.46,10.46,0,0,0-1.57,4.92c0,.55.47.56.47.16a2.88,2.88,0,0,1,3.31-2.76,3.33,3.33,0,0,1,2.77,3.36c-.06,3.43-3.78,6-7.25,10.35Z"/><path id="path7026-2-6" d="M131.74,26.21c-7.44,10.55-15.4,16.62-15.53,24.85,0,2.67,1.41,7.2,5.94,8.06,2.95.56,7-1.8,7.09-6.62,0-1,1-.93,1,.38a27.25,27.25,0,0,1-3.38,11.82h9.75a27,27,0,0,1-3.38-11.82c0-1.31,1-1.34,1-.38.08,4.82,4.14,7.18,7.08,6.62,4.54-.86,6-5.39,5.94-8.06C147.14,42.83,139.18,36.76,131.74,26.21Z"/><path id="path7036-9-6" d="M48.26,105.76c-7.44,10.55-15.4,16.62-15.53,24.85,0,2.66,1.4,7.19,5.94,8.06,2.95.56,7-1.81,7.09-6.63,0-.95,1-.93,1,.38a27.25,27.25,0,0,1-3.38,11.82h9.74a27.25,27.25,0,0,1-3.38-11.82c0-1.31,1-1.33,1-.38.09,4.82,4.14,7.19,7.09,6.63,4.54-.87,6-5.4,5.94-8.06-.13-8.23-8.09-14.3-15.53-24.85Z"/><path id="path7038-9-6" d="M48.26,223.79c-7.44-10.55-15.4-16.62-15.53-24.85,0-2.67,1.4-7.2,5.94-8.06,2.95-.57,7,1.8,7.09,6.62,0,1,1,.93,1-.38a27.25,27.25,0,0,0-3.38-11.82h9.74a27.25,27.25,0,0,0-3.38,11.82c0,1.31,1,1.34,1,.38.09-4.82,4.14-7.19,7.09-6.62,4.54.86,6,5.39,5.94,8.06-.13,8.23-8.09,14.3-15.53,24.85Z"/><path id="path7040-0-9" d="M131.74,223.79c-7.44-10.55-15.4-16.62-15.53-24.85,0-2.67,1.41-7.2,5.94-8.06,2.95-.57,7,1.8,7.09,6.62,0,1,1,.93,1-.38a27.25,27.25,0,0,0-3.38-11.82h9.75a27,27,0,0,0-3.38,11.82c0,1.31,1,1.34,1,.38.08-4.82,4.14-7.19,7.08-6.62,4.54.86,6,5.39,5.94,8.06C147.14,207.17,139.18,213.24,131.74,223.79Z"/><path id="path7050-2-9" d="M131.74,105.76c-7.44,10.55-15.4,16.62-15.53,24.85,0,2.66,1.41,7.19,5.94,8.06,2.95.56,7-1.81,7.09-6.63,0-.95,1-.93,1,.38a27.25,27.25,0,0,1-3.38,11.82h9.75a27,27,0,0,1-3.38-11.82c0-1.31,1-1.33,1-.38.08,4.82,4.14,7.19,7.08,6.63,4.54-.87,6-5.4,5.94-8.06C147.14,122.38,139.18,116.31,131.74,105.76Z"/><path id="path23-1-9-8" d="M6.07,29.41A52.32,52.32,0,0,1,6,19.73c.82-5.22,2.83-7.61,6.18-8.39s7.84.09,8.85,4.45l-2.73.05c-1.47-2.95-5.2-2.16-7.3-.88-1.68,1-2.44,5.29-2.11,5.55,0,0,3.17-2.33,5.67-2.16,5.34.55,7.54,5.16,7.36,9.51-.17,5.23-1.84,9.42-7.5,9.69-5.39-.2-7.85-3.12-8.37-8.14ZM19.34,28c0-3.63-1.62-6.35-4.76-6.65s-6.3,2.75-6.08,6.45,1.66,6.84,5.47,6.82c4.09,0,5.35-4,5.37-6.62Z"/><path id="path23-1-5-6-4" d="M173.93,220.59a52.32,52.32,0,0,1,0,9.68c-.82,5.22-2.83,7.61-6.18,8.39s-7.84-.09-8.85-4.45l2.73-.05c1.47,3,5.2,2.16,7.3.88,1.68-1,2.44-5.29,2.11-5.55,0,0-3.17,2.33-5.67,2.16-5.34-.55-7.54-5.16-7.36-9.51.17-5.23,1.84-9.42,7.5-9.69,5.39.2,7.85,3.12,8.37,8.14ZM160.66,222c0,3.63,1.62,6.35,4.76,6.65s6.3-2.75,6.08-6.44-1.66-6.85-5.47-6.83c-4.09,0-5.35,4-5.37,6.62Z"/></g></svg>