<?xml version="1.0" encoding="utf-8"?>
<!-- Generator: Adobe Illustrator 23.0.1, SVG Export Plug-In . SVG Version: 6.00 Build 0)  -->
<svg version="1.1" xmlns="http://www.w3.org/2000/svg" xmlns:xlink="http://www.w3.org/1999/xlink" x="0px" y="0px"
	 viewBox="0 0 180 250" style="enable-background:new 0 0 180 250;" xml:space="preserve">
<style type="text/css">
	.st0{fill:#FFFFFF;}
	.st1{fill:#E2CF00;}
	.st2{fill:#131F67;}
	.st3{fill:#D40000;}
	.st4{fill:#100F08;}
</style>
<g id="white-background">
	<rect class="st0" width="180" height="250"/>
</g>
<g id="Layer_1">
	<g id="g11234-8-5_1_" transform="matrix(0.99553774,0,0,0.99680134,-95.965064,318.48629)">
		<path id="path10106-2-3_1_" class="st3" d="M110.3-263.2c0,0-1.8-2.6-4.2-5.6c-1.6-2-2.9-4.2-3-6.1c-0.1-2.2,1.2-4.3,3.5-4.4
			c2.4-0.1,3.3,1.7,3.7,3.1c0.4-1.5,1.4-3.2,3.7-3.1c2.4,0.1,3.7,2.3,3.5,4.4c-0.1,1.9-1.4,4.1-3,6.1
			C112.1-265.8,110.3-263.2,110.3-263.2z"/>
		<path id="path10108-3-1_1_" class="st3" d="M263.3-125c0,0-1.8,2.6-4.2,5.6c-1.6,2-2.9,4.2-3,6.1c-0.1,2.2,1.2,4.3,3.5,4.4
			c2.4,0.1,3.3-1.7,3.7-3.1c0.4,1.5,1.4,3.2,3.7,3.1c2.4-0.1,3.7-2.3,3.5-4.4c-0.1-1.9-1.4-4.1-3-6.1
			C265.1-122.4,263.3-125,263.3-125z"/>
		<path id="path10110-3-5_1_" class="st3" d="M186.8-214.7c0,0-3.8-6.2-8.9-13.4c-3.4-4.8-6.1-10.1-6.4-14.6
			c-0.3-5.2,2.5-10.3,7.4-10.6c5-0.3,7,4,7.8,7.5c0.8-3.5,2.8-7.7,7.8-7.5c5,0.3,7.7,5.4,7.4,10.6c-0.3,4.5-3,9.8-6.4,14.6
			C190.6-220.9,186.8-214.7,186.8-214.7z"/>
		<path id="path10114-8-3_1_" class="st3" d="M144.9-254.6c0,0-3.8-6.2-8.9-13.4c-3.4-4.8-6.1-10.1-6.4-14.6
			c-0.3-5.2,2.5-10.3,7.4-10.6c5-0.3,7,4,7.8,7.5c0.8-3.5,2.8-7.7,7.8-7.5c5,0.3,7.7,5.4,7.4,10.6c-0.3,4.5-3,9.8-6.4,14.6
			C148.7-260.8,144.9-254.6,144.9-254.6z"/>
		<path id="path10116-2-5_1_" class="st3" d="M228.7-174.8c0,0-3.8-6.2-8.9-13.4c-3.4-4.8-6.1-10.1-6.4-14.6
			c-0.3-5.2,2.5-10.3,7.4-10.6c5-0.3,7,4,7.8,7.5c0.8-3.5,2.8-7.7,7.8-7.5c5,0.3,7.7,5.4,7.4,10.6c-0.3,4.5-3,9.8-6.4,14.6
			C232.5-181,228.7-174.8,228.7-174.8z"/>
		<path id="path10120-6-5_1_" class="st3" d="M228.7-254.6c0,0-3.8-6.2-8.9-13.4c-3.4-4.8-6.1-10.1-6.4-14.6
			c-0.3-5.2,2.5-10.3,7.4-10.6c5-0.3,7,4,7.8,7.5c0.8-3.5,2.8-7.7,7.8-7.5c5,0.3,7.7,5.4,7.4,10.6c-0.3,4.5-3,9.8-6.4,14.6
			C232.5-260.8,228.7-254.6,228.7-254.6z"/>
		<path id="path10124-1-1_1_" class="st3" d="M144.9-174.8c0,0-3.8-6.2-8.9-13.4c-3.4-4.8-6.1-10.1-6.4-14.6
			c-0.3-5.2,2.5-10.3,7.4-10.6c5-0.3,7,4,7.8,7.5c0.8-3.5,2.8-7.7,7.8-7.5c5,0.3,7.7,5.4,7.4,10.6c-0.3,4.5-3,9.8-6.4,14.6
			C148.7-181,144.9-174.8,144.9-174.8z"/>
		<path id="path10134-7-3_1_" class="st3" d="M228.7-133.6c0,0-3.8,6.2-8.9,13.4c-3.4,4.8-6.1,10.1-6.4,14.6
			c-0.3,5.2,2.5,10.3,7.4,10.6c5,0.3,7-4,7.8-7.5c0.8,3.5,2.8,7.7,7.8,7.5c5-0.3,7.7-5.4,7.4-10.6c-0.3-4.5-3-9.8-6.4-14.6
			C232.5-127.5,228.7-133.6,228.7-133.6z"/>
		<path id="path10136-5-7_1_" class="st3" d="M144.9-133.6c0,0-3.8,6.2-8.9,13.4c-3.4,4.8-6.1,10.1-6.4,14.6
			c-0.3,5.2,2.5,10.3,7.4,10.6c5,0.3,7-4,7.8-7.5c0.8,3.5,2.8,7.7,7.8,7.5c5-0.3,7.7-5.4,7.4-10.6c-0.3-4.5-3-9.8-6.4-14.6
			C148.7-127.5,144.9-133.6,144.9-133.6z"/>
		<path id="path25-43-2-3-9_1_" class="st3" d="M106.2-281.8c1.8-9.2,3.6-16.2,8.5-23.7h-10v3.2h-2.7v-6.1h14.6l1.8,2.9
			c-5.2,5.7-10,23.9-9.1,23.7H106.2z"/>
		<path id="path25-7-0-2-8-2_1_" class="st3" d="M267.4-106.4c-1.8,9.2-3.6,16.2-8.5,23.7h10v-3.2h2.7v6.1h-14.6l-1.8-2.9
			c5.2-5.7,10-23.9,9.1-23.7H267.4L267.4-106.4z"/>
	</g>
</g>
</svg>
