<svg id="Layer_1" data-name="Layer 1" xmlns="http://www.w3.org/2000/svg" viewBox="0 0 180 250"><defs><style>.cls-1{fill:#d40000;}</style></defs><title>all_cards</title><g id="g11425-5-5"><path id="path9698-0-0" class="cls-1" d="M13.88,56.1s-1.79-2.56-4.21-5.56c-1.62-2-2.91-4.19-3-6.07a3.89,3.89,0,0,1,3.53-4.4c2.36-.1,3.32,1.65,3.71,3.1.39-1.45,1.35-3.2,3.72-3.1a3.9,3.9,0,0,1,3.53,4.4c-.12,1.88-1.41,4.06-3,6.07C15.68,53.54,13.88,56.1,13.88,56.1Z"/><path id="path9700-3-2" class="cls-1" d="M166.12,193.9s-1.8,2.56-4.22,5.56c-1.62,2-2.91,4.19-3,6.07a3.9,3.9,0,0,0,3.53,4.4c2.37.1,3.33-1.66,3.72-3.1.39,1.44,1.35,3.2,3.71,3.1a3.89,3.89,0,0,0,3.53-4.4c-.11-1.88-1.41-4.06-3-6.07C167.91,196.46,166.12,193.9,166.12,193.9Z"/><path id="path9714-6-6" class="cls-1" d="M90,144.24s-3.76-6.14-8.84-13.35c-3.39-4.83-6.11-10.06-6.36-14.57-.29-5.14,2.45-10.3,7.41-10.55s7,4,7.79,7.44c.82-3.47,2.83-7.69,7.79-7.44s7.7,5.41,7.41,10.55c-.25,4.51-3,9.74-6.36,14.57C93.76,138.1,90,144.24,90,144.24Z"/><path id="path41-87-8-3-9" class="cls-1" d="M5.74,37.55V35.29H7.92l4.62-24.2h2.63l5.1,24.2H22v2.26h-6V35.29h1.61L17,31.58H11l-.47,3.71h1.62v2.26H5.74ZM16.5,28.94,13.88,16l-2.45,13Z"/><path id="path41-8-5-1-8-7" class="cls-1" d="M158,212.45v2.26h2.17l4.62,24.19h2.64l5.09-24.19h1.75v-2.26h-6v2.26h1.61l-.64,3.71h-6l-.46-3.71h1.61v-2.26Zm10.75,8.61L166.12,234l-2.46-12.95Z"/></g></svg>