<svg id="Layer_1" data-name="Layer 1" xmlns="http://www.w3.org/2000/svg" viewBox="0 0 180 250"><defs><style>.cls-1{fill:#d40000;}.cls-2{fill:#131f67;}.cls-3{fill:#e2cf00;}</style></defs><title>all_cards</title><g id="g7094"><path id="path7130-4" class="cls-1" d="M14.22,56.1a45.35,45.35,0,0,0-5.86-8,44.92,44.92,0,0,0,5.86-8,45.46,45.46,0,0,0,5.87,8A45.91,45.91,0,0,0,14.22,56.1Z"/><path id="path7134-0" class="cls-1" d="M165.78,209.93a45,45,0,0,0-5.87-8,45.41,45.41,0,0,0,5.87-8,44.91,44.91,0,0,0,5.87,8A44.48,44.48,0,0,0,165.78,209.93Z"/><path id="path7136-1" class="cls-1" d="M48.45,64.7c-4.19-6.87-8.59-13.54-14.08-19.24,5.49-5.71,9.89-12.38,14.08-19.25C52.63,33.08,57,39.75,62.53,45.46,57,51.16,52.63,57.83,48.45,64.7Z"/><path id="path7154-5" class="cls-1" d="M131.56,223.8c-4.19-6.87-8.59-13.54-14.08-19.25,5.5-5.7,9.89-12.37,14.08-19.24,4.18,6.87,8.58,13.54,14.08,19.24C140.14,210.26,135.74,216.93,131.56,223.8Z"/><path id="path6263-5" class="cls-2" d="M24.18,230.5v-211H155.83v211ZM71.57,54.59C66.86,53.31,67,58,70.42,58.14c3.87.33,5.52-6.22,3.68-8.8C74.1,49.34,72.49,54.27,71.57,54.59ZM41,80.89,35.37,83.4l0,4.2A23.1,23.1,0,0,0,41,80.89ZM79.61,207.07c-1.11-.56-2.45-1.76-2.25-2s.71.08,1.26.33c4.41,1.85,7.84,1.73,13.11-.17.4-.15,1,.61.77,1-2.33,3.44-9.88,2.22-12.89.79Zm-2.33-5.16c-1-1.51.33-.36.79.07,3.26,3,7.69,4.05,11.5,1.2a.5.5,0,0,0,.14-.52c-.1-.28-.11,0-1.73.58-3.65,1.36-6.73.25-9.73-2-1.23-.94-1.8-1.41-1.8-1.66s.23-.37.64-.3a14.87,14.87,0,0,0,1.5.24,2.37,2.37,0,0,0,1.78-.4,9.6,9.6,0,0,1,5.93-.88,10,10,0,0,0,1.18.22c.47-.15-.23-.77-2-2.16-.34-.28-.78-.51-.92-.75s0-.47.27-.47c.73,0,4,2.73,5.12,4.35.34.49.58.54.58,1.05a2,2,0,0,0,.43,1.78,7.2,7.2,0,0,1,.81,1.43s-.08.32-.46.07c-.17,0-.25-.22-.57-.17a5.4,5.4,0,0,0-1.21.49c-4.59,2.93-8.81,1.5-12.25-2.13Zm10-.2a4.93,4.93,0,0,0-.78-2.17,2,2,0,0,0-3.14-.16,9.23,9.23,0,0,0-1,2.14,6.59,6.59,0,0,0,.94.21,2.52,2.52,0,0,1,.76-1.91,1.43,1.43,0,0,1,1.44,0c.59.29.85,1.47.85,1.93a2.18,2.18,0,0,0,.92,0Zm-5.55-2.43c-.64.29-1.48.48-1.68.91s.65.74,1.11.93c.65.31.66.2.87-.3.13-.31.31-.71.47-1.08C83,198.81,82.55,198.94,81.78,199.28Zm7,1.61c.37-.37.44-.61.11-1a2.64,2.64,0,0,0-1-.54c-.6-.2-.86-.44-.48.36l.53,1.16C88.17,201.39,88.41,201.24,88.78,200.89ZM27.62,161.51a24.6,24.6,0,0,0,3.28-1.09c.8-.3.89-.29.58-.73a1.92,1.92,0,0,1-.16-1.14l.06-.7a4.88,4.88,0,0,0-4.18,1.45c-.51.62-.46,2,.42,2.21ZM27.33,165c.43.42.54.44,1.81,0a5.21,5.21,0,0,1,2-.71c1.53-.4,1.53-.24,1.1-1.21a2.13,2.13,0,0,1-.2-1.24c.07-.49.13-.55-.15-.64-.73-.23-4.13,1-4.74,2A1.31,1.31,0,0,0,27.33,165Zm79.05,33.34c.07.78.08,2,.08,2.64,0,1.26.48,1.55,1,.86.54-1.65.75-4.25,2-5.57.95-.28,2.11.21,2.79-.45a1.85,1.85,0,0,0-1.09-3.32C108.29,192.41,106.18,195.94,106.38,198.3Zm7.12-4.05a2.43,2.43,0,0,1-3.14,2.33c-.66-.17-.85,0-1.3.92a34.1,34.1,0,0,0-1.6,6.85c-.11,1.52-.67,5.48-.26,6.74,4.65,5.72,9.54,11.68,14.9,17.56h32V191.3l-9.16-8.72,0-13.81c-9.91,4.65-19.8,9.36-29.69,14,2.16,6.88-5.15,8.33-6.76,3.72-1.38,1.26-2.52,8.09-2,8.43,0,0,.18.25.49-.3a5.63,5.63,0,0,1,1.87-2C110.91,191.4,113.36,192,113.5,194.25Zm-25.38-.69a2.13,2.13,0,0,1,.58-3.69,4.43,4.43,0,0,1,3,.16,4.32,4.32,0,0,0,2.8.29c.73-.08.59,1.43-.17,1.82-.53.28-1.76.15-3.25-.7-2.57-1.45-3.7.44-2.11,2.14.88.94-.63.19-.86,0Zm-53-22.62a1.43,1.43,0,0,0-.48-2.7,1.46,1.46,0,0,0-.93,2.69c0,.24-.61,0-.94-.2-.52-.38-.05-1.88-.53-1.94a30.35,30.35,0,0,0-4.31,1.51c-1.6.9-.1,2.94.83,2.71C30.7,172.53,33.33,172.09,35.13,170.94Zm-8-2.92c0,.91.29,1.32.89,1.32a25.17,25.17,0,0,0,3.59-1.19c.92-.29,1.29-.63.59-1.2a1.36,1.36,0,0,1-.29-1.24c.24-.75,0-.79-.27-.82a11.56,11.56,0,0,0-2.91,1c-1,.37-1.17.53-1.43,1.07a3.38,3.38,0,0,0-.17,1.08Zm10.4,11.74a7.64,7.64,0,0,0,.69-2.23c-.1-.66-.58-.8-1-.38s-.38,1.17-.69,1.71a1.09,1.09,0,0,0-.19.56.75.75,0,0,0,1.21.34Zm4.09-8.63c16-16.93,25.87-40.36,8.56-72.67-1.06-1-2.55,2.32-2.73,2.45l-2.21,1.91C57,122.93,55,146.07,40.62,162.51l0,1.05c0,2.29.69,2.2,1.67,1.12s.34-.2-.08.24-.94,1.15-1.1,1.35c.19,1.37,1.06,3.94.52,4.86ZM40.59,166a12.82,12.82,0,0,1-.43-2.3c-.06-.53-.08-1-.11-1.53a19.18,19.18,0,0,0-.92-3.87,3,3,0,0,0-2.26-1c-.85-.05-.92,0-1.1.24-.31.48-.1,2.87.22,3.74a3.68,3.68,0,0,1-.15,2.61c-.1.37-.13.39,0,.42.8-.06,1.06-1,1.38-.74a4,4,0,0,1-.55,1.71,4.77,4.77,0,0,0,0,3.47,1.94,1.94,0,0,1,0,1.55,9.49,9.49,0,0,0-.29,2.31,2.63,2.63,0,0,1,0,2.22,5.59,5.59,0,0,0-.58,3.29c.11.35.4.05.62-.56.33-1.19.72-1.45,1.71-1.45.71,0,.78.25,1-.07A14.36,14.36,0,0,0,41,172a8.82,8.82,0,0,0-.41-6Zm7.64,12a2.52,2.52,0,0,0,1.1-1.4c0-.34-2.68-2.94-3.8-3.65-.5-.33-.74-.1-1.64,1.1s-.89,1.07-.75,1.28A37.39,37.39,0,0,0,47,177.87a1.61,1.61,0,0,0,1.27.16Zm5-4.62c-.4-.3-3.61-3.84-4.56-4-.36-.07-1.52,1.24-1.52,1.54a25.7,25.7,0,0,0,3.42,3.46,2.71,2.71,0,0,0,1,.64C52,174.81,53.19,173.89,53.25,173.41Zm3.4-3.33c0-.21-.35-.64-1.21-1.49-2.2-2.15-3.43-3.13-3.81-3.13a3.53,3.53,0,0,0-1.23,1.86c.14.27,3.82,3.59,4.3,3.91.58.56,1.87-.75,1.95-1.15Zm3.45-3.43c.1-.32-.09-.59-.55-1s-1.51-1.46-2.61-2.54c-2.31-2.27-2.32-2.27-3.06-1.21s-.76,1.1,1.49,3.29c2.41,2.33,3,2.81,3.34,2.81A2.47,2.47,0,0,0,60.1,166.65ZM34.32,164.6a1.13,1.13,0,0,0-1.09.21c-1.7,1.44.72,3.29,1.71,2.13a1.37,1.37,0,0,0-.62-2.34Zm29.32-1.51c0-.24-.5-.78-2.21-2.41-4.26-4-4.07-3.89-4.54-3.64a3.2,3.2,0,0,0-.86,1.65c0,.3.41.72,3.56,3.65,1.85,1.72,2.39,2.15,2.71,2.15.51-.25,1.32-.79,1.34-1.4Zm-29.21.16a1.29,1.29,0,0,0,.52-2,1.3,1.3,0,0,0-2.19.89A1.24,1.24,0,0,0,34.43,163.25Zm32.71-3.55c0-.48-7.29-7.26-7.8-7.26s-.61.29-.94,1.06-.26,1.05.1,1.4c.53.5,1.93,1.79,3.27,3,.79.71,1.7,1.56,2,1.89a4.63,4.63,0,0,0,1.89,1.36,3.26,3.26,0,0,0,1.46-1.44Zm-33.09-.87a1,1,0,0,0-1.92-.31C31.92,160.17,34,160.24,34.05,158.83Zm5.39-52.73,1.43-4.34,4.35-.11.61-4.3,4.48-.65.07-4.45,4.28-.58-.26-4.76,4-.94-.2-4.41,3.61-1.1-.14-3.84.62-.49L60.7,74.55,59.35,75l0,4-3.61,1.15.38,4.37-3.64.82L52.41,90l-4.18.47-.3,4.19-4.09.8-.61,4.1-4,.27-1.21,3.61-2.62,0v2.41Zm47.35,77.51c-.14-.33.22-.28.84.11a4.88,4.88,0,0,0,2.27.75,15.74,15.74,0,0,0,2.23-.39,5.66,5.66,0,0,1,3.31-.19c.87.12,1.75.22,2,.21A2.57,2.57,0,0,0,99.23,183c.72-1.22.55,1,.55,1.25,0,1.14.16,2.44-.66,1.84a2.07,2.07,0,0,0-2,0,1.65,1.65,0,0,1-2,.07c-.65-.25-1-.31-1.48.15s-1.87.32-2.58.09c-1.22-.2-1.9-.38-2.71.26-.44.25-.55.07-.88-.89s-.58-2-.63-2.15Zm3.09-.8c-.07-.13.58-.76,1-1a8.29,8.29,0,0,1,5.71,0c1,.35,1.1.95.17.83-1.94-.41-4.37-.74-6.25.15a1,1,0,0,1-.65,0Zm1.65-3c-1.33-.49-2-1-2-1.18s.28-.14,1.33.14a6.93,6.93,0,0,0,4.5.31c1-.37,1.51-.6,1.51-.38a2,2,0,0,1-1.11,1.2A6.46,6.46,0,0,1,91.53,179.79Zm28.81-3.67,1-.13L121,171.9l3.63-1.07-.25-4.07,3.86-1.33-.23-4.57,4-.79.53-4,3.79-.27.79-4.36,4.07-.14.84-3.62,2.71,0v-2h-4.22l-.9,3.92-4,.12-.85,4.3-4.18,0-.54,4.65-3.93.64v5l-3.79,1,.3,4.27-3.79,1.38.43,4.08Zm25.33-96a1.69,1.69,0,0,0-.58,1.76,1.41,1.41,0,0,0,2.64,0,1.14,1.14,0,0,0-.7-1.26c-.09,0-.41,0-.57-.16s.62-.51,1.06-.36a1.71,1.71,0,0,1,1,1.53c0,.24-.06.6,0,.72a13.78,13.78,0,0,0,2.93-.79c1.64-.45,2.24-1.39,1.88-2.49-.31-.92-1.25-1.28-2.49-.82-1.7.64-3.7.94-5.19,1.92ZM75.37,180.56c5.57-3.89,8.86-6.12,16-6.51-2.55-1-3-2.41-3.68-3.73a36.43,36.43,0,0,0-17.79,6.28A15,15,0,0,1,75.37,180.56Zm31.08-5.4a28.82,28.82,0,0,0-9.26-3.94l-2.56,2.64a52.44,52.44,0,0,1,11.82,1.3Zm26-25C115,123.47,126.69,100,138.82,85.06c.39-.49.48-.52.39-.91a29.16,29.16,0,0,1-.17-4.6c-22.41,22.1-23,50.9-8.93,73.75,1-.89,3-2.08,2.3-3.16Zm2.62-2.28c-2.86-4.75-18.11-30.43,5.18-59.09a12.14,12.14,0,0,0-.26-2,3.06,3.06,0,0,0-.79-1.38c-9.79,14.61-24,32.89-6.25,64.64ZM121.69,99.51a3.38,3.38,0,0,0,.86-1.73c0-.38-.28-.7-2.9-3.35-3.51-3.53-4.11-4.07-4.56-4.07s-1.53,1-1.53,1.44c0,.19,1,1.29,3.47,3.71,4.51,4.48,4.3,4.3,4.66,4ZM124.92,93c0-.21-.32-.63-1.09-1.42a43.78,43.78,0,0,0-5.17-4.7A2.9,2.9,0,0,0,117.22,88c-.16.31-.16.38,0,.68.35.55,4.87,4.82,6.15,5.89.78.71,1.47-1.07,1.51-1.61Zm1.75-2.64a3.16,3.16,0,0,0,1-1.78,26.57,26.57,0,0,0-2.55-2.73c-2.69-2.66-2.85-2.76-3.52-2.16s-1,1.08-.91,1.3a68.93,68.93,0,0,0,5,5C126.24,90.52,126.31,90.54,126.67,90.36Zm20.56-.2A1.14,1.14,0,0,0,146,88.23a1.22,1.22,0,0,0-.57,1.27A1.31,1.31,0,0,0,147.23,90.16Zm2.51-.31c2.14-.56,3.17-.93,3.62-1.6.31-.46.35-.74,0-1.49s-.7-.91-2-.18c-.93.51-3,.75-3.7,1.17-.29.25-.14.24.09.39.51.33.77.55.71,1-.12.94,0,1.09,1.32.73Zm-2.27-3.34c1-.53.83-1.81-.33-2.32a1.34,1.34,0,0,0-1.27,2.33A2,2,0,0,0,147.47,86.51Zm3.46-.52c1.5-.52,2.08-.92,2.52-1.75a2.29,2.29,0,0,0,.15-1.58c-.07-1-.56-.85-2-.35-.68.27-4,1.18-4,1.52,1.59.9,1.18,1.37,1.2,2.52.08.26.82.07,2.1-.36Zm-20.52-1.53c0-.44-4.2-4.54-4.65-4.54-.69,0-1.69,1.08-1.54,1.67a49,49,0,0,0,4.5,4.51C129.41,86.5,130.37,85.11,130.41,84.46Zm2.42-2.56a4.64,4.64,0,0,0,.71-.81c.46-.66.42-1-.12-1.37-.2-.13-1.08-.92-2-1.76a16.29,16.29,0,0,0-1.85-1.63c-.72-.1-2,1.06-1.9,1.65a31.53,31.53,0,0,0,4,3.94C132.2,82.22,132.42,82.22,132.83,81.9Zm5.69-6.1a7,7,0,0,0-1.9-1.22c-3.58-1.94-3.64-2-4.76-1-.39.31-.7.66-.7.78a11.06,11.06,0,0,0,1.77,1.89c2,1.93,2.55,2.35,2.84,2.35C136.36,78.13,138.43,76.33,138.52,75.8Zm5-1.82a4.35,4.35,0,0,0,.7-2.72.86.86,0,0,0-1,.06,7.8,7.8,0,0,0-.86,2.81c.11.28.81.15,1.2-.15Zm-39.13,77.71a5.3,5.3,0,0,0,2-1.28c1-.88,4.3-2.84,4.65-3.63.16-.45,0-1.09-.29-1.14s-.32.16-2.49,1.72c-1.47,1-4,2.93-4.43,3.33A.8.8,0,0,0,104.41,151.69Zm-.3,12.56c2.23-1.54,4-3.14,7-4.93a1.14,1.14,0,0,0,.12-1.09c-.17-.45-.4-.27-1.28.34-2.15,1.44-4.36,3.14-6.22,4.39-.59.4-1.09.63-1,.85S103.81,164.2,104.11,164.25Zm2.17.95c1.47-1.2,3.23-2.34,4.8-3.5a1.26,1.26,0,0,0,.06-1.25c-.18-.24,0-.2-.47.05-.63.36-4.44,2.94-5.15,3.52-.41.34-.76.51-.65.63a3.52,3.52,0,0,0,1.41.55Zm1.85.93c.31-.2,2.92-1.87,3.13-2.09s.17-1.38-.06-1.47c-.66.52-4.15,2.63-4.16,3a2,2,0,0,0,1.09.58Zm2.8.23c.4-.36.48-.43.49-.84,0-.74-.17-.71-1.24,0-.74.48-1.19.81-1.06,1.1.53.82,1.28.17,1.81-.31Zm.29,1.52c.2-.08.21-.18.18-.44s-.08-.28-.4-.28C110.16,167.19,110.92,168,111.22,167.88ZM101,163.72a7.93,7.93,0,0,1,1.81-3.21c3.51-3.1,2.44-6.92.22-10,2.87-4,5.74-8.24,8.21-12.13V132l.33,0c-.11,13.79.52,36.4.52,36.4l2.86,2.16-.38.19c.47-.07-8.32-5.54-13.56-7.1Zm2.59-1.58c2.43-1.82,4.8-3.26,7.21-5.21.26-.21.41-.22.41-.69,0-.91-.16-.92-1.07-.28-.4.28-1.86,1.3-3.25,2.23a33.22,33.22,0,0,0-3.06,2.15c-1.36,1.57-1.86,2.31-1.72,2.53s.42,0,1.48-.73Zm2.65-4.42c1.25-.82,4.24-2.89,4.51-3.14.48-.45.56-1.15.13-1.24a30.15,30.15,0,0,0-4.48,3c-1,.72-1.16.88-1.16,1.56C105.27,158.29,105.52,158.21,106.27,157.72Zm1.25-3.22c3.83-2.71,3.73-2.48,3.65-3.49,0-.35-.11-.5-.26-.53a8.39,8.39,0,0,0-1.56,1c-.76.53-1.67,1.25-2.13,1.56-1.33.92-1.77,1.17-1.77,1.7s.14.85.37.85A12.52,12.52,0,0,0,107.52,154.5Zm-.55-2.1a44.9,44.9,0,0,0,4-3c.33-.41.27-1.29-.14-1.29-1.78,1.18-3.91,2.73-5.41,4-.19.17-.44.33-.52.56a.88.88,0,0,0,.5.68c.29,0,.74-.33,1.6-.93Zm-1.15-4.2c1.34-.91,2.57-2,3.91-2.91,1-.68,1.29-.89,1.23-1.75,0-.5-.47-.22-2.18.91a9.36,9.36,0,0,0-2.26,1.72c-.31.72-1.34,1.39-1.39,2.21,0,.3.2.16.69-.18Zm4.14-5.46c1-.69,1.13-.7,1-1.61-.14-1.13-.26-1.07-1.25.44-.65,1-.87,1.27-.77,1.46S109.31,143.16,110,142.74Zm-3.78-8.35c-.11-.51-.26-.4-.78.06-1,.83-1.11,1.44-.52,1.76.32.17.57.15.76-.26A4.68,4.68,0,0,0,106.18,134.39Zm-5.37,7.93A2.6,2.6,0,0,0,99.69,141c-.43-.22-.69-.18-1.09.34s-.21.76.36,1.47c.41.52.58.68.91.68.39-.15,1-.68.94-1.18ZM80,162.21c-.28-.53-.86-1.08-1.12-1a1,1,0,0,0-.57.76,1.1,1.1,0,0,0,.9.87C79.86,162.76,80.25,162.65,80,162.21Zm2.53-.8a15,15,0,0,0-1.81-1.84,1.62,1.62,0,0,0-.93,1,4.24,4.24,0,0,0,1.31,1.82C82,162.28,83.47,162.37,82.55,161.41Zm3.13.16A25.24,25.24,0,0,0,82.31,158c-.29,0-.87.64-.87.94a10.64,10.64,0,0,0,1.92,2.49c.45.47.49.54,1.06.45s1.4,0,1.26-.34Zm5.45-.73c0-.66-.35-1-1.74-2.52-.5-.54-1.36-1.48-1.89-2.09-1-1.19-1.49-1.55-1.91-1.55a1.11,1.11,0,0,0-.82.86,61.22,61.22,0,0,0,4.88,5.62c.51.55.74.72,1.24.45.28-.19.24-.52.24-.77Zm-4-7.83c-.52.43-.72.6-.72.89s4.42,5.26,4.81,5.26.2,0,.34-.55c.27-1.57-.16-2-1.31-3.08-.77-.7-2.31-3.1-3.12-2.52Zm7.8-3.23c-1.24-1.47-1.92-2.15-2.17-2.15a1.25,1.25,0,0,0-.71.47c-.46.44-.41.42-.12.94a6.84,6.84,0,0,0,.94,1.17c.68.7,1,.92,1.36.59S95.22,150.15,94.92,149.78Zm-.65-3.67a1.14,1.14,0,0,0-.8.83,7.57,7.57,0,0,0,1.7,2.12c.56.51.83.64,1.22.31a1,1,0,0,0,0-1.14c-.5-.56-1.59-2.09-2.16-2.12Zm3.47.36a5.58,5.58,0,0,0-1.67-2.22c-.33,0-1,.77-1,1.12a2.73,2.73,0,0,0,.73,1.15c.9,1,1.13,1.27,1.33,1.11A1.7,1.7,0,0,0,97.74,146.47Zm1.43-1.84c.08-.36-.14-.72-.65-1.36s-.94-.84-1.53-.23a1,1,0,0,0-.32.54,5.69,5.69,0,0,0,1.56,2c.57-.07.75-.48.94-.92Zm-2.33,4.15a1.48,1.48,0,0,1-.87,1.14c-4,2.9-3.91,7.62-4.77,12-6.54-.06-16.89,2.61-16.82,2.75l34.76-34.9s.43.11.17.42c-2.81,2-2.64,5.92-4.49,7.88-3.09,3.72-6,6.94-8,10.74ZM78,163c.06-.39-.31-.5-.63-.18s-.18.55.26.5C77.83,163.32,77.94,163.23,78,163Zm10.71-1.47c.13-.33-.17-.64-2-2.7s-2.31-2.57-2.64-2.57a1.65,1.65,0,0,0-1,1,2.83,2.83,0,0,0,.66.93l1.53,1.69a11.29,11.29,0,0,0,1.53,1.61,1.56,1.56,0,0,0,1,.2C88.48,161.69,88.63,161.71,88.68,161.56ZM91.91,155a7.42,7.42,0,0,0,.31-.93,17.63,17.63,0,0,0-2.78-3c-.49-.31-1.39.7-1.17,1.29a15.79,15.79,0,0,0,1.58,1.85c1,1.08,1.53,1.58,1.7,1.56S91.74,155.55,91.91,155Zm1-2.54a1.74,1.74,0,0,0,.32-.75,4.35,4.35,0,0,0-1-1.3c-1.06-1.18-1.33-1.32-1.92-.77s-.38.81.64,2c1.27,1.44,1.42,1.61,1.93.86ZM102,141.13c.39-.46.4-.7,0-1.12l-.5-.59c-.33-.39-.76-.33-1.2.18a1.4,1.4,0,0,0-.36.56,2.49,2.49,0,0,0,.51.74c.63.73,1,.81,1.51.23Zm1.39-1.79c.27-.4.15-.85-.35-1.31s-.72-.45-1-.08-.38.66.1,1.19S103.08,139.83,103.4,139.34Zm1.12-1.48a.72.72,0,0,0,0-1.11c-.31-.4-.64-.5-1-.33-.58.31-.52.83,0,1.42C104,138.2,104.14,138.24,104.52,137.86Zm-26.6,74.43c7.12.79,14.77,1.35,28.25-.74l.07-4.55c-4.21,3.26-9.73,1-10-2.73a38.87,38.87,0,0,1,1.61-10c.57-2.05.73-2.84.2-3.24-1.16-.65-3.23-.73-3.75-2.09-.26-.72-.28-1.49.09-.94a7,7,0,0,0,2.56,1.11c1.82.4,2.12.54,2.33,1.28a9.83,9.83,0,0,1-.66,3.57,20.09,20.09,0,0,0-.74,3.06c0,.36.28.41.59.32a13.66,13.66,0,0,0,1.18-1c1.76-1.55,2.27-1.51.77,0a20.18,20.18,0,0,0-1.42,1.5c0,.33.3.29,1,.05a7.71,7.71,0,0,1,4.55.21c1.34.67,1.4.64,1.37-1.4a46.68,46.68,0,0,0-2.11-11.83c-1.91-5.36-5.86-10.34-11.69-10.12-7.12.37-11.41,3.19-16.25,6.57,2.92,6.45-1.3,11.4-2.83,12-.15.06,1.91,6.56,2.79,9.86.8,3,2.15,9,2.15,9ZM108.21,56.64C108,56.21,104.08,43.38,103,38c-10.7-.61-18.62-1.5-28,1.16,0,0-.2,3.62-.1,3.79.09.45.42.44.68.29,4.36-2.38,9.07-1.3,9.4,4.56.12,2.24-.63,3.82-.77,5.95-.12,1.85-1.59,4.33-.7,5.74a5.44,5.44,0,0,0,1.6.88c1.6.68,2.22,1.3,2.34,2.34.17.72-.27,1.2-.4.47-.09-.47-.17-.88-2.14-1.56s-2.44-1.41-2.63-1.81a2.21,2.21,0,0,1,0-1.82,20.43,20.43,0,0,0,1-4.68c0-.33-.38-.17-.84.22a25,25,0,0,1-3.16,2.07,5.1,5.1,0,0,1,1.11-1.36,13.46,13.46,0,0,0,1.91-2c0-.32-.12-.1-1,.15a6.78,6.78,0,0,1-4.21-.16c-1-.41-1.61-.65-1.75-.42-.35,5.71.5,11.6,2.91,16.2,2.16,4.17,6.65,9.4,13.4,8.23,7-1.21,13.75-6.79,13.51-6.8-2.6-5.86.36-10.23,3-12.84Zm-55.27,156c-3.09-3.08-10.87-6.43-16.23-8-.42-.09-.85-.3-.85.21l-.06,10.56-9.63,8.92v4.25H46.69L60.16,209s.65-.11.73-.23a93.15,93.15,0,0,0-8.57-23,4.52,4.52,0,0,1-6.42-.61c-1.7-1.89-.66-5.22,1-6.44a24.39,24.39,0,0,0-6-3.31c-.38-.1-.95.68-1.14,1.38-.34,1.13-.9,2.15-1.28,3.29-.41,1-.81,1.11-1.43.84-1-.29-1.21-.39-1.21-.39l0,12.42a26.22,26.22,0,0,1,17.14,19.67ZM83.63,79.94l2.19-2.36a62,62,0,0,1-11.34-2.36A37.23,37.23,0,0,0,83.63,79.94Zm-12-6.65c3.86,1.28,8.74,4.27,14.83,3.14-5.55-2.19-9.77-7.31-11.57-17.74-.39,2-1.21,6.23-2.49,6.69-1.79-6.92-9-2.9-6.12,2.75-7.33,5-16.14,7.83-24.13,11.69,0,0-1.2,3.68-7.18,8.71-1.13-5.9.21-14.65-.49-20.58l-9.38-8.81a31.72,31.72,0,0,1,0,4.68,3,3,0,0,0,1,.74c.6,34-.21,67.56-.2,98.41-.1,18.92.41,38.62.13,56.47l-.35.65v4.27l9.58-9.08a79.6,79.6,0,0,1,.06-11.36c6,1.21,11.68,4,16.73,7.14.64.18-3.1-12.37-16.69-17.93,0,0,0-3.92,0-12.43,0-8.22-.13-9.09-.31-9.22-.55.59-7.51,2.93-7.86,2.53.18.06-2-14.54-.11-16.75l6.66.13c1.9,1.53,1.14-.33,2.24-.63.66-.18,3.74,1,3.74,1,12.69-14.9,11.42-39.4,2.32-53.18-2.34,1.88-4.81,4.43-7.15,5.53,0-.08-.05-7.6-.05-7.6C46.91,94.78,60.1,72.36,59.26,72.28A60,60,0,0,1,64.47,78l-12,17.24c2.74,5.49,5.52,10.47,7.31,15.29.25.66,1,.64,1.19,1.33s-.56,1.4-.46,2c2.52,9.61,3.09,19.8.6,29-.52,2.07.44,3.76,1.73,5.32.1.14-1.2-1.12-1.32-1.19-.45-.27-1.19.67-1.35,1.85.1.73.5.86,1,1.45.93.76,4.59,4.35,6.21,6,1.43,1.46,1.81,1.53,2.77.49.28-.25.56-.59.82-.81,0,.08.41-.29.53-.41l21.61-21c2.51-2.44-21.58,22-21.58,22S59.9,168.06,57,170.88s-3.36,3.54-3.48,3.75c-.21.39,1,.38,1.49.3a4.78,4.78,0,0,1-.94.11c-3-.41-4.08,2.67-6,3.34-5.07,3.58-1.66,9.34,3.19,7.44l1.18-.57a108,108,0,0,1,9.16,23.92l-.8.37L48.06,228.61h72.48c-5.21-5.15-9.64-11.49-14.15-16.23-7.22,2.16-29.08,1.72-28.73.78,0,0-3.31-13.33-5.19-19.88,6-5.06,5.34-13.05-3.29-16.63a32.42,32.42,0,0,1,18.76-7c2,5.06,6.71,5.38,8.92.75,0-.06,8.34,2.54,11.4,5.35-4.54-.47-9-1.37-13.58-1.58a16.71,16.71,0,0,1,9.39,10.38c.63,1.68,1.61,7.22,1.87,7.24,0,0,1.52-6.4,2.7-6.05,3,6.24,8.17,1.55,6-3.42,7.65-3.63,16.25-7.68,23.28-11.05,2.06-3.08,7.1-8.93,7.43-8.95,0,0,9.29-52.92,9.29-70.61-.31-21.26.37-44.93-.55-64.83V21.21H134.52l-14,20.44a2.37,2.37,0,0,0-.1.46A97.36,97.36,0,0,0,128.63,65c5.3-4,9.77,2.58,5.79,6.39-.74.72-.54.9.2,1.4s5.78,3,6,3c.91-1.35,1.18-3.34,1.79-4.85.16-.58.6-.65,1.47-.55,1.13.13,1.13.6,1.09-6.54l0-6.14c-6.81-3.12-15.82-11-16.24-19.29,3.94,2.85,13,7,15.39,7.36,1.06.29.9-1.54.93-2.28.29.19.39,3,.39,3-4-1.2-6.08-1-16-6.7,1.71,8.11,9.87,14.5,15.79,17.42,0,0,.25,3.85.23,8.17,0,13.15.1,13.73.1,13.73a37.18,37.18,0,0,0,4.16-1.27c1.61-1.29,4.2-.3,4.56.65.52,5,0,9.57-.09,14.31-2.76.2-4.27.77-5.63.83-.89-.12-1.42-.12-1.88-.62-1.31-2.84-1.23-1-1.39,1.09-.12.63-3.42-.47-3.75-.66-14.24,16.31-13,35.09-3.35,52.49a59.24,59.24,0,0,1,7.1-4.47c.06,2.21.1,6.77.1,6.77-11.15,8.14-24.5,29.7-24,29.76l-4.53-5.38s2.85-4.51,3.86-5.7a7.85,7.85,0,0,0,.19-1.54l6.92-10c-2.95-6.64-7-11.75-8-18.24-4.62-20.76.38-31.09,0-31.88a1.38,1.38,0,0,0-.15-.49c-.16-.13,0-.25.21-.54.32-.58.85-1.76.67-2.11s-3.88-4-7.09-7c-1.69-1.61-1.62-1.8-2.49-.92-.33.33-1.12,1.26-1.12,1.26-11.6,10.68-20.81,20.4-32.45,31.77l-.56-.5c16.94-16.75,34-33.33,50.8-50.24l-3,0a.71.71,0,0,1,.38-.47A9.36,9.36,0,0,0,129.31,75c2.39-1.77,5.83-4.14,6.09-6.47-.17-4.49-4-5.14-6.72-2.94a83.58,83.58,0,0,1-8.46-22.71c-.08-.38-.62-1-.7-1.47.82-2.54,13.79-20.13,13.79-20.13H60.48L74.34,37.71c0-.66,19.75-3,28.8-.24l5.51,19.47c-5,4.82-6.48,12.74,2.72,16.86.18.39-.87,1-.87,1,.15-.24.4-.48.3-.7a20.4,20.4,0,0,1-5.14-3.81c-5.54,4.3-10.72,6.7-15.79,6.91,0,0,2.68,1.81,3.2,3.79,0,0-.25,0-.32-.11-.55-.67-1.81-2.83-2.87-3.46a4.67,4.67,0,0,0-4.3.86l-1.93,1.85c-4.42-1.34-9.34-3.53-12.05-6.86ZM70.87,121l2-2a10.11,10.11,0,0,1,2.34-5.38c1.89-2.27,4-4.39,5.52-6.4,1.85-2.42,2.86-4.61,2.37-5.62,2.76-.5,5.29-2.92,5.37-7.31a18,18,0,0,1,1.24-5.63S109,88,122.22,75.42c0,0,.93.2.71.37a46,46,0,0,1-16.66,11L71.48,121.4Zm3.85-4c.52-.52.64-.69.34-.93-.45-.37-1.31.4-1.31,1.16,0,.49.39.35,1-.23Zm1.8-1.76c.41-.39.4-.68.06-1s-1.16-.18-1.39.57.68,1.07,1.33.45Zm1.59-1.6a1.81,1.81,0,0,0,.38-.55c0-.26-.66-.87-.95-.87a1.4,1.4,0,0,0-1,1c0,.29.66.89,1,.89A1.24,1.24,0,0,0,78.11,113.63Zm1.49-3c-.47-.39-.79-.4-1.18,0s-.4.95.14,1.42.59.39,1.14.05S80.25,111.2,79.6,110.66Zm1.75-.26c.52-.43.44-.78-.12-1.34s-1-.59-1.45,0a1.09,1.09,0,0,0-.19.53,2.7,2.7,0,0,0,1.22,1.09A1.06,1.06,0,0,0,81.35,110.4ZM83,108.74c.44-.45.38-.77-.24-1.41s-.89-.58-1.36-.15-.38.9.16,1.44S82.56,109.25,83,108.74ZM85,106.82c.32-.34.23-.31,0-.68a4.39,4.39,0,0,0-1.66-1.49c-.37,0-.69.58-.69,1.15s.29.8,1,1.37c.49.38.34.41.71.2a2.52,2.52,0,0,0,.62-.55Zm1.52-1.38c.68-.78.55-.93-1.1-2.66-.56-.59-.68-.65-1.08-.62s-.4.13-.6.53c-.36.73-.09,1.1,1,2.2S85.86,106.12,86.47,105.44Zm1.69-1.81a1.16,1.16,0,0,0,.44-.67,6.73,6.73,0,0,0-1.81-2c-.34-.19-.7-.08-1.13.29-.27.23-.26.28-.2.53a7.59,7.59,0,0,0,2.11,2.21A1.11,1.11,0,0,0,88.16,103.63ZM89.84,102a1.8,1.8,0,0,0,.51-.79A7,7,0,0,0,88.46,99c-.38-.2-.6-.11-1,.41s-.27.88.59,1.86,1.07,1.21,1.22,1.21A2.45,2.45,0,0,0,89.84,102Zm1.59-1.7c.36-.22.84-.68.64-1.06a29.83,29.83,0,0,0-3-3.2c-.53-.28-.51.13-.51,1.45v.68l1.16,1.13c1.69,1.65,1.31,1.25,1.71,1Zm2-1.87a1.47,1.47,0,0,0,.39-.66c-1.05-1.27-4.1-5.29-4.65-5.14-.06,0-.08,0-.12.13a5,5,0,0,0-.1,1.91c1,.92,3.23,3.91,3.75,4.1.3.12.44-.06.73-.34Zm1.64-1.71a1.19,1.19,0,0,0,.35-.55,3.62,3.62,0,0,0-.7-1c-.36-.42-1.07-1.28-1.57-1.9-2.87-3.56-3.08-3.83-3.52-3.47a1.56,1.56,0,0,0-.21,1.39,49.43,49.43,0,0,0,4.39,5.28C94.51,97.13,94.63,97.19,95.12,96.73Zm1.65-1.58a1.37,1.37,0,0,0,.44-.68,5.58,5.58,0,0,0-.94-1.28c-.49-.57-1.3-1.54-1.8-2.15-1.29-1.58-1.3-1.64-2.26-1.73-1.46-.15-1.26.17.39,2.08.4.47,1.15,1.38,1.68,2,1.22,1.53,1.76,2.1,2,2.1s.24-.15.49-.38Zm1.68-1.64c.75-.62.6-.83-1.83-3.32-.79-.82-.85-1-1.47-1s-.82.13-.82.43a39.36,39.36,0,0,0,3.39,4c.31.13.35.15.73-.17Zm1.77-1.8a1.3,1.3,0,0,0,.36-.61,4.51,4.51,0,0,0-1.33-1.7,1.93,1.93,0,0,0-.92-.53,2.11,2.11,0,0,0-1.24.42,9.13,9.13,0,0,0,1.78,2.25c.61.65.85.7,1.35.17Zm1.55-1.54c.4-.38.39-.74,0-1.26s-.38-.42-1-.42c-1.13,0-1.16.29-.29,1.22C101.15,90.4,101.33,90.62,101.77,90.17Zm1.67-1.62c.44-.56.06-.86-.66-.54a.72.72,0,0,0-.3.37C102.26,89,103,89.08,103.44,88.55ZM75.67,93.24c-1.61,1-4.31,2.93-6.14,4.21a5.36,5.36,0,0,0,0,1.51c1-.7,4.38-2.83,5.9-4,.07-.45.19-1.24.24-1.7Zm2.94-4.63c0-.27-.23-.1-.71.3S72,93.32,70.6,94.3a6,6,0,0,0-1.09.82,2.83,2.83,0,0,0,.09,1.45c1.15-.87,6.58-4.49,6.66-4.62.56-.89,1.81-2.44,2.35-3.34ZM78,100.34s-6.48,7.75-8.56,11.61c0,0,0,4.41-.08,7L69,119s0-6.81-.12-14.21c-.22-18.47-.4-23-.4-23L66.4,80.3l-.09-.73s9.33,6.5,13.89,7.54C76.87,92.3,73.79,94.3,78,100.34Zm-7.69,9.27c.13-.32,0-.3-.23-.29a.37.37,0,0,0-.31.39c0,.22,0,.28.19.24A.61.61,0,0,0,70.32,109.61Zm1.56-2.3c.93-1.14,1.7-1.88,1.84-2.72a18.68,18.68,0,0,0-4.09,2.75c0,1.27-.26,1.42.79.86.46-.25.84-.56,1.46-.89Zm.29-2.83c1-.83,4.66-2.78,5.08-3.75a.69.69,0,0,0-.45-.81c.07,0-5.23,3.21-7.16,4.87a.94.94,0,0,0,0,.88c.21.55.63.1,2.54-1.19ZM71,103c1.09-.73,3.66-2.5,4.3-2.94,1.09-.75,1.31-1,.92-1.57a.53.53,0,0,0-.73-.19c-3.16,2.18-3.43,2.55-5.82,4.08a1.37,1.37,0,0,0,.13,1.3c.18,0,.48-.21,1.2-.68Zm0-2.36a52.76,52.76,0,0,0,4.53-3.34c.11-.26.15-1.24,0-1.34-1.07.8-3.93,2.55-5.88,4.12,0,.33-.11,1,0,1.21.39.16.51,0,1.34-.65Zm-.34-7.47c2.09-1.54,4-2.88,6.2-4.33,1.85-1.22,2.16-1.49,1.45-1.86a1.64,1.64,0,0,0-1-.21c-2.45,2-5.18,3.85-7.77,5.76a8.19,8.19,0,0,0,0,1.1c0,.39.49.06,1.19-.46Zm-.28-2.2c.17-.15,1.26-.87,2.43-1.71,3.13-2.26,3.5-2.47,3.5-2.71,0-.66-.91-.8-1.73-.13C73,87.6,69.41,89.83,69.4,90.14c0,.47-.09.93,0,1.13s.42,0,.86-.34Zm.9-3.05c3.18-2.21,3.06-2.11,3.06-2.51s-.31-.19-.8-.22-.47.09-1.34.75c-1.86,1.4-2.54,1.78-2.74,2.19a1.16,1.16,0,0,0,0,.76C69.64,89.07,69.9,88.8,71.22,87.88Zm.21-2.2a10.11,10.11,0,0,0,1.16-1c.09-.24-.38-.66-.73-.66s-.68.2-1.64,1-1,.57-.94,1a4,4,0,0,0,.12.85C69.6,87.1,70,86.83,71.43,85.68Zm-1.29-1.43c.67-.56.81-.68.32-1.16s-1-.56-1.23-.28a6.48,6.48,0,0,0,0,1.59c0,.38.47.24.93-.15ZM84.56,72.09a3.74,3.74,0,0,1,2-1.28,5.75,5.75,0,0,1,3.51.36c.85.43,1.77,1.44.4.82a8.23,8.23,0,0,0-4.9-.11c-.72.36-1.06.46-1.06.21Zm-.87-4.27a8.67,8.67,0,0,1,1.9.38,8.65,8.65,0,0,0,5-.33c.43-.12.64.17.38.39a6.88,6.88,0,0,1-3.14,1.09c-2.27.21-4.71-.94-4.1-1.53ZM72.58,64.5c1-.47,2.15-7.07,1.77-8.2-1.19,1.79-2.51,2.6-4.4,2.29-3.1-.51-3.21-4.3-.82-4.68,1-.15,2.12.47,2.31.33,1-.48,1.82-3.89,2.07-5s.45-4.07.49-5c.09-2,0-5,0-5L59,21.21H26.18s-.08,25,0,37.88L35.29,68l.12,14.41C45.84,77.89,55.94,73.13,65.82,68c-1.14-1.36-1.11-4.79,1-6.09a3.68,3.68,0,0,1,5.78,2.61Zm8.27,3c.07-.81.67-1.48.72-2.3,0-.19.15-.4.64-.14.64.34.83.1,1.56-.23a2.57,2.57,0,0,1,2.64-.18,1.19,1.19,0,0,0,1.43,0,2.81,2.81,0,0,1,2.42-.47c1.07.38,1.45.58,2.06.29.31-.15.7-.71.77-.67.44.65.35,1.68.63,2.26.5,1,.31,1.69-.28,1.2-1.24-1-2.2-1-4-.6a6.13,6.13,0,0,1-2.71.32c-3.57-.42-3.81-.31-4.54.17s-1.25.51-1.36.32Zm9.58-6.43c-1-.26-2.21-1.19-3.07-.94a1.21,1.21,0,0,1-1.11-1.84c.93-.89,2.36,0,2.92.43,1.21.91,1.38,1,1.87,1,2,0,1.62-1.9.65-2.58-.58-.6-.63-1-.51-1.14s.77,0,1.4.62c1.2,1.12,1.23,3.36-.25,4A2.37,2.37,0,0,1,90.43,61.12Zm4.18-6.47a23.84,23.84,0,0,1-3-2.72,2.88,2.88,0,0,1-.93-2.22c.07-.57.16-.91-.21-1.1a1.82,1.82,0,0,1-.69-1.51c0-.12.46-.05.73.28.33.06.26-.14.63-.38,3.82-2.55,6.88-2.06,10.5-.31,1,.5,3.79,2.57,2.32,1.9-.09,0-1.05-.45-2-.94-3.14-1.49-6.64-2.4-9.48-.48-.49.34-.79.61-.41.61,1.6-.31,3.19-1,4.83-.87,2.45,0,3.93,1.23,5.77,2.06,2,.89,2.38,1.19,1.66,1.93-.21.22-.37.22-1.34.14s-1.12,0-1.7.32A8.82,8.82,0,0,1,96,52.72c-2.08-.17-2.3-.34-2.34,0s.42.52,1,1.08a13,13,0,0,1,1.15,1.15C96,55.21,95.18,55.06,94.61,54.65ZM94,51.34a4.63,4.63,0,0,0-.73-1.58c-.27-.26-.47-.16-1,.23s-.47.53-.08.87C93,51.58,94,51.77,94,51.34Zm3.13.15c.84-.4,1.69-1.83,1.3-2.3-.23-.27-.43,0-.87.76a3.59,3.59,0,0,1-.73.95c-.68.48-1.59,0-2-1-.23-.63-.47-1-.73-.8-.49.44.06,2,1,2.42A2.61,2.61,0,0,0,97.16,51.49Zm2.61-.23c.85-.27,1.25-.65,1.18-1s-.67-.66-1.09-.66c-.18,0-.55,0-.68.16a8.16,8.16,0,0,0-.77,1.68c.1.25.39.13,1.36-.16ZM102.71,45c-4.25-1.61-7.59-2.26-11.63-.55-1.29.56-2,.62-2.09.16s.87-1.52,1.88-2a10.75,10.75,0,0,1,9-.05,22.93,22.93,0,0,1,4,2.8C103.93,45.48,103.66,45.32,102.71,45Zm49.63,47.28c1-.53,1.47-1.58.85-2.19a.85.85,0,0,0-.64-.18,20.49,20.49,0,0,0-3.52,1c-.34.18-.22.49.1.78a1.12,1.12,0,0,1,.28.73c0,.4,0,.76.22.7a11.69,11.69,0,0,0,2.71-.82Zm-3.77,1a1.22,1.22,0,0,0-.59-1.67c-.4-.2-.71-.1-1,.35C146.2,93.24,148.07,93.82,148.57,93.19Zm-3.79.64c.16-1.74.09-6.89.09-6.89a3.76,3.76,0,0,1-1.54.82,10.56,10.56,0,0,1,.79-1.76,11.81,11.81,0,0,0,.25-3c-.06-.86-.67-.88,0-2.44a3.21,3.21,0,0,0,0-2.61,1.15,1.15,0,0,1,.23-1.38c.44-.57.27-.86.26-2,0-1.66,0-1.92-.51-.59-.75,1.1-1.09.89-2.24.76-1.1,2.47-2.4,5-2.45,7.18,0,1.34-.05,1.54.79,4.35a7.51,7.51,0,0,1,.44,2.65,7.13,7.13,0,0,0,.29,2.3C141.42,92.39,142.76,94.35,144.78,93.83Zm-38.5,111v-2.48s-4,1.23-6,.47c-2.09-.56-2.08-.66-2-.44.07.41,1.62,1.22,3.05,1.55a10.31,10.31,0,0,0,4-.29c.56-.17.62,0,.39.16-2.44,1.9-5.55,1-7.5-.55-1-1-1.73-1-1.17.34,2.67,5.4,9.32,2.21,9.25,1.24Zm-2.69-3.68h.91a5.37,5.37,0,0,0-.75-2,2.17,2.17,0,0,0-3.19.13,6,6,0,0,0-.69,1.91l.73,0c.27-.7,1.42-4,3,0ZM100,198.77a3.92,3.92,0,0,0-2.2.73c-.2.22-.21.25,0,.57.53.69,1.33,1,1.39.76A8.23,8.23,0,0,0,100,198.77Zm6,1.75a1.65,1.65,0,0,0-1-1.6c-.31-.08-.62-.14-.53.2a10.17,10.17,0,0,0,.52,1.41c.14.32.24.47.54.35S105.87,200.73,106,200.52Zm38.93-32.9v-4.2a55.28,55.28,0,0,0-5.76,7.11ZM79.73,51.79c.9-.39,1.57-1.56,1.34-2.16-.15-.37-.52-.07-.9.48-.61.87-.77,1-1.3,1s-.8-.15-1.19-.91-.46-.84-.71-.52c-.12.14-.11.34,0,.87A1.82,1.82,0,0,0,79.73,51.79Zm2.46-.44c1-.34,1.21-.45,1.16-.78s-.85-.81-1.3-.73a4.43,4.43,0,0,0-1.12,1.77C81,51.8,81.38,51.63,82.19,51.35Zm-5.78-.58a1.8,1.8,0,0,0-.16-.71.58.58,0,0,0-1,.38c0,.37.53.79,1,.79S76.47,51.3,76.41,50.77Zm5.66-2.51c1.43.53,2.15.59,1.38-.13-1.07-1.18-6-2.52-8.58-.6-.19.26-.15,1.28.06,1.22a7.89,7.89,0,0,1,7.15-.49ZM77.19,44.2c-1.19.4-2.32,1-2.46,1.6-.24.94.18,1,1.75.46a7.61,7.61,0,0,1,6,.62c1.3.95,1.69.64,1.47-.16-.73-2.63-4.81-3.1-6.76-2.52Z"/><path id="path6265-7" class="cls-3" d="M154.1,27.32,145.29,36l.12,10.28c.89,1.62-13.6-4.61-15.88-6.49.26,6.87,9.68,14.7,15.81,17.56l.17,22a23.89,23.89,0,0,1,7.88-2.27C154.59,62.12,155.62,42.67,154.1,27.32Zm-49,10.76c-.86,0-1.37.25-1.36.8-.26,0,3.26,12.84,4.86,18.21-3.12,3.13-6.37,8.57-1.72,13.61a22.58,22.58,0,0,0,4.54,3c.77.74-9.45,7.31-18.56,7.31-2.92-6.37-7-2.85-9.24-.63-1.76-.15-8.31-4-11.67-6.26a6.92,6.92,0,0,1,0-1.13c.24,1.52,13.14,4.8,13.72,3.28-.37,0-5.79-3.65-7.34-7.25a69.37,69.37,0,0,1-3.58-9.62c-.72,2.06-.47,4.91-2.46,5.93-.6-6.7-10.22-3.28-5.43,3.28-2.69.78-5,2.17-7.61,3.32A44.76,44.76,0,0,0,80.17,87.16c-1,2.23-7.24,7.23-2.15,13.12.22.18-4.86,5.7-7.36,10-1.89,3.25-1.32,5.74-1.1,5.83a104,104,0,0,0,10.76-14.51c-.06.91,8.18.42,8-7a21.2,21.2,0,0,1,1.32-6c12.57.59,23.38-3.87,32.51-13.23,0,0,1.86.53,3,.71A9.15,9.15,0,0,0,131.79,73c1.37-1.1,2.74-2.16,3.22-3.3,1.8-7.68-6.1-4.68-6.47-4.27C124,59.29,120.21,42,119.6,41.81c-2.52-.5-11.14-3.78-14.51-3.73Zm-31,11.78c-.33,0-1.54,5.39-2.61,5.35-4.54-2.91-4.64,3.11-.74,2.84,3.3-.23,5.14-5.52,3.37-8.18ZM25.63,60.07c.15,32.64.74,65.26,1.51,97.88,3-.73,5.12-1.29,8,0,.27-9.28-.54-32.68-.35-55.34C45.89,94,53.67,84.56,59.14,72.2L42.22,80.09S36.69,88,34.93,88.48c-.25-1.13-.54-14.47-.31-20.19ZM63.21,80.26,59.89,85s.08,16.44.27,24.35c.14,1.58,1.57,3,.42,4.44.71,0,3.78,21.32.86,30-.53,1.55,0,2.64.78,3,4.17,4.59,6.46,9,12,6.39,6-5.46,14.51-15,14.51-15L66.17,117C64.24,111.85,63.21,80.26,63.21,80.26Zm82.06,68.53c-10.23,9.09-19.57,18.42-23.4,29.75,5.47-2.18,10.67-4.85,16-7.31,2.57-3.08,4.55-6.06,7.5-9,0,0,.32,13.37.06,20.08,2.66,2,9,8.12,9,8.12s1.74-95-2-97.41c-3.66.71-5.49,2-6.85-2.18-1,19.34-.26,57.94-.26,57.94Zm-35.4-53.47c-3.94,3.2-17.46,16.4-17.43,16.53,3.59,6,17.75,18,24.53,24.67l1,34.13c1-1.34,1.72-2.6,2.81-3.93,0,0-.18-17.28-.6-25.39-.13-2.39-.68-4.28-.5-4.5-1.91-9.83-2.71-20.69,0-31.24-6.42-5.49-8.45-9.14-9.81-10.27Zm1,39,0,0c-3.32,4.7-9.67,14.91-10.12,14.89-.14-.31-6.56,0-7.78,4-1,3-1.1,5.75-1.84,8.84-12.89-.42-22.32,3.63-32.26,12.74-4.87,0-8.49,1.09-10.18,3.14-2.52,1.81-3.2,3.37-3.08,5.27.23,3.44,6.34,3.93,6.65,1.5.31,0,6,12.89,6.54,15.09,1.33,3.55,2.77,10.19,2.94,10.2,2.28.15,15.1,3.73,15.14,2.43,1.21-.52-4.45-19-4.45-19,9.9-8.27-1-17.1-3.58-16.78a36.36,36.36,0,0,1,19.24-7c1.1,3.95,6.22,6,8.8.73,0,0,11.09,4,11,5.26-4.57-.68-8.32-1-12.9-1.48,8.76,4.73,9,11,10.82,17.18.25-1.1,2.56-5.9,2.56-5.9,3,6.55,8.62,2,6.29-3.29l7-3.24c.81-.41-10.51-13.08-20.81-14.88.52-.94.73-1.83,1.26-2.6,2.58-2.52,4.59-6.21.64-10.62,2.6-3.63,8.64-12.37,8.26-12.53,0,0,.12-4.08-.19-4Zm-84.66,40.3c-.1,0-.28,30.32-.07,45.37a28.61,28.61,0,0,0-.42,4l9.38-8.77.28-11.32c2.45-.59,17.71,7.12,16.49,7.08,1.16-.49-7.05-15.91-16.62-17.62-.18-8.74-.27-18.63-.52-21.29A70.17,70.17,0,0,0,26.26,174.61Zm83.24,18.24c-2.62.78-3.72,6.27-2.87,8.93.16.49.06.6.48.12,1-1.5.7-4.47,2.5-6C114.39,197.29,113.91,191.11,109.5,192.85Z"/><path id="path6267-4" class="cls-1" d="M48.76,228.61,61.17,210c14.82,4.92,30,5,45.24,2.58l13.66,16.07h-5.59l-8.6-12.22c-3.11.72-6.35,1-9.58,1.47l4,10.75H95.94L92.78,218a101.77,101.77,0,0,1-17.62-1l-1.85,11.6H68.85l3-12a85.87,85.87,0,0,1-10-2.15l-9.12,14.13Zm14.21-11L68.13,219l-2.52,9.59H56.18Zm13.31,11,1.46-8.47a67.79,67.79,0,0,0,12.73.77l2.24,7.7Zm24.39-7.85,4.07-1.07,6.09,8.92h-7.41Zm-59.3-53.92c19.83-22.94,17.19-47,6.24-66.45L49.94,98c12.66,20.71,15.36,50.16-8,73C41.71,169.6,41.37,166.84,41.37,166.84Zm79.06-25.73c2.85,4.83,4.59,9.71,7.6,14.56l-7.14,9.6Zm-85.3,15.2c-.18-15.14,0-45.81,0-45.81l6.69-5.1c8,9.67,12.37,35.15-2,52.11-1-.76-3.89-.44-4.74-1.2Zm95-3.06C111.76,122.46,121.18,100,138.86,80c.06,1.54.08,3.11.22,4.64-15.18,17.29-21.25,42.87-6.36,66Zm-33.22-4.47,8.35-11.33s1.59-4.5,2.92-5.84l1.53-1.34,1.56,1.52-.92,3.49q-4.65,7.11-9.78,14.22S97.59,149,96.89,148.78Zm44.44-55c.27-.3,3.58,1.08,3.58,1.08l.21,46.55-6.64,4.24c-1.92,1-17-29.58,2.85-51.87Zm-70,19.6c3-4.09,6.21-7.64,9.14-11.4a13.87,13.87,0,0,0,2.75.3c.21.11-.67,3.12-2.84,5.2-6,7.08-7.3,8.39-7.52,11.31-.07.94-2.17,2-2.17,2l-1.51-1.58a19.53,19.53,0,0,1,2.15-5.85ZM52.52,95.55l6.83-8.89.49,23.12ZM74.3,37.67,61.13,21.28h6.38l7.84,11.6,9.4-1.07L81.44,21.28h3.89l2.75,10.36c5.77.14,11.4.58,16.87,1.13l2.81-11.49h4l-3.59,12,10.61,2.77,9.45-14.79h4.7l-13.4,19.1C102,35.14,87.9,35.74,74.3,37.67Zm38-6.86,3-9.54h9l-6.87,10.89ZM90.55,28.49l-1.9-7.21h15.83l-2,8.06a71,71,0,0,0-11.89-.85Zm-19-7.21H77.9l2.46,7.46-3.65.41Z"/><path id="path6269-8" d="M59.06,20.23,74.32,38.39c3.18-1.14,19.2-3,28.8-.77,1.68,6.52,3.45,13.12,5.33,19.06,0,0-.6.7-1,1.14-6.14,7-1.79,13.83,3.82,16.05-1,2.09-11.77,7.3-18.32,6.68,0-.06-2-4.78-6.12-3.18-1.4.54-2,1.59-3.06,2.62-3.92-1.18-9.09-3.74-11.78-6.56,5,2.5,10,3.84,15,3.18a7.27,7.27,0,0,0-1.32-.84,21.37,21.37,0,0,1-2.25-1.34,15.43,15.43,0,0,1-5.43-6.61c-1.82-3.24-2.12-6.72-3.12-9.8-.52,1.58-.75,5.74-2.13,6.6-.36.23-.43.16-.69-.72-1.06-3.2-4.91-2.79-6.18-.52A5.16,5.16,0,0,0,66.05,68l-2.34,1.29v.38l-1.44.69-.3-.2c-6.69,3.21-13.25,6.56-20.07,9.64,0,0-3.63,6-6.94,8.36l-.13-20.32L25,59,25,63.87l.71.73c.13,34,0,67.49,0,98.38l.05,28.43-.6,0,0,3.32.67.15-.09,4.68-.35,0-.05,3,.53.08V219.4l-.53.68,0,4.78,10.25-9.7.23-11c8.09,1.52,16.55,7.3,16.55,7.3-1.42-9.23-11.27-16.85-16.92-18.37l0-21.89a36.17,36.17,0,0,1-6.28,2c-1,.14-1.42,0-1.91-.75-.36-.54-.37-1-.05-2.15a1.39,1.39,0,0,0,0-1.18,3.61,3.61,0,0,1,0-2.36,2.15,2.15,0,0,0-.13-1.87c-.3-.76-.33-.9-.2-1.33.35-1.15.37-1.34.19-1.85a2.83,2.83,0,0,1,0-2.37c1.51-2.52,4.9-1.9,6.74-1.81.93,1,1.49,1.61,1.58.11.65-1.78,3.18,0,4.36.8,10.07-13.42,15-31.58,2.41-54.32l-7,5.59,0-7c9.31-6,19.79-19.5,24.33-30.17,1.51,1.76,3.24,3.48,4.87,5.26l-1.06,1.78-.32-.18A127.68,127.68,0,0,1,52,95.14a158.45,158.45,0,0,1,7.69,16.24l.57-.26.52,1.65-1,.3c3.44,11.22,3.55,21.6,1,31.18l.6,2.55S65,150.3,66,151.33l5.42,5.22,3.32-3.23-.2-.27,29.1-28.74,1.81,1.72c-17.82,17.86-48.77,48.68-48.77,48.68l-1.07.16a11.3,11.3,0,0,1-2.08.09,2.6,2.6,0,0,0-1.83.31,7.44,7.44,0,0,0-2.5,2.13,2.55,2.55,0,0,1-1.21.91c-6.07,3.6-.59,10.85,4.57,7a95,95,0,0,1,8.75,23.85,3.31,3.31,0,0,1-.68.29L47,229.54h5.23l.55-.93H48.85l12.51-18A102.2,102.2,0,0,0,106.7,213l12.9,15.61h-5.11l.73.93,6.62.1-15.17-17.81c-5.43,1.45-19.75,2.61-28.73,1.1-1.38-6.64-3.64-13.86-5.32-19.6,8.58-6.68,2.14-15.5-3.15-16.72-.26-.49,10.73-7.13,18.55-6.67,2.25,5.35,7.15,4.56,8.91.57,3.25,1.19,7.46,2.37,10.81,5A74.84,74.84,0,0,0,93.86,174c8.09,3.12,10.36,9.7,11.35,15.9a13.87,13.87,0,0,0,.73,2.36c.69-2.24,1.25-4.56,2.61-6.47.62,2.19,2.92,3.89,5.23,2.59,1.35-1,1.81-2.63,1.39-4.93-.12-.63-.18-1-.18-1l1.8-1,.23.2s2-.84,3-1.31c.15-.08-.18-.38-.18-.38L138,171.44a69.76,69.76,0,0,1,7.25-8.79c.08,7.57.06,10.68.06,19.67l1,1c.91.89,2.89,2.72,7.36,6.81a15.47,15.47,0,0,0,1.71,1.38l-.13-132.37h-.15V56.59l.21,0V50l-.19-.11V47.76l.25-.18V29.7l-.28-.05,0-4.29L144.94,36l.08,10c-4.52-.58-10.12-3.46-14-5.78-1.24-.76-1.93-1-1.9-.53.55,6,9.25,15.14,15.94,17.54l0,22.51s1.58-.79,2.54-1.19l.15.4,2.15-.89.18-.46,1.87-.24c0,.38.08.33.08.33,1.67.47,2.41,1.6,1.73,2.87-.23.42-.28,1-.08,1.18.72,1.14.91,2.14,0,3.21a1.14,1.14,0,0,0,0,1.44c.9,1.81.39,1.69-.29,2.77-.15.81.74,1.34.45,2.11a3.16,3.16,0,0,1-1,1.36c-.42.31-.77-.26-.77-.26a14.78,14.78,0,0,1-2.33.76c-1,.31-2.59.86-3.16-.42-.33-.73-.07-1.4-.09-2.22l-1.4-.15-.05,3.72c-.8.42-4-1.2-4-1.2-13.67,17.62-13.29,37.17-3.15,53.55.1.26,7.14-4.8,7.14-4.8s0,4.15,0,6.39a92.88,92.88,0,0,0-23.79,29.5l-3.83-4.51a2.69,2.69,0,0,0,.67-2.19l2.79-4.13,0-1.07,7.23-10c.11.6-7.46-13.49-8.47-18.08l.5-.13c-3.4-12.8-2.7-21.76-.25-32.19l-.7-.68-9.54-9.48-2.31,2.15c-.12.11-.7,0-.82.15-5,4.69-9.85,9.39-14.62,14.27-.13.13.08.65,0,.77-4.79,4.91-9.75,9.56-14.59,14.46l-1.77-1.68c17.15-17.06,49.45-48.74,49.45-48.74a.52.52,0,0,1,.36-.26,10.21,10.21,0,0,0,2.59-.49c1.07-.25,1.24-.32,1.69-.78a8,8,0,0,1,1-.88c.46-.34,1.53-1.24,3.21-2.69A4.52,4.52,0,0,0,135.57,68a4,4,0,0,0-3.16-4,5.32,5.32,0,0,0-2.89.76c-.55.37-.81.54-1.05.38a101.52,101.52,0,0,1-8.35-23.27c-.08-.47,0-.6.35-1.18.23-.37.74-1.16,1.14-1.78,4.36-6.76,8.83-12.43,12.65-18.65h-5.4l-.66,1.05h4.44L119.43,40.2c-24.35-7.92-44.3-2.9-44.78-2.79L61.49,21.28h6l-.73-1.05Zm11.85,0,.67,1.05H77.9l-.36-1.05Zm10.53,1.05h3.89l-.22-1.05h-4Zm7-1.05.24,1.05h15.83l.28-1.05Zm19.35,1.05h4l.3-1.05h-4Zm7.85-1.05-.34,1.05h9l.67-1.05Zm38.45,7.3.14,2.93-6.48,6.8v9.49l-1.88-.44-.08-9.8Zm-1.82,6.25c0,2.91-.42,5.69.35,8.66a24.63,24.63,0,0,1,1.25,4.89l-2.14,0c-.27-.87-.37-1.83-.69-2.9a16.82,16.82,0,0,1-.85-8.23Zm-46.67,4.74c.08.15.34,1.37.57,2.51a109.52,109.52,0,0,0,4.17,15.62c2,6,4.83,13.44,7.64,16.91.37.43.55.92.42,1.14s-1.37-.14-2.14-1a13.29,13.29,0,0,1-1.37-2.08c-1-1.83-2.29-4.49-2.43-4.91-.05-.17-.56-1.48-1.15-2.92-1-2.51-1.61-4.22-2.46-7-.67-2.22-1.29-4.53-2-6.86a83.26,83.26,0,0,1-2.62-10.36,4.38,4.38,0,0,1-.21-1.24A1.59,1.59,0,0,1,105.57,38.52Zm.69.24c-.12-.1,1.11-.12,1.51.21a6.11,6.11,0,0,1,.51,1.79A128,128,0,0,0,113,58.09a65.88,65.88,0,0,0,5.4,12.34,24.48,24.48,0,0,0,2.71,3.77c.65.76.7.86.53,1.07s-.59.22-1.31-.12a5.74,5.74,0,0,1-2.07-2c-.23-.34-.59-.84-.79-1.12a80.13,80.13,0,0,1-6.76-15.72,115,115,0,0,1-4.44-16.95c0-.21,0-.41,0-.62Zm3.94.81a4.26,4.26,0,0,1,.67,1.92c1.31,5.33,2.37,10.1,3.92,14.48.83,2.35,1.54,4.71,2.43,6.93a38,38,0,0,0,5.3,9.46A12.64,12.64,0,0,0,125.58,75c.74.44.86.55.81.8s-.8.33-1,.31A6.73,6.73,0,0,1,122,74.3c-3.6-3.86-6.17-10.18-8-15.37-3.22-8.93-5.81-20.09-5.32-19.75,0-.26,1.29,0,1.61.39Zm1.54.32a1.55,1.55,0,0,1,.4.06c.67.19.76.28.92,1,1.15,5.1,2.37,9.6,3.72,13.87a80.44,80.44,0,0,0,5,12.77A14.18,14.18,0,0,0,127.7,74a13,13,0,0,1,1.26.67.39.39,0,0,1,0,.37c-.12.21-.25.26-.79.25a4.81,4.81,0,0,1-2.79-1c-2.82-1.94-5.29-6.33-6.38-8.82a100.72,100.72,0,0,1-3.66-9.63,108.58,108.58,0,0,1-4.11-15.47c0-.3.2-.46.55-.46Zm42.34,8.34,0,1.81c-7.12.46-14.41-2.53-20.27-5.22,4.42,5.83,9.13,11,20.27,12.07l0,1.86c-14.51-.2-24.73-14.82-24.19-18.46,6,3.83,16.75,8.27,24.19,7.94Zm-40-7.66a1.76,1.76,0,0,1,1,.35c1.19,4.4,2,9.29,4,14.19,2.41,6,3.75,11.36,8.21,16.32,1.39,1.42,4.11,1.38,4.11,1.38s-.34.77-.8.9a5.09,5.09,0,0,1-2.35,0c-2.59-1.09-4.57-3.84-5.59-5.7-.95-1.39-3.29-7.15-5.21-13-2.1-6.38-3.82-13-3.62-14.36A.56.56,0,0,1,114,40.57Zm2.39.74a1.68,1.68,0,0,1,.67.2c.29.13.42.22.57.76.1.36.09.91.26,1.8a81.76,81.76,0,0,0,3.78,12A72.55,72.55,0,0,0,126.16,66a21.49,21.49,0,0,0,2.3,3.54c1.49,1.49,4,1.56,4.77.08a2.47,2.47,0,0,0-.49-2.85c-.63-.61-2.07-.35-2.11.38,0,.19.36.11.88,0,1.45-.16,1.9,2.39,0,2.82-2.36.54-4-2.64-1.91-4.58,3.53-2.39,6.23.87,5.39,4a4.28,4.28,0,0,1-3.94,2.86c-2.3.07-3.26-.63-5.62-4-2.71-4.33-3.88-8.55-5.79-13.28a57,57,0,0,1-3.57-13.4.32.32,0,0,1,.33-.2Zm2.24.74a2.31,2.31,0,0,1,.84.24,2.14,2.14,0,0,1,.29.23C123,54.05,125.62,61,128.32,65.83a3.51,3.51,0,0,1-.23,1.15c-.32.46-.47.35-.89-.37-1.7-3.27-3.31-6.88-4.82-10.6a61.62,61.62,0,0,1-4-13.22C118.41,42.24,118.28,42.08,118.67,42.05Zm21.43,6.59a.81.81,0,0,1,0,1.62.81.81,0,1,1,0-1.62Zm-66-.14c-.94,1.27-1.71,5.84-2.69,5.9s-2.39-.64-3.24.33c-1,1.18-.39,2.48.87,3.2a4.38,4.38,0,0,0,2.58.14c3.08-1,4.25-6,2.48-9.57Zm69.08,1.19A1.17,1.17,0,1,1,142,50.87,1.17,1.17,0,0,1,143.18,49.69Zm-69,.56a6.69,6.69,0,0,1-1.4,6.85,3.29,3.29,0,0,1-4.1.15,1.54,1.54,0,0,1,1.16-2.66,2.38,2.38,0,0,1,1.58,1C72.47,55.75,73.71,50.34,74.16,50.25Zm73.11.64A1.32,1.32,0,1,1,146,52.21,1.32,1.32,0,0,1,147.27,50.89Zm4.7.93a1.35,1.35,0,1,1-1.35,1.35A1.35,1.35,0,0,1,152,51.82ZM108.27,58c.2,0,.34.19.47.58.28.8.27.89-.15,1.43-4.17,5.74-.37,11.6,5.66,12.23.51,0,.76.61,1,1.27,0,.32,0,.31-1.41.34a8,8,0,0,1-2.06-.16,11.1,11.1,0,0,1-5.76-4.22c-1.22-2-1.42-4.13-.67-6.93a8.57,8.57,0,0,1,2.05-4C107.81,58.14,108.07,58,108.27,58Zm39.46.63.07,19.68-2.1.76.08-20.92Zm4,.76q3.93,9.72.37,17.83l-2.4.34c3.29-7.61,1.89-13.06,0-18.32ZM25.88,60.42l8.52,8,.3,89.1-1.36-.47L32.8,69.41,25.88,63.1Zm83.19.26h0c.23,0,.43.32.63.86a1.25,1.25,0,0,1,0,1.29c-1.16,2.85-.21,5.56,2.68,6.41.68.22.8.33,1.2,1.18.26.55.38.74.27.86s-.51.17-1.6-.07a6.88,6.88,0,0,1-3.9-9.84c.24-.42.47-.65.67-.69Zm-34.2-.35a21.79,21.79,0,0,1,.81,3.87c-.23,1.38-2.2,3.59-3.93,4.39-1.6.61-4,.31-5-.75-3.67-4.28,3.18-8.58,4.91-4.13,1,2.93-3.18,3.62-3.37,1.37,0-.57.19-.76.73-1.13s.43-.64,0-.64a1.82,1.82,0,0,0-.91,3c1.44,1.49,3.21.63,4.43-.47,1.65-1.47,2-3.59,2.35-5.47Zm35.56,3.25c.08,0,1.77,4,2,4.58,0,.4-.49.37-1.24-.15a2.92,2.92,0,0,1-1.32-2.14C109.76,65.43,109.6,63.84,110.43,63.58ZM76.24,65.27c.37,0,.75,1.36.58,2-.3,1.2-3.47,3.23-5.69,3.65l-1.06.2a1.91,1.91,0,0,1-1.56-.74c-.39-.4-.58-.8-.49-.89s1.1.1,2,.08c2.43,0,4.3-1.7,5.74-3.76.21-.32.45-.59.52-.59Zm-48.15,1s1.64,1.48,2.51,2.33c-.1,3.93-1.56,8.18-1.55,11.7,0,3,2,5.6,2.22,8.25A14.83,14.83,0,0,1,30,94.76a14,14,0,0,0-1.21,5.59c.1,4.34,3.23,9.09,2.13,13.38-1,4-2.21,6.36-1.9,8.51.61,4.13,2.82,7.79,2.23,11.23-.55,3.2-2,6.4-1.85,9.29.18,3.33,1.44,6.12,1.79,9.16a22,22,0,0,1-.33,5.06l-2.3.19c1.26-4.68-.62-8.92-1.34-13.42-.62-3.83,1.11-6.88,1.62-10.15a12.12,12.12,0,0,0-1.05-6.55c-2-4.78-1.28-7.89.16-12,1.78-4.42-.67-7.93-1.28-12.17A18.05,18.05,0,0,1,28,93.33c1-3.12,1.32-4.94-.21-7.94a10.16,10.16,0,0,1-1.23-5.52c.5-5,1.85-7.74,1.52-13.6Zm49.24,2c.36,0,.54.25.54.76,0,.92-1.39,2.09-3.84,3.24-1.27.6-2,.69-2.75.33s-.66-.61.1-.83a11.52,11.52,0,0,0,4.82-2.7,4,4,0,0,1,1.13-.8Zm-11.09.64c6.33,6.73,12.53,10.2,17.27,11.82l-.75,1.76c-6.23-2.4-12.58-5.74-18-12.92ZM78.43,70a2.17,2.17,0,0,1,.81,1,2.69,2.69,0,0,1-.52.9,5,5,0,0,1-1.83,1.38c-1.42.77-2.28,1-2.89.63s-.41-.59,1.12-1.48a16.41,16.41,0,0,0,2.33-1.65A7.72,7.72,0,0,1,78.43,70ZM61.67,71a38.5,38.5,0,0,0,19.7,14.24l-1.23,1.66A45.06,45.06,0,0,1,59.56,72.16Zm18.1.87c.26,0,.84.66.84,1a1.19,1.19,0,0,1-.25.58A12.49,12.49,0,0,1,78,75.13a1.32,1.32,0,0,1-1.37,0c-.62-.31-.52-.57.5-1.22a13.39,13.39,0,0,0,1.67-1.31,3.74,3.74,0,0,1,1-.73Zm-20.84.52c-.15.18-7.63,17.23-23.48,29.31l-.07-2.83c8.77-6.92,15.16-16.41,20-24.69Zm22.34,1.22c.24,0,.41.16.58.47s0,.72-.91,1.39a1.6,1.6,0,0,1-1.21.49c-1.18,0-1.15-.31.14-1.46.67-.59,1.09-.88,1.4-.89Zm30.61.84,3.3.26c.89.61-12.91,9.6-22.48,8.79L93,81.33C101.35,81.57,112.11,74.82,111.88,74.43Zm-28.34.84c.76.43,1.7.93,1.47,1.09a6.71,6.71,0,0,1-3.11-.2c-.39-.2-.36-.31.17-.9S82.83,74.88,83.54,75.27Zm-29.45-.53c-5.23,9.19-11.47,17.58-18.68,23l-.1-4.86C42.18,87.66,47.38,78.05,47.39,78Zm65.57.59,1.6.93c-10,9.19-20.76,13.15-31.12,12.16L91,86.56C107.78,87.88,119,75.5,119.66,75.33Zm2.43.32s.53-.07.48,0a79.13,79.13,0,0,1-10.85,8.61C97.61,98.72,85.52,110.1,73.23,123l-2-2L73,119c0-3.7,4.56-7.85,7.27-11,1.12-1.26,3.24-4.51,3-5.88-.08-.31-.1-.43-.1-.43,4.28-.85,5.3-4.3,5.39-7.34a19.45,19.45,0,0,1,1.16-5.56C109.1,90.31,121.55,76.15,122.09,75.65Zm-33.7,2.13a3.88,3.88,0,0,1,3.85,4.16c0,1-.38,1.81-1.78,4.51-1.35,2.32-1.52,3.73-2,6.4L87,91.62l-2.5,2.24,0-3.26s.86-1.09,2.25-2.65c1.77-2,3.37-4.46,3.3-5.88A2,2,0,0,0,87,80.44c-1.34.92-2,2.6-2.73,7.61-.14.89-.27,1.93-.35,2.16a12.91,12.91,0,0,1-2.12,2.43A30.93,30.93,0,0,1,80.92,89l-2,.32a25.59,25.59,0,0,0,5.14-8.45c1-1.9,2.38-3,4.28-3ZM46,78.56s-3.88,8-10.69,13.22l0-3.14a32.7,32.7,0,0,0,7-8.29Zm93.29.2c-13.46,13.86-31,39.39-9.22,75.25L133,150.7c-17.55-32.43-5.12-49.24,6.43-66.11ZM66.57,79.9c3.94,2.79,8.05,5.56,13.37,7.32-.28.94-7.59,7.06-2.35,12.72.22.29-.33,1-1.19,2-2.5,3.4-5,5.83-7.1,9.67l-.09,7.2L67.12,117Zm72.24.67.09,4.11c-20,24.17-17.74,45.94-6.44,66l-2.16,2.18c-18.53-31.72-7-55.63,8.51-72.28ZM89.49,83c-.88,2.32-4.74,6.28-4.74,6.28s.51-3.86.84-5.08a7.79,7.79,0,0,1,1.34-2.79C88.49,79.71,90,81.64,89.49,83ZM63,80.83l.37,32.39-2.81-2.82-.41-24.77Zm-3.8,6.33.56,22A130.27,130.27,0,0,0,52.9,95.42ZM81.37,94a11.49,11.49,0,0,0,1.1-1.12c1.45-1.47,1.59-1.48,1.45.5,0,.76,0,1.73,0,1.73.86-.49,2.87-2.85,3.44-2.43a3.67,3.67,0,0,1,.8,2.6A6.08,6.08,0,1,1,78,91c.44-.47,1.72-1.34,2.33-1.17C81,91.16,81,92.69,81.37,94Zm64.27-2.33a3.59,3.59,0,0,0,2.17,2.5c-.2,31.49-.05,87.24-.05,87.24l6.36,6,0,2.59-8.43-7.68s-.46-65.75,0-90.6ZM152,93.17c.23,3-.29,6.25.23,9.38.52,2.17,1.31,4.12,1.37,6.24a14.94,14.94,0,0,1-.9,5.78,12.93,12.93,0,0,0-.78,4.1c-.31,2.64.54,5,1.2,7.14.88,2.79.63,6.16-.77,10.61a8.64,8.64,0,0,0-.52,3.73c.19,3,1.29,5.95,1.84,8.94.3,1.72,0,4-1.07,7.76a26,26,0,0,0-.81,4.81,14,14,0,0,0,.63,3.7c1.48,3.85,1.55,4.54,1.62,6.85a13.46,13.46,0,0,1-1.11,5c-1,2.45-.35,5,0,7.7l-2.54-2.16a9.31,9.31,0,0,1,.21-6.3c1-2.74,1.24-3,1.22-4.57,0-2.1-1.22-4.57-1.72-6.05a12.17,12.17,0,0,1,0-7.93,41.88,41.88,0,0,0,1.2-5.1c.27-2.08.06-3.72-1-7.89a16.86,16.86,0,0,1-.66-4.84,21.72,21.72,0,0,1,.85-6.09,14,14,0,0,0-.28-9.08,15.07,15.07,0,0,1-.94-6.81,10.77,10.77,0,0,1,1.08-3.66,11.33,11.33,0,0,0,.44-7.86,37.18,37.18,0,0,1-1.23-12.72Zm-7.13,1.72c-.22,21.59,0,46.29,0,46.29s-6.43,4.48-6.4,4.25c-8.28-13.59-11.44-33.6,3-51.64a18.88,18.88,0,0,0,3.37,1.1ZM47.1,100C58.82,121.81,60.35,143.8,41,166.36a11.71,11.71,0,0,1,.21,5.68c3.78-2.93,34.07-33,8.56-74.95Zm59.72-1.77,5.75.33.39,4.93-1.86,1.83s0-1-.06-1.92a5.3,5.3,0,0,0-.29-2.06,13.66,13.66,0,0,0-.28,2.75l-.09,2.12-.64.64c-.86.85-1,.78-1.07-.42-.07-2.61-.06-2.79-.26-2.6a8.78,8.78,0,0,0-.19,2.35,13.78,13.78,0,0,1-.17,2.28,3.78,3.78,0,0,1-1.52,1.35c-.26,0-.25-.38-.25-2,0-1.37-.15-2.13-.37-1.62a22.69,22.69,0,0,0-.16,2.59,12.59,12.59,0,0,1-.16,2.24c-.24.45-1.37,1.4-1.57,1.32s-.35-.92-.35-2.28c0-.67.11-1.23-.14-1.41s-.31.59-.24,2.55l0,2.12-.72.79c-1.14,1.17-1.22,1.11-1.22-.91,0-1.6,0-2.31-.33-2.18s-.19.9-.13,2.48a8.43,8.43,0,0,1-.05,2.3,6.47,6.47,0,0,1-.83.92,9.89,9.89,0,0,1-.89.87c-.09-1.7-.23-5.36-.23-5.36l-6-.26a11.8,11.8,0,0,1,1.75-1.73c.28-.15.7-.16,2.2-.1a16.24,16.24,0,0,0,2.53-.09c.45-.17-.49-.32-1.81-.41a20.79,20.79,0,0,1-2.1-.18l.88-.9L97,108l1.92.07a10.07,10.07,0,0,0,2.15,0c1.13-.22.07-.48-1.22-.48s-2,0-2-.28a4.92,4.92,0,0,1,1.81-1.64c.21,0,1.23-.08,2.28-.09,1.8,0,2.45,0,2.35-.34s-1.29-.21-2.08-.24c-2.21,0-2.31-.09-.8-1.4l.73-.63,1.38,0c2.08.06,3.09,0,3.09-.22a5.91,5.91,0,0,0-2.51-.35c-.69,0-1.25,0-1.25,0a17.8,17.8,0,0,1,1.67-1.8l1.86,0c1.36,0,2.2.07,2.22-.17s-.49-.25-1.11-.25a6.33,6.33,0,0,1-2-.21c-.15-.14.12-.54.71-1.07l.61-.54Zm-57,.06c16.1,26.17,10.29,54.45-7.67,72.05l-.52-3.44c16.94-20.5,19.9-41.68,6.19-66.59Zm29.94,3.52c-2.89,4.32-7.31,8.59-9,12.12-.34.39-.45,1.29-1,1.47-.27,0-.35-.5-.29-1.65a4.11,4.11,0,0,1,.56-2c2.28-4.14,4.92-7.12,7.84-11Zm.68.41,2.67.17a14,14,0,0,1-2.34,4.45c-1.21,1.56-2.67,3.14-4.37,5.06-2.46,2.79-3.69,5.63-3.58,6.88A22,22,0,0,1,71,120.57l-1.56-1.43c1.15-5.89,6.75-11.31,11-16.88Zm32.68,2.4.87,0a28.06,28.06,0,0,1,4.92.48,3.46,3.46,0,0,1,.19,1,8.53,8.53,0,0,1-.38,2.92,13.11,13.11,0,0,1-.62,2.22c-.34.34-.48,0-.63-1.6-.1-1-.14-1.67-.27-1.59a6.52,6.52,0,0,0-.15,1.84c.1,2,.08,2.51-.54,3.11-1.1,1.07-1.17,1-1.25-.93a10.58,10.58,0,0,0-.27-2c-.24-.23-.32.85-.33,2.69v1.95l-.52.57c-.68.73-.9.85-1.15.6s-.1-.49-.1-1.61c0-1.31-.23-2.06-.48-1.81a22.63,22.63,0,0,0-.06,2.41c0,1.11,0,2.08,0,2.17a4.79,4.79,0,0,1-1.52,1.52c-.26,0-.47-1.44-.47-2.62,0-.79-.17-.93-.33-.49a17.85,17.85,0,0,0-.08,2.2v1.8l-.73.75c-1,1-1.14,1-1.14-.43,0-1.19-.09-1.82-.33-1.82s-.17.57-.17,1.9a10.88,10.88,0,0,1-.13,2,3.83,3.83,0,0,1-.72.94,2.59,2.59,0,0,1-.72.59c-.14,0-.33-1.13-.28-1.61,0-.11,0-.82,0-1.58,0-1.83.1-1.75-2.84-1.85-3.44-.1-3.49-.12-2.45-1.12s.84-.91,3.12-.76c1.84.12,2.06.11,2.24-.07s.18-.24.14-.27a9.75,9.75,0,0,0-1.55-.14c-2.27-.13-2.46-.29-1.5-1.25l.54-.54h2.32a11.24,11.24,0,0,0,2.69-.16c.15-.24-.47-.3-2-.39-.8,0-1.56-.11-1.68-.15-.37-.11-.23-.49.41-1.08l.61-.58h2c1.9,0,2.83-.12,2.83-.37s-.38-.25-1.35-.26c-1.38,0-2.3-.15-2.37-.34a6.35,6.35,0,0,1,1.35-1.55l2.08.07c2.1.08,2.76,0,2.76-.36,0-.19-.9-.33-2.06-.26-.75,0-1.66-.13-1.66-.39a2.55,2.55,0,0,1,.67-.87l.68-.66,2,.08a15.78,15.78,0,0,0,2.44,0c.34-.23-.45-.41-1.73-.48-2-.12-2.1-.27-1.06-1.25ZM42,105.75c10.57,18.82,9,36.56-2.27,51.66a10.32,10.32,0,0,0-4.14-1.32l-.28-45.46Zm75.58,7.35c.21,0,.21.32.15,1.05a8.43,8.43,0,0,1-.2,1.36c-.12.32-.22.33-1.24.19-1.17-.17-1.15-.38.13-1.64.62-.6,1-.93,1.16-1ZM60.87,114s1.39,0,2.09,0c0,0,.1,3.53.39,5.56l4.53.22-1.76,1.82-3.44-.11S61.64,116.45,60.87,114Zm54,2.13a7.52,7.52,0,0,1,2.51.47c.15.15.16.53,0,2.8-.05.82-.1,2.58-.11,3.91,0,2.41,0,2.42-.3,2.46s-.41-.07-.51-1.66a4.6,4.6,0,0,0-.28-1.71c-.12,0-.11.74-.11,2.37v2.11a6.73,6.73,0,0,1-1.11.9c-.25,0-.39-.39-.51-1.5s-.25-1.86-.4-1.62a18.91,18.91,0,0,0,0,2.23l.13,1.78-.79.8c-.82.82-.92.88-1.05.67-.31-.81.12-4.53-.61-5a21.44,21.44,0,0,0-2.23-.13c-1.91-.08-3-.11-3.26-.34s.74-1.18,1.2-1.39.71-.16,2.29-.06c1.83.12,2.75.11,2.5-.12a9.9,9.9,0,0,0-1.71-.27c-1.47-.14-2-.29-2-.56a7.28,7.28,0,0,1,1.26-1.48l.71.08c.39,0,1.32.13,2,.22s2.23.1,1.63,0c.2-.19-.57-.39-1.62-.52-2-.24-2.17-.47-1.17-1.45l.62-.6c1,.08,2.1.1,3.13.26.76.12,1.17.08,1.17-.18s-.37-.17-1.29-.35c-.33-.07-2,0-2.08-.54.41-.56,1.13-1.58,1.86-1.62Zm-46.41,4.27c.3,0,.32.72.35,2.67,0,2.13.07,2.5.25,2.68s.62.23,2.5.33c2.88.14,3,.19,1.94,1.16-.71.68-.74.59-1.32.52a14.42,14.42,0,0,0-3.83,0c-.15.24,0,.29,1.4.39,1.69.13,2.16.19,2.16.48a2.3,2.3,0,0,1-.64.82l-.64.59-1.78-.07c-1.88-.07-2.84-.1-2.84.15s1.07.33,2.76.49c.45.05.9.05.92.13s-.79,1.24-1.32,1.63-.58.14-2.46.1-2.09,0-1.73.39a3.29,3.29,0,0,0,1.12.14c1.18.08,1.74.26,1.74.55a4.34,4.34,0,0,1-1.56,1.6c-.43.21-.62.22-1.59.08-.76-.1-.91-.26-.89-1,0-.32.07-2.4.12-4.63.12-4.29.15-4.51.73-4.43.24,0,.3.33.36,1.78s.14,1.86.4,1.86c.09,0,.11-.61,0-2.11-.1-2.32-.1-2.66.61-3.34.32-.3.57-.54.72-.32a13,13,0,0,1,.3,2.83c0,.93.35,1.12.44.24,0-1.39-.06-2.65-.06-4.14l.86-.85c.46-.45.75-.74.93-.75Zm-5.61,1.74a18,18,0,0,1,2.55,0,8.58,8.58,0,0,1-2.23,2.19A6.39,6.39,0,0,1,62.82,122.09Zm54.59,4.22.41,2.87-3.15-.22ZM75,126.77h0c.23.09.29.64.38,3.3a11.68,11.68,0,0,0,.21,2.33c.09.11.48.17,1.21.17s1.71,0,2.48.08c1.69.09,1.73.16.73,1.15l-.68.67-2.11-.09c-2.16-.09-2.52,0-2.52.25s.37.29,1.06.28a14.12,14.12,0,0,1,1.53.08c1.26.11,1.29.21.35,1.22l-.68.72-.66-.08a16.29,16.29,0,0,0-4,0c-.26.25.08.37,1.35.44,2,.12,2.31.18,2.31.4a2.37,2.37,0,0,1-.62.81l-.61.61-2.5-.13c-1.75,0-2.35,0-2.39.12s.22.25,2,.44,2,.36,1.32,1.17-1,1-2.36.87a11.3,11.3,0,0,0-3.25,0c-.35.22,0,.36,1.07.44,1.62.12,2.56.29,2.56.53a2.9,2.9,0,0,1-1,1.34l-.42.32-1.85-.19c-1.84-.2-2.78-.1-2.51.16a5.44,5.44,0,0,0,1.51.24c1.39.1,2.08.28,2.08.56a4.13,4.13,0,0,1-.79.93,5.27,5.27,0,0,1-.92.72l-5.68-.51a9.1,9.1,0,0,1,.28-3.75c.51-2.47.72-3,1-2.56a6.46,6.46,0,0,1,.18,1.13c.11,1,.36,1.62.5,1.62s.17-.59,0-2c-.3-1.93-.33-2,.41-2.78s1-.83,1.19-.53c.05.09.13,1,.21,1.7.13,1.29.2,1.59.37,1.42s.19-.48.07-2.39l-.15-1.87.83-.84c.76-.77.85-.82,1-.62a6.81,6.81,0,0,1,.28,1.89c.08,1.41.19,1.87.4,1.67a26.8,26.8,0,0,0-.06-4c-.06-.49,0-.56.59-1.25s1.11-1.15,1.31-1.16.41.8.41,1.87a3.93,3.93,0,0,0,.2,1.73c.28.37.31-.92.24-2.19l-.07-2.32.76-.75c.71-.71.77-.74,1-.54s.16.55.22,1.73c.1,1.62.42,2.41.51,1.28a3.7,3.7,0,0,0,0-1.1,13.78,13.78,0,0,1-.1-1.77,2.53,2.53,0,0,1,.28-1.58A4.31,4.31,0,0,1,75,126.77Zm32.8,1.77s1.27,1.08,1.27,1.38a5.56,5.56,0,0,1-1.18,1.4c-1.26,1.22-1.37,1.43-1.52,2.75a7.54,7.54,0,0,1-.88,2.29c-.44.89-1.09,1.93-1.09,1.93A111.4,111.4,0,0,0,97,147.87c-.2.46-.21.92-.42,1.3a1.46,1.46,0,0,1-.67.58,7,7,0,0,0-1,.64,6.77,6.77,0,0,0-2.53,3.94,43.4,43.4,0,0,0-.69,4.38c-.14,1.12-.64,3.07-.64,3.07-7.53-.11-14.59,1.19-20.88,4.72Zm10.07,1.15,1.68,7.58-1.73,0-.17-5.51-5.39-.51,1.93-1.85Zm-8.18.7c.46.46,1,1,1.46,1.49-1.44,4.79-6,11-10.54,17.18l-3.32-.36a93.83,93.83,0,0,1,6.83-9,16.82,16.82,0,0,0,2.18-3.51,20.44,20.44,0,0,0,1.13-3.43c.78-.94,2.27-2.31,2.26-2.32Zm1.79,1.68L114,134.6l.62,35.88a46.75,46.75,0,0,0-13.31-7l.85-1.93.94-1c3.31-3.56,2.57-7.4,0-10.12,3.07-4.45,5.85-7.76,8.19-12.11l0-3a12.48,12.48,0,0,1,.18-3.3Zm-30,1.49c.27,0,.3.64.37,2.52a10.74,10.74,0,0,0,.25,2.78c.16.24.31.26,2.39.33s2.66.13,2.66.36a3,3,0,0,1-.63.75l-.62.63-2,0c-1,0-2.29,0-2.32.05s.48.38,1.44.38a9.38,9.38,0,0,1,1.65.15c.37.14.2.5-.61,1.28l-.81.77-1.78,0a18.52,18.52,0,0,0-2.33.06c-.54.18-.27.32.63.34,1.49,0,2.53.14,2.57.37a2.2,2.2,0,0,1-.62.92l-.67.71-2.62-.11c-2.48,0-2.81.21-.74.41.79.08,2,.27,2.07.28s.12.1.16.21S79,148,78.47,148.3a1.17,1.17,0,0,1-.94,0,12.14,12.14,0,0,0-3.22,0c-.22.13.25.28.92.29,1,0,2.2.31,2.2.55a3.62,3.62,0,0,1-1.05,1.29c-.25.22-.84,0-2.5.08a5.88,5.88,0,0,0-1.89.21,2.54,2.54,0,0,0,1.28.35,8.94,8.94,0,0,1,1.77.28c.17.17-1.11,1.67-1.11,1.67L68.48,153l-.5-5.74.46-.53c1-1.2,1.27-1,1.48,1.12.16,1.58.27,2.06.5,1.83a10,10,0,0,0,0-2.3c-.07-1.09-.13-2.08-.13-2.21,0-.3,1.24-1.59,1.49-1.55s.37.59.5,2.06c.1,1.21.16,1.54.4,1.3a5.81,5.81,0,0,0,0-2.28l-.15-2,.53-.62c1.06-1.24,1.26-1.1,1.39.92.09,1.36.22,2.08.47,2.08a10.66,10.66,0,0,0,0-2.56l-.08-2.31.66-.67a3,3,0,0,1,.82-.66c.26,0,.4.58.57,2,.18,1.54.24,1.8.39,1.65a10.52,10.52,0,0,0,0-2.19L77.07,138l.8-.81a3.06,3.06,0,0,1,1-.77c.24.05.4.74.41,1.72a3.82,3.82,0,0,0,.38,1.91c.1.1.13-.47.11-2.1,0-2.51-.11-2.71,1-3.88.3-.32.5-.52.64-.54Zm29.42,1,0,3.51c-1.42,3-4.68,7.42-8,12.15l-1.73-.93a93,93,0,0,0,9.69-14.73Zm-47.3,1.1h.27c.89.05.91.36.08,1.14a2.21,2.21,0,0,1-.9.58c-.25,0-.27,0-.19-.71.1-.82.2-1,.74-1Zm54,2.54,2.44,2.39.61,25.69L118,170.48Zm3,3.38a94.8,94.8,0,0,0,7,13.91l-6.52,9.17Zm-22,8c3,0,5.76,2.32,6.11,4.73a5.77,5.77,0,0,1-3.12,6.63,4.72,4.72,0,0,1-1.29.32c-.29-1.67-.16-3.27-.54-5a20.78,20.78,0,0,1-2.2,2.49c-.41.23-.59.29-.54-.25,0-.93.1-3,.1-3l-3.47,3.57a5.94,5.94,0,0,1-.61-1.28,6.18,6.18,0,0,1,2.56-7.32,5.58,5.58,0,0,1,3-.93Zm46.13-.21.06,3.14c-5.44,4.19-13.2,13-19.85,24.57l-2.93,1.23C126.56,167.62,136.09,156.69,144.77,149.41Zm.06,4.13,0,4.68a71.46,71.46,0,0,0-12.6,15.44c-2.12,1-6,2.94-6,2.94-.49-.12,10.7-17.45,18.6-23.06Zm-48.44,4c.22,0,.21.42.14,1a4.34,4.34,0,0,1-.83,2.55c-1.76,2.07-4.55,4.88-4.93,7.49-.19,1.4.9,2.7,2,2.57,3.34-.42,3.7-6.33,4-9.24a8.9,8.9,0,0,1,.29-1.56,13.15,13.15,0,0,1,2.42-2.47l.41,4.52,1.88-.63c-5.31,7.18-3.79,7.63-6.59,10.58-2.6,2.73-7.65-.38-6.36-4.54,1.12-2.8,2.86-5.61,3.33-8.6.13-.89.2-1.51.2-1.51l1.21,2.51c.62-.61,2.41-2.6,2.87-2.7ZM145,159.09v3.23a67.77,67.77,0,0,0-7.14,8.74l-4,1.82c2.62-5,6.93-9.62,11.17-13.79Zm-49.1,2.85a12.11,12.11,0,0,1-.32,4.24c-.28,1.3-1.54,5.08-3.52,4.19-1.68-1.48.37-4.22,1.4-5.52.8-.93,1.67-1.94,2.44-2.91Zm-5.29.39-1.1,2.33c-9.84,0-19.41,3.54-27.92,10.69l-2.15-.7A43.81,43.81,0,0,1,90.63,162.33ZM101,164.12c11.1,3.7,16.22,9.09,20.42,14.75l-1.76.89c-4.4-5.66-9.82-10.84-19.93-13.84Zm-12.71,3.49-.48,2c-6.21.18-12.77,2.38-19.15,6.78l-2.3-.36A39.22,39.22,0,0,1,88.27,167.61Zm28.4,13.5-2,.92c-5.88-7.59-11.19-9.75-17.24-11.68l.66-1.69A31.94,31.94,0,0,1,116.67,181.11Zm-82-9,.17,20.26-1.42-.29-.2-19.59Zm-3.29,1.1c-2.7,10.07-.6,12.68.37,18.56l-2.23-.35a26.72,26.72,0,0,1-.57-17.71Zm68,1.54c.17.16-.14.66-.56.9s-.31.21-1,0-1.42-.81-1.42-1A16.78,16.78,0,0,1,99.39,174.8Zm1.91.15c.37,0,1.44,0,1.5.36,0,.19-.39.52-1.25,1.1-1.31.89-1.75,1.06-2.13.64s-.26-.81.35-1.37A2,2,0,0,1,101.3,175Zm-44.58.22a5,5,0,0,1,2.9,2c.81,1.28,1.75,2.59,2.51,3.88A53.21,53.21,0,0,1,66.31,190a118.76,118.76,0,0,1,6.07,21.23c0,.58-.54.57-1,.44a.84.84,0,0,1-.48-.33c-.61-1.71-.82-3.45-1.28-5.17a111.48,111.48,0,0,0-3.79-12.79,86.41,86.41,0,0,0-4.65-10.86,25.2,25.2,0,0,0-4.28-5.9,14.12,14.12,0,0,1-1-1c0-.3.29-.46.82-.46Zm47.42.23c.7.17,2.37.37,1.73.92a13.28,13.28,0,0,0-4.36,2.86,2.58,2.58,0,0,1-.93-1.14C101.59,176.81,102.87,176.28,104.14,175.4Zm-44,0c1,0,2,1.23,2.4,2,3,4.43,5.61,10.75,7.74,16.93A98.83,98.83,0,0,1,74.64,212c0,.14-.34.19-.66.19-.62,0-.71-.15-.87-.64a143.19,143.19,0,0,0-6.25-21.86,64.4,64.4,0,0,0-5.13-10.57c-1.5-2.18-2.35-3.33-2.29-3.5s.29-.17.58-.17Zm-6.76.13c1.33,0,3.52,1.56,5,3.57,3.16,4.32,5,9.35,6.85,14.24a101.44,101.44,0,0,1,4.64,16.71c.15.7.41,1-.25,1.23-1-.28-1-.26-1.27-1.48s-.52-2.63-.89-4c-2.13-7.62-4.52-16.09-8.48-23-4.76-7.58-6.14-5.48-6.91-6.81C52.12,175.75,52.65,175.54,53.36,175.54Zm11.46,1.85c4.09,7.08,5.89,11.43,7.14,15.71,1.88,6.48,4.12,11.66,5.1,19.23a5.5,5.5,0,0,1-1.51-.16,4.27,4.27,0,0,1-.48-1.55A125.32,125.32,0,0,0,70.79,194a70.07,70.07,0,0,0-7.24-15.92c-.84-1.37-1-1.91-.48-1.93.92.06,1.33.76,1.75,1.27Zm42.62-.75a1.29,1.29,0,0,1,.61.09c.54.18.71.3.75.52s-.3.41-1.34.65a10.81,10.81,0,0,0-3.55,2,6.94,6.94,0,0,1-1.09.89c-.25,0-.87-.67-.87-.95a8.76,8.76,0,0,1,5.49-3.17Zm-56.37.17c3.46.11,6.17,4.11,7.59,6.81.56,1,1.27,2.2,1.82,3.41a115.79,115.79,0,0,1,6.36,19.1c.56,2.41,1.2,4.18,1,4.65a1.23,1.23,0,0,1-1.17-.19,6.46,6.46,0,0,1-.59-1.71c-.81-2.58-2.14-10-5.63-17.71a55.47,55.47,0,0,0-4.68-9.73A7.94,7.94,0,0,0,50.89,178c-.88-.14-1.14,0-1.08-.51,0-.3.13-.38.6-.53a2.4,2.4,0,0,1,.66-.11Zm21.65,16c-.24,0-.45-.45-.61-1.19-.08-.36-.18-.62.5-1,4.3-4.55.6-11.22-4.8-11.8-.5-.08-1.14-.08-1.33-.15a6.18,6.18,0,0,1-1-1.51c7.47-1.8,15.38,8.83,7.24,15.69ZM109.89,178c.44.11,1.41,1,1.29,1.2s-1,.24-2.19.45c-2.57.46-3.67,2.12-4.86,3.36-.26.08-.5-.11-.74-.51a2.27,2.27,0,0,1-.31-.79c1.33-1.93,4.9-3.89,6.81-3.71Zm-60.58.57a7,7,0,0,1,5.59,2.77c4.48,6.67,9.51,21.49,10.71,28.8-.12.24-.44.26-1.06.08-.34-.09-.3-.2-.52-.88A153.42,153.42,0,0,0,59.27,194c-.94-2.44-2-4.83-3.07-7-.66-1.36-2-3.77-2.47-4.51a4.08,4.08,0,0,0-5.06-2.14,2.25,2.25,0,0,0-.57,3.72,2.17,2.17,0,0,0,3.1-.49,1,1,0,0,0,0-.95.26.26,0,0,0-.39,0c.08,1.3-1.58,1.38-2.31.87-1.15-.86-.38-3.59,2.77-2.49a2.25,2.25,0,0,1,1,3.12,2.89,2.89,0,0,1-2.92,1.9,3.58,3.58,0,0,1-3.68-3.38,4.43,4.43,0,0,1,2.16-3.84,2,2,0,0,1,1.42-.39Zm18.48,1a6.51,6.51,0,0,1,4.94,10.19c-.71.89-1.16.73-1.46-.43-.15-.47-.32-.54.11-.91,2.48-2.36.44-7-3.64-7.14a6,6,0,0,1-.84-1.7,3,3,0,0,1,.89,0Zm44.14.43c.41.1,1.26.91,1.26,1.2s-.17.27-1.11.11c-2.23-.4-4.46.88-6.32,3.68-.9,1.68-1,1.52-1.49.07-.24-.74-.25-.72.7-2.09a7.58,7.58,0,0,1,7-3Zm2.08,2.84c1.86,1.69,1,5.4-1.53,5.78-2.22.25-4.19-2.13-2.79-3.76.91-1,2-1.08,2.74-.24s.42,2.06-.61,2.19c-.12,0-.22.13-.22.2s.92.16,1.23-.09a2,2,0,0,0,.08-2.49,2.24,2.24,0,0,0-2.4-.85c-1.5.53-3,2.55-3.89,5.09-.24.71-.38,1.38-.49,1.54-.21.32-.2.31-.39.19a6.58,6.58,0,0,1-.49-2.26,8.46,8.46,0,0,1,.9-2.65c1.62-3,5.25-5,7.86-2.65ZM68.61,182c2.17.13,3.89,3.19,2.94,5.31-.29.4-.71.66-.91.41-.07-.08-.4-1.08-.86-2.14s-.89-2.09-1-2.35C68.42,182.53,68.17,182,68.61,182Zm-14.73,1.77A89.43,89.43,0,0,1,60.13,198a77.25,77.25,0,0,1,3.06,10.81c.06.33.14.51,0,.65s-1.42-.36-1.42-.36C59.7,202.05,58,195,53.12,185.94a2.61,2.61,0,0,1-.27-.59,2.37,2.37,0,0,1,.44-1.68c.14-.15.33-.16.6.14ZM26.17,192c11.68.79,20.71,5.68,25.54,18.62a49.85,49.85,0,0,0-25.41-8.49l0-1.79c10.75-.09,21.23,5.48,21,5.4-4-8.2-14-11.53-21.16-11.74Zm81,2.62a6.63,6.63,0,0,0-1.06,2.09c0,.32.1,2.33.15,3.5a7.51,7.51,0,0,0,.22,2.28.53.53,0,0,0,.78.06,2.62,2.62,0,0,0,.28-.71c1-3.63,1.41-5,1.8-5.43s.35-.3,1.4-.18a2.12,2.12,0,0,0,1.64-3.75C110.32,191.36,108.12,193.29,107.2,194.65Zm2.51.77c-1.7,1.39-1.75,3.4-2.27,5.24-.28,1.25-.66,1.9-.82,0-.29-2.6.07-4.54,1.21-6.07a4,4,0,0,1,2.88-2c2.23-.16,2.46,1.6,1.84,2.54A2,2,0,0,1,109.71,195.42Zm-80.45.84a1.51,1.51,0,1,1-1.52,1.51A1.51,1.51,0,0,1,29.26,196.26Zm4.85,1a1.36,1.36,0,1,1-1.36,1.35A1.36,1.36,0,0,1,34.11,197.29Zm4.42,1.48a1.11,1.11,0,1,1-1.11,1.11A1.11,1.11,0,0,1,38.53,198.77Zm3.13,2a.85.85,0,1,1-.86.85A.86.86,0,0,1,41.66,200.75Zm-11,2.72A9.34,9.34,0,0,0,31,208c.87,2.5.48,7,.48,7l-2.54,2.52a52.92,52.92,0,0,0,.33-6.8c-.09-1.31-.68-2.54-.84-3.86a25.08,25.08,0,0,1,.08-3.65Zm4.1.75.09,10.7-8.67,8.36,0-2.2,7.4-7.3-.16-9.91Zm21.4,24.39-.57.93H65.4l.21-.93Zm12.67,0-.23.93h4.54l.15-.93Zm7.43,0-.14.93H93l-.25-.93Zm19.66,0,.27.93h4.48l-.37-.93Zm7.5,0,.32.93h7.71l-.64-.93Z"/><path id="path35-67-2-1-9" class="cls-1" d="M14.14,11.1v2.76h2.7s.07,2.67.09,8.34c0,5.5.14,8.22-.22,9.79-.94,3.61-6.2,3.63-7.25,1A10.24,10.24,0,0,1,9,28.82H6.08s0,.77,0,1.7c0,4.06,1.37,6,4.53,6.77s7.06-.46,8.41-3.22c.8-1.58.71-1.69.73-11.21,0-6.35.11-9,.11-9h2.49V11.1Z"/><path id="path35-6-7-1-4" class="cls-1" d="M165.87,238.91v-2.77h-2.71s-.07-2.67-.09-8.34c0-5.5-.13-8.22.22-9.79,1-3.61,6.21-3.63,7.25-1a10.42,10.42,0,0,1,.48,4.2h2.9s0-.77,0-1.7c0-4.06-1.36-6-4.53-6.77s-7.05.46-8.4,3.22c-.81,1.58-.72,1.69-.74,11.21,0,6.35-.11,9-.11,9h-2.49v2.77h8.24Z"/></g></svg>