<?xml version="1.0" encoding="utf-8"?>
<!-- Generator: Adobe Illustrator 23.0.1, SVG Export Plug-In . SVG Version: 6.00 Build 0)  -->
<svg version="1.1" xmlns="http://www.w3.org/2000/svg" xmlns:xlink="http://www.w3.org/1999/xlink" x="0px" y="0px"
	 viewBox="0 0 180 250" style="enable-background:new 0 0 180 250;" xml:space="preserve">
<style type="text/css">
	.st0{fill:#FFFFFF;}
	.st1{fill:#E2CF00;}
	.st2{fill:#131F67;}
	.st3{fill:#D40000;}
	.st4{fill:#100F08;}
</style>
<g id="white-background">
	<rect class="st0" width="180" height="250"/>
</g>
<g id="Layer_1">
	<g id="g6725_1_" transform="matrix(0.99553491,0,0,0.99680337,8.9122851,-8.1397402)">
		<path id="path6584-3_1_" class="st3" d="M81.5,73.1c-4.2-6.9-8.6-13.6-14.1-19.3c5.5-5.7,9.9-12.4,14.1-19.3
			c4.2,6.9,8.6,13.6,14.1,19.3C90.1,59.5,85.7,66.2,81.5,73.1z"/>
		<path id="path6586-2_1_" class="st3" d="M5,64.4c-1.8-2.9-3.6-5.7-5.9-8c2.3-2.4,4.1-5.2,5.9-8c1.7,2.9,3.6,5.7,5.9,8
			C8.6,58.8,6.7,61.6,5,64.4z"/>
		<path id="path6590-7_1_" class="st3" d="M157.9,218.8c-1.8-2.9-3.6-5.7-5.9-8c2.3-2.4,4.1-5.2,5.9-8c1.7,2.9,3.6,5.7,5.9,8
			C161.5,213.1,159.7,215.9,157.9,218.8z"/>
		<path id="path6600-5_1_" class="st3" d="M81.5,152.9c-4.2-6.9-8.6-13.6-14.1-19.3c5.5-5.7,9.9-12.4,14.1-19.3
			c4.2,6.9,8.6,13.6,14.1,19.3C90.1,139.3,85.7,146,81.5,152.9z"/>
		<path id="path6606-3_1_" class="st3" d="M81.5,232.7c-4.2-6.9-8.6-13.6-14.1-19.3c5.5-5.7,9.9-12.4,14.1-19.3
			c4.2,6.9,8.6,13.6,14.1,19.3C90.1,219.1,85.7,225.8,81.5,232.7z"/>
		<path id="path17-2-9-4-8_1_" class="st3" d="M-3.7,40l2.1-1.5c1.8,2.9,3.8,4.8,6.8,4.5c4.6-0.3,6.5-5.1,5.5-8.7
			C9.8,31.1,6,29.5,3,31.2C2.3,31.6,1.6,32,1.5,32c-0.3,0-1-1.4-0.9-1.8c2-2.9,6.9-8.1,6.9-8.1h-7.7v3.4h-2.9v-6.2h15v2.1
			c0,0-4,4.1-5.4,6.4c3.3,0.1,5.9,2.2,6.9,5.4c0.6,1.7,0.3,5.6-0.4,7.3c-1.2,2.8-4.5,5.1-7.5,5.2C0.3,46.2-2.3,42.6-3.7,40L-3.7,40
			L-3.7,40z"/>
		<path id="path17-5-3-3-8_1_" class="st3" d="M166.6,227.1l-2.1,1.5c-1.8-2.9-3.8-4.8-6.8-4.5c-4.6,0.3-6.5,5.1-5.5,8.7
			c0.9,3.2,4.7,4.8,7.7,3.1c0.7-0.4,1.4-0.7,1.5-0.7c0.3,0,1,1.4,0.9,1.8c-2,2.9-6.9,8.1-6.9,8.1h7.7v-3.4h2.9v6.2h-15v-2.1
			c0,0,4-4.1,5.4-6.4c-3.3-0.1-5.9-2.2-6.9-5.4c-0.6-1.7-0.3-5.6,0.4-7.3c1.2-2.8,4.5-5.1,7.5-5.2
			C162.6,221,165.2,224.5,166.6,227.1L166.6,227.1z"/>
	</g>
</g>
</svg>
