<svg id="Layer_1" data-name="Layer 1" xmlns="http://www.w3.org/2000/svg" viewBox="0 0 180 250"><defs><style>.cls-1{fill:#d40000;}</style></defs><title>all_cards</title><g id="g11153-5-1"><path id="path10240-7-9" class="cls-1" d="M48.26,117.73s-3.76-6.14-8.84-13.36c-3.4-4.83-6.11-10.06-6.36-14.56-.29-5.14,2.45-10.31,7.41-10.56s7,4,7.79,7.45c.82-3.48,2.83-7.7,7.79-7.45s7.7,5.42,7.41,10.56c-.25,4.5-3,9.73-6.36,14.56C52,111.59,48.26,117.73,48.26,117.73Z"/><path id="path10242-3-8" class="cls-1" d="M13.88,56.1s-1.79-2.56-4.21-5.56c-1.62-2-2.91-4.19-3-6.07a3.89,3.89,0,0,1,3.53-4.4c2.36-.1,3.32,1.65,3.71,3.1.39-1.45,1.35-3.2,3.72-3.1a3.9,3.9,0,0,1,3.53,4.4c-.12,1.88-1.41,4.06-3,6.07C15.68,53.54,13.88,56.1,13.88,56.1Z"/><path id="path10244-4-5" class="cls-1" d="M166.12,193.9s-1.8,2.56-4.22,5.56c-1.62,2-2.91,4.19-3,6.07a3.9,3.9,0,0,0,3.53,4.4c2.37.1,3.33-1.66,3.72-3.1.39,1.44,1.35,3.2,3.71,3.1a3.89,3.89,0,0,0,3.53-4.4c-.12-1.88-1.41-4.06-3-6.07C167.91,196.46,166.12,193.9,166.12,193.9Z"/><path id="path10250-9-0" class="cls-1" d="M48.26,64.7s-3.76-6.14-8.84-13.36c-3.4-4.83-6.11-10.05-6.36-14.56-.29-5.14,2.45-10.31,7.41-10.56s7,4,7.79,7.45c.82-3.48,2.83-7.7,7.79-7.45s7.7,5.42,7.41,10.56c-.25,4.51-3,9.73-6.36,14.56C52,58.56,48.26,64.7,48.26,64.7Z"/><path id="path10254-7-3" class="cls-1" d="M131.74,117.73s-3.76-6.14-8.84-13.36c-3.39-4.83-6.11-10.06-6.36-14.56C116.25,84.67,119,79.5,124,79.25s7,4,7.79,7.45c.82-3.48,2.83-7.7,7.79-7.45s7.7,5.42,7.41,10.56c-.25,4.5-3,9.73-6.36,14.56C135.5,111.59,131.74,117.73,131.74,117.73Z"/><path id="path10256-4-7" class="cls-1" d="M131.74,64.7S128,58.56,122.9,51.34c-3.39-4.83-6.11-10.05-6.36-14.56-.29-5.14,2.45-10.31,7.41-10.56s7,4,7.79,7.45c.82-3.48,2.83-7.7,7.79-7.45s7.7,5.42,7.41,10.56c-.25,4.51-3,9.73-6.36,14.56C135.5,58.56,131.74,64.7,131.74,64.7Z"/><path id="path10258-5-9" class="cls-1" d="M90,144.24s-3.76-6.14-8.84-13.35c-3.39-4.83-6.11-10.06-6.36-14.57-.29-5.14,2.45-10.3,7.41-10.55s7,4,7.79,7.44c.82-3.47,2.83-7.69,7.79-7.44s7.7,5.41,7.41,10.55c-.25,4.51-3,9.74-6.36,14.57C93.76,138.1,90,144.24,90,144.24Z"/><path id="path10266-8-9" class="cls-1" d="M131.74,132.27s-3.76,6.14-8.84,13.36c-3.39,4.83-6.11,10.05-6.36,14.56-.29,5.14,2.45,10.31,7.41,10.56s7-4,7.79-7.45c.82,3.48,2.83,7.7,7.79,7.45s7.7-5.42,7.41-10.56c-.25-4.51-3-9.73-6.36-14.56C135.5,138.41,131.74,132.27,131.74,132.27Z"/><path id="path10268-2-7" class="cls-1" d="M48.26,132.27s-3.76,6.14-8.84,13.36c-3.4,4.83-6.11,10.05-6.36,14.56-.29,5.14,2.45,10.31,7.41,10.56s7-4,7.79-7.45c.82,3.48,2.83,7.7,7.79,7.45s7.7-5.42,7.41-10.56c-.25-4.51-3-9.73-6.36-14.56C52,138.41,48.26,132.27,48.26,132.27Z"/><path id="path10270-1-4" class="cls-1" d="M131.74,185.3s-3.76,6.14-8.84,13.36c-3.39,4.82-6.11,10.05-6.36,14.56-.29,5.14,2.45,10.31,7.41,10.56s7-4,7.79-7.45c.82,3.48,2.83,7.69,7.79,7.45s7.7-5.42,7.41-10.56c-.25-4.51-3-9.74-6.36-14.56C135.5,191.44,131.74,185.3,131.74,185.3Z"/><path id="path10272-0-7" class="cls-1" d="M48.26,185.3s-3.76,6.14-8.84,13.36c-3.4,4.82-6.11,10.05-6.36,14.56-.29,5.14,2.45,10.31,7.41,10.56s7-4,7.79-7.45c.82,3.48,2.83,7.69,7.79,7.45s7.7-5.42,7.41-10.56c-.25-4.51-3-9.74-6.36-14.56C52,191.44,48.26,185.3,48.26,185.3Z"/><path id="path29-5-8-5-4" class="cls-1" d="M6.45,32.45l2.43-.76a4.32,4.32,0,0,0,4.74,3c3.52-.28,4.69-4.19,5-7.66a7,7,0,0,1-5.19,2.11c-5.62-.3-7.06-4.77-7.11-9.45-.15-3.94,1.49-6.8,4.3-8.11a9.63,9.63,0,0,1,6.4.12c3.44,1.81,4.72,4.93,4.49,12.37,0,6.13-1.31,13.27-7.91,13.42a6.39,6.39,0,0,1-7.11-5ZM16,25.74a5.78,5.78,0,0,0,2.31-2.41,4.55,4.55,0,0,0,.44-3c-.31-4.44-2.65-7-6.05-6.47a4.1,4.1,0,0,0-3.53,3.3C8.09,20.8,9.48,25,12.09,26A5.08,5.08,0,0,0,16,25.74Z"/><path id="path29-6-2-3-6-6" class="cls-1" d="M173.55,217.55l-2.43.76a4.31,4.31,0,0,0-4.74-3c-3.53.28-4.7,4.19-5,7.66a7,7,0,0,1,5.19-2.11c5.62.3,7.06,4.77,7.11,9.45.15,3.94-1.49,6.8-4.3,8.11a9.63,9.63,0,0,1-6.4-.12c-3.45-1.81-4.72-4.93-4.49-12.37,0-6.13,1.31-13.27,7.91-13.42a6.39,6.39,0,0,1,7.11,5ZM164,224.26a5.78,5.78,0,0,0-2.31,2.41,4.54,4.54,0,0,0-.44,3c.31,4.44,2.65,7,6,6.47a4.07,4.07,0,0,0,3.52-3.3c1.1-3.63-.29-7.87-2.9-8.84a5.08,5.08,0,0,0-3.92.27Z"/></g></svg>