<?xml version="1.0" encoding="utf-8"?>
<!-- Generator: Adobe Illustrator 23.0.1, SVG Export Plug-In . SVG Version: 6.00 Build 0)  -->
<svg version="1.1" xmlns="http://www.w3.org/2000/svg" xmlns:xlink="http://www.w3.org/1999/xlink" x="0px" y="0px"
	 viewBox="0 0 180 250" style="enable-background:new 0 0 180 250;" xml:space="preserve">
<style type="text/css">
	.st0{fill:#FFFFFF;}
	.st1{fill:#E2CF00;}
	.st2{fill:#131F67;}
	.st3{fill:#D40000;}
	.st4{fill:#100F08;}
</style>
<g id="white-background">
	<rect class="st0" width="180" height="250"/>
</g>
<g id="Layer_1">
	<g id="g5584_1_" transform="translate(-3.9869344,-5.552442)">
		<g id="g11322-4-2_1_" transform="matrix(0.99553774,0,0,0.99680134,457.41051,-265.45153)">
			<path id="path147-6-9-8-7-0-5-6-79-2-4_1_" d="M-288.6,482.5c3.2-0.1,4.6-3.8,2.3-6.6c-0.3-0.4-0.4-0.7,0.2-0.3
				c1.6,1.1,4.6,0.4,4.8-3c0.2-4.1-5.4-5.3-6.4-0.9c-0.1,0.5-0.4,0.5-0.3-0.2c0.1-1.8,0.6-3.5,1.4-5.1c-1.3,0-2.5,0-3.8,0
				c0.7,1.6,1.3,3.3,1.4,5.1c0.1,0.7-0.3,0.7-0.3,0.2c-1-4.4-6.6-3.2-6.4,0.9c0.2,3.4,3.2,4.1,4.8,3c0.6-0.4,0.6-0.2,0.2,0.3
				C-293.2,478.7-291.8,482.4-288.6,482.5L-288.6,482.5L-288.6,482.5z"/>
			<path id="path147-6-9-8-7-4-5-62-3-3-7_1_" d="M-441.5,312.1c-3.2,0.1-4.6,3.8-2.3,6.6c0.3,0.4,0.4,0.7-0.2,0.3
				c-1.6-1.1-4.6-0.4-4.8,3c-0.2,4.1,5.4,5.3,6.4,0.9c0.1-0.5,0.4-0.5,0.3,0.2c-0.1,1.8-0.6,3.5-1.4,5.1c1.3,0,2.5,0,3.8,0
				c-0.7-1.6-1.3-3.3-1.4-5.1c-0.1-0.7,0.3-0.7,0.3-0.2c1,4.4,6.6,3.2,6.4-0.9c-0.2-3.4-3.2-4.1-4.8-3c-0.6,0.4-0.6,0.2-0.2-0.3
				C-436.9,315.8-438.3,312.1-441.5,312.1C-441.5,312.1-441.5,312.1-441.5,312.1L-441.5,312.1z"/>
			<path id="path35-5-6-2_1_" d="M-441.6,283v2.8h2.7c0,0,0.1,2.7,0.1,8.4c0,5.5,0.1,8.3-0.2,9.8c-1,3.6-6.2,3.6-7.3,1
				c-0.6-1.5-0.4-2.7-0.5-4.2h-2.9c0,0,0,0.8,0,1.7c0,4.1,1.4,6,4.6,6.8c3.3,0.9,7.1-0.5,8.4-3.2c0.8-1.6,0.7-1.7,0.7-11.2
				c0-6.4,0.1-9,0.1-9h2.5V283H-441.6L-441.6,283z"/>
			<path id="path35-6-4-1-2_1_" d="M-288.5,511.5v-2.8h-2.7c0,0-0.1-2.7-0.1-8.4c0-5.5-0.1-8.3,0.2-9.8c1-3.6,6.2-3.6,7.3-1
				c0.6,1.5,0.4,2.7,0.5,4.2h2.9c0,0,0-0.8,0-1.7c0-4.1-1.4-6-4.6-6.8c-3.3-0.9-7.1,0.5-8.4,3.2c-0.8,1.6-0.7,1.7-0.7,11.2
				c0,6.4-0.1,9-0.1,9h-2.5v2.8H-288.5L-288.5,511.5z"/>
		</g>
		<g id="g5275-8-4-5_1_" transform="matrix(-1.0167845,0,0,-1.022439,3595.0799,-394.58247)">
			<g id="layer1-1-8-4-5_1_">
				<g id="g3799-8-1-3_1_" transform="matrix(0.15171281,0,0,0.15171281,623.2491,453.89661)">
					<path id="path3306-4-9-5_1_" class="st1" d="M18326.7-5726.1c-4.5,6.3-23.8-37.8-36.2-71.3c-6.1-16.4-14.2-30-10.9-34.3
						c8.8-8.9,31.7-0.9,48.4,11.7c17.8,13.5,30.3,33.5,30.3,33.5L18326.7-5726.1z M18170.8-5758.9l-0.7-26
						c15.3-13.7,34.3-30.5,56.6-56l-59.4-0.3c0.5-319.1-0.5-958.7-0.5-958.7s66.1,66.4,64.5,66.6c-0.1,0,1.9,386.4,2.1,646.3
						c0.5,1.2-34.5,1.3-36.8,18.3c-1.5,11.2,36.8,9.7,37.4,10.4c-0.1,116.8,0.4,199.3,0.4,199.3l35.1,1.1L18170.8-5758.9z
						 M18377.2-5879.1c-5.1-10.1-13.2-48.9-19.5-47.9c-28.6,9.4-37.8-32.4-8.2-34.6c11.2-0.8,23.7,13.6,30.7,31.6
						C18383.6-5920.6,18380.1-5875.4,18377.2-5879.1L18377.2-5879.1z M18383.6-5937.3c-8.4-13.6-16.5-63.5-31.8-60.7
						c-14,3.2-23-9-21.6-19.7c7.2-30,58.5-1.5,72,5.4C18395.5-5997.2,18386.1-5959.7,18383.6-5937.3z M18275.2-6077.9
						c11.8-26.4,8.6-48-1.4-74.5c30.5-13,60.6-28.5,90.6-44c0.2,0.1,1.5,104-8.5,151.4c-3.4,7.2-15.8,1.5-22.9-2.1
						C18313.8-6056.1,18293.1-6066.3,18275.2-6077.9z M18816.5-6555.1c-6.2-49.1-1.7-125.5,7.1-155.7c3.4-10.2,74.1,35.9,79.2,39.1
						c-13.9,25.6,5.1,85,3,74.4C18900.9-6594.1,18818.1-6550.2,18816.5-6555.1L18816.5-6555.1z M18786.1-6758.9
						c1.3-3.2,6.6-39.9,8.2-40c5.4-0.5,13.2,36,26.9,48c25.8-3,28.8,14.4,23.8,22.8c1.2,3.7-8.3,11.7-17.3,10.9
						C18805.5-6725.9,18775.5-6733.5,18786.1-6758.9z M18489.9-6821.7c0,0,19.4-108,19.5-107.9c48-6.9,94.2-14.7,136.9-9.9
						c-8.4,112.3-21.7,209.4-58.1,226.3l75.5,60.2c0,0,83.8-51.8,79-51c-2.1,0.6-3.7,44.1-4.9,114.4
						c2.1,183.7,108.8,369.6,112.9,367.7c2.3,1.5-90.8,8.7-157.8-19.9l-3,243.2c0,0,33.2,16.4,39.3,24
						c12.2,42.3-20.8,53.1-40.6,42.5c-9.3,32.2-23.3,111.7-23.8,111.6c-44.7,7.3-90.9,13-136.6,10.4c7.7-37.4,12.5-65.9,15-103.5
						c5.8-56.1,17.4-109.2,47.1-121.9c-5.3,2.1-74.5-57.8-74.5-57.8l-84,51.2c27.2-175-19.3-345-99.3-482.5
						c40.4-4.6,86.1-2.4,157.4,18.7c0,0-4-243.7-4-242.3C18406.9-6778.8,18450-6838.8,18489.9-6821.7z M18796.7-6843.5
						c0.3-2.5,1.4-30,1.4-30c11.2,13,20.2,51.1,22.4,50.4c0,0,14.3-2.2,18.8,2.5c14.5,15.4,0.2,33.5-14.3,30.1
						C18810.6-6794.1,18794.7-6818.7,18796.7-6843.5z M18945-6017.3c0,0-3.1-432.1-3-648.7c55.2,0.9,44.3-29.5-0.7-26.3l-0.1-199.7
						l-29.9-1c0,0,56.2-58.2,91.9-95.4l0.8,18.9l-54.3,58l56.2-0.1l0.2,958.2L18945-6017.3z M18851.2-7021
						c13.6-2.9,27.8,59.3,51.4,97.1c-26.8,15.9-69.1-14.4-78.6-38.7C18830.2-6983.3,18851.6-7020.8,18851.2-7021z"/>
					<path id="path3304-4-6-6_1_" class="st2" d="M18159.4-7059.5v1364.6h857.3v-1364.6H18159.4z M18443.5-6772.1
						c1.2,2.2,3.1,5.4,3.1,5.4s-2.1,0.5-3.5,1.5c-99.3,36.5-205.6,117.8-207.5,120.2v-90l-65.8-68.7v-243.8h258.5l75.8,125.8
						c-4.6,33-16.4,96.7-16.4,96.7c-7-1.7-30.4-3.9-43.1,14.2C18438.6-6802.4,18435.4-6790.6,18443.5-6772.1L18443.5-6772.1z
						 M18927.9-6491.5l9.8-12.3l-17.3,0.8l11.9-12.8l-19.1-0.4l14.9-12.6l-20.1-0.2l15-12.4l-22.1,1l15.8-13.5l-21.8,0.1l16.3-13.5
						l-21.3-0.3l13.8-12.2l-18.6-0.2l21-14.7c9,3.9,21,6.1,33.2,6.4l0.3,98.8L18927.9-6491.5z M18943-6662.7
						c49.2,0.2,59.7-25.9,0.3-30.1c1.1-65.7-2.7-197-2.7-197l-32.4-0.8c0,0,86.8-93.1,95-100.6c7.4,312.8,7.1,1039.1,7.1,1039.1
						l-66.3-65.9l-0.7-205.4c-22.2-22.3-34.9-54.9-48.1-76l-36.3-17.5l8.5-28.9l-3.6-8.2l-11.3,40.9l39.7,18.7l4.2,8.5l-6.7,38.6
						l37.6,12.8l6.5,8.9l-2.4,37.7l7.9,2.4v7.5l-7.8-0.7l-2.8,42.3l10.6,3.1v9.5c0-0.2-6.2,0-9.3-0.2c-4.2-2.3-11.1-11.2-11.1-11.2
						l3.7-47l-47.6-9.5l-3.5-5l8.8-47l-50-15.2c5.1,12.5,11.9,24.3,17.6,36.6c-6.9,2-14,2.4-21,3.9c-1.9,63.4,0.3,129.4-1.7,189.1
						c-40.2,2.9-21.4-0.9-38.9-0.7c-6.8,0-12.4,5.5-12.4,12.3c0,4.3,2.3,8.2,5.7,10.4l-6.9,2.5l-12.1-13.6l25.3-24.1l-0.2-6.9
						l-31.5,31.2l13.6,15.6l-8.1,4.2l-12.4-13c0,0-26.7,27.2-25.1,27.7c0.8,0.2,2.3,1.6,3.3,3c19,40.8-6.9,60.3-38.3,49
						c-8,37.6-15.6,71.5-21.9,110.4c-23.5,8.8-133.9,13.9-135.1,11.9c0,0-2.8-2.7-2.9-4c0.5-1.7-3.2,3.6-3.2,3.6
						c0,2.3-96.2-2.4-143.7-11.4c0,0-1-4.5-0.6-10.5c0.8-12-0.1-11.8,10.8-10.1c22.4,1.5,39.7-6.1,46.6-25.7
						c3.9-11,2.1-20.8-3.9-50.1c-5.7-28.5-5.8-25.4-5.1-29.2c0.8-4.5,5.7-9.6,12.8-15.2c5.3-4.3,5.8-12.4,1.6-7.9
						c-2.9,4.3-8.1,5.8-12.8,8.2c-10.9,5.7-10.5,11.1-4.1,34.5c3,11,6.2,22.8,6.3,24.2c0.3,4.3-1.2,2.5-7.7-1.9
						c-4.2-3-8.9-5.5-13.2-8c-13-6.9-7.3,0.7,5.3,9c9.9,7.3,11.5,10.4,3,6.9c-8.8-3.6-21.4-2-31.2,1.7c-1.9,1.1-3.4,0.9-3.7-0.8
						c-0.4-2.7,1.2-9.6,2-25.5c1.8-40.1,11.4-82.9,38.3-107.7c38.5-35.4,101.8-11.4,136.9,21.4l3.8-5.7
						c-23.6-19.6-64.4-44.1-104.2-39.4c16.6-13.8,53.3-36.6,53.3-36.6c25.2,18.1,43.7,36.2,71.4,55.8l4.8-3.2l-76-59.8l-81.9,53.6
						c0,0,3.4-51.4,4.7-70.2l-35.5,31.2l27.4,40.3l-29,29.7c0,0,4.9-0.7-0.5,8.5c-8.2,16.5-13.1,43-16.9,69.9
						c0.7,20.1-4.3,42.4-5.8,60.1c-2.7-16.6-5.9-25.3-12-40.4c-5.7-14.5-7.9-14.4-14.3-12.3c-34.7,2.9-19-63.6,22-20.1
						c1.8,1.8,4.8,4.1,4.9,3.7c0.9-2.7-10.9-37.7-15.4-45.8c-4.8-8.5-4.8-9.7-12-9c-13.4,1.4-17.9-3.4-19.2-17.3
						c1.8-26.4,30.5-15.2,48.9-7.1c1.7,1.3-8.6-9.3-12.3-13c-5-5.1-5.8-8.3-5.8-8.3l1.1-14l28.2-25.5l-23.2-34l1-12.1l24.8-29.5
						l-26.4-28.4l-0.3-10.1l21.4-28.3l-28.7-22.9l-1.4-9.1c0,0,18.4-33.9,17.9-35.1c-0.4-1-31.1-22.1-31.1-22.1l-3.1-14.3l13.3-36.2
						l-31.9-18.1l-5.9-16.3l9-33.5l-33.1-15.2l-9.4-18.9l6.1-35.2l-37.1-10.9l-9.8-15.5l1.3-31l-9.1-0.9l0.1-7.6l10.1,0.1
						c0,0-0.8-1.1,0.3-16.4c1.9-26,2.1-25-4.2-26.1c-13.2-2.3-10.2-10.3,3.3-8.8c2.1,0.2,3.8,0.4,5.3,0.7c3.6,0.7,6.3,5.2,6.3,5.2
						l-3,48l47.5,7.9l4.5,6l-7.9,44.5l44.6,12.8l6,10.8l-12.6,46.3l44.9,19.6l3,8.6l-19.1,41.1l41.3,19.9l2.6,9.9l-22.9,42.4
						l47.6,34.4c0,0-1.3-3.4-3.2-9l-37.7-26.7l19.1-36.2c0,0,1.5,2.6,3.1,2.1c-1-6-1.7-12.1-2.1-18l-19.5-50.4l63-42
						c-27-16.1-61-15.6-92.3-21.6c0,0-1.4-4.3-3.7-8.2c-9.1-14.5-17.3-32.9-27.4-51.9c7.5-3.5,10.7-3.1,18.7-4.6
						c11.1-61.9,22.1-133.2,39.8-187.1c7.7,0,14-6.2,14-13.9c0-4.2-1.9-7.9-4.8-10.5c1.7-0.5,3.6-1,5.5-1.4
						c2.6,0,12.9,11.3,12.9,11.3l-26.5,26l-0.2,8.6c10.6-10.9,33.9-34.6,33.9-34.6l-14-14.6l6.9-3.2l11.4,12.4l25.5-26l6.5,4.4
						c-8.6,11.2-14.2,14.8-27,28.1c6.7,7.9,32.7,32.8,32.7,32.8l-0.1-8.6l-25.6-24.7l24.9-24.7l1.4-1.6c0,0,19.8,8.5,21,8.5
						c-8.4-6.9-23.5-12.8-31.7-18.7c-37.2-21.8-1.9-66.8,32.4-55.7c1,3.6,18.9-95.1,16.9-100.5c1.8-15.3,2.2-13.1-3.1-21.9
						c-16-36.5-62.6-105.7-62.6-105.7l419.3-2.7c-4.4,8.5-8.8,15.3-12.1,25.2c0,0,23.6,24.4,32.2,56.4c4.8,17.9,11.7,34.6,23.8,46.5
						c0.2,0.4-0.4,1-1.2,1.5c-33.2,11.6-70.9-16.5-82.6-48.5l-19,30.8c8.6,1-126.6-15.2-159.8-11.1c2.9,0.6,6.4,3,4.5,12.2
						c-3.4,15.9-9.4,73.5-9.4,73.5c-6.7,56-11.8,126.4-49,149.7c0,0,5.7,6,10.6,9.1c0.1-0.1-4.4-4.6-4.5-5.1c0-1.6,1-2.7,2.1-3.5
						c7.9-6.3,17.5-19.5,17.2-19.9c30.7,26.5,78.8,49.3,107.8,39.8c11.4-2.4,16.5-13.3,22.6-4.4c-7.9,48.2-7.3,101.2-4.3,142.9
						c4.7,92.8,25.4,146,45.8,211.8c-10.5,3.7-64.5,39.6-64.5,39.6c-0.3,4.6,65.1,19.5,90.8,16.8c0,0,5.3,5.1,5.3,4
						c-0.1-0.3-0.3-0.7-0.5-1c3.8-2.1,6.4-6.2,6.4-10.8c0-6.8-5.5-12.3-12.4-12.3c-1.3,0-2.5,0.2-3.7,0.6c-3.2-7.9-6-14.7-6-14.7
						l36.3,15.7l-11.8,39.5l4,8.8l14.4-51.4l-46.4-19.7l-3.1-9.1l19.2-39l-41.5-24.4l-1.8-7.8l22.3-41.9l-40.2-30.6l29.4-37.7
						l-36.2-30.2l0.4-5l30-34.3l-31-31.6l-0.9-12.8l33.8-29.8l-29.2-42c12.2-8.1,18.9-17.4,26.9-26.6l7.1,3.1l-25.9,19.5l27.7,39.7
						l29.2-26.2l-15.8-25.6l9.6,4.3l8.8,13.7l-1.4,14l-28.8,26.1l24.8,35.6l0.2,6.5c0,0-15.4,17.6-26.6,30.7l31.4,34.4l-25.7,32.5
						l32.3,27.3l-0.9-8.2l-23.8-20l18.3-22c1.3-13.3-1.6-36,5.2-46c-11-10.7-5.3-36.6,0.2-44.9c-10.5-12.4-4.5-39.6,2.2-40.7
						c-8-10-4.8-30.3,1.9-36.9c2.2-1.1-28.7-12.2-48.2-25.5c16.2-30,12.4-58.1,17.5-68.3c7,20.1,16,41.5,23.7,56.9
						c0.8,1.6,2.5,1.2,5.1,1.3c32.2,2.8,29.1,29.2,5,36c0,0,49.1,36.3,74,40.3c0.3,0.6,0.1,1.5-0.8,3.2c-3.5,7.3-5.6,19.8-6.1,30.8
						c-1.8,16.4,6.2,41.6,6.2,41.6l-10.2,6.3c-2,8.7-13.4,8.8-14.5,15c2.4,26.5,54.6,128.2,65.6,139.7
						C18946.9-6511.7,18939-6590.4,18943-6662.7z M18931.1-6477.8l8.5-6.9l-0.2,11L18931.1-6477.8z M18939.3-6461l-4.3-3.2l4.3-4.7
						L18939.3-6461z M18414.5-6331.6c0.8,5,1.7,10,2.8,14.8c-6,1.6-10.4,7-10.4,13.4c0,7.7,6.3,13.9,14,13.9c1.1,0,2.2-0.2,3.2-0.4
						c2.2,7.7,4.3,14.3,5.9,19.1l2.8,2c-7.7-26.4,7.2-40.7-14.7-62.6C18417.7-6332.4,18416.1-6332.1,18414.5-6331.6z
						 M18866.7-7048.6l136.5,0.9v50l-105.2,111l40.5,0.5l-0.4,190.5c-11.1,4.6-21.7,11.7-32,18.6l-64-35.1l-4.6-2.3
						c0,0,1.8-0.5,5.5-2.9c7.2-4.7,10-16.3,6.7-25c-5.4-14.2-16.5-11.7-25.7-11.7c-7.7-5.9-14.3-25.6-19.6-38.7
						c-2.5-5.7-4.9-10.1-5.5-13.4c-0.6-3.1-0.6-5.7-0.6-5.7s1.2,0.4,3.1,4.1c10.2,21.3,34,31.6,46.6,11.5c6.4-12.4,2-26.5-8.8-30.4
						c-3.3-1.2-14.5,0.1-14.5,0.1c-0.7,0.4-8.1-10.5-18.7-46.1c-4.3-14.7-5.5-46.7-1.3-51.3c7-8.4,8.8-20.3,14.7-28.8
						c2.7-5.3,2.5-2,6.8,3.9c14.4,20.3,39.6,36,62.7,35c16.4-0.7,21.5-6.3,17.6-11c-9-9.1-14.9-22-17.8-33.2
						c-6.9-26.1-14.2-49.4-32.6-69.7L18866.7-7048.6z M18797.4-6924.5c1.7,1.6,0.4,4.1,0,8.6c-0.8,11.5-1,11.6-7.7,8.7
						c-12.7-5.5-30.7-0.7-41.5,11c-13.7,14.7-14.1,29.9-5.6,59.8c9.7,33.7,9.5,38.1-2.2,45c-7,5.9-14.2,18.4-11.5,18.4
						c0.4,0,1.4-0.8,2.2-1.7c0.8-0.9,7.2-6,12.2-9.4c13.6-9.2,17.8-13.9,11.6-31c-6.2-16.8-11.1-33.2-8.6-34.3
						c1.2-0.5,5.9,5,8.8,6.6c5.9,3.4,18.5,9.6,20,9.6c2.1,0-0.1-1.5-6.2-5.5c-16.3-10.7-23-20.3-7.3-14.2c8.4,3.3,17.4,1.4,22.4-0.3
						c5.9-1.9,8.9-3.8,9.6-1.6c0.9,10.4,0,21-0.6,31.5c-0.2,0.7-1,7.8-1.8,15.7c-3,30.3-8.2,55.8-21.6,72.2
						c-44.8,55-95.9,39-153.2-5.1c21.4-58.8,19.9-104.7,25.2-123.3c4.9-1.5,10.7,1.4,14.3,3.4c8,4.5,17.1,7.2,25.8,7.7
						c8.1,0.4,9.5-0.7,8.8,1.7c-0.6,1.8-13.7,5.7-21.7,7.3c-14.6,3-13.5,6.4-1.2,5.3c12.9-1.2,25.4-6.3,38.6-15
						c9.2-6.1,9.5-6.1,7-13.6c-0.6-1.8-1.8-4.6,2.5-6.2c4.5-1.7,3.9-3.5,1.3-5.5c-0.6-0.5-2.3-0.6-2.9-1.1c-0.8-0.6,0.1-3.5,0.1-3.9
						c-16.7-14-46.1-14.4-70.3,0c-1.2-0.4-2.5-2.3-1.3-4.9c2.5-5.5,28.6-12.1,47-12.4c8.4-0.1,10.1,0.9,22.8,4.8
						c5.2,1.6,8.1,2,8.6,1.2c1.1-1.8-0.8-7.1-4.8-10c-13.5-9.6-33.3-8.9-60.2,1.7c-14.4,5.7-12.9,7.6-8.3-20.6
						c1.3-7.8,2.8-13.8,2.8-13.8S18776.7-6933.1,18797.4-6924.5z M18778-6898c6.7,0,12.8,1.7,16.3,5.1c5.2,5.7-0.3,7.5-8.5,4.4
						c-10.6-4-22.5-1.7-31.8,4c-6,3.7-7.2,1.7-2.2-3.6C18757.8-6894.4,18768.3-6898,18778-6898z M18682.2-6888.2
						c11.6-0.1,22.3,2,26.6,6.9c4,4.4,0.1,4.9-9.8,1c-14-5.4-32.8-3.7-48.2,3.9c-7.9,3.9-10.4,4.7-9.3,0.2
						C18646.2-6883.3,18665.2-6888,18682.2-6888.2z M18775.1-6884.6c11.1,0,20.5,2.5,18.7,8.3c-0.6,2.1-1.2,0.8-9.1-1.6
						c-7.9-2.4-18-1.5-28.2,1.4c-9.5,2.7-11.3,3.4-7-0.7C18754.7-6882.1,18765.4-6884.6,18775.1-6884.6z M18797.7-6879
						c11.2,17.1,13.2,42.3,25.1,55.9c22.1-4.1,32.5,16.5,13.9,30.2c-9.4,5.2-20.9,1.3-29.4-12.5c-8.1-13.1-10.3-21-10.6-29.4
						C18797.5-6852.1,18796.5-6861.5,18797.7-6879z M18668.5-6871.2l4.9,0.6c3.6,11.9,11.5,12.7,16.2,0.2l3.7,0.6
						C18687.7-6854.5,18673.7-6853.9,18668.5-6871.2z M18660.9-6870.9c2-0.1,3.7,2,4.6,4.8c1.9,6.4-0.3,5.6-4.7,2.9
						c-4.5-2.7-7.9-4.5-5.3-5.6C18657.5-6869.8,18659-6870.5,18660.9-6870.9z M18702.9-6866.9c1.7,2.1,2.1,3.7-0.1,5.2
						c-2.1,1.1-3.7,1.8-5.7,2.5c-2,0.6-3.2,0.1-2.4-2.7c0.5-2.4,2-5.9,3.2-7.2C18699.8-6869.4,18701.9-6868.1,18702.9-6866.9z
						 M18762.2-6868.3l3.9,0.3c4.1,10.9,13.6,10.6,17.2,1.1l3.5,0C18780.2-6850,18766.9-6853.1,18762.2-6868.3z M18755.2-6866.9
						c3.7,0,7.3,5.3,5.3,8c-2.1,1.7-11.2-0.2-12-3.6C18748.1-6864.5,18751.5-6866.9,18755.2-6866.9z M18791-6865.9
						c1.8,0.4,1.7,1.8,1.7,2c0.9,4.5-4.4,6-5.6,4.3C18786.4-6860.5,18789.3-6864.1,18791-6865.9z M18705.7-6818.1
						c-9.1,2.5-13.3,10.3-12.7,19c0.5,7,4.1,12.7,9.5,14c10.8,2.4,18.3-5.1,29.4-8.1c4.8-1.2,3.7-7.4,0.6-10c-3.9-3.4-10-1.3-18,4.9
						c-15.9,12.1-19.7-11.1-5.2-15.2C18711.5-6814.2,18710.5-6819.4,18705.7-6818.1z M18236.7-6284.1l6.2,1.8l-6.2,7.2
						C18236.7-6275.1,18236.7-6281.3,18236.7-6284.1L18236.7-6284.1z M18253.9-6259.3l-12.7,14.2l17.3-1.3l-11.7,12.1l18,0.7
						l-13.2,13.6l17.7-0.4l-13.1,13.1l16.7,0.5l-11,12l18.3-1.4l-13.4,14.3l19.6-0.3l-14.9,13.4l19.6-0.1l-5.9,6.7l5.2,2.6
						c5.3-2.5,36-12,37.1-19.1c-6.8-1.8-26.8,8.3-28.1,6.6c-8-35.1-42.5-112.7-65.3-135.3l-1.6,219.2c-3.5,3.2-9,1.6-12.6,3
						c-11.5-0.6-30.8,18.6-20.8,22.4c5.3,1.2,34.5,6.1,34.6,7.6c3.6,63.5-2.2,127.4,0.5,195.3c8.2,1.2,34.9,2.7,34.9,2.7
						s-97.9,101.4-99.8,99.4c2.3-108.7,1.1-321.2-0.8-322c0-6.4,2.3-19.8,2.3-19.8l-2.1-676.1c0,0-0.6-3-1.7-5
						c-2-3.3-2.2-4.1-2.3-14.3c-0.8-6.3,0.1-7.9,0.1-7.9l0,0l67,70.2l0.1,196.5c0,0,63.4,92.9,78,135.8c32,63.9,28.5,157,47.9,192.7
						c0.4,0,0.8,0,1.2-0.1c0.5,5.2,0.5,7.3,1.3,8.1c1.5,11.6,3,27.5,3,27.5l-7,11.1l7.8,10l0,26.5l-10.4,10.5l9.5,12l-2.7,24.8
						l-7.4,6.6l4.2,5.7c0,0,0.7,8.9-1,19.2c-1.1,6.9-8,6-22.4-1.2c-20.3-7.6-41.1-21.3-57.2-31.6c1-12.9,17-42.3-5.3-74.8
						c-8.3-6.2-32.3-3.9-34.4-4.8l0.2-99.9 M18236.9-6269.9l10.8-1.9l-10.9,10.9L18236.9-6269.9z M18753-6768.8
						c-0.9,0.1-2,0.9-3.4,2.5c-1.5,1.7-3.9,1.2-10,0.9c-6.5-0.4-8.2-0.2-12.5,1.3c-4.9,1.8-5,1.8-8.4,0.3c-5.3-2.2-8.6-2.5-13.5-1.1
						c-6,1.7-9.8,1.2-13.5-0.6c-3.7-1.8-4.9-1.5-6.2,1.9c-0.5,1.4-3.2,6.9-4.4,8.8c-4,6.1-3,7.1,5.3,4.5c5.8-1.8,16.4-2.9,24.2,0.4
						c6,2.5,13.2,1.7,21.7-2c7.5-3.2,14.9-4.3,22.1,1.7c4.2,3.5,4,0.8,2.9-6.4C18756.1-6764.6,18755.2-6769,18753-6768.8z
						 M18468.8-6743.3c-7.7,0-14,6.2-14,13.9c0,7.7,6.3,13.9,14,13.9C18472.5-6718.5,18474.4-6742.7,18468.8-6743.3z
						 M18738.9-6743.2c-8.5,2.9-20.2,6.7-33.4,2.9c-10.3-3.1-7.9,4.6,3.4,5.6c7.8,0.7,7.3,0.7,1.2,6.3c-5.1,4.8,1.3,4.4,4.8,1.5
						c4.1-3.5,15.4-2.6,21.7,0.3c2.8,1.3,3.1-4-0.2-5.1c-8.4-2.9-6.4-3.1,2.8-6.1C18742.6-6738.6,18742.7-6744.4,18738.9-6743.2z
						 M18468.8-6738.6c4.4,1.6,1.7,17.7,0,18.5c-5.1,0-9.3-4.1-9.3-9.2C18459.5-6734.5,18463.7-6738.6,18468.8-6738.6z
						 M18394.2-6738c3.6-1.2,6.1,4.7,6.1,8.6c0,5.1-4.2,9.2-9.3,9.2c-6.3-6.1-7.4-12.9-0.2-16.7
						C18391.9-6737.2,18393-6737.6,18394.2-6738z M18431-6724.4l-29.9,30l29.3,29.5l29.4-30.2L18431-6724.4z M18785-6712.6
						c4.3,0,7.8,3.5,7.8,7.7c0,4.2-3.5,7.7-7.8,7.7s-7.8-3.4-7.8-7.7C18777.3-6709.1,18780.7-6712.6,18785-6712.6z M18430.7-6702.5
						c4.3,0,7.7,3.5,7.7,7.7c0,4.3-3.5,7.7-7.7,7.7s-7.7-3.4-7.7-7.7C18423-6699,18426.4-6702.5,18430.7-6702.5z M18748.5-6695.1
						l21.4,28.6l-26.2,23.4l1.3-14.5c5.8-1,10.2-6.1,10.2-12.1c0-5.3-3.3-9.7-8-11.5L18748.5-6695.1z M18391.9-6693.5l-0.3,7.8
						l27,26.5l-26.7,27.5l0.2,7.6l33.2-35.1L18391.9-6693.5z M18468.1-6693.5l-33,33.6l31.8,34.5l0.4-8.7l-25-25.6l25.5-25.1
						L18468.1-6693.5z M18944.1-6688.1c6.7,0,12.5,2.2,14.2,6.5c1.4,2.5,2.1,4.6,4.1,5.5c3.9,1.8,9.2,0.6,9.5-0.8
						c0.5,0-6.2-0.6-7.4-1.7c-5.2-4.7-4.4-7.6,3.1-7.1c2.4,0.1,9.1,0.2,9.3,2.8c1.5,9-10.5,15.6-25.9,14.4c-11-1.8-11,2.4-11.8,8.2
						c-0.5,1.9-2.2,5-3.5,7.4c-3.9,6.9-5.2,5.9-2.5,8.6c2.6,3.4,6,7.6,6,11.6l-0.1,36.4c0,0-23-0.1-31-5.8
						c-8.4-15.2-14.1-47.9-1.8-65.9c4.3-5.4,10.6-8,17.9-13.7C18929.6-6686,18937.3-6688.1,18944.1-6688.1z M18813.8-6684l-0.8,10.5
						c-5.9,1-10.3,6-10.3,12.1c0,5.4,3.5,10,8.4,11.6l-0.7,9.2l-17.1-24.4L18813.8-6684z M18746.8-6676.9c2.5,1.4,4.2,4.1,4.2,7.1
						c0,3.6-2.3,6.7-5.6,7.8L18746.8-6676.9z M18390.3-6673.1c-11.8,6.1-7.8,29.7,0,27.8c7.7,0,14-6.2,14-13.9
						C18404.3-6666.9,18398.1-6673.1,18390.3-6673.1z M18467.5-6672.7c-7.7,0-14,6.2-14,13.9c0,7.7,6.3,13.9,14,13.9
						C18477.8-6648.1,18472-6672.3,18467.5-6672.7z M18812.6-6669.2l-1.2,15.2c-2.7-1.3-4.6-4.1-4.6-7.3
						C18806.8-6665.1,18809.3-6668.2,18812.6-6669.2z M18390.3-6668.4c5.1,0,9.3,4.1,9.3,9.2c0,5.1-4.2,9.2-9.3,9.2
						C18387.3-6649.3,18385.3-6666.8,18390.3-6668.4z M18467.5-6668.1c6.2,0.5,1.1,16.2,0,18.5c-5.1,0-9.3-4.1-9.3-9.2
						C18458.2-6663.9,18462.4-6668.1,18467.5-6668.1z M18781.1-6659.3l-30.9,30.5l30.5,33.4l25.4-30.6L18781.1-6659.3z
						 M18430.2-6653.5l-29.6,30.3l28,28.7l29.5-30.9L18430.2-6653.5z M18235.6-6636.9l11,11.4l-11,0.1V-6636.9z M18778.7-6635.8
						c4.3,0,7.7,3.5,7.7,7.7c0,4.3-3.5,7.7-7.7,7.7c-4.3,0-7.7-3.4-7.7-7.7C18771-6632.3,18774.4-6635.8,18778.7-6635.8z
						 M18430.1-6631.6c4.3,0,7.8,3.4,7.8,7.7c0,4.3-3.5,7.7-7.8,7.7s-7.7-3.5-7.7-7.7C18422.3-6628.2,18425.8-6631.6,18430.1-6631.6
						z M18468.3-6622.6l-32.7,33.6l31.6,33.4l0.4-7.9l-25.3-25.3l25.7-26.1L18468.3-6622.6z M18391.4-6622.6l0.3,8.5l26.3,25.8
						l-27.6,27.5l1.1,7.4l33.9-34.8L18391.4-6622.6z M18744.4-6613.4l23.7,23.4l-23.6,26.1l0-13.5c4.9-1.7,8.4-6.3,8.4-11.7
						c0-5.4-3.5-10-8.4-11.6L18744.4-6613.4z M18809.7-6612.2l0.2,9.6c-5.3,1.4-9.3,6.2-9.3,11.9c0,5.9,4.3,10.9,9.9,12.1l0.2,7.6
						l-18.7-20.5L18809.7-6612.2z M18262.5-6607.9c0,0,7.9,8.4,10.6,11.8c-2.1,2.4-3.4,5.6-3.4,9c0,7.7,6.3,13.9,14,13.9
						c2.2,0,4.3-0.5,6.2-1.5c1.4,2.1,7.8,10.8,7.8,10.8l-37.2-5.9L18262.5-6607.9z M18468.2-6602.3c-7.7,0-14,6.2-14,13.9
						c0,7.7,6.3,13.9,14,13.9C18482.2-6577.4,18479.4-6601.6,18468.2-6602.3z M18390.2-6601.8c-19.9,2.2-14.8,27.3,0,27.8
						c7.7,0,14-6.2,14-13.9C18404.2-6595.6,18398-6601.8,18390.2-6601.8z M18810-6598.3l0.4,15.4c-3.3-1.1-5.6-4.2-5.6-7.8
						C18804.8-6594.2,18807-6597.1,18810-6598.3z M18468.2-6597.7c9,3.3,6.3,19.1,0,18.5c-5.1,0-9.3-4.2-9.3-9.3
						C18458.8-6593.5,18463-6597.7,18468.2-6597.7z M18390.2-6597.1c5.1,0,9.3,4.1,9.3,9.2c0,5.1-4.1,9.2-9.3,9.2
						C18377-6580.2,18380.4-6596.8,18390.2-6597.1z M18744.5-6596.3c2.5,1.4,4.2,4.1,4.2,7.1c0,3.1-1.7,5.8-4.2,7.2L18744.5-6596.3z
						 M18276.1-6592.3l10.9,13.9c-1,0.4-2.1,0.6-3.2,0.6c-5.1,0-9.3-4.1-9.3-9.2C18274.4-6589,18275-6590.8,18276.1-6592.3z
						 M18779.7-6586l-25.6,30.5l31.4,27.7l22.3-27.4L18779.7-6586z M18430.4-6582.3l-31.4,31.6l22.1,22.9l-12.2-1.3l-17.7-17.9
						l-0.4,6l9.6,11l-10.3-0.3c-3.7,5.7,19.5,5.9,32.6,8.1c16.7,2.8,52.9,16,44.9,6.3l-9.1-2.3l8.6-10.3l-0.1-7.8l-14.9,15.9
						l-5.1-1.2l21.2-21.7l-1.4-6.6l-26,26.4l-7.6-1.7l26.5-26.8L18430.4-6582.3z M18781-6564.1c4.3,0,7.7,3.4,7.7,7.7
						c0,4.3-3.5,7.7-7.7,7.7c-4.3,0-7.8-3.4-7.8-7.7C18773.2-6560.7,18776.7-6564.1,18781-6564.1z M18429.3-6560.1
						c4.3,0,7.7,3.4,7.7,7.7c0,4.3-3.5,7.7-7.7,7.7s-7.8-3.4-7.8-7.7C18421.6-6556.7,18425-6560.1,18429.3-6560.1z M18253.6-6557.9
						c0,0-2,25.3-3.1,37.5l40.5,10.8l5-40.4L18253.6-6557.9z M18236-6556l5.6,0.2l-0.9,23.6l-5.5-5.8L18236-6556z M18310.9-6545.8
						c0,0,4.1,6.5,8.7,13.7c-2.5,2.5-4.1,5.9-4.1,9.8c0,7.7,6.3,13.9,14,13.9c1.4,0,2.8-0.2,4.1-0.6c1.8,3.4,5.2,8.8,5.2,8.8
						l-34.7-10.1L18310.9-6545.8z M18745.7-6543.2l27.3,22l-21.2,25.9l-1.4-11.1c4.8-1.7,8.2-6.3,8.2-11.6c0-6.4-4.9-11.6-11.2-12.2
						L18745.7-6543.2z M18274.1-6542.8c4.3,0,7.7,3.4,7.7,7.7c0,4.3-3.5,7.7-7.7,7.7c-4.3,0-7.8-3.5-7.8-7.7
						C18266.4-6539.4,18269.9-6542.8,18274.1-6542.8z M18819-6540.4c-6.8,0-12.4,5.5-12.4,12.3c0,6.8,5.6,12.3,12.4,12.3
						C18821.7-6513.8,18822.5-6536.9,18819-6540.4z M18819-6536.3c0.7,3.7,1.6,17.3,0,16.4c-4.6,0-8.3-3.7-8.3-8.2
						S18814.5-6536.3,18819-6536.3z M18322.3-6528.1c3.1,4.9,6.3,10.1,9,14.8c-0.6,0.1-1.1,0.1-1.7,0.1c-5.1,0-9.3-4.1-9.3-9.2
						C18320.3-6524.5,18321.1-6526.5,18322.3-6528.1z M18747.9-6526c3.7,0.8,6.5,4.1,6.5,8c0,3.2-1.9,6-4.6,7.3L18747.9-6526z
						 M18784.8-6518.7l-23,30.7l35,27.1l19.8-33.6L18784.8-6518.7z M18259-6506.2l26,7.6l-4.9,26.5c-0.4-1.5-1.9-4.3-3.8-7.7
						c1.1-2,1.8-4.3,1.8-6.7c0-7.7-6.2-13.9-14-13.9c-0.4,0-0.8,0-1.1,0.1C18260.7-6503.8,18259-6506.2,18259-6506.2z
						 M18297.6-6499.8l-8.5,42.2l39.2,15.7l9.5-44.6L18297.6-6499.8z M18789.3-6499.5c4.3,0,7.7,3.4,7.7,7.7c0,4.3-3.5,7.7-7.7,7.7
						s-7.8-3.4-7.8-7.7C18781.5-6496,18785-6499.5,18789.3-6499.5z M18266.3-6495.6c4.1,1,7.1,4.6,7.1,9c0,0.6-0.1,1.1-0.2,1.7
						C18271-6488.5,18268.6-6492.2,18266.3-6495.6z M18822.5-6494.4l-21,39.3l35.7,24.8l-2.4-8.4l-25.5-18.6l14.8-27L18822.5-6494.4
						z M18315-6480.2c4.3,0,7.7,3.5,7.7,7.7c0,4.2-3.5,7.7-7.7,7.7s-7.8-3.4-7.8-7.7C18307.3-6476.8,18310.7-6480.2,18315-6480.2z
						 M18352-6476.3l8.3,14.4c-3.4,2.5-5.7,6.6-5.7,11.1c0,7.7,6.3,13.9,14,13.9c1.2,0,2.3-0.2,3.3-0.4l6,12.7l-36.4-15.8
						L18352-6476.3z M18830.6-6476.2c-3.3-0.8-6.4,1.3-8.6,3.5c-2.3,2.2-3.8,5.4-3.8,8.9c0,6.8,5.6,12.3,12.4,12.3
						C18840-6453.8,18835-6475.2,18830.6-6476.2z M18755.4-6472.8l29.6,21l-17.3,33.1c0,0-1.7-6.7-3.9-15.7c4.2-2,7.1-6.2,7.1-11.1
						c0-6.8-5.6-12.3-12.4-12.3c-0.1,0-0.1,0-0.2,0C18757.2-6463.2,18756.1-6468.4,18755.4-6472.8z M18830.6-6472.1
						c5.1,1.6,3.4,15.9,0,16.4c-4.5,0.7-8.2-3.7-8.2-8.2C18822.4-6468.4,18826.1-6472.1,18830.6-6472.1z M18362.4-6457.6l7.6,16
						c-0.4,0.1-0.9,0.1-1.3,0.1c-5.1,0-9.3-4.1-9.3-9.2C18359.3-6453.5,18360.5-6455.9,18362.4-6457.6z M18759.3-6453.7
						c4.2,0.4,7.5,3.9,7.5,8.1c0,3-1.6,5.5-4,7C18761.6-6443.3,18760.4-6448.5,18759.3-6453.7z M18798.3-6449.5l-20.3,39.7
						l37.4,22.6l17.2-38.4L18798.3-6449.5z M18297.3-6441.8l23.1,10.4l-6.5,23.6l-2.8-5.8c1.4-2.1,2.2-4.7,2.2-7.4
						c0-7.2-5.5-13.1-12.5-13.8L18297.3-6441.8z M18333.7-6430.6l-11.3,39.7l35.9,18.6l16.4-40L18333.7-6430.6z M18303.5-6429.2
						c3,1.5,5.1,4.6,5.1,8.2c0,0.6-0.1,1.2-0.2,1.8L18303.5-6429.2z M18804.9-6426c4.3,0,7.8,3.5,7.8,7.7c0,4.3-3.5,7.7-7.8,7.7
						c-4.3,0-7.7-3.4-7.7-7.7C18797.2-6422.5,18800.6-6426,18804.9-6426z M18839.1-6423.8l-17.2,41.6l39.4,21.6l-3-7.6l-29.1-16.7
						l12.5-30.1L18839.1-6423.8z M18348.2-6409.9c4.3,0,7.7,3.4,7.7,7.7c0,4.2-3.5,7.7-7.7,7.7s-7.7-3.4-7.7-7.7
						C18340.4-6406.5,18343.9-6409.9,18348.2-6409.9z M18851.4-6403.7c-6.9,0-12.4,5.5-12.4,12.3c0,6.8,5.6,12.6,12.4,12.3
						C18863.9-6379.4,18857.5-6403.8,18851.4-6403.7z M18386.7-6402.4c2.4,4.2,4.1,8.7,5.7,13.2c-3.7,2.5-6.2,6.7-6.2,11.5
						c0,7.4,5.8,13.4,13.2,13.9c0.3,0,1.6,0.2,1.6,0.2l2.2,8.4l-30.9-16.1C18376.6-6382.9,18380.3-6390.9,18386.7-6402.4z
						 M18851.4-6399.6c3.6,1.5,4.6,15.9,0,16.4c-4.6,0-8.3-3.7-8.3-8.2C18843.2-6395.9,18846.9-6399.6,18851.4-6399.6z
						 M18775.2-6394.8l30.4,17.3l-15.3,32.7l-4.5-15c3.3-2.2,5.4-5.9,5.4-10.2c0-6.7-5.5-12.2-12.3-12.3L18775.2-6394.8z
						 M18394.1-6384.5l4.8,16c-4.9-0.3-7.9-4.2-7.9-9.1C18391-6380.4,18392.2-6382.8,18394.1-6384.5z M18780.3-6378
						c3.9,0.7,6.8,4,6.8,8c0,2.4-1,4.5-2.6,6L18780.3-6378z M18326.7-6377l23.5,13.7l-10.6,27.2l-3.1-9.8c2.1-2.4,3.4-5.6,3.4-9.1
						c0-6.5-4.5-11.9-10.5-13.4L18326.7-6377z M18817.5-6376.4l-14.2,37.9l41.2,21.5l10.3-38.8L18817.5-6376.4z M18331.2-6362.5
						c2.4,1.7,4,4.4,4,7.6c0,1.1-0.2,2.2-0.6,3.2L18331.2-6362.5z M18362-6360.7l-16.7,38.5l34.8,22.8l18.1-40.1L18362-6360.7z
						 M18830.4-6354.4c4.3,0,7.7,3.4,7.7,7.7c0,4.3-3.5,7.7-7.7,7.7s-7.8-3.4-7.8-7.7C18822.7-6351,18826.2-6354.4,18830.4-6354.4z
						 M18871.2-6337.5c-3.5,2.2-5.5,6.5-5.5,10.9c0,6.8,5.6,12.4,12.4,12.3c1.5,0,2.9-0.2,4.1-0.4
						C18885.8-6319.5,18880.7-6337.7,18871.2-6337.5z M18372.4-6338.6c4.3,0,7.7,3.4,7.7,7.7c0,4.3-3.5,7.7-7.7,7.7
						c-4.3,0-7.7-3.5-7.7-7.7C18364.7-6335.1,18368.1-6338.6,18372.4-6338.6z M18879.9-6318.8c-0.5,0.3-1.1,0.4-1.8,0.4
						c-4.6-0.2-8.2-3.7-8.2-8.2c0-2.6,1.2-4.9,3.1-6.4C18880-6338.3,18881.1-6317.7,18879.9-6318.8z M18418.2-6312.2
						c1.4,6.3,3,12.3,4.5,17.9c-0.6,0.1-1.3,0.2-1.9,0.2c-5.1,0-9.3-4.2-9.3-9.3C18411.5-6307.6,18414.4-6311.1,18418.2-6312.2z
						 M18850.4-6307.7l-10.8,42.7l41.3,14.9l7.9-40.4L18850.4-6307.7z M18347.4-6307.1l21.9,15c0,0-7.1,17-13.1,26l-1.7-7.8
						c3.6-2.5,6-6.7,6-11.4c0-6.8-4.9-12.5-11.4-13.7L18347.4-6307.1z M18810.3-6305.1c4.6,0,8.2,3.6,8.2,8.2c0,3-0.9,4.2-3.3,5.6
						c-1.8-4.1-4.3-8.1-6.6-13.5C18809.4-6305,18809.6-6305.1,18810.3-6305.1z M18350.3-6293.8c3.3,1.4,5.6,4.7,5.6,8.5
						c0,2.4-0.9,4.6-2.4,6.2L18350.3-6293.8z M18383.1-6287.6l-19.9,34.3l29.2,22.1l22.8-34.3L18383.1-6287.6z M18864.2-6286.4
						c4.3,0,7.7,3.5,7.7,7.7c0,4.3-3.5,7.7-7.7,7.7s-7.8-3.4-7.8-7.7C18856.5-6283,18859.9-6286.4,18864.2-6286.4z M18899.9-6275.8
						l5.1,7.8c-1.6,2.1-2.5,4.6-2.5,7.4c0,6.8,5.6,12.3,12.4,12.3c0.9,0,1.8-0.1,2.7-0.3l4.1,6.3l-25.9-9.2L18899.9-6275.8z
						 M18389.1-6266.6c4.3,0,7.7,3.4,7.7,7.7c0,4.3-3.5,7.7-7.7,7.7c-4.3,0-7.8-3.4-7.8-7.7
						C18381.3-6263.2,18384.8-6266.6,18389.1-6266.6z M18907.5-6264.2l7.6,11.8c-0.1,0-0.1,0-0.2,0
						C18907.7-6252.5,18904.6-6258.4,18907.5-6264.2z M18426.3-6263.6l-28.1,37.1l37.3,27.5l-0.6-8.2l-27.3-19.4l20.8-27.4
						L18426.3-6263.6z M18837.3-6251.1l37.2,11.6l-7.9,36.6l-8.8-14.5c2.4-2.2,3.9-5.4,3.9-8.9c0-6.8-5.5-12.3-12.4-12.3
						c-1.4,0-2.7,0.2-4,0.7L18837.3-6251.1z M18432.5-6244.7c-7.1,0.7-12.6,6.6-12.6,13.8c0,7.7,6.3,13.9,14,13.9
						c3.6,0.4,4.1-5,0-4.7c-5.1,0-9.3-4.1-9.3-9.2c0-4.9,3.9-8.9,8.7-9.2l-0.7-4.6C18432.6-6244.7,18432.6-6244.7,18432.5-6244.7z
						 M18887.8-6240.8l-6.5,42.4l42.1,8.9l3.1-38.4L18887.8-6240.8z M18361.5-6239.8l19.9,14.6l-15.1,21l-0.8-6
						c3.6-2.5,5.9-6.7,5.9-11.4c0-6-3.9-11.1-9.2-13L18361.5-6239.8z M18849.2-6234.5c4.6,0,8.2,3.7,8.2,8.2c0,2-0.7,3.8-1.9,5.3
						l-8-13.3C18848.1-6234.4,18848.6-6234.5,18849.2-6234.5z M18716.4-6228.7c1.1,0.2,2.7,0.5,2.4,1.2c-0.3,0.7-7.1,8-7.1,8
						l0.8,6.8l11.9-13.5l4.8,1.8l-16.8,16.9l-0.8,6.3l22.3-21.8l9.5,2.6l-26,25.4l29.9,30.1l30-30.3l-21.3-23.1l10.5,1
						c4.4,5,9.3,13,17.5,17.3l-0.8-6c-0.4,0.3-9.9-8.9-8.4-10.4l8.4,0.6c9.8-2.6-12-6.2-33.1-9.7c-10.9-0.4-42.8-14.4-35.2-3.7
						C18715.5-6229,18716-6228.9,18716.4-6228.7z M18362.9-6229c2.3,1.7,3.8,4.4,3.8,7.4c0,2.2-0.8,4.2-2,5.8L18362.9-6229z
						 M18903.2-6221.7c4.3,0,7.8,3.4,7.8,7.7c0,4.3-3.5,7.7-7.8,7.7s-7.7-3.4-7.7-7.7C18895.4-6218.2,18898.9-6221.7,18903.2-6221.7
						z M18393.8-6220.9l-24.2,30.5l27.4,26.1l28.1-32.7L18393.8-6220.9z M18937.2-6213.1l1.9,0.3v20.8l-3-0.7L18937.2-6213.1z
						 M18748.3-6203.4c4.3,0,7.8,3.4,7.8,7.7c0,4.3-3.5,7.7-7.8,7.7c-4.3,0-7.8-3.4-7.8-7.7
						C18740.6-6200,18744-6203.4,18748.3-6203.4z M18397.6-6201.2c4.3,0,7.8,3.5,7.8,7.7c0,4.2-3.5,7.7-7.8,7.7s-7.7-3.4-7.7-7.7
						C18389.8-6197.8,18393.3-6201.2,18397.6-6201.2z M18434.9-6195.2l-31.3,37l33.6,34.4l-0.1-7.7l-26.1-27.1l24.4-28.3
						L18434.9-6195.2z M18784.5-6191.8l-32.2,32.3l32.1,33l0.8-7.4l-24.8-24.8l23.2-23.8L18784.5-6191.8z M18713.8-6188.4l0.1,8.8
						l20.2,20.4l-20.7,20.9l0.1,8.9l29.3-30L18713.8-6188.4z M18878.6-6184.6l37.9,7.1l-2.3,35.5l-9.1-10.9c1.6-2.1,2.5-4.6,2.5-7.4
						c0-6.8-5.5-12.3-12.4-12.3c-2,0-3.8,0.5-5.4,1.3L18878.6-6184.6z M18367.9-6178.2l18.7,19.5l-17.8,20l-0.2-6.8
						c5-2.1,8.5-7,8.5-12.8c0-5.9-3.7-11-9-12.9L18367.9-6178.2z M18437.2-6173.3c-6.2,1.4-10.9,6.9-10.9,13.5s4.6,12.1,10.9,13.5
						v-4.8c-3.6-1.3-6.2-4.7-6.2-8.7c0-4,2.6-7.4,6.2-8.7V-6173.3z M18711.7-6172c-5.7,3.8-3.2,25,0,24.6c6.9,0,12.4-5.5,12.4-12.3
						C18724.1-6166.5,18718.6-6172,18711.7-6172z M18785.1-6170c-6.8,0-12.4,5.5-12.4,12.3c0,6.8,5.6,12.3,12.4,12.3
						C18790.5-6147.2,18788.3-6168.8,18785.1-6170z M18895.1-6168.4c4.6,0,8.2,3.6,8.2,8.2c0,1.5-0.4,2.9-1.1,4.1l-9.8-11.8
						C18893.2-6168.3,18894.1-6168.4,18895.1-6168.4z M18711.7-6167.9c4.6,0,8.2,3.7,8.2,8.2c0,4.5-3.7,8.2-8.2,8.2
						C18712.1-6154.4,18710.1-6168.2,18711.7-6167.9z M18368.2-6166c2.5,1.6,4.2,4.5,4.2,7.7c0,3.1-1.5,5.9-3.9,7.5L18368.2-6166z
						 M18785.1-6165.9c1,3.3,2.3,17,0,16.4c-4.6,0-8.2-3.7-8.2-8.2C18776.8-6162.2,18780.5-6165.9,18785.1-6165.9z M18747.6-6153.9
						l-30.2,29.8l30.8,31.3l29.2-30.9L18747.6-6153.9z M18399.2-6152.3l-27,29l26,33.6l30.6-30.2L18399.2-6152.3z M18252.7-6151.3
						c8.3,0,16.1,1.4,19.2,6.9c12.7,16.9,9.1,51.7,0.2,63.7c-19.8,17.9-31,22.6-53.4,18.5c2.6-10-8.2-15.4-9.7-13.2
						c-0.2,0-1,1.8,0,1.9c7.7,0.9,7.1,10.1,6.2,10.1c-8.5-0.3-14-0.1-14.9-3.9c-0.5-2.3,0.8-5.9,5.8-9.9c5.8-4.6,32.7-4.5,32.7-4.5
						c0.1,0-0.1-7.6,2.6-11.9c2.4-3.8,5.6-8.1,3.4-9.9c-3.9-1.8-6.5-6.1-7-11.1c-1-10.4,0.6-35.5,0.2-35.8
						C18242.5-6150.8,18247.7-6151.3,18252.7-6151.3z M18747.5-6131.9c4.3,0,7.8,3.4,7.8,7.7c0,4.2-3.5,7.7-7.8,7.7
						s-7.7-3.4-7.7-7.7C18739.8-6128.5,18743.2-6131.9,18747.5-6131.9z M18399.4-6128.9c4.3,0,7.7,3.4,7.7,7.7
						c0,4.3-3.5,7.7-7.7,7.7c-4.3,0-7.8-3.5-7.8-7.7C18391.7-6125.5,18395.2-6128.9,18399.4-6128.9z M18784.4-6121.7l-31.6,32
						l33.6,34.6l-1.1-9.4l-24.2-24.8l23.7-24.5L18784.4-6121.7z M18713.1-6121.1l-0.9,8.8l22.3,23.3l-20.3,20.7l-0.3,10.1l29.9-31.3
						L18713.1-6121.1z M18367.6-6109l17.8,24.9l-21.2,18.5l0.6-7.1c6.2-1.4,10.8-7,10.8-13.5c0-5.8-3.6-10.8-8.7-12.8L18367.6-6109z
						 M18434.4-6104.1c-0.4,5.2-0.7,9.3-1,13.1c-5.8,1.7-10,7-10,13.3c0,5.6,3.3,10.4,8.1,12.6c-0.4,4-0.9,8.4-1.6,13.9l-21.3-31
						L18434.4-6104.1z M18939-6102.7l0.7,86.9l63.6,65.4v244.8h-260.9l-67.2-112.5c-1.3-2.2-3.3-1.4-4.7-3.6l19.9-105.7
						c31.4,14.3,57.7-22.7,40.6-52.8C18827.7-6015.1,18939-6102.7,18939-6102.7L18939-6102.7z M18784.6-6102.2
						c-6.8,0-12.4,5.5-12.4,12.3c0,6.8,5.6,12.3,12.4,12.3C18793.5-6081.6,18789-6102,18784.6-6102.2z M18712.4-6101.5
						c-3.4,3.9-5.4,24.8,0,24.6c6.8-0.2,12.4-5.5,12.4-12.3C18724.8-6096,18719.3-6101.5,18712.4-6101.5z M18784.6-6098.1
						c6.5,4.8,0.6,15.3,0,16.4c-4.6,0-8.2-3.7-8.2-8.2C18776.4-6094.4,18780.1-6098.1,18784.6-6098.1z M18712.4-6097.3
						c4.6,0,8.2,3.6,8.2,8.2c0,4.5-3.7,8.2-8.2,8.2C18712.9-6082.3,18710.3-6096.8,18712.4-6097.3z M18366.4-6094.1
						c2.6,1.6,4.4,4.5,4.4,7.8c0,3.8-2.3,7.1-5.7,8.5L18366.4-6094.1z M18433-6085.9c-0.4,5.9-0.7,10.8-1.1,15.7
						c-2.4-1.7-3.9-4.4-3.9-7.5C18428.1-6081.2,18430.1-6084.3,18433-6085.9z M18747.2-6083l-29.4,29.2l30.7,31.6l29.1-30.6
						L18747.2-6083z M18397-6075.4l-30.8,24.6l19.8,30.2l6.9,4.1l28.2-24L18397-6075.4z M18273.2-6073.4l72.6,38.5
						c0,0-18.8,7.8-18.3,20.3c0.7,14,9.2,25.4,25.9,21.1c3.8-0.6,5.6,1,9.3,9.6c7.1,16.4,14.1,34.4,11.3,33.9
						c-8.9-7.1-7.6-7.4-18-12.1c-19.5-5.3-31.4,12.7-25.3,27.3c5.8,13.5,15.3,14.3,24.9,12.9c1.4,0.3,2.6,1.9,3.5,3.6
						c3.1,6.1,7.7,17.1,11.3,33.9c5.6,25.9,6.8,58.3,2.8,66.5c-5.6,11.3-13.4,26.5-13.4,26.5c-15.1-28.6-48.1-53.8-85.2-44.9
						c-1.2,0.8-1.5,4.8,0.2,7.2c12,15.7,14,30,18.3,45.4c11,39.5,33.2,62.1,32.9,58l-11.6,20.9c0,0-100.8,0.5-142,0v-48.1l108-109.9
						l-42.8-1.8l1.5-189.4C18254.8-6057.2,18273.2-6073.4,18273.2-6073.4z M18747.7-6061.2c4.3,0,7.7,3.4,7.7,7.7
						c0,4.3-3.5,7.7-7.7,7.7s-7.8-3.5-7.8-7.7C18739.9-6057.8,18743.4-6061.2,18747.7-6061.2z M18393.7-6053.5
						c4.3,0,7.8,3.4,7.8,7.7c0,4.3-3.5,7.7-7.8,7.7c-4.3,0-7.7-3.5-7.7-7.7C18386-6050,18389.4-6053.5,18393.7-6053.5z
						 M18713-6046.4l0.8,7.6l21.2,22.1l-19.7,19.9c-2.9,3.9-10.2,3.1-12.5,3.3c1.6,4.9,6,4.3,10.5,6.1l28.6-29L18713-6046.4z
						 M18713.4-6029.2c-5.2,1.6-4.2,23.4,0,24.6c6.8,0,12.4-5.5,12.4-12.3C18725.8-6023.7,18720.2-6029.2,18713.4-6029.2z
						 M18786.2-6025.9c0.5,2,1.3,16.2,0,16.4c-4.6,0-8.2-3.7-8.2-8.2C18777.9-6022.2,18781.6-6025.9,18786.2-6025.9z
						 M18713.4-6025.1c4.6,0,8.2,3.7,8.2,8.2c0,4.5-3.7,8.2-8.2,8.2C18712.3-6010.6,18710.4-6024.8,18713.4-6025.1z M18458-6021.2
						c-1.2,0.5-2.9,0.2-4.3,0.2c-4.3,0-9.7-3-10.8-2.5c-1.3,0.6-0.9,3.4-0.8,4.7c0.1,1.2,3.4,1.6,4.8,2.4c2.2,1.4,1.6,1.9-0.9,2.5
						c-2.2,0.5-3.9,0.7-5.3,2.6c-0.9,1.2-0.9,3.4,0.5,3.3c8.6-0.1,19.5-3.6,29.8-0.2c5.9,2.1,9.7,3.4,10.6,2.6
						c2-1.7-4.9-8.2-11.5-9.4c-6.6-1.2-9-0.7-6.9-2.7c1.1-1,2.6-0.6,2.7-1.4c0.3-2-1.2-4.2-3-4.4
						C18461-6023.7,18459.5-6021.7,18458-6021.2z M18495-6000.6c-0.7,0-1.7,0.5-3.1,1.6c-3.9,2.6-10,6.1-24.9,2
						c-8.1-2.7-17.3-0.3-22.6,1.2c-4.1,1.2-10.1,2.3-14.8,0.1c-4.6-2.2-9.7-5.6-8.8-2.1c0.2,0.9,0.5,6,0.6,9c0.2,7.1,0.6,13,5.8,7.4
						c2.2-2.4,4.9-2.4,10-0.4c3.6,1.4,6.1,2.4,8.9,0.6c3.9-2.6,7.4-3.2,14.7-0.8c3.5,1.2,7.1,1.3,11.5-1.4
						c7.3-4.4,11.9-0.1,14.7,4.4c2.2,3.6,3.3-1.5,7.4-12.2C18496.5-5996.4,18497.1-6000.7,18495-6000.6z M18460.2-5960.9
						c-4,2.2-9.5,2.9-13.5,5.5c-8.5,5.8-0.5,10.7,5.4,9.5c2.4-0.6,5.2-1.7,8.3-3.8c10.6-7,16.5-6,17.5,2.5
						c1.1,9.2-13.1,13.3-11.8,17.6c1.8,2.8,8.7-1,13-6.8C18491.7-5953.5,18477.7-5970.8,18460.2-5960.9z M18515.3-5912.8
						c-14.4,1.6-36.2,8.5-47.1,16.7c-8.6,6.6-10.9,8.3-7.3,10.9c3.3,2.4,5.9,2.5,1.3,7.1c-1.6,1.7-4.4,5.1-4.4,5.8
						c0.1,3.3,20.4,13.2,32.1,14.7c9,1.2,23.6-0.2,31.4-3.3c10.4-4.2,10.7-7,0.9-4.1c-7.6,2.2-16.9,3.9-25.9,3.3
						c-8.2-0.6-16.2-3.1-21.2-4.9c-12.5-4.4-10.3-9.6,2.3-5.2c14.6,6.2,33.4,6.1,50.1-1.4c6.8-3,8.6-5.4,9.9-4.4
						c0.3,0.3,1,1.9,1.2,2.4c0.4,1.1,0.5-2.8,1.1-9c0.5-5.2,1-12.1,1-12.1s-1,2.9-1,4.3c0.1,9-4.3,9.1-16.8,2.2
						c-14.7-8-21.8-7.2-35.8-7.1c-6.1,0-6.4-1.7,2.2-4.5c4.1-1.3,10.4-3.5,19.8-6.5C18516.8-5910.4,18518.9-5913.2,18515.3-5912.8z
						 M18404.6-5894.5c5.3,0,10.1,4.5,11.4,13.2l-5.3-0.4c-1.8-13-11.3-10-15-2.3l-4.7,0.1
						C18394.7-5891.1,18399.9-5894.5,18404.6-5894.5z M18418.1-5893.7c2.2-0.2,12.2,4.6,12.8,6.1c0.7,1.6-3.1,3.4-6.5,4.3
						c-3.8,1.1-3.1,1.3-4.3-1C18418.4-5887.4,18415.5-5893.6,18418.1-5893.7z M18392.6-5893.1c0.1,1.4-2.9,6.5-5.1,7.2
						c-2.6,0.8-4.6-2.6-2.5-4.4C18386.8-5891.3,18392.2-5895.1,18392.6-5893.1L18392.6-5893.1z M18495.5-5892.4
						c6.7-0.3,13,6.5,13.5,14.5l-3.4-0.1c-3.1-16.6-16-12.9-18.9-1l-4-1.1C18486.1-5888.8,18490.9-5892.2,18495.5-5892.4
						L18495.5-5892.4z M18482.3-5891.3c1.8-0.1,1.6,1.4-0.6,5.8c-1,2.1-1.8,3.3-3.6,3.2c-2.5-0.4-4.1-1.2-5.4-3.1
						c-0.9-1.9,1.2-3.4,5.5-4.8C18480.1-5890.8,18481.4-5891.2,18482.3-5891.3z M18510.6-5890c1.2,0,3.3,0.8,6.7,2.2
						c8.6,3.8,9.7,5.3,5.1,7.5c-2,1-3.7,1.7-5,2.1c-4,1.3-3.9-0.9-5-3.7c-0.6-1.6-1.4-3-2.2-4.7
						C18509.1-5888.9,18509.1-5890,18510.6-5890z M18384-5875.9c1.4,0,4.6,1.9,10.8,4.1c9,3.2,18,2,30-1.8c4.9-1.6,6.6-2.5,4.7,0.3
						c-1.5,2.2-9.9,6.4-16.8,8c-12.8,3.2-29.7-2.8-29.7-9.3C18383-5875.6,18383.3-5875.9,18384-5875.9z M18426.4-5865.2
						c1.3,0,0,2-2.7,5c-4.2,4.7-10.6,7.9-17.2,9c-13.8,2.4-25.2-1.3-25.3-9c-0.1-5.5,0.9-5.6,7.7-2.1c5.8,3,18.8,3.7,29.2,0.3
						c3.4-0.9,7-3,7.6-3.1C18426-5865.2,18426.2-5865.2,18426.4-5865.2L18426.4-5865.2z M18532.3-5857.8
						c-10.5,2.7-21.6,5.5-31.7,7.4c-10.9,2.1-26.7,0.2-35-3.9c-6.1-3-8.3-1.2-5.6,4.6c1.8,3.8,4.4,7.8,12.2,10.5
						c11.4,3.9,38.1-2.5,57.9-12.6C18541.8-5856.9,18539.5-5860,18532.3-5857.8L18532.3-5857.8z M18360.1-5779.8l17.8-30.1
						c120.9,23.2,251.7,6.4,291.7,0.9c0,0,43.7,71.8,59.4,97c1.5,2.7,5.5,11.8,5.5,11.8l-412.7-0.3c5.8-11.5,11.3-26.5,11.3-26.5
						c-12.6-5-22.4-23.7-28.4-39.5c-5.3-13.9-14.5-47.7-26.6-64.2C18299.2-5842.6,18352.5-5816,18360.1-5779.8z"/>
					<path id="path3302-0-9-2_1_" class="st3" d="M18731.1-5703.6l-408.8,0l53.3-105.7c99.4,14.9,197.3,13.1,294.2-2.1
						L18731.1-5703.6L18731.1-5703.6z M18172.2-5789.3l-0.9-50.7l52.9,1.2L18172.2-5789.3z M18619.2-6130.1l0.6-153.8
						c21.1,14.8,42.2,29.6,64,41.4l-0.8,159.2L18619.2-6130.1z M18441-6163.7c-3.8-87-16.5-120.9-24.8-165l75.8-48.7l0.2,178.6
						L18441-6163.7z M18233.7-6316.3l0.4-214.2c69.7,99.5,113.7,200.6,125.8,337.1c-18.9,7.6-37.4,16-56.9,22.7
						C18283.3-6224.6,18259.6-6272.7,18233.7-6316.3z M18939.3-6228.1c-64.4-81.2-102.8-189.5-123-322.8l58.9-28.4
						c19.6,47.1,39.4,97.1,64.2,136.2L18939.3-6228.1z M18687.7-6371.8l0.2-179.1l50.3-32.5c3.1,63,13.2,121.8,24.8,165.4
						L18687.7-6371.8z M18555.2-6466.1c-18.6-13.9-38-26.7-59.5-36.4l3.1-158.9l56.8,43.4L18555.2-6466.1z M18954.6-6913.9
						c0,0,35.4-35.7,48.6-47.3l0.3,48.5L18954.6-6913.9z M18508.4-6937.1l-66.1-112l414.1-3.4l-53.2,112.7
						C18693.6-6959.7,18599.7-6950.7,18508.4-6937.1z"/>
					<path id="path3300-3-9-0_1_" d="M18698.2-5930c0.9,0.3,13.7-8.3,20.4-21c7.2-14,0.7-27.8,2.8-27.8c13.2,3.9,9.4,28.9,4.8,36.7
						c-3.9,6.7-11.4,11.3-19.1,12.6C18699.5-5928.3,18698.2-5930,18698.2-5930L18698.2-5930z M18719.7-5984.7
						c-2.7,0-3.8-0.4-5.6-2.2c-2.4-2.5-5.4-4.2-6.9-4c-2.1,0.3-3.1-0.1-3.1-1.2c0-0.9,0.9-1.1,4.4-0.8c2.1,0.2,6.5-3.1,6.5-3.1
						l0-236.5c18.7,7.7,46.7,12.1,68.2,14.7l1.4,210.8c0,0,31.6-16.4,43-23l0.4-188.7l22.4-2.4l-35.3-71.2
						c-5,3.8-74.4-2.7-91.8-13.9l63.4-39.3c-6.4-19.5-12.3-38.1-17.7-57.9c-0.2-0.6-1.3-0.5-1.5-1.1c-1.3-4.8-2.2-7-3.5-11.8
						c-0.2-0.9,0.1-2.4-0.1-3.3c-13.7-46.7-23-108.6-24.9-164c0.2-0.5,2.2-0.1,2.2-0.1l-0.4-33.9l-2.2,1.5l0.2-15.3l2.3-2.2
						c0.1-3,0.3-8.6,0.3-8.6l-2.9-1.8l1.5-25.7l3-0.4l1.7-40.6l-80.3,51.6c0,0-52.4-37.3-75.3-56.6c25.2-17,31.9-50.2,38.1-77.8
						c6.4-27.3,8.5-49.8,10.3-72.6c2-25.1,6.2-57.3,9.5-73.1c2-9.6,2-10.6-0.9-10.8c-1-0.1,0-0.4,2.3-0.7
						c51.5-2,106.7,5.6,155.8,11.9c0,0,12.1-22.5,16.4-30.8c0,0,2.5,7.6,5.1,12.9c6,11.2,19.6,23.1,31.2,29.5
						c4.3,2.8,16.9,7,25.3,8.4c5,0.8,13-0.7,18.9-3.1c2-0.8,3.6-1.9,3.6-3c0-1.1-1.6-2.2-3.6-4.1c-1.8-1.7-4.1-4.8-5.2-7.1
						c-3.6-7.2-9-19.3-12-30.5c-8.6-22.5-14.9-49.5-34.6-61.5l13.6-27l-427.2,0.1l66.1,110.6c0,0,2,3.3,2.7,4.5c1.9,3.5,2.8,3,2.8,3
						c-4.3,38.7-10.4,76.7-18.5,114.1c0,0-0.9-3-13.4-2.8c-36.7,0.5-49.6,41.1-18.9,59c2.9,1.7,7.8,5,12.7,7.5c1.4,0.7,19,11,19,11
						l-21.1-9.4l-1.5,243.3c0,0-44-13.1-73-14.4l0.3-210.9l-40.5,21.7l-1.8,188.6l-22.2,1.4c0,0,8.4,17.8,10.3,21.5
						c3.8,7.5,13.2,24.1,19.6,34.6c2.3,3.7,7.6,12,7.6,12c29.6,0.8,59.9,5.2,87.4,17.3l-63.7,41.1c26.6,74.4,59.8,183.3,41.3,359
						l4.5-2.8l1.2-18.9l79.3-54.2l97.8,78.2c0,0-7.1-0.2-8.7-0.3c-24.9-0.9-42.5,24.5-48.5,45.6c-10.6,37.3-12,46.5-16.9,105.6
						c-1.9,23.4-6.6,45.9-11.3,68.2c-2.5,11.2-2.1,12.3-2.1,12.3c49.7,1.6,101.7-3.6,140.6-12.2c0,0,16.4-77.5,22.3-110.4
						c5.5,3.2,10.5,4.5,15.5,4.4C18742.9-5930.7,18739.6-5983.3,18719.7-5984.7L18719.7-5984.7z M18548.1-7047.4l20.2,70.4
						l-49.5,4.6l-41.1-74.4L18548.1-7047.4z M18852.4-7048.3l-50.9,107.2c-106.8-14.9-168.4-16.3-292.3,1.1l-64.4-106.9l17-0.1
						l48.6,85.3l72.1-7.1l-19.9-78.1l19.1-0.6l19.7,76.6l111.7-0.6c3.6-25.7,10.6-75.9,10.6-75.9l20.6,0.2l-13.7,77.6l66,8.2
						l38.1-86.7L18852.4-7048.3z M18709.2-7047.3l-6.5,65.2l-92.4,0.7l-14.8-65.9L18709.2-7047.3z M18821.1-7048.6l-31.4,77.4
						l-45.7-6.1l12.5-70.2L18821.1-7048.6z M18877.5-6972.8c2,6.6,4.1,13.1,4.6,14.4c7.5,20.1,10.5,26.7,15.4,33.4
						c0.8,1.1,1.1,1-0.1,1.9c-22.4,10.9-63-15.9-72.8-40.5c1.2-2.4,6.7-12.3,6.7-12.3c2.8,5.5,0.7,10.9,2.6,15.8
						c0.5,2.1,5.1-14.2,5.1-14.2s4.5,7.2,5,21.1c0.1,2.1,5.8-9.3,5.8-9.3c7.2,9.7,6.8,26.4,6.8,26.4c8.1-9.8,3.1-15.4,15.6,9.6
						c1.4-2.6,0.7-5.4,2.7-4.6c5.5,2.1,13.3,6,16.1,5.2c-3.7-4.6-10.8-7-12.8-13.1c0,0,5.7,0.5,6,0.2c-6.4-3.5-12.6-6.5-17.4-13.1
						c1.4-0.5,7.2,0.5,7-0.1c-8.7-7.8-21.8-14.1-2.9-12.3c-12.3-8.6-25.9-14.5-4.6-13.9c-15.2-7.1-19.3-11.5-16.5-12.7
						c1.6-0.7,6.1,2,13.4-0.3c-12.2-4.9-17.2-7.2-17.7-8.8c-0.6-2,5.2-3.1,9.2-7.3c0,0-4.9,1.1-7.1-1.2c0,0,2.4-6.8,4.2-10.8
						C18867.3-7005.4,18873.4-6985.6,18877.5-6972.8z M19008.5-7000c0,0-68.7,73.5-102.8,110l33.2,0.5l1.5,199.1
						c11.6,1.5,31.7,0,39.3,7.7c4.7,6.9-13.6,20.6-23.8,17.7c-6.9-1.8-15.3-0.4-15.3-0.4l0.7,221.9c-21.9-40.4-38.7-66-63-136.3
						c7-4.9,14.3-8.6,15.5-9.4c-9.3-22.4-15.8-57.5-2.8-88.2l9,5.3c-6.6,18.7-9,46.4,1.8,71.9l2.5-2.6c0,0-2.7-5.1-4.4-10.7
						c-1.5-5-3.7-11.5-3.7-18.2c-0.4-11.9-0.1-22.1,2.8-31.6c1-3.1,2.4-7.7,3.1-9.2c0.7-1.4,1.4-2.7,1.4-3.1
						c-26.4-10.6-45.4-26.2-68.2-37.3c-0.9-0.4-1.6-0.8-2.2-1.1c-2.9-1.6-2.1-2.1,2.4-3.9c9.5-3.8,13.4-8.3,13.2-17.5
						c-0.3-13-7.3-18.1-22.7-17.3c-5.6,0.3-5.9,0.2-6.9-1.7c-2.3-4.4-10.3-22-10.4-22.7c0-0.4-1.7-4.4-3.7-8.8
						c-3.2-7.1-6.8-14.3-8.3-21.7c-0.8-3.7-2.9-5.1-3.4-1.3c-4.1,28.1-7.8,42.9-15.1,59.8c-2.2,5-3.8,9.2-3.6,9.4
						c0.7,0.6,12.9,6.3,18.7,8.6c22.3,9.1,32.5,14.8,29,16.1c-2.4,0.9-3.3,2.6-3.9,7.3c-1.6,12.4-1.4,18.7,0.7,22.6
						c2.2,4.1,2.1,4.4-1.4,6.7c-3.1,2-2.4,2-3.3,12.3c-1,12.3-0.3,20-0.3,20l5.6,7.1l-5.7,7l-1.3,32.1l7.6,5.8l-7.1,7l2.5,29.3
						c0,0-0.9,2.7-2.2,4c12.1,123.8,58.8,248.6,128.8,333.6l0.7,203.4l68.6,68.2L19008.5-7000z M19003.1-6986.9v16l-58.2,62.3
						l58.2,1v13.6l-89.4-0.2L19003.1-6986.9z M19002.2-6959.7l0.1,44.9l-43.5,0.1L19002.2-6959.7z M18602.8-6937.1l9.1-0.4
						c-0.4,9.1-4,50.8-8.3,87.4c-4.9,41.3-14.8,76.8-16.7,76.8l-8.8-5.3C18592.6-6825.8,18596.4-6886.7,18602.8-6937.1z
						 M18643.9-6938.4c-1.3,25.5-6.7,43.4-8.3,73.6c-2,36.9-8.4,82.8-25.1,120.9c-5.6,12.8-16,24.9-30.6,30.6
						c-25.6,10-47.3-21.5-30-44.7c13.7-18.3,35.1-18.1,41.6,0.4c5.4,15.3-11.9,34.5-25.6,28.6c-9.6-4.1-7.1-21.3,3.6-25.3
						c4.5-1.7,8.2,3.9,6,9c-1.7,4-1.9,6.4,0.4,4.8c9.7-6.8,2.4-23-9.7-16.9c-16.1,8.1-13.4,31.9,2.8,32.9
						c20.5,2,36.3-23.1,46.5-70.7c11.1-53.3,8.3-101,19-142.9L18643.9-6938.4z M18617.7-6937.5l10.8-0.3c-0.9,4-1,8.2-1.8,13
						c-4.2,28-6.8,68.8-11.1,100.8c-6.1,45.1-17.2,72.6-17.4,69.2c-1.2-5.5-4.7-9.9-7.4-14.2c11.1-30,15.6-57.3,18.4-83.1
						C18612.6-6882.1,18613.6-6910,18617.7-6937.5z M18571.6-6934.9l9.5-0.5c-3.7,59.8-12.5,114.1-17.7,137.4
						c-1.6,7-2.2,10.1-3.5,10.6c-1.5,0.7-4-1.7-10-5.1C18559.1-6791.1,18566.4-6894.1,18571.6-6934.9z M18586.4-6935.7l10.3-1
						c-1.5,21.6-5.2,55.7-9.3,86.3c-5,37.1-11.5,69.9-14.8,69.5l-8.6-2.9C18569.8-6782.1,18583.9-6892.7,18586.4-6935.7z
						 M18566.9-6934.7c-6.7,45.3-7.4,98.3-21.2,140.6l-9.6-4.4c2.6,0.8,9.5-27.5,11.8-59.6c2-28,7.1-58.4,8.6-75.2L18566.9-6934.7z
						 M18551.1-6933c-3.8,16-3.8,39.6-6.7,59.2c-3.6,24.4-7.3,73.8-13,72.7l-9.8-4.9c5.2,1.5,14.1-92.2,19.6-125.4L18551.1-6933z
						 M18525.2-6929.1l10-1.3c-4.8,36.6-13.5,121.9-18.6,122.5l-9.3-4.9C18510.8-6827.8,18520.1-6878.7,18525.2-6929.1z
						 M18519-6927.6c-4.1,40.2-8,80.9-16.6,112.2l-10.2-4.6c0,0,7.1-34.4,10.5-58.6c3.3-23.8,3.8-27.2,4.9-33.5
						c2.3-13.7,3-14.2,3-14.2L18519-6927.6z M18957-6886.4l-1,193.1l-11.3-0.4l0.5-193L18957-6886.4z M18983.8-6884.9
						c4.3,0,7.7,3.4,7.7,7.7c0,4.3-3.5,7.7-7.7,7.7c-4.3,0-7.8-3.5-7.8-7.7C18976-6881.4,18979.5-6884.9,18983.8-6884.9z
						 M18801.2-6814c8,14.6,14.2,19.9,21.3,22.7c12.8,5,30.4-7.4,24-24.7c-3.4-9.1-11.9-10.5-22.7-8.7c0,0-4.7-3.3-10.2-19.8
						c-6.5-19.6-16.7-39.7-16.7-39.7C18796.1-6859.6,18790.3-6834.1,18801.2-6814z M18995.3-6867c4.3,0,7.8,3.4,7.8,7.7
						c0,4.2-3.5,7.7-7.8,7.7c-4.3,0-7.8-3.4-7.8-7.7C18987.5-6863.5,18991-6867,18995.3-6867z M18974-6866.7c4.3,0,7.7,3.4,7.7,7.7
						c0,4.3-3.5,7.7-7.7,7.7s-7.8-3.5-7.8-7.7C18966.2-6863.2,18969.7-6866.7,18974-6866.7z M18800.2-6868.5
						c7.2,14.8,8.7,26,15.7,39.4c3.1,5.9,5.8,10.9,5.8,10.9c22.8-10.6,31.5,16.2,13.1,24.7c-18.2,8.4-38.7-23.6-36.7-58
						C18798.7-6861.1,18800.2-6868.5,18800.2-6868.5z M18984.2-6848.5c4.3,0,7.7,3.4,7.7,7.7c0,4.3-3.5,7.7-7.7,7.7
						c-4.3,0-7.7-3.5-7.7-7.7C18976.4-6845.1,18979.9-6848.5,18984.2-6848.5z M19004.7-6834.1v16.5l-40.5,39v-15.9L19004.7-6834.1z
						 M18472.3-6821.4c7.7,0.1,11.5,2.4,6.3,4.4c-17,6.7-24.6,17.4-25.5,36.1c0,9.4,1.1,10.7-4.8,5.4
						C18433.4-6796.3,18454.9-6821.5,18472.3-6821.4z M18486.5-6814.6c1.9-0.1,3.8,0.2,5.6,0.8c4.6,1.4,2.9,1.5-4.8,6.6
						c-14.6,9.7-19.1,19.1-19.8,38.4c-0.2,2.9,0.4,5.3,0.2,6.6c-0.2,0.9-1.3,0.6-2,0.6c-2.8-0.5-4.5-3.4-5.3-5.9
						C18451.1-6786,18468.3-6814,18486.5-6814.6z M18502.3-6808.2c1.3,0,2.4,0.2,3.3,0.6c3.6,1.8,2.3,2-4.3,6.7
						c-11.6,8.2-17.4,20.4-18.8,33.9c-0.9,8.7,5.9,19-6.1,10.5c-8.4-6.9-6.7-24.9,2.2-37.2
						C18484.2-6801.4,18495.5-6808.2,18502.3-6808.2z M19004.7-6812v18.7l-40.5,38.2v-19.2L19004.7-6812z M18515.4-6802.2
						c4.6,0,6.7,3,1.3,6.3c-13.1,8.2-21,23.8-20.2,40.1c0.7,9.8,1.1,11.6-5.2,5.1c-10.2-10.5-3-38.9,16.8-49.6
						C18510.6-6801.7,18513.3-6802.3,18515.4-6802.2z M18528.8-6796.8c7.5-0.2,8.6,3.6,1.8,8.3c-12.9,8.9-21.5,24.7-21.3,39
						c0.1,6.6-0.4,7.5-3.4,5.2c-14.9-11.3,1.1-50.7,21.2-52.4C18527.7-6796.7,18528.3-6796.8,18528.8-6796.8z M18795.1-6795.5
						c1.9,0.1,5.1,6.6,10.3,20.3c5,13.1,13,29.7,14.8,30.3c0.5,0.2,2.8-0.6,5-1.8c17-8.9,29,16.3,12.2,25.6
						c-11.9,6.6-23.2-0.5-33.5-21.3c-12.2-24.5-15.6-42.7-9.7-52.6C18794.4-6795.4,18794.7-6795.6,18795.1-6795.5z M18542.6-6788.9
						c2-0.1,4,0.3,5.9,1.3c4.4,2.3,3.8,3.9-3,7.9c-7,4.1-9.7,6.6-13.7,12.6c-6.2,9.4-7.3,13-7.3,25c0,9.8-2.9,10.4-8.9,1.6
						C18505.5-6755.5,18525.9-6788.1,18542.6-6788.9z M18559.5-6780c6.7-0.1,11.1,2.6,4.7,5.9c-20.3,10.7-28.8,26-25,44.8
						c1.2,5.9-5.6,0.9-9.7-7.1c-6-11.7,5.1-34.4,20.2-41.4C18553-6779.3,18556.5-6780,18559.5-6780L18559.5-6780z M18788.7-6762.7
						c1.3,0.1,2.7,3.4,6,11.7c2.1,5.4,5,11.8,6.3,14.3c1.4,2.5,2.3,4.8,2.1,5.2c-1.1,1.9-10.5-1.3-13.7-4.7
						c-4.9-5.2-6.4-16.9-3.1-23.5C18787.3-6761.6,18788-6762.8,18788.7-6762.7z M18983.8-6748.5c4.3,0,7.7,3.4,7.7,7.7
						c0,4.3-3.5,7.7-7.7,7.7c-4.3,0-7.8-3.5-7.8-7.7C18976-6745.1,18979.5-6748.5,18983.8-6748.5z M18188.8-6736.1
						c4.3,0,7.7,3.5,7.7,7.7c0,4.2-3.5,7.7-7.7,7.7c-4.3,0-7.7-3.4-7.7-7.7C18181.1-6732.6,18184.6-6736.1,18188.8-6736.1z
						 M18509.1-6733.8c8.5-0.3,11.1,3.7,12.5,16.4c1,8.8,2.9,9.6,16.8,7.3c14.6-2.4,19.5,1.5,20.6,16.6c0.8,12,0.7,11.9,17.4,12
						c16.4,0.1,18.2,1.8,20,18.5c1.4,12.4,0.9,12.1,17.1,11.8c17.9-0.2,19.5,1.1,20.7,16.8c1,12.7,1.8,13.5,13.1,12.6
						c11.1-0.9,31.4-1,35.3-0.2c9.5,2.1,9.9,1.7,11.9-11.1c2.7-16.8,6-18.9,26.8-16.8c10.2,1,11.4,0.8,12.8-8.1
						c1.9-11.9,4.3-15.4,4.3-5.1c0,26-1.8,27.2-19.3,22.6c-13.1-3.5-13.3-0.8-14.7,11.7c-1.2,11.1-3.1,15.6-7.2,17.4
						c-3.2,1.4-13.9,0.2-18.2-1c-1.6-0.5-11.8-0.7-23.9-0.6c-29.1,0.3-29.4,0.4-29.4-19.9c0-8.5-1.9-10.4-17.1-9.9
						c-19.1,0.6-18.1,1.1-21.3-21.7c-1.1-7.9-1.8-8.2-17.6-8c-17.2,0.2-21.1,0.5-20.1-13.9c0.9-13.1-2.3-16.5-16.7-13.2
						c-15.3,3.5-18.2-2.9-19.7-14.6c-1.4-10.9-2.3-8.1-9.6-8.7c-8.1-0.6-7.2-9.7,1.4-10.5
						C18506.6-6733.6,18507.9-6733.8,18509.1-6733.8z M18995.8-6729.8c4.3,0,7.7,3.4,7.7,7.7c0,4.3-3.5,7.7-7.7,7.7
						c-4.3,0-7.7-3.4-7.7-7.7C18988-6726.4,18991.5-6729.8,18995.8-6729.8z M18973.9-6729.4c4.3,0,7.7,3.5,7.7,7.7
						c0,4.2-3.5,7.7-7.7,7.7s-7.7-3.4-7.7-7.7C18966.2-6726,18969.7-6729.4,18973.9-6729.4z M18200.5-6716.6c4.3,0,7.8,3.4,7.8,7.7
						s-3.5,7.7-7.8,7.7c-4.3,0-7.7-3.4-7.7-7.7S18196.2-6716.6,18200.5-6716.6z M18178.7-6716.4c4.3,0,7.7,3.4,7.7,7.7
						c0,4.3-3.5,7.7-7.7,7.7s-7.7-3.4-7.7-7.7C18170.9-6713,18174.4-6716.4,18178.7-6716.4z M18583.7-6709.9l80.6,59.7l76.3-50.7
						l-0.5,18.5l-75.7,50c0,0-64.4-49.6-95.6-73.5L18583.7-6709.9z M18984.8-6709c4.3,0,7.7,3.5,7.7,7.7c0,4.3-3.5,7.7-7.7,7.7
						c-4.3,0-7.7-3.4-7.7-7.7C18977.1-6705.5,18980.5-6709,18984.8-6709z M18852.8-6698.9l19.1,30.8l-19.1,13.7l17.4,22.1
						l-18.7,19.1l20.6,13l-19.2,26.6l-26.7,11.8l26.7-34.8l-22.1-15l20.9-22.4l-18.8-24.4l19.4-15.1l-21-34.2l1.4-1.7
						L18852.8-6698.9z M18499.5-6705.7l141.6,105.2c0,0,13.1,9.8,16.8,12.1c7.9,5,9.5,3,17.5-2.4c17.9-10.6,61.2-39.8,61.2-39.8
						l-0.3,15.2c0,0-43.6,32.4-67.7,45.8c-3.4,1.9-7.1,0.1-9.7-1.8c-52.6-41.4-106.4-81.5-159.7-122L18499.5-6705.7z M18824.9-6704
						c0.6,1.1,2.5,1.4,3.4,2.9c6.3,9.6,17.6,26.8,17.6,26.8l-19.9,15.7l18.3,23.8l-22.8,23l23.3,15.8c0,0-14.5,22-25.4,32.1
						l-0.3-17.1l9.4-11.2l-10.7-7.3l0-23.5l10.9-11.4l-10-10l1.8-25.7l9.5-7.5l-7.9-10.7L18824.9-6704z M18189.1-6698.8
						c4.3,0,7.8,3.4,7.8,7.7c0,4.3-3.5,7.7-7.8,7.7s-7.7-3.4-7.7-7.7C18181.4-6695.3,18184.8-6698.8,18189.1-6698.8z
						 M19003.2-6670.7l-39.4,36.1v-16.4l39.4-38.4V-6670.7z M18211.6-6688.4v19.8l-42.1,38.6v-19.1L18211.6-6688.4z M19003.2-6665.7
						v19.7l-39.4,36.8v-19.5L19003.2-6665.7z M18956.8-6662.6l0.8,639.4l45.7,48.1l0,15.9l-57.9-59.5l-1.3-643.3L18956.8-6662.6z
						 M18211.6-6664.5v22.3l-42.1,38.1v-20.9L18211.6-6664.5z M18499.4-6660.4l55.6,43l-0.2,149.9c-22.5-16.8-40.6-26.9-57.7-35.4
						L18499.4-6660.4z M18984.8-6611.9c4.3,0,7.8,3.4,7.8,7.7c0,4.3-3.5,7.7-7.8,7.7c-4.3,0-7.8-3.4-7.8-7.7
						C18977.1-6608.5,18980.6-6611.9,18984.8-6611.9z M18571.8-6604.6l0.2,153l-11-9.9l-0.6-151.7L18571.8-6604.6z M18191.8-6603.1
						c4.3,0,7.8,3.4,7.8,7.7c0,4.3-3.5,7.7-7.8,7.7s-7.8-3.5-7.8-7.7C18184.1-6599.7,18187.6-6603.1,18191.8-6603.1z
						 M18995.2-6592.2c4.3,0,7.7,3.4,7.7,7.7c0,4.2-3.5,7.7-7.7,7.7s-7.7-3.5-7.7-7.7C18987.5-6588.8,18990.9-6592.2,18995.2-6592.2
						z M18973.1-6591.2c4.3,0,7.7,3.4,7.7,7.7c0,4.3-3.5,7.7-7.7,7.7s-7.7-3.4-7.7-7.7
						C18965.4-6587.8,18968.8-6591.2,18973.1-6591.2z M18578-6592l33.9,31.5l-35,32.9l-0.3-15.2l19.5-18.6l-19.6-20.1L18578-6592z
						 M18590.9-6589.2l28.3,20.7l-4.4,5.3L18590.9-6589.2z M18203.3-6584.6c4.3,0,7.7,3.4,7.7,7.7c0,4.2-3.5,7.7-7.7,7.7
						s-7.7-3.4-7.7-7.7C18195.6-6581.1,18199-6584.6,18203.3-6584.6z M18180.6-6584.2c4.3,0,7.7,3.5,7.7,7.7c0,4.3-3.5,7.7-7.7,7.7
						s-7.7-3.4-7.7-7.7C18172.9-6580.7,18176.3-6584.2,18180.6-6584.2z M18736.7-6581.4c5.4,61.2,9.2,103.6,25.1,161.3l-73.2,46.5
						l0.7-177.3L18736.7-6581.4z M18938.4-6441.3l-0.3,210.2c-69.1-97.6-106.3-211.7-118.3-319.8c0,0,37.1-17,55.1-27.4
						C18894-6534,18885.8-6534,18938.4-6441.3z M18985.8-6572.5c4.3,0,7.8,3.5,7.8,7.7c0,4.2-3.5,7.7-7.8,7.7
						c-4.3,0-7.7-3.4-7.7-7.7C18978-6569,18981.5-6572.5,18985.8-6572.5z M18192.1-6564.2c4.3,0,7.8,3.4,7.8,7.7
						c0,4.3-3.5,7.7-7.8,7.7c-4.3,0-7.7-3.5-7.7-7.7C18184.4-6560.8,18187.9-6564.2,18192.1-6564.2z M18624-6564.9l26.9,20.4
						l0.1,15.4l-32.2-30.7L18624-6564.9z M18614.8-6556.8l33.6,33l-35.2,34.9l-34.8-32.7L18614.8-6556.8z M18867.9-6555.6
						l-32.4,13.2c12.4,111.5,44.6,195.2,87.9,262.9l1-156.5C18902-6471.1,18885.1-6513.5,18867.9-6555.6z M19004.1-6553.3v17.5
						l-40.3,36.7v-17.5L19004.1-6553.3z M18614.8-6543.7l-21.4,20.8l21.6,20.7l20.8-20.7L18614.8-6543.7z M18211.6-6546v18.7
						l-40,38.4v-19.8L18211.6-6546z M18662.6-6535.5l0.3,178.5l-8.9,4.2l0.6-186.5L18662.6-6535.5z M18614.4-6532.8l9.7,9.7
						l-10.2,10.2l-9.6-9.7L18614.4-6532.8z M19004.1-6530.9v20.2l-40.3,37.4l-0.7-19.3L19004.1-6530.9z M18557.8-6455.1
						c41.6,35.8,73.6,90.1,108.7,120.4c14.2,12.2,48.9,31.3,67.7,37.2c21.3,6.7,37.9,9.4,59.3,9.8c16.9,0.3,17,0.4,17,0.4l7.2,12.6
						l-11.8-0.2l-0.8,44.6c12.5,0.6,24.8-0.1,36.9-1.6l4.4,8.1c-86.1,11.6-170.3-20.8-220.9-62.2c-23.1-18.9-41.8-41.9-64.7-75.4
						c-44-68.1-121.4-101-193.5-101.7l-6-9.2l12.1,0.4c0,0,1.2-8.6,1.4-23.1c0.2-16.4,0.1-19.3-1.2-19.7c-8.7-1-35.1-0.5-34.3,0.6
						l-5.4-9.6C18419.7-6532.5,18504.2-6502.8,18557.8-6455.1L18557.8-6455.1z M18211.6-6522.3v18.3l-40,37.5v-18.3L18211.6-6522.3z
						 M18651.8-6520.7l-1.1,16.4l-19.1,18.7l20.3,19.6l-0.5,13.7l-35.8-33L18651.8-6520.7z M18390.2-6514.9c-1.8,0-3,0.2-3.2,0.5
						c-0.5,0.8-0.2,7.8-1.8,33.3c-0.6,9.3-1.2,9.4,6.6,10.3c6.6,0.2,21.4,4,31.2,5.1c8.3,1.1,6.6-1.4,8.9-8
						c2.5-7.2,3.9-13.6,7.1-23.8c2.9-9.4,1.6-9.7-17.1-13.2C18409.2-6513.1,18395.8-6514.9,18390.2-6514.9z M18576.5-6516.4
						l32.4,32.1l-31.9,32.2l-0.6-15.6c6.2-5.4,13.5-11.6,18.9-17.8l-18.8-19.1L18576.5-6516.4z M18414-6506l3.5,5.7l8.4,1.4
						l-1.5,5.8l4.2,6l-5.2,3.9l0.2,7.2l-6.5-0.2l-5.7,4l-4.5-5.7l-6.6-0.2l0.4-8.1l-4.2-3.6l5.1-4.5l-0.7-7.1l8.1,1.3L18414-6506z
						 M18361.3-6496.3l5.1,3.3l-5.2,3.6l-0.2,5.5l-3.2,2.7l-11.8-22.9l7.6,3.1l5.8-3.9L18361.3-6496.3z M18455.7-6501.6
						c-4.1,0.1-4.7,7.6-9.1,21.9c-6.2,19.9-6.7,18.1,5.3,22.2c5.3,1.8,15.5,5.3,20.8,7.8c13.1,6.1,13.2,6.1,18-2.2
						c2.2-3.7,6.3-12.7,9.2-17.4c7.2-11.7,7.4-11.1-5.8-17.4c-7.8-3.7-12.5-5.2-28.8-11.8
						C18460.8-6500.4,18457.8-6501.7,18455.7-6501.6z M18468.8-6488.4l5.7,3.6l6.4-2.7l1.3,6.9l7,2.7l-2,6.8l3.1,5.1l-6,1.2
						l-4.3,9.4l-6.6-4.6l-7,2.5l-1.9-5.2l-7.1-3.4l2.6-5.7l-3.6-7.7l8.2-0.6L18468.8-6488.4z M18612.5-6481.4l35.8,34.8l-32.6,32.4
						l-35.8-34.9L18612.5-6481.4z M18985.8-6475c4.3,0,7.7,3.4,7.7,7.7c0,4.3-3.5,7.7-7.7,7.7s-7.7-3.4-7.7-7.7
						C18978-6471.6,18981.5-6475,18985.8-6475z M18516.9-6473.4c-2.1,0-3.3,1.9-5.1,5.6c-0.8,1.5-5.2,9.7-9.3,16.1
						c-9.2,14.3-9.2,13.6,0,19.2c3.9,2.4,12.9,9.7,20.6,16.6c7.1,6.4,6.4,4.9,21.7-10.4c10-10,16.2-12.7,12.3-18
						c-9.5-8.1-17.3-14-27.6-21.7C18522.8-6471,18519.3-6473.4,18516.9-6473.4z M18614.2-6469.5l-21.1,20.5l23.8,21.4l19.7-20.1
						L18614.2-6469.5z M18252.7-6476.4l0.2,160.6c23.2,39.4,47,79.2,59.4,123.5l34-16.6
						C18330.1-6340.1,18292.2-6412.9,18252.7-6476.4L18252.7-6476.4z M18192.1-6466.3c4.3,0,7.7,3.4,7.7,7.7c0,4.3-3.5,7.7-7.7,7.7
						s-7.7-3.4-7.7-7.7C18184.3-6462.9,18187.8-6466.3,18192.1-6466.3z M18614.4-6457.8l10.2,9.3l-9.4,10.1l-10.3-10.6
						L18614.4-6457.8z M18995.3-6456.3c4.3,0,7.8,3.4,7.8,7.7c0,4.2-3.5,7.7-7.8,7.7c-4.3,0-7.8-3.4-7.8-7.7
						C18987.5-6452.8,18991-6456.3,18995.3-6456.3z M18974.4-6455.5c4.3,0,7.8,3.4,7.8,7.7c0,4.2-3.5,7.7-7.8,7.7s-7.7-3.4-7.7-7.7
						C18966.7-6452.1,18970.2-6455.5,18974.4-6455.5z M18521.7-6456l5.9,4.3l6.9-2.9l0.5,8.1l6.3,3.1l-4,5.7l2.4,7.5l-6.8,0.2
						l-5.3,6.9l-4.8-4.5l-9.3,0.6l-1.5-7.8l-4-3.1l3.1-5.2l-2.3-6.9l7.9-0.5L18521.7-6456z M18180.7-6447.4c4.3,0,7.7,3.4,7.7,7.7
						c0,4.3-3.5,7.7-7.7,7.7s-7.8-3.4-7.8-7.7C18172.9-6444,18176.4-6447.4,18180.7-6447.4z M18203-6447.2c4.3,0,7.7,3.5,7.7,7.7
						c0,4.3-3.5,7.7-7.7,7.7c-4.3,0-7.8-3.4-7.8-7.7C18195.2-6443.7,18198.7-6447.2,18203-6447.2z M18651.6-6428.8l-18.5,17.1
						l18.2,18.9l-0.6,14.5l-32.3-32l32.8-32L18651.6-6428.8z M18468.9-6432.6l-69.3,45.7l-4.2-11.4l61.8-40.2L18468.9-6432.6z
						 M18984.8-6436.3c4.3,0,7.7,3.5,7.7,7.7c0,4.2-3.5,7.7-7.7,7.7s-7.8-3.4-7.8-7.7C18977-6432.8,18980.5-6436.3,18984.8-6436.3z
						 M18569-6431.6c-3.2,0.2-6.5,4-12.7,10.6c-6.1,6.4-13.3,14-14.8,15.1c-4.8,3.4-4.6,4.2,3.8,13.5c2.5,2.8,7.4,8.6,10.7,12.9
						c3.3,4.3,8.6,9.6,9.7,10.7c3.4,3.5,5.3,2.8,20.9-8.3c19-13.5,18.9-11.5,1.4-33.9C18577.9-6424,18573.1-6431.9,18569-6431.6z
						 M18191.8-6426.9c4.3,0,7.8,3.4,7.8,7.7c0,4.2-3.5,7.7-7.8,7.7s-7.8-3.4-7.8-7.7C18184.1-6423.5,18187.6-6426.9,18191.8-6426.9
						z M18598.5-6424.1l12.5,13.3l-1.1,1.3L18598.5-6424.1z M19003.6-6421.1v23.1l-38.6,35.4v-21.2L19003.6-6421.1z M18571.4-6414.4
						l4.7,6.4l8-0.5l-1.2,7.5l4.2,3.1l-4.1,5.7l-0.3,7.2l-6.6-1.5l-5.4,6.4l-5.3-6.2l-6.2,0.7l0.2-7.5l-6.4-3.6l4.5-4.9l0.1-8.4
						l9.3-0.3L18571.4-6414.4z M18762.3-6413.9l3.9,11.7l-96.5,62.4l-8.4-9.6L18762.3-6413.9z M18509.7-6406.1l7.7,5.7l-101.3,64.7
						l-3.1-8.4L18509.7-6406.1z M18213.4-6408.6v19.2l-42.7,40.9v-19.9L18213.4-6408.6z M18614.5-6404l1.2-1l33.1,31.6l-6.3,6.6
						L18614.5-6404z M18523-6394.7l0.9,186.5l-8.8-6.1l0.7-177L18523-6394.7z M18528.5-6390.4l7.2,6.3l-6.9,6.7L18528.5-6390.4z
						 M19003.6-6392v18.9l-38.6,36.4v-19.8L19003.6-6392z M18213.4-6382.9v17.8l-42.7,40.6v-18L18213.4-6382.9z M18611.7-6380.5
						c-1.1,0-2.3,0.7-4.1,2.1c-1.6,1.2-5.5,3.9-8.6,6c-11.6,7.5-21.5,14.5-21.9,15.6c-0.9,2.1,10.8,17.3,27,35.4
						c6.4,7.1,6.2,8.5,12.6,2.2c5.1-5.7,23.7-21.4,23.2-25.6c-1-4.8-7.4-10.3-23.3-31.6
						C18614.3-6379.2,18613.1-6380.4,18611.7-6380.5z M18539.9-6378.5l25.4,36.1l-3.4,3.4l-31.2-30.5L18539.9-6378.5z
						 M18490.3-6374.3l0.1,174l-47.7,33.6c0.9,0.5-5.9-104.6-24.1-160.6L18490.3-6374.3z M18608.9-6368.1l4.7,8.7l7.1-1.2l-0.9,8
						l6,4.7l-5.9,8.1l0.8,5.8l-6.9-1.6l-6.3,6.5l-4.3-8.3l-9.1,0.1l1.3-7.9l-6.4-5.3l6.9-4.1l1-7.2l6,0.5L18608.9-6368.1z
						 M18650.2-6366.8l0.8,7.1l-4.3-3.7L18650.2-6366.8z M18528.3-6354.1l-0.1-10.2l30.4,29.1l-31.1,28.9l0.2-13.7l17.7-16.7
						L18528.3-6354.1z M18779.6-6359.8l4.3,13l-62.5,38.2l-12.6-6.5L18779.6-6359.8z M18985.4-6338.3c4.3,0,7.8,3.4,7.8,7.7
						c0,4.2-3.5,7.7-7.8,7.7s-7.8-3.5-7.8-7.7C18977.6-6334.9,18981.1-6338.3,18985.4-6338.3z M18587.8-6313.3l-21.9-21.8l2.8-3
						L18587.8-6313.3z M18644.4-6332.9c-7.4,6.3-23.3,24.5-23.3,27.5s22,21.8,35.2,30.2c4.1,2.6,5.8,2.7,7.4,0.3
						c22.8-33.8,23.8-32.7,14.7-39.3c-9.2-7-19.9-17.3-27.2-20.9C18648.1-6336.6,18647.5-6335.6,18644.4-6332.9z M18562.1-6331.3
						l36.2,34.5l-33.6,32.1l-34.8-36.5L18562.1-6331.3z M18192.7-6328.7c4.3,0,7.7,3.4,7.7,7.7c0,4.3-3.5,7.7-7.7,7.7
						s-7.7-3.4-7.7-7.7C18185-6325.2,18188.4-6328.7,18192.7-6328.7z M18649.8-6321.7l6.1,5.4l7.3-1.9l1.6,7.1l7,2.6l-3.7,7.2
						l0.5,9.1l-7.1-1.3l-4.9,7.5l-7.2-7.2l-8.2,0.7l0.5-8l-7.3-3.5l4.6-5.2l-2.9-7.2l8.7,1.4L18649.8-6321.7z M18995.7-6318.5
						c4.3,0,7.7,3.4,7.7,7.7c0,4.2-3.5,7.7-7.7,7.7c-4.3,0-7.8-3.4-7.8-7.7C18987.9-6315.1,18991.4-6318.5,18995.7-6318.5z
						 M18543.1-6300.4l21.4,21.8l19.7-18.8l-20.9-21.9L18543.1-6300.4z M18974.3-6318.2c4.3,0,7.7,3.4,7.7,7.7
						c0,4.3-3.5,7.7-7.7,7.7s-7.8-3.5-7.8-7.7C18966.6-6314.8,18970-6318.2,18974.3-6318.2z M18182-6310.2c4.3,0,7.7,3.5,7.7,7.7
						c0,4.3-3.5,7.7-7.7,7.7s-7.8-3.4-7.8-7.7C18174.3-6306.7,18177.7-6310.2,18182-6310.2z M18204.7-6310.1c4.3,0,7.8,3.5,7.8,7.7
						c0,4.3-3.5,7.7-7.8,7.7c-4.3,0-7.7-3.4-7.7-7.7C18197-6306.7,18200.5-6310.1,18204.7-6310.1z M18563.4-6308.4l9.7,10l-9,9.4
						l-10.1-10.3L18563.4-6308.4z M18695.8-6301.6c-5,3.6-18.5,29-20.9,34.7c0,1.4,6.5,5.5,14.7,9.2c7,3.2,29.5,12.2,31.6,12.7
						c4.5,1.1,5.3-0.6,6.1-3.6c0.4-1.6,2.2-7.5,4.2-13.9c7-22.6,9.1-21.5-1.3-24.9c-3.6-1.2-14.8-5-21.9-8.2
						C18701.2-6298.8,18698-6301.6,18695.8-6301.6z M18984.8-6297.5c4.3,0,7.8,3.4,7.8,7.7c0,4.3-3.5,7.7-7.8,7.7s-7.8-3.5-7.8-7.7
						C18977-6294,18980.5-6297.5,18984.8-6297.5z M18614.7-6286.9l1.2,151.3l-11.9-9.3l-0.3-151.8L18614.7-6286.9z M18561.4-6261.2
						l-32.9,33.3l-0.2-16.9l18.4-16.6l-18.8-19.5l0.4-13.1C18540.3-6284.2,18550.6-6272.2,18561.4-6261.2z M18192.6-6290.2
						c4.3,0,7.7,3.4,7.7,7.7c0,4.3-3.5,7.7-7.7,7.7c-4.3,0-7.8-3.5-7.8-7.7C18184.8-6286.7,18188.3-6290.2,18192.6-6290.2z
						 M18700.5-6290.5l6.6,5.5l5.6-3.3l3.2,5.7l8,1.1l-3.6,8.6l4.7,6.7l-7.8,1.4l-1.9,9.2l-7.6-4.5l-5.8,2.5l-4.2-7.8l-9-0.4
						l4.9-8.5l-4.6-6.7l6.6-0.4L18700.5-6290.5z M18598.9-6289.9l-0.1,13.3l-14.3,14.4l14.4,15.5l-0.1,15.5l-29.8-30.1
						L18598.9-6289.9z M18751.6-6281.1c-3,0.1-3,3.2-5.3,13.5c-0.5,2.2-2.1,8.2-3.5,13.2c-4.3,15.3-4.9,15.6,8.5,18.2
						c7.8,1.1,41.3,8.9,42,3.6c0.8-9,1.4-30.2,1.5-37.5c0.3-2.4-0.3-4.7-2.7-5C18776.8-6276.9,18759.7-6280.9,18751.6-6281.1
						L18751.6-6281.1z M18621-6280.5c19,12.9,37.5,26.1,59.4,37.8l0.6,155.6l-60-44.4L18621-6280.5z M19003.2-6280v19.1l-40,38
						v-18.2L19003.2-6280z M18768.7-6273.4l3.5,7.4l7.3-2.4l0,8.8l6.5,4.1l-7.8,3.6l-0.7,10.7l-7.9-2.4l-6.5,4l-5.8-6l-7.1-0.1
						l2.6-9.5l-4.6-4.4l6.7-3.2l0.5-8.5l7.1,4.2L18768.7-6273.4z M18214.2-6274.8v18.4l-43.6,39.8v-16.1L18214.2-6274.8z
						 M18823.2-6263.3l9.8,16.4l-3.5,6.6l-6.5-3.2l-7.2,2.6l1.1-8.8l-5.6-4.4l5.6-5.1l-0.3-6.4L18823.2-6263.3z M18565.2-6257.9
						l33.4,34.4l-34,34.9l-33.4-34.9L18565.2-6257.9z M19003.2-6236.4l-40,36.9v-18l40-37.7V-6236.4z M18214.2-6251.4v17.9
						l-43.6,40.5v-16.6L18214.2-6251.4z M18565.2-6245l-21.7,21.3l21.5,21.4l21.7-20.9L18565.2-6245z M18565.5-6232.8l9.3,9.5
						l-8.9,9.2l-9.6-9.3L18565.5-6232.8z M18528.3-6219.7l33.1,33.8l-3.8,4.4l-29.4-22.6L18528.3-6219.7z M18599.4-6216.9l0.9,15.2
						l-18.1,15.3l16.5,17.2l0.5,15.8l-31.4-32.1L18599.4-6216.9z M18985.4-6201.4c4.3,0,7.7,3.4,7.7,7.7c0,4.2-3.5,7.7-7.7,7.7
						c-4.3,0-7.8-3.4-7.8-7.7C18977.6-6198,18981.1-6201.4,18985.4-6201.4z M18193.5-6192.1c4.3,0,7.7,3.4,7.7,7.7
						c0,4.3-3.5,7.7-7.7,7.7c-4.3,0-7.7-3.5-7.7-7.7C18185.8-6188.7,18189.2-6192.1,18193.5-6192.1z M18352.1-6187.4l-24.4,36.3
						l19.3,12.8l-18.2,24.3l19,22.7l-19.1,16.3l19.4,33c-7.7-1.5-15.5-6.6-22.6-10.2l-14.6-27.6l16.8-14.4l-17.1-19.7l17.9-21.1
						l-17.9-12.5l19.6-29.9L18352.1-6187.4z M18994.6-6182.6c4.3,0,7.7,3.4,7.7,7.7c0,4.3-3.5,7.7-7.7,7.7c-4.3,0-7.8-3.4-7.8-7.7
						C18986.9-6179.2,18990.3-6182.6,18994.6-6182.6z M18513.9-6183.2l168.7,129.1l-0.7,17.1l-168.7-128.8l-71.6,50.2l0.6-18.3
						L18513.9-6183.2z M18974-6181.6c4.3,0,7.7,3.4,7.7,7.7c0,4.2-3.5,7.7-7.7,7.7s-7.7-3.4-7.7-7.7
						C18966.2-6178.1,18969.7-6181.6,18974-6181.6z M18581.3-6165.1l-1.8,0.3l-18.4-13.3l4-4.5
						C18565.1-6182.6,18577.2-6169.3,18581.3-6165.1z M18205-6172.5c4.3,0,7.8,3.5,7.8,7.7c0,4.3-3.5,7.7-7.8,7.7
						c-4.3,0-7.8-3.4-7.8-7.7C18197.2-6169,18200.7-6172.5,18205-6172.5z M18184.1-6172.4c4.3,0,7.8,3.4,7.8,7.7
						c0,4.3-3.5,7.7-7.8,7.7s-7.8-3.4-7.8-7.7C18176.3-6169,18179.8-6172.4,18184.1-6172.4z M18985.4-6162.3c4.3,0,7.7,3.5,7.7,7.7
						c0,4.3-3.5,7.7-7.7,7.7c-4.3,0-7.8-3.4-7.8-7.7C18977.6-6158.8,18981.1-6162.3,18985.4-6162.3z M18193.4-6153.7
						c4.3,0,7.7,3.5,7.7,7.7c0,4.2-3.5,7.7-7.7,7.7s-7.7-3.4-7.7-7.7C18185.7-6150.3,18189.1-6153.7,18193.4-6153.7z
						 M19003.2-6139.4v17l-37.8,36.4v-16.4L19003.2-6139.4z M18492.5-6134.3c5.6-0.1,13.2,0.2,23.3,0.6c8.7,0.3,18.3,0.5,21.3,0.4
						c12-0.3,16,3.7,16.2,16.6c0.2,11.5,0.1,11.4,15.3,12.1c18.2,0.8,23,5.4,23.3,22.5c0.1,6.7,5.5,9.3,16.1,7.8
						c16.7-2.4,20-0.1,21.9,15.4c1.6,12.9,0.8,12.2,16.1,12.1c16.5-0.1,20.2,2.6,20.3,15.2c0.1,7.3,1.9,9.5,8.3,10.1
						c6.8,0.6,9.7,4.1,6.4,7.5c-0.6,0.6-3.8,1-8.7,1.1c-10.5,0.2-14-3.1-15.9-15.1c-1.4-8.3-2.2-8.7-16.2-8.3
						c-17.8,0.5-19.2-0.6-21.1-16c-1.6-13.3-3.9-14.6-19.2-11.7c-11.1,2.1-17-2.8-18.5-15.2c-1.6-14-2.2-14.5-18-15
						c-15.8-0.6-20.2-3.3-20.4-12.8c-0.2-14.6-2.1-16-21.5-15.4c-9.4,0.3-19.1,0.1-24.7-0.5c-11.8-1.2-11.7-1.3-12.9,10
						c-1.8,16.8-4.2,18.3-26.6,16.7c-9.4-0.7-10-0.3-10.7,6.8c-0.8,8.8-4.1,14.3-6.6,11c-1.3-1.7-1.3-1.9,0-14.9
						c1.5-14.5,1.7-14.6,20.7-13.1c12.9,1,12.3,1.4,13.6-10.2C18475.9-6130.9,18475.6-6134.1,18492.5-6134.3z M18214.9-6135.6v18.6
						l-44.2,40.8v-18.1L18214.9-6135.6z M18352.2-6113.7l9.6,13.1l-3.1,24.3l-8.2,6.1l5.8,11.5l-1.9,14.2l-2.3,1.3l-16.1-30.9
						l19-16.6l-19.5-23.6l18.4-24.6l-19.1-13.3l22.9-33.5c4-4.8,4.2,14.2,4.2,14.2l-9.5,14.3l10.6,9.1h0l0,22.6L18352.2-6113.7z
						 M18364.4-6124.7l1-30.4l-8.3-6.4l6.4-10.6l-0.4-27l-1.9-1.3c-15.9-193-111.1-307-126-332.9c0,0-3.3-2.6-2.7-9.3
						c0.3-2.9,0.4-19.9,0.3-37.8c-0.6-91.5,0.2-154.1,0.2-154.1l-69.9-74l0.4,27.1l3.4,2.5l0,123.3l-2.9,0.2c0,0-0.9,33.2-0.7,55.9
						l4.2,0.1l-0.2,84.7l-3.5,0.4l0.2,54.9l3.9,0c0,0,0.9,57.6-0.5,85.6l-2.9,0.2l0.2,54.6l3.2,0.2l0.2,78.1l-4,0.6l1.1,51.5
						l3.3,0.2c1.2,31.8,0.6,86.9,0.6,86.9l-3.7,0.2l0.9,51.2l2.7,0.2l-0.8,89.8l-2.4,0.3l0.9,53l2.6,0.2l-0.4,44.1l-1.8,0.3
						l-0.4,16.5l1.9,4.4l0.1,58.8l-1.5,0.6l-0.4,29.5l108.5-108.9l-39.9-1.2l0-35.2c0-58.1,0.8-104.9-1-161.6
						c-0.5-0.5-4.5-1.1-8.8-1.4c-20.6-1.2-26.1-2.8-26.2-7.7c-0.1-6.1,9.2-13.6,17-13.7c1.8,0,4.7-1.8,4.7-1.8l-2.5-644.4
						l-48.5-50.5l0.2-16l59.8,62.8l2.3,644l2.3-1l0.2-216.3c30.6,45.5,47.8,90.6,64.9,135.7c0,0,6-2.1,6.3-2.2
						c0.1-0.1-2.2-0.8-2.2-0.8c-17.4-57.6-39.4-99.4-67.9-143.1l0.4-209.6c73.1,102.5,108.4,194.7,123.1,327.5l-37,18.3l-3.6,4.8
						l-27.9,13.9l-2.7-4.4l-16.9,11.6c13.1,22.7,12.6,55.2,1.9,72.5l4.6,2.8c0.3,1.2,17.5-35.3-1.7-72.4l12.6-7.7
						c18.2,37.4,9.8,77.6,1.2,88c0,0,13.2,8.3,22.6,13.4c10.3,5.6,19.4,10.6,31.8,14.6c7.6,3.1,12.4-0.5,12.4-0.6l3.7-20.9l-5.9-8
						l6.8-5.5l3.1-31.9l-7.3-7.4L18364.4-6124.7z M19003.2-6116.2v20.6l-37.8,35.6v-20.2L19003.2-6116.2z M18214.9-6094.2
						l-44.2,40.3v-16.8l44.2-41.2V-6094.2z M18988.1-6066.7c4.3,0,7.8,3.5,7.8,7.7c0,4.3-3.5,7.7-7.8,7.7c-4.3,0-7.7-3.4-7.7-7.7
						C18980.4-6063.3,18983.9-6066.7,18988.1-6066.7z M18232.5-6054.3l0,189.8l-11.7,0l0.5-192.2L18232.5-6054.3z M18193.5-6056
						c4.3,0,7.7,3.4,7.7,7.7c0,4.2-3.5,7.7-7.7,7.7c-4.3,0-7.7-3.4-7.7-7.7C18185.8-6052.6,18189.2-6056,18193.5-6056z
						 M18977.1-6048.7c4.3,0,7.7,3.4,7.7,7.7c0,4.3-3.5,7.7-7.7,7.7s-7.8-3.5-7.8-7.7C18969.3-6045.2,18972.8-6048.7,18977.1-6048.7
						z M18998-6048.3c4.3,0,7.7,3.4,7.7,7.7c0,4.3-3.5,7.7-7.7,7.7s-7.8-3.4-7.8-7.7C18990.2-6044.9,18993.7-6048.3,18998-6048.3z
						 M18205.6-6036.8c4.3,0,7.8,3.5,7.8,7.7c0,4.2-3.5,7.7-7.8,7.7c-4.3,0-7.7-3.4-7.7-7.7
						C18197.8-6033.3,18201.3-6036.8,18205.6-6036.8z M18604.7-6036.6c40.4,5,29.7,47,12.7,55.8c-23.2,10.7-41.7-10.9-26.9-32.8
						c10.9-16.1,31.5-5.4,23.5,12.2c-4.5,9.9-13.8,8.7-13.7-1.3c3.3-9.5,0.3-6.1-2.3-2.8c-8.2,10.6,8.3,21.8,16.8,11.3
						c5.2-6.4,6.3-14,4.5-20c-3-10.4-15.1-16.4-28.7-6.8c-16.3,19.4-25,44.5-29.8,72.5c-10.2,59.7-10.8,122.6-19.5,138.5l-9.6-0.2
						c13.9-68.3,14-126.8,28.8-180.7C18567.8-6017.6,18586.5-6036.6,18604.7-6036.6L18604.7-6036.6z M18184.4-6036.2
						c4.3,0,7.7,3.5,7.7,7.7c0,4.3-3.5,7.7-7.7,7.7s-7.7-3.4-7.7-7.7C18176.7-6032.8,18180.1-6036.2,18184.4-6036.2z
						 M18348.3-6035.2c-10.6,0.2-21.5,9-20.6,20.2c1,13.6,9.1,19.6,22.4,18.3c7.1-0.7,6.9-0.8,11.7,7.7c4.3,7.7,15.7,40.5,15.8,45.4
						c-5.5-7.2-18.3-20.6-30.1-20.1c-12.7,0.9-23.3,12.8-13.8,29.7c5.1,8.3,14.2,9.9,23.4,7.2c13.8,21.3,16.4,42.6,20.8,67.4
						c0,0,5.4-53,7.1-74.1c3.1-32.4,7.6-53.4,20.2-79.1c-10.5-6-21.8-10.8-33.1-15.1c-4.5-1.7-9.2-1.8-13.7-4.6
						C18355.3-6034.4,18351.8-6035.2,18348.3-6035.2z M18989-6030.9c4.3,0,7.7,3.4,7.7,7.7c0,4.3-3.5,7.7-7.7,7.7s-7.7-3.5-7.7-7.7
						C18981.2-6027.4,18984.7-6030.9,18989-6030.9z M18370.1-6013.9c8,12.9,15.8,31.5,16.4,43.2c0.3,7.7-1.3,17.3-2.6,26.1
						c-0.7,4.4-2.3,0.1-5.4-9.4c-12.5-39.4-15.9-47-24.6-45c-5,1.1-10.1,1.3-13.5-0.5c-11.1-6.1-12.1-26.4,4.1-30.2
						C18357.3-6032.5,18365.5-6021.2,18370.1-6013.9z M18369.8-6023.7c16.1,6.3,26.4,15.8,23.4,31.2c-1.3,5.8-2.1,10.6-3.7,10
						c-1.8-0.7-4.3-7.7-9.3-19.7C18379.1-6006,18367.6-6023.6,18369.8-6023.7z M18636.1-6023c0.8-0.1,2.2,0.7,4,2.4
						c12.7,12.4,5.8,40.4-11.1,48.4c-7,4.8-19.8,4-19.8-0.6c0-1.8,0.4-2.3,2.2-2.3c14.2,0.1,29.3-19.5,25.1-40.4
						C18636-6018.7,18635-6022.8,18636.1-6023z M18193.8-6016.2c4.3,0,7.8,3.4,7.8,7.7c0,4.3-3.5,7.7-7.8,7.7s-7.8-3.5-7.8-7.7
						C18186.1-6012.8,18189.5-6016.2,18193.8-6016.2z M18649.5-6013.8c0.9-0.1,4,1.2,6,3.6c12,14.3,2.2,38.7-16.5,47
						c-7.2,3.8-13.2,1.2-11.7-2.8c12.8-5.3,24.9-18.9,23.6-37.6C18650.3-6010.1,18648.1-6013.6,18649.5-6013.8z M18396.1-6011.2
						l4.3,2l-1.8,3.7C18397.8-6007.7,18397.8-6008.6,18396.1-6011.2z M18663-6009.7c1,0,3.1-0.3,5.1,1.6c7.7,7.5,9,28.4,1.5,38.7
						c-3.5,4.8-14.3,13.7-17.5,14.5c-3.8,0.5-6.4,1-12.6-1.8c-2.1-0.1,0.9-2,4.9-4.3c14-8,23.3-22.3,20.8-35.8
						C18663.8-6005,18661.2-6009.6,18663-6009.7z M18677.2-6002.9c3.7,0.3,6.6,3.6,8.3,6.3c9.2,13.1,1.6,40.7-17.2,46.4
						c-12.5,3.8-17.2,0.2-7-5.7c14.6-8.4,22.1-24.9,17.9-38C18677.2-6000.2,18675.2-6002.8,18677.2-6002.9z M18692.4-5993.4
						c4.4,0.1,7.8,3.4,9.3,6.8c3.6,8.5,3.1,20.3-1.7,28.7c-4.7,8.3-13.7,15.2-23.7,16.2c-2.6,0.2-4.9-0.1-6.9-1
						c-4.4-1.9-2.9-2.2,5.4-6.5c13.2-6.8,21-21.1,19-36.8C18693.1-5991.8,18690.7-5993.3,18692.4-5993.4z M18214.9-5996.2v20.3
						l-43,40.3v-19.8L18214.9-5996.2z M18580.5-5993.6c0.8,0.8,5.7,12.4,6.3,14.7c-10.1,14.4-12.9,38-14.5,55.9
						c-5.7,50.7-11.6,112-14.2,112.5l-11.2,0.2c4.3,2.8,9.8-84.1,18.4-139.2C18566-5953.6,18575.3-5996.2,18580.5-5993.6
						L18580.5-5993.6z M18710.7-5984.6c14.8,9.9,6.9,40.9-13.7,48.6c-7.5,2.8-10.2,3.2-13.6-0.1c-2.1-2.1-4.2-2.7,1.3-4.7
						c15.2-3.9,25.9-18,23.4-34.4C18707.8-5979.1,18704-5989.6,18710.7-5984.6L18710.7-5984.6z M18591.1-5976l6.7,4.3
						c-7.2,21.5-9.9,46.8-12.9,71.3c-3.6,29.6-6.7,60.2-11.1,89.3l-10.3,0.4c5.4-18,7.8-68.2,13.2-110.3
						C18579.8-5942.4,18583.2-5971.7,18591.1-5976L18591.1-5976z M18602.8-5969l8.6,5c-3,12-6.6,25.1-8.4,37.7
						c-4,27.9-5.5,61.8-14.6,113.9l-9.3,0.8c2.3-16.7,6.8-54,10.6-88.3C18594-5939.8,18600.9-5970,18602.8-5969L18602.8-5969z
						 M18214.9-5970.3v19.9l-43,39.3v-18.4L18214.9-5970.3z M18617.4-5962.7c0,0,7.4,4.1,8.4,4.6c-5.6,22-8.3,42.5-11.1,62.4
						c-3.7,26.9-6.5,53.1-11.6,82.7l-9.9,0.6c4.9-22.7,10.6-76,15.1-113.5C18610.7-5947.7,18616.1-5963.1,18617.4-5962.7z
						 M18380.5-5917.9c0.1,15-3.2,38.3-3.2,38.3c-1.3,0.7-5.4-34.1-19.6-49.9c-17.3,8.2-32.2-11-20.4-24.2
						C18360.3-5973.3,18380.5-5931.3,18380.5-5917.9z M18630.3-5956.7l12,5.5c-1.5-0.3-4.3,8-7.1,20.8
						c-8.4,39.1-16.8,116.2-18.2,116.1l-9.3,0.8c3-20.7,7.1-53.4,11.5-82.3C18624.2-5928.6,18628.8-5956.5,18630.3-5956.7
						L18630.3-5956.7z M18647.1-5949.2l9.1,5.5c-0.8-0.6-4.1,9.1-5.7,15.9c-8.2,39-11.9,73.2-17,111l-10,1.3
						c-0.8,1.1,8.6-74.5,16.3-112.6C18642.4-5941.2,18646.3-5949.6,18647.1-5949.2z M18661.3-5942.4l9.8,4.8
						c-10.6,29.9-11.6,58.6-21.8,118.6l-10.3,1.9c4.2-38.5,10.1-79.8,18.6-117.4C18658.6-5939.6,18661.2-5942.3,18661.3-5942.4z
						 M18675.3-5935.4l11,4.4l-23.1,110.3l-9.3,1.3c5.8-31.8,8.8-68.6,16.6-97.5C18672.2-5923.1,18673.1-5930,18675.3-5935.4
						L18675.3-5935.4z M18195.5-5917.9c4.3,0,7.8,3.4,7.8,7.7c0,4.2-3.5,7.7-7.8,7.7s-7.7-3.4-7.7-7.7
						C18187.7-5914.5,18191.2-5917.9,18195.5-5917.9z M18205.6-5899.9c4.3,0,7.8,3.5,7.8,7.7c0,4.2-3.5,7.7-7.8,7.7
						c-4.3,0-7.7-3.4-7.7-7.7C18197.8-5896.4,18201.3-5899.9,18205.6-5899.9z M18185.4-5899.4c4.3,0,7.8,3.4,7.8,7.7
						c0,4.3-3.5,7.7-7.8,7.7s-7.7-3.5-7.7-7.7C18177.7-5895.9,18181.1-5899.4,18185.4-5899.4z M18195.1-5881.6
						c4.3,0,7.7,3.5,7.7,7.7c0,4.2-3.5,7.7-7.7,7.7c-4.3,0-7.8-3.4-7.8-7.7C18187.3-5878.2,18190.8-5881.6,18195.1-5881.6z
						 M18265.2-5855.9l-92.9,93.5l-0.3-18.7l63.7-62.1l-64.2-1l0.2-12.6L18265.2-5855.9z M18222.6-5838.1l-49.8,47.2l-0.4-48
						L18222.6-5838.1z M18275.8-5834.7c0,0-0.3,1.7,4.4,9.9c13.6,23.5,16.7,45.1,28.7,70.3c6,13.8,19.4,27.6,22.5,28.4l-15,27.2
						l422.1-0.9l-67.6-117.1c-107.2,19.7-203.6,16.3-294.2,0.5c-5.2,6.9-10.9,21-16.3,31.2
						C18346.9-5821.4,18303.7-5844.7,18275.8-5834.7z M18291.1-5831.5c22.3-0.3,40.9,10.2,57.4,32.5c5.2,7.1,7.3,10.3,7.3,13.3
						c-0.6,3.5-7.5,14.5-7.5,14.5s-4-11-5-16.3c-6,21.9-8.4-3.5-10.7-10.2c-7.3,21.2-11.3-7.9-10.9-15.8c-10,13.6-9.3-8.7-14.2-12.9
						c-0.1,11.8-7.1,3.7-16.1,1.2c4.7,6.6,13.9,11,2.2,12.5c11.7,8,17.6,6.8,6.2,11.2c8.8,4.8,23.2,10.6,7.2,13.7
						c9.8,6.1,25.4,8.7,8.6,14.5c12.7,7.7,29.7,7.2,5.8,13.4c8.6,5,23.9,6.9,6.8,11.3c2.6,1.2,7.2,4.2,7.2,4.2l-7.4,11.6
						c0,0-2.7-0.2-4.5-2.1c-7.8-8.1-15.4-23-22.2-43.9c-5-15.4-11-31.6-17.5-45.1C18280.4-5831,18280.7-5831.4,18291.1-5831.5
						L18291.1-5831.5z M18668.1-5805.1l58.3,99.1l-13.8,0.2l-51.5-84.9l-69.5,7.8l22.9,75.9l-20.7,0.6l-20.5-74.6
						c-38.8,1.6-75.8,2-108.1-0.6l-10.9,75.7l-19.7-0.7l12.5-74.9l-65.2-8.3l-35.4,84.1l-20.4,0.4c13.2-22,46-93.1,52.1-100.2
						C18520.3-5783,18594.1-5795.1,18668.1-5805.1L18668.1-5805.1z M18654.5-5782.2l44.2,76.3l-71,0.3l-23.8-70.6L18654.5-5782.2z
						 M18389-5779.9c14,4.1,29.1,4.9,44.2,5.5l-12.9,68.2l-62.9-0.1L18389-5779.9z M18566-5771.9l16.7,66.3l-118.3,0.6l9.8-66.1
						C18505.1-5769.2,18535.5-5770.9,18566-5771.9z"/>
				</g>
			</g>
		</g>
		<path id="path147-0-8-1-3-6-4-3-4_1_" d="M135.7,229.3c7.9-0.2,11.5-9,5.6-15.9c-0.9-1-0.9-1.6,0.6-0.6c3.9,2.6,11.5,0.9,11.9-7.1
			c0.5-9.9-13.4-12.7-16-2.2c-0.1,1.1-1,1.1-0.8-0.5c0.2-4.3,1.6-8.3,3.4-12.1c-3.1,0-6.6,0-9.4,0c1.8,3.9,3.2,7.9,3.4,12.1
			c0.2,1.6-0.7,1.6-0.8,0.5c-2.6-10.5-16.5-7.7-16,2.2c0.4,8,8,9.7,11.9,7.1c1.6-1,1.5-0.4,0.6,0.6
			C124.3,220.3,127.8,229.2,135.7,229.3C135.7,229.3,135.7,229.3,135.7,229.3L135.7,229.3z"/>
		<path id="path147-0-8-1-0-3-83-9-4-0_1_" d="M52.2,31.8c7.9,0.2,11.5,9,5.6,15.9c-0.9,1-0.9,1.6,0.6,0.6
			c3.9-2.6,11.5-0.9,11.9,7.1c0.5,9.9-13.4,12.7-16,2.2c-0.1-1.1-1-1.1-0.8,0.5c0.2,4.3,1.6,8.3,3.4,12.1c-3.1,0-6.6,0-9.4,0
			c1.8-3.9,3.2-7.9,3.4-12.1c0.2-1.6-0.7-1.6-0.8-0.5c-2.6,10.5-16.5,7.7-16-2.2c0.4-8,8-9.7,11.9-7.1c1.6,1,1.5,0.4,0.6-0.6
			C40.8,40.8,44.3,31.9,52.2,31.8C52.2,31.8,52.2,31.8,52.2,31.8L52.2,31.8z"/>
	</g>
</g>
</svg>
