<svg id="Layer_1" data-name="Layer 1" xmlns="http://www.w3.org/2000/svg" viewBox="0 0 180 250"><title>all_cards</title><g id="g8497-6-8"><path id="path7086-8-0" d="M48.26,26.21c-7.44,10.55-15.4,16.62-15.53,24.85,0,2.67,1.4,7.2,5.94,8.06,2.95.56,7-1.8,7.09-6.62,0-1,1-.93,1,.38A27.25,27.25,0,0,1,43.39,64.7h9.74a27.25,27.25,0,0,1-3.38-11.82c0-1.31,1-1.34,1-.38.09,4.82,4.14,7.18,7.09,6.62,4.54-.86,6-5.39,5.94-8.06C63.66,42.83,55.7,36.76,48.26,26.21Z"/><path id="path7088-9-3" d="M13.88,40.07C10.41,44.46,6.69,47,6.63,50.42A3.33,3.33,0,0,0,9.4,53.78,2.88,2.88,0,0,0,12.71,51c0-.4.48-.39.48.16a10.48,10.48,0,0,1-1.58,4.92h4.55a10.48,10.48,0,0,1-1.58-4.92c0-.55.48-.56.47-.16a2.88,2.88,0,0,0,3.31,2.76,3.34,3.34,0,0,0,2.78-3.36c-.06-3.43-3.78-6-7.26-10.35Z"/><path id="path7092-7-0" d="M166.12,209.93c-3.48-4.39-7.2-6.92-7.26-10.35a3.34,3.34,0,0,1,2.78-3.36A2.88,2.88,0,0,1,165,199c0,.4.47.39.47-.16a10.36,10.36,0,0,0-1.58-4.92h4.55a10.46,10.46,0,0,0-1.57,4.92c0,.55.47.56.47.16a2.88,2.88,0,0,1,3.31-2.76,3.32,3.32,0,0,1,2.77,3.36c-.06,3.43-3.78,6-7.25,10.35Z"/><path id="path7094-3-5" d="M131.74,26.21c-7.44,10.55-15.4,16.62-15.53,24.85,0,2.67,1.41,7.2,6,8.06,2.94.56,7-1.8,7.08-6.62,0-1,1-.93,1,.38a27.25,27.25,0,0,1-3.38,11.82h9.75a27,27,0,0,1-3.38-11.82c0-1.31,1-1.34,1-.38.08,4.82,4.14,7.18,7.08,6.62,4.54-.86,6-5.39,5.94-8.06C147.14,42.83,139.18,36.76,131.74,26.21Z"/><path id="path7098-7-3" d="M90,66C82.56,76.53,74.6,82.6,74.47,90.83c0,2.67,1.4,7.2,5.94,8.07,3,.56,7-1.81,7.09-6.63,0-1,1-.93,1,.38a27.25,27.25,0,0,1-3.38,11.82h9.74a27.25,27.25,0,0,1-3.38-11.82c0-1.31,1-1.34,1-.38.08,4.82,4.13,7.19,7.08,6.63,4.54-.87,6-5.4,5.94-8.07C105.4,82.6,97.44,76.53,90,66Z"/><path id="path7105-0-7" d="M48.26,105.76c-7.44,10.55-15.4,16.62-15.53,24.85,0,2.66,1.4,7.19,5.94,8.06,2.95.56,7-1.81,7.09-6.63,0-.95,1-.93,1,.38a27.25,27.25,0,0,1-3.38,11.82h9.74a27.25,27.25,0,0,1-3.38-11.82c0-1.31,1-1.33,1-.38.09,4.82,4.14,7.19,7.09,6.63,4.54-.87,6-5.4,5.94-8.06C63.66,122.38,55.7,116.31,48.26,105.76Z"/><path id="path7107-6-3" d="M48.26,223.79c-7.44-10.55-15.4-16.62-15.53-24.85,0-2.67,1.4-7.2,5.94-8.06,2.95-.57,7,1.8,7.09,6.62,0,1,1,.93,1-.38a27.25,27.25,0,0,0-3.38-11.82h9.74a27.25,27.25,0,0,0-3.38,11.82c0,1.31,1,1.34,1,.38.09-4.82,4.14-7.19,7.09-6.62,4.54.86,6,5.39,5.94,8.06C63.66,207.17,55.7,213.24,48.26,223.79Z"/><path id="path7109-5-0" d="M131.74,223.79c-7.44-10.55-15.4-16.62-15.53-24.85,0-2.67,1.41-7.2,6-8.06,2.94-.57,7,1.8,7.08,6.62,0,1,1,.93,1-.38a27.25,27.25,0,0,0-3.38-11.82h9.75a27,27,0,0,0-3.38,11.82c0,1.31,1,1.34,1,.38.08-4.82,4.14-7.19,7.08-6.62,4.54.86,6,5.39,5.94,8.06C147.14,207.17,139.18,213.24,131.74,223.79Z"/><path id="path7119-1-9" d="M131.74,105.76c-7.44,10.55-15.4,16.62-15.53,24.85,0,2.66,1.41,7.19,6,8.06,2.94.56,7-1.81,7.08-6.63,0-.95,1-.93,1,.38a27.25,27.25,0,0,1-3.38,11.82h9.75a27,27,0,0,1-3.38-11.82c0-1.31,1-1.33,1-.38.08,4.82,4.14,7.19,7.08,6.63,4.54-.87,6-5.4,5.94-8.06C147.14,122.38,139.18,116.31,131.74,105.76Z"/><path id="path25-4-6-4" d="M9.79,37.55c1.75-9.2,3.62-16.1,8.51-23.6H8.36v3.23H5.72V11.09H20.26L22.05,14c-5.19,5.64-10,23.87-9.11,23.6Z"/><path id="path25-4-1-9-1" d="M170.21,212.45c-1.75,9.2-3.62,16.1-8.51,23.6h10v-3.23h2.63v6.08H159.74L158,236.05c5.19-5.64,10-23.87,9.11-23.6Z"/></g></svg>