<?xml version="1.0" encoding="utf-8"?>
<!-- Generator: Adobe Illustrator 23.0.1, SVG Export Plug-In . SVG Version: 6.00 Build 0)  -->
<svg version="1.1" xmlns="http://www.w3.org/2000/svg" xmlns:xlink="http://www.w3.org/1999/xlink" x="0px" y="0px"
	 viewBox="0 0 180 250" style="enable-background:new 0 0 180 250;" xml:space="preserve">
<style type="text/css">
	.st0{fill:#FFFFFF;}
	.st1{fill:#E2CF00;}
	.st2{fill:#131F67;}
	.st3{fill:#D40000;}
	.st4{fill:#100F08;}
</style>
<g id="white-background">
	<rect class="st0" width="180" height="250"/>
</g>
<g id="Layer_1">
	<g id="g5510_1_" transform="matrix(0.99999718,0,0,1.000002,-1.9858274,-5.5505123)">
		<path id="path147-0-8-1-6-13-2-9-8-8_1_" d="M133.7,32.1c-7.9,0.2-11.5,9-5.6,15.9c0.9,1,0.9,1.6-0.6,0.6
			c-3.9-2.6-11.5-0.9-11.9,7.1c-0.5,9.9,13.4,12.7,16,2.2c0.1-1.1,1-1.1,0.8,0.5c-0.2,4.3-1.6,8.3-3.4,12.1c3.1,0,6.6,0,9.4,0
			c-1.8-3.9-3.2-7.9-3.4-12.1c-0.2-1.6,0.7-1.6,0.8-0.5c2.6,10.5,16.5,7.7,16-2.2c-0.4-8-8-9.7-11.9-7.1c-1.6,1-1.5,0.4-0.6-0.6
			C145.2,41.1,141.6,32.3,133.7,32.1C133.7,32.1,133.7,32.1,133.7,32.1L133.7,32.1z"/>
		<path id="path147-0-8-1-6-75-2-83-3-5-0_1_" d="M50.2,32.1c-7.9,0.2-11.5,9-5.6,15.9c0.9,1,0.9,1.6-0.6,0.6
			c-3.9-2.6-11.5-0.9-11.9,7.1c-0.5,9.9,13.4,12.7,16,2.2c0.1-1.1,1-1.1,0.8,0.5c-0.2,4.3-1.6,8.3-3.4,12.1c3.1,0,6.6,0,9.4,0
			c-1.8-3.9-3.2-7.9-3.4-12.1c-0.2-1.6,0.7-1.6,0.8-0.5c2.6,10.5,16.5,7.7,16-2.2c-0.4-8-8-9.7-11.9-7.1c-1.6,1-1.5,0.4-0.6-0.6
			C61.7,41.1,58.2,32.3,50.2,32.1C50.2,32.1,50.2,32.1,50.2,32.1L50.2,32.1z"/>
		<path id="path147-0-8-1-6-7-5-5-7-63-0-4_1_" d="M133.7,229.7c-7.9-0.2-11.5-9-5.6-15.9c0.9-1,0.9-1.6-0.6-0.6
			c-3.9,2.6-11.5,0.9-11.9-7.1c-0.5-9.9,13.4-12.7,16-2.2c0.1,1.1,1,1.1,0.8-0.5c-0.2-4.3-1.6-8.3-3.4-12.1c3.1,0,6.6,0,9.4,0
			c-1.8,3.9-3.2,7.9-3.4,12.1c-0.2,1.6,0.7,1.6,0.8,0.5c2.6-10.5,16.5-7.7,16,2.2c-0.4,8-8,9.7-11.9,7.1c-1.6-1-1.5-0.4-0.6,0.6
			C145.2,220.6,141.6,229.5,133.7,229.7C133.7,229.7,133.7,229.7,133.7,229.7L133.7,229.7z"/>
		<path id="path147-0-8-1-6-75-6-1-2-46-5-0_1_" d="M50.2,229.7c-7.9-0.2-11.5-9-5.6-15.9c0.9-1,0.9-1.6-0.6-0.6
			c-3.9,2.6-11.5,0.9-11.9-7.1c-0.5-9.9,13.4-12.7,16-2.2c0.1,1.1,1,1.1,0.8-0.5c-0.2-4.3-1.6-8.3-3.4-12.1c3.1,0,6.6,0,9.4,0
			c-1.8,3.9-3.2,7.9-3.4,12.1c-0.2,1.6,0.7,1.6,0.8,0.5c2.6-10.5,16.5-7.7,16,2.2c-0.4,8-8,9.7-11.9,7.1c-1.6-1-1.5-0.4-0.6,0.6
			C61.7,220.6,58.2,229.5,50.2,229.7C50.2,229.7,50.2,229.7,50.2,229.7L50.2,229.7z"/>
		<path id="path147-0-8-1-6-1-1-0-5-61-2-0_1_" d="M92,111.6c-7.9,0.2-11.5,9-5.6,15.9c0.9,1,0.9,1.6-0.6,0.6
			c-3.9-2.6-11.5-0.9-11.9,7.1c-0.5,9.9,13.4,12.7,16,2.2c0.1-1.1,1-1.1,0.8,0.5c-0.2,4.3-1.6,8.3-3.4,12.1c3.1,0,6.6,0,9.4,0
			c-1.8-3.9-3.2-7.9-3.4-12.1c-0.2-1.6,0.7-1.6,0.8-0.5c2.6,10.5,16.5,7.7,16-2.2c-0.4-8-8-9.7-11.9-7.1c-1.6,1-1.5,0.4-0.6-0.6
			C103.5,120.7,99.9,111.8,92,111.6C92,111.6,92,111.6,92,111.6L92,111.6z"/>
		<path id="path147-6-9-8-7-0-5-6-5-2-8_1_" d="M168.1,215.5c3.2-0.1,4.6-3.8,2.2-6.6c-0.3-0.4-0.4-0.7,0.2-0.3
			c1.6,1.1,4.6,0.4,4.8-3c0.2-4.1-5.4-5.3-6.4-0.9c-0.1,0.5-0.4,0.5-0.3-0.2c0.1-1.8,0.6-3.4,1.4-5.1c-1.3,0-2.5,0-3.8,0
			c0.7,1.6,1.3,3.3,1.4,5.1c0.1,0.7-0.3,0.7-0.3,0.2c-1-4.4-6.6-3.2-6.4,0.9c0.2,3.3,3.2,4.1,4.8,3c0.6-0.4,0.6-0.2,0.2,0.3
			C163.5,211.7,164.9,215.4,168.1,215.5L168.1,215.5L168.1,215.5z"/>
		<path id="path147-0-8-1-6-75-2-9-77-4-4-2_1_" d="M50.2,85.1c-7.9,0.2-11.5,9-5.6,15.9c0.9,1,0.9,1.6-0.6,0.6
			c-3.9-2.6-11.5-0.9-11.9,7.1c-0.5,9.9,13.4,12.7,16,2.2c0.1-1.1,1-1.1,0.8,0.5c-0.2,4.3-1.6,8.3-3.4,12.1c3.1,0,6.6,0,9.4,0
			c-1.8-3.9-3.2-7.9-3.4-12.1c-0.2-1.6,0.7-1.6,0.8-0.5c2.6,10.5,16.5,7.7,16-2.2c-0.4-8-8-9.7-11.9-7.1c-1.6,1-1.5,0.4-0.6-0.6
			C61.7,94.2,58.2,85.3,50.2,85.1C50.2,85.1,50.2,85.1,50.2,85.1L50.2,85.1z"/>
		<path id="path147-0-8-1-6-75-2-8-0-6-4-4_1_" d="M50.2,176.6c-7.9-0.2-11.5-9-5.6-15.9c0.9-1,0.9-1.6-0.6-0.6
			c-3.9,2.6-11.5,0.9-11.9-7.1c-0.5-9.9,13.4-12.7,16-2.2c0.1,1.1,1,1.1,0.8-0.5c-0.2-4.3-1.6-8.3-3.4-12.1c3.1,0,6.6,0,9.4,0
			c-1.8,3.9-3.2,7.9-3.4,12.1c-0.2,1.6,0.7,1.6,0.8,0.5c2.6-10.5,16.5-7.7,16,2.2c-0.4,8-8,9.7-11.9,7.1c-1.6-1-1.5-0.4-0.6,0.6
			C61.7,167.6,58.2,176.5,50.2,176.6C50.2,176.6,50.2,176.6,50.2,176.6L50.2,176.6z"/>
		<path id="path147-0-8-1-6-75-2-9-7-1-36-2-4_1_" d="M133.7,85.1c-7.9,0.2-11.5,9-5.6,15.9c0.9,1,0.9,1.6-0.6,0.6
			c-3.9-2.6-11.5-0.9-11.9,7.1c-0.5,9.9,13.4,12.7,16,2.2c0.1-1.1,1-1.1,0.8,0.5c-0.2,4.3-1.6,8.3-3.4,12.1c3.1,0,6.6,0,9.4,0
			c-1.8-3.9-3.2-7.9-3.4-12.1c-0.2-1.6,0.7-1.6,0.8-0.5c2.6,10.5,16.5,7.7,16-2.2c-0.4-8-8-9.7-11.9-7.1c-1.6,1-1.5,0.4-0.6-0.6
			C145.2,94.2,141.6,85.3,133.7,85.1C133.7,85.1,133.7,85.1,133.7,85.1L133.7,85.1z"/>
		<path id="path147-0-8-1-6-75-2-8-5-1-55-5-4_1_" d="M133.7,176.6c-7.9-0.2-11.5-9-5.6-15.9c0.9-1,0.9-1.6-0.6-0.6
			c-3.9,2.6-11.5,0.9-11.9-7.1c-0.5-9.9,13.4-12.7,16-2.2c0.1,1.1,1,1.1,0.8-0.5c-0.2-4.3-1.6-8.3-3.4-12.1c3.1,0,6.6,0,9.4,0
			c-1.8,3.9-3.2,7.9-3.4,12.1c-0.2,1.6,0.7,1.6,0.8,0.5c2.6-10.5,16.5-7.7,16,2.2c-0.4,8-8,9.7-11.9,7.1c-1.6-1-1.5-0.4-0.6,0.6
			C145.2,167.6,141.6,176.5,133.7,176.6C133.7,176.6,133.7,176.6,133.7,176.6L133.7,176.6z"/>
		<path id="path147-6-9-8-7-4-5-62-7-8-4_1_" d="M15.9,45.6c-3.2,0.1-4.6,3.8-2.2,6.6c0.3,0.4,0.4,0.7-0.2,0.3
			c-1.6-1.1-4.6-0.4-4.8,3c-0.2,4.1,5.4,5.3,6.4,0.9c0.1-0.5,0.4-0.5,0.3,0.2c-0.1,1.8-0.6,3.4-1.4,5.1c1.3,0,2.5,0,3.8,0
			c-0.7-1.6-1.3-3.3-1.4-5.1c-0.1-0.7,0.3-0.7,0.3-0.2c1,4.4,6.6,3.2,6.4-0.9c-0.2-3.3-3.2-4.1-4.8-3c-0.6,0.4-0.6,0.2-0.2-0.3
			C20.5,49.4,19,45.7,15.9,45.6L15.9,45.6L15.9,45.6z"/>
		<path id="path29-2-3-4_1_" d="M8.4,38l2.4-0.8c0.9,2.4,2.8,3.2,4.7,3c3.5-0.3,4.7-4.2,5-7.7c-1.4,1.4-3.4,2.2-5.2,2.1
			c-5.6-0.3-7.1-4.8-7.1-9.4c-0.2-3.9,1.5-6.8,4.3-8.1c1.5-0.7,4.9-0.7,6.4,0.1c3.4,1.8,4.7,4.9,4.5,12.4c0,6.1-1.3,13.3-7.9,13.4
			C11.7,43.6,8.8,40.6,8.4,38L8.4,38L8.4,38z M18,31.3c1.1-0.7,1.8-1.4,2.3-2.4c0.4-0.8,0.6-1.3,0.4-3c-0.3-4.4-2.7-7-6.1-6.5
			c-1.9,0.3-2.9,1.3-3.5,3.3c-1.1,3.6,0.3,7.9,2.9,8.8C15.2,32,17.1,31.9,18,31.3L18,31.3z"/>
		<path id="path29-6-1-3-7_1_" d="M175.5,223.1l-2.4,0.8c-0.9-2.4-2.8-3.2-4.7-3c-3.5,0.3-4.7,4.2-5,7.7c1.4-1.4,3.4-2.2,5.2-2.1
			c5.6,0.3,7.1,4.8,7.1,9.4c0.2,3.9-1.5,6.8-4.3,8.1c-1.5,0.7-4.9,0.7-6.4-0.1c-3.4-1.8-4.7-4.9-4.5-12.4c0-6.1,1.3-13.3,7.9-13.4
			C172.2,217.5,175.1,220.5,175.5,223.1L175.5,223.1L175.5,223.1z M166,229.8c-1.1,0.7-1.8,1.4-2.3,2.4c-0.4,0.8-0.6,1.3-0.4,3
			c0.3,4.4,2.7,7,6.1,6.5c1.9-0.3,2.9-1.3,3.5-3.3c1.1-3.6-0.3-7.9-2.9-8.8C168.7,229.1,166.9,229.2,166,229.8L166,229.8z"/>
	</g>
</g>
</svg>
