<svg id="Layer_1" data-name="Layer 1" xmlns="http://www.w3.org/2000/svg" viewBox="0 0 180 250"><defs><style>.cls-1{fill:#d40000;}</style></defs><title>all_cards</title><g id="g6716"><path id="path6516-8" class="cls-1" d="M90,64.7c-4.18-6.87-8.58-13.54-14.08-19.24,5.5-5.71,9.9-12.38,14.08-19.25,4.18,6.87,8.58,13.54,14.08,19.25C98.58,51.16,94.18,57.83,90,64.7Z"/><path id="path6518-2" class="cls-1" d="M13.88,56.1a45.35,45.35,0,0,0-5.86-8,44.92,44.92,0,0,0,5.86-8,45,45,0,0,0,5.87,8A45.41,45.41,0,0,0,13.88,56.1Z"/><path id="path6522-0" class="cls-1" d="M166.12,209.93a45.46,45.46,0,0,0-5.87-8,45.91,45.91,0,0,0,5.87-8,45.35,45.35,0,0,0,5.86,8A44.92,44.92,0,0,0,166.12,209.93Z"/><path id="path6538-6" class="cls-1" d="M90,223.79c-4.18-6.87-8.58-13.54-14.08-19.25,5.5-5.7,9.9-12.37,14.08-19.24,4.18,6.87,8.58,13.54,14.08,19.24C98.58,210.25,94.18,216.92,90,223.79Z"/><path id="path15-34-1-4-2" class="cls-1" d="M6.31,37.5l.13-1.64c.41-5,1.5-6.74,7.68-12,3-2.55,4-3.81,4.12-5.27.39-3.45-2.67-4.52-4.67-4.54C11,14,8.05,15.59,9.45,19.23l-2.9.87c-.59-3.4,0-6.58,2.73-8,3.63-1.85,8.28-1.12,10.63,1.78A6.88,6.88,0,0,1,21,20.64C18.53,26,10.14,28.4,9.44,34.63h9.28V31.16h2.73v6.39l-15.14,0Z"/><path id="path15-5-4-6-4" class="cls-1" d="M173.69,212.5l-.13,1.64c-.41,5-1.5,6.74-7.68,12-3,2.55-4,3.81-4.12,5.27-.4,3.45,2.67,4.52,4.67,4.54,2.58,0,5.51-1.54,4.11-5.18l2.91-.87c.58,3.4,0,6.58-2.74,8-3.62,1.85-8.28,1.12-10.63-1.78a6.93,6.93,0,0,1-1.09-6.75c2.48-5.39,10.87-7.76,11.56-14h-9.27v3.47h-2.74v-6.39l15.15.05Z"/></g></svg>