<?xml version="1.0" encoding="utf-8"?>
<!-- Generator: Adobe Illustrator 23.0.1, SVG Export Plug-In . SVG Version: 6.00 Build 0)  -->
<svg version="1.1" xmlns="http://www.w3.org/2000/svg" xmlns:xlink="http://www.w3.org/1999/xlink" x="0px" y="0px"
	 viewBox="0 0 180 250" style="enable-background:new 0 0 180 250;" xml:space="preserve">
<style type="text/css">
	.st0{fill:#FFFFFF;}
	.st1{fill:#E2CF00;}
	.st2{fill:#131F67;}
	.st3{fill:#D40000;}
	.st4{fill:#100F08;}
</style>
<g id="white-background">
	<rect class="st0" width="180" height="250"/>
</g>
<g id="Layer_1">
	<g id="g4922_1_" transform="matrix(0.99999718,0,0,1.000002,-5.9698507,-5.5506344)">
		<path id="path147-6-9-8-7-0-5-6-9-6-3_1_" d="M172.1,215.5c3.2-0.1,4.6-3.8,2.2-6.6c-0.3-0.4-0.4-0.7,0.2-0.3
			c1.6,1.1,4.6,0.4,4.8-3c0.2-4.1-5.4-5.3-6.4-0.9c-0.1,0.5-0.4,0.5-0.3-0.2c0.1-1.8,0.6-3.4,1.4-5.1c-1.3,0-2.5,0-3.8,0
			c0.7,1.6,1.3,3.3,1.4,5.1c0.1,0.7-0.3,0.7-0.3,0.2c-1-4.4-6.6-3.2-6.4,0.9c0.2,3.3,3.2,4.1,4.8,3c0.6-0.4,0.6-0.2,0.2,0.3
			C167.5,211.7,168.9,215.4,172.1,215.5C172.1,215.5,172.1,215.5,172.1,215.5L172.1,215.5z"/>
		<path id="path147-6-9-8-7-4-5-62-08-0-2_1_" d="M19.8,45.6c-3.2,0.1-4.6,3.8-2.2,6.6c0.3,0.4,0.4,0.7-0.2,0.3
			c-1.6-1.1-4.6-0.4-4.8,3c-0.2,4.1,5.4,5.3,6.4,0.9c0.1-0.5,0.4-0.5,0.3,0.2c-0.1,1.8-0.6,3.4-1.4,5.1c1.3,0,2.5,0,3.8,0
			c-0.7-1.6-1.3-3.3-1.4-5.1c-0.1-0.7,0.3-0.7,0.3-0.2c1,4.4,6.6,3.2,6.4-0.9c-0.2-3.3-3.2-4.1-4.8-3c-0.6,0.4-0.6,0.2-0.2-0.3
			C24.4,49.4,23,45.7,19.8,45.6L19.8,45.6L19.8,45.6z"/>
		<path id="path39-7-2-1_1_" d="M20.5,40.2h2.7l-3.9-9.8l-3,4.1l0,5.6h2.1v2.9h-7.4v-2.9h2.4v-21l-2.4,0v-2.5h7.5v2.6h-2.1l0,10.2
			l6.6-10.3h-2.3v-2.5h8v2.5h-2.1l-5.4,8.4l5.3,12.6h2.4l0,2.9h-8.3L20.5,40.2L20.5,40.2z"/>
		<path id="path39-3-8-1-1_1_" d="M171.4,220.9h-2.7l3.9,9.8l3-4.1l0-5.6h-2.1V218h7.4v2.9h-2.4v21l2.4,0v2.5h-7.5v-2.6h2.1l0-10.2
			l-6.6,10.3h2.3v2.5h-8v-2.5h2.1l5.4-8.4l-5.3-12.6h-2.4l0-2.9h8.3L171.4,220.9L171.4,220.9z"/>
		<g id="g5429-3-1-8_1_" transform="matrix(1.0146544,0,0,1.0241582,3367.1174,-1472.4599)">
			<g id="layer1-6-4-4-1_1_">
				<g id="KC-7-1-9_1_" transform="translate(-735.6996,-760.44497)">
					<g id="g3440-6-4-8_1_" transform="matrix(0.15086704,-0.00311503,0.00311532,0.15083482,965.0168,1197.8387)">
						<g id="g3454-7-1-1_1_" transform="translate(346.10401,401.33141)">
							<path id="path3450-5-0-3_1_" class="st1" d="M-23106.1,5931.2l-432.2-6.8l52.7,104.4c112.5-7.7,210.8,3.2,313.2,8.7
								L-23106.1,5931.2z M-23408.7,6288.2c-0.5,0.6-18.1,4.7-16.4,8.7c43.8,98.3,62.6,177.8,79.6,278.2c9.8-7.6,25.4-7,25.4-7
								c-6.9-37.3,40.3-41,39.8-2.1c9,2.3,18.3,2.5,26.3,11.7c5.9-109.2,47.7-221.5,100.4-298.8c-58.6,21.6-145,76.8-145,76.8
								S-23369,6325.3-23408.7,6288.2L-23408.7,6288.2z M-23055.8,6307.1c-78.8,71.3-113.3,273.1-107.8,276
								c-99.6-5.4-132.1,103.1-46.9,163.8c-3.7,11.3-12.3,20.5-19,30.4c8.8,5.3,18.5,6.5,28.2,7.8c7.2,8.8,14.2,19,22.2,20
								c8.8-5.3,15.2-13.1,22.5-19.8c9.1-2.1,18.1-4.4,26.7-8.1c-7.4-10.7-16.2-21.5-16.2-31.4c76.2-51,67.4-122.8,0.4-160.8
								c22.7-120,53.7-196.4,89-250.4L-23055.8,6307.1z M-23590.3,6389.2c-9.9,4.6-15.5,14.5-22.8,22.2c-9.8,0.2-19.3,3.4-28.7,7.3
								c0,0,21.8,31.2,20.4,32.8c-73.6,45.8-74.5,114.9-5.6,161.8c9.8,98.6-77.6,252.4-81.7,247.8l-0.8,32.2
								c61.2-63.7,97.8-180.4,103.2-275.1c119.7-5.4,126.3-120.1,44.9-164.9c-6.2-5.9,21.4-32,21.4-32c-6.7-6.9-18.2-7.9-28.2-8.9
								C-23574.6,6404.7-23579.9,6397.1-23590.3,6389.2z M-23086.3,6479c16.1,37.7,78.8-6.5,89.1,13.6c8.5,11.4,27.4,13,26.8-6
								c-3.2-18.9-15.5-23.3-65.2-16.1c-18.8,2.7-26.6,4.4-26.3-4.1C-23074.5,6450.5-23086,6471.4-23086.3,6479z M-23030,6534.7
								c-13.9-0.3-17.3,53.5-17.5,69.6c-41.4,62.1,81.2,57.5,29.6-12.2c2-8.9-6.3-23.7-5.9-30.2
								C-23028.1,6561.3-23029.5,6537-23030,6534.7z M-23748.7,6601c-1.6,16.3,9.4,65.9,13.9,64.3c16.2-24.8,14.8-46.3,13.7-70.8
								C-23682.2,6523.9-23810.5,6550.6-23748.7,6601z M-23515.8,6617.3c-7.7,105-35.8,207.6-96.5,295.9
								c51.1-22.4,100.8-51.6,148.9-76.5l109.6,70.6c6.5-2.6,11-3.9,15.3-8c-49.6-75.4-63.3-182.7-83.6-279.9
								c-8.6,5.8-24.6,8.5-24.6,8.5c-1.8,33.5-37.5,43.7-43.9-0.2L-23515.8,6617.3z M-23785.6,6693.8c-11.9,0.5-21.4,29.4,12.1,34.4
								c23.6,3.8,54.2-7.1,69.1-1.5c16.9,28.1,33.5-12.4,10.2-19.5c-25-7.7-76.5,9.9-81.8-6
								C-23778.7,6695.8-23782.2,6693.7-23785.6,6693.8z M-23593.5,7153.4l-69.4,116.1l428.4,6.3l-53.7-113.2
								C-23287.3,7161.4-23475.8,7180.9-23593.5,7153.4z"/>
							<path id="path3446-6-3-4_1_" class="st3" d="M-23479.1,6040.1l8.2,15.5c100.7-14.3,179.7-15.3,283.1,6.8l9.8-15.7
								C-23272.4,6027.8-23368.9,6018.8-23479.1,6040.1z M-23389.2,6272.4l86.4,58.1c0,0,42.5-28.6,60.7-40.6l-10.5-16.1
								c-38.7,80.3-102.5,14.8-126.1-23.8C-23378.8,6250-23385.7,6264.6-23389.2,6272.4z M-23154.6,6304.5c6.1,0,9.4,2.4,12.3,8.6
								c3.3,7,4.7,5.3,2.6-3.4c-3.2-13.7,11.5-22.2,25.1-12.9c9.8,6.8,9,22.6-1.9,25.4c-8.8,2.2-9.1,4.5-1.4,4.3
								c13.8-0.4,17.1,18,7.1,26.7c-11.5,10-25.7,2.5-26.8-10.4c-0.5-3.7-1.3-3.6-2.6-1.6c-3.6,5.9-4.1,13.6-3.6,20.6l-20.1-13
								c7.3-3.4,11.8-5.5,17.1-10.8c0.7-0.7,1.2-1.2,1.2-1.5c0-0.6-2.3,0.1-6.4,0.5c-12.3,1-21.6-7.1-18.9-18.5
								C-23168.3,6308.7-23163.1,6304.5-23154.6,6304.5z M-23250.9,6619.9c22.7-24.7,50.5-40.3,88.7-37.2
								c7-105.3,45.8-198.3,106.5-281.6l-64.1-40.1l-26.3,15.1C-23207.9,6363.4-23251.2,6474.1-23250.9,6619.9z M-23732,6363.6
								c0,0-44.6,31.7-65.3,47.1l-5,290.7l5.6,2c0.4,0.6-0.4-4.3,2.2-6.5c2.2-1.8,5.6-3.8,7.6-4.5c5.7-1.9,6-5.7,0.8-9
								c-4-2.6-5.5-6.5-4.9-12.9c0.4-4.5,0.2-5.5-1.6-8.7c-2.3-3.9-2.4-8.7-0.3-13.7c1-2.3,0.9-2.9-0.7-6.1c-2-4.1-2.2-8.4-0.5-13
								c0.6-1.8,1.2-5.7,1.2-8.7c0-11.6,9.8-19.1,27.6-21.1c7-0.8,7.2-1.1,4.1-6.9c-17.3-33,23.5-49.2,26.4-43.9L-23732,6363.6z
								 M-23178.4,6391.2c16.4,0.1,29.7,13.4,29.6,29.7c-0.1,16.3-13.5,29.5-29.9,29.4c-16.4-0.1-29.7-13.4-29.6-29.7
								C-23208.2,6404.2-23194.8,6391.1-23178.4,6391.2z M-23178.2,6396.5c-13.2-0.1-23.9,10.4-24,23.5
								c-0.1,13.1,10.5,23.7,23.7,23.8c13.2,0.1,23.9-10.5,24-23.5C-23154.5,6407.2-23165.1,6396.6-23178.2,6396.5z M-23177.8,6404
								c8.9,0.1,16.1,7.3,16.1,16.1c-0.1,8.9-7.3,16-16.3,16c-8.9-0.1-16.1-7.3-16-16.2C-23194,6411.1-23186.7,6404-23177.8,6404z
								 M-23768.6,6404c1.2,0,2.5,0.2,3.8,0.7c7.4,2.5,9.8,9,5.7,15.1c-3.2,4.8-2.9,5.2,2.7,3.3c4.4-1.5,6.6-1,9.9,2.5
								c10.1,10.3-5.6,27-15.4,16.5c-4.9-5.2-5.4-3.7-2.1,5.1c1.1,2.9,2.8,7.3,2.8,7.3l-14.7-0.5c0,0,2.4-5.8,3.5-8.5
								c2.7-6.6,2.8-7.5-2.6-3.5c-12.2,9.2-25.4-7.2-14.2-17.5c2.3-2.1,5.9-2.1,10.9-0.1c3.6,1.5,4.1,0.5,1.4-3
								C-23782.7,6413.7-23777,6403.9-23768.6,6404z M-23463.8,6436.3c-6.8,38.8-2.7,93.6-3.4,122.8c15.9,3.4,15.9,14.2,18,27.6
								c7.8-2.5,24.6,9.2,26.9,8.3C-23419.7,6555.5-23438,6440.4-23463.8,6436.3z M-23199.6,6480.8c22.6,2.3,17.9,19.6,11,26.6
								c-3.3,3.6-2.7,5.3,0.8,3.2c9.7-5.6,17.2-1.2,20.1,8.7c4.9,17-17.8,31.1-27.4,15.7c-3.3-5.2-5.4-4.1-4.7,1.3
								c0.4,5.2,5.3,16,5.3,16l-22.2-2.4c0,0,7-11.1,8.3-14.1c2.6-6.2,1.3-7.9-3.5-3c-14.2,12.4-33.1-4.2-23.8-20.8
								c4.6-8.2,12.8-10.7,21.5-3.9c5.9,4,7.2,2.3,2-2.5C-23221.9,6496.8-23212.9,6479.5-23199.6,6480.8z M-23769.1,6482.9
								c0.3,0,0.5,0,0.8,0c1.9,0.1,3.9,0.6,5.9,1.8c5.5,3.2,6.9,9.3,3.3,14.6c-2.1,3-1.5,4.9,0.8,3c3.2-2.6,10-0.7,12.6,3.5
								c6.6,10.8-7.1,24.5-15.4,15.4c-3.7-4-5.1-4.2-4.8-1.6c1.1,4.9,4.2,13.2,4.2,13.2l-15.4-0.1c0,0,3.5-8.6,4.3-13
								c0.6-3.5-0.8-3-4.5,1c-3.6,3.9-6.9,4.3-11.4,1.2c-11.1-7.6-1.7-26.4,9.9-19.8c4,2.3,4.6,1,1.5-3.2
								C-23782.9,6491.5-23777,6483.1-23769.1,6482.9z M-22969,6492.6c-25.5,25.1-17.3,10.1-6.2,29.9c-0.2,12.9,7.1,23.1,0.7,43.3
								c-2,3.9-2.2,5.8-1.2,9.8c-2.3,22.4-20.4,21.7-38,24.8c2.9-0.1,26.9,46.2-19.7,48.8l-3.3,186.2l74.1-51.9l5.7-290.6
								L-22969,6492.6z M-23518.8,6579.6c-21,12.8-50.7,45.3-87.1,37.4c-6.8,116-47.1,205.2-103.4,281.3
								c18.7,11.5,39.2,25.2,58.3,34.2c16.5-8,25.8-11.3,42.1-24.1C-23541,6808.7-23517.9,6698.8-23518.8,6579.6z M-23347.4,6604.4
								c2.5,59.7,11.1,116.4,41.4,162.4l4.7-126.7c-11.1-2.9-20-10.2-22.9-30.5L-23347.4,6604.4z M-23573.9,6634.9l20.9,0.9
								c0,0-4.9,9.3-7.1,14.5c-2.6,6.3-1.5,7.7,3.4,3.3c6.3-5.7,16.2-6,21.3-0.7c13.5,14-1.4,36.1-17.5,25.9c-6.9-4.3-8.1-3-2.7,3.1
								c10.6,10.2-1,24.2-13.6,24c-9.1-0.2-14.9-7.6-15.4-15.6c-0.2-5,2.4-10,6.8-12.4c4.6-2.5,1.4-4.2-3.6-1.6
								c-16.4,8.3-26.8-14.1-14.3-26.5c7.2-7.1,14.7-6.3,21.7,0.8c4.9,5,6.7,4.6,5.4-1.2
								C-23569.9,6643-23573.9,6634.9-23573.9,6634.9L-23573.9,6634.9z M-23010.8,6664l15,0.3c-1.5,3.6-3.5,7.4-4.8,11
								c-1.4,3.9-0.4,4.5,3.6,0.7c10.4-6.7,21.3,0.4,18.8,11.3c-1.7,7.5-8.1,11-15.4,7.6c-6.4-3-4.3-1.7-0.8,2.7
								c4.3,5.3,3,11.4-2.8,15.3c-10.4,6.9-23.6-5.2-16.6-15.4c4.1-6.1,2.3-5.4-1.4-2.5c-5.5,3.8-13.6-1.9-13.6-9.7
								c-0.4-11.2,11.1-17.2,18.9-9.2c3.7,3.3,4.7,2.9,3.1-1.8C-23008.4,6670.9-23008.8,6667.3-23010.8,6664z M-23011.7,6745.2
								l15.7,0.1c0,0-0.2,1.2-2.8,5.6c-2.9,5.2-2.6,10.7,0.4,7.1c5.1-6.2,15.7-4.2,19,3.5c3.9,9-4.2,18.7-12.4,14.8
								c-5.3-2.5-5.7-2-2.2,3.1c3.3,5,1.7,11.1-4,14.5c-11.2,6.8-24.1-7.4-14.7-16.2c2.5-2.3,1.8-3.5-1.3-2
								c-12.3,6.3-20.9-10.2-10.2-19.5c4.6-4,8-3.6,15.2,1.6c2.3,1.6,2.7,0,1.2-4C-23010.4,6747-23011.7,6745.2-23011.7,6745.2z
								 M-23593.8,6742.9c17.4,0.1,31.5,14.2,31.4,31.6c-0.1,17.3-14.3,31.3-31.8,31.2c-17.4-0.1-31.5-14.3-31.4-31.6
								S-23611.2,6742.8-23593.8,6742.9z M-23593.5,6748.5c-14.3-0.1-26,11.4-26.1,25.6c-0.1,14.2,11.5,25.9,25.8,25.9
								c14.3,0.1,26-11.4,26.1-25.6C-23567.6,6760.2-23579.2,6748.6-23593.5,6748.5z M-23593.4,6758.4c8.8,0.1,15.9,7.2,15.9,16
								c-0.1,8.8-7.2,15.8-16.1,15.8c-8.8-0.1-16-7.2-15.9-16C-23609.5,6765.4-23602.2,6758.4-23593.4,6758.4z M-23634.7,6833.6
								l18.1,9.2c0,0-8.8,6.8-12.3,10.3c-4.5,4.5-4.2,6.7,1.7,4.6c11.4-4,22.6,2.6,22.5,14.2c0,15.5-18.7,22.6-27.3,10.7
								c-2.6-3.6-5.7-5.1-4.5-2.2c2.9,7,0.8,15.7-4.5,19.2c-4.3,2.8-12,3.5-15.8,1.4c-13.2-7.1-13.5-22.4-0.7-28.1
								c6.5-2.9,6.7-5.7,0.4-4.3c-13.2,3-20.5-12.9-10.8-23.6c10.3-11.3,26.6-8.6,28,8.5c0.3,3,2.4,0.9,3.4-3.7
								C-23635.2,6846.5-23634.7,6833.6-23634.7,6833.6z M-23465.2,6862.7c0,0-67.6,36.4-65.6,38c0.4,0.2,14.4,20.7,14.4,20.7
								c34.7-73.9,112.7-10.5,124.7,27.8c2.7,1.7,3.2,1.3,6.2,2.7c0.3-2.7,6.4-29,6.4-29L-23465.2,6862.7z M-23580.4,7135.7
								l-11.1,15c-3.8,1.5,165.8,33.6,300.7,7.3l-8.9-17.7C-23409.6,7165.8-23582.1,7137.7-23580.4,7135.7L-23580.4,7135.7z"/>
							<path id="path3444-9-5-7_1_" class="st2" d="M-23797.5,5906.3l-28.3,1369.6l863.5,17.8l28.3-1369.6L-23797.5,5906.3z
								 M-23538.8,5922.3l433.6,7.3l-82.9,134.6c0.9-7.2-155.2-32.4-283.7-8.2L-23538.8,5922.3z M-23785.6,5920.4l235.8,4.9
								l76.6,143c0,0,4.5,8.9,1.5,18.1c-3.2,10-6,14.4-8.8,19.5c0.3-2.9-22.8-6.3-21.3,13.4c1,13.4,17.9,21.3,30.8,11.1
								c2-0.1,2,1.7,1.5,5c-1.3,7.6-10,31.7-15.6,33.2c-28.1-23.8-39.1,18.4-20.1,27.3c11,5.1,28.2,1.4,36.5-11.7
								c6.3-10.1,5.6-8.4,7.3,4c0.6,4.6,1.5,10,2,12.4c1.5,7.5-0.2,8.9-12.9,12.1c-10.3,3.7-20.7,5.7-31.2,7.7
								c-19.3,2.7-29.4,16.9-30.3,34.5c-0.2,3.8-0.1,5.5-0.9,6.7c-82,29-168.5,70.2-260.7,141.6L-23785.6,5920.4z M-23251.3,6267.8
								c-3-5-12.3-31.2-14.8-42.1c-6-52.7-6-115.2-12.6-164.3l9.9,1.3c0,0,3.5,14.3,6.7,52.6c1.6,19,2.9,58.5,4.2,76.7
								c2,27,13.3,70.4,20.7,81.4c12,18,37.2,7,29.3-14.2c-4.1-11-20.9-9.6-18.8,1.8c0,2,1.6-1.4,4.1-3.5c7.3-2.6,15.3,5.1,10.8,14
								c-5.5,11.4-21,5.8-25.9-8.8c-5.8-17.4,15.3-30,30.6-19.1c17.1,12.1,16.5,41.9,2.4,51
								C-23228.3,6302.7-23244,6285.3-23251.3,6267.8z M-23193.6,6290.9c-0.9-0.6,0.1-2.4,1.3-6.6c4.7-16,2.2-28.6-8-40.6
								c-5.7-6.7-7.9-7.9-4.8-9c6.5-2.4,20.6,8.2,24.4,18.5c3.7,10.1,4.4,20.4-1.3,31.5
								C-23185.8,6286.9-23191.9,6291.6-23193.6,6290.9z M-23175.7,6280.5c0-1.9,1.4-7.8,1.8-10.7c1.4-11.2-3.7-22.7-12.8-31.8
								c-7.7-7.6-8.4-8.4-1-8.4c19.2,0.1,30.7,31.1,21.6,46C-23168.4,6278.1-23175.5,6282.8-23175.7,6280.5z M-23159.2,6270.5
								c6.2-26.1-19-44.1-19.5-43.3c1.4-5.9,11.5-2.3,14.9,0.1c12.7,8.9,19.7,31.5,11.5,44.1c-0.9,1.6-2,2.4-3.4,3.2
								c-2.7,1.6-4.3,2.9-4.8,1.7C-23161,6275.5-23159.4,6271.7-23159.2,6270.5L-23159.2,6270.5z M-23382.1,6180.8
								c2.7-2.5,3.5-2.6,8.6-0.6c15.9,6.4,29-4.8,25.5-16.9c-1.3-4.4-7.2-9.2-10.9-9.7c-6-0.7-6.2,2.4,0.2,5
								c8,3.1,8.6,11.6,1.5,15.3c-8.4,5.4-21.7-9-31.7-8c-4.8,1.3-7.9,5.7-5.3,11.1C-23392.1,6180.8-23385,6183.2-23382.1,6180.8z
								 M-23399.8,6178.7c-5.5-2.7-7.6-2.7-6.5-8.7c0.8-4,7-30.6,10-40.9c8.8-30.8,1.5-48.1-21.4-55.5c-15.5-5-29-2.9-45,5.1
								l-2.7-8.8c66.9-15.9,180.5-9.7,180-9.1c2.1,8.9,2.7,17.9,3.4,26.8c0,0-21.1-10.8-32.1-14.5c-17-5.6-44.2-0.4-49.1,9.2
								c-2.8,5.5-1.5,9.2,10.1,3.3c19-9.7,57.3-1.2,70.6,9.7c3.1,2.5,2.9,3.1,2.9,5.9c0,4.4,0.3,4.7-5.8,1.3
								c-32-17.1-59.6-15.7-69.6,5.6c-2.2-0.7-10.5-2.3-10.5-2.3l8.7,13.4l1.4,13.9c0,0,14.5,8.4,22.6,12c7.9,3.5,3.4-0.1-6.3-7.1
								c-7.1-5.1-1.3-6.6,3.4-4.6c9.7,2.4,23.9,5.5,40.6-4.5c5.2-3.1,16.9-0.1,17,1.4c0,0,1.3,12.1,2.3,37.4
								c0.5,11.9,1.6,27.6,2.4,34c2.1,19.4,2.8,20.5-7.2,11c-3.4-3.2-9-8.5-9.1-8.2c-1.4,6,13.5,16.8,16.9,20.5
								c5.2,5.6,9.2,19.7,7.1,20.5c-1.4,0.5-15.5-11.9-26.5-23c-4.2-4.2-10.3-9.8-10.5-9.6c-2.4,1.5,6.9,12.3,15.6,20.5
								c10.2,9.5,11.4,10.3,7.8,11.7c-6.5,2.4-12.2-0.9-27.6-14c-1.5-1.3-7.3-5.6-7.6-5.3c-1.5,1.9,12.7,15.7,15.9,16.9
								c6,2.3,7.7,8.2,2.8,10.3c-3.2,1.5-15-5.3-24.4-13.7c-1.7-1.5-6.4-4.1-6.7-3.8c-1.9,1.2,8.6,10.6,18.7,16.9
								c9.9,6.2,11.4,7.7,8.8,12.6c-2.5,5.1-24.1-7.2-34.9-19.6c-2.3-2.6-4.1-3.8-3.6-2.9c4.5,13.2,20,23,31.6,27
								c2.1,0.7,5.1,1.6,6.4,2.7c3.3,2.7,2.5,5.4-1.2,6.9c-12.5,3.2-31.9-12.2-45.6-28.2c-1.6-0.7-0.7,1.4-0.3,2.1
								c11.3,18.8,33.5,33.4,47.1,31.1c7.9-1.4,14.2,1.1,14.2,3.8c0,2.2-4.4,5.5-12.9,5.9c-19.3,1-48.9-20.6-65.9-47.5
								c-0.5-0.8-1.2-1.2-1.2-0.7c-0.6,5.6,10.1,19.7,18.3,27.8c24.4,24,47.8,32.5,66.4,19.6c10.5-7.8,20.9-25,5.6-31.1
								c-8.1-3.2-13.5,7.8-6.4,4.8c9.2-0.9,11.2,4,9.9,8.5c-2.5,7.8-10.3,8.8-16.6,5.4c-10.9-6.2-8.1-26.4,6.2-29.7
								c12.9-2.8,23.9,8.2,25.2,18.5c2,16-16.5,32.9-31.1,36.9c-49.9,13.6-87.2-55.6-87.3-57.1c-2.4-4.8-5.3-7.4-7.3-1.9
								c-2.2,8-13.9,31.3-19.8,31c2-8.3,10.2-22,8.5-34.3c-3.5,10-10.9,31.2-24.5,42.4c-3.5,3.1-13.8,6.5-6.6-1.4
								c8.7-11.6,20-27.5,18.1-42.6c-2.3,3.4-3.7,11.9-6.4,17.6c-6.7,14.1-21,30.7-30.3,33.2c-6.9,1.9-6.2-0.4,1-7.6
								c7.7-7.7,21.4-30.4,20.7-40.3c-0.3-4.4-14.5,37.6-39.9,48.6c-6.8,2.3-10.6-0.9-10.6-0.9c10-5.5,37.9-31.6,35.9-62
								c0,0-1.6,4.5-3.8,11.2c-9.9,28.8-30.1,47.4-45.7,48.7c-12.4,1-20.9-4.1-17.8-6.3c16,0.4,29.3-4.8,40-20.1
								c10.8-15.6,15.2-40.9,9.4-67.8c-5.2-24.3-6-46.1-7.6-69.4c17.5,6.3,35.1,10.7,52.3,4.4c-1.9,6.9-4.7,7.7-9.4,12.8
								c-3.4,3.8-2.3,4.7,10.7-4c3.8-2.5,5.2-4.6,5.8-3.9c1.1,1.2-0.8,8.3-4.8,22.4c-6,21.2-4.6,22.7,15.8,31.2
								c3.8,1.6,5.2,3.1,6.5,4.7c0.6,0.8,3.9,6.9,4.2,7.1c0.7,0.5,0.7-6.1,0.3-7.8c-1-4.5-3.4-7.9-5.5-9.3
								C-23390.3,6180.9-23396.1,6180.5-23399.8,6178.7L-23399.8,6178.7z M-23016.9,6464.3l0.7-22.1l21.3,15.7l-0.4,7.3
								L-23016.9,6464.3z M-23054,6468.4l7.6-408.7c0,0,16.8-10.6,25.2-15.9c4.8,16.3,4.1,51.1,1.8,66.5c-3.5,10-5.8,54.8-2.6,77.7
								c2.6,18.2,1.4,48.3-1.7,62.7c-1.2,5.6-0.9,32,0.6,56.4c1.2,18.7,0.4,35.6-2.1,45.3c-1.9,7.6-1.9,35-0.1,45.6
								c2.7,15.5,2.2,65.2,0.8,67.9C-23028,6469.7-23055.9,6469.7-23054,6468.4z M-23012.3,6041.3c0,0,16.5,11.3,24.4,17l-0.2,17.6
								l-23.8-16.2L-23012.3,6041.3z M-23262.3,6064.6l10.3,0.9c3.7,21.4,5,45.6,6.1,69.9c-0.2,37.4,3.6,76.9,11.9,103l-7.8,7.8
								c-12.3-29.9-12.4-76.7-14.6-108.3C-23256.8,6102.1-23262,6064.8-23262.3,6064.6L-23262.3,6064.6z M-23010.8,6066.1l22.2,15.6
								l-0.2,19.2l-22.3-15.4L-23010.8,6066.1z M-23247.4,6066.3l9.1,1.2c2.2,25.3,6.1,42.6,7.1,70.4c1.3,36,7,65.7,10.3,93.9
								l-6.8,2.1c-4.6,2-11.4-31.4-13.4-98.8C-23241.7,6114.7-23244.7,6091.7-23247.4,6066.3z M-23233.7,6067.6l10.8,2.1
								c3.5,64.1,9.8,124.3,17,158.9l-9.4,0.4C-23226,6179.6-23225.5,6122.6-23233.7,6067.6L-23233.7,6067.6z M-23218.1,6070.1
								l9.9,1.9c9,146.5,16.4,144.8,18.6,150.6l-10.9,4.1C-23211.2,6184.5-23212.3,6125.2-23218.1,6070.1L-23218.1,6070.1z
								 M-23175.8,6214.8c-1.8,4.9-5.8,4.4-10.3,4.8c-4.7-13.5-7.2-29.6-9-45.4c-3.8-34.6-4.8-66.9-8.8-101l11.9,1.5
								C-23192.4,6074.9-23186,6194.7-23175.8,6214.8z M-23428.8,6080.9c15.6,1.1,28.5,8.3,29.5,18.6c0.2,2.3-1.6,1.1-3.7-0.5
								c-13.3-10.5-28.5-14-47.2-7.8c-4.1,1.4-7.4,3.6-9.2,3.2c-1.6-1.1-2-3.6-0.8-5.6
								C-23455.6,6081.7-23436.5,6080.4-23428.8,6080.9z M-23465.5,6100.7c0,16.1-4.1,24.9-12.7,28.5c-10.4,4.3-23.3-5.6-16.7-16.2
								c5-8,13.3-5.4,14.7,3.2l13.6-28.6C-23466.6,6087.5-23465.5,6096.6-23465.5,6100.7z M-22988.7,6107.9l-0.5,16.6l-23.8-16.5
								l1.9-15.9L-22988.7,6107.9z M-23415.9,6096.9c11.8,4.9,16,10.7,16.4,13.3c-0.7,1.9-1.9,0.6-10.4-4.3
								c-13.2-8.4-30.5-10.1-46-0.1c-3.8,0.7-4.2-1.5-0.3-5.5C-23444.5,6091.5-23428.4,6091.8-23415.9,6096.9z M-23325.8,6095.7
								c10.4-0.1,22.9,2.8,33.3,8.3c4.6,2.4,8.8,4,11.7,6.7c2.4,1.3,2.5,6.8,0.7,7.2c-1.6,0.2-4.2-1.1-8-3.9
								c-24.7-16.7-42.8-15.1-57.5-5.4c-0.8,0.5-3.3,1-4.3,1c-2.8-0.3-2.9-1.4-1.7-2.9
								C-23344.6,6099.2-23334.5,6095.8-23325.8,6095.7L-23325.8,6095.7z M-23013,6113.8l23.8,17.3l-0.3,16.5l-25.3-18.2
								L-23013,6113.8z M-23448.8,6111.5l3.5,0.2c7.8,19.9,18.3,10,22.8,2.1l4.3,0.8C-23425.5,6140.9-23452.6,6126.5-23448.8,6111.5
								z M-23454.9,6114c4,0.6,3.7,5,4.9,8.3c2.6,7.3-7.8,1-9.6-0.9C-23462.6,6118.2-23458.1,6114.3-23454.9,6114z M-23335.4,6115.7
								c10.1,15.9,16.3,6.8,22.3,0l2.8,1c-1,11.3-20.4,22.9-29-0.8L-23335.4,6115.7z M-23303.4,6118.1c1.1,0,3.3,0.9,5.4,1.8
								c5.6,2.4,5.3,4.1-1,6.7c-10.2,4.2-13.7,4.8-10.5-1.5C-23307.9,6122.3-23306.6,6118.5-23303.4,6118.1z M-23343,6119.7
								c2.5,1.9,4.1,4,4.3,7.3c0.2,2.4-7.7-0.5-7.6-4.3C-23346,6120.4-23344.6,6118.5-23343,6119.7z M-23412.8,6119.2
								c5.1,2,4.5,4.4,0.8,6.6c-6.5,3.4-9.3,2.7-5-2.9C-23415,6120.3-23414.5,6119.2-23412.8,6119.2z M-23015.1,6135.7l25.8,18.8
								l-0.6,16.8l-25.8-18.2C-23016.7,6145.8-23015.5,6141-23015.1,6135.7z M-23467.3,6152.3c1.2,0.1,1.6,4.1,1.8,10.1
								c0.3,9.9-10.1,23.5-20.5,28c-12.5,5.5-25.5-2.8-23-14.7c2.3-10.9,17.9-11,18.3-0.9c-1.6,2.6,0.5,4.9,1.4,4.7
								c4.1-1,13.7-9.3,17.8-18.7c1.6-3.7,2.6-7.5,3.7-8.3C-23467.7,6152.3-23467.5,6152.3-23467.3,6152.3z M-23016.3,6158.5
								l25.7,19.5l-0.2,16.6l-25.5-18.2C-23017.2,6168.9-23016.6,6163.7-23016.3,6158.5L-23016.3,6158.5z M-23333.7,6178.3
								c-2,3.3-0.5,9.2,3.6,4.3c10.7-11.8,25.4,3.5,17.2,12.9c-7.5,8.5-16.4,5.6-35.3-2.1c-13.7-5.5-16-3.8-19.5-0.1
								c-2.9,3.1-1.6,9.4,2.1,9.4c11.2,2.8,20.9,5.4,32.4,8.1c24.5,5.5,40.1-25.6,17.9-37.6
								C-23320.7,6170.4-23331.9,6173.7-23333.7,6178.3z M-23442.2,6179.7c-9.8,8.3-2.4,30.9,11.7,33.2c2.9,0.5,7.4,0.5,12.4-0.9
								c9.9-2.6,20.9-8.2,21.4-11.6c2.3-15.3-20.9-2-24-0.3c-7.3,4.2-15,3.5-18.8-1.8c-8.5-11.9,7.4-25,16.6-10.5
								c2.3,3.7,1.6-2.5-0.9-6.7C-23427.4,6175.3-23436.9,6175.5-23442.2,6179.7z M-23015.1,6183.7l24.2,17.7l-0.5,16l-23.4-17.5
								L-23015.1,6183.7z M-23013.7,6207.2l22.9,17.1l0.1,16.7l-24.1-16.5C-23014.2,6218.5-23014,6212.9-23013.7,6207.2z
								 M-23144.2,6214.1c20.4,0.8,31.3,31,20.3,43.3c-3.3,3.6-5.9,4.6-7.3,3.2c-0.3-0.3,0.3-3.6,0.6-7.4
								c0.9-12.1-1.5-20.4-10.2-29.8C-23147.4,6216.3-23149.9,6214.1-23144.2,6214.1z M-23396.1,6213.6c-3.9,1.3-8,4-11.2,3.2
								c-3.1-0.7-4.6,0.8-5.9,3.2c-4.9,9.2-3.5,12.3,5.9,7.2c4.5-2.4,6-1.5,17.7,1c8.4,1.7,14.1,1.7,21.6,0
								c9.3-2.2,14.8-2.3,19.4,0.4c4.6,2.6,7.7,6.2,7.9,3.3c-0.5-3.3-3.2-11.9-3.8-14.7c-0.3-1.4-2.6-0.2-4.8-0.1
								c-7.7,0.4-16.6-6.6-22.6-3.1c-4.8,2.8-5.4,3.5-11.8-0.4C-23388.5,6210.6-23391.9,6212.3-23396.1,6213.6z M-23149.9,6220.8
								c13.6,11.8,16.9,22,15.4,30.4c-0.8,6.1-1.4,12.8-7.5,16.3c-1.1,0.5-2.8,0.8-4.3,1c5-17.2-0.2-32.8-19.4-49.7
								C-23159.9,6216.1-23154.1,6217.2-23149.9,6220.8z M-23462.1,6214.3c0.6,0,1.3,0.1,2,0.4c2.4,0.8,2.6,7.1,0.7,9
								s-3.4,0.3-5.5-4.7C-23466.5,6216.2-23464.8,6214.3-23462.1,6214.3z M-23475,6218.9c5.1,0,6.9,4.6,7.7,8.3
								c0.7,3.1-0.4,12.4-3.1,9.1c-0.6-2-3.2-8.4-5.4-10.1C-23480.6,6222.5-23480,6218.9-23475,6218.9z M-23489.3,6223.3
								c0.7,0,1.7,0.1,2.8,0.3c7.9,1.5,13.6,14.1,11.7,21.1c-4.3,7.5-5.8,2.4-7-4.6c-1-2.9-4.2-7.4-6.1-9.8
								C-23491.9,6225.5-23492.5,6223.3-23489.3,6223.3z M-23014.8,6229.4l23.7,17.6l-0.3,18.3l-24.8-17.3
								C-23015.6,6241.7-23015.2,6235.5-23014.8,6229.4z M-23505,6226.7c11.8,0,21.5,14.1,17.6,27.1c-4.9,13.6-27.7,10.2-23.6-3.4
								c1.2-3.9,5.4-6.7,9.4-4.1c5.7,3.7,5.2-2.1,1.6-4.2c-5.6-3.3-13.5-1.5-15.4,4.8c-6.5,22.2,22.1,30.4,38.3,7.7
								c5.9-8.3,12.3-17.2,15.9-20.9c3.2-3.4,3.8-3,3.2,1.4c-2.4,20.7-17.5,46.2-44.7,44.3c-26.4-3-34.1-31.1-13.8-48.1
								C-23512.8,6228.4-23509.1,6226.7-23505,6226.7z M-23364.6,6230.8c-9.8,4.5-18.6,6-28.1,1.7c-7-3.2-7,0.1-3.9,2.9
								c8.7,7.7,24.9,4.6,31.9,0.5C-23362.5,6234.6-23361.7,6230.7-23364.6,6230.8z M-22991.6,6271.6l-0.3,16.6l-26.5-18.4
								c-0.3-4,0.2-10,1.2-16.3L-22991.6,6271.6z M-23017.6,6276.6l25.2,17.2l0.3,16.5l-24.5-15.8L-23017.6,6276.6z
								 M-23016.3,6299.8l24,17.3l0,18l-23.8-16.3L-23016.3,6299.8z M-23611.5,6306.4l-15.9,44.5l9.8,0.8l6.4,12l7-12l10.3-0.6
								L-23611.5,6306.4z M-23015.8,6324.7l23.2,16.5l0,16.6l-24.1-17.3L-23015.8,6324.7z M-23017.1,6345.1l23.7,17.8l0.1,17.7
								l-26.9-18.6L-23017.1,6345.1z M-23556.6,6343.9l-15.8,47.7l8.4-1l7.5,13l8.1-11.4l7.5,0.6L-23556.6,6343.9z M-23668,6345.2
								l-15.1,47.4l9.4,0.2l7.7,12.2l7.2-11.5l10.7-0.1L-23668,6345.2z M-23020.7,6367.4l27.9,20.3l-0.2,18.8l-27-18.8
								L-23020.7,6367.4z M-22993.7,6412.5l0,16.4l-23.5-17.3l-2.2-18.3L-22993.7,6412.5z M-23498.7,6404.9l-18.3,48.1l11.6,0.3
								l6.8,11.8l5.9-11.6l9.3,0.3L-23498.7,6404.9z M-23015.8,6419.7l21.8,15.5l-0.5,16.9l-21.4-14.9L-23015.8,6419.7z
								 M-23438.3,6607.1l-12.3-12.3c-0.1-1,10.4-5.8,16.8-2.5c8.4,4.4,12.5,19.7,2.8,27.5c-7.7,6.2-19.1,0.7-19.3-0.1
								L-23438.3,6607.1z M-23449.1,6587.1c0.6-18.5-9.1-23.5-17.2-27.4c0,0,1.1-117.6,1.3-121.1c0,0.5-1.8-12.8-2-13.6l0,0
								c0,0-1.9-0.6-1.9-0.5c0.1,11.9-1.6,134.1-1.9,134.9c-15.3,1.4-19.7,11.6-21.4,25.3c-11.9-1.1-19.7,5.8-20,7
								c-4.3-6.1-0.8-14.8-4.1-21.1c-11.3,36.3,8.7,58.6,26.6,57c2.1,35.2,40.9,42.3,40.5-0.3
								C-23402.1,6625.4-23417.1,6582.1-23449.1,6587.1L-23449.1,6587.1z M-23667.3,6434.9l-18,47.1l12-1.1l4.2,8.9
								c19.5-16.4,28.6,9.7,19.3-12.7L-23667.3,6434.9z M-23021,6532.8c2.2-0.1,5.1,1.9,5.6,4.6c0.2,8-10.6,6-10.8,0.9
								C-23026.4,6534.7-23023.1,6532.9-23021,6532.8z M-23015,6585.1c4.8-3.7,12.2-1.4,12.2,4.3c0,5.1-5.9,6.6-10.4,3.7
								C-23016.8,6590.9-23017,6586.8-23015,6585.1z M-23014.7,6599.2c25.6,2.5,45-14.4,37.1-27c7.1-8.5,1.5-13.5,3.5-18.4
								c5.6-5.4,1.3-17.4-0.1-17.5c-0.8-16-5.4-18.2-12.2-26.8c-2-2.5,5-4.8,7.7-9c-8.2,2-12.5-2.2-16.9-7.8
								c-47.5,1.2-90.2,3.6-89.9,67.6c-7.4,27,3.7,51.4,37,44.6c7.4-6.3,2.8-15.7,2-20.2c-2.6-12.4,0.9-20.3,1.9-26.1
								c3.2-17.8,16.7-34.1,17.6-6.1c2.4-3.5,1.3-4,5.1-5.4c9.2-3.1,9,6.1,7,9.7c-1.2,1.9-3,1.7-4.9,1.4c-2.6-0.4-6.1-1.4-6.1-2.4
								c-0.8,2.9,4.6,8.4,4,11.1c-0.8,2.6-1.2,2.4,1.2,0.7c11.6-7.9,18.4,10.4,1.9,8C-23010.6,6580.2-23022.9,6592.6-23014.7,6599.2
								z M-23029.5,6501.3c9-0.3,11.2-0.3,10.7,4.4c1.5,8.7,3.6,12.7,15,12.1c11.5-1.2,15.1-1.9,3.5,4.8c-5.9,2.4-7.8,2.9-14.7,2.1
								c-6.9-0.8-6.4-1.5-10.4,0.8c-2.2,1.3-4.7,2.8-6.5,3.1c-2.7,0.4-7.4,1.4-7.4,1.4c-3,13.4-7.2,20.1-12.9,26.3
								c-8.1,8.8-12.2,10.3-2.4,9.8c3.6,0.3,1.8-1.5,3,13c0.4,5.1,1.3,11,2,13c2.4,6.7,2.7,10-7,10.2c-24,1.3-29.2-22-25.7-33.8
								c0.3-1.9,1.5-8,1.9-12.9c0.2-2.7-0.3-5-0.2-7.7c1-22.1,6.4-27.8,26.5-41.8C-23048.2,6501.9-23037.5,6501.2-23029.5,6501.3z
								 M-23008.5,6502.9c11.1,0,21.7,5.5,16.3,8.8c-3.5,2.1-15.9,1-19.4-1.6C-23016,6506.9-23014.2,6502.9-23008.5,6502.9z
								 M-23503,6511.5l-4.5,7.6c1.7,16.9,1.8,25.7-4.7,43.2l8.8,12l7.4-12.1l11.3,0.4L-23503,6511.5z M-22984.8,6518.6
								c7.2,1.6,7.3,8.1,5.4,12.1c-4.2,8.7-31.1,12.4-31.1,12.4c-0.1-3.8,0.5-7.4-2.2-11.7c0,0,18-4.3,21.8-7.6
								C-22988.4,6521.5-22986.8,6518.6-22984.8,6518.6z M-22979.9,6538.7c2.6,0.1,3.9,2,4.6,5.8c0.3,2-0.5,3.8-2.2,6
								c-7,7.2-26.2,11.9-33.1,9.9c-0.5-0.6,0.9-8.4,1.4-11.8C-23000.1,6549.1-22984.4,6541.3-22979.9,6538.7L-22979.9,6538.7z
								 M-23253.9,6578.4c-8.9-13.3-29.2-11.8-27.1-10.8c0.4-11.2-1.2-26.7-18.4-28.7c-17.3-1.7-26.6,20.8-20.3,30.6
								c-10.6-4.6-26.8,6.1-26.9,7.1c-1.4,0-14.3,31.9,22.7,34.3c3.1,15.2,8.7,22.7,20.4,29.2l-2.3,123.8l4.1,5.7l3.1-129.8
								c19-0.4,21.8-21.9,20.5-26.9c8.4,0.5,16.1-1,22.6-5.7l1.8,21.2c0,0,4.6-7.4,3.7-11.4c-5.7-121.8,41.3-252.4,101.2-336.5
								c3.2-3.5,4.2-7.8,5.8-7.8c14.3-7.3,23.4-12.2,23.4-12.2c23.1,11.6,64.3,39.4,64.3,39.4l-2.9,173.3c-0.6-1.7,78-7.1,76.8-5
								c0,0-6.8-2.8-6.8-7.4l6.3-405.6l-33.9-23c0,0-28.6,17.7-36.6,23.8l-4.1,238.8l-60.1-36.6c0,0,1.2-8.4,1.3-11.2
								c-0.3-32.6-16.2-43.9-47-34.8c-4.1,1.2-7,2.3-9,0.6c-12.1-37.8-15.9-136.4-15.9-136.4l89.5-143.8l146.8,2.2l-9,556.3
								l-0.7,291.7l-76,52.6l2.8-186.8c0,0-10.6-5.3-13.4-5.7c-1.1-0.1-2.5,2.2-0.6,3.5c2.7,1.8,9.4,4.4,9.4,4.4l-2.2,185.1
								c0,0-29.5,18.9-42.7,26.7c-24.6,12.7-48.8,24.8-74.2,35.4c-25,10.1-80.1,31.5-80.1,31.5c-4.4-15.6-50.5-52.9-103.7-28.3
								c-4.9,1.7-10.9,3.1-14.9,5.8c-20.1,3.2-27.2,24.4-30.7,45c-0.1,0.8,1.6,0.7,1.6,0.8c0.2,0.3,5.2-19.8,7.1-23.6
								c4-8.1,9-12.8,11.6-13.6c1.2-0.2,2.2,1.7,0.5,4.5c-3.3,5.6-6.1,17.7-7,23.2c-0.8,5-1,9.1-0.1,9.3c0.2,0.2,5-15.2,7.1-20.6
								c5.6-14.1,9-19.9,14.2-22.9c5.3-3,6.5-2.5,5.4,0.7c-8.1,14.8-11.5,26.1-13.3,42.1c-0.3,3.2,1.3,3.3,2.7-1.9
								c4.6-16.7,10.9-39.3,24.8-45.8c5.9-2.5,8.5-2.3,7.9-0.5c-16.8,20.2-21.4,43-21.3,50.3c0,2.5,1,2,3.2-3.3
								c6-20.2,14.6-37.2,24.5-45.5c3.8-3.2,8.4-4,12.3-4.4c11.6-1.2,11.9,3.1,1.7,8.7c-11.6,6.4-25.4,30.3-27.2,48.4
								c-0.6,6.3,1.6,7,3.3-1.3c7.5-35.9,39.2-59.1,63.9-47.5c11.1,5.2,13,12.1,3.3,8.9c-19.6-6.6-41.9,6.8-51.3,26.1
								c-8.5,17.4-8.6,26.6-3.3,50.2c3.5,21.8,10.5,49.7,7.6,70.9c-2.8,4.1-11.3-1.9-21.4-3.4c-6.1-1.3-13.6-1.7-20,0.6
								c-5.6,2-8.8,2.5-9.7-0.5c-0.3-1,4.4-5.5,6.5-8.1c3.4-4.1,1.5-4.8-3.2-0.4c-2.3,2.2-7.3,7.2-8.6,7.4c-2.9,0.5-3-2.8-0.5-11.1
								c9-32.3,6.8-32.9-7.3-39.7c-14-5.6-9.5-8.2-15.6-13.7c-4.5,3.3,5.4,19.2,16.8,22.9c9.3,3,8.1,7.7,3.7,20.5
								c-4.5,17.9-12.2,41.5-8.4,57.6c8,33.7,42.2,33.7,68.8,20.7l3,8.6c-22.4,8.5-139.5,13.7-178.8,8.4
								c-2.8-10.6-3.1-13.4-4.1-25.9c0,0,24.1,11.4,36.2,13.6c15.1,2.7,38.5,3.3,44.8-10.5c1.9-4,0.1-7.5-5.2-5.3
								c-9.7,4.1-26.2,7-39.5,5.9c-11.1-0.9-27-5.7-33.7-9.9c-3.2-2-5.9-5.9-3.2-10.6c2.3-0.5,5.2,2.1,7,3
								c19.9,10.5,30.9,12.7,44.1,9.1c10-2.7,23.7-13.1,20.4-16.2c-3.4,1.1-14.7,10.2-22.5,12c-15.9,3.9-32.7-2.9-48.9-13.8
								c-5-4.5-2.6-7.6,3.5-4c24.4,12.8,34.5,21.2,58.4,4.4c5.3-3.8,8.3-3.2,11.3-0.8c12,11.1,12.1,5,3.4-6.5
								c-2-2.6-3.8-6.3-4.9-10.1c-0.8-2.9-1-5.7-2.6-7.6c-2.7-3.2-7.7-4.9-13.4-7.5c-8.2-3.8-11-2.1-4.9,1c10.6,5.4,15.7,11,2.5,7.8
								c-11.9-5.6-32.1-3-43.6,4.6c-9,4.1-13.1,8.7-15-1.1c-4-20.5,0.9-48.1-4.3-83.9c-1-6.8-2.3-11.2-0.8-12.1
								c1.9-1.1,6.4,3.3,11.9,11.4c2.5,3.7,7.5,10.7,7.5,9.3c0.3-7.5-11.2-21.9-20.8-27.7c-5.3-3.2-8.6-17.4-2.6-14.2
								c4.7,2.4,28.9,24.4,33.4,32.2c2.1,3.6,4,1.4,1.8-2.9c-1.3-2.5-7-10-12.5-15.6c-9.8-9.9-10.9-9.4-9-11.4
								c3.9-3.8,11.9,1.4,26.1,14.7c3.6,4.7,8.4,9,7.9,6.7c1.6-3.6-12.6-19.3-21.1-23.7c-1.6-1-1.8-2.1-1.6-4
								c1-7.3,17.4,3.8,30.9,16.6c5.1,4.8,1-4.1-4.9-10.2c-4.6-4.8-12.1-10.8-17.2-12.9c-5.1-2.2-5.3-6.6-1.2-8.4
								c13.8-0.3,27.8,14,36.1,25.2c2.3,3.1,4.4,5.5,2.1-0.3c-7.5-17.4-23.7-27.5-35-29.7c-9.2-1.8-8.8-10.1-0.2-8.9
								c9.5,1.2,25,10.1,37.9,23.6c3.8,3.9,10.1,12.8,8.8,7.6c0-1.4-4-7-8.5-12.3c-10.6-10.9-23-20.6-36.3-23.7
								c-6.2-1.9-24.8,1.3-24.8-1.9c0-2.4,2-3.7,7.9-5.6c23-7.1,56.1,13.1,73.9,43.5c1.3,2.2,3.7,3.1,3.9,2.7
								c-8.3-24.7-35.4-47.5-57.2-51.8c-14.8-2.7-29.9,0.8-37.2,10.6c-8.3,11-5.4,26.1,6.6,25.1c6.3-0.5,5.9-4,5.8-4.1
								c-0.4-0.4-4.1,1.2-6.4,0.7c-8.2-1.8-7-16.6,5-14.8c13.8,2,15.3,23.7-0.2,28c-14.4,3.9-19.5-2.7-23.2-10.5
								c-5.5-11.4,1-29.4,11.3-36.2c28.7-18.9,64.1-1.8,83.9,17.9c9.8,9.8,16.9,21.3,21.2,33.7c1.1,2.9,3.6,2.6,2.6-0.3
								c-27-72.7-111.7-82.9-125.3-27.1c-19.9-32.4-37.9-35.1-65.7-21.6c-28.3,11-42.4,20.1-68.6,31.7l-58.3-32.6
								c-2.3-58.2,0.9-116.5,2.3-174.8c0.2-1.3-12.8,0.7-34.4,3.6c-57.5,10.2-52-20.2-59.4-21.9c-4-0.9-3.7,0.8-2.6-106.5
								c0.3-31.2,0.8-86,1.1-121.9c0.3-35.8,0.8-65.7,1.1-66.3c0.3-0.6,3.6-3.3,7.4-5.8c14.2-9.5,22.1-15.3,53.2-37.9
								c7-5.1,8.8-6,8.8-6c2.2,64.6-2.4,132.2-1.8,187.7l2.6,0.1l2.8-186.2c-5.2-1.5,122-72,191.4-94.3c1.3-0.4,4.5,1.1,4.5,1.1
								c38.6,49,143,36.5,152.5-21.9c16.5,36.1,90.8,107.1,127.2,24.1c0,0,12,24.3,22.8,26.1c24.1,3.7,26.9,0,80.7-24.6
								C-23211.6,6364.4-23247.2,6460.8-23253.9,6578.4L-23253.9,6578.4z M-23285.8,6554.8c1.2,4.1,1.6,9.3,0.4,13.4
								c-1.6,3.2-3.9,3.1-3.9,3.1l-11.6-10.3l-11.8,10.4c0,0-6.9-7.2-2.8-16.9C-23307.9,6541.1-23291.1,6543.9-23285.8,6554.8z
								 M-22981.1,6559.5c7.6-0.3,3.5,8.2-7.8,13.8c-7.1,3.5-12.9,4.4-15.4,3.1c-1.3-4.1,0-7.7,0.8-9.4
								C-22998.7,6564.7-22985.5,6560.7-22981.1,6559.5L-22981.1,6559.5z M-23468.8,6565.7c8.4,0,15.5,6,15.6,16.6
								c0,4.3-2.3,8.5-2.3,8.5l-13.8-10.5l-10.9,11.1c-1.8,0.6-8.2-7.7-3.5-16.4C-23480.3,6568.6-23474.5,6565.7-23468.8,6565.7z
								 M-23266.4,6574.7c11.7,5.5,13.4,22,1.8,28c-5.5,2.9-14.1,4.4-18-1.8l11.8-12.3l-13.1-11.4
								C-23284.3,6576.8-23273.5,6571.3-23266.4,6574.7z M-22983.5,6576.3c2,0,2.5,0.8,3.1,2.7c1.5,5.4-2.8,10.7-10.1,12.2
								c-6.7,1.4-6.1,2.2-9.2-3.8c-2.4-4.7-3.1-4.5,0.9-5.9C-22994.1,6580.1-22989,6578.4-22983.5,6576.3z M-23318.8,6577.4
								c0,0-8.5,8.3-12.3,11.7l12.3,13.3c0.6,1.6-14.7,8.1-22.4-2.3c-5-6.8-1.9-19.4,5.6-23.5
								C-23328,6572.2-23317.3,6576.1-23318.8,6577.4z M-23300.7,6576.3c7.4,0,13.4,6.1,13.4,13.4s-6.1,13.3-13.5,13.3
								c-7.4-0.1-13.4-6.1-13.4-13.5C-23314.2,6582.1-23308.1,6576.2-23300.7,6576.3z M-23485,6594.9l-12.3,12.3l12.8,14.4
								c0,0-10.4,1.5-14,0.7c-17.7-3.7-15.5-24.3-1.7-29.5C-23494.4,6590.9-23490.1,6591.7-23485,6594.9z M-23721.8,6594.3
								c0,0,1.8,26.6,3.8,35.7c-1.6,10.3-8.5,17.2-11.8,27.8c-1.7,4.7-7.9,10.9-9,4.2c-4.2-8.3,0.2-18.4-3.3-24.3
								c-2.7-5.6-1.1-8.7-2.2-14.4c-3.3-4.8-4.9-7-4.2-11.2c-0.3-18.8-5.1-15.2-13.6-13.8c-32.6,2.1-33,20.7-31.5,44.4
								c-5.1,22.1,3.5,17,3.2,21c-0.6,6.3,0.3,15.2,2.2,16.2c11.3,13.5,11.7,22.6,26.9,20.7c25.5,2.5,66.2-0.4,75.6-31.2
								C-23679.3,6625.9-23676.7,6584.4-23721.8,6594.3z M-23467.6,6595.3c7.2,0,12.9,5.9,12.9,13c0,7.1-5.9,12.9-13.1,12.8
								c-7.2,0-12.9-5.9-12.9-13C-23480.6,6601-23474.7,6595.2-23467.6,6595.3z M-23710.7,6597c4.8,0,10.5,1.2,15.1,5.7
								c9.8,9.8,10.1,18.4,4.9,55.1c-1.5,10.3-5.3,18.9-10.3,22.6c-9.9,7.4-22,12.5-31.9,14.7c-5.2,1.2-9.7,1.1-13.3,1
								c-3.8-0.1-6-1.9-6.2-5.1c1-8.5-7.8-9.6-12.9-9.2c-9.1,0.2-10,1.1-4.3-3.1c6.6-4.8,21.5-4.6,24.3-1.6c5.9-5.7,12-6.2,19.4-6.9
								c-1.1-1.6-3.6-8.1-1.7-12.2c4-6.6,10.7-18.3,17.6-22.6c6.9-8.6,1.1-4.8-3.1-4.7c-2.4,0-2.2-0.7-2.5-2.3
								c-1.5-6.8-3.6-19.6-3.5-27.1C-23719,6597.6-23715.5,6597-23710.7,6597z M-23753.6,6605.6c2.6,2.4,2.5,5.6-0.3,8
								c-3.2,2.7-9.4,1-9.5-4.1C-23762.9,6604.2-23756.8,6602.8-23753.6,6605.6z M-23301,6633.3c-10.9,0.3-19.6-11.5-15.3-22.9
								c2.3-3.1,3.3-2.6,3.3-2.6l12.2,11.3l12.2-12.1C-23279.1,6618.9-23287.8,6632.7-23301,6633.3z M-23766.9,6605.8
								c-1,3.4,0.1,6.7,0.3,8.4c-2.2,1.5-11.4,4-16.4,6.3c-3.5,1.1-5.9-2.1-5.3-5.1c1.4-5.4,9.5-8.8,15.4-10.4
								C-23771.2,6604.6-23768.2,6604.5-23766.9,6605.8z M-23765.2,6621.4c3.3-0.3,2.2,6.8,0.9,10.5c-1.3,2.6-4.9,2.4-8.2,2.5
								c-5.8,0.2-13.2,6.7-16.4,5.6c-1-0.5-1.7-3.2-1.8-5C-23789.9,6625.4-23773.8,6622.2-23765.2,6621.4z M-23747.9,6631.7
								c-1.1,1.6-4.7,2.3-7.7,1.4c-4.8-1.4-5.5-8.4-1.1-10.7C-23749.1,6620.1-23744.7,6627.2-23747.9,6631.7z M-23266.1,6625.8
								l-6.8,9.9l-10-0.4l15.2,49.8l7.9-19.2c1.2-8.9,2.6-17.7,3.7-26.6L-23266.1,6625.8z M-23479.9,6625.6l12.6,10.7l11.2-11
								c7.8,18.3-1.8,26.4-11.8,26C-23479,6650.8-23490.6,6640.2-23479.9,6625.6z M-23762.3,6638.5c4.1-0.7,2.1,10.2,1.5,10.5
								c-2.6,0.9-13.8,2.1-18.6,6c-10.2,7.6-14.4,2.7-9.6-6.5C-23784.5,6643.1-23768.2,6638.5-23762.3,6638.5z M-23749.6,6639.3
								c4.5-0.3,7.5,4.7,4.7,9.3c-3.8,3.4-10.2,0.7-10.1-4.1C-23755,6641.4-23752.4,6639.4-23749.6,6639.3z M-23756.8,6666.9
								c0.6,2.6-0.3,1.8-5.1,3c-2.6,0.7-6.7,2.3-11,4.4c-6.3,3-8.1,4.6-10.3,4.2c-1.7-0.4-3.8-1.2-4.3-3c-2-7.1,3.9-14.2,17.5-18.8
								c2.8-1,7.9-1.7,9.6-1.8C-23755.7,6655-23760.7,6661.9-23756.8,6666.9z M-23748.6,6656.4c6.5,0,7.6,8.7,2.7,10.1
								C-23757.4,6669.2-23756.2,6656.3-23748.6,6656.4z M-23757.3,6687.9c1.8,1.8,2,4.7-0.1,6.1c-3.8,1.8-18.2-0.1-18.2-4.1
								c0-2.7,4.9-3.5,9.3-3.5C-23761.8,6686.5-23758.7,6686.5-23757.3,6687.9z M-23104.5,6705.8l-12.2,15.6l15.2,40.1l15.6-47.8
								l-11.6,4.3L-23104.5,6705.8z M-23779.5,6732.7c0.2,122.5-6,403.1-6,403.1l34.6,24.4l37.5-25.6c1.4-88.3,2.4-149.2,3.7-231
								l53.5,30.6c0,0,1.6,2.4,1.1,13.5c-4.4,30.4,24.9,50.9,44.9,39.2c7.7-3,8.3-3.6,9.9-1.1c4.3,6.7,8.7,34.9,9.2,52.8
								c0.7,27,6.7,82.3,8.4,82.7l-91.1,145.7l-139.4-2.9l11.4-550C-23795,6722.6-23791.3,6728.2-23779.5,6732.7L-23779.5,6732.7z
								 M-23268,6731.5l-6.8,9.9l-8-0.2l12.9,51.5l18-49.8l-9.3-1.3L-23268,6731.5z M-23717.6,7131c0,0-17.4,11.9-22.9,15.3
								c-2.9,1-4.3,1.2-4.9-1.6c-0.8-3.4,0.7-9.7,2.1-20.2c1.3-9.7,1.3-10.2,0-24.1c-1.4-14.5-1.6-15.1,0.2-34.2
								c2-21.3,2.7-42,1.3-54.8c-1.4-12.2-0.8-40,0.8-55.4c1.9-18.9,1.8-35.6-0.5-49.4c-4-24.6-4.5-33.1,0.5-51.5
								c1.9-6.9,2.8-10.5,2.7-22.1c-0.1-12.9-0.3-17.1-4.3-45.7c-2.3-16.5-2.5-18.7,0.5-44.6c0.6-5.2,0.9-8.7,2.9-10.3
								c2.4-1.9,26.9-2.8,26.9-2.8L-23717.6,7131z M-23773.7,6733.3l26.6,0.3c-2.2,8.2-2.8,14.5-3.2,20.5l-23.3-15.9
								L-23773.7,6733.3z M-23773.5,6743.9l23.1,15.7c-0.1,6.4-0.7,12.5,0.1,18.9l-23.4-16.1L-23773.5,6743.9z M-23774,6768
								l24.7,17.5c0.8,6.6,2.7,13.4,3.4,19.4l-28-19.7L-23774,6768z M-22963.7,6791.5l-8.8,490l-249.5-5.2l-76-152.5
								c0,0,1.1-13.9,3.2-20.9c2.5-8.5,3.2-10.4,6.5-10.7c8.8,4.8,18.8-1.1,22-7.7c3.9-8.2-3.4-20.8-14.9-23.7
								c-5.1-1.3-10.7,0.9-16.5,5c-3.3,2.7-4.1,2.9-4.7,0.6c-1.4-5.4,3.7-19.7,12.5-32c4.9-6.8,6.2-8.8,7.7-6.1
								c6,10.8,19.3,8.8,24.5,2.9c6.3-7.1,5.3-23.7-8.4-28.4c-26.9-9.2-39.8,17.5-39.5,17.5l-5.1-32.4c32.7-7.3,51.6-9.7,62.1-19.3
								c8.3-7.5,12.4-20.8,11.7-32.7c0,0,91.2-34.6,134-56.4C-23029.2,6842-22963.7,6791.5-22963.7,6791.5L-22963.7,6791.5z
								 M-23101.4,6792.2l-6.9,11.5l-9.5-0.2l18.2,49.7l15.7-51.2l-9.2,0.6L-23101.4,6792.2z M-23773.3,6792.5l28.3,20.3
								c0.5,6.4,1.2,12.1,0.2,19.3l-29.8-20.5L-23773.3,6792.5z M-23212.9,6798l-7.3,9.3l-8.2-1l15.1,49.2
								c5.2-14,10.1-33.1,15.2-47.1l-7.6,0.2L-23212.9,6798z M-23774.3,6817.6l29.3,20.2c0,6,0.2,11.7-2,15.9l-27.7-18.4
								L-23774.3,6817.6z M-23157.9,6833.1l-7.5,13.6l-9.6-1.5l16.2,47.2l19.7-46l-11.6,0.4L-23157.9,6833.1z M-23774.8,6840.3
								l25.4,19.3c0.4,0.3-1.6,8.5-1.3,13.3l-24.2-15.5L-23774.8,6840.3z M-23774.5,6863.6l23.7,16.9c-0.1,6.2,0.2,12.1,1.1,17.4
								l-25.7-17.4L-23774.5,6863.6z M-23775.4,6887.3l27.4,20.2l1.1,15.8l-29-19L-23775.4,6887.3z M-23546.9,6898.6
								c26.4,10.4,50.4,61.3,48.3,126.4c-1.5,45.2,11,110.1,10.7,109.4c0,0-7.8,0.9-9.9-0.9c-9.4-33.4-12-68.6-13-97.6
								c-0.8-24.2-1.7-47.9-3.1-53.5c-4-19.6-8.3-42.4-20.5-57.4c-9.5-11.4-20.6-13.5-27.5-1.1c-5.7,10.1,5.5,27.4,15.1,21.9
								c2.3-1.2,3.7-3.4,0.7-3.4c-9.9,1.3-16.3-12.5-9.9-18.8c11.3-11.2,30,14.6,20.8,28.4c-4.1,6-14.4,6.8-22.6,4.4
								c-18.2-9.2-22.3-30.8-15.9-44.9C-23568.8,6900.8-23558.4,6894.5-23546.9,6898.6L-23546.9,6898.6z M-23579.3,6904.4
								c2.2,0.1,0.6,4.1-1.5,10.2c-5,14.7,3.3,38,15.5,42.8c3.6,2.6,3.4,3.5,0.9,4.8c-8.1,4.3-22.3-9.4-25.8-24.4
								c-2.6-10.8-1.6-23.6,3.7-28.9c2.9-2.9,5.2-4.4,6.8-4.6C-23579.6,6904.4-23579.5,6904.4-23579.3,6904.4L-23579.3,6904.4z
								 M-23776.2,6909l29.3,19.9c1.3,6,0.5,12.4-0.5,18.9l-29.3-21.2L-23776.2,6909z M-23597.2,6912.5c2.2,0,1.3,3.6,0.5,10.3
								c-1.7,15.4,2.9,26.8,13.7,36.4c4.6,4,5.8,5.3,3.8,7.3c-2.9,2.9-10.9-1.2-17.2-8c-11.4-12.3-14.8-35.2-5.6-43.3
								C-23599.9,6913.4-23598.4,6912.5-23597.2,6912.5L-23597.2,6912.5z M-23267.4,6922c12.7-0.2,23.3,4.9,24.1,20.3
								c1.3,22.6-20.1,34.4-34.6,21.2c-12.9-13.3,0.9-33.3,16-23.5c7.6,5-1.8,15.8-7.9,10c-2.8-2.6-4-1.1-2.1,1.9
								c5.8,9.1,17.9,1.9,17.2-6c-1.4-15.5-20.5-15.7-27.8-9.8c-10,8.1-19,20.1-25.6,28.9c-5.5,7.6-6.6,7.4-5.6-2.1
								C-23311.2,6937.7-23287.2,6922.3-23267.4,6922L-23267.4,6922z M-23612.6,6919.8c2,0,1.2,2.8,1.2,10.2
								c0.4,19,8.3,31.1,18.4,37.9c3.3,3.8-1.1,6.4-7.5,4.5c-14.6-4.8-29-36.5-16.2-49.8
								C-23615.1,6920.8-23613.7,6919.8-23612.6,6919.8z M-23627,6925.7c2-0.1,0.8,4.1,0.8,12c0.1,16.7,5.1,24.8,17.4,35.3
								c4,3.4,4.5,3,2.9,4.8c-4.4,4.8-18.8-2.4-24.7-12.6c-7.1-12.1-7.8-30-0.8-36.7C-23629.6,6926.8-23628.1,6925.8-23627,6925.7z
								 M-23641.4,6933.5c1.7,0,0.7,3,0.8,10.3c0.3,17.5,4.1,26.2,15.1,34.6c6.9,5.2,8.6,3.7,6.5,5.7c-3.8,3.4-14.1,0.2-21.6-6.4
								c-11.4-9.9-14.1-33.9-4.6-41.9C-23643.5,6934.2-23642.3,6933.5-23641.4,6933.5z M-23776.2,6933.2l28.1,20.2l-1.1,16.5
								l-28-19.6L-23776.2,6933.2z M-23278.5,6974.5c-11.6-2.6-15.8-11-14.2-20.4c0.5-3.1,2.4-4.9,4.3-0.8
								c1.6,6.6,5.8,15.7,11.7,17.6C-23274.2,6971.7-23276.3,6975-23278.5,6974.5z M-23527.6,6949.8c12.4,33,11.4,68.7,12.9,102.5
								c2,45,9.3,75.4,11.8,80.5c0,0-12.8-0.1-13.4-2c0,0-10.8-59.8-8.4-89.2c0.8-32.9-5.1-62-8.7-75.1
								C-23537.3,6955-23537.7,6962.6-23527.6,6949.8L-23527.6,6949.8z M-23776.8,6957.4l27,18.4c-0.5,6.1-0.7,12.2-0.7,18.3
								l-26.5-19.4L-23776.8,6957.4z M-23408.1,6963.5c0,1,3.9,1.9,10.1,0.5c6.9-1.5,13.7-1.1,19,0.5c5.6,1.6,6.2-0.1,1.2-2.4
								c-2.5-1.1-6.3-3.6-12.2-3.7C-23395.9,6958.4-23408.1,6961.4-23408.1,6963.5z M-23297,6965.1c0.6,1.2,2.7,4,4.5,6.2
								c3.4,4.1,4.4,4.2,2.8,5.8c-3.8,3.7-11.4-2-12.1-9C-23302.5,6962.9-23299.8,6959.7-23297,6965.1z M-23542.6,6961.5
								c12.4,18.4,13.4,60.9,13.1,91.2c-0.3,27.2,7.9,77.3,8.7,77.1c-2.7,1.5-6.2,0.9-9.5-0.5c-3.2-4.3-5-16.3-8.1-48.7
								c-0.8-8.4-2.2-34.9-2.2-56.3c0-18.9-9.8-59.9-9.8-59.9S-23546.2,6961.5-23542.6,6961.5z M-23556.9,6965.7
								c11.1,26.1,12.5,51.8,12.4,83c-0.1,29.5,5.8,64.2,7.9,79.5c-3.9,0.3-8.1,0.6-9.7-1.2c-1-1.5-1.8-3.7-2.3-6.6
								c-4.8-25.6-5.5-53.4-6.5-76.8c-1.5-36.4-1.9-45.4-6.7-63.6c-2.7-10.3-3.8-10.1-1.5-12.1
								C-23561.6,6966.3-23558.4,6965.6-23556.9,6965.7L-23556.9,6965.7z M-23425.8,6974.4c0.1,12,1.7,7.2,6.1,5.3
								c3.2-0.2,5.8,1.6,11.8,3.9c7.6,2.9,6.9,3.9,12.3,1.4c3.3-1.5,6-2.1,7.5-0.7c6.2,5.2,14.3,2.5,18.9-1.5
								c3.6-1.8,7.4-0.7,10.5-0.3c4.3,0.5,3.3-2.3,3.9-7.7c0.6-4.8-1.3-5.3-6.3-3.8c-5.2,1.6-10.3,1.7-14.8,0.2
								c-11.4-3.7-19.8-1.6-25.5-0.9c-13.4,1.8-14.1,0.5-17.1-1.5c-2.2-1.5-5.9-4.2-7.2-4.1
								C-23427,6964.7-23426.7,6969.1-23425.8,6974.4L-23425.8,6974.4z M-23307,6971.3c1.3-0.6,1.8,1.1,3.6,3.4
								c2.9,3.9,3.7,5.7,1.2,6c-6.6,0.8-8.2,0.1-7.9-4C-23309.8,6973.6-23309.1,6972.3-23307,6971.3L-23307,6971.3z
								 M-23570.8,6971.6c9.5,9.9,10.8,64.1,11.6,75.8c2.2,63.3,8,72.5,4.8,77.1c-3.7-0.1-5,1.2-7.3-2c-7.8-23.3-6.8-47.1-7.6-71.3
								c-1.2-32-4.1-49.4-8.3-65.4c-2.8-10.6-2.7-10.8,2.7-13.6C-23573.8,6971.7-23571.7,6971.5-23570.8,6971.6z M-23584,6978.9
								c3.2,7.7,9.3,42.8,9.7,72.9c0.2,23.9,5,70.8,6.1,71.1c-3.5,0.2-7.7-0.6-9.4-3.2c-9.6-46.3-5.3-90.9-16.5-137.5
								C-23593.3,6979.9-23589.4,6976.3-23584,6978.9L-23584,6978.9z M-23776.9,6980.6l28,20.8l0.2,17.3l-28.6-21.1L-23776.9,6980.6
								z M-23354.3,6987.1c-16.2,5.9-20.4,10.8-18,15.4c2.1,3.8,8.5,2.6,25.7-4.1c12.9-5,16.8-2.6,19.3,5.4
								c-0.4,11.8-11.9,12.9-18.4,11.2c-2.8-0.2-2.4,0.1,0.5,3.9c13,10.6,29.7-9.2,21.8-22.2
								C-23329.4,6984.8-23340.3,6981.3-23354.3,6987.1z M-23455.1,6989.9c-13.5,10.1-9.1,28.8,1.9,31.8c3,1.6,7.6,1,9.4-0.2
								c1.7-1.1,1.7-2.8-1.7-3.5c-10.2-1.9-15.9-9.5-10.8-16.9c4.9-7.2,13.8-5.6,30.8,2c14.7,6.6,21.2,4.8,23.1-2.8
								c0.8-3.3,0-6.5-7.1-6.9C-23429.3,6992.3-23442.1,6980.1-23455.1,6989.9z M-23278.4,7022c-0.8-5.4-9.6-0.1-15.6,9.3
								c-5.9,9.2-6.5,10.5-7.5,0.8c-1.4-14.5,13.9-25.5,23.3-25.6c11.4-1.1,18.7,5.4,18.8,12.7
								C-23259.1,7033.4-23276.3,7033.2-23278.4,7022L-23278.4,7022z M-23778,7003.1l29.7,21.2c0,0,0.8,11,0,16.9l-29.8-19.8
								L-23778,7003.1z M-23416.6,7017.5c-13.3,8.5-5.9,24.8,3.2,26.8c9.6,2.1,10.4-4.6,0.9-6.7c-5.1-2.1-6.3-7-4.2-10.7
								c4.7-7.3,13.1-2.4,18,0.1c10.8,5.4,16.4,7.4,20,3.9c6.3-6.2,1-17.6-7.2-13.8c-2.2,1-3.9,2-8.5,0.8
								C-23401.5,7016.2-23409.9,7014.4-23416.6,7017.5L-23416.6,7017.5z M-23778.3,7027.6l29.2,20.8l-1.3,17.8l-27.4-20.8
								L-23778.3,7027.6z M-23778.2,7052.1l27.5,20.3c-0.6,7.5-0.4,10.5-0.2,15.3l-27.8-18.6L-23778.2,7052.1z M-23285.6,7066
								c22.3,2.6,14.4,28-1.1,20.8c-4.1-3.2-5.4-3-10.2,8.1c-6.2,14.2-7.6,13-6.5-3.5C-23302.4,7075.2-23294.7,7066-23285.6,7066z
								 M-23461.7,7066.3c0.5,0,1,0.1,1.2,0.3c1.5,1.7-3.2,8.3-7.1,12.1c-2.9,1.8-9.6-3.3-7.9-5.7
								C-23473.5,7070.6-23465.3,7066.6-23461.7,7066.3z M-23432.1,7080l-4,0.5c-5.8-13.5-18.3-10.7-22.5,1.6l-5.5-0.7
								C-23458.2,7066.3-23438.2,7057.4-23432.1,7080z M-23319.7,7085.4l-6.8,0.3c-5.8-14.6-14.3-16.9-21.9-2.8l-5.2-1.6
								C-23344.2,7063.2-23329.1,7062-23319.7,7085.4z M-23353.1,7068.2c3.5-0.1,3,1.4-0.7,6.2c-3.2,4.2-4,4.8-7.1,2.5
								C-23366,7073-23357.4,7068.4-23353.1,7068.2z M-23321.1,7069.3c0.7,0.1,1.4,0.1,2.3,0.4c6.9,1.9,10.1,5.2,6.6,9.3
								c-2.2,2.6-4.3,3.6-5.6,1.8C-23322.5,7072.9-23325,7068.9-23321.1,7069.3z M-23426.5,7071.6c0.7,2.9-1.7,4.9-4.2,2.4
								c-1-1-1.9-2.7-1.7-3.9C-23430.7,7068.7-23426.9,7070-23426.5,7071.6L-23426.5,7071.6z M-23778.9,7074.2l28.2,21
								c0.8,7.2,0.9,12.7,0.7,17.6l-29.1-20L-23778.9,7074.2z M-23361.5,7089c16.3,11.6,35.6,11.8,47.9,2.2c2.8-2.1,5.1-2.2,5.1-0.1
								c-1.9,7.8-23.1,17.5-39.5,11.4c-9-3.3-16.3-6.6-22.1-15.1C-23373.4,7082-23366.2,7085.6-23361.5,7089z M-23368.6,7094.3
								c23.7,21.2,43,15.8,57.7,5.7c2.2-0.5,2.1,1.4,2.6,5c0.5,4.6-3.3,6.8-13.9,9.6c-20.3,5.6-43.9-1.5-47.9-15
								C-23370.5,7097-23371.4,7093.6-23368.6,7094.3z M-23779.5,7098.2l28.6,20.4l-1.2,15.1l-27.9-19.6L-23779.5,7098.2z
								 M-23779.5,7121.4l27,19l-0.3,12.5l-26.3-19.4L-23779.5,7121.4z M-23580.5,7131.4c116.4,28.7,199.6,17.9,281.2,5.4
								l69.2,141.9l-434.3-8.4C-23635.1,7225.2-23610.5,7175.8-23580.5,7131.4z"/>
							<path id="path3442-2-7-0_1_" d="M-23544.5,5917.5c12.1,21.6,21.5,43.9,32.3,66l1.8,1.2l2.6,5.1l0.3,2.5l6.5,10.7l-0.1,2.3
								l27.2,52.9c23.6-8.2,215.8-19.8,286.4,7.2l10.7-17.2l2.5,0l18.9-31.4l-0.2-2.7l6.3-6.8l1-3.1l20.8-30.9l0.2-5l26.1-41.2
								L-23544.5,5917.5z M-23110,5932.5c0,0-13.7,24.8-20.6,34.8c-5.4-4.4-21.3-1.8-20.7,14.8c-25.7-10.3-32.6,20.3-12.7,27.6
								c-10.5,8.7-20.1-1.6-27.7-8.6c-7.7,1.7-23.6,6.9-32.2-9.6c0,0,3.7,2.1,7.4,4.3c21.1,6.8,23.3-21.5,7.7-26.5
								c-2-0.6-5.7-0.8-5.7-0.8c5.7-21.7-28.1-30-29.3-3.8c0,0-4-0.7-7.1-0.2c-18.1,2.9-14.5,29.4,3.9,28.5c2.5-0.1,4.8,0.4,4.8,0.4
								c-0.4,4.2-22.8,11.8-38.6-3c-7.7,5.6-19.9,12.6-35.4-2.1c10.4-0.2,20.3-2.9,20.5-14.6c0.1-7.6-6.6-14.5-16.5-15
								c-0.4-8.5-6.6-16.7-14.8-17.5c-10.1,0.4-15.4,8.3-15.6,16.9c-8.6,0.7-16.7,8-15.1,16.7c2.3,11.8,11.3,13.4,21.8,11.4
								c-13,19.9-33.4,9-39.6,2.4c-7.7,6.8-21,16-37,2.8c8.7-1.3,18.4-6.1,17-18.1c-1.1-9.5-11.7-12.5-16.3-12.1
								c0.1-6.2-4.4-16.6-15.6-15.8c-12.2,0.9-11.8,16.2-11.7,16.4c-10.1-1-17.6,10.6-14.9,18.2c3.3,9.2,10.6,12.2,24.1,10
								c-16,14.3-25.9,8.4-34.4,5.2c-7.8,7.7-17.9,10.1-28.2,2.9c23.2,1.6,20.4-39.3-7.5-25.1c-19.1-23.3-19-13.1-35.9-47.2
								L-23110,5932.5z M-23327.4,5968.2c1.1,0,2.3,0.2,3.5,0.8c3.6,1.9,4.2,5.1,1.9,9.8c-0.8,1.6-2,3.5-1.8,5.3
								c24.6,47.4,81.5,27.6,87.2,6c0.4-1.4-0.2-2.9-0.9-4.4c-2.1-3.6-1.8-6.6,1.1-9c6.1-5.1,14.6,1.2,11,8.2c-1,1.8-2,3.9-1.3,6.4
								c13.8,33,42.6,36,67.1,23.6c-11.6,19.6-55,30.9-72.2-17.3c-29.8,38.3-75.7,36.6-95.7-7.7c-19.7,44.5-76.3,44.4-96.1,6.7
								c-19.6,42.3-62.9,31.7-74.7,4.7c39.8,29.9,67,0.1,72.1-12.7c0,0-0.9-1.5-2.2-2.8c-5.1-5.2-4.8-11.1,0.6-13.3
								c6.9-2.9,13.2,3.8,9.6,10.2c-1,1.8-1.9,2.2-1.3,3.7c12,29.4,73.7,39.1,87.1-1.5c0.5-2.3,0.3-4.5-0.8-6.3
								C-23336.1,5973.7-23332.2,5968.3-23327.4,5968.2z M-23508.5,5981c9.8,0.8,6.9,9,4.9,9.6L-23508.5,5981z M-23145.9,5993.7
								c0.1,0.2-6.2,10.7-6.2,10.7C-23155.3,5999.2-23154.3,5992.8-23145.9,5993.7z M-23180,6046.8c0,0-6.5,13.6-8.6,14.7
								c-115.1-31.8-277-9.6-281-6.8l-6.8-13.4C-23374.7,6023.2-23273.6,6029.6-23180,6046.8z M-23379.7,6246.4
								c-12.1,42.6-39.2,46.4-72,50.9c-40.6,5.6-66.6-9.6-78.5-32.2c0,0-58.3,20.5-79.7,32.7c43.5,20.9,100.6,66.3,132.5,117.2
								c11.4,15.6,10.9,12.1,10.2,45.7c-1.6,72.8-1.9,99.9-1.9,99.9c18.1,3.1,18.8,15.5,17.5,29.3c14.7-6.1,28.5,2,28.1,15.6
								c-0.6,25-25.3,17.7-30.3,14.9c7.6,22.2-2.1,31.2-11.7,32.1c-11.9,1.1-25.5-4.9-21-30.1c-13.1,4.7-29.3-4.7-31.3-20l-0.1-25.8
								c33.3-59.3-5.9-108.9-43.4-125.7c0,0,11.2-21.8,25.1-27.6c1.4-0.4-8.1-14.9-24.6-12.1c-7.6,0-5.8,0-12.8-9.4
								c-13.7-18.5-20.3-19.9-34.5-0.7c-6.2,8.4-7.7,8.6-14.8,8.6c-7.9,0-20.1,5.4-22.8,10.3c-0.6,1.1,2.5,2.4,6.5,7.2
								c5.8,7,14.7,16.6,13.1,26.1c-31.4,11.9-84.2,66.1-31.4,138l-39.3-0.3l3.3-251.8l-27.6,14.5l-2.9,197.2l-7.7-2.7
								c1.9-62.9,2.2-125.8,1.5-188.7l-73.1,50.7l-2.9,295.7l7.6,1.8c4.9,40.4,85.8,13.9,90.4,17.5l-2.4,164.3l-3.7,8.1l63.2,36
								l59.3-29c0,0,7.9-1.2,10.9-2.7c24.6-12.2,42.6-9,55.5,9.9c7.9,11.7,9.3,13.4,9.3,13.4c5.6-33.1,35.5-44.8,64.1-35.5
								c21,6.8,49.5,28.4,57.8,54.1c0,0,1.5,3.9,3,5.6l1.2,0.6c-0.1-0.7-1.3-3.9-1.8-5.4c-28.3-68.3-111.7-80.4-125.7-25.4
								l-11.5-16.7l63-36.6l83.9,57.4c0,0-4.4,19.5-5,27.9l1.5,0.7c0.8-10.2,4.1-21.8,9.2-30.4c2.1-3.5,4.5-6.4,7.1-8.5
								c5.1-2.8,9.8-2.4,15.1-7.1l-12.2-9.5l0.3-29.6l24.2,35.2c7.9-1.6,38.7-10.1,56.6,0.3c2,0.7,28.8-6.3,44.6,30.9l80.4-31.2
								c0,0,5.1-2.7,5.2-3.5c-78.9-30.8-157.1-135.6-149.3-137.1c0,0,0-10.6,1.1-36.6c1.2-28.9,1.5-58.5,2.6-87.6
								c-26.9-9.1-19.7-30.7-19.7-30.7c-16.3,3.2-18.9,0-22.9-2.9l-2.2-27.5c9.9-8,15.8-8.7,27.8-5.8c0,0-5.6-12-0.1-21.7
								c4.6-7.7,16.7-12.3,26.1-6.6c12.1,8.6,7.9,26,6,28.4c12.9-5.4,28.4,1.2,32,13.9c2.7-37.1,6.8-78.7,15-110.9
								c15-58.2,39-119,68.4-166.6c4.8-8,10.9-15.9,15.8-23.3c4.6-6.6,6.8-10.9,6.8-10.9s-6.1,3.2-12.6,4.8
								c-9.3,2.3-16.3,4.5-17.4,5.6c-6.9,5.5-15.8,9.5-23.1,12.5c-25.7,9.3-42.6-5.7-52.8-28.4c-6.5,28.4-33.3,52.1-71.9,36.2
								c-21.7-12-28.5-19.6-48.4-50.2C-23375.3,6250-23379.7,6246.4-23379.7,6246.4z M-23378.9,6251c13.9,28.8,35.3,49.5,56.2,58
								c37.5,13.1,62.9-10.4,70.4-32.3l7,12.4l-58,39.1l-85.1-56.2C-23386.9,6270.7-23378.8,6251.7-23378.9,6251z M-23119.4,6258.4
								l-25.9,14.4c0,0-17.6,26.9-23.5,37.1c-30.9,51.8-54.6,108.3-67.4,164.6c-5.2,20.6-11,58.3-13,76.5c-3.3,29-3.4,40.9-3.2,67.5
								l2,2.2c0,0-3.3,5.4-5.6,10c-6.4,12.4-8,19.4-7.9,34c0.2,33.4,20,65.8,48.6,79.5c1.6,0.8,3.8,1.8,3.8,1.8s-5.2,13.2-14.4,22.4
								c-6.1,6.1-7.4,6.4-5.4,9.5c2.9,4.3,12.3,8.2,24.1,8.3c4.2,0,4.2,0,11.7,8.5c14.8,16.6,19.3,16.4,33.4-1.8
								c4.2-5.4,6.5-6.7,12.5-6.7c8.8,0,24.9-6.7,24.9-10c-10.7-5-22.7-29.7-20.7-29.9c59.7-29.8,73.6-93.9,31.4-142.1l41.2,0.2
								l-3.8,256.7c8.2-5.2,26.7-16.2,26.7-16.2l3.5-199.8c2.8,0.6,5.7,2.7,11.2,3.7l-2.3,190.2c0,0,53.7-36,79.3-54.8l4.5-291.1
								l-6-0.1l-5,290.9l-71,49.3l3.3-180.8c0,0,5.5-0.7,7.6-0.9c20.5-2.4,30.6-28.2,17.3-45.4c-4.7-6.1-1.3-5.6,9-7.4
								c18.2-1.2,28.6-14.7,23.5-24.5c-2.2-4.2,0.8-3.7,2.8-7.6c1.3-3.1,1.2-7,0.7-10c-0.6-4,1.1-5.8,2.1-8.3
								c1.7-4,0.2-8.6-2.4-12.4c-2.7-4-1.9-8.3-1.8-10.9c0-5.9-2.1-6.8-8.3-12.6c-4.7-4.4-0.8-5.3,6.3-8.7
								c11.2-5.4,12.3-25.4-2.2-34.2c-7.8-4.7-22-4.6-53.1-0.4c-11.8,1.6-25.6,2.5-25.6,2.5s2.2-113.8,2.6-172.5L-23119.4,6258.4z
								 M-23119.5,6262.4c0,0,62.1,37.8,61.5,38.8c-21.7,28.3-102.7,141-106.2,279.2c-57.6-8.4-82.1,35.9-84.9,35.7
								c-4.1-169.4,67.6-289.1,104.1-339.7L-23119.5,6262.4z M-23159.6,6283.8l-0.3,4.1l-12.8,18.2l0.1-18.5L-23159.6,6283.8z
								 M-23178.9,6289.9l-0.2,29.8l-25.9,18.8l-0.9-31.1L-23178.9,6289.9z M-23415.5,6291.8l12.9,9.3l-1.1,29.5l-19-36.1
								L-23415.5,6291.8z M-23056.9,6309.2l-0.3,21.4c-51.7,69.4-79.8,149.3-90,251.1l-12.2-0.7
								C-23154.1,6479.7-23117.8,6387.9-23056.9,6309.2z M-23397.5,6304.3l30.6,20.8l-2,33.6l-27.8-18.5l-2.5-6.9L-23397.5,6304.3z
								 M-23209.7,6309.6l-0.8,31.3l-24.3,17.2l-0.5-31.1L-23209.7,6309.6z M-23500.3,6311.8c3.5,0.1,6.3,2.7,6.9,7.6
								c2.2,20.9,18.3,15.2,21.9,21.5c1.4,2.2-2,3.9-12.9,2.8c-20-1.9-34.2-18.3-23.8-28.6
								C-23505.5,6312.8-23502.7,6311.7-23500.3,6311.8z M-23362.3,6328.1l26.1,17.3l-0.8,34.6l-25.6-16.3L-23362.3,6328.1z
								 M-23241.5,6330.7l1.4,30.6l-29.4,18.5l-0.4-30.4L-23241.5,6330.7z M-23186.3,6332l-17.4,34.9l-98.6,67.4l-79.5-53.5
								l-14.3-34.3l92.8,62.9L-23186.3,6332z M-23448.5,6340.5c25.8,0.2,45.1,27.8,51.3,51.8c4.6,15.9,5.2,21.6,5.2,46.6
								c0,25.5,0.7,29.9,5.5,33.6c2.9,2.3,3.8,1.7,4.3-2.8c1-10,13-3.6,13,7c0,11.7-13.1,15.2-22.5,6c-5-4.9-5.1-4.9-6.9,4.5
								c-1.2,6.3-9.4,45.7,9.3,55.9c3.6,0.4,4.5-2.4,1.9-5.8c-5.2-6.7,5.6-14.2,14.2-9.8c10.3,5.3,8.9,22-2.3,27.7
								c-12.9,6.5-29.3-1.5-36.6-18.1c-5.4-12.1-5-28.8,1.2-53.5c2.9-11.4,4.2-18.6,5-27.3c0.3-2.9,0.7-6,0.9-6.9
								c0.7-2.7-0.7-2.8-5.3-0.6c-12.6,6-26.2,1.3-29.3-10.2c-3.7-13.8,11.9-27.6,21.2-18.7c3.5,3.4,3,6.6-1.3,8.6
								c-7.5,3.5-5.2,13.1,2.8,11.4c26.3-7.2,3.9-80.4-25.4-86.1c-19.4-3.7-35.1,17.9-21.2,30c5.4,4.7,11,2.4,10-4.2
								c-1.5-9.1,10.6-7.9,14.9,1.5c7,15.3-12.1,27.2-29.6,18.5C-23499.6,6380.4-23477.1,6340.5-23448.5,6340.5z M-23331.6,6348.7
								l25.7,17.9l-0.5,33.8l-25.6-15.8L-23331.6,6348.7z M-23274.3,6352.8l-0.5,31l-25.5,17.6l0.7-33L-23274.3,6352.8z
								 M-23207.1,6374.5l-13.6,35.3l-82.2,53.4l-66-43l-10.8-33.1l77.8,52.3L-23207.1,6374.5z M-23733.4,6366.2l-3.7,180
								c-26.3,0.6-41.9,26.1-22.7,50.9c0,0-3.4,0.4-7.5,0.9c-17.8,2.1-29.9,11.2-27.8,22.6c0.7,3.5-0.2,7-1.2,8.7
								c-1.7,4.6-1.3,8.2,0.7,12.3c1.6,3.2,1.3,4.5,0.3,6.8c-2.1,5-1.7,8.9,0.6,12.8c2.9,2.9,2,5.2,1.5,9.7c-0.6,6.4,0.5,9,4.5,11.6
								c5.2,3.3,7.1,8.7,1.1,8.1c-3-0.3-13.6,9.5-13.6,9.5l5-288.9L-23733.4,6366.2z M-23591.4,6392.3c4.7,0.1,9.4,6.1,16.2,16.1
								c4.1,7.2,4.1,6.2,13.8,6c9.8,0.9,15.7,3.6,18.2,6.6c0.9,1.1-1.6,1.4-8,7.5c-6.6,6.4-7.5,8.9-12,16.1c-1.6,2.6-5,2.8-6.5,0.3
								c-1.2-2,2.2-8.2,8.4-15.5c8.8-8.1,7-9-5.6-7.9c-8.8,0.7-9.8,0.3-13-5.1c-9.6-19.9-14.9-19.3-24.8,0.1
								c-2.7,5.4-1.7,5.1-12.9,4c-8.9-0.9-11.1,1.3-6.2,6.1c7.7,6.5,10.4,21.7,10,21.5l-6.1,0.4c0,0-1.8-3.4-2.5-5.6
								c-1.6-4.4-5.8-11-10.5-16.2c-6.6-7.4-2.8-11.3,12.3-12.6c8.5-0.7,8.6-0.8,12.6-6.4
								C-23600.8,6398-23596.1,6392.2-23591.4,6392.3z M-23223.9,6417.8l-9.4,30.5l-70.2,46.7l-55.5-38.5l-6.9-29l63.8,42
								L-23223.9,6417.8z M-23462.9,6437.2c0,0,19.2,39.1,25.9,64.3c5.9,21.9,13.3,85.3,10.9,89.1c-4.8-6.8-21-5.6-21.3-5.6
								c1.5-7.4-4.2-22.4-18-25.6L-23462.9,6437.2z M-23235.6,6456l-7.5,30.1l-59.8,41.1l-47.9-34l-5.8-29.4l53.1,36.8
								L-23235.6,6456z M-23578.1,6450.7l7.6,2.8l0.3,54.6l58.7,10.9l1.2,9.4l-68-12.3
								C-23578.6,6492.8-23578.1,6450.7-23578.1,6450.7z M-23608,6451.7l0.3,63.5c-0.6-0.2-49.3,5.6-67.9,10.1l1.3-8.7
								c0,0,33.9-6.6,58.3-8.9c0.4-17.8,0.6-36.4,0.9-54.5L-23608,6451.7z M-23060.1,6474.7c0,0,8,0.9,25.2-1.7
								c44.4-6.8,56.3-3.4,61.7,10.2c5.7,21.1-17.4,21.2-21.3,7.7c-2.4-8.7-12-7-43.9-0.2c-27.3,5.8-44.3,0.4-43.7-14.9
								C-23081.4,6460.2-23063.3,6459.1-23060.1,6474.7z M-23423.3,6455.7c5.5,0,9.9,4.5,9.9,9.9c0,5.4-4.5,9.8-10,9.8
								c-5.5,0-9.9-4.4-9.8-9.9C-23433.2,6460.1-23428.8,6455.7-23423.3,6455.7z M-23567,6454.5l6.9,2.2c0,0,0.2,41.4,0.4,41.5
								c15,3.6,46.4,10.1,46.4,10.1l1.5,8.2c-13.1-3.3-55.1-11.1-55.1-11.1C-23567.8,6487.5-23567,6454.5-23567,6454.5z
								 M-23618,6454.2c0,0-0.7,33.1-1.6,50.8c0.2-0.2-35.8,4.9-54.2,8.3l1.6-6.6c14.5-2.9,30.3-5.9,46.3-8.9
								c0-13,0.6-41.5,0.6-41.5L-23618,6454.2z M-23592.5,6461.8c4.4,0,8,3.6,7.9,8c0,4.4-3.6,7.9-8,7.8c-4.4,0-7.9-3.6-7.9-7.9
								C-23600.4,6465.3-23596.9,6461.8-23592.5,6461.8z M-22994.5,6494.8c4.7,7.3,8.9,7.2,13.7,6.6c-1.2,0.3-7,3.5-6.7,4.7
								c0.2,0.6-2.6,9.6,1.3,10.1c14.7,1.7,6.9,16.7,8.6,19.1c3.9,4.6,6.7,7.5,3.9,13c-2.5,4.9-6,4.7-3.4,9
								c5.7,8.9-2.4,10.5-1.9,16.5c0.4,3.6,1.6,8.5,0.2,11.3c-4.2,8.3-18.5,12.8-34.3,13.2c-2.2,0.1-0.5-3.6-1.5-5.9
								c-3.8-2.5-1.6-6.6-0.3-9.3c1.4-3.6,1.4-3.6-1-5.4c-6.6-4.3-6.3-6.2-5.7-9.2c1.7-8.8,0.3-9.7-2.4-11.1
								c-3.4-1.8-2.9-5.5-1.2-10.3c1.1-3.3,0.4-4.1-1.2-7.2c-0.9-1.8-1.2-2.8-1.2-3.9c0.6-4.6-3.6-4.6-9.4-0.3
								c-5.1,8.3-7,19.3-10.2,26.2c-2.5,5.3-3,10.9-0.4,23.3c5,19,0.9,22-20.3,17.6c-16-4.3-20.4-21.4-15.5-42.1
								c0.8-3.4,0.7-6.6,0.4-9.3c-1.4-14.4,2.6-28.1,12.8-37.3c17.2-15.4,25.5-17.6,60.3-14.7c13.6,1.2,14.6,2.1,14.6,2.1
								S-22994.9,6494.9-22994.5,6494.8L-22994.5,6494.8z M-23245.1,6494l-4.7,29.1l-33.1,22.2c-15.1-12.4-27.1-8.6-38.2,4.1
								c-8.5-4.5-25.4-16.6-25.4-16.6l-3.7-33.2l46.8,33.7L-23245.1,6494z M-23592.4,6493.7c4.4,0,7.9,3.6,7.9,8
								c0,4.4-3.6,7.9-8,7.9c-4.4,0-8-3.6-7.9-7.9C-23600.4,6497.2-23596.8,6493.7-23592.4,6493.7z M-23251.4,6530.7l-2.4,28.1
								l-11.8,8.4l-11.7-1.4l-2.4-17.5L-23251.4,6530.7z M-23593.2,6523.9c4.4,0,8,3.6,7.9,8c0,4.4-3.6,7.9-8,7.8
								c-4.4,0-7.9-3.6-7.9-7.9C-23601.2,6527.4-23597.6,6523.9-23593.2,6523.9z M-23561.2,6525.4c4.4,0,7.9,3.6,7.9,7.9
								c0,4.4-3.6,7.9-8,7.9c-4.4,0-7.9-3.6-7.9-8C-23569.2,6528.9-23565.6,6525.4-23561.2,6525.4z M-23624.9,6525.6
								c4.4,0,7.9,3.6,7.9,8c0,4.4-3.6,7.9-8,7.9c-4.4,0-8-3.6-7.9-8C-23632.9,6529.1-23629.3,6525.6-23624.9,6525.6z
								 M-23033.5,6539.1c2.2-0.1,5.5,3.2,3.8,8.1c-2.3,5.6-0.8,7.5,2.7,12.2c3,3.9,2.4,4.5,1.9,6.9c-1,16.2,9.6,9.4,4.8,21.1
								c-1,2.5,0.2,6.2,0.6,9.3c-1-2.8-20.4-2.9-22.1-0.2c-2.7-0.5-5.9-18.6-3-21c0.4,0,2.3,3.1,3.3,4.9c2.5,4.4,3.1,4.3,2.4-0.8
								C-23041.9,6559.6-23039.5,6539.1-23033.5,6539.1z M-23529.2,6530.3c4.4,0,7.9,3.6,7.9,8c0,4.4-3.6,7.9-8,7.8
								c-4.4,0-7.9-3.6-7.9-7.9C-23537.2,6533.8-23533.6,6530.3-23529.2,6530.3z M-23658.1,6529.1c4.4,0,7.9,3.6,7.9,8
								c0,4.4-3.6,7.9-8,7.8c-4.4,0-8-3.6-7.9-7.9C-23666.1,6532.6-23662.5,6529.1-23658.1,6529.1z M-23346.2,6537.8l23.5,15.8
								c0.3,4.8-0.5,11.8,1.1,14.2c-15.5-1.8-23.6,6.9-23.6,6.9L-23346.2,6537.8z M-23516.5,6558.9l-2,8.3
								c-46.7-13-99.2-14.7-149.6-2.5l-3.7-8.9C-23620.9,6541.6-23567,6542.1-23516.5,6558.9z M-23738.8,6553.7
								c6.8,0,13.8,2.7,18.6,8.3c9,10.5,4.2,29.5-9,35.3c-19.7,8.7-39.7-11.2-31-31C-23756.6,6558.1-23747.6,6553.7-23738.8,6553.7z
								 M-23254.9,6566.2l-0.5,8.4l-5.8-5L-23254.9,6566.2z M-23379.3,6564c8.6,0.1,15.6,7.1,15.5,15.6c-0.1,8.6-7.1,15.5-15.7,15.4
								c-8.6-0.1-15.6-7-15.5-15.6C-23395,6570.8-23387.9,6563.9-23379.3,6564z M-23738.5,6557.1c-2.1,0-5.6,0.8-7.2,2.2
								c-4.2,3.7-0.1,3.9,5.4,5c9.7,2,12.2,10.4,11.2,19.4c-1,8.2,1.8,8.1,4.1,5.1C-23715.7,6576.6-23723.1,6558.4-23738.5,6557.1z
								 M-23285.5,6570.5c-0.2,0.1-0.4,0.2-0.4,0.2C-23285.8,6570.9-23285.7,6570.8-23285.5,6570.5z M-23594.1,6569
								c11.7,0,12.5,19.1,1.7,40.2c-3.2,6.3-4.8,5.5-8-4.2C-23608.3,6581-23606.2,6569-23594.1,6569z M-23567.1,6570.1
								c2.3-0.1,4.4,0.8,6.2,2.9c6.1,7.2,1.1,18.7-16,36c-4.2,4.2-6.3,5.8-7.8,5.8c-4.2,0-4.2-0.7,0.9-16c2.2-6.7,4.5-14.1,4.9-16.4
								C-23577.3,6575.1-23572.1,6570.3-23567.1,6570.1z M-23609.7,6586.3c1,5.3,2.9,12.7,4.1,16.4c1.2,3.7,2,7.3,1.8,7.9
								c-1.1,2.8-8.5-1.2-13.7-7.5c-10.5-12.6-14.5-23.4-12.2-29.2c3.3-4.6,11.7-6.4,15.5-2.3
								C-23610.4,6576-23610,6584.9-23609.7,6586.3z M-23535.6,6575.6c11.2,6.9-2.2,21.7-27.8,33.7c-10.9,5.1-10.1,2.7-1.7-7.7
								c3.2-4,7.6-10.5,9.7-14.5C-23550.6,6578.3-23545.8,6569.5-23535.6,6575.6z M-23648.4,6573.3c3.6,0,7.2,3.9,13.8,13.9
								c2.9,4.4,7.7,10.7,10.7,14c2.9,3.3,5.2,6.6,5.1,7.2c-1.3,6.8-36.1-15.6-38.5-24.8
								C-23658.1,6578-23653.6,6573.1-23648.4,6573.3z M-23144.2,6603.6c6.1,13.1,6.5,21.2,1.1,24c-7.6,4-17-2.5-17-11.8
								c0-3.1-3-14-5.8-21.1c-2.3-5.8-2.6-9.4-0.6-9.7C-23158.7,6586.5-23147.3,6597.4-23144.2,6603.6z M-23186.2,6592.9
								c-2.6,7.4-5.5,18.9-5.5,22.3c0,1.3-0.9,4-1.9,6c-6.7,13.1-21.8,2-15.9-11.7c5.3-12.3,18.5-25,23.6-25.3
								C-23182.4,6583.9-23185.8,6591.8-23186.2,6592.9z M-23175.7,6586c2.6-0.2,4.6,5.4,7.7,14.8c4.2,12.7,3.8,22.5-1.1,26.6
								c-10.5,8.7-21-4.5-16.5-20.7C-23182,6593.6-23178.6,6586.2-23175.7,6586z M-23520.5,6581.1c8.9,187.2-90.5,329-97.5,332.8
								l-33.2,17.2l-56.9-32.4c61.4-80,98.9-172.5,103.9-280.6C-23549.1,6624.6-23519.8,6581.4-23520.5,6581.1z M-23204.1,6588.3
								c4.1-1,1.2,2.4-2.9,8.1c-4.4,6-10.3,22.5-14.7,25.1c-9.9,4.5-20.9-4.7-14.8-12.3
								C-23230.9,6602-23214.5,6590.9-23204.1,6588.3z M-23145.6,6590.7c1.5,0,4.4,1.1,8.6,3.2c20.3,10.4,30.1,23.7,21.2,29.8
								c-6.2,4.3-12.8,0.7-18.7-11c-2-4-5.7-9.9-8.2-13.2C-23147.1,6593.6-23148.1,6590.7-23145.6,6590.7z M-23030.5,6599.8
								c13.2,0.1,23.8,10.7,23.7,23.8c-0.1,13.1-10.8,23.6-24,23.6c-13.2-0.1-23.8-10.8-23.7-23.9
								C-23054.4,6610.2-23043.6,6599.7-23030.5,6599.8z M-23037.8,6605.8c-15.6,6.5-11.5,30.8,1.8,34.5c5.6,1.7,12.5-0.5,9.8-3.3
								c-17.5-5.9-17.4-18.8-10.1-28.1C-23035.2,6607.5-23036.7,6605.3-23037.8,6605.8z M-23684.2,6625.7
								c-0.9,13.6,1.8,29.6-5.1,44.2c-10.4,22.6-42.6,32.3-59.7,30c-3.5-1.5-7.7-3-11.2-1.6c-2.1,0.9-4.8,0.7-7-0.4
								c-2.2-1.1-4.3,0.2-6.4-0.6c-2.4-1.7-6.4-5.6-5.9-8.4c0.9-3.9,0.6-6.9-4-8.3c-6.4-1.9-7.7-5.4-5.6-15.6c0.5-2.2,1-3.2-0.4-4.2
								c-4.7-3.3-6.4-9.2-3.1-15.3c2.1-3.5,3.7-6,0.1-8.9c-1.4-3.3-1.1-4.5,2.1-8.6c3.4-3.9,4-4.3,1.9-7.7
								c-4.6-7.7,0.9-13.2,7.4-16.1c8.7-3.3,16.3-5,25.4-5.9c3.4,0.3,3.2,3.2,5.2,6.1c2.9,4.7-1.5,11.3,0.9,13.7
								c3.5,1.7,5,5,4.7,7.7c-0.3,6.4,0.1,8.6,1.8,11.4c1.9,3,2.5,8.5,0.6,12.2c-1.7,3.3-1.5,3.1,0.6,5.1c2.1,2,2.9,11.7,2.2,11.5
								l8.9-0.6c-0.9,1,3.7-18.1,14.1-32.7c-0.3-11.6-4.5-22.3-3.8-37.6C-23698.4,6588-23683,6606.8-23684.2,6625.7z
								 M-23343.5,6606.7c3.1,2.5,18.7,7.2,19.3,6.7c-0.6,7.5,3.6,22.1,19.9,27.2c-0.2,20.8-2.4,116.9-2.4,116.9
								C-23328.7,6719.1-23341.8,6669.9-23343.5,6606.7L-23343.5,6606.7z M-23724.7,6602.2c0,0,0.8,2.8,1.5,8.2
								c1.2,11-0.4,12.4-3.1,4.9c-3.2-8.8-3.6-2-0.1,18.1c0.8,4.9,0.8,6-0.5,9.2c-0.8,2-2.2,6.8-3.4,10.5
								c-3.3,10.9-5.2,14.1-8.2,5.2c-1.5-4.5-2.9-5.2-1.6-8.7c1.5-4.3,1.3-7.6-1.6-11.9c-0.5-0.7-1.5-2.3-1.6-6.8
								c1.1-10.1-3.4-10.3-4.3-13c0.2-4-1.4-13.6,1.3-13.3c2.3,0.3,10.5,0.7,14.4-0.7
								C-23730.1,6603.3-23724.7,6602.2-23724.7,6602.2z M-23385.1,6610.5c8.5,0.1,15.3,6.9,15.2,15.3c-0.1,8.4-7,15.2-15.4,15.1
								c-8.5-0.1-15.3-6.9-15.2-15.3C-23400.5,6617.2-23393.6,6610.4-23385.1,6610.5z M-23621.9,6614.9l11.6,2.4
								c2.6,0.9-2.6,159.9-97.9,272.8l-0.3-26.6C-23663,6800.8-23629.5,6723.5-23621.9,6614.9z M-23425,6622.3l1.3,38
								c-6.4-5.7-22.8-16.3-22.7-16.6l0.4-14C-23446,6629.8-23431.8,6631.1-23425,6622.3z M-23514.6,6621c2.8,1.2,5.2,4,7.5,6
								l-7.7,4.9L-23514.6,6621z M-23248.5,6628.4c49.8,15.8,99.2,16.4,148.3,6.6l3.2,9.4c-53.3,13.2-105.9,11.3-157.9-6.4
								L-23248.5,6628.4z M-23491.5,6630.5l2.3,16.4l-28.7,17.6l1.9-24.9l14.9-9.2L-23491.5,6630.5z M-23241.3,6649.3
								c4.6,0,8.3,3.7,8.2,8.3c0,4.5-3.8,8.2-8.3,8.2c-4.6,0-8.2-3.7-8.2-8.3C-23249.6,6652.9-23245.9,6649.3-23241.3,6649.3z
								 M-23112.5,6652.6c4.6,0,8.3,3.7,8.2,8.3c0,4.5-3.8,8.2-8.3,8.2s-8.2-3.7-8.2-8.3
								C-23120.8,6656.3-23117.1,6652.6-23112.5,6652.6z M-23354.3,6673.2c3.4,13.1,2,42.4-3.2,62.2c-1.6,5.9-2.9,27.1-2.9,27.1
								c-0.9,1.1,28.9-23.5,37.6,9.7c3,11.4-10.4,21.9-19.1,18.6c-1.7-0.6-1.1-6.3,0.6-9.5c5.1-9.8-8.7-15.2-16.9-6.6
								c-18.7,19.8-0.9,71.4,27.7,77c23.8,4.6,43.4-18.6,27.8-33c-6.8-6.3-18.2,2-13.2,9.9c5.3,8.5-4.8,11.6-12.3,3.7
								c-12.9-13.8,2.3-33.8,22.2-28.7c31.8,7.9,24.2,57.3-9.4,59.4c-25.7,1.6-42.7-9.8-53.1-29.7c-9.8-19.1-10.2-34.2-4.9-67.2
								c3.2-19.6,1.2-36.2-4.3-36.2c-3,0-5.4,1.4-6,4.9c-1.1,7.2-2,8.5-6.5,5.8c-5.7-3.4-8.7-14.2,0.9-21.2
								c9.8-7.2,22.1,4.6,21.6,6.6c0.2-0.4,1.2-2.2,2.7-10.6c4.8-27.3-4-56.5-15.7-52.1c-2.6,1-2.3,2.1,1,4
								c7.6,4.5,0.6,15.4-9.1,14.1c-13.7-1.9-16.4-21-4.2-29.1C-23373.3,6642.4-23358.1,6658.7-23354.3,6673.2z M-23447.6,6648.4
								c0,0,24.1,15.3,25.3,19.1c0.8,2.4,1.3,23.6,1.3,23.6l-41.7-27.2l-61.4,36c1.2-8.1,6-29.1,6-29.1l32.7-19.6
								C-23485.3,6652.5-23463.5,6667.4-23447.6,6648.4z M-23144.9,6656.1c4.6,0,8.3,3.7,8.2,8.3c0,4.5-3.7,8.2-8.3,8.2
								c-4.6,0-8.3-3.7-8.2-8.3C-23153.2,6659.7-23149.5,6656-23144.9,6656.1z M-23209.5,6654.9c4.6,0,8.3,3.7,8.3,8.3
								c0,4.5-3.8,8.2-8.4,8.2c-4.6,0-8.2-3.7-8.2-8.3C-23217.7,6658.5-23214,6654.8-23209.5,6654.9z M-23177.1,6657.4
								c4.6,0,8.3,3.7,8.2,8.3c0,4.5-3.8,8.2-8.3,8.2c-4.6,0-8.3-3.7-8.2-8.3C-23185.4,6661-23181.6,6657.4-23177.1,6657.4z
								 M-23258.5,6667.4c21.9,5,43.8,10.1,64.8,12.8l-0.5,64.2l-6.1-0.5l0.3-57.3c-20.3-1.9-39.4-6.6-57.3-11.6L-23258.5,6667.4z
								 M-23095.3,6672.8l-1.3,7.5c0,0-38.1,5.7-58,7.9c-0.6,12.9-1.4,56.1-1.4,56.1l-7.6,1.2l1.3-65.3
								C-23139.8,6678.2-23117.2,6676.2-23095.3,6672.8z M-23462.9,6668.9l44.1,30.3l4.6,31.2l-51.4-35.5c0,0-47.9,30.6-65.8,42
								l6-29.2L-23462.9,6668.9z M-23256.6,6678.9c17.9,4.2,35.8,8.5,53.8,10.4l-0.3,51.6l-8.2-2.4l0.2-41.9
								c-14-1.5-28.4-4.5-42.9-7.9L-23256.6,6678.9z M-23097.4,6683.8l-1.7,7c0,0-28.9,3.7-43.8,6.1c-1.3,0.3-1.8,45.4-1.8,45.4
								l-7.1,0.9l0.3-52.7L-23097.4,6683.8z M-23178.2,6687.9c4.6,0,8.2,3.7,8.2,8.3c0,4.5-3.7,8.2-8.3,8.2c-4.6,0-8.3-3.7-8.2-8.3
								C-23186.6,6691.5-23182.8,6687.8-23178.2,6687.9z M-23464.2,6700.6l52.1,36.5c0,0,5.8,18.6,6.8,28.8l-60-40.3l-77.1,48.5
								l9.4-30.8L-23464.2,6700.6z M-23784.6,6695.1c3.1,0.1,6.2,2.3,7.8,7.1c2.2,6.8,6.4,8.9,17.7,8.9c22.1-0.7,45.5-10.6,66.2-2.4
								c10.1,3.9,13.4,18.9,4.8,22.5c-9.3,4-13.2,1.3-16.2-6c-2.9-3.1-6.6-2.7-26.5,0.3c-8.8,1.2-19.1,2.3-27.7,2.8
								c-22.1,1.3-34.2-5.8-36.7-19C-23796.8,6700.9-23789.8,6694.9-23784.6,6695.1z M-23179.4,6719.6c4.6,0,8.3,3.7,8.2,8.3
								c0,4.5-3.8,8.2-8.3,8.2c-4.6,0-8.3-3.7-8.2-8.3C-23187.7,6723.2-23183.9,6719.5-23179.4,6719.6z M-23341.5,6726.2
								c6,0,10.8,4.9,10.7,10.8c0,5.9-4.9,10.7-10.9,10.6c-6,0-10.7-4.9-10.7-10.8C-23352.3,6731-23347.4,6726.2-23341.5,6726.2z
								 M-23464.8,6731.2c0,0,42.9,29.8,62.8,43.5l10.5,32l-73.1-49.4l-91.9,56.7l11.5-32.4L-23464.8,6731.2z M-23150.9,6747.6
								c3.7,10.6,10.7,18.8,18.1,27.1c0,0-4.4,7.8-19.4,7.1c-8.2-0.4-8.7,0.8-11.6,6.3c-4.7,6.9-8.6,11.4-11.6,13.6
								c-5.4,3.9-15.1-2.3-23-14.7c-2.9-4.5-4.1-5.6-13-5.6c-13.7,0-18.6-3.9-11.4-9.9c6.4-7.4,11-15.6,16.7-23.4l6.2,0.8
								c0.2,0.9-5.1,16-12.4,22c-3.7,4,1.3,5.6,10.2,3.9c5.6-1.6,7.1-0.9,11,7.7c8.3,16.4,12.8,15.7,23.4-0.5
								c3.7-7.3,3.6-8,13.4-5.7c10.5,1.3,13.8,0,9.5-3.7c-8.6-7.6-13.1-25.1-13.1-25.1L-23150.9,6747.6z M-23465.1,6762.9
								c0,0,77.6,52.8,77.4,51.7l15,37.2l-91.1-62.9l-114.3,70.5l17.6-36.2L-23465.1,6762.9z M-23462.7,6796.5l27.1,18.5l-0.7,32.2
								l-27.6-19.3L-23462.7,6796.5z M-23469.8,6797.3l-0.2,31.8l-24.9,14l-0.8-29.9L-23469.8,6797.3z M-23501.4,6817.2l-0.3,1.2
								l0.6,0.3l0.2,0l0.3,28.7l-28.7,18.9l0.8-32.4L-23501.4,6817.2z M-23429,6819l25.4,17.6l0.4,34.1l-27.6-18.8L-23429,6819z
								 M-23397.6,6840.5l25.5,18.4l0.2,34.1l-26-18.2L-23397.6,6840.5z M-23534.4,6837.8l-0.8,31.5l-26.1,17.3l-0.6-32.2
								L-23534.4,6837.8z M-23263.1,6884.1c-5.2,5.2-7.1,4.5-11.3-4.3c-4.4-9.1-11.1-13.5-20.9-13.6c-12.4,0-4.1-8,9.1-8.7
								C-23263.4,6857-23252.2,6872.4-23263.1,6884.1z M-23567.7,6859.3l0,31.6l-25.9,12.7l-0.5-15l13.7-22.6L-23567.7,6859.3z
								 M-23601.6,6900.8l0.8,5.8l-4.8,1.7L-23601.6,6900.8z M-23298.2,7134.9c-108.2,20.7-211.4,10.5-285.2-4.7l-35.1,56.8
								l-2.3-0.1l-9,14.7l0.9,1.7c0,0-29.2,53.1-41.5,69.7c138.5,1.5,442.5,7.1,442.5,7.1l-17.8-37.4l1-1l-17.5-39l-5.8-6.8
								c0,0-3.5-7.1-6.1-14.6c-2.4-7-12.7-26.1-12.7-26.1l-1.5,0.1L-23298.2,7134.9z M-23579.6,7137.2c1.4,1.2,137.5,29.5,279.6,6.2
								l7.5,13c-124.5,25.8-303.2-5-296.1-7.5L-23579.6,7137.2z M-23577.8,7162.5c12.5-0.2,25,6.7,33.3,18
								c2.6,3.6,6.9,14.1,6.9,14.1s6.2-9.7,12.1-14.5c9-7.3,20.7-13.2,37.3-12.3c15.3,0.9,32,9.4,46.7,33.6
								c4.1-13.7,55.4-59.3,95.7-0.2c5.1-15.4,27.9-45.8,63.4-23.5c2.3,5.3,4.8,11.1,4.8,11.1c-20.9-15.2-56.1-6-64.8,16.8
								c-0.8,2.8,0.1,4.3,1.1,7c10.6,15.7-17.8,14.8-9.1,2.4c1.6-2.8,1.8-5.2-0.6-9c-6.5-10.1-26.3-22.8-41-22.8
								c-17,0-36.1,10.8-42.6,20.9c-2.4,3.7-3,7.5-1,10.8c1.4,3.3,0.9,6.1-1.7,8.1c-6,4.7-13.2-1-10.2-8c1.9-3.1,1.7-6.9-2-12.3
								c-7.4-10.8-25-22.4-40.4-22.4c-22.2,0.1-44.9,15.4-43.7,28.5c0.5,5.7-1.1,7.9-5.8,7.1c-5.7-0.9-6.2-6.3-2.1-10.6
								c0.6-1.4,1.7-4.8-0.1-7.3c-22.7-31.9-58-23.5-66.1-16.6C-23599.8,7168.4-23588.8,7162.7-23577.8,7162.5L-23577.8,7162.5z
								 M-23599.1,7183.9c8.8,0.3,18.1,7,21,12.2c2.2-2.2,22.3-11.2,31.6,2.5c-25.2-2.4-26.1,24.2-7.5,27.2
								c-9,25.5,29.1,27.9,27.2,3.7c28.4,4.8,25.7-31.2-1.3-28c14.3-9.9,23.8-6.4,40.5,5.6c5.8-7.2,29.2-13.6,34.6-0.7
								c-26.5-2.2-22.6,28.5-2.8,29.2c-6.3,21.1,32.5,29.7,27.2-2.1c24.7,2.2,21.8-31.1-2-28.8c1.9-6,26-8.1,36.4,3.6
								c10-8.7,20.9-14.5,40.1-1.4c-26.5-5-27.6,29.3-2.8,27.8c-2.8,22.7,32.2,23.8,26.9-2.6c26.7-6.6,12.7-35.2-7-27.8
								c8.9-10.1,23.6-4.9,29.4-2.7c18.5-20.2,33.9-2.7,33.9-2.7c-31.4-3.9-25.5,40.8,5.5,25.3c-0.2,9.2,3.6,17.2,16.1,18.8
								l14.3,30.9l-422.3-6l24.1-40.2c2.3,0.8,15.8,2.3,19-13.3c27.6,9.3,30.1-22.7,9.5-28.2
								C-23604.9,7184.4-23602,7183.8-23599.1,7183.9z M-23615.8,7195.2c2.7,4.5,0.3,7.3-4.5,7.3
								C-23620.2,7202.5-23617.1,7198.1-23615.8,7195.2z M-23268.5,7208l2.6,5.8C-23268.8,7212.5-23269.2,7211.3-23268.5,7208z"/>
						</g>
					</g>
				</g>
			</g>
		</g>
		<path id="path147-0-8-1-3-6-2-4-7_1_" d="M137.7,229.3c7.9-0.2,11.5-9,5.6-15.9c-0.9-1-0.9-1.6,0.6-0.6c3.9,2.6,11.5,0.9,11.9-7.1
			c0.5-9.9-13.4-12.7-16-2.2c-0.1,1.1-1,1.1-0.8-0.5c0.2-4.3,1.6-8.3,3.4-12.1c-3.1,0-6.6,0-9.4,0c1.8,3.9,3.2,7.9,3.4,12.1
			c0.2,1.6-0.7,1.6-0.8,0.5c-2.6-10.5-16.5-7.7-16,2.2c0.4,8,8,9.7,11.9,7.1c1.6-1,1.5-0.4,0.6,0.6
			C126.2,220.3,129.8,229.2,137.7,229.3C137.7,229.3,137.7,229.3,137.7,229.3L137.7,229.3z"/>
		<path id="path147-0-8-1-0-3-83-7-5-7_1_" d="M54.2,31.8c7.9,0.2,11.5,9,5.6,15.9c-0.9,1-0.9,1.6,0.6,0.6
			c3.9-2.6,11.5-0.9,11.9,7.1c0.5,9.9-13.4,12.7-16,2.2c-0.1-1.1-1-1.1-0.8,0.5c0.2,4.3,1.6,8.3,3.4,12.1c-3.1,0-6.6,0-9.4,0
			c1.8-3.9,3.2-7.9,3.4-12.1c0.2-1.6-0.7-1.6-0.8-0.5c-2.6,10.5-16.5,7.7-16-2.2c0.4-8,8-9.7,11.9-7.1c1.6,1,1.5,0.4,0.6-0.6
			C42.8,40.8,46.3,31.9,54.2,31.8C54.2,31.8,54.2,31.8,54.2,31.8L54.2,31.8z"/>
	</g>
</g>
</svg>
