<?xml version="1.0" encoding="utf-8"?>
<!-- Generator: Adobe Illustrator 23.0.1, SVG Export Plug-In . SVG Version: 6.00 Build 0)  -->
<svg version="1.1" xmlns="http://www.w3.org/2000/svg" xmlns:xlink="http://www.w3.org/1999/xlink" x="0px" y="0px"
	 viewBox="0 0 180 250" style="enable-background:new 0 0 180 250;" xml:space="preserve">
<style type="text/css">
	.st0{fill:#FFFFFF;}
	.st1{fill:#E2CF00;}
	.st2{fill:#131F67;}
	.st3{fill:#D40000;}
	.st4{fill:#100F08;}
</style>
<g id="white-background">
	<rect class="st0" width="180" height="250"/>
</g>
<g id="Layer_1">
	<g id="g11425-5-5_1_" transform="matrix(0.99553774,0,0,0.99680134,32.088628,318.48631)">
		<path id="path9698-0-0_1_" class="st3" d="M-18.3-263.2c0,0-1.8-2.6-4.2-5.6c-1.6-2-2.9-4.2-3-6.1c-0.1-2.2,1.2-4.3,3.5-4.4
			c2.4-0.1,3.3,1.7,3.7,3.1c0.4-1.5,1.4-3.2,3.7-3.1c2.4,0.1,3.7,2.3,3.5,4.4c-0.1,1.9-1.4,4.1-3,6.1
			C-16.5-265.8-18.3-263.2-18.3-263.2z"/>
		<path id="path9700-3-2_1_" class="st3" d="M134.6-125c0,0-1.8,2.6-4.2,5.6c-1.6,2-2.9,4.2-3,6.1c-0.1,2.2,1.2,4.3,3.5,4.4
			c2.4,0.1,3.3-1.7,3.7-3.1c0.4,1.5,1.4,3.2,3.7,3.1c2.4-0.1,3.7-2.3,3.5-4.4c-0.1-1.9-1.4-4.1-3-6.1
			C136.4-122.4,134.6-125,134.6-125z"/>
		<path id="path9714-6-6_1_" class="st3" d="M58.2-174.8c0,0-3.8-6.2-8.9-13.4c-3.4-4.8-6.1-10.1-6.4-14.6
			c-0.3-5.2,2.5-10.3,7.4-10.6c5-0.3,7,4,7.8,7.5c0.8-3.5,2.8-7.7,7.8-7.5c5,0.3,7.7,5.4,7.4,10.6c-0.3,4.5-3,9.8-6.4,14.6
			C62-181,58.2-174.8,58.2-174.8z"/>
		<path id="path41-87-8-3-9_1_" class="st3" d="M-26.5-281.8v-2.3h2.2l4.6-24.3h2.6l5.1,24.3h1.8v2.3h-6v-2.3h1.6l-0.6-3.7h-6.1
			l-0.5,3.7h1.6v2.3H-26.5L-26.5-281.8z M-15.7-290.5l-2.6-13l-2.5,13H-15.7z"/>
		<path id="path41-8-5-1-8-7_1_" class="st3" d="M126.5-106.4v2.3h2.2l4.6,24.3h2.6l5.1-24.3h1.8v-2.3h-6v2.3h1.6l-0.6,3.7h-6.1
			l-0.5-3.7h1.6v-2.3H126.5L126.5-106.4z M137.3-97.7l-2.6,13l-2.5-13H137.3L137.3-97.7z"/>
	</g>
</g>
</svg>
