<?xml version="1.0" encoding="utf-8"?>
<!-- Generator: Adobe Illustrator 23.0.1, SVG Export Plug-In . SVG Version: 6.00 Build 0)  -->
<svg version="1.1" xmlns="http://www.w3.org/2000/svg" xmlns:xlink="http://www.w3.org/1999/xlink" x="0px" y="0px"
	 viewBox="0 0 180 250" style="enable-background:new 0 0 180 250;" xml:space="preserve">
<style type="text/css">
	.st0{fill:#FFFFFF;}
	.st1{fill:#E2CF00;}
	.st2{fill:#131F67;}
	.st3{fill:#D40000;}
	.st4{fill:#100F08;}
</style>
<g id="white-background">
	<rect class="st0" width="180" height="250"/>
</g>
<g id="Layer_1">
	<g id="g7107_1_" transform="matrix(0.99553491,0,0,0.99680337,10.559869,-8.1397307)">
		<path id="path6307-8_1_" class="st1" d="M103.2,29.3c0,0,20.5,29.5,27.5,34.8c0.5,0.2,9.1-1.4,9.1-1.4
			c-4.4-10.5-7.2-21.3-4.4-33.5L103.2,29.3z M114.6,76c-14.2,4-28.3,7.7-43.6,1.2L54.2,93.4c-0.1,0.4,20.2,9.2,20.6,8.2
			c-10,26.8,5.6,31.6,15.5,2.2c13-1.7,28.6-3.4,41.4-12.3C120.6,84.7,114.6,76,114.6,76z M29.4,80.8c-5.4-3.3-9.6,3.5-5.6,6.8
			c-0.5,2-0.6,4.9,1.3,6.2c1.8,1.1,5,0,5.5,0c0,0,0.1,3.5-0.2,3.5c-0.5,0-2.4-1.6-3.6-2c-4-1.2-9.6-1.8-9.5-1.6
			c0.2,0.3-1,1.2,3.5,3.9c1.7,1,6.9-0.1,11.1,1.2c2.5,0.8,4.8,2.1,6.2,1.4c3.6-1,5.1-5.7,4.8-5.7c-0.1-0.1-11,2.8-10,3.3l0-4.1
			c4.3,0.5,8.2-2.6,3.9-7.9C39.9,82.8,35.5,75.4,29.4,80.8L29.4,80.8z M47.3,99.6c-10.6,10.6-32.1,30.5-32.1,30.5l0.2,14.8
			l21.1,18.8c1.7-19.9,13-38.5,23.9-47.8C61.3,113,49.6,100.6,47.3,99.6z M122.5,103.3c-1.6,12.3-3,29-23.9,47.5
			c3.6,6.1,8.2,12.4,14.9,15.4c0.5,1.1,19.2-19.3,30.7-28.9l-0.1-13L122.5,103.3z M28.4,105.9c0,0.3-0.8,3.5-1,3.4
			c0,0.2,2.1-0.8,2.4-1.7c0.2-0.8,0.7-1.8,0.7-2C30,102.3,29.1,104.7,28.4,105.9z M20.5,114.5c-0.8,1.8-1.5,5.2-1.2,7.4
			c3.7,1.9,4.8-5.9,3.8-6.6C22.5,114.9,21.1,114.5,20.5,114.5z M136,150c-0.3,1.5-0.3,2,0.4,2.3c1.2,0.5,1.8-0.1,2.7-2.6
			c0.6-1.5,1.1-3.8,0.6-4.6C137.5,143.4,136.3,148.8,136,150L136,150z M70.6,163c-15.3,2.4-30.7,3.9-42.9,13.4
			c1.4-0.2,16.1,13.6,16.9,15.6c22.6-11,44.5-2.7,44.5-2.7l16.5-15.8c0.6-0.3-18-7.9-21.5-9.2C96.9,130.3,76.8,135.4,70.6,163
			L70.6,163z M131,159.1c-1,0.8-1.5,1.5-2.3,2.6l0.8,1.3l2-2.2L131,159.1z M116.6,173.4c2.1-1,9.7-4.6,10-3.8l-0.2,3.6
			c-1.2-0.4-8.6,0.8-4.3,8.5c-2.7,6.1,3.3,9.2,7.6,5.2c8.9,3,7.7-5.8,5.9-7.2c1.4-2.2-0.4-7-1.3-7c0,0,7.8,1.7,7,0.4
			c-0.3-0.6-0.8-1.7-2.5-2.9c-2-1.3-5.5-0.8-8.3-1.4c-3-0.6-5-1.7-7.5-1.9C119.2,167.4,115.6,170.7,116.6,173.4L116.6,173.4z
			 M30.2,202.1L19.5,205c0,0,3.5,8,4.7,15.1c1.5,8.7,0.3,18.2,0.3,18.2l31,0.2L30.2,202.1z"/>
		<path id="path6309-7_1_" class="st3" d="M58,238.3c-13.6-19.3-26.2-37.7-42.9-58c0,0,0-7.8,0.1-15.6l51.4,73.4L58,238.3z
			 M85.6,207.1c-0.4-3.7-1.2-8.1-2.3-11.8l9.4-8.8C91.7,194.3,90.1,200.4,85.6,207.1z M130.4,179.3c2.1,2.8-1.4,4.3-2.8,3.1
			C124.9,179.9,128.9,177.3,130.4,179.3z M37.4,161.8c-1.6,1,2.8-24.2,14.8-37.3C59.4,145.3,46.5,157,37.4,161.8z M96.3,161.7
			l-7.9-2.1l3.7-11.1c0,0,7.7,1.7,7,4C97.1,160.1,96.3,161.7,96.3,161.7z M59.6,157.5c2.2-3.5,3.8-7.4,5.3-11.4l8-0.2l-4,11
			L59.6,157.5z M107.4,142c-6.1-12.2,1.1-31.5,14.5-36.8C121.4,117.6,117.6,130.1,107.4,142z M66.1,138.5c0.3-4.3-0.2-8.9-0.8-12.9
			c8.5,1.9,17.7,3.2,28,3.7l1,11.7C85.1,139.4,75.9,138.2,66.1,138.5z M86.4,120.7c0.9-3.6,2.1-7.2,3.6-10.6l9.7-0.4
			c-0.1-0.2-4.1,6.4-5.1,11.2C93.1,120.7,86.4,120.7,86.4,120.7L86.4,120.7z M68.1,117.9c-2.8-1-6.7-1.3-8.2-3.4l2.9-9.3l8.7,2.7
			L68.1,117.9z M92.5,29.3l6.8-0.1c0,0,32.8,41.8,45.1,58c-0.4,1.7,0.1,15.7,0.1,15.7C127.2,78.6,92.5,29.3,92.5,29.3z M29.6,87.6
			c-1.8-2,1.1-3.7,2.3-1.9C33,87.2,30.6,88.7,29.6,87.6z M66.4,80.8c0.1-9.7,7-21.2,6.9-20.9c-0.1,0,1,9.5,2.3,12.4
			C75.3,72.9,66.7,81.4,66.4,80.8z"/>
		<path id="path6311-0_1_" class="st2" d="M13.7,27.7v211.7h132.2V27.7H13.7z M134.8,29.3c-1.1,11.7-1.3,20.8,4.8,32.9
			c-1.1,1.2-9.4,1.5-12,2.8c0,0.3,0.7,0.9,0.7,0.9c2.7-1.3,13.4-2.4,13.4-2.4c-4.5-7.8-8.2-22.8-5.4-34.3h8v56.6
			c0,0,0.1,10.8,0.3,16.9c-4.1-5.3-9.4-12.5-13-18c-4.3-6-9.1-13.1-14.1-19.8c-1.5-2.1-3.5-4.8-5.2-7.3c-2.7-3.8-4.9-6.7-7.6-10.8
			c-2.9-4.2-5.8-8-9.3-12.9c-3-4.2-3.1-4.7-3.1-4.7H134.8z M84.1,29.3c5,8.7,13.9,11.7,16.2,12.3l1.3,1.9
			c-10.6-2.1-16.2-8.8-18.9-13c-0.2-0.3-0.2-1.2-0.2-1.2H84.1z M79.2,29.3c-1.4,3.3-3.3,5.2-5.2,7.2l0.1-2.1
			c0.1,0.1,2.7-2.9,3.7-5.1H79.2z M81.6,29.3c0,0,0,0.7-0.1,1.1c-1.1,3.4-7.6,9.9-7.4,8.9L74,37.7c0,0.1,4.9-4.8,6.2-8.3H81.6z
			 M76.8,29.3c-0.5,1-2.4,3.9-2.6,3.1l0.2-3.1H76.8z M91.9,29.3c0.8,1.2,1.6,2.2,2.5,3.4c0.2,0.2,0.3,0.5,0.2,0.6
			c-0.1,0.3-0.5,0.1-1.6-0.9c-1.8-1.6-3-3.1-3-3.1H91.9z M85.2,29.3h1.6c3.3,5.5,9.3,8.6,11.4,9.2c0.6,0.6,1.2,1.7,1.4,2
			C94,39,87.7,34.2,85.2,29.3z M89.1,29.3c1.8,2.6,4.6,4.4,6.1,5.7c0.8,0.7,2,2,1.9,2.3c-3.5-1.1-7.6-5.1-9.5-7.9H89.1z M82.3,31
			l1,1.5c-2.4,3.9-5.3,7.4-9.3,10.1l0-2C78.4,37.4,80.4,34.2,82.3,31L82.3,31z M83.8,33.2c2.8,3.8,8.9,9.6,18.6,11.4
			c0,0,0.6,0.5,1.4,1.6c1,1.4,1,1.4,1.2,3.7c0.1,4.2,1.4,9.8,2.8,13.3c-0.2,0.9-0.3,1.3-2,3.6c-7,9.4-21.8,18.2-29.1,6.1
			C74.2,69.1,74,61.6,73.9,57c0,0,0-0.3,0.1-0.4c0.2-0.8,0.4-0.7,1.7-0.3c1.3,0.6,2.7,0.1,4.1-0.3c1.6-0.6,1.7-0.1,0.2,1.3
			c-0.5,0.5-1.2,1.3-1.1,1.2c0.1,0,1-0.4,1.4-0.7c1.2-0.9,1.5-0.6,1.1,0.5c-2,4.4-2.3,4.6,0.4,5.8c0.6,0.3,1,0.5,1.3,0.8
			c1.9,1.8,1.2,0.8,0.7,0c-0.8-1.3-0.1-1.9,1.3-1.1c0.9,0.5,2.1,0.9,2.8,0.7c1.3-0.4,1.6-1.8,1.3-3.3c-0.3-0.8-2-2.3-1.6-0.8
			c1,0,1.9,1.4,1,2.4c-0.7,0.9-1.9,0.4-3.8-0.8c-1-0.8-2.3-0.4-2.2,0.6c0,0.6-0.9,0.5-1.5-0.3c-0.3-0.4-0.1-1.7,0.5-3
			c3.9-7.7,0.6-15.2-6.1-13.1c-0.7,0.2-1.4,0.4-1.4,0.4l0-3C77.8,41,81.9,36.7,83.8,33.2L83.8,33.2z M87.7,47.1
			c-1,1.2-0.6,2.3,1.6,1.2c1.8-0.9,2-1,4-1.1c2.8-0.1,5.3,0.8,8.4,2.7c2,1.3,2.3,1.3,1.8,0.6C101.8,47.3,92,42.5,87.7,47.1z
			 M78.3,47.5c1.9,0.5,3.8,1.8,3.5,2.3c-0.1,0.2-0.2,0.2-0.5,0.1c-1.4-0.7-3.7-1.8-6.9-0.4c-0.4,0.2-0.6-0.1-0.6-0.5
			c0-0.8,1.4-1.5,2.9-1.6C77.2,47.3,77.8,47.3,78.3,47.5z M89.5,49.9c-1.2,0.6-1.5,0.9-2,0.6c-1.2-0.6-0.9-0.1-0.2,1.1
			c0.5,0.9,0.5,1.1,0.4,1.6c-0.1,0.6-0.1,0.6,0.5,1.3c1.1,1.4,2.2,2.8,3.8,3.9c0.5,0.3,1.2,0.7,1.3,0.7c0.2,0,0.1-0.1-0.2-0.4
			c-2.1-2-3.8-3.8-1.6-3.1c2.5,0.8,4.9-0.2,6.8-0.9c0.8-0.2,1.6-0.5,1.8-0.5c1.8,0,2.2-0.7,1.1-1.9C97.3,48.2,94.1,47.2,89.5,49.9z
			 M98.8,50.7c0.8,0.7,1.2,1.1,1.1,1.3c-0.1,0.2-0.7-0.1-1.7-0.7c-2.1-1.1-4.5-1.4-7.4-0.5c-2.3,0.7-1.6-0.4,0.9-1.4
			C93.7,48.5,96.6,48.8,98.8,50.7L98.8,50.7z M77.3,49.2c1.8,0,3.6,0.5,4.8,1.6c0.9,0.7,0.2,0.9-1.2,0.3c-2.1-0.9-3.9-1-5.6-0.2
			c-0.5,0.3-1.2,0.6-1.3,0.5c-0.3-0.2-0.4-0.8-0.2-1.2C74.6,49.6,75.9,49.2,77.3,49.2z M106.2,49.8c0.1,0,0.3,0.2,0.6,0.6
			c0.5,0.7,0.5,1.1,0.1,2.4c-0.5,1.6-0.7,1.3-0.9-0.9C106,50.5,106,49.8,106.2,49.8z M108,52.2c0.2,0,0.4,0.3,0.8,1.1
			c0.3,0.5,0.2,0.7-0.6,3c-0.3,1-0.7,1.8-0.7,1.8c-0.3,0.2-0.2,0.2-0.3,0c-0.6-0.7-0.5-2.2,0-3.9C107.5,52.9,107.7,52.2,108,52.2
			L108,52.2z M92.1,52.4c0.1,0,0.5,0.1,0.5,0.1c0,3.5,2.7,2.8,3.1,0.3c0,0,0.7-0.1,0.8,0.1c0.3,0.5-0.4,2-1.6,2.5
			c-0.8,0.4-1.9,0.3-2.6-0.3c-0.2-0.3-0.8-1.7-0.6-2.2C91.8,52.5,92,52.4,92.1,52.4L92.1,52.4z M90.5,52.8
			C90.5,52.8,90.6,52.8,90.5,52.8c0.4,0,0.5,0.1,0.7,0.4l0.6,1.8c-0.4,0.5-2.1-0.5-2.1-1.3C89.7,53.1,90.1,52.8,90.5,52.8L90.5,52.8
			z M79.4,52.8c0.4,0,0.6,0,0.6,0.4c0.1,1.2-1,2.4-2.5,2.5c-1.5,0.2-2.3-1-2.2-2.1c0-0.8,0.7-0.9,0.8-0.3c0.2,1.9,1.9,2,2.6,1
			C79,53.9,78.9,52.8,79.4,52.8z M97.4,53.2c0.1,0,0.3,0,0.5,0.1c1.5,0.5,1.6,0.7,0.3,1.2c-1.5,0.6-1.6,0.6-1.3-0.4
			C97.1,53.4,97.1,53.2,97.4,53.2z M81.4,53.3c1.1,0.1,1.2,1,0.2,1.3c-1.5,0.6-2,0.6-1.4-0.3C80.5,53.6,80.8,53.3,81.4,53.3z
			 M74.4,53.7c0.1,0,0.3,0.1,0.5,0.2c0.2,0.5,0.5,0.9,0.7,1.4c-0.2,0.2-0.8,0.2-1.1-0.1C73.7,54.6,73.8,53.7,74.4,53.7L74.4,53.7z
			 M109.6,54.8c0.4,0,0.9,0.7,1,1.2c-1.5,1.9-1.3,5.6-1.6,6.7c-0.3,0.9-0.4,0.1-1.2-2.2C107.4,59.5,109.1,54.9,109.6,54.8
			C109.5,54.8,109.5,54.8,109.6,54.8L109.6,54.8z M111.1,56.7c0.3,0.2,0.8,0.6,0.9,1.3c0,0.4-0.2,0.9-0.3,1.5
			c-0.3,1.3-0.7,3.6-0.9,5.8c-0.1,0.9-0.1,1.8-0.1,1.9c-0.5,0.9-1.4-1.5-1.3-3.4C109.7,62.3,109.9,57,111.1,56.7L111.1,56.7z
			 M113.3,59.5c0.2,0.3,0.4,0.5,0.4,0.8c0.1,0.4,0,1-0.2,2.1c-0.7,3-0.6,6.2-0.1,9.6c0.1,0.7-0.4,0.3-1.1-0.9
			c-0.4-0.7-0.7-1.6-0.8-2.7c-0.3-2.4,0.2-5.6,0.7-8.1C112.2,59.2,112.4,58.2,113.3,59.5L113.3,59.5z M114.4,61.3l1.2,1.5
			c0,0-0.5,3.4-0.5,5.2c-0.1,0.7,0.6,8,0.8,8.6c-0.7-0.8-1.1-1.3-1.9-2.4c-0.1,0-0.8-7.2-0.3-10C114,62.5,114.4,61.3,114.4,61.3
			L114.4,61.3z M116.3,64.2c0.2,0,0.5,0.2,0.8,0.7c0.3,0.4,0.4,0.8,0.5,1.3c0,0.4-0.2,0.7-0.2,1.3c0,4,0.5,7.7,1.2,11.4
			c0.2,1.3-0.2,0.8-1-0.1c-0.7-0.8-0.7-1-1.1-2.1c-0.1-0.2-0.8-7.5-0.8-8.1c0-2.3,0.1-3.5,0.4-4.1C116.1,64.3,116.2,64.2,116.3,64.2
			z M111.9,72.2c0,0-1.4,0.7-1.8,0.5c-0.6-1.6-2.8-6-2.8-6.8c0-0.3,0.9-1.4,0.9-1.4C109.4,67.1,110.5,69.8,111.9,72.2z M85.2,67
			c-0.4,0.5-0.9,0.3-2-0.2c-0.5-0.2-0.4,0.1-1.3,0.5c-0.7,0.4-0.9,0.4-1.4,0.4c-0.6,0-0.8-0.2-0.8,0.2c0,0.2,0,1.3-0.2,1.8
			c-0.2,0.7-0.4,1.1-0.3,1.2c0.3,0.3,0.6,0.1,1.2-0.5c1.1-1,1.8-0.7,2.9-0.3c1.3,0.4,1.6,0.6,2.8,0.2c1.7-0.6,2.8-0.6,3.5-0.2
			c1.2,0.8,1.5,0.7,1.1-1.4c-0.2-0.7-0.2-1.7-0.3-1.9c-0.1-0.2-0.4,0.4-0.7,0.6c-0.6,0.4-0.9,0.4-2.3,0C86.7,67.1,85.8,66.2,85.2,67
			z M107.1,67.2c0.5,1.2,2.6,5.4,2.6,5.8c-0.4,0.4-1,0.6-1.3,0.3c-1-1.9-1.4-2.9-2.2-5.1C105.9,67.8,106.7,66.5,107.1,67.2
			L107.1,67.2z M118.4,67.1c0.1,0,0.5,0.3,0.7,0.6c0.7,1,0.8,1.1,0.8,2.1c0.1,3.7,0.6,8.1,1.6,11.5c0.2,0.7,0.6,1.5,0.6,1.6
			c-0.4,0.5-2-0.9-2.5-2.9c-0.7-2.6-1.1-5.4-1.3-7.2C117.9,69.5,117.9,67.3,118.4,67.1L118.4,67.1z M105.8,69.1
			c0.6,1.2,1.4,3.2,1.9,4.4c0.2,0.5-1,0.9-1.2,0.8c-0.5-0.4-0.7-1.4-1-2c-1-2.2-1.2-2.2-0.6-2.9C105.1,69,105.5,68.4,105.8,69.1z
			 M120.7,70.5c0.1,0,0.2,0.1,0.3,0.3c0.6,0.7,1.1,1.3,1.2,1.9c0.1,0.4,0,0.7,0.1,1.4c0.1,1.9,0.6,4.5,2,9.8
			c0.1,0.5,0.3,1.1,0.3,1.3c-0.1,1-1.6-0.6-2-2.2c-0.5-1.8-1.4-4.2-1.6-6.4C120.5,73,120.3,70.5,120.7,70.5L120.7,70.5z M104.5,71.9
			c1.2,2.8,1.3,2.8,0.5,3c-0.8,0.2-0.8,0.2-1.8-1.7c-0.7-1.4-0.8-1.5-0.2-2C103.9,70.1,104.1,71,104.5,71.9z M87.9,71.2
			c-0.1,0-0.5,0.3-0.9,0.5c-1,0.4-2.7,0.4-3.8,0.1c-1.9-0.8-1.4,0.2,0.3,0.8c1.3,0.4,3.9,0.1,4.3-0.7C88,71.6,88.1,71.2,87.9,71.2z
			 M102.3,72.7c1.1,1.6,1.4,2.3,1.2,2.4c-0.2,0.2-1,0.5-1.4,0.3c-0.4-0.2-0.8-1.2-1-2C101.3,73,101.9,72.3,102.3,72.7z M75.7,73.4
			c0.5,0,1.7,1.7,1.5,2c-0.1,0.2-0.5,0-1.6-0.3c-0.4-0.1-1.2-0.2-0.9-0.8C74.7,74,75.5,73.4,75.7,73.4z M101.1,75.6
			c-0.1,0.3-0.9,0.3-1.2,0.3c-0.3-0.6-0.4-0.9-0.5-1.3c0.1-0.2,0.7-0.9,0.9-0.7C100.5,74.1,101.1,75.3,101.1,75.6z M123.2,74
			c0.2,0,0.5,0.3,0.9,0.9c0.8,1.2,0.7,1.1,1.3,3.9c0.7,3.2,1.5,5.4,2.3,8.7c0,0.5-0.2,0.4-0.8,0c-1-0.6-1.3-1.3-1.6-3
			c-0.5-2.8-1.6-5.5-2.1-8.8C123,74.6,123,74,123.2,74L123.2,74z M98.5,75.2c0.6,0,0.5,0.9,0.3,1c-0.4,0.4-1.6,0.3-1.8,0.3
			C96.6,75.8,98.2,75.2,98.5,75.2z M126.2,78.2c0.2,0,0.6,0.7,1.5,1.9c0.8,1.1,0.6,1,1.1,2.9c0.7,2.6,1.8,4.5,2.5,6.9
			c0,0.3-0.3,0.2-0.7,0.1c-0.6-0.3-1.2-0.7-1.7-1.1c-0.4-0.4-0.4-0.9-1.4-4.5c-0.4-1.3-0.5-1.7-1-3.7
			C126.2,78.9,126,78.2,126.2,78.2L126.2,78.2z M37.1,86c2.8,5.1,1.8,7.4-4.2,8.1c-0.4-0.1,0,2.6,0,3.8c3-1.7,6.7-2.1,10-3.2
			c-0.9,2.9-2.5,6.2-7.4,5.7c-5.1-3.9-11.1-1.6-15.1-3.1c-2.2-0.8-3-3.3-3.1-3.7c2.6,0.3,5.6,0.8,8.2,0.6c-2.8-2.1-2-5.1-1.6-6.5
			c-3.3-4.1-0.5-8.7,4.2-7.7c0.5,0.1,1.5,0.6,1.5,0.6C34.1,76.6,39.5,80.5,37.1,86L37.1,86z M129.9,83.5c0.2,0,0.6,0.5,1.5,1.6
			c2.5,3.5,4.7,6.7,4.6,6.9c-0.1,0.6-2.7-0.5-3.4-1.3c-0.7-1-2.9-6-2.8-6.8C129.8,83.7,129.8,83.5,129.9,83.5z M28.3,98.4
			c1.3,0.2,1.7,0.3,1.6,0.8c0.1,0.4-3.2,0.5-3.6,0.2c-0.4-0.3,0.1-0.8,0.5-0.9C27.3,98.3,27.8,98.3,28.3,98.4L28.3,98.4z
			 M118.2,98.9c-18.2,8.6-25.7,31.3-16.5,48.8l-1.3,0.9c-9-18.5-2.3-38.2,12.3-48.2c0.6-0.4,1.9-0.7,2.5-1.1c0,0-6,1.4-8,2.1
			c-0.4,0-1.6,0.4-2.9,1.8c-1.1,1-4.7,5.9-4.6,6.1l-9.4,0.4l0,0.3l9.2-0.2c-9.5,15.6-7.2,30.4-1.3,40.8l0.1,0.1
			c0.3,0.2,1.2-0.4,3.1-2.2c0.8-0.7,1.7-1.6,2.1-2c1.2-1.1,2.8-2.9,3.9-4.2c-6.4-13-0.1-30.1,14.9-37.7c0-0.4-0.2-1.7-0.2-1.7
			s-0.6-0.5-0.9-0.5c-16.7,7.3-23.3,25.5-16.6,42l-1.1,1.2c-8.5-17.1,0.6-38.4,16.6-44.5c0-0.4-0.4-0.9-0.8-0.6
			c-17.2,8-24.7,28.3-16.3,45.6l-1.1,0.9c-9.6-18.9,0.5-40.2,16.4-47.4C119.1,99.4,118.2,98.9,118.2,98.9L118.2,98.9z M25.5,99
			c0,0-0.1,1,0.2,1.4c0.2,0.7-0.1,0.6-0.7,0.5c-1.5-0.4-0.3,0.5,0.9,1.2c1.2,0.7,1.1,0.7,0,1.3c-0.7,0.5-0.6,0.6-0.5,1
			c0.1,0.5,0.2,0.2,0.5-0.1c0.6-0.6,1.1-0.7,1.7-0.7c0.8,0,0.9,0.7,0.8,1.2c-0.3,1.1-1.5,1-2.4,0.8c-1.5-0.4-4-3-3.9-4.6
			C21.9,99.6,23.8,99,25.5,99z M32.3,99.4c0.6,0.2,1.3,0.5,2.1,0.8c1.1,0.4,2.2,0.9,3,1.4c2.2,1.5,2.1,4.4,1.9,4.7l-11.5,10.8
			c0,0-0.6-0.3-1.3-0.6c-1.9-1-2.4-1.5-1.3-2c0.5-0.3,0.7-0.8,0.8-1.4c0.1-0.7,0.1-0.6,0.5-1c0.8-0.6,0.8-0.8,0.8-1.8
			c0-0.6,0.1-0.9,0.3-1.4c0.2-0.3,0.4-1,0.5-1.8c0-0.1,0-0.4,0.1-0.6c0.1-0.6,0.3-0.8,0.5-0.9c0.1-0.1,0.3-0.6,0.5-1
			c0.3-0.9,0.3-0.8,0.8-0.7c0.8,0.1,0.6,0.6,0.6,1.3c0,0.3-0.3,0.6-0.2,0.5c0.1-0.1,0.6-0.3,0.7-0.3c0.2-0.1,0.5,0,0.5,0.4
			c0,0.2-0.1,0.6-0.1,0.9c0,0.8,0,1.7,0.2,2.3c0.9,2.9,0.7,2.5,0.4,0.1c-0.1-0.6-0.2-1.4-0.1-2.2c0.1-0.5,0.2-1.1,0.4-1.5
			c0.5-0.9,0.5-1-0.6-1.5c-0.4-0.2-1.1-0.4-1.2-0.7c-0.2-0.3-0.7-0.8-1.4-1c-1.6-0.4-2.6-2-2.4-2.2c0.2-0.2,0.8,0,1.2,0.1
			c1.5,0.1,1.8,0,2.5-0.6c0.4-0.3,0.5-0.6,0.8-0.6C31.7,99.1,32,99.3,32.3,99.4L32.3,99.4z M110.3,101.1
			c-15.4,12.4-18.1,32.5-10.4,48l-1.3,1c-9.7-18.2-3.2-37.8,8.7-48.5L110.3,101.1z M21.4,102.6c0.3,0,0.6,0.4,1.7,1.5
			c0.7,0.8,1.5,1.4,1.9,1.7c0.9,0.4,0.7,0.3,0,1c-0.8,0.9-0.3,1.6-1.3,1.2c-2.4-1.1-4.1-4.4-2.5-5.2
			C21.2,102.6,21.3,102.6,21.4,102.6z M20.2,106.1c0.1,0,0.1,0,0.2,0c0.3,0.1,0.7,0.6,1,1c1.1,1.1,1.6,1.5,2.4,1.9
			c0.8,0.4,0.9,0.5,0.3,1.1c-0.2,0.2-0.3,0.5-0.4,0.7c0,0.2-0.1,0.4-0.2,0.4c-0.9,0.2-4-1.7-4.2-3C19.4,107,19.7,106.1,20.2,106.1z
			 M26.7,106.4c0.5,0,0.9,0.5,0.9,1.2c0,0.5-0.3,0.8-0.9,1c-1.3,0.5-2.1-0.4-1.2-1.5C25.9,106.7,26.4,106.4,26.7,106.4z M25.9,109.6
			c1,0,1.3,0.8,0.6,1.6c-0.7,0.7-2.1,0.7-2.1-0.1C24.4,110.5,25.3,109.6,25.9,109.6z M19.8,110.6c0.7,0.2,2.3,1.4,3,1.5
			c0,0.4-0.4,0.5,0.2,1.2c0.3,0.3,0.3,0.6,0.1,0.7c-0.8,0.4-3.7-0.9-3.9-2.4C19.2,111,19.4,110.6,19.8,110.6z M23.5,112.3
			c1,0,2.1,0.1,2,0.5c-0.1,0.3-0.4,1.2-0.9,1.1c-0.2-0.1-0.4-0.3-0.6-0.4C23.5,112.9,23.3,112.3,23.5,112.3z M60.5,116.3
			c2.8,2.6,13.2,29.4-8.4,48.9l-4.6,1.4c20.7-16.2,17.3-39.2,11.7-49.1c0-0.3-0.1-0.3-0.6,0.2c-0.5,0.4-0.5,0.5-0.3,0.6
			c6.3,9.7,8.7,37-16.2,50.2c-0.4,0.4,0.4,0.4,0.4,0.4c0-0.4,11.2-3.1,10.4-3.1c10.4-9.2,19.5-31,8.2-50
			C60.9,115.5,60.5,116.3,60.5,116.3L60.5,116.3z M56.9,119.3l-0.1,0.6c9,17.6,0.4,39.3-16.4,47.3c0.3,0.2,0.6,0.3,0.9,0.5
			c19-10.2,24.5-31.8,16.2-48.5L56.9,119.3z M55.4,120.6l-0.1,0.6c7.5,15,1.5,35.9-16.3,44.3c-0.2,0.9,0,0.6,0.8,0.6
			c20.6-11,22.6-32,16.1-45.6L55.4,120.6z M54.1,122.4c-0.6,0.8-1.7,1.2-2,2.2c6,15.8-1.8,31-14.9,37.4c0,0.8-0.6,2.8,0.8,2.4
			c16.2-7.3,23.3-26.7,16.2-42C54.2,122.3,54.1,122.4,54.1,122.4z M135.5,152.9c0.6,0,1.1,0.2,1.7,0.3c2,0.3,3.3,1.7,2.4,2.6
			c-0.3,0.3-0.7,0.1-2-0.5c-0.6-0.3-0.7-0.6-0.8-1.2c-0.1-0.8-0.3-0.9-0.5-0.3c-0.2,0.6-0.4,1-1.1,0.8
			C133.2,154.2,134,152.9,135.5,152.9z M114,166.3c-4.8-2.7-10.8-7.7-14.2-13.3c-1.7,3.2-3.7,8.9-3.7,8.9l-7.6-2.1l-0.1,0.2l7.5,2.2
			l-0.7,2.5c-0.1,0.3-1.2,3.1-1.2,3.1l11.7,5.4c-0.7,1.1-1.5,1.9-2.5,2.9c-0.6,0.6-0.6,1.4-0.6,1.4l16.2-15.4c0,0,2.1,3.1,2.9,3.8
			c0.7,0.7,1,0.8,0.1,1c-3.8,0.6-6.8,3.4-5.7,7.3c0.2,0.4,0.5,0.3,1.2-0.2c2.5-2.3,8.7-4.4,8.9-3.9l0,2.5c-6.7,0.1-6,5-5.5,7.6
			c0,0.1-1.9,1.7-1.9,1.7c0.7,0.4,1.3,0.7,2,1.2c-0.6,3.3,2.2,8,7.7,5.6c0.5,0.5,0.9,1,1.4,1.6c0.6-0.6,1.2-2.2,1.2-2.2
			c2.7,1.2,8.4-1.5,5.5-7.8l1.6-1.5l-1.5-1c0-1.6-0.3-3-1.2-4.4c0,0,2.6,0.7,4.5,0.8l0,0c1.2,0.1,2.2,0.1,2.1-0.6
			c0-0.2-0.2-1.2-0.3-1.6c-0.6-1.6-3.5-2.9-6.4-3c-0.5,0-1,0-1.1-0.1c-0.2-0.2,0.1-0.5,0.5-0.5c1.6,0.3,3.1-0.9,3.3-2.3
			c0.1-0.3,0.4-0.7,0.8-1.2c0.8-0.9,0.9-0.9,0.9-2.1c0-0.9,0.1-1.1,0.6-1.7c0.5-0.8,0.8-2,0.5-3.1c-0.1-0.4-0.4-0.9-0.1-1.8
			c0.5-1.5-0.6-2.8-2-3.6c-0.1,0-0.1,0.1-0.2,0.2c-1.3,0.4-2.8-0.5-2.8-0.5c-0.3-0.2,1.1-8.1,3.9-7.4c0.5,0.3,0.7,1.7,0.6,1.7
			c0.1,0,0.2-0.8,0-1.4c-0.2-0.6-0.6-1.1-1.5-1c-0.7,0.1-1.4,1-1.8,1.4c-1.3,1.7-1.4,2.8-1.8,4.6c-0.2,0.9-0.2,0.8-1.4-0.1
			c-0.9-0.7-1.3-0.9-1-1.3c0.1-0.2,0.7-0.7,0.7-0.7l10.8-9.9v99.7H85.3l0.4-13.1c1.1-9-0.8-27.8-2.3-29.6c1.1-1.3,4.6-4.3,4.4-4.4
			l-0.5-0.3l-1.9,1.7l-4.6-1.4c-2-1.3-3.9-2.6-6-3.1c-3.4-0.9-9.9,1.9-9.9,1.9c-10.4,0.8-18.7,5-18.6,4.9c-0.5-0.4-1-1.7-1.1-1.7
			c-5.3-7.4-10.6-11.6-17.8-16.6l9.1-5l-21.6-22.4L15,130.5l31.2-29.7c0.2-0.5,10,6.9,13.6,12.9c0.7-2.9,2-5.6,3.1-8.5
			c0.1-0.3,6.2,2.2,8,2.4c0.3,0,0.5-0.3,0.5-0.3l-8.1-2.6L65,100c0,0,0.6-1.3-0.1-1.5c-3.7-1.2-7.1-3.3-10.6-5c0,0,1.6-1.8,1.7-1.9
			c0-0.1,0.7-1.1,0.5-1.4c-1.8,1.7-16.4,15.2-16.4,15.2c-0.4-2.3-1.1-3.1-2.5-4.5c0.8,0,2-0.8,2.7-1.3c2.1-1.5,3.3-4.3,3-5.9
			c-2.1,0.6-3.9,1.4-6.5,1.9c-1.4,0.3-2.8,0.9-3.6,1.6l-0.1-2.6c0,0,3.5,0.6,5.1-1.7c1.4-2,0.8-4.3,0.5-5.4c0-0.3,0-0.2,0.6-0.8
			c0.4-0.4,1.1-0.9,1.1-0.9c0-0.1-1.8-0.8-2.1-1.4c0.5-4.8-3.3-6.6-6.6-5.8c-0.6,0.2-0.9,0.3-1.6-0.5c-0.1-0.1-1-1-1-1
			s-0.4,0.9-0.6,1.3c-0.6,1.2-0.8,0.9-2.2,0.9c-3.5,0.2-5,3-4.2,6.4c0.2,0.8,0.1,0.7-0.4,1.7c-0.3,0.5-0.7,1.2-0.7,1.2
			s0.6,0.4,1.1,0.5c0.6,0.3,0.7,0.6,0.7,1.2c0.1,1.4,0.4,2.3,1.2,3.5c-2.7,0.1-4.8-0.2-7.3-1c0.4,3.8,3.2,5.2,6.6,5.7
			c0,0-0.4,0.3-0.7,0.5c-0.8,0.2-1.3,0.9-1.3,1.6c-0.1,0.6-0.5,1.2-0.9,1.5c-0.5,0.5-1,1.1-0.8,2.4c-0.1,0.9-0.3,1.2-0.5,1.5
			c-0.5,0.7-0.7,1.4-0.6,2.3c0.1,0.4,0.2,1.3,0.1,2.3c-0.1,1.6,0.4,2.2,1.1,3.3c0.5,0.7,0.4,0.7,0.3,1.3c-0.3,1.2-0.5,1.9-0.8,2.8
			c-0.6,2.1-0.6,3.7-0.1,4.1c0.8,0.6,1.6,0.4,2,0.3c3-0.9,2.5-3.9,2.7-5.9c0.1-0.5,0.3-0.8,0.4-0.7c0.9,1,1.8,1.6,2.9,2.2
			c-4,4.1-6.6,6.6-11.7,11V29.3h58.2c0,0,0.1,0.8-0.1,4.4c-0.3,7.3-0.6,15-0.1,22.4c0.1,2.6,0,5.1,0.4,7.7c0.4,2.5,0.5,5.2,1.7,7.5
			c0.5,1.3,0.5,1.2-1.3,2.8c-0.9,0.8-1.6,1.7-1.6,1.8c0,0.1,0,0.2,0.1,0.1c0.1-0.1,0.7-0.7,0.8-0.8c0.5-0.6,1.3,0.2,4.1,0.9
			c0.5,0.2,1.3,0.7,1.9,1.1c4.1,3.5,9.9,2.4,14.3,0.5c1.2-0.5,1.5-0.6,3.5-0.8c7.3-0.9,15.2-4.1,15.2-4l1,1.6c0,0,0.4-0.1,0.6,0.3
			c4.2,7.9,18,17,17.8,16.6l-9,5c6.6,8.1,21.6,21.8,21.6,21.8v19.7c-4,3.2-8,6.9-11.5,10.5c-1,1-1.7,1.6-1.4,1.6
			c0.9-0.1,1.7,0.8,2.5,1.4c0.5,0.5,0.4,0.5-0.2,1.2c-0.4,0.5-0.5,0.7-0.5,1c0,0.7,0,1.2-0.6,1.7c-0.4,0.5-0.6,0.8-0.7,1.4
			c-0.1,0.6-0.1,1-0.5,1.5c-0.7,0.1-0.7,1.1-0.6,1.6c0.7,0.7,0.4,1.5,0.5,1.3c-1.4,1.5-2.8,2.7-1.9,0.7c0.4-0.8,0.6-1.4,0.6-1.4
			s-0.7,0.7-1,1c-0.5,0.5-0.7,0.2-0.7-1.3c-0.1-1.1-0.5-2.7-0.7-3c-0.1-0.2-0.1,0.1-0.1,1.2c0.1,1.4,0.2,1.8-0.3,3.3
			c-0.7,1.9-1.2,2.2-0.1,2.1c1.1-0.1,1.9-0.1,2.4,0.6c0.2,0.2,0.4,0.6,0.8,0.8c0.9,0.5,1.6,1,2,1.5c1.6,1.7,1.1,3.2-1.9,2.2
			c-1.6-0.5-0.5-1.2,1.2-1.1c1,0.1,1.2-0.3,0.3-0.6c-1.7-0.3-2-0.5-3.1,0.8c-4.7-0.5-7.3-3.1-8.6-5.2c-0.5-0.9-0.7-1.1-0.3-1.6
			c0.1-0.2,0.1-0.1-0.2,0.1c-0.2,0.3-0.9,0.5-1.2,0.7C117,163.4,115.4,165.1,114,166.3L114,166.3z M134.3,155.4
			c0.8,0.1,0.8,0.8,0.1,1.4c-0.7,0.5-1.1,0.6-1.5,0.2C132.3,156.4,133.1,155.4,134.3,155.4z M136.6,155.9c0.6,0,1.5,0.3,2.4,1.1
			c1.2,1,1.4,3.3,0.4,3.7c-0.4,0.2-0.5,0-1.5-0.9c-0.6-0.6-1.3-1.2-2-1.5c-1.4-0.7-1.6-0.9-0.6-1.4c0.2-0.1,0.5-0.3,0.6-0.5
			C136.1,156,136.2,155.9,136.6,155.9z M135.1,159c0.2,0,0.4,0.1,0.8,0.3c2.3,1.3,3.5,3.3,2.7,4.4c-0.5,0.7-1.4,0.5-2-0.6
			c-0.4-0.6-1.3-1.4-2.4-1.9c-1.3-0.6-1.3-0.7-0.4-1.2c0.4-0.2,0.7-0.4,0.8-0.7C134.9,158.9,134.9,158.9,135.1,159L135.1,159z
			 M135.9,163.7c1.8,1.8,1.6,2.7,0.4,3.4c-0.8,0.5-2,0.6-2.5,0.2c-0.7-0.6-0.7-1.3,0.1-1.5c0.7-0.1,0.4-0.4-0.2-0.6
			c-2.3-0.7-3.7-1.9-1.2-1.6c0.7,0.1,1.4-0.5,1.8-0.9C134.8,162.1,135.6,163.4,135.9,163.7L135.9,163.7z M14.8,164.4l51.7,73.5H24.8
			c1.5-11.7-1.5-24.7-5.4-33.1c4.3-0.7,8.3-1.8,12.4-2.9l-0.8-1.1c-4.8,1.9-9.3,2.6-13.5,3.1c5.6,9.4,7.6,22.5,5.9,34h-8v-57
			L14.8,164.4z M24.1,175.3c0.7,0,2.6,1.3,2.8,2.2c0,0.2,0.5,1.4,1.1,2.5c0,0.2,1.8,3.4,1,3.2c-1.6-2.1-4.4-5.7-5.1-7.5
			C23.9,175.5,23.9,175.4,24.1,175.3z M29.7,178.6c0.1,0.5,0.6,1.9,1.1,2.8c1.1,2.4,2.8,6.2,2.5,7.2c-0.2,0.7,0,0.7-0.6-0.2
			c-0.3-0.4-1.3-1.8-1.5-2.1c-0.6-0.8-0.2-0.1-0.5-1.3c-0.8-3.5-2-5.3-2.8-7.4C27.5,176.7,29.3,178.2,29.7,178.6z M30.7,179.1
			c0.2,0.1,2.2,1.5,2.4,1.7c0.7,2.6,3.6,10.8,2.9,12.3c-0.3-0.2-1.4-1.5-1.5-2.2c-0.3-3.9-1.6-6.8-2.9-9.7
			C31.1,180.3,30.8,179.4,30.7,179.1z M34.5,182c0.6,0.3,1.3,1,1.7,1.7c0.3,0.4,0.4,1,0.6,2c0.7,3.4,2.2,6.8,1.5,10.4
			c-0.4,0.5-1.3-0.7-1.4-1.9c-0.4-4-0.8-5.9-2.2-10.6C34.6,182.7,34.4,182,34.5,182z M37.8,185.1c0.1,0,0.4,0.3,0.9,0.7
			c0.9,0.9,1.1,1.2,1.1,2.6c0,2.1,0.7,4.5,0.8,6.6c0.1,1.2,0.3,4.4,0.1,4.6c-0.3,0.4-1.5-1-1.4-3c0.2-2.5,0-4.3-1-8.6
			C37.8,186,37.6,185.1,37.8,185.1C37.8,185.1,37.8,185.1,37.8,185.1L37.8,185.1z M133.5,172.6c3.7,2.4,2.4,6.7,1.6,7.3
			c5.1,6.4-2.8,9.7-5.4,7.4c-3.7,3.7-10.1,0.6-7.7-5.5c0,0-4.7-8.9,4.6-8.3c0,0,0.2-3.6-0.1-3.8c-3.3-0.2-7.8,2.9-9.1,3.8
			c-0.7,0.4-0.9,0.2-0.9,0.2c-0.2-1.9-0.2-2.7,0.6-3.8c1.3-1.8,3.5-2.4,6.4-3.1c3.6,1.1,7,2.8,10.3,2.6c1.8,0,3.7,0.3,5.5,1.3
			c1.2,0.6,1.8,2.7,1.8,2.7C139.3,174.3,133.5,172.6,133.5,172.6z M131.7,159.4c0-0.6,0.7-1.4,1.5-1.3c1,0.1,1.1,1.2,0.2,1.7
			c-0.3,0.2-1.1-0.1-1.1,0.1c0.1,0.4-0.3,0.2-0.4,0.1C131.8,159.8,131.7,159.6,131.7,159.4z M131.1,161.9c0.4-0.3,0.7-0.3,1-0.3
			c0.6-0.1,1.3,0,1.4,0.6c0.2,0.6-0.9,0.9-1.8,0.9c-0.5,0-1,0.1-1.1-0.2C130.5,162.6,131,162,131.1,161.9L131.1,161.9z M19.1,121.2
			c0.7-2.5,0.3-3.9,1.5-6.9l2.9,1c0,0,0.1,3-0.5,4.7C22.4,121.6,20.5,122.9,19.1,121.2z M40.7,188.1c0.3,0,1.2,1.2,1.6,2.3
			c0.3,1,0.2,2.3,0.5,3.4c0.6,3.7,0.5,7.5,0.4,8.6c-0.1,0.6-0.4,0.3-0.9-0.2c-0.7-0.8-0.6-0.8-0.6-3c0-1.9-0.4-6.4-0.6-7.4
			c-0.4-1.7-0.5-3.4-0.4-3.6C40.6,188.1,40.6,188.1,40.7,188.1z M74.6,188.5c3.7,0.6,6.7,3.1,8.4,7.3c1.6,4.2,2.1,10,2.3,15.4
			c0,1.3-0.5,1-1.9,0.2c-1.5-0.7-1.8-0.5-4,0c-1.4,0.3-1.3-0.6,1-2.2c0.8-0.5,1.7-1.2,1.4-1.3c-0.1-0.1-0.8,0.1-1.3,0.5
			c-2.2,1.8-2.8,2.2-2.2,0.5c0.2-0.4,0.7-1.7,0.9-2.2c0.8-2.2-0.1-3.1-2.9-4.5c-0.7-0.3-1.1-0.9-0.5,0.3c0.6,1-0.6,1.8-2,0.6
			c-1-0.8-3-0.3-3.6,0.7c-0.6,1-0.3,2.8,0.9,3.4c1.1,0.5,1.5,0.1,0.4-0.6c-1.3-0.9-1.1-2.5,0.4-2.5c0.4,0,1,0.4,2.7,1.3
			c1.2,0.6,2,0.4,2-0.6c0-0.6,0.4-0.6,1.2-0.2c1.1,0.5,0.9,1,0.4,2.4c-0.4,1-0.6,2.2-0.9,3.2c-0.9,3.6-1,7.6,0,8.9
			c2.6,3.4,5.4,3,7.8,0.8l-0.1,3.7c-2.4,1.9-5.3,3.3-9.6,10.5c-1.5-1.9-8.1-9.7-18.6-11.5l-2.4-3.2c0-0.2-1.8-12-2.9-16
			c0,0,1.3-2,2.5-3.4C58.6,194.2,66.6,187.6,74.6,188.5L74.6,188.5z M60.9,191.9c-0.4,0.1-0.5-0.7-0.3-0.8c0.5,0,0.7,0,1.1,0
			C62.1,191.1,62.1,191.5,60.9,191.9z M43.1,191.3c0.5,0.4,1.2,1.4,1.8,2.3c0.3,0.5,0.2,1.3,0.2,2.2c0.1,1.2,0.2,3.1,0.3,4.3
			c0.2,2.3-0.1,4.3-0.4,5c-0.3,0.8-1.1,0.3-1.2-0.9c0-0.3,0.2-3.1,0.2-4.7C44,196.7,43.3,193.4,43.1,191.3z M59,191.2
			c0.2,0,0.3,0,0.4,0.2c0.6,0.7,0.8,1.2,0.3,1.6c-0.7,0.6-1.3,0.4-1.7-0.7C57.8,191.5,58.4,191.3,59,191.2z M56.9,191.9
			c0.6,0.4,1.2,1.5,1.3,2.3c0,0.2-0.2,0.4-0.6,0.7c-0.4,0.4-0.5,0.3-1-0.4c-0.7-1.1-1-1.8-0.9-2.2C56,191.9,56.5,191.8,56.9,191.9z
			 M81.8,192c1,0.1,2,0.5,3,0.8l-1.5,1.5C82.8,193.5,82.3,192.8,81.8,192z M54.7,192.8c0.6,0.7,1.5,2.6,1.5,3.3
			c-0.1,0.2-0.4,0.5-0.6,0.6c-0.2,0.1-0.4-0.3-1-1.4c-1.1-1.9-1.4-2.5-0.8-2.7C54,192.6,54.5,192.6,54.7,192.8z M52.5,193.2
			c0.6,0.5,2.1,3.4,2.1,4.2c0,0.2-0.1,0.4-0.2,0.6c-0.9,1-0.7,0.8-2.1-2c-1.2-2.3-1.5-2.5-0.7-2.8C51.8,193.2,52.2,193.1,52.5,193.2
			L52.5,193.2z M50.3,194c0.4,0,0.5,0.7,1.3,2.2c1.3,2.9,1.8,3.3,1.5,3.6c-0.4,0.5-0.6,0.8-0.9,0.2c-0.8-1.3-1.6-2.9-2.3-4.3
			c-0.6-1.1-0.6-1.2-0.3-1.5C49.8,194,50.1,194,50.3,194L50.3,194z M73.6,194.8c-0.5,0.1-2.5,0.8-1.3,0.9c0.2,0,0.9-0.1,1.3-0.2
			c1.2-0.1,3.8,0.1,3.7-0.1C77.1,194.5,74.3,194.6,73.6,194.8z M48.5,195.1c0,0,0.3,0.6,0.6,1.2c1.9,3.6,2.9,4.9,2.6,5.4
			c-0.3,0.3-0.7,0.8-0.9,0.7c-0.4-0.2-0.9-1.3-2.3-4c-1.4-2.7-1.5-2.9-0.8-3.3C48,194.9,48.4,194.8,48.5,195.1L48.5,195.1z
			 M46.7,196.3c0.9,1.4,0.7,1.2,0.7,5.7c0,2.8-0.4,4.6-0.8,5.3c-0.2,0.4-0.7,0.1-0.9-0.6c-0.1-0.3,0.2-0.8,0.2-1.3
			c0.3-3.4,0.1-6.7,0.1-9.9C46.3,195.5,46.6,196.1,46.7,196.3z M68.8,197.4c0.4,0.6,0.3,1,0.3,1.8c0,1.1,0.1,1.2,0.8,0.6
			c0.7-0.5,0.7-0.5,1.9,0.3c0.7,0.5,1.6,0.5,2.2,0c0.4-0.4,0.5-0.2,1.1-0.1c0.6,0.3,0.8,0.4,2-0.2c0.9-0.4,0.9-0.4,1.4-0.2
			c0.9,0.8,1,0.5,0.9-0.5c0-0.4,0.1-1,0.2-1.5c0.4-1.8-0.3-1.8-1.2-0.7c-0.4,0.4-1.2,0.6-2,0.3c-1.1-0.5-2.8-0.3-4.1-0.1
			c-1.5,0.3-2.2-0.2-2.8-0.7c-0.3-0.3-1.1-0.6-1.2-0.3C68.1,196.4,68.3,196.8,68.8,197.4L68.8,197.4z M48.5,200
			c0.2,0,0.5,0.5,0.9,1.7c0.5,1.5-0.4,6.8-1,7.7c-0.3,0.5-0.5,0.7-1.1-0.1c-0.2-0.4-0.1-0.5,0.2-1.5c0.4-1.6,0.7-4.2,0.7-5.4
			C48.2,200.8,48.2,200,48.5,200L48.5,200z M50.4,205.1c0.1,0,0.3,0.3,0.5,0.9c0.3,0.8,0.2,2.4-0.2,3.7c-0.2,0.7-0.5,1.5-0.9,2.1
			c-0.1,0.4-0.8,0.2-1-0.6c-0.1-0.5,0.3-1.1,0.5-1.9c0.2-0.8,0.4-1.8,0.6-2.3C50,205.7,50.2,205.1,50.4,205.1z M65.3,207.5
			C65.3,207.5,65.3,207.5,65.3,207.5C65.3,207.5,65.3,207.5,65.3,207.5c-0.1,0,1.4,1.7,1.8,2.1c0.2,0.2,2,2.3,0.9,1.8
			c-2.8-1.2-6.1-0.6-8.1,1.4c-0.3,0.2-0.5,0-1.2-0.1c-1.6-0.1-2.1,0.5-1.2,1.3c0.1,0.1,0.5,0.2,0.6,0.4c0.1,0.2,0.1,0.5,0.2,0.6
			c3,4,8.7,4.8,12.2,2.2c0.4-0.3,0.7-0.4,1.1-0.3c0.8,0.2,0.9-0.4,0.2-1.4c-0.3-0.4-0.7-0.9-0.5-1c0.4-0.4,0.7-1-0.1-1.2
			c-0.5-0.2-1.1-0.8-1.4-1.6C69.3,210.5,65.8,207.6,65.3,207.5L65.3,207.5z M51.5,209.2c0.7,0,0.7,3.9,0,5.1
			c-0.4,0.4-1.2-0.4-1.1-1.2c0.1-0.6,0.8-3.6,1-3.7C51.4,209.3,51.4,209.3,51.5,209.2L51.5,209.2z M65,211.7c0.6,0,1.3,0.2,1.9,0.8
			c0.3,0.3,0.9,1.6,0.7,2.1c-0.1,0.3-0.8,0.2-0.8,0.1c-0.4-2.6-2.5-2.9-3.1-0.5c0,0-0.4,0.4-0.5-0.3C63.3,212.3,63.9,211.7,65,211.7
			L65,211.7z M81.8,211.9c0.7,0,1.3,0.3,1.6,1c0.2,0.5,0.3,0.9,0.2,1.1c-0.1,0.2-0.3,0.1-0.3,0.1c-1.1-2.9-2.5-1.6-3,0
			c0,0-0.5,0.2-0.6,0c-0.1-0.2,0-0.5,0.2-1C80.3,212.4,81.1,211.9,81.8,211.9L81.8,211.9z M67.6,212.1c0.4,0,1,0.3,1.5,0.8
			c0.5,0.5,0.5,0.8,0.1,1.1c-0.2,0.2-1.1,0.4-1.2,0.1l-0.7-1.7C67.3,212.2,67.5,212.1,67.6,212.1L67.6,212.1z M62.5,212.2
			c0.4,0,0.5,0.1-0.2,1.6c-0.1,0.3-1.8-0.1-1.5-0.8C61.3,212.5,62.1,212.2,62.5,212.2z M79.5,212.3c0.2,0,0.3,0,0.4,0.1
			c-0.2,0.1-0.8,1.7-0.8,1.7c-0.6-0.1-1.3,0-1.5-0.5c-0.1-0.5,0.1-0.7,1-1.1C78.8,212.4,79.2,212.3,79.5,212.3z M84.5,212.7
			c0.6,0.2,0.8,0.8,0.7,1.1c-0.1,0.2-0.4,0.2-0.6,0.1c-0.2-0.2-0.5-0.6-0.5-0.9C84.2,212.6,84.2,212.6,84.5,212.7z M52.5,214.2
			c0.2,0.4,0.6,2.5,0.1,2.4c-0.4-0.1-0.6-0.7-0.7-1.3C51.9,215.2,52.3,214.2,52.5,214.2z M59.5,215.3c0.2,0,0.7,0.1,1.4,0.5
			c2.3,1.1,4.7,1.3,7.2,0.7c1.4-0.4,1.8-0.6,2-0.3c0.3,0.4-0.2,0.8-2.2,1.5c-2.2,0.7-4.6,0.6-7.6-1.5
			C59.4,215.6,59.3,215.3,59.5,215.3L59.5,215.3z M85.1,215.9c0.4,0.7-0.9,1.4-1.6,1.6c-1.4,0.4-3.5,0.2-4.7-0.5
			c-0.1-0.1-0.2-0.1-0.3-0.2c-1-0.7-0.6-1.2,0.5-0.7c1.2,0.6,3.5,0.7,4.8,0.1C84.4,215.9,84.9,215.5,85.1,215.9z M56.5,217.2
			c-0.1,0,0.1,0.4,0.5,0.8c3.1,3.5,10.7,5.4,14.9,1.8c1.3-1.2,1.1-1.8-1-0.8c-2.3,0.8-5.6,0.9-8.4,0.4c-1.4-0.2-3.7-0.7-4.8-1.6
			C57,217.4,56.6,217.2,56.5,217.2L56.5,217.2z M78.2,217.3c0.2,0,0.5,0.1,1.3,0.5c1.1,0.6,3.5,0.4,4.3,0.1c1.7-0.6,2,0.2,0.4,1
			c-1.8,1.1-4.2,0.6-5.6-0.7c-0.4-0.4-0.7-0.9-0.5-0.9C78.1,217.2,78.2,217.3,78.2,217.3z M57.3,223.5c6.2,0.6,15.6,7,19.2,14.4
			h-2.1c-3.7-5.8-9.3-10.8-16-12.5C58.2,225.2,57.2,223.8,57.3,223.5L57.3,223.5z M84.9,224.9l-0.3,2c-1,0.8-4.8,4-7.7,8.9
			c-0.6,0-0.9-0.7-0.8-1.2C78.4,230.2,81.1,227.7,84.9,224.9L84.9,224.9z M59.8,226.5c1.4-0.1,10.7,5.2,13.8,11.4h-1.7
			c-3.5-4.5-7.4-7.8-10.9-9C60.2,228,59.3,226.5,59.8,226.5z M84.6,227.9l0,2.7c-2.2,2.1-3.8,4.6-5.1,7.3h-1.7c0,0-0.4-1.1-0.2-1.6
			C79.4,232.8,81.3,230.3,84.6,227.9L84.6,227.9z M70.5,237.9h-1.7c-1.4-2-3.5-4.2-5.4-5.3c-0.8-1-1.7-2.2-1.3-2.4
			C62.2,229.5,69.5,234.8,70.5,237.9L70.5,237.9z M84.6,232l0,1.6c-1.1,1.4-2.1,3-3,4.3h-1.4C81.5,235.1,84.7,231.2,84.6,232
			L84.6,232z M65.5,235c0.5,0.1,2.4,2.3,2.3,2.8H67c-0.5-0.6-1-1.6-1.4-2.2C65.4,235.3,65.3,235,65.5,235L65.5,235z M84.3,235.5
			C84.3,235.5,84.3,235.5,84.3,235.5c0,0,0,2.4,0,2.4h-1.4C82.7,237.9,83.5,236,84.3,235.5L84.3,235.5z"/>
		<path id="path6313-8_1_" d="M92,29.1l53,74.8l0-16.6l-17-21.8c3.9-1.2,8.6-2,12.3-2.3c-4.8-10.5-7.2-20.4-5.1-34
			C120.4,28.9,105.5,28.9,92,29.1z M134.4,29.4c-0.4,4.8-1,10.1-0.1,16.1c-2.8-1-3.4,0.7-3.9,0.9c-0.5-1.2-2.4-3.1-4.6-0.8
			c-1.1,1.2-0.6,3.5,2,4.5c-3,0.2-4.6-2.3-5.1-5c-1.6-1-3.3-2.1-3.5-5.7l0.8,0.1c-0.3,2.5,2.4,3.8,3.9,2.6c1-0.8,1.1-1.9,0.7-3.8
			c0.8-0.2,2.7-0.9,2.2-3.4c-0.7-3.3-4.1-2.9-5.7-0.7c-1.3-1.6-3.7-1.9-4.6,0.6c-0.5,1.4,0.7,2.9,2.1,3.2c-3.1,0.6-4.6-3.6-4.8-6.5
			l-1.3-2.2C120.9,29.4,124.5,29.4,134.4,29.4z M92.9,29.5l6.2,0l44.9,57.8l0.1,14.4L92.9,29.5z M108.4,29.5l1,0
			c0.8,5.1,3.7,8.8,8.7,10.6c0.3,4.2,2.3,9.8,9.9,11.7c-0.2,4.7,2.8,9.2,6.1,11.3c0,0-0.9,0.2-1.6,0.3c-4.4-3.4-5.4-8.5-5.9-10.6
			c-0.1-0.3-0.6-0.4-0.9-0.4c-3.7-1.3-6.9-4.4-8.2-8.1l-0.8-3.7c0-0.5-0.1-0.2-1.2-0.7c-2.9-1.1-5.5-4.2-6.7-7.9
			C108.3,30.2,108.4,29.5,108.4,29.5L108.4,29.5z M104.5,29.5l3.4,0c0,0,0,0.6,0.1,1c0.5,3.6,3.8,8.2,7.1,9.7
			c0.5,0.2,1.1,0.5,1.3,0.7c0.9,6,3.7,9.6,9.4,12c0.1,0.1,0.4,0.2,0.4,0.3c0.8,3.7,2.5,8,5.8,10.3l-1.4,0.1L104.5,29.5z M121.3,35.8
			c0.8,0,1.4,0.6,1.4,1.4c0,0.8-0.6,1.4-1.4,1.4c-0.8,0-1.4-0.6-1.4-1.4C119.9,36.4,120.5,35.8,121.3,35.8z M73.7,43.5
			c0.1,0.2-19.3,16.5-17.4,47.2l-0.6,0.6l0.2,0.2c-0.6,0.7-1.3,1.3-2,2c4,2.5,11,5.3,11,5.3l-1.3,3.1l8.4,2.7l-1.1,2.9
			c0,0-5.8-1.9-8.2-2.7c-1.2,2.6-1.9,5.4-2.8,8.1c-0.1,0.2-0.3,0.1-0.6-0.3c-4.3-7.4-13.3-12.7-13-12.2l-31.6,29.9l-0.2,18.5
			l21.9,22.5c0,0-6.3,3.1-9.3,5.1c2.3,1.9,5,3.4,7.3,5.1c4.8,3.4,8,8.3,11.1,11.7c14.7-7.2,29.4-6.8,42.2-2.4
			c-1.5,1.6-3.1,2.9-4.7,4.6c3.7,9.7,2.5,28.9,2.3,29.4c7.7-7.8,19.2-24.7,17.7-48.4l3.2-3.2c-0.1-0.2-8.1-4.5-11.5-5.4l0.9-2.9
			l-8-2.5l0.9-2.3l8,2.3c1.5-3.7,3.1-8.9,3.1-8.9c3.2,4.8,6.7,9.1,14,13.5l31.5-30l-0.2-19.3l-21.4-21.3l8.9-4.6
			c-0.9-0.7-2.1-1.3-3-2c-0.1,0,0.2-0.2,0.1-0.2c-0.2-0.2-0.4-0.3-0.6-0.5c-0.1,0-0.2,0.2-0.3,0.2c-3-2.1-6.1-4.2-8.4-6.7
			c-0.1-0.1,0-0.3,0-0.4c-1.2-1.3-2.5-2.5-3.7-3.8c-0.6-0.6-1.5-2-1.5-2l-0.1-0.5l-1.4-1.7c-4.4,2.6-22.9,9-40.9,1.9l3.4-3.4
			c-0.9-2.2-1.5-4.6-1.7-6.6C73.4,57.9,73.7,43.5,73.7,43.5L73.7,43.5z M130.4,48c0.8,0,1.5,0.7,1.5,1.5s-0.7,1.5-1.5,1.5
			c-0.8,0-1.5-0.7-1.5-1.5S129.6,48,130.4,48z M135.1,49.8c0.8,3.7,2.4,9,4.1,12.6l-2,0.2c-1.6-1-3.3-2.6-3.5-4.7
			c-4.4,0-5.6-6.8-4-6c-0.2,2.3,1.5,3.2,3.1,3c1.4-0.2,2.6-2.1,1-4.3C134.4,50.4,134.8,50.2,135.1,49.8z M73.3,60.7
			c0.3,4.7,1.2,8.2,2.1,11.7l-8.6,8.1C67.4,73.1,69.6,66.5,73.3,60.7z M114.6,76.2l1.1,1.6C103.2,85,82,85.5,69.1,79.4l1.7-1.6
			C82.2,82.9,100.7,83.3,114.6,76.2L114.6,76.2z M33.8,78.6c-1.3,0-2.7,0.5-4.2,1.6c-5.7-2.6-9.4,3.5-5.9,7.5
			c-0.5,2.9-0.9,3.4,1.3,6.3c-2.3,0.3-5.2-0.3-7.7-0.7c0.4,4.3,6.6,5.3,9.1,4.8c2.8-0.6,5.4,0.8,5.5,0.8c1.6,0.5,2.6,1.2,4.2,1.6
			c2.6,0.6,6.5-2.5,7.1-5.4c0.1-0.4,0.2-0.7,0-0.8c-1.8,0.5-3.8,1.1-5.5,1.5c-1.7,0.4-3,0.8-4.3,1.9L33,94.2c8.9,0.4,5.1-8,4.5-8.4
			C39.2,82.5,37.2,78.7,33.8,78.6L33.8,78.6z M115.1,78.9l1.9,4.7l-5.2,1.7l-1.3-4.6L115.1,78.9z M33.4,79c3,0,5.8,3.2,2.8,6.8
			c5.7,5-1.6,10.3-5,6.6c-4.6,4.2-9.5-0.2-6.9-4.8c-4.9-4.4,1.1-10.2,5.3-6.5C30.6,79.7,32,79,33.4,79z M68.7,80.7
			c0.7,0,1.3,0.6,1.3,1.3c0,0.7-0.6,1.3-1.3,1.3c-0.7,0-1.3-0.6-1.3-1.3C67.4,81.3,68,80.7,68.7,80.7z M35,80.8
			c-0.1,0-0.2,0-0.3,0.1c-0.1,0-0.5,0.6-1.3,1.5c-1.4,1.6-1.5,1.6-1.5,1.6c-1.5-0.5-2.5-0.2-3.5,0.4c0,0-1.1-0.2-2.7-1.5
			c-0.7-0.6-1.1-0.7-1.2-0.4c-0.1,0.3,0.2,0.7,1.5,1.6c1.9,1.3,1.7,1.2,1.7,1.2c-0.1,1.1,0.1,2,0.5,2.9c0,0-0.3,0.8-1.7,2.5
			c-0.4,0.5-0.7,1-0.7,1.2c0,0.7,0.6,0.2,1.9-1.5c0.5-0.7,1.3-1.6,1.3-1.6c1.6,0.5,2.1,0.2,3.1-0.1c0,0,0.3,0.3,1.2,0.9
			c1.6,1.3,1.9,1.4,2.1,1.2c0.3-0.2,0.2-0.3-0.4-0.7c-1.8-1.3-2.4-2-2.4-2c0.4-1.4,0-2.6-0.4-3.3c0,0,0-0.2,1-1.3
			c0.7-0.8,1.8-2.1,1.7-2.3C35.3,81,35.2,80.8,35,80.8z M71.7,81.1l4.7,1.4l-1,4.8l-5-1.6L71.7,81.1z M105.3,82.3l1.3,4.7l-4.8,1.3
			l-0.8-5L105.3,82.3z M108.7,82.4c0.7,0,1.3,0.6,1.3,1.3c0,0.7-0.6,1.3-1.3,1.3c-0.7,0-1.3-0.6-1.3-1.3
			C107.4,83,108,82.4,108.7,82.4z M119.8,82.5l4.1,3.6l-4.5,2.3l-2.2-4.7L119.8,82.5z M81.4,83.6l4.7,0.6l-0.2,5.1l-5.4-0.7
			L81.4,83.6z M65,83.6l5.3,2.3l-1.9,5.3l-5.4-2.3L65,83.6z M78.5,84.1c1.9,0.3,1.4,2.6,0,2.6c-0.7,0-1.3-0.6-1.3-1.3
			C77.2,84.6,77.8,84.1,78.5,84.1z M95.5,84.1l0.6,5.1l-4.9,0.3l-0.1-5.1L95.5,84.1z M98.9,84.6c0.7,0,1.3,0.6,1.3,1.3
			c0,0.7-0.6,1.3-1.3,1.3c-0.7,0-1.3-0.6-1.3-1.3C97.6,85.2,98.2,84.6,98.9,84.6z M30.6,85.1c0.8,0,1.4,0.6,1.4,1.4
			c0,0.7-0.6,1.4-1.4,1.4c-0.8,0-1.4-0.6-1.4-1.4C29.2,85.7,29.8,85.1,30.6,85.1z M88.7,85.1c0.7,0,1.3,0.6,1.3,1.3
			c0,0.7-0.6,1.3-1.3,1.3c-0.7,0-1.3-0.6-1.3-1.3C87.4,85.7,88,85.1,88.7,85.1z M111.8,85.4l1.9,5.2l-5.4,1.7l-1.5-5.3L111.8,85.4z
			 M115.6,85.5c0.7,0,1.3,0.6,1.3,1.3c0,0.7-0.6,1.3-1.3,1.3c-0.7,0-1.3-0.6-1.3-1.3C114.3,86.1,114.9,85.5,115.6,85.5z M124.9,87
			l3.5,2.4l-1.7,1C126.2,89.3,125.4,88.1,124.9,87z M75.3,87.5l5.1,1.1l-0.8,5.3l-5.6-1.1L75.3,87.5z M60.1,87.8l2.7,1.3L61,93.5
			l-4.4-2.3L60.1,87.8z M72.2,88.1c0.7,0,1.3,0.6,1.3,1.3c0,0.7-0.6,1.3-1.3,1.3c-0.7,0-1.3-0.6-1.3-1.3
			C70.9,88.6,71.5,88.1,72.2,88.1z M101.8,88.4l0.9,5.3l-5.8,0.8l-0.4-5.4L101.8,88.4z M123.4,88.5c0.7,0,1.3,0.6,1.3,1.3
			c0,0.7-0.6,1.3-1.3,1.3c-0.7,0-1.3-0.6-1.3-1.3C122.1,89,122.7,88.5,123.4,88.5z M119.3,88.5l1.9,4.7l-5.6,2.4l-1.7-4.7
			L119.3,88.5z M104.9,88.8c0.7,0,1.3,0.6,1.3,1.3c0,0.7-0.6,1.3-1.3,1.3c-0.7,0-1.3-0.6-1.3-1.3C103.6,89.4,104.2,88.8,104.9,88.8z
			 M85.9,89.4l5.4,0.1l-0.1,5.4l-5.9-0.2L85.9,89.4z M129.1,89.7l2.1,1.5c-21.9,14-52.6,15.7-76.6,2c0,0,1-1,1.5-1.5
			C77.8,104.5,109.3,102.7,129.1,89.7z M82.9,90.3c0.7,0,1.3,0.6,1.3,1.3c0,0.7-0.6,1.3-1.3,1.3c-0.7,0-1.3-0.6-1.3-1.3
			C81.6,90.9,82.2,90.3,82.9,90.3z M94,90.6c0.7,0,1.3,0.6,1.3,1.3c0,0.7-0.6,1.3-1.3,1.3c-0.7,0-1.3-0.6-1.3-1.3
			C92.7,91.2,93.3,90.6,94,90.6z M68.3,91.4l5.6,1.6l-1,4.4l-6.2-1.8L68.3,91.4z M64.5,91.4c0.7,0,1.3,0.6,1.3,1.3
			c0,0.7-0.6,1.3-1.3,1.3c-0.7,0-1.3-0.6-1.3-1.3C63.2,92,63.8,91.4,64.5,91.4z M108.4,92.3l1.3,5l-6.2,1.3l-0.8-4.9L108.4,92.3z
			 M112,93.1c0.7,0,1.3,0.6,1.3,1.3c0,0.7-0.6,1.3-1.3,1.3c-0.7,0-1.3-0.6-1.3-1.3C110.6,93.7,111.2,93.1,112,93.1z M30.5,93.8
			l0,3.5c-1-0.8-2.2-1.8-3.4-2.7C28.3,94.7,29.4,94.4,30.5,93.8L30.5,93.8z M17.6,93.9c0.3,0,1,0.2,1.7,0.2c2.5,0,7.3,0.8,8.7,1.9
			c0.5,0.4,1.2,0.7,1.5,1.3c0,0.3-0.4,0.3-1-0.1c-1.2-0.7-3.1-1.4-5.8-1.7c-0.5-0.1-0.5,0-0.5,0.2c0,0.3,0.4,0.4,1.8,0.7
			c1.8,0.3,2.2,0.5,2.6,0.6c1.1,0.3,0.4,0.7-0.7,0.8c-4.5,0.4-7.8-1.5-8.5-3.7C17.4,94,17.5,93.9,17.6,93.9z M79.7,94l5.6,0.7
			L85,99.4l-6.1-0.7L79.7,94z M32,94.4c1,0.8,0.3,3.1-0.2,3.8c-0.3,0.4-1.2,0.2-1.1-0.4c0.1-0.5-0.1-2.8,0.1-3.5
			C31.1,94.1,31.6,94.2,32,94.4L32,94.4z M96.9,94.6l0.3,4.8l-6.1,0.3l0-4.7L96.9,94.6z M76.3,94.9c0.7,0,1.3,0.6,1.3,1.3
			c0,0.7-0.6,1.3-1.3,1.3c-0.7,0-1.3-0.6-1.3-1.3C75,95.5,75.6,94.9,76.3,94.9z M42.2,95c0.2,3.5-5.2,5.9-7.3,4.8
			c-0.9-0.5-0.5-0.8,1.3-1.1c2.3-0.6,3.8-1.2,3.8-1.6c0-0.3-0.3-0.2-1.3,0.1c-1.5,0.5-3,0.7-4.4,1.3c-1,0.5-1.4,0.6-1.7,0.4
			c-0.5-0.6,1.8-2.1,4.2-2.5C38.8,96.1,40.6,95.1,42.2,95z M100.3,95.4c0.7,0,1.3,0.6,1.3,1.3c0,0.7-0.6,1.3-1.3,1.3
			c-0.7,0-1.3-0.6-1.3-1.3C99,96,99.6,95.4,100.3,95.4z M88.1,96.4c0.7,0,1.3,0.6,1.3,1.3c0,0.7-0.6,1.3-1.3,1.3
			c-0.7,0-1.3-0.6-1.3-1.3C86.7,97,87.3,96.4,88.1,96.4z M117.4,98.6c8.8,8.4,18.5,18,26.5,25.9c0,4.1,0,12.4,0,12.4l-30.4,28.8
			c-5.5-3.4-10.2-7.5-14.5-15c0.5-0.4,0.9-0.7,1.3-1.1l-1.6,0.9c-5.6-8.9-8-26.8,1.5-41l-9.6,0.4l1.6-3.3l10.5-0.6l4.2-4.5
			c0,0,1.3-0.2,2.5-0.5c1.1-0.3,3.4-0.9,5-1.4C115.9,99.1,117.4,98.6,117.4,98.6L117.4,98.6z M46.2,101c0,0,9.1,4.9,14.1,14.7
			c-16.3,13.9-22.4,30.1-23.8,47c-8.9-8.2-13.3-12.8-21.3-20.8l0.3-11.9L46.2,101z M80.4,102.5c-2.3,5-4.4,10.5-6.2,16.3l-2.5-0.7
			c0,0,1.6-0.7,2.4-1.1l-1.3-2.1l2.5-1l-1.5-1.8l2.5-1.5l-1.3-1.6l2.3-1.1l-1.4-1.6l2.4-1.3l-1.3-1.6L80.4,102.5z M81.2,102.5
			c0,0,0.3,0.1,0.7,0.1c0.1,0-0.5,1.3-0.4,1.4c0.9,0.2,0.9,0.1,1.2,0.2l0.7-1.4l1.1,0.2c-2.2,5-4.6,10.5-6,16.4l-1.3-0.3
			c0,0,0.4-1.2,0.4-1.4c-0.2,0-0.9-0.3-1.1-0.4c-0.1,0.2-0.5,1.6-0.5,1.6l-1,0C76.6,112.5,79.6,105.3,81.2,102.5L81.2,102.5z
			 M85.4,102.7l2.3,1.9l-2.6,1l1.4,1.8l-2.8,1l1.6,1.9l-2.7,1l1.6,2.3l-2.9,1l1.8,2l-2.6,1.2l1.5,1.5c0,0-1.6,0.5-1.7,0.6
			c-0.3,0.1-1.3-0.2-1.3-0.2C80.7,113.8,82.7,107.9,85.4,102.7L85.4,102.7z M29.4,103.7c-0.6,0.4-0.3,1.3-1.1,2.1
			c-0.1,0.1-0.1,0.5-0.2,0.7c0,0.2-0.7,2.7-0.7,2.7s0.2-0.2,0.4-1c0.2-0.7,0.4-2,0.5-2.2c0.6-0.2,0.7-2.1,1.3-1.8
			c0.3,0.2,0.3,0.5,0.1,1.2c-0.4,1.5-0.6,2.1,0.1,1.1c1.1-1.3,1.2-2.5,0-2.7C29.8,103.7,29.5,103.7,29.4,103.7L29.4,103.7z
			 M45.9,104.2l-28.4,26.6l-0.1,9.9l9.9,10l7,6.8c2.6-15.2,8.4-29.7,22.8-42.2C54.9,111.8,51.1,107.3,45.9,104.2L45.9,104.2z
			 M122.6,104.5c-16.7,7.8-20.6,23.9-15.4,38.4C115.2,132.7,121.4,123.1,122.6,104.5z M63.1,105.3l7.6,2.4l-2.9,9.7l-6.8-2.1
			l-0.7-1.7L63.1,105.3z M121.7,105.6c-0.7,13-5.6,25.7-14.2,35.6C103.2,130.5,105.8,113.5,121.7,105.6z M80.8,105.6l-0.5,1.2
			l1.1,0.3l0.4-1.2L80.8,105.6z M79.8,108.5l-0.4,1.2l1.1,0.4l0.4-1.2L79.8,108.5z M124.6,108.7c-2.3,18-12.1,34.4-22.4,42.7
			c3.3,5.3,7.2,8.7,11.1,11.6l29.1-27.7l-0.1-9.2L124.6,108.7z M47.8,113.5c-0.2,0.7-0.2,1-0.2,1s0.3-0.3,1.2-0.8
			c5.7-2.8,3.9,1.5,1.2,3.1c-0.6,0.3-1.2,0.7-1.2,0.7s0.6,0.1,1.2,0.2c3.5,0.7,2.7,2.7-0.9,2.4c-0.5,0-1.2-0.1-1.2-0.1
			c0,0,0.2,0.8,0.5,1.4c1.2,3.1-1.1,3.3-2.6,1.4c-0.2-0.3-0.7-1-0.7-1s-0.1,0.6-0.2,1.1c-1.3,4.8-4.5,4.7-3.3-0.2
			c0.1-0.5,0.3-1.4,0.3-1.4s-0.7,0.4-1.5,0.8c-4.1,1.8-4.8-0.1-1-2.8c1.1-0.8,1.4-1.1,1.4-1.1c-0.7-0.1-1.3-0.2-1.8-0.3
			c-3-0.7-3.8-2.5,1-2.4c0.7,0,1.4,0.1,1.4,0.1s-0.2-1-0.5-1.8c-1.2-3.6,1.2-4,3.1-0.8c0.4,0.7,0.5,0.7,0.5,0.7
			c-0.1,0,0.1-1.2,0.6-2.3C47.5,106.8,48.5,110.8,47.8,113.5L47.8,113.5z M99.2,109.9c-2,3.5-3.7,7-4.6,10.6l-7.8-0.1
			c0.5-3.2,1.9-6.6,3.5-10.1C93.5,110.2,96.4,110.1,99.2,109.9z M78.7,111.5l-0.4,1.3l1.1,0.3l0.4-1.3L78.7,111.5z M20.6,113.9
			c-0.8,2.2-1.1,4.5-1.6,6.5c-0.2,1.1,0,1.6,0.7,1.8c1,0.4,2.3-0.1,3.1-1.2c0.4-0.6,0.7-1.9,0.8-4.2l0.1-2
			C22.5,114.6,21.7,114.3,20.6,113.9L20.6,113.9z M77.6,114.2l-0.4,1.2l1.1,0.4l0.4-1.2L77.6,114.2z M127.9,114.6
			c1.3,0,1.6,0.1,2.8,0.9l2.3,2.4c-0.6,0.6-1,1.4-1,2.3c0,1.8,1.4,3.2,3.2,3.2c0.9,0,2.2-0.9,2.2-0.9l3.7,3.8
			c-2.1,0.9-4.2-1.2-5-2.1c-0.2-0.2-0.2-0.3-0.2-0.3s0,0.1,0,0.5c-0.3,1.7-2,6.6-3.6,6.4c-1.8-0.3,0-7.4,0.1-7.2
			c-1.2,1.3-7.2,2.7-6.8,1.2c0.8-2.9,5.3-4,5.9-4.5C129,118.8,126,114.8,127.9,114.6L127.9,114.6z M20.9,114.7
			c0.8,0.1,1.3,0.1,1.8,0.4c0.2,0.1,0.3,0.3,0.3,0.5c0,0.9,0.2,3.3-0.6,3.4c-0.9,0-1.7,0.2-2.3,0.6c-0.5,0.4-0.6,0.1-0.5-0.8
			c0.1-0.9,0.6-2.7,0.7-3.5C20.4,114.9,20.6,114.7,20.9,114.7z M44.6,114.8c-1.8,0-3.2,1.4-3.2,3.2c0,1.7,1.4,3.2,3.2,3.2
			s3.2-1.4,3.2-3.2C47.8,116.2,46.4,114.8,44.6,114.8z M44.6,115.9c1.1,0,2.1,0.9,2.1,2.1c0,1.1-0.9,2.1-2.1,2.1s-2.1-0.9-2.1-2.1
			C42.5,116.8,43.5,115.9,44.6,115.9L44.6,115.9z M61,115.9c7.3,12.5,6.5,29.8-2.2,42.3l9.3-0.6l-1.2,2.4l-9.9,1
			c-1.5,1.4-2.9,2.9-4.4,4.4l0,0.5c-3.4,0.8-6.8,1.7-10.2,2.9c-1.8-1.8-5.2-5.3-5.2-5.4l0.2-1.2c23.5-11.9,16.6-35.8,14.9-37.8
			C54.9,121.4,57.9,118.5,61,115.9L61,115.9z M126.1,118.2c0.9,0,1.7,0.8,1.7,1.7s-0.8,1.7-1.7,1.7c-1,0-1.7-0.8-1.7-1.7
			S125.2,118.2,126.1,118.2z M133.8,118.6l2.9,3c-0.4,0.4-0.9,0.6-1.5,0.6c-1.1,0-2.1-0.9-2.1-2.1
			C133.1,119.6,133.4,119,133.8,118.6z M34.8,119c1,0,1.7,0.8,1.7,1.7c0,0.9-0.8,1.7-1.7,1.7c-0.9,0-1.7-0.8-1.7-1.7
			C33.1,119.8,33.8,119,34.8,119z M22,119.7c0.8,0.3,0.6,1-0.4,1.7c-0.7,0.4-1.3,0.5-1.9,0.2C18.5,121,20.9,119.3,22,119.7z
			 M35.3,123.9l-10.4,10c0.7-1.7,0.7-3.3,0.7-5c3.1,0.3,4.4-1.3,4-4.5C31.6,124.6,33.7,124.3,35.3,123.9L35.3,123.9z M51.9,125.1
			c4.8,13.6,0.6,28.1-14.4,36.4C38.1,148.4,43.6,135.9,51.9,125.1z M65.6,126.3c8.2,2.1,17.6,3.2,27.4,3.2c0.1,3.7,0.3,7.6,1,11.4
			c-8.3-2.2-17.6-3.2-27.7-3C66.7,133.9,66,129.5,65.6,126.3z M126.7,128.3l-8.8,10.2l0.4-5.6c3,0.4,4-1.2,3.6-4.2
			C123.5,128.9,125.1,128.6,126.7,128.3z M41.4,128.8l-0.7,4.1c-1.8,0-3.5,0.7-3.5,4.6l-5.2-0.1L41.4,128.8z M138,129.6
			c0.9,0,1.7,0.8,1.7,1.7c0,0.9-0.8,1.7-1.7,1.7c-1,0-1.7-0.8-1.7-1.7C136.3,130.4,137.1,129.6,138,129.6z M33.4,130.1
			c1,0,1.7,0.8,1.7,1.7c0,0.9-0.8,1.7-1.7,1.7c-0.9,0-1.7-0.8-1.7-1.7C31.7,130.9,32.5,130.1,33.4,130.1z M134.2,131.9l-0.9,6.2
			c-2.4-0.2-4.4,0.2-3.8,4.3c-2-0.2-4.8,0.3-6.7,0.4L134.2,131.9z M125.6,133c1,0,1.7,0.8,1.7,1.7c0,0.9-0.8,1.7-1.7,1.7
			c-1,0-1.7-0.8-1.7-1.7C123.9,133.8,124.7,133,125.6,133z M20.8,134.3c1,0,1.7,0.8,1.7,1.7c0,0.9-0.8,1.7-1.7,1.7
			c-0.9,0-1.7-0.8-1.7-1.7C19.1,135.1,19.9,134.3,20.8,134.3z M26.5,136.3c2.2,0.5,1.2,5.6,0.7,7c0,0,6.1-3.2,6.5-1.8
			c0.2,2.9-5.1,4.9-5.1,4.9s3.6,3.1,3.7,5.1c0,1.3-1.5,1-3.5-0.6c-0.8-0.8-1.5-1.4-2.1-2c0.7-0.6,1.1-1.4,1.1-2.4
			c0-1.8-1.4-3.2-3.2-3.2c-1,0-1.8,0.4-2.4,1.1c-0.5-0.4-1-0.9-1.7-1.6c-1.1-1.1-1.9-1.9-1.8-2.3c1.5-1.1,4.5,1.8,4.7,2
			C23.3,142.1,24.9,136.6,26.5,136.3z M23.5,142.6C23.5,142.6,23.5,142.7,23.5,142.6C23.6,142.7,23.5,142.6,23.5,142.6z
			 M117.2,140.3c1,0,1,2.4,0.6,3.6c-0.3,0.9-0.5,1.7-0.5,1.7s0.9-0.7,1.3-0.9c2.8-1.3,3.9,0.2,2.5,1.9c-0.7,0.9-1.6,1.1-2.4,1.8
			c1.1,0,2.3,0.3,3.3,0.8c0.7,0.4,1.3,1,1.3,1.3c0,0.7-1.8,1.1-3.5,0.9c-0.7,0-2.1-0.4-2.1-0.4s0.6,0.9,0.8,1.5
			c0.6,1.7,0.4,3.8-0.5,3.8c-1.5-0.4-2.3-2.1-2.9-3.3c-0.5,1.4-1,2.8-2.1,3.8c-1.1,1-1.6,0.2-1.6-1.5c0-0.7,0.5-2.7,0.5-2.7
			c-6.4,2.2-5.9-0.8-0.9-3.3c-3.1-1.5-5-2.8,0.3-3.1c-0.1-0.1-1.1-2.9-0.1-3.6c0.9-0.6,2.8,1.5,2.9,1.6c0-0.2,0.5-1.8,1.4-3
			C116.3,140.6,116.8,140.3,117.2,140.3L117.2,140.3z M111.3,146.4C111.3,146.4,111.3,146.4,111.3,146.4
			C111.3,146.4,111.3,146.4,111.3,146.4z M139.3,144.6c-1.1,0.1-1.8,1.1-2.3,1.9c-0.1,0.2-0.3,0.2-0.4,0.5c-0.5,1.5-0.9,3.3-1.1,5.5
			c0.7,0.3,2.3,0.8,3,0.5c0.2-0.1,0.1-0.6,0.2-0.8c1.1-2.8,1.7-4.9,1.7-6.2C140.4,145,140,144.5,139.3,144.6z M24.7,144.4
			c1.1,0,2.1,0.9,2.1,2.1c0,0.7-0.3,1.2-0.8,1.6c-1.3-1.3-2-2-2.9-2.9C23.4,144.7,24,144.4,24.7,144.4z M139.7,145.4
			c0.3,0.7-0.6,1.4-1.8,1.4c-0.7,0-0.9,0.1-0.6-0.5C137.7,145.6,139.2,144.1,139.7,145.4L139.7,145.4z M124.1,144.9
			c1,0,1.7,0.8,1.7,1.7c0,0.9-0.8,1.7-1.7,1.7c-0.9,0-1.7-0.8-1.7-1.7C122.4,145.7,123.1,144.9,124.1,144.9z M33.3,145.1
			c0.9,0,1.7,0.8,1.7,1.7c0,0.9-0.8,1.7-1.7,1.7s-1.7-0.8-1.7-1.7C31.6,145.8,32.4,145.1,33.3,145.1z M114.7,145.8
			c-1.8,0-3.2,1.4-3.2,3.2c0,1.8,1.4,3.2,3.2,3.2s3.2-1.4,3.2-3.2C117.9,147.2,116.5,145.8,114.7,145.8z M72.2,146.2
			c-0.8,3.7-2.1,7.1-3.8,10.6c-3.1,0.2-6.4,0.3-8.6,0.6c3.6-6.4,3.7-7.8,5.1-11.2L72.2,146.2z M77.5,146.7c0.9,0.1,1.8,0.2,2.7,0.4
			c-1.6,5.5-3.6,11.1-6.3,16.6l-1.6-0.2l-0.8-0.9l2.6-1l-2-2l3.3-1l-2-2l3.3-0.8l-1.8-2.1l2.9-1.1l-1.9-2.4L79,149L77.5,146.7z
			 M114.7,146.9c1.1,0,2.1,0.9,2.1,2.1c0,1.1-0.9,2.1-2.1,2.1c-1.1,0-2.1-0.9-2.1-2.1C112.7,147.8,113.6,146.9,114.7,146.9z
			 M80.7,147.2l1.1,0.2l-0.3,1.2l1.2,0.3l0.4-1.3c0,0,1,0.1,1.1,0.2c-1.3,5.3-5.9,16.4-6,16.3l-1.2-0.2l0.3-1.1l-1.1-0.2v0l-0.5,1.2
			l-1.2-0.1C77.4,157.2,79.3,152.2,80.7,147.2L80.7,147.2z M138.8,147.6c0.9,0,0.8,0.4,0.2,2.1c-0.6,1.5-0.8,2.2-1.1,2.4
			c-0.7,0.5-2.2,0.1-2.1-0.6c0.4-2.3,0.5-3.3,1.1-3.6C137.6,147.7,138.2,147.6,138.8,147.6z M85.1,147.8l2.9,0.6l-2.4,1.4l1.5,1.8
			l-2.9,1.2l1.8,1.8l-2.8,1.2l1.7,2l-2.9,1.2l2,1.7l-3.3,1l1.3,1.9l-1.2,0.7l-1.5-0.2C81.6,158.2,83.2,153.4,85.1,147.8L85.1,147.8z
			 M92.1,149.2l5.6,1.5l1.1,2l-2.6,8.8l-7.5-2.2L92.1,149.2z M81,150l-0.5,1.4l1.2,0.3l0.5-1.5L81,150z M79.9,153.4l-0.5,1.4
			l1.2,0.2l0.5-1.5L79.9,153.4z M78.8,156.3l-0.5,1.4l1.1,0.2l0.5-1.4L78.8,156.3z M131.4,158.9c0,0-0.6,0.4-0.7,0.6
			c0.1,0.3,0.5,0.8,0.4,1.2c0,0.3-0.3,0.5-0.8,0.9c-1.1,1.2-1.4,1.1-0.8-0.2c0.2-0.4,0.3-0.8,0.3-0.8c-0.2,0.3-0.4,0.7-0.6,1.1
			c-0.3,0.7-0.7,1.3-0.7,1.3c0.7,0.2,1.1,0.7,1.5,1c0,0,0.2-0.6,0.4-1.2c0.2-0.8,0.6-1.1,1.1-1.4c0.3-0.2,0.6-0.5,0.6-0.5
			C131.7,160.4,131.6,159.6,131.4,158.9z M77.7,159.3l-0.6,1.5l1.1,0.3l0.6-1.6L77.7,159.3z M14.4,163.2c-0.1,6.1,0.1,10.1-0.1,16.7
			l16.6,21.4l-2.6,0.9c0,0,0,0.3-0.2,0.3c-3.6,1-9.3,1.9-9.3,1.9c4.3,9.7,7.1,21.9,5.1,34.1l43-0.1L14.4,163.2z M105.3,173.5
			l-1.5,1.5c-21.9-11.8-52-11.7-74,2.5l-1.8-1.3C52.1,160.9,81.6,161,105.3,173.5z M15.2,165.3l50.6,72.4l-5.9,0.1l-44.6-58.1
			L15.2,165.3z M123.8,166.6c0,0-1.5,0.4-2.7,0.8c-3.5,1.1-5.2,3.1-4.8,6c0.1,0.8,0.3,0.8,1.7-0.1c3.4-2.1,3.6-2.2,7.7-3.4
			c0.3-0.1,0.8,0,0.8,0l-0.2,3.3c-7,0-6.6,5.5-4.6,8.3c-0.7,1.3-2.2,5.9,2.8,7.7c2.5,0.5,5.2-1.5,5.1-1.6c4.6,2.2,10-1.5,5.8-7.8
			c1.6-2.8,0.5-4.8-1-6.6c0,0,0.3,0,2.5,0.4c3.3,0.6,4.6,0.5,4.6,0.5c0-3-2.5-4.3-7.7-4.7C130.2,169.8,123.8,166.6,123.8,166.6z
			 M67.8,167c0.3,0,0.5,0,0.7,0l-0.2,5.1l-5.7,0.3l-0.4-5.1C64.2,167.1,66,167,67.8,167L67.8,167z M74.6,167.1l6.1,0.7l-0.9,4.8
			l-5.6-0.6L74.6,167.1z M123.7,167.1c0.5,0.1,0.3,0.6-0.3,0.8c-1.1,0.2-3.9,1.8-3.9,2.3c0,0.3,0.1,0.2,1.2-0.3
			c0.5-0.3,1.6-0.7,2.4-1c0.8-0.3,1.7-0.7,2-0.8c0.9-0.4,1.4-0.1,1.1,0.7c-0.2,0.5-0.3,0.6-2.5,1.3c-2,0.6-2.3,0.8-3.6,1.6
			c-0.5,0.3-1.3,0.8-1.8,1.1c-1.3,0.7-1.5,0.7-1.5-0.2c-0.1-2.6,2.9-4.6,6.9-5.2C123.6,167.1,123.7,167.1,123.7,167.1L123.7,167.1z
			 M71.3,167.8c0.8,0,1.4,0.6,1.4,1.4c0,0.8-0.6,1.4-1.4,1.4c-0.8,0-1.4-0.6-1.4-1.4C69.9,168.4,70.5,167.8,71.3,167.8z M56.3,168.1
			l0.5,4.6l-5.6,1.4l-1.3-4.8C52,168.9,54.1,168.5,56.3,168.1L56.3,168.1z M127.8,168.5c1.5,0.2,1.4,3.7,0.6,4.3
			c-1.2,0.9-1.9-0.9-1.4-3.3C127.2,168.7,127.5,168.5,127.8,168.5L127.8,168.5z M59.4,168.7c0.8,0,1.4,0.6,1.4,1.4
			c0,0.8-0.6,1.4-1.4,1.4c-0.8,0-1.4-0.6-1.4-1.4C58,169.3,58.7,168.7,59.4,168.7z M86.6,169.1l6.3,1.7l-1.5,4.8l-5.9-1.7
			L86.6,169.1z M83.1,169.2c0.8,0,1.4,0.6,1.4,1.4c0,0.8-0.6,1.4-1.4,1.4c-0.8,0-1.4-0.6-1.4-1.4C81.8,169.8,82.4,169.2,83.1,169.2z
			 M134.5,169.6c2.7,0,6.3,1.4,6.3,3.5c-0.1,0.6-5.7-0.2-8.3-1.2c-0.9-0.4-2-1.5-2-2c0-0.3,0.5-0.3,0.8,0c0.4,0.4,1.7,0.9,4.6,1.6
			c2.3,0.6,2.5,0.6,2.5,0.3c0-0.3-1.3-0.7-2.8-1c-0.7-0.1-1.4-0.3-2.5-0.4c-0.5,0-0.7-0.3-0.2-0.6
			C133.3,169.6,133.9,169.6,134.5,169.6z M129.8,170.6c0.7,0.3,0.9,1,1.3,1.3c-0.5,0.2-0.7,0.4-1.4,0.5
			C129.6,171.9,129.5,171.3,129.8,170.6z M47.5,171c0.8,0,1.4,0.6,1.4,1.4c0,0.8-0.6,1.4-1.4,1.4c-0.8,0-1.4-0.6-1.4-1.4
			C46.1,171.6,46.7,171,47.5,171z M43.8,171.4l1.5,4.7l-5.3,2.3l-1.9-4.7C39.9,172.8,41.9,172.1,43.8,171.4z M68.3,172.2
			c0,0,4.2,0,5.7,0l-0.3,5.3l-5.3,0L68.3,172.2z M62.7,172.5l0.3,5.3l-5.1,0.7l-1-5.4L62.7,172.5z M94.8,172.5
			c0.8,0,1.4,0.6,1.4,1.4c0,0.8-0.6,1.4-1.4,1.4c-0.8,0-1.4-0.6-1.4-1.4C93.5,173.1,94.1,172.5,94.8,172.5z M131.6,172.6
			c3.1,0,6,3.6,3,7.3c5,3.8-0.4,10.3-4.9,6.5c-6.3,6.2-9.9-2.2-7.3-4.5c-3.9-6.3,0.9-10.3,5.8-7.5
			C129.2,173.2,130.4,172.6,131.6,172.6z M79.8,172.8l5.6,1.2l-1.1,5.3l-5.4-1.1L79.8,172.8z M98.3,172.9l5.1,2.5l-4,3.8l-2.9-1.5
			L98.3,172.9z M65.6,173.5c0.8,0,1.4,0.6,1.4,1.4c0,0.8-0.6,1.4-1.4,1.4c-0.8,0-1.4-0.6-1.4-1.4C64.2,174.1,64.8,173.5,65.6,173.5z
			 M76.6,173.7c0.8,0,1.4,0.6,1.4,1.4c0,0.8-0.6,1.4-1.4,1.4C74.6,176.1,75.1,173.7,76.6,173.7z M51.2,174.5l1.2,5.3l-5.2,1.7
			l-1.8-5.1L51.2,174.5z M54.7,174.8c0.8,0,1.4,0.6,1.4,1.4c0,0.8-0.6,1.4-1.4,1.4s-1.4-0.6-1.4-1.4C53.4,175.4,54,174.8,54.7,174.8
			z M131.2,177.3c-0.4,0.5-0.9,1-0.9,1c-1.3-0.5-2.5-0.3-3.4,0.3c0,0-0.9-0.7-1.7-1.4c-1.4-1.1-1.9-1.4-1.9-0.9
			c0,0.1,0.5,0.6,1.1,1.1c1.6,1.3,1.9,1.8,1.9,1.8c-0.4,1.2-0.4,2.2,0.3,3.2c0,0,0,0.1-0.5,0.7c-1,1.1-2,2.7-1.8,2.9
			c0.3,0.3,1.1-0.4,2.2-1.8c0.8-1,1-1,1-1c1.3,0.3,2,0.7,3.3-0.4c0,0,0.5,0.1,1.5,0.9c1.5,1.2,2,1.5,2.2,1.1
			c0.1-0.3-0.1-0.6-1.3-1.5c-0.8-0.6-1.8-1.4-1.8-1.4c0.3-0.4,0.5-2-0.5-3.1c0,0,0,0.1,1.4-1.7c0.9-1.2,1.1-1.3,0.8-1.6
			C132.7,175,131.3,177.1,131.2,177.3L131.2,177.3z M91.4,175.8l5,2.1l-1.8,5.2l-4.9-2L91.4,175.8z M36,176.1c0.8,0,1.4,0.6,1.4,1.4
			c0,0.8-0.6,1.4-1.4,1.4c-0.8,0-1.4-0.6-1.4-1.4C34.6,176.7,35.2,176.1,36,176.1z M87.5,176.2c0.8,0,1.4,0.6,1.4,1.4
			c0,0.8-0.6,1.4-1.4,1.4c-0.8,0-1.4-0.6-1.4-1.4C86.1,176.9,86.7,176.2,87.5,176.2z M32.5,176.6l1.6,4.1l-3.7-2.8L32.5,176.6z
			 M73.8,177.7l5,0.6L78,183l-4.3-0.4L73.8,177.7z M68.3,177.7l-0.1,4.9l-4.8,0.2l-0.4-4.9L68.3,177.7z M43.8,178.6
			c0.8,0,1.4,0.6,1.4,1.4c0,0.8-0.6,1.4-1.4,1.4c-0.8,0-1.4-0.6-1.4-1.4C42.4,179.2,43.1,178.6,43.8,178.6z M40,178.7l1.9,4.9
			l-3,1.4l-4-3.8L40,178.7z M57.9,178.7l0.8,4.7l-5,1.2l-1.2-4.8L57.9,178.7z M128.9,178.8c1.1,0,2,0.9,2,1.9s-0.9,1.9-2,1.9
			c-1.1,0-2-0.9-2-1.9S127.8,178.8,128.9,178.8z M70.8,178.9c0.8,0,1.4,0.6,1.4,1.4c0,0.8-0.6,1.4-1.4,1.4c-0.8,0-1.4-0.6-1.4-1.4
			C69.4,179.5,70,178.9,70.8,178.9z M84.3,179.4l5.3,1.7l-1.8,4.2l-4.6-1.2L84.3,179.4z M60.9,179.6c0.8,0,1.4,0.6,1.4,1.4
			c0,0.8-0.6,1.4-1.4,1.4c-0.8,0-1.4-0.6-1.4-1.4C59.5,180.2,60.1,179.6,60.9,179.6z M81,180.1c0.8,0,1.4,0.6,1.4,1.4
			c0,0.8-0.6,1.4-1.4,1.4c-0.8,0-1.4-0.6-1.4-1.4C79.6,180.7,80.2,180.1,81,180.1z M47.4,181.7l1.8,4.2l-5,2.1l-2.2-4.3L47.4,181.7z
			 M50.9,182c0.8,0,1.4,0.6,1.4,1.4c0,0.8-0.6,1.4-1.4,1.4c-0.8,0-1.4-0.6-1.4-1.4C49.5,182.6,50.1,182,50.9,182z M69.3,183.2
			c8.2,0,15.6,1.7,21.5,4.1L89,189c-19.2-6.6-31.8-3.6-44.7,2l-1.3-1.6C52.1,185,61.1,183.2,69.3,183.2z M91,183.3
			c0.8,0,1.4,0.6,1.4,1.4c0,0.8-0.6,1.4-1.4,1.4c-0.8,0-1.4-0.6-1.4-1.4C89.6,183.9,90.2,183.3,91,183.3z M40.9,186.3
			c1.1,0.1,1.2,2.1,0.7,1.5l-1.2-1.4C40.6,186.3,40.8,186.3,40.9,186.3z M92.3,187.1c0,1.6-1.5,12-6.5,19.1
			c-0.3-3.6-1.2-7.9-2.2-10.8C83.6,195.4,89,190.5,92.3,187.1z M28.5,202.9l26,34.8l-2.7,0c-0.6-2.6-1.4-5.2-3-7.1
			c-1.3-1.6-2.5-2.8-4.8-3.9c-1.4-0.6-1.6-0.5-1.7-1.6c-0.4-6.1-5.4-9.9-9.2-11.4c-0.4-3.7-2-7.3-6.2-10.4L28.5,202.9z M26,203.7
			c2.4,1.6,5,3,6.4,9.4c0.1,1.3,0.2,1.2,1.2,1.6c4.1,1.2,7.7,6.2,8.1,10.5c0,1.3,0.4,1.4,2,2.1c2,0.8,4,2.6,5.2,4.3
			c1.7,2.5,2.3,6.2,2.2,6.1l-1.4,0c-1-6.4-5-8.9-9.3-10.1c0.3-9-6.7-11.8-9.1-12.2c0.1-6.5-4.1-9.2-6.8-11.3
			C24.9,203.8,26,203.7,26,203.7L26,203.7z M21.8,204.6c2.1,0.7,3.7,3.6,3.6,5c2.8,0.4,5.7,3,5.1,5.9c-0.2,0.1-0.5,0.1-0.9-0.2
			c0.8-5.4-7.4-2.7-4.2,1.2l-1.5,0.9c-1.2-5.4-2.6-8.5-4.2-12.5C20.3,204.8,21.8,204.6,21.8,204.6z M28.5,216c0.7,0,1.3,0.6,1.3,1.3
			s-0.6,1.3-1.3,1.3c-0.7,0-1.3-0.6-1.3-1.3S27.8,216,28.5,216z M35.5,221.9c3.1,0.9,4.1,4,4,5.2l-0.7,0c-1.1-5-6.8-2.3-4.4,1.7
			c-3,1.1-2.8,3.9-1.9,5c1.2,1.5,4.4,1.5,5.4-0.9c3,3.8,7-0.5,3.4-4c3,1.1,3.4,5,3,6.3c1.4,0.5,2.9,2.6,2.7,2.6l-22.1,0
			c0,0,1.1-8.9-0.1-15.6c1.5,0.4,2.5,0.7,4.2-1.3c2.7,2.3,4.7,0.6,4.6-1.4c-0.2-1.4-0.9-2-2.1-2.8C33.9,216.1,35.7,220.3,35.5,221.9
			L35.5,221.9z M38,228.2c0.7,0,1.4,0.6,1.4,1.3c0,0.7-0.6,1.3-1.4,1.3c-0.7,0-1.4-0.6-1.4-1.3C36.7,228.8,37.3,228.2,38,228.2z"/>
		<path id="path7198-0_1_" class="st3" d="M3.7,64.4c-1.7-2.9-3.6-5.7-5.9-8c2.3-2.4,4.1-5.2,5.9-8c1.7,2.9,3.6,5.7,5.9,8
			C7.3,58.8,5.4,61.6,3.7,64.4z"/>
		<path id="path7202-9_1_" class="st3" d="M155.9,218.8c-1.7-2.9-3.6-5.7-5.9-8c2.3-2.4,4.1-5.2,5.9-8c1.7,2.9,3.6,5.7,5.9,8
			C159.5,213.1,157.7,215.9,155.9,218.8z"/>
		<path id="path7204-2_1_" class="st3" d="M38.1,73.1c-4.2-6.9-8.6-13.6-14.1-19.3c5.5-5.7,9.9-12.4,14.1-19.3
			c4.2,6.9,8.6,13.6,14.1,19.3C46.7,59.5,42.3,66.2,38.1,73.1z"/>
		<path id="path7222-2_1_" class="st3" d="M121.5,232.7c-4.2-6.9-8.6-13.6-14.1-19.3c5.5-5.7,9.9-12.4,14.1-19.3
			c4.2,6.9,8.6,13.6,14.1,19.3C130.2,219.1,125.7,225.8,121.5,232.7z"/>
		<path id="path37-2-1-6-5_1_" class="st3" d="M-2.2,37.1h-2.2v-3h2.2c0,0,0-1.6,0.1-4.5c0.1-6.1,0.3-7.1,2.1-8.8
			c3.5-3.3,9.4-0.6,9.4,4.4c-0.1,7.1,0,13.8-0.2,14.8c-0.4,1.7-0.4,1.8-0.3,2.1c0.3,0.6,3,0.9,3,0.7v3c-2,0.2-2.9,0-4.5-1.2
			c-1,1-4.1,2-6.6,0.8C-1.2,44.4-2.6,42.2-2.2,37.1L-2.2,37.1z M5.3,42.3c-1.1-1.6-3-3.8-4.7-4.5c-0.1,1.8,0,3.4,0.7,4.2
			C2.3,43.3,4,43.6,5.3,42.3L5.3,42.3z M6.3,24.9c-0.8-2.3-2.9-3.1-4.5-1.6c-1,0.9-1.1,1.8-1.1,7c0,3.2,0,4.5,0,4.5
			c3,1,5.8,4.4,5.8,4.4l0.1-9.6C6.6,28,6.5,26.4,6.3,24.9L6.3,24.9L6.3,24.9z"/>
		<path id="path37-3-27-1-5_1_" class="st3" d="M161.8,230.1h2.2v3h-2.2c0,0,0,1.6-0.1,4.5c-0.1,6.1-0.3,7.1-2.1,8.8
			c-3.5,3.3-9.4,0.6-9.4-4.4c0.1-7.1,0-13.8,0.2-14.8c0.4-1.7,0.4-1.8,0.3-2.1c-0.3-0.6-3-0.9-3-0.7v-3c2-0.2,2.9,0,4.5,1.2
			c1-1,4.1-2,6.6-0.8C160.8,222.7,162.2,225,161.8,230.1L161.8,230.1z M154.3,224.8c1.1,1.6,3,3.8,4.7,4.5c0.1-1.8,0-3.4-0.7-4.2
			C157.3,223.8,155.6,223.5,154.3,224.8L154.3,224.8z M153.3,242.3c0.8,2.3,2.9,3.1,4.5,1.6c1-0.9,1.1-1.8,1.1-7c0-3.2,0-4.5,0-4.5
			c-3-1-5.8-4.4-5.8-4.4l-0.1,9.6C153,239.2,153.1,240.7,153.3,242.3L153.3,242.3L153.3,242.3z"/>
	</g>
</g>
</svg>
