<svg id="Layer_1" data-name="Layer 1" xmlns="http://www.w3.org/2000/svg" viewBox="0 0 180 250"><defs><style>.cls-1{fill:#d40000;}.cls-2{fill:#e2cf00;}.cls-3{fill:#131f67;}</style></defs><title>all_cards</title><g id="g6155"><path id="path163-0-2-7-7-1-8-7-00-1-2" class="cls-1" d="M13.88,56.1s-1.79-2.56-4.21-5.56c-1.62-2-2.91-4.19-3-6.07a3.89,3.89,0,0,1,3.53-4.4c2.36-.1,3.32,1.65,3.71,3.1.39-1.45,1.35-3.2,3.72-3.1a3.9,3.9,0,0,1,3.53,4.4c-.12,1.88-1.41,4.06-3,6.07C15.68,53.54,13.88,56.1,13.88,56.1Z"/><path id="path163-0-2-7-7-1-8-1-9-4-6-8" class="cls-1" d="M166.12,193.9s-1.8,2.56-4.22,5.56c-1.62,2-2.91,4.19-3,6.07a3.9,3.9,0,0,0,3.53,4.4c2.37.1,3.33-1.65,3.72-3.1.39,1.45,1.35,3.2,3.71,3.1a3.89,3.89,0,0,0,3.53-4.4c-.12-1.88-1.41-4.06-3-6.07-2.42-3-4.21-5.56-4.21-5.56Z"/><path id="path39-51-8-0-0" class="cls-1" d="M15.84,35.65h2.67l-3.93-9.77-3,4.13,0,5.64h2.11v2.91H6.27V35.65H8.72v-21H6.27V12.11h7.55v2.62H11.73l0,10.24,6.59-10.32H16V12.11h8v2.54H21.86l-5.42,8.44,5.31,12.56H24.1v2.91H15.86l0-2.91Z"/><path id="path39-3-9-6-0-8" class="cls-1" d="M165.47,215.36H162.8l3.93,9.77,3-4.13,0-5.64H167.6v-2.91H175v2.91h-2.45v21H175v2.54h-7.55v-2.62h2.08l.05-10.24L163,236.36h2.33v2.54h-8v-2.54h2.12l5.42-8.44-5.31-12.56h-2.35v-2.91h8.25l0,2.91Z"/><path id="path3876-2-1-7" class="cls-2" d="M65.34,212.08a231.25,231.25,0,0,0,43.51.94c3.86,5.33,11.59,16.21,11.59,16.21l-70.11.57Zm-18.2,3.72C49,212,49.38,208.34,49,203.06c-.28-4.05,2.25-7.2,4.86-6,2,.94,1.08,4.77-1,4-.8-.31-1.5,0-1.4,1.79.19,4.48,1.38,9.54.36,13.84C51.12,220.82,45.39,218.9,47.14,215.8Zm-17.62-5.86A3.34,3.34,0,0,1,33.76,205c1.18.55,1,1.75-.47,1.11-2.08-.9-4.31,2.27-2.5,3.54.83.59,1.14.51.51-.23-1.68-1.95,2.62-2.82,2.5-1.53a22.28,22.28,0,0,1-.48,2.54C32.45,211.83,30.76,211.13,29.52,209.94Zm6.18-14a3.67,3.67,0,0,1,.31-5.26c.71-.77-5.7-12.74-4.89-12.82,8.1-.87,16.28-.21,24.39,0,0,0-4.32,7.79-6,11.65-.69,1.56.93,3.38.26,4.54-2.09,2.29-.79,4.82-2.09,4.93a26.81,26.81,0,0,0-11.21,0c-.32,0-.27-2-.72-3Zm35-83.19c4.1,20.88-1.94,43-15.77,57.61-2-1.88-3.46-5.44-5.4-7.77-5.41-1.63-9.3.28-13.09,2.16a21.44,21.44,0,0,0-10.86-3l-.12-3.23c3.74-.08,7.69.27,11,2.33l5.22-2.12-16.26-16.9.22-2.89,19.73,19.95,2.54.09c-5.58-14.87-.7-38.5,22.77-46.19Zm27.51,26.19,2.85,13.63s-16,15.89-24.4,24l-7-.64c3.51-5.23,5.5-10.52,7.83-15.8Zm56.69,18.7c-6.69,7.52-14.7,12.29-23.58,17.56-3.56-4-7.87-8.35-10.36-12.28,7.76-4.15,15.15-7.36,22.74-14.63-.42.47-9.69,3.62-9.66,3.26-.33,1.55-.13,2.51-1.64,2.92-1.78-2.5-3.51-4.53-6.32-5.65a6.39,6.39,0,0,1-2.75-.67c.79-.17.44-9.76,0-9.87.86-.28,1.74-.94,2.93.38.55.37,5.89-5,7.71-6.86,7.14-.59,13.46.11,20.5-.08-.06,8.54.43,17.39.43,25.92ZM109.6,136c-.18-.36-2-14.5-.27-23.37C114,97.73,112.84,93.57,125,78.89c.8-.78,3.6,1.74,5.68,6.11,6.07,3.83,13.84-1.11,13.84-1.11s3,2.47,9.84,3.82l-.12,2.66c0,.77-7.67-.83-9.31-2.37,0,0-5.73,1.91-5.73,2.26,0,1.49,15.24,15.61,15.24,15.61l-.08,3.31c.1,0-20.9-21.83-21.17-19.54,5.94,25.64-4.17,38.63-23.57,46.38Zm-25.25-4.5L84,118l12.86.16.53,13.7ZM25.51,116.86c.35-.49-.5-25.28-.44-25.28,8.18-8.17,16.18-12.73,24.21-17.7,3.63,3.61,6.71,6.65,9.39,11L47.59,91.74c.43,1.66-.67,2.26,6.47,8.75.12-.44,2.47-1.76,2.88.22-1,4.17.43,7.71.62,10-1,1.31-3.16-.1-3.16-.1-1.41-1.47-6.93,5.8-8.51,6.62C39,116.93,25.13,117.4,25.51,116.86Zm77.36-44.1c0,.09,7.08,0,7,.18-1.28,3.14-4.2,9.4-7.12,16.33-2.44,4-19.9,20.82-19.9,20.82-.83-4.87-2.07-9.62-3.37-14.36Zm30.34-23.37c2.53,1.08,9.65.51,10.77,0,1.45,1,.55,2.29.36,3,1.49,1.89,2.3,2.56.62,5.6-.39,0,5.18,12.57,5.33,12.58,0,0-5.89-2.8-8-4.69l-4.06,5.41-4.71-6.11c0,.55-9.09,6.59-9.2,6.3-.28-.29,8.28-9.54,6.58-15-.41-1.31.53-2.64,1.17-3.79.44-.79-.15-2.32,1.1-3.37Zm-4.7-1.13c.38-.44-2.2-11.82.6-16.41,1.18-1.67,3.33-1.75,4.23-.39.68,1.9-1.36,4.55-1.77,5.84-1.33,3.6.64,8.35-.32,11.75-2.88,7.44-8-.73-2.74-.79Zm19.18-5c-1.52.06-.46-4.49-.21-5.8,0-.25,2.79-.91,3.79.88,1.62,2.68-.33,6.06-3.58,4.92Zm-18.11-23L115.27,37.71C100.8,36,86.28,35,71.48,37.24L59.58,20.59Z"/><path id="path3874-3-1-4" class="cls-3" d="M156.12,19.17H23.88V230.83H156.12Zm-26.68,1.1L113.59,39.83l-.39.14a92.42,92.42,0,0,0,4,9.91c2.3,4.76,8.06,13.49,4.46,20.47-.35.6-.68.89-1.12.89-.61,0-.6-.36-.23-1.06a15.11,15.11,0,0,0,1-7.14,27.56,27.56,0,0,0-2.19-6c-6-11.16-7.9-17.11-7.56-17.11a1.29,1.29,0,0,0-.43-.18l-.59-.19c2.08,7.05,5.47,13,8.16,18.48,2.2,5.11,2.44,7.09,1.29,10.81-.45,1.43-1.26,2.36-2.05,2.35-.59,0-.56-.12-.15-.85,2.11-3.8,1.62-7.95-1-12.78-3.81-8-6.1-13-7.46-18.13,0,0-.69-.23-.93-.28,1.13,5.32,4.29,11.46,7.23,17.74,2.43,4.84,3.13,8.37,2.25,11.15-.29,1.21-1.2,3-2.36,3.06-.46,0-.53-.24-.1-.86,1.8-3.1,2.12-6-1.1-12.46-3-6-5.93-12.68-7-18.53-.06-.48-1.35-1.05-1.07-.25,1.59,6.91,4.75,14,8.12,20.88,1.89,4.28,2.08,7,.67,9.42-.8,1.34-1,1.64-1.6,1.65s-.69,0-.3-.77c1.72-3.6,1.44-6.77-.86-12-3.15-7.13-5.8-13-6.93-19.32-.21-.06-1.27-.47-1.12-.16a101.14,101.14,0,0,0,6.19,17.15,57.48,57.48,0,0,1,2.84,7.64c.9,3.61-1.13,8.58-3.78,8.83-1,.09-.86-.4.24-1.43,1.9-1.77,2.26-4.6,1.62-7.88A41.34,41.34,0,0,0,109,55c-2.31-5.56-4.83-11.39-5.62-16.52,0-.46-1-.46-.74,0A58.93,58.93,0,0,0,106,50.08c1.63,4.18,4.07,8.86,4.86,14,.66,4.2-2,8.16-5.11,8.4-3.81.28-4.56-3.5-3.65-5.28,1.5-2.65,5.84-1.14,4.55,1.57a1.51,1.51,0,0,1-2.92-.56c0-.15.22-.62.18-.65s-.41.26-.52.45c-.77,1.39,1.55,3.25,3.15,2.14,5.4-2.94,1.76-11.89-.59-17.36a56.18,56.18,0,0,1-4.67-14.42c-.2-.14-1.09-.36-1-.2.66,2.52,1,4.64,1.61,6.76,1,3.31,2.84,7,4.34,10.74,1.35,3.66,2.71,6.77,2.09,10.59a2.08,2.08,0,0,1-.44,1c-.24.26-.44.22-.52-.75,0-.13-.19-.31-.21-.48a11.82,11.82,0,0,0-.34-4.2,20.12,20.12,0,0,0-2.18-4.48c-.5-.82-1.81-3.31-1.35-1.59a23.51,23.51,0,0,0,2.09,4.72,9.69,9.69,0,0,1,1,4.15c-.19.51-.63.53-.84.36s-.18-.87-.23-1.31a13.71,13.71,0,0,0-3.31-6.2c-.92-1,2.16,4.38,2.38,5.82.1.61.29,1.1.08,1.4s-.41.2-.68.13-.25-.25-.53-1.17A9.27,9.27,0,0,0,101,59.85c-.41-.49-.69.13,0,.92A9.13,9.13,0,0,1,102.85,65c-.59.85-.89.69-2.13-1.46-.82-1.41-1.31-1.78-1.52-1.77-.55,0,0,.71,1.49,3.12.79,1.29.81,2.1-.09,2.09a9.77,9.77,0,0,1-2.44-2.7c-.35-.68-.79-1.2-.79-.38a11,11,0,0,0,1.78,2.92c1.14,1.32,1.47,1.59,1.62,2.18.07.28.2.77.3,1.09.29,1,.15,1.23-.45.73-.27-.71-.48-.79-1.22-1.33a11.85,11.85,0,0,1-2-2.5c-.22-.31-.4-.72-.62-1-.55-1-1.29-1.13-.75-.08a16.87,16.87,0,0,0,1.08,1.88c.72,1,.57,1.56-.28,1.55-.36,0-1.38-1.34-2-2.39-.41-.69-1.06-1.17-1-.49a7.69,7.69,0,0,0,1.27,2.31c.82,1,.93,1.57.13,1.56-.54,0-1-.52-1.7-1.58s-1.07-1.36-1.25-1.24.94,2.14,1.91,3.23.24,1.61-.81.7a11.67,11.67,0,0,1-2-2.69c-.57-1.26-.94-.91-.57.08a9,9,0,0,0,1.81,3.09c.4.41,1.23.73,1.64,1.08,1.15,1,1.87,1.92,1.78,2.09-3.28.18-6-3.33-6.7-5.45-.52-1.4-1.12-1.61-.55.37,1.59,4.9,6.57,7.45,10,5.25,2.08-1.33.24-4.78-1.46-3.67-.46.31-.48,1.16.11.7,1.1-.86,2.21,1.27,1,1.9-1.69.88-3.57-.85-2.42-3s5.7-.92,4.81,2.56a6.26,6.26,0,0,1-4.94,3.56c-3.78.07-6.38-2.84-7.83-5.71-.19-.37-.52-1.09-.8-1.69a6.52,6.52,0,0,0-.45-.88c.42,3.48,3.74,7.79,6.7,8.5,4.93,1.17,6.28-1.79,9.51-4.84,0,0,2.35.31,2.44.26a30.14,30.14,0,0,1,4.71-.21A106.32,106.32,0,0,0,109,172.05c1,2.12,1.18,1.72-.48,1.28s-3.27.25-4.67-.08c-2.88-.59-3.5,1.39-5.72,2.45-2.76,1-2.13,3-2.79,4.84-.21.29-.36.53-.25.49a1.74,1.74,0,0,0,.82-1.09,4.5,4.5,0,0,1,1-2.71c.48-.46.81-.7.92-.5a1.67,1.67,0,0,1-.21,1.16c-.67,1.27.22,5.53.28,2.5a7.52,7.52,0,0,1,3.52-6.18c1.63-.8,2.13-.72.81.51a8.65,8.65,0,0,0-2.59,5.82c0,1,.36,1.77.5.9-.06-4.44,4.36-9.39,9.1-6.93.23.17.43.49.37.68-4.6-.78-8.59,1.74-8,7.71a19.56,19.56,0,0,0,.64-2.34c.73-3.65,4.84-5.25,7.72-4.25.55.23,1,1,.9,1.1-3.53-1.11-7.4,2.24-7.63,5.87-.07,1.18,0,2.19.56.06,2.28-8.06,9.31-4.41,8.44-3.74-5.44-.66-7.41,3-7.28,7.27.08.39.27.52.44.88a13.36,13.36,0,0,1,1.11,5.89c0,.75.56,5.51-.06,5.31-2-.73-3.48-1.6-6.9,0-.31,0-.41-.16-.3-.42a9.85,9.85,0,0,1,1.61-2.13c2.1-2.25.89-1.65-.84-.09-1.11,1-.87.32.18-3.12.43-1.4.16-1.57-1.67-2.51s-3.2-1.11-1.6-.1a13.41,13.41,0,0,0,2,1.08c.83.46.74.65.12,2.66-1.2,3.91-1.62,5.34-1.55,8,.15,6.4,6.22,5.77,9.67,4.33l.15,4.21,13,18.41s-45.48-.05-69.82.35c1.39-3.35,16.1-17.55,17-20.08.08,0-1.63-5.2-2.53-7.46-4.26-10.68-9.85-15.18-6.61-22.2.7-1.39.82-1.86,1.35-1.86.72,0,1,.49.14,1.85-3.48,5.85,3.94,16,6.45,22.41a72.05,72.05,0,0,1,2.37,7.5c0,.49,1.21.66.88.08-.93-3.29-2.09-6.89-2.62-8.18-2-4.76-4.07-8-6-12.66-1.08-2.94-1.65-6.34,0-9.38.61-1.11.78-1.73,1.18-1.79s.55.12.58.41a3.39,3.39,0,0,1-.63,1.6c-2.92,5,2.28,13.07,4.85,18.83a45.66,45.66,0,0,1,3.7,11.27.59.59,0,0,0,1,.45c-1.11-6.65-4.38-13.1-7.25-19.32-2.45-4.85-3.37-9.09-.09-13.08.28-.28.89-.23.94.18a5.38,5.38,0,0,1-.7,1.87c-2.89,6.05,1.58,11,3.67,16.75,2,4.83,4,8.88,4.71,14,.58.22.86.5.93-.23-1.5-7.27-4.72-13.81-7.52-20.1-1.29-2.74-1.74-4.05-1.83-5.88-.12-2.52,1.14-5.71,2.27-6.55.29-.22.48-.26.75-.11s.29.33-.44,1.71a10,10,0,0,0-.22,8.73c2.22,4.82,4.1,8.76,5.42,12.3a42.38,42.38,0,0,1,2.6,10.26s1,.44.84-.22a55,55,0,0,0-3.52-12.37c-1.42-3.51-3.2-6.9-4.64-10.38a8.88,8.88,0,0,1,3.29-11l1.65,0c-.1,0-3.77,1.42-4,6.69-.18,5,2.19,8.11,3.9,12.37,2.08,5.13,4,9.62,4.4,15.11a1.56,1.56,0,0,0,1.05.15,53.4,53.4,0,0,0-3.05-11.51c-1.63-4.58-3.24-6.61-4.75-11.42-1-3.25-.89-7.65,1.39-9.67,3.4-3.46,8.15-1,7,3-.92,2.79-4.71,2.23-4.69-.38a1.47,1.47,0,0,1,2.74-.86c.16.24.27,1.33.34,1.37a3.07,3.07,0,0,0,.28-1.06,2.32,2.32,0,0,0-3.25-1.84c-1.91,1-3.14,3.17-3,6.13.13,3.15.7,5.19,3.27,10.13,3,5.76,4,12,4.62,16.19.27-.12.6,0,.71,0a48.16,48.16,0,0,0-4.64-16.49c-2.83-5.93-3.62-9.55-2.68-12.2.14-.39.27-.68.44-.71.32,0,.41.46.71,1.52a3.58,3.58,0,0,1-.09,1.24c-.25,2.43,1.45,7.48,3,9.72.46.64,1.05.62.54-.52A19.21,19.21,0,0,1,74,184.68c0-1.05,1.18-.58,1.21-.05a12.22,12.22,0,0,0,1.06,5.14c1.65,2.83,2.57,2.95.88-.21-.37-.73-1.44-3.83-1-4.89.24-.22.53-.26.68,0a12,12,0,0,0,2.3,4.83c.61.7.71.39.39-.49-.54-1-2.22-4.4-1.45-5.17.25-.2.11-.09.79,1a12.67,12.67,0,0,0,1.91,2.61c.61.6.76.19.13-.86-1.26-2.12-2-3.87-1.53-4.31s.54-.24,1.53,1.46c.45.76,1.09,1.87,1.31,2.14s.41.33.42.11a8.29,8.29,0,0,0-2.7-4.8,11.62,11.62,0,0,1-.06-1.81c2.64,1.36,2.74,2.9,4.49,5.27.18.18.43,0,.36-.37A14.59,14.59,0,0,0,83,181c-.51-.68-.54-1.07-.11-1.26.7-.32,1.68.72,2.72,2.58.48.87,1.13,1.37,1.13.91a10.5,10.5,0,0,0-1.52-3.12c-1-1.07-.52-1.82.67-.83a5.34,5.34,0,0,1,2,2.43c.44,1,.82,1.08.82.32a6.51,6.51,0,0,0-2.4-3.54c-.75-.45-1.17-.95-1-1.28.65-1,3.31,1.5,4.21,3.79.27.68.74,1,.85.73s-.33-1.81-.88-2.57c-.91-1.75-3.07-3.45-4.34-3.24-.25,0-.92-1.4-.92-1.4,3.25-.52,6.41,3.38,7,4.85,1.07,2.77,1.61,2.45.67,0-1.82-4.75-7.48-7.42-10.62-5.12-1.79,1.31-.72,4.45,1.12,3.92.73-.28,1.44-1,.15-.78a1.27,1.27,0,0,1-.42-2.48c2.34-.71,2.88,3,1,3.88a2.56,2.56,0,0,1-3.75-2.58c.35-4.1,5.37-5.28,10.32-2,1.39.93,3.11,4,3.69,5.9.2.63.85.85.94.77s-1.38-3.57-1.89-4.42c-2.16-5-9.95-5.2-9.95-4.95a28.57,28.57,0,0,0-5.77,5.11l-7-.65c17.75-28.6,19.15-70.65.94-100.42.23.15,3.5,1,4.63.11a2,2,0,0,1,2-.21,3.09,3.09,0,0,0,3.24-1c.85-.77.87-1,1.41-.94,1.62.21,2.69-.74,3-3.08.13-.92.22-1.88.09-1.74a10.76,10.76,0,0,0-.38,1.38,3.78,3.78,0,0,1-1.16,2.33c-.88.73-1.39.32-1-.8a5,5,0,0,0,.16-3.43c-.09-.15-.11.43-.23.89-1,3.66-2,5.52-3.7,6-.82.2-1.2.08-.93-.39,3.07-3.28,2.86-6.92,2.63-6.61-.65,2.11-1.86,5.24-3.85,6.53a5.6,5.6,0,0,1-5.64.28c-.79-.53.41-.68,2.21-.71,3,0,5.86-4.1,5.39-7.52-.11-.64-.28,0-.53,1.08-1.12,3.71-3,6.31-7.42,5.54a1.78,1.78,0,0,1-.75-.42c-.72-.5-.46-.84,1-.65,3.17.41,5.93-2.57,5.91-6.17,0-1.73-.25-1.71-.53-.42-.38,1.82-1.79,7.38-6.92,5.56-.92-.5-1.42-1.14-1.09-1.23,3,.6,5.72-.06,6.79-4a8.19,8.19,0,0,0-.12-4.75c-.15-.95-.46-1.67-.57-2.63a52.06,52.06,0,0,1-.57-8.23c.24-.24.28-.19,1.14.39,1.69,1.12,3,.86,4.69.19,2.21-.8,2-.65-.3,2a13,13,0,0,0-1,1.32c-.59,1.1.52.29,1.34-.75C80.72,52,81,51.63,81.19,51.64a19,19,0,0,1-.78,4.75c-.38,1.42-.37,1.75.53,2.11.39.16,1.14.47,1.56.67,1.89.91,1.72.17.21-.68-2-1.16-2-1.1-1.47-3a46.54,46.54,0,0,0,1.39-6.41c.92-5.5-3.22-8.53-8.71-6.61-.31.16-.68-2.89-.63-3.69,0-.29-.83-.23-1.55-1.12.22-.19-8.09-10.65-12-17,24.11.06,47.86-.44,69.67-.38ZM111.58,39.91l.08.06S111.6,39.91,111.58,39.91ZM130.4,20.76h23.93V71.33l-2.37,0s-3.88-6.71-4.91-9.89c-.25-.79-.7-1.88-.88-2.31-.39-1-.67-1.09-.14-1.68a4,4,0,0,0-.18-4.75c-.32-.37-.48-.24-.46-1.16a4,4,0,0,0-.12-1.69c-.35-.67-.58-.72-.09-1.47a12.78,12.78,0,0,0,1.5-3c.47-1.61.14-1.91,1.18-1.53a3.57,3.57,0,0,0,4.75-3.69,3.75,3.75,0,0,0-4.56-3.62c-.56.14-.67.09-1.53-.45a6.07,6.07,0,0,0-.94-.6c-.39-.15-.72-.14-.89-.42a3.06,3.06,0,0,0-2.57-1.4,5.22,5.22,0,0,1-2-.37c-.43-.23-1.64,0-3.17-.28a5.85,5.85,0,0,0-1.56.17c-.94,0-.56-.1-.74-.82-1.18-3.76-4.64-3.31-6.22-.49a14.12,14.12,0,0,0-1.22,4.45l-9.31-.14Zm-72,.11c3.48,4.43,6.81,9.41,10.31,13.94C73,40.3,73.14,40.93,72,46.46c-.65,3.12-.93,3.84-2.24,3.61a2.16,2.16,0,0,0-2.44,2c-.32,2.31,1.9,3.74,4.13,2.58,1.18-.61,1.22-.68.83,1.34-.56,2.89-1.69,5.37-2.41,5.29-1.87-4-6.42-1.15-4.91,3-.48.72.14,1.64.38,2.39a13,13,0,0,1-2.59,1C50,71.4,34.4,81.3,25.77,90.59V21.06Zm73.22,9.48a2.12,2.12,0,0,1,1.48.54c1.11,1,.85,2.41-.69,5-1.61,3.68-1.17,6.57-.8,10.44,0,2.24-.77,4.37-2,5.29a2.14,2.14,0,0,1-3.34-2.53c.52-1,1.62-.42,1.87-1.37.36-3.51-.51-7.1-.57-10.54a13,13,0,0,1,1.22-4.94,3.53,3.53,0,0,1,2.8-1.94Zm3.07,6c-.44.37-1.18.38-1.26-.08a5.2,5.2,0,0,1,.64-2.2C135.63,33.7,135.12,36,134.66,36.35Zm2.39-2.4c1.31-.05,2.18,3.33,1,5.32-.22,0-1.82,0-1.82.06a8.77,8.77,0,0,1,.19-1.74,3.37,3.37,0,0,0,0-1.64c-.43-1.55-.71-1.84.6-2Zm2.51,0h.15c1.34,0,2.1,2.61,1.68,5.45-.06.41-.09.83-.24.93a6.32,6.32,0,0,0-2.14.4,2.92,2.92,0,0,1,.11-1.69,5.64,5.64,0,0,0,0-3.63c-.31-1.21-.32-1.43.4-1.46Zm3.33.75c1.48.25,1.57,4.35,1,5.68-.15.19-.7.14-.9.22-1.25.36-1,.55-.83-1.46a13.52,13.52,0,0,0-.08-3.57c-.1-.5-.14-.84.22-.87a1.44,1.44,0,0,1,.62,0Zm-7.34,1.6c.59.81.12,2.68-.33,3.37s-.71.83-.44,1.17A1.62,1.62,0,0,1,135,42c-.28.57.44.67,1.09,1,1.06.56,1.58,1.59,2.37,3.46.28.65.84.45.57-.26a20,20,0,0,1-.49-2.07c-.17-.61,0-.92.71-.74,1.05.27.9,0,1.29-.12.84-.47,1.4.19.89.56a6.39,6.39,0,0,1-1.6.53c-.58.16-.45.73.14.72a17.61,17.61,0,0,0,3.11-.75c2.91-.88,3-1.35,2.74.31a5.08,5.08,0,0,1-3.53,4.41,17.85,17.85,0,0,1-7.45-.17c-1.67-.77-1.79-1.31-2.29-2.79-.7-2-1.11-5.48-.31-7.48.7-1.69.63-1.51,1.31-1.43a1.44,1.44,0,0,0,1.58-.39c.09-.18.32-.5.42-.5Zm11.14,1.22a4.57,4.57,0,0,1-.13,2.54c-.18.33-1.2.31-1.59.32-.24,0-.22-3.06,0-3.4.59-.9,1.36-.18,1.69.54ZM117.19,37l2.88,0v.71l-3.4,0Zm10.07.12v.91h-4.33v5.74h4.85l0,1.19-6.49,0,0-7.84Zm22-.19c4.44,1,2.46,5.94.79,6.24-2.08.37-3.84.14-3.26-1.71.58-1.24.18-2.8.34-3.93A2.93,2.93,0,0,1,149.31,37ZM115.79,38.7l4.28,0v.95h-4.89Zm9.5.87a1.25,1.25,0,1,1-1.23,1.25A1.24,1.24,0,0,1,125.29,39.57Zm12.07.5c.8.09.87,1.31.54,1.67a.89.89,0,0,1-1.43-.4A1,1,0,0,1,137.36,40.07Zm-22.77.53,5.48,0v.77l-5.53,0-.15-.49Zm30.81.33c.76,0,1.23.63.75,1.18C145.44,42.91,144,41.68,145.4,40.93ZM87.08,42.61c-1.22,1-.24,2.07,1.39,1.08,3.5-2.12,8.66-.44,12,1.33.66.34.75-.46.1-1-3.1-2.76-9.73-4.34-13.51-1.41Zm53-1.45c.85,0,.84,1.08.29,1.46a1,1,0,0,1-1,0c-.5-.19-.13-1.49.72-1.49Zm3,0c1,0,.9,2.1-.63,1.36A.78.78,0,0,1,143.14,41.18Zm-28.28,1,5.32.05v.87l-5,0ZM80.49,44.29c1.45,1.16,1,1.23-1.41.38a7.35,7.35,0,0,0-4.13.26c-1.17.47-1.44.33-.93-.45,1.36-1.54,5.09-1.23,6.47-.19Zm7,1.92c-.14.37-.64-.29-1.31-.16-1,.18-.69.23.33,1.39s1.35,1.44,1.28,1.89c-.09.66.1,1,.75,1,.31,0,.69.33,1.17.77a16.82,16.82,0,0,0,3,2.52c2.21,1,1.22-.12-.19-1.1-2.35-1.64-3.17-2.73-1.5-2.14a8.3,8.3,0,0,0,6-.58c.68-.41,1.12-1,2.08-.74,1.35.44,1.87-.37,1.5-.82-.62-.4-2-.87-3.35-1.77a8.31,8.31,0,0,0-7.84-.24c-1.18.69-1.58.2-.43-.48,4.62-2.51,8.28-.11,11.24,1.7.51.31.87.29.87.06-.07-.73-1.39-1.17-1.93-1.5-4.12-2.53-8.45-3.34-11.69.25ZM115.55,44h4.63v.92l-4.29,0ZM77.94,45.16c1.28,0,4.07,1.15,4,2.11,0,.37-.75,0-1.35-.33a6.91,6.91,0,0,0-4.67-.6c-1.3.25-1.71.46-1.89.31C73.6,45.63,76.75,45.17,77.94,45.16Zm50,.69v1.64c-2.51.19-3,3-1.41,4.56,1.32,1.29,3.5.78,4.59-1,.2-.32.22-.52.34-.36a3,3,0,0,1,.19.71c.18.86-.07,1.09-.64,1.83a3.64,3.64,0,0,0-.47,3.83c.16.31.49.75.44.95.32,0-2.85,8.93-7.48,13.44-.78.52-1.34-.09-.94-.93,3.77-8.69-3.45-16.76-6.25-24.53l11.62-.1Zm-33.53,1.5.66.06c-.53,4-4.39,3.35-4.54.09l.56,0c.75,3,3.33,1.79,3.32-.13Zm-21.77.08a2,2,0,0,1,.27.7c0,.93,0,2.28,0,2.68-.23,3.86-5.08,4.57-4.71,1.27a1.28,1.28,0,0,1,2.48-.28c.63,1.59.74-.39.75-1a18.09,18.09,0,0,0,1.24-3.36ZM96,47.7a1.47,1.47,0,0,1,.84.48c.32.35.2.52-.55.91s-1.17.38-.88-.47C95.57,48.1,95.73,47.69,96,47.7Zm36.28.2c.11,0,.39.15.33.57-.11.7-.71,1.1-.87.93C131.82,49,131.94,48.05,132.26,47.9ZM90.19,49.26c-.09.28-.26.16-.68-.21s-.44-.65,0-.94c.69-.42.73.88.65,1.15Zm-14.68-1c.81,2.58,2.46,2.25,3.2.13h.71c-.16,3.31-4.33,3.25-4.36.05Zm-1.46.32c.25,0,.07.82.07.82s-.68-.35-.28-.73A.6.6,0,0,1,74.05,48.53Zm6.12.22a.78.78,0,0,1,.42.18c.41.27.34.42-.13.81-.71.6-1,.27-.65-.54C80,48.91,80.06,48.76,80.17,48.75Zm53.24.56a6.69,6.69,0,0,1,1.61.36,17.25,17.25,0,0,0,8.58-.15c.89-.24,1.55,1.33,1.07,2.47-.21.5-.18.56.47,1.24a3.44,3.44,0,0,1,.37,3.92c-.51,1-.48.93.12,2.68a61.79,61.79,0,0,0,5.18,10.82l-2.66-1s-12,10.39-20.46,10.79l3.07,4.81a14.44,14.44,0,0,0,13.84-1.34c-.11.4,5.36,3.1,9.86,3.4l0,3.24c-3.34-.38-6.72-.46-9.82-2.42,0,0-2.85,1.2-5.7,2.1l16,16.66v2.78s-6.82-6.41-13.84-13.65l.15,35.58,13.82.27c-.43,9.26-.26,15.15-.16,25.75A91.19,91.19,0,0,1,131.1,175.2a68.2,68.2,0,0,1-10-12.35c-.06-.09.28-.27.22-.36s-.57-.19-.66-.32c-1.73-2.59-5.74-9.78-5.11-9.95,1.23.08,6.92-.63,8.06-4.07a5.4,5.4,0,0,1,0-1.55,13.2,13.2,0,0,0-.08-6.49c-1.22-3.24,2.46-2.21,2.59-2V125.87c-4.79,3.87-9.63,7.68-16,9.27-4-20.23,2.33-45.4,20.34-62.46l-1-.09c-18.5,19.29-23.35,40.51-20.19,62.86,0,0,.12.69.13.93,0,.56-.09.77-.58,1.17s-.89.64-.85,1c.08.72-.6.74-1.5.74-.41-.36-1,.1-1.29.26s-.7-1.84-1.29-.44c-.23.88-.66,1-1.64.51-.63-.18-.64.13,0,.85.82.9,1.52,2.24,1.38,2.64a1.68,1.68,0,0,0,1.09,2.32c-.07,0-.76,2.74,1.2,2.67a17.69,17.69,0,0,1,2.2.32,1,1,0,0,1-.31,1.05l-1.36-.68-.36,1.63-1.81-.13,4.41,5.49.51-4.28,5.16.66c.83,2.16,6,14.16,16,23.12-.11.3-6.85,3.1-6.85,3.1l-1.06-3.33-.86,1.24-1.52-.4-.18,1.41-1.35.44,2.44,1.6-6.2,1.78C97.38,152.9,89.56,114,111.19,72.48l5.47.07-1.07,1.84,1.55-.25.44,1.34,1.14-.55,1.15,1.45,1.31-3.87s3.87.09,4.35,0,8.19-6.64,8-6.9-8.5,6-8.78,5.76c0,0-.84.2-.19-.59a29.75,29.75,0,0,0,3.2-4.53A21.79,21.79,0,0,0,131.11,58a1.63,1.63,0,0,0-.09-.78c-.75-1.5-.58-2.49.77-4.26.47-.62.5-.77.37-1.16a1.91,1.91,0,0,1,.61-2.17.94.94,0,0,1,.64-.36Zm-46.06,6c3.43,1.42.68,4.56-1.87,1.82-1.33-1.44-2.39-1.34-3.11-.29-.33.47.15,1.3.57,1s.8-.54,1.37,0c4.34,4,7.45-1.61,3.71-3-.46-.21-1.12.26-.67.45Zm-14.12-.14a.28.28,0,0,1,.12,0,4.57,4.57,0,0,1,0,2.12c-.54,3-2.69,10.08-7.09,6.63-1.74-1.37-.15-4.81,1.94-3.64,1.63.91.53,3.09-1.24,1.84-.86-.61-.59.64.14,1,1.23.65,3.45-.46,4.49-2.44a18.62,18.62,0,0,0,1.25-4.19c.22-1,.24-1.36.38-1.37Zm.37,5.25c.36,2.19-1.29,6-3.65,6.6-1.8.43-4-.75-3.87-1.85,0-.32.17.1,1.81.37,2.28.38,3.73-.86,5-3.72a9.92,9.92,0,0,1,.67-1.4Zm5.68,1a8.65,8.65,0,0,1-.22,1.33c-.25,1-.4,1.42.71.91a3.12,3.12,0,0,1,2.93-.06,4,4,0,0,0,3.86-.06c1.26-.42,1.87-.43,2.57,0,1.28.75.84.27.68-1.6-.12-1.32-.47-1.15-.93-.65a1.31,1.31,0,0,1-1.6,0,2.46,2.46,0,0,0-2.32.08c-.37.31-.92.36-1.67-.15-.49-.33-.77-.16-1.37.11A1.51,1.51,0,0,1,80,61.19c-.49-.36-.72-.25-.72.29Zm-4.94,1.57c.13,0,.14.51,0,1.52-.41,3.76-3.33,5.86-6.77,4-1.51-.87-1.3-1.48.18-.94,2.36.87,4.75-.34,5.92-3.43C74,63.45,74.22,63.05,74.34,63.05Zm8.38,2.68c1.7.71,3.59.49,4.07-.14s-.29-.59-.72-.48a5,5,0,0,1-3.11,0C81.19,64.38,81.3,65.12,82.72,65.73ZM65,67.84a42.71,42.71,0,0,1,4.4,6.34c13.87,23.74,18.31,53.74,9.19,81a97.48,97.48,0,0,1-10,21.33l-4.75.05,1.63-1.87-2.21.16-.14-1.24-1.67.55-.81-1.87-1.52,4.28-8.8,0c20.62-20.2,24.68-44.68,20.83-64.33,0,0,1.73-1.09,2-1.72a3.6,3.6,0,0,1,.3-.91c.77-.51,1.28-1,1.65-.9a.73.73,0,0,1,.49.39c.73,1.07.89,1.24,1.28.16.29-.78.16-1.06,1.1-.91.55.29,1.27.28,1.21.18s-.83-1-1.2-1.53c-.87-1.23-1.12-1.46-1-2a2.17,2.17,0,0,0-.93-1.93c.12-2.22-.73-2.45-3.12-2.94a2,2,0,0,1,.22-1l1.4,1.13L75,98.12l1.91.1-5.53-5.4a40.14,40.14,0,0,1,0,4.53c-2.59-.14-5.15-1-5.19-.82A69.92,69.92,0,0,0,50.39,73.87l6.12-3,1.74,3.33.42-1.89,1.52.27.26-1.21,1.68-.24L60.28,69.4Zm36.46,3.9c.24.3.43.32.74.59l-.63.45a2.78,2.78,0,0,0-.11-1ZM60.72,72.85a1,1,0,0,0-.94,1,.94.94,0,0,0,1.88,0A1,1,0,0,0,60.72,72.85Zm5.11.16a1,1,0,1,0,.94.95A.95.95,0,0,0,65.83,73Zm-16.46.69c3,2.54,5.82,5.85,9.2,11l-.07.69,1,.39s5.63,7.46,5.33,10.78c-1.93.4-3.69-.13-7.15,3.13-1.63-.89-2.59-.6-4.28-.11a1.19,1.19,0,0,0,.61,1,2.19,2.19,0,0,1,3-.38c-.24.1-.85,7.51.34,9.09.89,2.52-1.45,2-3.08,1.42l.47,11.77c5.35-6.15,16.64-10.25,15.84-9.81,5.67,30.19-7.81,50.33-21.92,65.09l7.4,0S49.72,188.13,49.25,191c.36,1,1.36,2.91-.33,4.29-.57.63-.63,3.5-.63,3.5-3.89.14-7.26-1.22-11.74.36-.47.16-.57-2.46-.59-2.93-2.51-2.24-.21-6.09.13-5.8A92.48,92.48,0,0,0,30,177.26L26.05,177c-.31-.26-.51-7.24-.19-7.41,11.08.89,28.42-.13,28.42-.13L49.63,163c-5.73-2.25-13.61,1.59-13.23,1.8,0,0-6.3-3.47-10.68-3l.15-3.42a20.27,20.27,0,0,1,10.61,2.58l5.32-2L25.49,141.67l.19-2.84c5.31,5,14,14.56,14,14.56V117.16l-14,0-.38-7.32-.36-.64-.16-5.24.38-.54-.13-2.24-.13-.32-.18-5.36L25,95l.05-3.38C31.87,85,49.37,73.7,49.37,73.7Zm12,1L63,81.94l1.1-1.37,1.69.53.11-1.66,1.54-.54Zm55.75,1.2a1,1,0,1,0,.94,1A.94.94,0,0,0,117.11,75.92Zm-4.41.59a.95.95,0,0,0,0,1.9,1,1,0,0,0,0-1.9Zm-54.06.84a1,1,0,0,0,0,1.91,1,1,0,0,0,0-1.91Zm57.44.58-6.56,6.22,1.84-.08.33,1.82,1.65-.76,1.33,1.24Zm2.8,2.09a1,1,0,1,0,.94,1A.94.94,0,0,0,118.88,80Zm-52.2,1.22a1,1,0,1,0,.95,1A.95.95,0,0,0,66.68,81.24Zm4.08.8a1,1,0,1,0,.95.95A.94.94,0,0,0,70.76,82Zm-3.7,1.41c.18,2.54.48,5.56.54,8.11l1.25-1.24,1.44.59.51-1.56,1.56-.08Zm40.41,2.12a1,1,0,1,0,.94,1A.95.95,0,0,0,107.47,85.57Zm-43.11.17a1,1,0,1,0,.94,1A.95.95,0,0,0,64.36,85.74Zm46.85.23a1,1,0,0,0-.94,1,.94.94,0,1,0,1.88,0A1,1,0,0,0,111.21,86Zm-.56,2-5.44,5.64,1.78.17.56,1.6,1.14-1,1.39,1Zm3,1.21a.95.95,0,1,0,0,1.9,1,1,0,0,0,0-1.9ZM70.74,91a1,1,0,0,0,0,1.9,1,1,0,1,0,0-1.9Zm-23.24.77-1.38,1.06a4.07,4.07,0,0,1,1.77,1.4,22.86,22.86,0,0,1-.39-2.46Zm27.7.64a.95.95,0,1,0,1,.95A.95.95,0,0,0,75.2,92.4Zm-6.75,1.36a1,1,0,1,0,.94.95A.95.95,0,0,0,68.45,93.76Zm39,1.91a1,1,0,1,0,.95,1A.95.95,0,0,0,107.4,95.67Zm-3.72,1.4a1,1,0,0,0,0,1.9.95.95,0,1,0,0-1.9Zm38,.23,2,2.15v31.41l-1.92,0Zm-76.29.22c1.6,0,3.38.24,4,1.22.88,1.09-1,.67-2.58.91s-.61.48,1.45.6c2.84.17,4,.24,4.37.9a5,5,0,0,1,.12,1.69l-3.22-.15a20,20,0,0,0-3.15.09c-.39.11-.28.42-.14.56a24.45,24.45,0,0,0,2.84.13c4,.11,4.92.24,5.21,1.55s-.75,1-4.89.56a5.86,5.86,0,0,0-3.1.42c-.46.22,1.31.44,1.89.35a28.94,28.94,0,0,1,4,.42c.82.12.1.1-.32.6-.27.42-.19.9-.62,1.14s-1.57.27-3.45.27c-2.15,0-3.15.53-.2.66,1.9.08,2,0,2.17.6.43,1.37-.48,1.61-2.43,1.92A16.2,16.2,0,0,1,64,112c-4.1-.3-5.53-1.29-6.08-3.11-2.07-6.81.48-11,6.46-11.29.34,0,.69,0,1.06,0Zm41.5.31-4.63,6.8,1.78-.7.85,1.84,1.43-1,1.43.89Zm-34.69.82c.24.3.14.52-.26.74a1.64,1.64,0,0,1-1.29-.12c-.5-.21-.55-1.11-.14-1.21a1.92,1.92,0,0,1,1.69.59Zm-33.58-.34-2.13,2.34s2-.71,3-1.13Zm71.16,1a1,1,0,1,0,1,1A.95.95,0,0,0,109.78,99.35Zm34.52.82,3.34,3.34h-.88l0,1.85,2.8,0,1.53,1.52-4.27,0v1.89h5.29l0-.81,2.09,1.9.24,21.06-10.06,0c0-10.37,0-20.37-.06-30.74Zm-69.07,2.29c-.14.45-.46.45-1,.23-.81-.34-.7-1.25-.08-1.34,1.17-.14,1.39.4,1.1,1.11Zm3.17.39a1,1,0,1,0,.95,1A.95.95,0,0,0,78.4,102.85Zm-3.32.73A1.61,1.61,0,0,1,76,104c.52.53.34,1-.24,1.32s-1.1-.12-1.29-.9A.62.62,0,0,1,75.08,103.58Zm29.61,2.5a1,1,0,1,0,.94,1A.94.94,0,0,0,104.69,106.08Zm-31.17,1.15a.79.79,0,0,1,.63,1.32.9.9,0,1,1-.63-1.32Zm27.79.39a1,1,0,1,0,.94.95A.95.95,0,0,0,101.31,107.62Zm3.35.63-4.22,7.14,1.71-.68,1,1.37,1.07-.94,1.61.8Zm-33.12,1.19c.75,0,1,.6.42,1.15a.84.84,0,0,1-1.23,0C70.08,110.11,70.58,109.44,71.54,109.44Zm36.07.09a1,1,0,1,0,1,1A.95.95,0,0,0,107.61,109.53Zm-30.72.75a.92.92,0,0,0-.91,1,.95.95,0,1,0,1.89,0A1,1,0,0,0,76.89,110.28Zm69.92.21v2h5.32v-2ZM77,112.28l-2,7.5,1.7-1,1.07,1.1,1-1.23,1.77.47Zm3.62.82a1,1,0,1,0,.94,1A.95.95,0,0,0,80.58,113.1Zm-6.64.38a1,1,0,1,0,.94,1A.94.94,0,0,0,73.94,113.48Zm72.86.59v1.81h5.32v-1.8ZM103,116.44a1,1,0,1,0,.94,1A.94.94,0,0,0,103,116.44Zm43.77,1v2h5.32v-2Zm-109.66.24,1.87,0,0,34-1.82-1.94Zm-.78.07-.09,31.09-3.55-3.75h1V143l-3.07,0-1.31-1.28h4.37v-2.08l-5.19,0v1.26l-2.55-2.74,0-20.31Zm66.81.95-2.84,7.4,1.79-1,.92.92,1-.87,1.63.8Zm-74.69.35,0,2h5.24v-2Zm77.9.4a1,1,0,1,0,1,1A.95.95,0,0,0,106.39,119.46Zm-6.41.11a1,1,0,1,0,.94,1A.95.95,0,0,0,100,119.57Zm-22.2.35a1,1,0,1,0,1,1A.95.95,0,0,0,77.78,119.92Zm69,.77v2.09h5.32v-2.09Zm-69.14,1.18-.79,1.23-1.81-.62L77.54,130l3.08-7.83-1.77,1Zm-49.18.55v2h5.22v-2Zm118.32,1.78v2.07h5.31V124.2ZM28.49,125.93v2h5.22v-2Zm74.62.37a1,1,0,1,0,1,1A1,1,0,0,0,103.11,126.3Zm-28.39,1a1,1,0,1,0,1,1A1,1,0,0,0,74.72,127.3Zm6,.18a1,1,0,1,0,1,1A.95.95,0,0,0,80.77,127.48Zm66,.13v1.87h5.31v-1.87Zm-43.71.87-1.13,1.2-1.61-.47,3.67,6.91,1.85-7.43-1.62,1Zm-74.61.7v2.26h5.22v-2.26Zm49.21,1a1,1,0,1,0,1,.95A.95.95,0,0,0,77.7,130.21Zm-.06,2c-.4.28-.58.79-1,1l-1.72-.74,1,9.4L80.74,133l-2.19.37Zm-49.15.3v2.35h5.22v-2.35Zm78.31,1.09a1,1,0,1,0,1,1A.95.95,0,0,0,106.8,133.57Zm-6.12.11a1,1,0,1,0,.95,1A1,1,0,0,0,100.68,133.68Zm-72.19,2.21v2.36h5.22v-2.36Zm75.61.53a1,1,0,1,0,.94,1A.94.94,0,0,0,104.1,136.42Zm13.36.07c5.07.17,5.82,1.81,5.85,7.49,0,4.53-1.32,6.3-4.59,7.17a22.15,22.15,0,0,1-6.91-.38c0-.39-.65-1.29-.8-2a18.6,18.6,0,0,1,3.27.23c1.57.15,2-.1,1.47-.41-2.94-.7-4.94-.51-7.77-1.06a4.39,4.39,0,0,0-.72-1.84c.15-.06,4.36.39,6.57.32,1,0,.39-.5,0-.59-2.59-.37-4.27-.31-7-.66a2.59,2.59,0,0,0-.72-1.88s1.39,0,4.24,0c1.5,0,2.8.09,3.46.06,1.1,0,1-.52,0-.59-1.17-.13-5.75-.16-5.75-.16a4,4,0,0,0,.61-2.25s1.18,0,1.94,0c3.68-.14,4.31-.08,4.38-.22.48-.45-.82-.62-2.18-.62-.59,0-1.44.13-1.43-.19a3.44,3.44,0,0,0-.31-1.52,15.48,15.48,0,0,1,6.35-.95Zm-43.72,1.17a1,1,0,0,0,0,1.91,1,1,0,0,0,0-1.91Zm36.18.2c.62,0,.82,1.13.23,1.31-.9.27-1.39.06-1.36-.48,0-.3.72-.84,1.13-.83Zm-30,1a1,1,0,1,0,.95,1A1,1,0,0,0,79.93,138.84Zm27,1.07c2.14,0,1,2.92-.62,1.86C105.46,141.25,106,139.92,106.9,139.91ZM73,142.26c-.05,0-.07,0-.06.15l.49,8.93L78.6,143l-2,.77-.88-1.35-1.11.88c-.45.36-1.32-1-1.55-1Zm31.9.92c1,.13,1.6,1.1.93,1.57C104.34,145.41,103.54,143.24,104.91,143.18Zm-2.31,2a1,1,0,1,0,1,1A.95.95,0,0,0,102.6,145.14Zm3.64.8a.84.84,0,0,1,.4,1.57,1.18,1.18,0,0,1-.92,0c-1-.71-.46-1.46.52-1.54Zm-35.45,1.48a1,1,0,1,0,.94,1A.94.94,0,0,0,70.79,147.42Zm72.33,1.19-3.51,1.19v1.67c1.53-.49,2.41-1.74,3.51-2.86Zm-32.89.81c.61.26.77,1.09.25,1.37a2,2,0,0,1-1.8-.18c-.71-1.14.81-1.47,1.55-1.19Zm-33.08.33a1,1,0,1,0,.94,1A1,1,0,0,0,77.15,149.75Zm-3.88,1.65a.84.84,0,0,0,0,1.68.84.84,0,0,0,0-1.68Zm39.36,1.42a1,1,0,1,0,1,1A1,1,0,0,0,112.63,152.82Zm-42.41.05,0,8.44,5.58-6.91-1.93.43L73,153.12l-1.2.78Zm35.42,1.94a1,1,0,1,0,1,1A.95.95,0,0,0,105.64,154.81Zm27.93,0-.91,1.57,2.59-1.45ZM109.42,156a1,1,0,1,0,1,.95A1,1,0,0,0,109.42,156Zm3.19,1-1.13,1.63-1.49-.49-.44,1.55-1.79-.06,5.81,5.1Zm-45.34.65a1,1,0,1,0,1,.95A.95.95,0,0,0,67.27,157.65Zm87.06,2.29V229.3H121.9l-13.62-19A25,25,0,0,1,109.44,200c1.33.93,4.25.43,4.15-3.18-.07-2.36-3.68-3.56-5.48-1.79.1-2.28,1-5.71,2.34-6.72.91.83,1.11,2.07,3.16,1.72a2.82,2.82,0,0,0,2-3.8,4.93,4.93,0,0,1-.25-1.48,9.28,9.28,0,0,0,0-1.49,10.62,10.62,0,0,1-.14-1.08c15.16-3.48,28.38-12.73,39.16-22.24Zm-80.43.28a1,1,0,1,0,.95,1A.95.95,0,0,0,73.9,160.22Zm-4.46.93a1,1,0,1,0,1,1A1,1,0,0,0,69.44,161.15Zm46.86.46a1,1,0,1,0,.94,1A1,1,0,0,0,116.3,161.61Zm-50.26,1-1.47,8.89L71,164.88l-1.75,0-.35-1.52-1.63.53Zm43.84,1.9a1,1,0,1,0,.94.95A.95.95,0,0,0,109.88,164.53Zm4.17,1a1,1,0,1,0,1,1A.95.95,0,0,0,114.05,165.56Zm-52,1.16a1,1,0,1,0,.94,1A1,1,0,0,0,62,166.72Zm55.79.72-1.54,1.18-1.42-.87-.33,1.89-1.21.64,5.07,3.58Zm3.75,2.54a1,1,0,1,0,1,1A.95.95,0,0,0,121.57,170ZM68,170.31a1,1,0,1,0,.94.95A.94.94,0,0,0,68,170.31Zm-4.21,1.24a1,1,0,1,0,.95,1A1,1,0,0,0,63.82,171.55Zm55.33,2.53a1,1,0,1,0,.94.95A.94.94,0,0,0,119.15,174.08Zm-4,.85a1,1,0,1,0,.94,1A1,1,0,0,0,115.18,174.93Zm-36.66,1.36s0,0,0,0a1.62,1.62,0,0,1,.15,1.42c-.15-.07-.83-.71-.66-.92s.41-.51.5-.51ZM57,177.79a7.38,7.38,0,0,1,1.12.13,5.19,5.19,0,0,1-.47,1.33,11.84,11.84,0,0,0-.17,9.24c2,4.23,7.53,14.23,7.12,15.15l-12.29.05,0-1.89c3.46-.13,4-2.26,3.14-4a3,3,0,0,0-3.8-1.28c-2.21.93-2.35,2-3.14,3.73l-.35-.45a3.84,3.84,0,0,0,.83-2.71c0-1-.08-.69.25-1.22a4.57,4.57,0,0,0,.67-4.79c-.23-1.67,5.75-12.3,7-13.27Zm-28.11.27c3.5,2.8,6.53,12.25,6.34,12.39a4.13,4.13,0,0,0,0,6,5.52,5.52,0,0,0,.38,2.68c-1.26,2.64-1.49,2.84-1.59,5,0,0-.22,0-1.39,0-5.8,0-6.07,7.4-.28,7.81.79.05,1.07-.13,1.54.35s.92,1.21,1.75.9a1.58,1.58,0,0,1,.85.49,2.44,2.44,0,0,0,2.51,1.1,4.83,4.83,0,0,1,1.27.32,2.21,2.21,0,0,0,2.08.4,1.23,1.23,0,0,1,.92,0,2.14,2.14,0,0,0,2-.1c.77-.41.95.25.91.85A2.64,2.64,0,0,0,48,219.41c2.78.87,4.19-.86,4.78-4.27.15-.75.28-1.64.28-1.64l9.31.24L49,229.3H25.77V178c1-.06,2.15,0,3.15,0Zm83.72,2.79c1.7.66,1.84,1.87.15,1.34a5.06,5.06,0,0,0-6.32,3.26,3.74,3.74,0,0,1-.31.87c-.38.46-.36,0-.25-1.31a4.7,4.7,0,0,1,4.43-4.57,7.45,7.45,0,0,1,2.3.41Zm-.84,1.84a3.07,3.07,0,0,1,2,.7c.64.7.45,1.17,0,1.15a4.93,4.93,0,0,0-6.37,3.13c-.7,1.8-.83.83-.52-.56a5.3,5.3,0,0,1,4.91-4.42Zm-16,.69a3.8,3.8,0,0,0-2.44.67c-.93.88-.16.89,1.51.31a6.18,6.18,0,0,1,3.38.19c.83.29,1.13.42,1.08.15C99.29,183.91,97.47,183.37,95.8,183.38Zm18.76,2.94c.42,1,.15,2.7-1.33,2.87-1.75.21-2.65-2.74.54-2.22-.42-1.18-1.84-.85-2.55-.56-1.44.64-2.41,2.06-3.3,4.67-.26.78-.45,1.19-.55,1.11a4.89,4.89,0,0,1,.14-2.79c.69-2.61,2.38-4.19,4.17-4.24a2.81,2.81,0,0,1,2.88,1.16Zm-25-1.13c-.16,0,.12.58.54,1.43a4.32,4.32,0,0,1,.39,1.21c0,.46.36.58.87.28s.7-.6,1.55-.22a2.3,2.3,0,0,0,2.31.26c.4-.24.66-.23,1.42,0,.92.24,1,.28,1.72,0a2.33,2.33,0,0,1,2.13.13c.2.24.08-.09.56-1.2.22-.51.53-1.13.44-1.31s-.91,0-1.77.26a3.3,3.3,0,0,1-1.81-.17,5.51,5.51,0,0,0-4.26.18c-.66.32-2.32-.12-4-.8a.14.14,0,0,0-.1,0Zm3.72,5.1a2.17,2.17,0,0,0-2,1.27c-.41,1,.29,2.89,1.35,3.05s.91-.44.43-.6c-.72-.24-1.57-1.28-1-2.19.38-.62,1.52-.62,2.31.15,1.6,1.55,3.43,1.65,3.78.31.11-.54-.3-1.25-.92-1.06a3.21,3.21,0,0,1-2.54-.44A2.53,2.53,0,0,0,93.33,190.29Zm16.88,4.91c4.07-.25,2.32,5.37,0,3.92-.84-.51-.46-2.4,1.77-2.37-2.19-1.72-3.68.38-3.15,2.73a19,19,0,0,0-1,3.06c-.5.94-.89-1.53-.39-3.93s1.31-3.33,2.75-3.41Zm-23.08.19c-.85,0,0,.92.15,1,2.54,2,3.78,3.26,1.74,2.59-3.32-.79-4.18.15-6.7,1.28-.47.22-.6.08-1.16-.09-2.22-.66-2.06.75.26,2,3.51,1.91,6.4,2.34,9.13.91,1.75-.93,1.84-.32.21.7-2.79,1.64-5.72,1.39-10.23-1.44-1.45-.91-1.66-.3-.17.66,3.4,2.07,8,3.95,11.73.89.73-.66.88-1,1.45-.71,1.49.75,1-.56,0-1.8-.36-.43-.63-.79-.6-1.08.08-1.07-.51-1.07-1-1s-.57-.19-1.36-1.06c-1.15-1.27-2.55-2.63-3.39-2.86Zm-34,5.7c-1.41.11-1.73.17-1.39,3.09.07.55.31,2.19.38,2.81.83,7.64.16,11-2,11.95a2.62,2.62,0,0,1-2.06,0c-1.34-.54-1.89-2.17-.92-4.12a11.62,11.62,0,0,0,.71-1.81c.12-.46.41-1.49.63-2.28a21.45,21.45,0,0,0,.5-7.61,5.22,5.22,0,0,1,.3-3.33c1-1.88,1.69-2.84,3.85-2.87,2.42.26,3.1,3.94,0,4.18Zm51.92-.17-.66,0c-.8-2.67-2.46-1.81-2.73.07h-.57c.1-3.56,4.53-2.6,4-.09Zm-62.06-2c4.51.45,5.33,1.58,5.69,7.08,0,2.65-.14,4.26-.55,4.86-.67.33-1.32-.28-2.28.33-.53.33-.43.36-.66,0a6.06,6.06,0,0,1,.38-2.86c.33-1.06-.23-1.69-1.72-3.05a5.57,5.57,0,0,1-1.13-1.62c-.77-2.11-1.17-1.18-.52.63.32.78.39,1.17-.58.83a1.84,1.84,0,0,0-1.51.27c-1.24.32-2.3-.36-1.23-.77a10.46,10.46,0,0,1,2.19-.61q.39,0,.39-.18c0-.53-2.39-.47-4.21.16-2.23,1-2.36.85-2.16-.76.53-4.09,4.31-4.59,7.9-4.32Zm44.11.36a2.15,2.15,0,0,1,2,2.41l-.55,0c-.26-2.13-2.25-2.22-2.78.16l-.8,0C85.52,200,86.35,199.32,87.14,199.28Zm13.41.05c.45.27.14,1-.35,1.15-.18.05-.76-.36-.62-.61a2,2,0,0,1,1-.54Zm5.17.36a.74.74,0,0,1,.78.59c0,.63-.46.5-.61.44-.32-.29-.44-1-.17-1Zm-15.81.5c.84.1,1.15,1.17.19,1.24C89.67,201.52,89.65,200.45,89.91,200.19Zm-5.15.12c.1,0-.05.88-.27,1-.41.25-.95,0-.93-.29,0-.64.81-.73,1.2-.72Zm14.75,2.13a8.35,8.35,0,0,0,5.68.52c.72-.27,1.29-.6,1.29-.29s-.57.81-1.6,1.1a5.29,5.29,0,0,1-5.11-.74c-.42-.31-.56-.59-.26-.59Zm-.66.92c2.61,1.54,5,1.69,7.09.57.86-.3.89,0,.89.53C103,207.85,98.22,204.33,98.85,203.36ZM34.73,205.7c-.65,1.32-1,4.56-2,5.52C25.46,210.8,30.1,201.21,34.73,205.7Zm44.72-1.08c-.4.22,0,1.25.6,1.53,5.52,2.39,8.35,2.68,11.49,1.58a3.18,3.18,0,0,0,2.08-2c.07-.62-.77-.68-2.24,0-4.47,1.77-7.28.39-10.9-1a1.46,1.46,0,0,0-1-.06Zm-21.13.08,0,8.11L53,212.72l.06-1.2,3.94.11L57,205.84l-4.57,0v-1.08l5.92,0Zm1.22,0h5.24l.27.82H59.54v-.83Zm-21.16,2.57a1,1,0,0,1-1.2.13c-.55-.56,0-1.6.9-1.6s1,.88.3,1.47ZM40.79,206c.8,0,1.06.75.46,1.36-.41.37-.62.4-1,.12A.89.89,0,0,1,40.79,206Zm-5.17.2a.52.52,0,0,1,.52.23c.49,1-1.1,1.68-1.43.94S35.08,206.19,35.62,206.17Zm29.66.11.3,1.05-6,0v-1Zm-21.64.3c.9.11.76,1,.34,1.43-.71.67-1.41.46-1.23-.44C42.87,207,43.23,206.59,43.64,206.58Zm-4.86,3c-.32,1.14.36,3.45.16,3.69-.44.53-1.15.26-1.47.08-1.09-.71-1.16-4.86-.1-5.1.68.34,1.13-.27,1.44-.36S38.92,208.36,38.78,209.58Zm16-1.71A1.09,1.09,0,1,1,53.68,209,1.09,1.09,0,0,1,54.76,207.87Zm4.78.14h6.18a1.27,1.27,0,0,1,.23,1.23H59.54V208Zm-18.16.14c.28,0,.42.61.23,1.31a8.21,8.21,0,0,0-.09,3.7c.16.52.31.87.22,1-.32.51-1.3.16-1.71-.51-1-1.9-.86-5.44.36-5.16C40.84,208.73,41.1,208.37,41.38,208.15Zm-5.45.48c-.3.48-.09,3.18-.12,3.4s-.8.14-1.23-.05c-1-.5-.76-1.76-.56-2.78.23-.8.74-.86,1.36-.93.34,0,.8,0,.55.36Zm8.41.15c.33,0,.38.24.3,1.24a8.34,8.34,0,0,0,0,2.18c.27,1.57.3,2-.09,2.3a1.22,1.22,0,0,1-1.57-.17c-1-.8-1.06-4.69-.28-5,.73.18,1.18-.4,1.6-.53ZM65.69,210l-.88,1.23H59.53V210ZM46.9,211.6c.82,0,.68,1.48.24,2.4-.38.56-.65.61-1.21.09S46.05,211.6,46.9,211.6Zm17.26.41-.75.69H59.55V212Z"/><path id="path3872-3-7-5" class="cls-1" d="M38.28,182.75l-6.41-5.07c7.62-.17,15.24,0,22.86.14l-7.61,5.47c-1.56-1.72-2.48-4-4.69-5.14C40.78,178.84,39.66,181.2,38.28,182.75Zm55.9-1.85c-.18-.11-.29-.36-.42-1.17-1.9-8.94-11.25-8.31-11.19-8-.07-.35,11.62-11,18.49-19.34,2.08,6.38,8.38,21,8.11,20.91,0,0-1.82,0-6.54-.11-4.3,2-7.29,3.86-7.15,6.62,0,1-.26,1.38-.58,1.29A7,7,0,0,1,94.18,180.9Zm21.3-28.7c6.08-.1,7.23-3.09,7.92-3.45,4-.67,6.47,2,8.22,4.76,2.23,1.36,1.95.1,2.42-2l5.56-1.64v1.78a28.73,28.73,0,0,0-4.27,3.33l-1.7-.1-1,1.3c-3.87,2.11-7.66,4.62-11.74,6.25,0,0-4.88-6.37-5.44-10.22Zm-75.78.56-.06-35.36c2.52-.18,7.15-.15,7.15-.15,1.93-3.45,4.58-5.07,7.3-7.07a118,118,0,0,1,.44,12.88c-7.21,8.87-11.21,19.78-6.77,36.1l-2.67-.3Zm39.83,2a123.36,123.36,0,0,0,4.31-22.58L97.56,132l.27,4.74Zm46.73-16.1L126,125.41c10-12.06,10.61-22.57,6.89-35.87,3.31.77,5,3.37,8.17,6.95V131c-2.19.33-7.62.65-7.62.65-.17,1.62-4.76,5.48-7.19,7ZM83.85,117.79,83.24,112l17.83-17.17c-1.47,7.44-3.25,15.08-3.77,23ZM54.27,99.57c-1.27.84-6-4.07-6.73-7.37C48.71,90.6,59,85.5,59,85.5s6,7.8,5.78,11.06c-2.67.72-5,.92-7,3.12C56.62,99.79,56.21,98.47,54.27,99.57ZM46.13,93c1.43.24.51,2.19.29,3.62l-7.58,2.27c2.6-2.25,4.45-4.16,7.29-5.89Zm24.7-17.26c1.56,0,3.19.6,4.39.12a4.36,4.36,0,0,1,2.33-.27c2.27.71,3.06-1.81,4.51-1.82,1.87,0,2.91-1.31,2.92-4,0-1.14.1-1.27.32-1.38a1,1,0,0,1,1.4.76C88,74,91.43,78.41,96.77,78.06c-4.25,4.37-17.19,17.8-17.19,17.8a131.47,131.47,0,0,0-8.75-20.15Zm55.05-4.19,7.8-5.7,4.66,5.72,4-5.45c2.37,1.71,7.76,5.53,7.76,5.53s-16.17.24-24.26-.1Z"/><path id="path3870-4-7-1" d="M130.31,19.82l-71.66.47L72.57,39c14.8-3,27.68-1.07,41,1.29Zm-1.84,1-4.77,6c-1.32-1.21-4.26-.77-3.84,1.86-3.66-1.91-4.43,3.34-1.33,3.13-.39,1-3.52,1.3-4.41-.57-3.21,1.82-4.2.06-5.05-1.09,4.09,2.8,6.08-2.95,1.58-3.28,1.77-3.6-4.54-5.24-4.17-.55-4.16-.95-3.2,4.95-.15,3.74-2,3-5.24,1-5.9.4-1.67,1.27-4.83,1.31-5.72-.71,4.63.94,4.12-5.21,0-3.79,2.19-4.72-5.1-4.09-3.33-.22-4.14-.16-3.23,5,.42,4.12-3.24,3.07-5.66.21-6.18.14-1.91,2.14-5.28,1-5.74-.29,3.3,1.31,4.38-4.28.22-3.94,1.07-3.6-4.92-4-3.6.05-3.3-.75-3.48,4.57.22,3.75.23,1.45-2.68,2.85-4.47,1.44-1.31.72-2.75,1.85-4.46.18,2.61-.42,3-4.85-1.17-3.89.2-2.72-1.35-2.87-3.26-2.18L60.3,20.86ZM79,27.46c-.23.5-.61.85-.52,1.24a4.79,4.79,0,0,0,.84,1.35c3.59,4.71,10.86,4.55,13-.31.44-.9.35-1.1-.19-1.87a1.13,1.13,0,1,1,1.7.07c-1.24,1.57,2.16,5.13,5.55,5.68,4.35.72,8.48-2.36,7.9-5.13,0-.15-.11-.3-.14-.47-.47-2.31,3.17-1.2,1.86.27-.49.53-.75.69-.69,1.28,1.06,4.9,7,5.41,9.78,3.9-3.63,6-9.38,1.37-10.39-2.8-5.1,7.41-11.22,5.87-14.63-.64.4.4-6.72,11.68-14.81.12-3.42,9.3-9.66,3-9.24,2.63,2.87,1.61,8.08,1,8.58-4,.07-.62-.39-.65-.66-1.14-1.36-2.46,3-2.48,2-.23Zm-13.47.61c.64.06.75.33.65,1Zm55.6,1.75L120.23,31C120,30.42,120,29.89,121.17,29.82Zm10.22.39c-2.23.1-3.95,3.2-3.84,7.34,0,2,.4,7.05.54,7.8.19,1,0,2.47-.38,2.62-1,.39-1.33.65-1.59,1.11a2.21,2.21,0,0,0,1.31,3.18c1,.44,2.31-.17,3.18-1.48a7,7,0,0,0,1-2.89,10.06,10.06,0,0,0,0-3.54c-.52-2.92-.14-6.56.86-8.27,1.79-3.07,1.76-5.08-.09-5.72a2.85,2.85,0,0,0-1-.15Zm-.12.47a1.82,1.82,0,0,1,1.09,3.42,1.91,1.91,0,0,1-1.92-.14c-.77-.45-.67.06.13.64s1.33.64.83,2.24a19.11,19.11,0,0,0-.46,6.53c.7,5,.11,7.49-2,8.36a1.86,1.86,0,0,1-2.42-1c-.45-1.31.34-2.42,2.31-2.11,0,0,.14-.42-.37-4.75-.71-6-.43-10.25.67-11.72A3,3,0,0,1,131.27,30.68Zm17.6,6.22a4,4,0,0,0-1.93.55s-.07,2.71-.15,3.13c-.44,2.29-.31,2.56.75,2.89a3.43,3.43,0,0,0,4.6-3.63A3.21,3.21,0,0,0,148.87,36.9Zm.35.36c1.4,0,2.68,1.62,2.54,3.18A2.8,2.8,0,0,1,148.32,43c-.47-.08-.95-.17-1.11-.52-.31-.5.2-.68,1.27-.67s1.39-.16,1.78-.82c.77-1.31-.22-3-1.48-2.66-.43.11-.49.3,0,.44,1.55.7,1,1.68.44,2.08s-1.69-.18-1.87-.57l.11-2.53a2.7,2.7,0,0,1,1.75-.5ZM133.35,49a4.43,4.43,0,0,0-.87.54,2.11,2.11,0,0,0-.45,2.32c.13.38.11.45-.36,1.07-1.35,1.77-1.52,2.65-.83,4.25.31.73.31.73,0,1.68a37.64,37.64,0,0,1-6.46,12,3.56,3.56,0,0,0-.58,1,3,3,0,0,0,1-.21c2.76-1.38,5.68-4.07,8.4-5.83-4.29,3.51-8.87,6.65-8.87,6.65l5.84.32c-1.46,1.51-27.09,23.4-20.28,62.66,8-2,11.72-5.34,16-9.18,0,3.16.11,11.67.14,11.67s-3.7-1.43-2.81,1.71c.54,1.72.81,6.08-.14,8.54,0,.1.41.27.37.36s-.61.12-.61.12c-1.45,2.73-5.19,3.33-7,3.24-.68-.06-.4.88-.31,1.22.34,1.4,2,4.41,5,9.25l.79.11-.46.42a20.07,20.07,0,0,0,1.3,1.88l0,.41s1.65,2.31,2.53,3.4c.06.07.2-.1.26,0,.49.59,1.08,1.26,1.58,1.85,0,0-.08.22,0,.26.94,1,2.79,3.11,2.79,3.11l.36-.08,1.45,1.64c12-5.51,24.62-17.72,24.49-17.7l.11-26.27-14.26,0-.06-34.81,14.24,14.19-.09-4.07c-3.23-3.09-16.21-16.3-16.21-16.3a15.86,15.86,0,0,0,5.49-1.85,16.06,16.06,0,0,0,10.2,2.24l0-3.86A12.62,12.62,0,0,1,146,83.71l-2.65-.09c-4.92,3.76-8.39,2-12.12,1.27l-2.59-3.74L155.09,81l-.19-9.1-4,.09-2.61-1.94,3,1.29a3.74,3.74,0,0,0-.65-1.46,61,61,0,0,1-4.94-10.08c-.6-1.75-.6-1.68-.09-2.7a3.72,3.72,0,0,0-.37-4.08c-.65-.68-.63-.82-.42-1.32a1.79,1.79,0,0,0-1.22-2.61c-4.43,1.72-10.37-.05-10.26-.1Zm10.3.72c.89,0,1,.39,1,1.05-.08,1.22-1.65,1.66-2.36,1.83-3.4.78-9.32.32-9.71-1.28-.28-1.17.45-1.82,2.86-1.24C139.3,50.92,141.7,50,143.65,49.72Zm-11,3.39a1.08,1.08,0,0,1,.9,1,3.79,3.79,0,0,1-.86,2.34c-1.08.85-2.05-.47-1.33-1.91.42-.82.84-1.37,1.29-1.38Zm11.6.17a1.26,1.26,0,0,1,.64.17c.85.61.93,2.72.13,3s-1.57-.55-1.57-1.89c0-.82.31-1.32.8-1.31Zm-2.72.44a1.26,1.26,0,0,1,.55.11c.71.34,1.06,2.55.35,3.26a1.24,1.24,0,0,1-2.07-.62c-.41-1.36.23-2.71,1.17-2.75Zm-6,.06c1.05,0,1.29,2.35.26,3.31-.85.81-2.16,0-1.75-1.58C134.25,54.71,134.72,53.84,135.53,53.78Zm3,.37c1.53.27,1.4,4-.6,3.66C136.76,57,136.79,54.21,138.5,54.15Zm-6.68,4,2.16.21c-.06,0-3.44,7.2-6.46,9.12a57.61,57.61,0,0,0,4.3-9.33Zm13,0a104.26,104.26,0,0,0,4.28,10.3c-2.62-2.54-4.93-6.45-7.07-10.12Zm-10.16.33,1.44,0a11,11,0,0,0,2.26,4.8,22,22,0,0,0,1.89-4.67l1.13,0c.44.26-1.33,6.88-3.07,7.69C136.42,64.87,134.87,60.81,134.61,58.56Zm-.6,1.57c-.12.15,2.22,5.83,4.2,7.64a15.35,15.35,0,0,0,3.86-7.1l6.14,8.69-6-4.13a30.08,30.08,0,0,1-4,5.51,71.7,71.7,0,0,1-4.56-5.94c-2.31,1.72-3.93,3.57-6.93,5.18C126.76,70,132.63,63.6,134,60.13Zm-.57,6.17,4.17,5.15-11.12-.16Zm9,.08,7,4.87L139,71.36Zm-55.92,2.4a3.67,3.67,0,0,0,.13.49c1.25,5.13,4.68,9.38,9.85,8.88l-17,17.12a99.85,99.85,0,0,0-8.49-19.44l1.84.38a4.43,4.43,0,0,0,1.91-.07c.43-.07.77-.35,1.15-.44a3.87,3.87,0,0,1,1.92.26c1.16.22,2-.44,3.42-1.74.39-.35.54-.26,1-.26,1.83,0,3-1.58,2.79-4L85,68.83l-.23,1.23c-.44,2.31-.74,3.31-3,3.41-.55,0-.75.39-1.62,1.15-1.22,1-2.08,1.14-2.94.73s-1-.17-1.8.22a5.32,5.32,0,0,1-3.58.05c-1.75-.51-1.53-.34-1.53-.34C80.4,93.4,84,110.78,83.73,126.22a99.35,99.35,0,0,1-14.65,50.45s1.15-.12,2.17-.27a2.07,2.07,0,0,1,1.36.16,2.44,2.44,0,0,0,1.25.11,9.06,9.06,0,0,1,1.74.08c1.25.18,1.33,0,2.68-1.31,3.84-3.76,3.59-3.62,6.38-3.53,4.17.14,7.51,2.91,8.9,7.42.18.57.41,1.36.44,1.36l-.27-1.19c-1.22-6-6.34-8.24-10.62-8.16l18-18.23c-.09,0,4.18,13.87,7.91,20a7.14,7.14,0,0,0-3.21-.23,11.16,11.16,0,0,1-3.1-.12c-.91,0-1.47.25-2.6,1.19a6.13,6.13,0,0,1-1.82,1.25c-2.2.93-3.07,1.9-3.08,4.32,0,.44-.07,1-.06,1.23a.62.62,0,0,0,0,.16s.09-.09.13-.16a4.25,4.25,0,0,0,.5-1.61c.3-1.82.68-2.45,2.39-3.25a14.65,14.65,0,0,0,2.06-1.29c1.57-1.26,2.09-1.55,3.37-1.25a5.9,5.9,0,0,0,2.31.14,4.56,4.56,0,0,1,2.47.12c.84.22,1.88.43,1.88.43-17.49-35.39-16.91-68.21.35-101.5,0,0-5.11.06-5.33.19a4.5,4.5,0,0,1-1.38-.12c-1.39-.26-1.09-.09-4.37,3.24-4,4.11-10.54.83-12.5-6.07a3.05,3.05,0,0,0-.34-.83,2.12,2.12,0,0,0-.18-.22Zm16.53,4c.75.08,1.31.28,1.22,1L80.23,97.59l-.38-1.53Zm5.08.14c-.3.59-1.1,1.33-1.45,1.89L108,76.5l-.73,1.33-2-1.71-3.84,3.81,3.2,3.62-3,3.08-1-1.15,1.61-1.69-2.49-2.34-4.38,4.28,3.57,3.66L96.3,91.92l-1-1,1.37-1.53L94.3,87l-4.07,4.19,3.22,3.62L91,97.28l-1.1-1.13,1.19-1.26-2.3-2.44-4.16,4.13L88,100.27l-2.48,2.23-.87-.93,1.2-1.3-2.27-2.44L81,100.19l-.43-1.62L106,73Zm1.47.38-1.08,2.17-.83-.92,1.09-1.12Zm-60.15.14c-.66.16-15.84,8.69-24.49,18.05L25,95l-.32.42.15,5.4.22.28.07,2.21-.34.58v6l.46.08.07,7.39,14.2,0v35.33s-8.34-9.24-14.35-14.69l0,4.13L41,158.77a12.51,12.51,0,0,0-4.66,1.61,17.6,17.6,0,0,0-11.11-2.25l0,4.21a15.62,15.62,0,0,1,11.18,2.86c3.28-2.24,7.23-3.61,13.12-1.83A39.15,39.15,0,0,0,53.49,169l-28.13.21,0,8.52c1.25,0,4.37,0,4.37,0,1.58,3.13,4.69,7.39,6,12.76-1.77,2.14-1.63,3.87.09,6,0,1-.3,2.05.78,3.14,3.58-1.76,7.62-1,10.63-.08,1,.3,1.4-.87,1.37-2.34-.09-.84-.09-1.2.55-1.76,1.53-1.34.58-4.09.34-4.15-.09-2.41,7.57-14.47,7.58-14.25l-1.53.55-6.55,0c17.23-16.73,24.42-35.83,22.92-57.39a34.34,34.34,0,0,0-1.18-7.92c-6.06,2.72-11,4.7-15.89,9.92L54.54,111a2.42,2.42,0,0,0,2.87.34c.55-.36.61-.75.1-2.12-.74-2-.92-6.22-.37-7.66a6,6,0,0,0,.17-1.06c.06-.59-.07-.62-.12-.61.14,0,.73.08.8,0a11,11,0,0,1,7-3.1l.07-1.34c-2-5.14-3.73-7.16-5.55-10a2.24,2.24,0,0,0-.85-.11l.42-.44c-2.57-4.11-6.22-7.84-9.57-11.39,0,0,0,0,0,0Zm-.11.7,1.82,1.69A96.73,96.73,0,0,0,25.5,94.62l.12-3.07A108.83,108.83,0,0,1,49.38,74.19Zm55.79,3.07,1.09,1.1-1.51,1.77,1,1-.55,1.35-2.52-2.64Zm-54.23.14a1,1,0,1,1-1,1A1,1,0,0,1,50.94,77.4Zm74.34,1.44c17.71,19.87,8.61,48.75-15,55.68l-.26-1.63c23.85-8.1,29.44-35.19,14-52.22ZM54,79l1.13,1.32c-10.1,4.86-20,12.14-29.47,22.65l-.09-2.65A101.18,101.18,0,0,1,54,79Zm-6.52.41a1,1,0,1,1-1,1.05A1,1,0,0,1,47.49,79.38Zm-3.15,2a1,1,0,1,1-1,1A1,1,0,0,1,44.34,81.34Zm10.5.69a1,1,0,1,1-1,1A1,1,0,0,1,54.84,82Zm45,.72,1,1.1-1.64,1.66L101.56,88l2.25-2.19L102.68,89,82.85,109l-.42-2.09L84,105.34l-2.39-2.4-.42-1.61,2.36-2.22,1,1-1.38,1.6,2.22,2.2,4-3.73-3.32-3.68,2.74-2.67,1,.93-1.31,1.36,2.31,2.52,4.12-4-3.38-3.62,2.72-2.7,1,1L93.87,91l2.35,2.29,4-4-3.32-3.52Zm-58.58.7a1,1,0,1,1-1,1A1,1,0,0,1,41.25,83.45Zm16.33.2L58.37,85C46.35,91.1,38,97.23,25.74,111.31v-1.77A96.11,96.11,0,0,1,57.58,83.65Zm-6,.16a1,1,0,1,1-1,1A1,1,0,0,1,51.55,83.81Zm93,.4c2.12,1.9,6.57,3.8,9.44,3.6l.08,2.28c-5,.48-9.38-2.75-9.38-2.75A14.71,14.71,0,0,1,132.81,89l-1.57-3.39c6.07,2.83,11.76.13,13.3-1.38Zm-23.95.62a3.56,3.56,0,0,0,1,.89c4.67-1.22,6.12,3.63,4,6.4l.62,2a5.47,5.47,0,0,1,2.15.87,3.9,3.9,0,0,1,1.62,3.61c.16,1.56-2.16,3-2.28,2.91l0,2.23a8.75,8.75,0,0,1,1.94,1.86,3.51,3.51,0,0,1-1,5,3.69,3.69,0,0,1-2.18.71l-1.08,2.54a3,3,0,0,1,1.36,2.12,4,4,0,0,1-1.91,4,5.22,5.22,0,0,1-3.71.1l-1.53,1.54a5.27,5.27,0,0,1,.29,2.92,3.79,3.79,0,0,1-4.15,2.55,4.09,4.09,0,0,1-2.23-1l-1.7.66s0,2.16-.83,2.83a11.37,11.37,0,0,1-1.22.9l-.23-1.49a3,3,0,0,0,1-2.54l3.66-1.81a3.54,3.54,0,0,0,1.69,1.26,2.41,2.41,0,0,0,2.88-2.12c0-.76-.44-1.28-.56-1.89l3.11-3.25c1.29.45,2.19.53,2.77.19A2.55,2.55,0,0,0,125,116a3.81,3.81,0,0,0-1.12-1.62l1.73-4.42a3.14,3.14,0,0,0,1.94-.55,2.39,2.39,0,0,0,.57-3.29,2.48,2.48,0,0,0-1.71-1.11l.13-4.59s1.75-.85,1.94-1.88c.28-1.51-.35-2.47-2.19-2.89-1-.24-1,0-1,0l-1.46-4.16c2.31-1.41,1.58-3.67.41-4.42a3.6,3.6,0,0,0-3-.06s-.79-.79-1.39-1.43ZM59,85.67a49.19,49.19,0,0,1,5.51,9.84,5.63,5.63,0,0,1,0,1c-4.09.36-5.49,2-7,3.11-1.12-.58-1.6-1.26-3.63,0,0,.06-5.19-3.16-6.19-7.53A116.81,116.81,0,0,1,59,85.67Zm-20.75,0a1,1,0,1,1-1,1A1,1,0,0,1,38.21,85.7Zm9.83.21a1,1,0,1,1-1,1A1,1,0,0,1,48,85.91Zm70.88,1.28C120.71,89.56,123.4,94,124,98c.9,5.58.3,11.44-2.24,15.53-4.61,8.74-12.59,10.6-12.6,10.91l-.08-1.79c.08.4,6.1-2.16,10.21-7.94a23,23,0,0,0,3.48-13.88c-.3-6.3-4.73-12.1-4.77-12.12ZM35,88a1,1,0,1,1-1,1A1,1,0,0,1,35,88Zm9.81,0a1,1,0,1,1-1,1A1,1,0,0,1,44.79,88.06Zm88.44,1.76c2.3.25,5.11,4.45,7.67,6.85l0,34.24-7.64.16c-1,2.41-3.31,4.79-7,7.14V125.38c12.53-13.54,9.12-28.36,6.93-35.56Zm-101.06.39a1,1,0,1,1-1,1A1,1,0,0,1,32.17,90.21Zm9.44.18a1,1,0,0,1,0,2.09,1,1,0,0,1,0-2.09Zm97,.09,15.62,15.87-.05,2.33-17.61-18ZM47.34,92l.41,2c-.5-.8-.52-1.09-1.4-1.23Zm-8.46.58a1,1,0,1,1-1,1A1,1,0,0,1,38.88,92.55Zm-9.35.29a1,1,0,1,1-1,1A1,1,0,0,1,29.53,92.84Zm87.89,0L120.5,95l-1,4-3.16-2.86Zm-71.27.32.54.33-.63,2.72L39,98.79a53.65,53.65,0,0,1,7.19-5.63Zm1.16,1.27a36.28,36.28,0,0,0,2.94,7.51c-.91.47-4.19,2.34-4.18,3.21.46,1.57,3.92,3,3.92,3a39.64,39.64,0,0,0-3.57,7.58c-.6-1-.66-5,.61-6.69a15.85,15.85,0,0,1-4.28-2.82c.84-3,4.43-4.8,4.59-4.82-.06.15-1.06-6.28,0-7Zm-11.53.5a1,1,0,1,1-1,1A1,1,0,0,1,35.78,94.93Zm79.08.09c4.61,8.65,1.87,16.17-5.48,21.56l.17-2c5.07-3.71,8.35-11,4.65-18ZM27,95.27a1,1,0,1,1-1,1A1,1,0,0,1,27,95.27Zm73.73,0a105.11,105.11,0,0,0-3.69,22l-13.13.11-.51-4.58Zm-52.45.35s2.84,2.67,5.4,5l-.31.6-2.48.34A48.88,48.88,0,0,1,48.31,95.67ZM46,97.07h0l.16,1.9C45.27,98.93,36,102.82,29,109a21.88,21.88,0,0,1,4.56-5.21C37.18,100.19,46,97.07,46,97.07Zm-13.13.43a1,1,0,1,1-1,1A1,1,0,0,1,32.82,97.5Zm5.82,1.19.52.54-2.45,1.28Zm17.08.56h.1a1.34,1.34,0,0,1,.76.41,5.67,5.67,0,0,0-1.4-.13.75.75,0,0,1,.54-.28Zm-9.38.39.23,1.41c-5.32,3-11.64,5.93-20.83,14.69v-2.92A66.26,66.26,0,0,1,46.34,99.64Zm7.15.13a1.83,1.83,0,0,0,.93,0s-.2.39-.42.4-.51-.41-.51-.41Zm2.25.08c.67,0,1.13.58,1,1.37a16.8,16.8,0,0,0,.06,7.31c.43,1.49.54,2,.18,2.26-3.13,2.17-4.85-7.64-2.23-10.43a1.68,1.68,0,0,1,1-.51Zm-25.57.35a1,1,0,0,1,0,2.09,1,1,0,0,1,0-2.09Zm90,.24,2,3.29-2.71,3.06-1.65-3.55Zm-67,1.79-.1,1.13a10,10,0,0,0-3.67,1.94c-.2.17,3.24,1.74,3.6,1.38v1.21c-.05.4-5.69-1.41-6.07-2.76.64-.9,4.21-3,6.25-2.9Zm-25.7.6a1,1,0,1,1-1,1A1,1,0,0,1,27.44,102.83Zm15.4,1.2a8.44,8.44,0,0,0-1.11,2.9c-3.87,2.37-7.84,4.58-12.68,10h-2.6l-.06-.69A71.15,71.15,0,0,1,42.84,104Zm10,.33,0,1.43a4,4,0,0,1-2.07-.63,3.77,3.77,0,0,1,2-.8Zm29.15.15.72.77-.45.43Zm-39.25,3,1.44.9a39.75,39.75,0,0,0-10.95,8.56H30.37c3.59-3.92,7.45-7.43,12.35-9.46Zm76.5,1,.28,3.88-3.6,2,.07-4.1Zm-68.51,0,2.48.27.26,1.06a38.35,38.35,0,0,0-5.62,4.52A22.15,22.15,0,0,1,50.71,108.53Zm-5.94.42,1.07.49-.42,1.83a27.91,27.91,0,0,0-8.05,5.67H34.46a41.68,41.68,0,0,1,10.31-8ZM54,110.67h0l.39,12c-10.7,12.63-10.12,24.84-7,35.92l-2-.1a71.28,71.28,0,0,0-5.53-6V117.62l7.38,0c1.74-4,6.53-6.94,6.8-7Zm-8.71,1.68.09,1.6a21.32,21.32,0,0,0-3.94,3H38.66C40.58,115.15,42.48,113.34,45.28,112.35Zm25.16.78.4,1.89c-24.83,9-29.32,35.38-14.66,53.46l-1,1.12C38.35,151.38,45.73,121.62,70.44,113.13Zm-25,1.89s.13,1.44.18,1.92H42.87A4.87,4.87,0,0,1,45.48,115Zm69.89.6-1.6,3.76-4.27.07,1.94-3.76Zm-27,2.58h3.89v3.74H88.34Zm-16.85.37.07,1.64c-1.73.89-1.3,2.3-1.73,2.28A29.54,29.54,0,0,0,66,124.26a2.46,2.46,0,0,0-3-.24,2.9,2.9,0,0,0-.81,3l-3,3.5c-1.44-.61-2.84-.58-3.53.39s-.49,2.44.81,3.95l-1.62,4.19c-.19-.25-2.9.55-2.94,2.18s2.25,2.83,2.24,3l-.11,4.62c-.1-.23-2.32.69-2,2.9.28,2,3,1.79,3.09,2l1.49,4.42c-.1-.13-2,1.77-.84,3.57,1,1.5,3.84.53,3.82.43l.79,1.13-.88,1s-.38-.46-.59-.42a4.28,4.28,0,0,1-4.41-1.4c-1.22-1.89.14-4.84.57-4.82l-1-2.55a3.78,3.78,0,0,1-3.55-3.13,4.43,4.43,0,0,1,2.24-4.18l.07-2.76a4,4,0,0,1-2.32-3.26A4.47,4.47,0,0,1,53,138.14l1-.49.93-2.26a6,6,0,0,1-1-3.86c.64-2.93,4.43-2.73,5-2.44l1.76-2.22a3.62,3.62,0,0,1,2.58-4.77,14.19,14.19,0,0,1,3.31.44l2.25-1.17c0-1.24,1.31-2.05,2.55-2.8Zm12.81,4.1h3.34v3.75H84.3Zm8.89,0H97v3.75H93.19Zm-21.43.94,0,1.43C50.19,135.57,59,157.36,62.07,159.89l-.7,1.54C57.6,159.12,47.85,134,71.76,123.61Zm16.58,3.79h4l0,3.86h-4Zm-17.51,1.88-1.29,3.51-4,.33,1.46-3.5Zm80.79,2.57h2.71c-5.06,6-10.52,10-15.91,12.25a2.68,2.68,0,0,1,.15-1,2.92,2.92,0,0,0-.08-1.17,38.48,38.48,0,0,0,13.13-10.14Zm-13.86.05a8.79,8.79,0,0,1-2.48,2.13l-.39-2.17C135.72,131.85,137.76,131.9,137.76,131.9Zm4.76-.05c.27.69-7.1,4.71-7.13,4.37l0-1.34,4-3Zm1.59,0h2.09c-1.87,3-11.79,8.39-11.37,7.63l.39-2.18a44.42,44.42,0,0,0,8.89-5.46Zm3.5,0h2.73c-4.11,5.26-8.28,7.18-12.27,9.44a2.07,2.07,0,0,0-.88-.1l-1.37-1.08C136.07,140.36,145,135.08,147.61,131.85ZM71.19,132l-.09,1.59c-5.75,5-8,11.35-5.06,18.74l-.71,1.57c-3.22-7.88-2.27-15.54,5.86-21.9Zm26.18.25.3,4.28L79.83,154.08A128.42,128.42,0,0,0,84,132.31Zm57.14,1v2.39c-7,7.81-14.13,11.31-20.25,12.72l-.14-.91,2.83-1.76c9.15-4,13.15-8.06,17.55-12.44Zm-21.35.07c.12,1.72-1.4,5-3.13,6.8h-3l-.33-1.3a19.09,19.09,0,0,0,6.44-5.49Zm.9.51c1.09,1.77-.55,6.36-.62,6.18-.13.32,9.35,2.34-.39,7.06.22,1.39,1.13,4.36.42,6.19-.21-.7-1.91-5.46-3.22-6.68,3-.87,5.23-2.75,5-3.36-.5-.88-1.86-2-4.15-2.75a16.88,16.88,0,0,0,3-6.64Zm-69.63.87.31,3.62-3.47,2.1-.26-4Zm60.25,3.36a.91.91,0,0,1,.65.21c1.71.7,1.83,9.11.28,10a1.22,1.22,0,0,1-1.88-.63,25.17,25.17,0,0,0,0-9c0-.4.53-.58,1-.57Zm29.83.12v3c-10.06,10.51-20.89,18.8-31.95,23.45l-1-1.73A100.44,100.44,0,0,0,154.51,138.22Zm-1.76.28c-4.66,6.53-10.34,10.8-18.11,12.74l-.15-1.86C144.17,147.16,153,138.5,152.75,138.5ZM26,139.56C32,145.81,38.26,152,44.43,158.42l-2.45.13L25.9,141.73Zm72.23.31.21,1.54-1.76,2,2.79,3,.14.71-2.4,2.52-1.08-1.08,1.33-1.5-2.25-2.38-4.17,4,3.43,3.76L91.85,155l-1-1.07,1.32-1.54-2.3-2.45-4.25,4.26,3.22,3.58-2.15,2.4-1-1.08,1.1-1.28-2.33-2.42-4.08,4,3.36,3.75L81,165.81l-1.06-1,1.53-1.68-2.52-2.42-2,1.93s.77-1.91.88-2.24.83-.85,5.08-5.07c5.07-5.09,10.27-9.86,15.34-15.42Zm29.09,1a14.29,14.29,0,0,1,5.23,1c2.27,1.21,1.56,2.16.08,2.87a11.83,11.83,0,0,1-5.21,1.32l.06-1a13.52,13.52,0,0,0,3.39-1.13,2.44,2.44,0,0,0,.88-.71,5.22,5.22,0,0,0-1.78-1.11,14.8,14.8,0,0,0-2.56-.39Zm-66.35,1.3L62.8,145l-2.21,3.73-2.12-3.22Zm37.65.3c.07.53.74,2.6.39,2.2l-1.24-1.41Zm28.82.28a8.82,8.82,0,0,1,2.87.49,6,6,0,0,1-2.85,1Zm25.9,1.41a1.14,1.14,0,1,1-1.13,1.14A1.13,1.13,0,0,1,153.31,144.19Zm-58.25,2,1,.94-1.24,1.46L97,151l2.79-2.64.37,1.67L74,176l-1.45-.11,1.66-2-1.89-2,.78-1.4,2.23,2,4.09-4-3.31-3.51L79,162.12l1.07.93-1.62,1.78,2.36,2.44L85.06,163l-3.35-3.67,2.67-2.57,1,.93L84.12,159l2.44,2.57,3.61-3.79-3.28-3.65,2.91-2.86.9.9-1.35,1.52,2.46,2.56,3.94-4.08-3.25-3.55Zm55.63.68a1.14,1.14,0,1,1-1.13,1.13A1.13,1.13,0,0,1,150.69,146.84Zm-21.28,0a12.43,12.43,0,0,1,3.06,7,21.1,21.1,0,0,0-5.6-5.77l.41-1.06Zm25.1.17v2.54a86,86,0,0,1-27.44,20.64l-1.69-2.06C137.08,162.91,145.54,156.38,154.51,147.06Zm-11.67,1.77-3.21,2.52v-1.09l3.22-1.43Zm-16.57.19a13,13,0,0,1,6.4,7,120.91,120.91,0,0,1-11.75,6.18,53.9,53.9,0,0,1-5.25-9.82c6,0,7.69-3.37,7.73-3.39,1.45.55,1.76.62,2.87,0Zm21.66.49a1.17,1.17,0,0,1,1.15,1.1,1.13,1.13,0,1,1-2.26,0c.12-.79.62-1.11,1.11-1.1Zm-8.34.75v1.1c-1.54,1.36-4.53,3.56-4.53,3.56l-1.24-.06.4-3.12a46.92,46.92,0,0,0,5.36-1.48Zm-78.76.13,3,2.45-.9,3.79L60,154.41Zm39.66.72.27,1.1L76.5,176.38l-1.38-.22Zm44.75.93a1.14,1.14,0,1,1-1.12,1.14A1.13,1.13,0,0,1,145.24,152Zm9,0c.14,0,.29,0,.29.12v2.09a1,1,0,0,1-.38.07,1.06,1.06,0,0,1-1-1.14A1.14,1.14,0,0,1,154.2,152Zm-2.74,2.54a1.14,1.14,0,1,1-1.12,1.14A1.13,1.13,0,0,1,151.46,154.57Zm-9.48,0a1.14,1.14,0,1,1-1.13,1.14A1.14,1.14,0,0,1,142,154.58Zm-8.16.35,1.16,0-2.15,1.3a9.33,9.33,0,0,0,1-1.34Zm20.69.54v2.33a90,90,0,0,1-23.27,17l-1.36-1.4A87.52,87.52,0,0,0,154.51,155.47Zm-15.76,1.27a1.14,1.14,0,1,1-1.13,1.14A1.14,1.14,0,0,1,138.75,156.74Zm10,.09a1.14,1.14,0,1,1-1.13,1.13A1.13,1.13,0,0,1,148.78,156.83ZM36.39,161.39c3.83-2.24,6.91-2.5,11.29-1.82l1.31,2.6c-4.27-.76-8.77-.69-12.62,2.3-4-2.54-7-3.27-10.29-2.86L26,158.86a14.65,14.65,0,0,1,10.37,2.53Zm99.25-2.48a1.14,1.14,0,1,1-1.13,1.14A1.14,1.14,0,0,1,135.64,158.91Zm10.32.47a1.14,1.14,0,1,1-1.13,1.14A1.14,1.14,0,0,1,146,159.38Zm-13.71,1.7a1.14,1.14,0,1,1-1.13,1.14A1.13,1.13,0,0,1,132.25,161.08Zm10.52.66a1.14,1.14,0,1,1-1.13,1.14A1.14,1.14,0,0,1,142.77,161.74Zm-14,1.35a1.16,1.16,0,1,1-1.15,1.15A1.15,1.15,0,0,1,128.77,163.09Zm11,1a1.14,1.14,0,1,1-1.13,1.13A1.14,1.14,0,0,1,139.75,164.05Zm-14.33.78a1.14,1.14,0,1,1-1.13,1.14A1.13,1.13,0,0,1,125.42,164.83Zm-49.89,1,2.81,2.59-2.91,2.94-1.06-1,1.62-1.7-1.1-1.49Zm61.11.25a1.14,1.14,0,1,1-1.13,1.14A1.14,1.14,0,0,1,136.64,166.11ZM133.39,168a1.14,1.14,0,0,1,0,2.27,1.14,1.14,0,0,1,0-2.27ZM129.86,170a1.14,1.14,0,1,1-1.13,1.14A1.14,1.14,0,0,1,129.86,170Zm-58,3.22.91.75-1.44,1.75-1.09,0ZM54.09,177.9a27.45,27.45,0,0,0-7,4.56L43.94,178Zm-21.77,0,8.52.12-2.83,4A17.15,17.15,0,0,0,32.32,177.93Zm10.15.44c.92.29,3.34,3.76,4.47,5.66,2.43-1.94,4.8-4.11,7.39-5.28a57.16,57.16,0,0,0-7.7,9.94c-.55-1.48-2.06-5.71-4-7.54a17.64,17.64,0,0,0-4.23,6.28,54.91,54.91,0,0,0-5.86-8.22c-.37-.51,2.76,1.46,5.87,4.5.87-2.22,3.21-5.25,4-5.34Zm-10.23,2.18c1.46,1.17,5.44,6.32,5.9,9.41l-1.91.12c-1-3.18-2.71-6.35-4-9.53Zm21.18.53c-1.44,3-3.23,6-4.51,9.31L47,190.31C49.09,185.77,49.84,184.94,53.42,181.08ZM42.63,182.4h0a17.81,17.81,0,0,1,3.17,7.77l-1.39-.06a26.45,26.45,0,0,0-1.62-4c-.43-.63-.77-.55-1.08,0A17.62,17.62,0,0,0,40.43,190l-1.59-.12c-.3-2.2,3.23-7.38,3.79-7.44Zm-.25,8.48c.64,0,1.32.72,1.31,2,.05.58-.39,1.87-.88,1.94-.9.48-2-1-1.7-2.27.23-1.07.7-1.63,1.27-1.63Zm-3.14.24c1.28.11,1.56,3,1,3.59a1.52,1.52,0,0,1-2.32-.85C37.45,192.54,38.38,191.13,39.24,191.12Zm6.31,0c1.39.2,1,3.37.32,3.84-1.12.59-2-.4-1.6-1.9C44.58,191.84,45,191.13,45.55,191.1Zm3.21.53c1.6.18.68,3,0,3.54-1,.79-2-.39-1.5-1.81.37-1.1,1-1.74,1.52-1.73Zm-12.87.08c1.16.19,1.83,2.84,1.14,3.59-.36.44-1.41-.2-1.88-.92C34.57,193.51,35.11,191.71,35.89,191.71Zm12.35,5.77c.14,1.39-.9,1.38-3.9.71a17.49,17.49,0,0,0-5.56.12c-2.31.42-2.63.26-2.63-.68,0-1.1,1.3-1.72,4.29-1.82C42.58,195.75,47.91,195.72,48.24,197.48Zm4.66-.82c-3.57.34-4.52,4.85-4.12,6.51a21.76,21.76,0,0,1-.36,7.61,23,23,0,0,1-1.33,4.09c-.94,1.88-.7,3.28.7,4a2.81,2.81,0,0,0,3.43-.55c1.59-1.72,1.78-5.39.81-13.7-.35-2.94-.16-3.52,1.25-3.36,3,0,2.84-4.63-.38-4.63Zm-.43,3.79c-.8-.31-1.34.42-1.23,2.24,0,.81.17,1.71.27,2.44,1.15,8,.72,13.32-1.71,13.58-2.11.34-3.55-1.23-2.52-2.85.59-.92,1.09-1,2.23-.56,1.56,1,1.17-.45-.23-1.5-.91-.64-1-.64-.49-2.65a23.39,23.39,0,0,0,.63-8.09c-.33-2.43.47-5.66,3.54-5.84A1.7,1.7,0,1,1,52.47,200.45ZM30.57,211a3.43,3.43,0,0,0,3,0,18.94,18.94,0,0,1,1.53-5.41,3.75,3.75,0,0,0-5.95.84A3.34,3.34,0,0,0,30.57,211Zm3-5.89c1.15.24,1,1.45-.1,1.06-2.56-1.22-4.66,2.44-2.58,3.82,1.05.6,1.52.26.47-.56-.43-.5-.32-.7-.06-1.2.54-1,2.49-.84,2.35-.11-.44,2.32-.74,3-1.43,3-4,.21-4.73-7.31,1.35-6Zm33.84,4.17s-11.86,13.53-17.58,20.45l71.64-.33-13.63-19C96.16,213.12,82.42,212.33,67.43,209.24Zm-.35,4.32c1.79,0,3.82,1.33,5.58,5.7.1,0,7.88-11.92,14.62.46,1.1-2.78,7.45-10,14.78-.72,2.61-6.23,8.62-4.12,9.18-1.95-.12-.47-5.72-1.81-8.15,2.32a1.82,1.82,0,0,0,0,2.19,1.19,1.19,0,1,1-1.48,1.87,1.18,1.18,0,0,1-.2-1.69c1.22-.92-1.27-3.76-3.33-4.79-2.81-1.4-6.74-.78-8.62,1.23A6.52,6.52,0,0,0,87.71,221a.76.76,0,0,0,.18.79c.82,1,.28,2.36-.82,2.2-1.46-.22-1.26-1.59-.29-2.34.3-.14.18-.32.09-.58-2.65-7.52-12.52-6.08-13.59-.88a1.48,1.48,0,0,0-.08.59c.11.5.4.92.29,1.31a1.28,1.28,0,0,1-2.53-.19c0-.6.6-.78.92-1.33a1.24,1.24,0,0,0,.09-1.15c-2.67-5.65-7.27-4.47-9.55-3.19,0,0,2-2.72,4.66-2.69Zm-3,3.28a3.38,3.38,0,0,1,2.7,1.42c2.81-1.49,4.8,1.09,4.47,1.34-4-2.59-5.26,3.46-1.35,3.23-1.72,3.59,4.42,5.12,3.73.54,3.79,1.33,4.42-3.91.58-3.83,1.24-2.17,4.46-1.57,5.82-.22,1.61-2,5.54-.09,5.93,1.6-4.41-2.28-4.86,4.68-.59,3.2-1.26,4.43,5.53,3.8,3.65,0,4.23,1.4,3.66-5-.5-3.68-.25-.33,3.29-4,5.86-.55.35-.61,4.37-2.61,6.56.53-4.76-1.62-3.86,4.84-.45,3.55-.91,4.28,5.25,3.59,3.68-.06,4.77,1.22,2.66-6.11-.7-3.41.55-2.94,4.56-1.72,4.51-1.27,0,0,2.13-2.32,4.52-.62-3.73.32-2.46,5.38,1.06,3.94,0,1.72,1.38,2.86,3.3,2.28l3,4.24-68.67.43,5.48-6.59c1.84,1.53,3.74.81,4-1.59,4,2.47,5-3.39,1.29-3.65a4.06,4.06,0,0,1,2.14-.81Zm-3.84,1.9c.24.17-.08,1-.61.75Zm53.55,1.71c.2.29.35.48.55.77S113.3,221.09,113.82,220.45Z"/><path id="path163-0-2-5-8-7-5-6-5-5" class="cls-1" d="M48.26,64.7s-3.76-6.14-8.84-13.36c-3.4-4.83-6.11-10.05-6.36-14.56-.29-5.14,2.45-10.31,7.41-10.56s7,4,7.79,7.45c.82-3.48,2.83-7.7,7.79-7.45s7.7,5.42,7.41,10.56c-.25,4.51-3,9.73-6.36,14.56C52,58.56,48.26,64.7,48.26,64.7Z"/><path id="path163-0-2-5-8-7-7-8-9-1-8" class="cls-1" d="M131.74,185.3s-3.76,6.14-8.84,13.36c-3.39,4.82-6.11,10.05-6.36,14.56-.29,5.14,2.45,10.31,7.41,10.56s7-4,7.79-7.45c.82,3.48,2.83,7.7,7.79,7.45s7.7-5.42,7.41-10.56c-.25-4.51-3-9.74-6.36-14.56-5.08-7.22-8.84-13.36-8.84-13.36Z"/></g></svg>