<svg id="Layer_1" data-name="Layer 1" xmlns="http://www.w3.org/2000/svg" viewBox="0 0 180 250"><defs><style>.cls-1{fill:#d40000;}</style></defs><title>all_cards</title><g id="g6771"><path id="path6858-4" class="cls-1" d="M13.88,56.1a45.35,45.35,0,0,0-5.86-8,44.92,44.92,0,0,0,5.86-8,45.46,45.46,0,0,0,5.87,8A45.91,45.91,0,0,0,13.88,56.1Z"/><path id="path6860-1" class="cls-1" d="M131.74,64.7c-4.18-6.87-8.58-13.54-14.08-19.24,5.5-5.71,9.9-12.38,14.08-19.25,4.18,6.87,8.58,13.54,14.08,19.25C140.32,51.16,135.92,57.83,131.74,64.7Z"/><path id="path6862-0" class="cls-1" d="M166.12,209.93a45.46,45.46,0,0,0-5.87-8,45.91,45.91,0,0,0,5.87-8,45.35,45.35,0,0,0,5.86,8A44.92,44.92,0,0,0,166.12,209.93Z"/><path id="path6864-5" class="cls-1" d="M48.26,64.7c-4.18-6.87-8.58-13.54-14.08-19.24,5.5-5.71,9.9-12.38,14.08-19.25,4.18,6.87,8.58,13.54,14.08,19.25C56.84,51.16,52.44,57.83,48.26,64.7Z"/><path id="path6870-5" class="cls-1" d="M90,104.46c-4.18-6.87-8.58-13.54-14.08-19.24C81.42,79.51,85.82,72.84,90,66c4.18,6.87,8.58,13.54,14.08,19.25C98.58,90.92,94.18,97.59,90,104.46Z"/><path id="path6874-1" class="cls-1" d="M48.26,144.22c-4.18-6.87-8.58-13.54-14.08-19.25,5.5-5.7,9.9-12.37,14.08-19.24,4.18,6.87,8.58,13.54,14.08,19.24C56.84,130.68,52.44,137.35,48.26,144.22Z"/><path id="path6876-6" class="cls-1" d="M131.74,144.23c-4.18-6.87-8.58-13.54-14.08-19.24,5.5-5.7,9.9-12.38,14.08-19.25,4.18,6.87,8.58,13.55,14.08,19.25C140.32,130.69,135.92,137.36,131.74,144.23Z"/><path id="path6880-5" class="cls-1" d="M48.26,223.79c-4.18-6.87-8.58-13.54-14.08-19.24,5.5-5.7,9.9-12.38,14.08-19.24,4.18,6.86,8.58,13.54,14.08,19.24C56.84,210.25,52.44,216.92,48.26,223.79Z"/><path id="path6882-9" class="cls-1" d="M131.74,223.8c-4.18-6.87-8.58-13.54-14.08-19.25,5.5-5.7,9.9-12.37,14.08-19.24,4.18,6.87,8.58,13.54,14.08,19.24C140.32,210.26,135.92,216.93,131.74,223.8Z"/><path id="path25-43-4-8-8" class="cls-1" d="M9.79,37.55c1.75-9.2,3.61-16.11,8.51-23.6h-10v3.23H5.71V11.1H20.26L22.05,14c-5.2,5.64-10,23.87-9.11,23.6Z"/><path id="path25-7-0-7-6" class="cls-1" d="M170.21,212.45c-1.75,9.2-3.62,16.11-8.51,23.6h9.94v-3.23h2.64v6.09H159.74L158,236.05c5.19-5.64,10-23.87,9.1-23.6Z"/></g></svg>