<svg id="Layer_1" data-name="Layer 1" xmlns="http://www.w3.org/2000/svg" viewBox="0 0 180 250"><defs><style>.cls-1{fill:#d40000;}</style></defs><title>all_cards</title><g id="g6800"><path id="path6994-9" class="cls-1" d="M13.88,56.1a45.35,45.35,0,0,0-5.86-8,44.92,44.92,0,0,0,5.86-8,45.46,45.46,0,0,0,5.87,8A45.91,45.91,0,0,0,13.88,56.1Z"/><path id="path6996-5" class="cls-1" d="M131.74,64.7c-4.18-6.87-8.58-13.54-14.08-19.24,5.5-5.71,9.9-12.38,14.08-19.25,4.18,6.87,8.58,13.54,14.08,19.25C140.32,51.16,135.92,57.83,131.74,64.7Z"/><path id="path6998-7" class="cls-1" d="M166.12,209.93a45,45,0,0,0-5.87-8,45.41,45.41,0,0,0,5.87-8,45.35,45.35,0,0,0,5.86,8A44.92,44.92,0,0,0,166.12,209.93Z"/><path id="path7000-7" class="cls-1" d="M48.26,64.7c-4.18-6.87-8.58-13.54-14.08-19.24,5.5-5.71,9.9-12.38,14.08-19.25,4.18,6.87,8.58,13.54,14.08,19.25C56.84,51.16,52.44,57.83,48.26,64.7Z"/><path id="path7002-0" class="cls-1" d="M131.74,117.73c-4.18-6.86-8.58-13.54-14.08-19.24,5.5-5.7,9.9-12.37,14.08-19.24,4.18,6.87,8.58,13.54,14.08,19.24C140.32,104.19,135.92,110.87,131.74,117.73Z"/><path id="path7004-0" class="cls-1" d="M48.26,117.73c-4.18-6.86-8.58-13.54-14.08-19.24,5.5-5.7,9.9-12.37,14.08-19.24,4.18,6.87,8.58,13.54,14.08,19.24C56.84,104.19,52.44,110.87,48.26,117.73Z"/><path id="path7008-2" class="cls-1" d="M90,144.24c-4.18-6.86-8.58-13.54-14.08-19.24,5.5-5.7,9.9-12.37,14.08-19.24,4.18,6.87,8.58,13.54,14.08,19.24C98.58,130.7,94.18,137.38,90,144.24Z"/><path id="path7016-2" class="cls-1" d="M48.26,223.79c-4.18-6.87-8.58-13.54-14.08-19.24,5.5-5.7,9.9-12.38,14.08-19.24,4.18,6.86,8.58,13.54,14.08,19.24C56.84,210.25,52.44,216.92,48.26,223.79Z"/><path id="path7018-0" class="cls-1" d="M131.74,223.8c-4.18-6.87-8.58-13.54-14.08-19.25,5.5-5.7,9.9-12.37,14.08-19.24,4.18,6.87,8.58,13.54,14.08,19.24C140.32,210.26,135.92,216.93,131.74,223.8Z"/><path id="path7020-7" class="cls-1" d="M131.74,170.76c-4.18-6.87-8.58-13.54-14.08-19.25,5.5-5.7,9.9-12.37,14.08-19.24,4.18,6.87,8.58,13.54,14.08,19.24C140.32,157.22,135.92,163.89,131.74,170.76Z"/><path id="path7022-4" class="cls-1" d="M48.26,170.73c-4.18-6.87-8.58-13.54-14.08-19.24,5.5-5.7,9.9-12.38,14.08-19.24,4.18,6.86,8.58,13.54,14.08,19.24C56.84,157.19,52.44,163.86,48.26,170.73Z"/><path id="path29-5-3-7-8" class="cls-1" d="M6.45,32.45l2.44-.76a4.31,4.31,0,0,0,4.73,3c3.52-.28,4.7-4.19,5-7.66a7,7,0,0,1-5.19,2.11c-5.62-.3-7.06-4.77-7.11-9.45-.15-3.94,1.49-6.8,4.3-8.11a9.63,9.63,0,0,1,6.4.12c3.45,1.81,4.72,4.93,4.49,12.37,0,6.13-1.31,13.27-7.91,13.42a6.39,6.39,0,0,1-7.11-5ZM16,25.74a5.78,5.78,0,0,0,2.31-2.41,4.55,4.55,0,0,0,.44-3c-.31-4.44-2.65-7-6.05-6.47a4.07,4.07,0,0,0-3.52,3.3C8.09,20.8,9.48,25,12.09,26A5.08,5.08,0,0,0,16,25.74Z"/><path id="path29-6-2-9-2" class="cls-1" d="M173.55,217.55l-2.43.76a4.32,4.32,0,0,0-4.74-3c-3.53.28-4.69,4.19-5,7.66a7,7,0,0,1,5.19-2.11c5.62.3,7.06,4.77,7.11,9.45.15,3.94-1.49,6.8-4.3,8.11a9.63,9.63,0,0,1-6.4-.12c-3.44-1.81-4.72-4.93-4.49-12.37,0-6.13,1.31-13.27,7.91-13.42a6.39,6.39,0,0,1,7.11,5ZM164,224.26a5.78,5.78,0,0,0-2.31,2.41,4.55,4.55,0,0,0-.44,3c.31,4.44,2.65,7,6,6.47a4.1,4.1,0,0,0,3.53-3.3c1.09-3.63-.3-7.87-2.91-8.84a5.08,5.08,0,0,0-3.92.27Z"/></g></svg>