<?xml version="1.0" encoding="utf-8"?>
<!-- Generator: Adobe Illustrator 23.0.1, SVG Export Plug-In . SVG Version: 6.00 Build 0)  -->
<svg version="1.1" xmlns="http://www.w3.org/2000/svg" xmlns:xlink="http://www.w3.org/1999/xlink" x="0px" y="0px"
	 viewBox="0 0 180 250" style="enable-background:new 0 0 180 250;" xml:space="preserve">
<style type="text/css">
	.st0{fill:#FFFFFF;}
	.st1{fill:#E2CF00;}
	.st2{fill:#131F67;}
	.st3{fill:#D40000;}
	.st4{fill:#100F08;}
</style>
<g id="white-background">
	<rect class="st0" width="180" height="250"/>
</g>
<g id="Layer_1">
	<g id="g6392_1_" transform="matrix(0.99999718,0,0,1.000002,-3.9778391,-7.5442065)">
		<path id="path7363-8-9_1_" d="M17.9,47.6c-3.5,4.4-7.2,6.9-7.3,10.4c0,1.1,0.7,3,2.8,3.4c1.4,0.2,3.3-0.8,3.3-2.8
			c0-0.4,0.5-0.4,0.5,0.2c-0.1,1.6-0.6,3.4-1.6,4.9c1.5,0,3,0,4.6,0c-0.9-1.5-1.5-3.3-1.6-4.9c0-0.5,0.5-0.6,0.5-0.2
			c0,2,1.9,3,3.3,2.8c2.1-0.4,2.8-2.2,2.8-3.4C25.1,54.5,21.3,52,17.9,47.6L17.9,47.6z"/>
		<path id="path7367-3-1_1_" d="M170.1,217.5c-3.5-4.4-7.2-6.9-7.3-10.4c0-1.1,0.7-3,2.8-3.4c1.4-0.2,3.3,0.8,3.3,2.8
			c0,0.4,0.5,0.4,0.5-0.2c-0.1-1.6-0.6-3.4-1.6-4.9c1.5,0,3,0,4.6,0c-0.9,1.5-1.5,3.3-1.6,4.9c0,0.5,0.5,0.6,0.5,0.2
			c0-2,1.9-3,3.3-2.8c2.1,0.4,2.8,2.2,2.8,3.4C177.3,210.6,173.6,213.1,170.1,217.5L170.1,217.5z"/>
		<path id="path35-7-9-2_1_" d="M17.8,18.6v2.8h2.7c0,0,0.1,2.7,0.1,8.3c0,5.5,0.1,8.2-0.2,9.8c-0.9,3.6-6.2,3.6-7.3,1
			c-0.6-1.5-0.4-2.7-0.5-4.2H9.7c0,0,0,0.8,0,1.7c0,4.1,1.4,6,4.5,6.8c3.3,0.9,7.1-0.5,8.4-3.2c0.8-1.6,0.7-1.7,0.7-11.2
			c0-6.4,0.1-9,0.1-9H26v-2.8H17.8L17.8,18.6z"/>
		<path id="path35-7-8-1-4_1_" d="M170.2,246.5v-2.8h-2.7c0,0-0.1-2.7-0.1-8.3c0-5.5-0.1-8.2,0.2-9.8c0.9-3.6,6.2-3.6,7.3-1
			c0.6,1.5,0.4,2.7,0.5,4.2h2.9c0,0,0-0.8,0-1.7c0-4.1-1.4-6-4.5-6.8c-3.3-0.9-7.1,0.5-8.4,3.2c-0.8,1.6-0.7,1.7-0.7,11.2
			c0,6.4-0.1,9-0.1,9h-2.5v2.8H170.2L170.2,246.5z"/>
		<g id="g3851-4-2-7-4_1_" transform="matrix(0.15513522,0.00255852,-0.00256389,0.1548104,3382.9204,-262.82254)">
			<path id="path4037-8-0-2_1_" class="st2" d="M-21589.9,2227.1l22.6,1366.9l852.2-14.1l-22.6-1366.9L-21589.9,2227.1z
				 M-21319.1,2230.2l386.1-5l-58.3,92c-78.4-23.3-204.8-5.2-269.8,8.2C-21278.8,2297.3-21304.3,2261.9-21319.1,2230.2z
				 M-21578.6,2238l247.8-4.1l59.9,104.2c2.2,2.9,0.2,9-1,12.4c-6.8,20.2-13,32-27.1,56.1c-13.4,22.9-18,43.8-12.9,57.6
				c0.8,1.7,1.4,4.3,1.2,6.5c-0.7,7-6.4,15.1-14.4,20.8c-5.4,1-16.7,1.8-23.2,8.4c-5.5,5.6-10,13.8-9,28.5c0.4,5.3,1.2,8.6,1.2,8.6
				c-73.5,31.8-126,68.5-124.2,69.8c-0.7-0.3-66-28.7-92.9-35.5L-21578.6,2238z M-20919.2,2227.1l170.1-2.8l8,483.3l-64.9-41
				c5.3-3.8,8.6-6,14.1-9.9c1-0.3,2.9-0.4,4.1-0.7c11.3-2.7,19.1-11.3,15-20c-2.8-5.9,0.9-5.6,4.1-10.5c3.6-5.5,2.8-10.4,0.3-14.9
				c-1.2-2.3-0.6-3.2,1.3-7.4c5.1-6.5,1.2-17.3-5.6-20.7c-0.7-1,0.7-2.6,1-4.1c1.8-8.7-1.9-16.3-9.5-18.1c-3.9-0.9-5.2-1.6-3.9-5.1
				c2.3-6.2-0.9-8.4-6-10.3c-8.6-3.2-6.2-3.8,4.3-8.7c21.4-10,26-38.7,10.8-64.5c-1.9-3.3-7.1-10.9-10.6-16.1
				c-4.1-6-8.1-11.2-8.1-11.2l27.9-40c0,0-20.3-23.1-27.6-35.9c1.6-6.4,21.1-26.8,23.4-46.3c3.5-30.6-20.1-49.8-42.2-47.1
				c-15.3,1.8-34,11.9-32.1,40.1c0.6,8.8,4.2,17.8,10.6,28.7c4.5,8.1,10.3,16.7,15.9,25l-28.1,39.5l29.7,36.1c0,0-0.4,0.6-1,1.6
				c-2.8,4.6-11,18.2-14.5,26.1c-10.4,21.2-13.8,44.4,8.5,60.3c3.9,2.3,6.9,4.2,8.6,5.8c2.2,2.1,0.9,3.7-2.6,4.6
				c-4.1,0.9-8.2,0.9-12.5,2.7c-13.7,5.2-27.4,13.5-37.1,21.6c-5.5,4.5-14.1,18.7-19.4,30.2c-5.7,12.5-7.3,15.3-7.3,15.3
				l-102.1-62.6c0,0-2.6-2-3.3-2.7c-1.9-2.1-1.3-3.3,0-5.6c1.1-2,1-7.8,0.5-12.1c-0.3-8.4-0.2-8.5,4.5-16.3c1.7-2.7,2.3-5.5,1.3-9.7
				c-1.7-4.7-1.8-3.2,1.2-6.5c1.2-1.5,2.6-2.2,2.8-3.8c0.3-2.1,0-5.7-0.1-12.6c-0.2-13.7-0.3-12.5,7.3-18.7
				c9.5-7.6,13-11.2,14.5-14.6c2.1-4.9-0.1-8.5-5.7-18.1c-2.5-4.4-6.5-10.3-8.3-13.6c-3.5-5.9-8.7-13.7-11.2-21.2
				c-3.7-5.7-3.3-15.8-0.1-21.7c4.1-7.5,5.1-11.9,4.8-26.9c-0.4-13.8-1.4-12.5,2.1-17.2
				C-20960.3,2293.5-20919.2,2227.1-20919.2,2227.1z M-20810.2,2277.2c0.6,0,1.2,0,1.7,0c8.4,0.3,16.7,2.8,24.6,10.1
				c10.7,10.3,10.2,25.3,7,41c-1.5,4.6-2.6,9.2-5.8,14c-1.8,2.7-3.2,5.2-3.2,5.5c0,0.3-2.5,4.5-5.6,9.3c-3,4.7-6.4,11.2-6.4,11.2
				s5.1,8.7,14,19.6c6.8,9.6,11.2,18.1,11.7,17.6c0,0-1.6,4.2-3.9,7.3c-6.8,9.2-19.3,28.3-19.7,30.3c-0.1,0.5-1.4,1-1.4,1.5
				c0.1,1.8,2.7,3.8,6.6,8.9c23.6,31.1,27.3,57.6,10.2,73.5c-8.5,7.9-17,10.5-26.1,9.7c-16.8-1.5-32.4-15.4-31-36.1
				c0.7-9.5,0.1-12.3,5.6-23.5c2.4-6.3,8-17,11.8-22.4c3.3-3.9,6.8-9.5,6.8-9.5s-8.4-12.4-23.8-29.8c-2.8-3.2-4.5-7.5-4.5-7.5
				l25.2-38.5c0,0-3.1-7.3-8.3-14.7c-10.6-15.1-17.5-31.3-17.6-40.5C-20842.7,2291.1-20827.8,2277.5-20810.2,2277.2z
				 M-20736.8,2819.7c-15.1,8.3-29.6,36.1-0.8,16.4l1,15.8c-14.8,21.6-44.6,6.4-37.4-15.8c-20.4,3-23.9-17.6-23-27.4
				c-26.9-5.4-18.1-33.7-18.1-33.7c-15.7-12.6-18.7-26.1-6.3-40.5c-12.8-7.6-16.5-12.6-30.5-18.1c12.3,94.3,64.4,142.6,119.2,185.4
				c-1.4,0-1.1,30.5-4.6,24.9c-78.1-56-128.9-120.7-139.2-226.5c-0.6,1.7-37.1-27-43-25.4c-9.6,171.8,129.8,282.3,187.4,303.6
				c0,0,1.2,23.9,0.2,24c-87.3-36.1-185.5-144.7-206.3-275.6l-49.8,79.5l-19.3-7.8l80.6-130.8l-56.5-33.9l-88.7,144.8
				c0,0-2.2,12,4.4,11.7c128,11.5,320.7,160.8,261.1,410.1c-5.6-2.1-14.4-6.2-14.9-6c9.6-21.6,35.2-160.6-50.5-271.1
				c-39.3-50.6-99.7-104.2-195.6-118.8c8.2,16.1,5.3,52.8,5.3,52.8l22.3,4.1c-7.6-7.8-14-14.2-17.2-22.7
				c-4.4-13.3,1.6-21.3,16.6-13.6c6,3.2,7.4,3,13.1-1.3c11.8-9,25.6-0.2,22.7,14.6c-0.4,2.2,0.2,3.5,5.9,3.9
				c12.9,1.1,26,7.2,34.5,17c4.2,5.2,5.1,4.4,8.7,1.2c8.9-7.9,23.9,2.6,21.5,14.6c-1.4,6.9-0.5,8.5,2.7,9.8
				c17.7,7,22.1,11.6,27.8,26.8c2.1,5.6,3.8,7.4,4.8,7c0.7-0.2,3.6-1.2,6.1-2.2c13-5.1,21,10.5,11.9,23c-1.9,2.6-0.4,5,3,6.7
				c11,5.7,18.7,19.7,20.2,34.5c0.6,5.6,1.2,5.6,6.8,5.3c14.5-0.8,21.7,18.5,10.1,25.9c-4.1,2.6-3.3,5.8,0,9.5
				c8.6,9.8,10.7,17,10.2,28.4c-0.7,15.1,0.2,14.8,5.1,16.6c14.2,5.1,11.9,27.5-1.9,27.7c10.3,22.9-2.3,51.2-1.9,51.7
				c26.8,14.4,3.1,30.6-4.7,27.9c0,0-3.8,10.4,0.8,15.7c-22.8,31-53.2,36.6-86.8,52.4l-2.8-107.8c14.2,11,28.3,21.3,42.4,31.5
				c0,0,3.5-1.1,0.3-4c-6.3-5.6-22-15.3-26.5-19.2c-9.5-6.9-44.5-39.1-50.8-46.7c-2.8-5.1-6.9-2.1-6.8-1.8c4.2,7,7.4,15.2,12.9,22.5
				c11.8,15.7,23.3,33.1,22.4,50.6c0.1,9.8-3.6,19.9-5.7,24.9c-1.5,6.7-12.4-0.9-9.8-6.6c4.5-15.5,8.3-28.3-9.2-52.8
				c-8.5-12-19.7-33.8-19.7-33.8l-6.9,1.8l2.6,140.7c-5.8,0.3-20.4,4.4-17.4,4.4c45.6-9.8,60.7,55,16.6,57.8
				c-8.4,0.4-16.8,14.9-17.6,22.7c0.7,18.9,3.8,38.8-9.8,57.2c-3.6,4.8-5.1,12.4-8.4,18.4c-16.5,30.2-23.8,47.4-21.9,55.1
				c0.5,2,0.9,4.6,0.9,4.6c-53.9,14.3-94.5,18.5-149,20.6c-0.5-0.8,17.4-53.8,30.7-81c9.8-20.1,14.8-33.8,11.9-37.9
				c-43.2,2.9-36-60.2,5.5-58.7c0,0,9.8-36.5,21.1-53c10.9-6.3,33.2,1.7,45.5-6.7c29.1-9.4,48.8,24.6,48.8,24.6l7.3-32.8l-258.6,3
				c0,0-25,10.8-38.7,5.4c-8.8-3.4-21.3-12.7-21.3-12.7c0,0,97.1-160.4,111.2-183.4c1.1-1.9-2.7-5.8-2.7-5.8
				c-0.6-5.2-115.3,185.4-115.3,185.4c-67.2-41.2-151.7-93.3-226.6-139.2l-1.4-70.7c53.3-34.6,48.2-48.3-1-10.7
				c-0.7,0.6-1.5-26.5-1.5-26.5c37.4-34.3,6-23.2-1.3-11.4c0-8.4-2.1-19.8,3.2-24.9c16.3-15.5,36.1-1.8,37.5,20.6
				c21.7,3.9,19.3,22.8,25,30.3c22.3,12,11,31,16.5,37.3c23.5,14.2,7.7,37.8,2.7,37.4c3,1.9,32.2,20.7,34.6,19.9
				c-4.2-100.8-106.9-180.4-120.6-190.1l2-21.8c0,0,141.2,86.4,142.3,228.9l45,25.6c-6.4-146-74.6-244-188-304.9l-1.9-27
				c95,42,183.9,128.8,206.7,273l50.9-81.3l18.5,8.5l-81.6,135l52.9,33.3c39.7-53.8,72.5-119.4,92.6-150.7c-0.6-2.8-1.8-6.9-1.8-6.9
				c-200.1-29.4-315.6-213.3-265.3-408.2l14,5.8c-39.2,144.4,32.1,350.2,249.8,388.9c-0.7-15.3-4-52.8-4-52.8s-28.7-8-24.4-4.7
				c7.1,5.8,23.2,31.1,16.7,40.3c-4.8,0.7-12.8-1.8-21.6-8c-3.3-2.3-3.4-1.8-7.1,2.2c-10.1,11-25.1,5.1-25.5-9.9
				c-0.2-6.3-0.4-7.6-9.4-7.6c-13.7,0.1-19.9-2.1-28.2-12.9c-5.9-7.6-5.4-7.7-12.2-5.2c-13,6.4-23.7-6.4-19.8-17.2
				c1.9-5.1-0.2-6.6-6.2-7.5c-11.6-1.7-25-16-27.6-27.7c-0.5-2.4-1.8-3-8.6-2.6c-13.4,0.7-21-7.3-15.9-18.7
				c2.8-6.2,3.5-8.7-1.9-12.7c-6.7-5-10.4-8.4-13.5-14.6c-2.4-4.9-2.8-8-4.6-18.3c-0.6-3.6-1.8-4.2-6.6-4.7
				c-13.9-1.6-19.6-15.6-9.6-24.9c3.1-2.8,3.1-2.8-1.8-8.8c-9.3-11.5-12.9-26.7-9.1-36.9c1-2.8-0.1-6.1-3.3-6.9
				c-12.7-2.9-13.2-16.9-1.2-24.9c3.5-2.3,3.6-3.8,0.9-8.4c-4.8-8-4.9-29-0.6-39.2c2.8-6.6,2.8-6.7-1.8-9.5
				c-9.7-5.9-7.3-22.8,4.1-25.7c5.5-1.4,5.9-2.2,4.3-8.8c-2.8-11.8-3.4-14.9,3.6-19.7c19.2-12.8,68.5-37.6,68.5-37.6l16.3-8
				c0,0,3.3,99.6,2.4,111.4c-0.6,5.1,4.1,8.1,9.5,13.3c11.2,10.6,17.5,23.5,32.4,32.3c0,0,9.1-5.2,14.7-8.9l-1.8-142
				c1.1-3.2,1.9-3.6,5.7-4.1c3.1-0.7,11-1.7,13.6-2.5c6.3-1.9,7.3-4.5-1-3.5c-2.5,0.3-6.2,1.4-10.4,2.3
				c-25.9,8.2-45.8-31.7-26.3-52.4c3.7-3.4,17.9-9.6,24.3-10.1c1.9,0,7.3-6.9,11-13.2c3.7-6.4,5.2-11.1,2.9-17.3
				c-4.8-13.2-0.8-33.7,12.6-56.2c14.5-21.3,25.6-44.9,31.2-70c52.6-7.2,97-20.9,144.7-18.8c2.1,15.9-50.2,111-38.9,116.4
				c42.6,9.4,28.9,59.6-3.3,58.5c-4.8,0-5.3,0.5-8.2,11.1c-5.6,15.6-9.2,27.5-15.2,42c0,3.7-21,3-38.7,3.2
				c-7.5,5.9-39.7,22.2-58.1-17.7l-0.1,34.4c0,0,242.8-7.8,286.1-3.2c0.7-10.8,24.2,7.9,24.2,7.9l-115.5,187.1l5.6,5.3
				c16.8-20.9,117.2-187.8,117.2-187.8l225.5,139.3c-1.5,21.3,1.4,68.9,1.4,68.9c-60.7,33.3-41.7,49.5-0.2,9.6L-20736.8,2819.7z
				 M-21115,2319.4c0,0,63.2-0.5,95,4c27.8,4,26.4,3.2,26.6,23.2c0.2,14.2,0.1,13.9-3.4,20.8c-6.6,12.7-5.2,25,5.8,42.2
				c10.7,16.7,18.5,29,18.5,31.4c0.1,3.7-0.5,8.3-9.4,14.7c-10.5,7.5-12.4,12.7-12.2,20.2c0.2,6.1-0.9,8.1-4.6,8.1
				c-1.5,0-6.6,2.5-12.1,5.2c-9.7,4.7-9.7,4.7-18.8,4.8c-4.6,0-6.8-1.6-8.1-1.1c-2.4,1.2-4.5,9.4-4.4,11.7c0.3,0.8,1.6,0.3,4.2-0.6
				c15-5.4,37.5-3.4,38.2-1.2c3.1,2.7,3.2,6.9-1.4,11.4c-2.9,4.7-4.2,7.1-2.9,14.3c1.8,9.7,0.7,13.7-4.3,17.1
				c-15.2,10.6-35.7,12.2-68.5,6.5c-34.7-6-58.5-18.7-78.5-41.8c-8.9-10.3-11.2-14-6.8-14.7c5.3-0.9,11.2-2.1,16.7-4.6
				c24.1-10.8,22.9-54.9-9.8-59C-21168.5,2431.6-21128.6,2368.4-21115,2319.4z M-21083.3,2349.3c-11.6,6.7-17.6,14.8-17.6,19.1
				c0,1.8,0.4,1.4,6-2.3c16.1-10.9,58.7-27,74.2-18.3c11.1,6.4,15.4,4.2,8.9-4.6C-21027.2,2322.7-21067.4,2340.3-21083.3,2349.3z
				 M-21041.2,2355.5c-1.7,0-3.5,0.3-5.3,0.7c-11.3,2.7-23.6,12.2-33.8,20.5c-5,4.1-12.1,12.2-13.2,14.3c-2.5,4.8,3.2,9.9,10.8,5.6
				c4.4-2.5,4.8-2,9.1-1.4c9.9,2.8,21.3,7.2,38.7,5.4c1.6,0.3,1.5,0.7,1,2.2c-1,2.8-7.1,8.2-15,14.2c-4.1,3.1-7.7,5.7-8,6.1
				c-1.2,2.1,4.3,2.1,10.3-1.4c8.6-5,18.3-15.9,24.3-24.7c0.6-0.8,1.4-1.5,1.6-2.4c0.6-2-3.1-1.1-5-1.6c-0.8-0.2-0.7-2.3-0.9-3.3
				c-0.6-2.5,0.3-6.7,0.7-10.3c0.3-2.9,3.4-5.3,5.5-7.5c8.9-9.6,8.2-13.8-4-6.4c-2,1.3-3.7,2-5.7,2.2c-18.1,0.9-28.5,0.3-43.3,13.2
				c-6.6,5.5-10.6,6.1-4.8,0.3c9-7.5,20.2-18,32.7-21c7.6-2,14.9,3.7,18.2,2.1C-21027.3,2358.3-21033.7,2355.4-21041.2,2355.5z
				 M-21043.4,2381.6c2.1,1.3,4.2,8.3,4.1,10.7c-0.2,2.8-5,1.7-5.6,0.4l-2.7-7.8C-21048.9,2382.3-21045.4,2380.7-21043.4,2381.6z
				 M-21052.6,2383.3c2.3,2.1,2.8,6.8,4.2,10.7c-0.8,2.8-18.6-0.7-20.9-3.8C-21066.7,2386.7-21057.6,2382.5-21052.6,2383.3z
				 M-21020.6,2433.1c-1.3-0.1-3.1,0.6-4.7,2.3c-7.9,8.3-5.1,22.1,4.6,26.4c4.7,2.1,11.8,0.4,22.2-3c5-1.6,8.5-2.4,9.5-2.4
				c4.1,0,6.2-6.4,3.3-9.2c-3.4-3.3-11.2-2.7-19.6,4c-4.2,3.3-7.2,5-10.7,5c-8.4,0-12.7-8.5-4.2-17.8
				C-21017.3,2435.4-21018.3,2433.2-21020.6,2433.1z M-21078.8,2493.7c10.1,7.8,29,3.3,41.5-5.2c11.2-7.7,15.9-9.9,25.1-8.5
				c11.2,1.7,10.7-2.6,5.8-8c-5.6-6.1-19.1-4-30.3,3.7c-24.9,17-33.9,19.9-41.4,11.1c-8-9.5,1.1-22,10.5-15.4c7.7,5,7.5,1.1,4.3-2.3
				C-21081.9,2453.9-21094.6,2481.5-21078.8,2493.7z M-21167.1,2503.1c13,15.8,25.3,28.8,43.7,38.2l0.3,3l-59,0.8
				C-21178.1,2537.9-21167,2503.5-21167.1,2503.1z M-21366.3,2548c-0.8,24.1,3.7,38.2,18.2,54.8c15.4,17.7,14.7,45.6,5.3,63
				c-4.2,7.7-13.1-1.5-9-6.5c5.7-7.4,5.8-25.3,2.8-36.4c-6.5-18.4-20.8-27.2-26.8-46.6c-2.1-8.3-1.7-23.3-1.7-23.3L-21366.3,2548z
				 M-21347.7,2549.7c1-0.2,2.7,0.9,5.2,2.9c8.5,7,7.4,27.6-1.9,40.9c-2.9,4-5.3,2.9-8.2-0.7c-3.8-3.6-2.5-4,0.5-10.6
				c3.2-6.8,4.1-14.5,3.3-23.4C-21349.4,2552.8-21349.3,2550-21347.7,2549.7z M-20806.3,2547.8c7.4-0.2,16.6,1.2,17.5,3.8
				c0.8,3.2-0.9,5.8-4.9,7.6c-10.7,4.7-25.1-1.4-21.6-9.2C-20814.4,2548.7-20810.7,2548-20806.3,2547.8z M-20824.9,2549.9
				c2.1-0.1,3.8,0.4,5.1,1c3.6,1.7-1.8,14.2,15.8,13.7c4.2,0.5,7.3-0.5,6.8,1.4c-0.8,2.9-8.3,7.3-16.5,8.6c-24.4,4-23.4,2.8-22,19.9
				c0.9,11.2,0.2,15-1.2,21.8c-2.5,11.8-3.3,23.3-1.6,19.5c2.3-5.1,8.2-21,8-30c-0.3-13.3,4.5-16,6.5-6.4c0.9,6.4-1.9,10,2.5,16.4
				c2.5,3.6,3.6,3.5,2.1,9.2c-1.4,5-0.3,6.5,1.5,9c1.8,2.5,3.6,3.1,2.2,6.7c-3.1,7.8,2.1,15,9.4,15.5c3.4,0.2,4.4,1.7,3.4,3
				c-1.8,2.2-5.3,3.4-8.3,4.1l-78.6-48.1c0,0,5.6-11.6,7.2-14.7c10.8-24.5,19.5-35.8,51.9-49.1
				C-20828.5,2550.4-20826.6,2550-20824.9,2549.9z M-20783.3,2565.2c2.1-0.1,3.8,1,5.6,3.2c4.9,6,0.8,13.7-10.8,20.5
				c-9.9,5.8-12.9,6.6-15.2-2.3c-0.5-1.6-1.9-3.6-2.8-4.3c-2.4-2.1-1.9-3.8,1.1-5.4c1.4-0.8,5.9-2.7,9.5-5.1
				C-20789.7,2567.5-20786.1,2565.3-20783.3,2565.2z M-20816.1,2583.4c2.5,0,5,0.5,6.9,1.7c3.2,2,3.3,7,0.2,9.1
				c-6.2,2.6-16.1-0.6-15.4-6.3C-20824.1,2585-20820.2,2583.4-20816.1,2583.4z M-20776,2589c2.2-0.1,3.9,0.9,5.3,3
				c3.8,5.6-0.5,11.3-12.7,17.5c-8.1,4.1-18.4,6-17.8,3.6c0.5-1.9-2.5-11.1-3.9-12.5c-0.5-1.6,0.2-0.2,10.3-3.5
				c3.7-1.2,8.2-3.2,10.2-4.5C-20781,2590.3-20778.2,2589.1-20776,2589z M-21359.6,2613.2c-5.5,13.7-6.3,19.8-3.3,34
				c2.5,11.9,5.2,17.8,17.8,35.2c9.6,13.3,12.7,18.4,10.5,22.7c-1.6,2.3-5.1,4.5-7.4,2.3c-4.7-5.9-7.6-13.1-12.1-19.6
				c-17.6-24.8-18.9-31.2-21.5-51c-1.2-9,3.8-28.4,8.2-31.4C-21362.4,2603.6-21358.1,2610.1-21359.6,2613.2z M-20961.6,2600.4
				c-4.6,3.6-7.5,10.6-9.8,15.7c0.6,3.6,3.5,1.2,11.1-10.3C-20958.6,2603-20959.9,2600.1-20961.6,2600.4z M-20813.3,2604.1
				c6.9,0.1,9.4,6.2,6.4,9.4c-4.4,4.7-12.6,1.4-12.7-5.2C-20819.6,2605.5-20818.3,2604.1-20813.3,2604.1z M-20774.9,2612.2
				c4,0.1,4.5,4,2.5,9.7c-2.5,5.3-5.7,6.2-15.1,9.3c-11.3,3.7-13.2,3.2-15-7.1c-0.7-4-0.4-3.1,10-6c4.5-1.3,9.7-3.5,12.5-4.7
				C-20777.9,2612.5-20776.2,2612.1-20774.9,2612.2z M-21445,2627.9l3.1,20.9l4.3-15.7L-21445,2627.9z M-20811.6,2624.5
				c5.6-0.1,8.7,4.8,5.9,7.9c-1.6,1.7-5.6,1.8-7.5,0.9C-20817.7,2630.1-20817,2624.5-20811.6,2624.5z M-20982,2638.2l11,6.5
				l-86.1,140.1l-10.7-0.1l-1-2.2L-20982,2638.2z M-20781.3,2636.3c6.5-0.2,7.2,5.9-0.6,11.6c-3.2,2.1-6.8,2.7-9.6,2.8
				c-3.9,0.2-6.6-0.7-6.9-3.4c-1.8-6.6-2.8-8.2,3.3-7.9c1.2,0.1,4.5-0.2,7.1-1.3C-20785.5,2636.9-20783.2,2636.3-20781.3,2636.3z
				 M-20808.3,2642.8c4.5,0,7.5,4.8,4.5,7.2c-3.7,3-8.4,1.3-8.4-3.2C-20812.3,2643.9-20811.5,2642.8-20808.3,2642.8z
				 M-21444.2,2663.1l-23.7,21.5c9,10.2,16.6,20.4,24.4,31.2L-21444.2,2663.1z M-20957.9,2656.4c10.4-0.6,13.9,4.4,9,7.8
				c-6.7,4.6-12.4,4.5-20.1,3.6c-10.1-1.7-2.2-9.9,8.8-11.2C-20959.3,2656.5-20958.5,2656.4-20957.9,2656.4z M-20968.7,2671.7
				c2.1-0.1,5.2,0.4,9.3,1.7c6.9,2.2,15.5,9.2,15.2,13.1c-0.5,6.4-12.7,3.3-22.6-5.7C-20973,2675.2-20973.3,2671.8-20968.7,2671.7z
				 M-20977.9,2671.9c5.9,0.5,12.2,20.3,7.7,26.4c-4.4,6.1-12.5-6.7-11.3-16.9c0.5-4,1.4-9.3,3-9.6
				C-20978.3,2671.9-20978.1,2671.9-20977.9,2671.9z M-21364.4,2682.7c3.3,0.7,7.7,5.2,6.8,8.7c-0.7,1.4-2.1,1-3.6,0.7
				c-2.8-1.1-4.9-4.9-4.5-8C-21365.4,2683.2-21365,2682.7-21364.4,2682.7z M-20915.8,2678.7l17.6,11.4l-17.4,1L-20915.8,2678.7z
				 M-20987.5,2703.6c13.3-0.1,16.2,4.1,6.4,9.5c-4.1,2.2-14.2,2.8-19.4,1.1C-21008.8,2711.4-20999,2703.7-20987.5,2703.6z
				 M-20879.4,2710.7l1.1,12l-33.4,3.5l-1.9-12.5L-20879.4,2710.7z M-20995.1,2718.6c2.3-0.2,6,0.8,10.9,3.2
				c9.2,4.5,14.5,12.2,9.8,14.8c-4.2,2.3-11.9-0.2-17.3-5.7C-20998.8,2723.6-20999.5,2718.9-20995.1,2718.6z M-21006.4,2718.8
				c6.1,0.3,11.6,16.7,7.8,25c-2.1,4.5-4.9,3.6-9-3.7c-4-7.1-4.4-19.6,0-21.1C-21007.3,2718.8-21006.8,2718.8-21006.4,2718.8z
				 M-21441.9,2730.7l-14.2,29.5l26.9,22.6L-21441.9,2730.7z M-20874.7,2743.8l2.6,11.5l-32,8.4l-3.3-12.5L-20874.7,2743.8z
				 M-21015,2748.4c3.9,0,7.6,0.9,9.8,2.7c3,2.5,2.4,3.7-4.5,6.6c-12.2,5.2-27.5,2.4-18.8-5.2
				C-21025.5,2749.8-21020.1,2748.4-21015,2748.4z M-20806.3,2744.3c-12.1,8.4-0.2,12.7,8.4,6.4
				C-20798.5,2748.5-20803.7,2744.3-20806.3,2744.3z M-21023.8,2764.3c8.8,0.1,26.2,11.8,22.6,17.6c-1.9,3.2-13.5,0.7-18.2-3.6
				c-6.1-5.6-9.4-13.2-6.1-13.9C-21024.9,2764.3-21024.4,2764.3-21023.8,2764.3z M-21034.9,2765c4.5-0.9,12.1,19.9,6.7,25.4
				c-2,2-2.6,1.9-6.1-1c-7-5.9-6-17.1-2-23.4C-21035.8,2765.4-21035.3,2765.1-21034.9,2765z M-20764.9,2771.6
				c-1.2-2.2-2.7-3.2-4.4-4.4C-20811.7,2784.2-20800.5,2799.5-20764.9,2771.6z M-20866,2774.7l4.4,11.6l-32.2,13.3l-5-12.7
				L-20866,2774.7z M-21419.3,2806l-10.5,28.8c11.9-0.1,22.8,5.3,33.7,10.1L-21419.3,2806z M-20854.7,2805.1l7.1,11.4l-30.2,16.9
				l-6.3-12L-20854.7,2805.1z M-21561.7,2839.2l12.6,8.5l-18,22.9l-1.7-3.2l-0.1-18.8L-21561.7,2839.2z M-20837.6,2834.4l7.5,10.4
				l-29,20.7l-7.4-11.4L-20837.6,2834.4z M-21529.9,2859.4l13.6,10.1l-20.9,25.9l-13-9.6L-21529.9,2859.4z M-21381.6,2863.2
				l-0.1,30.7l31.7,0.7L-21381.6,2863.2z M-21015.2,2871l36.4,20l-5.9-31.3C-20994.1,2861.7-21006.1,2867.9-21015.2,2871z
				 M-20817.5,2861.3l8.6,10.2l-26.7,23l-8.9-10.7L-20817.5,2861.3z M-21502,2881.7l12.7,11.4l-21.7,24.1l-11.8-10.7L-21502,2881.7z
				 M-20793.9,2886.9l9.9,9.7l-24.3,25.9l-9.9-9.7L-20793.9,2886.9z M-21473,2910.6l9.9,11.1l-24.9,20.3l-9.5-11.2L-21473,2910.6z
				 M-21327.4,2910.8l7.6,29.9c-0.5-2.2,31.3-9.5,35.5-7.3L-21327.4,2910.8z M-20955.3,2907.2l30.7,31.1l2.9-30.5L-20955.3,2907.2z
				 M-20768.7,2909.1l11,8.3l-19.8,29l-12.5-9.4L-20768.7,2909.1z M-21450.8,2939.5l9.2,12.7l-26.2,16.1l-7.7-11.3L-21450.8,2939.5z
				 M-20739.8,2930.8l1.7,1.6l0.3,20.5l-8.2,12.4l-11.6-6.5L-20739.8,2930.8z M-20910,2956.6l27.5,47.7l6.9-36.1
				C-20885.5,2968.3-20901.2,2962.3-20910,2956.6z M-21429.1,2971.6l6.6,13.8l-27.8,13.1l-6.6-13.7L-21429.1,2971.6z
				 M-21413.5,3004.5l5.3,13.9l-29.6,10.3l-4.9-13.4L-21413.5,3004.5z M-21546,3032l9.4,6.3
				C-21488.8,3012.3-21504,3005.1-21546,3032z M-21273.6,3011.4c1.8-0.2,4,2.3,5.7,7.8c2.7,8.3,1.5,18.7-4.2,18.6
				c-3.8-0.4-5.4-10.2-5.5-13C-21277.8,3016.4-21276,3011.7-21273.6,3011.4z M-21247.1,3016l11.5,1l0,3.2l-89.1,145.8l-11.2-6.8
				L-21247.1,3016z M-21296.3,3020.2c3.6,0,9,2.4,13.8,7.3c2.8,2.9,5.8,7.1,6.6,11.4c-0.1,1.4-2.5,0.9-4.9,0.6
				c-6.1-0.7-15.1-4.8-18-9.9C-21302.4,3023.4-21300.4,3020.2-21296.3,3020.2z M-20875.5,3018.3l13.2,58.9
				c3.5-14.9,11.4-23.5,17.1-35.2C-20860.9,3035.2-20867.4,3026.8-20875.5,3018.3z M-21401.1,3039l3.1,15.2l-30.7,7.6l-3.4-14.8
				L-21401.1,3039z M-21286,3042.4c0.4,0,0.9,0,1.3,0c11.3,1.1,12.9,3.5,5.4,8.7c-4.5,3.1-17,3.8-19.1,0.5
				C-21300.6,3048.2-21292.6,3042.6-21286,3042.4L-21286,3042.4z M-21509.6,3055.1l9.7,5.4
				C-21483.7,3048.4-21501.6,3046.4-21509.6,3055.1z M-21302,3056.8c3.4,0,5.6,6.1,6.9,11.7c1.3,5.4,1.8,10.3-0.3,13.1
				c-2.5,3.4-5,4-7.2,0.7C-21308.7,3072.7-21308.8,3056.8-21302,3056.8z M-21327.3,3066.1c1.6-0.1,3.6,0.3,6,1.1
				c8.1,2.9,18.9,14.9,14.4,16.6c-6.6,2.6-21.1-4.4-24-11.6C-21332.3,3068.5-21330.8,3066.3-21327.3,3066.1z M-21393.1,3077l1,15.1
				l-32.4,1.8l-1.2-15L-21393.1,3077z M-21313.5,3088.4c3.2-0.1,6.4,0.2,9,1.3c4.7,1.9,1.4,5.6-6.6,8.5c-5.2,1.9-12.7,2.5-15.4,0.5
				C-21332.6,3093.9-21323,3088.8-21313.5,3088.4z M-21564.4,3094.3c22.4,13,69,42.1,69,42.1c-2.2,0.5-4.4,2.2-6.6,3.9
				c-1.6,1.4-3.4,2.7-5,3.3c-2.4,1-4.7,1.2-6.8,1.7c-14.3,3.3-21.1,11.5-16.5,21.4c1.8,3.9,2.3,3.3-0.7,6.6
				c-8.4,8.2-7.3,10.6-4.1,20.9c0.1,1.5-9.9,14.1-0.8,23.3c5.1,4.2,5.3,1.5,3.6,11.4c-0.5,5.9,1.2,10.7,9.9,12.3
				c4.8,2.1,4.8,1.3,3.1,5.4c-1.1,5.8,0.6,8.2,4.8,10.3c3.8,2.3,5.3,2.9,2.7,4.9c-28.6,15.1-37,40.8-9.2,77.9
				c3.3,4.4,11.5,16.7,11.5,16.7c-8.9,13.7-17.5,24.9-26.6,37.1l27.8,37.3c-4.3,6.9-14.4,21-20.5,34.9c-9.2,20.8-2.4,49.7,25.1,57.9
				c11.8,3.5,27.2,0.3,36.8-11.2c7.8-9.3,11.8-27.5,4.2-46.3c-9.5-21-20.6-31.2-24.3-37.2l28.5-36.8c0,0-20.5-28.3-28.7-38.6
				c53.5-67.3,8.6-85.1-0.1-90.7c-1.3-0.9-1.1-5.1-1.1-5.1c49-6.4,65.3-33.4,79.1-67.6c29.6,18.2,71.9,42.7,101.5,61.9
				c2.9,2.6,4.8,4.1,4.3,5.6c-0.3,1.2-1.4,6.6-1.3,12.1c1.5,8.8,0.9,12.8-2.6,16.2c-3.3,3.2-2.6,4.7-2,8.1c1,5.9,2,6.5-0.7,9.6
				c-3.2,3.8-4.3,5.5-3.6,14.5c0.5,5.3,1.2,9.3-0.2,12.5c-1.8,4.1-6.7,6.3-13.2,11.5c-11.3,9.1-9.7,11.9,6.7,44.1
				c14,27.5,15.6,33.8,10.6,43.7c-4.2,8.3-5.7,14.6-5,26.4c0.2,3,0.5,6.3,0.5,7.9c0,3.8,0.1,3.4-2.1,5.8c-1.7,1.9-4.5,5.6-6.2,8.3
				c-18.4,28.4-66.8,101.4-66.8,101.4l-167.2,2.8L-21564.4,3094.3z M-21330,3103.5c2-0.2,4.4,3.3,7.2,10.2c1.6,4,1.6,11.1-0.9,13.8
				c-4.9,5.5-11.9-7-9.9-17.1C-21332.7,3105.9-21331.5,3103.6-21330,3103.5z M-20861,3088.1c0.4,25.6,0.4,58.8-8,83.4l10.1,4.4
				c-3.7-25.1,0-45.8,23.1-57.1C-20846.5,3111.9-20854.8,3100-20861,3088.1z M-21354.9,3112.4c0.8,0,1.7,0.1,2.8,0.5
				c3.8,1,8.4,3.1,11.2,5.8c4.9,4.8,9.9,10.5,8.6,11c-7.8,3.6-28-6.6-25.5-14.9C-21357.2,3113.2-21356.2,3112.5-21354.9,3112.4z
				 M-21389.9,3114.1l0.4,12.5l-19.6-12L-21389.9,3114.1z M-20947.1,3112.8c3.1,0.2,8.1,4.2,7.4,7.1c-1.3,3.1-3,2.8-5.2-0.4
				C-20947.7,3115.6-20948.8,3113.1-20947.1,3112.8z M-21339.6,3134.8c4.7-0.2,8.8,0.8,9.3,3.2c0,2.3-3.5,5.3-7.9,6.8
				c-11,3.5-19.3,1.5-16.3-3.9C-21352.8,3137.3-21345.7,3135.1-21339.6,3134.8z M-20955.5,3142.7c-4.5,8.4-4.7,34.9,3.7,45.6
				c13,13.8,25.1,31.8,24.1,56.1l-12.2,5.7c0.3-20-0.7-32.9-16.7-49.9c-19-19.9-15.2-54.9-8.9-65.3
				C-20960,3124.7-20951.8,3138.9-20955.5,3142.7z M-21493.5,3140.5c3.9-0.3,8.8,1.9,17.5,7.5c22.5,15.2,34.6,21.1,56.9,36.2
				c3.3,2.9,3.1,2.5,2.6,4.9c-7.9,32.1-31.9,57.9-68.1,63.2c-4.2,0.6-2.1-2-4.7-7c-2.7-5.1-7.5-7.3-12.9-7.3
				c-15,0.1-2.3-8.4,15.9-11.1c6-1,13.3-2,17.1-5.6c0.8,0.4-3.6-25,0.4-34c2-8.1-0.1-11.9-2.3-7c-1.4,3.1-3.2,11.3-4.2,19.7
				c-0.8,7.1-2.3,8.1-4,4.7c-0.8-1.5-0.8-5.3,0.3-8.2c1.3-6.7-7.3-11.6-5.7-17.7c2.2-5.1-0.3-10.7-3.1-12.5c-1.6-3.3-1.5-5.7-1.3-8
				c0.4-5.4-3.3-10.5-9.1-12.7c-2.5-1.2-1.8-2.6,0.8-4C-21496,3141-21494.8,3140.6-21493.5,3140.5z M-21511.5,3150
				c1.4,0,2.9,0.1,4.2,0.4c3,1.7,5.5,11.8,2.2,12.3c-1.2,0.2-5,0.7-7.9,1.6c-9.9,3.1-14.6,2.7-14.5-2.9
				C-21527.3,3155.5-21519.2,3150.2-21511.5,3150z M-21498.3,3150.8c3.9,0,7.1,4.4,4.7,6.9c-2.5,2.5-7.4,0.8-7.5-2.8
				C-21501,3152.9-21500.2,3150.8-21498.3,3150.8z M-21495.3,3166.5c1.1-0.1,2.4,0.2,3.7,0.7c3.7,1.6,5.9,7.8,3.6,10.1
				c-1.7,1.8-6.8,1.2-9.5-1C-21502.4,3172.3-21500.2,3166.8-21495.3,3166.5z M-21507.7,3167.6c2.3,0,3.9,0.7,4.3,2.2
				c0.4,1.3-0.2,2.6,0.4,4.4c1,3,2.9,5.2,1.3,6.4c-7.6-0.3-23.3,9.4-27.9,9.1c-3.8-0.4-4.3-3.9-1.1-9.6
				C-21526.8,3173.6-21514.4,3167.6-21507.7,3167.6z M-21502.7,3185.9c1.7-0.1,2,0.8,1.3,3.2c-0.4,1.7,0,5.8,1.2,8.4
				c1.3,2.8,3.6,4.4,2.4,5.6c-1.9,0.6-8.5,2-13.9,4.1c-7,4-26.8,16.1-22.1-2.8c1.5-6.3,8.8-10.8,21.5-15.4
				C-21507.4,3187.2-21504.4,3186-21502.7,3185.9z M-21492.3,3186c3.1-0.3,6.6,1.1,8.3,4.9c4.8,9.1-8.5,10.6-12.8,3.1
				C-21499.4,3189.5-21496.2,3186.3-21492.3,3186z M-21489.4,3207.2c6.9-0.1,12.4,8.3,7.4,11.6c-3.7,2.3-8.3,1.9-12.5,1
				C-21500.9,3217.1-21498.2,3207.3-21489.4,3207.2z M-20829.5,3196.5c26.5,13.2,62.2,25.2,97,33.9l5.6,338.5l-236.4,3.9
				l-66.6-111.1c0,0-2.2-3.6-2.9-5.2c-1.4-3-0.9-5.5-0.1-8.7c2-7.6,8.3-22.7,14.1-33.4c15.2-28.8,36.9-60.4,24.4-87.6
				c-1.4-3.1,12.1-20.3,12.1-20.3c21.3,1.4,38.6-12.7,31.8-45.1C-20906.5,3242.8-20870.1,3227.6-20829.5,3196.5z M-21501.6,3209.2
				c0.6,0-1.1,7.4,2.8,11.9c2.4,3.5,2,3.4-5.9,6.7c-2.9,1.6-5.9,4.1-7.5,5.7c-11.2,10.3-22.7-2.7-11.9-13.5c8.8-8.1,18-10,22.4-10.6
				C-21501.7,3209.3-21501.6,3209.2-21501.6,3209.2z M-20959.4,3207.3c3.8,0.6,8.9,5.6,7.3,8.4c-5.2,9.1-5.4,13.9-5.7,23.2
				c-0.4,10.4,1.4,11.9-2.6,10.1c-2.6-1.2-7.5-3.1-8.6-5.8C-20971.6,3237.2-20965.7,3206.2-20959.4,3207.3z M-21504.8,3242.3
				c4.2-0.1,8.7,1.2,11.3,4.3c2.1,2.6,2.4,4.9,0.3,6c-4.9,2.7-21.2,1.6-22.1-1.7C-21516.7,3245.8-21511,3242.5-21504.8,3242.3z
				 M-21257.2,3244.8c20-0.2,43.3,3.6,61.5,11.1c25.7,9.2,48.7,33.2,54,43.6c1.6,3.2-1.6,3.2-4.3,3.5c-30.4,5.5-39.9,42.9-13.9,60.3
				c8.2,4.9,14.7,4.2,14.7,4.2c6.5-0.7-27.9,67.6-41.3,110c-43.8-1.1-76.7,6.2-119.7-7.7c-4.7-7.5-3.9-24.3-0.7-33
				c2.9-7.9,6.9-14,4.8-23c-3.7-15.7-18.4-35.9-23.5-48.9c-4.4-9.8-4.2-13.6,3.1-19.4c8.6-6.8,10.7-8.3,13-11.7
				c2.2-3.2,1.2-3.9,1.1-11c-0.1-8.6-0.3-7.3,6.9-8.7c2.5-0.5,8.4-2.5,12.8-4.9c9.3-5,15.8-5,21.3-2c2.4,0.6,2.1-1.9,3.1-5.1
				c0.4-1.4,1.4-3.8,1.3-4.5c-0.2-1.5-3.3-1-6.8-0.4c-13.9,2.2-24.9,2.8-30.6,0.8c-4.9-1.7-5-5-2.2-10.5c2.5-4.9,4.3-4.8,3.1-14.9
				c-1.5-12.7,0.2-15.4,6.1-19.6C-21286.2,3247.6-21272.7,3245-21257.2,3244.8L-21257.2,3244.8z M-21184.9,3254.8l64.9-1.1
				c-6.2,10.3-13,26.1-16.8,41.1c-0.6,1.2-1.2,2.3-2.8,0.9C-21148.5,3283.4-21158.7,3270.2-21184.9,3254.8z M-21237.9,3301
				c-7.7,0.4-17.4,4.2-29.5,11.4c-8.2,4.8-14.9,7.9-23.7,6.4c-5-0.8-5.7-0.1-6.3,1.5c-2.8,7.3,8.3,15,19.3,9.7
				c3.2-1.4,27.7-14.5,29.1-15.6c1.5-1.2,11.7-4.4,14.4-4.4c8.2,0,13.3,6.3,12.5,13.6c-1.2,9.9-15.2,10.6-16.3,1.9
				c-0.8-6.7-3.6-3.7-3.8-0.4c0,2.8,2.3,9.2,4.7,10.7c12,7.2,27.4-7.4,19.7-22C-21222.8,3304.8-21229.1,3300.6-21237.9,3301z
				 M-21290.6,3336.2c-8,1.7-13.2,4.8-21.9,5.7c-7.1,1.7-6.5,7.3-2,10.2c3.5,2.2,7.8,0.8,20.2-7.3c12.2-8,23,8,13.3,16.5
				c-6.1,5.3-1.8,6.6,2.4,3.4C-21267.9,3356.4-21274.5,3332.9-21290.6,3336.2z M-21251.8,3377.2c-0.9-0.1-2.4,0.3-4.4,1.3
				c-9.2,4.3-16.2,8.9-20.5,14.8c-0.7,1.3-0.3,3.4-0.6,5.1c-0.3,1.3-1.3,3-1.1,3.9c0.2,0.8,2.8,1.6,3.2,2.3c1.6,3,0.7,10.6-0.1,16.1
				c-0.4,2.7-4.3,3.5-5.9,5.2c-5.1,5.3-3.8,6.9,1.7,4.8c3.8-1.5,2.2-4.1,11.8-2.4c12.4,2.2,22.2-1.3,31.9-6.9
				c10.7-6.1,14.6-9.5,15-8.8c0.7,1.2,0.2,1.8-7.4,8.3c-19.1,16.3-33.4,20.2-44.4,14.4c-3.3-2.1-5.9-3-3.4,1.7
				c0.3,0.5,3,2.5,4.8,3.3c11.2,4.8,25.1,0.4,42.7-13.9c3.9-3.1,7.2-6.6,11.7-10.4c14.6-12.5,10.6-18.1-6-11.8
				c-5.2,2-6.7,0-13.9-2.7c-9.6-3.5-12.7-3.8-23.7-3.8c-9.6,0-11,0.9-11-0.7c0-2,6.3-9.3,13.5-12.6
				C-21250.9,3381.2-21249,3377.4-21251.8,3377.2z M-21233.7,3407.2c1.8,1.8-0.7,2.9-7.6,6.3c-3.9,1.9-7.4,3.5-7.9,3.5
				c-0.6,1.1-7.3-13.3-5.6-14.1C-21254,3402.6-21238.1,3403.7-21233.7,3407.2z M-21258.8,3406.1c1.7,3.3,2.9,6.7,3.6,9.9
				c0.2,1,0.9,2.4-0.7,2.4c-1.2,0.2-3.2,0.3-4-0.8c-1.6-2.4-3.5-10.7-2.9-12.3C-21261.6,3403.7-21259.4,3404.8-21258.8,3406.1z
				 M-21201.6,3431.3c-0.6,0-1.7,0.5-3.3,1.5c-27.2,16.5-59.9,25.5-81.2,17.9c-7.2-2.6-8.5-1.6-5.8,3.2c1.9,3.3,5.5,7.2,11,8.6
				c17.4,4.4,45.1-2.9,66.3-17.2C-21206.1,3439.5-21199.1,3431.3-21201.6,3431.3z M-21039.4,3471.8c0.1,0,54.9,98.4,59.6,103
				l-394.6,4.8l64.9-94.5C-21308.7,3490.4-21148.6,3509.5-21039.4,3471.8z"/>
			<path id="path4035-6-4-6_1_" class="st3" d="M-21371.8,3579.6l62.2-94.5c94.5,16.2,179.2,5.4,271.8-12.6l63.6,102.6
				L-21371.8,3579.6z M-20877.9,3223l-1.3-55.5l19.6,6.9c-7.2-25.7,9.4-52.9,24.9-54.3c-50.2-36.4-9.7-76.8-10.5-77.6
				c-54.7-26.9-28.2-70.1-32-73.9c-66.4-15.9-41.5-68.5-46.4-63c-38.3,12.1-60-19.6-61.1-45.6c-33,19.3-84.9-6.4-69.3-36.5
				c0,0,17.8,8,20.9,6.3c26.9-20.1,25.2,8.1,31,14.2c20.2-3.3,32.5,12,37.6,19.4c29.9-0.5,28.6-7.6,29.3,21.3
				c22.6,5.3,21.9,17.4,35.3,33.8c28.4-0.2,23.8,9.1,17.6,24.8c20.8,15.9,22.6,28.5,26.2,43.2c22.5,7.7,26.6,10.9,12.3,29.8
				c20.2,29,11,46.2,14,47.8c24.9,17.2,12.7,23.8,2.1,30.7c4.1,23.4,7.2,26.8-1.1,50.7c28.6,19.5-4,29-5.7,28.6l0.2,19.7
				L-20877.9,3223z M-21564.9,3089.7l-1.7-68.7l242.2,149.8l-29.5,47.7L-21564.9,3089.7z M-21244.8,3185.6l54.7-118.7l-22.5-128.1
				l162.4,0.8c18.9,40.9,30.5,75.8,78.4,143.2l-49.2,16.1l3.1,82.6L-21244.8,3185.6z M-21106.5,3152.3c-1.7-3.4-2.7-5.7-2.4-7.2
				c0.6-2,2.1-1.9,4-0.9c7,3.2,13.9,6,18.9-0.4c2.5-3.3,1.7-8-0.5-10.7c-4-7.8-16.2-1.9-20.3-1.6c-3.8,0.1-5.4-3-2.3-7.6
				c1.8-2,3-4.2,3.2-6.8c1.9-18-28.9-11.1-17.9,6.2c5,6.4,2.2,10.3-5,6.4c-8-4.4-18.8,0-18.3,9.5c0.4,7.2,9.5,11.4,17.1,7
				c1.7-1,3.1-2.1,4.3-2.7c3.5-1.6,6.1-0.4,5,3.6c-3.1,5-6.7,12.2-3.5,16.8c3.2,6.8,14,6,17.6,1.7
				C-21104,3162.5-21103.4,3157.8-21106.5,3152.3z M-20737.9,2785l-242.7-150.6c14.5-19.4,23.1-34.9,31.1-50.4l210.7,129.7
				L-20737.9,2785z M-21114.2,2739l26.7,124.4l-167.6,5.1c-9.9-41.7-69.1-135.6-68.9-134l42.9-109.8l222.5-3.9L-21114.2,2739z
				 M-21177.9,2693.6c4.2-3.9,3.8-9.8-1-16.4c-4.6-6.4-2.7-11,4.6-6.8c4.1,2.6,10.5,3.1,14.8,1.6c5.4-1.9,7.7-6.3,6.8-11.8
				c-1.1-6.6-8.5-8.3-16.4-5.3c-2.3,0.5-3.6,2.4-5.6,3.3c-4.2,1.9-6-3.1-2.2-9.8c4.2-7.4-0.4-15.2-8.4-15.7
				c-8.5-0.6-13.4,9.1-9.9,14.3c5.1,7.5,1.6,12.8-5.6,7.9c-10.4-7.1-23.7,2.3-17.9,13.1c2.8,5.2,11.6,6.4,19.5,3
				c6.6-2.9,8.6,0.3,4.7,7.1C-21202.6,2692-21188.9,2703.9-21177.9,2693.6z M-21423.2,2575.1l-0.7,66.5
				c-25.3-14.8-21.6-15.1-22.5-14.8c7.7,19.9-0.5,44.7-21.6,57.2c38.9,35.1,18.6,60.5,12.6,77.6c49.5,27.4,25.4,76.6,25.6,74.1
				c48.3-0.5,48,41.4,49.7,58.9c59.7-4.7,52.4,42.8,60.4,46.8c28.7-13.3,62.6-9.5,72.2,29c6.2,21.8-15.5,1-24.7,2.1
				c-32.7,21-26.8-10.3-28.8-14.6c-27.3,3-31.2-9.9-43.3-18.8c-29.4,6.1-27.2-3.6-25.7-21.4c-23.2-4.3-28.5-18.5-38-32.4
				c-32,1.6-19.3-21.1-19.2-25.5c-3.9-3.4-22.6-21-23.8-41.6c-33-8.7-12.6-25.5-11.5-31.1c-12.7-15.2-16.1-26.4-12.3-45.9
				c-29.4-13.1-5.2-26.1-3.3-33.8c-9.9-25.1-3.1-32.7,0.4-46.4c-19.1-21.5-7.9-20.5,5.6-34c1.7-2.4-3.3-13.3-3.1-19.8
				L-21423.2,2575.1z M-21258.8,2325.8l-54.1-92.6l375.4-6.2c0,0-39.9,56.9-55.3,85.5
				C-21086.7,2299.4-21174.2,2307.8-21258.8,2325.8z"/>
			<path id="path4039-1-1-4_1_" class="st1" d="M-21501.2,3521c-33-6.9-39.3-47.9-9-82.6c2.5-2.8,4.1-7.1,4.1-7.1
				c-11-16.2-16-21.9-27.2-38c9.4-14.6,20.5-25.8,27.5-38.5c-0.5-2.2-3.7-4.3-7.6-9.8c-22.8-32.2-25.5-45.1-14.5-64.7
				c10.3-18.4,35.7-20.9,51.4-5.1c17,17.1,16.5,32.9-4.7,65.4c-4.7,7.1-8,13.6-8,13.6c6.2,11.9,16.6,22.9,27.2,37.9
				c-9.4,12-19.1,23.3-27.3,37c0,0,0.9,2.9,2.8,5c35.1,38.3,33.2,82.9-5.8,87.3C-21494.2,3521.6-21499.1,3521.3-21501.2,3521z
				 M-21231.9,3021c-0.9-1.5-120.9,198.6-120.9,198.6l14.2,8.7l114.9-185c1.8,1.3,3.6,2.9,3.2,5.1c0,0-94.5,158.8-110.3,184.1
				c-0.4,0.7,24.3,14.7,25.2,14.7c35.8-18.3,186.7-5.5,286.6-13.2c0.4,0.3-1,34.9-1,34.9s-23.2-25.8-27.9-25.9
				c-22.7-0.4-46.5,9.6-63.7,8.8c-10.9,3.5-22.7,43.3-25,53.3c-19.9-2-38.8,19-33.9,38.2c6.9,21.3,18,19.5,30.1,19.7
				c-0.7,24.2-42.7,88.8-42.4,120.3c45.5-4.3,94.8-6,141.5-20.8c0,0,16.8-50.7,38.5-84.3c7.1-12.8,10.3-32,7.2-43.9
				c-2.1-13.1,3.6-16.6,8.5-25.9c3-5.8,14.5-5.8,16-6.2c29.7-9.1,18.4-47.3,5.6-53.9c-16-8.3-38.2,5.3-47.1-11.8
				c-9.4-18.1-7.1-56-7.1-56l-225.6,4.8c0,0,61.8-121.4,60.1-122.2C-21202.7,3053.9-21231.7,3021.4-21231.9,3021z M-21381,3133
				c0.9-12.2-0.5-209.9-190.2-305.1l0.6-26c1.1-1.4,172.4,73.4,204.9,274.3l51.1-82.5l19.4,7.2
				C-21323.1,3043.9-21378.1,3148.1-21381,3133z M-21496.4,3063.7c7.4-23-5.1-10.6-16.7-11.4c-8-4.1-15.9-9.5-23.3-14.2
				c54.5-29.8,21.8-27.9-9.9-7.1c-8.4-4.3-19-14-19.7-13.1c61.4-40.7,38.1-41.1-1.1-11.7c0.9-26.9,0.1-16.8,0.5-25.9
				c33.3-36.6,2.1-16.5-0.3-16c-8.9-35.8,31-28.9,35.2-1.8c7.1,5.1,21,11.2,25.4,33.5c19.3,11.8,17.5,21.8,16.8,36.4
				c7.6,7.2,27.2,22.4,4.9,37.1L-21496.4,3063.7z M-21570.5,2900.9l0.9-19.9c2.5-8.1,149.3,92.3,141,224.5c1.7-1-16.2-9-21.4-13.4
				C-21451.5,2994.9-21556.8,2911.2-21570.5,2900.9z M-20736.5,2998.7c-97.5-42.5-191.2-146.5-198.3-283.8l-53.2,91.9l-19.5-7.8
				c1.8,1.5,42-75.6,83.8-129.1c14.9,173.1,84.7,252.5,189.3,309.4L-20736.5,2998.7z M-21244.5,2943.7c-94-10-231.7-134.6-194-307.2
				c5.5-17.6,97.5,77.7,97.5,77.7c0.5-4.4,83.4,123.6,81.6,148.9c68.5,18.2,201.4-2.3,201.4-2.3c111.1,22.7,228.8,139.4,189.8,308.7
				c0,0-29.7-18.7-54.7-40.6c-75.9-70.5-100.6-129-128.1-193.6C-21146.9,2928.1-21236.3,2946.6-21244.5,2943.7z M-20739,2792.1
				c1.8,8.5,1,26.3,1.3,26.3c-24.5,27.4-27.1,27.9,4,18.7c-3.4,25.9-22.6,30.5-34.2,21.9c-4.3-3.2-4.6-21-4.6-21
				c-19-4.4-25.6-10-23.3-30.2c-21.9-2.2-21.2-12.8-19.8-34.9c-20.1-10.8-15.4-28.5-3.8-36.3l9.9,6.6c-3.1,2.9-1.3,20.4,15.9,7
				c0,0,14.1,11.3,20.9,15.6c-49.9,33-19.4,25.4,11.3,3.8c5.9,3.8,14,10.2,18.1,12.9C-20783.5,2812.2-20796.5,2836.8-20739,2792.1z
				 M-20734.7,2901.5l-1.3,23.2c-100.5-58.8-128.8-138.1-137.6-223c0,0,13.5,9.6,19.7,13.5
				C-20843.2,2824.7-20740.9,2897-20734.7,2901.5z M-21284.7,2623l238.7-2.4l-61.3,121.3l34.1,38.7c0,0,80.8-129.7,121.4-197.6
				l-14.6-8.3l-115.9,187.7l-4.8-5.1l114.2-187.5c-7.1-4.5-20.5-11.6-20.5-11.6s-203.2,6.6-291.6,7.7c2.7-12.2,2.9-33.6,2.9-33.6
				c13.3,18.4,27.6,34.7,57.7,16c0,0,35.9,0.6,37.2-1.1c4.3-7.1,11.7-29.5,20.4-54.7c34.6-2.9,30.9-19.5,34.7-25
				c-3.5-48.9-30.7-22.1-28.6-39.9c7.3-31.8,46-104.2,40.9-110.4c-10.4-6.6-112.2,15-141.8,19.2c-2.8-1-16.5,46.3-31.5,66.7
				c-16.3,22.2-21.8,45.8-13,67.8c-8.4,24.5-25.3,22.3-38.8,29.4c-15.1,16.8-10.4,42,4.4,51.6c10.3,6.6,26,6,41.7-7.1L-21284.7,2623
				z M-20813.3,2445.1l-28.5-36.8l26.4-39.6c-11-16.7-29-42.1-26.2-62.6c6.2-40.6,61.3-35.6,66.7,3.1c2.9,17.9-9.9,40.2-23,59.2
				c9.1,15.9,12.9,18.4,26.1,36.5c-7.4,13.5-25.6,40-25.6,40c11.9,19.2,28.4,40.3,27.6,60c-0.9,17-19.2,34.4-36.6,31.1
				C-20860.5,2525.6-20831.3,2467.9-20813.3,2445.1z"/>
			<g id="g4049-4-4-2_1_">
				<path id="path4033-2-3-3_1_" d="M-21321.9,2229.2c15.3,27.4,58.5,101.2,58.5,101.2c99.6-22.2,183.6-28.9,272.3-11.1l61.6-96.1
					L-21321.9,2229.2z M-21308.8,2234.5l18.1-0.3l36.7,71.9l61-13.2l-11.4-60l17.3-0.2l9.7,57.7l89.8-3.7l10.7-56l16.6-0.1l-11,56.9
					l71.3,8.3l33.7-67.1l23.9-0.4l-51.6,83c-94.5-16.7-188-9-265.9,11.4L-21308.8,2234.5z M-21274.7,2234l52.8-0.9l13.5,48.7
					c-6.4,3.5-30.5,9.6-38.6,8.9C-21257.1,2274.1-21267.5,2249.9-21274.7,2234z M-21173,2232.3l80.3-1.3l-6.2,41.8l-67.3,3.2
					L-21173,2232.3z M-21045.7,2230.2l61.9-1l-23.6,51l-46.8-5.5L-21045.7,2230.2z M-20809.2,2276.9c-3.6,0-6.9,0.4-10,1.1
					c-16,3.6-24.2,16-24,36c0.1,9.2,7.2,25.3,17.8,40.4c5.2,7.4,8.6,14.2,8.6,14.2l-26.3,39.8l29.3,36.7c0,0-4.4,5.3-7,9
					c-12.8,18.7-18.6,36-17.6,50.2c1.2,15.3,10.3,26.8,27.2,32.1c9.3,2.9,22.4-1.1,31.1-9.2c7-6.5,10.5-15,10.5-24.8
					c0-14-7.1-30.9-21-49.2c-3.8-5-5.6-8.9-5.6-8.9s18.6-27.2,25.5-39.6l-26.6-36.6c20.1-31.2,24.2-38,24.4-57
					C-20774.1,2292.5-20788,2276.7-20809.2,2276.9z M-20811.8,2279.2c0.9,0,1.8,0,2.7,0c23.6,1.4,36.3,18.6,33.6,41
					c-2.9,21.4-21.9,41.5-24.8,48.4c9.5,14.9,27.4,35.9,27.4,35.9c-7.2,13.6-26,39.9-26,39.9s1.1,2.1,2.4,3.8
					c20.5,27.9,26.3,41.1,25.2,58.1c-0.9,13.4-11.3,25.4-24.5,28.1c-20.9,4.2-38.3-10.3-40.8-30.2c-1.6-17.4,9.5-34.6,18.1-48
					c3.6-5.6,6.8-11,6.8-11l-29.2-36.7c8.5-13.8,19.2-27.5,27.1-39.2c0,0-4.4-6.7-8.4-12.9c-16.1-24.3-20.6-36.8-18.4-50.4
					C-20838,2289.4-20825.1,2279.7-20811.8,2279.2z M-20809.4,2291.8c-8.7,0.4-16.9,6.9-20.1,16.2c-4.5,17.4,14.3,43.3,22.7,50.2
					c15.3-18.1,25-38.3,19-52.2C-20791.8,2297.5-20800.7,2291.4-20809.4,2291.8z M-20807.2,2297.4c15.8,0.1,22,18.6,10.2,40
					c-4.1,7.3-10.2,14.9-10.2,14.9s-5.9-7.1-9.5-12.4c-14.5-21.7-11.1-38.9,6.2-42.2C-20809.3,2297.4-20808.2,2297.3-20807.2,2297.4
					z M-21121.2,2312.2c-41.3,0.9-96.4,8.6-144.8,20.4c-3.8,25.9-16.4,52.1-30.3,72.9c-13.4,22.5-18,42-13.2,55.2
					c4.5,12.4-6.9,31.1-19.8,32.5c-16,1.7-26,13-25.5,28.7c0,25.3,17.8,40.5,41.5,31.5c2.4-0.3,4,1.2,4,1.2l1,144.7
					c-13.4,2.3-22.3,5.4-33.6,11.6c-21.6-23.6-39.6-40.3-56-52c-1-32.2-0.2-64.6-2.2-96.7c-23.8,9.6-49.1,25.1-69.9,39.3
					c-7,4.8-7.6,7.4-4.8,19.3c1.6,6.6,1.2,7.4-4.3,8.8c-11.3,3-14.6,21-4.9,27c4.6,2.8,4.6,2.9,1.8,9.5c-4.3,10.2-3.8,29.4,0.9,37.4
					c2.7,4.5,2.6,6-0.9,8.4c-12,8-10.9,24.8,1.8,27.7c3.2,0.8,4.1,2.1,3.1,4.9c-3.8,10.2,0.1,25.6,9.3,37.1c4.8,6,4.8,5.9,1.7,8.8
					c-10,9.3-4.3,25.6,9.7,27.2c4.8,0.5,4.8,0.5,5.4,4.2c1.8,10.4,2.5,13.3,4.9,18.1c3,6.1,6.6,10.2,13.3,15.2
					c5.4,4.1,5.4,4.1,2.7,10.3c-5.1,11.4,3.5,22.5,16.9,21.8c6.8-0.4,6.8-0.4,7.4,2c2.6,11.8,17,25.4,28.6,27.1c6,0.9,6.9,2.3,5,7.3
					c-3.1,8.1-0.9,13.3,7.4,17.4c5.6,2.7,7.2,2.8,13.2,0.6c6.8-2.4,6.9-2.4,12.8,5.2c8.4,10.8,13.9,13.4,27.5,13.3
					c9-0.1,9.4,0.1,9.5,6.5c0.4,14.9,16.4,20.9,26.5,9.9c3.6-4,3.6-4,7-1.6c14.6,10.3,27.4,12.8,26.1,3c-3.2-23-20.1-36.7-20.1-36.7
					l21,5.1c1.3,24.3,2.7,53.5,8.1,73.7l-90.8,149.1c0,0-5.7-3.3-11.7-7.3c-8.9-5.9-19.7-12.7-26.4-16.7c-3.4-2-7.7-4.5-11.2-7.3
					c-3.3-2.6,1.9-6.3,3-9.1c20.8-38.4,53.7-84.8,77.4-129.7l-23.8-8.7c-17.7,28.6-30.6,51.7-47.1,78.1
					c-18.8-122.1-106.6-228.2-211.5-271.7l0.9,32c110.2,53.7,190.1,167,190.2,302.1c-0.4,0.5-9.2-4.5-21.1-12.1
					c-6.3-4-18.9-11.9-20.5-12.7c2.6-149.7-148.3-235.7-148.5-231.5c0,0-0.6,19.4-0.9,28.3c64.4,41.3,115.7,117.6,121.9,186.1
					c0.1,0.6-30.2-18.1-30.2-18.1c17.7-9.1,12.4-31.9-0.5-37.8c-4-1.7-4.3-2.6-2.4-8c3.9-11.1-3.9-27.6-14.3-30.3
					c-4.6-1.1-5.3-2.3-5.7-8.7c-0.6-11.6-7.2-19.1-18.9-21.4c-3.2-0.7-3.2-0.7-3.5-4.7c-1.4-22.4-23.6-31.2-40-15.8
					c-1.8,1.7-3.7,5-3.7,5l0.3,24.4c5.6-3.2,14-13.9,17.6-13.5c3.9,0.4,2.1,3-6.6,10.7c-5.6,5-11,10.2-11,10.2l0.9,32.1
					c9.3-6.2,18.7-13.3,27.5-19.6c7.5-5.4,11.4-7.2,12.4-5.7c1.1,1.7-0.6,4-4.9,6.6c-11.5,7.9-24.9,17.1-34.5,24.9l0.3,22.1l1.9,2.7
					l0.9,19.3l-1.7,0.5l0.4,24.4l232.2,142l113.9-185.2l2,1.9l-114,184.4c0,0,4.9,4,9.5,6.3c4.7,2.5,10.5,5.8,15.6,9
					c2.4,3.8,6.6,7.1,10.9,6.5c4-4.4,21.4-9.3,23.1-11.4c65.4-2,253.3-3.9,253.3-3.9l1.6,29.8c-8.9-28.8-36.2-34.3-57.4-21
					l-35.2,0.6c-0.3,0-20.2,37.5-22.9,56.9c-14.8-1.8-34.2,12.9-35,27.4c-2.1,20.7,11.9,35.5,29.7,32.3c0.3,0.1-2.5,20.5-12.3,36.6
					c-12.9,28.3-19.6,44.1-27.4,68.1c-5.3,15.1-3.4,17.8-2.4,18.1c52.4-1.6,100.6-7.5,150.1-24.2c0,0-1-3.5-1.5-5.5
					c-1.9-8,4.6-24.5,23.2-58.6c14.4-26.4,18.4-36.4,19.7-48.8c0.6-6.3,0.5-7.9-1.9-19.5c-0.2-1.1-1-2.6-0.8-3.8
					c1.4-7.9,13.2-21.8,13.5-21.5c0,0,4.3-0.9,6.1-1.1c27.1-2.3,34.9-39.1,11.7-55.2c-11.3-6.6-17.8-7-29.6-3.7l-2.6-141.9l16.5,0.3
					l18-9.2c29.5,24.2,48.9,49.1,80.6,67.6l-0.5,1.3l-23.5-15.5l1.6,93c26.7-14.4,51.6-27.6,75.5-47.5l-5-4.1l0-13.3
					c22.8,1.4,24.5-27.4,5.7-30.5c0,0,0.4-2.3,2.1-6c5.5-11.8,6.1-22.8,1.7-34.9c-2.7-7.4-2.6-9.2,0.4-9.3
					c13.8-0.2,12.2-24.5-2-29.6c-4.9-1.8-4.5-0.2-3.8-15.4c0.6-11.4-2.4-19-11-28.9c-3.3-3.7-3-5.5,1.1-8.1
					c11.7-7.4,2.8-27.9-11.7-27c-5.7,0.3-5.7,0.3-6.2-5.3c-1.5-14.8-10.1-28.8-21.1-34.5c-3.4-1.8-3.9-3.3-2.1-5.8
					c9.1-12.5,0.1-29.2-12.9-24.1c-2.5,1-5.2,2-5.9,2.2c-1,0.3-1.9-1.1-4-6.6c-5.7-15.1-10.6-19.8-28.1-26.8
					c-3.4-1.4-3.7-2.4-2.2-9.3c2.5-12-14.4-22.9-23.2-15c-3.6,3.2-3.7,3.2-7.9-2c-8.4-9.2-21.8-15.5-33.7-16.6
					c-5.7-0.4-6.6-0.8-6.1-3c2.9-14.7-11.6-24.1-23.5-15c-5.7,4.3-7.2,4.5-13.1,1.3c-12.5-6.7-18-6.9-19.1-0.6
					c-0.3,5.2,0.9,11.3,2.3,15.1c3.2,10.3,7.2,14,15.8,21.2c0,0-14.3-3.7-17.9-4.3c0.3-0.4-1.8-49-11.6-76.3l88.5-145.1l52.6,33.2
					l-81.1,132.1l24.4,9.4c0,0,31.5-53.9,48-80.3c13.2,129.7,116.3,242,208.4,274.3c-0.3,0.2,0-18.7,0.2-27.8
					c-97.4-40.7-191.3-157.3-187.8-299.1l39.2,24c13.1,113.4,64.1,179.2,148.1,234.1l-0.6-34.8c-57.9-41.1-106.3-95.2-120.4-182.9
					c0,0,19.6,11.8,28.4,17.5c0,0-2.4,1.4-3.7,2.5c-10.2,8.8-6.8,26.3,7,36c2.2,1.6,2.3,1.6,0.3,7.2c-4,11.1,2.7,24.2,13.5,26.8
					c6.2,1.5,6.2,1.4,6.4,8.5c0.4,13.7,6.1,19.9,20.9,22.9c2,0.4,2.1,0.6,2.2,6.8c0.2,15.1,15,25.1,27.6,18.5
					c4-2.1,16.3-12.7,16.3-12.7l-0.4-24.4c0,0-5.6,4.7-9.7,8.6c-7.1,6.8-9.3,7.6-9.4,3.6c0-2.9,3.2-6.9,10-12.1
					c3.5-2.7,8.9-8.4,8.9-8.4l-0.5-28.4c0,0-3.3-5-3.2-11.1c0.1-3.3,0.9-8.3,0.9-8.3l3.4,0l-0.6-32.8l-4.2-3.2l-0.2-21.8
					l-229.6-142.3l-115.3,188.9l-3-3.4l115.4-187.7l-31.8-19.5l-18.9,9.6c0,0-131.6,0.1-259.8,3.9c0,0-0.4-3.5-0.5-13.4
					c-0.1-12.5,0.4-14.2,2.8-9c5.4,11.7,18.4,18.6,33.3,17.7c8.4-0.5,9.6-0.9,18.9-6.1c3.5-1.9,4.1-2,20.5-2.2
					c17.6-0.2,20.8-0.9,20.8-4.6c5.9-14,11.7-30.2,15-42.3c1.6-5.9,2.3-8.5,3.7-9.7c1.1-0.9,1.9-0.7,4.5-1
					c11.3-0.9,14.4-1.7,22.4-9.7c16-16.5,6.1-49.5-17.5-49.2c-6.2,0.1-2.2-16.5,10.5-43.5c13.2-28,15.1-32.2,21.8-50.9
					c4.4-12.2,6.5-21,7-26.3C-21118.6,2312.2-21119.9,2312.2-21121.2,2312.2z M-21122.3,2320.3c3.3,2.7-4.5,22.8-18.7,53.4
					c-11.7,25.2-17,37.8-19.4,46.9c-0.7,2.6-1.7,6.4-2.2,8.4c-0.8,2.8-1.8,4.2-4.5,6.2c-2,1.4-4.7,3.6-6.1,4.7
					c-3.9,3.2-4.9,2.2-4-4.2c1.6-11.9,6.1-24.7,16.7-47.2c8.4-17.8,16.5-37,22.8-56.4c1.4-4.5,2-9.1,4.5-10.9
					C-21129.9,2319.3-21126.2,2319.6-21122.3,2320.3z M-21140,2321.7c2.3,1.5-8,29.1-25.8,67.5c-22.3,47.9-23,81.2-2.1,89
					c16.5,6.2,32.7-12,22.3-24.9c-5-6.2-15.4-6.6-19,0c-1.9,3.6,0.9,7.6,4.3,2.6c5-7.3,15.3,0.9,13,9.5c-1.6,5.9-9.8,10.8-15,9.8
					c-22.8-4.1-19-35.9,4.5-38.1c22.5-2,33.2,27.8,17.2,45.2c-5.1,5.6-11.1,8.5-21.7,8.7c-14.6,0.2-28.5-11.6-27.3-22.7
					c1.8-10.2,1.9-18.5-1.7-26.4c-1.2-2.6-2.6-5.1-2.5-8.4c0.1-9,7.3-23.2,23.4-58.1c5.8-12.5,12.8-34.1,16.2-47.8
					c1.2-4,0.6-5.1,2.1-5.7C-21148.4,2321.1-21143.1,2319.9-21140,2321.7z M-21159.3,2322.5c3.4,0.1-4.1,25.2-13.6,46.7
					c-7.3,16.4-17.2,37.5-24.6,57c-2.4,4.1-4,4.5-9.1,1.9c-5.6-2.8-4-7.5,8.6-33.5c9.5-19.8,18.6-42.1,24.9-64.5
					c0.6-2.7,1.4-5,3.6-6.3C-21166.1,2322.2-21162.8,2322.4-21159.3,2322.5z M-21177.7,2325.6c1.9,2.4-9.5,36.2-27.4,74.5
					c-3.8,8.1-6.4,15.5-10.2,23.8c-1.9,1.9-9.2,3-12.9,3.8c-3.8-0.4-0.3-7.6,10.1-29.5c8.5-17.9,11-22.9,15.4-33.8
					c3.2-7.9,7.9-21.6,12.3-34.3c0.4-1,0.7-3.3,1.7-3.8C-21185.2,2324.9-21181.1,2324.2-21177.7,2325.6z M-21195.7,2328
					c0.3,0.8-0.3,2.5-0.6,3.8c-2.7,13.6-9.1,26.3-13.8,39.4c-0.6,1.8-5.7,12.9-11.4,24.7c-5.7,11.8-11,23.1-11.7,25.1
					c-0.7,2-2.6,7.2-4.2,11.7c-10.3,22.9,1.5,40.6,15.6,41.6c22,1.4,23.6-29.2,8-31.9c-5.9-0.9-12.2,2.4-12.2,9.1
					c-0.4,3.5,4,7.5,3.9,2.5c-0.4-9.1,12.5-8.9,14.2-1.2c3.3,15.1-13.8,22.7-24.3,11c-4.3-4.8-4.4-10.4-3.7-15.4
					c1.9-13.6,17.4-23.6,32.2-13.6c20.1,13.6,13.8,44.6-11.9,50.1c-8.7,2.4-19.9-0.3-26.9-7.3c-4.5-4.4-7.5-11-8.7-19.3
					c-0.7-4.6-1-10-0.4-15.1c1.8-15.9,13.1-39.2,23-59c7.6-16.4,13.5-38,20.4-55.4C-21206.3,2327.3-21195.4,2325.7-21195.7,2328z
					 M-21215.1,2330.5c1.2,0.3-4.5,19.2-12.8,39.7c-9.1,20.7-20.9,44.5-27.6,64.9c-2.1,5-3.7,4.9-10-0.8c-3.3-3-1.6-7.5,9.6-31.1
					c17.1-36.2,23.4-51.6,25.9-60.2c1.2-4,2.1-9,4.7-10.6C-21221.8,2330.8-21218.5,2329.6-21215.1,2330.5z M-21232.7,2335.3
					c-1.8,6.1-7.6,24.1-17.8,45.5c-6.4,13.5-12.6,28.4-18.8,42.4c-3.5,8.6-3.6,8.6-9.8,10c-10.4,2.3-10.4,2.2-1.5-16.5
					c2.6-5.6,7.8-15.8,11.3-22.7c6.6-12.7,16.8-37.5,20.4-49.8c1-3.3,2.3-6.4,4-8.1C-21243.7,2335.4-21235.5,2332.9-21232.7,2335.3z
					 M-21255.5,2337.9c1.9-0.1,3.5,0.2,4.3,1.2c0.5,4.2-10.5,31.3-17.3,44c-2.1,3.9-4.1,8.9-6.5,13.3c-8.7,14.3-19.1,41.8-21.7,53.1
					c-4.1,18,16.8,31.3,27.3,18c6.7-8-0.6-22.1-10.4-18c-3.4,1.4-2,2.9,2.7,3.3c7.7,0.5,8.5,12.3,0.4,15.1
					c-9.1,2.9-15.9-4.8-16-12.8c-0.2-16.5,17.8-22.8,29.3-14c11.5,9.2,13.6,31.4-3.4,40.3c-16.6,8.7-37.3-2.4-41.8-22.2
					c-3.4-15.2-0.2-29.2,14.1-52.9c8.2-13.6,21-37.2,27.4-57.7c1.3-3.5,2.4-6.4,3.6-7.9
					C-21262.2,2339.4-21258.6,2338.1-21255.5,2337.9z M-20806.6,2378.4l-22,28.7c6.6,9.2,22.3,27.2,22.3,27.2l20.8-27.6
					L-20806.6,2378.4z M-20806.1,2394.3l9.5,11.8l-10.4,12.6l-10.2-11.5L-20806.1,2394.3z M-20804.3,2455.9c0,0-26.6,30-20.1,51.8
					c5.9,19.4,35.5,23.7,42.3-5c0.5-2.3,0-5.4-0.4-9.2C-20783.2,2481.9-20804.3,2455.9-20804.3,2455.9z M-20804.2,2461.7
					c0,0,8,11.1,13.6,20.9c6.3,9.4,8.4,35.7-13.5,35.3c-11.8,1.4-23.4-13.9-14.3-33C-20815.8,2479.1-20804.2,2461.7-20804.2,2461.7z
					 M-21252,2473.9c1.5-0.3,3.1,3,4.1,5.3c1.4,3.2-2.2,12.4-6,17.1c-0.7,0.8-5.7,1.3-13.1,5.2c-0.1-3.4,1.9-11,3.3-14.4
					c5-5,9.2-11,11.1-12.8C-21252.5,2474-21252.3,2473.9-21252,2473.9z M-21306.1,2476.4c3.4,3.7,6.7,6.9,6.6,9.2
					c-0.1,3.4-4.1,7.7-7.1,10.7c-3.8,3.8-11.4,1.7-11.5-3.2C-21318,2491.4-21307.4,2476.4-21306.1,2476.4z M-21191.1,2479.4
					c3.3,1.7,6.6,7.5,7.1,10.1c-4.3,25.3-21.3,56.5-20.7,55.3c0,0-10.7,2.1-15.3-0.2c11.5-16.4,19-37.2,24.1-54.2
					C-21193.8,2483.1-21192.8,2479.4-21191.1,2479.4z M-21201,2483.1c1.8-0.1,2.5,1.3,1.1,5.2c-6.5,28-21.5,57.7-33.7,63.2
					c-15.9,7.3-32,1.7-39.1-10.2c-7.6-12.9-6.7-33.4,18-38.3c14.5-1.7,29.6,9.4,22.2,27.9c-8.4,13.7-31.8,6.5-25.2-11.1
					c5-6.5,15.9-1.1,12.5,6.2c-1.7,3.7,0,5.9,2.6,3.3c8.3-8.3-5.8-22.1-15.1-15c-15.1,11.7,4.2,36.6,21.9,25.5
					c5.4-3.4,14.9-22,18.4-35.6c1.5-5.8,2.8-11.4,6.5-14.9C-21207.4,2486-21203.3,2483.3-21201,2483.1z M-21241.6,2484.9
					c0.9,0,1.9,0.4,3.3,1.1c1.8,0.8,3.9,2.4,3.7,4.5c-0.2,2.4-1.5,7.6-4.2,10.1c-1.7-0.5-6.3-2.3-9.4-3.1c-2-0.5,0.6-4.7,1.7-7.1
					c1.9-3.8,2.9-5.4,4.5-5.5C-21241.9,2484.9-21241.7,2484.9-21241.6,2484.9z M-21292.1,2486.7c2.3-0.1,6,2.4,8.4,2.7
					c0.5,3.5-3.8,11-10.9,19.8c-5.8,7.3-5.8,7.3-9.8-0.5c-2.7-5.1-2.7-5,4.4-14.1c3.9-4.9,5.7-7.2,7.4-7.8
					C-21292.4,2486.7-21292.3,2486.7-21292.1,2486.7z M-21269.1,2488.8c0.1,1.9-0.7,6-1.5,8.3c-7.8,24.5-26.6,48.9-42.3,55.1
					c-20.5,7-39.6-3.4-40.5-28.3c0-29.3,35-38,46.1-11.5c5,12-7.8,30.4-19.1,27.5c-11.4-2.9-16.5-20.4-7.2-25
					c6.1-3,12.6,1.7,11.3,8.2c-0.4,2.3-0.3,2.6,1,2.3c5.8-1.2,2.6-12.8-4.4-15.6c-13.2-5.3-22.7,12.4-13.7,25.2
					c10.8,15.4,27.4,12.2,36.6-7.2c1.6-3.3,4.6-8.1,6.7-10.5c5.7-6.8,7.5-9.4,12.5-18.3c2.7-4.9,4.2-8,5.6-9.6
					C-21275.7,2489.3-21274.1,2489.9-21269.1,2488.8z M-21222.8,2489.3c2.5,0,4.4,1.5,4.4,5c0,2.9-3.9,14.9-5.8,17.8
					c-0.7,1.1-2.4,5-2.6,4.2c-2.5-8-6.9-10.4-7.5-12.4c-0.8-2.5,1.4-4.8,2.3-7.1C-21230.1,2492-21226,2489.4-21222.8,2489.3z
					 M-21179.1,2492.4c3-0.1,7.2,1.2,8.2,3.4c2.8,4.7-14.9,49.3-15.6,49.5l-13.8-0.4c8-17.8,15-35.4,20.1-52.4
					C-21180,2492.5-21179.6,2492.4-21179.1,2492.4z M-20992.9,2559.5l17.7,10.1l-112.6,184.3l-17-12.5L-20992.9,2559.5z
					 M-21281.3,2568c108-1.4,256.7-4,256.7-4l-6.1,11.9c0,0-162.5,1.1-250.4,2.7L-21281.3,2568z M-21426.9,2577.9l0.8,60
					c-11.3-9.5-45.5-30.3-45.7-29.8C-21471.8,2608.1-21443,2588.2-21426.9,2577.9z M-20964.5,2576.2l11,6.6l-118.3,194l-7-13.1
					L-20964.5,2576.2z M-21281,2584.1l16.9-0.3l0.3,19l-16.9,0.3L-21281,2584.1z M-21242.3,2583.5l20.5-0.3l0.3,19l-20.5,0.3
					L-21242.3,2583.5z M-21197.4,2582.9l21.1-0.3l0.3,19l-21.1,0.3L-21197.4,2582.9z M-21153.4,2582.3l21.3-0.4l0.3,19l-21.3,0.4
					L-21153.4,2582.3z M-21109.1,2581.7l21.1-0.3l0.3,19l-21.1,0.3L-21109.1,2581.7z M-21064.7,2581.4l21.5-0.4l0.2,13.4l-3.2,5.7
					l-18.3,0.3L-21064.7,2581.4z M-20948.5,2585.6l208.2,129l0.2,18.3l-216.8-134.1L-20948.5,2585.6z M-20961.8,2601.3l1.8,1.2
					l-8.5,13.4l-1.8-1L-20961.8,2601.3z M-21280,2608.5l231.3-3.8l-6.8,11.8l-224.3,3.4L-21280,2608.5z M-21469.8,2617.6
					c1.6-0.1,4.6,1.2,9.4,3.7c11.5,6.2,18.9,19.4,14,24.3c-4.3,4.4-14.7-4.7-21.3-17.7C-21471.1,2621-21472.1,2617.8-21469.8,2617.6
					z M-21060.4,2622.3l-72.7,119.7c-17.2-22.7-36.5-42.2-77.5-28.1c-21.8-16.2-44.6-18.3-68.6-3.9l-1.1-83.6L-21060.4,2622.3z
					 M-21444.5,2628.7l5.9,4.9c-1.7,3.3-2.4,8-3.4,12.2C-21442.2,2640.1-21442.8,2634.4-21444.5,2628.7z M-20971.5,2622.1
					l232.4,146.4l0.2,13.9l-240.4-148.3L-20971.5,2622.1z M-21474.9,2633.9c3-0.1,5.9,1.1,8.1,3.7c3.5,4.1,2.2,11.7-2.6,15
					c-9.6,6.6-21.5-5.7-13.9-14.4C-21480.9,2635.4-21477.8,2634-21474.9,2633.9z M-21436.8,2635l12.7,9.8
					c-19.8,123.8,44.6,247.3,179.2,282.4l1.8,15.8c0.3,0.7-57.2-15.9-82.5-34.1c-34.5-22.4-63.9-54.2-84.5-91.5
					c-14-24-21.9-50.6-27-72.1C-21443.4,2708.4-21443.8,2671.8-21436.8,2635z M-21450.8,2652c4.8,0.1,5.4,3.6,1.6,10.2
					c-4.8,8.6-12.2,14.6-24.2,19.9c-6.6,2.9-8.4,1.7-7.7-5.4c1-10.6,8.3-18.5,21.1-22.8C-21456.9,2653-21453.8,2652-21450.8,2652z
					 M-21413.8,2652.7c2,1.6,2.6,2.1,5.1,4.1c-4.1,1.5-7,5.4-6.9,9.9c0.1,5.7,4.9,10.3,10.6,10.2c5.2-0.1,9.4-3.9,10.2-8.8
					c1.9,1.6,3.7,3,5.1,4.2c-2.3,6.1-8.2,10.5-15.1,10.6c-9.1,0.2-16.6-7.1-16.7-16.1
					C-21421.8,2660.9-21418.6,2655.6-21413.8,2652.7z M-21405.3,2660.8c0.6,0,1.1,0.1,1.6,0.2c1.3,1.1,2.4,2,3.7,3
					c0.4,0.8,0.6,1.6,0.6,2.5c0.1,3.2-2.5,5.9-5.8,5.9c-3.2,0.1-5.9-2.5-6-5.7C-21411.1,2663.5-21408.5,2660.8-21405.3,2660.8z
					 M-21444.8,2665.2c-1.1,15.9-0.4,32.6,0.4,49.2c-3.3-13.1-10.4-22.9-22-29.5C-21458.5,2679.4-21450.3,2672.6-21444.8,2665.2z
					 M-21384.1,2676.7l11.3,9.4c-7.4,130.8,108.7,178.4,111.7,176.2l5.1,14.7C-21336.1,2851.4-21392.4,2770.6-21384.1,2676.7z
					 M-20736.9,2979.2l-0.3,16.5c-90.9-33.3-196-160-196.7-283.1c-22.6,35.7-35.2,59.5-54.6,91.6l-16-7.2
					c25.4-39,49.5-80.6,75-118.9c2.9-4.3,5.3-6.3,5.6,3C-20923.2,2723.4-20907.1,2897.3-20736.9,2979.2z M-21476.3,2688.4
					c2.9-0.2,7.1,1.1,12.4,4.5c8.4,5.4,17.9,22.2,14.8,26.1c-2.8,3.5-15.1-0.4-21.3-6.7
					C-21482.8,2699.8-21483.7,2689-21476.3,2688.4z M-21405.9,2689c9.1-0.2,16.6,7,16.7,16.1c0.1,9-7.1,16.5-16.2,16.6
					c-9.1,0.2-16.6-7.1-16.7-16.1C-21422.2,2696.5-21415,2689.1-21405.9,2689z M-21369,2689.9l11,12.3
					c3.9,109.6,91.6,142,90.8,142.2l2.8,11.7C-21269.2,2857-21372.9,2812.1-21369,2689.9z M-21405.8,2694.9
					c-5.8,0.1-10.4,4.8-10.3,10.6c0.1,5.7,4.9,10.3,10.7,10.2s10.4-4.8,10.3-10.6C-21395.2,2699.4-21400,2694.8-21405.8,2694.9z
					 M-21405.7,2699.5c3.2-0.1,5.9,2.5,6,5.7c0.1,3.2-2.5,5.9-5.8,5.9c-3.2,0.1-5.9-2.5-6-5.7
					C-21411.5,2702.2-21408.9,2699.5-21405.7,2699.5z M-21349.9,2708.5c1.3,0,7.7,8.8,7.7,8.8s-6.8,2.5-9.8-0.4
					C-21354.9,2714-21353.4,2708.5-21349.9,2708.5z M-20872.7,2704.6l16.3,10.7c8.8,73.8,52.5,140.6,117.7,186.3l-0.1,18.3
					C-20818,2868.7-20862.7,2798-20872.7,2704.6z M-21477.6,2715.9c0.3,0,0.5,0,0.8,0c9.9,0,14.3,15,3.8,19.5
					c-6.6,2.8-13.9-1-14.7-7.7c-0.6-4.7,2.9-9.8,7.7-11.3C-21479.2,2716.1-21478.4,2715.9-21477.6,2715.9z M-21342.7,2723.5
					c2.6,0,5.4,1.4,8.1,4.3c7.2,7.8,7.2,10.1-0.2,13.3c-10.4,4.4-19.3-1.3-15.9-10.3C-21348.9,2726-21346,2723.6-21342.7,2723.5z
					 M-21450.3,2725.7c0.9,0,1.7,0.1,2.4,0.3c7.8,2.9-8.5,33.7-19.5,37c-7,2.1-8.5-0.6-6.4-11.4
					C-21471.5,2739.7-21458.5,2726-21450.3,2725.7z M-21400.9,2725.6c9.1-0.2,16.6,7,16.7,16.1c0.1,9-7.1,16.5-16.2,16.6
					c-9.1,0.2-16.6-7.1-16.7-16.1C-21417.2,2733.2-21410,2725.7-21400.9,2725.6z M-21400.8,2731.5c-5.8,0.1-10.4,4.8-10.3,10.6
					c0.1,5.7,4.9,10.3,10.6,10.2c5.8-0.1,10.4-4.8,10.3-10.6C-21390.2,2736-21395,2731.4-21400.8,2731.5z M-21441.9,2733.1
					c1.7,15.1,4.4,29.1,11.5,47.6c-6.5-10-15.6-14.8-24.4-20.4C-21448.9,2751.2-21442,2742.1-21441.9,2733.1z M-21400.7,2736.1
					c3.2-0.1,5.9,2.5,6,5.7c0.1,3.2-2.5,5.9-5.8,5.9c-3.2,0.1-5.9-2.5-6-5.7C-21406.5,2738.8-21403.9,2736.1-21400.7,2736.1z
					 M-21307.4,2736.3c17.2-0.7,29.6,13.2,29,26.7c0.8,15.6,1.5,25.6,0.5,45.1l-14.4-25.1c-0.3-7.2,0.8-12.6,0.2-19.8
					c-1.9-19.2-20.8-16.2-21.7-14.3l-6.2-9.6C-21315.6,2737.4-21311.4,2736.5-21307.4,2736.3z M-21246.9,2737.3
					c16.1-0.3,25.6,8.6,26.3,24.6c1.4,30.7,1,100.7,1,100.7l-34.8,0.6l-19.8-46.5c0,0-0.8-4.5-0.7-7.8c1-15-0.1-31.7,0.2-45.3
					C-21273,2749.2-21261.3,2737.5-21246.9,2737.3z M-21327.4,2743.4c2.2-0.1,4.3,0.6,5.9,2.1c8.2,8,8.3,13.3,0.1,17.1
					c-10.7,5-16.4,4.2-20.2-2.9C-21345.3,2752.8-21335.4,2743.7-21327.4,2743.4z M-20819.7,2737.3l8.9,5.5c0,0-1.8,2.9-2.8,4.7
					c-4.9,8.6,3.7,13.5,15.5,8.8c2.1-0.9,3.9-2.1,3.9-2.1l7.4,4.8c0,0-5.2,2.9-10.9,5.8c-14.6,7.4-25.3,4.5-29-7.8
					c-1.5-4.9-0.2-11.1,2.5-14.7C-20822.8,2740.4-20819.7,2737.3-20819.7,2737.3z M-21193.2,2744.5c13.5-0.7,26.8,9.6,30.1,23.6
					c1.4,6.6,1.2,93.6,1.2,93.6l-53.5,0.9l-0.6-91.3c-0.4-5.8-0.2-11.5,2.9-15.6C-21207.4,2748.2-21200.2,2744.8-21193.2,2744.5z
					 M-21248.7,2749.4c-10.8,0.7-16.6,18.1-5.4,26.2c4.7,3.3,4.8,4,2.5,15.6c-2.6,13.2,0.6,31.3,7.4,41.3c5.2,8.3,4.1,4.1,1.4-3.4
					c-3.6-14-2.1-24.4,5.8-40.9c7.1-13.9,13.8-35.2-9.5-38.7C-21247.2,2749.4-21247.9,2749.3-21248.7,2749.4z M-20804.8,2746
					l4.9,3.2c0,0-0.7,0.6-1.7,1.6c-1.9,1.9-5.8,2.3-7,0.8C-20810.6,2749.3-20804.8,2746-20804.8,2746z M-21189.9,2759.1
					c-11.6-0.2-18.9,21.3-4,26.2c3.4,2.1,4,4.9,2,9c-2.7,5.4-5.3,18.2-4.8,23.6c0.8,7.6,2.9,17.6,4.5,21c4.1,9.5,3.2,5.7,2-5.3
					c-0.6-12.3,1.8-21.3,8.8-33.2c8.3-14.3,19.8-37.5-7.4-41.2C-21189.2,2759.1-21189.5,2759.1-21189.9,2759.1z M-21389.6,2762.5
					c9.1-0.2,16.6,7,16.7,16.1c0.1,9-7.1,16.5-16.2,16.6c-9.1,0.2-16.6-7.1-16.7-16.1C-21406,2770.1-21398.7,2762.6-21389.6,2762.5z
					 M-21313.3,2762.9c2.8-0.1,5,1.8,7.7,5.6c7.3,10.4,6.5,12.6-7.1,20.3c-14.4,8.2-24.4-11.6-10.7-21.1c4.2-2.9,7.1-4.5,9.5-4.7
					C-21313.7,2762.9-21313.5,2762.9-21313.3,2762.9z M-21464,2766.2c15.3-0.1,39.6,21.2,28,24.6c-1.7,0.5-3.8,0.8-4.6,0.8
					C-21459.9,2790.7-21482.4,2766.3-21464,2766.2z M-21389.5,2768.4c-5.8,0.1-10.4,4.8-10.3,10.6c0.1,5.7,4.9,10.3,10.6,10.2
					s10.4-4.8,10.3-10.6S-21383.8,2768.3-21389.5,2768.4z M-20782.6,2761.5l7.7,5c0,0-4.6,2.2-10.1,5.2
					c-14.8,8.2-19.1,14.1-13.8,19.2c1.9,1.8,4.1,2.6,8,1c10.3-4.2,19.8-11.4,29.4-17.1l5.8,3.8c-0.1-0.3-22.6,16.4-34.9,23.5
					c-19.3,10.3-30.8-9.9-20.2-23.6C-20802.4,2770.2-20793.5,2767.3-20782.6,2761.5z M-21389.5,2773c3.2-0.1,5.9,2.5,6,5.7
					c0.1,3.2-2.5,5.9-5.8,5.9c-3.2,0.1-5.9-2.5-6-5.7C-21395.3,2775.7-21392.7,2773.1-21389.5,2773z M-20770.6,2768.2l4.2,2.7
					c0,0-0.4,0.2-13.1,7.7c-13.8,8.1-14.4,8.3-15.2,7.1c-0.7-0.4,0.2-3.6,4.4-6.5C-20782.8,2774.1-20769.6,2767.8-20770.6,2768.2z
					 M-21131.8,2774.6c9.5-0.3,19.2,4,24.8,13.4c2.9,7.2,3.3,13.9,3.4,21.5l0.6,51.1l-53.9,0.9c0,0-3.1-34.8-1.1-63.8
					C-21155.7,2783.1-21143.9,2775-21131.8,2774.6z M-21298.9,2784.9c3.4-0.3,6,3,9.4,10.2c3.3,7.1,1,11.2-9.1,15.7
					c-1.3,0.6-2.7,1-3.2,1c-10.2-0.8-14.6-12.4-7.4-19.7C-21304.7,2787.6-21301.6,2785.2-21298.9,2784.9z M-20751.5,2781.1l4.7,2.8
					c0,0-2.4,2.2-19.6,15.1c-13.9,10.4-15.8,13.2-12.8,18.9c2.4,4.6,7.6,3.9,14.6-1.6c9.7-7.7,25-20.6,25-20.6l0.6,8.7
					c-10.1,8.3-22.1,22.4-31.8,27.8c-18.7,9.6-32.7-15.6-15.7-28.4C-20771.7,2792.7-20751.5,2781.1-20751.5,2781.1z
					 M-21129.5,2787.4c-14.1,0.1-19,21-3.8,25.1c4.4,2.2,4,3.4,1.3,13.8c-1.7,6.3-2.1,14-1.1,18.9c1.2,6.2,2.6,6.1,1.9-0.6
					c0-3.7,3.6-13.5,7.3-19.7C-21110.1,2805.2-21114,2787.3-21129.5,2787.4z M-21457.5,2793.1c9.3-0.1,14.7,12.7,6.7,18.3
					c-5.6,4-17.7-0.6-17.7-6.8c-0.1-5.3,4-10.4,9.1-11.4C-21458.7,2793.1-21458.1,2793.1-21457.5,2793.1z M-21430.7,2793.7
					c2.9-0.1,4.7,4.2,4.8,12.6c0.2,12.1-4,22.7-11.3,28.9c-10.6,9.1-13.4-15.1-3.6-31.4
					C-21436.8,2797.1-21433.3,2793.7-21430.7,2793.7z M-20741.5,2785.5c2.6-0.1,2.3,1.9-0.8,4.1c-2.4,1.7-6.4,5.1-18.7,15.8
					c-2.2,1.9-5.5,4.5-7.1,5.6c-4.1,2.8-7.7,2.2-5.7-1.1C-20771.9,2806.8-20743.9,2785.6-20741.5,2785.5z M-21372.6,2796.5
					c9.1-0.2,16.6,7,16.7,16.1c0.1,9-7.1,16.5-16.2,16.6c-9.1,0.2-16.6-7.1-16.7-16.1C-21389,2804.1-21381.7,2796.6-21372.6,2796.5z
					 M-21372.5,2802.4c-5.8,0.1-10.4,4.8-10.3,10.6c0.1,5.7,4.9,10.3,10.6,10.2c5.8-0.1,10.4-4.8,10.3-10.6
					C-21362,2806.9-21366.7,2802.3-21372.5,2802.4z M-21569.5,2806c112.4,54.1,183.5,157.6,202.7,276.6l52.7-86.2l14.7,5.2
					l-76.8,129l-3.4-1c-2.4-124.7-66.9-241.7-189.8-304.4L-21569.5,2806z M-21372.5,2807c3.2-0.1,5.9,2.5,6,5.7
					c0.1,3.2-2.5,5.9-5.8,5.9c-3.2,0.1-5.9-2.5-6-5.7C-21378.3,2809.7-21375.7,2807-21372.5,2807z M-21418.4,2808.4
					c5.1,10.6,11.2,21.7,20.5,34.4c-9.4-8.5-19.6-8-29.7-9.1L-21418.4,2808.4z M-21285.9,2808.5c1.7-0.1,3.5,0.6,4.9,2.4
					c4.7,6.1,5.6,11.9,2.5,15.1c-4.3,4.3-11.2,2.8-14.4-3.3C-21296.4,2816.5-21291.1,2808.9-21285.9,2808.5z M-20739.3,2808.2
					l0.3,9.7c0,0-2,2.5-4.2,4.6c-6.1,5.9-14.5,15.2-15,17.6c-1.8,7.7,5.8,10.3,13.2,4.6c2.5-2,6.2-5,6.2-5l0.2,11.9
					c-6.2,5.4-12.4,10.8-21.1,9.2c-5.1-1.4-9.5-5.3-10.5-10.3c-3.8-14.9,10.7-23.6,21.8-33.8
					C-20744.8,2813.4-20739.3,2808.2-20739.3,2808.2z M-21348.9,2826.7c0.3,0,0.6,0,0.8,0c9.1-0.2,16.6,7,16.7,16.1
					c0.1,9-7.1,16.5-16.2,16.6c-9.1,0.2-16.6-7.1-16.7-16.1C-21364.4,2834.5-21357.6,2827.3-21348.9,2826.7z M-21018,2824.9
					c9-0.2,13.9,11.7,6.8,18.7c-2.8,2.7-9.2,4.7-12.8,2.3C-21034.2,2839.1-21027,2825.5-21018,2824.9z M-21035.8,2834.7
					c5.3,5.4,9.5,21.2,6.5,24.3c-6.7,7.1-26.7-15.7-25.8-30.8C-21053.2,2819.1-21037.8,2832.7-21035.8,2834.7z M-21276.7,2830
					c3.8,0,4.5,3.3,3.7,5.3c-0.8,1.9-3.7,2.1-6.1,1.2C-21283.1,2834.9-21281.3,2830.1-21276.7,2830z M-21348,2832.6
					c-5.8,0.1-10.4,4.8-10.3,10.6c0.1,5.7,4.9,10.3,10.7,10.2c5.8-0.1,10.4-4.8,10.3-10.6
					C-21337.4,2837.1-21342.2,2832.5-21348,2832.6z M-21426.3,2838.5c19.9-0.3,41.1,14.9,22.9,18.3c-13.5,2.5-22.3,0-33-9.4
					c-5.4-4.8-3.6-7.4,6.2-8.6C-21429,2838.6-21427.7,2838.5-21426.3,2838.5z M-21347.9,2837.2c3.2-0.1,5.9,2.5,6,5.7
					c0.1,3.2-2.5,5.9-5.8,5.9c-3.2,0.1-5.9-2.5-6-5.7C-21353.7,2839.9-21351.1,2837.2-21347.9,2837.2z M-21320.2,2851.5
					c0.3,0,0.6,0,0.9,0c9.1-0.2,16.6,7,16.7,16.1c0.1,9-7.1,16.5-16.2,16.6c-9.1,0.2-16.6-7.1-16.7-16.1
					C-21335.6,2859.4-21328.8,2852.1-21320.2,2851.5z M-20996.4,2847c4.7-0.2,8.8,0.7,11.3,2.8c3,2.6-1.3,7.8-10.2,12.2
					c-10.4,5.2-28.6,4.8-28.6-0.6C-21024,2854.1-21008.4,2847.4-20996.4,2847z M-21392.9,2857.9c9.1-0.1,12.1,28,4.4,41.6
					c-4,7.1-9.6,2.5-13.8-11.3C-21405.8,2876.9-21399.9,2857.9-21392.9,2857.9z M-21319.2,2857.4c-5.8,0.1-10.4,4.8-10.3,10.6
					c0.1,5.7,4.9,10.3,10.6,10.2c5.8-0.1,10.4-4.8,10.3-10.6C-21308.6,2861.9-21313.4,2857.3-21319.2,2857.4z M-20977.8,2853.6
					c0.8,0,1.8,0.4,3.1,1c10.1,4.7,17.7,27.3,12.6,37.5c-5.3,10.7-17.9-9.6-18.2-29.2c-0.1-6.4,0.3-9,2.1-9.3
					C-20978,2853.6-20977.9,2853.6-20977.8,2853.6L-20977.8,2853.6z M-21418.8,2862.4c0.2,0,0.4,0,0.6,0c9,0.1,15.8,12.3,7.4,18.8
					c-3.7,2.8-9.4,3.4-12.9,1.2c-7-4.2-6.8-14.9,0.4-18.7C-21421.8,2862.9-21420.2,2862.5-21418.8,2862.4z M-21319.1,2862
					c3.2-0.1,5.9,2.5,6,5.7c0.1,3.2-2.5,5.9-5.8,5.9c-3.2,0.1-5.9-2.5-6-5.7C-21324.9,2864.7-21322.4,2862.1-21319.1,2862z
					 M-21380.6,2865c5.1,7.2,25.4,26.1,28.2,27.7c-8.9-2.7-18-1.3-27,0C-21378.6,2886.1-21377.7,2875.1-21380.6,2865z
					 M-21059.4,2861.3c136,29.3,221.1,170.6,190.6,305.1c0,0-11.5-6.1-13.4-9.1c4.4-23.2,6.8-60,0.1-96.8
					c-11.2-62.4-63.8-153.5-176.3-183.1C-21059.7,2873.4-21059.4,2861.3-21059.4,2861.3z M-20986.4,2861.1
					c1.7,9.1,3.3,18.3,5.7,26.5c-9.7-6.7-20.6-12.3-31.7-16.9C-21004.5,2869-20997.3,2867.5-20986.4,2861.1z M-20947.3,2863.4
					c5.4-0.2,10.9,3.5,10.9,10.1c0,2.9-3,8.2-5.4,9.4c-8.9,4.7-18.3-3.8-14.5-13.2C-20954.6,2865.6-20951,2863.6-20947.3,2863.4z
					 M-21287.6,2872.6c9.1-0.2,16.6,7,16.7,16.1c0.1,9-7.1,16.5-16.2,16.6c-9.1,0.2-16.6-7.1-16.7-16.1
					C-21304,2880.2-21296.7,2872.7-21287.6,2872.6z M-21287.5,2878.5c-5.8,0.1-10.4,4.8-10.3,10.6c0.1,5.7,4.9,10.3,10.7,10.2
					c5.8-0.1,10.4-4.8,10.3-10.6C-21276.9,2883-21281.7,2878.4-21287.5,2878.5z M-21567.8,2884.7c68,38.3,129.7,121.2,135.8,216.1
					l-16.5-10.3c-8.1-63.8-42.2-132.8-119.6-188.5C-21568.1,2901.9-21568,2895.8-21567.8,2884.7z M-21195.1,2878.5l87-1.4l0.3,18.6
					l25.9-13.8l0.7,41.2l-26.3-15.2l0.3,18l-87,1.4l-0.3-18.9l-26.4,13.2l-0.4-41l26.6,14.3L-21195.1,2878.5z M-21287.4,2883.1
					c3.2-0.1,5.9,2.5,6,5.7c0.1,3.2-2.5,5.9-5.8,5.9c-3.2,0.1-5.9-2.5-6-5.7C-21293.3,2885.8-21290.7,2883.1-21287.4,2883.1z
					 M-21253.2,2885.8c0.1,0,0.2,0,0.3,0l1.1,5.9c-0.2,0-0.3,0-0.5,0c-5.8,0.1-10.4,4.8-10.3,10.6c0.1,5.7,4.9,10.3,10.7,10.2
					c1.4,0,2.7-0.3,3.9-0.8l1.1,5.9c-1.6,0.5-3.2,0.8-4.9,0.8c-9.1,0.2-16.6-7.1-16.7-16.1
					C-21268.6,2893.6-21261.9,2886.4-21253.2,2885.8z M-21056.6,2884.6c0.3,0,0.6,0,0.9,0c9.1-0.2,16.6,7,16.7,16.1
					c0.1,7.8-5.2,14.3-12.5,16.1l-1.1-5.9c4.4-1.3,7.7-5.3,7.6-10.2c-0.1-5.7-4.9-10.3-10.7-10.2c-0.2,0-0.5,0-0.7,0l-1.1-5.9
					C-21057.2,2884.7-21056.9,2884.6-21056.6,2884.6z M-20941,2888.2c20.3-0.2,28.9,11.2,12.4,16.4c-7.7,2.4-17.8,1.4-27.8-2.9
					C-20964.8,2898.3-20953.5,2888.4-20941,2888.2z M-21365.6,2896.3c4.9-0.1,9.7,0.6,13.2,2.2c8.6,3.9,8.4,6.6-0.6,11.9
					c-12.5,7.5-42.5,0.6-33.6-7.7C-21382.4,2898.8-21373.8,2896.5-21365.6,2896.3z M-21252.1,2896.2c0.4,0,0.9,0,1.3,0.1l2,10.6
					c-0.9,0.6-2,0.9-3.1,1c-3.2,0.1-5.9-2.5-6-5.7C-21258,2899-21255.4,2896.3-21252.1,2896.2z M-21055.5,2895.1
					c3.2,0,5.9,2.5,5.9,5.7c0,2.5-1.6,4.7-3.8,5.5L-21055.5,2895.1z M-21019.6,2898.7c9.1-0.2,16.6,7,16.7,16.1
					c0.2,9-7.1,16.5-16.2,16.6c-9.1,0.2-16.6-7.1-16.7-16.1C-21035.9,2906.2-21028.7,2898.8-21019.6,2898.7z M-21340.3,2908.1
					c1-0.1,2.1,0.4,3.3,1.3c10,7.9,15.2,24.7,11.5,37.4c-3.5,12.1-19.3-9-19.4-26.1C-21345,2912.9-21343.2,2908.3-21340.3,2908.1z
					 M-20913.7,2902.5c1.4,0,2.8,1,4.3,3.3c6.3,10,6.4,31,0.1,37.6c-3.5,3.8-4.9,3.1-8.8-4.4
					C-20924.7,2926.2-20920.2,2902.5-20913.7,2902.5z M-21019.5,2904.6c-5.8,0.1-10.4,4.8-10.3,10.6c0.1,5.7,4.9,10.3,10.7,10.2
					c5.8-0.1,10.4-4.8,10.3-10.6C-21008.9,2909.1-21013.7,2904.5-21019.5,2904.6z M-21327.1,2912.5c12.6,7.6,25.4,14.5,38.8,20.2
					c-12.4-2.7-21.5,1.6-30.9,7.3C-21317.6,2929.7-21321.2,2921.3-21327.1,2912.5z M-20953.3,2908.5c9.3,1.1,18.5,2.5,29.2,0.3
					c-1.8,9.1-2.4,18.3-1.4,27.7C-20933.6,2926.4-20942.6,2916.9-20953.3,2908.5z M-21019.4,2909.2c3.2-0.1,5.9,2.5,6,5.7
					c0.1,3.2-2.5,5.9-5.8,5.9c-3.2,0.1-5.9-2.5-6-5.7C-21025.2,2911.9-21022.7,2909.2-21019.4,2909.2z M-21353.2,2920.2
					c7.7,3.6,8.1,12.8,0.7,17.7c-9.2,6.2-21.6-4.2-15.9-13.4C-21363.3,2918.3-21359.7,2918.3-21353.2,2920.2z M-20986.2,2919.5
					c9.1-0.2,16.6,7,16.7,16.1c0.2,9-7.1,16.5-16.2,16.6c-9.1,0.2-16.6-7.1-16.7-16.1S-20995.3,2919.6-20986.2,2919.5z
					 M-20889.8,2920.6c1.6-0.1,3.2,0.3,4.9,1.1c5.9,3,7.3,10.6,2.7,15.2c-5.1,5.1-12.1,4.3-15.7-1.7
					C-20902,2928.5-20896.7,2920.9-20889.8,2920.6z M-21048.6,2925.7c81.5,26.1,137.3,114.8,125.7,201.2l-10.3-9.3
					c6.9-49-21.7-141.9-112.6-178.8L-21048.6,2925.7z M-20986.1,2925.4c-5.8,0.1-10.4,4.8-10.3,10.6c0.1,5.7,4.9,10.3,10.7,10.2
					c5.8-0.1,10.4-4.8,10.3-10.6C-20975.5,2929.9-20980.3,2925.3-20986.1,2925.4z M-20986,2930c3.2-0.1,5.9,2.5,6,5.7
					c0.1,3.2-2.5,5.9-5.8,5.9c-3.2,0.1-5.9-2.5-6-5.7C-20991.8,2932.7-20989.3,2930-20986,2930z M-21294.3,2936.1
					c4.1,0.3,11.1-0.6,12.8,3.3c1.9,4.9-8,13.5-20.9,15.4c-5.2,0.4-16.4,1.9-18.8-1.8
					C-21323.5,2948.3-21308.6,2936.5-21294.3,2936.1z M-21551.7,2943.2c11-0.7,23.5,13.7,12.7,25.8c-8.7,9.3-26.7,22-26.7,22l-0.1-8
					c0,0,17.6-13.2,17.8-19c-0.1-6.8-5.7-10.5-11.9-6.3c-1.2,0.8-6,4.9-6,4.9l0.2-13.4
					C-21562.6,2945.4-21556.8,2943.5-21551.7,2943.2z M-21271.6,2942c8.1,0.2,27.5,28.7,22.7,34.7c-3.7,4.7-19.2-5.4-25.1-16.4
					c-3.2-5.9-2.4-16.6,1.3-18.1C-21272.4,2942.1-21272,2942-21271.6,2942z M-21146.2,2943.4c0,0,1.9,67.1-1.7,73.5
					c-14.8,27.6-47.9,13.9-51-6.6c-2.2-12.3-1.9-65.9-1.9-65.9L-21146.2,2943.4z M-21141.4,2943.4l52.5-0.9c0,0,1.3,94.5-0.7,99.9
					c-1.7,4.4-9.2,12.2-13.9,14.3c-15.3,7-32-2.3-36.4-20.1C-21143,3023.8-21141.4,2943.4-21141.4,2943.4L-21141.4,2943.4z
					 M-21084.5,2942.4l34.9-0.6c0,0,1.3,5,2.7,9.1c2.5,7.1,11.1,27.6,12.1,28.8c4.3,5.6,5.6,67.3,1.5,74.4
					c-15,23.2-40.7,16.9-50.5-8.3C-21086.3,3037.8-21084.5,2942.4-21084.5,2942.4z M-21043.8,2944.1c63,28.5,111.9,90.2,107.3,170.6
					l-11.7-11.2c3.3-55.5-40.3-124-90.2-143.8L-21043.8,2944.1z M-20957.6,2944.6c9.1-0.2,16.6,7,16.7,16.1
					c0.1,9-7.1,16.5-16.2,16.6c-9.1,0.2-16.6-7.1-16.7-16.1C-20974,2952.1-20966.7,2944.7-20957.6,2944.6z M-20895.9,2945.2
					c6.1,0,13.6,2,19.3,6.4c6.8,5.4,7.8,9.7,2.6,11.3c-10,3.2-22,0.5-29.7-6.8C-20910.8,2949.4-20904.8,2945.2-20895.9,2945.2z
					 M-20957.5,2950.5c-5.8,0.1-10.4,4.8-10.3,10.6c0.1,5.7,4.9,10.3,10.7,10.2c5.8-0.1,10.4-4.8,10.3-10.6
					C-20947,2955-20951.7,2950.4-20957.5,2950.5z M-21287.1,2957.2c8.8-0.1,13,12.1,6.4,18.4c-2.7,2.6-10.2,3.3-13.5,1.2
					C-21303.3,2971.2-21298.3,2957.4-21287.1,2957.2z M-21171,2958.4c-2.8,8.3-7.3,17.8-11,24.2c-10.1,17.3-8.5,28.8,2.5,34.4
					c16.2,8.3,27.5-14.8,11.5-23.5c-5.6-3.1-5.6-3.1-3.7-11.6C-21169.5,2971.3-21169.2,2958.6-21171,2958.4z M-20957.5,2955.1
					c3.2-0.1,5.9,2.5,6,5.7c0.1,3.2-2.5,5.9-5.8,5.9c-3.2,0.1-5.9-2.5-6-5.7C-20963.3,2957.8-20960.7,2955.1-20957.5,2955.1z
					 M-21114.7,2961c-0.7,0-0.1,4.2,0,11.8c0.1,12.2-0.9,16-8.4,32.5c-9.7,21.1-8.1,35.4,4.4,39.8c9.7,3.4,19-4.1,18.9-15.3
					c-0.1-5.3-2.5-9.5-6.2-10.5c-3.3-0.2-7-1.6-6.8-3.2C-21111.1,3003.6-21100.5,2979.8-21114.7,2961z M-20906.9,2959.3
					c8.2,4.9,16.7,9.6,28.8,10c-5,12.4-4.3,21.3-5,31.1C-20888.5,2987.3-20896.7,2972.9-20906.9,2959.3L-20906.9,2959.3z
					 M-21527.2,2971.4c0.7,0,1.3,0,2,0.1c7.8,1.1,14.5,10.8,12.6,18.2c-1.7,6.5-2.3,7.5-27,24.6c-13.7,9.4-15.2,9.9-15.2,9.9
					l-7.5-4.9c0,0,6.2-4.3,16.1-11.1c19-13.1,21.8-16.2,19.7-21.9c-2.2-6.2-9.4-4.8-20.6,4.1c-16.6,13.1-18.3,14-18.3,14l-0.1-7.7
					c0,0,7.3-5.9,10.4-8.7C-21547.5,2982.4-21537,2971.7-21527.2,2971.4z M-21030,2966.6c1.9-0.1,3.4,1.7,2.7,3.3
					c-0.3,0.8-1.4,1.3-2.9,1.4c-3,0-3.2-4.2-0.2-4.7C-21030.3,2966.6-21030.2,2966.6-21030,2966.6L-21030,2966.6z M-20861.2,2972.7
					c3.7,12-3.6,32.3-8.2,35c-4.9,5-8.1,0.4-9.4-12.3C-20878.9,2985.1-20867.6,2952.8-20861.2,2972.7z M-21061.3,2969.2
					c1.8,17.4,2.6,31.9-5.4,46.1c-10.4,18.5-7.3,34.2,4.1,37.5c11.4,3.3,21.3-5,19.1-15.9c-0.7-3.4-5.4-8.8-8.3-9.4
					c-3.5-0.8-4-3-2.1-9.9c3.6-13.4,2.1-30.4-4-42.5C-21058.3,2973.2-21060.5,2969.1-21061.3,2969.2L-21061.3,2969.2z
					 M-21023,2974.4c9.6-0.1,14.3,12.2,7.3,18.9c-3.9,3.7-6.5,2.1-10.8-6.8C-21030.6,2978.3-21029.5,2974.5-21023,2974.4z
					 M-20933.6,2975.5c9.1-0.2,16.6,7,16.7,16.1c0.2,9-7.1,16.5-16.2,16.6c-9.1,0.2-16.6-7.1-16.7-16.1
					C-20950,2983-20942.7,2975.6-20933.6,2975.5z M-20933.5,2981.4c-5.8,0.1-10.4,4.8-10.3,10.6c0.1,5.7,4.9,10.3,10.7,10.2
					c5.8-0.1,10.4-4.8,10.3-10.6C-20922.9,2985.9-20927.7,2981.3-20933.5,2981.4z M-20933.4,2986c3.2-0.1,5.9,2.5,6,5.7
					c0.1,3.2-2.5,5.9-5.8,5.9c-3.2,0.1-5.9-2.5-6-5.7C-20939.3,2988.7-20936.7,2986-20933.4,2986z M-21004,2991.4
					c1.3-0.1,2.7,0.1,3.9,0.7c8.7,4,8,16-1.5,23.2c-6,4.6-8.6,3.1-14.4-8.5C-21019.2,3000.6-21011.3,2991.8-21004,2991.4z
					 M-21507,3001.1c0.9,0,1.7,0.1,2.5,0.3c9,2.3,14.8,12.6,12.7,20.5c-4.7,12.2-21.4,16.6-34,21.9l-6.7-4.7c0,0,9.2-5.4,18.2-9.7
					c8.4-4,9.7-5.6,9-10.4c-1.4-9.5-6-9.1-26.8,2.5c-8.5,4.7-14.7,8.9-14.7,8.9l-4.7-3.7c6.9-4.7,11-7.2,18.5-12.5
					c12.5-8.8,19.7-12.7,25-13C-21507.6,3001.1-21507.3,3001.1-21507,3001.1z M-20838.7,2997.1c3.2,9.2-2.9,17.4-12.4,13.9
					c-5.1-1.9-8.9-8.3-5.8-14.4C-20852.7,2990-20840.8,2990.9-20838.7,2997.1z M-21027.3,2997l15.2,26.2c0,0,0.3,7.3,0.5,11.4
					c0.8,17.1,4.6,22.7,14.7,20.9c0.7-0.1,4.3-1.2,4.3-1.2l6.6,10.6c0,0-6.9,3.1-8.7,3.5c-11.9,2.7-28.5-5.9-31.3-17.8
					C-21028.5,3039.3-21027.3,2997-21027.3,2997L-21027.3,2997z M-21512.1,3015.9c4.5,0.2,2.6,3.7,0.6,4.8
					c-8.6,4.5-16.8,9.5-25.8,14.8l-6.1-3.6c0,0,4.6-2.7,7.8-4.7C-21525.7,3020.9-21515.7,3016.1-21512.1,3015.9z M-20917.1,3009.4
					c9.1-0.2,16.6,7,16.7,16.1c0.2,9-7.1,16.5-16.2,16.6c-9.1,0.2-16.6-7.1-16.7-16.1C-20933.4,3017-20926.2,3009.6-20917.1,3009.4z
					 M-20986.7,3012.8c3.8-0.2,7,1.4,9.1,4.8c4.5,7.2,0,16.1-10.6,21c-5.9,2.7-6.9,2.2-13.4-7c-4.4-6.3-4.4-7.4,0.3-11.5
					C-20996.1,3015.5-20991,3013-20986.7,3012.8L-20986.7,3012.8z M-21564.9,3023.8l238.5,147.8l-6.5,11.5l-231.2-144.9
					L-21564.9,3023.8z M-20863.8,3014.2c14.3,0,33.3,16.2,26.8,22.8c-0.7,0.7-2,1.2-3,1.2
					C-20860.5,3037.4-20883.5,3014.1-20863.8,3014.2z M-20917,3015.4c-5.8,0.1-10.4,4.8-10.3,10.6c0.1,5.8,4.9,10.3,10.6,10.2
					s10.4-4.8,10.3-10.6C-20906.4,3019.9-20911.2,3015.3-20917,3015.4z M-21232,3023.5l6.5,16l-114.4,187.6l-11.7-7.2L-21232,3023.5
					z M-20916.9,3020c3.2-0.1,5.9,2.5,6,5.7c0.1,3.2-2.5,5.9-5.8,5.9c-3.2,0.1-5.9-2.5-6-5.7
					C-20922.7,3022.7-20920.1,3020-20916.9,3020z M-20873.7,3021.2c5.9,10.5,15.6,16.9,26.6,21.3c-10.1,8.6-15.1,19.6-14.5,31
					C-20864.6,3056.3-20867.1,3039.3-20873.7,3021.2z M-21494.4,3037c2.5,0,4.8,0.5,6.6,1.6c22.3,14.6,2.3,29.8,0.4,28.6l-7.6-4.6
					c2.5-4.3,8.3-10.1-1.2-15.3c-5.4-2.2-11.3,0.6-16.4,4.3l-8-5.2C-21520.6,3046.5-21505.3,3037.1-21494.4,3037z M-20975.3,3036.9
					c0.8,0,1.6,0,2.4,0.1c12.5,2.2,11.8,15.3-1.1,21.6c-7.3,3.6-8.6,2.9-15.3-8C-20992.3,3045.5-20983.3,3037.3-20975.3,3036.9z
					 M-21498.2,3050.4c1.3,0,3,1.1,3.2,2.2c0.7,3.4-5.7,7-5.7,7l-7.4-4.7C-21504.9,3053.1-21501.6,3050.7-21498.2,3050.4z
					 M-20836.3,3042.6c1.8-0.2,3.1,0.7,3.7,2.8c2.7,10.1-8.4,29.2-18.8,32.4c-6.1,1.9-7.9-0.9-6.1-9.4
					C-20854.9,3056.5-20842.8,3043.2-20836.3,3042.6L-20836.3,3042.6z M-21216.9,3049.6l19.3,13.5l-111.7,181.8l-20-11.4
					L-21216.9,3049.6z M-20904.9,3045.9c9.1-0.2,16.6,7,16.7,16.1c0.1,9-7.1,16.5-16.2,16.6c-9.1,0.2-16.6-7.1-16.7-16.1
					C-20921.3,3053.5-20914,3046.1-20904.9,3045.9z M-20904.8,3051.9c-5.8,0.1-10.4,4.8-10.3,10.6c0.1,5.8,4.9,10.3,10.6,10.2
					c5.8-0.1,10.4-4.8,10.3-10.6C-20894.3,3056.4-20899,3051.8-20904.8,3051.9z M-20904.7,3056.5c3.2-0.1,5.9,2.5,6,5.7
					c0.1,3.2-2.5,5.9-5.8,5.9c-3.2,0.1-5.9-2.5-6-5.7C-20910.6,3059.2-20908,3056.5-20904.7,3056.5z M-21168.2,3061.4
					c12.7,13.7,27.2,44.6,75.7,29.1c16.8,13.2,39.9,20.5,68,5.1l1.6,83.9l-216.7,3.8L-21168.2,3061.4z M-21563.8,3070.1l215.7,135.9
					l-6.5,11.8l-209.1-127.9L-21563.8,3070.1z M-20964.8,3060.3c0.2,0,0.4,0,0.5,0c11,2.5,12.4,13.3,2.3,17.6
					c-5.4,2.3-6.5,1.8-11.8-5.7c-2.1-3-3.3-5.5-3-6.2C-20976.2,3064.1-20967.9,3060.3-20964.8,3060.3L-20964.8,3060.3z
					 M-20827.7,3069.5c3.8,0,7.6,1.9,9.5,5.8c2.8,5.9,1.3,10.9-4.1,14.3c-9,5.6-19.4-4.2-14.8-14.1
					C-20835.4,3071.6-20831.5,3069.5-20827.7,3069.5z M-20961.1,3083.1c5-0.1,9.3,4.6,6.9,7.6c-1.6,1.9-3.7,1.4-6.4-1.6
					C-20963.8,3085.6-20964,3083.1-20961.1,3083.1z M-20899.9,3084.2c9.1-0.2,16.6,7,16.7,16.1c0.1,9-7.1,16.5-16.2,16.6
					c-9.1,0.2-16.6-7.1-16.7-16.1C-20916.3,3091.8-20909,3084.3-20899.9,3084.2z M-20853.5,3084.3c12.4-0.1,30,20.2,27.2,31.5
					c-0.9,3.7-7.9,1.8-16.3-4.4C-20853.9,3103.1-20861.4,3084.4-20853.5,3084.3z M-20899.8,3090.1c-5.8,0.1-10.4,4.8-10.3,10.6
					c0.1,5.7,4.9,10.3,10.6,10.2c5.8-0.1,10.4-4.8,10.3-10.6C-20889.3,3094.6-20894,3090-20899.8,3090.1z M-20859.9,3091.6
					c3.6,9.9,7.3,20.2,22.9,27.2c-23.8,11.5-28.1,30.3-24.1,54.2l-5.7-3.3C-20862,3148.1-20858.5,3123.5-20859.9,3091.6z
					 M-20899.8,3094.7c3.2-0.1,5.9,2.5,6,5.7c0.1,3.2-2.5,5.9-5.8,5.9c-3.2,0.1-5.9-2.5-6-5.7
					C-20905.6,3097.4-20903,3094.7-20899.8,3094.7z M-20902.4,3121c9.1-0.2,16.6,7,16.7,16.1c0.1,5.7-2.8,10.8-7.2,13.8l-5.4-3.9
					c3.9-1.6,6.6-5.4,6.6-9.8c-0.1-5.7-4.9-10.3-10.6-10.2c-5.5,0.1-9.9,4.4-10.3,9.8l-5.4-3.9
					C-20916,3126.1-20909.8,3121.1-20902.4,3121z M-20827.4,3121.8c7.8-0.1-4,21.7-15.1,27.8c-8.4,4.6-16.2,5.1-16.3,1
					C-20858.9,3139.9-20839.4,3122-20827.4,3121.8z M-20902.2,3131.5c3.2-0.1,5.9,2.5,6,5.7c0.1,3.2-2.5,5.9-5.8,5.9
					c-3.2-0.3-5.9-2.8-6-5.7C-20908,3134.2-20905.5,3131.6-20902.2,3131.5z M-20829.5,3150c3.9,0,7.7,1.6,9.4,4.8
					c2.2,4.1,1.4,7.9-2.4,11.8c-9.3,9.5-22.4,0.1-16.4-11.7C-20837.2,3151.6-20833.3,3150-20829.5,3150z M-20859.6,3159.3
					c13.2,0.2,23.5,16.3,21.2,25.6c-2.1,2.5-16.8-8.2-18.4-9.3C-20858.6,3172.3-20858.8,3167-20859.6,3159.3z M-20877.4,3169.7
					c14.2,9.1,28.2,17.3,41.8,24l-40.8,27L-20877.4,3169.7z M-21245.5,3188l222.1-2.9l0.2,9.3l-228.2,3.9L-21245.5,3188z
					 M-21254.3,3202.6l14.9-0.2l0.3,18.1l-20.5,0.3l-0.2-10L-21254.3,3202.6z M-21040.8,3199.5l18-0.3l0.3,18.1l-18,0.3
					L-21040.8,3199.5z M-21217.1,3202.5l20.4-0.3l0.3,18.1l-20.4,0.3L-21217.1,3202.5z M-21174.6,3202l22.1-0.4l0.3,18.1l-22.1,0.4
					L-21174.6,3202z M-21129.4,3201.2l21.3-0.4l0.3,18.1l-21.3,0.4L-21129.4,3201.2z M-21084,3200.8l20.2-0.3l0.3,18.1l-20.2,0.3
					L-21084,3200.8z M-21268.6,3226.1l246.4-3.5l0.2,10.8l-253.4,3.6L-21268.6,3226.1z M-21058,3245.5c25.1-0.7,40.2,26.9,20.9,46.7
					c-17.7,18.2-48.2-4.2-33.5-24.6c8.2-11.4,29-2.7,24,9.4c-3.3,8-14.4,4.5-14.2-4.1c0-3.4-2.6-1-2.8,2.6
					c-0.3,4.6,4.6,9.7,10.2,9.6c14.6-0.2,16.4-19.4,2.3-26.2c-12.6-6.1-25.7,2.2-28.5,18.1c-0.3,1.7-2.3,6.1-3.8,9.2
					c-4.5,9.3-5.9,14.7-8,25.3c-1,1.3-4.3,3.5-6.5,4.7c-7.1,3.7-6.8,2.2-4.3-9.4c7.2-33.4,19.4-55,34.7-59.7
					C-21064.3,3246.1-21061.1,3245.6-21058,3245.5z M-20983.8,3246c15.5-0.6,27.4,11.9,29.6,21.6c9.4,29.6-30.1,48.5-44.4,21.8
					c-8-15.3,7.7-34,22.6-27c12.1,5.7,11.7,23.9-0.6,24.1c-6.7,0.4-10.8-5.5-7.2-10.3c1.9-1.9,4.2-0.5,5.1-3.7
					c0.4-1.3-1.5-2.3-6.1-1.4c-7.5,1.6-6.5,16.8,2.3,19.6c13.1,4.3,24.1-9.6,17.6-23c-7.7-16.1-27.9-15.9-36.9,1.3
					c-1.3,2.5-3.3,6.1-4.5,7.6c-13.5,18.8-14.5,21.6-18.5,32c-0.4,1-1.1,1.8-2.3,1.7c-3.8,0.1-7.5,0.9-10.1,2
					c-1.7-0.4,0.5-7,0.6-7.5C-21027.7,3275.9-21004.1,3247-20983.8,3246z M-21103.7,3256.1c-3.2,5.7-12.7,24.3-19.1,51.5
					c-1.8-1.1-6.7-3-10.2-4.2c-1.3-0.4-0.3-2-0.4-4.3c2.3-12.3,9.9-33.8,18.5-44.9C-21113,3252.9-21101,3252.3-21103.7,3256.1z
					 M-21089.5,3261.2c-8.2,10.8-16.6,39.3-18.2,53.9c-0.2,2.2-0.6,4.7-0.8,5.4c-1.2,4.4-9.6-4.9-9.7-10.7
					c-0.1-9.9,10.4-40.1,18.1-51.8c2.7-4.1,3-4.7,8.9-5C-21081.8,3252.8-21085.9,3256.5-21089.5,3261.2L-21089.5,3261.2z
					 M-21501,3261c-2.1,0.1-4.1,0.4-6.2,0.9c-12.1,3.2-26.4,16.3-27.6,29.9c-0.7,0.4-2.2,10-1,14.8c4.3,18.2,15.3,30.4,28.7,48.3
					c0,0-16.1,25.7-27.2,37.6l27.4,38c-7.2,14.6-19.9,25.8-22.8,43.8c-4.7,23.7,8.2,46.5,34.7,48.1c19.8,0.3,32.5-13.2,34.6-33.3
					c0.8-13.4-5-30-25.4-56.1c-1-1.3-3-4-3-4s2.2-2.6,3.3-4.4c6.8-9.5,24.7-32.8,24.7-32.8l-27.9-37.8c0,0,1.1-2.6,3.2-5.5
					c21.7-30.5,25.6-45.9,21.4-60.8c-1.7-5.9-5.4-10.3-10.5-15.3C-21482.7,3264.4-21492,3260.7-21501,3261z M-21501.6,3264.7
					c8.7-0.3,17.7,3,25.1,10.5c17,17.1,15.8,31.8-5.4,64.3c-4.6,7.1-9.2,15-9.2,15l28,37.1c-8.8,12.8-18.8,24.1-28,37.6
					c4.9,7.2,12.7,14.8,17.7,23.4c6,9.8,9.7,19.5,10.8,28.5c2.5,18.9-9.5,39.2-30.7,40.1c-20.6,0.5-36.5-16.3-36.4-37.6
					c0-9.5,3.9-18.4,8.5-27c4.8-8.8,16.1-26,16.1-26l-27.2-38l27.5-37.7c0,0-20.8-24.5-27.4-42.3c-5.4-20.3,3.9-32,5.2-33.8
					C-21520.9,3269.9-21511.4,3265-21501.6,3264.7L-21501.6,3264.7z M-21518.1,3319c4.3,10.5,11,18.2,18.7,25.6
					c6.8-8.2,14.4-19,18.5-29.2C-21461.2,3266.2-21540.5,3263.5-21518.1,3319z M-21499.8,3339.8c-10.2-11.5-17.5-21-18.5-36.3
					c-1.6-30.3,38.4-27.6,36.9-0.4C-21483.4,3317.8-21491,3327.3-21499.8,3339.8z M-21005.2,3283.8c0.8,4.3,5.2,11.4,4.8,13.1
					c-1.9,4.5-4.7,6.8-8.5,14.2c-0.8,1.6-0.4,1.9-2.6,1.6c-2.1-0.3-5.8-1.3-7.7-1.9c-1.1-0.3-2.4-0.9-1.9-2.3
					C-21017.5,3299.9-21013.5,3289.5-21005.2,3283.8z M-21071.3,3298l-4.5,12.2c-0.4,1.3-0.5,1.5-1.9,1.3c-2.7-0.3-5-0.5-7.7-0.2
					c-5.8-0.6,4.8-22.4,6.4-25.7C-21076.6,3285.9-21072.9,3295-21071.3,3298L-21071.3,3298z M-21066.8,3300.7c0.1,0,0.2,0,0.3,0
					c2.4,0.3,6,1.5,8.6,2.6c1.5,0.6,1.5,0.6,0.9,2.4c-1.3,2.7-2.8,10.4-4.6,13.1c-0.1,0.4-8.4-4.7-10.8-5.7
					C-21072.4,3311.7-21069.9,3301.2-21066.8,3300.7z M-20996.7,3301c2.7,0.1,6.1,2.5,8,3.8c0.9,1.7,0.1,3.4-2.8,8.7
					c-2.6,4.6-5.3,9.7-6,9.1c-2.1-1.6-5.9-3.5-7.8-6.1c-1.4-1.9,1.2-6.8,2.9-9.5C-20999.7,3302.8-20998.3,3301.3-20996.7,3301z
					 M-21041.3,3301.1c2.5,0.5-1.3,13.5-2,15.1c-2.3,3.6-6,8.3-8.9,10.3c-1.5,1-6.2-1.7-6.1-4.9c0-2.3,4.3-13.9,5.7-17
					C-21052.4,3304.1-21044.1,3301.2-21041.3,3301.1L-21041.3,3301.1z M-21144.2,3307.8c0.6,0,1.1,0,1.7,0c9.9-0.4,20.2,4.2,26.8,15
					c3.1,5.1,3.2,5.3,2.5,10.1c-1.5,11.3-0.8,18.9,2.3,25.7c3.5,7.8,3.1,10.5-5,28.2c-8.1,17.8-17.9,39.4-25.3,59.4
					c-3.3,8.6-6.3,18.3-8.1,26.2c-1.2,5-7.3,3.6-13.4,3.5c-3.1,0.7,4.1-20.1,14.9-45c8.6-19.9,20.5-42.4,25-64.7
					c3.7-18.1,2.3-25.5,0-33.1c-8.8-21.9-37.9-16-37.5,4.3c0.8,13.2,16.3,20,21.7,7c0.8-5.9-2-2.4-4.5,0.5
					c-5.2,6.3-14.4-0.5-13.1-9.6c1.7-12,17.2-16.2,24.9-6.8c8.4,10.2,6.8,21-5,29.2c-12.1,9.1-23.4,4.2-29.6-4.9
					C-21179.3,3332-21161.8,3308.6-21144.2,3307.8L-21144.2,3307.8z M-21083.5,3315.5c12.2,0,25.5,10,27.8,17.9
					c1.2,5.4-0.4,11.9,1.6,17.1c1.7,4.2,3.3,6.6,2.2,10.3c-9.5,32.2-32.6,66.7-43.6,104.7c-1.3,2.7-2.5,3-5.5,3.9
					c-4.6,1.4-6.5,1.3-7-1.1c-0.5-2.3,1-6.7,3.6-14.9c3.1-9.9,10-26.8,14.2-34.8c9.6-18.6,14.9-31.3,21.8-47.1c1.3-3,1.6-4.7,3.7-9
					c8.7-18.3-1.8-36.1-20.5-35.9c-14.8,0.2-21.1,23.3-8,29.9c12.8,6.4,22-11.1,10.6-17c-2.7-1.4-3.4,0-1.2,2.6
					c5.1,5.9,0.8,14.1-6.3,11c-10.9-4.8-5.6-23.2,7-22.4c19.5,1.3,22.5,29.5,2.8,36.9c-27.2,10.3-42.3-33.2-16.8-48.4
					C-21092.9,3316.6-21088.2,3315.5-21083.5,3315.5z M-21025.8,3315.4c7.2-0.3,14.8,2.1,21.1,7.9c15.5,14.3,11.8,36.9-13.3,80.9
					c-8.2,14.7-16.2,32.4-20.5,45.3c-1.1,3.2-2,4.8-4.5,6.3c-4.4,2.5-9.5,2.9-10.2,1.2c-1.8-4.4,10.6-32.1,32.7-75.7
					c5.8-11.6,13.2-25.1,12.6-38.8c-1.7-10.9-10.9-18.5-23.1-14.8c-8.2,2.5-11.3,14.1-5.2,19.8c2.6,2.4,5.7,3.6,7.7,3.4
					c3.8,0.1,8-3.7,0.7-4c-7.7,0.1-10.6-9.5-4.1-14c9.3-6.4,20.2,0.8,19.7,13c-1.2,24.6-37.3,21.5-38.7-3.8
					C-21051.8,3326.5-21039.6,3316-21025.8,3315.4z M-21127.1,3356.4c5.4-0.5-3.5,28.8-19.3,61.8c-8.6,18.3-15.1,37.9-21.7,56.9
					c-1.8,2.6-13.1,3.2-13.2,0.6c19-64.1,33-75.3,39.4-99.7c1.1-4.2,1.9-10.3,2-10.8C-21134.8,3363.7-21130.6,3357.5-21127.1,3356.4
					z M-21498,3366.8l-20.8,27.8l21.2,28.9l21.1-28.3L-21498,3366.8z M-21038.1,3367.7c0,3.3-6.1,19.3-10.7,28.9
					c-20.1,42-25.1,53.4-28.5,64.5c-0.6,2-1.6,3.4-3,3.9c-2.6,1-9.8,2.5-10.4,1.5c4-24.4,36.7-80.4,42.9-104.8
					C-21045.1,3361.5-21038.4,3365.4-21038.1,3367.7z M-21021.5,3364.9c1.4-0.1,2,0.4,1.6,2.3c-0.6,3-4.1,10.2-10.2,22.6
					c-17,34.5-25.8,54.9-28.6,65.4c-0.6,2.5-1,4.4-2.2,5c-2.4,1.3-10.8,4.8-11.2,1.2c2.4-15.5,12.5-25.7,37.9-90.6
					c1.2-2.1,2.3-3.2,3.4-3.4C-21027.5,3366.8-21024.7,3365.2-21021.5,3364.9z M-21093.2,3376.7c-0.6,4-5.1,12.4-12.4,27.9
					c-12.2,25.8-20.1,45.1-24.7,62.1c-0.8,2.8-1.8,5.7-2.9,6.4c-2,1.4-11.2,1.2-11.2,1.2c-1.5-7,9.2-33.3,21.1-61
					c6.5-15.1,14-30.1,19.1-43.6C-21100.7,3370.2-21093.7,3373.5-21093.2,3376.7z M-21074.5,3369.8c3.7-0.1,0.9,6.2-7.7,24
					c-7,14.4-18.3,34.7-25.4,57.8c-1.9,5.1-4.1,11.5-4.9,14.1c-1,3.4-2,5.1-3.4,5.9c-2.7,1.4-9.2,1.4-10.4,0
					c-1.9-2.2,7.4-28.3,16.5-48.3c8.1-16.9,13.7-30.4,20.7-46c1.9-3.1,2-3.3,4-3.8C-21081.1,3373.1-21076.9,3370.3-21074.5,3369.8
					L-21074.5,3369.8z M-21497.5,3380.1l11.2,14.3l-12.6,16.1l-10.9-15.3L-21497.5,3380.1z M-21498.1,3442.8c0,0-4.6,5.4-9.2,13.9
					c-13.6,23.3-13.7,40.4,3,50.2c7,3.4,16.1,2.5,21.7-2.6c18.4-16.5,4.2-38.5-8.1-53.3
					C-21494,3446.6-21498.1,3442.8-21498.1,3442.8z M-21497.3,3448.7c7.1,8.1,12.4,14.2,17.2,24.4c5.6,13.8,2.3,24.7-8,30
					c-16.3,8.3-31.5-9.6-24-29C-21506.5,3459.5-21497.3,3448.7-21497.3,3448.7z M-21037.6,3468.4c1.6,2.9-155.5,41.7-272.3,12.5
					l-69.1,102.9l408.5-7.5L-21037.6,3468.4z M-21043.4,3475.7c0,0,39.1,64.6,58.2,96.3l-26.2,0.4l-38.6-78.7
					c-19.9,5.9-39.5,10.2-59.4,13l14.4,67.1l-19.6,0.3l-12.1-64.2c-28.6,2.7-57.7,4-87.5,3.6l-11.8,62.4l-20.5,0.3l12.1-61.9
					c-22.6-2.7-45.2-5.1-68.2-8.5l-37.3,72l-29,0.5l58.9-90.5C-21219.6,3504.3-21136.5,3498.7-21043.4,3475.7z M-21057.1,3511
					l30.6,61.7l-56.1,0.9l-11.2-55.3L-21057.1,3511z M-21297.1,3519.5l49.1,5.5l-11.8,51.6l-66.2,1.1L-21297.1,3519.5z
					 M-21137,3524.5l7.6,49.9l-84.5,1.4l8.6-49.2L-21137,3524.5z"/>
			</g>
		</g>
		<path id="path153-6-3-1-9-5-1-4_1_" d="M52.2,33.8c-7.4,10.5-15.4,16.6-15.5,24.8c0,2.7,1.4,7.2,5.9,8.1c2.9,0.6,7-1.8,7.1-6.6
			c0-1,1-0.9,1,0.4c-0.1,3.8-1.3,8.2-3.4,11.8c3.2,0,6.5,0,9.7,0c-2-3.6-3.2-8-3.4-11.8c0-1.3,1-1.3,1-0.4c0.1,4.8,4.1,7.2,7.1,6.6
			c4.5-0.9,6-5.4,5.9-8.1C67.6,50.4,59.7,44.3,52.2,33.8z"/>
		<path id="path153-6-3-1-8-6-9-9-4_1_" d="M135.7,231.3c-7.4-10.5-15.4-16.6-15.5-24.8c0-2.7,1.4-7.2,5.9-8.1
			c2.9-0.6,7,1.8,7.1,6.6c0,1,1,0.9,1-0.4c-0.1-3.8-1.3-8.2-3.4-11.8c3.2,0,6.5,0,9.7,0c-2,3.6-3.2,8-3.4,11.8c0,1.3,1,1.3,1,0.4
			c0.1-4.8,4.1-7.2,7.1-6.6c4.5,0.9,6,5.4,5.9,8.1C151.1,214.7,143.2,220.8,135.7,231.3z"/>
	</g>
</g>
</svg>
