<svg id="Layer_1" data-name="Layer 1" xmlns="http://www.w3.org/2000/svg" viewBox="0 0 180 250"><defs><style>.cls-1{fill:#e2cf00;}.cls-2{fill:#d40000;}.cls-3{fill:#131f67;}</style></defs><title>all_cards</title><g id="g7107"><path id="path6307-8" class="cls-1" d="M113.25,21.08s20.45,29.46,27.38,34.68c.51.24,9.06-1.39,9.06-1.39-4.38-10.45-7.2-21.27-4.36-33.39Zm11.36,46.58c-14.09,4-28.16,7.7-43.44,1.24L64.48,85c-.13.42,20.16,9.16,20.5,8.14-10,26.69,5.57,31.54,15.44,2.17,12.93-1.69,28.44-3.43,41.26-12.3A60.75,60.75,0,0,1,124.61,67.66ZM39.84,72.42c-5.34-3.27-9.52,3.45-5.61,6.81-.46,2-.61,4.88,1.29,6.17,1.75,1.1,5-.05,5.49,0,0,0,.08,3.53-.19,3.52-.51,0-2.42-1.64-3.59-2-4-1.19-9.59-1.78-9.49-1.57s-1,1.15,3.45,3.93c1.65,1,6.87-.13,11,1.18,2.53.79,4.8,2.06,6.18,1.4,3.62-1,5-5.7,4.79-5.67-.12-.14-11,2.78-9.94,3.3l0-4.1c4.27.47,8.13-2.62,3.93-7.91,3.13-3.1-1.25-10.48-7.3-5Zm17.8,18.73c-10.51,10.56-32,30.37-32,30.37l.23,14.79,21,18.72c1.66-19.87,13-38.42,23.77-47.69C71.63,104.52,59.92,92.14,57.64,91.15ZM132.5,94.8c-1.58,12.22-3,28.88-23.81,47.4,3.6,6.11,8.19,12.34,14.79,15.31.47,1.05,19.08-19.19,30.52-28.77l-.06-13ZM38.79,97.42c0,.27-.81,3.48-1,3.39,0,.18,2.12-.78,2.36-1.66s.7-1.82.73-2C40.4,93.88,39.5,96.23,38.79,97.42ZM31,106a17.51,17.51,0,0,0-1.2,7.34c3.72,1.85,4.73-5.87,3.73-6.61A10.3,10.3,0,0,0,31,106Zm115,35.43c-.34,1.54-.27,2,.42,2.3,1.2.52,1.75-.11,2.71-2.62.58-1.5,1.09-3.74.63-4.64-2.28-1.58-3.49,3.79-3.75,5Zm-65.1,13c-15.28,2.41-30.57,3.9-42.7,13.34,1.37-.16,16.07,13.6,16.83,15.54,22.48-10.94,44.3-2.68,44.3-2.68l16.45-15.8c.63-.3-17.89-7.9-21.38-9.18,12.62-33.85-7.36-28.76-13.5-1.22ZM141,150.49a12.21,12.21,0,0,0-2.28,2.57l.79,1.26,2-2.2Zm-14.39,14.24c2.12-.95,9.63-4.59,10-3.75l-.16,3.64c-1.15-.38-8.58.85-4.28,8.48-2.71,6.07,3.32,9.2,7.54,5.19,8.84,3,7.66-5.8,5.83-7.22,1.44-2.23-.37-7-1.27-7,0,0,7.72,1.74,7,.37a6.63,6.63,0,0,0-2.49-2.85c-2-1.31-5.45-.84-8.26-1.42-3-.63-4.94-1.7-7.47-1.85-3.81.35-7.37,3.68-6.37,6.4Zm-86,28.63L30,196.19a78.19,78.19,0,0,1,4.63,15.05,73,73,0,0,1,.29,18.12l30.86.15Z"/><path id="path6309-7" class="cls-2" d="M68.32,229.4c-13.54-19.26-26.09-37.59-42.75-57.79,0,0,0-7.8.08-15.55l51.18,73.15Zm27.42-31.1a80.68,80.68,0,0,0-2.26-11.81l9.34-8.78C101.81,185.56,100.27,191.58,95.74,198.3Zm44.66-27.68c2.09,2.77-1.44,4.3-2.77,3.07C134.93,171.19,138.88,168.61,140.4,170.62ZM47.74,153.18c-1.55,1,2.79-24.14,14.69-37.13C69.68,136.72,56.9,148.31,47.74,153.18Zm58.74-.09L98.57,151l3.72-11s7.64,1.73,7,4A83.63,83.63,0,0,1,106.48,153.09Zm-36.61-4.24a68.1,68.1,0,0,0,5.27-11.33l7.92-.17-4,10.92Zm47.66-15.47c-6.12-12.14,1.09-31.36,14.4-36.66A58.27,58.27,0,0,1,117.53,133.38ZM76.4,129.93a62.33,62.33,0,0,0-.83-12.84,154.81,154.81,0,0,0,27.83,3.7l1,11.63A128,128,0,0,0,76.4,129.93Zm20.21-17.72a59.32,59.32,0,0,1,3.63-10.53l9.65-.45c0-.19-4.12,6.39-5.09,11.15-1.54-.17-8.19-.17-8.19-.17Zm-18.28-2.87c-2.81-1-6.66-1.27-8.16-3.44l2.93-9.24,8.67,2.65ZM102.67,21.1l6.79-.06s32.65,41.64,44.89,57.85c-.41,1.65.14,15.63.14,15.63C137.15,70.2,102.67,21.1,102.67,21.1ZM40.05,79.21a1.53,1.53,0,1,1,2.29-1.94C43.4,78.81,41,80.24,40.05,79.21Zm36.64-6.83c.1-9.65,7-21.1,6.9-20.81-.08,0,1,9.43,2.29,12.41C85.53,64.5,77,73,76.69,72.38Z"/><path id="path6311-0" class="cls-3" d="M24.18,19.51v211H155.83v-211Zm120.57,1.6c-1.07,11.68-1.26,20.72,4.83,32.83-1.1,1.15-9.38,1.48-12,2.84,0,.32.67.89.67.89,2.73-1.27,13.37-2.42,13.37-2.42-4.46-7.74-8.12-22.72-5.36-34.14h8V77.49s.1,10.72.33,16.83c-4.09-5.26-9.36-12.48-12.9-17.94-4.3-6-9.08-13.09-14-19.71-1.45-2.09-3.51-4.8-5.19-7.24-2.65-3.77-4.84-6.69-7.58-10.75-2.93-4.2-5.73-8-9.21-12.89-2.95-4.15-3.09-4.68-3.09-4.68Zm-50.43,0c5,8.62,13.89,11.64,16.13,12.22l1.3,1.9A28.37,28.37,0,0,1,93,22.3a3.12,3.12,0,0,1-.18-1.19Zm-4.92,0a23.56,23.56,0,0,1-5.14,7.19l.07-2.09A19.24,19.24,0,0,0,88,21.11Zm2.41,0a3.27,3.27,0,0,1-.13,1.11c-1.06,3.39-7.6,9.84-7.42,8.87l-.06-1.66c0,.07,4.92-4.79,6.21-8.32Zm-4.77,0c-.51.95-2.41,3.9-2.58,3.11l.17-3.11Zm15,0c.82,1.19,1.57,2.16,2.44,3.37a1,1,0,0,1,.22.62c-.14.33-.53.08-1.61-.88a26.48,26.48,0,0,1-3-3.11Zm-6.63,0H97a23.39,23.39,0,0,0,11.38,9.19c.55.61,1.14,1.72,1.38,2C104.17,30.75,97.92,26,95.38,21.11Zm3.91,0c1.78,2.55,4.56,4.41,6.12,5.63.85.66,2,2,1.85,2.27-3.48-1.1-7.56-5.05-9.43-7.9Zm-6.83,1.65,1,1.54A32.76,32.76,0,0,1,84.2,34.38l0-2c4.46-3.2,6.39-6.41,8.28-9.6ZM94,25a29.77,29.77,0,0,0,18.51,11.32,11,11,0,0,1,1.35,1.58c1,1.38,1,1.44,1.17,3.7a45.81,45.81,0,0,0,2.78,13.29c-.17.88-.32,1.33-2,3.56-6.93,9.33-21.69,18.15-29,6.11-2.42-3.86-2.66-11.25-2.81-15.86,0,0,0-.33.06-.41.18-.84.42-.71,1.73-.35,1.33.57,2.71.11,4.12-.27,1.61-.65,1.74-.15.19,1.29a10.35,10.35,0,0,0-1.12,1.22,9.32,9.32,0,0,0,1.37-.7c1.23-.94,1.53-.58,1.07.45-2,4.37-2.29,4.55.44,5.77a4.79,4.79,0,0,1,1.28.81c1.87,1.75,1.2.81.67,0-.8-1.26-.07-1.92,1.28-1.14a4.37,4.37,0,0,0,2.75.74c1.26-.41,1.64-1.78,1.27-3.29-.3-.84-2-2.31-1.62-.77a1.45,1.45,0,0,1,1,2.4c-.67.91-1.88.42-3.73-.8-1-.76-2.27-.37-2.22.57,0,.63-.87.49-1.45-.32-.33-.45-.1-1.74.5-3,3.84-7.69.61-15.15-6-13l-1.39.42,0-2.94A35.11,35.11,0,0,0,94,25ZM97.91,38.8c-1,1.21-.65,2.28,1.55,1.2a7.07,7.07,0,0,1,4-1c2.77-.1,5.26.77,8.34,2.66,2,1.24,2.33,1.34,1.78.56C111.93,39,102.19,34.25,97.91,38.8Zm-9.41.36c1.92.48,3.77,1.75,3.45,2.28-.12.18-.23.22-.48.09a7.47,7.47,0,0,0-6.89-.44c-.36.15-.56-.08-.56-.51,0-.84,1.42-1.5,2.9-1.56A7.32,7.32,0,0,1,88.5,39.16ZM99.67,41.6c-1.14.59-1.54.91-2,.64-1.16-.63-.91-.13-.19,1.15.51.9.5,1.08.43,1.63s-.07.63.51,1.27a16.08,16.08,0,0,0,3.83,3.9,10.57,10.57,0,0,0,1.24.73c.16,0,.1-.13-.19-.41-2.1-2-3.75-3.82-1.62-3,2.49.81,4.86-.2,6.8-.86a11.36,11.36,0,0,1,1.83-.44c1.79,0,2.21-.75,1.07-1.88C107.47,40,104.25,38.93,99.67,41.6Zm9.2.81c.8.74,1.23,1.14,1.15,1.33s-.71-.14-1.74-.69a9.45,9.45,0,0,0-7.39-.52c-2.29.66-1.61-.38.94-1.37a6.64,6.64,0,0,1,7,1.25ZM87.51,40.92a7.3,7.3,0,0,1,4.78,1.59c.85.73.23.9-1.15.33a6.56,6.56,0,0,0-5.56-.2,6.42,6.42,0,0,1-1.33.54A.94.94,0,0,1,84.09,42,5.33,5.33,0,0,1,87.51,40.92Zm28.8.6c.13,0,.32.21.61.61.52.73.54,1.09.11,2.37-.53,1.57-.74,1.31-.87-.87C116.07,42.21,116.07,41.51,116.31,41.52Zm1.74,2.36c.2,0,.43.32.8,1,.26.51.2.66-.61,3-.34,1-.66,1.78-.67,1.78-.25.2-.22.18-.32,0-.58-.73-.54-2.17,0-3.89.37-1.31.58-2,.84-2Zm-15.75.17c.06,0,.45.08.45.08,0,3.51,2.68,2.8,3,.31,0,0,.67-.07.77.1.32.52-.42,2-1.54,2.51a2.48,2.48,0,0,1-2.59-.33,5.25,5.25,0,0,1-.65-2.19.69.69,0,0,1,.52-.48Zm-1.62.41h.08a.55.55,0,0,1,.57.41l.58,1.78c-.43.51-2.06-.52-2.06-1.3a.87.87,0,0,1,.83-.89Zm-11.06,0c.41,0,.56,0,.6.39a2.51,2.51,0,0,1-2.53,2.48,1.91,1.91,0,0,1-2.19-2.06c0-.84.72-.94.8-.28.23,1.91,1.87,2,2.61,1C89.19,45.54,89.13,44.52,89.62,44.46Zm17.89.39a1.39,1.39,0,0,1,.5.12c1.51.47,1.55.7.26,1.17-1.53.55-1.63.62-1.27-.45C107.2,45.1,107.26,44.86,107.51,44.85ZM91.58,45c1.11.07,1.21,1,.23,1.32-1.46.64-2,.6-1.39-.35C90.73,45.32,91,45,91.58,45Zm-7,.33a.77.77,0,0,1,.45.17c.17.51.45.9.67,1.42a1,1,0,0,1-1.12,0c-.7-.56-.58-1.53,0-1.54Zm35,1.09c.44,0,.88.69,1,1.19-1.51,1.94-1.28,5.56-1.63,6.65-.3.88-.4.12-1.24-2.18-.34-.93,1.37-5.55,1.77-5.65Zm1.55,2a1.83,1.83,0,0,1,.87,1.33,4.83,4.83,0,0,1-.28,1.46,39.91,39.91,0,0,0-.87,5.82c-.06.93,0,1.77-.1,1.85-.45.89-1.41-1.5-1.33-3.4.3-1.52.47-6.85,1.71-7.06Zm2.13,2.74a2.28,2.28,0,0,1,.42.77A4.9,4.9,0,0,1,123.5,54a26.2,26.2,0,0,0-.14,9.53c.09.69-.4.34-1.13-.86a6.43,6.43,0,0,1-.79-2.65,33.35,33.35,0,0,1,.65-8.06c.19-1.12.32-2.1,1.23-.84ZM124.48,53l1.21,1.46a46.12,46.12,0,0,0-.52,5.14,80.35,80.35,0,0,0,.83,8.55c-.74-.83-1.09-1.32-1.91-2.37-.09,0-.8-7.18-.31-9.93a20,20,0,0,1,.7-2.85Zm1.9,2.9c.2,0,.46.22.79.67a2.06,2.06,0,0,1,.45,1.26c0,.38-.17.67-.18,1.33a59,59,0,0,0,1.18,11.32c.24,1.29-.22.76-1-.06a4.2,4.2,0,0,1-1.09-2.09c-.08-.21-.83-7.53-.82-8.08a13.13,13.13,0,0,1,.35-4.08C126.16,56,126.26,55.88,126.38,55.88Zm-4.41,8s-1.41.73-1.79.47c-.59-1.62-2.75-6-2.78-6.73a8.4,8.4,0,0,1,.88-1.4C119.47,58.76,120.54,61.39,122,63.84Zm-26.6-5.21c-.43.5-.94.29-2-.16-.53-.16-.45.05-1.32.5a2.35,2.35,0,0,1-1.36.36c-.59,0-.8-.21-.8.2a9.9,9.9,0,0,1-.18,1.8c-.19.73-.35,1.05-.25,1.17.3.28.55.11,1.18-.5,1-1,1.76-.72,2.93-.35,1.33.43,1.61.59,2.82.17,1.72-.6,2.76-.6,3.45-.17,1.18.75,1.54.71,1.05-1.35-.16-.66-.17-1.68-.27-1.86s-.41.37-.72.58c-.6.41-.91.4-2.27,0C96.87,58.72,96,57.86,95.37,58.63Zm21.8.26c.53,1.24,2.62,5.35,2.55,5.81-.4.37-1,.63-1.27.31A36.81,36.81,0,0,1,116.24,60c-.25-.51.51-1.81.93-1.07Zm11.22-.15c.15,0,.45.29.68.6a2.56,2.56,0,0,1,.78,2.09,44.74,44.74,0,0,0,1.6,11.43c.21.66.6,1.46.56,1.57-.36.51-2-.85-2.48-2.93a60.14,60.14,0,0,1-1.29-7.18c-.27-3.16-.27-5.41.15-5.58Zm-12.53,2c.6,1.15,1.36,3.15,1.87,4.35.23.51-1,.93-1.23.75-.48-.36-.7-1.35-1-2-1-2.16-1.17-2.21-.62-2.88C115.2,60.59,115.61,60,115.86,60.79Zm14.88,1.32c.09,0,.21.09.35.27a5.91,5.91,0,0,1,1.22,1.85,7,7,0,0,1,.06,1.42c.11,1.89.61,4.46,2,9.74a7.11,7.11,0,0,1,.3,1.29c-.13,1-1.56-.61-2-2.23a48.74,48.74,0,0,1-1.62-6.36c-.53-3.45-.83-6-.36-6Zm-16.14,1.4c1.19,2.75,1.28,2.75.54,3s-.84.15-1.76-1.73c-.68-1.36-.81-1.54-.25-2C114,61.7,114.23,62.67,114.6,63.51Zm-16.49-.66c-.14,0-.53.3-.93.46a6.83,6.83,0,0,1-3.78.09c-1.87-.75-1.34.23.32.82,1.28.43,3.84.1,4.23-.7C98.19,63.26,98.28,62.85,98.11,62.85Zm14.27,1.45c1.06,1.63,1.37,2.28,1.2,2.41a1.84,1.84,0,0,1-1.35.31c-.44-.21-.81-1.22-1-2C111.36,64.63,112.05,63.94,112.38,64.3ZM85.89,65c.48,0,1.7,1.64,1.46,1.94-.07.15-.53,0-1.61-.29-.36-.13-1.17-.24-.92-.76A3,3,0,0,1,85.89,65Zm25.36,2.25c-.11.28-.91.35-1.25.33a5,5,0,0,1-.45-1.29c.12-.24.66-.86.93-.74A9.25,9.25,0,0,1,111.25,67.24Zm22-1.59c.17,0,.46.31.9.92.82,1.17.71,1.09,1.29,3.87.67,3.17,1.47,5.42,2.28,8.65,0,.54-.21.4-.81,0-1-.59-1.3-1.25-1.6-3-.53-2.83-1.64-5.46-2.06-8.8-.23-1.11-.24-1.71,0-1.71Zm-24.59,1.14c.58,0,.5.86.34,1-.43.37-1.59.26-1.78.28C106.76,67.37,108.28,66.81,108.65,66.79Zm27.52,3c.17,0,.63.66,1.48,1.85s.64,1,1.13,2.85c.69,2.6,1.83,4.48,2.51,6.88,0,.27-.34.24-.66.11a7,7,0,0,1-1.69-1.13c-.36-.38-.36-.87-1.42-4.51-.38-1.31-.48-1.65-1-3.65-.4-1.66-.58-2.43-.39-2.4ZM47.49,77.58c2.78,5.1,1.75,7.36-4.23,8.07-.43-.06,0,2.61,0,3.81,3-1.71,6.63-2.11,10-3.18-.91,2.9-2.51,6.19-7.34,5.68-5.06-3.89-11-1.55-15-3.13a5.3,5.3,0,0,1-3.06-3.66c2.63.26,5.6.82,8.15.64-2.78-2.14-2-5.1-1.58-6.46-3.26-4.09-.54-8.7,4.2-7.63A9.89,9.89,0,0,1,40,72.3c4.57-4.07,9.86-.24,7.51,5.28Zm92.43-2.48c.19,0,.61.47,1.45,1.64a76.82,76.82,0,0,1,4.6,6.87c-.11.6-2.7-.45-3.35-1.3a29,29,0,0,1-2.83-6.79C139.79,75.26,139.82,75.11,139.92,75.1ZM38.75,89.94c1.29.19,1.66.29,1.64.8s-3.13.48-3.57.17.1-.81.44-1a3.41,3.41,0,0,1,1.49,0Zm89.49.46c-18.13,8.53-25.56,31.25-16.4,48.65l-1.26.91c-9-18.4-2.3-38.12,12.28-48.08.6-.42,1.9-.74,2.51-1.14,0,0-6,1.35-8,2.13a5,5,0,0,0-2.89,1.81,39.87,39.87,0,0,0-4.54,6l-9.36.37v.35l9.19-.21c-9.46,15.53-7.13,30.31-1.29,40.65l.14.1c.34.22,1.24-.43,3.09-2.18.76-.72,1.73-1.62,2.14-2a54.28,54.28,0,0,0,3.9-4.16c-6.36-12.93-.09-29.95,14.81-37.63a15.16,15.16,0,0,0-.16-1.65s-.57-.51-.9-.45c-16.59,7.28-23.24,25.37-16.49,41.82l-1.11,1.2c-8.48-17,.62-38.32,16.48-44.35,0-.39-.35-.88-.77-.58a33.61,33.61,0,0,0-16.2,45.41l-1.06.93c-9.55-18.89.51-40.05,16.28-47.28.46-.11-.42-.68-.42-.68Zm-92.31.17s-.12,1,.24,1.35c.16.72-.1.64-.71.49-1.51-.35-.33.5.9,1.19s1,.66,0,1.33c-.71.45-.64.62-.54,1,.14.51.24.17.53-.1A2.27,2.27,0,0,1,38,95.08c.83,0,.91.66.76,1.18-.32,1.08-1.44,1-2.36.75-1.5-.44-3.94-3-3.9-4.55C32.4,91.09,34.28,90.51,35.93,90.57Zm6.74.34c.58.21,1.31.49,2.11.83a12.57,12.57,0,0,1,3,1.4,4.88,4.88,0,0,1,1.92,4.7L38.24,108.63,37,108c-1.92-1-2.38-1.49-1.31-2a1.65,1.65,0,0,0,.75-1.38c.1-.73.06-.61.51-.94.77-.59.8-.83.81-1.81a2.3,2.3,0,0,1,.3-1.34,6,6,0,0,0,.52-1.77c0-.12,0-.44,0-.55a1.67,1.67,0,0,1,.46-.92,4.1,4.1,0,0,0,.47-1c.32-.9.26-.77.78-.67.74.15.63.58.55,1.27,0,.34-.26.57-.18.5a2.71,2.71,0,0,1,.65-.34c.24-.06.48,0,.54.4,0,.21-.06.59,0,.89a10.17,10.17,0,0,0,.22,2.29c.85,2.91.68,2.51.39.08a9.35,9.35,0,0,1-.06-2.14,4.33,4.33,0,0,1,.4-1.46c.5-.87.52-1-.56-1.47-.41-.16-1.1-.44-1.24-.72a2.17,2.17,0,0,0-1.36-1c-1.64-.38-2.6-2-2.36-2.2s.81,0,1.23.07c1.5,0,1.82,0,2.48-.6.35-.3.51-.57.79-.59a3,3,0,0,1,.9.3Zm77.71,1.74A38.84,38.84,0,0,0,110,140.47l-1.32,1c-9.62-18.11-3.16-37.65,8.66-48.33ZM31.83,94.13c.27,0,.57.37,1.64,1.51a10.24,10.24,0,0,0,1.88,1.67c.9.43.7.26-.05,1-.76.87-.34,1.59-1.26,1.15C31.66,98.32,30,95,31.53,94.24A.93.93,0,0,1,31.83,94.13Zm-1.19,3.46a.41.41,0,0,1,.19,0c.29.07.65.62,1,1a7.44,7.44,0,0,0,2.4,1.91c.84.37.86.46.27,1.11a2,2,0,0,0-.39.68c0,.15-.06.36-.24.39-.93.18-4-1.69-4.14-3C29.86,98.52,30.17,97.62,30.64,97.59Zm6.55.35c.53,0,.85.47.84,1.24,0,.53-.3.75-.91,1-1.32.49-2.12-.45-1.21-1.48A2.1,2.1,0,0,1,37.19,97.94Zm-.8,3.14c1,0,1.27.84.55,1.56s-2.06.67-2.06-.07A1.93,1.93,0,0,1,36.39,101.08Zm-6.14,1c.67.2,2.3,1.37,3,1.5,0,.4-.44.51.23,1.25.31.33.34.56.07.71-.82.43-3.65-.94-3.84-2.35C29.64,102.5,29.87,102.1,30.25,102.08Zm3.7,1.69c1,0,2.07.07,2,.53s-.44,1.23-.88,1.06a1.82,1.82,0,0,1-.58-.44C33.93,104.42,33.79,103.76,34,103.77Zm36.83,4c2.83,2.56,13.14,29.3-8.34,48.79l-4.56,1.36C78.51,141.8,75.08,118.88,69.51,109c0-.29-.08-.26-.59.21s-.5.49-.32.56c6.29,9.65,8.64,36.9-16.14,50-.41.43.43.37.43.37,0-.36,11.15-3.05,10.37-3.12,10.36-9.12,19.38-30.89,8.15-49.86-.27-.18-.63.59-.63.59Zm-3.58,3-.15.6c9,17.59.41,39.15-16.3,47.12a5.15,5.15,0,0,0,.89.49c19-10.18,24.42-31.71,16.15-48.39Zm-1.5,1.24-.11.64c7.44,15,1.54,35.75-16.23,44.18-.17.91,0,.64.84.6,20.55-11,22.48-31.88,16-45.45Zm-1.28,1.8c-.58.76-1.64,1.16-2,2.14,6,15.73-1.74,30.88-14.81,37.26,0,.79-.58,2.75.81,2.44,16.14-7.29,23.16-26.66,16.1-41.91Zm81.07,30.41c.59,0,1.12.22,1.67.3,2,.25,3.31,1.71,2.41,2.6-.29.29-.7.12-2-.51-.6-.3-.7-.57-.82-1.23s-.31-.87-.51-.25-.42,1-1.11.84C143.21,145.58,143.94,144.26,145.49,144.27ZM124,157.66c-4.81-2.72-10.76-7.63-14.16-13.21a81.74,81.74,0,0,0-3.67,8.91l-7.56-2.1-.08.16,7.46,2.14-.72,2.48c-.08.27-1.24,3.1-1.24,3.1l11.67,5.43a19.74,19.74,0,0,1-2.52,2.9,2.28,2.28,0,0,0-.58,1.36l16.17-15.37a37,37,0,0,0,2.87,3.78c.72.66.95.82.1,1-3.8.56-6.75,3.42-5.72,7.27.16.43.5.27,1.22-.18,2.52-2.28,8.69-4.39,8.9-3.85l0,2.45c-6.63.1-5.95,5-5.47,7.57,0,.06-1.92,1.73-1.92,1.73a16.15,16.15,0,0,1,2,1.16c-.58,3.24,2.19,7.95,7.64,5.54.47.48.92,1,1.44,1.57a10.7,10.7,0,0,0,1.2-2.16c2.71,1.22,8.32-1.51,5.45-7.77l1.58-1.51-1.52-.95a7.57,7.57,0,0,0-1.24-4.4,29.27,29.27,0,0,0,4.45.76h0c1.17.1,2.15.13,2.05-.57a15.12,15.12,0,0,0-.31-1.55c-.57-1.64-3.49-2.85-6.33-3-.47,0-1,0-1.07-.13s.15-.54.46-.49a3,3,0,0,0,3.32-2.33,3.44,3.44,0,0,1,.83-1.23c.81-.88.87-.86.85-2.13a2.2,2.2,0,0,1,.56-1.68,4.1,4.1,0,0,0,.51-3.09,2.5,2.5,0,0,1-.14-1.78c.48-1.47-.57-2.81-1.94-3.58-.11,0-.08.08-.17.19a4.12,4.12,0,0,1-2.77-.51c-.31-.15,1.06-8.12,3.91-7.41.48.29.68,1.67.64,1.7.13,0,.2-.81,0-1.36a1.24,1.24,0,0,0-1.48-.94A4,4,0,0,0,147,137c-1.33,1.69-1.34,2.77-1.79,4.57-.21.85-.24.8-1.42-.12-.84-.66-1.26-.87-1-1.26.13-.17.68-.72.68-.72l10.79-9.9V229H95.45l.4-13.06c1.1-9-.83-27.75-2.28-29.52,1.12-1.26,4.61-4.29,4.41-4.43l-.46-.28-1.84,1.7L91.13,182a19.82,19.82,0,0,0-6-3.1c-3.35-.86-9.82,1.88-9.82,1.91a53.8,53.8,0,0,0-18.49,4.91A8.93,8.93,0,0,1,55.77,184c-5.33-7.38-10.56-11.52-17.71-16.57l9.06-5L25.65,140.11,25.46,122l31.1-29.63c.18-.51,9.92,6.86,13.54,12.85a72.35,72.35,0,0,1,3.07-8.47c.12-.26,6.19,2.24,8,2.35a.71.71,0,0,0,.49-.27l-8-2.6,1.64-4.68s.57-1.27-.07-1.48c-3.66-1.18-7.09-3.26-10.58-5,0,0,1.63-1.8,1.66-1.88s.68-1,.52-1.38C65,83.45,50.52,96.86,50.52,96.86a7,7,0,0,0-2.47-4.53A6.47,6.47,0,0,0,50.71,91c2.13-1.54,3.29-4.3,3-5.91A46.12,46.12,0,0,1,47.28,87a8.28,8.28,0,0,0-3.63,1.6L43.53,86s3.43.6,5-1.69c1.37-2,.8-4.25.49-5.41,0-.25,0-.22.55-.77.44-.4,1.12-.91,1.12-.91s-1.78-.82-2.08-1.42c.48-4.76-3.34-6.6-6.57-5.76-.6.19-.89.3-1.61-.5-.1-.12-1-1-1-1s-.38.87-.58,1.25c-.63,1.25-.81.87-2.17.94-3.46.17-5,3-4.21,6.37.19.8.1.68-.43,1.69-.27.52-.71,1.18-.71,1.18s.64.35,1.07.54c.63.28.66.61.66,1.24a6.35,6.35,0,0,0,1.19,3.51,20,20,0,0,1-7.24-1c.38,3.76,3.16,5.16,6.56,5.71a2.71,2.71,0,0,1-.73.48A1.72,1.72,0,0,0,31.62,92a2.92,2.92,0,0,1-.86,1.52A2.27,2.27,0,0,0,30,95.87a2.27,2.27,0,0,1-.54,1.51,2.74,2.74,0,0,0-.58,2.29,9.71,9.71,0,0,1,.1,2.27c-.14,1.56.42,2.15,1.13,3.25.46.71.36.73.26,1.25-.26,1.24-.53,1.88-.8,2.82-.62,2.11-.65,3.72-.14,4.13a2.15,2.15,0,0,0,2,.31c3-.93,2.49-3.88,2.65-5.86.09-.51.26-.75.43-.73a9.29,9.29,0,0,0,2.91,2.2c-4,4.07-6.57,6.56-11.64,11V21.11H83.74s.06.83-.08,4.41c-.25,7.29-.56,14.93-.08,22.36a67.23,67.23,0,0,0,.4,7.65c.36,2.48.52,5.15,1.68,7.46.47,1.25.49,1.15-1.29,2.79a7,7,0,0,0-1.59,1.81s0,.24.1.14.73-.71.8-.8c.49-.56,1.29.17,4,.94A7.55,7.55,0,0,1,89.61,69c4.11,3.45,9.9,2.37,14.22.49a9.26,9.26,0,0,1,3.5-.82,68.64,68.64,0,0,0,15.1-4l.95,1.56a.63.63,0,0,1,.62.33c4.2,7.91,17.92,17,17.68,16.53l-9,5c6.53,8,21.54,21.68,21.54,21.68v19.6a131.51,131.51,0,0,0-11.48,10.44c-1,1-1.73,1.57-1.35,1.59.92-.14,1.71.76,2.45,1.38.47.53.36.48-.19,1.2-.38.5-.52.64-.52,1a1.76,1.76,0,0,1-.62,1.7,2.47,2.47,0,0,0-.68,1.38,2.4,2.4,0,0,1-.47,1.46c-.67.14-.74,1.12-.62,1.56a1.42,1.42,0,0,1,.45,1.3c-1.35,1.46-2.77,2.73-1.86.68a6,6,0,0,0,.55-1.39s-.65.67-1,1c-.52.48-.71.2-.73-1.29a9.65,9.65,0,0,0-.73-3c-.11-.17-.13.12-.08,1.21a6.42,6.42,0,0,1-.26,3.27c-.69,1.93-1.17,2.2-.06,2.14s1.93-.08,2.39.55a2.21,2.21,0,0,0,.78.78,8,8,0,0,1,2,1.52c1.55,1.68,1.11,3.18-1.89,2.16-1.58-.53-.55-1.21,1.15-1.05,1,.09,1.22-.29.32-.57-1.68-.31-2-.5-3.06.82a10.76,10.76,0,0,1-8.52-5.17c-.53-.88-.69-1-.32-1.55.14-.2.05-.14-.2.14s-.92.5-1.14.69c-1.57,1.56-3.15,3.23-4.56,4.49Zm20.26-10.88c.79.09.77.75.06,1.39s-1.11.6-1.49.22C142.22,147.73,143.06,146.77,144.3,146.78Zm2.3.45a4,4,0,0,1,2.41,1.09c1.15,1,1.41,3.27.36,3.67-.45.16-.52,0-1.46-.89a8.37,8.37,0,0,0-2-1.48c-1.38-.65-1.56-.9-.62-1.35a1.8,1.8,0,0,0,.57-.53C146.09,147.36,146.16,147.24,146.6,147.23Zm-1.5,3.08a2.16,2.16,0,0,1,.81.32c2.34,1.28,3.48,3.27,2.69,4.4-.52.74-1.36.46-2-.59a6.44,6.44,0,0,0-2.42-1.9c-1.25-.63-1.28-.72-.37-1.16a1.83,1.83,0,0,0,.83-.74c.21-.37.23-.34.47-.33Zm.75,4.76c1.76,1.75,1.56,2.7.41,3.42-.78.49-2,.61-2.45.2-.67-.58-.65-1.24.09-1.45s.43-.43-.22-.59c-2.29-.65-3.7-1.86-1.2-1.59a2.31,2.31,0,0,0,1.78-.93c.54-.65,1.27.62,1.59.94Zm-120.53.67L76.79,229H35.2c1.46-11.65-1.48-24.58-5.36-33A126,126,0,0,0,42.14,193L41.32,192a50,50,0,0,1-13.44,3.09c5.55,9.42,7.53,22.41,5.86,33.92H25.82V172.13Zm9.22,10.91a4,4,0,0,1,2.76,2.2,24.43,24.43,0,0,0,1.05,2.48c0,.2,1.8,3.42,1,3.14C37.8,172.35,35,168.75,34.3,167,34.3,166.76,34.33,166.65,34.54,166.65Zm5.57,3.21a17,17,0,0,0,1.07,2.84c1.11,2.39,2.83,6.14,2.48,7.2-.23.72,0,.68-.62-.2-.31-.44-1.27-1.78-1.5-2.09-.57-.75-.19-.06-.51-1.29-.77-3.47-2-5.29-2.82-7.32C37.93,168,39.74,169.48,40.11,169.86Zm1,.53c.15.11,2.2,1.54,2.4,1.75.73,2.57,3.62,10.8,2.87,12.26a6.61,6.61,0,0,1-1.51-2.21,27.69,27.69,0,0,0-2.93-9.7C41.55,171.61,41.25,170.73,41.1,170.39ZM45,173.28A4.69,4.69,0,0,1,46.64,175a6.91,6.91,0,0,1,.63,2c.74,3.35,2.15,6.76,1.51,10.34-.39.53-1.25-.68-1.38-1.88a46.54,46.54,0,0,0-2.16-10.53C45,174,44.77,173.31,45,173.28Zm3.28,3.08c.14,0,.42.26.89.71a2.68,2.68,0,0,1,1.06,2.6c0,2.1.73,4.49.84,6.61a31,31,0,0,1,.1,4.56c-.27.37-1.46-1-1.37-3a25,25,0,0,0-1-8.59c-.49-2-.74-2.82-.53-2.86Zm95.23-12.46c3.69,2.36,2.39,6.71,1.6,7.25,5.09,6.41-2.82,9.69-5.33,7.38-3.72,3.68-10.1.6-7.64-5.47,0,0-4.67-8.88,4.54-8.29,0,0,.16-3.59-.1-3.76-3.29-.22-7.76,2.94-9,3.81-.7.42-.86.22-.86.22-.17-1.86-.18-2.72.58-3.76,1.33-1.81,3.52-2.42,6.4-3.05,3.56,1.09,7,2.81,10.26,2.54a11.34,11.34,0,0,1,5.44,1.25c1.19.56,1.81,2.65,1.81,2.65C149.27,165.65,143.46,163.9,143.46,163.9Zm-1.75-13.18a1.43,1.43,0,0,1,1.45-1.26.84.84,0,0,1,.23,1.64c-.25.21-1.06-.09-1.1.13.06.39-.34.23-.42.09A1,1,0,0,1,141.71,150.72Zm-.59,2.51a2,2,0,0,1,1-.32c.55-.06,1.26,0,1.41.6s-.93.9-1.82.91c-.45,0-1,.1-1.1-.22s.31-.84.49-1ZM29.57,112.7c.71-2.46.27-3.84,1.45-6.88l2.89,1a16.3,16.3,0,0,1-.46,4.64C32.87,113.07,31,114.4,29.57,112.7Zm21.49,66.63c.34,0,1.18,1.23,1.55,2.31s.24,2.28.49,3.37a39,39,0,0,1,.38,8.55c-.08.56-.44.34-.93-.2-.72-.77-.62-.79-.62-3a65.89,65.89,0,0,0-.59-7.34,15.26,15.26,0,0,1-.41-3.63C51,179.36,51,179.32,51.06,179.33Zm33.74.44c3.72.59,6.69,3.12,8.39,7.28s2,10,2.3,15.32c0,1.27-.54.95-1.92.16s-1.82-.52-4,0c-1.37.31-1.25-.62,1-2.15.77-.5,1.66-1.17,1.37-1.27a2.25,2.25,0,0,0-1.33.53c-2.21,1.78-2.81,2.22-2.17.49.16-.44.67-1.66.88-2.24.8-2.17-.12-3.1-2.84-4.48-.68-.34-1.13-.92-.45.28.56,1-.59,1.78-2,.63a2.82,2.82,0,0,0-3.62.73,2.51,2.51,0,0,0,.94,3.36c1.08.46,1.48.13.44-.59-1.35-.93-1.08-2.49.42-2.49a10.66,10.66,0,0,1,2.69,1.32c1.19.64,2,.37,2-.59,0-.64.37-.59,1.15-.2,1.05.52.94,1,.38,2.44-.37,1-.56,2.16-.91,3.22-.88,3.56-1,7.59,0,8.85,2.61,3.35,5.38,3,7.75.78l-.1,3.67c-2.42,1.93-5.25,3.25-9.61,10.42-1.52-1.9-8-9.69-18.51-11.45l-2.36-3.21c0-.2-1.76-11.95-2.93-15.94,0,0,1.29-2,2.47-3.41,4.7-5.77,12.64-12.37,20.57-11.44Zm-13.65,3.34c-.4.13-.53-.67-.31-.83a6.21,6.21,0,0,1,1.14,0C72.34,182.32,72.34,182.73,71.15,183.11Zm-17.66-.6a11.21,11.21,0,0,1,1.79,2.28c.34.5.15,1.34.2,2.16.07,1.17.2,3.1.29,4.28a12.41,12.41,0,0,1-.4,4.94c-.34.84-1,.26-1.22-.88,0-.28.19-3.11.19-4.66C54.34,188,53.65,184.65,53.49,182.51Zm15.84,0a.45.45,0,0,1,.45.16c.56.72.79,1.15.28,1.54-.68.57-1.3.43-1.68-.65C68.14,182.78,68.71,182.53,69.33,182.49Zm-2.09.64a3.51,3.51,0,0,1,1.27,2.24c0,.21-.23.39-.63.72s-.54.35-1-.36c-.7-1.1-1-1.83-.9-2.21A1.26,1.26,0,0,1,67.24,183.13Zm24.74.14a20.06,20.06,0,0,1,3,.78l-1.51,1.45C93,184.75,92.51,184,92,183.27ZM65,184a8.07,8.07,0,0,1,1.48,3.31,1.62,1.62,0,0,1-.6.59c-.18.05-.35-.27-1-1.38-1.09-1.92-1.41-2.47-.84-2.7A1.28,1.28,0,0,1,65,184Zm-2.2.45a11.92,11.92,0,0,1,2.11,4.21,1,1,0,0,1-.22.58c-.92,1-.68.82-2.05-2-1.15-2.29-1.45-2.52-.69-2.78a1.5,1.5,0,0,1,.85,0Zm-2.18.75c.4,0,.51.66,1.29,2.18,1.3,2.86,1.79,3.26,1.5,3.57-.37.46-.58.78-.93.22-.78-1.27-1.56-2.9-2.29-4.33-.59-1.06-.64-1.19-.27-1.45a1.37,1.37,0,0,1,.7-.19Zm23.27.81c-.49.14-2.46.76-1.26.87.25,0,.87-.13,1.3-.16,1.22-.08,3.76.15,3.67-.08C87.34,185.78,84.53,185.86,83.87,186Zm-25,.27s.32.61.63,1.16c1.86,3.56,2.89,4.86,2.56,5.43-.27.34-.69.77-.94.67s-.93-1.34-2.26-4-1.51-2.94-.8-3.29c.28-.13.63-.23.81,0ZM57,187.56c.85,1.38.74,1.2.73,5.69,0,2.79-.37,4.58-.83,5.26-.25.36-.68.15-.9-.55-.1-.32.18-.8.24-1.31.33-3.37.1-6.73.1-9.91C56.64,186.71,56.9,187.34,57,187.56Zm22,1.1a2.62,2.62,0,0,1,.29,1.78c0,1.07.08,1.15.82.61s.71-.51,1.89.28a1.73,1.73,0,0,0,2.15,0c.4-.37.54-.2,1.07-.06.59.32.76.37,2-.24.85-.37.88-.42,1.39-.16.88.78,1,.5.89-.52a8,8,0,0,1,.21-1.45c.45-1.81-.27-1.83-1.21-.68a1.67,1.67,0,0,1-2,.28,7.64,7.64,0,0,0-4.09-.09,3,3,0,0,1-2.81-.68c-.35-.29-1.13-.55-1.22-.33s.09.58.57,1.25ZM58.8,191.2c.19,0,.48.52.9,1.7.55,1.52-.41,6.82-1,7.68-.3.46-.5.74-1.12-.1-.25-.38-.06-.49.19-1.53a32.81,32.81,0,0,0,.71-5.34c0-1.55.09-2.36.3-2.41Zm1.92,5.14c.14,0,.3.31.51.92a6.61,6.61,0,0,1-.24,3.65,10,10,0,0,1-.86,2.11c-.13.35-.83.23-1-.56-.12-.51.3-1.13.5-1.93s.44-1.82.55-2.33C60.37,197,60.52,196.33,60.72,196.34Zm14.87,2.35h-.06s1.45,1.64,1.85,2.09c.21.18,2,2.34.88,1.84A7.65,7.65,0,0,0,70.17,204c-.25.24-.46,0-1.23-.06-1.56-.12-2.13.5-1.18,1.27.15.12.45.17.59.36s.09.49.15.57c3,4,8.64,4.79,12.17,2.17.44-.33.69-.44,1.1-.32.82.24.89-.44.17-1.4-.32-.41-.71-.89-.48-1,.45-.39.67-1-.11-1.25a2.54,2.54,0,0,1-1.44-1.58c-.35-1-3.8-4-4.32-4Zm-13.76,1.75c.66,0,.69,3.86,0,5-.38.45-1.23-.38-1.11-1.23a27.07,27.07,0,0,1,1-3.72.3.3,0,0,1,.18-.09Zm13.43,2.42a3,3,0,0,1,1.91.78,2.74,2.74,0,0,1,.66,2.06c-.07.25-.75.24-.81.05-.38-2.55-2.46-2.93-3.12-.54,0,0-.43.37-.48-.33.14-1.36.78-2,1.84-2Zm16.76.22a1.71,1.71,0,0,1,1.62,1,1.58,1.58,0,0,1,.16,1.12c-.07.16-.29.09-.29.09-1.06-2.89-2.5-1.55-3,0,0,0-.54.17-.61,0a1.32,1.32,0,0,1,.19-1,2.26,2.26,0,0,1,2-1.33Zm-14.13.18a2.41,2.41,0,0,1,1.49.77c.49.48.53.78.14,1.14-.23.22-1.07.43-1.24.05l-.7-1.64c-.07-.16.14-.31.31-.32Zm-5.09.08c.42,0,.5.1-.15,1.62-.14.33-1.83-.15-1.51-.78A2.8,2.8,0,0,1,72.8,203.34Zm16.9.12a.45.45,0,0,1,.36.09,10.35,10.35,0,0,0-.79,1.67c-.6-.08-1.32,0-1.45-.48s.12-.75,1-1.07A3.1,3.1,0,0,1,89.7,203.46Zm4.93.41a1,1,0,0,1,.71,1c-.06.21-.36.22-.58.05a1.66,1.66,0,0,1-.48-.9C94.35,203.8,94.43,203.8,94.63,203.87Zm-31.82,1.49c.19.37.55,2.45.13,2.4s-.59-.73-.66-1.3C62.27,206.34,62.63,205.37,62.81,205.36Zm7,1.11a3.31,3.31,0,0,1,1.35.53,10.61,10.61,0,0,0,7.13.71c1.44-.38,1.81-.59,2-.35.34.42-.2.84-2.23,1.52-2.23.74-4.54.62-7.58-1.52-.82-.57-.92-.85-.68-.89Zm25.42.58c.38.7-.91,1.36-1.56,1.55a6.78,6.78,0,0,1-4.66-.49l-.28-.19c-1-.72-.57-1.23.5-.68a6.51,6.51,0,0,0,4.74.11C94.63,207.05,95.05,206.67,95.26,207.05Zm-28.45,1.31c-.13,0,.09.35.54.83,3.13,3.5,10.61,5.41,14.81,1.79,1.31-1.23,1.11-1.78-1-.8a20,20,0,0,1-8.38.44A12.29,12.29,0,0,1,68,209.06c-.73-.52-1.11-.73-1.22-.7Zm21.61.1a3.61,3.61,0,0,1,1.25.46,7.42,7.42,0,0,0,4.27.08c1.66-.62,2,.16.42,1a4.79,4.79,0,0,1-5.59-.72c-.44-.39-.67-.88-.48-.92C88.31,208.39,88.39,208.46,88.42,208.46Zm-20.78,6.2c6.18.56,15.49,7,19.12,14.33H84.67c-3.65-5.77-9.26-10.74-15.92-12.48-.27-.2-1.25-1.59-1.11-1.85ZM95,216l-.29,2a33.27,33.27,0,0,0-7.64,8.88c-.58,0-.86-.73-.77-1.21,2.25-4.42,4.94-6.87,8.7-9.69ZM70.1,217.59c1.41-.1,10.62,5.17,13.72,11.4H82.13c-3.49-4.53-7.37-7.81-10.81-9C70.48,219.11,69.56,217.63,70.1,217.59ZM94.75,219v2.74A24.86,24.86,0,0,0,89.66,229H88a3.9,3.9,0,0,1-.25-1.55,24.28,24.28,0,0,1,7-8.44Zm-14,10H79.1a20.13,20.13,0,0,0-5.38-5.32c-.78-1-1.65-2.16-1.3-2.35,0-.71,7.35,4.56,8.34,7.67Zm14-5.9,0,1.58c-1.12,1.43-2.06,3-3,4.32H90.38c1.29-2.77,4.52-6.65,4.41-5.9Zm-19,3.06c.51.14,2.38,2.25,2.32,2.84h-.84a16.93,16.93,0,0,1-1.36-2.17c-.21-.39-.34-.74-.12-.67Zm18.68.49h0V229H93a4.8,4.8,0,0,1,1.42-2.35Z"/><path id="path6313-8" d="M102.16,20.84,154.9,95.42l0-16.56L138,57.09a62.79,62.79,0,0,1,12.26-2.33c-4.76-10.51-7.14-20.39-5-33.91C130.45,20.67,115.61,20.7,102.16,20.84Zm42.2.35c-.42,4.78-1,10.1-.09,16-2.74-1-3.39.71-3.84.89-.52-1.15-2.43-3.14-4.6-.8-1.12,1.21-.58,3.49,2,4.52-3,.23-4.55-2.32-5.08-5-1.61-1-3.31-2-3.48-5.67l.83.14a2.55,2.55,0,0,0,3.9,2.6c1-.76,1.1-1.93.71-3.75a2.67,2.67,0,0,0,2.18-3.35c-.68-3.31-4.1-2.92-5.66-.74-1.29-1.6-3.67-1.9-4.62.58a2.64,2.64,0,0,0,2,3.24c-3,.58-4.59-3.61-4.76-6.45l-1.27-2.24C130.92,21.18,134.53,21.19,144.36,21.19ZM103,21.27h6.13l44.7,57.66.09,14.35Zm15.49,0h1a12.63,12.63,0,0,0,8.7,10.54c.26,4.14,2.27,9.78,9.88,11.68-.22,4.68,2.79,9.15,6,11.3a12,12,0,0,1-1.55.28c-4.34-3.43-5.41-8.49-5.84-10.57-.15-.3-.56-.38-.89-.45A13.4,13.4,0,0,1,127.67,36l-.8-3.64c0-.47-.09-.25-1.2-.66-2.87-1.05-5.52-4.14-6.71-7.83a5.64,5.64,0,0,1-.45-2.59Zm-3.94,0H118s0,.61.07,1c.46,3.64,3.74,8.2,7.08,9.71a8.91,8.91,0,0,1,1.28.66c.93,6,3.65,9.55,9.37,12,.09.09.35.15.42.27.78,3.69,2.49,8,5.73,10.31l-1.4.14Zm16.76,6.26a1.4,1.4,0,1,1-1.41,1.4A1.4,1.4,0,0,1,131.33,27.55ZM84,35.19c.08.2-19.19,16.45-17.32,47l-.56.62.16.22c-.64.72-1.25,1.3-2,2a70.5,70.5,0,0,0,11,5.24L74,93.37l8.32,2.68L81.17,99,73,96.26a73.05,73.05,0,0,0-2.76,8.11c-.08.22-.27.11-.57-.31C65.32,96.71,56.43,91.4,56.73,91.92l-31.5,29.8L25,140.13l21.81,22.4a105.6,105.6,0,0,0-9.3,5.13c2.32,1.89,4.95,3.34,7.26,5.13,4.77,3.35,8,8.29,11.09,11.63a53.48,53.48,0,0,1,42-2.44c-1.48,1.55-3.13,2.9-4.65,4.58,3.69,9.65,2.51,28.81,2.32,29.33a63.36,63.36,0,0,0,17.58-48.2l3.24-3.23c-.06-.17-8.09-4.45-11.43-5.38l.92-2.94-8-2.49.89-2.33,8,2.3c1.51-3.7,3.11-8.88,3.11-8.88a41,41,0,0,0,13.93,13.48l31.33-29.88-.21-19.2L133.53,87.88l8.87-4.61c-.85-.69-2.08-1.34-3-2-.06,0,.17-.19.11-.24-.22-.17-.38-.31-.61-.47-.05,0-.21.2-.26.16a52.58,52.58,0,0,1-8.4-6.7c-.06-.06,0-.32,0-.38-1.23-1.32-2.46-2.54-3.71-3.83a19.91,19.91,0,0,1-1.55-2l0-.46-1.35-1.69c-4.34,2.55-22.83,9-40.72,1.86l3.4-3.39a25.73,25.73,0,0,1-1.72-6.59c-.94-8-.58-22.35-.58-22.35Zm56.4,4.52a1.48,1.48,0,1,1-1.48,1.48A1.49,1.49,0,0,1,140.37,39.71ZM145,41.47a67.21,67.21,0,0,0,4.07,12.6l-2,.22c-1.6-1-3.3-2.55-3.48-4.7-4.34,0-5.61-6.75-4-5.94a2.57,2.57,0,0,0,3.1,3c1.41-.19,2.63-2.13.95-4.27A2.36,2.36,0,0,0,145,41.47ZM83.52,52.34A61.42,61.42,0,0,0,85.6,64L77,72.08A44,44,0,0,1,83.52,52.34Zm41.12,15.47,1.09,1.56C113.34,76.62,92.19,77.13,79.31,71L81,69.4c11.33,5.1,29.77,5.48,43.62-1.59ZM44.18,70.23A7,7,0,0,0,40,71.85c-5.68-2.58-9.4,3.46-5.89,7.45-.52,2.88-.91,3.41,1.26,6.32-2.31.3-5.22-.3-7.7-.68.42,4.26,6.54,5.25,9.09,4.78a9.2,9.2,0,0,1,5.46.79c1.61.45,2.62,1.23,4.21,1.6,2.63.62,6.48-2.45,7-5.36,0-.4.17-.75,0-.81-1.8.46-3.78,1.1-5.53,1.49a10.47,10.47,0,0,0-4.31,1.85l-.11-3.52c8.9.42,5-8,4.52-8.38,1.66-3.33-.33-7.1-3.78-7.15Zm80.92.27L127,75.14l-5.15,1.74-1.31-4.54Zm-81.29.14c3,0,5.73,3.21,2.82,6.76,5.64,5-1.58,10.26-5,6.58-4.58,4.18-9.44-.19-6.88-4.74-4.88-4.35,1.14-10.19,5.25-6.43A4.46,4.46,0,0,1,43.81,70.64Zm35.13,1.7a1.31,1.31,0,1,1-1.31,1.31A1.31,1.31,0,0,1,78.94,72.34Zm-33.52.1a.36.36,0,0,0-.26.12c-.15,0-.47.56-1.27,1.48-1.39,1.61-1.54,1.62-1.54,1.62a3.7,3.7,0,0,0-3.44.39,6.6,6.6,0,0,1-2.65-1.48c-.7-.59-1.08-.71-1.2-.4s.19.66,1.53,1.57l1.74,1.17a5,5,0,0,0,.49,2.84,13.52,13.52,0,0,1-1.65,2.51,4,4,0,0,0-.68,1.17c0,.67.59.22,1.94-1.47.53-.67,1.25-1.62,1.25-1.62a3.69,3.69,0,0,0,3.13-.14s.34.25,1.21.94c1.58,1.25,1.92,1.39,2.11,1.23s.23-.29-.37-.72a13.54,13.54,0,0,1-2.39-2,4.53,4.53,0,0,0-.43-3.3s0-.18,1-1.3a9.57,9.57,0,0,0,1.69-2.31A.26.26,0,0,0,45.42,72.44Zm36.48.28,4.63,1.44-1,4.8-4.94-1.59Zm33.53,1.18,1.3,4.69-4.83,1.27-.78-5Zm3.39.08a1.31,1.31,0,1,1-1.31,1.31A1.31,1.31,0,0,1,118.82,74Zm11,.17,4.05,3.59L129.33,80l-2.17-4.69Zm-38.21,1,4.7.56-.19,5-5.4-.72Zm-16.34.06,5.24,2.29-1.89,5.26L73.22,80.5Zm13.51.41A1.31,1.31,0,1,1,87.42,77,1.31,1.31,0,0,1,88.74,75.65Zm16.93,0,.65,5-4.89.29-.1-5.12Zm3.37.58a1.31,1.31,0,1,1-1.32,1.3A1.31,1.31,0,0,1,109,76.23ZM41,76.7a1.35,1.35,0,1,1-1.35,1.35A1.35,1.35,0,0,1,41,76.7Zm57.88,0A1.31,1.31,0,1,1,97.56,78,1.31,1.31,0,0,1,98.87,76.65Zm23,.32,1.91,5.19-5.34,1.72-1.52-5.33Zm3.75.14a1.31,1.31,0,1,1-1.31,1.31A1.31,1.31,0,0,1,125.64,77.11Zm9.23,1.48L138.32,81l-1.71,1C136.16,80.9,135.37,79.63,134.87,78.59Zm-49.33.47,5.1,1.1-.78,5.32L84.3,84.37Zm-15.15.29,2.71,1.27-1.79,4.43-4.37-2.32Zm12.1.29a1.31,1.31,0,1,1-1.32,1.3A1.31,1.31,0,0,1,82.49,79.64Zm29.42.29.91,5.32-5.75.8-.35-5.42Zm21.51.1a1.31,1.31,0,1,1-1.31,1.31A1.3,1.3,0,0,1,133.42,80Zm-4.07,0,1.9,4.69-5.62,2.34L124,82.41ZM115,80.41a1.31,1.31,0,1,1-1.31,1.3A1.3,1.3,0,0,1,115,80.41Zm-19,.53,5.38.1-.06,5.37-5.9-.16Zm43,.37,2.12,1.47c-21.78,14-52.37,15.68-76.24,2,0,0,1-1,1.53-1.54C88,96,119.4,94.23,139.05,81.31Zm-45.94.61a1.31,1.31,0,1,1-1.31,1.31A1.31,1.31,0,0,1,93.11,81.92Zm11,.3a1.31,1.31,0,1,1-1.32,1.3A1.31,1.31,0,0,1,104.16,82.22Zm-25.62.72,5.61,1.61L83.2,89,77,87.21Zm-3.72,0a1.31,1.31,0,1,1-1.31,1.3A1.31,1.31,0,0,1,74.82,83Zm43.63.94,1.34,5-6.21,1.32-.75-4.88Zm3.57.72a1.31,1.31,0,1,1-1.31,1.31A1.31,1.31,0,0,1,122,84.63Zm-81.14.77v3.48c-1-.85-2.2-1.75-3.39-2.66a6.56,6.56,0,0,0,3.4-.82Zm-12.79.08a14.41,14.41,0,0,0,1.73.23c2.53,0,7.26.78,8.65,1.92A6,6,0,0,1,40,89c0,.3-.42.3-1-.07a15.24,15.24,0,0,0-5.73-1.74c-.47-.06-.53,0-.53.18s.44.43,1.81.66a15.31,15.31,0,0,1,2.55.57c1,.29.38.67-.71.78-4.43.41-7.75-1.49-8.42-3.66C27.91,85.53,28,85.49,28.09,85.48Zm61.77.08,5.57.72-.25,4.66-6.1-.7ZM42.42,86c1,.76.3,3.07-.23,3.75-.34.38-1.15.18-1.14-.36s0-2.78.05-3.49a1.3,1.3,0,0,1,1.32.1Zm64.64.2.29,4.8-6.08.28,0-4.71Zm-20.53.33a1.31,1.31,0,1,1-1.31,1.3A1.31,1.31,0,0,1,86.53,86.5Zm-33.91.06c.22,3.52-5.2,5.91-7.23,4.83-.9-.48-.53-.77,1.26-1.13,2.3-.61,3.82-1.2,3.82-1.63,0-.26-.35-.23-1.29.12a45.09,45.09,0,0,0-4.33,1.31c-1,.46-1.44.63-1.67.35-.48-.59,1.81-2.08,4.19-2.47C49.16,87.64,51,86.69,52.62,86.56Zm57.8.44a1.31,1.31,0,1,1-1.31,1.31A1.31,1.31,0,0,1,110.42,87Zm-12.2,1a1.31,1.31,0,1,1-1.31,1.31A1.31,1.31,0,0,1,98.22,88Zm29.23,2.22c8.78,8.33,18.4,17.93,26.34,25.82,0,4.12,0,12.38,0,12.38l-30.3,28.72A39.32,39.32,0,0,1,109,142.17,8.85,8.85,0,0,0,110.3,141l-1.58.94c-5.59-8.91-8-26.67,1.54-40.9l-9.6.35,1.57-3.26,10.44-.57,4.23-4.52s1.34-.24,2.45-.5,3.34-.89,5-1.42,3-1,3.11-1ZM56.59,92.49a37.93,37.93,0,0,1,14,14.67C54.43,121.05,48.33,137.21,47,154c-8.81-8.22-13.27-12.76-21.23-20.74L26,121.39ZM90.65,94a124.54,124.54,0,0,0-6.14,16.26L82,109.56a25.34,25.34,0,0,0,2.34-1.1l-1.3-2.1,2.47-1-1.46-1.77,2.51-1.45-1.25-1.57,2.29-1.14-1.42-1.63,2.4-1.34-1.25-1.57Zm.77,0,.7.14c.09,0-.45,1.3-.39,1.35.87.18.92.13,1.19.21l.66-1.38,1.1.21a90.46,90.46,0,0,0-5.94,16.32l-1.29-.27s.38-1.24.38-1.41-.88-.34-1.11-.43c-.07.2-.53,1.64-.53,1.64l-1,0a77.75,77.75,0,0,1,6.26-16.35Zm4.2.19,2.29,1.89-2.6,1,1.35,1.79-2.76,1,1.58,1.86-2.72,1L94.38,105l-2.83,1,1.79,2-2.56,1.2,1.53,1.51-1.69.55a5.5,5.5,0,0,1-1.33-.2,88.7,88.7,0,0,1,6.33-16.77Zm-55.75,1c-.63.41-.27,1.3-1.06,2.06a1.68,1.68,0,0,0-.19.73c0,.2-.67,2.69-.67,2.69a3.37,3.37,0,0,0,.41-1c.22-.68.4-2,.52-2.18.58-.18.67-2.08,1.27-1.82.34.15.27.46.08,1.19-.42,1.46-.59,2.08.14,1.08,1.08-1.3,1.19-2.47,0-2.72l-.47,0Zm16.37.54L27.92,122.25l-.08,9.89,9.85,10,7,6.76c2.54-15.14,8.36-29.58,22.71-42.08a34.11,34.11,0,0,0-11.16-11Zm76.35.27c-16.64,7.8-20.47,23.79-15.32,38.26C125.2,124.11,131.43,114.56,132.59,96Zm-59.23.81,7.56,2.43-2.85,9.67-6.8-2.06-.7-1.71Zm58.39.26a59.76,59.76,0,0,1-14.13,35.48A28.2,28.2,0,0,1,131.75,97.08Zm-40.7.07-.48,1.2,1.05.3.44-1.23ZM90,100l-.43,1.22,1.07.36.41-1.24Zm44.58.22c-2.33,17.94-12.05,34.27-22.33,42.59a39.69,39.69,0,0,0,11,11.54l28.94-27.63-.11-9.22ZM58.1,105c-.18.66-.24,1-.24,1a6.45,6.45,0,0,1,1.21-.79c5.69-2.82,3.85,1.48,1.17,3.07-.6.32-1.21.69-1.21.69s.57.13,1.19.24c3.45.72,2.71,2.73-.89,2.42-.53,0-1.16-.15-1.16-.12a13.05,13.05,0,0,0,.47,1.41c1.21,3.05-1,3.29-2.54,1.35-.21-.27-.68-1-.68-1s-.14.56-.23,1.1c-1.29,4.78-4.46,4.66-3.28-.19.15-.5.33-1.39.33-1.39a14.33,14.33,0,0,1-1.49.77c-4.11,1.83-4.78-.05-1-2.81,1.06-.78,1.42-1.09,1.42-1.09a11.48,11.48,0,0,1-1.81-.28c-3-.75-3.77-2.52,1-2.44l1.42.06s-.23-1-.48-1.79c-1.15-3.56,1.17-4,3.12-.79.42.68.54.68.54.68a6.92,6.92,0,0,1,.6-2.34c2.37-4.37,3.29-.38,2.58,2.26Zm51.19-3.54A39.63,39.63,0,0,0,104.74,112L97,111.91a40.9,40.9,0,0,1,3.54-10.1C103.68,101.72,106.52,101.58,109.29,101.43ZM88.87,103l-.45,1.29,1.12.34.41-1.25ZM31,105.4a48.51,48.51,0,0,0-1.57,6.45c-.19,1.11,0,1.57.67,1.82a2.84,2.84,0,0,0,3.09-1.22c.43-.62.75-1.89.81-4.14l.08-2A19.55,19.55,0,0,1,31,105.4Zm56.78.28-.37,1.18,1.08.4.42-1.19Zm50.09.44a4.22,4.22,0,0,1,2.75.86l2.3,2.35a3.15,3.15,0,0,0,2.19,5.44,5.58,5.58,0,0,0,2.23-.91l3.64,3.77c-2.13.92-4.21-1.21-5-2.06a1.07,1.07,0,0,1-.23-.33,1.53,1.53,0,0,1,0,.52c-.31,1.68-2,6.62-3.55,6.36-1.78-.3,0-7.37,0-7.2-1.23,1.29-7.2,2.67-6.79,1.22.84-2.86,5.31-4,5.9-4.47-2.38-1.42-5.4-5.38-3.46-5.55Zm-106.58.1a5.52,5.52,0,0,1,1.79.35c.24.07.25.27.28.46,0,.84.21,3.33-.57,3.35a3.71,3.71,0,0,0-2.28.61c-.46.35-.61.1-.49-.8s.56-2.72.75-3.46A.52.52,0,0,1,31.33,106.22Zm23.63,0a3.16,3.16,0,1,0,3.17,3.16A3.16,3.16,0,0,0,55,106.25Zm0,1.1a2.06,2.06,0,1,1-2.07,2.06A2.06,2.06,0,0,1,55,107.35Zm16.35,0c7.27,12.5,6.43,29.66-2.14,42.15l9.21-.65-1.21,2.35-9.82,1c-1.5,1.36-2.86,2.93-4.34,4.39l0,.52A90.14,90.14,0,0,0,52.83,160c-1.81-1.77-5.22-5.32-5.2-5.41l.22-1.14c23.35-11.88,16.52-35.69,14.88-37.65a69.85,69.85,0,0,1,8.58-8.43Zm64.81,2.27a1.71,1.71,0,1,1-1.72,1.71A1.72,1.72,0,0,1,136.12,109.66Zm7.61.46,2.87,2.95a2.06,2.06,0,1,1-2.87-2.95Zm-98.55.37a1.71,1.71,0,1,1-1.72,1.7A1.71,1.71,0,0,1,45.18,110.49Zm-12.74.72c.8.26.61,1-.43,1.67a1.75,1.75,0,0,1-1.87.2C29,112.49,31.34,110.82,32.44,111.21Zm13.23,4.18-10.32,10a14.26,14.26,0,0,0,.73-5c3.1.32,4.4-1.25,4-4.48a18.57,18.57,0,0,0,5.64-.51Zm16.54,1.13c4.78,13.6.62,28-14.34,36.32C48.49,139.81,54,127.36,62.21,116.52Zm13.62,1.19a110.14,110.14,0,0,0,27.27,3.15,64.45,64.45,0,0,0,1,11.33,102.4,102.4,0,0,0-27.58-3C76.93,125.32,76.27,120.91,75.83,117.71Zm60.89,2L128,129.92l.37-5.57c2.94.37,4-1.17,3.56-4.23A15.37,15.37,0,0,0,136.72,119.72Zm-85,.57-.69,4.07c-1.74,0-3.45.66-3.43,4.55l-5.22-.06ZM148,121a1.71,1.71,0,1,1-1.71,1.71A1.7,1.7,0,0,1,148,121Zm-104.17.52a1.71,1.71,0,1,1-1.71,1.7A1.71,1.71,0,0,1,43.82,121.56Zm100.35,1.75-.91,6.16c-2.39-.21-4.38.16-3.76,4.34a39.59,39.59,0,0,0-6.69.44Zm-8.54,1.12a1.71,1.71,0,1,1-1.71,1.7A1.71,1.71,0,0,1,135.63,124.43ZM31.27,125.75a1.71,1.71,0,1,1-1.71,1.71A1.71,1.71,0,0,1,31.27,125.75Zm5.68,2c2.19.49,1.17,5.57.68,7,0,0,6.1-3.21,6.47-1.77.24,2.87-5.08,4.87-5.08,4.87s3.58,3.1,3.69,5.06c0,1.26-1.5,1-3.46-.58-.84-.82-1.49-1.43-2.06-2a3.17,3.17,0,1,0-4.49-4.44c-.45-.44-1-.94-1.66-1.59-1.13-1.06-1.92-1.9-1.81-2.28,1.49-1,4.46,1.77,4.73,2C33.74,133.47,35.38,128.06,37,127.77ZM34,134a.05.05,0,0,0,0,0Zm93.24-2.28c1,0,1,2.34.61,3.57-.25.93-.5,1.7-.5,1.7a11.46,11.46,0,0,1,1.26-.87c2.83-1.32,3.89.18,2.46,1.92-.69.89-1.62,1.09-2.38,1.84a7.36,7.36,0,0,1,3.26.83c.73.44,1.3,1,1.29,1.29,0,.73-1.8,1.12-3.48.93a9.66,9.66,0,0,1-2.06-.36,11.39,11.39,0,0,1,.76,1.49c.63,1.74.41,3.77-.5,3.77-1.52-.41-2.26-2.09-2.85-3.3a9,9,0,0,1-2,3.79c-1.07,1-1.63.17-1.57-1.51a22.47,22.47,0,0,1,.51-2.67c-6.37,2.15-5.9-.76-.92-3.3-3.07-1.46-4.93-2.77.28-3.06-.13-.13-1-2.91-.07-3.57s2.84,1.48,2.93,1.58a7.25,7.25,0,0,1,1.42-3c.71-.79,1.23-1.11,1.6-1.11Zm-5.88,6.06h0ZM149.24,136a3.32,3.32,0,0,0-2.31,1.94c-.1.17-.3.23-.37.46a29.34,29.34,0,0,0-1.11,5.45,5.79,5.79,0,0,0,3,.51c.19-.08.13-.59.2-.76a19,19,0,0,0,1.65-6.13C150.3,136.4,150,135.89,149.24,136Zm-114.12-.13a2.05,2.05,0,0,1,2.06,2,2,2,0,0,1-.78,1.61c-1.33-1.32-2-2-2.9-2.88A2.08,2.08,0,0,1,35.12,135.83Zm114.52,1c.28.67-.62,1.4-1.78,1.4-.69,0-.91.09-.6-.5s1.84-2.19,2.38-.9Zm-15.54-.48a1.71,1.71,0,1,1-1.72,1.71A1.72,1.72,0,0,1,134.1,136.33Zm-90.34.12a1.71,1.71,0,1,1-1.71,1.71A1.7,1.7,0,0,1,43.76,136.45Zm81,.7A3.16,3.16,0,1,0,128,140.3,3.16,3.16,0,0,0,124.78,137.15Zm-42.36.42a52.31,52.31,0,0,1-3.74,10.56c-3.06.19-6.36.33-8.54.64,3.63-6.34,3.72-7.83,5.06-11.18Zm5.25.51c.85.1,1.79.23,2.64.4A98.75,98.75,0,0,1,84,155l-1.61-.24-.77-.95,2.56-1-2-2,3.3-1-2-2,3.27-.82L85,144.81l2.93-1.14-1.86-2.4,3.12-.86Zm37.11.17a2.06,2.06,0,1,1-2.06,2.05A2.05,2.05,0,0,1,124.78,138.25Zm-33.88.31,1.09.18-.34,1.16,1.24.26.4-1.25a6.7,6.7,0,0,1,1.11.17c-1.3,5.28-5.9,16.34-6,16.28l-1.18-.18.31-1.11-1.1-.16h0l-.53,1.22-1.17-.1a115.83,115.83,0,0,0,6.13-16.46Zm57.86.42c.87,0,.82.45.19,2.09s-.82,2.16-1.11,2.36c-.69.48-2.17.08-2.05-.63.39-2.31.53-3.29,1.13-3.6A8.89,8.89,0,0,1,148.76,139Zm-53.48.19,2.84.55-2.38,1.41,1.51,1.76-2.92,1.24L96.11,146l-2.82,1.15,1.71,2-2.92,1.23,2,1.72-3.29,1L92,155l-1.24.69-1.53-.24c2.54-5.89,4.16-10.74,6-16.29Zm7,1.41,5.57,1.51,1.11,2-2.61,8.79-7.42-2.17Zm-11.06.85-.53,1.44,1.22.26.48-1.49Zm-1.08,3.31-.53,1.45,1.15.22.54-1.46ZM89,147.66l-.55,1.44,1.12.23.54-1.44Zm52.3,2.64a6.33,6.33,0,0,0-.72.59c.12.33.48.84.43,1.17s-.33.45-.75.9c-1.05,1.22-1.42,1.08-.81-.22a4,4,0,0,0,.29-.78,9.54,9.54,0,0,0-.59,1.06l-.67,1.29a5.59,5.59,0,0,1,1.55,1s.22-.59.37-1.15a2,2,0,0,1,1.14-1.38,3.17,3.17,0,0,0,.63-.48A5,5,0,0,1,141.34,150.3Zm-53.46.36-.58,1.53,1.12.27L89,150.9Zm-63,3.84c-.1,6.09.1,10.1-.11,16.67l16.54,21.36-2.58.87s0,.29-.17.33c-3.53,1-9.27,1.94-9.27,1.94,4.27,9.7,7,21.84,5.13,34l42.81-.11Zm90.54,10.32L114,166.29c-21.77-11.74-51.75-11.69-73.63,2.53l-1.79-1.31C62.41,152.26,91.8,152.36,115.43,164.82Zm-89.74-8.18,50.39,72.14-5.92.09L25.74,170.94Zm108.13,1.3s-1.45.38-2.67.77c-3.5,1.11-5.14,3.13-4.82,5.93.09.83.31.82,1.74-.08,3.34-2.1,3.54-2.19,7.7-3.41a2.32,2.32,0,0,1,.79,0l-.18,3.27c-6.93,0-6.56,5.47-4.56,8.32-.7,1.32-2.23,5.92,2.8,7.68a6.57,6.57,0,0,0,5.08-1.64c4.63,2.18,10-1.48,5.81-7.81,1.58-2.76.47-4.81-1-6.58,0,0,.26,0,2.45.43a20.26,20.26,0,0,0,4.59.5c0-3-2.47-4.31-7.64-4.72C140.22,161.1,133.82,157.91,133.82,157.94Zm-55.77.35h.74l-.24,5.09-5.62.26-.37-5.07c1.94-.14,3.74-.28,5.49-.28Zm6.74.12,6,.73-.91,4.76-5.56-.59Zm48.93.06c.5.06.34.63-.35.77-1.08.21-3.87,1.82-3.87,2.24s.14.23,1.16-.31c.51-.27,1.57-.73,2.36-1s1.68-.66,2-.8c.93-.42,1.39-.13,1.06.67-.23.52-.31.56-2.48,1.25a11.19,11.19,0,0,0-3.57,1.58c-.46.29-1.29.77-1.83,1-1.28.66-1.54.66-1.54-.23-.07-2.64,2.86-4.61,6.82-5.18a.68.68,0,0,1,.24,0Zm-52.21.61a1.37,1.37,0,1,1-1.37,1.37A1.36,1.36,0,0,1,81.51,159.08Zm-14.94.37.45,4.61-5.53,1.42-1.26-4.77c2.11-.52,4.23-.88,6.34-1.26Zm71.26.35c1.52.23,1.4,3.69.62,4.29-1.19.86-1.92-.94-1.39-3.31.15-.72.43-1,.77-1ZM69.71,160a1.37,1.37,0,1,1-1.36,1.36A1.36,1.36,0,0,1,69.71,160Zm27,.4,6.26,1.7-1.53,4.83-5.87-1.65Zm-3.4.09A1.37,1.37,0,1,1,92,161.84,1.37,1.37,0,0,1,93.33,160.47Zm51.16.41c2.69,0,6.25,1.37,6.25,3.45-.05.59-5.64-.19-8.22-1.23-.92-.37-2-1.49-2-1.95,0-.28.55-.26.77,0,.36.44,1.65.9,4.6,1.64,2.27.57,2.5.59,2.5.25s-1.34-.74-2.79-1c-.73-.11-1.42-.33-2.54-.43-.52,0-.65-.33-.21-.55A5.67,5.67,0,0,1,144.49,160.88ZM139.73,162c.68.32.93,1,1.3,1.29a3,3,0,0,1-1.43.49A4.94,4.94,0,0,1,139.73,162Zm-81.9.38a1.36,1.36,0,1,1-1.36,1.36A1.36,1.36,0,0,1,57.83,162.33Zm-3.67.38,1.47,4.72-5.28,2.29-1.88-4.67A46.71,46.71,0,0,1,54.16,162.71Zm24.44.77s4.21,0,5.66,0l-.34,5.32-5.25,0Zm-5.63.29.29,5.32-5.05.68-1-5.35Zm32,0a1.36,1.36,0,1,1-1.37,1.36A1.37,1.37,0,0,1,105,163.82Zm36.61.12c3.08,0,6,3.55,3,7.25,5,3.83-.43,10.26-4.85,6.51-6.31,6.18-9.84-2.21-7.22-4.43-3.86-6.32.88-10.31,5.77-7.52A4,4,0,0,1,141.57,163.94ZM90,164.1l5.55,1.23-1.11,5.25L89,169.49Zm18.37.12,5.08,2.52-3.94,3.77-2.92-1.45Zm-32.54.6a1.36,1.36,0,1,1-1.36,1.36A1.36,1.36,0,0,1,75.83,164.82Zm11,.17a1.37,1.37,0,1,1,0,2.73A1.37,1.37,0,0,1,86.8,165Zm-25.28.77L62.76,171l-5.14,1.74-1.84-5.12Zm3.54.37a1.37,1.37,0,1,1-1.37,1.36A1.36,1.36,0,0,1,65.06,166.13Zm76.1,2.43c-.39.47-.89,1-.89,1a3.52,3.52,0,0,0-3.35.25l-1.69-1.35c-1.39-1.12-1.86-1.38-1.86-.91a4.73,4.73,0,0,0,1,1.07,11.73,11.73,0,0,1,1.89,1.83,3.29,3.29,0,0,0,.35,3.19s0,.13-.52.72c-1,1-2,2.68-1.8,2.92s1.13-.42,2.18-1.84c.75-1,1-1,1-1,1.28.35,2,.66,3.26-.39a4.79,4.79,0,0,1,1.45.94c1.5,1.23,2,1.5,2.2,1.08s-.07-.57-1.34-1.54c-.82-.62-1.74-1.36-1.74-1.36a3.09,3.09,0,0,0-.47-3.09s0,.07,1.41-1.69c.91-1.18,1.07-1.33.76-1.58-.4-.52-1.74,1.57-1.87,1.74Zm-39.65-1.51,5,2.1-1.79,5.22-4.84-2Zm-55.11.35A1.36,1.36,0,1,1,45,168.76,1.37,1.37,0,0,1,46.4,167.4Zm51.24.14a1.36,1.36,0,1,1-1.37,1.36A1.36,1.36,0,0,1,97.64,167.54Zm-54.74.37L44.54,172l-3.73-2.77ZM84,169l5,.58-.79,4.74-4.3-.39Zm-5.44,0,0,4.87-4.74.2-.4-4.86Zm-24.38.89a1.36,1.36,0,1,1-1.37,1.36A1.36,1.36,0,0,1,54.18,169.86ZM50.4,170l1.93,4.9-3,1.44-4-3.79Zm17.83.06.78,4.66-5,1.22-1.2-4.74Zm70.64.05a1.95,1.95,0,1,1-2,1.94A1.94,1.94,0,0,1,138.87,170.06Zm-57.82.15a1.36,1.36,0,1,1-1.37,1.36A1.36,1.36,0,0,1,81.05,170.21Zm13.46.5,5.27,1.7L98,176.62l-4.55-1.23Zm-23.36.18a1.36,1.36,0,1,1-1.37,1.36A1.37,1.37,0,0,1,71.15,170.89Zm20,.5a1.36,1.36,0,1,1-1.37,1.36A1.36,1.36,0,0,1,91.19,171.39ZM57.72,173l1.82,4.17-5,2.13L52.42,175Zm3.52.25a1.37,1.37,0,1,1-1.37,1.37A1.36,1.36,0,0,1,61.24,173.23Zm18.26,1.26a56.24,56.24,0,0,1,21.39,4.11l-1.76,1.64c-19.13-6.55-31.64-3.6-44.47,2l-1.3-1.59A59.7,59.7,0,0,1,79.5,174.49Zm21.65,0a1.36,1.36,0,1,1-1.37,1.36A1.36,1.36,0,0,1,101.15,174.54Zm-49.86,3c1.1.06,1.2,2.11.69,1.52l-1.22-1.41A1.1,1.1,0,0,1,51.29,177.53Zm51.14.84c0,1.55-1.51,11.93-6.47,19.06a50.62,50.62,0,0,0-2.15-10.8S99.15,181.71,102.43,178.37ZM38.92,194.1l25.84,34.72-2.71,0a16.88,16.88,0,0,0-3-7.11,12.28,12.28,0,0,0-4.83-3.84c-1.41-.64-1.59-.5-1.68-1.58-.43-6.07-5.36-9.89-9.14-11.35a14.05,14.05,0,0,0-6.19-10.32Zm-2.51.83c2.36,1.62,5,3,6.34,9.39.1,1.34.19,1.2,1.24,1.59,4.11,1.2,7.7,6.13,8,10.45,0,1.3.43,1.41,2,2.09a12.66,12.66,0,0,1,5.19,4.29,14.36,14.36,0,0,1,2.19,6H60c-1-6.35-5-8.88-9.26-10.07.33-9-6.67-11.77-9.11-12.19.14-6.46-4-9.12-6.75-11.29a8,8,0,0,1,1.55-.31Zm-4.18.89c2.11.69,3.71,3.62,3.55,5,2.79.34,5.72,3,5.07,5.83a.68.68,0,0,1-.85-.18c.75-5.43-7.38-2.74-4.13,1.19l-1.46.94a66.5,66.5,0,0,0-4.16-12.43C30.82,196,32.23,195.82,32.23,195.82ZM39,207.2a1.31,1.31,0,0,1,0,2.61,1.31,1.31,0,1,1,0-2.61Zm7,5.86a5.58,5.58,0,0,1,4,5.14h-.68c-1.09-5-6.76-2.26-4.39,1.69-3,1.12-2.8,3.91-1.9,5A3.24,3.24,0,0,0,48.3,224c3,3.8,7-.47,3.43-4,2.94,1.08,3.41,5,3,6.23a6,6,0,0,1,2.72,2.61h-22s1.06-8.86-.07-15.54c1.47.35,2.45.7,4.14-1.27,2.72,2.25,4.69.55,4.54-1.4a3.67,3.67,0,0,0-2.08-2.75c2.39-.58,4.19,3.53,4,5.16Zm2.45,6.24a1.34,1.34,0,1,1-1.34,1.34A1.34,1.34,0,0,1,48.39,219.3Z"/><path id="path7198-0" class="cls-2" d="M14.22,56.1a45.35,45.35,0,0,0-5.86-8,44.92,44.92,0,0,0,5.86-8,45.46,45.46,0,0,0,5.87,8A45.91,45.91,0,0,0,14.22,56.1Z"/><path id="path7202-9" class="cls-2" d="M165.78,209.93a45,45,0,0,0-5.87-8,45.41,45.41,0,0,0,5.87-8,45.35,45.35,0,0,0,5.86,8A44.92,44.92,0,0,0,165.78,209.93Z"/><path id="path7204-2" class="cls-2" d="M48.45,64.7c-4.19-6.87-8.59-13.54-14.08-19.24,5.49-5.71,9.89-12.38,14.08-19.25C52.63,33.08,57,39.75,62.52,45.46,57,51.16,52.63,57.83,48.45,64.7Z"/><path id="path7222-2" class="cls-2" d="M131.56,223.8c-4.19-6.87-8.59-13.54-14.08-19.25,5.49-5.7,9.89-12.37,14.08-19.24,4.18,6.87,8.58,13.54,14.08,19.24C140.14,210.26,135.74,216.93,131.56,223.8Z"/><path id="path37-2-1-6-5" class="cls-2" d="M8.36,28.8H6.14v-3H8.36s0-1.62.08-4.49c.14-6.1.29-7,2.07-8.73,3.51-3.32,9.4-.62,9.32,4.38-.1,7,0,13.77-.23,14.72-.37,1.68-.41,1.77-.26,2.08.31.62,3,.88,3,.71v3a5.53,5.53,0,0,1-4.5-1.19,6.67,6.67,0,0,1-6.55.8C9.39,36.16,8,33.9,8.36,28.8Zm7.52,5.26c-1.1-1.58-3-3.74-4.7-4.51-.11,1.82.05,3.35.69,4.17a2.58,2.58,0,0,0,4,.34Zm.91-17.41C16,14.34,13.87,13.56,12.34,15c-1,.9-1.12,1.84-1.14,7,0,3.16,0,4.49,0,4.49,3,1,5.79,4.43,5.76,4.39L17,21.28a25.58,25.58,0,0,0-.23-4.63Z"/><path id="path37-3-27-1-5" class="cls-2" d="M171.64,221.2h2.22v3h-2.22s0,1.62-.08,4.49c-.14,6.1-.29,7-2.07,8.73-3.51,3.32-9.39.62-9.32-4.38.1-7.05,0-13.77.23-14.72.37-1.68.41-1.77.26-2.08-.31-.62-3-.88-3-.71v-3a5.53,5.53,0,0,1,4.5,1.19,6.67,6.67,0,0,1,6.55-.8c1.87.87,3.28,3.13,2.9,8.23Zm-7.52-5.26c1.11,1.58,3,3.74,4.7,4.51.11-1.82,0-3.35-.69-4.17a2.58,2.58,0,0,0-4-.34Zm-.91,17.41c.82,2.31,2.92,3.09,4.45,1.65,1-.9,1.12-1.84,1.14-7,0-3.16,0-4.49,0-4.49-3-1-5.78-4.43-5.76-4.39l-.07,9.57a26.52,26.52,0,0,0,.23,4.63Z"/></g></svg>