<?xml version="1.0" encoding="utf-8"?>
<!-- Generator: Adobe Illustrator 23.0.1, SVG Export Plug-In . SVG Version: 6.00 Build 0)  -->
<svg version="1.1" xmlns="http://www.w3.org/2000/svg" xmlns:xlink="http://www.w3.org/1999/xlink" x="0px" y="0px"
	 viewBox="0 0 180 250" style="enable-background:new 0 0 180 250;" xml:space="preserve">
<style type="text/css">
	.st0{fill:#FFFFFF;}
	.st1{fill:#E2CF00;}
	.st2{fill:#131F67;}
	.st3{fill:#D40000;}
	.st4{fill:#100F08;}
</style>
<g id="white-background">
	<rect class="st0" width="180" height="250"/>
</g>
<g id="Layer_1">
	<g id="g11338-3-7_1_" transform="matrix(0.99553774,0,0,0.99680134,-31.938292,318.48631)">
		<path id="path9902-6-7_1_" class="st3" d="M46-263.2c0,0-1.8-2.6-4.2-5.6c-1.6-2-2.9-4.2-3-6.1c-0.1-2.2,1.2-4.3,3.5-4.4
			c2.4-0.1,3.3,1.7,3.7,3.1c0.4-1.5,1.4-3.2,3.7-3.1c2.4,0.1,3.7,2.3,3.5,4.4c-0.1,1.9-1.4,4.1-3,6.1C47.8-265.8,46-263.2,46-263.2z
			"/>
		<path id="path9904-6-0_1_" class="st3" d="M198.9-125c0,0-1.8,2.6-4.2,5.6c-1.6,2-2.9,4.2-3,6.1c-0.1,2.2,1.2,4.3,3.5,4.4
			c2.4,0.1,3.3-1.7,3.7-3.1c0.4,1.5,1.4,3.2,3.7,3.1c2.4-0.1,3.7-2.3,3.5-4.4c-0.1-1.9-1.4-4.1-3-6.1
			C200.7-122.4,198.9-125,198.9-125z"/>
		<path id="path9910-2-6_1_" class="st3" d="M80.6-254.6c0,0-3.8-6.2-8.9-13.4c-3.4-4.8-6.1-10.1-6.4-14.6
			c-0.3-5.2,2.5-10.3,7.4-10.6c5-0.3,7,4,7.8,7.5c0.8-3.5,2.8-7.7,7.8-7.5c5,0.3,7.7,5.4,7.4,10.6c-0.3,4.5-3,9.8-6.4,14.6
			C84.3-260.8,80.6-254.6,80.6-254.6z"/>
		<path id="path9916-8-0_1_" class="st3" d="M164.4-254.6c0,0-3.8-6.2-8.9-13.4c-3.4-4.8-6.1-10.1-6.4-14.6
			c-0.3-5.2,2.5-10.3,7.4-10.6c5-0.3,7,4,7.8,7.5c0.8-3.5,2.8-7.7,7.8-7.5c5,0.3,7.7,5.4,7.4,10.6c-0.3,4.5-3,9.8-6.4,14.6
			C168.2-260.8,164.4-254.6,164.4-254.6z"/>
		<path id="path9930-7-9_1_" class="st3" d="M164.4-133.6c0,0-3.8,6.2-8.9,13.4c-3.4,4.8-6.1,10.1-6.4,14.6
			c-0.3,5.2,2.5,10.3,7.4,10.6c5,0.3,7-4,7.8-7.5c0.8,3.5,2.8,7.7,7.8,7.5c5-0.3,7.7-5.4,7.4-10.6c-0.3-4.5-3-9.8-6.4-14.6
			C168.2-127.5,164.4-133.6,164.4-133.6z"/>
		<path id="path9932-9-8_1_" class="st3" d="M80.6-133.6c0,0-3.8,6.2-8.9,13.4c-3.4,4.8-6.1,10.1-6.4,14.6
			c-0.3,5.2,2.5,10.3,7.4,10.6c5,0.3,7-4,7.8-7.5c0.8,3.5,2.8,7.7,7.8,7.5c5-0.3,7.7-5.4,7.4-10.6c-0.3-4.5-3-9.8-6.4-14.6
			C84.3-127.5,80.6-133.6,80.6-133.6z"/>
		<path id="path19-3-8-2-9_1_" class="st3" d="M46.2-281.8v-2.3h2.1v-3.9H37.7v-2.7l11.5-17.6l1.9,0v17.6h3.3v2.7h-3.3l-0.1,3.9h1.8
			v2.3L46.2-281.8L46.2-281.8z M48.3-301.9L41-290.8h7.3V-301.9z"/>
		<path id="path19-4-46-0-1-9_1_" class="st3" d="M198.8-106.4v2.3h-2.1v3.9h10.7v2.7l-11.5,17.6l-1.9,0v-17.6h-3.3v-2.7h3.3
			l0.1-3.9h-1.8v-2.3L198.8-106.4L198.8-106.4z M196.6-86.3l7.3-11.2h-7.3V-86.3z"/>
	</g>
</g>
</svg>
