<?xml version="1.0" encoding="utf-8"?>
<!-- Generator: Adobe Illustrator 23.0.1, SVG Export Plug-In . SVG Version: 6.00 Build 0)  -->
<svg version="1.1" xmlns="http://www.w3.org/2000/svg" xmlns:xlink="http://www.w3.org/1999/xlink" x="0px" y="0px"
	 viewBox="0 0 180 250" style="enable-background:new 0 0 180 250;" xml:space="preserve">
<style type="text/css">
	.st0{fill:#FFFFFF;}
	.st1{fill:#E2CF00;}
	.st2{fill:#131F67;}
	.st3{fill:#D40000;}
	.st4{fill:#100F08;}
</style>
<g id="white-background">
	<rect class="st0" width="180" height="250"/>
</g>
<g id="Layer_1">
	<g id="g11153-5-1_1_" transform="matrix(0.99553774,0,0,0.99680134,-138.64975,318.48631)">
		<path id="path10240-7-9_1_" class="st3" d="M187.7-201.4c0,0-3.8-6.2-8.9-13.4c-3.4-4.8-6.1-10.1-6.4-14.6
			c-0.3-5.2,2.5-10.3,7.4-10.6c5-0.3,7,4,7.8,7.5c0.8-3.5,2.8-7.7,7.8-7.5c5,0.3,7.7,5.4,7.4,10.6c-0.3,4.5-3,9.8-6.4,14.6
			C191.5-207.6,187.7-201.4,187.7-201.4z"/>
		<path id="path10242-3-8_1_" class="st3" d="M153.2-263.2c0,0-1.8-2.6-4.2-5.6c-1.6-2-2.9-4.2-3-6.1c-0.1-2.2,1.2-4.3,3.5-4.4
			c2.4-0.1,3.3,1.7,3.7,3.1c0.4-1.5,1.4-3.2,3.7-3.1c2.4,0.1,3.7,2.3,3.5,4.4c-0.1,1.9-1.4,4.1-3,6.1
			C155-265.8,153.2-263.2,153.2-263.2z"/>
		<path id="path10244-4-5_1_" class="st3" d="M306.1-125c0,0-1.8,2.6-4.2,5.6c-1.6,2-2.9,4.2-3,6.1c-0.1,2.2,1.2,4.3,3.5,4.4
			c2.4,0.1,3.3-1.7,3.7-3.1c0.4,1.5,1.4,3.2,3.7,3.1c2.4-0.1,3.7-2.3,3.5-4.4c-0.1-1.9-1.4-4.1-3-6.1
			C307.9-122.4,306.1-125,306.1-125z"/>
		<path id="path10250-9-0_1_" class="st3" d="M187.7-254.6c0,0-3.8-6.2-8.9-13.4c-3.4-4.8-6.1-10.1-6.4-14.6
			c-0.3-5.2,2.5-10.3,7.4-10.6c5-0.3,7,4,7.8,7.5c0.8-3.5,2.8-7.7,7.8-7.5c5,0.3,7.7,5.4,7.4,10.6c-0.3,4.5-3,9.8-6.4,14.6
			C191.5-260.8,187.7-254.6,187.7-254.6z"/>
		<path id="path10254-7-3_1_" class="st3" d="M271.6-201.4c0,0-3.8-6.2-8.9-13.4c-3.4-4.8-6.1-10.1-6.4-14.6
			c-0.3-5.2,2.5-10.3,7.4-10.6c5-0.3,7,4,7.8,7.5c0.8-3.5,2.8-7.7,7.8-7.5c5,0.3,7.7,5.4,7.4,10.6c-0.3,4.5-3,9.8-6.4,14.6
			C275.4-207.6,271.6-201.4,271.6-201.4z"/>
		<path id="path10256-4-7_1_" class="st3" d="M271.6-254.6c0,0-3.8-6.2-8.9-13.4c-3.4-4.8-6.1-10.1-6.4-14.6
			c-0.3-5.2,2.5-10.3,7.4-10.6c5-0.3,7,4,7.8,7.5c0.8-3.5,2.8-7.7,7.8-7.5c5,0.3,7.7,5.4,7.4,10.6c-0.3,4.5-3,9.8-6.4,14.6
			C275.4-260.8,271.6-254.6,271.6-254.6z"/>
		<path id="path10258-5-9_1_" class="st3" d="M229.7-174.8c0,0-3.8-6.2-8.9-13.4c-3.4-4.8-6.1-10.1-6.4-14.6
			c-0.3-5.2,2.5-10.3,7.4-10.6c5-0.3,7,4,7.8,7.5c0.8-3.5,2.8-7.7,7.8-7.5c5,0.3,7.7,5.4,7.4,10.6c-0.3,4.5-3,9.8-6.4,14.6
			C233.5-181,229.7-174.8,229.7-174.8z"/>
		<path id="path10266-8-9_1_" class="st3" d="M271.6-186.8c0,0-3.8,6.2-8.9,13.4c-3.4,4.8-6.1,10.1-6.4,14.6
			c-0.3,5.2,2.5,10.3,7.4,10.6c5,0.3,7-4,7.8-7.5c0.8,3.5,2.8,7.7,7.8,7.5c5-0.3,7.7-5.4,7.4-10.6c-0.3-4.5-3-9.8-6.4-14.6
			C275.4-180.7,271.6-186.8,271.6-186.8z"/>
		<path id="path10268-2-7_1_" class="st3" d="M187.7-186.8c0,0-3.8,6.2-8.9,13.4c-3.4,4.8-6.1,10.1-6.4,14.6
			c-0.3,5.2,2.5,10.3,7.4,10.6c5,0.3,7-4,7.8-7.5c0.8,3.5,2.8,7.7,7.8,7.5c5-0.3,7.7-5.4,7.4-10.6c-0.3-4.5-3-9.8-6.4-14.6
			C191.5-180.7,187.7-186.8,187.7-186.8z"/>
		<path id="path10270-1-4_1_" class="st3" d="M271.6-133.6c0,0-3.8,6.2-8.9,13.4c-3.4,4.8-6.1,10.1-6.4,14.6
			c-0.3,5.2,2.5,10.3,7.4,10.6c5,0.3,7-4,7.8-7.5c0.8,3.5,2.8,7.7,7.8,7.5c5-0.3,7.7-5.4,7.4-10.6c-0.3-4.5-3-9.8-6.4-14.6
			C275.4-127.5,271.6-133.6,271.6-133.6z"/>
		<path id="path10272-0-7_1_" class="st3" d="M187.7-133.6c0,0-3.8,6.2-8.9,13.4c-3.4,4.8-6.1,10.1-6.4,14.6
			c-0.3,5.2,2.5,10.3,7.4,10.6c5,0.3,7-4,7.8-7.5c0.8,3.5,2.8,7.7,7.8,7.5c5-0.3,7.7-5.4,7.4-10.6c-0.3-4.5-3-9.8-6.4-14.6
			C191.5-127.5,187.7-133.6,187.7-133.6z"/>
		<path id="path29-5-8-5-4_1_" class="st3" d="M145.7-287l2.4-0.8c0.9,2.4,2.8,3.2,4.8,3c3.5-0.3,4.7-4.2,5-7.7
			c-1.4,1.5-3.5,2.2-5.2,2.1c-5.6-0.3-7.1-4.8-7.1-9.5c-0.2-4,1.5-6.8,4.3-8.1c1.5-0.7,4.9-0.7,6.4,0.1c3.5,1.8,4.7,4.9,4.5,12.4
			c0,6.1-1.3,13.3-7.9,13.5C149.1-281.4,146.1-284.3,145.7-287L145.7-287L145.7-287z M155.4-293.7c1.2-0.7,1.8-1.4,2.3-2.4
			c0.4-0.8,0.6-1.3,0.4-3c-0.3-4.5-2.7-7-6.1-6.5c-1.9,0.3-2.9,1.3-3.5,3.3c-1.1,3.6,0.3,7.9,2.9,8.9
			C152.6-293,154.4-293.1,155.4-293.7L155.4-293.7L155.4-293.7z"/>
		<path id="path29-6-2-3-6-6_1_" class="st3" d="M313.6-101.3l-2.4,0.8c-0.9-2.4-2.8-3.2-4.8-3c-3.5,0.3-4.7,4.2-5,7.7
			c1.4-1.5,3.5-2.2,5.2-2.1c5.6,0.3,7.1,4.8,7.1,9.5c0.2,4-1.5,6.8-4.3,8.1c-1.5,0.7-4.9,0.7-6.4-0.1c-3.5-1.8-4.7-4.9-4.5-12.4
			c0-6.1,1.3-13.3,7.9-13.5C310.3-106.8,313.2-103.9,313.6-101.3L313.6-101.3L313.6-101.3z M304-94.5c-1.2,0.7-1.8,1.4-2.3,2.4
			c-0.4,0.8-0.6,1.3-0.4,3c0.3,4.5,2.7,7,6.1,6.5c1.9-0.3,2.9-1.3,3.5-3.3c1.1-3.6-0.3-7.9-2.9-8.9C306.8-95.2,304.9-95.1,304-94.5
			L304-94.5L304-94.5z"/>
	</g>
</g>
</svg>
