<svg id="Layer_1" data-name="Layer 1" xmlns="http://www.w3.org/2000/svg" viewBox="0 0 180 250"><title>all_cards</title><g id="g5495"><path id="path147-0-8-1-6-13-2-2-3-8" d="M131.74,26.55c-7.92.17-11.47,9-5.61,15.89.85,1,.94,1.58-.61.62-4-2.62-11.52-.9-11.91,7.11-.48,9.88,13.42,12.72,16,2.22.14-1.1,1.05-1.08.83.49A32.63,32.63,0,0,1,127,65h9.41A32.46,32.46,0,0,1,133,52.88c-.22-1.57.69-1.59.83-.49,2.61,10.5,16.5,7.66,16-2.22-.39-8-8-9.73-11.9-7.11-1.56,1-1.47.39-.62-.62,5.86-6.87,2.31-15.72-5.61-15.89Z"/><path id="path147-0-8-1-6-75-2-83-9-8-9" d="M48.26,26.55c-7.92.17-11.47,9-5.61,15.89.85,1,.94,1.58-.62.62-4-2.62-11.51-.9-11.9,7.11-.48,9.88,13.41,12.72,16,2.22.14-1.1,1.05-1.08.83.49A32.46,32.46,0,0,1,43.55,65H53a32.63,32.63,0,0,1-3.42-12.15c-.22-1.57.69-1.59.82-.49,2.61,10.5,16.51,7.66,16-2.22-.39-8-8-9.73-11.91-7.11-1.55,1-1.47.39-.62-.62,5.87-6.87,2.32-15.72-5.6-15.89h0Z"/><path id="path147-0-8-1-6-7-5-5-7-62-3-0" d="M131.74,224.12c-7.92-.17-11.47-9-5.61-15.9.85-1,.94-1.57-.61-.61-4,2.62-11.52.9-11.91-7.12-.48-9.87,13.42-12.72,16-2.22.14,1.11,1.05,1.08.83-.49A32.63,32.63,0,0,0,127,185.63h9.41A32.46,32.46,0,0,0,133,197.78c-.22,1.57.69,1.6.83.49,2.61-10.5,16.5-7.65,16,2.22-.39,8-8,9.74-11.9,7.12-1.56-1-1.47-.39-.62.61,5.86,6.88,2.31,15.73-5.61,15.9Z"/><path id="path147-0-8-1-6-75-6-1-2-41-4-5" d="M48.26,224.12c-7.92-.17-11.47-9-5.61-15.9.85-1,.94-1.57-.62-.61-4,2.62-11.51.9-11.9-7.12-.48-9.87,13.41-12.72,16-2.22.14,1.11,1.05,1.08.83-.49a32.46,32.46,0,0,0-3.43-12.15H53a32.63,32.63,0,0,0-3.42,12.15c-.22,1.57.69,1.6.82.49,2.61-10.5,16.51-7.65,16,2.22-.39,8-8,9.74-11.91,7.12-1.55-1-1.47-.39-.62.61,5.87,6.88,2.32,15.73-5.6,15.9h0Z"/><path id="path147-0-8-1-6-2-00-7-5-5-3" d="M90,66.32c-7.92.17-11.47,9-5.61,15.89.85,1,.94,1.58-.62.62-3.94-2.62-11.51-.9-11.9,7.12-.48,9.87,13.41,12.72,16,2.22.14-1.11,1-1.09.83.49a32.46,32.46,0,0,1-3.43,12.14h9.42a32.46,32.46,0,0,1-3.43-12.14c-.22-1.58.69-1.6.83-.49,2.61,10.5,16.5,7.65,16-2.22-.39-8-8-9.74-11.9-7.12-1.56,1-1.47.39-.62-.62,5.86-6.87,2.31-15.72-5.61-15.89Z"/><path id="path147-0-8-1-6-7-5-7-3-0-4-4-6" d="M131.74,106.09c-7.92.17-11.47,9-5.61,15.9.85,1,.94,1.58-.61.61-4-2.62-11.52-.9-11.91,7.12-.48,9.87,13.42,12.72,16,2.22.14-1.11,1.05-1.08.83.49A32.63,32.63,0,0,1,127,144.58h9.41A32.46,32.46,0,0,1,133,132.43c-.22-1.57.69-1.6.83-.49,2.61,10.5,16.5,7.65,16-2.22-.39-8-8-9.74-11.9-7.12-1.56,1-1.47.39-.62-.61,5.86-6.88,2.31-15.73-5.61-15.9Z"/><path id="path147-0-8-1-6-75-6-6-5-3-2-4-8" d="M48.26,106.09c-7.92.17-11.47,9-5.61,15.9.85,1,.94,1.58-.62.61-4-2.62-11.51-.9-11.9,7.12-.48,9.87,13.41,12.72,16,2.22.14-1.11,1.05-1.08.83.49a32.46,32.46,0,0,1-3.43,12.15H53a32.63,32.63,0,0,1-3.42-12.15c-.22-1.57.69-1.6.82-.49,2.61,10.5,16.51,7.65,16-2.22-.39-8-8-9.74-11.91-7.12-1.55,1-1.47.39-.62-.61,5.87-6.88,2.32-15.73-5.6-15.9h0Z"/><path id="path147-0-8-1-6-2-0-8-6-42-9-6" d="M90,184.35c-7.92-.17-11.47-9-5.61-15.9.85-1,.94-1.58-.62-.61-3.94,2.62-11.51.89-11.9-7.12-.48-9.87,13.42-12.72,16-2.22.14,1.11,1,1.08.83-.49a32.46,32.46,0,0,0-3.43-12.15h9.42A32.46,32.46,0,0,0,91.28,158c-.22,1.57.69,1.6.83.49,2.61-10.5,16.5-7.65,16,2.22-.39,8-8,9.74-11.9,7.12-1.56-1-1.47-.39-.62.61,5.86,6.87,2.31,15.73-5.61,15.9Z"/><path id="path147-6-9-8-7-0-5-6-1-6-9" d="M166.12,209.93c3.17-.07,4.58-3.76,2.24-6.62-.34-.42-.38-.66.25-.26,1.58,1.1,4.6.38,4.76-3,.19-4.12-5.37-5.3-6.41-.93-.06.46-.42.45-.33-.2A13.81,13.81,0,0,1,168,193.9h-3.77a14,14,0,0,1,1.38,5.06c.08.65-.28.66-.34.2-1-4.37-6.6-3.19-6.4.93.15,3.34,3.18,4.06,4.76,3,.62-.4.59-.16.24.26-2.34,2.86-.92,6.55,2.25,6.62Z"/><path id="path147-6-9-8-7-4-5-62-4-0-0" d="M13.88,40.07c-3.16.07-4.58,3.76-2.24,6.62.34.42.38.66-.25.26-1.58-1.1-4.6-.38-4.76,3C6.44,54,12,55.21,13,50.84c.06-.46.42-.45.33.2A13.81,13.81,0,0,1,12,56.1h3.77A13.81,13.81,0,0,1,14.4,51c-.09-.65.27-.67.33-.2,1,4.37,6.6,3.19,6.41-.93C21,46.57,18,45.85,16.37,47c-.62.4-.58.16-.24-.26,2.34-2.86.92-6.55-2.24-6.62h0Z"/><path id="path27-3-3-2" d="M5.24,29.8c.12-3.55,1.42-4.88,4-6.74a6.12,6.12,0,0,1-2.71-5.43c.42-4.42,3.85-6.63,7.6-6.53s7,3.05,7.23,6.26A5.45,5.45,0,0,1,18.71,23c2.36,2,3.87,3.29,3.82,6.79a8.26,8.26,0,0,1-8.27,7.79c-5.21.13-9.15-4.2-9-7.75Zm14.56,0c.22-3.22-2.63-5.39-5.86-5.42a5.94,5.94,0,0,0-6,5.52c0,3.1,3.66,4.78,6,4.79,2.87,0,5.61-2.13,5.8-4.89Zm-1-11.51a4.74,4.74,0,0,0-5-4.57C11.42,13.81,9,15.56,9,17.82c0,2.84,2.78,4.25,5.14,4.31,2.15.05,4.6-1.77,4.65-3.82Z"/><path id="path27-0-0-5-0" d="M157.47,220.2c.13,3.55,1.42,4.88,4,6.74a6.12,6.12,0,0,0-2.71,5.43c.42,4.42,3.85,6.63,7.6,6.53s7-3.05,7.23-6.26a5.44,5.44,0,0,0-2.61-5.61c2.37-2,3.88-3.29,3.82-6.79a8.25,8.25,0,0,0-8.26-7.79c-5.22-.13-9.16,4.2-9,7.75Zm14.56,0c.23,3.22-2.63,5.39-5.86,5.42a5.93,5.93,0,0,1-5.95-5.52c0-3.1,3.65-4.78,6-4.79,2.87,0,5.6,2.13,5.79,4.89Zm-1,11.51a4.74,4.74,0,0,1-5,4.57c-2.3-.07-4.74-1.82-4.74-4.08,0-2.84,2.77-4.25,5.14-4.31,2.15-.05,4.59,1.77,4.64,3.82Z"/></g></svg>