<svg id="Layer_1" data-name="Layer 1" xmlns="http://www.w3.org/2000/svg" viewBox="0 0 180 250"><defs><style>.cls-1{fill:#d40000;}</style></defs><title>all_cards</title><g id="g11369-4-9"><path id="path9834-5-2" class="cls-1" d="M13.88,56.1s-1.79-2.56-4.21-5.56c-1.62-2-2.91-4.19-3-6.07a3.89,3.89,0,0,1,3.53-4.4c2.36-.1,3.32,1.65,3.71,3.1.39-1.45,1.35-3.2,3.72-3.1a3.9,3.9,0,0,1,3.53,4.4c-.12,1.88-1.41,4.06-3,6.07C15.68,53.54,13.88,56.1,13.88,56.1Z"/><path id="path9836-5-8" class="cls-1" d="M166.12,193.9s-1.8,2.56-4.22,5.56c-1.62,2-2.91,4.19-3,6.07a3.9,3.9,0,0,0,3.53,4.4c2.37.1,3.33-1.66,3.72-3.1.39,1.44,1.35,3.2,3.71,3.1a3.89,3.89,0,0,0,3.53-4.4c-.12-1.88-1.41-4.06-3-6.07C167.91,196.46,166.12,193.9,166.12,193.9Z"/><path id="path9840-3-6" class="cls-1" d="M90,64.7s-3.76-6.14-8.84-13.36c-3.39-4.83-6.11-10.05-6.36-14.56-.29-5.14,2.45-10.31,7.41-10.56s7,4,7.79,7.45c.82-3.48,2.83-7.7,7.79-7.45s7.7,5.42,7.41,10.56c-.25,4.51-3,9.73-6.36,14.56C93.76,58.56,90,64.7,90,64.7Z"/><path id="path9850-2-3" class="cls-1" d="M90,144.24s-3.76-6.14-8.84-13.35c-3.39-4.83-6.11-10.06-6.36-14.57-.29-5.14,2.45-10.3,7.41-10.55s7,4,7.79,7.44c.82-3.47,2.83-7.69,7.79-7.44s7.7,5.41,7.41,10.55c-.25,4.51-3,9.74-6.36,14.57C93.76,138.1,90,144.24,90,144.24Z"/><path id="path9854-8-0" class="cls-1" d="M90,185.3s-3.76,6.14-8.84,13.36c-3.39,4.82-6.11,10.05-6.36,14.56-.29,5.14,2.45,10.31,7.41,10.56s7-4,7.79-7.45c.82,3.48,2.83,7.69,7.79,7.45s7.7-5.42,7.41-10.56c-.25-4.51-3-9.74-6.36-14.56C93.76,191.44,90,185.3,90,185.3Z"/><path id="path17-2-9-8-4" class="cls-1" d="M5.25,31.75l2-1.49C9.07,33.13,11.06,35,14.1,34.7c4.57-.31,6.46-5.06,5.5-8.65A5.29,5.29,0,0,0,11.9,23a7.5,7.5,0,0,1-1.53.74c-.32,0-1-1.41-.93-1.84a92.53,92.53,0,0,1,6.91-8.06H8.7v3.44H5.76V11.09h15v2.1a50.4,50.4,0,0,0-5.33,6.39A7.25,7.25,0,0,1,22.22,25a14.32,14.32,0,0,1-.42,7.31,9.21,9.21,0,0,1-7.5,5.22c-5,.34-7.72-3.18-9-5.78Z"/><path id="path17-5-3-9-1-3" class="cls-1" d="M174.75,218.25l-2.05,1.49c-1.77-2.87-3.76-4.77-6.81-4.44-4.56.31-6.45,5.06-5.49,8.65a5.29,5.29,0,0,0,7.7,3.07,7.5,7.5,0,0,1,1.53-.74c.31,0,1,1.41.93,1.84a94.39,94.39,0,0,1-6.91,8.06h7.65v-3.44h2.93v6.16H159.28v-2.09a50.4,50.4,0,0,0,5.33-6.39,7.24,7.24,0,0,1-6.83-5.42,14.32,14.32,0,0,1,.42-7.31,9.21,9.21,0,0,1,7.49-5.22c5.05-.34,7.73,3.18,9.06,5.78Z"/></g></svg>