<svg id="Layer_1" data-name="Layer 1" xmlns="http://www.w3.org/2000/svg" viewBox="0 0 180 250"><title>all_cards</title><g id="g8542-3-6"><g id="g8587-4-9"><path id="path7293-3-2" d="M48.26,26.21c-7.44,10.55-15.4,16.62-15.53,24.85,0,2.67,1.4,7.2,5.94,8.06,2.95.56,7-1.8,7.09-6.62,0-1,1-.93,1,.38A27.25,27.25,0,0,1,43.39,64.7h9.74a27.25,27.25,0,0,1-3.38-11.82c0-1.31,1-1.34,1-.38.09,4.82,4.14,7.18,7.09,6.62,4.54-.86,6-5.39,5.94-8.06C63.66,42.83,55.7,36.76,48.26,26.21Z"/><path id="path7295-4-8" d="M13.88,40.07C10.41,44.46,6.69,47,6.63,50.42A3.33,3.33,0,0,0,9.4,53.78,2.87,2.87,0,0,0,12.71,51c0-.4.48-.39.48.16a10.48,10.48,0,0,1-1.58,4.92h4.55a10.48,10.48,0,0,1-1.58-4.92c0-.55.48-.56.47-.16a2.88,2.88,0,0,0,3.31,2.76,3.34,3.34,0,0,0,2.78-3.36c-.06-3.43-3.78-6-7.26-10.35Z"/><path id="path7297-5-1" d="M48.26,170.76c-7.44-10.55-15.4-16.62-15.53-24.85,0-2.67,1.4-7.2,5.94-8.06,2.95-.56,7,1.81,7.09,6.62,0,1,1,.93,1-.38a27.25,27.25,0,0,0-3.38-11.82h9.74a27.25,27.25,0,0,0-3.38,11.82c0,1.31,1,1.34,1,.38.09-4.81,4.14-7.18,7.09-6.62,4.54.86,6,5.39,5.94,8.06C63.66,154.14,55.7,160.21,48.26,170.76Z"/><path id="path7299-3-5" d="M166.12,209.93c-3.48-4.39-7.2-6.92-7.26-10.35a3.34,3.34,0,0,1,2.78-3.36A2.88,2.88,0,0,1,165,199c0,.4.48.39.47-.16a10.36,10.36,0,0,0-1.58-4.92h4.56a10.36,10.36,0,0,0-1.58,4.92c0,.55.47.56.47.16a2.88,2.88,0,0,1,3.31-2.76,3.32,3.32,0,0,1,2.77,3.36c-.06,3.43-3.78,6-7.25,10.35Z"/><path id="path7301-4-0" d="M131.74,26.21c-7.44,10.55-15.4,16.62-15.53,24.85,0,2.67,1.41,7.2,5.94,8.06,2.95.56,7-1.8,7.09-6.62,0-1,1-.93,1,.38a27.25,27.25,0,0,1-3.38,11.82h9.75a27,27,0,0,1-3.38-11.82c0-1.31,1-1.34,1-.38.08,4.82,4.14,7.18,7.08,6.62,4.54-.86,6-5.39,5.95-8.06C147.14,42.83,139.18,36.76,131.74,26.21Z"/><path id="path7303-7-8" d="M48.26,79.24c-7.44,10.55-15.4,16.62-15.53,24.85,0,2.67,1.4,7.2,5.94,8.06,2.95.56,7-1.81,7.09-6.62,0-1,1-.93,1,.38a27.25,27.25,0,0,1-3.38,11.82h9.74a27.25,27.25,0,0,1-3.38-11.82c0-1.31,1-1.34,1-.38.09,4.81,4.14,7.18,7.09,6.62,4.54-.86,6-5.39,5.94-8.06C63.66,95.86,55.7,89.79,48.26,79.24Z"/><path id="path7305-6-7" d="M90,60.4C82.56,71,74.6,77,74.47,85.25c0,2.67,1.4,7.19,5.94,8.06,3,.56,7-1.81,7.09-6.62,0-1,1-.94,1,.38a27.25,27.25,0,0,1-3.38,11.82h9.74a27.25,27.25,0,0,1-3.38-11.82c0-1.32,1-1.34,1-.38.09,4.81,4.14,7.18,7.09,6.62,4.54-.87,6-5.39,5.94-8.06C105.4,77,97.44,71,90,60.4Z"/><path id="path7309-8-5" d="M131.74,79.24c-7.44,10.55-15.4,16.62-15.53,24.85,0,2.67,1.41,7.2,5.94,8.06,2.95.56,7-1.81,7.09-6.62,0-1,1-.93,1,.38a27.25,27.25,0,0,1-3.38,11.82h9.75a27,27,0,0,1-3.38-11.82c0-1.31,1-1.34,1-.38.08,4.81,4.14,7.18,7.08,6.62,4.54-.86,6-5.39,5.95-8.06C147.14,95.86,139.18,89.79,131.74,79.24Z"/><path id="path7313-6-8" d="M48.26,223.79c-7.44-10.55-15.4-16.62-15.53-24.85,0-2.67,1.4-7.2,5.94-8.06,2.95-.57,7,1.8,7.09,6.62,0,1,1,.93,1-.38a27.25,27.25,0,0,0-3.38-11.82h9.74a27.25,27.25,0,0,0-3.38,11.82c0,1.31,1,1.34,1,.38.09-4.82,4.14-7.19,7.09-6.62,4.54.86,6,5.39,5.94,8.06C63.66,207.17,55.7,213.24,48.26,223.79Z"/><path id="path7315-7-3" d="M131.74,223.79c-7.44-10.55-15.4-16.62-15.53-24.85,0-2.67,1.41-7.2,5.94-8.06,2.95-.57,7,1.8,7.09,6.62,0,1,1,.93,1-.38a27.25,27.25,0,0,0-3.38-11.82h9.75a27,27,0,0,0-3.38,11.82c0,1.31,1,1.34,1,.38.08-4.82,4.14-7.19,7.08-6.62,4.54.86,6,5.39,5.95,8.06C147.14,207.17,139.18,213.24,131.74,223.79Z"/><path id="path7317-0-2" d="M90,189.6C82.56,179.05,74.6,173,74.47,164.75c0-2.67,1.4-7.2,5.94-8.06,3-.56,7,1.81,7.09,6.62,0,1,1,.94,1-.38a27.25,27.25,0,0,0-3.38-11.82h9.74a27.25,27.25,0,0,0-3.38,11.82c0,1.32,1,1.34,1,.38.09-4.81,4.14-7.18,7.09-6.62,4.54.86,6,5.39,5.94,8.06C105.4,173,97.44,179.05,90,189.6Z"/><path id="path7319-5-6" d="M131.74,170.76c-7.44-10.55-15.4-16.62-15.53-24.85,0-2.67,1.41-7.2,5.94-8.06,2.95-.56,7,1.81,7.09,6.62,0,1,1,.93,1-.38a27.25,27.25,0,0,0-3.38-11.82h9.75a27,27,0,0,0-3.38,11.82c0,1.31,1,1.34,1,.38.08-4.81,4.14-7.18,7.08-6.62,4.54.86,6,5.39,5.95,8.06C147.14,154.14,139.18,160.21,131.74,170.76Z"/><path id="path31-5-4-7" d="M5.8,37.55V11.09H8.38V37.55Z"/><path id="path33-4-6-8" d="M16,11.09a4.79,4.79,0,0,0-4.48,5.06V32.5a4.78,4.78,0,0,0,4.48,5h1.45a4.78,4.78,0,0,0,4.48-5V16.15a4.79,4.79,0,0,0-4.48-5.06Zm.75,2.51a2.56,2.56,0,0,1,2.64,2.51V32.68a2.65,2.65,0,0,1-5.29,0V16.11a2.58,2.58,0,0,1,2.65-2.51Z"/><g id="g8583-6-9"><path id="path31-5-5-6-7" d="M174.2,212.45V238.9h-2.58V212.45Z"/><path id="path33-4-3-7-9" d="M164,238.9a4.78,4.78,0,0,0,4.48-5.05V217.5a4.78,4.78,0,0,0-4.48-5.05h-1.45A4.78,4.78,0,0,0,158,217.5v16.35a4.78,4.78,0,0,0,4.48,5.05Zm-.75-2.5a2.57,2.57,0,0,1-2.64-2.51V217.32a2.65,2.65,0,0,1,5.29,0v16.57a2.58,2.58,0,0,1-2.65,2.51Z"/></g></g></g></svg>