<?xml version="1.0" encoding="utf-8"?>
<!-- Generator: Adobe Illustrator 23.0.1, SVG Export Plug-In . SVG Version: 6.00 Build 0)  -->
<svg version="1.1" xmlns="http://www.w3.org/2000/svg" xmlns:xlink="http://www.w3.org/1999/xlink" x="0px" y="0px"
	 viewBox="0 0 180 250" style="enable-background:new 0 0 180 250;" xml:space="preserve">
<style type="text/css">
	.st0{fill:#FFFFFF;}
	.st1{fill:#E2CF00;}
	.st2{fill:#131F67;}
	.st3{fill:#D40000;}
	.st4{fill:#100F08;}
</style>
<g id="white-background">
	<rect class="st0" width="180" height="250"/>
</g>
<g id="Layer_1">
	<g id="g6746_1_" transform="matrix(0.99553491,0,0,0.99680337,9.2783608,-8.1397402)">
		<path id="path6722-9_1_" class="st3" d="M4.6,64.4c-1.7-2.9-3.6-5.7-5.9-8c2.3-2.4,4.1-5.2,5.9-8c1.7,2.9,3.6,5.7,5.9,8
			C8.2,58.8,6.4,61.6,4.6,64.4z"/>
		<path id="path6724-6_1_" class="st3" d="M123,73.1c-4.2-6.9-8.6-13.6-14.1-19.3c5.5-5.7,9.9-12.4,14.1-19.3
			c4.2,6.9,8.6,13.6,14.1,19.3C131.6,59.5,127.2,66.2,123,73.1z"/>
		<path id="path6726-3_1_" class="st3" d="M157.5,218.8c-1.7-2.9-3.6-5.7-5.9-8c2.3-2.4,4.1-5.2,5.9-8c1.7,2.9,3.6,5.7,5.9,8
			C161.1,213.1,159.3,215.9,157.5,218.8z"/>
		<path id="path6728-7_1_" class="st3" d="M39.2,73.1C35,66.2,30.5,59.5,25,53.8C30.5,48,35,41.4,39.2,34.5
			c4.2,6.9,8.6,13.6,14.1,19.3C47.8,59.5,43.4,66.2,39.2,73.1z"/>
		<path id="path6736-0_1_" class="st3" d="M81.1,152.9c-4.2-6.9-8.6-13.6-14.1-19.3c5.5-5.7,9.9-12.4,14.1-19.3
			c4.2,6.9,8.6,13.6,14.1,19.3C89.7,139.3,85.3,146,81.1,152.9z"/>
		<path id="path6744-9_1_" class="st3" d="M39.2,232.7c-4.2-6.9-8.6-13.6-14.1-19.3c5.5-5.7,9.9-12.4,14.1-19.3
			c4.2,6.9,8.6,13.6,14.1,19.3C47.8,219.1,43.4,225.8,39.2,232.7z"/>
		<path id="path6746-2_1_" class="st3" d="M123,232.7c-4.2-6.9-8.6-13.6-14.1-19.3c5.5-5.7,9.9-12.4,14.1-19.3
			c4.2,6.9,8.6,13.6,14.1,19.3C131.6,219.1,127.2,225.8,123,232.7z"/>
		<path id="path21-9-8-2-7_1_" class="st3" d="M-3.8,39l2.6,0c0.5,1.6,1.6,3.2,3.1,3.7c4.2,1,7-1.4,7.9-4.2c1.1-3.4,0-8.1-2.9-9.7
			c-2.4-1.4-6-0.2-7.7,2.7l-1.8-1.1l1-11.1h12v2.6H0.6l-0.2,4.6C2.5,25,5.8,25,7.8,26.1c4,1.9,5.8,6.3,5,11.4
			c-1.1,5.1-3.4,8-8.7,8.4C-1.7,45.9-3.8,41.8-3.8,39L-3.8,39L-3.8,39z"/>
		<path id="path21-3-0-8-6_1_" class="st3" d="M166,228.2l-2.6,0c-0.5-1.6-1.6-3.2-3.1-3.7c-4.2-1-7,1.4-7.9,4.2
			c-1.1,3.4,0,8.1,2.9,9.7c2.4,1.4,6,0.2,7.7-2.7l1.8,1.1l-1,11.1h-12v-2.6h9.7l0.2-4.6c-2.1,1.5-5.3,1.5-7.4,0.4
			c-4-1.9-5.8-6.3-5-11.4c1.1-5.1,3.4-8,8.7-8.4C163.9,221.2,166,225.3,166,228.2L166,228.2L166,228.2z"/>
	</g>
</g>
</svg>
