<?xml version="1.0" encoding="utf-8"?>
<!-- Generator: Adobe Illustrator 23.0.1, SVG Export Plug-In . SVG Version: 6.00 Build 0)  -->
<svg version="1.1" xmlns="http://www.w3.org/2000/svg" xmlns:xlink="http://www.w3.org/1999/xlink" x="0px" y="0px"
	 viewBox="0 0 180 250" style="enable-background:new 0 0 180 250;" xml:space="preserve">
<style type="text/css">
	.st0{fill:#FFFFFF;}
	.st1{fill:#E2CF00;}
	.st2{fill:#131F67;}
	.st3{fill:#D40000;}
	.st4{fill:#100F08;}
</style>
<g id="white-background">
	<rect class="st0" width="180" height="250"/>
</g>
<g id="Layer_1">
	<g id="g6073_1_" transform="matrix(0.99999718,0,0,1.000002,-4.9738447,-6.5473594)">
		<path id="path10446-4-8_1_" class="st3" d="M18.9,62.7c0,0-1.8-2.6-4.2-5.6c-1.6-2-2.9-4.2-3-6.1c-0.1-2.1,1.2-4.3,3.5-4.4
			c2.4-0.1,3.3,1.7,3.7,3.1c0.4-1.4,1.3-3.2,3.7-3.1c2.4,0.1,3.7,2.3,3.5,4.4c-0.1,1.9-1.4,4.1-3,6.1C20.6,60.1,18.9,62.7,18.9,62.7
			L18.9,62.7z"/>
		<path id="path10448-8-7_1_" class="st3" d="M171.1,200.4c0,0-1.8,2.6-4.2,5.6c-1.6,2-2.9,4.2-3,6.1c-0.1,2.1,1.2,4.3,3.5,4.4
			c2.4,0.1,3.3-1.7,3.7-3.1c0.4,1.4,1.4,3.2,3.7,3.1c2.4-0.1,3.7-2.3,3.5-4.4c-0.1-1.9-1.4-4.1-3-6.1
			C172.9,203,171.1,200.4,171.1,200.4z"/>
		<path id="path37-2-5-5-0_1_" class="st3" d="M13,35.3h-2.2v-3H13c0,0,0-1.6,0.1-4.5c0.1-6.1,0.3-7.1,2.1-8.7
			c3.5-3.3,9.4-0.6,9.3,4.4c-0.1,7,0,13.8-0.2,14.7c-0.4,1.7-0.4,1.8-0.3,2.1c0.3,0.6,3,0.9,3,0.7v3c-2,0.2-2.9,0-4.5-1.2
			c-1,1-4.1,1.9-6.6,0.8C14,42.7,12.6,40.5,13,35.3L13,35.3L13,35.3z M20.5,40.6c-1.1-1.6-3-3.7-4.7-4.5c-0.1,1.8,0,3.3,0.7,4.2
			C17.5,41.6,19.2,41.9,20.5,40.6L20.5,40.6z M21.4,23.2c-0.8-2.3-2.9-3.1-4.5-1.6c-1,0.9-1.1,1.8-1.1,7c0,3.2,0,4.5,0,4.5
			c3,1,5.8,4.4,5.8,4.4l0.1-9.6C21.7,26.3,21.6,24.7,21.4,23.2L21.4,23.2L21.4,23.2z"/>
		<path id="path37-3-27-3-0-9_1_" class="st3" d="M176.9,227.8h2.2v3h-2.2c0,0,0,1.6-0.1,4.5c-0.1,6.1-0.3,7.1-2.1,8.7
			c-3.5,3.3-9.4,0.6-9.3-4.4c0.1-7.1,0-13.8,0.2-14.7c0.4-1.7,0.4-1.8,0.3-2.1c-0.3-0.6-3-0.9-3-0.7v-3c2-0.2,2.9,0,4.5,1.2
			c1-1,4.1-1.9,6.6-0.8C175.9,220.4,177.3,222.6,176.9,227.8L176.9,227.8L176.9,227.8z M169.4,222.5c1.1,1.6,3,3.7,4.7,4.5
			c0.1-1.8,0-3.3-0.7-4.2C172.4,221.5,170.8,221.2,169.4,222.5L169.4,222.5z M168.5,239.9c0.8,2.3,2.9,3.1,4.5,1.6
			c1-0.9,1.1-1.8,1.1-7c0-3.2,0-4.5,0-4.5c-3-1-5.8-4.4-5.8-4.4l-0.1,9.6C168.2,236.8,168.3,238.4,168.5,239.9L168.5,239.9
			L168.5,239.9z"/>
		<path id="path3054-4-0-3_1_" class="st2" d="M161.1,25.7H28.8v211.7h132.2V25.7z M144.8,27.4H159V109c0,0-1.2,0-1.1-0.6
			c0.1-0.8,0-2.2-0.5-2.8c-0.2-0.3-0.6-0.7-0.7-0.9c-0.4-0.7-1-1.5-1.4-1.7c-0.2-0.1-0.5-0.2-0.6-0.3c0-0.2-0.1-0.7-0.2-1.1
			c-0.3-1.2-0.5-1.1,0.3-2.3c2.6-4,3.6-7.7,3.2-11.4c-0.1-1.1-0.4-2.6-0.5-2.8c-2.5,2.5-4.3,5.6-6,7.9c-0.4-3.3-0.3-5.7-0.4-8.3
			c1.3-0.4,2.1-1.1,2.7-2.9c0,0,1.4,1.1,2.3,1l-0.6-2.1c3.8-1.2,4.3-6.2-0.2-7.2l0.4-2.6c0,0-1.4,0.5-2,0.7c-0.3,0.1-0.4,0-0.6-0.4
			c-2.1-3.3-5.4-2.6-6.8,0.7l-1.8-0.7c0.2,0.9,0.4,1.8,0.3,2.7c-3.7,1.6-2.8,6.1,0.2,6.7l-0.3,2.1l2.2-0.7c0.3,1,0.2,1.6,1.9,2.7
			c0,4.4-0.1,7.2,0,11.1c-2.3-2.4-4.5-4-8.4-5.2c0,0,0,0.9,0.2,2.4c0.1,0.5,0.1,0.4-0.2,0.4c-0.5,0-2.8-3.7-2.8-3.7s-0.3,0-0.5,0.2
			c-0.3,0.3,0.4,0.8,1.2,2.1c1,1.5,0.9,1.5,0.1,2.1c-4.6,3.9-11.2,18.7-10.1,20.1c-2.9,0.2-14.2,5.7-16.2,17.1
			c-0.1,0.5-0.4,1.2-0.4,1.2l-3.3-0.8c2-9.3,6.4-28.3,6.4-28.3s3.1-0.9,4.9-1.1l0-0.7l-4.3,1l0.2-1.6l4.1-0.8l0-0.4l-4.3,0.6
			l0.7-2.7c0,0-9.6,1.4-13.1,1.3c0.2,10.5-0.6,19.3-0.2,30.6l-4.7-2.9c-0.4-7.9-0.5-27.9-0.5-27.9l-13-2l0.4,3.1
			C74.5,95.3,63.6,91.4,55.7,83c4.9-3.8,13.1-7.5,13.1-7.5l-0.3-0.6C48.4,85.3,41.1,92.5,31,101.5v-74h54.5L85.3,41
			c0,0-0.1,0.3-0.2,0.5c-0.7,3.3,1.3,9.1,0.9,11.9c0.2,0.9,0.1,2.5,0.1,2.5c-3.3,4.5-5,8.8-6.5,14c-0.6,0.2-1.4,0.7-2,0.8l-0.2,0.7
			c1.3-0.7,4.9-1.9,4.9-1.9c16.3,7.9,28.2,6,41,0.1c-2,7.2,2.4,16.3,9.7,18.2c0.8,0.2,2.3,0.4,3.1,0.2c0.8-0.2-1.8-6.3-3-6.5
			c-3.5-1.5-5-5.1-4.6-9.2l-0.6-1c-1.2,5,1.7,10.1,5.7,11.3l1.1,2.3c-7.2-2.2-10.3-8.9-7.9-15.5c0-4.2-2.6-6-3.9-7.8
			c-6.3-2.4-7.4-8.2-6.3-12.9c2.9,1.2-2-4.1-2-4.1c-2.1,4.6-3,10.5,1.9,16.5c-3.2,4.2-7.3,7.5-11.8,10.4C98,74.9,93,72.5,89.7,64.8
			c-1.9-4.6-2.6-9.3-2.6-14.1c0-3,0-3.1,1.2-2.6c1.1,0.5,3.3,0.5,4.7-0.2c1.9-1,1.8-0.4-0.3,1.7c-0.6,0.6-1.1,1.1-1.1,1.2
			c0,0.6,0.9,0.1,2.1-1.1c0.5-0.4,0.8-0.9,0.9-0.9c0.2,0,0.1,0.6,0,1.2c-0.1,0.2-0.3,1.2-0.5,2.2c-0.2,1-0.5,2.2-0.6,2.6
			c-0.5,1.7-0.4,2.5,1.3,3.3c0.9,0.4,2.4,1.8,2.3,1.8c0,0-0.4-1.6-0.2-2.1c0.2-0.6,0.9-0.2,1.6,0.2c1.6,0.8,2.6,0.8,3.4,0.1
			c1.2-1,0.9-3.3-0.6-3.8c-1.1-0.4-1.3,0-0.2,0.7c1.6,1.1-0.2,2.9-1.6,1.8c-1.1-0.9-3-0.9-3.2-0.2c-0.2,0.7-0.4,0.5-1.2,0.1
			c-1.2-0.7-1.2-0.8-0.2-4.6c1.8-7.1,1.7-9.7-0.8-11.9c-1.8-1.6-4.8-2.3-7.9-0.6v-2.4c4.6-1.8,7.9-4.9,10.6-10h0.5
			c2.7,5.8,7,10,15.1,13c3.2,3.1-4-9-1.7-4c-4.3-1.7-8.1-5-10.2-9h1.2c1.2,1.8,3.7,5.1,8.2,7.4c1.9,0-2.9-5.9-3.6-7.4h37.3
			c-1.2,9.1-2.9,18.8,3.7,36.5c-3.1-1.6-15.4,1.8-13.3,2.5c1.1-1.3,9-3.1,14.8-1.7C148.3,64.3,139.9,44.8,144.8,27.4L144.8,27.4z
			 M148.8,64.7C148.8,64.7,148.8,64.7,148.8,64.7C148.8,64.7,148.8,64.7,148.8,64.7z M119.9,99.8l0,1.4l0.3-0.1l-0.2-1.4L119.9,99.8
			z M86.2,27.4h1.6c-0.4,0.7-0.9,1.4-1.7,1.8L86.2,27.4z M89.1,27.4h1.8c-1.4,2.2-2.8,3.6-4.6,4.6l0-1.7
			C87.3,29.4,88.2,28.4,89.1,27.4L89.1,27.4z M92,27.4h1.6c-2.2,3.4-4.5,5.8-7.4,7.2v-1.4C88,31.8,90.6,29.7,92,27.4z M94.5,27.4
			h1.3c-2.3,4.3-5.4,7.4-9.5,9v-1C90.8,33,92.7,30.2,94.5,27.4z M98.1,27.4h1.6c2.2,4.3,6.7,8.5,11.6,10.3l0.8,1.7
			C105.5,37.1,101.2,33.6,98.1,27.4L98.1,27.4z M102.6,27.4h1.1c1.2,1.7,2.6,3.1,4.3,4.2l1,2C106.8,32.1,104.3,30.1,102.6,27.4z
			 M104.7,27.4h1.3l1.7,2.9C106.5,29.7,105.7,28.4,104.7,27.4L104.7,27.4z M103.2,38.7c-1.7,0-3.3,0.5-4.4,1.4c-1.2,1-0.3,2,1.4,1.2
			c2.9-1.4,6.3-0.8,10,1.2c3.1,1.7,2-0.1-0.9-1.9C107.4,39.3,105.2,38.7,103.2,38.7z M89.3,40.9c2.5,0,5.3,1.1,5.4,2.6
			c-1.6-1.4-5-2-8.1-0.6c-0.2-0.1-0.3-0.9-0.1-1.2C87.2,41.1,88.2,40.9,89.3,40.9z M104.4,41.8c-1.6,0-3,0.4-3.7,1.3
			c-0.3,0.4-0.4,0.5-0.8,0.4c-0.7-0.1-0.7,0.3,0.1,1.5c0.4,0.6,0.3,1.2-0.2,2c-0.6,0.9-0.5,0.9,1.3,1.8c1.4,0.7,2.5,1.7,3.8,2.5
			c0.9,0.5,1.1,0.1,0.3-0.6c-0.3-0.2-1.1-0.8-1.9-1.4c-1.3-0.9-2.3-1.7-1.2-1.3c0.5,0.2,0.6,0.2,1.1,0.3c1.3,0.3,2.7,0.5,3.8,0.2
			c0.8-0.2,1.9-0.7,2.7-1.5c0.2-0.1,0.4,0,1,0c2.1,0.1,1.6-0.5-1.4-2.1c-2.9-1.6-5.2-1.9-7.1-1c-0.8,0.4-1.2,0.5-1.1,0.2
			c0.1-0.2,0.3-0.5,0.7-0.7c3-1.8,5.5-0.3,8.1,1.1c1.1,0.7,1.5,0.9,1.6,0.6c0.2-0.3-1.3-1.3-3.2-2.3
			C107.2,42.2,105.7,41.8,104.4,41.8L104.4,41.8z M94.7,43.9c0.5,0.2,0.3,0.8-0.2,0.6c-2.8-1.3-3.4-1.9-6.7-0.7
			c-1.1,0.4-1.5,0-0.2-0.5C90.6,42.1,92.7,42.9,94.7,43.9z M92.8,45.4c-0.8,3.8-4.6,2.7-4.2,0l0.7,0c0.1,2.3,2.4,2.3,2.8,0
			L92.8,45.4z M115,45.4l1,2.2c-2.3,5.6,0.8,13,7.5,14.8c0,0,1.1,1.7,0.9,1.9C111.9,61.6,112.9,49.6,115,45.4z M103.2,45.6l0.4,0
			c1.1,2.7,2.6,1.1,3,0l0.8,0C107,48.4,102.8,48.9,103.2,45.6L103.2,45.6z M93.5,45.6c0.5-0.1,0.7,0.7,0.5,0.8c0,0-1,0.9-1.1,0.4
			C92.8,46.1,93.3,45.7,93.5,45.6L93.5,45.6z M87.7,45.7c0,0,0.1,0,0.1,0c0.3,0.2,0.4,1,0.3,1.3c-0.2,0.2-0.9-0.1-1.1-0.4
			C86.8,46.3,87.1,45.7,87.7,45.7L87.7,45.7z M108,46c0.2,0,0.9,0.3,0.9,0.6c0,0.1-1,0.8-1.2,0.7C107.3,47.1,107.8,46.1,108,46
			C107.9,46,108,46,108,46L108,46z M102.5,46.1C102.5,46.1,102.5,46.1,102.5,46.1c0.1,0.1,0.7,0.4,0.2,1.1c0,0-0.7-0.2-0.7-0.3
			C101.9,46.5,102.4,46.1,102.5,46.1z M117.6,51c-0.2,3.2,0.7,6.3,4.2,8.3l-0.8-1.4c-0.9-0.7-2.8-2.7-2.5-5.2L117.6,51z M86.3,56.7
			l0.4,2.1c-1.9,3.2-3.4,6.3-4.6,10l-1.8,0.7C81.7,64.8,83.1,61.2,86.3,56.7z M87.1,60l0.5,1.8c-0.9,1.7-1.9,3.7-2.6,6l-2,0.7
			C83.9,65.5,85.2,62.5,87.1,60z M93.4,60.7C93.4,60.7,93.4,60.7,93.4,60.7c-0.1,0.4-0.1,1.4,0,3c0,0.3,0.3,0.2,1.2-0.3
			c0.7-0.4,0.7-0.4,1.4-0.2c2,0.7,2.9,0.4,3.7,0.2c1.2-0.3,1.7-0.2,2.4,0.2c0.4,0.2,0.9,0.4,1,0.4c0.5,0.2,0.3,0,0-1.5
			c-0.4-1.7-0.2-1.8-0.9-1.4c-0.1,0.1-0.6,0.3-0.8,0.4c-0.6,0.1-1.5-0.6-2.1-0.4c-1.4,0.5-1.4,0.4-2.7,0.1c-0.6-0.2-1.3,0.2-1.8,0.3
			C94.3,61.6,93.9,60.7,93.4,60.7z M117.2,61.6c2.4,2.2,4.8,2.9,7.4,3.7c-0.3,1.1-1,2.3-1.2,3.7c-13.7,7.2-27.5,7-40.5,0.4l6.7-2.6
			c3.7,6.4,8.4,8.1,13.7,6C109.3,70.1,113.7,66.3,117.2,61.6z M87.9,62.8l0.6,1.6l-0.9,2.4L86,67.4C86.3,65.8,86.9,64.5,87.9,62.8z
			 M100.3,64.7c-0.4,0-1,0.3-2.4,0.3c-0.8,0-1.4-0.1-1.7,0c-0.6,0.1,0.1,0.4,1.5,0.8c1.4,0.4,3.1-0.2,3.3-0.8
			C101,64.8,100.8,64.6,100.3,64.7L100.3,64.7z M88.9,65.4l0.4,0.8l-0.6,0.2L88.9,65.4z M125.3,65.9l1,2.3c-1.8,3.8-3,14.4,8.9,17.6
			l0.5,1.5C127.7,87.5,119.6,77.3,125.3,65.9L125.3,65.9z M98.2,66.7c-1.2,0-2.4,0.3-3.1,0.9c-0.7,0.6,0.2,0.9,1.1,0.5
			c1.2-0.6,3.2-0.5,4.3,0.2c0.9,0.6,1.4,0.5,0.8-0.4C100.8,67.1,99.5,66.7,98.2,66.7L98.2,66.7z M149.9,69.3
			c3.1-0.1,3.4,4.4,2.8,4.8c0.2-0.1,0.7-0.2,1.5-0.2c2.3,0.1,3.5,1.3,3.6,3.1c0.1,1.8-1.3,2.9-3.3,2.8c-0.8,0-1.3-0.1-1.2,0
			c0.4,1.5-0.1,3.7-2,4.2c-0.2,0.1-0.5,0.4-0.5,0.5c-0.1,2.3,0.5,10.3,0.5,10.3s3.6-6.1,4.5-7.1c1.6-2.2,2.2-2,1.9,1.6
			c-0.4,5-1.2,6.2-4.1,10.5c-1.3,1.8-4.3,0.9-4,2.1c0.1,0.3,0.5,0.8,1,1.2c0.3,0.3,0.6,0.5,1.4,0.5c1.3,0,1.8-0.3,1,0.8
			c-0.6,0.9-2.7,1.1-3,1.5c-0.6,1.1-0.2,0.8-1.1,1.8c-0.7,0.8-0.5,0.4-0.1,1.1c0.5,0.9,0.3,2.6-0.2,3.7c-0.4,0.9-0.4,1.6-0.4,1.6
			c0,0.1,1.2-1.2,1.5-2.7c0.3-1.2,0.6-1.9,0.6-1.2c0,0.9,0.2,2.1,0.9,2.5c0.6,0.4,0.7,0.7,0.6,1.2c-0.1,0.5,0.4,0.9,0.9,1.2
			c0.1,0.1,0.5,0.3,0.5,0.5c-0.1,0.8,0.2,1.7,0.7,1.8c0.2,0.1,1.8,0,2.1-0.9c0-0.3,0-1.5-0.6-1.5c-0.4-0.2-0.4-0.3,0.3-0.7
			c1-0.6,1.7-1,2.2-1.1c0.7-0.1,1.3-0.8,1.3-0.8l0.1,48.2c-6,6.1-12.6,12.3-21.3,18.3c-5-4.2-10.6-8.5-16.4-11.6l-2-1.2l0.7-0.9
			l-3.5-4.6l3.9-3.2l1,1.3l-1.9,1.8l2.8,3.1l6.3-6.1l-4.1-4l2.2-4l1.4,0.7l-1,2.6l3.2,2l4-7.8l-5-2.3l1.3-5.3l1.5,0.2l-0.5,3.8
			l3.9,0.8l1.6-8.9l-5.7-1l0.5-5.1l1.6,0l-0.2,2.8l4,0.6l0.8-7.8l-5.6-0.9l0.7-6l1.3,0.2l-0.2,3.7l4.1,0.7c0.5-2.5,0.8-5.7,1.5-8.2
			l-5.3-2l1.9-5.1l1.2,0.4l-1,2.7l3.9,1.7l3.3-6.5l-4.6-3.3c1-1.7,2.1-3.3,3.5-4.7l0.9,0.8c0,0-0.3,0.3-0.8,1
			c-0.6,0.9-0.8,1.3-0.7,1.5c0.1,0.2,2.9,2.3,3.2,2.3c0.3,0,1.2-0.9,1.7-1.4c0.5-0.6,0.8-0.7,1.3-0.3c0.1,0.1,0.3,0.2,0.4,0.4
			c0.1,0.2,0.2,0.3,0.2,0.4c0,0.1,0,0.2,0,0.2c0,0,0.1-0.1,0.4-0.2c0.4-0.2-0.8-1.2-1.7-1.7c-2.8-1.6-6.1-4.5-6.8-8.2
			c-0.3-1.7,4,0.3,6.9,3.3c0.4,0.4,2.1,2.1,2.1,2.1c-0.2-4.3-0.6-8.6-0.4-12.9l-0.7-0.5c-0.9-0.6-1.3-1.7-1.3-2.7
			c-0.1-0.7,0.6-1.1-0.8-1c-2.9,0-4.6-2.7-2.8-5.1c0.6-0.9,3.3-1.3,3.3-1.3C146.3,70.9,148.4,69.4,149.9,69.3L149.9,69.3z
			 M148.9,102.1 M152.7,74C152.7,74.1,152.7,74.1,152.7,74C152.7,74.1,152.7,74.1,152.7,74z M55.2,83.3c8.2,6.9,13.4,11.5,30.1,16.7
			l0.4,2.5c-9.6-2.2-20-6.7-32.5-17.8L55.2,83.3z M52.7,84.9c5.2,4.8,10.5,8.5,15.9,11.6l1.9,1.1l-1,1l3.2,4.6l-4.1,3.3l-1-1
			l2.1-2.1l-3-3l-6.2,6.2l4.2,3.7l-2.4,3.8l-0.9-0.4l1.3-2.6l-3.9-2.1l-4.4,8.1l5.6,2.5l-1.3,4.9l-1.3-0.1l0.4-3.9l-4.2-0.7
			l-1.4,9.1l5.4,0.8l-0.1,5.2l-1.4,0l0.1-2.9l-4.3-0.2l-0.4,7.6l5.3,0.7l-0.5,6.2L55,146l0.1-4l-4-0.4l-1.4,8.5l5.4,1.5l-1.9,5.3
			l-1.2-0.6l0.8-2.7c-1-0.4-3.8-1.6-3.8-1.6l-3.5,6.6l4.6,3.1l-2.8,4.9l-1.1-0.7l1.9-2.9l-3.8-2.4l-2.2,3c-0.9-0.8-2.6-1.9-3.2-2.6
			c-0.7-0.6-1.2-0.7-2.1-0.5c-0.7,0.2-1.3,0.3-1.2,0c0.1-0.1,1.4-1,3.4-2.3c0.6-0.4,1-0.7,1-1c0-0.2,0.3-0.6,0.7-0.8
			c0.4-0.3,0.3-0.5,0.3-0.8c-0.4-1.5-0.1-3.8,0.6-5.4c0.5-1,0.7-1.2,0.3-1.2c-1,0.1-2.1,3.6-2.4,4.6c-0.1-0.1-0.2-1-0.2-1.4
			c-0.1-0.6-0.2-1-0.7-1.2c-0.6-0.1-0.4-0.4-0.5-0.9c-0.1-0.8-0.5-1.2-1.1-1.5c-0.6-0.3-0.7-0.4-0.7-1c0-0.5-0.5-1.3-0.9-1.6
			l-2.1,0.8c-0.2,0.6,0.1,1.3,0.4,1.6c1.1,1-0.5,1-1.6,1.7c-0.3,0.2-0.6,0.6-0.9,0.5c-0.7-0.2-0.6,1.8-1.3,1.6l0.2-49.1
			C36,97.2,52.7,84.9,52.7,84.9L52.7,84.9z M139.4,93.5l0.8,0.9c-2.6,2.9-4.4,5.8-6.5,9.5c-1.7,3.1-3.3,7.4-4,12.1
			c-0.6,2.9-0.7,5.8-1.1,8.8c-0.4,3.2-0.5,7.5-1.1,10.8c-1.1,9.2-3.7,14.1-9.3,19.3c-2.5,2.3-10.2,6.6-10.4,6.6l-1.8-0.5
			c15.8-8.1,19.7-13.6,21.4-32.7C127.8,104.4,138.7,95.1,139.4,93.5L139.4,93.5z M140.9,95.1l0.8,0.8l-4.6,6.5l4.5,3.2l-1.8,4.2
			l-1.4-0.5l1-2.9l-3.8-1.6l-3.1,8.3l5.4,1.7l-0.9,5.4l-1.1-0.3v-3.7l-4-0.8l-1.2,9.3l5.9,0.8l-0.4,4.8l-1.4-0.1l-0.1-2.9l-4.1-0.2
			l-0.9,8.1l5.9,1l-1.1,5.7l-1.2-0.3l0.3-3.8l-3.9-0.5l-2.3,7.8l4.9,2.5l-2.4,5l-1-0.7l1.3-2.9l-3.8-1.9l-3.7,6.4l4,4l-3.9,4.1
			l-0.9-1.1l2-2.2l-3-3l-6.3,5l3.2,4.2l-0.4,0.5l-3.3-1.3l-1.6-2.1l-1.9,0.8l-1.5-0.6c9.3-4.9,15.3-10.5,17.8-19
			c1.4-4.7,1.8-9.8,2.2-15c0.2-2.7,0.5-5.4,0.9-8c0.5-4.3,1.1-8,2.9-12.2C135.1,102.6,137.7,99,140.9,95.1L140.9,95.1z M90.9,98.3
			l6.4,3.4l-0.1,2.2l-5.9-3L90.9,98.3z M92.7,98.4l4.5,0.6l0,1.8L92.7,98.4z M72.2,98.5l2.7,1.2l2.3,2.6l1.7-1.1l1.8,0.7
			c-5.8,3-10.9,6.5-14.9,12.7c-4.5,6.8-4.9,15.8-5.5,24.4c-0.9,11.9-3,20.3-10.9,29.9l-1.2-0.7l4.3-6.8l-4.8-3.1l2.2-4l1.1,0.4
			l-0.9,2.4l4,2.1l3.1-8.6l-5.6-1.8l0.9-5.4l1.4,0.1l-0.4,3.8l4,0.6l1.2-9l-5.4-0.8l0.1-4.8l1.3,0.1l0,2.9l4.3,0.2l0.3-8.3l-5.3-0.6
			l0.7-5.8l1.5,0.2l-0.3,3.5l4.1,0.6l1.9-7.5l-5.3-2.4l2.9-5.1l1.3,0.6l-1.3,2.8l3.7,1.8l3.9-5.9l-4.1-3.9l4-4.2l1,1l-2.2,2.5l3,2.8
			l6-5l-2.9-4.4L72.2,98.5z M110.4,98.7l-0.2,2.1l-6.4,3.6v-2.1L110.4,98.7z M144.7,98.8l1.4,0.9l-1,1.2l-1.2-0.8L144.7,98.8z
			 M107.7,99.1l-3.8,2.2v-2.2L107.7,99.1z M152.9,101.2c0.2,0,0.4,0,0.5,0.1c0.4,0.3,0.3,0.9-0.1,1.2c-0.6,0.4-2.1,0.4-2.3,0
			C150.8,101.9,152,101.2,152.9,101.2L152.9,101.2z M91.8,102.1l5.5,3l0,2.1l-5.3-2.9L91.8,102.1z M109.7,102.1l-0.3,2.7l-5.7,3
			l0-2.4L109.7,102.1z M82.3,102.2l2.3,0.6c-8.3,3.7-16.6,9.1-19.8,18.5c-1,2.8-1.7,6-2.1,10c-0.2,4.2-0.8,8.4-1,11.9
			c-0.4,7.2-2.8,16.9-11,27.3l-0.8-0.6c5-6.2,7.6-11.8,9.2-17.7c2.6-9.4,1.3-19.8,4-29.3c1.7-5.8,5.1-10.9,10.3-15.4
			C77,104.7,82.3,102.2,82.3,102.2L82.3,102.2z M86.1,103C86.1,103,86.1,103,86.1,103c2.1,6.8,4.6,19.3,4.6,19.3
			c-5.4-2.6-14.3-2.1-14.3-2.1s-5-6.5-6-7C74.4,107.7,85.3,103,86.1,103L86.1,103z M155.1,104c1.2,0,1.1,1.8-0.4,3.1
			c-0.8,0.7-1.2,0.6-1.8,0c-0.2-0.2-0.7-0.4-1-0.4c-0.9,0,0.9-1.8,2.4-2.6C154.6,104.1,154.8,104,155.1,104L155.1,104z M92.4,105.6
			l4.9,2.5l0,2.1l-4.5-2.5L92.4,105.6z M109,105.8l-0.3,2.3l-5.1,2.7l0-2.1L109,105.8z M156.8,106.7c0.2,0,0.3,0.1,0.4,0.2
			c0.7,0.8-0.6,3.1-2.1,3.8c-0.6,0.3-0.9,0.2-1.4-0.2c-0.2-0.2-0.6-0.5-0.8-0.4c-0.9,0.1-0.4-0.9,0.3-0.9c0.2,0,1.4-0.9,2.3-1.7
			C156.1,107,156.5,106.7,156.8,106.7L156.8,106.7z M151.6,107.6c1.1,0,1.5,0.9,0.2,1.3c-0.9,0.3-1.4,0.1-1.4-0.5
			C150.6,107.7,151.1,107.6,151.6,107.6z M93.1,108.8l4.3,2.2l0,2.2l-4-2.1L93.1,108.8z M108.6,109.1l-0.3,2.1l-4.7,2.4l0-1.7
			L108.6,109.1z M157.7,110c0.3,0,0.4,0.3,0.4,0.9c0,1-0.6,1.9-1.6,2.3c-0.7,0.3-1.2,0.3-1.6-0.1c-0.2-0.2-0.4-0.3-0.5-0.3
			c-1.5-0.1-1.3-0.5,0.2-1.1c0.5-0.2,1.5-0.9,2-1.2C157.1,110.2,157.5,110,157.7,110L157.7,110z M152.2,110.7c0.7,0,1.4,0.5,1,0.9
			c-0.3,0.3-1.5,0.4-1.8,0.2C151,111.3,151.4,110.7,152.2,110.7z M93.8,112.2l3.7,2l0,2.1l-3.5-2L93.8,112.2z M108,112.4l-0.1,2.2
			l-4.3,2.1l0-2.1L108,112.4z M153.8,113.3c0.7,0.1,0.6,0.7,0,1.1c-0.4,0.3-1,0.1-1.2-0.2C152.1,113.2,153.3,113.3,153.8,113.3z
			 M155.2,115.5c0.1,0.2,0.1,0.7-0.2,0.8c-0.3,0.1-1.1,0-1.3-0.2c-0.1-0.2-0.1-0.3,0.1-0.5C154.3,115.3,155,115.1,155.2,115.5z
			 M94.3,115.5l3.2,1.7l0,2.1l-2.9-1.7L94.3,115.5z M107.5,115.6l-0.2,2l-3.7,1.8l0.1-2L107.5,115.6z M69,116.9
			c0.8,0,1.4,0.5,0.9,1.4c-0.3,0.6-0.5,0.8-1.8,1.7c-0.5,0.4-1,0.7-1,0.7c0,0-0.4,0.3-0.6,0.4c-1.1,0.8-0.7-0.9,0.7-3.3
			C67.6,117.2,68.3,116.9,69,116.9z M107.2,118.7l-0.3,2.2l-3.3,1.7v-2.1L107.2,118.7z M94.8,118.9l2.7,1.3l0,2.2l-2.4-1.3
			L94.8,118.9z M126.8,119c0.1,0,0.2,0,0.2,0.1c0.2,0.3,0.3,1.6,0,2.4c-0.4,0.9-1.1-1.3-1-1.9C126.2,119.3,126.6,119,126.8,119
			L126.8,119z M70.9,119.4c1.1,0,1.9,0.7,1.5,1.8c-0.4,1.1-2.9,1.7-3.9,2.4c-0.7,0.4-0.9,0-0.7-0.7c0.1-0.3,0.2-0.5-0.4-0.6
			c-1.3-0.2-0.5-0.8,1.9-2.5C69.8,119.6,70.4,119.4,70.9,119.4L70.9,119.4z M124.3,120.1c0.4,0,0.9,0.2,1.3,0.7
			c0.8,0.9,1.4,2.8,1,3.3c-0.3,0-0.5,0.5-0.5,0.7c-0.1,0.6-1.2-0.5-2.2-2.2C123,121.2,123.4,120.1,124.3,120.1L124.3,120.1z
			 M79.4,120.4c3.3,0,9.5,0.7,18.2,6.1c1.1,0.7,2.2,1.5,3.5,2.1c3.3,1.8,6,3,10.2,3.8l-0.1,2.2c0,0.7,1.1,4.7,0.6,7
			c-0.8,0,0.8,0.7,0.8,0.7l1,2c0,0-5.2,0-7.6-0.5c-3.8-0.6-10.8-3.9-14.1-6.4c-3.5-2.6-8.8-4.7-13.3-5.5l-0.1-1.9
			c0,0-0.4-6.5-0.8-7.3l-0.8-2C77,120.6,77.9,120.5,79.4,120.4L79.4,120.4z M106.8,121.9l-0.3,2.2l-2.9,1.4v-1.9L106.8,121.9z
			 M121.2,122c0.8,0,2,0.9,3.4,2.8c0.3,0.4,0.6,0.8,0.6,1.1c0,0.2-0.1,0.4-0.3,0.3c-0.5-0.1-0.8-0.3-0.9,0.4c0,0.2,0.1,0.5-0.1,0.4
			c-1-0.3-3.8-3.1-3.6-4C120.4,122.3,120.7,122,121.2,122L121.2,122z M95.5,122.1l2.1,1.1l0.1,2.1l-1.9-0.8L95.5,122.1z M72.8,122.8
			c0.6,0,1,0.2,1.3,0.7c0.5,1.2-0.4,1.9-3,2.5c-2.3,0.5-2.2,0.6-1.9-0.3c0.2-0.6-0.5-0.6-0.9-0.8c-0.7-0.3-0.1-0.3,1.8-1.3
			C71.3,123.1,72.2,122.8,72.8,122.8z M65.3,123.3c0.1,0,0.1,0.1,0.3,0.2c3.3,4,2.4,9.8-1.7,12.7c-0.5,0.3-0.5,0-0.4-0.6l0.1-1.2
			c0-0.2,4.8-3.2,1.3-9.7l0.3-0.9C65.1,123.5,65.2,123.3,65.3,123.3L65.3,123.3z M119,124.6c1.3,0,4.9,3.3,3.4,3.4
			c-0.2,0-0.1,0.3-0.1,0.4c0,0.2,0,0.4,0,0.5c-0.1,0.3-0.5,0.2-1.2-0.2c-1.7-1-2-1.3-2.6-1.8C117.3,125.9,117.7,124.6,119,124.6
			L119,124.6z M106.2,125.1l0,1.8l-2.6,1.3l0-1.6L106.2,125.1z M73.3,126.4c1.7-0.1,2.7,1.7,1,2.6c-0.7,0.4-3,0.1-4.1,0
			c-1.2-0.1-0.5-0.5-0.4-0.6c0.2-0.3,0.3-0.3-0.3-0.7c-0.5-0.5-0.8-0.7,0.5-0.8c0.6-0.1,2.1-0.2,2.6-0.4
			C72.8,126.5,73.1,126.4,73.3,126.4z M126.5,126.8c0.1,0,0.1,0.2,0.1,0.8l-0.1,1.2c-0.8,0.1-4.7,5-1.5,10.8l-0.3,1
			c-0.1,0.5-0.2,0.6-0.6,0.3c-2.4-1.7-3.2-10.1,1.8-13.6C126.2,127,126.4,126.8,126.5,126.8z M117.1,127.8c0.5,0,1,0.1,1.7,0.4
			c1.5,0.7,2.5,1.2,2.8,1.6c0.1,0.2-0.1,0.4-0.4,0.5c-0.4,0.1-0.4,0.3-0.3,0.7c0,0.3,0.1,0.5-0.3,0.5c-0.6,0-1.9-0.4-3.2-1.1
			C115.1,129.3,115.5,127.8,117.1,127.8z M105.8,127.9v2.2l-2.1-1L105.8,127.9z M70,129.7c0.2,0,0.5,0,0.9,0.1
			c0.5,0.1,1.2,0.2,1.6,0.1c2.4,0,3.4,1.7,1.4,2.5c-0.5,0.2-0.8,0.2-2.3-0.2c-0.7-0.2-1.6-0.4-2-0.5c-0.7-0.2-1-0.4-0.5-0.6
			c0.4-0.2,0.5-0.5,0.2-0.9C69.4,129.9,69.5,129.7,70,129.7L70,129.7z M126.5,129.7c-0.3,3.4-0.6,6-1.1,9.3
			C125,138.8,122.4,132.6,126.5,129.7z M116.3,131.3c0.8,0,2.1,0.3,3.4,0.8c1.1,0.4,1.3,0.5,0.5,0.9c-0.5,0.2-0.4,0.4-0.3,0.7
			c0.2,0.2,0.6,0.7,0,0.6c-0.8,0.1-2.8-0.1-3.4-0.2c-1.8-0.3-2.3-2-0.8-2.7C115.8,131.4,116,131.3,116.3,131.3z M69.2,132.2
			c0.2,0,0.5,0.1,1,0.3c3.3,1,4.6,2.3,3,3.5c-0.5,0.4-1.2,0.2-2.6-0.6c-1.4-0.8-2.1-1.2-2.4-1.5c-0.3-0.3-0.1-0.6,0.3-0.6
			c0.5,0,0.5-0.2,0.4-0.7C69,132.3,69,132.2,69.2,132.2z M78.1,132.5l2.5,0.6l-6.3,27.5c-2.1,0.6-3.4,0.9-4.9,1.7l4.4-0.8l-0.4,2
			l-4,0.7l-0.1,0.6l4.5-0.8c0,0-0.2,1.9-0.3,2.6c4.3-0.3,8.6-1.6,12.9-1.6c0,0,0.1-21.7,0.1-24.1c0-2.6,0-5.6,0-5.6l4.4,2.5
			l0.7,27.4l13.7,2.2c-0.1-0.5-0.5-2.6-0.5-2.6c10.1,3,20.4,7.4,29.5,16.5c-4.2,2.3-8.2,4.6-12.3,6.8l-0.6,0.9
			c10.4-4.9,26.2-15,37.6-26.2v72.6h-54.4c0,0,0-3.5,0-6.8l0-6.1c-0.2-3.9,0.5-8.2-0.7-11.4l-0.2-3.4c3.4-3.9,5.2-8.9,6.8-13.9
			c0,0,1.6-0.6,2.4-0.9l0.3-1c-1.6,0.8-5.2,2.1-5.2,2.1c0.4-0.3-7.7-3.7-12.6-4.5c-8.2-1.3-19.2,0-28,4.4c-0.4,0.3-0.6,0.3-0.5-0.1
			c2-7.4-2.3-14.9-9.8-17c-1.6-0.5-2.9-0.5-2.9-0.5l0.1,0.7c12.3,1.4,15.2,14.4,10.5,20.5c-1.2,2-1.4,2.6,1.2,2.5
			c10.6-0.1,14.2,11.7,9.4,18.2c0-0.1,0.4,0.8,0.4,0.8c3-4,3.8-11.5-1.5-16.8c3.9-4.4,11.5-11.4,18-11c2.4,0.1,4.7,3,6.3,5.3
			c3.3,4.9,4.2,11.6,4.4,15.5c0.1,1,0.2,1.8,0.2,2.3c0,1.5-0.3,1.4-1.3,1.1c-1.3-0.3-3-0.3-4.3,0.1c-2,0.6-1.7,0.3,0.1-2
			c1.1-1.3,1.2-1.7,0.8-1.8c-0.1,0-0.6,0.4-1.2,1.3c-1.8,2.8-1.7,1.6-0.4-2.7c0.8-2.8,0.8-3-1.5-4.7c-0.8-0.6-1.7-1.1-1.8-1.3
			c-0.4-0.9-0.6,0.2-0.2,1c0.4,0.7-0.4,1.1-1.8,0.3c-3.3-1.8-5.5,1.9-2.5,3.5c0.7,0.4,1.1,0.1,0.5-0.4c-1.8-1.7-0.6-3.1,1.9-1.6
			c1.4,0.9,2,0.6,2.4-0.5c0.3-0.4,2.5,1.1,2.5,1.8c0,0.4-0.3,1.7-0.5,2.6c-0.7,2.4-0.9,3.2-1.2,4.8c-0.6,2.9-0.5,4.3,0.1,5.6
			c1.3,2.8,4.7,4.2,7.6,3c0.4-0.2,1.2-0.3,1.2-0.3l0,2.1c-5.8,2.2-9.9,9-9.7,9.2l-2.1,0c-2.7-5.4-7.5-9.5-13.6-11.7
			c-1.2-1,0.3,2.8,1.7,3.6c2.9,1.5,6.7,4.1,8.8,8.1l-1.5,0c-1.8-2.7-4.1-4.5-6.3-6.1c-0.5-0.1,0.4,4.9,2.5,6.5l-37.6,0.7
			c2.6-10,3.1-21.2-3-35.7c5,0.3,9.4-0.8,13.4-2.5l-0.4-1c-4.6,2.2-9.7,2.6-14.7,2.1c3.8,7.1,7.2,21.9,3.9,36.2H31v-77.9
			c0,0,0.8,0.5,1,0.7c0.4,0.4,0.7,1.1,0.8,1.6c0.2,0.6,0.3,0.6,1.2,1.3c0.4,0.3,0.7,0.6,0.6,0.7c0,0.2,0,0.7,0.2,1.1
			c0.8,0.9,0.6,1.5,0.1,2.1c-2.6,2.8-4.3,8.5-3,14.6c3.1-2.1,6.4-7.6,6.5-7.6l0.3,7.5c-0.3-0.1-2.2,1.1-2.2,2.6
			c-0.9,0.3-1.9-0.2-2.8-0.4l0.6,2.2c-3.2,1.3-3.4,5.7,0.3,6.9c0,0-0.3,1.7-0.6,2.6l2.4-0.4c1.4,4.2,6.8,2.9,6.8-0.1
			c0,0,1.6,0.6,2.3,0.9l-0.6-2.9c6.1-3.1,1.5-7.1,0.1-7c0-0.8,0.4-1.1,0.7-2l-2.5,0.2c-0.5-1.5-2.1-2.7-2.2-2.5l-0.3-10.8
			c1.9,1.6,3.7,3.3,6.2,4.6c2.3,1.2,2.5,0.9,2.2-1.1c-0.2-0.9-0.1-1.5-0.1-1.5c0.9,0.2,3,3,2.9,4.4c0.8,1,1.5-1.7-0.5-4.1
			c5.4-5.7,9.6-15.2,10.5-21.6l7.2-2.9l0.1-0.9C74.1,142.3,76.7,137.7,78.1,132.5L78.1,132.5z M84.1,134.2l1.7,0.7l-1.9,0.9
			L84.1,134.2z M68,134.6c0.3,0.1,0.8,0.5,1.5,1c1.4,1,2.2,1.8,2.3,2.4c0,0.3-0.2,0.7-0.6,0.9c-0.9,0.5-1.7,0.1-3.5-1.8
			c-0.6-0.6-1-0.9-1.2-1.2c-0.2-0.3-0.1-0.6,0.3-0.5C68.3,136,67,134.2,68,134.6z M119.1,135c0.3,0,0.6,0,0.7,0
			c0.4,0.1,0.5,0.3,0.3,0.5c-0.4,0.3-0.3,0.7,0.1,0.9c0.3,0.1,0.2,0.4-0.2,0.6c-0.2,0.1-0.5,0.2-0.9,0.3c-2.3,0.7-3.9,0.5-4.4-0.6
			c-0.5-1.2,0.5-1.8,3.2-1.8C118.4,135,118.7,135,119.1,135L119.1,135z M86,135.7l0,1.6l-2.4,1.1l0.3-1.7L86,135.7z M65.9,136.2
			c0.2,0,0.5,0.3,1,0.9c2.3,2.8,2.6,3.3,1.8,4.1c-0.9,0.9-2.1,0-3.5-2.4c-0.2-0.3-0.4-0.8-0.5-0.9c-0.5-0.6-0.3-0.8,0.3-0.7
			c0.3,0,0.5-0.1,0.5-0.4C65.7,136.4,65.7,136.2,65.9,136.2L65.9,136.2z M120.4,137.7c0.4,0,0.4,0.1,0.2,0.6
			c-0.1,0.4-0.4,0.6,0.2,0.8c0.1,0,0.3,0.3,0.1,0.4c-0.5,0.3-2.6,1.3-3.4,1.5c-1.5,0.5-2.4-0.7-1.5-1.9c0.4-0.5,2.9-1.4,4.1-1.5
			C120.3,137.7,120.4,137.7,120.4,137.7L120.4,137.7z M64.7,139.3c1.5,2.3,1.7,3.3,0.7,4c-0.6,0.5-2-0.2-2.3-1.7
			c-0.2-1.1-0.3-2.3,0-3.2C63.7,137,64.6,139,64.7,139.3L64.7,139.3z M85.9,138.3l0,1.8l-2.9,1.4l0.3-1.9L85.9,138.3z M91.8,138.4
			l2.7,1.7l0.2,1.5l-2.8-1.5L91.8,138.4z M121.9,140.1c0.1,0,0.1,0,0.1,0.1c0,0.2-0.1,0.9,0.4,1c0.8,0.1,0.6,0.4-0.1,1
			c-0.8,0.7-1.4,1.5-2.3,1.9c-2.3,0.9-3.1-1.6-0.9-2.9c0.8-0.4,1.5-0.7,2-0.9C121.4,140.3,121.7,140.1,121.9,140.1z M91.9,141
			l3.1,1.8l0.1,1.9l-3.1-1.6L91.9,141z M85.8,141.2l0,1.6l-3.1,1.7l0.3-1.8L85.8,141.2z M98.5,142.5c0.9,0.4,12,3.5,15.6,2.4
			c0,0,3.1,4.5,5.5,6.2c-3.6,5.3-15.8,10.5-15.8,10.5L98.5,142.5z M123.4,142.6c0.2,0,0.3,0.2,0.2,0.6c0,1.1-1.8,5.1-3.3,3.1
			c-0.4-0.8,0-1.6,1.3-2.5C122.7,143,123.2,142.7,123.4,142.6L123.4,142.6z M63,143.3c0.3,0.3,0.1,1.2-0.4,1.2c-0.2,0-0.2-1-0.1-1.5
			C62.7,142.9,62.9,143.2,63,143.3z M85.9,143.8l0,2l-3.6,2l0.4-2.3L85.9,143.8z M91.9,144.1l3.6,1.9l0.4,2.3l-4-2.1L91.9,144.1z
			 M85.9,146.9v2.1l-4.1,2.1l0.3-2L85.9,146.9z M91.9,147l4,2.3l0.5,2.1l-4.5-2.3L91.9,147z M35.1,147.1c0.7,0,0.9,0.7,0.4,1.1
			c-0.3,0.3-1.3,0.2-1.3,0C33.7,147.8,34.3,147.1,35.1,147.1z M36.3,149.3c0.1,0,0.2,0,0.3,0c0.5,0.1,0.8,0.8,0.5,1.2
			c-0.5,0.7-1.9,0.2-1.7-0.7C35.4,149.6,35.9,149.3,36.3,149.3z M85.8,150v1.8l-4.4,2.3l0.3-2.1L85.8,150z M92.1,150.2l4.6,2.5
			l0.4,2.1l-4.9-2.6L92.1,150.2z M34.2,150.3c0.2,0,0.4,0.1,0.5,0.2c0.1,0.1,0.2,0.5,0.5,0.7c0.6,0.3,0.7,0.4-0.5,0.9
			c-0.5,0.2-1.4,0.8-1.7,1.1c-1,0.7-1.4,0.4-1.5-0.3C31.4,151.8,33.2,150.3,34.2,150.3L34.2,150.3z M37.6,151.8c0.2,0,0.5,0,0.6,0.1
			c0.4,0.3,0.4,0.8,0,1c-0.8,0.5-2.1-0.2-1.4-0.8C37,151.9,37.3,151.8,37.6,151.8L37.6,151.8z M85.8,152.8l0,2.4l-4.9,2.6l0.3-2.4
			L85.8,152.8z M35.1,153.1c0.3,0,0.6,0.1,0.9,0.3c0.3,0.4,0.6,0.5,0.8,0.5c0.8,0,0.6,0.3-0.3,0.7c-1.2,0.6-2.1,1.3-3,2.1
			c-0.9,0.9-1,1-1.3,0.7C31.2,156.1,33.4,153.2,35.1,153.1L35.1,153.1z M92.1,153.1l5.2,2.8l0.4,2.4l-5.6-3.1V153.1z M38.5,154.8
			c0.2,0,0.4,0,0.6,0.2c0.4,0.3,0.2,0.9-0.4,1.1c-0.4,0.2-1.1,0.1-1.4-0.1C36.9,155.5,37.8,154.8,38.5,154.8L38.5,154.8z M36,156
			c0.3,0,0.6,0.4,0.9,0.8c0.1,0.1,0.4,0.1,0.7,0.1c1,0,1.1,0.4,0.2,0.9c-0.3,0.2-1.2,0.8-1.8,1.4c-1.6,1.6-2.5,1.2-2.3-0.4
			C33.9,157.2,35.2,156.1,36,156L36,156z M92.1,156.1l5.7,3.1l0.6,2.6l-6.3-3.4V156.1z M85.8,156.2l0,2.4l-5.4,2.8l0.4-2.4
			L85.8,156.2z M92.2,159.2l6.4,3.9l0.2,2.5l-6.6-3.8V159.2z M85.8,159.6l0,2.3l-5.9,3l0.3-2.2L85.8,159.6z M37.6,161.2
			c0.2,0,0.3,0,0.4,0.1c0.7,0.3,0.5,0.9-0.5,1.4c-1.1,0.6-1.4,0.5-1.7-0.2C35.6,162,36.8,161.2,37.6,161.2z M104.3,161.5
			c11.1,2.5,22,8,32.6,17.6l-2.2,1.6c0,0-9.3-10.6-29.8-16.7L104.3,161.5z M92.3,162.6l3.1,1.8l0,0.5l-3.1-0.3V162.6z M39.8,162.6
			c0.2,0,0.4,0.1,1.5,0.7c4.4,3.2,6.2,5.1,7.3,8.6c0.7,2.1,0.6,2-1.5,0.9c-2-1.1-4.8-2.9-6.6-5.2c-0.3,5.5,0.3,12.2,0.3,12.2
			c2.8,1.4,1.9,4.9,1.9,4.9c7.1-1.9,5.6,7.4,0.3,5.4c1.3,7-6.8,6.5-6,0.4c-6.4-0.2-5.3-7.2,0-6.3c-0.6-2.2,0.2-3.6,2.2-4.5l-0.3-9.2
			c0,0-5.2,7.5-6.1,7.4c-0.5-0.1-1.3-0.9,0-7.5c0.7-3.4,4.3-7.6,6.3-7.7C39.5,162.6,39.6,162.6,39.8,162.6L39.8,162.6z M44.9,162.7
			l0.9,0.6l-0.9,1.6l-1-0.7L44.9,162.7z M85.8,163.1l0,1.4l-2.9,0.2L85.8,163.1z M55.7,179.7c6.8,1,10.9,9.3,7.8,15.3
			c-0.4,0.3,0.2,1.6,0.6,1.1c3.3-4.7,0.8-16.2-8.8-17.3C53.3,178.6,55.1,179.2,55.7,179.7L55.7,179.7z M56.8,181.9
			c-0.5,1.5-0.7,1.9,0.7,1.2c2.5,0.9,5.1,4.9,4.3,9c-0.3,0.5,0.2-0.3,0.5,1C63.5,190.2,62.3,183.8,56.8,181.9z M88.1,189.4
			c6.9,0,13.8,1.5,19.3,4.6c-1.9,1-7.8,2.5-7.8,2.5c-3.3-3.7-5-7.5-11-5.6c-6.3,1.6-12,7.1-15.2,10.7c-3.2-1.9-4.9-2.4-7.8-2.5
			c-0.2,0-0.4,0.7-0.2-0.4c0.8-1.3,1.4-2.7,1.9-4.1C73.3,191.2,80.7,189.4,88.1,189.4z M109.7,194.2c-1.4,4.5-3.2,8.9-6.2,12.8
			l-0.4-1.9c2.8-4.4,4.2-8.3,4.8-10.1L109.7,194.2z M107,195.4c0.2,0.3-2.8,7.3-4.2,8.6l-0.6-1.8c1.2-1.8,2.9-6.1,2.9-6.1L107,195.4
			z M89.1,195.4c-0.1,0-0.1,0.1-0.1,0.3c0,0.6,0.7,1.1,1.9,1.4c1.6,0.4,4-0.2,4-1c0-0.5-0.3-0.5-1.3,0c-1.2,0.5-2.2,0.4-3.8-0.4
			C89.4,195.5,89.2,195.3,89.1,195.4L89.1,195.4z M103.8,196.5c-0.5,1.7-1.1,2.9-2,4.2l-0.3-0.9c0.6-1,1-2.1,1.5-3.2L103.8,196.5z
			 M102,197c-0.2,0.6-0.5,1.3-1,1.8l-0.7-1.4L102,197z M91.6,198.3c-1.1,0-2.2,0.4-2.3,1c0,0.3,0.4,0.2,2.5-0.1
			c1.1-0.1,1.6,0.5,2.6,0.4c0.5-0.1,0-0.5-0.1-0.7C93.7,198.5,92.6,198.3,91.6,198.3z M86.8,199.6c-0.1,0,0,0.3,0.4,1
			c0.2,0.4,0.3,1.2,0.3,1.7c-0.1,1.2-0.1,1.2,0.6,0.5c0.4-0.4,1.1-0.3,2.3,0c0.8,0.2,0.9,0.3,1.5-0.1c0.6-0.4,0.8-0.2,1.3-0.1
			c0.5,0.1,1-0.1,1.5-0.3c0.7-0.2,0.8-0.1,1.4,0c0.9,0.4,0.8,0.4,0.9-1.1c0.1-1.5,0-1.6-0.9-1.1c-0.9,0.5-1.4,0.7-2.7,0.3
			c-1.4-0.5-1.6-0.4-2.6-0.1c-1.2,0.4-1.8,0.5-2.7-0.1C87.4,199.9,87,199.6,86.8,199.6L86.8,199.6z M67,201.9l0.5,0.9
			c4.9,1.8,8.2,5.8,6.3,12.5l0.5,0.7C76.7,209.3,73.9,203.6,67,201.9L67,201.9z M68.5,204.8l0.7,1.4c3.7,1.8,3.5,6.7,3.3,6.5L73,214
			C73.9,210.8,72.2,206.1,68.5,204.8L68.5,204.8z M83.9,212.1c-0.1,0-0.2,0.1-0.3,0.2c-0.1,0.2,0.2,0.4,1.9,1.6
			c1.5,1,2.6,1.7,2.5,1.9c-0.1,0.1-1-0.1-1.6-0.3c-1.7-0.5-4.2,0.1-5.6,1.1c-0.4,0.2-0.9,0-1.5-0.2c-0.2-0.1-0.7-0.1-0.9-0.1
			c-1.1,0.3,0,1.3,2.5,2.6c3.2,1.6,4.9,1.8,6.8,0.8c1.3-0.7,1.7-0.2,0.3,0.6c-2.4,1.3-4.8,0.9-8.6-1.7c-1.8-1.2-2.5-1-1,0.1
			c2.7,2.1,7.9,4.7,11.1,1.5c0.1,0,0.4,0,0.6,0c0.7,0,0.7-0.2,0-1.3c-0.4-0.7-1.3-1.4-0.2-2.2c0.8-0.6,0.7-0.9-0.2-1.2
			c-0.2-0.1-0.2,0.1-0.6-0.2C86.9,213.5,84.7,212.1,83.9,212.1L83.9,212.1z M84.9,215.7c0.9,0,1.9,0.8,2.2,2.1
			c0,0.1,0.1,0.2,0.1,0.4l-0.8,0c-0.7-2.7-2.7-1.8-2.9-0.2l-0.7-0.1C83,216.4,84,215.7,84.9,215.7L84.9,215.7z M101.6,218l-0.5,0.1
			c-0.4-1-1.9-2.3-2.7,0.1l-0.7,0C98.2,214.9,101.1,215.4,101.6,218z M97.5,216.7c0.2,0.3-0.2,0.8-0.4,1.1c-0.2,0.2-0.7,0-0.9-0.2
			c-0.2-0.2,0-0.7,0.2-0.8C96.8,216.6,97.3,216.4,97.5,216.7L97.5,216.7z M88.1,216.8c0.2,0.5-0.4,0.9-0.5,0.7
			c-0.1,0-0.3-0.9-0.2-0.9C87.6,216.5,88,216.6,88.1,216.8L88.1,216.8z M102.3,216.7c0.3,0,0.7,0.2,0.8,0.6c0,0.3-0.3,0.5-0.6,0.5
			c-0.1,0-0.7-0.4-0.6-1C101.9,216.6,102.1,216.7,102.3,216.7z M82.5,216.8c0.1,0.2-0.1,0.7-0.2,0.8c0,0-0.8,0-0.7,0
			c0-0.1-0.1-0.5,0.1-0.8C81.9,216.7,82.4,216.6,82.5,216.8L82.5,216.8z M95.7,218.6c0.1,0,0.2,0,0.4,0.1c2,1.3,4.6,1.9,6.5,1
			c0.4-0.2,0.7-0.2,0.7,0c0,0.2-0.5,0.7-1.3,0.9c-1.9,0.6-5.1-0.2-6.2-1.4C95.4,218.9,95.4,218.6,95.7,218.6L95.7,218.6z M77.9,220
			c-0.2,0-0.3,0.1-0.2,0.3c0.1,0.8,5.5,3.9,7.8,4.3c1.9,0.3,3.3,0.2,4.4-0.5c2.8-1.6,2.1-3.8-0.6-2.1c-1.8,1.1-6.4,0.6-9.2-1
			C78.9,220.3,78.2,220,77.9,220z M102.3,221.1c0.7-0.3,1-0.4,1.1-0.3c0.7,0.6-0.4,1.5-2.5,1.8c-1.7,0.3-2.7,0.3-4.6-1.1
			c-1.5-1.1-0.8-1.6,0.1-1.1C98.7,221.8,100.4,221.8,102.3,221.1L102.3,221.1z M78.4,224.5c4.8,1.7,10.3,5.9,12.7,10.9l-1.5,0
			c-1.6-2.9-4.9-6.5-10.3-9.1C78.8,225.9,78.6,225.2,78.4,224.5L78.4,224.5z M103.6,226.9v1.6c-3,1.5-5.4,3.8-7.3,7l-1.7,0
			C96.5,232,99.4,228.8,103.6,226.9z M103.6,229.3v1.9c-1.9,1.1-3.4,2.5-4.5,4.2h-2C98.6,232.7,100.8,230.6,103.6,229.3L103.6,229.3
			z M81.6,230.7c1.4,0.8,3.8,3,4.7,4.7l-0.8,0c-0.8-1-2-2.1-3-3C81.8,231.7,81.6,230.7,81.6,230.7z M103.6,232
			C103.6,232,103.6,232,103.6,232v1.6c0,0-1.4,1-2,1.8h-1.6C101,233.4,103.3,232,103.6,232z M103.6,234.5v0.9l-1,0
			C102.6,235.3,103.2,234.7,103.6,234.5L103.6,234.5z M83.8,234.7c0.3,0.2,0.5,0.7,0.5,0.7l-0.3,0L83.8,234.7z"/>
		<path id="path3052-2-5-5_1_" class="st1" d="M42.8,200.8c3.3,0.1,10.4-1.2,10.3-1c0,0,21.8,36.3,21,35.9c-0.3,0.5-28,0.4-28,0.4
			C45.5,236.1,51.9,222.7,42.8,200.8z M52.7,175.2c10.6-8.8,21.8-8.9,33.8-10.1l0.3-30l4.3,2.6l0.1,27.5c15.8,1.2,29.4,7,41.1,17.1
			c0.1,0.2-16.9,9.4-24.4,11.8c-5.8-4.3-21.1-7-31.3-3.7c-2.8,0.9-6.2,2.3-9.6,3.4c2.4-14.5-8.9-16.6-12.9-17.3
			C53.7,176.5,53.1,175.4,52.7,175.2z M39.1,179.9c0.2-3.1,0-6.2-0.2-9.3c-0.1-0.7-6.2,9.4-6.6,6.9c-0.9-6.1,2.2-13.9,7-14.9
			c0.5-0.6,10,5.2,9.5,10.3c-0.1,1.7-8.5-5.6-8.5-5.1c-0.2,0.8,0.2,12.2,0.5,12.1c2.4,1.3,1.9,3.1,2.1,4.5c6.4-0.9,6.1,6.2,0,5.9
			c0.4,8.4-7.4,4.6-5.9,0.1c-7.9-0.4-4-7.7-0.1-6.1C36.7,182.5,37.2,180.6,39.1,179.9L39.1,179.9z M48.1,144.2
			c-0.5-0.2-16.8-1-16.8-1l0.9-39.7c8.3-19.1,39.7-10.2,34.7-6.1C51.9,107.2,49.6,125.1,48.1,144.2z M78.2,127.9l-0.5-4.4
			c-1.3-2.7,33.4,13.3,33.8,13.6l1,4.7C112.7,143.9,90.4,133.4,78.2,127.9z M141.2,120.1c-2.6,19.8-2.4,39.7-17.1,46.6
			c11,10.7,20.3,2.5,34.1-4.5c0.4,0-0.5-42.4-0.7-42.4C152.1,120.2,146.7,120.3,141.2,120.1z M148.9,100.8c-2.7-0.4-9.1-7-7.8-9
			c0-1.5,7.9,4.2,8.7,5.8c-0.4-0.5-0.5-14-0.6-13.4c-0.3,0.2-2.4-1.3-1.9-4.2c-6,1.3-5.7-6.5-0.4-6.2c-0.7-7.1,8-4.5,5.7,0.3
			c7.4-1.4,6.2,7,0.5,5.6c0.5,3.2-0.8,4-2.7,4.7c0.1,1.3,0.6,10.2,0.6,10.2s5.5-8.4,5.9-7.7C158.5,88.9,156.2,102.8,148.9,100.8
			L148.9,100.8z M123.4,69.7c-2.5,8.6,4.3,18.3,10.8,18.3c1.3-0.2,3.8,0.5,2.9,1.2c-10.1,8.2-33.8,9.9-33.8,9.6
			c0.2,10.1-0.2,20.3-0.4,30.4l-4.3-2.6c-0.1-9.2-0.4-18.6-0.6-27.8c-15.2-2-28.8-6.9-39.6-17.3c7.2-5.3,15.7-8.6,23.9-12
			C92.5,74.8,106.9,77.9,123.4,69.7L123.4,69.7z M115.9,29c-0.5-0.2,1.6-1.8,1.6-1.8s17.6,0.2,26.4,0.1c-3.2,13.1-0.9,24.8,3.2,36
			c-1.1-0.3-8.3,0.3-10.1,1.1C136.7,64.8,116.1,29.3,115.9,29z"/>
		<path id="path3050-3-4-7_1_" class="st3" d="M74.6,235.6l-21.3-36l3.2-1.4l22,37.4L74.6,235.6z M36.7,187.5l3.1-3.2l3.1,3.1
			l-3.2,3L36.7,187.5z M105.1,167.4l-0.4-2.6c12.3,3,22.3,9.3,29.5,16.2l-1.7,1.3C133,182.1,115,168.6,105.1,167.4z M69.8,165
			l3.5-0.8l-0.1,2.2l-3.4,0.7L69.8,165z M141.3,163.1l-2.1-1.7l1.5-1.8l2.1,1.6L141.3,163.1z M69.2,145.7c5.3-2.5,9.4-12.6,8.9-13.2
			l2.9,0.7l-6.6,27.6l-4.6,1C69.7,156.5,69.2,151,69.2,145.7z M103.9,161.3c-1.8-5.8-5.3-18.9-5.3-18.9c0.1,0.4,11.4,3.6,15.5,2.5
			c1.7,2.4,3.6,4.4,5.6,6.3C115.4,155.3,110.2,158.7,103.9,161.3z M151.2,140.2l-2-1.7l1.8-2.2l2.2,1.7L151.2,140.2z M125.2,139
			c-1.6-2.9-1.7-6.2,1.3-9.5L125.2,139z M63.3,134c-0.1-3,0.3-5.8,1-8.5C66.1,128.6,66.1,131.8,63.3,134z M108.9,131.2
			c0,0,4.4-20.3,6.3-28.2l4.8-1.1l-0.2,16.4c-4.8,3.9-8.2,13.3-8,13.3L108.9,131.2z M38.5,127.9l-2.1-2l1.8-2l1.9,1.9L38.5,127.9z
			 M76.4,120c-1.5-2.2-3.6-4.5-5.8-6.8c3.6-5,9.6-7.9,15.9-10.2l4.3,19.1C85.9,120.6,80.7,119,76.4,120z M46.7,103l1.5-1.9l1.9,1.5
			l-1.5,2L46.7,103z M116.7,97.4l3-0.7l0.1,2.3l-3.6,0.7L116.7,97.4z M55.7,82.9l2.3-1.4c8.1,7.2,17,12.2,26.7,15.1l0.3,2.7
			C74.1,95.8,64.1,91.1,55.7,82.9L55.7,82.9z M150.1,80l-3-2.9l2.7-3l3.2,2.8C151.9,78.4,150.1,80,150.1,80z M133.5,65.6l-22.4-38.2
			l3.2,0l22,36.8L133.5,65.6z"/>
		<path id="path3048-5-8-9_1_" d="M110.9,26.8l-5.3,0l30.4,61c0,0-0.8,0.1-2.4-0.3c-7.3-1.9-11.8-9.6-10.1-17.2
			c0.2-0.6,0.2-1.1,0.2-1.1c-18.8,8.5-30.4,5.4-41.3,0l-4.6,1.8c0.3-2.8,3.8-13.3,8.9-18.2l0-5.3L86.5,45l-0.4-4.5
			c-7.7,7.2-16.7,18.6-17.8,34.8c0,0-7,3.6-13,7.6c0.3,0,9.3,11,30.9,17.2l-1-3.5c3.2,0.9,7.8,1.6,12.3,2.2l0.6,27.6l5.2,3.1
			l0.2-30.6c0.2,0.1,8.2-0.3,12.6-1.3l-0.6,3l4.3-0.8v2.2l-4.7,1.1l-6.7,28.6l3.9,0.9c1.1-5.8,4-10.4,8.2-13.3l0-1.1
			c2.7-1.9,8.2-3.4,8.3-3.4c1.9-9.3,6.3-15.7,11-21.8l-2.2-3l8.6-3.1l-11.9-20.3c4.6-3.2,13.7-2,13.7-2c-3.9-10.5-7.3-21.4-3.5-37.3
			l-33.1,0L110.9,26.8z M121.8,27.5c0,2.7-3.5,2.4-3.9,0L121.8,27.5z M143.1,27.4c-2.1,12.2-1.4,24.1,3.5,35.3c0,0-0.7,0-0.8,0
			c-0.1,0,0.1-0.6,0-0.8c-0.1-0.4-0.8-0.2-1.4,0.2c-0.3,0.2-0.6,0.4-0.7,0.5c-0.6,0.3-3.7,0.3-3.7,0.3c1-0.7,2.4-2.6,1.6-3.7
			c-0.2-0.2-0.3-0.1-0.5,0.2c-0.9,1.6-1.3,1.8-2.5,1.8c-1.8,0-3.1-1.2-3-2.9c0.1-1.7,2.6-2.5,2.2-0.9c-0.1,1.4,1.3,1.7,1.6,0.3
			c0.1-0.5,0-0.3,0.1-0.9c2.8-1.5,1.3-4.6-1.4-3.9c-0.6,0.2-0.7,0.2-1.1,0c-0.8-0.4-1.5-0.3-1.8,0.3c-0.3,0.5,0.1,0.9,0.8,0.9
			c0.6,0,0.8,0.3,0.8,0.7c0,0.9-1.5,1.3-2.5,0.8c-2.7-1.4-1.7-4.9,1.4-4.9c0.9,0,1.3,0.1,1.4-0.1c0.1-0.6-1.3-1.6-2.1-1.4
			c-0.7,0.1-1.1,0.3-0.7-0.6c0.2-0.9,0.2-1.4,0-2.1c-0.5-1-0.5-0.5-0.8,0.3c-1,1.7-2.5,2.1-3.9,1.1c-1.2-0.9-1.2-2.5,0-3.6
			c0.8-0.8,1.7-0.3,1.2,0.6c-0.2,0.4,0,0.8,0.3,0.9c0.7,0.2,1.2-0.2,1.2-1.1c0-0.5-0.2-0.6,0.7-1.1c2.3-1.3,0.6-4.8-2-3.7
			c-0.6,0.3-0.7,0.5-0.9,0.4c-1.1-1-2.6,0.3-1.7,0.9c0.4,0.2,0.9,0.3,1,0.3c0.2,0.1,0.1,0.4-0.2,0.8c-1.1,1.3-3.5,0.6-4-1.1
			c-0.7-2,1.4-4.2,3-3c0.5,0.4,0.9,0.4,0.9-0.1c0-0.8-1-1.7-2.3-1.7c-1.3,0.1-1.2,0.3-0.5-0.9c0.5-1.1,0.5-2.1,0-2.7
			c-0.4-0.5-0.7-0.6-0.7-0.1c0.3,1.6-1.6,3.1-3.1,2.4c-1.5-0.7-2.2-2.3-1.5-3.7c0.7-1.3,2.3-1.4,2,0c-0.1,0.9,0.6,1.4,1.2,0.8
			c0.2-0.2,0.3-0.4,0.3-0.9c0-0.6-0.2-0.8,0.2-1.2c1.1-0.1,1.2-2.4,1-2.5L143.1,27.4L143.1,27.4z M123.7,27.4c0.7,0,1.3,0.2,1.3,0.9
			c0,0.7-0.6,1.2-1.2,1.2c-0.7,0-1.2-0.6-1.2-1.2C122.4,27.7,123,27.4,123.7,27.4z M111.4,27.5h2.8L136.1,64l-2.6,1.3L111.4,27.5z
			 M116,28.8c1.3,0.8,2.6,1.4,4.2,1.5c-0.5,1-0.9,2.1-1,3.9L116,28.8z M120.4,36.2c1.4,0.5,2.5,1.2,4.7,0.5c-1.2,1-1.9,2.3-2.4,3.6
			L120.4,36.2z M131.8,40.6c0.6,0,1.2,0.5,1.2,1.2c0,0.6-0.5,1.2-1.2,1.2c-0.6,0-1.2-0.5-1.2-1.2C130.7,41.1,131.2,40.6,131.8,40.6z
			 M124.7,43.5c1,0.4,2,0.6,3.1,0.5c-0.6,0.8-0.8,1.9-0.8,3.3L124.7,43.5z M128.1,49.2c0.9,0.4,2,1.1,3.9,0.9
			c-1.3,2.1-1,2.7-1.1,3.7L128.1,49.2z M139.1,53.4c0.7,0,1.2,0.5,1.2,1.2c0,0.7-0.5,1.2-1.2,1.2c-0.7,0-1.2-0.5-1.2-1.2
			C137.9,54,138.4,53.4,139.1,53.4z M132.3,56.2c0.8,0.5,2.5,0.7,2.5,0.6c-0.1-0.1-0.5,1.6-0.5,2.6L132.3,56.2z M136.1,62.4
			c1.2,0.7,2.5,0.6,3.2,0.7c-0.8,0.2-1.6,0.4-2.5,0.7L136.1,62.4z M149.9,69.2c-2.8,0.2-3.5,2.4-3.2,4.6c-2.2-0.3-4.6,1.7-3.9,4.2
			c0.6,2.4,2.9,2.5,4.4,2.3c-0.1,0.6-0.4,2.5,1.9,4.2l0.3,12.3c0,0-1-0.9-1.7-1.6c-2.9-2.9-7.4-5.1-7.1-3.4c0,0.2,0.1,0.9,0.2,1.4
			c0.5,2.8,4.2,5.8,6.8,7.3c0.9,0.5,1.5,1.1,1.5,1.1c-4.8,5.1-7.4,10.6-8,16c-0.6,5-1.1,9.6-1.5,14.2c-2,23.2-11.9,29-12.4,30.1
			l-0.2,3.1l-2.8-0.2l-3.2,2.8c10.5,5.4,16.6,12,16.5,12.1c8.4-5.5,15.6-11.6,22.4-17.9l-0.1-51.6c0,0-0.6,0.2-0.7,0.2
			c-0.5,0-0.6,0.2-0.8,1.2c-0.1,0.5-0.4,1-0.7,1.4c-0.5,0.7-0.3,0.3,0.3,0.6c1.3,0.5-0.4,3-2.3,3.3c-1.4,0.2-2.1,0.5-2.4,0.8
			c-2.9,2.5-5.8,2.9-8,2c-1.1-0.5-2.2-1.1-2.6-2.2c-0.9-2.5,1-6.2,2.1-8.3c2-3.9,5.3-6.8,5.3-6.8l-0.5-0.6c0,0,0.7,0,0.8,0
			c2.9-1,3.1-1.1,3.6-1.8c0.5-0.8,1.9-2.9,2.1-3.7c1.5-3.8,1.7-4.1,1.7-6.6c0-2-0.1-3.4-0.5-3.5c-2.3,1.7-4.6,5.8-5.9,8.2
			c-0.5-3.5-0.6-9.7-0.6-9.7c0.5-0.5,3.2-0.2,2.6-4.7c2.4,1.1,4.9-0.6,4.8-2.9c-0.2-3.6-2.9-3.5-5.2-3C154,71.7,152,69.1,149.9,69.2
			L149.9,69.2z M149.9,69.5c3,0.1,3.5,3.4,1.7,5.2c0,0-1.2-0.9-1.8-1.4c-0.6,0.5-0.8,0.9-1.4,1.3c-0.8-0.6-1.2-1.6-1.2-2.5
			C147.2,70.6,148.7,69.5,149.9,69.5L149.9,69.5z M82.3,69.6c12,6.7,27,7.2,40.7,0.4l-0.2,1.1l-1.5,0.8l0.9,1.6l0.5-0.2l0,1
			c-11.3,6.1-30.3,7.4-45.1-2.8l1.3-0.6c0,0,0.3,0.2,0.6,0.4c0.5,0.3,1.4,0.9,2,1.1l0.9-1.3c0,0-1.4-0.8-1.2-0.9L82.3,69.6
			L82.3,69.6z M83.4,71.6l-0.7,1.6l1.7,0.9l0.7-1.6L83.4,71.6z M76.9,71.8c18.4,11.6,35.6,8.1,45.9,3.4l0.1,1.2
			c-13.3,5.7-30.8,7.2-47.4-4L76.9,71.8z M120.3,72.6l-1.6,0.7l0.7,1.5L121,74L120.3,72.6z M74.7,72.8c15,9.7,31,11.5,48.4,4.5
			l0.7,1.8c-16.9,6.8-34.7,6-50.9-5.5L74.7,72.8z M86.2,72.9l-0.7,1.6l1.9,0.7l0.5-1.6L86.2,72.9z M117.7,73.6l-1.6,0.5l0.5,1.5
			l1.7-0.6L117.7,73.6z M89,74l-0.4,1.6l1.9,0.5l0.3-1.6L89,74z M157.6,76.7c0.3,2.8-3.8,4.1-5.4,1.5l1.4-1.6l-1.2-1.1
			C154,72.8,157.4,74.1,157.6,76.7L157.6,76.7z M72.4,74.1l4.5,3.1l-3.2,5L68.8,79L72.4,74.1z M149.8,74.2l2.8,2.5l-2.6,3l-2.7-2.7
			L149.8,74.2z M148,75.1l-1.6,1.9l1.7,1.8c-2,2.2-5.1,0.8-5.1-1.8C143.1,74.9,146.2,72.9,148,75.1z M115,74.4l-1.7,0.5l0.4,1.5
			l1.8-0.5L115,74.4z M92,74.8l-0.3,1.6l2,0.4l0.3-1.6L92,74.8z M112.1,75.1l-1.8,0.4l0.3,1.6l1.8-0.4L112.1,75.1z M150,75.5
			l-1.5,1.5l1.5,1.5l1.5-1.5L150,75.5z M95.1,75.5l-0.2,1.6l2.1,0.3l0.2-1.6L95.1,75.5z M108.9,75.8l-1.8,0.2l0.2,1.6l1.9-0.2
			L108.9,75.8z M98,75.9l0,1.7l1.8,0.1v-1.6L98,75.9z M106,76.1l-1.8,0.1l0,1.6l1.8-0.1L106,76.1L106,76.1z M73,76.1
			c-1.1,0-1.9,0.9-1.9,1.9c0,1.1,0.9,1.9,1.9,1.9s1.9-0.9,1.9-1.9C74.9,77,74.1,76.1,73,76.1z M102.9,76.2l-1.8,0l0,1.6l1.8,0
			L102.9,76.2L102.9,76.2z M150,76.2l0.8,0.8l-0.8,0.8l-0.8-0.8L150,76.2z M73,76.8c0.7,0,1.3,0.6,1.3,1.3c0,0.7-0.6,1.3-1.3,1.3
			c-0.7,0-1.3-0.6-1.3-1.3C71.7,77.4,72.3,76.8,73,76.8z M66.2,76.9l2.6,2.1c-0.8,1.6-3.4,4.8-3.4,4.8L60.6,80l2.5-1.4
			c-0.1,0.3-0.2,0.6-0.2,0.9c0,1,0.8,1.9,1.9,1.9c1,0,1.9-0.8,1.9-1.9c0-1-0.8-1.8-1.8-1.9L66.2,76.9z M64.7,78.2
			c0.7,0,1.3,0.6,1.3,1.3c0,0.7-0.6,1.3-1.3,1.3s-1.3-0.6-1.3-1.3C63.5,78.8,64,78.2,64.7,78.2z M151.7,78.8c0,0,0.7,0.3,0.9,0.5
			c1.4,2.1-0.1,4.6-2.4,4.6c-2.7-0.1-3.4-3.4-1.5-4.8l1.5,1.4L151.7,78.8z M81.8,79.7l5.3,2l-2,5.8l-5.8-2.4L81.8,79.7z M60.1,80.3
			c21.6,19.5,52.3,20.9,74.6,7.9l1.4,0l0.7,0.7c-25.4,15-57,11.8-78.3-7.6L60.1,80.3z M119.5,81.4l1.7,5.7l-5.9,1.5l-1.3-5.8
			L119.5,81.4z M57.9,81.6c6.6,6.3,15.8,11.9,26.7,15l0.3,2.3c-11.6-3.5-20.3-8.1-28.8-16.1L57.9,81.6z M83.2,81.7
			c-1,0-1.9,0.8-1.9,1.9c0,1,0.8,1.9,1.9,1.9c1,0,1.9-0.8,1.9-1.9C85.1,82.6,84.3,81.7,83.2,81.7z M73.8,82.2l5.5,2.9l-2.7,5.4
			l-5.8-3.1L73.8,82.2z M83.2,82.4c0.7,0,1.3,0.6,1.3,1.3c0,0.7-0.6,1.3-1.3,1.3c-0.7,0-1.3-0.6-1.3-1.3
			C81.9,82.9,82.5,82.4,83.2,82.4z M92.3,83.1l5.2,0.8l-0.2,5.8L91.1,89C91.4,86.9,92.3,83.1,92.3,83.1z M117.6,83.3
			c-1,0-1.9,0.8-1.9,1.9c0,1,0.8,1.9,1.9,1.9c1,0,1.9-0.8,1.9-1.9C119.5,84.1,118.6,83.3,117.6,83.3z M117.6,83.9
			c0.7,0,1.3,0.6,1.3,1.3c0,0.7-0.6,1.3-1.3,1.3c-0.7,0-1.3-0.6-1.3-1.3C116.3,84.5,116.9,83.9,117.6,83.9z M74.9,84
			c-1,0-1.9,0.8-1.9,1.9c0,1,0.8,1.9,1.9,1.9c1,0,1.9-0.8,1.9-1.9C76.8,84.8,76,84,74.9,84z M108.5,84l0.8,5.8l-5.7,0.3l-0.3-5.8
			L108.5,84z M149.5,84.5h0.8c0.1,5,0.5,10.8,1.1,15.2c0.1,0.6,0.1,0.8,0.1,0.9c-0.6,1-1.2-0.3-1.5-3.1c-0.1-0.8-0.2-1.9-0.3-2.7
			C149.4,92.5,149.5,84.5,149.5,84.5L149.5,84.5z M52.7,84.6c-8.6,5.4-22.9,18.2-22.9,18.5l0.1,49.3l1.1,0.1l0.9-1.8
			c-1.4-0.4-1-3.1,1.7-3.6c0.5-0.1,1.9-0.6,2.2-0.8c2.1-1.6,5.5-2.5,7.8-1.9c3.5,0.9,4.2,3.4,2.5,7.9c-1.3,3.5-3.9,8-6.4,9.2
			c-0.2,0.1-0.6,0.3-0.6,0.3s0.6,0.5,0.8,0.6c6.7-3.9,10.1-17.8,9.9-26.5c0.3-8.9,1.8-17.8,5.4-24.3c5.9-10.7,13.8-15,13.7-15.1
			C69.1,96.5,58.5,90.1,52.7,84.6z M74.9,84.6c0.7,0,1.3,0.6,1.3,1.3c0,0.7-0.6,1.3-1.3,1.3c-0.7,0-1.3-0.6-1.3-1.3
			C73.6,85.2,74.2,84.6,74.9,84.6z M127.2,84.8l2,5.4l-5.7,2.3l-2-5.7L127.2,84.8z M94.6,84.8c-1,0-1.9,0.8-1.9,1.9
			c0,1,0.8,1.9,1.9,1.9c1,0,1.9-0.8,1.9-1.9C96.5,85.7,95.6,84.8,94.6,84.8z M106.1,85.3c-1,0-1.9,0.8-1.9,1.9s0.8,1.9,1.9,1.9
			c1,0,1.9-0.8,1.9-1.9S107.1,85.3,106.1,85.3z M94.5,85.5c0.7,0,1.3,0.6,1.3,1.3c0,0.7-0.6,1.3-1.3,1.3c-0.7,0-1.3-0.6-1.3-1.3
			C93.3,86,93.8,85.5,94.5,85.5z M106.1,85.9c0.7,0,1.3,0.6,1.3,1.3c0,0.7-0.6,1.3-1.3,1.3c-0.7,0-1.3-0.6-1.3-1.3
			C104.8,86.5,105.4,85.9,106.1,85.9z M125.4,86.6c-1,0-1.9,0.8-1.9,1.9c0,1,0.8,1.9,1.9,1.9c1,0,1.9-0.8,1.9-1.9
			C127.3,87.4,126.4,86.6,125.4,86.6z M125.4,87.2c0.7,0,1.3,0.6,1.3,1.3c0,0.7-0.6,1.3-1.3,1.3c-0.7,0-1.3-0.6-1.3-1.3
			C124.1,87.8,124.7,87.2,125.4,87.2z M85.3,87.3l5.7,1.5l-1.3,6L83.2,93L85.3,87.3z M157.1,87.1c0.9,2.9-0.8,6.6-0.9,6.9
			c-1,2.9-2.3,5.3-2.7,5.5c-0.4,0.1-0.6,0.1-0.6-0.3c0-0.6,1.3-4.3,2.3-6.7c0.2-0.6,0.8-2.4,0.8-2.7c0-0.5-0.4,0.3-0.9,1.4
			c-0.9,2.2-2.2,4.7-2.5,6.8c-0.2,1.8-0.5,1.5-0.8-0.6c-0.3-2.9,0.3-4.5,3.6-8.6C156.2,87.9,157,86.9,157.1,87.1L157.1,87.1z
			 M115.4,88.7l1.6,5.8l-6.7,1.1l-1-5.9L115.4,88.7z M87.3,89.2c-1,0-1.9,0.8-1.9,1.9c0,1,0.8,1.9,1.9,1.9c1,0,1.9-0.8,1.9-1.9
			C89.2,90.1,88.4,89.2,87.3,89.2z M97.3,89.6l6.1,0.3l0.1,6.1l-6.6-0.3L97.3,89.6z M87.3,89.9c0.7,0,1.3,0.6,1.3,1.3
			s-0.6,1.3-1.3,1.3c-0.7,0-1.3-0.6-1.3-1.3S86.6,89.9,87.3,89.9z M112.8,90.4c-1,0-1.9,0.8-1.9,1.9c0,1,0.8,1.9,1.9,1.9
			c1,0,1.9-0.8,1.9-1.9C114.6,91.2,113.8,90.4,112.8,90.4z M100.2,90.9c-1,0-1.9,0.8-1.9,1.9c0,1,0.8,1.9,1.9,1.9
			c1,0,1.9-0.8,1.9-1.9C102.1,91.7,101.2,90.9,100.2,90.9z M112.7,91c0.7,0,1.3,0.6,1.3,1.3c0,0.7-0.6,1.3-1.3,1.3
			c-0.7,0-1.3-0.6-1.3-1.3C111.5,91.6,112,91,112.7,91z M100.2,91.5c0.7,0,1.3,0.6,1.3,1.3c0,0.7-0.6,1.3-1.3,1.3
			c-0.7,0-1.3-0.6-1.3-1.3C98.9,92.1,99.5,91.5,100.2,91.5z M141.5,91.9c0.1,0,0.2,0,0.3,0c1.4,0,5.9,3.3,7.1,5.3
			c1,1.8,0.5,2.5-0.6,0.9c-1.5-1.7-4.4-4.3-4.8-4.3c-0.4,0,0.1,0.6,2,2.3c1.8,1.8,3.7,4,3.7,4.4c0,0.3-0.4,0.2-0.9-0.1
			c-1.1-0.7-2.1-1.4-2.6-1.9c-0.3-0.3-0.9-0.8-1.3-1.2c-1.7-1.5-3.6-4.9-3.1-5.5C141.4,91.9,141.5,91.9,141.5,91.9L141.5,91.9z
			 M56.9,92.4c1.2,0,2.5,0.7,2.5,2.1c0,1,0.1,1,1,1.1c0.8,0,3.2,0.3,3.2,0.3l0,2.7c0,0-1.2,0-2.5-0.1c-2.3-0.1-2.3-0.1-2.5,0.9
			c-0.1,0.4-0.3,0.6-0.7,0.9c-2,1.3-4-1.1-2.7-3.4c0.4-0.8,0.5-1.1,0.2-1.5C54.7,93.9,55.5,92.4,56.9,92.4L56.9,92.4z M57.4,93.7
			c-0.3,0-0.5,0.1-0.8,0.4c-0.3,0.3-0.3,1.3,0,1.8c0.3,0.5,0.3,0.7-0.1,1c-0.7,0.6-0.7,1.8,0,2.3c0.6,0.4,1.2-0.1,1.2-1
			c0-0.9,0.7-0.9,0.7-0.9l4.3,0.1l0-0.7l-3.1-0.2c-0.4,0-0.9,0-1.2-0.3c-0.4-0.2-0.8-0.7-0.4-1.2C58.5,94.4,58,93.7,57.4,93.7
			L57.4,93.7z M48.1,95.3l2,3.4l2.4,0.1l0.2,2.1l2.9,1.8l-2.9,1.7l-0.1,2.1l-2.2,0.3l-2.1,2.6l-2-2.6l-2.2,0l0-2.2l-3-1.9l3.3-1.8
			l0-2.5l2.3-0.2L48.1,95.3L48.1,95.3z M119.6,96.9l0.1,2.1l-3.3,0.6l0.4-2.1L119.6,96.9z M98.4,99l4.5,0.1l-0.3,29.2c0,0-0.9,0-1,0
			l0-1.1l-1.4,0l-1.5-0.9L98.4,99z M48.1,99.7l-2.6,3.3l3.2,2.8l2.8-3.2L48.1,99.7z M99.7,100.2v1.3h1.9v-1.3H99.7z M48.2,101.3
			l1.8,1.4l-1.4,1.9l-1.8-1.5L48.2,101.3z M119.7,102.1l-0.1,16c-6.1,4.8-8,13.3-8,13.3l-2.5-0.1l6.3-28.1L119.7,102.1z M86.5,102.4
			c-5.5,2.6-11.1,4.6-16.6,10.9c2.1,1.9,4.4,3.9,6.4,7.1c4.6-0.7,9.6,0.1,15.2,2.3L86.5,102.4z M99.7,102.8v1.4h1.9v-1.4H99.7z
			 M37.7,104.8c0.1,0.4,0.2,0.9,0.2,0.9c4-0.3,3,4.4,0.4,4.5c-0.3,0,0.3,0.8,0.9,1.1c1.5,0.6,2.6,0.2,3.6-1.1c0.8-1,0.8-1.2,0.8-1.2
			l2.5,1.3c0,0,0.1,0-0.4,1.1c-0.8,2.1,0.4,4.6,1.3,2.8c0.5-1,1.9-1.6,2.9-1.1c1.1,0.5,1.5,2.5,0.7,3.8c-0.2,0.4-0.3,0.5-0.1,0.8
			c0.2,0.5,0.4,1.9,0.1,2.4c-0.3,0.6-0.7,0.7-1.3,0.2c-0.9-0.7-1.5-0.9-3.1-1.4c-2.9-0.5-3.4-1.6-4.6-3.9c-3.4,1-8.5-1.1-7.8-6.2
			c0.3-1.1,0.4-3.3-0.2-3.7c-1.1-0.9,0.1-2.1,1.8-2.3C36.8,102.7,37.4,104,37.7,104.8L37.7,104.8z M85.9,103.3l4.4,18.6
			c-4.9-1.8-9.6-3.2-13.9-2.1c-1.9-3.1-3.6-4.6-5.7-6.6C74.9,108.1,80.3,105.3,85.9,103.3L85.9,103.3z M35.7,104.2
			c-0.3,0-0.6,0.1-1,0.4c0,0,0.3,0.3,0.5,0.6c0.3,0.5,0.3,0.5,0,1.8c-1.4,4.8,1.9,8,6.4,6.6c1.1-0.3,1.1-0.3,1.4,1
			c0.5,2.2,2.1,3.3,5.1,3.7c0.2,0,0.5,0.1,0.7,0.2c1.3,0.9,0.8-0.3,0.4-0.7c-0.3-0.3-0.7-0.7-0.7-0.7s0.4-0.3,0.6-0.4
			c0.9-0.5,1.2-2.2,0.5-2.6c-0.6-0.3-1.7,0.2-1.8,0.8c0,1.2-1.5,1.3-2.9,0.3c-1.7-1.3-0.2-4.5-0.2-4.5l-1-0.4c0.1,0.1-2,3.2-4.7,2.1
			c-1.9-0.7-3.2-2.9-2.3-3.5c0.6-0.2,1.4,0.2,1.9-0.2c1-0.7,0.2-2.1-1.2-2c-0.3,0-0.9,0.1-0.9,0.1c0.1-0.6,0.2-1,0.2-1.6
			C36.7,104.7,36.3,104.2,35.7,104.2L35.7,104.2z M99.7,105.6v1.1l1.9,0v-1.1L99.7,105.6z M99.7,108v1.2h1.9V108H99.7z M99.7,110.5
			v1.2h1.9v-1.2H99.7z M99.7,112.9v1.3h1.9v-1.3H99.7z M99.7,115.3v1.2h1.9v-1.2H99.7z M99.7,117.7v1.2h1.9v-1.2H99.7z M38.9,118.9
			l1.6,2.7l1.9,0.1l0.1,1.8l3.2,2.4l-2.8,2l-0.2,2l-2.2,0.1l-1.8,3l-2.2-2.6l-1.8-0.3l-0.2-2.4l-2.7-2l2.6-2l0.2-2.1l2.1,0.2
			L38.9,118.9z M142.5,120.2c0.2,0,0.4,0.1,0.6,0.2c0.7,0.3,0.9,0.4,2.6,0.5c2,0.1,2.7,0.3,3.7,0.9c0.6,0.4,0.6,0.4,1.3,0
			c2.8-1.9,6-0.2,6.2,3.3c0.1,0.9,0.2,1.3,0.5,2c0.2,0.5,0.5,0.9,0.4,1.3c-0.4,1-2.6,1.1-3.8-0.4c-0.2-0.2-0.4-0.3-0.7-0.3
			c-0.6,0.2-2.1-1-2.1-1c-0.1,0.8-0.2,1.5-0.4,2.7l-2.6,0c0,0-0.1-0.5-0.2-2.1c-0.1-1.9-0.6-2.5-1.2-1.4c-1.1,1.8-3.9,1-4-1.1
			c-0.1-0.7-0.1-0.8-0.5-1.1C140.9,122.3,141.3,120.1,142.5,120.2L142.5,120.2z M99.7,120.3v1.1h1.9v-1.1H99.7z M142.8,121.4
			c-0.5,0-0.2,1,0.6,1.4c0.5,0.3,0.5,0.3,0.4,1.1c-0.1,1.5,1.4,2.3,2,1c0.1-0.2,0.2-0.5,0.1-0.7c-0.3-1.1,2.1-0.8,2.7,0.3
			c0.1,0.3,0.3,1,0.4,1.7c0.1,0.7,0.1,1.5,0.1,1.5h0.8c0,0,0-0.5,0-0.9c0.2-1.9,1-3.1,2.2-3.1c0.5,0,0.5,0.1,0.2,0.7
			c-0.6,1.1,0,1.8,1.3,1.8c0.9,0,0.8,0,1.2,0.6c0.3,0.7,0.6,0.9,0.9,0.8c0.2-0.1,0.2,0-0.1-2.2c-0.4-3.4-2.4-4.3-5.1-2.4
			c-0.8,0.5-0.9,0.5-1.6-0.1c-1-1-1.7-1.2-3.7-1.3c-1,0-1.9-0.1-2.1-0.2C143,121.4,142.8,121.4,142.8,121.4L142.8,121.4z
			 M78.4,122.4c-0.4,0-1,0.1-1.4,0.1c0.5,2.6,0.7,5.2,1,7.8c2.3-0.4,5.2,0,9.1,1.8c2.4,1.1,5.3,3,8.4,5.2c3.3,2.3,7.2,3.7,10.5,4.4
			c4,0.9,7.3,0.8,7.2,0.6c-0.2,0-1.5-6.4-1.3-7.8c-5.6-0.5-11-2.6-15.1-5.4C91.4,125.5,85.1,122.3,78.4,122.4z M99.7,122.6v1.1h1.9
			v-1.1H99.7z M38.3,122.8l-3,3.1l3.2,3.1l2.7-3.1L38.3,122.8z M38.2,124.2l1.7,1.6l-1.4,1.7l-1.9-1.6L38.2,124.2z M80,124.5
			c0.4,0,0.8,0.3,2.1,1c1.1,0.8,2,1.2,1.7,0c0.2-0.3,1.5,0.8,2.9,1.5c1.7,1.4,1.7,1,2,0.4c0.2-0.5,0.5-0.2,1.9,1.1
			c1.8,1.7,1.6,1.7,2,1.3c0.4-0.8,0.5-0.8,2,0.9c1.5,1.7,1.9,2.1,2.2,1.3c0.5-0.4,0.8,0,2.8,1.9c1,1,1.3,0.9,1.5,0.2
			c0.2-0.7,0.3-0.5,2,0.8c2,1.6,2.2,1.7,2.3,1.2c0.1-0.9,0.8-0.6,2.8,0.9c1.2,0.9,1.7,1.1,2,0.9c0.3-0.5-0.7-1.4,1.3-0.5l0.6,2.9
			l-0.7-0.2c-0.4-0.1-1.4-0.4-1,0.5c0.2,0.5-0.3,0.5-1.9-0.5c-2.2-1.3-2.7-1.6-2.8-1.4c-0.3,1-0.3,1.1-1.8-0.1
			c-1.8-1.3-2.1-1.7-2.4-1.2c0,1-0.5,0.8-2.2-0.6c-1.4-1.2-1.7-1.8-2.3-0.9c-0.2,0.3-0.3,0.2-0.6,0.1c-0.8-0.6-2.4-2.3-2.9-2.8
			c-0.4-0.4-0.6-0.3-0.9,0.1c-0.3,0.3-0.3,0.2-1.2-0.6c-2.1-2-2.5-2.4-2.8-2.2c-0.2,0.5,0,1.1-1.7-0.2c-2.1-1.5-2.9-2.1-2.8-1.2
			c-0.4,0.4-0.1,0.5-2.2-0.6c-2-1.1-2.2-1.4-2.5-1c-0.2,0.6-0.8,0.4-0.8,0.3l-0.4-3l0.7,0C79,124.7,79.7,124.5,80,124.5L80,124.5z
			 M64.3,124.7c-0.2,0.5-1.2,3.1-1.2,9.9c0.1,0.2,2.7-2.4,2.8-4.9C65.9,127.4,64.3,124.7,64.3,124.7z M99.7,124.9v1.2h1.9v-1.2H99.7
			z M64.4,125.9c2.4,3.8-0.2,7.3-0.9,7.6C63.5,130.6,63.9,128,64.4,125.9z M126.9,129c-3.9,2.5-3.3,9.1-1.4,10.8
			C125.6,139.9,126.9,132.7,126.9,129z M126.3,129.9l-1.1,8.6C123.9,136.9,123.7,132.4,126.3,129.9z M151,131.3l2.1,2.6l1.8,0.1
			l0.4,1.9l2.7,2.2l-2.7,1.8l-0.2,2.1l-2,0.2l-2,3.1l-1.9-3l-1.9-0.2l-0.1-2l-2.9-2.1l2.8-1.7l0.1-2.3l2.2,0L151,131.3z M77.8,132.1
			c-1.3,6.2-4.4,10.5-8.9,13.4l0,0.6l-7.5,3c-1.6,7.6-4.6,15-10.7,22l1.7,3.5l-8.3,2.9l11.9,20.4c0.8,0-5.8,3.1-13.7,2.3
			c5,12.3,6.1,25.1,3.3,36.3l39-0.2l-29.8-58.5l-0.5-1c-0.4-0.8,15.9,2.3,12.4,17.4c0,0.3,0.1,0.4,0.3,0.2
			c3.2-2.7,24.2-10.2,40.9-0.3l5-2.1c-2.4,8.3-5.1,14-9.6,19l0.8,11.8c8-6.6,16.8-18.7,17.9-34.7c3.6-1.8,6.8-3.8,10.1-5.7l0.4,0.1
			l2.2-1.3c-7-7.7-21.3-15-30.5-16.9l0.5,2.6c-5.1-1.4-8.8-1.7-12.8-2.1l-0.6-27.5l-5.1-3l-0.2,30.3c-3.8,0-12.6,1.5-12.6,1.5
			l0.4-2.6l-4,0.8l-0.1-2.5l4.5-1.3l6.6-27.9L77.8,132.1z M78.3,132.8l2.1,0.4l-6.5,27.3c0,0-3.6,1-3.9,0.9
			c-0.3-5.1-0.4-15.6-0.4-15.6C76.1,140.4,77.1,136.7,78.3,132.8L78.3,132.8z M33.7,134.8c1,0,2,0.7,2.1,1.3
			c0.2,0.4,0.3,0.6,0.6,0.6c1.6,0.2,1.7,0.7,1.7,1.6c-0.2,1.8,1,0.3,1.3-1.5c0-0.2,0-1.6,0-1.6l2,0c0,0,0.1,1.4,0.1,1.7
			c0.2,1.4,0.8,2.5,1.2,1.8c1.4-2.5,4.6-1.2,4.1,1.2c-0.1,0.6-0.1,0.6,0.3,1.1c0.6,0.7,0.9,1.5,0.7,2.1c-0.2,0.6-0.7,0.7-1.6,0.4
			c-0.5-0.2-1-0.2-2.5-0.3c-2.1-0.1-2.2-0.1-3-0.9l-0.5-0.5l-0.9,0.5c-1.5,0.9-2.8,0.9-4.4,0.1c-1-0.5-1.6-1.8-1.8-3.7
			c0-1-0.3-1.8-1-2c-0.3-0.3,0-1,0.6-1.6C33.1,134.8,33.4,134.8,33.7,134.8L33.7,134.8z M150.8,135.1l-2.8,3.4l3.3,2.9l3.1-3.6
			L150.8,135.1z M86.9,135.5l3.8,2.2l0.5,27.1l-4.3-0.1L86.9,135.5L86.9,135.5z M33.8,135.9c-0.3,0-0.1,0.5,0.1,1.2
			c0.2,0.6,0.2,1,0.2,1.5c-0.4,3,3,4.5,5.5,2.4c0.7-0.7,0.8-0.7,1.3,0.1c0.7,0.8,1.7,1.1,3.7,1c0.9-0.1,1.6,0.4,2,0.1
			c0.3-0.2,0-0.8-0.6-1.1c-0.3-0.2-0.4-0.2-0.3-0.9c0.2-1.8-1.3-2.2-2.3-0.7c-0.9,1.2-2.1,0.4-2.5-1.6c-0.2-1.6-0.4-1.5-0.6-0.2
			c-0.2,1.7-2.4,3.4-3.2,2.6c-0.2-0.2-0.2-0.2,0-1c0.3-1.1,0.1-1.5-1.1-1.7c-0.2,0-0.4-0.2-0.5-0.4
			C34.8,136.3,34.8,135.9,33.8,135.9L33.8,135.9z M151.1,136.6l1.8,1.5l-1.5,1.8l-1.9-1.4L151.1,136.6z M88.1,137.5v1.2v0h1.6v-1.3
			H88.1z M88.1,140.1v1.2v0.1h1.6v-1.3H88.1z M97.9,141.6c1.8,6.8,3.7,13.6,5.5,20.4c1.7-0.7,11.8-5.2,16.6-10.9
			c-0.2,0-4.3-4-5.8-6.7C109.5,145.3,104.1,144.3,97.9,141.6L97.9,141.6z M88.1,142.5v1.2v0h1.6v-1.3H88.1z M99,142.8
			c4.3,1.3,9.9,3.1,15,2.2c1.3,2.4,3.2,4.3,5.4,6.1c-3.9,4.2-9.4,7.4-15.2,9.9L99,142.8z M140,143.3c0.2,0,0.4,0.1,0.6,0.3
			c0.7,0.6,1.2,0.8,2.6,1c2.3,0.4,4,1.8,4.5,3.7c0.2,0.8,0.3,0.8,1.4,0.5c4.3-1.1,7.5,2.5,6.5,7.2c-0.4,1.6-0.5,1.8,0,2.5
			c1.1,1.2,1.3,1.2,0.1,2.2c-1.1,1-3.2,0.5-3.7-1.1c-0.4-0.9-0.4-0.9-1.1-1c-2.8-0.4-2.7-4.3,0-4.7c0.2,0,0.4,0,0.5,0
			c0.7-0.3-0.8-2.1-2.1-1.8c-1.6,0.3-2.4,1.3-3,2.9l-2.5-1.4c0.6-1.3,1.1-2.9,0.5-4c-0.4-0.9-1-0.9-1.2-0.1
			c-0.4,1.9-2.8,2.5-4.4,0.9c-0.9-0.9-1-1.8-0.3-3.1c0.4-0.8,0.4-0.9,0.3-1.2C138.3,144.8,139.1,143.3,140,143.3L140,143.3z
			 M88.1,144.9v1.3l1.6,0v-1.3H88.1L88.1,144.9z M140.4,145c-0.5,0-0.5,0.5,0,1.1c0.4,0.4,0.5,0.6-0.1,1c-0.7,0.7-0.9,1.7-0.4,2.4
			c0.7,1.1,2.5,0.5,2.3-0.8c-0.1-0.9,0.6-1.4,1.8-1c1.7,0.5,2.5,2.4,1.9,4.4c-0.1,0.4-0.4,1.2-0.4,1.2l0.5,0.3c0,0,0.6-1,0.8-1.3
			c2-2.4,6.6-1.2,6,1.8c-0.1,0.9-0.1,1.1-1.1,0.8c-0.7-0.4-1.3,0.4-1.3,1.3c0,0.8,0.7,1.5,1.7,1.3c0.8-0.1,1-0.1,0.9,0.9
			c0.1,0.7,0.4,1.2,0.8,1.5c1.2,0.5,1.8-0.2,0.8-1.2c-0.6-0.6-0.5-1.5-0.2-2.4c0.4-1,0.2-3.3-0.4-4.5c-0.9-1.8-3.6-2.6-5.8-1.7
			c-1,0.5-1.1,0.7-1.2-0.3c-0.6-2.3-2.3-4.1-4.5-4.3C141.8,145.6,140.9,145.1,140.4,145L140.4,145z M88.1,147.4v1.2h1.6v-1.2H88.1z
			 M88.1,149.7v1.3h1.6v-1.3H88.1z M88.1,152.3v1.3c0,0,0.9,0,1.6,0v-1.3H88.1z M141.5,154.5l1.8,2.6l2,0.1l0.2,2.1l3,1.9l-2.6,1.6
			l0,2.1l-2.5,0.2l-2.2,2.9l-1.9-2.6l-1.9,0l-0.4-2.3l-3.3-1.7l3.4-1.9l-0.1-2.4l2.3,0L141.5,154.5L141.5,154.5z M88.1,154.8v1.4
			h1.6v-1.4H88.1z M88.1,157.3v1.4h1.6v-1.4H88.1z M140.5,158.3l-2.6,3.4l3.5,2.9l2.7-3.5L140.5,158.3z M88.1,159.7v1.5h1.6v-1.5
			H88.1z M140.7,159.9l1.8,1.4l-1.3,1.6l-1.8-1.4L140.7,159.9z M88.1,162.4v1.2h1.6v-1.2H88.1z M39.4,162.6c-3.2,0-6.1,5.1-6.8,7.5
			c-0.8,3.1-1,8.7-0.2,8.9c2.8-2,4.2-5.5,6.3-8.1c0.3,3,0.3,8.7,0.3,8.7s-1.3,0.7-1.9,1.7c-0.5,0.9-0.6,1.9-0.2,2.9
			c-1.6-0.5-4.4,0.1-4.6,3c0.1,4.1,4.6,3.5,4.6,3.5c-0.1,0-0.9,4.3,3.1,4.8c1.4,0.2,3.9-0.9,3.2-4.8c2.5,0.4,4.7-1,4.7-3.4
			c0-1.6-1.2-3.1-3.4-3.1c-0.4,0-1.4,0.2-1.4,0.2c0-0.2,0.9-2.8-2-4.6l-0.5-11.8c0,0,1,1.1,1.4,1.5c1.9,1.8,3.2,2.7,5.4,3.8
			c2.2,1.1,1.9,0.9,1.5-1.3c-1-3.3-3.2-5.7-7.7-8.8C40.6,162.7,40,162.6,39.4,162.6L39.4,162.6z M39.8,162.8l0.6,16.7l-0.9,0
			l-0.8-16.7L39.8,162.8z M132.5,163.4c0.1,0,0.2,0,0.3,0c2,0.2,2.6,2.5,1.6,3.5c-0.4,0.4-0.5,0.5-0.3,0.7c0.9,1.1,0.4,2.9-0.5,3.1
			c-2.8,0.9-3.2-0.7-3.2-2.4l-4.3-0.2l0-2.5l4.7,0.1C130.6,164.6,131.3,163.4,132.5,163.4L132.5,163.4z M37.8,163.4
			C37.8,163.4,37.8,163.4,37.8,163.4c0.5,0,0,1.2-1.2,3c-0.8,1.2-2,3.4-2.3,4.2c-0.8,1.9-1.3,5.3-0.8,4.7c0.5-1.4,0.5-2,0.9-3
			c0.5-1.3,2.9-5.7,3.4-6.1c0.4-0.4,0.5-0.1,0.5,1.1c0,2.8-1.3,5.7-4.5,9.1c-0.5,0.6-1.2,1.2-1.3,1.2c-0.3,0-0.3-0.6-0.3-1.9
			c0-5.2,2-9.9,4.9-11.9C37.5,163.5,37.7,163.4,37.8,163.4L37.8,163.4z M40.9,163.6c1.4,0.4,3.8,2.6,4.8,3.7
			c1.2,1.3,2.7,4.8,2.5,5.3c-0.1,0.2-0.3,0.2-1-0.2c-4.4-2.5-7.5-5.5-6.7-6.5c0.2-0.3,1.2,0.3,2.4,1.5c0.9,0.8,1.7,1.5,2.5,2.3
			c1.2,1.2,1.5,1.4,0.8,0c-0.7-1.2-2.5-3.2-4.8-4.9C40.6,164.2,40.4,163.6,40.9,163.6z M132.8,164.4c-0.1,0-0.1,0-0.2,0
			c-0.9,0.4-0.5,1.5-0.6,2.3l-4.7-0.2l0,0.7l4.4,0.2c0.1,0.7-0.3,2.1,0.3,2.4c1.2,0.5,1.9-1.1,0.9-2c-0.4-0.3-0.8-0.5,0.3-0.9
			c0.7-0.6,0.8-1.7,0.2-2.2C133.2,164.4,132.9,164.4,132.8,164.4L132.8,164.4z M73.1,164.5l-0.2,1.7l-2.7,0.7l-0.1-1.9L73.1,164.5z
			 M105.4,165.2c10.1,2.7,21.3,8.9,28.6,15.9l-1.5,1c-7.6-7-17.6-12.3-26.8-15L105.4,165.2z M87.9,165.4c16.6,0,31.8,6.4,44,16.9
			l-2,1.3c-11.2-9.2-23.5-15.4-40.2-16.1c-10.9-0.5-23.3,2.3-35.5,9l-0.9-1.7C65.3,168.4,76.9,165.5,87.9,165.4L87.9,165.4z
			 M86.6,167.9l6.5,0.2l-0.4,6.1l-5.9-0.2L86.6,167.9z M79.6,168.4l0.9,5.9l-5.7,1.1l-1.6-5.9L79.6,168.4z M100.3,169.1l6.5,1.7
			l-2.1,6l-5.7-1.6L100.3,169.1z M89.9,169.2c-1,0-1.9,0.8-1.9,1.9s0.8,1.9,1.9,1.9c1,0,1.9-0.8,1.9-1.9S90.9,169.2,89.9,169.2z
			 M89.9,169.9c0.7,0,1.2,0.5,1.2,1.2c0,0.7-0.6,1.2-1.2,1.2s-1.2-0.5-1.2-1.2C88.7,170.4,89.2,169.9,89.9,169.9z M77,169.9
			c-1,0-1.9,0.8-1.9,1.9s0.8,1.9,1.9,1.9c1,0,1.9-0.8,1.9-1.9S78,169.9,77,169.9z M77,170.5c0.7,0,1.2,0.5,1.2,1.2
			c0,0.7-0.6,1.2-1.2,1.2c-0.7,0-1.2-0.5-1.2-1.2C75.8,171.1,76.3,170.5,77,170.5z M102.7,171.3c-1,0-1.9,0.8-1.9,1.9
			c0,1,0.8,1.9,1.9,1.9c1,0,1.9-0.8,1.9-1.9C104.6,172.1,103.8,171.3,102.7,171.3z M66.5,171.5l1.9,5.7l-5.5,2.2l-2.1-5.6
			L66.5,171.5z M102.7,171.9c0.7,0,1.2,0.5,1.2,1.2c0,0.7-0.6,1.2-1.2,1.2s-1.2-0.5-1.2-1.2C101.5,172.5,102,171.9,102.7,171.9z
			 M113.5,173.3l5.9,3.1l-3,5.5l-5.5-2.8L113.5,173.3z M64.6,173.8c-1,0-1.9,0.8-1.9,1.9s0.8,1.9,1.9,1.9c1,0,1.9-0.8,1.9-1.9
			S65.6,173.8,64.6,173.8z M86.7,174l0.3,5.8l-5.2,0.4l-0.9-5.7L86.7,174z M92.9,174.3l5.9,0.8l-1.4,5.6l-5.3-0.9L92.9,174.3z
			 M64.6,174.4c0.7,0,1.2,0.5,1.2,1.2c0,0.7-0.6,1.2-1.2,1.2c-0.7,0-1.2-0.5-1.2-1.2C63.3,175,63.9,174.4,64.6,174.4z M83.9,175.2
			c-1,0-1.9,0.8-1.9,1.9c0,1,0.8,1.9,1.9,1.9c1,0,1.9-0.8,1.9-1.9C85.8,176,84.9,175.2,83.9,175.2z M74.5,175.4L76,181l-5.7,1.6
			l-1.7-5.4L74.5,175.4z M95.1,175.5c-1,0-1.9,0.8-1.9,1.9c0,1,0.8,1.9,1.9,1.9c1,0,1.9-0.8,1.9-1.9C97,176.4,96.2,175.5,95.1,175.5
			z M83.9,175.8c0.7,0,1.2,0.5,1.2,1.2c0,0.7-0.6,1.2-1.2,1.2s-1.2-0.5-1.2-1.2C82.7,176.4,83.2,175.8,83.9,175.8z M95.1,176.2
			c0.7,0,1.2,0.5,1.2,1.2c0,0.7-0.6,1.2-1.2,1.2s-1.2-0.5-1.2-1.2C93.9,176.7,94.4,176.2,95.1,176.2z M115.1,176.2
			c-1,0-1.9,0.8-1.9,1.9c0,1,0.8,1.9,1.9,1.9c1,0,1.9-0.8,1.9-1.9C117,177,116.2,176.2,115.1,176.2z M105,176.7l5.7,2l-2.3,5.3
			l-5.5-2.1L105,176.7z M115.1,176.8c0.7,0,1.2,0.5,1.2,1.2c0,0.7-0.6,1.2-1.2,1.2s-1.2-0.5-1.2-1.2
			C113.9,177.4,114.4,176.8,115.1,176.8z M72.2,177c-1,0-1.9,0.8-1.9,1.9c0,1,0.8,1.9,1.9,1.9c1,0,1.9-0.8,1.9-1.9
			C74.1,177.9,73.2,177,72.2,177z M72.2,177.7c0.7,0,1.2,0.5,1.2,1.2c0,0.7-0.6,1.2-1.2,1.2c-0.7,0-1.2-0.5-1.2-1.2
			C70.9,178.2,71.5,177.7,72.2,177.7z M106.8,178.8c-1,0-1.9,0.8-1.9,1.9c0,1,0.8,1.9,1.9,1.9c1,0,1.9-0.8,1.9-1.9
			C108.6,179.6,107.8,178.8,106.8,178.8z M106.8,179.4c0.7,0,1.2,0.5,1.2,1.2c0,0.7-0.6,1.2-1.2,1.2c-0.7,0-1.2-0.5-1.2-1.2
			C105.5,179.9,106.1,179.4,106.8,179.4z M39.9,180.1c1.5,0.1,2.6,1.4,2.7,2.8c0.1,1.1-1.3,2.4-1.3,2.4l-1.6-1.5l-1.5,1.4
			c-0.3,0.1-1.4-1.9-1.1-2.9C37.6,180.9,38.6,180,39.9,180.1L39.9,180.1z M124.8,180.1l4.5,3.7c0,0-2,1.2-2.4,1.4
			c0-0.2,0.1-0.3,0.1-0.5c0-1-0.8-1.9-1.9-1.9c-1,0-1.9,0.8-1.9,1.9c0,0.9,0.6,1.6,1.4,1.8c-0.5,0.3-1.1,0.6-1.1,0.6l-2.4-2
			L124.8,180.1z M117.6,189.9l-2,0.8c-12.3-8.1-29.1-12.5-48.4-4.4l-0.7-1.6C80.9,178.8,98.9,177,117.6,189.9z M116.5,181.9l4.8,3
			l-3.1,4.7l-4.7-3L116.5,181.9z M115.1,191l-2,0.8c-15-9.7-31-9.1-45.3-3.4l-0.2-1.4C84.3,179.8,101.2,182.1,115.1,191z
			 M125.1,183.4c0.7,0,1.2,0.5,1.2,1.2c0,0.7-0.6,1.2-1.2,1.2s-1.2-0.5-1.2-1.2C123.9,184,124.4,183.4,125.1,183.4z M37.7,185.7
			l-1.7,1.7l1.5,1.7c0,0-0.5,0.4-0.8,0.6c-2,1.1-4.2-0.6-4.1-2.5C32.8,184.5,36.1,183.2,37.7,185.7L37.7,185.7z M117.2,184.4
			c-1,0-1.9,0.8-1.9,1.9c0,1,0.8,1.9,1.9,1.9c1,0,1.9-0.8,1.9-1.9C119.1,185.2,118.2,184.4,117.2,184.4z M44.5,184.4
			c1.5,0,2.6,1.2,2.8,2.5c0.1,1-0.4,2.1-1.6,2.8c-1.6,1-3.4-0.6-3.4-0.7l1.3-1.3L42,186C41.9,186,43.1,184.4,44.5,184.4z
			 M39.8,184.8l2.8,2.7l-2.9,2.7l-2.7-2.7L39.8,184.8z M112.4,192.1l-1.5,0.7l-2.1-1.3l-0.6,1.2l1.2,0.7l-1.2,0.5
			c-14-7.9-29.9-5.6-40.4-0.4c0,0,0.1-0.8,0.1-0.8l1.1-0.6l-0.4-1.5l-0.6,0.2l0-1.6C82.9,182.5,99.9,184,112.4,192.1L112.4,192.1z
			 M117.2,185c0.7,0,1.2,0.5,1.2,1.2c0,0.7-0.6,1.2-1.2,1.2s-1.2-0.5-1.2-1.2C116,185.6,116.5,185,117.2,185z M39.8,186l-1.5,1.5
			l1.5,1.6l1.4-1.5L39.8,186z M85.7,186.3l-1.9,0.1l0.1,1.6l1.9,0L85.7,186.3z M87,186.3l0,1.6l1.7,0l0-1.5L87,186.3L87,186.3z
			 M90.1,186.3l-0.1,1.6l1.7,0.1l0.1-1.6L90.1,186.3z M82.7,186.5l-2,0.2l0.2,1.6l1.9-0.2L82.7,186.5z M93.4,186.6l-0.1,1.6l1.8,0.2
			l0.2-1.5L93.4,186.6z M39.8,186.6l0.9,0.9l-0.9,0.8l-0.9-0.9L39.8,186.6z M79.3,187.1l-1.9,0.3l0.2,1.6l1.9-0.4L79.3,187.1z
			 M96.6,187.1l-0.3,1.5L98,189l0.3-1.5L96.6,187.1z M76.2,187.7l-1.6,0.4l0.3,1.6l1.7-0.4L76.2,187.7z M99.6,187.8l-0.3,1.5
			l1.8,0.5l0.4-1.5L99.6,187.8z M73.6,188.5l-1.7,0.6l0.4,1.5L74,190L73.6,188.5z M102.7,188.7l-0.6,1.5l1.6,0.6l0.7-1.3
			L102.7,188.7z M70.8,189.6l-1.6,0.7l0.7,1.5l1.5-0.7L70.8,189.6z M38.2,189.6l1.6,1.6l1.9-1.7c1.7,1.5,1.6,4.9-1.3,5.5
			C37.8,195.5,35.5,191.6,38.2,189.6L38.2,189.6z M105.6,189.9l-0.6,1.3l1.7,0.8l0.6-1.3L105.6,189.9z M56.4,198.6l21.8,37l-3.4-0.1
			l-21.1-35.7L56.4,198.6z M52.8,200l1.2,1.9c-2.4-1.9-5.8-0.3-5.7,2.1c0.1,1.1,1,1.7,1,0.7c-0.1-1.1,1.4-2,2.5-1.9
			c2,0,3.2,2.6,1.9,3.9c-0.9,0.8-2.2,0.8-1.7-0.4c0.1-0.4,0-0.5-0.2-0.7c-0.6-0.5-1.6,0.2-1.4,0.9c0.2,0.5,0.2,0.6-0.4,1
			c-2.3,1.6-0.7,4.8,2.1,3.4c0.6-0.2,0.8-0.2,1.1-0.1c1.2,0.4,2-0.6,0.9-1.1c-0.6-0.3-0.7-0.8,0-1.2c1.3-0.9,3.4,0.5,3.4,2.3
			c0,1.2-1.7,2.2-3.2,1.8c-0.9-0.2-1,0.4-0.2,1.1c1.7,1.3,4.2,0.2,4.9-2.1c0.2-0.7,0.2-0.9,0.2-0.9l2.2,3.7c0,0-0.7-0.3-1.1-0.5
			c-2.1-0.6-4.4,0.7-4.4,2.6c0,0.9,0.5,1.2,0.8,0.5c0.7-1.6,2.1-2.2,3.6-1.5c1.4,0.6,2,2,1.5,3.3c-0.6,1.3-2.5,1.7-2.3,0.5
			c0.1-0.6-0.3-1-0.9-0.9c-0.2,0-0.6,0.7-0.5,1.1c0.1,0.3,0,0.4-0.8,1c-1.9,1.5-0.4,4,2,3.3c0.4-0.1,0.6-0.1,0.9,0.1
			c0.9,0.4,1.8,0.2,1.8-0.5c0-0.5-0.2-0.6-0.8-0.6c-0.8,0-0.7-0.9,0.3-1.4c2.3-1.2,4.7,1.8,3.3,4c-0.6,1-1,1.1-3.1,0.8
			c-0.3,0-0.5,0.2-0.3,0.5c0.6,0.9,2.5,1.2,3.6,0.7c1.2-0.5,1.9-1.9,2-3.4l2.4,4.3c-1.9-2-5.2-1.2-5.7,1.6c0,0.7,0.7,1.1,0.9,0.5
			c1-2.6,4.7-1.8,4.7,1c0,0.4-0.1,0.7-0.4,1.1c-0.7,1.3-2.4,1.7-2.1,0.5c0.1-0.4-0.1-0.8-0.6-0.9c-0.5-0.1-0.8,0.3-0.8,1
			c0,0.5,0,0.7,0,0.7c-0.9,0.4-1.4,1.1-1.6,2.2l-17,0c2-11.8,1.6-22.5-2.3-32.6c-0.3-0.9-0.8-2.1-0.8-2.1l3,0.1
			c0.7,0.6,3.5,0.4,4.5-0.6L52.8,200z M55.7,204.6l1.8,3.2c-0.7-0.4-1.5-0.7-2.6-0.8C55.5,206.1,55.5,205.3,55.7,204.6z M51.1,208
			c0.6,0,1.2,0.5,1.2,1.2s-0.5,1.2-1.2,1.2c-0.6,0-1.2-0.5-1.2-1.2S50.4,208,51.1,208z M63.2,217.4l1.7,3c-0.8-0.4-1.5-0.7-2.8-0.7
			C62.6,219.2,63,218.2,63.2,217.4z M58.3,220.6c0.6,0,1.1,0.5,1.1,1.1c0,0.6-0.5,1.1-1.1,1.1s-1.1-0.5-1.1-1.1
			C57.2,221.1,57.7,220.6,58.3,220.6z M70.6,230l2.5,4.4c-1-0.6-2-1.3-3.4-1.1C70.4,232,70.7,231.3,70.6,230z M67.3,235.6l-2.7,0
			C65.1,233.2,67.3,233.9,67.3,235.6z M69.8,234.5c0.9,0,1.7,0.4,2.2,1.2l-3.4,0C68.6,235.6,68.7,234.5,69.8,234.5z"/>
		<path id="path163-0-2-5-8-7-5-8-8-7_1_" class="st3" d="M53.2,71.2c0,0-3.8-6.1-8.8-13.4C41,53.1,38.3,47.8,38,43.3
			c-0.3-5.1,2.5-10.3,7.4-10.6c5-0.3,7,4,7.8,7.4c0.8-3.5,2.8-7.7,7.8-7.4c5,0.2,7.7,5.4,7.4,10.6c-0.3,4.5-3,9.7-6.4,14.6
			C57,65.1,53.2,71.2,53.2,71.2L53.2,71.2z"/>
		<path id="path163-0-2-5-8-7-7-8-4-8-6_1_" class="st3" d="M136.7,191.8c0,0-3.8,6.1-8.8,13.4c-3.4,4.8-6.1,10.1-6.4,14.6
			c-0.3,5.1,2.5,10.3,7.4,10.6c5,0.3,7-4,7.8-7.4c0.8,3.5,2.8,7.7,7.8,7.4c5-0.3,7.7-5.4,7.4-10.6c-0.3-4.5-3-9.7-6.4-14.6
			C140.5,198,136.7,191.8,136.7,191.8z"/>
	</g>
</g>
</svg>
