<?xml version="1.0" encoding="utf-8"?>
<!-- Generator: Adobe Illustrator 23.0.1, SVG Export Plug-In . SVG Version: 6.00 Build 0)  -->
<svg version="1.1" xmlns="http://www.w3.org/2000/svg" xmlns:xlink="http://www.w3.org/1999/xlink" x="0px" y="0px"
	 viewBox="0 0 180 250" style="enable-background:new 0 0 180 250;" xml:space="preserve">
<style type="text/css">
	.st0{fill:#FFFFFF;}
	.st1{fill:#E2CF00;}
	.st2{fill:#131F67;}
	.st3{fill:#D40000;}
	.st4{fill:#100F08;}
</style>
<g id="white-background">
	<rect class="st0" width="180" height="250"/>
</g>
<g id="Layer_1">
	<g id="g6800_1_" transform="matrix(0.99553491,0,0,0.99680337,10.010755,-8.1397402)">
		<path id="path6994-9_1_" class="st3" d="M3.9,64.4c-1.7-2.9-3.6-5.7-5.9-8c2.3-2.4,4.1-5.2,5.9-8c1.8,2.9,3.6,5.7,5.9,8
			C7.5,58.8,5.6,61.6,3.9,64.4z"/>
		<path id="path6996-5_1_" class="st3" d="M122.3,73.1c-4.2-6.9-8.6-13.6-14.1-19.3c5.5-5.7,9.9-12.4,14.1-19.3
			c4.2,6.9,8.6,13.6,14.1,19.3C130.9,59.5,126.5,66.2,122.3,73.1z"/>
		<path id="path6998-7_1_" class="st3" d="M156.8,218.8c-1.7-2.9-3.6-5.7-5.9-8c2.3-2.4,4.1-5.2,5.9-8c1.8,2.9,3.6,5.7,5.9,8
			C160.4,213.1,158.6,215.9,156.8,218.8z"/>
		<path id="path7000-7_1_" class="st3" d="M38.4,73.1c-4.2-6.9-8.6-13.6-14.1-19.3c5.5-5.7,9.9-12.4,14.1-19.3
			C42.6,41.4,47,48,52.6,53.8C47,59.5,42.6,66.2,38.4,73.1z"/>
		<path id="path7002-0_1_" class="st3" d="M122.3,126.3c-4.2-6.9-8.6-13.6-14.1-19.3c5.5-5.7,9.9-12.4,14.1-19.3
			c4.2,6.9,8.6,13.6,14.1,19.3C130.9,112.7,126.5,119.4,122.3,126.3z"/>
		<path id="path7004-0_1_" class="st3" d="M38.4,126.3c-4.2-6.9-8.6-13.6-14.1-19.3c5.5-5.7,9.9-12.4,14.1-19.3
			c4.2,6.9,8.6,13.6,14.1,19.3C47,112.7,42.6,119.4,38.4,126.3z"/>
		<path id="path7008-2_1_" class="st3" d="M80.3,152.9c-4.2-6.9-8.6-13.6-14.1-19.3c5.5-5.7,9.9-12.4,14.1-19.3
			c4.2,6.9,8.6,13.6,14.1,19.3C89,139.3,84.5,146,80.3,152.9z"/>
		<path id="path7016-2_1_" class="st3" d="M38.4,232.7c-4.2-6.9-8.6-13.6-14.1-19.3c5.5-5.7,9.9-12.4,14.1-19.3
			c4.2,6.9,8.6,13.6,14.1,19.3C47,219.1,42.6,225.8,38.4,232.7z"/>
		<path id="path7018-0_1_" class="st3" d="M122.3,232.7c-4.2-6.9-8.6-13.6-14.1-19.3c5.5-5.7,9.9-12.4,14.1-19.3
			c4.2,6.9,8.6,13.6,14.1,19.3C130.9,219.1,126.5,225.8,122.3,232.7z"/>
		<path id="path7020-7_1_" class="st3" d="M122.3,179.5c-4.2-6.9-8.6-13.6-14.1-19.3c5.5-5.7,9.9-12.4,14.1-19.3
			c4.2,6.9,8.6,13.6,14.1,19.3C130.9,165.9,126.5,172.6,122.3,179.5z"/>
		<path id="path7022-4_1_" class="st3" d="M38.4,179.4c-4.2-6.9-8.6-13.6-14.1-19.3c5.5-5.7,9.9-12.4,14.1-19.3
			c4.2,6.9,8.6,13.6,14.1,19.3C47,165.9,42.6,172.6,38.4,179.4z"/>
		<path id="path29-5-3-7-8_1_" class="st3" d="M-3.6,40.7l2.4-0.8c0.9,2.4,2.8,3.2,4.8,3c3.5-0.3,4.7-4.2,5-7.7
			c-1.4,1.5-3.5,2.2-5.2,2.1c-5.6-0.3-7.1-4.8-7.1-9.5c-0.2-4,1.5-6.8,4.3-8.1c1.5-0.7,4.9-0.7,6.4,0.1c3.5,1.8,4.7,4.9,4.5,12.4
			c0,6.1-1.3,13.3-7.9,13.5C-0.3,46.3-3.2,43.3-3.6,40.7L-3.6,40.7L-3.6,40.7z M6,34c1.2-0.7,1.8-1.4,2.3-2.4c0.4-0.8,0.6-1.3,0.4-3
			c-0.3-4.5-2.7-7-6.1-6.5c-1.9,0.3-2.9,1.3-3.5,3.3c-1.1,3.6,0.3,7.9,2.9,8.9C3.3,34.7,5.1,34.6,6,34L6,34z"/>
		<path id="path29-6-2-9-2_1_" class="st3" d="M164.3,226.4l-2.4,0.8c-0.9-2.4-2.8-3.2-4.8-3c-3.5,0.3-4.7,4.2-5,7.7
			c1.4-1.5,3.5-2.2,5.2-2.1c5.6,0.3,7.1,4.8,7.1,9.5c0.2,4-1.5,6.8-4.3,8.1c-1.5,0.7-4.9,0.7-6.4-0.1c-3.5-1.8-4.7-4.9-4.5-12.4
			c0-6.1,1.3-13.3,7.9-13.5C161,220.8,163.9,223.8,164.3,226.4L164.3,226.4L164.3,226.4z M154.7,233.1c-1.2,0.7-1.8,1.4-2.3,2.4
			c-0.4,0.8-0.6,1.3-0.4,3c0.3,4.5,2.7,7,6.1,6.5c1.9-0.3,2.9-1.3,3.5-3.3c1.1-3.6-0.3-7.9-2.9-8.9
			C157.4,232.4,155.6,232.6,154.7,233.1L154.7,233.1L154.7,233.1z"/>
	</g>
</g>
</svg>
