<svg id="Layer_1" data-name="Layer 1" xmlns="http://www.w3.org/2000/svg" viewBox="0 0 180 250"><defs><style>.cls-1{fill:#131f67;}.cls-2{fill:#e2cf00;}.cls-3{fill:#d40000;}</style></defs><title>all_cards</title><g id="g6583"><path id="path7499-2-5" d="M13.89,40.07C10.41,44.46,6.69,47,6.63,50.42a3.33,3.33,0,0,0,2.78,3.36A2.87,2.87,0,0,0,12.71,51c0-.4.48-.39.48.16a10.48,10.48,0,0,1-1.58,4.92h4.55a10.48,10.48,0,0,1-1.58-4.92c0-.55.48-.56.47-.16a2.88,2.88,0,0,0,3.31,2.76,3.34,3.34,0,0,0,2.78-3.36c-.06-3.43-3.78-6-7.26-10.35Z"/><path id="path7503-7-0" d="M166.12,209.93c-3.48-4.39-7.2-6.92-7.26-10.35a3.34,3.34,0,0,1,2.78-3.36A2.88,2.88,0,0,1,165,199c0,.4.47.39.47-.16a10.36,10.36,0,0,0-1.58-4.92h4.55a10.59,10.59,0,0,0-1.58,4.92c0,.55.48.56.48.16a2.88,2.88,0,0,1,3.31-2.76,3.32,3.32,0,0,1,2.77,3.36c-.06,3.43-3.78,6-7.25,10.35Z"/><path id="path39-5-1-0" d="M14.53,34.64H17.2l-3.93-9.77-3,4.13,0,5.64H12.4v2.91H5V34.64H7.41v-21H5V11.09h7.55v2.63H10.42l0,10.24L17,13.64H14.64V11.09h8v2.55H20.55l-5.42,8.44,5.31,12.56h2.35v2.91H14.55l0-2.91Z"/><path id="path39-5-7-0-0" d="M165.47,215.36H162.8l3.93,9.77,3-4.13,0-5.64H167.6v-2.91H175v2.91h-2.45v21H175v2.54h-7.55v-2.62h2.09l0-10.24L163,236.36h2.33v2.54h-8v-2.54h2.12l5.42-8.44-5.31-12.56h-2.35v-2.91h8.25l0,2.91Z"/><path id="path4096-2-4-0" class="cls-1" d="M23.88,19.17H156.12V230.83H23.88Zm93.86,210.32c-4.92-8.91-12.69-23.42-12.92-23.53-2.87,1.53-32.18,5.45-46.27,1.65C53.72,214.85,49,222,44.79,229.18Zm-45-26.64c-.73,0-1.56.47-1.4.07.08-.22.29-2.5.38-3.32.22-.36.53.59.5,1.47,0,.51.22.15,1.89.24a23.42,23.42,0,0,1,3.9.56c2.13.46,6.26.13,8-1.16,1-.69,1.32.06.34.81-4.46,3.37-8,2.08-11.88,1.52a10.2,10.2,0,0,0-1.76-.19Zm1.9-3.2a.69.69,0,0,0-.81,0c-1.37.64-1-.28,0-1.2.45-.42.44-.64.1-1.08-.18-.22-.47-.25-.4-.59.3-1.44,2.33-3.63,4.61-4.6.94-.41,1.09,0-.1.74-1.84,1.07-2.44,2-1.4,1.62,2-.73,3.86-.21,6.44,1.07a2.54,2.54,0,0,0,1.7.37c.46-.38.88.08,1.17.32s.22.21.42.17c1.47-.35.59.59-1.42,2.05-3.59,2.53-7.51,3.73-10.28,1.16Zm5.53.62A13,13,0,0,0,84.52,198c1.34-1.17.58-1-1-.26A12,12,0,0,1,77.29,199c-2.09,0-2-.13-2.1.13C74.92,200.05,77.8,201,80.16,200.27Zm-4.06-3.56a2,2,0,0,0,.11-1.09c-.2-.3-.61-.08-1.14.59-.33.41-.28.47,0,.79l.38.25c.44.19.52-.22.61-.54Zm.92.54c.64-2.18,2.08-2.14,3.11-.05h.72c-1.49-4.06-4.37-2-4.47,0A1.24,1.24,0,0,0,77,197.25Zm5.38-.37c.68-.38.58-.63-.29-1.08-.61-.31-.94-.38-1-.17a2.72,2.72,0,0,0,.29,1.45C81.62,197.24,82,197.08,82.4,196.88Zm-9.53-6.21c-.13-.21-.11-.59.37-.8,2.91-1.35.79-4.19-1.46-2.06a2.68,2.68,0,0,1-2.6.51c-.77-.34-.78-1.28.24-1.48a5.34,5.34,0,0,0,1.52-.47c3.91-2.08,6,2.46,3.21,4-.57.33-1.17.51-1.28.33Zm-11-4.13a2.47,2.47,0,0,1-.32-4.17c1-.65,1.92-.83,4.53.46,1.84.91,2.9-.07,2.85,1,0,.64-.06,1.29-1.14,1.45-1.74.25-2.93-2.11-5.17-1.89a1.26,1.26,0,0,0-.24,2.48C64,186.38,63,187,61.9,186.54Zm29.21.36c-.29.14-.43-.49-.3-.83.79-1.88,1.52-3.37,2.24-5.13.58-1.4,1-2,1.22-2s.38.21-.06,1.07c-.66,1.74-3.1,7-3.1,6.89Zm-13-.48c-.7-.5-.59-1.24.21-.68,1,.72,2.72-.6,2.37-1.84-.41-1.5-2.42-1.87-4.09-.52C73.91,185.5,71,185.61,71,184c0-.47-.06-.58,1-.66a8.66,8.66,0,0,0,3.44-1.1c3.22-2,6.64-.61,5.93,2.65A2.36,2.36,0,0,1,78.07,186.42Zm-11.8-4.82c-.27,0-.74.26-.88.16s-.23-.78-.45-1.4c-.39-1.1,0-.76.68-.46a3.72,3.72,0,0,0,2.61,0,8.39,8.39,0,0,1,3.59,0,7.14,7.14,0,0,0,3.39-.23c1.35-.42,1-.27.77.57a5.57,5.57,0,0,1-.51,1.45,2.07,2.07,0,0,0-2.26,0,3.44,3.44,0,0,1-2.55.27,1.57,1.57,0,0,0-1.87,0c-1.07.52-1.55-.34-2.52-.39Zm20.17-2.28c.19-.33.47-.79.73-1.3,2.09-4.14,2.23-5.29.76-6.69-2-1.87-3.68-1.06-5.58,2.68-.46.91-.73,1.59-.92,1.87s-.47.08-.59,0,1.87-4.21,2.7-5.07a3.49,3.49,0,0,1,5.93,2.63c-.13,1.55-.43,2.41-1.85,5.26-.36.7-.66,1.3-.85,1.59-.67.44-.52-.58-.33-.92Zm-19.7-.17c.33-1.47,5.07-2.15,6.32-.22.12.19,0,.18-.49,0-2.41-.8-2.89-.76-5.19.15-.35.14-.6.19-.64,0Zm18.09-.28a4.4,4.4,0,0,1,.44-1.21c1.58-3.11,2-3.86,1.54-4.44-.94-1.14-2.21-.15-3.37,3.1-.43,1.21-.72,1-.94.76-.4-.36,1.39-4.15,2.26-4.71,2-1.24,3.5.19,2.63,2.73-.67,1.15-1.23,2.92-1.86,3.85-.3.41-.71.29-.7-.08Zm-7.09-5.05c-.1-.16.09-.37.77-1.82.93-2,1.22-2.74.84-3.87a3,3,0,0,0-4.77-1.2,4.38,4.38,0,0,0-1.09,1.56,26.57,26.57,0,0,1-1.36,3.17c-.29.29-.69.35-.66-.16A16.52,16.52,0,0,1,72.88,168c2.17-4.69,8.42-2.52,7,2.43A12.76,12.76,0,0,1,78.29,174,.32.32,0,0,1,77.74,173.82ZM76.29,173a8.69,8.69,0,0,1,.48-1.21c1.06-2.6,1.07-3.4-.47-3.44-.93.12-1.06.5-1.87,2.56a8.47,8.47,0,0,1-.57,1.34c-.16.22-.48.09-.61,0-.33-.33,1.11-3.71,1.88-4.34,1.75-1.53,4,.64,3,2.58a14.27,14.27,0,0,1-1.22,2.69c-.26.37-.59.32-.58-.14ZM39,142.56l-5.32-.37a47.6,47.6,0,0,1,0,16.38,31.91,31.91,0,0,0-.59,9.88c.29,3.83,1.91,7.07,2.32,11.13.3,2.95-.36,6-.94,8.95-1,4.89-.77,5.4-.63,11.14.13,5.32-.36,5.13-.67,4.82a12.69,12.69,0,0,1-.08-2.11c0-1.12-.07-3.86-.13-5.76a39.11,39.11,0,0,1,.6-8.53c.63-2.81,1.33-5.68.9-8.79-.88-3.93-2.12-7.85-2.55-11.63-.54-4.66.78-9.34,1.21-12.73s0-8.93-.88-11.28a6.14,6.14,0,0,0-.85-1.81,17.14,17.14,0,0,0-2.74-.22c-.06,22.46,0,44.93,0,67.4l5,4.6,5.1-4.85Zm.36,25.76s7.58,4.36,15.94,8.64c-.8-4.9,1.73-5.64,4.1-6.21-.57-9.46,8.11-7.52,9.44.7h.86c1.5-4.1,3-6.93,6.42-7.61,2.65-.52,5.27,1.16,5.94,5.11-.12-.27,8.8-5.23,9,5.23,4.06-2.51,7-.34,8.11,2.85,1.71-2.6,6-2.72,7.36-2.91.48-.54,1.32-.86,2.85-.85,1.31-.06,3.07-1,4,.15,1.37.22,2.42,0,3.6.88.94.71,2,2.29,3.54,1.2,3-1.43,6.32-2.08,9-3.8,0,0-.71-.91-.5-.78a2.82,2.82,0,0,0,.9.68,9.55,9.55,0,0,0,1.81-.91c-11.07-12.74-20.18-37.62-14.16-60.64.16-.39-.51-.54-.84-.68.11-.17,1.73.06,1,1.52-.7,4.42-1.48,9.19-1.66,12.85,0,.45,0,.84,0,.84,24.83,11.44,21.79,36.22,15.41,44.85l1,1.34c.45.29,19.54-10.82,18.91-11.28l3.61-1.8-.58-48.59L140.16,108s.15-.41.33-.51c.13-3-.13-7.35,0-11,.06-10.49.16-14.06,0-14.35-4.41-2.9-11-7.14-16.51-9.19.23.06-.09,4.35-.26,4.59-5.17,1.65-2.77,3.76-4.68,6a4.14,4.14,0,0,1-5.75,0c-1.73-1.68-2.54-5.52-2.54-5.52-2.74,2.92-2.18,6.45-5.84,7.78-5.89,2.92-7.76-5.81-7.42-5.6-2.26,2.17-8.59,3.94-9.28-5.24-2.85,2.62-6,1.32-7.39-1.9-1.74.06-3.69,1.42-5.45,2.15a13.62,13.62,0,0,1-5.27,1.12,12.46,12.46,0,0,1-5.29-.3,3.47,3.47,0,0,1-3.24-1.67,2.23,2.23,0,0,0-2.47-.9c-2.83,1.49-5.86,1.85-9.2,3.41-.21.14.29.42.12.36s-1.75.83-1.75.83c16.92,22.22,17.84,44.65,14.29,60.56a1.35,1.35,0,0,0,.15,1.38c-.53-.09-.54.07-.64-.28l1.76-13.35c.05-1.61.25-1.49-1.17-2.09a27.23,27.23,0,0,1-3.63-1.76c-4.13-3-8.79-6.81-11.06-11.5-6.49-10.08-4.35-22.11.51-31.64l-1.21-1.25A107.69,107.69,0,0,0,24.75,92.88l.06,47.68,14.58,1.68Zm-7-31.84a1.9,1.9,0,0,0-2.15-.21c-.12.1-.36.6-.43.58-.66-.17-1.12-.3-1.21-.86l.7-1.06c.56-.84,1.36-1.13,2.7-1.45.48-.11,1.2-.21,1.46-.32,1-.44,1.36-1.38.34-1-.75.21-1.8.14-1.94-.55a.92.92,0,0,0-1.12-.71,10.36,10.36,0,0,0-2.77,1.27c-.39.23-1.12.76-1.12.76-.12.18-.55-1.14-.15-1.53a2.61,2.61,0,0,0,1.41-.13c1.2-.48,2.36-1.06,3.58-1.52.77-.3.85-.28.64-.83a2.13,2.13,0,0,1-.06-1.22c.15-.38.13-.57-.11-.73-.55-.36-1.86,0-3.71.86a6,6,0,0,0-1.28.67c.23-.58.09-.69.09-1.3a3.53,3.53,0,0,0,2-.52A6.12,6.12,0,0,1,31.6,126c.37,0,.2-1.41-.23-1.81a2.51,2.51,0,0,0-2.26-.08,3.88,3.88,0,0,0-2.67,1.4c-.79.75,0-1.24,1.46-2a15.68,15.68,0,0,0,2.35-.39c.56-.12.65-1.42-.16-2-.51-.44,1.84-.45,1.79-.32s-.05.63.13.78a1.55,1.55,0,0,1,1.09,1.47c1.16,1.9,1.73.71,2.53.06-.17,4.14,1.28,4.61,1.48,4.87-2,3.71-.49,3.8,1.37,4.66a3.47,3.47,0,0,1-1.18.26,5.76,5.76,0,0,0-2.79,1.35c-.34.29-.35,0-1.72,0a3.18,3.18,0,0,0-2,.32c-1.16.51-1.15,1,0,.81a2.14,2.14,0,0,1,2.54,1.52.75.75,0,0,1,0,.52c-.26,0-.83,0-.82-.08a1.57,1.57,0,0,0-.22-.89Zm1.77-5a.71.71,0,0,0,.1-1,2,2,0,0,0-1.68.18C31.76,131.15,33.05,132.08,34.05,131.46Zm.7-2.49a1.15,1.15,0,0,0,.11-1.52,1.35,1.35,0,0,0-2.24.65c-.09,1,1.28,1.53,2.13.87Zm-.5-3.42a1,1,0,0,0-1.5-1c-.94.49-.37,1.52.8,1.46C34.21,126,34.21,126,34.25,125.55ZM31.5,122.2a.6.6,0,0,0,0,1.06C33.1,124.17,32.6,121.74,31.5,122.2Zm114.9,4.94c-.72-2.66-2.71,0-2.71,0-.07-2.73.44-3.94-1.6-4.87,2-3.11,1.62-3.53-.55-4.73.2,0,2.89-.58,3.35-2.11.1.07,4.21,1.08,4.73-1.16-1.24.56-3.69.65-3.71-1.77.23-.07.81,0,.76.13-.33,1.55,2.49,1.93,3,.71a6.91,6.91,0,0,0,1.36.73,5.44,5.44,0,0,1-2.5,2.15c-2.18.73-2.94.92-2.94,1.35,0,.17.36.2,1,.33,1.36.1,1.33.39,1.5.84s.32.48.77.43a7.06,7.06,0,0,0,3.41-1.86c.13,0,.28,1.13.36,1.17,0-.18-1.09.14-2.8,1.14-1.39.81-1.93.93-2.11,1.15s.21.68.24,1.23-.28.7-.05.85a1.65,1.65,0,0,0,1.23,0,10.37,10.37,0,0,0,3.17-1.43c-.23.44.15,1.54.15,1.54a1.16,1.16,0,0,0-1-.18,23.68,23.68,0,0,1-2.59,1,1.52,1.52,0,0,0-.65.25c-.17.15-.14.5-.15,1,0,.36-.1.69.13.8a4.7,4.7,0,0,0,2.56-.25c.44-.19,1.38-.71,1.38-.71l-.29,1.53c-.4-.44-1.53-.12-2.28.18a.85.85,0,0,0-.6.69,1,1,0,0,0,.61,1.15,1.6,1.6,0,0,0,.71.08c-2,.74-1.57,1-2.72.45a4.64,4.64,0,0,1-1.17-1.79Zm2.06,0a1.23,1.23,0,0,0-1.23-.45c-.29.16-.18.49-.09.73C147.39,128.11,149.11,127.89,148.46,127.14Zm-1.15-1.9c.46-.61,0-1.42-.89-1.42a.8.8,0,0,0-.9.82C145.53,125.52,146.93,125.74,147.31,125.24Zm-.94-2.3a1,1,0,0,0,.52-1.65,1.94,1.94,0,0,0-2.08-.1c-.9,1,.11,2.14,1.56,1.75Zm.71-3c.5-.25.59-.68.15-1.17-.8-.68-2.2-.15-1.75.85a1.18,1.18,0,0,0,1.6.32ZM44.56,97a16.51,16.51,0,0,0,2.09-1.31c.53-.29.37-.24-.31-.64S44.72,93.72,44.62,94A8,8,0,0,0,44.56,97Zm19,26.6c0-.52.09-1.3.08-1.87.1-1.09-.1-.77-.69-.42-.43.28-1.14.71-1.41.85-1.09.54-1,.57.57,1.3,1.28.58,1.43.52,1.45.14Zm-1.49-2.55c1-.66,1.38-1,1.43-1.73s-.09-1.14-.83-.56c-2.52,2-5.12-1.92-2.81-4.09A4.59,4.59,0,0,0,61,113.37c0-1.25-1.38,0-2.53,1.7-1.29,1.57-2.09,3.53-1,5.42.9,1.38,2.9,1.65,4.63.57Zm-5.73-2.55a4.23,4.23,0,0,1,.21-1.5c.28-.73.27-.81-1-.21a6.51,6.51,0,0,1-1.35.3c-1.05,0-.79.32.71,1.58s1.56,1.37,1.45-.17Zm3.58-6c.16-.38-.18-.52-.5-.45,0,0-.57.41-1.22.92-2,1.55-3.4,1.73-4.37.55s-.57-2.6,1.63-4.22c1-.71,1.21-.76.74-1.08s-.38-.2-1.78.75c-2.81,1.9-3.66,3.21-3.37,5.1a1.9,1.9,0,0,0,.86,1.49C54.61,117.92,58.34,114.64,59.94,112.48Zm2.84,1.13L62.61,111a22.71,22.71,0,0,1-6.52-10.17c-1-3.1-.19-9.57-.05-9.09l-1.55-2.93A19.1,19.1,0,0,0,54,101.46c1.25,4.1,3.74,9.07,8.76,12.15Zm-12.06-1.53c.91-1.75.93-1.56-.82-1.57-2,0-1.79-.26-.65,1.45C50.15,113.33,50,113.45,50.72,112.08Zm1.2-2.39a6.55,6.55,0,0,0,2.43-1.29c1.76-1.14,1.83-1.77.06-.88-2.27,1.13-4.26.84-5-.64-.66-1.31.72-3,3-3.6.78-.22,1.19-.4,1.19-.74,0-1-3.85.34-5.44,1.9-3.07,3-.38,6.58,3.78,5.25ZM47,105c.11-.16.38-.53.64-.92,1.08-1.26.17-.89-.8-1.23a3.36,3.36,0,0,0-1.33-.33c-.57.09.2,1.2.38,1.92C46.37,106,46.31,106,47,105Zm4.11-2.88c1.94-.19,2.14-.38,2.14-.78S53,101,52,101.15c-2.59.36-4.3-.3-4.67-1.68S48.7,96.71,51,96.79c1.26,0,2.1-.4,1.33-.82A16.73,16.73,0,0,0,47.7,96c-2.31.67-3.25,2-3,3.74.32,2.2,1.52,2.82,4.45,2.67C49.67,102.41,50.38,102.18,51.07,102.12ZM52.57,95c0-.34-.55-.39-2.38-.66-2.45-.37-3.54-2.63-2.07-4a3.73,3.73,0,0,1,2.63-.61c1.61.3,2.6.63,2.61.08s-.46-.52-3.48-1.16c-4.57-1-7.08,3.52-3.43,5.71C47.84,95.17,52.57,95.64,52.57,95Zm1.14-6.41c0-.17-.15-.3-.5-.44a6.78,6.78,0,0,1-2-1c-1.51-1-2-3-1-4.1s-.78-2.24-2.18-1.08-1.34,3.1.34,4.61S53.7,89.36,53.71,88.55Zm-7.41-.27c1.59-.74,2.73-.31,1.52-1.34-.69-.63-1.27-2.43-1.74-.91a13.67,13.67,0,0,0-.64,2.67C45.54,88.81,45.52,88.62,46.3,88.28Zm56.18-3.86a3.85,3.85,0,0,1-2.58-4.57,19.68,19.68,0,0,1,1.54-4c.8-.63.69.21,0,1.67s-1.19,2.69-1,3.58a2.89,2.89,0,0,0,2.12,2.55,3,3,0,0,0,2.38-.58c.78-.55,1.52-2,2.4-3.92.29-.55.66-2.24,1.13-1.21.23.54-1.65,4.09-2.36,5A3.73,3.73,0,0,1,102.48,84.42Zm10.91-1.19a3.8,3.8,0,0,0,3.34,1c2.38-.85,3.47-3.1,2.57-6.72-.46-2-.85-3.29-1.25-3.54-.19-.12-.4.11-.59.39s.09.61.36,1.56c1.14,4,.84,5.84-.55,6.61-2,1.12-3.75-.17-4.33-3-.1-.44-.37-1.35-.37-1.35-.16-.39-1.41-.31-.95,1A9.86,9.86,0,0,0,113.39,83.23Zm10.23-10.54c0-1.41-3-7.55-3.21-6.9a14,14,0,0,0,.1,2,2.79,2.79,0,0,0,.33.64c2.59,4.61,2.19,7.86-.06,8.57-.76.35-.93.69-.59,1,.69.75,2.43-.74,2.77-1.28C123.81,75.56,123.69,73.35,123.62,72.69Zm-43.36-1A29.07,29.07,0,0,0,84,64.83C86.06,59,88.2,52.22,88.79,46c.06-.79.1-2,.14-2.09a2.33,2.33,0,0,0-1.5.09c-.16.21-.06.68-.11,1.29a85.16,85.16,0,0,1-5.08,19.9,30.92,30.92,0,0,1-3.4,6.65c-.23.35-.52.7-.64.9-.33.48-.09.79.3.59a8.44,8.44,0,0,0,1.76-1.66Zm-3.33,1.71a48.26,48.26,0,0,0,7-15.49,93.22,93.22,0,0,0,2.62-11.95c.12-.86.22-1.44,0-1.7a2.26,2.26,0,0,0-1.48.17c-.17.25-.06.76-.21,1.92a85.79,85.79,0,0,1-2,10c-2.66,8.76-5.1,13.67-8.31,18-.26.36-.49.6-.46.75s.34.21.85-.11a12.15,12.15,0,0,0,1.9-1.55Zm-4.74,2.27c1.52-.86,4.2-4.62,6.09-8.67a93.14,93.14,0,0,0,5.07-14.85,53.61,53.61,0,0,0,1.13-7.5c-.13-.4-1.61-.07-1.41.21A109.41,109.41,0,0,1,80,57.57c-3,8.42-5.51,14.13-8.26,16.87l-1.07,1.07s0,.31.25.36a1.84,1.84,0,0,0,1.27-.24Zm-2.34-.33c3.44-1.93,7.47-10.9,10.75-22.18.56-1.93,1.59-8.38,1.59-8.38s-1.37,0-1.63.33-.23,1.39-.61,3.75a76.22,76.22,0,0,1-7,20.06c-1.45,2.85-3.86,5.53-5.38,6.3-.85.42-1.1.89-.48.93,1,0,1.14.26,1.91-.15ZM117,175.7c-2.58,0-4.77,2.47-6.72,5.58-4.15,6.37-6.94,17-7.61,22.67l1.56-.29c-.23.11,2.93-15.06,7.74-21.56,2.61-4.09,2.49-4.16,4-4.53,1.84-.48,3.33,1.52,2.41,2.73-.33.41-.7.11-.59-.47.32-1.86-2.38-2.22-3.14-.39-.87,2.09,1.45,4,3.7,3.14,2-.72,2.87-3.54,1.45-5.62A3.92,3.92,0,0,0,117,175.7Zm-13.57-.26c-3.09,3.88-4.62,7.87-6.51,13.31A70.62,70.62,0,0,0,93,205.61l1.66-.22c-.06-3.92,4.24-22.6,10.27-29.6a3,3,0,0,0,.59-.91C105.21,173.94,103.78,175.07,103.38,175.44ZM110.2,174c-4,3.28-7.2,10.44-9.3,17.06-2.28,7.16-3.3,13.72-3.13,13.72l1.59-.23c-.12-.42,4.46-25.64,13-30.24.73-.36.89-.73.27-.9A3.53,3.53,0,0,0,110.2,174Zm4.48,0c-8.74,1.15-14.44,28-14.64,30.2,0,0,0,.2,0,.2l1.74-.36a.71.71,0,0,0,0-.12,70.1,70.1,0,0,1,5.09-17.85c2.12-4.59,5-10.46,9.42-11,.36,0,.7.1.57-.32-.26-.65-1.57-.74-2.17-.72Zm-52-8.44c-3.16.81-3.26,4.6-1.16,9.44.16.36.13.56.29.7.36.32.64-.12.68-.41a4.4,4.4,0,0,0-.46-1.89c-1.3-3.35-1-5.28.3-6.14,3.3-1.7,4.19,1.8,4.69,3.41.12.39.16.93.38,1a1.29,1.29,0,0,0,1-.15,41.47,41.47,0,0,0-1.41-4.14,3.55,3.55,0,0,0-4.27-1.78Zm-22.91,3.57,0,39.93-6,5.68c-2.59-2.23-6-5.71-6-5.71l.11-67.49-2-.16c-.47,29,0,58.58,0,87.63H43.52l14.79-23.15a4.25,4.25,0,0,0,.24-.42c.19-.45.16-1.11.07-3.57a8.51,8.51,0,0,0-.07-2c-.15-.23-.46-.06-.76.07s-.47.09-.31-.27c.09-.2.39-.64.64-1.06.83-1.37,1-1.8.75-3.32a3.88,3.88,0,0,0-.7-1.12C55.68,190.49,54.66,185,55.9,181a3.5,3.5,0,0,0-.6-3.5Zm78.22-42.92c-1.63-.84-1.6-.82-1.61.76,0,1.18,0,1.47.48,1.31.64-.32,1.42-.62,2-.88C120,127,118.52,126.53,117.94,126.22Zm6.43,4.11c-1.26-1-.8-.89-1.15,1.38-.22,1.37-.5,1.41.92.95.81-.27,2.46-.1,1.72-1Zm-50.66,34.9c-1.93,1.18-3.91,6.86-3.91,6.86-6.76.81-9.59,7.47-9.89,13-.24,4.39-.53,9.51-.09,10,4.43-2,6.14.3,6.56-.32.19-.27-1-1.17-2.46-2a10.2,10.2,0,0,1-1.08-.7c-.53-.44,1.08-.06,2.1.64,1.3.88,1.52.7,1-1.89-.61-2.82-.71-3.17,1.45-4.28a6.19,6.19,0,0,0,2-1.52c.5-.56.62-.69.44.12-.31,1.42-1.57,2-2.7,2.61a1.53,1.53,0,0,0-.8,1.37,31.19,31.19,0,0,0,.85,4.14c.25.84.34,1.68.54,2.53a8.44,8.44,0,0,1,.28,4.25,7.73,7.73,0,0,0-.17,2c0,.52.11,1.22.11,1.22s-1.2-1.24-3.85-.19a5.08,5.08,0,0,1-4.48-.59,9.25,9.25,0,0,0-.16,2.81,97.15,97.15,0,0,0,28.31.92A90.31,90.31,0,0,1,91,189.73a43.22,43.22,0,0,1,3-7.71,8.55,8.55,0,0,1,1.81-2.41c.08-.05.09-.08.09-.11v-.21a2.06,2.06,0,0,0-.51-1.41c-.91-.73-2.37.21-2.85,1.84A50.66,50.66,0,0,1,90,184.84c-.11-.07-.37-.08-.28-.4.73-1.71,1.74-3.52,2.31-5.06.78-2.21,2.49-3.37,3.76-2,.44.48.61.92.81,1.07a.34.34,0,0,0,.48-.15c.48-.73-.63-2.37-1.83-2.71-1.72-.47-3,.79-5,4.88-1.13,2.35-1.33,2.95-1.51,2.77,0,0-.34,0-.23-.45a32.78,32.78,0,0,1,2.82-5.64c1.6-2.69,4.58-2.9,5.84-.58.19.32.2.74.41,1,.39.5,1,.4,1.18-.42-.18-.54-1.22-2.5-2-2.84a4.21,4.21,0,0,0-5.42.6c-.39.35-.8,1.06-1.93,3.37-1.68,3.7-1.72,3.72-2.18,3.12.67-1.8,2.44-4.73,3.16-6.53a1.75,1.75,0,0,0,.15-.83c0-1.31.17-3.62-2.58-5.26a4.85,4.85,0,0,0-6.52,2.57c-.81,1.91-1.4,3.23-1.8,3.5-.58.38-.47-.15-.41-.34.81-1.74,2-3.49,2.14-5.23a4.75,4.75,0,0,0-7.76-4.09ZM49.08,76.79a63.57,63.57,0,0,1,10.07-3.73c.51-.23.59-.28.05-1.36-2.41-4.77,4.19-8.58,6.43-3.89.3.62.37,1,.66.67a28.67,28.67,0,0,0,1.89-2.93c2.52-3.92,3.66-8.39,5-12.34A49.59,49.59,0,0,0,74.75,46c-5-8.74-13.81-24.76-13.81-24.76H25.78V91.28c9.8-8.2,16.46-11.17,23.3-14.49Zm39.44-2.58c.42-.45.79-1.2,2.32-4.34.27-.55.7-1.42.88-1.83.23-.73,1.08-1.2.67.13a10.07,10.07,0,0,1-.52,1.18c-.51.91-1,2-1.35,2.76-2,3.92-1.85,6.2.32,7.9a4.68,4.68,0,0,0,6.86-.78,7,7,0,0,0,.59-1.12A16.6,16.6,0,0,1,99.82,75c.8-1,.93.24-.27,2.2a5.81,5.81,0,0,0-.22,6.41,4.71,4.71,0,0,0,7.26.57h0a15,15,0,0,0,2.68-5,9.91,9.91,0,0,1,.43-1.09c.17-.42.43-.58,1.08-.7,4.5-.87,8.28-5.5,8.81-10.56.07-.68.27-1.89.34-2.61.14-1.44.14-8.86,0-9.3a.47.47,0,0,0-.5-.37,3.73,3.73,0,0,0-1,.25,4.33,4.33,0,0,1-3.6.15,2.76,2.76,0,0,0-1-.21c-.63.06.2,1,2,2,.78.43,1.4,1,.77,1-.19,0-2.4-1.16-2.71-1.35-1-.62-.74.16-.22,2.21.7,2.76.29,3.54-1.88,4.62a5.66,5.66,0,0,0-1.21.89c-1.15,1.7-.86.45-.28-.46,1-1,.39-1.4-1.64-.68-2.32.83-3.36.23-4-1.06-.73-1.46.64-3.34,1.79-3.31.37,0,.31.15-.24.53a2,2,0,0,0-1,1.66c-.14,1.58,1,2.25,2.55,1.19a6.16,6.16,0,0,1,1.89-1c.56-.13,1.4.08,1.4.53a4.3,4.3,0,0,0,0,.73c.15.5.94-.2,1.29-.46,1.19-.88,1.15-1.06.82-2.5-.53-2-.79-3.86-1.3-5.91a8.89,8.89,0,0,1-.15-3.37c.09-.55.3-1.67.34-2.44s0-1.87,0-1.87c1.18.9,1.66,1.06,2.81.62a4.71,4.71,0,0,1,4.39.06c.56.27,1.06.46,1.06.46l.07-2.32s-1.39-.28-4-.62c-7.71-1-23.53-1.23-24.12-.3-.15.24-.3,1.89-.72,4.19-.93,4.78-2,9.54-3.37,14.21-.29.95-.56,1.33-.42,1.36s.35-.36.48-.51c.75-.87.18,1.19-1,3.68a2.17,2.17,0,0,0-.18.54A28.87,28.87,0,0,1,86,70c-.3.65-.55.85-.55.43.34-1.43,1.25-3.28,1.38-4.56C86,67,84.84,68.89,84,70c-.16.31,0,.4.15.78.53,1.41,1.81,1.54,2.54.26a46.94,46.94,0,0,0,2.14-4.58,6.12,6.12,0,0,1,.93-1.93c.31-.16.37.53-.17,1.68-1.65,3.47-2.36,5.42-3.16,6.14a1.51,1.51,0,0,1-2.32-.47c-1-1.68-1.89-1.13-.95.6a2.49,2.49,0,0,0,4.33.34,52.68,52.68,0,0,0,2.74-5.36A4.69,4.69,0,0,1,91,66.06c.6-.23-.08,1.55-1.81,5.11-.56,1.38-1.46,2.82-2.68,3.27-3,.65-3.36-.92-4.39-2.71-.5-.45-.95.27-.76,1A3.69,3.69,0,0,0,83.1,75.2a4.28,4.28,0,0,0,5.42-1Zm13.2,7.45a2.61,2.61,0,0,1-.09-1.76,14.46,14.46,0,0,1,1.42-3.58c1-.46.23,1.37.11,1.64-1.17,2.45-1.28,3.4-.19,3.69.94.24,1.44-.34,2.33-2.53.45-1.13.63-1.63.8-1.7.34-.13.5,0,.48.35a16,16,0,0,1-2,4.16C103.63,82.72,102.21,82.72,101.72,81.66Zm-8.79-1.88a4.62,4.62,0,0,1-1.59-1C89.68,77.2,90,75.1,92,71.15c.16-.31.76-1.5.95-1.89.34-.71.68-.43.68,0a18.22,18.22,0,0,1-1,2.24c-2.26,4.44-2.19,6.26,0,7.31s3.11.44,4.83-3c1-2.55,1.48-2.59,1.42-1.62a18.5,18.5,0,0,1-2,3.94C95.77,79.85,94.8,80.15,92.93,79.78Zm.16-2.15a2.33,2.33,0,0,1-.69-2.89c.46-.88,1.62-4.25,2.17-4.44.88,0,.41.71-.68,2.78-1.29,2.75-1.24,3.48-.25,3.9s1.36-.41,2.71-3.62c.22-.5.51-1,.69-.92s.59.15-.12,1.6c-.17.35-.46,1.08-.78,1.76-.93,2-2,2.5-3,1.83Zm15.24-5.83c-.37-.19-2.11-.87-1.85-1.44,0-.06.13,0,.18,0a4.65,4.65,0,0,0,5.65-.14c.35-.31.61-.1.41.28C112.1,71.77,109.31,72.3,108.33,71.8ZM103.21,70a8.34,8.34,0,0,0,.32-1c.19-.72.15-1.25.32-1.15a3.12,3.12,0,0,0,2.64,0,3.25,3.25,0,0,1,2.61-.22,1.15,1.15,0,0,0,1.62-.15c.58-.45.59-.25,1.64.11.77.27,1.07.45,1.4.39.13,0,.38-.31.47-.29.25,0,.28.76.51,1.57s.08.9-.56.47a4.57,4.57,0,0,0-3.29,0,3.29,3.29,0,0,1-2.09.07c-2-.33-3.35-.59-4.8.25-.77.45-1,.69-.79-.06Zm-4.83-3.57c-.94-1.89,1.22-4.4,3.13-3.51.63.29,1.19,1.4.25.89-4.33-.87-3.24,5.48,1.41,2.12,3.09-2.05,5.27-2.37,5.46-.38-.09.73-.74.61-1.23.68a10.29,10.29,0,0,0-3.24,1c-2.26.71-4.46,1.29-5.78-.83Zm16.94.88c-1-.28-2-.69-3.07-.89s-1.59-.77-1.39-1.53,1.3-.89,2.94.12c1.82,1.11,3.14,1.38,3.81,1,1.34-.85.62-2.23-.67-2.58-1-.27-.25-.65.78-.34,1.68.64,1.71,3.67,0,4.3a4.86,4.86,0,0,1-2.39,0Zm-14.75-10a18.74,18.74,0,0,0,2.84-1.9c.22-.24.84-1,.36-.79-2.51,1.51-5.42.25-7.53-.78-1-.47-.76-.26-1.54-.21-.52,0-1,.14-1-.23,0-.17-.34-.1-.53-.12-.78-.08-.28-1.11,1.35-2.25a15.1,15.1,0,0,1,5.29-2.58,5.1,5.1,0,0,1,4.81,1.09c.5.48.45.8.91.5,1-.67,1.05.23.17,1-.6.57-.38.73.35,1.27.36.26.07.5-.13.88a4,4,0,0,0,0,.66c-.16.81-3.84,3.67-5.17,4.16-.92.17-.44-.53-.09-.75ZM103.13,52h-.62c-.69,2.13-2,2.85-3,.3l-.49,0C99,54.53,102.67,55.89,103.13,52Zm-4,2c-.25-.43-.53-1.4-.8-1.41-.71,0-1.7.1-1.47.54C97.21,53.85,99.4,54.5,99.11,54Zm4.91-.38c.66-.4.8-.67.37-1.11s-.84-.28-1,.62S103.33,54.05,104,53.63Zm-9-1.5c4.42-2,6.1-2.26,7.9-1.77a5.44,5.44,0,0,0,1,.34c.86-.05.31-1-1.24-1.57-1.76-.63-2.88-.35-6.27,1.42-2,1-3.61,2.58-1.41,1.58Zm12.82-2.43a12.23,12.23,0,0,1-.4-1.21c-.08-.29-.15-.59-.23-.59a11.74,11.74,0,0,1-4.35-.18,14.32,14.32,0,0,0-8.34.29,8.25,8.25,0,0,0-1.29.62c-.18.17-.44,0-.44-.23a6.74,6.74,0,0,1,2.24-1.76,11.57,11.57,0,0,1,8.47-.71,5.42,5.42,0,0,0,4.55.08c.62-.27.18.41,0,1.31a4.72,4.72,0,0,0,0,1.5c.08.85,0,1.28-.23.88ZM154.14,229V158.78c-17.64,12.18-25.36,14.6-33.65,17.59,2.77,5.66-3.33,10.51-6.84,4.76-3.61,4.05-8.57,18.26-8.75,23,0,0,9.59,16.63,14.27,24.91ZM90,206a71.61,71.61,0,0,1,3.43-16.5,54.8,54.8,0,0,1,3.85-9.29c.67-1.05.72-1.45,0-1.07a16.08,16.08,0,0,0-2.78,3.14c-3.15,6.65-4.61,14.65-5.76,20.76a26.21,26.21,0,0,0-.34,3.07Zm2.31-.29c.75-8.59,3.9-20.18,8.63-27.73.45-.73,1-1.35,1-1.6-.06-.73-1.89.54-3.3,2.7a72.77,72.77,0,0,0-4.38,10.2,65.7,65.7,0,0,0-3.44,16.63Zm4.55-.72c.47-5,2-9.49,3.29-14a45.8,45.8,0,0,1,6.11-13.34c.79-1.18,1.71-2.29,2.59-3.41a.8.8,0,0,0,.2-.48,2.07,2.07,0,0,0-1.45.32,8.27,8.27,0,0,0-2,1.84c-3.48,4.45-5.35,9.64-7.09,14.89a56.22,56.22,0,0,0-3.11,14.45ZM65.61,201.2c.7-.06,1.15.08,1.36-.11s.13-.68.2-1.32c.13-1.36,0-1.29-.86-.41-1.4,1.46-4,2-5.49,1.14-.77-.44-1.31-.75-1.38-.38a.88.88,0,0,0,.36,1C61.65,202,63.4,201.37,65.61,201.2Zm-1.65-1a5.06,5.06,0,0,0,2.52-1.64c.53-.76.52-.87.12-.73-2,1-3.28,1.47-5,1.2-2.39-.36-2.49-.05-.91.94A3.51,3.51,0,0,0,64,200.16Zm-3.51-3c.37-.27.46-1.39.16-1.45s-.74.49-.85.94c-.12.6.32.75.69.51Zm3.7,0,.64-.06c-.33-2.8-3.36-2.92-3.92.28l.48.07c.63-2.55,2.46-2.48,2.8-.29Zm2-.45c.93-.52.61-1.17-.64-1.41-.82-.19-.78.48-.35,1.39.21.45.36.37,1,0ZM59,193.18a3.42,3.42,0,0,0-.28-1.11,16.47,16.47,0,0,1-1.54-8c.09-2.31.11-3-.37-3-.67.32-1.06,4.62-.21,8.2C57.21,191.75,59.05,194.89,59,193.18Zm0-3.49c-.06-1.21.2-3.91.07-4.5a3.3,3.3,0,0,0-.89-1.67c-.4-.29-.5.27-.36,1.72.32,3.4.87,6,1.18,4.45Zm.34-6.19c.27-.48.16-1-.42-2.12-2.29-4.48-2.59-7.55-.19-8.66.26-.12.43-.15.61-.25.76-.41.47-1.18-.66-.86-3.12.87-3.74,3.79-1.11,9.2C58.89,183.52,59.1,183.89,59.32,183.5Zm.57-2.54c0-.19.12-.92.15-1.07a12.38,12.38,0,0,0-.62-1.45c-.88-2.26-.9-3.19.06-3.84.31-.19.63-.2.68-.41s.07-.86-.13-1a2.2,2.2,0,0,0-2.25,1.58c-.36,1.21,0,3,1.1,5.18.52.68.8,1.93,1,1Zm1-2.92c.74-1.49,0-3.42-1-2.76-.66.43-.69.88-.29,2.12C60.17,178.9,60.46,179,60.94,178Zm2.58-4c.3-.29,0-.71-.51-2.36-.46-1.41-.25-2.37.64-2.65,1.27-.31,1.72,1.78,2,2.66.14.68.58.86,1,.39.11-.13.14-.24-.05-1-.82-3.24-1.89-4.27-3.63-3.46s-1.39,2.42-.23,5.93c.16.47.26.82.37.87S63.36,174.22,63.52,174.06Zm1.42-1.1c.39-.38.36-.21-.07-1.56-.5-1.54-.76-1.86-1.29-1.33-.33.33-.17.68.21,1.94.43,1.47.55,1.55,1.15,1Zm66.56-5.27c2.54-1.75,1.49-4.89-1.84-6.05-.4-.14-.83-.31-1-.37-1.53-.74-2.72-1-2.72-.39,0,.34.45.51,1.92,1.22,2.18,1.06,2.67,2.29,1.6,3.83C128.71,167.05,130.16,168.32,131.5,167.69Zm2.3-3.82c.22-.9.55-1.67.71-2.19.21-.82-.07-.63-.61-.5-1.39.72-2.39.33-1.72,1.33C132.94,163.83,133.56,164.86,133.8,163.87Zm-.17-3.14a3.19,3.19,0,0,0,.51-5.06,5.76,5.76,0,0,0-1.87-1,11.61,11.61,0,0,0-4.9-.47c-.19.22-.2.57,0,.67a6.14,6.14,0,0,0,1.31.21c2.43.25,3.62,1,3.51,2.69s-1.54,2.46-4.1,1.9c-1.37-.31-2-.16-1.46.16a12.55,12.55,0,0,0,3.46,1.16,5.36,5.36,0,0,0,3.55-.3Zm-8.35-.45c2-4.4,3-15.94-8.21-24.28l.37,2.31a20.21,20.21,0,0,1,6.82,19.9Zm10-7.89a14.11,14.11,0,0,1-2.19,1.33c-.54.24-.55.3.18.7a5.88,5.88,0,0,1,1.16.79c.39.42.85.58,1,.43C135.42,155,135.64,152.82,135.27,152.39Zm-3.31.84c2.26-.72,3.48-1.81,3.22-3.64-.38-2.68-2.62-3.24-6.81-2.2-2,.51-2.2,1.46-.29,1,2.42-.62,4.32.31,4.06,2.08-.15,1.53-1.37,2.42-3.53,2.42-1.14,0-1.49.1-1.34.51S131,153.52,132,153.23Zm-3.75-6.37c3.71-1.27,5.43-3.24,4.59-5.46-1-2.6-4.23-2.63-7.49-.2-1.51,1.11-1.28,1.52.19,1,1.91-.87,3.13-1,3.92-.31,1.41,1.26.45,3.45-1.68,4.24-1,.43-1.37.67-1.38,1,0,.49.19.37,1.85-.2Zm6.26,0c.09-.77-.78-3.44-1.16-2.83a5.25,5.25,0,0,1-.88,1.31c-1.27,1.15-1,.71.23,1.06C133.37,146.56,134.36,147.05,134.47,146.82Zm-9.81-5.72c3.75-2.17,5.18-5.27,3.24-7.33-1.75-1.85-4.64-.77-7.33,2.59-1.23,1.55-.31,1.36,1.36-.11,1.93-1.72,4.39-.89,4.38,1.25,0,.91-1.3,2.44-2.52,3.16a.57.57,0,0,0-.3.78C123.64,141.68,123.94,141.52,124.66,141.1Zm6.57-2.26c-.19-.59-1.6-3.09-1.91-3-.32.65-.34,1.49-.72,2.17-.53,1-.46.87,1.2.86,1.24,0,1.39.17,1.43,0Zm-11-2.84c3.15-3.26,3.42-7.09.47-8-1.63-.49-4.24.69-4.25,1.91,0,.76.14.9.8.63,2.78-1,5,1.64,2.43,4.71-.62.89-.7,1.12-.52,1.3S119.53,136.72,120.22,136Zm33.92-27.95V21.22H135.7L121.07,44.29l0,5.66c0,.2.33.32.54.07.84-.64.51,0-.44,1.49s-.67,2.69.39,4.26c2.24,3.33,3.4,9.45,2.45,12.69a3.46,3.46,0,0,0-.2,2.39A2.63,2.63,0,0,0,125,72.56,132.94,132.94,0,0,1,140.21,81l-.05-40.71,5.65-5.41,6,5.71.21,67.2c0,.71,2.15,1.35,2.15.29Zm-3.25-67.3-5-4.65L141,40.68c0,21.89.12,66.81.12,66.81l4.91.36a8.36,8.36,0,0,0-.1-3.68c-.69-4-.64-8.83.47-16.21.69-4.53,0-8.46-1.05-12.6a19.61,19.61,0,0,1-.77-7.77c.34-3.93,1.43-6.9,1.56-12.56.08-3.22-.08-6.38,0-10.36.05-.53.27-.47.31.08.15,3.6.29,7,.33,10.54-.11,4.57-1.23,9.28-1.35,13.46a15.71,15.71,0,0,0,1.08,7.43c1.92,5.55.66,14.07.64,14.22-.82,5.46-1.41,12.45,1.34,17.67l2.67.24ZM116.52,82c1.47-.68,1.76-1.87,1-4.75l-.36-1.36c-.17-.71-.49-.79-.92-.23-.25.34,0,.42.38,2,.59,2.4.24,3.19-.64,3.19s-1.41-.66-1.63-2.21a3.16,3.16,0,0,0-.32-1.11c-.22-.35-.47-.29-.68.1s.23,2.61.91,3.62S115.46,82.53,116.52,82Zm-.4-2.15c.31-.59-.08-2-.28-3-.19-.53-.4-.66-.75-.58-.53.13-.5.7-.31,1.65C115.16,79.88,115.37,80.13,116.12,79.89Zm4.48-3.46c1.68-1,1.85-2.62.71-5.64-.46-1.24-1-2.11-1.36-2.12-.13.79-.24,1.21-.1,1.52s.35.73.51,1.09c1,2.23.7,3.51-.22,4.21s-.32,1.19.46.94ZM65.39,75.27c4-.85,7.53-7.21,9.77-12.88,2-5.72,4.23-12,4.57-17.23,0,0-1.49.07-1.68.38a8.4,8.4,0,0,0-.4,1.89,74.4,74.4,0,0,1-3.65,13,48.43,48.43,0,0,1-6,11.48,6.23,6.23,0,0,1-4,2.39,6,6,0,0,0-1.26.1c-.3.21,0,.7.75.89a4.32,4.32,0,0,0,1.88,0Zm54.51-.74c.61-.65.67-1.41,0-3-.19-.45-.28-.71-.5-.65a2.23,2.23,0,0,0-.71,2.45c.43,1.39.68,1.79,1.22,1.22ZM64,73.52A6.12,6.12,0,0,0,67.7,71a42.42,42.42,0,0,0,4.8-8.63c.89-2,2.51-6.42,2.94-8,.93-3.37,1.44-5.55,1.87-8a1.61,1.61,0,0,0,0-.69,2.44,2.44,0,0,0-1.78.26,78.62,78.62,0,0,1-2.79,11c-1.59,5.5-6.13,14.3-8.6,14.71-1.33.23-2.85-.93-2.61-2.12.15-.73.25-1,.61-1.19.86-.3,1.36.29.42.67-1.1,1,.87,2.41,2.08,1.39,2.06-1.72-1-5-3.43-3.51-2.74,1.68-2,4.6-.31,6a3.85,3.85,0,0,0,3.1.63Zm19.38-4a17.18,17.18,0,0,0,3.88-6.79,105.24,105.24,0,0,0,4.27-19.21s-1.45-.15-1.77.16,0,.42-.62,4.56a81.21,81.21,0,0,1-4.71,17.22A21.93,21.93,0,0,1,82.66,69C81.78,70.49,82.11,70.88,83.39,69.57ZM120.9,56.42c-.16-.08-.15,0-.21,0-.23.15-.08,1,.44,2.2,1.38,2.23,1.54,6.55,1.45,8.17a2.66,2.66,0,0,0,.07,1.2c.15.43.4.92.82.09a17.18,17.18,0,0,0-1.13-9.25,7.44,7.44,0,0,0-1.44-2.43ZM122,65.85a13.88,13.88,0,0,0-.76-5.47c-.22-.49-.63-.53-.58,0,0,1.19-.12,3.43,0,4.1.6,1.39,1.07,2.27,1.33,1.35Zm-3.12-13.79h-.65c0,2.23-2,2.86-2.69.18l-.58.13c.77,3.78,4.29,2.05,3.92-.31Zm-4,1.69c-.34-1-.19-1.36-1-.91-.66.34-1,.7-.13,1.14s1.4.39,1.18-.23Zm5-.57c.27-.55.24-1-.17-1s-.41.25-.5.78C119,53.86,119.41,54,119.84,53.18Zm.34-3.71c.25-.08.18-.44.11-.88-1.07-1.5-3.72-1-4.67-.74a2.25,2.25,0,0,1-2.13-.12c-.62-.12-.7,0-.85.33a4.76,4.76,0,0,0-.2,1.62c0,.72,0,1.06.24.83a6.13,6.13,0,0,1,3.78-2,7.55,7.55,0,0,1,3.72,1Zm-7.3,2c0,.3.26.11.91-.3a5.86,5.86,0,0,1,5.8-.54c.45.15.73-.33.24-.73C117.41,47.93,114.43,49.2,112.88,51.49Zm8.63-9.17L134.42,21l-71.94-.05L74.7,43.59A109.47,109.47,0,0,1,121.51,42.32Z"/><path id="path4098-7-2-7" class="cls-2" d="M57.71,209.44c1.52-2.28,9.07,1.78,9.47,3.38,4.46-3.52,9.89-3.77,14.25.63,4.49-4.91,9.29-4.57,14.29-1.73-.56-1.11,6.38-6,10.61-2.89l11.41,20.35-73.15.23C48.92,222.92,52.74,215.17,57.71,209.44ZM25.76,103.3c-.4-1.1-2-12.41,2.07-12.69,6.58,2.92,15,13.37,18.87,19.75,4.83,7.91,9.7,26.1,7,25.3-.39-.11,8.31,8.6,8.91,9.45,1,1.4-14.66,27.48-17.25,26.54-.78-.28-6-3.39-6-3.39l.15-8.7L39.66,142l-14.34-1.25.5-3.82c4.81.39,9.75,1.3,14.2.26,2.93-5.37,1.81-13.38-1.71-16.61-1.87-1.13-3.63-.77-5.52-.53C25.11,118.77,29.09,105.82,25.76,103.3Zm128.4,5.81,0,3.21c-5,1.1-14-3.19-16.69,3.72.34,7.45,2,10.8,3.17,13,.88,2,7-.29,9.19,1.75,6.21,7.65,4.74,17.84,4.8,27l-2.7,1.36c-18.62-11-32.92-45.13-34.9-54.86-.13-6.24,17.08-26.29,17.08-26.29s6.27,3.79,6.27,3.79c.16.06-.13,26.33-.13,26.2C145.21,108.32,150,108.8,154.16,109.11Zm-36.93-24c-21.71,38-12.83,66.16,3.15,90.44a5.43,5.43,0,0,1-1.54.18c-3.5-3.12-5.94-2.57-7.73-2.6-3.42-.05-4.37,1-6.33,1.16-5,.5-4.61.63-8.86-1a57.57,57.57,0,0,0-18.27-9.5c-4.58.42-11.57,2.58-14.21.83,18.39-34,15.63-55.71-3.41-91.31,1.58.46,1.83,1.94,3,2.3,3.91,1.52,9.3.94,12.54-.47C80.71,72.81,86.2,79.1,102,86c1.29.66,2.91-.39,4.33-.68,2.91-.58,5.4-1.83,7.57-1.1C114.57,84.47,117.23,85.1,117.23,85.1ZM73.4,40.65c-.94-1.74-10.51-20-10.51-20l71.22.43L123.42,38.7c-1,.95-6,3.61-11.15-2.41-.09.86-7.59,6.22-14-.23-3.88,3.53-7.84,5.57-14.37,1.6-.14,1.11-5.23,6.08-10.46,3Z"/><path id="path4094-0-9-9" class="cls-3" d="M81.19,213c-6.9-6.47-14.09-.63-13.92-.26-2.73-2.78-5.4-5.05-9-3.93,0,0,0-1,0-1,10.74,2,27.18,2.48,46.39-1.55l1,2.06c-5.15-1.83-7.81.65-10.09,3.53C87.31,206.72,85.29,211.26,81.19,213Zm16.09-75.31,4.89-.1c.91,14.23,12.78,36,13.06,36-.82-1.15-8.66-.24-8.6-.1C102.33,162,97.6,150.52,97.28,137.73ZM68.81,171.49s-1.57-4.08-2.51-5.83c5.12-8.77,9.33-17.85,11.49-27.95l3.49,0C80.24,151.68,69.11,172.85,68.81,171.49Zm62.8-1.87c7.69-13.91,6.37-34-15.45-45,0,0,.57-14.69,2.19-14.73.37.12,9.87-.12,9.87-.12,2.5-6.13,6.5-13.54,12.1-18.54l.15,16.42c-4.15.41-6.68,1.74-7.93,5l-5.75,1.28c.43,16.5,6.62,31.74,25,45.43-4.39,3.79-19.4,11.46-19.34,11.33Zm-92-10.37.17-17.1c2.78-.6,5,.21,7.28-4.8,0,0,3.86,1.84,5.14,2.52C48.55,146.34,45.44,153.25,39.57,159.25ZM76.14,129l.19-8.68,8.23.24a16.25,16.25,0,0,0,0,8.83Zm18.77-.1c.56-2.84,1-5.7-.21-8.71l8.91.15L103.4,129ZM78,111.89c-1.48-17-13.12-36.3-13.28-35.89,1.37.22,3.78.9,5.11.27a6.23,6.23,0,0,0,3.08-.07c.11-.59,10.82,24.73,9.39,35.65-.17.37-4,.4-4.3,0Zm20.58.15c1.26-7.87,4.5-22.26,12.16-33.93a45.24,45.24,0,0,0,2.8,6.14c-5.78,8.43-9.33,18-11.49,27.88ZM45.31,107.8C41.8,100.63,27.22,89.35,28,90.49c6-5.43,12.77-8.87,19.49-12.35,0,0,1.2,1.13,1,1.42-4.14,6.53-6.14,20.36-2.14,28.28C50.18,116.31,57,121.31,64,125.24a93.34,93.34,0,0,1-2.1,14.39s-4.37-2.31-8-3.79c-.57-10-2.63-18.94-8.59-28ZM83.93,37.56c5.14,3.14,9.74,2.81,14.2-1.46a10.4,10.4,0,0,0,14.22.43,9.81,9.81,0,0,0,10,3.28l-1.12,2.35c.27-1.25-31.13-3.29-46.32,1a12.83,12.83,0,0,1-.79-1.79c1.33-.08,5.73,1.55,9.84-3.78Z"/><path id="path4092-7-7-9" d="M61.84,20.11,74.53,43.82l.56-.11c17.59-3.44,31.52-3.92,46.49-1.28l13.3-22.06C110.67,20.09,61.84,20.11,61.84,20.11Zm1.41,1,70.58.08-4,6.53c-2.38-.73-3.7.36-4,2.64a3.36,3.36,0,0,0-.84-.18,2.41,2.41,0,1,0-.67,4.77c.83.14,1,0,1,0-2.9,2.44-4.54.79-5.91,0a3.44,3.44,0,0,1-5-.09c3.46.35,4-3.13,2.35-4.45a7.87,7.87,0,0,0-.7-.6,2.13,2.13,0,0,0,.47-2.74c-1-2.17-4.33-2-4.84.33-.19.92-.2,1.08-.2,1.08a2.65,2.65,0,0,0-2.28,4.08,3,3,0,0,0,2.71.91c-1.42,2-4.66,1.33-6.11-.33-2.29,2.71-4.91,2.38-6.22.93a2.89,2.89,0,0,0,2.32-.78A2.55,2.55,0,0,0,100.6,29a3.57,3.57,0,0,0-.68-.15,4.37,4.37,0,0,0,.13-.83c.49-4-5.48-3.61-4.9.33a2.74,2.74,0,0,0,.19.7,2.6,2.6,0,0,0-1,.13c-3.31,1.53-1,5.75,1.53,4.67a10.26,10.26,0,0,1,1-.43c-3.17,3.95-5.83,1.15-6.53.72-2.15,3.19-5.87,1-6,.79a3.08,3.08,0,0,0,1.6-.42A2.53,2.53,0,0,0,85.85,30a4.39,4.39,0,0,0-1.78-.14,4.57,4.57,0,0,0,0-1,2.43,2.43,0,1,0-4.62,1.32,1.82,1.82,0,0,0,.38.57,8.93,8.93,0,0,0-.94.66,2.43,2.43,0,0,0,2.7,4c.34-.18.68-.57.77-.54-1.25,2.29-3.15,3.09-5.85,1.19a3,3,0,0,1-5.16.22c2.54.24,4.19-4.65-.7-4.81-.37-1.33-.36-3.35-3.46-3Zm34.47,8.4a1,1,0,0,1,0,2,1,1,0,1,1,0-2Zm15.77.12a1.08,1.08,0,1,1-1.07,1.08A1.07,1.07,0,0,1,113.49,29.64ZM82.58,30.82a1,1,0,0,1,1,1,1,1,0,1,1-1-1Zm44.28,1.28-.9,1.6C125,32.83,125.65,31.68,126.86,32.1ZM70.23,34.31l-.89-1.66C70.94,32.76,70.47,33.91,70.23,34.31Zm27.36-.91c6,6.93,11.49,4.88,15,.27,1.52,3.93,4.92,6.64,10.76,4a17.71,17.71,0,0,1-1.24,1.74c-5.16,1.4-7.73-1-9.72-3.37-5.25,4.38-10.2,3.32-14.28-.54C94.67,39.9,89,40.85,83.8,37.25c-2.38,3.54-5.81,5-10.11,3.2,0,0-.92-1.44-1-1.53.63.52,8.56,3.82,10.49-4.12,2.76,4.7,11.81,5,14.41-1.4Zm.61,2.85c6.81,6.39,14,.87,14.14.48.11.35,4,5,9.6,3.26L121,41.56c-10.55-1.79-20.25-2.94-42.48.34A10.65,10.65,0,0,0,83.9,38C84.9,38.65,92.61,43,98.2,36.25Zm-23.88,5.3s3,.35,3.2.41-2.5,1-2.51.9Zm6,30.51c-.18,0-.4.2-.77.57-.81.8-1,.9-1.77,1a6.88,6.88,0,0,0-2.59,1.5,2.24,2.24,0,0,1-1.06.42l-1.23.21a2.47,2.47,0,0,0-.67.2,2.47,2.47,0,0,1-1.76.1,2.17,2.17,0,0,0-1.58.07,2.8,2.8,0,0,1-2.4,0,2.71,2.71,0,0,0-2-.29c-.82.26-2.94-1-2.94-1.77A3.72,3.72,0,0,0,60.06,73c-1.08-.16-10.55,3.59-10.5,3.81,11.63,14.41,21.42,36.37,14,63.24l-1.3-.63a96.63,96.63,0,0,0,1.87-14.79c-21.83-9.46-23.7-31.44-15.23-45.33L47.5,77.77c-5.14,2.75-10.35,4.31-23,15l0,17.29c0,15.63,0,30.86,0,30.86,4.59.51,9.65.92,14.63,1.35,0,0-.06,15.46-.17,21.51-.1,5.11.09,4.79.09,4.79l16.51,8.74c-1.16-4.6,1.71-6.43,4.1-6.24-1.06-4.44,1.58-6.47,4.58-5.9,2,.38,2.74,1.51,3.9,5.22l.45,1.41,1.15,0c1.45-3.12,2.42-7.09,5.83-7.61,4.46-.67,6.12,2.41,6.12,5.48,4.32-3.82,9.5-.86,9.16,4.85,2.18-1.41,5.86-2.67,8.19,2.74.87-.19,1.31-1.16,2.54-1.47a9.14,9.14,0,0,0,1.5-.66v-.18a14.73,14.73,0,0,1,2.26-.55c1.11.41.79.4,1.39-.34a5.23,5.23,0,0,1,2.58-.49,3.29,3.29,0,0,0,1.77-.09c.8-.35,1.55-.44,2,.09.34.38.83.2,1.36.18a3.14,3.14,0,0,1,2.89,1.34,9.21,9.21,0,0,0,2.06,1.33l1.14-.26.14-.43,9.35-3.58c-19.07-21-18.58-48.77-14.08-62.85l1.72.84a56.42,56.42,0,0,0-1.82,14.67c17.18,7.69,25.72,27.55,15.31,44.9l1.1,1.42c4.33-1.82,15.23-8,19-11.3l.8.07s2.28-1.49,3.29-2.28l.14-46-.8.21-.15-2.68-14.16-1.13c.18-.14.32-.19.36-.46L140.7,82c-.53-.8-12.39-7.78-16.8-9.41-.17,0-.05.3,0,1,.22,2.5-1.46,4.72-3.41,4.73-.7,0-.82.3-.79,1.73a3.84,3.84,0,0,1-2.82,4.19c-2.54.92-4.26-.42-5.67-5.66-.37-1.37-1.1-1-1.79.85a45.47,45.47,0,0,1-2.13,4.4,4.56,4.56,0,0,1-2.43,1.81,5.16,5.16,0,0,1-3.8-.2c-1.95-1-2.7-2.18-3.26-5.14-.08-.38-.33-.35-1,.13-3.44,2.6-8.27-.09-8.25-4.58,0-1.32,0-1.38-.81-.74-2.34,1.91-5.5.94-6.77-2.07-.3-.71-.46-1-.69-1ZM60.57,73.65c.24,0,1,1,1,1a10,10,0,0,0,2.61,1.74c.09-.13,11.38,15.08,13.3,36.05l5.26,0c-1-20.38-6.58-30.18-9.15-36.46l1.88-.6c4.23,8.12,9.38,24.61,9.21,39H76A79.28,79.28,0,0,0,61.34,75.21c-.55-.82-1-1.4-.81-1.54a.05.05,0,0,1,0,0ZM57.25,75.8l.88,2.77a1.92,1.92,0,0,1,.37-.89c1.72-1.55,3.36.49,2.58,3.26-.17.85-.52,2.53-.52,2.53A27.71,27.71,0,0,0,58,82.3c-2.4-1-3.19-3-1.37-3.25.31,0,.94-.07.94-.07-.76-.6-2.44-2-2.44-2Zm8,.31a5.44,5.44,0,0,0,3.66.45,5.07,5.07,0,0,1,2.42-.07,7,7,0,0,0,1.54-.18,97.57,97.57,0,0,1,9.26,35.48l-4,0A85.25,85.25,0,0,0,65.65,77.19c-.27-.41-.63-1.06-.38-1.08Zm16.87.19c1.57,0,3.21,1.58,4.09,4.14.5,1.43.69,1.34,1.36,1.11,1.7-.58,3.52,1.3,1.23,1.61s-1,4.78-1.15,5.17c-.91.16-2.62-3.59-2.58-4.7.11-2.74-2.44-5-4-3.87-.75.54-.67.93-.9.73a2.49,2.49,0,0,1,0-3.21A2.62,2.62,0,0,1,82.14,76.3Zm46.47.94s.09,3.59-.05,4.39c-.27,2.39-3.38,2.64-3.5.73A8,8,0,0,0,124,84.93l-2.21-1.53a11.89,11.89,0,0,0,2.26-1.88c-1.64.13-2.56-1.3-1.46-2.51,1.22-1.39,4.58-1.54,6-1.77ZM47.37,78.38l1,1.1c-8.7,15.49-5.63,35.29,15.38,45.69a65.59,65.59,0,0,1-1.88,14l-7.75-3.77c0-17.52-9.83-34.21-25.6-45.18A92.32,92.32,0,0,1,47.37,78.38Zm63.48.13c.36,2,2.29,5.75,2.43,5.54,0-.13-8,10.29-11.51,27.71h-3A97.54,97.54,0,0,1,110.85,78.51Zm24.68.49,1.58,1c-8.3,7-13.77,15.81-17.78,25.34l-2.1-1c6.23-13.83,12.38-20,18.3-25.31Zm2.21,1.54c.43,0,.95.58,1.75,1s.58.66-.89,1.79c-1.73,1.34-1.9,1.28-1.88-.63,0-1.27.33-2.11.93-2.18Zm-1.91,2a.2.2,0,0,1,.21.1,8.07,8.07,0,0,1-.09,2.81c-.16.75-2.39,2.64-3.19,3.38-.32.21-.46.14-.52-.24,0-.59.08-1.38.09-2.18,0-.25-.05-.51.18-.7C133.6,84.38,135.19,82.54,135.83,82.51Zm4.14.61h0A7.79,7.79,0,0,1,140,86a6.34,6.34,0,0,1-2.83-.34c-.1-.31,2.36-2.57,2.77-2.56ZM62.24,84l.6,2.55.22-.41c1.2-1.84,2.66-.76,2.64,1.8a40.46,40.46,0,0,1-.74,4s-4.51-2.17-4.86-3.13a1.27,1.27,0,0,1,1-1.84,3.64,3.64,0,0,1,1,0l-1.93-2Zm51.64.34,2.05.76c-4.27,7-8.68,13.85-11.88,29.55H95.47a91.94,91.94,0,0,1,8-28.2s1.68-.52,2.63-.83c0,0-7.09,16.28-7.91,26.75l4.14.09C104.51,102.22,108.65,91.64,113.88,84.3Zm-16.24.26a1.87,1.87,0,0,1,1.94,2.21c0,1.32-.14,1.51-1.07,1a2.71,2.71,0,0,0-3.28.08c-.6.43-1.2.79-1.2.79s.53-2.29,1.34-3A3.67,3.67,0,0,1,97.64,84.56ZM93.24,88a8,8,0,0,1-.52,1.79s.67-.26,1-.41a2.24,2.24,0,0,1,3.09,2.15,2.44,2.44,0,0,1-2.39,2.28A2.33,2.33,0,0,1,93,93.27c.35,1.89.42,2.76-1,3.71a2.38,2.38,0,0,1-3.45-2.22l.09-1.31-1.17.15a2.29,2.29,0,0,1-.68-4.52,3.09,3.09,0,0,1,2.19.61,3.63,3.63,0,0,1,.16-3.47c1.65-1.93,4.27-.17,4.07,1.73Zm28.46-2.52c.17,1.51.77,3.15.6,4.56-.25,1.8-1.78,2.86-3,1.7-.15-.15-.42-.45-.42-.45a8.27,8.27,0,0,0-.87,2.63l-2.12-1.31a11,11,0,0,0,1.88-1.62,1.45,1.45,0,0,0,.16-.47,1.53,1.53,0,0,1-1.85-1.91c.64-1.74,3.8-2.39,5.59-3.13Zm14.76,1.09a26.75,26.75,0,0,1,3,.31c.75.13.33.55-1.33,2.18s-1.48,1.35-2.66,1.33c-2.75,0-3.23,0-1.63-1.72a10.28,10.28,0,0,1,2.17-2,2,2,0,0,1,.47-.07Zm-5,.32a.12.12,0,0,1,.09,0c.18.17.12,1,.1,2.1s0,1.23-.52,1.87c-.65.82-1.19,1.65-1.87,2.44-.59.64-.57.57-.92-1s-.16-2,1.76-4.13C130.79,87.36,131.25,86.83,131.5,86.84Zm8.59.85,0,3A51.1,51.1,0,0,0,128,109.47l-2-.79a57.4,57.4,0,0,1,14.11-21ZM90.87,89.52a1.71,1.71,0,1,0,1.7,1.71A1.71,1.71,0,0,0,90.87,89.52Zm0,.54a1.18,1.18,0,1,1-1.17,1.18A1.17,1.17,0,0,1,90.86,90.06Zm-63.09.72c17.72,11.41,25.66,29.09,25.62,44.27l-1-.45c-1-21.46-12.66-34.65-25.22-43.19Zm104.87.16c.4,0,1,.07,1.74.16,1.46.08,1.64.17.63,1.33-.28.32-.81,1-1.18,1.49a4.46,4.46,0,0,1-1,1.1,23.4,23.4,0,0,1-3.62-.12c-.24,0,.08-.28,1.33-2.08,1-1.38,1.07-1.83,2-1.87Zm7.38.59s.35,9.78.09,16c-4-.15-6.41,1.39-7.4,4.3l-4.24-2.11A55.22,55.22,0,0,1,140,91.53Zm-12.51.22c.23,0,.36.48.43,1.42.26,1.68.23,1.88-.46,3-.35.54-.83,1.3-1.06,1.69-.41.68-.7.89-.8.55-.55-1.81-.73-2.93-.53-3.3.32-.6,1.83-2.75,2-3S127.41,91.75,127.51,91.75Zm-101,.19c14.24,8.84,24.66,24,25.09,42.21,0,0-3-1.43-4.91-2.48l-.1-1.77,1,0,.32,2L50,131.8l-.58-5-3.4.32-.68-2.83,1-.22L47,125.9l2.21-.58L48,120.87l-3.42.94-1.09-3,1.13-.4.92,1.79,2.09-.72-2-4.46-3.14,1.49-1.6-2.91,1.23-.66,1,1.73,1.94-1-2.41-4.1-3,1.67L38.19,109l.93-.65,1,1.19,1.71-1.21-2.62-3.54L36.37,107l-2.11-2.46,1-.83L36.69,105l1.62-1.42-3.11-3.41-2.72,2.49-2-1.77,1-1.1,1.26,1,1.35-1.6-3.39-2.8L28.12,98.9l-2.43-1.61V96.08a23.06,23.06,0,0,1,2.38,1.07l1.25-1.92-3.63-2.46Zm39.65.75.54,3.12c.51-.85.92-1.43,2-1.1,1.32.54,1.34,2.55.22,5.62a9.72,9.72,0,0,1-.47,1.06,6.25,6.25,0,0,1-1-.51,9.15,9.15,0,0,1-2.88-2.3c-.73-1.15-.75-2.78.6-2.64a4.58,4.58,0,0,1,.79.13l-2-2.58Zm-40.43.93,2.46,1.6-.51.93-1.95-.88Zm61.81.74c.71,1-1.8,4,1.49,5.13a1.17,1.17,0,0,1-.61,1.09c-1.61,1.18-3.92-1-3.2-3.17C85.64,96,87,94.36,87.5,94.36Zm6.82.09s1,.73,1.19.92c1.83,1.76,1.85,4.28.19,5.17a2.05,2.05,0,0,1-2.78-.74.57.57,0,0,1,.55-.81c.79,0,1.39-1.51,1.16-3.11C94.53,95.25,94.32,94.45,94.32,94.45Zm21.6.59a21.5,21.5,0,0,0,.53,3.11c1,2.69-.27,4.32-2.06,3.42a3.52,3.52,0,0,1-.71-.71L113.5,104,111,103.2c.55-.89,1.34-1.53,1.94-2.53l-.72,0c-1.52.06-2.09-1.64-.49-3A30,30,0,0,1,115.92,95Zm13.35.71c.31,0,.7,0,1.23,0,1.62,0,2-.22,1.32.79-.28.39-1,1.49-1.16,1.87-.41.76-.49,1-1.17,1.15a25.78,25.78,0,0,1-3.23.11c-.24,0,.26-.86.54-1.38.69-1.28,1.11-2.16,1.7-2.43a1.71,1.71,0,0,1,.77-.14Zm-5,1c.19,0,.34.35.52,1.07.44,1.7.55,1.75-.15,3.14-.36.7-1,1.9-1.21,2.39-.63,1.26-.67,1.25-1.07.12-.77-2.17-.84-1.95.43-4.39C123.59,97.55,124,96.76,124.27,96.74Zm-93.43.6,2.29,1.84-.65.64-1.27-.94-1.87,2,3.07,2.82L35,101.13l2.23,2.35-.68.57-1.31-1.26-2,1.68,2.92,3.47,3-2.26L41,108.11l-.75.48-1.21-1.18-1.92,1.34,2.39,3.37,3-1.73,1.71,2.82-1,.46-1-1.55-2.16,1.25,2,3.95L45.46,116l1.3,3-1,.41-.83-1.81-2.19.86,1.47,4.15,3.29-1,.8,3.08-1,.29-.5-1.71-2.1.51.87,4.16,3.36-.22.4,3.37-1,0-.26-2-2.13,0c0,.7.09,2.15.09,2.15l-1.29-.6A46.26,46.26,0,0,0,25.74,99.84l0-1.53,2.48,1.58S30.44,97.86,30.84,97.34Zm97.87,3c.71,0,.4.55-.47,2.21-1,1.84-1.13,1.88-2.94,2.32-2.2.54-2.14.66-1-1.88a6.89,6.89,0,0,1,1.21-2.17c.56-.43,1.62-.27,2.78-.44a3.15,3.15,0,0,1,.37,0Zm-102.9.55c10.58,6.85,17.27,21,18.1,29.62a6.17,6.17,0,0,0-.86-.46c-.81-.37-1-.61-1.24-1.78a43.72,43.72,0,0,0-16-25.72Zm95.43,1.75c.45-.09,1.27,3.14,1,3.81-.17.49-1.75-.66-2.32-.9-.29-.13,1-2.84,1.3-2.91Zm-51,.15,0,3.35a5.26,5.26,0,0,1,.61-.63c.79-.58,2,.22,2,1.21.07,1.37-.14,1.92-1.23,3.82-.34.59-.85,1.34-.85,1.34a24,24,0,0,1-2.7-2.33c-1.53-1.53-1.24-3.56.1-3.57a3.33,3.33,0,0,1,1.1.25,20.47,20.47,0,0,0-1.36-2.9Zm41.36,2.51a12.62,12.62,0,0,1,1.49,3.31c.76,2.3-.41,4-2,3.16a2.67,2.67,0,0,1-.58-.49,16.07,16.07,0,0,0,.11,3.12l-2.56-.44a19,19,0,0,0,1.51-2.79s-.16.12-.86.12c-2.57,0-2-3.06.93-4.76.44-.26,1.95-1.23,1.95-1.23Zm14.72,0c.55,0,.29.51-.32,1.77s-.51,1.27-2,.54c-2-1-1.89-1.14.66-1.83A6.68,6.68,0,0,1,126.29,105.32Zm-36.43.4c2,0,3.49,2,3.2,4.84-.51,4.86-.22,4.56.31,5,1,.88-.34,1.41-1.49.57-.79-.59-1-1.17-1-3.85,0-3.08-.12-3.87-1.22-3.6-.68.17-.9.75-.82,2.83.1,2.92-.09,3.66-1.19,4.59s-2.48.1-1.39-.51c.5-.56.59-1.27.4-3C86.43,111.1,85.56,105.7,89.86,105.72Zm50.5,2.46c3.87.15,13.66.95,13.66.95l.09,2.9c-.44.27-7.75-.85-13.12-.75-1.26,0-2.15.58-3.06.12.88.36.8,4.74-3.05,3.68-3.26-1.18-1.67-5.6,2.5-6.72a19.27,19.27,0,0,1,3-.18Zm-22.3,1.94,8.36,4.14c1.17,15.76,6.59,32.41,25.06,45a102.26,102.26,0,0,1-19.07,11l-.7-.75c10.18-17.38,2.48-36.51-15.35-45.17A68.81,68.81,0,0,1,118.06,110.12Zm29.42,2.64c1.61-.06,2,.12,2.16.85s.64.86,1.25.63c1.47-.53,2.37,2.09,1.15,3.25-.76.72-.63,1,0,1,1.53,0,1.49,2-.07,3.18-.65.47-.64.69,0,1,1.13.56.9,1.67-.54,2.59-.78.49-.81.62-.16.79,1.63.45,0,2.78-1.82,2.37a2.65,2.65,0,0,0-2.13.45,6.14,6.14,0,0,1-4.29.7c-1.81-.34-2.62-.94-3.09-2.53-1.06-3.25-2.21-6.85-2.22-10.39-.16-2.18,3.47-4.14,5.19-4.23,1.4-.21,3,.3,4.54.31Zm-114.42.06a3.49,3.49,0,1,1-3.48,3.49A3.48,3.48,0,0,1,33.06,112.82Zm38.69,1-.32,3.06.64-.5a1.25,1.25,0,0,1,2,1.27,14,14,0,0,1-2.61,4.79s-2.88-3.15-3.19-3.76c-.68-1.37.25-2.79,1.5-2.19.17.09.69.47.69.47l-.92-2.9Zm-38.46.25c-1.23,0-2.39.8-2.24,1.81.11.43.76-.19,1.41-.6a1.77,1.77,0,0,1,1.66-.12c.5.18.71.64,1,1s.51.55.67.4.07-.36,0-.54a2.38,2.38,0,0,0-2.54-2Zm93.75.47,1.24.64c1.68,22.28,12.9,35.37,24.69,43.17l-.94.57A55,55,0,0,1,127,114.56Zm1.88.92s3.13,1.6,4.76,2.34l.06,2-1.09,0-.37-1.9-2.27.17.71,4.66,3.66-.45.51,2.81-1.24.26L133,123.7l-2.11.52,1.36,4.52,3.31-1.07,1,3-1.11.4-.71-1.74-2.17.77,1.68,4.42,3.44-1.11,1.39,2.76-1,.47-1-1.72L135,136l2.42,4.13,3.1-1.64,1.45,2.21-1.14.77-1-1.35-1.67,1.1,2.67,3.67,2.67-2,2,2.32-.88.78-1.36-1.38L141.64,146l3.19,3.51,2.76-2.41,2,1.84-.58.61-1.32-.83-1.76,1.87,3.35,2.92,2.65-2.92,2.26,1.67v1.22l-2-1-1.35,2,3.36,2.55,0,1c-19.18-11.49-24.23-29.31-25.21-42.56Zm-39.28.22c.83,0,1.71.76,3.15,2.44,4,4.7,3,12-2.32,15.76-.77.56-1.08.51-2-.3-5.42-4.68-5.73-10.93-.91-16.42.84-1,1.46-1.46,2.1-1.48Zm19.38.65c1,1.53,2.26,3.11,2.4,5-.07,1.84-1.31,2.18-2.59,1.11a9,9,0,0,0,.39,2.85L106.9,125a7.78,7.78,0,0,0,.95-2.59,1.59,1.59,0,0,1-2.62-1.52c.46-2,2.1-3.37,3.79-4.57Zm-19.31,1.2a1.33,1.33,0,0,0-.69.39,10.08,10.08,0,0,0-3.1,4,8.53,8.53,0,0,0,2.32,9.3c1.4,1.37,1.88,1.28,4-1.57a8.28,8.28,0,0,0,1.06-8.14,9.07,9.07,0,0,0-2.68-3.5c-.45-.35-.68-.52-.93-.5Zm44.6.57,1.8.89c2.29,15.19,9.73,24.45,18.06,30.84v1.41l-2.24-1.74-2.68,2.82-2.17-1.79.81-.79,1.24.79,1.58-1.78L147.59,146l-2.71,2.37L142.62,146l.68-.58,1.57,1.37,1.74-1.55-3-3.41-2.71,2.06L139,141.39l.82-.49,1,1.36,2.08-1.3-2.2-3.41-3.15,1.62-1.61-2.91.92-.44,1,1.64,2-1-2-4-3.21,1.06-1.19-3.16.92-.34.81,1.87,2.18-.7-1.48-4.32-3.32.94-.82-3.18,1-.22.54,1.71,2.29-.45-.84-4.12-3.4.43a31.17,31.17,0,0,1-.61-3.29l1-.09.33,1.81,2.29-.07Zm-44.48.33c1.25.17,2.77,2.58,3.11,3.45a7.66,7.66,0,0,1,.12,5.29,11.89,11.89,0,0,1-2.89,4.16c-.75.41-1.38.11-2.45-1.36-2.12-2.89-2.54-6.37-.86-8.75,1.28-1.82,2.23-2.79,3-2.79Zm46.89.75.9.43c1.11,8.8,6.31,20.88,16.54,28.11v1.1c-8-5.73-15.26-15.61-17.44-29.64Zm-47,.6c-3.56,2.69-3,6.91-.29,9.76C92.29,127.63,93.31,122.41,89.67,119.8ZM35.31,120c2,0,3.28.66,3.89,2a13.26,13.26,0,0,1,1.28,3.73c.11.65.28,1.63.38,2.18,1,5.9.27,8.12-3.3,9a8.23,8.23,0,0,1-3.59.12c-.27-.07-1.27-.07-2-.1a3.79,3.79,0,0,1-2.82-.85,1.93,1.93,0,0,0-.89-.47c-1.78-.28-2.31-1.92-1-3.13.77-.69.85-.78.78-.9a1.41,1.41,0,0,0-.74-.12c-1.79,0-1.77-1.87,0-3.19.86-.63,1.25-1.23.68-1.08-1.64.39-2.21-2-.5-2.76.91-.51,1.56-.94.68-1s-1.33-.48-1.11-1.13a2.57,2.57,0,0,1,2.64-1.22c.67.21,1.33.4,1.75.09a4.84,4.84,0,0,1,2.37-1.19,11.16,11.16,0,0,1,1.48-.08Zm59.72.45,8.26.16-.25,8.13-7.77-.15A10.55,10.55,0,0,0,95,120.43Zm-18.5.19,7.91.09a12.43,12.43,0,0,0-.34,8l-7.74-.12Zm13.2,0c2.13,1.24,2.71,5.77-.24,8.09C86.68,125.82,87.25,122.3,89.73,120.63Zm-19.51,3.53,2.13.2-.76,3A2.36,2.36,0,0,1,72,127c2.73-1.28,2.92,1.62.15,4.25-.61.58-1.6,1.37-1.6,1.37s-.77-1.17-1.38-2.22a4.93,4.93,0,0,1-1-2.81c.17-.88,1.22-1.46,1.89-.93.33.27.72.67.72.67Zm37.86,2.23s.89.92,1.43,1.51c1.88,2.06,2.2,4,1.25,4.57a1.65,1.65,0,0,1-2-.42,12.52,12.52,0,0,0,1.12,3.16l-2.79.45a18.65,18.65,0,0,0,.63-3.52,6.6,6.6,0,0,1-.83.56c-1.83.67-2.73-1.41-1.23-3.49A22.11,22.11,0,0,1,108.08,126.39Zm38.18,3.86a3.41,3.41,0,1,1-3.39,3.4A3.4,3.4,0,0,1,146.26,130.25Zm1.68,1.56c-.15,0-.27.37-.29,1.11a1.79,1.79,0,0,1-2.82,1.44c-.56-.29-1-.71-1-.39a3.89,3.89,0,0,0,.77,1.4c1.17,1.06,4,.81,4-1.66C148.5,132.55,148.18,131.75,147.94,131.81Zm-61.66,1.28a1.48,1.48,0,0,1,1.14.44c.93.63,1.1,1.45,1.16,4.51,0,2.71,0,2.77.44,3.1,1.09.81,1.75-.42,1.44-3.16s.64-4.56,2.23-4.55c.79,0,.93.47.34,1.06s-.78,1.38-.58,2.9c.5,3.91.06,5.83-1.58,6.63a3,3,0,0,1-4.29-2.29,18.46,18.46,0,0,1-.07-4.77c0-1.7,0-1.89-.6-2.86C85.5,133.44,85.81,133.12,86.28,133.09Zm-43,1.26a2.82,2.82,0,0,1,2.51,1.77c1.41,2.93-1.65,5.34-4.46,5.53a112.24,112.24,0,0,1-15.58-1.29l.07-2.77c4.5.26,9.57.63,15,.88-.62-2.57.85-4.11,2.43-4.12Zm25.66.57,2.72.61L70,138.36a1.67,1.67,0,0,1,1.38-.19c1.11.4,1.12,1.81.31,3.13A12.73,12.73,0,0,1,68,144.09c-.69-1.49-2.22-4.1-1.61-5.53a1.48,1.48,0,0,1,2-.71c.28.17.8.44.8.44Zm6.43.08,8.28.1c-1.21,8.4-3.56,19.62-8.2,28.76l-1.95.51a95.37,95.37,0,0,0,8.09-27.14H77.49c-2.39,10.23-5.91,19.7-11.33,27.94l-2.4-.79c5.78-9.21,10.37-19.49,11.65-29.38Zm18.88.15h9.23c1.7,17.11,7.46,28.78,16,40.33a1.83,1.83,0,0,1-.86,0,5.31,5.31,0,0,0-3-2.14c-7.21-10.41-12-25-13.21-36.1H97c.62,14,4.48,25.45,9.62,36.56l-2.79.51c-4.13-9.94-8.65-18.59-9.51-39.15Zm14.37,2.11c.76.59,1.58,1.17,2.35,1.73,2.08,1.47,2,4.23,0,4.22l-.71,0s.82,1.81,1.34,2.73c-.84.23-2.6.56-2.6.56a22.57,22.57,0,0,0,.2-3.26,2.67,2.67,0,0,1-.61.51,1.72,1.72,0,0,1-2.31-2c.22-1.87,2.31-4.46,2.31-4.46ZM47,137.6l4.55,2.26c-3.1,7.07-6.64,13.69-11.77,18.73l.13-16.35C42.7,142.16,45.57,142.14,47,137.6Zm31.07.25h2.79c-1.24,13.05-9.83,30.7-11.44,32.83l-.53.4s-1.1-4-2.39-5.43C71.34,159.08,76.42,146.48,78.06,137.85Zm19.65,0h4.22c1.32,10.4,4.52,21.63,12.64,35.27a2.59,2.59,0,0,1-1.44-.29c-1.39-.86-2.35.28-3.17.23a7.22,7.22,0,0,0-2.84.17A96.1,96.1,0,0,1,97.71,137.85Zm-45.6,2.34,1.51.71c-3.24,7.52-6.14,13.51-13.82,20.85l0-2.19C45.16,154.32,48.8,147.4,52.11,140.19Zm2.2,1.05a21.23,21.23,0,0,1,2.2,1.07c.22.09.16.3.16.51-.28.71-1.54,1-2,1.17s-1.14.28-1.24.3c-.66.16-.45-.51.26-1.95C54,141.69,54.12,141.25,54.31,141.24Zm3,1.59A7.79,7.79,0,0,1,60,144.18c.14.43-.25,1.1-.83,2.35-.88,1.92-1.06,2-1.32.39,0-.27-.31-1.17-.47-1.77-.37-1.38-.41-2.18,0-2.32Zm3.3,1.55s1.06.52,1.4.75c-4.73,14.21-17.32,26-17.26,25.69l-2-1.15C51.18,162.06,57.32,153.09,60.62,144.38Zm-5,.21c.46,0,.06.57-.56,1.94s-.78,1.81-1.33,2a21.62,21.62,0,0,1-2.91.47c-.43.07-.25-.26.41-1.6.77-1.58.82-1.91,2-2.24A16.66,16.66,0,0,1,55.62,144.59Zm1.66,2.82c.49,1.76.47,2.11.15,2.72-.61,1.15-1.41,2.49-1.63,2.85-.55.9-.71.72-1-1.49a7.56,7.56,0,0,1-.23-2.57c.28-.68,1.1-2.26,1.56-3.19C56.75,143.75,57.11,147.24,57.28,147.41Zm8.7-1.54,2.49.82-2,2.36a5.53,5.53,0,0,1,.91-.11c1.95.13,1.63,2.08.12,3.26a28,28,0,0,1-3.72,2c-.33-1.74-1-2.86-.85-4.64.12-1,.2-1.84,1.38-1.86.62,0,.87.6,1.27,1.11ZM111,148a21.7,21.7,0,0,1,2.88,1.84c1.81,1.4,2.11,3,.31,3.67a3.47,3.47,0,0,1-.8,0,16.31,16.31,0,0,0,1.67,2.17,8.9,8.9,0,0,1-2.35,1s-.23-2.17-.45-3a2,2,0,0,1-.53.65c-1.74,1.09-3.11-1-2.17-3.55A13.91,13.91,0,0,1,111,148Zm-19.13.36c4.34-.11,1.8,7-.37,6.57,0-.06,1.79-4.22-.67-4.88-1.13-.31-.16-1.71,1-1.69Zm-7.13.5c1.35,0,2.34,1,1,1.55-2,.95-.83,3.22-.78,4.5,0,.79-1.81-.68-2.2-2.28-.5-2.06-.27-3.59,1.93-3.77Zm-32.14.76a1.22,1.22,0,0,1,.61.08c.12.33-.48,1.39-1.37,2.74a3,3,0,0,1-1,1.09,6.2,6.2,0,0,1-2.45.34c-1.19,0-1,0,.34-2.08A9.13,9.13,0,0,1,50,149.87a15.09,15.09,0,0,1,2.52-.26Zm1.57,1.49c0,2.58.88,3.42.23,4.24a33.73,33.73,0,0,1-2.15,3.1c-.61.74-.54.6-.7-1.34a8.77,8.77,0,0,1-.07-2.78c.53-1.26,1.15-1.87,1.8-3.21C53.75,150,54.13,150.2,54.13,151.1Zm34.3,1.29a2.32,2.32,0,0,1,2,2.6l0,1.18c1.63-.62,3.65,0,3.74,1.59.16,2.72-1.84,2.41-3.53,2.29.17.07.42,2.46-.59,3.38-1.57,1.77-4.52,0-3.78-2.64a5,5,0,0,0,.19-.88,6.72,6.72,0,0,1-1.43.37c-3.2-.14-2.95-4.68.26-4.15a6.83,6.83,0,0,1,1.1.27l-.17-.69C85.68,154,86.66,152.37,88.43,152.39Zm64,.81,1.73,1v1.93l-2.46-1.83ZM49,154.49c.68,0,1.21,0,1.11.21a14.68,14.68,0,0,1-2.37,3.37c-.75.81-.86.69-2.69.6-.72,0-1.19,0-1.17-.23.84-1.11,2-2.54,2.81-3.74A13.45,13.45,0,0,1,49,154.49Zm1.68.91c.12,0,.16.27.16.87s.06,1.86.13,2.47c.12,1.11.12,1.11-.35,1.77s-1.17,1.53-1.91,2.24c-1.12,1.25-1,1.32-1-1.34,0-2.07-.14-2.07.28-2.56.23-.26.94-1.14,1.41-1.82C50.15,156,50.52,155.4,50.71,155.4Zm10.63.36,2.3,1.23-2.3,2.34a6.36,6.36,0,0,1,.77,0c1.47.28,1.36,1.86-.12,3a35.84,35.84,0,0,1-4.05,1.72,29.49,29.49,0,0,1-.33-4,2.86,2.86,0,0,1,.58-1.93,1.21,1.21,0,0,1,1.73-.08,3.1,3.1,0,0,1,.65.81Zm27.08.8a1.64,1.64,0,1,0,1.63,1.64A1.63,1.63,0,0,0,88.42,156.56Zm25.66.39a17.39,17.39,0,0,1,4.36,2.37c1.26,1.06.66,2.8-.59,2.84-.09,0-.62-.08-.62-.08.42.65,1.85,2.24,1.85,2.24l-2.33,1s-.37-1.8-.65-2.8c-.81,1.87-2.81.65-2.94-.52-.33-1.71.4-3.38.92-5Zm-25.66.14a1.14,1.14,0,1,1-1.13,1.14A1.14,1.14,0,0,1,88.42,157.09Zm-44.33,2.32c.81,0,1.82,0,2.28.06.34.27-.38,1.09-1.77,2.56-1.12,1.17-1.28,1-2.63,1-2.27,0-2.33,0-1.29-1.15A12.44,12.44,0,0,1,43,159.48a7.3,7.3,0,0,1,1.07-.07Zm2.77,1.15c.24-.05.17.56.13,1.95l-.06,2.36-1.77,1.71c-2,1.83-1.79,1.94-1.78.23a8,8,0,0,1,.29-2.93c.89-1.07,1.82-2,2.84-3.06.16-.16.27-.25.35-.26Zm44.84.58c.49,0,1.74,2.12,2.06,3.92.71,4.12,3.17,6.07,4.9,4.41.7-1,.78.09.75.6-.37,5.22-6.26,3-6.93-2.14-2.06,1.35-4-1.37-2.76-1.33,2.91-.93,2.12-3.61,2-5.46Zm-6.83,0c.29,1.81-3,4.9-4.77,2.73-.93-1.1-.08-3.38,1.1-2,1.3,1,2.56-.15,3.67-.75Zm-44.53,2.48c.67,0,1.63.11,2,.05.6.06.17.35-1.11,1.53-1.11,1-1.43,1.46-1.55,1-.07-.68,0-1.5,0-2.47a1.15,1.15,0,0,1,.65-.13Zm15.11,1.2,2,1.44-2,1.82c1.76-.09,1.91,1.56,1.25,2.49-.44.64-2.1,1.32-3.77,1.6l-1.82.28s0-.78-.07-2.07c-.06-2.63.12-3.67,1.13-4.19a2,2,0,0,1,2.25.89,6.09,6.09,0,0,0,.36.61ZM42.73,165h0c.12.16-.29,4.45-.29,4.45l-2.86-1.62s2.9-2.78,3.14-2.83Zm75.81.51c2,1,3.57.77,4.95,2a1.6,1.6,0,0,1,0,2.74,3.5,3.5,0,0,1-1,.06,14.94,14.94,0,0,0,2.3,2l-2.51,1a26.39,26.39,0,0,0-.66-2.62,1.81,1.81,0,0,1-2.89.69c-.62-.48-.88-2.09-.59-3.48.08-.37.49-2.43.49-2.43Zm-13.41,40c-24.77,5.89-44.89,2.25-46.89,1.55l-1.57,2.36c-.2.4-.32,1.6-1.39,1.93l-1.6,2.4L54,214l-1.42,1.24.35.42-1,1.51-.41-.05-2.39,3.66.36.41-5.5,8.64,74.42,0c-4.33-8.19-9-16.22-13.23-24.43Zm-.45,1.06.44,1.23c-1.23-.15-2.67-.22-4.13-.29A37.41,37.41,0,0,0,104.68,206.52Zm-4.32,1.07a12.52,12.52,0,0,0-4.88,3.79,12.81,12.81,0,0,0-5.13-2.28Zm-41.82.6,1.05.12s-.35.28-.6.22A1.14,1.14,0,0,1,58.54,208.19Zm47.4.62.67,1.33c-1.61-.86-8.5-2.82-10.46,4.06-2.06-2.8-10.54-6.85-14.85,1.76-1.22-2.33-8.35-9-14.85-.49-2.56-5.31-4.7-5.76-9.41-5,3.35-3.23,8.05.13,10,2.87,5.61-4.66,10.3-3.26,14.39.54,5.29-5.78,10.56-4.39,14.27-1.49C98.34,208.51,100.89,207.35,105.94,208.81Zm-43.29,0c3.33.45,6.66.66,10,.82a15.93,15.93,0,0,0-5.47,2.75,13,13,0,0,0-4.52-3.57Zm24,.54a25,25,0,0,0-5.35,3.5A16.8,16.8,0,0,0,76,209.7,74.27,74.27,0,0,0,86.69,209.38ZM108,212.11s-.67.11-.88.17a2.51,2.51,0,0,0,.72,4.94c.29,0,1-.11,1-.11-.06,2.82.79,3.5,3.66,3.35l4.86,8.72-71.91-.31,4.57-7.33c2.29.27,3.74-1,3.23-3a12.19,12.19,0,0,0,1.81.43c2.6,0,3.27-4,.78-4.68-.28-.07-1-.15-1.06-.17,1.14-2.86,4.27-1.17,5.17,0a3.15,3.15,0,0,1,5.2,1.24s-.37-.21-.49-.3c-2.36-1.73-4.56,1.86-2.25,3.52a3.19,3.19,0,0,0,.71.3,2.72,2.72,0,0,0-.54.67,2.66,2.66,0,0,0,3.07,3.86c1.8-.7,1.82-2.06,1.82-3.55,0,0,.62,0,1.17.06,2.16,0,2.77-2.74,1.46-4A3.47,3.47,0,0,0,68,215.2c2.49-2.45,4.17-.76,5.92.37.26,0,3-3.35,6.34-.07A2.51,2.51,0,0,0,77,217.8c0,1.07.79,2,2.45,2.1a4.61,4.61,0,0,0-.31,1.47,2.57,2.57,0,1,0,5-.64,1.92,1.92,0,0,0-.54-.85,2.42,2.42,0,1,0,.79-4.75,2.49,2.49,0,0,0-2,.91c1.78-3.65,5-2.92,6.25-1.43,1.67-1.21,4-2.88,6.72.08a4,4,0,0,0-1.65,0,2.26,2.26,0,0,0-.46,4.21,3.7,3.7,0,0,0,1.73.36,2.61,2.61,0,0,0,3.84,2.88c1.31-.8,1.65-2.69.24-4.42,2.39-.11,2.62-3.1,1.24-4.15-1.08-.82-2.36-.43-3.28.66-.3-.86,2.07-3.84,5.4-1.69,1.77-1.49,3.52-1.95,5.52-.46Zm1,2.33.93,1.71A1.08,1.08,0,0,1,109.07,214.44ZM97,216.17A1.07,1.07,0,1,1,96,217.23,1.06,1.06,0,0,1,97,216.17Zm-43.64.06c.14.58.2,1.14-.83,1.25Zm12.15,1a1,1,0,1,1-1,1,1,1,0,0,1,1-1Zm16.13.31a1,1,0,1,1-1,1A1,1,0,0,1,81.65,217.57Z"/><path id="path153-6-3-1-9-0-4-7" d="M48.26,26.21c-7.44,10.55-15.4,16.62-15.53,24.85,0,2.67,1.4,7.2,5.94,8.06,2.95.56,7-1.8,7.09-6.62,0-1,1-.93,1,.38A27.25,27.25,0,0,1,43.39,64.7h9.74a27.25,27.25,0,0,1-3.38-11.82c0-1.31,1-1.34,1-.38.09,4.82,4.14,7.18,7.09,6.62,4.54-.86,6-5.39,5.94-8.06C63.66,42.83,55.7,36.76,48.26,26.21Z"/><path id="path153-6-3-1-8-6-4-8-4" d="M131.74,223.79c-7.44-10.55-15.4-16.62-15.53-24.85,0-2.67,1.41-7.2,5.94-8.06,2.95-.56,7,1.8,7.09,6.62,0,1,1,.93,1-.38a27.25,27.25,0,0,0-3.38-11.82h9.75a27,27,0,0,0-3.38,11.82c0,1.31,1,1.34,1,.38.08-4.82,4.14-7.18,7.08-6.62,4.54.86,6,5.39,5.94,8.06-.13,8.23-8.09,14.3-15.53,24.85Z"/></g></svg>