<svg id="Layer_1" data-name="Layer 1" xmlns="http://www.w3.org/2000/svg" viewBox="0 0 180 250"><defs><style>.cls-1{fill:#d40000;}</style></defs><title>all_cards</title><g id="g11338-3-7"><path id="path9902-6-7" class="cls-1" d="M13.88,56.1s-1.79-2.56-4.21-5.56c-1.62-2-2.91-4.19-3-6.07a3.9,3.9,0,0,1,3.53-4.4c2.36-.1,3.32,1.65,3.71,3.1.39-1.45,1.35-3.2,3.72-3.1a3.9,3.9,0,0,1,3.53,4.4c-.12,1.88-1.41,4.06-3,6.07C15.68,53.54,13.89,56.1,13.88,56.1Z"/><path id="path9904-6-0" class="cls-1" d="M166.12,193.9s-1.8,2.56-4.22,5.56c-1.62,2-2.91,4.19-3,6.07a3.9,3.9,0,0,0,3.53,4.4c2.37.1,3.33-1.66,3.72-3.1.39,1.44,1.35,3.2,3.71,3.1a3.89,3.89,0,0,0,3.53-4.4c-.11-1.88-1.41-4.06-3-6.07C167.91,196.46,166.12,193.9,166.12,193.9Z"/><path id="path9910-2-6" class="cls-1" d="M48.26,64.7s-3.76-6.14-8.84-13.36C36,46.51,33.31,41.29,33.06,36.78c-.29-5.14,2.45-10.31,7.41-10.56s7,4,7.79,7.45c.82-3.48,2.83-7.7,7.79-7.45s7.7,5.42,7.41,10.56c-.25,4.51-3,9.73-6.36,14.56C52,58.56,48.26,64.69,48.26,64.7Z"/><path id="path9916-8-0" class="cls-1" d="M131.74,64.7S128,58.56,122.9,51.34c-3.39-4.83-6.11-10.05-6.36-14.56-.29-5.14,2.45-10.31,7.41-10.56s7,4,7.79,7.45c.82-3.48,2.83-7.7,7.79-7.45s7.7,5.42,7.41,10.56c-.25,4.51-3,9.73-6.36,14.56C135.5,58.56,131.75,64.69,131.74,64.7Z"/><path id="path9930-7-9" class="cls-1" d="M131.74,185.3s-3.76,6.14-8.84,13.36c-3.39,4.82-6.11,10.05-6.36,14.56-.29,5.14,2.45,10.31,7.41,10.56s7-4,7.79-7.45c.82,3.48,2.83,7.69,7.79,7.45s7.7-5.42,7.41-10.56c-.25-4.51-3-9.74-6.36-14.56C135.5,191.44,131.75,185.31,131.74,185.3Z"/><path id="path9932-9-8" class="cls-1" d="M48.26,185.3s-3.76,6.14-8.84,13.36c-3.39,4.82-6.11,10.05-6.36,14.56-.29,5.14,2.45,10.31,7.41,10.56s7-4,7.79-7.45c.82,3.48,2.83,7.69,7.79,7.45s7.7-5.42,7.41-10.56c-.25-4.51-3-9.74-6.36-14.56C52,191.44,48.26,185.31,48.26,185.3Z"/><path id="path19-3-8-2-9" class="cls-1" d="M14.07,37.55V35.21h2.12V31.36H5.58V28.64L17.06,11.09h1.88V28.64h3.24v2.72H18.94l-.06,3.85h1.77v2.34Zm2.12-20L8.9,28.64h7.29Z"/><path id="path19-4-46-0-1-9" class="cls-1" d="M165.93,212.45v2.34h-2.12v3.85h10.61v2.72L162.94,238.9h-1.88V221.36h-3.24v-2.72h3.24l.06-3.85h-1.77v-2.34Zm-2.12,20,7.29-11.12h-7.29Z"/></g></svg>