<?xml version="1.0" encoding="utf-8"?>
<!-- Generator: Adobe Illustrator 23.0.1, SVG Export Plug-In . SVG Version: 6.00 Build 0)  -->
<svg version="1.1" xmlns="http://www.w3.org/2000/svg" xmlns:xlink="http://www.w3.org/1999/xlink" x="0px" y="0px"
	 viewBox="0 0 180 250" style="enable-background:new 0 0 180 250;" xml:space="preserve">
<style type="text/css">
	.st0{fill:#FFFFFF;}
	.st1{fill:#E2CF00;}
	.st2{fill:#131F67;}
	.st3{fill:#D40000;}
	.st4{fill:#100F08;}
</style>
<g id="white-background">
	<rect class="st0" width="180" height="250"/>
</g>
<g id="Layer_1">
	<g id="g4942_1_" transform="matrix(0.99999718,0,0,1.000002,-4.9738447,-5.5505123)">
		<path id="path147-6-9-8-7-0-5-6-46-4-5_1_" d="M171.1,215.5c3.2-0.1,4.6-3.8,2.2-6.6c-0.3-0.4-0.4-0.7,0.2-0.3
			c1.6,1.1,4.6,0.4,4.8-3c0.2-4.1-5.4-5.3-6.4-0.9c-0.1,0.5-0.4,0.5-0.3-0.2c0.1-1.8,0.6-3.4,1.4-5.1c-1.3,0-2.5,0-3.8,0
			c0.7,1.6,1.3,3.3,1.4,5.1c0.1,0.7-0.3,0.7-0.3,0.2c-1-4.4-6.6-3.2-6.4,0.9c0.2,3.3,3.2,4.1,4.8,3c0.6-0.4,0.6-0.2,0.2,0.3
			C166.5,211.7,167.9,215.4,171.1,215.5L171.1,215.5L171.1,215.5z"/>
		<path id="path147-6-9-8-7-4-5-62-9-4-5_1_" d="M18.9,45.6c-3.2,0.1-4.6,3.8-2.2,6.6c0.3,0.4,0.4,0.7-0.2,0.3
			c-1.6-1.1-4.6-0.4-4.8,3c-0.2,4.1,5.4,5.3,6.4,0.9c0.1-0.5,0.4-0.5,0.3,0.2c-0.1,1.8-0.6,3.4-1.4,5.1c1.3,0,2.5,0,3.8,0
			c-0.7-1.6-1.3-3.3-1.4-5.1c-0.1-0.7,0.3-0.7,0.3-0.2c1,4.4,6.6,3.2,6.4-0.9c-0.2-3.3-3.2-4.1-4.8-3c-0.6,0.4-0.6,0.2-0.2-0.3
			C23.4,49.4,22,45.7,18.9,45.6C18.9,45.6,18.9,45.6,18.9,45.6L18.9,45.6z"/>
		<path id="path37-5-2-4_1_" d="M13,34.4h-2.2v-3H13c0,0,0-1.6,0.1-4.5c0.1-6.1,0.3-7.1,2.1-8.7c3.5-3.3,9.4-0.6,9.3,4.4
			c-0.1,7,0,13.8-0.2,14.7c-0.4,1.7-0.4,1.8-0.3,2.1c0.3,0.6,3,0.9,3,0.7v3c-2,0.2-2.9,0-4.5-1.2c-1,1-4.1,1.9-6.6,0.8
			C14,41.7,12.6,39.5,13,34.4L13,34.4L13,34.4z M20.5,39.6c-1.1-1.6-3-3.7-4.7-4.5c-0.1,1.8,0,3.3,0.7,4.2
			C17.5,40.6,19.2,40.9,20.5,39.6L20.5,39.6L20.5,39.6z M21.4,22.2c-0.8-2.3-2.9-3.1-4.5-1.6c-1,0.9-1.1,1.8-1.1,7
			c0,3.2,0,4.5,0,4.5c3,1,5.8,4.4,5.8,4.4l0.1-9.6C21.7,25.3,21.6,23.7,21.4,22.2L21.4,22.2L21.4,22.2z"/>
		<path id="path37-3-2-7-4_1_" d="M176.9,226.8h2.2v3h-2.2c0,0,0,1.6-0.1,4.5c-0.1,6.1-0.3,7.1-2.1,8.7c-3.5,3.3-9.4,0.6-9.3-4.4
			c0.1-7.1,0-13.8,0.2-14.7c0.4-1.7,0.4-1.8,0.3-2.1c-0.3-0.6-3-0.9-3-0.7v-3c2-0.2,2.9,0,4.5,1.2c1-1,4.1-1.9,6.6-0.8
			C175.9,219.4,177.3,221.6,176.9,226.8L176.9,226.8L176.9,226.8z M169.4,221.5c1.1,1.6,3,3.7,4.7,4.5c0.1-1.8,0-3.3-0.7-4.2
			C172.4,220.5,170.8,220.2,169.4,221.5L169.4,221.5L169.4,221.5z M168.5,238.9c0.8,2.3,2.9,3.1,4.5,1.6c1-0.9,1.1-1.8,1.1-7
			c0-3.2,0-4.5,0-4.5c-3-1-5.8-4.4-5.8-4.4l-0.1,9.6C168.2,235.8,168.3,237.4,168.5,238.9L168.5,238.9L168.5,238.9z"/>
		<g id="g5457-6-3-6_1_" transform="matrix(1.0221444,0,0,1.026231,3100.8569,-1473.3086)">
			<g id="g3405-1-0-4_1_" transform="matrix(0.15135237,-0.00168536,0.00168536,0.15135237,320.81553,485.20923)">
				<path id="path3391-4-8-9-0_1_" class="st3" d="M-21592.8,7551.1c3.3-42.1,1.4-87.4,3.7-121.6c-1.3-2.4,3.5-9,3.8-9
					c-2.8-5.1-3.6-18.2,0.1-29.7c28.9-104.8,80.1-186,132.8-261.6c40.7,126.5-92.5,213.4-121.6,323.2c-9.7,38-8.6,64.7-12.6,99.1
					L-21592.8,7551.1z M-21812.7,7550.3l-154.7-243.1l34.4-16.1l158.9,258.8L-21812.7,7550.3z M-21604.2,7105.4
					c1.3,6.9,6.8,10.7,12.6,7.6c5.7-3,6.4-3.2,2.8,2.2c-8,12,7.8,23.8,18.1,13.6c3.7-3.6,4.3-9.6,1.1-12.7c-3.7-3.5-4.5-5.3,1-2.6
					c13.7,5.7,21.5-14,8.2-20.8c-3.4-1.8-10.1-0.3-12.7,2.3c-3.1,3.1-3.5,2-2.7-0.4c0.5-1.4,0.9-3.8,2-6.6c0.9-2.2,1.6-5.2,1.6-5.2
					l-14.1,0c0,0,1.1,3.2,2.2,5.9c1.1,2.5,1.4,4.4,2,5.5c1.9,3.8-0.4,2.4-4.2-0.5c-5.3-4-12.1-3-16,2.2
					C-21603.5,7099-21604.8,7102.2-21604.2,7105.4z M-21581.7,6909.2l30.2-0.6l32.2,91.5c-27.1,43.6-34.8,93-4.4,143.5l-95.9-0.9
					C-21596.2,7067.5-21591.8,6987.3-21581.7,6909.2L-21581.7,6909.2z M-21551.4,7028.2c4.1-3.6,4.7-10.1,1-14.5
					c-4.6-5.5-3.5-5.8,2.7-2.2c8.9,5.3,17.7-5.8,12.5-15.7c-3.3-6.3-14.2-7.8-18.4-2.3c-3.5,4.6-3.1,0.4-0.4-5.8
					c1-2.3,2.5-6.5,2.5-6.5l-14.7,0.1c0,0,1.8,4.1,2.8,6.8c2.6,7.1,2.7,9.3-1.4,4.7c-8.9-7.6-19.4-2.3-19.6,8.4
					c0,8.2,7.5,13.6,14.1,9.8c4-2.3,5.8-2.8,1.3,2.5c-3.2,5.1-2.1,11.6,1.9,14.7C-21561.5,7031.8-21555.4,7031.7-21551.4,7028.2z
					 M-21754.3,7054.3c1.2-0.8,1.6-0.3,0.9,0.9c-0.6,1-2.2,2.4-3.6,3.8c-6.9,7.5,1.8,17.2,12.9,15.8c7.5-0.9,12.1-12.6,6.6-17.3
					c-1.8-1.2-3.2-1.5-4.5-3.1c-0.1-0.7,0.2-1.1,0.9-0.8c1,0.4,3,2,4,2.3c7,2,12.3-0.8,14.1-5.7c1.2-5.6,0.2-11.7-4.4-15
					c-4.3-2.9-10.7-2.2-14.5,2.7c-3.9,5-4.3,0.2-1.1-6.7c1.2-2.6,2-6.3,2-6.3l-13.5,0.6c0,0,0.7,2.9,1.8,6.2c2.9,7.6,5,9.8,1.3,5.8
					c-16.4-9.8-22,3.2-22.3,8.4C-21774.6,7055.8-21760.3,7061.6-21754.3,7054.3z M-21686.8,6907.2l24.3,0.4
					c-19.4,96.6-57.9,177.3-121.7,232.4l-119-1.7l-56.9-40.4l22.5-28.3C-21786.7,7086.7-21721.6,7013-21686.8,6907.2z
					 M-21798.7,7130.4c7.2-3,10.2-11,5.6-16.4c-4.2-4.9-4.6-6.4,1.9-2.6c8.7,5.2,17.3-4.8,13.1-14.8c-2.6-6.2-11-8.2-17.1-4.1
					c-5.4,3.9-5.2,2.1-2.4-4.1c1.4-3.1,2.5-8,2.5-8l-14.9,0c0,0,1,3.5,2.1,6c2.4,5.6,3.3,8.1,2.1,8.1c-0.6,0-2.4-1.7-3.4-2.7
					c-2.9-2.7-11-3.3-14.1-0.5c-9,8.4-4.2,23.2,7.2,20.6c7.3-1.7,9.1-4.4,2.9,2.4C-21820.8,7122.7-21809.4,7134.9-21798.7,7130.4
					L-21798.7,7130.4z M-21892.7,7126.4c6.2-2.8,8.3-9.9,4.9-14.4c-3.4-4.6-5.1-7.6,1-3.4c8.2,4.2,15.4-1.2,15.4-10.4
					c0-9.7-10.9-14.4-19.1-8.6c-1.4,1-3.1,1.8-3.4,1.8c-1,0,0.9-5.2,2.9-8.7c0.9-1.5,2.4-4.5,2.4-4.5l-14.9-0.7c0,0,0.8,4,1.9,7.2
					c2.3,6.3,2.9,8.4-1.3,4.8c-11.1-10.5-23.2,2.6-18.6,14.1c2.4,6.5,10.1,6.5,14.6,3.4c4.1-3.1,2,1.1-0.9,4.3
					C-21915.3,7120.2-21904.2,7131.6-21892.7,7126.4z M-21209.3,6891.3l0.6,17.9l-194.4,157.3l-7.9-12.4L-21209.3,6891.3z
					 M-21926.1,6916.9c27.9-19.3,59.2-54.1,89.8-72.1C-21814.6,6895.7-21867.3,6944.9-21926.1,6916.9z M-21419.6,6913.2
					c-18.4-107.5,97.5-83.9,91.2-74.4L-21419.6,6913.2z M-22042.4,6840.6l192.4-152.2l8.5,13.1l-203,161.4L-22042.4,6840.6z
					 M-21518.4,6690.7c0.5,1.6,6.2,7.8,6.2,8.4c-1.6-1.2-11.4-6.8-16.2-1.6c-1.7,1.9-3.9,6.5-3.7,11.3c1.9,8.6,11.7,11.8,18.8,6
					c2-1.7,3.8-3.7,4.2-3c0.3,0.6-0.8,3.6-1.7,5.9c-1.1,2.4-5,7.4-2.2,7.4l13.5,0.1c0,0-0.5-3.2-2-6.7c-3-6.5-2.8-10.1,0.8-5.3
					c7,9.2,20.9,1.8,19.6-9.2c-1-7.9-9-12.5-14.9-8.8c-0.7,0.4-2.6,2.3-2.9,2.3c-0.7,0,1.3-3,2.6-5.5c4.5-8.3-2-16-12-15.3
					c-3.2,0.2-6.8,2.2-6.8,2.5C-21518.8,6682.2-21519.4,6687.4-21518.4,6690.7z M-21352.9,6615.1c18.9,17.6,37.8,30.6,56.8,42
					l-18.3,28c-121.9-12.6-211.1,34.3-249.6,163.8l-20.2,3.6c8.5-80.9,36.7-160.9,118.4-238.5L-21352.9,6615.1z M-21470,6633.2
					c0,3.8,7,8.5,5.4,9.5c-0.7,0.4-4.9-3.3-6.9-3.6c-14.1-1.6-17.2,20.1-3.3,22.7c2.7,0.5,8.4-1.1,10.1-2.5c2.2-1.8,3.8-3.3,4.3-3.1
					c0.8,0.3-1.1,4.2-2.7,7c-1.5,2.7-3.5,8.2-3.5,8.2l16,0.2c0,0-1.4-4.9-2.8-8.4c-1.8-4.4-2.2-7.3-0.9-6.9c0.5,0.1,1.1,1.5,2.2,2.5
					c6.9,6,17.1,3.6,19.8-5.6c2.6-8.7-7.8-17.7-15.1-12.9c-2.6,1.7-2.6,0.4,0-3.4c2.4-3.5,1.8-8.7-0.2-11.9
					C-21455,6616.9-21470.2,6622.5-21470,6633.2z M-21355.3,6660.2c-0.4-1.9,0.1-1.4,2.2,0.8c6.3,6.7,17.4,5.8,20.3-3
					c2.9-8.8-5.6-18.9-13.1-15.5c-3.9,1.8-4,1.1-1.7-1.7c5.8-7.3-0.4-17.2-10.2-17.2c-9,0-14.4,8.5-10.1,16c1.8,3,1.2,3.7-2,2.1
					c-9.1-4.5-17.9,9.8-11.2,18.5c3.9,5.1,13.1,5.7,18.4,0.8c2.8-2.6,2.8-1.4,0.7,4.1c-1.8,4.8-3.8,8.6-3.8,8.6l15.9,0.3
					C-21350,6674-21354.2,6665.9-21355.3,6660.2z M-21698.4,6850.7c4.6-1.1-15.6-67.4-30.6-97c18-41.5,42.4-81.5,2.8-142l97.9,0.8
					c-31,67.8-33.6,239.7-40.7,240L-21698.4,6850.7z M-21688.9,6774.3c0,0-4.8-6.7-5-12c-0.5-3.4,0.4-3.6,2.1-0.1
					c8.6,9.7,20.5,0.6,20.7-7.9c1.1-7.7-8-14.5-13.9-10.7c-4.1,2.7-5.2,1.9-1.5-3.1c5.2-7.1-0.3-16.4-9.5-16.4
					c-12,0-16.7,11.1-8.2,19.2c6.3,5.9,0.4,2.4-4.6,0.3c-9.8-4.2-16.4,5.7-12.1,15.8c3,7,11.9,8.9,17.2,3.3c2.9-3,5.6-4.8,4-0.2
					c-0.9,3.7-5.3,11.7-5.3,11.7L-21688.9,6774.3z M-21672.6,6669.8c0,0-5.7-7.3-6.7-12.7c-0.3-2,1.1-1.5,4.4,1.4
					c10.4,9.1,25.1-6.8,15.4-16.8c-3.3-3.4-6.8-4.4-10.7-2.4c-4.9,2.5-4.5,1.3-2-1.3c3.6-3.8,3.5-10.9-0.4-14.4
					c-10.6-9.6-27.7,4.3-17.9,14.6c4.3,4.5,2.2,3.9-2.5,1c-9-5.5-19.1,9.1-12.4,17.8c8,6.8,14,3.6,19.6-0.6c1.2-0.6,2.3-0.9,2.3-0.4
					c0,1-5.7,13.9-5.7,13.9L-21672.6,6669.8z M-21800.6,6627.7c-6-0.5-9.6-55.9-2.1-73.4c16.4-73.9,64.5-127.3,94.6-172.3
					c48.2-67,43.5-179.3,45.5-174.8l6.7,0.9c0,0-5.9,65.7-3.3,95.5c2.8,26.2,2.1,27.8,0.2,30.3c-0.5,2.4,0.1,9.6-0.4,12
					c-22.2,96.5-73.7,195.4-126.6,269.9L-21800.6,6627.7z M-21310.8,6464.1l-157.4-252.7l38.5-3c14,22.6,150.9,238.6,150.9,238.6
					L-21310.8,6464.1z"/>
				<path id="path3395-8-0-1-6_1_" class="st1" d="M-21982.8,7552.8c19-66.1-28.7-221-59.3-241.5c36.2-1.1,79.7,0,78.4-3.4
					c0,0,151.2,242,149.9,243.3C-21815,7552.5-21982.8,7552.8-21982.8,7552.8L-21982.8,7552.8z M-21355,7183.4
					c-37.2-5.7-22.2-36.2,1.8-39.2c-3.1,0.5,2.7-15.2,22.1-21.4c4.5-7.9,8.1-21.3,12.2-27.6c-11.6,3.6-25.8,13.2-78.4,4.9
					c4.9-24.7,55.3-28.4,73.4-24.4c10.5,2.5,20.6,18.2,23.8,18.5c32.4-5,73.2,24.5,60.4,53.9c-2,4.2-6.8-5.1-17.6-9.1
					c-35-13.1-37.3-32-45.3-40.5c-2.9-0.6-18.8,29.8-18.8,29.8l4.6,20.8c8.4-0.7,45.7,22.8-1.2,37.8
					C-21331.3,7231.1-21355.3,7199.6-21355,7183.4z M-21264.5,6987.2c-2-2,1.7-15.7,6.6-23.6c2.6-4.2,8.5-7,12-6.4
					c6.2,1.1,5.1,10-3.4,36C-21249.7,6997-21258,6997.3-21264.5,6987.2z M-22005,6796.2c-10.2-0.2-0.7-27.7,5.6-36.4
					c2.1-2.7,10.2,3.2,10.6,7.2C-21988.1,6774.2-21999.5,6799.1-22005,6796.2z M-22010.2,6608.3c12.5,3.1,32,15.8,41.4,22.8
					c11.6,8.8,8.2,25.8,17.6,27.4c6.4-3,18.3-30.8,18.3-30.8s3.1-14.3-5.1-18.8c-20.4-11.2-19.9-23.1-18.6-24.1
					c6.3-15.6,18.4-12.7,24.9-13.5c0.2-8.6,0.2-26.7,18-24.6c15.6,1.6,16.9,23.9,10.3,24c-0.1-0.4,29.6-3.9,29.1,15.6
					c-0.3,10.6-18.1,23.9-23.5,18.9c0,0,2.7,21.1-24,28c-6.3,6.2-11.7,32.9-11.6,30.5c16.2-14.2,41.4-17.3,81-11.7
					c-25.1,45-92.8,23-98,14.2C-21984.4,6655.5-22016.4,6641.8-22010.2,6608.3z M-21716.2,6503.1c36.1,3.7,75.8-7.2,105.8-0.9
					c3.4,0.5,7.1,5.6,9.1,6.7c15.5,8.6,31.8,6.2,56.9-3c6.2-2.3,120.9-0.1,120.9-0.1c25.7,38.6,71.3,111.2,72.4,108.8
					c0,0-63.6-1.4-92.9,0c-20.6,1-8.5,3.9-22.8,4.4c-101,73.6-121.9,234.9-121.9,234.9s31.9-8,40.2,0.9
					c40.7-114,116-165.4,220.2-154c48.1,5.3,105.1,53,105.1,53l-104.1,82.2c-79.5-40.9-115,76.7-90.8,77.2l209.6-166.3
					c0,0,3.4,13.8,3,14.3c-15,19.1-264.9,216-264.9,216l-10.7-12c0,0-6.9,5.9-10.5,9.9c-0.4,6.5,1.8,12.1,6.8,17.3
					c-49.5,38.5-51.9,110.2-16.2,149.8c0,0-16.1,0.9-17.7,1.2c-20.4,3.2-40.4-96.8,0.5-142.8c-19.9-39.9-31.9-94-34.4-96.6
					c0.5,6.4-32.2,3.9-32.2,3.9c-3.4,80.6-12.8,159.6-33.1,235.6l150.2,4.9l-65.2,109.5c0,0-71.8-2.6-102.7-5.1
					c-32.1-19-50.9-5-81.2,1.5c-43.1,0.8-106.6-1.9-106.6-1.3c-21.1-42.7-43.9-74.2-74.9-110.9c-3.9-6.7,127.7-1.1,127.7-1.1
					s66.9-98.1,79.2-125.9c9.6-21.7,31.5-100.8,31.5-100.8c0.9,4.1-11.7-20.8-41.8-20.5c-26.7,164-223.9,217.1-341,110.1l-0.9-19.1
					l263-207.1l11.4,13.4c-2.5-2-161.4,126.4-158.8,125.6c46.4,24.8,100.7,5.7,95.3-74c37.3-26.1,70.4-56.7,102.9-87.9
					c0.7-1.2,35.1,78.9,34,94.3c20.3-6.5,32.2,7.8,31.8,5.3c-6.8-46.2,35.8-220.6,36.8-240.7c-22.6-2.1-52.5-1.6-99.5-3.9
					c36.9,72.9,23.3,121.9-30,166l-10.9-13.9c4.5,2.5,77.7-59,20.3-152.8c-2.7,0.2-30.8-2.9-30.8-2.9
					S-21719.3,6515.9-21716.2,6503.1z M-21432.8,6206.4c0,0,164.6-2.1,164.6,2.7c-6.2,87.7,13.5,168,62.4,242.6
					c0,0-72.8-3.4-71.5-2.5L-21432.8,6206.4z"/>
				<path id="path3393-8-5-4-3_1_" class="st2" d="M-21191.3,6202.9l-854.7-9.5l-15.2,1362.6l854.7,9.5L-21191.3,6202.9z
					 M-21271.7,6207.9c-0.1-0.1-12.6,144.1,62.1,239.4c-46.2-7.5-72.8-0.7-100,17.9l3.7,3.8c37.4-22.2,68.8-15.9,101-12l-2.1,185.6
					c-0.3,9-38.7,4.6-62.1-13.4c-11.2-6.7-25.5-20.7-31.9-31.2c-1.9-3.2-4-6.3-4.5-7c-2.1-2.5-15.4-27.6-39.6-75.2
					c-12.3-24.2-28.6-57.2-41.9-82.8c-8.6-16.6-24.5-47.8-25.6-50.3c-2.3-5.2-19.7-39.8-26.5-52.3c-17.9-33.2-46.7-91.2-56.9-111.9
					c-2.3-5.4-5.8-7.9,0.6-7.6c1.4,0.1,2.8,0.2,3.6,0.3c1.1,0.6,2.5-1.9,2.5-1.9L-21271.7,6207.9z M-22043,6980l0.2-14.6
					l251.3-200.8l7.8,10.2L-22043,6980z M-21797.8,6626.1c-1,0.4-2.1,0.7-3.3,1.1c-6.1-28.3-2-66.1,5.8-94.4
					c11.4-39.3,32.2-70.7,55.4-102.2c52.9-72,76.6-126.4,76.7-223.8l7.4,0.9c-0.5,15.4-2.7,26.9-3.5,47.4c-1.2,21.9-1,38.6,1.1,60.1
					c1,10.5,1.7,17.4-0.1,18.7c-0.9,0.7-1.7,4.3-0.9,5.7c-0.2,2.9-0.6,8.8-0.6,8.8C-21672.4,6406.2-21738,6554.2-21797.8,6626.1z
					 M-21768.2,6758.3l-13-16.2c0,0-10-8.2-0.8-17.3c26.6-26.2,27.2-59.9,2.1-90.4c-1.7-3.9,8.2-23.2,8.2-23.2l20,0.6
					C-21721,6649.8-21713.2,6716.6-21768.2,6758.3L-21768.2,6758.3z M-21748.2,6608.8c0.7-2.6-29.7-1.9-29.7-1.9
					c19.1-27.7,35.5-56.1,51.5-84.7c24.9-43.2,59.6-119,70.8-174.1c7.2,64.7,17.6,160.7,73.2,165.1c18.2,1.4,39.5-10.7,42.9-8.6
					l115.7,0.4c23.2,48,48.3,79.1,78.1,112.1c21.5,12.5,47.9,22.5,73.4,29.1c14.5,3.7,15.9,1.4,44.5,5.8c7.5,1.2,19.1-1.9,19-1.9
					c-23.1,17.7-49.4,12.3-78.4,4.3c-1.6-0.4-3.3-1-5-1.6l-22.3,32.5c-48.7-12-205.7-5.6-248.9,163.2c0,0,4.2,2.2,3.2,1
					c34.5-146.6,173.5-174.4,239.5-159l-5.8,8.6c-109.6-14.5-199.7,52.6-222,149l2.1,1.9c42.8-145.7,216.5-197.8,322.7-95.3
					l19.8-13.6l-0.8,18.7l-266.3,216.6l-10.4-11c0,0-1.9,1.4-4,3.1c-6.9,5.6-9.6,6.9-7.7,10.1c1.9,3.2,9.2,10.3,9.5,11.1
					c-44.1,34.9-58.8,103.1-17.8,151.3c4.6,5.1,3.7,6.5,2.9,0.8c-36.9-40.7-31.3-112,15.6-145.2l9.2,12.3
					c-21,44.4-32.7,113.9,21.1,120.6c18.7,51.5-4.2,112.1-29.4,152.6c-26.8,46.7-59,85.4-79.5,136.3c-9.9,21.2-26,84.4-25.7,132.8
					l-5.8-0.1c0.2-19.7,1.8-43.1,2.1-58.1c1.6-73,1.5-68.6,3.1-70.5c0.6-0.6,2.1-1.2,2.3-1.8c0.2-0.8-1.2-2.3-1.7-4.1
					c-0.6-1.8-1.5-5.1-1.4-7.8c0.1-2.7,2.7-6.6,2.2-7.5c-11.1-40.4-11.3-112.8-48.3-146.4c-18.2-15.8-42.5-16.7-74.2-4.3
					c-69.6-0.7-59.3,3-115.5-0.8c-22.8-42.5-50.5-84-80.7-114.9c-14.1-16-33.8-24.8-52.3-36.5c7.6-14,16.2-24.2,25.6-30.8
					c2-2.7,3.3-5.6,5.8-7.9c189.3,20.2,232.4-161.6,223.7-157.1l-1.7,1.4c-53.9,187.2-238.2,178.3-330,96.1c0,0-13.2,11.1-13.1-1.2
					c0.1-11.3,4.3-14.5,4.3-14.5l262.5-207.7c4.7,3.1,9.7,13.1,11.9,12c4.8-2.5,11.9-7.5,11.8-10.5c-0.1-2.3-9.3-17.1-9.3-17.1
					C-21695.3,6690.3-21726.4,6658-21748.2,6608.8L-21748.2,6608.8z M-21645.1,6207.8c1.3,0,2.4,0.6,3.3,2
					c1.6,2.5-4.9,16.9-8.9,19.5c-3.7,2.4-4-0.4-1.1-14.4C-21650.9,6210.7-21647.8,6207.8-21645.1,6207.8z M-21263.4,6212.4l61.2,0.7
					l-2.6,229.6C-21249.1,6379.4-21271.6,6306.9-21263.4,6212.4z M-21628.9,6208.7c1.5,0,2.8,0.4,3.2,1.5
					c1.5,3.9-7.5,20.5-18.6,34.3c-5.8,7.1-8.6,9.2-10.4,7.5c-1.5-3.3-1.4-7.1,3.9-13c4.4-4.9,11.8-16.3,14.9-22.8
					C-21634.5,6212.4-21633.1,6209-21628.9,6208.7z M-21567,6210.3c1.8,0,3.6,0,4.1,0.9c10.3,21.4,29.9,40.9,50,51.4
					c2.9,1.7,1.5,5.9,2.5,8.8c-22.7-3.6-52.3-36-60-59.4C-21570.5,6210.1-21568.8,6210.2-21567,6210.3z M-21531.4,6210.6
					c4.5,4.6,11.5,10.2,13.1,15.4c0.9,3.2,1.6,6.9,0.9,8.6c-4,2.4-23.4-20.5-22.6-23.1C-21537.5,6210-21534.4,6209.7-21531.4,6210.6
					z M-21616.7,6209.4c1.9,0.1,4.9,0,5.3,1.5c2.3,9.9-20.8,48.1-37.5,58.9c-5.9,3.8-6.3,2.8-5.8-3.7c0.4-4.4,0.8-4,6.9-9.7
					c8.7-8.1,18.3-20.6,23.6-31.7C-21617.3,6210.3-21619,6209.4-21616.7,6209.4z M-21601.3,6209.7c2.2,0,4.2,0.8,4.7,1.7
					c0.7,1.3-0.3,3.4-1,6c-7.7,20.9-26.7,51-48.7,68c-8.6,6.4-10,6.4-10.6-0.4c-0.3-3.9,1.5-5,5.5-7.7
					c18.7-12.6,35.6-34.5,42.9-57.1c1.4-4.4,0.9-8.4,3.4-9.7C-21603.9,6209.9-21602.6,6209.7-21601.3,6209.7z M-21486.6,6247.4
					c0.9,1.5,7.1,11.5,2,7.7c-2.1-1.8-5.9-6.2-12-13.2c-14.4-16.6-14.9-15.6-14.5-19.7c0.2-5.3-3.5-14.1,4.7-11.8
					C-21498.4,6220.1-21493.5,6235.5-21486.6,6247.4z M-21552.7,6210.6c1.7,0,3.6,0.3,5.2,0.7c9.4,18,32.7,34,32.6,34
					c0,0,0.5,7.8-0.4,9.2c-0.5,2.4-37-25.7-40.9-42.4C-21555.7,6210.9-21554.3,6210.6-21552.7,6210.6z M-21578.8,6210.6
					c8.5,15.8,25.9,51.8,67.5,66.7c3,0.7,6.1,9.2,3.8,11.5c-22.9-6.9-64.2-29.6-77.8-78.1
					C-21583.9,6209.5-21580.3,6209.7-21578.8,6210.6z M-21590.1,6213.5c-1.4,0,19.1,61,79.2,79.7c5.2,1.7,8.2,4,7.9,7
					c-0.5,3.9-0.3,4.3-6.1,1.4c-16.4-8.7-39.8-13-59.5-3.3c-3.1,1.5-6.2,5.7-3.8,8.4c1.4,1.4,4.9,0.4,9.3-1.3
					c22.9-8.6,57.8-3,63.8,10.9c4.3,9.9,4.9,17.1,2.5,18.3c-1.8,0.9-4.9-2.4-10.3-7.3c-17.2-15.3-37.9-19.8-54.6-5.4
					c-3.6,3.1-7.1,2.5-8.4,3.8c-1.2,1.2,0.2,4.1,1.2,6.9c1,2.9,1.1,3.7,0,6.1c-1.5,3.3-1.6,7.6-1.5,10.8c0.3,7.8,5.4,14.5,20.1,24.9
					c11.5,8.1,20.5,12.7,6.5,1.2c-24.1-19.8-28.4-27.8-12.7-20.9c15.7,6.5,37.5,0.4,53.1-11.1c5.3,0,8.4-0.9,11.1,1.1
					c11.2,27,20.2,62.8,35.2,97.6c-18.5,20.3-82.7,69.8-128.1,67.5c-39.2-2-52.3-65.8-60.6-101.1c-2.8-14.9-5.9-30.1-5.3-51.2
					c0,0,0.7-0.6,1.7-0.4c6.6,1.3,17.9,2.3,23.6,1c10.5-2.3,12.6-4.1,13.2-2.6c0.7,1.8-3.7,5.8-11.3,10.9c-3.3,2.2-13,6.7-12,7.4
					c2.3,1.5,14-4.5,15.9-6.1c3.1-2.5,5.2-2.7,6.6-1.2c1.7,1.7,2.1-0.1-3.7,13.7c-6.4,15.2-5.8,16.6,6.2,26.1c4.2,3.3,8,6.6,8.9,8.1
					c1.1,1.9,1.9,4.1,2.4,4.8c2,2.7,0.8-1.6-0.3-8.6c-1.3-5.2-6.4-10.3-9.9-12.8c-6.5-4.6-5.5-9.1,0.2-24.5
					c16.6-45.6,12.7-66-4.9-76.1c-7.9-4.6-30.3-3.6-37.5,2.2c-3.5,2.8-3-2.8-2.4-3.2C-21611.5,6267.7-21601.2,6240.1-21590.1,6213.5
					z M-21508.2,6236.9c11.9,12,26.8,28.4,35.7,40c4.9,6.2,7.4,12.5,11.3,19c0.7,1.2,1.5,2.5,0.9,3.1c-0.2,0.2-1.9-0.8-2.9-1.5
					c-8.8-6.7-44.8-48.4-44.8-48.4C-21509.6,6242.1-21510.7,6239.8-21508.2,6236.9z M-21501.3,6265c0,0,31.3,34.7,49.2,51.8
					c3.5,7.5,10.2,18.3,10,20.1c-0.1,0.8-3.8-2.2-3.8-2.2c-19.8-18.6-38.1-39.4-57.1-59.1c0.2,0.1-1.4-8.1-1.4-11.4
					C-21504,6262.5-21502.1,6264.3-21501.3,6265z M-21433.6,6353.7c4.2,6.9,7.2,13.1,9.2,17.2c3.3,6.4,2.2,6.6-0.8,4.2
					c-22.4-18.7-41.2-41.3-62.3-62.1c-2.7-2.9-8.2-9.2-8.2-9.2c0.2,0.2-6.8-14.9-2.3-14.5c3.5,1.4,5.8,5.2,8,7.6
					C-21478.9,6309-21457.8,6329.7-21433.6,6353.7z M-21630.7,6302.5c9.3-0.2,18.5,2.3,23.1,8.1c4.2,5.2,5.8,13.4,3.4,15.8
					c-1.5,1.5-6.6-2.8-6.6-2.8c-21.9-12.5-29.5-6.7-41.5-3.2c-1.7,0.5-3.5-4.1-1.2-8.6C-21649,6304.3-21637.9,6302.6-21630.7,6302.5
					z M-21492.4,6315.6c23.3,23.7,46.9,50,72.1,70.4c3.5,3.1,6,5,7.6,6.7c3.3,6.6,10.8,22.5,10.8,22.5
					c-27.1-19.2-87.8-85.2-87.1-84.8C-21488.4,6330.7-21494,6318.4-21492.4,6315.6z M-21538.5,6319c4.3,0,9,1.4,12.7,2.9
					c11.8,4.8,19.2,9.9,7,8.1c-17.1-2.5-22.9-2.7-29.2-1.8c-11.6,1.7-12.6,3-13.6,1.2C-21564.2,6324.5-21551.4,6318.9-21538.5,6319z
					 M-21635.5,6319.3c4.3,0,8.9,1,13.5,3c14.4,6.5,16.9,10.6,4.6,8.5c-6.4-1.1-18.1-1.1-26.6,0.9c-2.7,0.7-5.6,2.2-6.3,2.4
					c-3,0.9-3.8-1.3-2.5-5C-21650.5,6322.7-21643.7,6319.2-21635.5,6319.3z M-21530.8,6338.8l3,0.3c-4,21-25.1,18.7-30.6,0.6l3,0
					C-21544.4,6357-21536,6346.9-21530.8,6338.8z M-21519,6340c9.8,0,9.1,5.8-1.1,9.6c-7.8,2.9-8.7,2.4-5.8-3.4
					C-21523.1,6340.7-21523.4,6340-21519,6340z M-21619.7,6339.6c0.7,18.9-25.9,22.1-27.3,1.4l2.5-0.1c8.5,16.3,18.7,6.6,21.9-1.4
					L-21619.7,6339.6z M-21607.9,6342.4c3,2.1,1.1,4.9-5.5,8.7c-5.9,3.6-7.4-0.8-2.5-6.9
					C-21613.8,6342.3-21610.4,6340.7-21607.9,6342.4z M-21561.8,6342.9c1.2-0.4,3.9,4.8,1.5,6c-1.4,0.7-3.4-1.4-3.7-3
					C-21564.1,6344.7-21563.3,6343.3-21561.8,6342.9z M-21482.2,6344.9c17.5,19.6,35.2,39.3,86.9,82.1c0,0,7.2,13.1,8.8,18.2
					c-1.3,1.5-1.9,1.4-5.6-0.5c-33.8-26.5-65.1-58.6-89.5-88.4C-21482.8,6352.2-21485.4,6348.1-21482.2,6344.9z M-21651.3,6345
					c2,0,4.8,4.5,3.2,7.1c-1.3,1-3.3-0.6-4.2-1.8c-0.9-1.2-0.8-3.5-0.3-4.5C-21652.2,6345.2-21651.8,6345-21651.3,6345z
					 M-21475.1,6373.8c-0.1-0.7,81.5,83.4,92.2,81.9c4.9,2.9,16.9,26.7,16.9,26.7c0.3,0.8,0.3,2.1-1.7,1.1
					c-13.9-7-71.7-55.8-101.2-91.9C-21471.1,6386.4-21473.6,6379.7-21475.1,6373.8z M-21573.4,6384.9c14.3,7.1,8,21.2-7.1,12
					c-11.9-7.4-21.4-8.1-21.4-1.9c0,2.6,3.2,6.1,6.4,6.1c5.9,0.4,11.3,2.7,17.1,4c9.1,2,15.9-0.3,18.2-5.7c4-9.2-5.1-19.5-11.1-19
					C-21577.5,6380.8-21576,6383.7-21573.4,6384.9L-21573.4,6384.9z M-21459.6,6408.9c-1-0.9,40.6,45.4,97.5,83.8
					c2.2,2.6,7.6,15.9,8.5,17.6c-0.2,1.2-1.5,0-1.5,0c-28.8-17-66.7-50.4-102.5-88.2c0,0-3.4-8.3-4.4-13.8
					C-21461.2,6408.1-21460.4,6408.6-21459.6,6408.9z M-21555.4,6424.3c-1.3,0.2-3.1,2.1-5.3,3.3c-4.4,2.4-5.8,3-16.7-0.4
					c-5.9-1.8-6.8-1.7-10.4,0.8c-3.1,2.2-4.8,2.6-8.2,1c-6.1-2.8-9-0.9-14.7,1.1c-5.5,1.9-7.3-0.5-12.2-1.7
					c-0.7,0-1.1,19.6-0.5,20.2c0.2,0.2,5.1-2.9,7.9-4.3c4.8-2.3,4.1-2,11-1.6c10.2,1.9,20.3,1.4,27.2-1.2c8.6-2.3,15.2-1.8,21,3.1
					c3.5,2.9,8.3,2.5,5.6-2.9c-0.9-1.9-3-8.7-2.7-11.2c0.4-3.8-0.4-6.2-1.8-6.3C-21555.2,6424.3-21555.3,6424.3-21555.4,6424.3z
					 M-21446.5,6440.8c19.2,18.7,42.7,47.1,98.6,80.3c2.9,5.1,6.8,11.9,9.2,17.2c0.2,1.5-0.2,2.8-1.6,2.2
					c-34.5-22.2-53.7-33.1-101.3-80.7c-2.9-4.8-6-13-8.4-19.6C-21449.4,6438.5-21447.2,6440.4-21446.5,6440.8z M-21454.7,6447.8
					l21,40.3l-72.4-1C-21487.5,6476.5-21469.8,6462.1-21454.7,6447.8z M-21574.7,6447.4c-11.9,4.6-13.7,5.5-25.5,2.5
					c-6.8-1.7-5,2.2-1.5,3.9c8.8,4.2,21.8,1.5,26.6-1.8C-21571.9,6450.1-21569.7,6445.5-21574.7,6447.4z M-21587,6459.6
					c-12.4,0-24.2,4.2-25.2,9.2c-0.2,1,0.8,2.1,2.8,0.9c8.5-4.9,29.4-6.4,45.2-0.5c2.6,0.9,3-0.6,0.4-2.8
					C-21569.7,6461.5-21578.5,6459.6-21587,6459.6z M-21429.2,6478.5c23.2,21.7,45.6,41.7,95.7,71c3.5,7.9,8.7,17.4,9.6,18.2
					c-47-23.3-98-68.8-98-68.8s-7.9-14.4-9.7-20.6C-21431.8,6476.2-21429.9,6477.9-21429.2,6478.5z M-21413.5,6512.1
					c0,0,42.7,36.7,91.6,61.8c2,1.9,6.8,13.6,8.4,14.9c1.6,1.3-2,1.2-5.5-0.6c-25.6-12.1-80.4-50.3-80.4-50.3
					C-21404.5,6529.2-21412,6520.1-21413.5,6512.1z M-21931.3,6657.7c4-8.3,8.2-17.6,10.9-25.2c11.7,0.3,17.6-4.1,21.8-9.3
					c6-0.1,10.5,0,18.6-0.2c-0.2-8,0.3-19.2,0.3-19.2c8.3-8.3,14-17.9,1.4-32.9c0,0-0.4-6.9-0.5-18.7c-5.9-1-19-0.5-19-0.5
					c-10.5-15-29.4-11.4-35.2-0.4c0,0-8.5,0.4-14.3,0.3c-0.2,3.1-1.3,17.1-1.3,17.1s-25,16.5,0.5,36.6l-0.5,16.6
					c4.8,0.4,8.3,0.2,14.5,1.4c0,0-10.1,22.6-16.7,33.3c-2.2,0.6-1.7-0.7-4.3-8.3c-3.1-8.9-10.3-18.7-16.4-23.5
					c-8.3-6.5-19.7-8.6-27.7-14.3c-7.6-5.5-13-12.4-15.5-11.2c-0.8,2.7-1.9,18.2,0.9,28.2c3.9,16.4,27.5,27.1,47.2,35.2
					c1.5,1,2.8,2.5,2.8,3c0,2.7-2.6,1.8-9.1,1.1c-9.8-1.1-13.9,1.5-17.5,9.8c-1.1,2-3.5,5.6-5.6,7.9s-4.1,4.6-4.4,5.6
					c-0.3,1-2.4,6-4.5,10.2c-1.3,2.6-3.4,5.3-3.6,9.1c-0.6,11.7-0.9,27.5,0.7,37.5c1.2,7.3,10.5,11.6,13.7,12.2
					c4.9,1,5.7,5.9,4.9,10c-4,19.9-15.7,32-19.3,25.4c-1-1.7-1.9-9.9-2.2-9.8c-0.2,0.1-2,6.9-1.4,9.7c0.7,3,4.5,5.3,8.4,3.9
					c5.7-2,10.2-7.5,13.8-20.1c1.5-5.2,2.9-8,5.3-8.4c4.5,0.4,11.3,9.6,11.3,9.6c-23.4,19-68.4,53.3-68.4,53.3l7-629l366,4.1
					c1.5,49.9-5.1,92.3-23.6,136.6c-21.9,47.6-55.5,82.8-81.3,126.6c-31.2,52.8-41.7,107.9-31.8,163.5
					c-31.8,40.4-58.3,59.6-83.6,78.2c0,0-18.6-19.8-28.9-30.9c0,0,4.4-0.3,9.6-0.5c23.8-2.4,49.6-5.4,59.8-29.9
					c1.4-2.7,0.9-3.9-0.8-4.3c-18.7,2.4-34.8-0.4-45.4,0.2C-21920.3,6648.9-21931.3,6657.7-21931.3,6657.7L-21931.3,6657.7z
					 M-21928.7,6675.8c0,0-29.7-14.4-31.9-14.9c-13-2.5-44.2-19.1-49.4-30.2c-0.7-1.4-2.2-21.6-2.7-25.8c0.2-1.3,0.7-1.3,2-0.3
					c3.3,2.3,16.3,10.9,21,13.3c19.7,9.8,27.4,16.7,32.1,31.2c1.2,3.6,2.4,7.4,3.1,8.2c1.6,1.7,2.2,1.6,4.3,0.1
					c8.6-10.8,12.7-19.9,16.8-31.6c0.5-1.3,1.6-2.6,1-4.5c-1.5-5.2-5.2-11.9-1.3-17c-12.4,0.4-24.2-8.7-22.6-17.8
					c3.5-16.7,10.6-13.6,24.1-15.9c-1.1-38.8,35.3-28.9,34.9-2c40.1,3.8,20.7,40.4-2.5,34.5c9,21-18.8,28.6-22.7,25
					c-1.6,6.8-12.5,28.4-14.8,34.9c30-20.6,77.7-10.8,84.6-12C-21870.5,6686.7-21926.8,6677.4-21928.7,6675.8z M-21391.9,6549.7
					c7.5,5.9,71.1,46.3,82.9,47.4c0,0,5.6,6.4,10.2,12.2c4.3,5.4,5.9,6.2,6.4,7.3c0.5,1.1-1.7,1-2,1c-28.7-12.8-57.8-26.2-82.5-47.1
					c-3.3-2.9-4.1-4.2-5.7-6.3C-21384.9,6561.2-21391.3,6550.8-21391.9,6549.7z M-21371.1,6582c29.1,16.7,53.8,32.8,80.4,41.6
					c3.8,1.5,5.7,1.6,7.6,2.9c1.9,1.3,10,6.4,11.9,7.6c12.1,7.2,13.3,6.9,10.3,8.1c-3.4,1.3-24.7-5.2-42.6-12
					c-31.9-12.1-43.2-18.9-54.6-29.4C-21360.8,6598.1-21372.8,6583.5-21371.1,6582z M-21955.8,6666.7c2.5,0,6.4,1.5,10.5,4.7
					c4.4,3.4,15.1,10.5,19.5,12.5c2.3,1,3,1.3,3,1.3l28.4,32.8l-74.8,59c0,0-5.9-6.2-7.8-8.2c-1.8-2-1.2-3.6,1-5.7
					c1.8-1.7,2-5.5,1.7-7.4c-0.4-2.8-0.3-5.9,3.3-8.5c2.9-2.1,3.4-5.7,3.2-6.7c-0.1-0.8,1.6-3.5,4.1-5.2c5.2-3.7,6.9-8.3,5.2-13.7
					c-0.7-2.3-1.1-2.9,1.9-4.8c5.3-3.4,6.7-6.7,7.1-11.9c0.1-0.8-0.1-1.7-0.2-2.3c-1-5.5,3.8-4,7.7,2.8c2.1,3.7,2.7,9.9,3.7,16.8
					c1.2,8.2,2,10.5,2.5,9.3c2.6-6.6-0.1-31.5-7.7-34.9c-11.1-5.1-20.3-15.2-17.4-19.1c1-1.4,1.1-0.9,7.9,2.3c4,1.9,7.6,3.4,8.2,3.4
					c7.8,0.3,3.1-3.1,0.6-3.4c-3.1-0.5-12.2-6.1-13.2-8.1C-21959.2,6668.3-21958.2,6666.7-21955.8,6666.7z M-21974.8,6670.7
					c7.2,0,8.6,1.9,8.6,8.1c0,3.7,1.3,6.5,7,13.8c2.3,3,3.9,5.3,3.7,6.5c-0.3,1.9-1-0.1-8.9-1.1c-2.8-0.4-4.3-0.4-5.3,1
					c-2.8,4-8.6-0.3-12.1-6.3C-21990.1,6678.5-21987,6670.7-21974.8,6670.7z M-21836.9,6680.8l77.7,96.7l-9,6.8l-78-95.4
					L-21836.9,6680.8z M-21850.1,6686.6l8.3,14.2c0,0-24.6,20.4-31.1,26.2c-52.3,41.1-170.5,134.5-170.5,134.5l-1.4-19.1
					L-21850.1,6686.6z M-21992.4,6687.5c1.5,0.1,3.3,2,5.7,5.8c2.1,3.3,6.7,9.9,11.6,14.5c9.5,8.9,10.4,8.1,2.6,8.9
					c-3.1,0.3-4.1-0.1-6,4.6c-5.8,7-22.4-18.5-18.3-28.2C-21995.2,6689.3-21993.9,6687.5-21992.4,6687.5z M-21965,6701.5
					c1.4,0,3.3,0.5,5.5,1.9c4.2,1.7,4.4,2.7,3.7,6.7c-0.7,3.8-3.6,4.7-9.3-0.3C-21969.4,6705.6-21968.7,6701.7-21965,6701.5z
					 M-21839.3,6705.3l9.1,12l-211.7,166.4l0.2-19.4C-22036.6,6865-21900.7,6750.2-21839.3,6705.3z M-22002.3,6705.4
					c0.6-0.1,1.4,1.8,3.7,5.3c4.7,7.1,9,11.9,13.9,15.6c4.7,3.6,5.2,5.5,1.9,5.5c-1.4,0-3.3,1.4-4.3,3.1c-2,3.4-2.2,2.6-5.2,0.7
					c-4.4-2.6-8.7-6.5-10.4-11.6c-1.6-4.8-1.7-12-0.3-17.3C-22002.7,6705.9-22002.5,6705.5-22002.3,6705.4z M-21969.2,6719.2
					c5.4-0.1,9.1,6.1,5.5,11.1c-2,1.9-3.8,2.8-7.7,0.4c-5.1-3.1-6-7.8-1.8-10.3C-21971.8,6719.6-21970.5,6719.3-21969.2,6719.2z
					 M-22003.9,6732.3c1.1,0,3.1,1.6,6.5,5.1c2.6,2.7,7.1,5,8.9,6c4.1,2.3,4.2,3.1,2,4.9c-1,0.8-4.1,0.8-4.9,3.2
					c-2.5,7-12.6-1.3-13.5-11.3C-22005.3,6735.1-22005.3,6732.3-22003.9,6732.3z M-21978.2,6733.4c6.7,0.4,9.8,8.2,4.4,11.9
					c-2.9,2.1-10.2-1.7-10.9-5.5C-21985.2,6737.3-21980.8,6733.2-21978.2,6733.4z M-21821.6,6740.9c3.9,0,7,3.2,7,7.1
					c0,3.9-3.2,7-7.1,6.9c-3.9,0-7-3.2-7-7.1C-21828.6,6743.9-21825.5,6740.8-21821.6,6740.9z M-21842.6,6743.5c3.9,0,7,3.2,7,7.1
					c0,3.9-3.2,6.9-7.1,6.9c-3.9,0-7-3.2-7-7.1C-21849.7,6746.6-21846.5,6743.5-21842.6,6743.5z M-21983.7,6751.3c0.4,0,0.9,0,1.3,0
					c6.5,0.4,6.7,6.5,2.9,9.7c-2.3,1.9-4.4,2.5-7.3,0.1C-21992.1,6756.9-21990.1,6751.6-21983.7,6751.3z M-21827.2,6763.3
					c3.9,0,7,3.2,7,7.1c0,3.9-3.2,7-7.1,6.9c-3.9,0-7-3.2-7-7.1C-21834.3,6766.3-21831.1,6763.2-21827.2,6763.3z M-21209.3,6770.6
					l-0.2,17.7l-250.6,202.5l-8.3-11L-21209.3,6770.6z M-21841.5,6765l-18.8,40.8l-5.4-10.6l-13.7-0.2l4.4-12.2l-8-9.9
					L-21841.5,6765z M-21452.3,6939.8l33-25.7c-13.3-70.7,43.2-98.1,96.3-77l33.5-27.7
					C-21350.5,6757.1-21495.8,6790.5-21452.3,6939.8z M-21893.2,6797c3.9,0,7,3.2,7,7.1c0,3.9-3.2,6.9-7.1,6.9c-3.9,0-7-3.2-7-7.1
					C-21900.2,6800.1-21897.1,6797-21893.2,6797z M-21914.5,6798.5c3.9,0,6.8,3,6.7,6.8c0,3.9-3,7.2-6.9,7.2c-3.9,0-7-3.2-7-7.1
					C-21921.6,6801.5-21918.4,6798.4-21914.5,6798.5z M-21801,6813.9l-32.7,25.4c7.6,67.6-25.8,101.6-96.7,77.7l-34.7,26.7
					C-21872.9,7008.3-21750.4,6927.8-21801,6813.9z M-21900.9,6818.9c3.9,0,7,3.2,7,7.1c0,3.9-3.2,7-7.1,6.9c-3.9,0-7-3.2-7-7.1
					C-21907.9,6822-21904.7,6818.9-21900.9,6818.9z M-21218.9,6828.3c3.9,0,7,3.2,7,7.1c0,3.9-3.3,7-7.1,6.9c-3.9,0-7-3.2-7-7.1
					C-21226,6831.3-21222.8,6828.2-21218.9,6828.3z M-21915.5,6822.2l-21.2,40.5l-5-12.3l-13.9,0l4.7-14.2l-8.6-7.4L-21915.5,6822.2
					z M-21246.8,6833.9l6.3,10.8l13.6,0.5l-5.2,10.2l9.7,10.2l-44.4,10.3L-21246.8,6833.9z M-21965.3,6855.5c3.9,0,7,3.2,7,7.1
					c0,3.9-3.2,6.9-7.1,6.9c-3.9,0-7-3.2-7-7.1C-21972.4,6858.5-21969.2,6855.5-21965.3,6855.5z M-21985.5,6856.1c3.9,0,7,3.2,7,7.1
					c0,3.9-3.3,6.9-7.1,6.9c-3.9,0-7-3.2-7-7.1C-21992.6,6859.1-21989.4,6856-21985.5,6856.1z M-21281.5,6868c3.9,0,7,3.2,7,7.1
					c0,3.9-3.2,7-7.1,6.9c-3.9,0-7-3.2-7-7.1S-21285.4,6868-21281.5,6868z M-21209.5,6869.9l-0.2,15.5l-203.5,164.3l-8.4-10.9
					L-21209.5,6869.9z M-21971.7,6876.6c3.9,0,7,3.2,7,7.1c0,3.9-3.2,7-7.1,6.9c-3.9,0-7-3.2-7-7.1
					C-21978.7,6879.6-21975.6,6876.5-21971.7,6876.6z M-21267.3,6886.1c3.9,0,7,3.2,7,7.1c0,3.9-3.2,7-7.1,6.9c-3.9,0-7-3.2-7-7.1
					C-21274.4,6889.2-21271.2,6886.1-21267.3,6886.1z M-21287.2,6887.1c3.9,0,7,3.2,7,7.1c0,3.9-3.2,7-7.1,6.9c-3.9,0-7-3.2-7-7.1
					C-21294.3,6890.2-21291.1,6887.1-21287.2,6887.1z M-21208.6,6890.5l-0.8,19.7c-63.4,52.5-193.1,156.7-192.7,156.8l-9.6-13.4
					C-21411.6,7053.6-21269.4,6934.7-21208.6,6890.5z M-21984.6,6878.9l-19.9,43.2l-8.2-11.8l-12.2-1l3-11.7l-11.2-7.7
					L-21984.6,6878.9z M-21312.7,6903.6l12.4-2.2l-2.3,12.6l8.6,9.2l-45.7,9.4l22.5-40.3L-21312.7,6903.6z M-21246.9,7115.9
					c9.1,13.8,8.3,28.8,4.4,31.1c-4.1-2.3-7.6-6.3-11.8-8.2c-21.1-9.3-38-17-40.9-30.4C-21306.4,7078-21254.5,7104.4-21246.9,7115.9
					z M-21357.7,7034.2l72.1-57c0,0,10.9,5.7,12.9,8.3c0.7,2.8-1.3,3.6-4.2,6.2c-1.4,1.7-2.2,3.3-2.3,7c-0.1,4,1.2,5.8-0.5,7.5
					c-2.7-0.2-4.9,3.3-4.8,6.1c0.1,2.2-2.8,4.5-4.5,6.1c-3,2.8-3.9,3.4-5.9,13.2c-0.2,1-0.2,3.5-1.6,4.8c-4.1,0.3-7.2,10.3-9.1,10.9
					c-3-0.2-7.8-3.9-8.9-9.4c-0.7-3.5-0.4-10.3,0.4-14.7c1.1-5.2,1.6-10,1.2-11.2c-0.7-2.9-2.7-1.2-2.7,2.9c0,1.7-0.7,6.6-1.8,11.3
					c-1.1,4.7-4.1,10.9-2.8,14.6c1.9,5.6,9,8,12.2,10.9c8.4,7.8,10.2,11.6,11.1,13.3c6.6,12.4,6.6,14.4,4.8,23.7
					c-1,5.3-6.2,4.3-9.4,2.1c0,0-19.9-14.7-28.6-22.1C-21343,7058-21352.2,7046.7-21357.7,7034.2L-21357.7,7034.2z M-21331,7074.3
					c7.6,3.2,27.4,17.8,27.4,17.8l-18.6,37.3c3.2,5.9,4.4,20.5,4.4,20.5c23-1.5,35,37.1-0.7,33.2c3.8,23.8-35,42-33.4-0.6
					c-40.2,2.6-26.2-42.4-1.5-33.6c-0.5-19.2,12.4-21.5,21.5-26.1c7.5-8.3,12.3-27.1,12.3-27.1l-1.8-5.8l0,0
					c-7.8,13.1-40.3,16.6-75.8,9.2C-21387.4,7076.4-21358.1,7077.3-21331,7074.3L-21331,7074.3z M-21402.2,7102
					c-1.3,4.5-1.3,4.5,4.2,4c2.8-0.2,14-0.1,21.8,0.3c14.3,1.3,36.9,1.6,48.3-6.8c2.2-2,3.4-1.9,3.8-0.8
					c0.9,5.5-10.3,23.6-10.3,23.6l-18.3,9.8c0,0-7.4,0.3-16.6-0.1l-0.3,16.2c-7.3,4.2-19.8,22.2-0.1,36.3l-0.9,17.7l17.5,0.5
					c11.5,11.2,21,11.2,31.8,0.9l20.2,0.2l0.1-19.1c10.1-7.8,11.6-21.3,1.6-32.2l0-19.4l-15.6-0.1c0,0-3.2-2.5-3.3-4.5
					c0-1.3,11.6-22.9,13.8-26c2.9-4,2.1-1.7,6.5,7.7c6.3,13.4,12.7,18.9,29,27c14.6,7.2,19.8,10.5,24,14.6c3.3,3.2,5.4,2.3,6.7-2.5
					c2.9-10.6,2.2-21.3-3.6-31.1c-12.2-20.7-33.9-21.9-37.3-26.7c-0.4-1.1,4-2.4,8.8-4.5c8.3-4.9,20.5-19.7,22.1-25.7
					c-0.2-2.9,1.8-12,3.2-14c1.7-3.6,1.9-5.3,1.9-14.9c-1.4-5.5,0-12.7,0.7-15.1c0.8-5-1.8-10.9-5.5-18.2c-1.3-6.7-1-5,3.5-20.1
					c0.7-2.4,5.9-23.5-0.4-25c0.1,0.2,0.6,0.8,0.8,1.2c2,6.9,0.6,13.4-1.1,19.7c-5.1,16.9-5.2,18.9-9.7,17.4
					c-1.2-0.4-9.1-6.6-9.1-6.6s0-7.9,1.8-15.8c-1,2.7-1.8,9.5-4.9,11.1c-1.7,0.4-4-1.1-8.3-4.9c-1.6-1.4-5.2-4-5.2-4
					s51.2-42.6,70.6-56.7l-7.1,639.3l-364.3-3.9c-4.1-39.6,8.4-91.9,28.9-144.2c12.6-32.3,30.5-56.2,50.7-85
					c38.7-54.9,68.2-110.8,57.9-182.2c-1.3-10.6-2.7-15.7-2.2-18.5c4.7-8.6,23.4-34.5,36.9-45.3c19.9-15.8,47.6-39.4,49.8-37.9
					c6.4,12.6,14,22.8,24.2,30.6c1.8,2,1.8,3.7-2.4,4.5C-21364.8,7072.6-21392.9,7078.2-21402.2,7102L-21402.2,7102z
					 M-22034.1,6913.4c3.9,0,7,3.2,7,7.1c0,3.9-3.2,7-7.1,6.9c-3.9,0-7-3.2-7-7.1C-22041.1,6916.4-22038,6913.3-22034.1,6913.4z
					 M-21351.7,6922.5c3.9,0,7,3.2,7,7.1c0,3.9-3.2,6.9-7.1,6.9c-3.9,0-7-3.2-7-7.1C-21358.8,6925.6-21355.6,6922.5-21351.7,6922.5z
					 M-21336.6,6941.9c3.9,0,7,3.2,7,7.1c0,3.9-3.2,7-7.1,6.9c-3.9,0-7-3.2-7-7.1C-21343.6,6944.9-21340.5,6941.8-21336.6,6941.9z
					 M-21359.4,6944.6c3.9,0,7,3.2,7,7.1c0,3.9-3.2,6.9-7.1,6.9c-3.9,0-7-3.2-7-7.1C-21366.4,6947.6-21363.3,6944.6-21359.4,6944.6z
					 M-21384.7,6960.2l12.7-0.5c-1.6,4.5-2.6,9.2-3.5,13.9l10.3,7.7l-44.9,7.1l19.8-39.2L-21384.7,6960.2z M-21416.6,7075
					l-74.4-97.7l9.2-7.2l75,96.6L-21416.6,7075z M-21424.7,6980.8c3.9,0,7,3.2,7,7.1c0,3.9-3.2,6.9-7.1,6.9c-3.9,0-7-3.2-7-7.1
					C-21431.8,6983.9-21428.6,6980.8-21424.7,6980.8z M-21266.3,6993.4c6.1,4.8-0.1,11.4-5.9,8.7c-5.1-2.2-4.6-7.3-0.6-9.3
					C-21270.3,6991.6-21268.4,6992-21266.3,6993.4z M-21258.2,6998c6.3,0.2,13,15,11.7,19.4c-1.9,5-3.7,5.2-12.4-2.3
					c-8.7-7.5-8.8-7.8-5.2-11.7C-21262.1,7001.1-21261.1,6998.1-21258.2,6998L-21258.2,6998z M-21407.6,6999c3.9,0,7,3.2,7,7.1
					c0,3.9-3.2,7-7.1,6.9c-3.9,0-7-3.2-7-7.1C-21414.6,7002.1-21411.4,6999-21407.6,6999z M-21429.4,7001.5c3.9,0,7,3.2,7,7.1
					c0,3.9-3.2,7-7.1,6.9c-3.9,0-7-3.2-7-7.1C-21436.5,7004.5-21433.3,7001.4-21429.4,7001.5z M-21274.9,7008.2
					c6.9,1.1,8.7,6.3,5.5,10.2c-4.4,5.2-14.1,0.3-11.7-5.9C-21280.1,7009.7-21277.5,7008.2-21274.9,7008.2L-21274.9,7008.2z
					 M-21262.5,7016.2c2.7-0.2,6.8,3.6,11.2,9.8c5,7,5.3,9.3,3.9,13.5c-2.2,6.2-3.5,7.3-7.9,1.2c-1.7-2.3-5.6-7.7-8.4-10.6
					c-6-6.3-6.9-4.8-3.3-9.5C-21265.3,7018.4-21264.2,7016.3-21262.5,7016.2z M-21278.9,7023.3c6.2,3.3,6.8,7.4,3,10.3
					c-4.4,2.3-12-0.6-13.4-4.9C-21291.4,7022.6-21284.7,7019.5-21278.9,7023.3z M-21268.5,7032.7c3.5-0.2,6.4,3.5,10.6,10.4
					c7.2,11.9,7.6,15.8,1.2,23.5c-4.6,5.5-5,5.8-9.3-3.1c-3.5-7.3-10.3-15.9-16.6-21.1c-2.6-2.2-3.5-5.2-1.6-5.3
					c0.6-0.1,2.9-0.1,5.2-0.2c3.4-0.1,4.6-0.5,6.5-2.3C-21271.2,7033.4-21269.8,7032.7-21268.5,7032.7z M-21293.9,7041.6
					c3.3-0.1,7.5,1.7,10.6,5.4c3.5,3.8,3.1,7.2-4,7.8c-3.2,1.2-11.7-4.5-11.7-8.3C-21299,7043.3-21296.8,7041.7-21293.9,7041.6z
					 M-21277.5,7055.4c0.2,0,0.3,0,0.5,0c2.9,0.2,4.4,3,7.7,9.7c5,10.2,3.4,15.7-5.4,20.1c-6,3-10.6,3.8-11.3,0.3
					c-0.2-1-0.2-3.9-0.6-6.8c-0.6-3.8-1.4-7.7-4.8-12.8c-5.3-8.1-6.2-11-0.3-8.5c3.1,1.3,6.5,1.2,10.1-0.6
					C-21280,7056-21278.7,7055.5-21277.5,7055.4L-21277.5,7055.4z M-21307.5,7071.4c-2-0.1-3.4,1.2-2.9,4.5c1.8,0.9,4.8,0.1,7,0.9
					c3,1.1,4.8,5.9,8,5.2C-21295,7078-21303,7071.5-21307.5,7071.4L-21307.5,7071.4z M-21917.5,7135.4c-16.4-8-56.9-26.4-76.5-26.9
					c-36.3-10.5-37.6-6-50.3-9.3c67.8-16.6,112.7,17.3,129.5,33.8C-21907.1,7140.6-21911.3,7138.3-21917.5,7135.4z M-21876.2,7294
					c37.9,67,73.1,142.5,132.3,254.4l-5.8,1.7l-230.5-2.2c12.8-122.8-52.8-240.6-57.4-236c52.2,1.5,95.7-8,105-27l-7.4-2.2
					c-30.7,25.7-76.3,26.4-106.6,18c1.4-64-0.5-131.7,2.2-195.7c35.9-2.2,64.5,11.1,84.1,37.4
					C-21927.3,7186.7-21905.2,7242.7-21876.2,7294z M-21980,7115.4c9.3-0.6,59.5,20.6,81.9,36.2c6.2,6.5,15.2,17.8,15.2,18.9
					c0,3-4.4-0.7-26.1-13.3c-16.4-9.4-33.4-16.9-50-24.2c-0.8-0.3-2.3-1-2.3-1s-1.2-1.4-3.3-3.1
					C-21970.4,7124.3-21981.9,7116.1-21980,7115.4L-21980,7115.4z M-21955.7,7139c-0.5-0.1,49.8,18.6,89.7,50.9
					c5.3,4.3,11.7,20.1,11.7,20.1c-3.5-6.7-66.6-45.2-88.8-54.1C-21943.1,7156-21955.7,7139-21955.7,7139z M-21938.1,7163.4
					c2.8-1.6,76.2,42.5,86.9,53.9c4.9,3.8,16.2,22,16.2,25.7c0,3.2-3.6,0.4-10.1-5.7c-33.7-32-82.6-56.3-83-55.8L-21938.1,7163.4z
					 M-21924.7,7188.7c34.5,15,77.8,50.5,99.5,71.6c5.4,5.5,9.3,13.3,10,17c0.4,2.3-0.7,2.1-1.2,3.3c-28.2-32.8-90.4-70.6-98.7-73.6
					C-21915,7209.1-21921.8,7194.4-21924.7,7188.7z M-21810.6,7291.3c3.9,4.1,10.1,18.3,8.7,20.1c-0.7,0.8-0.6,0.4-2.3-0.8
					c-9-9.1-55.4-50.9-94.3-74.5c-3.7-1.9-15.8-21.3-13.1-21.6C-21891.2,7221.2-21833.3,7268.2-21810.6,7291.3L-21810.6,7291.3z
					 M-21894.6,7244.2c0.7,0.1,1.9,0.9,4,2.1c35.8,20.1,87.3,70.3,97.1,82.3c2.2,3.7,5.7,10.5,5.4,14.6c-0.5,3.2-1.8,0.5-16.2-13.9
					c-23.1-23-49.8-45.3-78-64.1c-5.4-3.8-4.4-4.3-8.3-11.2C-21894.6,7247.2-21896.1,7244.1-21894.6,7244.2z M-21664.6,7247.6
					c25.7,1,35.5,20.4,50.9,56.2c12.6,35.2,17.6,67.4,17.9,93c0,1.7-3.1,0.2-4.5-0.2c-6.9-1.9-15.4-3.7-25.3-1.3
					c-7.3,1.7-14.2,1.5-6.7-3.3c2.4-1.5,9-7.5,12.5-9.6c7.1-4.3,2.8-4.3-4.2-0.9c-5.3,2.5-8.9,5.8-11.1,6.3
					c-1.4,0.3-0.5-4.1,0.9-7.2c7.7-18.2,10.1-28.9-1-32.4c-3-0.9-7-3.8-8.9-5.6c-1.5-1.5-2.7-7.4-3.2-7.7c-0.5-0.3-0.9,5.4-0.9,6.2
					c0,2.9,3.7,8.9,8.2,12.2c7.7,5.6,9.2,7.1,4.8,20.1c-6.1,18.2-7.4,22.7-8.5,26.9c-0.7,2.4-1.9,6.6-2.5,9.2
					c-2.4,10.3-2.3,19.4-1.9,28c2.3,19.3,23.1,29,51.3,18.6c2.7-1,3.8-0.1,3.8-0.1c-22.6,22.3-47.8,36.4-62.9,81.8
					c-18.4-37.8-44.6-67.5-88.7-79.8l-0.6-7.9c15.3,7.5,45.1,17.8,64.3,6.8c10.2-6.8,7.2-11.3-5.2-6.6c-14.7,5.5-41.3,4.5-54.4-3
					c-2.7-1.5-5.4-0.3-6.2,0c-0.6-4.4-6.8-21.2-5.8-27.4c-0.5-0.9,4-0.9,4.9,0.3c3.6,4.9,22.1,19.6,41.4,18.7
					c9.6-0.5,17.6-3.3,26-11.9c0.7-0.6,4.1-1,4.6-1.5c0.8-0.8,0.2-2.1,0.2-2.5c-0.2-0.7-1.4-2.5-2.2-4.6c-1.1-1.8-1.3-3.7-1.1-5.1
					c0-1.2,0.9-1.8,1.5-2.7c0.7-1.6,0.6-3.7,0.2-4.8c-1.7-1.2-1.5-3.3-0.5-4.3c2.6-2.9-22.2-26-27.1-26c-1.8,0-0.8,3.3,2.8,5.7
					c12.7,8.6,21.9,19.7,19.7,21.1c-1.6,1.1-7.3-1.4-13.1-2.8c-11.7-2.8-25.7-4.7-41,6c-5.7,4.6-20.8,5.1-20.8,5.1
					c-0.1-8.1-33.7-99.5-33.9-95.5c12.8-14.5,52.8-48.6,92.6-63C-21686.5,7248.2-21673.4,7246.3-21664.6,7247.6L-21664.6,7247.6z
					 M-21815.3,7266.2l72,1.9c-18.2,8.8-51.5,41-51.5,41C-21804,7290.2-21806.8,7280.8-21815.3,7266.2z M-21877.7,7275
					c5.4,0.1,62,47,70.1,58c1,1.3,6.7,7.5,12.7,13.6c14.6,14.9,20.6,23.5,20.6,29.5c0,2.9-2.6,1-6.5-3.4c-29.3-33-48.3-51-84.7-76.4
					c-4.1-2.3-16.8-19.5-12.4-21.3C-21877.8,7275-21877.8,7275-21877.7,7275L-21877.7,7275z M-21682.2,7285.7
					c-1.6-0.1-1.4,1.5-0.5,2.9c9,8.1,33,8,41.3,1.6c7.6-5.8-2.3-2.8-5.4-1.5c-7.2,3-14.9,2.5-24.8-0.2
					C-21677.4,7286.9-21680.6,7285.7-21682.2,7285.7L-21682.2,7285.7z M-21660.2,7298.9c-8.4,0-17.2,2.4-15.2,5.5
					c0.7,1.1,3,3.2,8.5,0.3c7.9-3.8,24.1,1.5,24.6,1.6c1.7,0.4-5.3-4.7-7.7-5.7C-21652.7,7299.4-21656.4,7298.9-21660.2,7298.9z
					 M-21862.2,7305.3c30.5,19,67.5,56.8,89.7,83.7c3.7,4.6,6.3,10.3,6.3,13.6c0,4.8-1,2.1-21.2-18.6
					c-15.8-16.4-39.7-38.8-55.6-50.9c-9.5-7.1-11.2-8-15.7-16.3C-21862.8,7309-21864.3,7305.1-21862.2,7305.3z M-21670.8,7313.6
					c-5.8,2.7-13.5,2-20.9-0.6c-6.7-2.4-5.2-0.4-2.7,7c1.1,3.3,1.8,8.1,1.8,8.8c0,1.6,0,1.7,4.8-0.9c4.2-2.3,5.1-3,13.9-0.9
					c9,2.2,9.1,1.4,13.4-0.7c3.7-1.9,4.5-3,7-2c4.9,2,10.5,2.9,16.9-0.3c4.9-2.5,6.4-0.8,8.7,0.4c3,1.6,4.2,0.6,3.1-2.4
					c-0.5-1.2-1.3-6.4-1.3-8c0-3.1-0.7-5.9-2.1-5.3c-4.9,2.4-8.8,4.9-13.5,4.8C-21650.2,7313.2-21657.6,7308.1-21670.8,7313.6
					L-21670.8,7313.6z M-22046.7,7315.8c75.5,95.6,61.8,232.1,59.3,231l-61.8-0.4L-22046.7,7315.8z M-21846.3,7337.2
					c30.4,21.6,66.4,59.2,86.2,85.1c3.4,4.5,0.6,5.8,2.2,11.2c0.6,2-2.7-1-12.3-11.5c-12-13-31.7-32.7-44.6-44.1
					c-14.2-12.5-18.3-15.7-21.3-19.9C-21838.5,7354.6-21848.2,7337.7-21846.3,7337.2z M-21674.2,7347.8c-0.3,0-0.7,0-1,0
					c-10.9,0.4-16.6,12.4-7.3,21.1c3.5,3.3,9,5.2,9,3.5c0-0.4-1.7-2.2-2.9-3.1c-7.7-6-6.8-15.3,2-15.3c3.1,0,3.2,1.1,10.3,6.2
					c8.3,6,18.1,6.2,18.1,0.2c0-4.4-1.6-8.9-9.1-8.3c-2,0.2-4.6,0.3-6.9-0.3c-2.2-0.6-4-1.9-4.9-2.3
					C-21669.5,7348.5-21672,7347.9-21674.2,7347.8z M-21826.8,7374c23.2,15.9,55,51.5,71.2,72.5c3.7,4.9,3.9,10.3,2.4,13.2
					c-0.4,0.6-3.2-1.2-3.2-1.2c-18.8-22.4-40.1-42.9-61-63.6C-21817.5,7394.9-21829.9,7374.6-21826.8,7374z M-21600.3,7410.3
					l-5.1,2.4c-7.5-11.5-14.5-11.7-20.6,1.5l-3.8-1C-21632.5,7410.2-21619.3,7381.4-21600.3,7410.3L-21600.3,7410.3z
					 M-21601.3,7400.6c2.1,0.1,5.8,1.3,6.6,3.4c0.9,2-0.2,4.2-3.1,4.1c-0.4,0-3.2-3.5-4.6-5.6
					C-21603.4,7401.2-21602.9,7400.5-21601.3,7400.6z M-21687.4,7413.6l-5.7,0.2c-10.6-14.2-18.8-4.8-23.7,1l-6.1-0.9
					C-21721.7,7398.4-21694.1,7393.4-21687.4,7413.6z M-21632.3,7402.2c0.8,0,1.7,0.2,2.5,0.5c-2.3,3.3-2.7,6.1-3.2,9.2
					c-2.2,0.9-5.4,2.7-7.7,0.3C-21645,7408.2-21638.2,7402-21632.3,7402.2z M-21720.7,7402.8c2.7,0,1.9-0.1,0.7,1.3
					c-1.2,1.5-2.8,4.1-3.7,6.5c-0.4,1.7-0.7,2.3-2.2,2.3c-3,0.1-9-1.1-9-1C-21737.2,7409.7-21727.6,7402.9-21720.7,7402.8z
					 M-21686.5,7405.1c1.8-0.2,1.3,2.3,0.8,3.3c-1.1,1.3-1.6,1.7-2.2,0.1c-0.3-0.8-0.8-1.4-1.1-1.9c-0.9-1.1-0.8-1.2,0.3-1.4
					C-21688.2,7405.2-21687.1,7405.1-21686.5,7405.1z M-21594.1,7417.4c6.6-0.1,2.1,11-7.1,13.5c-10.2,5-21.8,3.6-33.5-3.2
					c-6.7-3.9-8.7-7.9-2.8-6.3c22.1,6.3,27.4,5.2,40.9-3.2C-21595.9,7417.6-21595.1,7417.5-21594.1,7417.4z M-21807,7412.6
					c21.8,18.8,38.2,40,55.6,59.5c3.5,4.3,5.1,8.5,4.4,11.3c-0.9,3.5-8-4.9-8-4.9c0.2,0.1-42.5-46.2-42.5-46.2
					S-21808.3,7412.7-21807,7412.6z M-21741.2,7419.7c1.5,0.1,4.6,0.8,9.4,2.1c21.1,6.6,27.5,6.5,39.8,1c7.8-3.5,11-2.9,7.6,2.4
					c-6.2,9.7-27.8,10.6-44,4.9c-4.3-1.5-8-4.1-12.1-7.2C-21742.7,7420.7-21743.2,7419.7-21741.2,7419.7z M-21643.6,7427.3
					c1.3-0.1,3.6,1.4,6.5,3.1c17.6,10.2,30.8,8.5,41.8,1.9c2-1.8,3.1-0.9,3.3,0.8c0.9,6.1,1.1,10.5-1.7,13.4
					c-1.6,1.7-4.4,2.4-8.6,3.8c-17.3,5.6-38.1,1.2-42-11.6C-21645.6,7432.1-21646.4,7427.5-21643.6,7427.3z M-21784.8,7453.2
					c0.1,0,0.1,0,0.2,0c1.2,0.2,4.1,2.7,8.5,7.9c23.3,26.9,36.2,42.3,33.8,50c-0.2,0-0.4,1.7-1.4,0.8
					c-12.9-11.3-23.3-23.6-31.1-36.4C-21783.2,7461.4-21786.7,7453.4-21784.8,7453.2z M-21594.4,7474.1
					c-20.1,14.9-44.7,50.7-47.1,68.4c-0.5,3.4-0.1,5.9-1.4,7.1c-1,1-3.3,1-6.3,0.4c-1.8-0.4-1.4-0.6-1.8-2.6
					c-1.6-8.1,6.4-28.5,22.9-52.4c8.7-12.5,28.2-29.4,33.6-29.5C-21590.9,7467-21594.5,7474.2-21594.4,7474.1z M-21742,7464.2
					c1.4,0,3.6,0.7,6.6,2.1c17.8,7.8,24.5,10.7,35.9,20.2c21.4,17.7,44.9,59.5,37.8,63.3c-3.1,1.7-5.3,0.6-6.5-3.3
					c-0.2-0.7-2.4-6.6-5.1-11.5c-14.2-26.6-32.8-45-59.2-58.1c-9.8-4.9-10.8-4.3-11.4-8.3
					C-21744.4,7465.5-21743.8,7464.2-21742,7464.2z M-21594.8,7481.1c1.8-0.1,2.2,3.1,1.5,9.7c-0.6,5.3-0.9,5.2-6.9,11.4
					c-9.7,7.6-21.2,25.5-26.6,43.9c0,0.6-0.5,2-1.4,2.8c-2.5,2.1-5.6,1-7.7,0.9c-1.5-0.8-1.1-4.1-0.8-6
					c4.6-16.7,15.6-37.1,32.7-54.9C-21599.3,7483.9-21596.4,7481.2-21594.8,7481.1z M-21738.5,7480c9.5-0.1,42.9,25.3,56.3,47.3
					c8.8,14.4,11.1,20.3,9,22.3c-1.1,1.1-5.9,1.2-8.4,0.2c-2.3-0.9-3.1-4.4-7.3-12.4c-10.9-20.9-26.8-36.1-44-44.3
					c-3.2-1.5-4.9-2.5-6-3.6C-21740,7487.2-21741.4,7480.4-21738.5,7480z M-21733.6,7498.6c2.9,0.6,11,5.9,17.8,11
					c11.9,8.9,30,35.9,26.1,39.7c-1.2,1.2-5.4,1.2-7.6,0.4c-12.6-22.9-29.3-34-36-40.4C-21735.3,7505.8-21740,7497.7-21733.6,7498.6
					z M-21760.4,7502.3c0.6-0.1,2.8,2.1,6.8,6.4c12,12.8,19.5,26.8,17.6,33.9c-1.6,6-3.3,2.7-16.8-23.7
					C-21758.5,7507.8-21761.2,7502.5-21760.4,7502.3z M-21594.9,7504.5c0.2,7.3-0.4,9-1.2,12.9c-0.6,2.6-2.3,3.8-4,5.8
					c-4.2,5-8.9,13.8-11.4,20.9c-2,5.7-1.1,7.1-8.2,6.2c-3.3-0.5-2.5-1.3-1.2-5.1C-21616.3,7532.9-21605.3,7512.8-21594.9,7504.5
					L-21594.9,7504.5z M-21732.5,7516.7c0.2-3.7,32.1,28.9,27.7,32.5c-4.2,0.7-6.7,0.8-8.5-0.7c-3.4-7.7-18.6-22.5-18.6-22.5
					L-21732.5,7516.7z M-21597,7528.4c0.1,0,0.1,0,0.2,0c1.4,0.3,0.4,20.2-0.8,21.8c-2.3,1.1-6.7,1.2-9-0.1
					c-1.4-0.8-1.8-2.2-1.3-3.7C-21606.4,7542.5-21599.3,7528.8-21597,7528.4z M-21719.1,7548.8c-1,1.6-7.3,1.8-9.7,0
					c-0.8-0.6-1.4-10.4-0.5-12.2C-21726.9,7535.1-21718.3,7546.7-21719.1,7548.8z"/>
				<path id="path3389-2-3-5-0_1_" d="M-21474.3,6202.2l4,5.3l-23.7-0.1c3.8,3.3,89.6,179.5,199.4,383.2
					c18.2,35.7,53.4,48.9,94.5,50.9l-106.9-175.3c11.7-6.1,34.9-22.7,48.8-19.4c0.8,4.3,5,2.6,5.1-1.2l5,0.2l1.7,2.8l21.2,0.2
					l1.8-2.5l18.2,2.8c-48.1-60.2-72.8-152.4-63.4-242.1l-161.7-1.5l-2.1-2.8L-21474.3,6202.2z M-21494,6207.4
					c-0.1-0.1-0.2-0.1-0.2,0L-21494,6207.4z M-21681.1,6322.1c-19,58.7-65,106.7-92.6,155.2c-29.5,53-36.8,99.2-29.3,150l5.3,0.5
					c62.6-82.9,111.5-182.1,139.3-280c0.6-2.1-0.3-5.9,0.2-8.1c-1.1-2.6-0.1-5.4,0.7-6.1c1.6-1.6,1.1-8,0-18.5
					c-2.6-31.3-1.7-55.9,1.2-84.2c2.3-21.7,2.2-25.2,2.2-25.2l-10.6-0.3C-21663.1,6242.6-21668.6,6288.2-21681.1,6322.1z
					 M-21426,6210.7l17.3,0.5c2.1,52.7,46.7,60,53.6,59.3c-11.8,35.5,6.6,74.8,52,80.8c-10.8,32.9,7.2,76.6,43.5,75.8l3.8,2.5
					c-2.4,4.7-3,14.5-2.9,14.6c-8.1,0.5-12.5,1.6-17.7,2.6C-21322.5,6376-21426,6210.7-21426,6210.7z M-21271.8,6212.4
					c-5.9,58.8,5.1,139.7,32.4,187.7c0,0-0.9,3.2-1.5,4.1c-2.7,3.9-4,0.5-5.5-2.7c-5.8-10.9-17-12.7-21.9-6.8
					c-11,14.5,0.7,20.4,9.7,28.8c-37.2-2.7-49.2-43.5-40.3-63.5c-0.2,3.8,1.8,9.7,4.5,13.8c10.3,15.9,25.7,2.8,21.5-9.8
					c-1.8-5.2-8.3-13.9-8.3-13.9s9.1-1.2,12.8-3.4c3.5-2.1,5.7-5.9,4.9-11c-0.7-4.2-0.8-6-3-9.7c-2.7-3.4-7.6-5.8-11.6-5.6
					c-7.7,0.4-8.7,5.7-13.8,9.2c-1.1-9.5-7.2-16.7-17.2-15.1c-7.6,1.3-13.1,9.2-8.6,19.3c2.3,5.1,5.6,6.7,8.8,11.2
					c-53.4-6.5-46.9-69.6-41-68.4c0,0,1.6-0.3,1.1,2.1c-3.2,15.4,16,24.8,24.6,13.7c5.5-9-5.9-23.5-5.9-23.5s7.7-1.6,11.3-3.5
					c14.1-7.8-0.6-31-13.6-25.5c-4.6,2-5.8,6.2-10.3,8.4c-2.9-3.3-3.1-6.9-8.4-9.9c-14.6-8.3-24,10.8-15.9,19.3c3.3,3.5,9.1,6.6,8,7
					c-45.4-6.2-44.5-53.5-43.4-53.1L-21271.8,6212.4z M-21662.8,6208.4l6.3,0.1c-2.2,28-6.6,65-4.3,92.4c2.8,26.2,2.9,29.9,1,32.4
					c-2.6,2.8-1.3,4.2-0.8,6.6c0.6,4.3,0.7,4.4,0.1,6.8c-5.8,21.9-13.1,44.5-22.3,67.4c-30.2,79.8-78.9,166.7-116.9,212.1
					c0-0.2-1.7,0.1-1.7,0c-9.5-64.1,13-117.1,24.6-138.9c23.7-44.1,60.5-81.6,82.6-127.8
					C-21675.4,6320.1-21661.3,6272.8-21662.8,6208.4L-21662.8,6208.4z M-21432.4,6210.7l149.9,237.3l-28,13.2l-153.4-250
					L-21432.4,6210.7z M-21343.5,6257.8c4,0,7.1,3.3,7.1,7.2c0,3.9-3.3,7.1-7.2,7c-3.9,0-7.1-3.3-7.1-7.2
					C-21350.7,6260.9-21347.4,6257.7-21343.5,6257.8z M-21293.7,6336.9c4,0,7.2,3.3,7.2,7.3c0,4-3.3,7.2-7.3,7.1
					c-4,0-7.2-3.3-7.2-7.3C-21301,6340-21297.7,6336.8-21293.7,6336.9z M-21657.4,6346.9c2.5,10.3-50.3,163.8-123.9,261.1l31.7,1
					l0.9,3.5c43.6,65.5,15.2,122.8-20.9,149.1l12.2,16.6l-11.3,8.8l-11-13.3c-91.5,66.6-270.3,214.3-270.3,214.3l0.7,24l13.9-10.7
					c88.9,87.4,279.5,84.8,331.4-93l13.4,0.4c-31.7,130.3-155.2,180.1-247.8,157.4l-22.1,30.8l5.8,3.2c-1.1-1.7-2-2.2-0.4-3.8
					l18.7-23.4c138.7,19.2,223.4-57.9,251.8-163.3l17.7,0.5c-16.2,88.6-59,166.4-119.4,226.9c-43.1-0.7-119-2.5-119-2.5
					c27.3,26.9,79.2,108.6,81.2,116.8c0,0,54.2,2.3,112.5,1.6c21.4-9.3,50-12.8,63.3-6c23.3,12,44.8,55.7,54,125.7
					c2.3,18,4.6,25.7,5.2,29.3c0.1,0.7,1.7,1.1,1.9,1c0.9-0.5-1.5,3.2-1.6,5.9c-0.1,2.7-0.1,6.8,1.2,8.2c1.6,1.8,1.4,3,1.2,3.8
					c-0.2,0.5-3.4,3.4-3.4,3.4c-0.9,40.7-1.1,77.6-3.9,127.6l8,0.1c0.8-80.5,26.1-154.7,64.4-205.5c23.3-33.4,47.9-69.4,61.7-103.8
					c15.5-38.7,18.1-79.5,10.4-114.1l-5.5,0.2c-32.9-22.9-45.9-71.2-4.7-105.2l-14.2-18.8c-41.1,30.9-51.1,88.5-9.4,136.8l-16.5-0.2
					c-40.6-51.5-30.9-110.1,17.2-151.4l-10.5-13.6l11.7-10l10.3,11.5l268.3-217.7l0.1-24.1l-20.6,16.2
					c-118-110.8-295.8-36-323.2,95.6l-16.2,0c35.6-141.6,161.3-180.3,251.7-160.4l22.7-33.3c-16.4-4.8-32.3-15.8-47.3-28.8
					c-6.3-5.5-10.3-8.8-14.9-14.3c-42.4-45.5-70.8-108.4-72.2-108.5l-116.7-1.6c-17.2,8.2-46.6,17.5-62.6,4.4
					c-34.2-28.1-45.2-84.1-49.5-120.1c-1.3-11.2-2.3-30.7-3.3-37.2C-21655,6346.8-21656.3,6346.7-21657.4,6346.9L-21657.4,6346.9z
					 M-21244.4,6413.6c3.9,0,7,3.2,7,7.1c0,3.9-3.2,7-7.1,6.9s-7-3.2-7-7.1C-21251.5,6416.7-21248.3,6413.6-21244.4,6413.6z
					 M-21229.3,6422.1c5.7,7.5,10.7,15.2,13.5,23.2c-2.7-0.1-5.2,0.7-8.2-1.7c-0.6-8.2-3.9-13.1-8.1-18.6L-21229.3,6422.1z
					 M-21250.8,6432.2c2.4,1.2,4.1,10,2.5,11.5c-2.8,0.6-4.8,0.3-5.7-0.7C-21255.5,6440.8-21252.7,6432.6-21250.8,6432.2z
					 M-21715.7,6503.9l108.3,1.3c18.7,14.6,37.1,12.9,64,1.7l120.4,1.3l6.7,12.4l-305.5-3.4
					C-21720,6512.6-21715.7,6503.9-21715.7,6503.9z M-21724.8,6523l311.7,3.5l7.7,12.7l-327.3-3.6L-21724.8,6523z M-21694.9,6541.6
					l35,0.4l-13.2,21.7l-36.1-0.4L-21694.9,6541.6z M-21617.3,6542.5l33.4,0.4l-15.1,21.7l-33.1-0.4L-21617.3,6542.5z
					 M-21509.3,6543.7l-14.3,21.7l-33.9-0.4l14.8-21.5L-21509.3,6543.7z M-21467.5,6544.1l33.4,0.4l-12.8,21.7l-34.6-0.4
					L-21467.5,6544.1z M-21916.6,6542.5c-21.7-0.5-18,28.1-15.9,27.2c-13.6-3.2-23.7,3.1-25.5,14.6c-1.4,9.1,7.4,22.2,23.2,20.6
					c-2.1,2.4-0.1,16.2,1.9,17.5c0,0,0.2,2-8.2,19.1c-10.1,20.3-12.1,21.2-16.4,7.8c-4.6-14.5-12-21.9-31.2-31.4
					c-5.1-2.5-12.4-7-16.1-9.8c-8.6-6.6-8.7-6.5-8.4,6.7c0.3,17,5.5,24.6,23.7,34.8c8.9,5,26,12.2,29.1,12.2c2.2,0,10.2,3.7,22,10.1
					c2.3,1.3,10.2,5.7,20.4,6.8c10.8,0.9,35.2-1.4,49.4-9.3c8-4.5,11.1-8.5,17.1-20c0,0-20,0.8-29.1-1.7c-19-1.3-28.4-0.3-42.9,6.9
					c-12.1,6.1-12.8,7.2-7.7-3c2.4-4.7,4.6-10.2,6.6-15.7c2.2-5.5,2.7-5.9,8-6.4c11.6-1,18.2-7.6,19.4-19.1c0.3-3.1-0.1-6.3-0.1-6.3
					c7.9,1.2,24-2.5,23.7-18.6c-0.3-14.6-10.7-18-23.5-19.2C-21895.6,6558.8-21901,6542.9-21916.6,6542.5z M-21916.4,6547.1
					c19,0.3,18.4,17.7,10,27.4l-10-8.4l-8.2,7.4C-21933.5,6567.7-21933.2,6546.8-21916.4,6547.1z M-21396.7,6553.1l9.2,13.8
					l-19.3-0.2L-21396.7,6553.1z M-21751.5,6568.8l35.8,0.4l-14.6,19.9l-33.8-0.4C-21764.1,6588.7-21756.4,6576-21751.5,6568.8z
					 M-21638.8,6570l-13.7,20.7l-31.3-0.3l12.8-20.2L-21638.8,6570z M-21596.9,6570.5l32.3,0.4l-13,22l-31.9-0.4L-21596.9,6570.5z
					 M-21520.8,6571.4l32.7,0.4l-13.6,22l-32.3-0.4L-21520.8,6571.4z M-21446.7,6572.2l33.7,0.4l-14.2,22l-32.5-0.4L-21446.7,6572.2
					z M-21916.2,6571.1l15.9,16.3l-15.8,15.4l-16-15.5L-21916.2,6571.1z M-21875.6,6587.2c-3.1,18.7-21.2,17.4-26.2,8.2l7.5-8.3
					l-9-8.9C-21894.4,6564.3-21873.3,6573.1-21875.6,6587.2z M-21929.5,6577.7l-8.8,9.6l9.4,9.2c-6.2,8.4-29.8,7.5-24.9-12.9
					C-21950.6,6570.7-21937.3,6568.5-21929.5,6577.7z M-21378.6,6581.4l9.8,13.7l-18.7-0.1L-21378.6,6581.4z M-21766.7,6593.8
					l399.9,5.7l10.6,13.1c-139.7,0.8-276.3-5.3-419-7L-21766.7,6593.8z M-21907.4,6600.6c15.7,9.8,3.8,30-13.2,26.4
					c-12.6-5.7-15.1-18.8-3.6-26.2l8.9,7.4L-21907.4,6600.6z M-21770.3,6610l-10.9-0.1l-10.8,12.2c39.7,42.5,37.8,78.9,0,110.3
					l14.9,16.9C-21734.7,6714.1-21724.7,6658.2-21770.3,6610z M-21729,6612c22.1,35.2,40.9,101.6-26.9,161.5l-8-9.8
					c59.1-56,45.9-103.8,20.2-151.4L-21729,6612z M-21722.8,6613l90.8,1.4c-20.3,73.4-34.4,116.5-37.7,231.6l-26.2-0.1
					c2.9-2.6-12.8-69.6-31.7-93C-21686.7,6685.3-21708,6646.8-21722.8,6613z M-22008.4,6609.9c1.6,0,4.8,2.1,11,5.9
					c5.6,3.4,12.9,7.8,16.2,9.7c12.4,7.1,18.5,13.7,22,23.7c2.6,7.5,0.9,7.6-6.6,0.5c-5.6-5.3-11.6-9.9-26.6-20.4
					c-5.3-3.7-7-3.1-3.9,1.3c2.2,3.2,6.9,6.9,16.6,12.9c7,4.3,16.6,13,15.8,14.2c-0.7,1.1-1.9,1-5.3-0.5c-1.6-0.7-6.6-2.8-11.2-4.7
					c-19.7-8.2-28-18.1-29-34.4C-22009.9,6612.5-22010.2,6609.9-22008.4,6609.9z M-21594,6614.8c0,0,2.7,3.6,3,5.1
					c0.7,3.2-2.5,6.2-12.6,10.5c-3.5,1.5-6.3,2.3-6.3,4.3c0.4,4.7,9.4,12,8.2,18.3c-2.1,4.9-14.8,9.5-18,15.3c0,4,8.1,10.1,6.8,15.5
					c-0.7,1.6-3.3,3.2-7.2,6.5c-8.1,6.8-8.6,7.8-5.7,13.2c6.7,12.5,6.9,11.6-2.4,20.3c-9.4,8.8-9.3,8.7-4.9,16.5
					c4.7,8.4,4.5,8-2,13.3c-6.4,5.2-6.1,6.2-2.8,12.8c3.2,6.3,4,6.4-1.6,11.2c-6.5,5.6-7.7,6.2-3.3,13.4c4.6,7.4,5,7.1-0.4,13.1
					c-5.1,5.7-5.7,5.9-3,9.8c3.4,4.9,4,6.2,0.4,11.6c-3.9,5.8-3.9,5.4-0.4,10.8c2.9,4.6,2.4,9.7,2.4,9.7l-11.2-0.2
					c0,0,0-6.4-1.3-8.8c-3.1-5.8-3-7.5,0.8-12.6c3.9-5.2,3.3-5.6-0.3-10.9c-3.6-5.3-3.1-5.2,1.7-11.2c4.4-5.5,4.7-8,2.2-11.2
					c-5.8-7.5-5.7-10.7,0.2-15.5c4.6-3.7,5-5.4,1.2-11.9c-3.7-6.3-4.2-6.9,2.9-13.1c7.2-6.3,7.1-6.2,2.4-13.5
					c-4.6-7.1-4.3-7.6,3.2-14.4c7.6-6.9,7.7-6.9,2.9-15.7c-4.5-8.3-4.6-8.1,4.6-16c9.1-7.4,12.2-8.3,3.3-19.1
					c-4.9-8.5-1.3-9.3,6.9-13.5c14.5-8.6,7.9-8.1,2-21.2c-5-8.8-2.1-8.8,6.8-13c2.2-0.9,4.6-2,7.2-3.3c5.9-3.2,2.8-6.2,2.8-6.2
					L-21594,6614.8z M-21575.2,6615.2l43.4,1c-51,63.2-76.1,144.4-85.7,230.3l-16.4-0.4C-21634.2,6779-21612,6695.3-21575.2,6615.2z
					 M-21352.6,6619.2c24.6,21,42.8,33.1,55.8,37.9c0,0-17.8,28.6-19.1,27.6c-100.4-20.4-220.6,36.5-249.1,161.8l-15.8-0.1
					c6.4-49.2,19.9-90.2,44.4-132.9c24.3-41.4,46.6-65.5,80.1-95.8L-21352.6,6619.2z M-21525.6,6616.2l21.4,0.6c0,0,4,4.8,5.7,6.6
					c9.1,10.5,9.9,8.4-10.5,19.6c-12.9,7-18.6,10.3-19.4,13.3c-0.6,3,5.5,9.1,6.2,13.2c0,0.5-17.6,11.9-20.8,13.5
					c-4.4,2.1-4.7,3.9-0.4,11.5c4.9,8.7,4.5,8.4-6.4,15.8c-10.7,7.2-12.7,6.5-8.3,13.8c6.1,10.2,3.2,12.5-11.6,20.2
					c-3.7,2-3.9,4-1.3,10.9c3.5,9.6,4.5,8.7-3.2,13.8c-9.1,6-10.6,6.2-8.7,10c5.7,11,7.9,13.7,0.2,17.2c-5.9,2.7-6.1,4.2-2.9,11.5
					c3.2,7.3,4.1,7-1.8,11c-5.4,3.7-8.6,2.9-3.4,9.1c4.1,5,3.7,8.8,0.3,11.8c-2.9,1.2-4.3,6.7-3.5,6.8l-7.5,0.1
					c-5.8-7.9,1.2-12.3,2.2-13.1c1-1.8-0.2-3.1-2.5-7.4c-3.2-5.9-3.1-6.6,1.7-10c4.8-3.4,4.9-2.5,1.8-10.2c-3.6-8.9-3.4-9.9,2.4-14
					c5.7-4,5.8-4.9,2-12.7c-4-8.3-4-8.3,6.2-14.8c7.2-4.6,7.3-4.3,3.6-13.1c-2.5-6-0.7-8.1,9.1-14.6c5.6-3.7,6-4.4,3.4-8.9
					c-7-12.4-7-12.8,5.5-20.6c10.2-6.4,10.1-7,6.3-15.7c-4.1-9.4-4.5-8.7,9.5-16.8c11.5-6.7,12.1-6.3,7.5-14.5
					c-5.7-10.2-5.4-8.6,17.6-21.3c8.3-5.5,15.7-3.5,7.6-13.1C-21521.2,6621.2-21525.6,6616.2-21525.6,6616.2z M-21929,6628.5
					c1.6,0,2.8,1.9,2.7,5.5c-0.3,5-2.8,10-5.2,15c-4.9,10.2-9.8,17.7-12.4,17.7c-6,0-5.8-1.3,2.3-16.6c3.7-7,7.5-15,8.1-16.5
					C-21932.1,6630.1-21930.4,6628.5-21929,6628.5z M-21855.9,6652.4c-0.1,21.6-68.5,31.8-72,20.8c12-9.1,47.2-4.6,54.7-12.8
					c-9-0.6-21.2,0.7-29.5,0.8c-10.4,0.1-27.3,4.3-27.5,6.1c-1-5.7,18.1-16.2,33.1-16.7C-21883,6650.2-21867.8,6652-21855.9,6652.4z
					 M-21850.4,6685.5c0,0-134.4,107.9-200.8,160.1l0.1,23.6l212.5-168.9L-21850.4,6685.5z M-21850.9,6690.9l8.4,10.4L-22042,6859
					l-0.5-16.8L-21850.9,6690.9z M-21226.6,6754l-7.2,7.5c-191.5-144.8-371.8,69.8-275.4,225.9c-0.9,2-7.8,6.9-7.8,6.9
					C-21624.3,6813.1-21412.8,6604.8-21226.6,6754z M-21332.5,6721.5c11,0.2,31.1,7.9,39.5,18.2c9.8,12,6.8,17.2-5.6,5.9
					c-13.4-9.9-24.6-12.3-5.9-0.6c4.1,2.6,7.8,7.6,8,8.2c0.7,2-2.8-0.1-18.5-6c-9.3-3.5-21.1-12.8-24.1-19.1
					C-21341.5,6723.4-21338.2,6721.4-21332.5,6721.5z M-21373.1,6721.4c3.4,0,6.5,0.3,8.6,0.9c13.8,4.1,18.1,6.2,23.2,10.2
					c3.5,2.8,2.3,4.7-1.7,2.9c-4.7-2.1-19.8-6.7-22.5-6.5c-3.9,0.4,0,2.9,5.6,4.4c12.4,3.2,18.6,6.5,9.7,6.5
					c-4.7,0.6-25,0.5-30.5-0.2c-9.2-1.2-23-9.7-19.8-12.7C-21397,6723.9-21383.4,6721.4-21373.1,6721.4z M-21412.9,6733.9
					c16.4,0.4,25.2,6.5,7.3,7.6c-30.8,4.5-36.8,11.1-2.6,3.5c8-1.8,7.8,1.1,2.3,3.7c-4.5,2.1-10.1,3.1-14.8,5.3
					c-8.5,3.4-27.7,3.9-35.2,1C-21467.1,6750.7-21432,6733.4-21412.9,6733.9z M-21281.1,6738.1c8.3,0.3,25.8,12.4,33.5,23.7
					c5.1,7.4,2.4,12.6-5.3,6.6c-1.5-1.2-12.6-10.7-13.2-11c-1-0.4,9.2,9.4,10.6,12.2c1.3,2.3,4.2,7.7-1.4,7.7
					c-8.7-1.2-28.8-24-28.8-35.2C-21285.6,6739.2-21283.9,6738-21281.1,6738.1z M-21383.9,6743.3c3.4-0.1,1.7,1.7-4.9,6.2
					c-11.9,8.1-5.7,6.5,8.2-0.4c4.2-2.1,9.3-3.7,11.1-4c1.8-0.3,3.9-0.8,4.7-1c3.7-1.1,0.8,3.4-5.3,8.2
					c-12.8,10-27.2,17.8-37.2,20.1c-12.7,3-15.3,3.3-10.6-4.4c7.6-12.4,18.5-22.2,28.8-24
					C-21386.8,6743.6-21385,6743.3-21383.9,6743.3z M-21341.4,6744c5.3,0,11.7,1.1,22,3.4c7.2,2.3,5.3,2.8-3.4,3.6
					c-16.2,1.6-9.5,3.5,6.3,3.4c21.5,0.1-10.9,7.6-21.4,9c-8.2,0.3-10.6,0-28.4-3.6c-6.8-1.3-2.6-6.2,10.3-12.2
					C-21350.7,6745.3-21346.7,6744-21341.4,6744z M-21208.4,6748.4l0.4,13.8l-263,213.5l-8.7-9.8L-21208.4,6748.4z M-21297.2,6759.2
					c10.4,0,25.3,7.3,23.7,11.6c-0.6,1.6-1.8,1.5-9.7-0.7c-5.2-1.4-14.5-3-13.3-1.8c0.4,0.4,7.7,3.2,10.4,3.9
					c9.2,2.3,20.1,7.6,17.6,9.1c-4.3,2.5-8.2,0.5-13.2-0.1c-12.6-1.9-33.2-8.4-36.6-11.6C-21322,6766-21308.4,6759.2-21297.2,6759.2
					z M-21418.8,6758.7c1.9,0.1,2.5,1.9,0.7,4.2c-2.8,3.5-4,6.5-6.5,10.8c-8.9,13.3-14.4,18.5-22.8,23.6c-8.4,5.1-9.6,4.2-8.8-6.6
					c1.1-11.2,9.3-22.9,20.7-28.2c5.3-0.7,8.3-2,2.7,4.5c-9.9,11.5-3.2,10.4,6.1-2.7C-21423.7,6760.1-21420.6,6758.5-21418.8,6758.7
					z M-21452.6,6759.8c5.7,0,7.5,2,0.2,5.3c-6.9,3.1-20.7,12.5-21.1,13.5c-0.6,1.8,4.6-1,13.2-5.5c11.5-6,12.5-5.9,6.9,1.1
					c-6.3,7.9-21.4,17.8-33.2,21.3c-16.5,4.3-16.1,1.2-6.7-10.9c8.9-13.1,16.4-19.3,27.7-22.8
					C-21460.8,6760.5-21456,6759.8-21452.6,6759.8z M-21731.8,6758.7c58.6,102.9,24.3,206.5-45.6,258.7
					c-73,54.6-185.7,50-251.4-17.2l9.3-8.6c0,0,103.6,107.3,236.7,14.6c67.6-47,96.5-159.5,42.1-238.8L-21731.8,6758.7z
					 M-21999.2,6756c-0.2,0-0.3,0-0.5,0.1c-2,1.3-9.9,23.3-11.5,32.4c-0.5,2.7,0.2,5.3,2.3,7.5c1.5,1.5,4.1,0.6,4.9,0.3
					c5.1-2.2,7.9-5.7,12.4-16.6c3-6,3.5-13.2,3-15.7c-0.2-1-1.8-3.4-3.9-4.8C-21994.7,6757.6-21997.9,6756-21999.2,6756z
					 M-21998.1,6760.6c2.4,0,7.1,3.9,7.6,6.7c0,4.8-2.9,12.7-4.9,11.5c-3.4-4.3-7.4-1.7-8-3.2c-0.4-4.7,2.7-10.9,4.9-15
					C-21998.5,6760.6-21998.3,6760.6-21998.1,6760.6z M-21353.3,6771.6c26.5,0.3,52.9,8.3,72.1,25.6l-10.5,9.3
					c-45.1-32.7-98.1-23.9-129.7-2.5c-31.3,21.2-59.3,68.4-33.1,135.7l-9.8,8.6c-29.6-54.2-12.6-125.3,41.2-158.4
					c19-11.7,43.1-18.2,67.3-18.4C-21355,6771.6-21354.1,6771.6-21353.3,6771.6L-21353.3,6771.6z M-21746,6775.1
					c0.8,0,2,2.6,1.8,5.8c-0.2,3.9-1.9,8.9-4.5,9.9c-3,1.2-4.7-7.6-4.7-7.6C-21751.6,6780.4-21749.1,6777.5-21746,6775.1z
					 M-21270.7,6783.4c1.1,0,2.1,0,3,0.1c3,0.4,3,3,0.1,5.5c-3,2.7-4.6,2.8-7.6,0.6c-2.7-2-2.8-3.4-0.4-5.1
					C-21274.3,6783.8-21272.5,6783.5-21270.7,6783.4z M-21780.6,6778.3l8.7,10.9l-30.8,24l-3.7,0.2l-235.8,189.6l0.1-17.1
					L-21780.6,6778.3z M-21292.7,6809.8l-32.1,25.7c-63.2-33.5-114.9,24.4-97.5,77.7l-27.8,23.4
					C-21497.8,6801.9-21353.3,6757.6-21292.7,6809.8z M-21459.1,6787.4c0.1,0,0.2,0,0.3,0c0.2,0.1,0.4,0.2,0.6,0.4
					c1.1,1.1-1.3,18.9-3,22.1c-0.6,1.2-1.1,2.7-1.1,3.4c0,1.5-6,13.6-10.7,21.6c-1.8,3-3.7,7-4.2,8.8c-3.9,17.6-11.5-10.8-8.5-27.2
					c1.4-7.7,12.6-23.5,15.8-22.3c1.6,0.6,1.5,1.8-1.4,8c-8.2,17.1-10.3,26-1.7,9.4C-21463.2,6792.6-21460.6,6787.7-21459.1,6787.4z
					 M-21999.7,6781.8c1.2,0.1,2.1,0.7,2.6,2.1c0.3,1.2,0.7,3.6,0,4.8c-1.7,3.6-5.1,6-8.5,5.7c-1.5-0.1-3.1-1.4-3.3-3.1
					c-0.2-1.5,0.2-3.9,2.1-5.8C-22004.3,6783.1-22001.7,6781.6-21999.7,6781.8z M-21757.4,6785.6c3.8,0.2,7.6,10.3,5,14.9
					c-2.1,3.7-2.5,3-6-4.3c-1.9-3.9-3.3-8-3.3-8l3.1-2.4c0.2-0.1,0.5-0.2,0.8-0.2C-21757.7,6785.6-21757.6,6785.6-21757.4,6785.6
					L-21757.4,6785.6z M-21763.8,6789.8c0,0,3.9,7.2,4.8,12.9c0.5,3.5,0.5,2.8-3.4,1.3c-3-1.9-3.7-3-5.5-5.4
					c-1.2-2.2-2.4-3.8-2.4-3.8L-21763.8,6789.8z M-21740,6791.6c2,0,4.1,2,6.1,6.9c7.2,18.6,6.3,39.3-2.1,49
					c-1.4,1.6-1.7,1.7-3.4,0.6c-1.3-0.8-1.4-9.6,0-12.1c0.4-0.8,1.7-6.1,1.8-9.1c0.3-7.1-1.7-8-2.7-1.4c-1.2,7.6-2.4,12.9-4.4,8.3
					c-1-2.3-1.5-4.7-2.3-7.1C-21751.1,6810.7-21746,6791.7-21740,6791.6z M-21772.3,6795.9c0,0,7,9.2,9.9,12.5c1,1.8,1,2.2-0.7,2.8
					c-2.8,1-12.2-5.3-15.9-7.3c-2-1.6-1.1-2.8-1.1-2.8C-21777.5,6799.3-21774.9,6797.4-21772.3,6795.9z M-21491.5,6799.4
					c3.8,0,3.8,1.3-0.3,7.1c-23,32.1-18.4,27.3-3.8,9.8c8.1-9.7,9.5-10.7,10.4-8.5c0.6,1.7-9.1,20.7-14.1,27.6
					c-2.6,3.6-11.4,9.5-15.8,11.6c-10.8,5.3-9.6,3.1-5.5-10.2C-21515.3,6816-21502.4,6799.4-21491.5,6799.4z M-21785.7,6807.3
					c60.4,153.9-110.3,219.3-186.2,147.6l9-7c105.9,73,212.4-40.9,165.2-131.5C-21797.7,6816.4-21793.3,6812.9-21785.7,6807.3z
					 M-21771.4,6811.2c10.2,1.1,25.1,19.9,25.7,30.2c1.5,7.4-0.6,8.6-4.1,3.4c-6-11.3-5.3-4.2-0.3,7c2.7,5.7,3.3,12.4,0.4,12.7
					c-3.9-0.8-12.3-14.4-14.8-20c-6.1-12.2-6.5-10.2-9.7-28.2C-21774.8,6813-21773.9,6811.2-21771.4,6811.2z M-21802.3,6815.9
					c46.3,90.6-56.6,197.6-159.3,126.5l31.3-24.1c53.7,26.3,114.3-4.9,97.9-79L-21802.3,6815.9z M-21330.9,6837.9l-86.1,69.6
					C-21433.8,6848.8-21369,6816.1-21330.9,6837.9z M-21489.3,6836c2.8-0.6,5,17.2,5.2,42.1c0.2,24.3,0.8,26.7-6.7,17.7
					c-3.1-3.7-7-7.2-8.7-10.5c-4.9-9.5-3.2-19.5-1.7-33.3c1.4-12.9,6.1-10.9,5.2,2.7c-0.6,8.7-0.6,19.6,0.8,19.6
					c0.5,0,0.7-0.8,0.4-2c-0.6-2.5,2.7-30.6,4-33.9C-21490.3,6836.8-21489.8,6836.1-21489.3,6836z M-21724.4,6844.1
					c6.1,2.5,7.7,22.9,0.8,42.6c-3,8.5-7.4,13.9-14,17.3c-4.7,2.4-5.8,1.6-3.6-2.6c4-6.9,6.1-14.1,7.8-23c0.7-8.7-4-1.8-3.6,2
					c-3.8,16.2-8.6,18.6-7.8,1.5c0.6-12.6,2.3-18.1,8.4-26.7C-21733.5,6850.8-21730.2,6844.8-21724.4,6844.1z M-21510.5,6848.5
					c2.5,0,3.1,3.4,0.8,10c-1.6,4.5-7.1,19.3-6.5,19.2c0.4,0,6.3-13.2,7.5-15.4c2-3.5,2.7-4.2,4.4-4c1.6,6.6-0.2,14.7-1.1,21.5
					c-3.7,17.7-16,35.8-20.6,30.3c-7.5-8.9-3.5-44.8,6.6-55.6C-21515.7,6850.5-21512.5,6848.5-21510.5,6848.5z M-21835.4,6847.6
					c8.5,62.7-43.9,88.9-88.6,69.5C-21923,6916.9-21835.4,6847.6-21835.4,6847.6z M-21622.7,6851.1l8.9,11.9l16.6,1l-8.6,12.4
					l8.3,16l-18.5,0.1l-10.8,12l-9.1-11.1l-16.2-1l9.6-14.8l-7.5-14.4l17.5-0.6L-21622.7,6851.1z M-21762.1,6855
					c2.1,0.1,12.2,13.6,13.1,18.5c3,12,1.6,34.6-2.8,33.8c-4.5-16.3-2.6-24.7-4.3-22.9c-3,3,1.5,28-0.1,34.1c-0.8,1.6-3.2-0.4-6-4.4
					c-7.4-10.8-5.9-52.9-0.1-59C-21762.3,6855-21762.2,6855-21762.1,6855z M-21207.9,6886.5l-206.8,166.3l11.7,15.2l195.2-156.5
					L-21207.9,6886.5z M-21503.9,6886.1c0.9-0.2,2.9,1.3,6.7,5.5c6.6,9.1,13.6,21.5,16.1,31c0.9,3.7,2.5,8.6,3.4,10.9
					c1.4,3.5,1.5,4.4,0.7,5.4c-3.6,4.3-18.3-6.8-23-17.3c-6.6-14.8-6.6-28,0-15.1c2.4,4.7,5.4,11.6,5.4,8.9c0-0.8-2.9-10.7-5.1-15.1
					C-21501.2,6897.6-21506.2,6886.6-21503.9,6886.1z M-21210.2,6893.5l0.3,14l-192.6,156.4l-7.4-9.1
					C-21409.9,7054.7-21228.5,6908.2-21210.2,6893.5z M-21508.2,6898.8c0.9,0.1,1.3,1.4,1,4.2c-1,9.2-3.5,29.2-3,31
					c0.3,1.1,3.2-13.3,3.8-15.8c3.4-13.3,8,18.6,4.9,32.8c-0.5,2.2-1.5,5.8-2,8c-0.5,2.2-2.2,6-2.8,7c-5.5,8.4-17.8-25.4-15.5-42.5
					C-21520.4,6912.9-21511.4,6898.4-21508.2,6898.8z M-21729.1,6903.7c2.5-0.1,3,2.3,2.5,7.4c-1.6,17.5-13.6,35.8-26.5,40.6
					c-12.9,4.7-14,3.7-6.3-5.3c5.8-6.8,9.4-14,8.4-15c-0.5-0.5-1.8,2.4-6.6,8.2c-5.9,7.4-6.8,1.1-1.4-9.8c4.7-9.4,9-14.3,17.7-20
					C-21735.1,6905.9-21731.3,6903.8-21729.1,6903.7z M-21613.1,6910.3c-3.4,75.5-23.3,157.3-60.7,228.2l-34.2-0.3
					c42.5-60.8,70.1-136.3,78.6-227.7L-21613.1,6910.3z M-21598.1,6910.6c0,0,5.1,5.3,7.1,8.9c2.3,4,2.9,7.4-1.4,10.3
					c-4.9,4-6.9,2.5,0.9,12.7c4.1,5.4,2.7,6.2-2.5,10.7c-5.4,4.6-5.7,4.8-0.8,11.1c5.2,6.8,6.2,7.8-0.8,12.9
					c-6.3,4.6-6.4,5.7-1.6,13.3c4.4,7,5.8,7-2.9,14.1c-7.4,6.1-7.6,4.4-0.6,15.8c2.6,4.2,2.4,4.5-2.4,8.6
					c-11.9,10.2-11.2,9.6-9.6,12.3c12.7,18.5,6.9,17.9-5.8,26.5c-2.6,2.1-1.9,4.6,3.6,13.8c4.7,7.8,4,9.5-7.4,17.1
					c-11.9,7.9-12.3,9-6.5,17.3c5.7,8.1,5.8,7.6-3.7,15.8c-4.3,3.7-7.8,7.2-7.8,7.2l-20.9-0.2c0,0,4.5-4,7.5-6.1
					c17.3-12.4,17.2-11.1,10.1-20.2c-6.3-8.1-5.7-8.6,0.9-13.2c4.7-3.3,11-6.6,15.8-9.9c2.6-1.8,0.7-3.3-3.4-11.3
					c-4.6-9-4.9-7.9,4-15c9.7-7.8,9.9-7.5,4.8-17.5c-5.1-10.1-5.2-9.2,1.5-14.5c9.9-7.9,10.4-7.4,5.3-16.8c-4.1-7.4-4.1-7.2,3-14.1
					c7.1-6.9,6.2-6.5,2.1-12.9c-4.2-6.6-3.9-7.4,1.7-12.3c6.1-5.3,5.2-4.9,0.3-11.8c-4.8-6.8-4.8-6.2,1.3-11.4
					c3.2-2.7,6.4-5.4,6.2-6.7c-0.4-3.3-3.6-8-6.6-12.6c-1.2-1.7,1.2-2.2,5-6.1c3.8-3.9,3.7-2.9,0.9-8.1c-1.5-2.8-4.4-7.6-4.4-7.6
					L-21598.1,6910.6z M-21654,6910.1l5.9,0.2c0,0,1,1.4,2.4,2.8c3.8,3.9,3.9,6.2,0.1,8.2c-3.7,2-2.3,4.8,0.7,9.3
					c3.2,4.8,3.2,4.3-1.5,8.9c-4.9,3.8-7.4,4.9-2.1,12.4c3,3.5,2.6,7-2.2,10c-3.6,2.3-9.7,4.2-3.4,13.3c3,6.4,3.3,6-3.2,10.5
					c-8.6,5.9-10.2,4.9-6.4,13.7c4.3,9.8,4.7,10-4.4,16.5c-10.5,7.5-10.9,8.1-6.6,17.3c4.3,9.3,4.4,6.9-6.7,15.4
					c-8.2,6.2-10,6.5-7.7,11.7c4.4,9.8,6.3,12.4-6.9,18.9c-15.2,7.5-16,8.1-8.8,19.6c5.8,9.4,4.5,8-5.3,13.5
					c-14.2,7.9-20.5,11.3-20.9,13.8c-0.3,2.8,10.9,11.4,10.9,11.4l-19.7,0.3c0,0-8.2-6.8-11.4-9.9c-8.8-8.7-8.9-5.9,20.8-19.8
					c16.4-7.7,15-5.9,12.4-10.5c-7.7-13.7-8-15.1,6.9-22.3c12.9-6.3,10.7-6.8,7.7-16.5c-2.6-8.5-2.2-7.7,4.6-12.6
					c16.5-11.9,16-10.6,13.6-16.6c-2.5-5.8-4.4-8.6-2.4-11.4c6-8.3,18.5-10,13.5-20c-2.3-6.5-3.2-7.9,4.1-13.4
					c6.6-5.3,6.6-4.7,2.5-11.8c-5-6.6-4.3-7.6,3.2-12.7c5.3-4.8,5.3-4.6,2.4-9.4c-4-6.5-3.8-6.7,2.1-11.7c4.8-4.1,5.6-4.3,2.7-8.9
					c-4-6.1-3.3-7.4,2.1-10.4c3.3-1.8,3.3-2.5,3-5.6C-21652.4,6913.6-21654,6910.1-21654,6910.1L-21654,6910.1z M-21580.2,6911.3
					l27.4,0.4c8.2,50.6,23.2,71.5,31.9,87.5c-35.3,54.9-27.9,100.8-7.2,141.7l-86.8-1.3
					C-21591.8,7064.2-21579.5,6988.3-21580.2,6911.3z M-21768.4,6909.4c1-0.1,1.7,1.6,3.4,4.5c5.4,9.4,1.4,22.5-6.8,36.2
					c-6.1,10.3-7.1,2.4-4.2-12.5c1.8-9.4-3.1,4.6-5.5,16c-1.3,6.1-4.3,11.1-7.5,10.7c-3-0.5-2-9.1-1.9-11c0.8-13.6,6-23.1,16.1-36.5
					C-21771,6911.7-21769.5,6909.5-21768.4,6909.4z M-21488.8,6939c1.3,0,3.1,0.5,5.3,1.8c1.7,1,4.9,2.9,7,4.1
					c7.6,4.2,8.2,5.5,4.5,9.7c-4.5,5.1-7.4,3.1-15-5.6C-21492.1,6943.2-21492.2,6939.2-21488.8,6939z M-21491.5,6950.4
					c1.2,0,3.7,1.4,6.2,4.2c4.9,5.7,4.3,10.5-1.2,9.1c-2.2-3.3-3.3-8.3-5.5-12.1C-21492.5,6950.8-21492.2,6950.4-21491.5,6950.4z
					 M-21246.6,6953.8c-4.9,0-13.1,6.2-14.7,12.7c-4.9,19.7-4.9,18.8-0.7,21.8c1.2,0.9,2.2,1.5,2.8,1.9c2.5,2,5.8,5,6.3,4.4
					c4,0.1,10.4-25.2,10.3-30.4c0.3-5.5,0.5-6.2-0.8-8.7C-21244.2,6954.4-21245.3,6953.8-21246.6,6953.8z M-21495.2,6951.5
					c0.3-0.1,0.7,0.1,1.2,0.5c3.1,3.2,4.4,8.8,5.9,12.9c0,0.9-0.4,2.3-0.8,3.2c-2.8,5.2-7,0.1-7.4-9
					C-21496.5,6954-21496.2,6951.7-21495.2,6951.5L-21495.2,6951.5z M-21247.4,6958.1c0.2,0,0.4,0,0.6,0c3.3,0.2,2.7,3.5-1.9,8.3
					c-2.4,2.5-7.3,3.7-8.9,2.1c-2.3-2.3,2.6-8.6,7.9-10C-21248.8,6958.3-21248.1,6958.2-21247.4,6958.1z M-21798,6954.8
					c0.2,0,0.4,0,0.5,0c1.7,0.1,3.1,0.9,4.2,2.2c2.1,2.7,1.2,6.8,0.1,10.2c-2.7,9-19.9,26.3-26,26.3c-3.6-0.7,11.8-19.7,12.3-22.9
					c-1.1-1.1-10.7,9.6-15.2,17.1c-2,3.4-4.4,7.5-5.6,8.3c-3.2,0.3-6.9,2.3-6.9,0.2c0.6-9.6,19.8-30.3,26.3-36
					C-21804.2,6956.4-21800.8,6954.8-21798,6954.8L-21798,6954.8z M-21752.5,6956.2c14.6,0-14.5,31.4-33.2,35.8
					c-5.8,1.4-16.5,1.6-17.2,0.4c-0.7-1.2,0.1-2.2,2.5-2.8c3.9-1,23-12.8,23-14.2c0-1.8-7.9,1.1-14.6,5.3c-4.4,2.7-6.4,2.1-4-1.2
					C-21784.9,6964.1-21770.2,6956.2-21752.5,6956.2L-21752.5,6956.2z M-21499.7,6959.1c0.8,0.1,1.6,1.7,2.1,5.4
					c2.6,6.8,2.7,8.7,0.2,10.7c-4.3,3.4-5.4,2.4-5.2-5.5C-21502.5,6963.2-21501.1,6958.9-21499.7,6959.1L-21499.7,6959.1z
					 M-21980.9,6962.7c0,0,5.3,2,3.1,4.5c-1.6,1.7-8.1,0.2-8.1-0.3L-21980.9,6962.7z M-21247.3,6971.1c1.7-0.1,1.8,1.5,0.8,5.5
					c-0.5,2.1-2.7,13.2-6.5,16.2c-0.5,0.3-5.8-3-7.3-4.4c-0.7-0.7-2.8-2.3-3-3.3c-0.9-3.4,0.2-7.7,2.7-9.9c1-0.8,3-1.3,4.1-1.3
					c0.8,0,3.4-0.8,5.6-1.7C-21249.2,6971.5-21248.1,6971.1-21247.3,6971.1z M-21979.1,6970.6c3.5,0,7.8,0.4,11.4,1.7
					c10.7,3.2,30.4,12.2,33.4,15.2c4.4,4.3-7.2,8.6-21.1,8.6c-7.4,0-8.7-1.5-18.9-7.7c-1.3-0.9-7.2-4.8-5.4-6.2
					c1.9-1.9,7.6,0.6,14.6,4.3c2.3,1.2,7.9,0.9,7.9-0.1c0-1.2-14.1-6.6-24.6-10.1c-6.9-2.3-6.7-4.5-2.5-5.4
					C-21983,6970.7-21981.2,6970.6-21979.1,6970.6L-21979.1,6970.6z M-21993.1,6975.3c0,0,2.9,2.6,6.7,5.5c4.1,3.1,8.8,7,12.1,12
					c4.8,5.9,12.2,20.5,11.3,23.1c-2,6-22.3-4.8-38.7-21.5c-5.4-5.4-8.5-9.5-8.5-9.5l6.4-5.6c0,0,5.5,4.7,11.9,10.4
					c12,10.7,11.9,7.1-0.1-4.2c-3.4-3.2-6.5-6.1-6.5-6.1C-21998.3,6977.4-21996.3,6975.6-21993.1,6975.3z M-21495.8,6981.3
					c0,0,6.4,6.8,8.8,9.9c-40,38-55.8,91.6-18.2,149.2l-18.4-0.3C-21557.1,7072.6-21540.3,7022.2-21495.8,6981.3L-21495.8,6981.3z
					 M-21830.8,6979.2c2.5-0.1,0.2,2.8-4.3,10.1c-8.3,13.7-10,17.2-23.3,20.4c-3.4,0.8-8.3,0.1-10.3,0.3c-5.7,0.6-3.2,0,5.6-5.6
					c12.2-7.7,1.9-3.8-9.4,1.8c-6.5,3.2-13.3,3-13.9,1.3c-0.3-0.9,2.7-3.4,4.6-5.1c17.2-14.9,22.4-14.2,38.3-19.5
					C-21836.4,6980.7-21832.5,6979.2-21830.8,6979.2z M-21902.2,6992.2c6.2,0.1,11.9,0.8,17,2c3.4,0.8,8.9,1.5,4.2,5.6
					c-5.3,4.9-19.6,11.4-30.2,11.8c-1.5,0-23.1-1.7-18.5-6.3c0.9-0.5,3.9-0.3,6.4-0.8c12-2.1,8.8-4.1-6-3.5
					c-18.5,0.8-19.3-1.1-5.3-4.8c10.3-2.7,20.4-4,29.6-4.1C-21904,6992.1-21903.1,6992.1-21902.2,6992.2L-21902.2,6992.2z
					 M-21803.3,6994.7c8.2,0,14.6,1.5,14.6,4.7c0,5.1-15.7,16-26,18.1c-2.4,0.5-5.9,1.2-7.6,1.6c-3.6,0.8-23.4-0.1-25.3-0.9
					c-9.2-3.4-2.8-4.7,14.2-6.5c7.4-0.8,11-2.7,11-4.1c0-0.7-5.4-0.9-13.6,0c-9.1,1-7.3-1.6,4.1-7.3
					C-21824.4,6996.6-21812.7,6994.7-21803.3,6994.7z M-21955.9,7000c1.2,0,3.9,1,8.5,3c9.8,3,23.4,6.3,32.5,16.5
					c7.4,7.3,9.2,9.6,7.6,12.1c-1.9,3.1-25.2,0.5-34.9-3.8c-6.4-2.8-14.1-8.8-17.5-13.9c-8.4-12.4-4.8-15.6,6-6.9
					c12.9,10.5,14.9,11.6,17.2,11.2c0.9-0.2-1.3-2.3-5.7-5.6C-21953.1,7004.3-21958.4,6999.9-21955.9,7000L-21955.9,7000z
					 M-21875.6,7014.1c10.9,0.1,13.3,1,23.9,5.9c13.2,4.8,10,8.9-13.7,14.5c-11.8,2.6-23.7,0.6-32.3-4.8
					c-18.9-11.8-17.6-14.1,3.6-8.7c7,1.8,13.9,2.2,14.3,0.9c0.3-1-8.1-3.2-14.9-5.5c-7.4-2.5-1-2.2,13.8-2.2
					C-21878.9,7014.1-21877.1,7014.1-21875.6,7014.1L-21875.6,7014.1z M-21329.2,7070.4c0,0-2.4,1.1-3.5,1.7
					c-0.8,0.5-7.4,1.2-14.6,1.6c-14.2,0.9-23.7,3-32.4,6.4c-13,5-21.9,20.9-21.9,20.9c9.7-0.5,64.5,9.9,80-9.6
					c3.2-4.1-8.5,31-14.4,32.5c-14.5-1.9-20.8,20.6-19.3,19.7c-14.7,5.5-26,8.6-22.5,25.5c1.5,7.4,8.9,16.1,24.8,14.1
					c-4.6,29.1,31.2,37.1,35.6,2c0,0,7-1.2,9.7-1.5c16.4-3.7,20.7-27.4-3.3-35.2c-6.7-2-7-3.3-7-3.3c1.3-5.4,1.1-11-2.8-17.3
					c5.4-12.5,18.9-36.6,18.9-36.6L-21329.2,7070.4z M-21326.8,7077.7c3.3,4.4-14.1,11.5-32.5,12.9c-4.1,0.3-13.2,1-13.4,1.4
					c-2,3.4,35.5,1.3,47.3-5c4-2.2,4.4-0.2,2.6,3.2c-13.8,17.2-46.4,12.5-72,9.2c-1.4-1.5-0.2-3.3,5.6-7.8
					c10.6-8.4,18.2-11.1,34.8-12.6C-21349.7,7078.8-21328.8,7075.2-21326.8,7077.7z M-21306.7,7095.8c-2.4,7.4-15,30-15,30
					c-1.5,1.5-6.9,2.5-6.5-3.3c0.1-6.2,12.1-31.5,15.2-31.9C-21309.2,7090.4-21306.5,7093.1-21306.7,7095.8z M-21298.9,7097.6
					c3.3,26.1,23.2,32.6,42.2,41c5,2.4,9.2,6.5,14.3,9.2c9.6-12.7-0.8-37.7-17.3-46c-12.3-5.9-23.5-10.6-30.5-10.1
					C-21294.2,7092-21298.8,7094.5-21298.9,7097.6L-21298.9,7097.6z M-21288.6,7096.2c2.1,0,5.2,0.6,16.3,3.7
					c16.8,4.6,28.6,17.1,31.5,33.4c0.1,0.7,0.8,13.3-2.1,12.8c-4.4-1.3-6.7-5.7-13.7-8.7c-8.8-3.8-21-8.7-28.5-15.6
					c-6.1-5.6-9.3-11.6-10-16.7c-0.7-5.3,1.1-5.8,5.5-1.5c9.9,8,19.8,10.8,29.6,18.6c2.7,2.2,12.5,7.7,5.9,0.9
					c-4.5-4.6-17.9-12.8-25-16.2C-21289,7102-21294.3,7096.2-21288.6,7096.2L-21288.6,7096.2z M-22048.5,7113.8l111.1,176.8
					c-28,14.3-41.8,20.5-87.9,16.4l0.2,2.3l-19.6-1.4c33.3,52.9,74.4,122,61.2,241.5l137.7,1.4c0,0,2.1,2,2.3,2.2
					c2,1.4,5.1-2.3,5.1-2.3l62.1,0.4l1.7,2l29,0.1c0,0-129.7-247.6-194.9-370.6C-21967.3,7133.3-21995.6,7111.2-22048.5,7113.8
					L-22048.5,7113.8z M-21335.6,7127.5c7.4-0.1,14.8,5.1,14.7,14.9c0,5.1-4.5,12.2-4.5,12.2l-10-9.7l-9.8,9.5
					c-4.7-3.9-7.4-11.4-5.8-15.6C-21347.9,7131.7-21341.4,7127.6-21335.6,7127.5L-21335.6,7127.5z M-21452.6,7129.7
					c9.2,37.1,18.9,88.3-65.4,205.4c-49.9,69.2-66.6,134.9-69.5,215.3l-5,0c2.8-44.1,4-124,4-124l4.7-4c0,0-2.1-3.4-3-7.4
					c-1.5-6.7-0.2-4.5,4-22.5C-21564.7,7305.3-21452.6,7129.7-21452.6,7129.7L-21452.6,7129.7z M-21895.8,7141.8l420.5,6.6
					l-5.7,10.9l-406.9-7.4L-21895.8,7141.8z M-21335.3,7151.2l15.5,15.3l-15.4,16.8l-15.9-16.9L-21335.3,7151.2z M-21348.2,7157.5
					l-8.6,8.9l7.3,7.8c-7.8,15.8-27.9,3.2-27.1-8.7C-21375.6,7151.6-21359.3,7146.1-21348.2,7157.5L-21348.2,7157.5z
					 M-21321.4,7175.6l6.9-8.5l-7.6-8.4c12.7-12.2,24.4-1.2,25.5,9.1C-21295.5,7178.8-21312.9,7190.9-21321.4,7175.6z
					 M-21819.4,7159.6l34.4,0.7l-13.1,23.7l-34.9-0.5L-21819.4,7159.6z M-21742.6,7160.6l31.6,0.4l-13.6,24l-32-0.4L-21742.6,7160.6
					z M-21667.9,7161.5l33.6,0.4l-13.9,24l-34.5-0.4L-21667.9,7161.5z M-21592.8,7162.3l34.3,0.4l-12.8,24l-35.6-0.4
					L-21592.8,7162.3z M-21516.3,7163.2l33.1,0.4l-13.7,24l-34.1-0.4L-21516.3,7163.2z M-21881.9,7159.2l22.2,0.2l-9.3,15.8
					L-21881.9,7159.2z M-21327.3,7180.6c12.6,10.3,3.6,26.9-9.7,27c-9.1,0.1-22.2-15.4-7.7-27.7l9.5,8.8L-21327.3,7180.6z
					 M-21795.4,7188.2l32.3,0.4l-12.4,21.6l-31.7-0.4L-21795.4,7188.2z M-21723.5,7189.2l35.5,0.4l-12.7,21.6l-33.8-0.4
					L-21723.5,7189.2z M-21647.5,7190.1l35.3,0.4l-11.8,21.6l-35.7-0.4L-21647.5,7190.1z M-21571.8,7190.9l35,0.4l-11.2,21.6
					l-37-0.4L-21571.8,7190.9z M-21860.7,7188.5l22.3,0.2l-9.7,17.3L-21860.7,7188.5z M-21844.2,7213.9l327.8,6.5l-5.7,10.5
					l-313.9-3.4L-21844.2,7213.9z M-21832.9,7232.9l307.2,4.2l-7.2,14.5l-106.1-1.7c-20.5-15.6-44.3-8.7-71.4-0.3
					c0,0-81.2-0.1-113.2-1.3L-21832.9,7232.9z M-21935.7,7293.7l159.2,255.7l-35.8-0.8l-151.2-240.6L-21935.7,7293.7z
					 M-21968.4,7309.8l150.3,239c-7-0.2-13.5,0.1-20.6-0.1c3.3-44.3-32.3-65.5-53.4-66.8c13.2-51.7-24.6-73.9-49.9-78.3
					c11-67.3-45-77.4-45.8-76.8c0.3-5.5-0.7-9.5-1.4-14.1L-21968.4,7309.8z M-21993.2,7313.3c-0.3,1.4,2.7,14.9-3.3,12.3l-0.3-12.4
					L-21993.2,7313.3z M-22025.4,7313.3c2.1,8.9,6.7,10.8,12.9,16.8c0,0-8,1.3-9.9,0c-3.3-2.3-10.1-16.9-10.1-16.9L-22025.4,7313.3z
					 M-22001.6,7328.7c3.9,0,7,3.2,6.9,7.1c0,3.9-3.2,6.9-7.1,6.9c-3.9,0-7-3.2-6.9-7
					C-22008.7,7331.7-22005.5,7328.6-22001.6,7328.7z M-21987.8,7334.2c20.1-1.1,49.1,20.7,40.9,60.7c-1.3-2.8-2.8-9-6-13.4
					c-13.7-18.7-30.3,6.5-19.4,17.1c5.3,5.2,7.8,7.2,7.3,7.6c-12.4-2.5-21.9,8.3-16.9,20.5c8.4,15.8,20.5,7.6,27.5-1.6
					c0,0,4.1,14.1,8.3,15.9c6.4,2.8,15.4-0.6,18.6-8.3c4.7-11.5-6.3-14.6-8.7-21.1c23.3,1,52.5,35.1,38.7,64.3
					c1.9-6.7-5.2-21.7-19.2-18c-7,2.4-9.6,12.5-4,22.9c1.8,3.4,2.7,4.6,2.7,4.6s-6.1,0.7-7.7,1.7c-18.3,10.9,4.8,41.5,18.5,22.7
					c1.4-2.2,3.7-4.8,3.7-4.8c2.2,4.2,2.8,10.2,6.9,12.3c16.7,8.6,24.3-9,17.4-17.8c-3.9-4.9-8.3-10.6-8.3-10.6
					c-0.7-3.1,50.1,10.7,43.3,59.8l-134.9-1.7c13.3-75.4-16-162.2-31.1-188.7l6.8-8.7c1.6,3.3,4.3,11.5,9.2,13.2
					c15.6,5.2,20.5-5.6,18.5-16.8C-21976.8,7340-21985.1,7335.1-21987.8,7334.2L-21987.8,7334.2z M-21952.8,7405.7
					c3.7,0,6.6,3.1,6.6,6.7s-3.1,6.6-6.7,6.5c-3.7,0-6.6-3-6.6-6.7C-21959.6,7408.6-21956.5,7405.6-21952.8,7405.7z
					 M-21903.1,7484.9c3.7,0,6.7,3.1,6.7,6.8c0,3.7-3.1,6.6-6.8,6.6s-6.7-3.1-6.7-6.8
					C-21909.8,7487.9-21906.8,7484.9-21903.1,7484.9z"/>
			</g>
		</g>
		<path id="path147-0-8-1-3-6-7-5-8_1_" d="M136.7,229.3c7.9-0.2,11.5-9,5.6-15.9c-0.9-1-0.9-1.6,0.6-0.6c3.9,2.6,11.5,0.9,11.9-7.1
			c0.5-9.9-13.4-12.7-16-2.2c-0.1,1.1-1,1.1-0.8-0.5c0.2-4.3,1.6-8.3,3.4-12.1c-3.1,0-6.6,0-9.4,0c1.8,3.9,3.2,7.9,3.4,12.1
			c0.2,1.6-0.7,1.6-0.8,0.5c-2.6-10.5-16.5-7.7-16,2.2c0.4,8,8,9.7,11.9,7.1c1.6-1,1.5-0.4,0.6,0.6
			C125.2,220.3,128.8,229.2,136.7,229.3C136.7,229.3,136.7,229.3,136.7,229.3L136.7,229.3z"/>
		<path id="path147-0-8-1-0-3-83-6-6-4_1_" d="M53.2,31.8c7.9,0.2,11.5,9,5.6,15.9c-0.9,1-0.9,1.6,0.6,0.6
			c3.9-2.6,11.5-0.9,11.9,7.1c0.5,9.9-13.4,12.7-16,2.2c-0.1-1.1-1-1.1-0.8,0.5c0.2,4.3,1.6,8.3,3.4,12.1c-3.1,0-6.6,0-9.4,0
			c1.8-3.9,3.2-7.9,3.4-12.1c0.2-1.6-0.7-1.6-0.8-0.5c-2.6,10.5-16.5,7.7-16-2.2c0.4-8,8-9.7,11.9-7.1c1.6,1,1.5,0.4,0.6-0.6
			C41.8,40.8,45.3,31.9,53.2,31.8C53.2,31.8,53.2,31.8,53.2,31.8L53.2,31.8z"/>
	</g>
</g>
</svg>
