<svg id="Layer_1" data-name="Layer 1" xmlns="http://www.w3.org/2000/svg" viewBox="0 0 180 250"><title>all_cards</title><g id="g8436-8-0"><g id="g8473-4-9"><path id="path6882-1-0" d="M48.26,26.21c-7.44,10.55-15.4,16.62-15.53,24.85,0,2.67,1.4,7.2,5.94,8.06,2.95.56,7-1.8,7.09-6.62,0-1,1-.93,1,.38A27.25,27.25,0,0,1,43.39,64.7h9.74a27.25,27.25,0,0,1-3.38-11.82c0-1.31,1-1.34,1-.38.09,4.82,4.14,7.18,7.09,6.62,4.54-.86,6-5.39,5.94-8.06-.13-8.23-8.09-14.3-15.53-24.85Z"/><path id="path6884-6-5" d="M13.88,40.07C10.41,44.46,6.69,47,6.63,50.42A3.33,3.33,0,0,0,9.4,53.78,2.88,2.88,0,0,0,12.71,51c0-.4.48-.39.48.16a10.48,10.48,0,0,1-1.58,4.92h4.55a10.48,10.48,0,0,1-1.58-4.92c0-.55.48-.56.47-.16a2.88,2.88,0,0,0,3.31,2.76,3.34,3.34,0,0,0,2.78-3.36c-.06-3.43-3.78-6-7.26-10.35Z"/><path id="path6888-1-5" d="M166.12,209.93c-3.48-4.39-7.2-6.92-7.26-10.35a3.34,3.34,0,0,1,2.78-3.36A2.88,2.88,0,0,1,165,199c0,.4.48.39.47-.16a10.36,10.36,0,0,0-1.58-4.92h4.55a10.46,10.46,0,0,0-1.57,4.92c0,.55.47.56.47.16a2.88,2.88,0,0,1,3.31-2.76,3.32,3.32,0,0,1,2.77,3.36c-.06,3.43-3.78,6-7.25,10.35Z"/><path id="path6890-4-9" d="M131.74,26.21c-7.44,10.55-15.4,16.62-15.53,24.85,0,2.67,1.41,7.2,5.94,8.06,2.95.56,7-1.8,7.09-6.62,0-1,1-.93,1,.38a27.25,27.25,0,0,1-3.38,11.82h9.74a27.1,27.1,0,0,1-3.37-11.82c0-1.31,1-1.34,1-.38.08,4.82,4.14,7.18,7.08,6.62,4.54-.86,6-5.39,5.94-8.06-.13-8.23-8.09-14.3-15.53-24.85Z"/><path id="path6902-7-5" d="M48.26,223.79c-7.44-10.55-15.4-16.62-15.53-24.85,0-2.67,1.4-7.2,5.94-8.06,2.95-.57,7,1.8,7.09,6.62,0,1,1,.93,1-.38a27.25,27.25,0,0,0-3.38-11.82h9.74a27.25,27.25,0,0,0-3.38,11.82c0,1.31,1,1.34,1,.38.09-4.82,4.14-7.19,7.09-6.62,4.54.86,6,5.39,5.94,8.06-.13,8.23-8.09,14.3-15.53,24.85Z"/><path id="path6904-9-7" d="M131.74,223.79c-7.44-10.55-15.4-16.62-15.53-24.85,0-2.67,1.41-7.2,5.94-8.06,2.95-.57,7,1.8,7.09,6.62,0,1,1,.93,1-.38a27.25,27.25,0,0,0-3.38-11.82h9.74a27.1,27.1,0,0,0-3.37,11.82c0,1.31,1,1.34,1,.38.08-4.82,4.14-7.19,7.08-6.62,4.54.86,6,5.39,5.94,8.06-.13,8.23-8.09,14.3-15.53,24.85Z"/><path id="path19-08-0-9" d="M14.07,37.55V35.21h2.12V31.36H5.58V28.64L17.06,11.09h1.88V28.64h3.24v2.72H18.94l-.06,3.85h1.77v2.34Zm2.12-20L8.9,28.64h7.29Z"/><path id="path19-08-1-1-4" d="M165.93,212.45v2.34h-2.12v3.85h10.61v2.72L162.94,238.9h-1.88V221.36h-3.24v-2.72h3.24l.07-3.85h-1.78v-2.34Zm-2.12,20,7.29-11.12h-7.29Z"/></g></g></svg>