<?xml version="1.0" encoding="utf-8"?>
<!-- Generator: Adobe Illustrator 23.0.1, SVG Export Plug-In . SVG Version: 6.00 Build 0)  -->
<svg version="1.1" xmlns="http://www.w3.org/2000/svg" xmlns:xlink="http://www.w3.org/1999/xlink" x="0px" y="0px"
	 viewBox="0 0 180 250" style="enable-background:new 0 0 180 250;" xml:space="preserve">
<style type="text/css">
	.st0{fill:#FFFFFF;}
	.st1{fill:#E2CF00;}
	.st2{fill:#131F67;}
	.st3{fill:#D40000;}
	.st4{fill:#100F08;}
</style>
<g id="white-background">
	<rect class="st0" width="180" height="250"/>
</g>
<g id="Layer_1">
	<g id="g6735_1_" transform="matrix(0.99553491,0,0,0.99680337,9.0954445,-8.1397402)">
		<path id="path6654-0_1_" class="st3" d="M4.8,64.4c-1.7-2.9-3.6-5.7-5.9-8c2.3-2.4,4.1-5.2,5.9-8c1.8,2.9,3.6,5.7,5.9,8
			C8.4,58.8,6.6,61.6,4.8,64.4z"/>
		<path id="path6656-6_1_" class="st3" d="M123.2,73.1c-4.2-6.9-8.6-13.6-14.1-19.3c5.5-5.7,9.9-12.4,14.1-19.3
			c4.2,6.9,8.6,13.6,14.1,19.3C131.8,59.5,127.4,66.2,123.2,73.1z"/>
		<path id="path6658-8_1_" class="st3" d="M157.7,218.8c-1.7-2.9-3.6-5.7-5.9-8c2.3-2.4,4.1-5.2,5.9-8c1.7,2.9,3.6,5.7,5.9,8
			C161.3,213.1,159.5,215.9,157.7,218.8z"/>
		<path id="path6660-7_1_" class="st3" d="M39.3,73.1c-4.2-6.9-8.6-13.6-14.1-19.3c5.5-5.7,9.9-12.4,14.1-19.3
			C43.5,41.4,48,48,53.5,53.8C48,59.5,43.5,66.2,39.3,73.1z"/>
		<path id="path6676-4_1_" class="st3" d="M39.3,232.7c-4.2-6.9-8.6-13.6-14.1-19.3c5.5-5.7,9.9-12.4,14.1-19.3
			c4.2,6.9,8.6,13.6,14.1,19.3C48,219.1,43.5,225.8,39.3,232.7z"/>
		<path id="path6678-8_1_" class="st3" d="M123.2,232.7c-4.2-6.9-8.6-13.6-14.1-19.3c5.5-5.7,9.9-12.4,14.1-19.3
			c4.2,6.9,8.6,13.6,14.1,19.3C131.8,219.1,127.4,225.8,123.2,232.7z"/>
		<path id="path19-3-1-9-0_1_" class="st3" d="M5,45.8v-2.3h2.1v-3.9H-3.5v-2.7L8,19.3l1.9,0v17.6h3.3v2.7H9.9l-0.1,3.9h1.8v2.3
			L5,45.8L5,45.8z M7.1,25.7l-7.3,11.2h7.3V25.7z"/>
		<path id="path19-4-46-7-7_1_" class="st3" d="M157.5,221.3v2.3h-2.1v3.9h10.7v2.7l-11.5,17.6l-1.9,0v-17.6h-3.3v-2.7h3.3l0.1-3.9
			h-1.8v-2.3L157.5,221.3L157.5,221.3z M155.4,241.4l7.3-11.2h-7.3V241.4z"/>
	</g>
</g>
</svg>
