<?xml version="1.0" encoding="utf-8"?>
<!-- Generator: Adobe Illustrator 23.0.1, SVG Export Plug-In . SVG Version: 6.00 Build 0)  -->
<svg version="1.1" xmlns="http://www.w3.org/2000/svg" xmlns:xlink="http://www.w3.org/1999/xlink" x="0px" y="0px"
	 viewBox="0 0 180 250" style="enable-background:new 0 0 180 250;" xml:space="preserve">
<style type="text/css">
	.st0{fill:#FFFFFF;}
	.st1{fill:#E2CF00;}
	.st2{fill:#131F67;}
	.st3{fill:#D40000;}
	.st4{fill:#100F08;}
</style>
<g id="white-background">
	<rect class="st0" width="180" height="250"/>
</g>
<g id="Layer_1">
	<g id="g5468_1_" transform="matrix(0.99999718,0,0,1.000002,1.0020682,-5.5505123)">
		<path id="path147-0-8-1-6-13-2-5-7-1_1_" d="M130.7,32.1c-7.9,0.2-11.5,9-5.6,15.9c0.9,1,0.9,1.6-0.6,0.6
			c-3.9-2.6-11.5-0.9-11.9,7.1c-0.5,9.9,13.4,12.7,16,2.2c0.1-1.1,1-1.1,0.8,0.5c-0.2,4.3-1.6,8.3-3.4,12.1c3.1,0,6.6,0,9.4,0
			c-1.8-3.9-3.2-7.9-3.4-12.1c-0.2-1.6,0.7-1.6,0.8-0.5c2.6,10.5,16.5,7.7,16-2.2c-0.4-8-8-9.7-11.9-7.1c-1.6,1-1.5,0.4-0.6-0.6
			C142.2,41.1,138.7,32.3,130.7,32.1C130.7,32.1,130.7,32.1,130.7,32.1L130.7,32.1z"/>
		<path id="path147-0-8-1-6-75-2-83-8-8-7_1_" d="M47.3,32.1c-7.9,0.2-11.5,9-5.6,15.9c0.9,1,0.9,1.6-0.6,0.6
			c-3.9-2.6-11.5-0.9-11.9,7.1c-0.5,9.9,13.4,12.7,16,2.2c0.1-1.1,1-1.1,0.8,0.5c-0.2,4.3-1.6,8.3-3.4,12.1c3.1,0,6.6,0,9.4,0
			c-1.8-3.9-3.2-7.9-3.4-12.1c-0.2-1.6,0.7-1.6,0.8-0.5c2.6,10.5,16.5,7.7,16-2.2c-0.4-8-8-9.7-11.9-7.1c-1.6,1-1.5,0.4-0.6-0.6
			C58.7,41.1,55.2,32.3,47.3,32.1C47.3,32.1,47.3,32.1,47.3,32.1L47.3,32.1z"/>
		<path id="path147-0-8-1-6-7-5-5-7-8-7-8_1_" d="M130.7,229.7c-7.9-0.2-11.5-9-5.6-15.9c0.9-1,0.9-1.6-0.6-0.6
			c-3.9,2.6-11.5,0.9-11.9-7.1c-0.5-9.9,13.4-12.7,16-2.2c0.1,1.1,1,1.1,0.8-0.5c-0.2-4.3-1.6-8.3-3.4-12.1c3.1,0,6.6,0,9.4,0
			c-1.8,3.9-3.2,7.9-3.4,12.1c-0.2,1.6,0.7,1.6,0.8,0.5c2.6-10.5,16.5-7.7,16,2.2c-0.4,8-8,9.7-11.9,7.1c-1.6-1-1.5-0.4-0.6,0.6
			C142.2,220.6,138.7,229.5,130.7,229.7C130.7,229.7,130.7,229.7,130.7,229.7L130.7,229.7z"/>
		<path id="path147-0-8-1-6-75-6-1-2-0-6-8_1_" d="M47.3,229.7c-7.9-0.2-11.5-9-5.6-15.9c0.9-1,0.9-1.6-0.6-0.6
			c-3.9,2.6-11.5,0.9-11.9-7.1c-0.5-9.9,13.4-12.7,16-2.2c0.1,1.1,1,1.1,0.8-0.5c-0.2-4.3-1.6-8.3-3.4-12.1c3.1,0,6.6,0,9.4,0
			c-1.8,3.9-3.2,7.9-3.4,12.1c-0.2,1.6,0.7,1.6,0.8,0.5c2.6-10.5,16.5-7.7,16,2.2c-0.4,8-8,9.7-11.9,7.1c-1.6-1-1.5-0.4-0.6,0.6
			C58.7,220.6,55.2,229.5,47.3,229.7C47.3,229.7,47.3,229.7,47.3,229.7L47.3,229.7z"/>
		<path id="path147-0-8-1-6-7-5-7-3-0-9-6-4_1_" d="M130.7,111.6c-7.9,0.2-11.5,9-5.6,15.9c0.9,1,0.9,1.6-0.6,0.6
			c-3.9-2.6-11.5-0.9-11.9,7.1c-0.5,9.9,13.4,12.7,16,2.2c0.1-1.1,1-1.1,0.8,0.5c-0.2,4.3-1.6,8.3-3.4,12.1c3.1,0,6.6,0,9.4,0
			c-1.8-3.9-3.2-7.9-3.4-12.1c-0.2-1.6,0.7-1.6,0.8-0.5c2.6,10.5,16.5,7.7,16-2.2c-0.4-8-8-9.7-11.9-7.1c-1.6,1-1.5,0.4-0.6-0.6
			C142.2,120.7,138.7,111.8,130.7,111.6C130.7,111.6,130.7,111.6,130.7,111.6L130.7,111.6z"/>
		<path id="path147-0-8-1-6-75-6-6-5-3-0-0-2_1_" d="M47.3,111.6c-7.9,0.2-11.5,9-5.6,15.9c0.9,1,0.9,1.6-0.6,0.6
			c-3.9-2.6-11.5-0.9-11.9,7.1c-0.5,9.9,13.4,12.7,16,2.2c0.1-1.1,1-1.1,0.8,0.5c-0.2,4.3-1.6,8.3-3.4,12.1c3.1,0,6.6,0,9.4,0
			c-1.8-3.9-3.2-7.9-3.4-12.1c-0.2-1.6,0.7-1.6,0.8-0.5c2.6,10.5,16.5,7.7,16-2.2c-0.4-8-8-9.7-11.9-7.1c-1.6,1-1.5,0.4-0.6-0.6
			C58.7,120.7,55.2,111.8,47.3,111.6C47.3,111.6,47.3,111.6,47.3,111.6L47.3,111.6z"/>
		<path id="path147-6-9-8-7-0-5-6-4-2-8_1_" d="M165.1,215.5c3.2-0.1,4.6-3.8,2.2-6.6c-0.3-0.4-0.4-0.7,0.2-0.3
			c1.6,1.1,4.6,0.4,4.8-3c0.2-4.1-5.4-5.3-6.4-0.9c-0.1,0.5-0.4,0.5-0.3-0.2c0.1-1.8,0.6-3.4,1.4-5.1c-1.3,0-2.5,0-3.8,0
			c0.7,1.6,1.3,3.3,1.4,5.1c0.1,0.7-0.3,0.7-0.3,0.2c-1-4.4-6.6-3.2-6.4,0.9c0.2,3.3,3.2,4.1,4.8,3c0.6-0.4,0.6-0.2,0.2,0.3
			C160.5,211.7,161.9,215.4,165.1,215.5L165.1,215.5L165.1,215.5z"/>
		<path id="path147-6-9-8-7-4-5-62-0-2-9_1_" d="M12.9,45.6c-3.2,0.1-4.6,3.8-2.2,6.6c0.3,0.4,0.4,0.7-0.2,0.3
			c-1.6-1.1-4.6-0.4-4.8,3c-0.2,4.1,5.4,5.3,6.4,0.9c0.1-0.5,0.4-0.5,0.3,0.2c-0.1,1.8-0.6,3.4-1.4,5.1c1.3,0,2.5,0,3.8,0
			c-0.7-1.6-1.3-3.3-1.4-5.1c-0.1-0.7,0.3-0.7,0.3-0.2c1,4.4,6.6,3.2,6.4-0.9c-0.2-3.3-3.2-4.1-4.8-3c-0.6,0.4-0.6,0.2-0.2-0.3
			C17.5,49.4,16,45.7,12.9,45.6C12.9,45.6,12.9,45.6,12.9,45.6L12.9,45.6z"/>
		<path id="path23-8-1-4_1_" d="M5.1,35c-0.3-2.2-0.3-8-0.1-9.7c0.8-5.2,2.8-7.6,6.2-8.4c3.3-0.8,7.8,0.1,8.8,4.4l-2.7,0.1
			c-1.5-2.9-5.2-2.2-7.3-0.9c-1.7,1-2.4,5.3-2.1,5.5c0,0,3.2-2.3,5.7-2.2c5.3,0.6,7.5,5.2,7.4,9.5c-0.2,5.2-1.8,9.4-7.5,9.7
			C8,42.9,5.6,40,5.1,35L5.1,35L5.1,35z M18.3,33.6c0-3.6-1.6-6.3-4.8-6.6c-3.1-0.3-6.3,2.7-6.1,6.4c0.2,3.7,1.7,6.8,5.5,6.8
			C17.1,40.2,18.3,36.2,18.3,33.6L18.3,33.6L18.3,33.6z"/>
		<path id="path23-6-8-9-6_1_" d="M172.9,226.1c0.3,2.2,0.3,8,0.1,9.7c-0.8,5.2-2.8,7.6-6.2,8.4c-3.3,0.8-7.8-0.1-8.8-4.4l2.7-0.1
			c1.5,2.9,5.2,2.2,7.3,0.9c1.7-1,2.4-5.3,2.1-5.5c0,0-3.2,2.3-5.7,2.2c-5.3-0.6-7.5-5.2-7.4-9.5c0.2-5.2,1.8-9.4,7.5-9.7
			C169.9,218.2,172.4,221.1,172.9,226.1L172.9,226.1L172.9,226.1z M159.7,227.5c0,3.6,1.6,6.4,4.8,6.6c3.1,0.3,6.3-2.7,6.1-6.4
			c-0.2-3.7-1.7-6.8-5.5-6.8C160.9,220.9,159.7,224.9,159.7,227.5L159.7,227.5L159.7,227.5z"/>
	</g>
</g>
</svg>
