<?xml version="1.0" encoding="utf-8"?>
<!-- Generator: Adobe Illustrator 23.0.1, SVG Export Plug-In . SVG Version: 6.00 Build 0)  -->
<svg version="1.1" xmlns="http://www.w3.org/2000/svg" xmlns:xlink="http://www.w3.org/1999/xlink" x="0px" y="0px"
	 viewBox="0 0 180 250" style="enable-background:new 0 0 180 250;" xml:space="preserve">
<style type="text/css">
	.st0{fill:#FFFFFF;}
	.st1{fill:#E2CF00;}
	.st2{fill:#131F67;}
	.st3{fill:#D40000;}
	.st4{fill:#100F08;}
</style>
<g id="white-background">
	<rect class="st0" width="180" height="250"/>
</g>
<g id="Layer_1">
	<g id="g6708_1_" transform="matrix(0.99553491,0,0,0.99680337,8.5462702,-8.1397402)">
		<path id="path6399-9_1_" class="st3" d="M5.4,64.4c-1.7-2.9-3.6-5.7-5.9-8c2.3-2.4,4.1-5.2,5.9-8c1.8,2.9,3.6,5.7,5.9,8
			C9,58.8,7.1,61.6,5.4,64.4z"/>
		<path id="path6403-1_1_" class="st3" d="M158.3,218.8c-1.7-2.9-3.6-5.7-5.9-8c2.3-2.4,4.1-5.2,5.9-8c1.8,2.9,3.6,5.7,5.9,8
			C161.9,213.1,160,215.9,158.3,218.8z"/>
		<path id="path6413-1_1_" class="st3" d="M81.8,152.9c-4.2-6.9-8.6-13.6-14.1-19.3c5.5-5.7,9.9-12.4,14.1-19.3
			c4.2,6.9,8.6,13.6,14.1,19.3C90.4,139.3,86,146,81.8,152.9z"/>
		<path id="path41-87-9-4-8_1_" class="st3" d="M-2.8,45.8v-2.3h2.2L4,19.3h2.6l5.1,24.3h1.8v2.3h-6v-2.3h1.6l-0.6-3.7H2.5L2,43.6
			h1.6v2.3H-2.8L-2.8,45.8z M8,37.2l-2.6-13l-2.5,13H8z"/>
		<path id="path41-8-5-6-1_1_" class="st3" d="M150.1,221.3v2.3h2.2l4.6,24.3h2.6l5.1-24.3h1.8v-2.3h-6v2.3h1.6l-0.6,3.7h-6.1
			l-0.5-3.7h1.6v-2.3H150.1z M160.9,229.9l-2.6,13l-2.5-13H160.9z"/>
	</g>
</g>
</svg>
