<?xml version="1.0" encoding="utf-8"?>
<!-- Generator: Adobe Illustrator 23.0.1, SVG Export Plug-In . SVG Version: 6.00 Build 0)  -->
<svg version="1.1" xmlns="http://www.w3.org/2000/svg" xmlns:xlink="http://www.w3.org/1999/xlink" x="0px" y="0px"
	 viewBox="0 0 180 250" style="enable-background:new 0 0 180 250;" xml:space="preserve">
<style type="text/css">
	.st0{fill:#FFFFFF;}
	.st1{fill:#E2CF00;}
	.st2{fill:#131F67;}
	.st3{fill:#D40000;}
	.st4{fill:#100F08;}
</style>
<g id="white-background">
	<rect class="st0" width="180" height="250"/>
</g>
<g id="Layer_1">
	<g id="g11305-8-4_1_" transform="matrix(0.99553774,0,0,0.99680134,-53.280526,318.48631)">
		<path id="path9970-5-6_1_" class="st3" d="M67.5-263.2c0,0-1.8-2.6-4.2-5.6c-1.6-2-2.9-4.2-3-6.1c-0.1-2.2,1.2-4.3,3.5-4.4
			c2.4-0.1,3.3,1.7,3.7,3.1c0.4-1.5,1.4-3.2,3.7-3.1c2.4,0.1,3.7,2.3,3.5,4.4c-0.1,1.9-1.4,4.1-3,6.1
			C69.3-265.8,67.5-263.2,67.5-263.2z"/>
		<path id="path9972-9-9_1_" class="st3" d="M220.4-125c0,0-1.8,2.6-4.2,5.6c-1.6,2-2.9,4.2-3,6.1c-0.1,2.2,1.2,4.3,3.5,4.4
			c2.4,0.1,3.3-1.7,3.7-3.1c0.4,1.5,1.4,3.2,3.7,3.1c2.4-0.1,3.7-2.3,3.5-4.4c-0.1-1.9-1.4-4.1-3-6.1
			C222.2-122.4,220.4-125,220.4-125z"/>
		<path id="path9978-0-4_1_" class="st3" d="M102-254.6c0,0-3.8-6.2-8.9-13.4c-3.4-4.8-6.1-10.1-6.4-14.6
			c-0.3-5.2,2.5-10.3,7.4-10.6c5-0.3,7,4,7.8,7.5c0.8-3.5,2.8-7.7,7.8-7.5c5,0.3,7.7,5.4,7.4,10.6c-0.3,4.5-3,9.8-6.4,14.6
			C105.8-260.8,102-254.6,102-254.6z"/>
		<path id="path9984-9-5_1_" class="st3" d="M185.9-254.6c0,0-3.8-6.2-8.9-13.4c-3.4-4.8-6.1-10.1-6.4-14.6
			c-0.3-5.2,2.5-10.3,7.4-10.6c5-0.3,7,4,7.8,7.5c0.8-3.5,2.8-7.7,7.8-7.5c5,0.3,7.7,5.4,7.4,10.6c-0.3,4.5-3,9.8-6.4,14.6
			C189.6-260.8,185.9-254.6,185.9-254.6z"/>
		<path id="path9986-7-3_1_" class="st3" d="M143.9-174.8c0,0-3.8-6.2-8.9-13.4c-3.4-4.8-6.1-10.1-6.4-14.6
			c-0.3-5.2,2.5-10.3,7.4-10.6c5-0.3,7,4,7.8,7.5c0.8-3.5,2.8-7.7,7.8-7.5c5,0.3,7.7,5.4,7.4,10.6c-0.3,4.5-3,9.8-6.4,14.6
			C147.7-181,143.9-174.8,143.9-174.8z"/>
		<path id="path9998-0-9_1_" class="st3" d="M185.9-133.6c0,0-3.8,6.2-8.9,13.4c-3.4,4.8-6.1,10.1-6.4,14.6
			c-0.3,5.2,2.5,10.3,7.4,10.6c5,0.3,7-4,7.8-7.5c0.8,3.5,2.8,7.7,7.8,7.5c5-0.3,7.7-5.4,7.4-10.6c-0.3-4.5-3-9.8-6.4-14.6
			C189.6-127.5,185.9-133.6,185.9-133.6z"/>
		<path id="path10000-8-2_1_" class="st3" d="M102-133.6c0,0-3.8,6.2-8.9,13.4c-3.4,4.8-6.1,10.1-6.4,14.6
			c-0.3,5.2,2.5,10.3,7.4,10.6c5,0.3,7-4,7.8-7.5c0.8,3.5,2.8,7.7,7.8,7.5c5-0.3,7.7-5.4,7.4-10.6c-0.3-4.5-3-9.8-6.4-14.6
			C105.8-127.5,102-133.6,102-133.6z"/>
		<path id="path21-9-5-1-8_1_" class="st3" d="M59-288.7l2.6,0c0.5,1.6,1.6,3.2,3.1,3.7c4.2,1,7-1.4,7.9-4.2c1.1-3.4,0-8.1-2.9-9.7
			c-2.4-1.4-6-0.2-7.7,2.7l-1.8-1.1l1-11.1h12v2.6h-9.7l-0.2,4.6c2.1-1.5,5.3-1.5,7.4-0.4c4,1.9,5.8,6.3,5,11.4
			c-1.1,5.1-3.4,8-8.7,8.4C61.1-281.8,59-285.9,59-288.7L59-288.7L59-288.7z"/>
		<path id="path21-3-0-6-3-8_1_" class="st3" d="M228.8-99.5l-2.6,0c-0.5-1.6-1.6-3.2-3.1-3.7c-4.2-1-7,1.4-7.9,4.2
			c-1.1,3.4,0,8.1,2.9,9.7c2.4,1.4,6,0.2,7.7-2.7l1.8,1.1l-1,11.1h-12v-2.6h9.7l0.2-4.6c-2.1,1.5-5.3,1.5-7.4,0.4
			c-4-1.9-5.8-6.3-5-11.4c1.1-5.1,3.4-8,8.7-8.4C226.7-106.4,228.8-102.3,228.8-99.5L228.8-99.5L228.8-99.5z"/>
	</g>
</g>
</svg>
