<svg id="Layer_1" data-name="Layer 1" xmlns="http://www.w3.org/2000/svg" viewBox="0 0 180 250"><defs><style>.cls-1{fill:#d40000;}</style></defs><title>all_cards</title><g id="g11305-8-4"><path id="path9970-5-6" class="cls-1" d="M13.88,56.1s-1.79-2.56-4.21-5.56c-1.62-2-2.91-4.19-3-6.07a3.9,3.9,0,0,1,3.53-4.4c2.36-.1,3.32,1.65,3.71,3.1.39-1.45,1.35-3.2,3.72-3.1a3.9,3.9,0,0,1,3.53,4.4c-.12,1.88-1.41,4.06-3,6.07C15.68,53.54,13.88,56.1,13.88,56.1Z"/><path id="path9972-9-9" class="cls-1" d="M166.12,193.9s-1.8,2.56-4.22,5.56c-1.62,2-2.91,4.19-3,6.07a3.9,3.9,0,0,0,3.53,4.4c2.37.1,3.33-1.66,3.72-3.1.39,1.44,1.35,3.2,3.71,3.1a3.89,3.89,0,0,0,3.53-4.4c-.12-1.88-1.41-4.06-3-6.07C167.91,196.46,166.12,193.9,166.12,193.9Z"/><path id="path9978-0-4" class="cls-1" d="M48.26,64.7s-3.76-6.14-8.84-13.36C36,46.51,33.31,41.29,33.06,36.78c-.29-5.14,2.45-10.31,7.41-10.56s7,4,7.79,7.45c.82-3.48,2.83-7.7,7.79-7.45s7.7,5.42,7.41,10.56c-.25,4.51-3,9.73-6.36,14.56C52,58.56,48.26,64.7,48.26,64.7Z"/><path id="path9984-9-5" class="cls-1" d="M131.74,64.7S128,58.56,122.9,51.34c-3.39-4.83-6.11-10.05-6.36-14.56-.29-5.14,2.45-10.31,7.41-10.56s7,4,7.79,7.45c.82-3.48,2.83-7.7,7.79-7.45s7.7,5.42,7.41,10.56c-.25,4.51-3,9.73-6.36,14.56C135.5,58.56,131.74,64.7,131.74,64.7Z"/><path id="path9986-7-3" class="cls-1" d="M90,144.24s-3.76-6.14-8.84-13.35c-3.39-4.83-6.11-10.06-6.36-14.57-.29-5.14,2.45-10.3,7.41-10.55s7,4,7.79,7.44c.82-3.47,2.83-7.69,7.79-7.44s7.7,5.41,7.41,10.55c-.25,4.51-3,9.74-6.36,14.57C93.76,138.1,90,144.24,90,144.24Z"/><path id="path9998-0-9" class="cls-1" d="M131.74,185.3s-3.76,6.14-8.84,13.36c-3.39,4.82-6.11,10.05-6.36,14.56-.29,5.14,2.45,10.31,7.41,10.56s7-4,7.79-7.45c.82,3.48,2.83,7.69,7.79,7.45s7.7-5.42,7.41-10.56c-.25-4.51-3-9.74-6.36-14.56C135.5,191.44,131.74,185.3,131.74,185.3Z"/><path id="path10000-8-2" class="cls-1" d="M48.26,185.3s-3.76,6.14-8.84,13.36c-3.39,4.82-6.11,10.05-6.36,14.56-.29,5.14,2.45,10.31,7.41,10.56s7-4,7.79-7.45c.82,3.48,2.83,7.69,7.79,7.45s7.7-5.42,7.41-10.56c-.25-4.51-3-9.74-6.36-14.56C52,191.44,48.26,185.3,48.26,185.3Z"/><path id="path21-9-5-1-8" class="cls-1" d="M5.5,30.7l2.6,0c.5,1.6,1.6,3.22,3.1,3.67A6.24,6.24,0,0,0,19,30.21c1.09-3.35,0-8-2.93-9.71-2.41-1.38-6-.21-7.63,2.74L6.64,22.11l1-11H19.56V13.7H9.88l-.15,4.59a7.67,7.67,0,0,1,7.36-.43c3.94,1.9,5.77,6.23,5,11.33-1.06,5.08-3.4,8-8.68,8.36-5.88.06-7.95-4-7.92-6.85Z"/><path id="path21-3-0-6-3-8" class="cls-1" d="M174.5,219.3l-2.6,0c-.5-1.6-1.6-3.22-3.1-3.67a6.24,6.24,0,0,0-7.83,4.14c-1.09,3.35,0,8,2.93,9.71,2.41,1.38,6,.21,7.63-2.74l1.83,1.13-1,11H160.44v-2.6h9.67l.16-4.59a7.67,7.67,0,0,1-7.36.43c-3.95-1.91-5.78-6.23-5-11.33,1.06-5.08,3.4-7.95,8.68-8.36,5.88-.06,7.95,4,7.92,6.85Z"/></g></svg>