<?xml version="1.0" encoding="utf-8"?>
<!-- Generator: Adobe Illustrator 23.0.1, SVG Export Plug-In . SVG Version: 6.00 Build 0)  -->
<svg version="1.1" xmlns="http://www.w3.org/2000/svg" xmlns:xlink="http://www.w3.org/1999/xlink" x="0px" y="0px"
	 viewBox="0 0 180 250" style="enable-background:new 0 0 180 250;" xml:space="preserve">
<style type="text/css">
	.st0{fill:#FFFFFF;}
	.st1{fill:#E2CF00;}
	.st2{fill:#131F67;}
	.st3{fill:#D40000;}
	.st4{fill:#100F08;}
</style>
<g id="white-background">
	<rect class="st0" width="180" height="250"/>
</g>
<g id="Layer_1">
	<g id="g5455_1_" transform="translate(1.9933614,-5.5523942)">
		<path id="path147-0-8-1-6-13-2-8-2-5_1_" d="M129.7,32.1c-7.9,0.2-11.5,9-5.6,15.9c0.9,1,0.9,1.6-0.6,0.6
			c-3.9-2.6-11.5-0.9-11.9,7.1c-0.5,9.9,13.4,12.7,16,2.2c0.1-1.1,1-1.1,0.8,0.5c-0.2,4.3-1.6,8.3-3.4,12.1c3.1,0,6.6,0,9.4,0
			c-1.8-3.9-3.2-7.9-3.4-12.1c-0.2-1.6,0.7-1.6,0.8-0.5c2.6,10.5,16.5,7.7,16-2.2c-0.4-8-8-9.7-11.9-7.1c-1.6,1-1.5,0.4-0.6-0.6
			C141.2,41.1,137.7,32.3,129.7,32.1C129.8,32.1,129.8,32.1,129.7,32.1L129.7,32.1z"/>
		<path id="path147-0-8-1-6-75-2-83-7-6-4_1_" d="M46.3,32.1c-7.9,0.2-11.5,9-5.6,15.9c0.9,1,0.9,1.6-0.6,0.6
			c-3.9-2.6-11.5-0.9-11.9,7.1c-0.5,9.9,13.4,12.7,16,2.2c0.1-1.1,1-1.1,0.8,0.5c-0.2,4.3-1.6,8.3-3.4,12.1c3.1,0,6.6,0,9.4,0
			c-1.8-3.9-3.2-7.9-3.4-12.1c-0.2-1.6,0.7-1.6,0.8-0.5c2.6,10.5,16.5,7.7,16-2.2c-0.4-8-8-9.7-11.9-7.1c-1.6,1-1.5,0.4-0.6-0.6
			C57.7,41.1,54.2,32.3,46.3,32.1C46.3,32.1,46.3,32.1,46.3,32.1L46.3,32.1z"/>
		<path id="path147-0-8-1-6-7-5-5-7-6-8-5_1_" d="M129.7,229.7c-7.9-0.2-11.5-9-5.6-15.9c0.9-1,0.9-1.6-0.6-0.6
			c-3.9,2.6-11.5,0.9-11.9-7.1c-0.5-9.9,13.4-12.7,16-2.2c0.1,1.1,1,1.1,0.8-0.5c-0.2-4.3-1.6-8.3-3.4-12.1c3.1,0,6.6,0,9.4,0
			c-1.8,3.9-3.2,7.9-3.4,12.1c-0.2,1.6,0.7,1.6,0.8,0.5c2.6-10.5,16.5-7.7,16,2.2c-0.4,8-8,9.7-11.9,7.1c-1.6-1-1.5-0.4-0.6,0.6
			C141.2,220.7,137.7,229.5,129.7,229.7C129.8,229.7,129.8,229.7,129.7,229.7L129.7,229.7z"/>
		<path id="path147-0-8-1-6-75-6-1-2-4-9-5_1_" d="M46.3,229.7c-7.9-0.2-11.5-9-5.6-15.9c0.9-1,0.9-1.6-0.6-0.6
			c-3.9,2.6-11.5,0.9-11.9-7.1c-0.5-9.9,13.4-12.7,16-2.2c0.1,1.1,1,1.1,0.8-0.5c-0.2-4.3-1.6-8.3-3.4-12.1c3.1,0,6.6,0,9.4,0
			c-1.8,3.9-3.2,7.9-3.4,12.1c-0.2,1.6,0.7,1.6,0.8,0.5c2.6-10.5,16.5-7.7,16,2.2c-0.4,8-8,9.7-11.9,7.1c-1.6-1-1.5-0.4-0.6,0.6
			C57.7,220.7,54.2,229.5,46.3,229.7C46.3,229.7,46.3,229.7,46.3,229.7L46.3,229.7z"/>
		<path id="path147-0-8-1-6-1-1-0-5-6-4-0_1_" d="M88,111.6c-7.9,0.2-11.5,9-5.6,15.9c0.9,1,0.9,1.6-0.6,0.6
			c-3.9-2.6-11.5-0.9-11.9,7.1c-0.5,9.9,13.4,12.7,16,2.2c0.1-1.1,1-1.1,0.8,0.5c-0.2,4.3-1.6,8.3-3.4,12.1c3.1,0,6.6,0,9.4,0
			c-1.8-3.9-3.2-7.9-3.4-12.1c-0.2-1.6,0.7-1.6,0.8-0.5c2.6,10.5,16.5,7.7,16-2.2c-0.4-8-8-9.7-11.9-7.1c-1.6,1-1.5,0.4-0.6-0.6
			C99.5,120.7,95.9,111.8,88,111.6C88,111.6,88,111.6,88,111.6L88,111.6z"/>
		<path id="path147-6-9-8-7-0-5-6-7-4-6_1_" d="M164.1,215.5c3.2-0.1,4.6-3.8,2.2-6.6c-0.3-0.4-0.4-0.7,0.2-0.3
			c1.6,1.1,4.6,0.4,4.8-3c0.2-4.1-5.4-5.3-6.4-0.9c-0.1,0.5-0.4,0.5-0.3-0.2c0.1-1.8,0.6-3.4,1.4-5.1c-1.3,0-2.5,0-3.8,0
			c0.7,1.6,1.3,3.3,1.4,5.1c0.1,0.7-0.3,0.7-0.3,0.2c-1-4.4-6.6-3.2-6.4,0.9c0.2,3.3,3.2,4.1,4.8,3c0.6-0.4,0.6-0.2,0.2,0.3
			C159.5,211.7,161,215.4,164.1,215.5C164.1,215.5,164.1,215.5,164.1,215.5L164.1,215.5z"/>
		<path id="path147-6-9-8-7-4-5-62-2-3-8_1_" d="M11.9,45.6c-3.2,0.1-4.6,3.8-2.2,6.6c0.3,0.4,0.4,0.7-0.2,0.3
			c-1.6-1.1-4.6-0.4-4.8,3c-0.2,4.1,5.4,5.3,6.4,0.9c0.1-0.5,0.4-0.5,0.3,0.2c-0.1,1.8-0.6,3.4-1.4,5.1c1.3,0,2.5,0,3.8,0
			c-0.7-1.6-1.3-3.3-1.4-5.1c-0.1-0.7,0.3-0.7,0.3-0.2c1,4.4,6.6,3.2,6.4-0.9c-0.2-3.3-3.2-4.1-4.8-3c-0.6,0.4-0.6,0.2-0.2-0.3
			C16.5,49.4,15.1,45.7,11.9,45.6C11.9,45.6,11.9,45.6,11.9,45.6L11.9,45.6z"/>
		<path id="path21-39-8-1_1_" d="M3.5,36.3l2.6,0c0.5,1.6,1.6,3.2,3.1,3.7c4.2,1,6.9-1.4,7.8-4.1c1.1-3.3,0-8-2.9-9.7
			c-2.4-1.4-6-0.2-7.6,2.7l-1.8-1.1l1-11h11.9v2.6H7.9l-0.2,4.6c2.1-1.5,5.3-1.5,7.4-0.4c3.9,1.9,5.8,6.2,5,11.3
			c-1.1,5.1-3.4,7.9-8.7,8.4C5.6,43.2,3.5,39.1,3.5,36.3L3.5,36.3L3.5,36.3z"/>
		<path id="path21-3-4-1-8_1_" d="M172.5,224.8l-2.6,0c-0.5-1.6-1.6-3.2-3.1-3.7c-4.2-1-6.9,1.4-7.8,4.1c-1.1,3.3,0,8,2.9,9.7
			c2.4,1.4,6,0.2,7.6-2.7l1.8,1.1l-1,11h-11.9v-2.6h9.7l0.2-4.6c-2.1,1.5-5.3,1.5-7.4,0.4c-3.9-1.9-5.8-6.2-5-11.3
			c1.1-5.1,3.4-7.9,8.7-8.4C170.5,217.9,172.5,222,172.5,224.8L172.5,224.8L172.5,224.8z"/>
	</g>
</g>
</svg>
