<svg id="Layer_1" data-name="Layer 1" xmlns="http://www.w3.org/2000/svg" viewBox="0 0 180 250"><defs><style>.cls-1{fill:#d40000;}.cls-2{fill:#e2cf00;}.cls-3{fill:#131f67;}</style></defs><title>all_cards</title><g id="g5943"><path id="path10378-7-1" class="cls-1" d="M13.88,56.1s-1.79-2.56-4.21-5.56c-1.62-2-2.91-4.19-3-6.07a3.9,3.9,0,0,1,3.53-4.4c2.36-.1,3.32,1.65,3.71,3.1.39-1.45,1.35-3.2,3.72-3.1a3.9,3.9,0,0,1,3.53,4.4c-.12,1.88-1.41,4.06-3,6.07-2.42,3-4.22,5.56-4.22,5.56Z"/><path id="path10380-5-9" class="cls-1" d="M166.12,193.9s-1.8,2.56-4.22,5.56c-1.62,2-2.91,4.19-3,6.07a3.9,3.9,0,0,0,3.53,4.4c2.37.1,3.33-1.65,3.72-3.1.39,1.45,1.35,3.2,3.71,3.1a3.89,3.89,0,0,0,3.53-4.4c-.12-1.88-1.41-4.06-3-6.07C167.91,196.46,166.12,193.9,166.12,193.9Z"/><path id="path35-67-2-8-6" class="cls-1" d="M13.8,11.09v2.77h2.7s.07,2.67.09,8.34c0,5.5.13,8.22-.22,9.79-1,3.61-6.21,3.63-7.25,1a10.24,10.24,0,0,1-.47-4.2H5.74s0,.77,0,1.7c0,4.06,1.37,6,4.53,6.77s7.05-.46,8.41-3.23c.8-1.57.71-1.68.73-11.2,0-6.35.11-9,.11-9H22V11.09Z"/><path id="path35-6-7-4-8-8" class="cls-1" d="M166.2,238.9v-2.76h-2.7s-.07-2.67-.09-8.34c0-5.5-.13-8.22.22-9.79,1-3.61,6.21-3.63,7.25-1a10.24,10.24,0,0,1,.47,4.2h2.91s0-.77,0-1.7c0-4.06-1.37-6-4.53-6.77s-7.05.46-8.41,3.22c-.8,1.58-.71,1.69-.73,11.21,0,6.35-.11,9-.11,9H158v2.76Z"/><g id="g3347-7-8-1"><g id="g3498-4-3-9"><g id="g2997-9-2-6"><g id="g3884-5-1-3"><g id="g3000-2-1-2"><path id="path2993-7-5-1" class="cls-2" d="M154.37,29.17l-9.28,6-.13,7c-5.5-2.63-7.9-6.94-8.76-12C134.64,32.19,135,42.07,135,42.07a11.12,11.12,0,0,0-2.84,2.54,30.72,30.72,0,0,0,3.4,4c0-.05-1.15,10.28.22,10.69C137,54.85,138.66,51,144.81,47c0,0,.09,16.4-.3,32.24-2.6-1.79-8.11-5-11.66-8.27,4.61-5.92-.09-13.63-7-8.51-4.45-2.4-5.14-13.75-6.24-19.69-.21-1.2-1.25-4.69-1.25-4.69S103.7,34,97.4,34.34c5.29,13.75,4.27,30.5-19.18,33.64C67,73.1,54,78.8,41.4,89.45c-2.32,15.87-10.53,23.68-16.33,28,0,6.43-.05,12.79.22,19.28,0,0,5.29-3.47,6.13-2.82,4.42,28.67,20.64,34.36,19,35.15-.26.13-5.31,5.3-5.31,5.3l-19.8-13c-.68,19.83-.28,40,0,59.9,3.5-2,9.92-6.67,9.92-6.67l.1-6.75c0-.64,9,5.62,9,13.08.7.47,2.24-10.73.84-12l3.7-3.8-4-3.82s1-6.35-1.06-10a14.26,14.26,0,0,1-8.31,11s-.14-30.59-.32-30.61l12.44,7.84c-6.73,9.14,5.12,12.11,6.51,7.66,7.65,7.1,4.71,15.59,8.06,25.67l21.71,4c-8.95-16.54.76-35.38,18.33-34a42.92,42.92,0,0,0,6.27-3.34,65.51,65.51,0,0,0-4.94-6.86L66,172l17.53-32.74L72,138.9s9.37-19.79,7.35-21.39c-.71-.56-.42-6.94-.42-6.94l10.3.38c.41-4.57-5-22-12.58-33.37l42.27.38L95.13,111l12.78.37L100.29,127l1.22,12.17-11.34.37c2,16.87,14.54,34.65,19,40.14,7.31-1.73,21-12.14,29.44-18.61,1.1-11.32,5-21,15.25-28.15l0-18.64S148,118,148,117.76c0-4-2.09-12.43-6-19.91-4.18-8-11-15.31-12.62-15.77,3.63-5.47,5.18-6,5.12-6L154.3,88.66ZM54.74,68.91a23.23,23.23,0,0,1-7.18,1.42c-6,.3-10.55.78-13,5.67-.49,1.49.59,2,1.38,2.43C40.47,72.85,52.47,80.22,54.74,68.91ZM28.17,94.52c0,.79.88,2.08,1.33.74a5.05,5.05,0,0,0,0-3.45C28.33,91.13,28.18,93.75,28.17,94.52Zm64.83,27-5.85,0,0,6.84H93Zm57.42,34c-.13.68-.76,3.73.67,3.2C152.77,157.46,151.34,151.52,150.42,155.55Zm-5.5,17.16c-.69-1-2.83,1.48-4.58,1.58-7.79.41-13.53-.63-14.5,7.49,4.49-2.86,10.79-1.55,14.84-2.48C143.61,178.33,147,175.69,144.92,172.71Z"/><path id="path3504-0-2-5" class="cls-3" d="M23.88,230.83V19.17H156.12V230.83ZM29.93,93.66c.11-2-.73-2.88-1.46-1.48-.17.33-.73,3.87.61,4C30,96.24,29.88,94.53,29.93,93.66ZM27.8,96.05c0-.49-.31-.69.35-4.88-1.26-.48-2.34-2.51-1.43-3.8.36-.5.25-.61.11-1a2,2,0,0,1,.8-2.55c.62-.42.64-.53.44-1.09a2.42,2.42,0,0,1,1.35-3.32c1-.33.77-.38.87-1,.23-1.35,1-2.17,2.34-2s1.35.13,1.46-.49c.3-1.7,2.37-3.57,5.08-4.83C40.52,70.42,42.74,70,47,70c2.44,0,5.49-.37,7.2-1.87.29-.26.68-1,.81-.86.32.22.25,1.92-.38,3.47-1.82,4.5-4.28,5.75-11.25,5.71-2.08-.1-5.14.18-6.44,1.49-.38.41-.64.8-.5,1,2.89.4,5.85,1.7,7.58,7.37A180.11,180.11,0,0,1,68,71.84c-1.24-6.78,4.66-7.83,8-6.48a2.35,2.35,0,0,0,0-1,5.46,5.46,0,0,0-.92-2c-.15-.3-1.08-.89-.9-1.35.3-.75.17-1-.47-1.66-.41-.45-.14-1.41,0-1.8.13-.73.61-1.76.18-2.16-.65-.6-2.89-1.62-4-2.44s-1.29-1.75.57-4.77c.85-1.76,1.65-3.66,2.33-4.92,1-1.91,1.13-3.17.51-4.27A5.76,5.76,0,0,1,72.46,36S64.81,25.28,61.66,21H25.73V102.2l6.18-5.85-1.67-2c-.23,1.14,0,2.26-1.44,2.32C28.32,96.72,27.87,96.52,27.8,96.05ZM49.06,204.67c.2-3.22-1.35-8.5-3.68-12.15a39.89,39.89,0,0,1-.26,8.88Zm56.45,8.4c-.29-.09-2.63-.23-4.11-.31a12.3,12.3,0,0,1-10.18-5.82c-.52-.8-.31-.76.85.14,3.24,2.52,6.28,4,9,3.66,3.78-.54,5.82.84,5.3,2.45C106.23,213.47,106.2,213.3,105.51,213.07ZM92.7,205.89c-.76-.66-.81-.95.08-.35,2.75,1.82,6.06,4.79,10.16,3.05.85-.55.07-.47-1.35-.32-2.18.23-4.83-.87-8.08-3.11-1.59-1.1-.89-2,.9-1.16a4.67,4.67,0,0,0,1.47.48c1.76-1.17,5.47-1.15,5.38-1.15.42-.36-1-.93-3-1.71-1.34-.5-1.66-.71-.67-.75a6.47,6.47,0,0,1,3.23,1,13,13,0,0,0,3,1.71c.81.06,1.63.18.24.82-.63.29-.57.36-.5,1.07a2.14,2.14,0,0,0,.69,1.71c.86.94,1.24,2.7,0,1.6-.27-.12-.29.11-1,.4C99,210.42,95.79,208.56,92.7,205.89Zm7.83.31a5.09,5.09,0,0,0,.64-1.32c-.08-.52-.54-.36-.77-.07-.39.49-1,1.2-.49,1.44C100.12,206.37,100.33,206.47,100.53,206.2Zm-1.45-.33,1-1.68c-.24-.1-3.43.55-2.93,1A5.94,5.94,0,0,0,99.08,205.87Zm3.6-5.62a2.21,2.21,0,0,1-.79-3.56c.91-.93,2.46-.85,4.32.28.65.4,1.05.61,1.5.44.75-.27,1,.15,1,.73-.13,1.29-2.14,1.6-3.41.13-1.68-1.94-3.5-.58-3,.82.28.71.8.82,1.41,1.09C103.71,200.32,103.11,200.47,102.68,200.25Zm-6.63-8.64c2.41-.65,6,1.89,7.94,1.55.84-.18.72,1-.15,1.46-1,.52-2.48.17-5.56-1.43-2.55-1.37-4.6.9-2.9,2.59a2.06,2.06,0,0,0,1.54.52c.86,0,1.11.19,0,.47a2.94,2.94,0,0,1-2.4-.67A2.62,2.62,0,0,1,96.05,191.61Zm-51-7.42a6.2,6.2,0,0,1,1.5-4.45l-10.84-7.33.16,29.25c5.37-3.39,7.13-7.67,7.44-13.2,10.6,11.83,7.29,26.23.67,34.43-.27-5-1.77-10.94-7.9-14v6l-10.3,7.18v7H49.84L61.4,211.94c-2.09-7.62-1.78-14-3.19-17.46-1.07-2.87-3.08-6.57-4.38-6C49.42,192,45.09,187.9,45,184.19Zm9.12,3.37c3.75,2.7,4.76,7.1,5.52,11,0,0,2,13.26,2,13.44a1.71,1.71,0,0,1-.48,2C57.74,218.74,51,228.9,51,228.9l66.43.39c-3.55-5.13-6.31-10.21-9.68-14.43a10.17,10.17,0,0,0-.83-4.05,2.12,2.12,0,0,1-.31-2.34c1-2.16,2-4.51,2.86-6.49,1.72-3.81,1.92-3.84-.43-5.08-2.78-1.61-3.28-2.13-2.69-4,.21-.67.24-.93-.63-1.11-.39-.08-1.36-.31-2-.49-1.87-.59-1.33-.22-2,.26-.52.26-1-.73-1.58-1.9-.71-1.34-.89-1.37.28-.68,2.16,1.28,6,.78,4.64-.7a3,3,0,0,1-1.2-2.73c.07-1.62.1-2.1-1-2.32a15.46,15.46,0,0,0-6.68.25c-6.27,1.55-11.3,7-13.21,11-.43.7.56.67,1,.67,2.06-.18,3.52,3.08,2.17,4.54-.62.65-1.24.25-.58-.6a1.86,1.86,0,0,0-2-2.78c-2.08.59-2.14,3.28-2.4,5.14-.71,5.39,2,12.59,2.71,14.05,0,0,.14.22.09.22s-.38.31-.52.15c-.48-.55-1.7-4.95-2.36-8.1-1.27-8.7,1-16.7,8.25-21.25,6.44-4.63,9.69-3.63,13.34-3.84,1.25-.45,3-1.13,4.3-1.77,11.46-6,21.91-11.78,31.53-19.52,7-5.28,10.38-9.57,16.41-15l-.61-30.16s-.61-.5-.61-1c.4-2-3.16,1.34-5.44,2.47-1.44-13.84-8.95-27.45-18.06-35.4l.38-.51s3,2,4.56,3V82.88l-3.66-2.28c-.17-.71-.08-.82.72-.82L135,81.94V80.18l-2.37-1.51.76-1,1.27.83c-.54-1.4.22-1.35,1-.43a6.31,6.31,0,0,1,.92,1.48c.07.2.27.68.27.68L139,81.82a4.4,4.4,0,0,1,0-1c.35-1.09,2.87,2.44,2.55,2.52l2.13,1.53c.51-.76,2.41.76,2.49,1.52.17.33,7.35,4.93,7.35,4.93l.08-2.54.77-1L154.67,29l-9.54,6.07-.1,7.12c-4.51-1.46-8.41-8-9-12-.3-.15-1.6,8-.91,11.58a33.13,33.13,0,0,0-3.19,3l3.62,3.94a72.76,72.76,0,0,0-.55,9c.14,1.43.17,1.57.6,1.57a.74.74,0,0,0,.66-.69c.85-3.59,3.63-9.19,8.46-11.1.32,0,0,32,0,32l-12-8.13c-.6-.51.78-.48,1.62-3.19,2.17-7-5.35-9.46-8.26-5.41-.48,0-2.48-2.47-2.78-3.49-2.21-4.45-2.64-9.49-3.07-13.53a52.31,52.31,0,0,0-1.49-6.66,2.55,2.55,0,0,1,.31-2.57c2.79-5.71,8.15-9.64,10.18-15.41l-66.61-.21C66.86,24.36,70.52,34,74.36,35.28c-1.84.23-1.21,1.84-.5,3.56.88,2.13.79,2.56-1.45,6.93-3.27,6.41-3.44,5.85-.18,7.83,2,1.28,2.38,1.56,2.09,3.31s-.38,1.21,1.28,1.35a6.59,6.59,0,0,1,2,.41c.45.21.79.5,1.38.3,1-.32,1-.08,1,.64a4.1,4.1,0,0,0,.62,1.17c.38.62.21.73-.49.29-2.14-1.34-5.72-.77-4.41.69a8.05,8.05,0,0,1,1.14,3.6c.08,1.78,1.24,2.41,3.68,2,4.68-.34,15.24-6.13,17.69-12.63C92.86,56.6,94,50,95.9,50.2A6.8,6.8,0,0,0,95.36,52c-.06,2.37,1.93,2.55,3.3.88.6-.88,1.32-4.15,1-7.84-.43-4.46-2.25-9.46-2.57-10.7,7.73,18.38.63,26.47-10.24,31.74-4.16,1.73-4.73,1.72-7.18,1.83a21.52,21.52,0,0,0-4.8,1.5C65.54,73.87,54.11,79.38,43.9,87.6A127.81,127.81,0,0,0,25,104.12l0,32.43c1.74-.27,4.57-2,6.24-2.93,1.92,12.11,8.17,26.14,18.53,34.53,0,0-.25.45-.25.45-1.48-1-3-1.95-4.38-2.7L45,167.45l3.49,2.39c.09.37-.6.88-.6.88l-2.87-2,0,1.58,2.23,1.41c.6.6-.73.91-.73.91l-1.32-.95a5.45,5.45,0,0,1,.06.9c-.35,1.16-2.25-1.4-2.6-2.68l-1.87-1.11c.26.76-.41.87-.94.68-1.41-.72-1.33-1.91-1.62-2.62l-2.5-1.58c-.43,2.37-3-1-2.56-1.76l-3.2-2.17a2.43,2.43,0,0,1-1.7.05c-.54-.36-.73-1.8-.73-1.8l-1.92-1.19v2.07l19.73,13.73-.28.53-20.59-14,.84,60.89,10-6.92c-.19-2.27.23-4.31,0-6.91,5.16,3.2,6.9,5.38,9.17,12.09A19.16,19.16,0,0,0,45.07,209a9.9,9.9,0,0,0,3.27-3.74c-1.24-1.7-2.46-2.18-3.76-3.76-.1-1.92,1-7.65-.49-9.54,0,0-2.77,8.32-8.75,10.83-.18-8.79,0-30.88,0-30.88s6.14,4.22,9.27,5.93c1.47.78,2.49,1.28,2.51,1.83,0,.28-.58.65-.84,1a10.27,10.27,0,0,0-.57,4.49,4.62,4.62,0,0,0,1.38,2.89c2,2.08,5.58,1.1,7-.51ZM66,172l23.61-32.89a111.34,111.34,0,0,0,13.73,33.24Zm11.67-34.57s1.65-3.26,2.41-5h-2.9l1.73-1.93h4.31l-2.3,4.88h1.82l2.53-4.88H92l-2.35,4.88h1.55l2.51-4.88h6.24l-2.2,4.88H99.2l1.28-2.46.32,4.49H94.6l2.45-5h-2l-2.76,5H86.48l2.52-5H86.79l-2.76,5ZM96.8,119.92l2.5-5.27h-2l-2.76,5.16H88.37l2.43-5.1H89.26c-1,1.6-2.71,4.87-2.71,4.87H80s1.85-3.46,2.59-5.16H81l-1.32,2.1c-.46-.79-.16-2.86-.24-3.74h6.19l-2.49,5h2l2.7-5h6.54l-2.66,5H93.2l2.64-4.78h6.64l-2.33,4.78h2.06l-.91,2.08Zm-6.11-9.18-1.25.24C87.83,97.33,80.25,83.41,77,77.67l37.73.53ZM135,31.93a22.45,22.45,0,0,0-3.84,12.34l3.43-2.72C134.36,33.7,135,31.93,135,31.93Zm-3.8,12.93a20.5,20.5,0,0,0,3.37,12.29,57.38,57.38,0,0,1,.63-8.44ZM37.78,154.92l-12.2-8.37v1.84l14.5,9.81Zm-2.2-4.49c-3.27-1.64-10-6.69-10-6.69v1.67l10.72,7.5a.35.35,0,0,0,.59-.07C36.47,152.13,36,151.16,35.58,150.43Zm-3-7.27-7-4.87v1.52c1.8,1.6,7.71,5.41,7.71,5.41Zm-7-6,6.59,4.25-.41-1.88-4.68-3.17ZM144.06,78.34l.36-30.25c-6.87,3.23-8.24,12.67-8,13-6.83-7-9.41-22.15.18-32.33.72,3.27,1,8,7.75,12.33l.17-6.41L154,28.59V21H131.14c-3.54,4.47-7.07,9.66-10.57,14.39-1.32,1.78-1.64,2.61-1.39,3.54,2.3,8.24,1.84,18.38,6.67,23.17,6.47-6.07,12.54,3.07,7.51,8.7ZM45.54,209.14c.88,2.76.27,8.31.22,8.31,1-.56,3.89-8.61,3.18-11.63m33-147.73c-1.62-.46-2.83-1.15-4.53-1-1.34.14-1.8-.3-1-1,1.07-.9,2.1-1.27,4.09-.24,6,3.11,6.14-1.43,3.46-1.75-.77-.09-.73-.58,0-.45C88.18,53.79,86.91,59.29,81.94,58.09Zm-7-4.53a6.91,6.91,0,0,0-2.1-.68c-.88.24-.91-.24-.8-.82.25-1.38,1.67-1.13,3.55.06,2.69,1.71,3.73-.75,1.28-2.07-.83-.45-.57-.57-.09-.59,1.28-.05,2.48,1.68,2.14,3.09C78.09,54.82,76,53.93,75,53.56Zm7.89-4.2c-1.74-.3-4.27-2.63-5.44-2.79-.66-.08-1.43,0-1.64-.26-.65-.81,1.18-.8,1.3-1.1,0-.68,0-1.1,0-1.33-.32-.44-1.59-2.18-1.54-3,0,0,.66.47,1,.47,3.11-1.63,5.24-.91,7.86.25a14.83,14.83,0,0,1,3.92,3c.06.58-1.19-.51-2.16-1.16-2.4-1.66-4.56-2.85-7.58-1.86-.47.16-.39.25,1.16.15s2.74.37,4.67,1.62c.48.32,1.06.85,1.4,1,2.43,1.15,3,2.28,1.42,2-.34-.07-1-.41-1.61-.63-1.1-.39-.71-.27-1.78.22a7.8,7.8,0,0,1-2,.63c-.56.09-2.4.08-1.59.85a10.31,10.31,0,0,0,3.28,1.89C84.23,49.58,83.69,49.51,82.86,49.36Zm.21-3.75c1.13-.42.24-1.37-1.2-1.57-.34,0-1,1.51-1.06,1.83S82.44,45.84,83.07,45.61Zm-3.14.17a5.54,5.54,0,0,0,1.13-1.62c0-.81-1-.58-1.27.26C79.5,45.44,79.48,46.07,79.93,45.78Zm-3.63-6.5c-.93-.41-2.2-2.21-.75-1.91a25.84,25.84,0,0,0,3,.17,13.57,13.57,0,0,1,9.42,4c1.26,1.3,1.35,2.27.07,1.37C83.48,38.83,80.7,39.59,76.3,39.28ZM111.66,179.2l-1.27.67c0,.7.26.59.82,1.09a7.42,7.42,0,0,1-1.34.08c-.93-.06-1.14,0-.73.61.19.3.45.74.45.74a2.86,2.86,0,0,1-1.26-.1c-1.15-.31-1.73-.15-1.3.48l.35.5a15.61,15.61,0,0,1-2.37-.93l-1.08.33C106.09,186.87,113.77,184.22,111.66,179.2Zm37.47-6c1.18-1,.61-2.21-1.13-3.1-.72-.37-.65-.37-1.82.31-1.44.84-1.54.89-.52,2C146.9,173.69,148.25,173.93,149.13,173.2Zm-4.41-2.8c1.09-.49.69-.4.61-1.54-.32-1.31.43-1.4.8-2.62.15-.67-.42-.43-1.52.6-.91.76-1.18.94-1.18.57s-.63-1.1-1.28-1.21-.5-.22,0-.91a3.89,3.89,0,0,0,.69-4.06c-.79-1.69-1-1.94-2.8-.47-.9.83-2.17,1.46-2.78,2.48-.44.75-.18,1.47.51,2.94C139.54,169.85,142.21,171.5,144.72,170.4Zm6.13,0c1.93-.75,1.15-2.82-1.86-4.91-1.81-1.26-2.32-1.24-.78.12,1,.87,1.14,1.18.71,1.81s-.72,1.13-.37,1.61C149.1,169.82,150,170.75,150.85,170.43ZM42.45,167l-2.09-1.32v1.8l2.09,1.25Zm104.89,1.63a2.38,2.38,0,0,0,.77-1.48c.1-.83-1.27-.63-1.93.3S146.32,169.33,147.34,168.62Zm4.7-2.84c1-1,.49-2.06-1.48-3.33-.75-.5-1.14-.82-1.05.16,0,.3-.3.7-.51.93-.68.76-.38.9,1.56,2.12C151.55,166.28,151.5,166.34,152,165.78ZM42.45,163.86l-2.09-1.27v1.64l2.09,1.41Zm-4.58,1.63,0-1.64-2.72-1.8,0,1.83Zm106.92-.66c-.35.94,1.06.51,1.14.42.24-.48,0-.52-.09-.57S144.63,164.74,144.79,164.83Zm.61-1.19c.49-.15.54-.09.48-1-.1-1.31.09-1.42,1-2,.7-.46.7-.39.69-1.2,0-1,.05-1.38,1.33-1.58.53-.08.83-.21.87-.62.07-.7-1-1.86-2.43-2.54a36,36,0,0,0-4.18,3.62l-.53.57.63,1.18c1,1.85.83,2.52.25,5-.12.66.39.56.52-.23S144.27,163.86,145.4,163.64Zm4.74-6.52c-.24,1.48.53,2.39,1.26,1.66a8.89,8.89,0,0,0,.46-4.2C150.36,153,150.2,156.76,150.14,157.12ZM126,181.72c5.57-3.25,12.72-.6,16.76-3.26,1.88-2.07,3.77-3.38,2.7-4.81-.83-1.11-1.37-1.27-1.37-1.27a9.33,9.33,0,0,1-7.29,2C129.57,174.14,126.14,176.41,126,181.72Zm9.51-7.74c3.55.12,6.43-.49,7.75-1.51.82-.64.95-.75-.34-.85-2.75-.23-5.54-3.41-6.42-6.49-.17-.64-.38-1.33-.38-1.33-7.34,5.84-23.5,15-23.5,15,1.08,5-2.54,7.93-7.43,6.16-.85-.07-.74,1-.58,1.47a4.2,4.2,0,0,0,1,1.44c.73.63.87,1,.76,1.63s-.1.57.31.79c.74.39.7,1,.3,2.1-.43,1.63-.46,2,.71,2.8,1.5,1,4.46,2,4,3.47-1,3.29-2.61,6.11-4,9.19a3.17,3.17,0,0,0,0,2.91c.52,1,.46,2.2,1.13,3.12,3.71,5.49,6.91,10.23,10.29,15.19H154V148.28s-5.89,5.34-5.87,5.72,1.28,1.15,1.82,1.24c0-.24,0-1.2.06-1.54s1.63-.36,2.15.06c.36.3.25,2.25-.12,3.83-.3,1.29-.26,1.31.3,2.06a3.66,3.66,0,0,1,.83,2.71,2.91,2.91,0,0,0,.11,1.39,3.11,3.11,0,0,1-.15,2.69c-.6.83-.61,1-.48,1.41.5,1.54.31,2.86-1.42,3.53a1.59,1.59,0,0,0-.61.8c-.75,2.47-2.17,2.47-4.1,1.75-1.38,5.33-6.95,6.67-11,6.51-4.19-.17-8.44.15-10.34,2.87.45-6.46,3.35-9.57,10.32-9.33Zm12.64-10.72a.81.81,0,0,0,.2-1.48c-.92-.73-2,0-1.54,1.06C147.06,163.43,147.46,163.51,148.16,163.26ZM38,160.91,35.2,159v1.72L38,162.49Zm5.26,1.42-2-2.36c-5.82-3.54-10.86-7.5-15.69-10.69l0,2.18,1.39.69s.11-.48.21-.75c.17-.52,1.77.94,2.28,2.12.13.29.4.94.4.94l1.87,1s0-.53,0-.68c0-1.12,2,.42,2.91,2.25.22.44.5.91.5.91L36.89,159c.69-.94,2.45.35,2.9,1.49.58,1.45,1.58,1.58,1.62,1.58ZM32.75,162v-1.67l-2.91-1.91,0,1.7Zm119.63.14c.08-.44-.35-2.15-1-2.25-.4-.06-1,.56-1.05,1S152.3,162.62,152.38,162.15Zm-2.36-2c.64-.69-.17-1.59-1.14-1.28-1.15.37-.75,1.41.54,1.43C149.71,160.28,149.88,160.27,150,160.12ZM32.6,158.88v-1.59l-2.69-1.77-.05,1.56Zm-5.28-.56,0-1.53-1.76-1.23v1.84Zm.06-4.6-1.8-1.17v1.67l1.88,1.07Zm7.32-5.06c-.19-.49-1-2-1-2l-8.17-5.68v1.75l9.14,6.12Zm-3.83-13.5-.09-.71-.73.38Zm-1.73.18L28,136l3.45,2.24-.28-1.59ZM149,116.5l.89-.65-1.58-1.06-.11,1.08Zm1.59-1,1.17-1-3.91-2.75.27,1.71Zm2.77-1.43v-1.18L147,108.6l.44,2.14c1.11.64,2.48,1.58,3.91,2.59C152.3,114,152.3,114.21,153.38,114Zm0-2.18V110L146,105.15l.6,2.18Zm0-2.79v-2l-8.88-5.84,1,2.58Zm0-4.91-11.2-7.46,1.43,2.86,9.77,6.5Zm0-2.85-14-9.31,1.57,2.6L153.38,103Zm0-3h-.52c-.05,1.34-1.5.37-2-1.1-.42-1-.51-1.23-.51-1.23L147.48,94c.06.39.22,1.5.22,1.5l-1.9-1.16s-.55-1.84-.57-1.85L142,90.33c.07.37.13,1-.09,1a3.83,3.83,0,0,1-1.44-1.08,3.25,3.25,0,0,1-.54-1.37l-2.66-1.71-.66.07s-.36-.24-.7-.51A4.13,4.13,0,0,0,133.63,85s1.87,2.17,2.87,3.46a12.25,12.25,0,0,0,2,2l14.85,9.87Zm0-3-1.15-.69.09,1.8,1.06.72Zm-115.75-4c.07-.11-.23-.24-.55-1a5,5,0,0,1-.45-4.19c.2-.88-.59-1.26-1-.32-.29.73-.73,1.13-1.16,1.08s-.49.12-.31.67a1.85,1.85,0,0,1-.89,2c-.66.17-.77.58-.59,1.17.3,1-.77,1.82-1.61,1.78-1.29-.08-.78,1.1.78,2.22.58.41.84.64,1.29.43C34.37,94.08,36.57,92.48,37.63,91.27ZM150.2,94.88l-.07-1.71L146.87,91l.4,2.3Zm3.18-.72V92.43L152,91.57l.07,1.84ZM30.55,91.48c.32.32.63.35,1.12,0s.36-.75-.24-1S30.08,91.09,30.55,91.48Zm-1-.76a.94.94,0,0,1,.7-.86c.67,0,.56-.4-.21-.86-.36-.22-1-.73-1.23-.89-1.15-.83-2.25.45-1.4,1.53C28.15,90.54,29.2,91.08,29.58,90.72ZM149.87,91.8l-.25-1.91-3-2,.24,2.1ZM42.74,87.14a1.36,1.36,0,0,0,.19-.84,7.46,7.46,0,0,0-1.56-3.8,7.33,7.33,0,0,0-2.23-2.07c-2.26-1.16-5.26-.66-4.83.83.32,1,.24,1.84-.62,2.35-.59.34-.67.8,0,.81a3.15,3.15,0,0,0,2.15-1.2c.7-1.11,1.11-1.75,1,0-.07.76,0,.7,1.2.64,1.59-.08,1.3.22.37.93a3.47,3.47,0,0,0-.94,4.3c.42.93.71,1.42,1.26,1.3A32.69,32.69,0,0,0,42.74,87.14Zm101.93,2.23-2.9-1.9.11,2L145,91.34ZM33.34,87.51a.94.94,0,1,0-1.5,1.11C32.42,89.14,33.9,88.61,33.34,87.51Zm-2.51.18c-.14-.41.63-1.08.75-1.35.36-.77-2.79-2.93-3.77-1.65-.68.88-.21,1.76,1.61,3C30.52,88.38,31.05,88.38,30.83,87.69ZM144.39,86.4l-2.69-1.66.05,1.76,2.85,1.71ZM139.66,88v-1.8L137,84.31l-.05,1.85Zm-105-2.13c.49-.48.32-.63-.62-.59-.6,0-.79-.06-.83.21C33.1,86.07,34.14,86.35,34.64,85.85Zm-2.25-.67c0-.13-.29-.37-.84-.84-1.06-.88-1.18-1.43-.16-2.11,1.45-1-.07-2.37-1.75-1.81a1.56,1.56,0,0,0-.56,2.7C30.19,83.85,32.19,86,32.39,85.18Zm107.27-1.8L137,81.57v1.77l2.66,1.54ZM32.89,83.5c1.19-.6,1.25-2.11.06-1.56-.49.23-1.12.85-1.13,1.13C31.82,83.61,32.29,83.8,32.89,83.5ZM33.76,80c1.53-.82,1.3-1.58-.23-2.54-1.86-1.06-3.17,1-1.63,2.37C32.7,80.6,32.89,80.51,33.76,80Zm2-1.48c2.49-2.67,4.15-2.53,7.44-2.46,8.49.08,11.09-4,10.82-6.8-4.12,2-7.81,1-11.73,1.54-6.78,1.5-7.58,4.68-8.05,6.49Zm34-9.09c2.19,0,2.09.09,1.19-1.7,2.13.29,3,1.3,2.28-.81,1.13.4,1.81.71,3,1.09l.74-.42c-4.51-4.37-9.51-.67-8.19,3.74l1.67-.8Z"/><path id="path3502-5-8-1" class="cls-1" d="M80.79,229.15l1-5.06,9.36.46s1.08,3.17,1.52,4.6ZM59.19,229l5-8.17,7,1.91-1.63,6.38Zm13.7.12L75,220.44c-4-.89-7.83-1.47-12.28-2.67l-7.23,11.37L51.18,229c3.74-5,10.58-15,10.58-15a93.22,93.22,0,0,0,47.41,3.45s5.87,7.7,8,11.88l-4.14-.2-5.14-8.57c-3.57.38-7.09.86-10.83,1l2.56,7.56H95.48l-2.33-7.53c-4.48-.18-8.24.17-13.61-.66l-1.89,8.19Zm29.6,0-1.41-5.36,5-.58s2.34,4.08,3.63,5.94Zm-45.3-49.79c6.28-9.5,28.43-40,28.43-40l3.25.13S69,167,59.47,180.91Zm-32-14.78,7.73,5.54L33,213.3l-7.85,5.5ZM57.27,94,62,103.07c-19.88,18.77-16,40.79-5.33,56.5a31.06,31.06,0,0,1-4.38,7.24c-14.41-9.47-18.79-34.07-18.68-34.33C49.44,118.36,51.58,113.87,57.27,94Zm81.26,67.25c1-13.89,7.85-23,15.49-28.52l.39,14.13C149.41,151.6,144.12,156.53,138.53,161.2Zm-20.76-14c17.41-16.2,18-39.21,5.32-56.09l5.19-7.23c7.36,7.85,14.58,16.07,17.65,35.18-11,8.66-20.78,23-23.37,37.41Zm-24-18.85,0-6.62,6.51,0-.18,6.61ZM80,128.31l-.09-6.6,6.44.05-.1,6.68Zm11.15-17.67s21.59-30.09,30.06-40.95L123,71,94.3,110.81Zm-50.41-21c0,11.87-7.67,21.28-15.47,27.42l.1-13.52Zm113.4-57.3.05,52.7-7.3-4.37.62-44.2Zm-34.77,3.12c-16.46-4.26-31.46-5.54-47.23-2.17-2.06-2.45-9-12.62-9-12.62l4,.06,5.64,9,10.75-1.4L80.78,21l4.44,0,2.2,7.18c0-.06,8.75.08,13.62.66.78-2.67,2.22-8,2.22-8h4.88c-.63,2.54-2.31,8.59-2.31,8.59A115.48,115.48,0,0,1,117.31,32c2.6-3.67,5-7.33,7.37-11l4.76,0C128,23.33,119.64,35.54,119.37,35.42Zm-3-6.32-7.28-1.69L111,21h10.17ZM74.56,26.79l-3.38-5.92h6.51l2.15,5.22Zm14.78-1.2-1-4.72h11.82l-1.21,5Z"/><path id="path3500-9-6-1" d="M62.31,20.47,72.82,35.58a84.5,84.5,0,0,1,11.64-1.44A83.23,83.23,0,0,1,97,34.39s1.8,5.4,2.41,8.06a21.67,21.67,0,0,1-.13,10.33c-1.25,4-1.9,5.15-4.68,7.88a25.37,25.37,0,0,1-8,5.31c-4.16,1.73-4.58,1.72-7,1.83a4.65,4.65,0,0,0-2.67.6c-.28.09-.46.38-.7.46a1.48,1.48,0,0,1-.59,0A166.13,166.13,0,0,0,43.55,87.21c-.09.07-.15.38-.24.45-.65.53-1.26.94-1.89,1.42-.09.07-.29,0-.38,0a190.28,190.28,0,0,0-16.69,14.76l.19,33.61S28.82,135.28,31,134a54.06,54.06,0,0,0,18.35,34.43l-4.46,6.13-20.58-14.1.29,62,10.94-7.57v-6.54c3.26,2.19,6.44,3,8.75,13,1.85-3.49,1.69-8.7.86-12.18a16.73,16.73,0,0,0,3.63-4l-4.07-3.59s1.05-8.7-.86-10.45c-1.52,4-2.73,8.13-8.39,11.18L35.41,172c2.82,1.78,5.49,3.78,8.28,5.61l.39-.07,2.89,2s-.31.61-.59,1c-3.51,5.3,2.34,11.8,7.09,7.89,1.87-1.54,5.36,4.84,6,11,.67,4,1,8.88,2.12,12.31a1.72,1.72,0,0,1-.51,2.18l-11,15.4H55.4l.38-.6H51.89c3.36-4.44,6.55-9.62,10-14,13,4.86,34.18,6,47,3,2.65,3.69,5.22,7.57,7.77,11.34H113l.51.79h5L108,214.53c-7.24,2.15-24.89,1.31-24.57,1.14,0,0,0-.12-.66-1.87-3-9.75-3.31-18.39,4.29-25.38,4-3.58,8.55-5.94,13.59-5.49,2.25-.05,2.29-.17,3.23-.59a11.73,11.73,0,0,1,1.59-.47l5.1-2.82.68-.14,1.46-.77.31-.35,2.37-1.2.27,0,3.2-1.84,0-.26,1.27-.78.3.32a158,158,0,0,0,17.66-12.41l.32.12c5.94-4.8,14-12.36,16.43-15.23l-.12-14.39-.21-.17L154.46,116H154l0-2c-2.64,1-5.53,3.41-5.72,3.3a56,56,0,0,0-18.1-35l4.33-6,20.15,13.5.05-3.94h.25c.25-15.13.39-54.33.39-54.33l-.2,0V28.45L144.83,35l-.15,6.62c-4.56-1.49-7.46-6.95-8.41-11.82-1.33.53-2,5.66-1.46,12.15a11,11,0,0,0-3.18,2.87,28,28,0,0,0,3.73,3.73c-.29.61-.89,9.27-.29,10.35.27.79,1.22.68,1.23-.16,1.39-6.75,7.82-11.19,8.18-10.78l-.16,31.16-11.43-8c2.4-2.7,2.91-7.26-.11-9.48a4.51,4.51,0,0,0-6.7,1.08c-3.72-2.41-5-11.34-5.51-14.83a41.71,41.71,0,0,0-1.08-6.1,20.9,20.9,0,0,1-.74-3.72,1.94,1.94,0,0,1,.55-1.48l11.11-15.7-5.67,0-.06.1h4.47l-10,14.18a98,98,0,0,0-47.44-2.87L63.42,20.73h3.76L67,20.47ZM71,20.6l.16.29,6.5,0-.1-.24Zm9.63,0,.13.34h4.43l-.14-.33-4.42,0Zm22.62.12,0,.15h4.88l0-.16Zm-15,0,.05.2h11.78l0-.19Zm22.68.1,0,.17h10.17l.08-.16Zm42.91,8.64,0,2.14L147.11,36c-.17,9.12-.43,44.19-.43,44.19L145,79.08l.32-43.92S151.41,31.3,153.91,29.5ZM136,31.22h.23l.07.49h-.4Zm.48,1.29.18.67h-1l.17-.64.65,0Zm17.24.34v1.4l-5.89,3.66V36.53ZM135.52,34l1.54,0,.26.77h-1.94Zm-37.85.42,1,.15A46.88,46.88,0,0,1,102.09,50c.94,6.51,2.84,13,4.16,15.8h-1.51a77.18,77.18,0,0,1-4-15,26.38,26.38,0,0,1-.16-3.15,47.73,47.73,0,0,0-2.88-13.23Zm1.94.22,1.32.14c.92,4,2.26,7.74,2.8,11.75.87,6.4,1.34,12.94,4.44,19.25h-1.23a53.46,53.46,0,0,1-3.8-13.53c-.58-2.76-.59-4.83-.9-7.33A65.84,65.84,0,0,0,99.61,34.65Zm2,.19,1.32.19c.86,4,2.35,8.32,2.74,11.89.8,7.29,2,14.08,4.26,18.89l-.92,0c-3.57-6.88-3.62-13-4.62-19.45-.59-3.8-1.84-7.59-2.78-11.5Zm2.1.3,1.16.18c.81,3.94,2.26,8.4,2.6,12.39A50.58,50.58,0,0,0,112,65.84l-1.09,0c-3.19-5.56-3.62-12.38-4.61-19.29C105.72,42.75,104.48,38.91,103.71,35.14Zm50,0v1.73l-5.89,3.76v-1.7Zm-48.1.34,1.21.18c.79,3.8,2.24,7.85,2.59,11.55a58.59,58.59,0,0,0,4.37,18.58l-1.13.07a49.28,49.28,0,0,1-4.49-18.16C107.87,43.88,106.39,39.22,105.61,35.49Zm32.09,0,.43,1-2.83.14,0-1.15Zm-30.09.35,1.44.28c1.53,6.06,1.94,11.8,3,17.56,1.3,7.15,2.67,10.75,3.8,12.08l-1.2,0c-2.92-6.2-3.95-12.35-4.63-18.74-.4-3.76-1.64-7.47-2.39-11.22Zm2.2.41,1.1.22a103.85,103.85,0,0,1,2.48,14.07c1,8.51,3.9,15,4.51,15.28l-1.22,0c-2.63-3.63-3.61-9.8-4.9-18.51-.57-3.83-1.14-7.44-2-11Zm1.77.36,1.24.3s1.11,4.36,2,10.14c.7,4.81,1.07,14.29,6.33,19.74,2.62,2.73,7.24,5.09,10.4,2.52a4.25,4.25,0,0,0,1.41-4.94c-1.37-3.28-6-2.72-4.45.72.18.83-.91.87-1.66.06a2.11,2.11,0,0,1,0-2.75c1.19-1.9,4.37-2.1,6.23-.4,3,2.91,1.69,7.89-2.08,9.47-4.34,1.84-9.94-1.95-12.16-5.57-3.67-6.31-4.24-12.3-5.1-18.67-.43-3.44-1.28-7-2.07-10.62Zm1.86.51,1.26.3s1.37,6.14,1.82,9.77c.56,4.48,1.18,9.76,3.11,13.84A15.33,15.33,0,0,0,124.34,67c1.51,1.07,2.87,1.75,4.89,1.31,2.33-.51,2.43-4.1.21-4.1-1.14,0-.4-1.1.54-1.13,3.35-.11,3.45,5.15.3,6.32-3.61,1.35-7.52-1.19-9.93-4.37-4.23-6.54-4.07-12.5-5-17.78A96.73,96.73,0,0,0,113.44,37.14Zm25.34.18.77,1-4.26,0,0-1,3.47,0Zm-23.47.34,1.2.41a92.07,92.07,0,0,1,1.93,10.37c.86,5.42,1.14,9.93,4,13.84,1.17,1.63,3.38,3.8,4.77,4.06.86.18,1.76,0,2-.66.36-1.07,1.28-.58,1.3.39a1.79,1.79,0,0,1-1.35,1.63c-4.14.71-7.93-4.46-9.08-7.08-1.55-3.82-2.22-8.09-2.89-13.4C116.84,45,115.47,37.8,115.31,37.66Zm38.4.19,0,1.71-5.87,3.69V41.58Zm-36.6.33,1.35.37a79,79,0,0,1,1.78,9.34c.68,5.24,2.14,11.32,4.86,14.47a5.1,5.1,0,0,1,.52.69c.2.43,0,1.15-.24,1.15-4.84-2.51-6-12.61-6.4-16A81,81,0,0,0,117.11,38.18ZM136,39l4.27.12,1,1-5.66,0C135,39.45,135.37,39.52,136,39Zm17.75,1.39v1.43l-5.89,3.72V44.07Zm-17.6.46,6.25.1,2.2,1.3L135,42.17Zm17.6,1.8v1.71L147.82,48V46.42ZM133.79,43l10.63.12,0,1.14-11.53-.29Zm-1.38,2,12,0,0,1.27-10.93-.11-1.12-1.19Zm21.3.19V46.9l-5.89,3.64V48.85Zm-19,1.87,9.21,0-1,1.06L135.93,48Zm19,.63v1.67L147.82,53V51.33ZM141.6,48.9,140.48,50l-4.77-.07.16-1Zm12.11,1.18v1.8l-5.89,3.58V53.9Zm-18.07.65,3.94.09-.6.82-3.45,0,.11-.93Zm-35.43,1.44c.59,4.53,3.89,13.66,3.89,13.66h-1.3a62.3,62.3,0,0,1-3.23-11.25c-.11-.53.25-2.3.64-2.42Zm35.17.26,3,0-.66,1.17h-2.47l.09-1.22Zm18.33.28v1.57l-5.89,3.61V56.46ZM135.29,54.3l2,.06-.48,1.08-1.56,0Zm18.42.85v1.68l-5.89,3.64V58.85ZM99,55.51a78.27,78.27,0,0,0,3.29,10.36h-1.11c-.05.15-2.61-5.94-2.89-8.54-.13-.55.16-1.63.71-1.83Zm36.3.7,1.19,0-.2.62-1,0Zm.1,1.48.62,0-.14.59h-.39l-.09-.61Zm18.34,0v1.36l-5.89,3.72V61.51Zm-56.22.15c.89,2.65,1.79,5.34,2.85,7.92l-1.32,0a53.74,53.74,0,0,1-2.17-6,1.85,1.85,0,0,1,.64-1.89Zm-1.31,1.77,2.19,6.1H97.12c-.51-1.22-1.09-2.6-1.49-3.86S95.26,60.52,96.18,59.64Zm57.53.38v1.61l-5.89,3.63V63.87Zm-59,1.3c.28,0,.3.33.56,1.06l1.2,3.38-1.54,0a10.42,10.42,0,0,1-.84-3c0-.5-.13-1,.22-1.21a1.05,1.05,0,0,1,.4-.16Zm-1.64,1.27c.26,0,.36.48.56,1.18l.64,2-1.43,0a4.22,4.22,0,0,1-.46-2.59c.32-.37.53-.53.69-.53Zm60.65,0v1.69l-5.89,3.52V66.25ZM91.58,63.81l.6,2-1.29,0a3.7,3.7,0,0,1-.09-1.53Zm-1.7,1,.05,0c.18.86,0,.91,0,.91H88.13a9.31,9.31,0,0,1,1.75-.92Zm63.83.51v1.34l-5.89,3.66V69ZM83.64,67.45l35.41.1,1.18,1.66s-3.44.09-14.73,0C96,69.36,76.92,69,76.92,69l1.85-.87A23,23,0,0,0,83.64,67.45Zm70.07.2v1.48l-5.89,3.55V71.25ZM54.07,69.07a15.71,15.71,0,0,1-7.49,1.4C42.3,70.13,35.76,71.91,34.45,76c-.42,1.45-.42,1.49.36,2.22a2.6,2.6,0,0,0,.84.62,9.19,9.19,0,0,1,2.58-2.07,13.82,13.82,0,0,1,4.09-.53c4.54-.2,5.56-.39,6.69-.69,2.49-.65,5-3.09,5.14-5.8A2.49,2.49,0,0,0,54.07,69.07Zm-.12.37c-.48,5.66-6.64,6.4-9.34,6.23C39.13,75.35,37,77,36.1,78c-.28.27-.45.21-.41,0,.64-3.13,5.72-3.25,8.28-3.22C50.25,75,51.83,72,51.66,72c-.48.21-.83.4-1.31.62-.21.09-.17,0-.71-.35,0,0-.63,1.44-1.43.11,0,.07-.57,1.18-1.66.14,0,.12-.66,1.07-1.73.09-1,.86-1.49.39-1.92-.21-.32.19-1.25,1.44-2,.09-.83.53-1.18,1.09-1.89.75a5.59,5.59,0,0,0-3.68,3.55c-.19.54-.56.62-.6,0-.2-1.62,2.48-4.43,5.18-5.21A20.53,20.53,0,0,1,48,70.73,17.21,17.21,0,0,0,54,69.44Zm67.17.43L122.78,71,93.9,110.66l-2.55-.07,29.77-40.72Zm-46.33,0h3.28V75.3H75.24l-1-1.5a1.68,1.68,0,0,0,.89.25,1.75,1.75,0,1,0-1.76-1.75,2.11,2.11,0,0,0,0,.25L72.32,71s.45-.26,1.52-.74C74.12,70.12,74.79,69.89,74.79,69.89Zm10.12,0h5.56V75.3H84.91Zm12.19,0h5.76v5.45l-5.76,0Zm12.44,0h5.75V75.3h-5.75Zm44.08.13.09,1.69-5.89,3.57V73.61Zm-41.41.56a1.86,1.86,0,1,0,1.86,1.85A1.86,1.86,0,0,0,112.21,70.58Zm-24.51.1a1.86,1.86,0,1,0,1.87,1.85A1.86,1.86,0,0,0,87.7,70.68Zm12.14,0a1.85,1.85,0,1,0,1.86,1.85A1.85,1.85,0,0,0,99.84,70.72Zm6.27.22a1.56,1.56,0,1,1-1.56,1.55A1.55,1.55,0,0,1,106.11,70.94ZM81.42,71a1.56,1.56,0,1,1-1.56,1.56A1.56,1.56,0,0,1,81.42,71Zm37,.05a1.47,1.47,0,0,1,1,.38l-1.7,2.3a1.42,1.42,0,0,1-.71-1.24A1.45,1.45,0,0,1,118.43,71ZM94,71a1.56,1.56,0,1,1-1.56,1.56A1.56,1.56,0,0,1,94,71Zm-18.86.12A1.16,1.16,0,1,1,74,72.3,1.16,1.16,0,0,1,75.12,71.14Zm-3.57.06a83.68,83.68,0,0,1,17.51,39.26l-1.66-.08A85.66,85.66,0,0,0,70,71.81l1.53-.61Zm40.66,0A1.23,1.23,0,1,1,111,72.43,1.23,1.23,0,0,1,112.21,71.21Zm-24.51.1a1.23,1.23,0,1,1-1.23,1.22A1.22,1.22,0,0,1,87.7,71.31Zm12.14,0a1.23,1.23,0,1,1-1.23,1.23A1.24,1.24,0,0,1,99.84,71.34Zm30.88.88c.66,5-.63,8.2-4.45,8.72-4.86.67-5.49,1-5.52,5.62,0,5.44-.84,7-4.71,7.44-4.35.48-5.36,1-5,6.38.29,3.93-1.27,5.6-4.62,6.33-2.62.57-4.88,1.44-5.85,4.07l-2.4,0c.62-4.14,4.8-6.11,7.48-6.25,2.89-.68,3.49-1.65,3-6.69-.35-3.79,1-4.94,5.52-5.81,3.58-.7,4.46-1.73,4.26-4.64-.41-6.25,0-7.19,3.57-8,1.81-.43,4.77-.62,5.9-2,1.28-1.57,1-2.91.84-4.84l1.93-.4Zm23,.17V74l-5.89,3.62V76.05Zm-86.61,1c-1.26,5.41,3.08,6.59,5.71,7.51,3.07,1.06,3.81,2.6,3.47,8-.27,4.07.18,5,2.83,6.37,4,2.08,5.14,5,3.34,9.37-1.11,2.67-.53,3.42.17,5.75l-2,0a6.48,6.48,0,0,1-.39-6.09c1.68-3.76,1.63-5.65-2.11-7.34-2.89-1.31-3.77-2.55-4-5.25a19.21,19.21,0,0,1,.2-4.17c.33-3.11-.78-4.45-5.4-6.16C67,80.56,65.55,78.79,65.13,76a7.29,7.29,0,0,1,0-1.69l2-.92Zm69.09.58,17.57,11.65-.12,2.59L135,75.77Zm-11.32.26a1.54,1.54,0,1,1-1.54,1.53A1.54,1.54,0,0,1,124.87,74.2Zm-55.27.67a1.39,1.39,0,1,1-1.4,1.39A1.39,1.39,0,0,1,69.6,74.87Zm84.06.16-.06,1.56-5.78,3.57V78.6Zm-77.8,1h40l-1,1.37L76.62,77ZM62,76.12c5.31,6.9,10.53,14,14.56,27.4l-1.72.66A79.81,79.81,0,0,0,60.35,77L62,76.12Zm91.73,1.23v1.71l-4.43,2.69L148,80.9Zm-94.08.19.78,1s-.85.67-1.81,1.35c-2.62,1.87-3,2.08-3.13,3.29C55.05,86.09,58,87.52,61,85.85c1.08-.49,3.43-2,3.43-2l.67,1S61.75,87.38,59.77,88c-4.34,1.26-7.58-4.22-4.37-7.48a16.75,16.75,0,0,1,2.35-1.69C58.6,78.23,59.63,77.54,59.63,77.54Zm17.86.67,36.88.22L90.82,110.5l-1-.06C88,98.45,83.42,88,77.49,78.21ZM61.41,79.57l2.16,3a19.19,19.19,0,0,1-3.73,2.6c-1.86,1-3.87-.82-2.7-2.48S61.41,79.57,61.41,79.57Zm92.3.31v1.56L151.16,83,150,82.26Zm-92.57,1.2a5.29,5.29,0,0,0-3.29,2.21.89.89,0,0,0,.07,1.08c.35.45.76.42,2-.23,2.5-1.33,3-2.12,1.87-2.9a1,1,0,0,0-.54-.16Zm-.08.64c.16,0,.35,0,.51,0,.43.18.3.72-.16.84-.1-.15-.85-.17-.8.59-.18.43-.17.39-.73.45a.6.6,0,0,0-.67.33c-.38.2-.85.14-.94-.09s.23-.86.5-.86c.12,0,.35-.18.58-.34,0-.41.48-.47.63-.47a.82.82,0,0,0,.83-.35A.35.35,0,0,1,61.06,81.72Zm92.65.38v2.41l-1.85-1.18Zm-102.33.3A67.76,67.76,0,0,1,66,110.34l-1.35.93c-2-8.16-5.17-16.78-14.44-28Zm78.58.13a54.73,54.73,0,0,1,17.88,35l-1.67,1a56,56,0,0,0-17.28-34.61Zm-6,.72a1.54,1.54,0,1,1-1.54,1.53A1.54,1.54,0,0,1,124,83.25Zm-74.44.6s1.41,1.45,1.4,1.79c0,.68-.54,1.07-3.79,2.25-.55.19-2.94.74-2.94.74l-.09-1.15c1.22-.44,4.51-1.23,4.75-1.92.11-.27-.47-1-.35-1Zm22.37.3a1.39,1.39,0,1,1-1.4,1.39A1.4,1.4,0,0,1,71.89,84.15Zm56.53.39a56.15,56.15,0,0,1,17.05,34.69c-11.83,9.58-19.86,21.62-23,36.68-1.58-2.62-2.92-5.62-4.38-8.57,15.78-13.81,19.1-38.68,5.45-56.11l4.93-6.69ZM66.33,86.43,67,87.52s-.14.14-2.36,1.5c-3.23,2-3.76,3.31-2.68,5.35s2.33,2.21,5.81.53c1.22-.59,2.26-1.21,2.26-1.21l.56,1.15a17.15,17.15,0,0,1-4.55,2.35c-2.82,1-5.48-.73-6-4-.36-2.35.67-3.61,4.78-5.93C65.34,87,66.33,86.43,66.33,86.43Zm48.38.52a1.53,1.53,0,1,1-1.54,1.53A1.53,1.53,0,0,1,114.71,87ZM52,87l.93.87a9.91,9.91,0,0,1-2.69,2c-2.06,1.23-2.27,1-1.25,1.89,1.91,1.61,4.56,5.17,4.55,6.09s-.81,1.7-2.34,2.39c-.83.37-4.14,1.55-4.63,1.63-1,.11-1.24.49-.27,1.37,1.64,1.87,3,5.89,2.48,7.11-.64,1.38-1.4,1.62-7.48,1.89-.69,0-1-.16-.65.72a21.12,21.12,0,0,1,1.1,4.25c.49,2.43.41,3.52-.54,4-.55.29-4.78.19-6.52-.15-2-.39-2.22-.42-1.9.88.42,1.79.68,6.59-.68,7.52-.56.36-1.17.27-3.66-.56-1.58-.53-3-1.14-3-1.14l0-1.49c1.29.53,4.83,2,5.83,1.57,1.2-1.7-.46-7.68-1.09-9-.77-1.53,0-1.86,1.79-.91.93.65,8.89,3.78,8.44,1s-1.35-5.68-3-7.58c-1.56-1.75-.78-2.47,1-1.7,3.06,1.36,9.38,1,9.06-.39-.41-2.29-2.51-5.4-5.37-7.81-.8-.68-.83-1,.11-1.13,2.68-.21,10.34-1,9.27-2.79a18.59,18.59,0,0,0-3.2-4,14.1,14.1,0,0,0-4.21-2.35l.05-1.1C47.59,89.84,49.4,88.8,52,87Zm-8.44,1.08c-1.26,13.06-6.74,23.82-18.07,31.33L25.4,118c10-7.44,14.74-18,16-28.27Zm9.61.62.93.83A9.15,9.15,0,0,1,52.49,91c-1,.79-.68.48,0,1.43.63.76,1.76,2.27,1.76,2.27l-.34,2A34.22,34.22,0,0,0,50,92c-.89-.91-.84-.93.43-1.59C51.42,89.9,52.19,89.26,53.14,88.71Zm14.51.2h0a39,39,0,0,1,1.82,3.56c-1.09,1-3.92,2.46-5.08,2.12C62.61,94,62.33,92.11,64,91a21,21,0,0,1,3.59-2.08ZM78.56,90A1.38,1.38,0,0,1,80,91.39,1.4,1.4,0,1,1,78.56,90Zm-11.29.11a11.36,11.36,0,0,0-3.37,2c-.27.19-.06,1.15.2,1.47s.93.36,1.66,0c.3-.16.85-.44,1.22-.61,1-.47,1.45-.82,1.41-1.21S67.81,90.08,67.27,90.12Zm-26.77.51c.29,1.46-.6,4-1.1,5.49-3,3.88-7.3,5.86-11.41,7.22a5.83,5.83,0,0,1-2.13.15A100.58,100.58,0,0,1,40.5,90.63Zm26.84.09a.63.63,0,0,1,.52.78c-.64.35-1,.06-.91.54,0,0,.06.75-.87.77a.83.83,0,0,0-.82.11c-.66.27-1.23-.3-.52-.62.19-.09.67-.24.8-.53s.37-.66.7-.46c.18,0,.57,0,.69-.23,0-.31.18-.34.34-.35Zm-38.5.66c-.16,0-.28,0-.32.05-.27.26-.71,4.3-.43,4.59s1.5.52,1.61,0A37.21,37.21,0,0,0,30.12,92c0-.25-.8-.53-1.28-.57Zm.44.43c.14,0,.26.23.35.57a12,12,0,0,1-.35,2.82c-.16.6-.63.47-.8-.09a5.41,5.41,0,0,1,.31-2.88C29,91.91,29.14,91.78,29.28,91.81Zm26.31,0,1,1.2c-2.06,19.49-16,36.35-31,43l0-1.29C42.63,125.84,52.9,111,55.59,91.83Zm67.53.08L125,94.44l-2.65.08Zm-79.37.82c.92,0,5.78,3,5.13,4.47-.52,1.18-4.59,1.27-6.45,1.11l.28-1.14a7.93,7.93,0,0,0,2.74,0c2.27-.15,2.1-.93-.5-2.58l-1.39-.87.19-1Zm13.48,1.6a69.81,69.81,0,0,1,4.27,8.57c-18.38,17.28-17,40.81-5.37,56.25l-5,6.72A57,57,0,0,1,33.88,132.3c14.58-10.45,21.43-26,23.35-38Zm68.26.77,1.1,2.09-2.64,0Zm-11.38,1a1.53,1.53,0,1,1-1.54,1.53A1.54,1.54,0,0,1,114.11,96.14Zm-42.77.41.52,1.19c0,.15-3.72,1.33-4.93,2.84a3.27,3.27,0,0,0-.38,3.86c1.07,1.44,1.83,1.64,3.63,1.09a25.09,25.09,0,0,0,4-1.79l.23.59s-2.09,1.23-3.69,2.12a3.91,3.91,0,0,1-1.94.47,4.28,4.28,0,0,1-2.56-7.51,20.74,20.74,0,0,1,3.17-1.86Zm48.07.74c12,17.23,3.78,36.1-4,42.78l-.21-2a32.39,32.39,0,0,0,3.07-39.74Zm7.72.77.94,2.13-2.79-.29Zm-48.33.7a1.39,1.39,0,1,1-1.39,1.39A1.4,1.4,0,0,1,78.8,98.76ZM118,99c10.51,15.21,4.65,39.46-15.4,46.84l-.1-1.7c20.44-8.51,22.45-31.17,14.23-43.95Zm-45.55.1,1.33,3.57a10.18,10.18,0,0,1-4.2,1.75c-1.48.34-2.63-2.2-1.49-3.17A12,12,0,0,1,72.43,99.13Zm-34.08,0c.24,0,0,.6-.65,2.13-1.4,3.37-1.49,3.44-5,4a17.23,17.23,0,0,1-4.5.24c-2-.19-2.8-.74-1.53-1a31.69,31.69,0,0,0,10.42-4.55A4.83,4.83,0,0,1,38.35,99.14Zm66.79.41a1.72,1.72,0,1,1-1.73,1.72A1.73,1.73,0,0,1,105.14,99.55ZM52.9,100l-.15,1.33s-2.13,1.12-3.14,1.54c-.77.31-.82.38-.58,1.09a26.36,26.36,0,0,0,1.47,3.19l-.9,2a23.64,23.64,0,0,0-2.11-5.4c-1-1.32-1.13-1.49.35-1.76A30.29,30.29,0,0,0,52.9,100Zm19,.43c-1,.05-3.22.92-3.44,1.75-.12.47,0,1.14.41,1.28a4.4,4.4,0,0,0,3.84-1.3c.18-.25-.09-.76-.29-1.09S72.35,100.44,71.94,100.46Zm0,.71h.06c.17,0,.82.8.09.73a.8.8,0,0,0-.68.28c0,.39-.58.54-.85.4a.43.43,0,0,0-.51.23c-.41.29-.92.28-1,.07s.28-.74.63-.72a1.62,1.62,0,0,0,.57-.37c.11-.41.54-.34.81-.31S71.71,101.2,72,101.17Zm56.46.06.77,2.14-2.76-.25Zm-12.77.47a1.32,1.32,0,0,1,.93,2,1.88,1.88,0,0,1-1.92.69A2,2,0,0,1,115,107c-1,1-3-.54-2.81-.69Zm-74.82.78s4.24,3.64,4.27,5.27a.83.83,0,0,1-.68,1c-1.67.55-6.3-.87-6.3-.87l.59-1.12c.73.2,4.32,1.12,4.63.67s-3-3.7-3-3.71Zm21,1.52.51,1.76-1.74-.43Zm67.71.32.45,2.43-2.78-.65Zm-52.93,0,.41,1.42C58.69,114.29,53.31,133.83,62.91,150l-1.08,1.48C49,130.68,62,109.62,76.69,104.36Zm-41.94,1.43c.37,0,.43.2.43.42a16.35,16.35,0,0,1-2.46,3.19c-1.31.52-6.34-1.58-7.1-3.2-.14-.47.35-.26,1.47,0,2.82.8,5.69-.3,7.66-.37Zm49.07,0a1.39,1.39,0,1,1-1.4,1.39A1.4,1.4,0,0,1,83.82,105.82Zm-23.72,0,.25,2.17-2.14-.13Zm-34.3,1.68a12,12,0,0,0,5.29,2.66c1.14.25.81.36-.24,1.45s-.91,1.16-1.91.65c-1.68-.85-3.5-2.77-3.43-3.82C25.54,108,25.62,107.53,25.8,107.53Zm104.61.24.35,2.31-2.62-.91Zm-72.92.83.85,2.07L56,110.6l1.47-2Zm57.61.49a1.41,1.41,0,0,1,1.53,1.49,7,7,0,0,1-.07.77c1.37-.86,3.19-.15,3.13,1.25-.07,2-1,2-2.63,1.73.87,1.44-.16,2.82-1.79,2.29s-1.2-2-.51-3a3.59,3.59,0,0,0-.39,7c-.82-1.26-1-2.76.75-3s2.34,1,1.63,2.5c1.54-.53,3,.35,2.53,1.84-.56,1.81-2.18,1.69-3.13.59a1.59,1.59,0,0,1-2.09,2.18c-1.88-1-1-2.79.31-3.26-4.84-.5-6,6.17-2.4,7.12-.91-.57-1-3.2,1.08-2.84s1.56,2.32.24,3.18c1.59-.34,3.08,1.05,2.12,2.45-1.15,1.65-2.72.47-3.3-.65.18,1.5-.78,2.46-2,1.9-2.12-1-.55-3.4,1.11-3.24-3.37-2-8,2.17-5.26,5.62-.1-1.57.68-2.85,1.76-2.67a1.78,1.78,0,0,1,1.52,2,2.57,2.57,0,0,1-2,1.45c2.58.28,2.8,2.1,1.73,3-1.81,1.52-2.65-.23-3.07-1.26-.37,2.55-3.39,1.69-3.5-.16-.1-2,2.24-2,2.67-1.86a7,7,0,0,0-3.8-2.17l0-1.17a18.37,18.37,0,0,0,8.05-21.56l.47-.54c1.28,1,2.56,3.06,4.93,2.3a9,9,0,0,1-.83-.65c-1.22-1.2-.53-2.61,1.16-2.69Zm-51.66,1.48.81,1.19c-11.89,13.88-9.73,29.75-2.89,40.26l-1,1.2c-6.06-7.73-11-26.47,3.07-42.65Zm-37.69.17a20.51,20.51,0,0,1,2.55,2.17c.71.57.7.67.12,1.21-1.32,1.27-2.06-.56-2.49-1.31-.52-1-.57-2-.18-2.07Zm46.37.08a1.67,1.67,0,0,1,1.45,1.67,4.33,4.33,0,0,0,0,.56,5.4,5.4,0,0,0,.47-.7c1-1.69,3.2-.72,2.84,1.23-.17.91-1.71,1.26-2.13,1,.4,1.09,1.48,1.34,2.8,1.81.46.09,1.25.31,1.25.31l0,.74c-7.13,4.47-11.17,12.06-8.56,22.44l-.78,1.06c-1.44-3.44-2.76-3.37-5.12-3.5a5.85,5.85,0,0,1,.93.81c.71.84.39,2.31-.6,2.47-2.3.35-2.32-1.27-2-2.37,0,0-.41.34-.61.47a1.41,1.41,0,0,1-2.16-1.19c-.1-1.1.28-1.82,1.42-1.95a4.16,4.16,0,0,1,1,0s-.22-.44-.35-.68c-.54-1.07.65-2,1.75-1.75,1.74.42,1.6,1.91.59,3.08,2.69.2,4.1-1.55,3.91-3.29a3.65,3.65,0,0,0-3.34-3.63s.34.53.49.79A1.47,1.47,0,0,1,64,132.37a1.51,1.51,0,0,1-1.46-2.12c.11-.26.54-.58.48-.61s-.65.17-.82.19a1.54,1.54,0,0,1-1.71-2.24,2,2,0,0,1,2.58-.67c.14,0,.32.25.35.21s-.1-.33-.13-.53c-.29-1.12.25-1.73,1.47-1.65,1.71.11,2.35,1.5,1.2,2.75l-.75.8c.06.25,2.44.43,3.66-.84,1.4-1.47,1.63-4.53.21-5.53l-.7-.5c.67,1.35-.57,2.9-1.66,2.61-2.19-.53-2-2.31-.56-2.88a5.33,5.33,0,0,1-1.89-1.13,1.46,1.46,0,0,1,.32-2.17,2,2,0,0,1,2.8.64c.37-1.13.89-1.89,2.44-1.28,1.09.52,1.08,2-.11,2.75a6.14,6.14,0,0,1-1.07.48,5.19,5.19,0,0,0,2.28.6,3.73,3.73,0,0,0,3.35-5,5.29,5.29,0,0,0-.69-1,4,4,0,0,1-.21,1,1.63,1.63,0,0,1-2.59.42,1.33,1.33,0,0,1,0-2,3.55,3.55,0,0,1,1.34-.77c-.64-.22-1.36-.37-1.67-1a1.46,1.46,0,0,1,.68-1.88,1.85,1.85,0,0,1,1-.22Zm58.91.27.16,2.45-2.73-1.05Zm-75.44.15,1,2.22H54Zm53.12,0c2.39,8.8-1,15.11-7.34,20.06l-.71-.92c5-4.22,8.71-9.19,7.07-18Zm-73.24,0s3.69,4.76,3,6.37c-1,1.54-6.8-1.77-6.72-1.94l.73-.7c.92.37,3.8,2,4.44,1.7.22-1.44-1.48-3.3-2.12-4.54Zm44,0,28,.51-.84,1.47-2.18,0-4.33,7.62H80l-.53-9.62ZM48,112.05l-1,1.74c-.9.28-3.64.33-3.86.51a27.05,27.05,0,0,1,.69,3.52l-1.08,1.38c-.28-1.69-.76-3.83-1.19-5.4-.36-1.33-.26-1,2.58-1.26a25.71,25.71,0,0,0,3.83-.49Zm5.75,2.1,1.15,2-2.33,0Zm-28.07.14c.13-.05.86.75,1,1-.05.53-.88.81-1,.63a6.66,6.66,0,0,1,0-1.6A0,0,0,0,1,25.65,114.29Zm105.72,0,0,2.55-2.78-1.23Zm22,.57,0,1.65c-10.07,4.9-25.09,18-29.37,41.64l-.88-1A62.15,62.15,0,0,1,153.42,114.89ZM52.14,117.17,53.4,119l-2.27.25Zm79.29.72-.22,2.26-2.74-1.51Zm-52.6.47c0,.53.06.92.09,1.46-6.2,4-8.3,10.29-7.26,18.21l-.86,1.27A18.34,18.34,0,0,1,78.83,118.36Zm-50.78.31s2.36,5.3,1.43,6.55c-.91.73-3-.49-4-1l0-1.27s.72.37,1.45.66c1.5.66,1.51-.13.68-2.34-.28-.78-.57-1.68-.57-1.68Zm122.71.15a19.58,19.58,0,0,0,2.68,1l0,1.51-4.22-1.51ZM50.67,120.46l1.62,1.69-2.26.51Zm98.07.19a2.48,2.48,0,0,1,.47,0,15.66,15.66,0,0,1,4.19,1.16l0,1.67a35.75,35.75,0,0,0-4.51-1.4c-1.17-.16-1.1.49-1.1,2.14a14.38,14.38,0,0,0,1.62,6.48c.89,1.84.43,2.34-1,1.51-2.61-1.78-8.16-3.12-9-2.09s.85,6.38,2.86,8.91c.81,1,.86,1.19.48,1.6s-.8.34-1.68.06c-2.89-.91-7.07-1.12-8.27-.34s1.91,6.08,4.52,7.8c1.7,1.2,1.37,1.8-1.37,1.86-4.47,0-7.9,1-7.71,2.23.32,2.07,3.21,4.9,6.54,6.4,2,.83,1.18,1.16-.17,1.64A43.63,43.63,0,0,0,128,163.4l-1-1.3s2.14-1.36,4.46-2.66c.55-.3.52-.41-.24-1.05-2.48-2.07-4.3-4.38-4.68-5.94s.39-2.46,2.64-3.32a18.49,18.49,0,0,1,3.13-.95c1.77-.4,1.8-.45,1-1.81-.34-.6-.89-1.61-1.23-2.23-2.64-4.49-1.25-6.11,4.87-6.2,1.5-.08,1.79-.08,1.71-.6-.33-2.11-1.27-4.54-1.13-6.34.28-2.7,3.07-3.35,8-2.13,1.14.28,1.22.22,1-.69-.89-3.86-.08-7.37,2.21-7.53Zm-17.53.3-.43,2.62-2.61-1.73Zm-97.7.62,7.21.47-1.15,1.34-4.35-.08-.17,3.7-1.39,1.19Zm46.7.28h5.93l0,6.25H80.18Zm7.07,0H92.8v6.25l-5.48.06,0-6.31Zm6.61,0h5.92l-.06,6.25H93.89Zm51.7.5a38.22,38.22,0,0,0,.33,5.76c-.09.37-.35.32-1.9,0a22.91,22.91,0,0,0-4.06-.47l1.25-1.31c1,.12,1.83.11,2.89.24,0-1.05,0-3.06,0-3.06l1.46-1.13Zm-95.86,1.24,1.65,1.66-2.11.54Zm80.91.54L130,126.8l-2.4-2.15Zm19.39.07a4.62,4.62,0,0,1,3.32,1.35v1.36L151,125.85a13.52,13.52,0,0,0,1.35,4.37l-1.12.53a9.45,9.45,0,0,1-1.7-4.78C149.54,125.32,149.45,124.23,150,124.2ZM48.92,126.9l2,1.16-2.18.88Zm81,.6-1,2.75-2.11-2.38Zm-104.37.87,5.31,1.8-.94,1-4.42-1.38Zm74.51.73.44,9.74-28.06-.23,1-1.37,1.83,0,4.8-8.07Zm-51.47.76,2.08,1.46-2.17,1Zm104.92.86v1.59c-6.78,5-14.1,13.58-15.35,28.77l-1.83,1.56C137.19,147.81,143.4,137.58,153.47,130.72Zm-24.72.06-1,2.47-2-2.3Zm8.08.45a38.93,38.93,0,0,0,1.15,6,23.79,23.79,0,0,0-5.63.43l.94-1.66s.87-.09,1.63-.24c1.57-.32,1.4-.13,1-1.49a12.74,12.74,0,0,1-.36-1.54A13,13,0,0,1,136.83,131.23Zm5.17.31c1.84,0,4.61,1.66,5.85,2.6l-.66.73c-.18.06-2.77-1.32-4.8-1.64a25,25,0,0,0,2.46,4.36l-.95.93c-.29-.06-4-5.48-3-6.7A2,2,0,0,1,142,131.54ZM33.27,132.81c2.42,14.63,8.21,24.67,17.35,33.71l-.93,1.21a56.31,56.31,0,0,1-18.14-34l1.72-.94Zm15.12.61,2,1.08-2,1.18Zm105.06.05,0,2.14-1.23-1.24A7.1,7.1,0,0,1,153.45,133.47Zm-26,.44-1.35,2.46L124.29,134ZM151.53,135c1.79.25,2.37,3.81,1.77,4.51a24,24,0,0,0-3.86-2.61A7.82,7.82,0,0,1,151.53,135Zm-28.81,1.83,2.87.27-1.52,2.36Zm-74.31,0,2.24,1.09-2,1.42Zm100.85,1a2.83,2.83,0,0,1,1.31.45c2,1.12,3.08,2.34,3,3.43,0,.5-.33.61-.66.24a9.81,9.81,0,0,0-4.29-1.84c-1.3-.26-1.41-.37-1-1C148.15,138.26,148.64,137.84,149.26,137.85Zm-34.54,1A64.86,64.86,0,0,0,130.14,167l-1.43,1.21c-5.2-5.95-10.92-12.91-15.6-27.95Zm6.2.63,2.87.43-1.68,2.13Zm-40.46.12c.33,0-1,5-5.54,5.34-2.89.48-3.21,1-3.26,5.44-.06,6.06-1,7.48-6,7.85-3.3.25-3.73.92-3.18,5.63.54,4.49-1.17,6.77-5.36,6.77-3.64.3-5.14,2-5.14,5.35,0,1.35,0,1.68,0,1.68l-2.35.19a29,29,0,0,1,.19-3.29c.71-4.34,2.58-6.08,6.52-6.06,3-.23,3.51-.72,3.4-5.31s-.18-4.64,1-5.86a4.74,4.74,0,0,1,3.28-1.29c5-.47,5.37-.8,5.35-5.88-.46-4.22.71-6.81,3.41-7,5.44-.43,5.31-3.37,5.07-3.49l2.54,0Zm11.14,0c3.19,17.16,13.3,33.23,18.84,39.16l-1.08.57c-8.08-10-15.43-21.48-19.06-39.7l1.3,0Zm-5.77,0,2.53,0-29.11,40.8-1.53-1.16,28.11-39.67Zm3.53,0c2.74,9.89,4.89,19.56,13.49,32.5l-36.48-.24Zm10.07,0c.21-.1,1.07,5-.21,7.36-1.14,3.18-.58,5,1.91,6.14,4.29,2,5.38,4,4.83,8.89-.38,3.42.66,5.08,3.89,6.18,3.86,1.32,5.54,3.38,5.53,6.77a4.57,4.57,0,0,1-.2,1.11L113,177.42s0-.46.11-1c.56-3.75-.15-4.77-4.6-6.54-4.2-1.67-5.24-3.6-4.52-8.42a7.18,7.18,0,0,0-.74-4.36c-1.1-2-3.53-1.93-5.28-3.71-1.44-1.52-1.6-3.65-.37-7.3.76-2.26.87-3.11.28-5-.39-1.24-.54-1.35-.54-1.35Zm-50.65.54,2.47.68-1.86,1.93Zm98.26.51a9.41,9.41,0,0,1,3.84.94c3.08,1.53,3.64,2.79.94,2.11A13,13,0,0,0,146,144c-2.24.55-2.19.57-1.42-.77C145.54,141.56,145.8,140.8,147,140.76Zm-11.13.64a15.44,15.44,0,0,1,5.53,1.17l-.56,1a14.84,14.84,0,0,0-4.38-.65,14.91,14.91,0,0,0,2.89,3.5l-.46,1c-.11.13-3.55-2.73-4.24-4.66C134.37,141.81,134.66,141.43,135.91,141.4Zm-40.54.23a1.67,1.67,0,1,1-1.67,1.66A1.66,1.66,0,0,1,95.37,141.63Zm34.62.05s2.73,5.36,2.56,5.57c-1.69.74-3.54,1.12-5.39,1.8l.35-1.56a13,13,0,0,0,2.7-.83c1-.38-1.09-3.13-1.09-3.13Zm-11.06.4,2.82.5-1.88,2.1Zm-52.81,0c.67-.06,1.7,1.23,1.7,1.24l-3.43,4.71a1.46,1.46,0,0,1,.21-2.86c.35,0,1,.06,1,.06a2.68,2.68,0,0,1-.73-.6C63.85,143.45,64.8,142.2,66.12,142.1Zm45,1.16c4,0,4,4.89,3.26,6.5-.55,1.1-1.39,1.72-3.94,2.86a8.37,8.37,0,0,1-2.45.93l-.53-1.18s1.29-.56,2.67-1.12c2.86-1.15,3.55-2,3.24-4.08-.44-2.92-2.71-3.37-7.08-1.42-.51.23-1.15.46-1.15.46l-.3-.59a29.94,29.94,0,0,1,5.43-2.3A6.41,6.41,0,0,1,111.15,143.26Zm-61.49.53,2.25.74-1.64,1.61Zm100.2.63c2,0,3.62.32,3.62,1,0,.34-.08.37-1.87.61-2.71.38-7.24,2.68-9.8,4.82-1.51,1.27-1.11,1-.48-.86s1.58-4,2.09-4.34C144.7,144.84,147.6,144.42,149.86,144.42Zm-32.5.25,1.91.42-1.25,1.2Zm-6.42,1a1.26,1.26,0,0,1,1.29,1c.59,1.41,0,2.24-2.2,3.19a13.94,13.94,0,0,1-3,1.27l-1.39-3.72s.44-.16,1.89-.76A10.36,10.36,0,0,1,110.94,145.7Zm-6.46.46a82.24,82.24,0,0,0,15.57,27.28l-1.39.86a79.34,79.34,0,0,1-15.72-28Zm48.91.38c.19,0,.29.09.25.23,0,.52-8,8-12.51,11.86-2.08,1.75-2,1.73-2.18,1.52a21.81,21.81,0,0,1,1.3-6.73,25,25,0,0,1,12.3-6.79A2.84,2.84,0,0,1,153.39,146.54Zm-42.77.06a9.33,9.33,0,0,0-2.42.75c-1.56.6-1.69,1.32-1,2.22.3.39.62.3,2.12-.29s2.19-.87,2.28-1.41C111.74,147.08,111.3,146.58,110.62,146.6Zm.14.42a.56.56,0,0,1,.53.57c0,.24-.36.48-.72.48a1.05,1.05,0,0,0-.65.27c-.19.29-.32.56-.67.49a1.08,1.08,0,0,0-.74.08c-.7.61-1.4.1-1.07-.51a.72.72,0,0,1,.59-.23c.2,0,.65,0,.72-.28s.52-.37.84-.36a.74.74,0,0,0,.69-.27.86.86,0,0,1,.42-.24Zm-36,.1a1.67,1.67,0,1,1-1.67,1.66A1.67,1.67,0,0,1,74.76,147.12Zm-24.19,0,2.53.34-1.59,2Zm50.59,1.29a1.67,1.67,0,1,1-1.67,1.66A1.66,1.66,0,0,1,101.16,148.44ZM51.7,150.32l2.75.17-1.57,2.1Zm14.52.4a1.67,1.67,0,1,1-1.68,1.66A1.66,1.66,0,0,1,66.22,150.72Zm68.68,1c1.14,0,2.47.09,2.47.09l-.32,1.28c-1.4.14-3.19-.25-4.69.38.56.9,3.82,2.19,4.18,2.51a11.47,11.47,0,0,1-.27,1.35c.09.31-5.52-2.26-5.71-4.44C130.57,152.19,133,151.79,134.9,151.76Zm-19.3,1.33c3.19,0,4.76,4.46,3.53,6.42a9.31,9.31,0,0,1-3.06,2.87c-.71.44-2.57,1.35-2.57,1.35l-.83-1.28s.74-.3,1.44-.68c1.76-1,5.32-3.09,3.6-6-1-1.55-2.42-1.85-5.42-.33a17.21,17.21,0,0,1-2.76,1.24l-.57-1C109.11,155.77,113.44,153.18,115.6,153.09Zm10.27.16a18.92,18.92,0,0,0,4.84,5.69s-2.59,1.65-4.14,2.71l-.91-1.06,2.22-1.91-2.5-3.48Zm-72.5.3h2.5L54.8,155.8l-1.43-2.25Zm96.92.41a40.5,40.5,0,0,0-.44,4.68,2.14,2.14,0,0,0,1.47.72,11.45,11.45,0,0,0,.6-5A2.89,2.89,0,0,0,150.29,154Zm.76.44a.31.31,0,0,1,.21,0c.31.15.28.37.29.65a7.77,7.77,0,0,1-.29,3.07c-.23.53-.76.33-.78-.38,0-1,.17-1.78.23-2.66C150.73,154.72,150.86,154.46,151.05,154.4Zm-35.64,1.32c1.64.12,2.28,1.49,1.67,2.47-1.48,1.89-3,2.24-5,3.33l-1.94-3.62S114,155.77,115.41,155.72Zm0,.81a7.61,7.61,0,0,0-2.69,1.1c-1.12.55-1.48,1.39-.72,2.16.83.92,3.75-1.29,4.24-1.82a.83.83,0,0,0-.17-1.21A1,1,0,0,0,115.37,156.53Zm-59.95.15,2.45,0-1.33,1.86Zm59.89.29a.62.62,0,0,1,.28.09c.42.3.38.82-.21,1-.29.08-.81.08-.82.48s-.46.4-.72.36-.7-.07-.79.26-.39.46-.71.15-.18-.78.48-.85a.82.82,0,0,0,.63-.45c0-.28.18-.44.49-.38a1.19,1.19,0,0,0,1-.57A.66.66,0,0,1,115.31,157Zm-14,.14a1.67,1.67,0,1,1-1.67,1.67A1.68,1.68,0,0,1,101.26,157.11Zm-35.69,3.06a1.67,1.67,0,1,1-1.67,1.67A1.67,1.67,0,0,1,65.57,160.17Zm70.4,1.41v1.26s-2.6,1.22-4.15,1.92c-.5.27-.31.8-.28,1.35l-.74.5s-1-.75-1.17-1.23C129.26,163.86,134.12,162,136,161.58Zm-110.4.07,19.15,13-1.31,1.91-17.79-12Zm96.13.43c1.24,0,2.2.71,3.13,2.15,1.85,2.86.92,5.11-2.9,7.42l-1.79,1.08-.9-1.11,1.83-1.09c3.14-2,4-3.73,2.64-5.7s-2.73-1.74-6.6.72a14,14,0,0,1-1.73.88l-.85-1.15s2.2-1.12,3-1.6A8.4,8.4,0,0,1,121.7,162.08Zm-13.37.85a1.67,1.67,0,1,1-1.67,1.67A1.67,1.67,0,0,1,108.33,162.93Zm-51.87.47a1.67,1.67,0,1,1-1.67,1.66A1.66,1.66,0,0,1,56.46,163.4Zm65.17,1.33a1.45,1.45,0,0,1,1.37,1c.66,1.61-.24,2.8-3.51,4.63l-.86.46-2.41-3.31s.85-.58,1.65-1.06C119.66,165.3,120.81,164.76,121.63,164.73Zm-.32.79a1.25,1.25,0,0,0-.54.19,9.57,9.57,0,0,0-2.91,1.87c-.38.54-.21,1.07.53,1.75.62.41,3.83-1.94,3.91-2.63C122,166,121.77,165.51,121.31,165.52Zm-95.6.18.53.36-.53.42Zm95.63.4a.7.7,0,0,1,.48.18.54.54,0,0,1-.41.86c-.25.05-.63.12-.75.49a.86.86,0,0,1-.79.45c-.39-.09-.6.14-.62.32a.61.61,0,0,1-1,.07c-.23-.24.18-.94.45-.93,0,0,.34.09.7-.38a.79.79,0,0,1,.77-.55c.3.1.48-.23.6-.41A1.11,1.11,0,0,1,121.34,166.1ZM27,166.53l.77.52-2,1.44v-1.16Zm1.49,1,1.05.69-3.81,2.72v-1.47Zm2,1.24,1.11.72-5.82,3.92v-1.51Zm2.1,1.06v1.26l-6.81,4.73v-1.27Zm.77.9,1.47,1,.37,42.71-9.19,6.28v-1.87l7.71-5.55-.37-42.57ZM144,171.87c-2.06,2.34-4.82,2.49-7.23,2.43-6.49.09-10.52.44-11.35,8.15,2.64-2,5.44-2.23,8.69-2.14,4.11,0,6-.27,7.63-1.1,2.68-1.33,4.38-3.72,4.06-5.4C145.52,173.45,144.69,172,144,171.87Zm-111.52.37v1.48l-6.81,4.54v-1.5Zm77.81.14a1.67,1.67,0,1,1-1.67,1.66A1.66,1.66,0,0,1,110.33,172.38Zm-44.48.17c12,.37,37.6.23,37.6.23l1.37,1.95-40.2-.42Zm78.46.07c.37,0,.42.47-.34,1.21-1.44,1.41-2.93,2.1-7.67,2-5-.09-7,.7-8.25,2.92-.37.64-.36.89.18.41s1.5-1.59,1.93-.6c.85-.55,1.58-1.4,2-.33.24-.06,1.68-1.49,2-.22.68-.77,1.28-1,1.6.08,1-.46,1.5-1.34,2.05-.13.79-.56,1.39-1.26,1.85-.19.67-.2,1.36-1.43,1.75-.45a8.62,8.62,0,0,0,3.19-2.87c.57-1.27,1.09-.43.44.87-1.65,3.18-4.46,4.34-10.94,4.35-3.93,0-5.55.39-6.79,1.11-2,1.15-.91-1.75.48-3.51,1.75-2.22,3.74-2.87,9.21-2.67,3,0,4.9-.39,5.7-1A3.79,3.79,0,0,1,144.31,172.62Zm-88.8.67A1.67,1.67,0,1,1,53.84,175,1.68,1.68,0,0,1,55.51,173.29Zm-23,1.24V176l-6.81,4.63v-1.54Zm32.95.72h5.28v5.55H65.47Zm11.84,0H83v5.55H77.31Zm12.67.18h5.49v5.37H90Zm11.89.1,3.66.13s2,2.57,2.88,3.76l-2.7,1.38h-3.84v-5.27ZM68,175.91a1.86,1.86,0,1,0,1.86,1.85A1.85,1.85,0,0,0,68,175.91Zm12.16.18A1.86,1.86,0,1,0,82,178,1.87,1.87,0,0,0,80.17,176.09Zm12.43,0A1.86,1.86,0,1,0,94.46,178,1.85,1.85,0,0,0,92.6,176.14Zm-29.68.38a1.42,1.42,0,0,1,.61,1.17,1.43,1.43,0,0,1-1.44,1.43,1.56,1.56,0,0,1-.77-.21Zm5.09,0a1.23,1.23,0,1,1-1.23,1.22A1.23,1.23,0,0,1,68,176.54Zm30.67,0a1.49,1.49,0,1,1-1.49,1.49A1.49,1.49,0,0,1,98.68,176.58Zm6.3,0a1.85,1.85,0,1,0,1.86,1.85A1.86,1.86,0,0,0,105,176.59Zm-30.94,0a1.49,1.49,0,1,1-1.49,1.49A1.5,1.5,0,0,1,74,176.64Zm6.13.08A1.23,1.23,0,1,1,78.93,178,1.23,1.23,0,0,1,80.17,176.72Zm-47.65,0v1.5L25.71,183v-1.47Zm60.08,0A1.23,1.23,0,1,1,91.36,178,1.23,1.23,0,0,1,92.6,176.77Zm-6.23.15a1.49,1.49,0,1,1-1.5,1.49A1.49,1.49,0,0,1,86.37,176.92Zm18.61.29a1.23,1.23,0,1,1-1.24,1.23A1.23,1.23,0,0,1,105,177.21ZM52,178.5a10.78,10.78,0,0,1,8.54,4.23c2.93,3.91,4.89,8.89,5.78,15.42.44,3.24,2,12.95,2.82,15.25l-1.19-.23c-.15.08-1.67-6.11-2.63-14.28a32.12,32.12,0,0,0-2.77-10.5c-2-4.07-5.43-8.39-10-8.73-2.66-.2-5.16,1.46-5.43,3.8a3.72,3.72,0,0,0,2.13,4.15c1.4.56,3.08.14,3.27-1.76a1.92,1.92,0,0,0-.12-.92,1.25,1.25,0,0,1,1.4.73,3.19,3.19,0,0,1-2.15,3.3c-2.62.85-5.63-1.72-5.87-4.35a6.05,6.05,0,0,1,3.64-5.68A8.15,8.15,0,0,1,52,178.5Zm-19.46.85v1.53l-6.81,4.68V184Zm19.61,1c3.81-.11,7.52,4.13,9.09,6.91a33.26,33.26,0,0,1,3.39,11.88c.76,7.4,2.18,13.45,2.48,13.72l-1-.22c-.22.14-1.65-6.54-2.52-14a30.77,30.77,0,0,0-3.89-11.48c-1.7-2.94-4-5.14-6.72-5.46-1.71-.17-3.46.32-3.81,2.11A1.74,1.74,0,0,0,50.73,186l.63.06c.66.11-.38,1.18-1.06,1.09a3.11,3.11,0,0,1-1.64-5.32A5.32,5.32,0,0,1,52.13,180.32Zm8.16,1.09,42.8.43s0,.76-2.63.64a13.56,13.56,0,0,0-5.23.69l-33.62-.08Zm-27.77.49v1.42l-6.81,4.75V186.5Zm19.89.6a4.65,4.65,0,0,1,2.29.56c5.31,3.06,7.33,10.66,8,15.43,1,7.08,2.05,13.66,2.36,13.82l-1.16-.26a93.21,93.21,0,0,1-2.2-13c-.64-5.56-2.55-11.14-6.34-13.49-2.42-1.64-2.9-1.81-4-.85-1,.83-2-.42-1.15-1.43A3.27,3.27,0,0,1,52.41,182.5Zm-19.89,1.92v1.16l-6.81,4.73v-1.38Zm31.15,0c.09-.08,3.69,6,4.82,15.58.6,5.05,2.31,13.65,2.59,13.72l-1.25-.13c-1.27-5.08-2-9.88-2.66-14.21-.77-4.89-1.39-9.24-4.45-14.92l1,0Zm.82.05,1.11,0a45.94,45.94,0,0,1,4.63,14.83,73.51,73.51,0,0,0,3,14.94L72,214c-1.5-4.17-2-9.21-2.84-14.44C68.27,193.74,66.87,188.71,64.49,184.5Zm6.87,0c2,5,3.21,7.42,4.1,13.6a89.61,89.61,0,0,0,3.89,17.16l-1.13-.05a68,68,0,0,1-3.48-15.91,48.16,48.16,0,0,0-4.27-14.78l.89,0Zm-1.92,0c.11-.16,3.71,7,4.55,14.93A72.5,72.5,0,0,0,77.48,215l-1.15,0C75,213.39,74,206.13,72.9,199.35a50.76,50.76,0,0,0-4.45-14.81h1Zm-2.91,0h1a48,48,0,0,1,4.61,14.92c1,7.13,2,13.55,3.15,15.23l-1.25-.08A75.28,75.28,0,0,1,71,199.21a44.28,44.28,0,0,0-4.43-14.67Zm5.65,0,1.21,0a44.61,44.61,0,0,1,4.45,15.24,73.34,73.34,0,0,0,3.33,15.61l-1-.06a73.85,73.85,0,0,1-3.86-16.2,52.4,52.4,0,0,0-4.16-14.61Zm7.48,0a54.34,54.34,0,0,1,2.71,8.83l-.68,1.34a96.66,96.66,0,0,0-3.5-10.15Zm-5.54,0,1.48,0a68.94,68.94,0,0,1,4.21,14.17s.35,1.85.37,2.45c-.09,5.14.81,8.8,2.73,14.33l-.88-.07a69.18,69.18,0,0,1-3.4-15.33,44.52,44.52,0,0,0-4.51-15.59Zm3.42,0a114.58,114.58,0,0,1,3.72,11,4.12,4.12,0,0,1-.67,2.4c-1.24-4.45-2.28-9.07-4.19-13.43Zm2.79,0,1.17,0,2.34,6.66-.92,1C82.24,190.18,81.54,187.76,80.33,184.7Zm6.84.05.86,2-.93.78a22.78,22.78,0,0,1-1.18-2.76Zm1.74,0,.43,1.15-.78.59-.6-1.72Zm-6.71,0h1.21c.48,1.4,1.78,4.82,1.78,4.82l-.87.91s-1.63-4.33-2.12-5.74Zm1.87,0h1.07c.32.91,1.32,3.43,1.32,3.43l-.74.7Zm5.6,0,1,.05-.12.26-.66.32ZM55,186.3c4.43,2.33,5.65,9.3,6.13,13.13.84,6.69,1.78,12.13,2,12.27l-1-.15s-.73-3.44-1.23-6.71c-.42-2.72-.74-5-.86-6-.07-.65-.18-1.41-.24-1.68a18.45,18.45,0,0,0-1.62-5.05,10.85,10.85,0,0,0-2.31-3.44,8.77,8.77,0,0,1-1.13-1.3C54.46,186.83,55,186.3,55,186.3Zm-22.44.36V188l-6.81,4.79v-1.5Zm0,2.3v1.51L25.71,195v-1.34Zm0,2.58v1.4l-6.81,4.73v-1.45ZM43.9,193h.6l0,1-.93-.05.29-.93Zm-11.38,1.21v1.5l-6.81,4.49v-1.4Zm10.68.58h1.44l0,1-1.85-.06.43-1Zm-.84,1.65,2.37,0v1l-2.93,0,.56-1Zm-9.84.21v1.58l-6.81,4.51v-1.58Zm8.63,1.64,3.47,0,0,.82-4.14,0Zm-8.63.91v1.54l-6.81,4.35v-1.39Zm7.19.74,4.76.06-.12.79-5.43,0Zm-7.19,1.67v1.48l-6.81,4.42v-1.42Zm5.41,0,6.25.15,1.32,1.19-9.74.06,2.17-1.4ZM36,203.76l10.76.13.75.69-11.54,0Zm-3.51.34v1.57l-6.81,4.44v-1.43ZM36,205.48l11.93.05-.87.95-11.07,0v-1Zm-3.52,1.19v1.44l-6.81,4.6v-1.65Zm3.23.75,10.3,0-1.21,1-7.12.16-2-1.14Zm-3.23,1.77v1.38l-6.81,4.86v-1.54Zm6.24.18,6.05,0,.12.81-5.21,0ZM40.44,211l4.64.05.22,1-4.13,0-.73-1Zm-7.92.73v1.28l-6.81,4.73v-1.41Zm12.88,1,.06,1-2.77.11-.79-1,3.5-.05Zm0,1.76,0,1-1.94,0-.43-1,2.39-.07Zm-1.72,1.87h1.52l-.12.8-1.18,0Zm.46,1.93h.74l-.13.63h-.37ZM59.19,229l-.35.45H69.49l.12-.45Zm13.74,0-.19.61h4.8l.14-.61Zm7.85.12-.15.58H92.92l-.21-.58Zm14.7,0,.25.7h4.14l-.28-.7Zm14.27,0h-7.26l.26.79h7.51l-.51-.79Z"/></g></g></g></g></g><path id="path163-0-2-5-8-7-5-0-7-4" class="cls-1" d="M48.26,64.7s-3.76-6.14-8.84-13.36C36,46.51,33.31,41.29,33.06,36.78c-.29-5.14,2.45-10.31,7.41-10.56s7,4,7.79,7.45c.82-3.48,2.83-7.7,7.79-7.45s7.7,5.42,7.41,10.56c-.25,4.51-3,9.73-6.36,14.56C52,58.56,48.26,64.7,48.26,64.7Z"/><path id="path163-0-2-5-8-7-7-8-0-0-6" class="cls-1" d="M131.74,185.3s-3.76,6.14-8.84,13.36c-3.39,4.83-6.11,10.05-6.36,14.56-.29,5.14,2.45,10.31,7.41,10.56s7-4,7.79-7.45c.82,3.48,2.83,7.7,7.79,7.45s7.7-5.42,7.41-10.56c-.25-4.51-3-9.73-6.36-14.56C135.5,191.44,131.74,185.3,131.74,185.3Z"/></g></svg>