<svg id="Layer_1" data-name="Layer 1" xmlns="http://www.w3.org/2000/svg" viewBox="0 0 180 250"><title>all_cards</title><g id="g5455"><path id="path147-0-8-1-6-13-2-8-2-5" d="M131.74,26.55c-7.92.17-11.47,9-5.6,15.89.85,1,.93,1.58-.62.62-4-2.62-11.52-.9-11.91,7.12-.48,9.87,13.42,12.72,16,2.22.13-1.11,1-1.09.82.48A32.63,32.63,0,0,1,127,65h9.41A32.46,32.46,0,0,1,133,52.88c-.22-1.57.69-1.59.83-.48,2.61,10.5,16.5,7.65,16-2.22-.38-8-8-9.74-11.9-7.12-1.56,1-1.47.39-.62-.62,5.86-6.87,2.31-15.72-5.6-15.89Z"/><path id="path147-0-8-1-6-75-2-83-7-6-4" d="M48.26,26.55c-7.92.17-11.47,9-5.61,15.89.85,1,.94,1.58-.62.62-4-2.62-11.51-.9-11.9,7.12-.48,9.87,13.41,12.72,16,2.22.14-1.11,1.05-1.09.83.48A32.46,32.46,0,0,1,43.55,65H53a32.63,32.63,0,0,1-3.42-12.15c-.22-1.57.69-1.59.82-.48,2.61,10.5,16.51,7.65,16-2.22-.39-8-8-9.74-11.91-7.12-1.55,1-1.47.39-.62-.62,5.87-6.87,2.32-15.72-5.6-15.89h0Z"/><path id="path147-0-8-1-6-7-5-5-7-6-8-5" d="M131.74,224.12c-7.92-.17-11.47-9-5.6-15.9.85-1,.93-1.57-.62-.61-4,2.62-11.52.9-11.91-7.12-.48-9.87,13.42-12.72,16-2.22.13,1.11,1,1.09.82-.49A32.58,32.58,0,0,0,127,185.64h9.41A32.41,32.41,0,0,0,133,197.78c-.22,1.58.69,1.6.83.49,2.61-10.5,16.5-7.65,16,2.22-.38,8-8,9.74-11.9,7.12-1.56-1-1.47-.39-.62.61,5.86,6.88,2.31,15.73-5.6,15.9Z"/><path id="path147-0-8-1-6-75-6-1-2-4-9-5" d="M48.26,224.12c-7.92-.17-11.47-9-5.61-15.9.85-1,.94-1.57-.62-.61-4,2.62-11.51.9-11.9-7.12-.48-9.87,13.41-12.72,16-2.22.14,1.11,1.05,1.09.83-.49a32.41,32.41,0,0,0-3.43-12.14H53a32.58,32.58,0,0,0-3.42,12.14c-.22,1.58.69,1.6.82.49,2.61-10.5,16.51-7.65,16,2.22-.39,8-8,9.74-11.91,7.12-1.55-1-1.47-.39-.62.61,5.87,6.88,2.32,15.73-5.6,15.9h0Z"/><path id="path147-0-8-1-6-1-1-0-5-6-4-0" d="M90,106.09c-7.92.17-11.47,9-5.61,15.9.85,1,.94,1.58-.62.61-3.94-2.62-11.51-.9-11.9,7.12-.48,9.87,13.41,12.72,16,2.22.14-1.11,1-1.08.83.49a32.46,32.46,0,0,1-3.43,12.15h9.42a32.46,32.46,0,0,1-3.43-12.15c-.22-1.57.69-1.6.83-.49,2.61,10.5,16.5,7.65,16-2.22-.39-8-8-9.74-11.9-7.12-1.56,1-1.47.39-.62-.61,5.86-6.88,2.31-15.73-5.61-15.9Z"/><path id="path147-6-9-8-7-0-5-6-7-4-6" d="M166.12,209.93c3.17-.07,4.59-3.76,2.24-6.62-.34-.42-.37-.66.25-.26,1.58,1.1,4.6.38,4.76-3,.19-4.12-5.37-5.3-6.41-.93-.05.47-.42.46-.33-.2A14,14,0,0,1,168,193.9h-3.77a14,14,0,0,1,1.38,5.06c.08.66-.28.67-.34.2-1-4.37-6.6-3.19-6.4.93.15,3.34,3.18,4.06,4.76,3,.62-.4.59-.16.24.26-2.34,2.86-.92,6.55,2.25,6.62Z"/><path id="path147-6-9-8-7-4-5-62-2-3-8" d="M13.88,40.07c-3.16.07-4.58,3.76-2.24,6.62.34.42.38.66-.25.26-1.58-1.09-4.6-.38-4.76,3C6.44,54,12,55.21,13,50.84c.06-.46.42-.45.33.2A13.81,13.81,0,0,1,12,56.1h3.77A13.81,13.81,0,0,1,14.4,51c-.09-.65.27-.66.33-.2,1,4.37,6.6,3.19,6.41-.93-.16-3.34-3.19-4-4.77-3-.62.4-.58.16-.24-.26,2.34-2.86.92-6.55-2.25-6.62Z"/><path id="path21-39-8-1" d="M5.5,30.7l2.6,0c.5,1.6,1.6,3.22,3.1,3.67A6.24,6.24,0,0,0,19,30.21c1.09-3.35,0-8-2.93-9.71-2.41-1.38-6-.21-7.63,2.74L6.64,22.11l1-11H19.56v2.6H9.88l-.15,4.59a7.67,7.67,0,0,1,7.36-.43c3.94,1.91,5.77,6.23,5,11.33-1.06,5.08-3.4,8-8.68,8.36-5.88.06-7.95-4-7.92-6.85Z"/><path id="path21-3-4-1-8" d="M174.5,219.3l-2.6,0c-.5-1.59-1.6-3.22-3.1-3.67a6.24,6.24,0,0,0-7.83,4.14c-1.09,3.35,0,8,2.93,9.71,2.41,1.38,6,.21,7.63-2.74l1.83,1.13-1,11H160.44V236.3h9.67l.16-4.59a7.67,7.67,0,0,1-7.36.43c-3.95-1.9-5.78-6.23-5-11.33,1.06-5.08,3.4-7.95,8.68-8.36,5.88-.06,7.95,4,7.92,6.85Z"/></g></svg>