<?xml version="1.0" encoding="utf-8"?>
<!-- Generator: Adobe Illustrator 23.0.1, SVG Export Plug-In . SVG Version: 6.00 Build 0)  -->
<svg version="1.1" xmlns="http://www.w3.org/2000/svg" xmlns:xlink="http://www.w3.org/1999/xlink" x="0px" y="0px"
	 viewBox="0 0 180 250" style="enable-background:new 0 0 180 250;" xml:space="preserve">
<style type="text/css">
	.st0{fill:#FFFFFF;}
	.st1{fill:#E2CF00;}
	.st2{fill:#131F67;}
	.st3{fill:#D40000;}
	.st4{fill:#100F08;}
</style>
<g id="white-background">
	<rect class="st0" width="180" height="250"/>
</g>
<g id="Layer_1">
	<g id="g6836_1_" transform="matrix(0.99553491,0,0,0.99680337,10.193684,-8.1397411)">
		<path id="path7062-5_1_" class="st3" d="M3.7,64.4c-1.7-2.9-3.6-5.7-5.9-8c2.3-2.4,4.1-5.2,5.9-8c1.8,2.9,3.6,5.7,5.9,8
			C7.3,58.8,5.5,61.6,3.7,64.4z"/>
		<path id="path7064-0_1_" class="st3" d="M122.1,73.1c-4.2-6.9-8.6-13.6-14.1-19.3c5.5-5.7,9.9-12.4,14.1-19.3
			c4.2,6.9,8.6,13.6,14.1,19.3C130.7,59.5,126.3,66.2,122.1,73.1z"/>
		<path id="path7066-9_1_" class="st3" d="M156.6,218.8c-1.7-2.9-3.6-5.7-5.9-8c2.3-2.4,4.1-5.2,5.9-8c1.8,2.9,3.6,5.7,5.9,8
			C160.2,213.1,158.4,215.9,156.6,218.8z"/>
		<path id="path7068-2_1_" class="st3" d="M38.2,73.1c-4.2-6.9-8.6-13.6-14.1-19.3C29.6,48,34,41.4,38.2,34.5
			c4.2,6.9,8.6,13.6,14.1,19.3C46.9,59.5,42.4,66.2,38.2,73.1z"/>
		<path id="path7070-0_1_" class="st3" d="M122.1,126.3c-4.2-6.9-8.6-13.6-14.1-19.3c5.5-5.7,9.9-12.4,14.1-19.3
			c4.2,6.9,8.6,13.6,14.1,19.3C130.7,112.7,126.3,119.4,122.1,126.3z"/>
		<path id="path7072-0_1_" class="st3" d="M38.2,126.3c-4.2-6.9-8.6-13.6-14.1-19.3c5.5-5.7,9.9-12.4,14.1-19.3
			c4.2,6.9,8.6,13.6,14.1,19.3C46.9,112.7,42.4,119.4,38.2,126.3z"/>
		<path id="path7074-4_1_" class="st3" d="M80.2,99.7C76,92.8,71.5,86.1,66,80.4C71.5,74.6,76,68,80.2,61.1
			c4.2,6.9,8.6,13.6,14.1,19.3C88.8,86.1,84.4,92.8,80.2,99.7z"/>
		<path id="path7084-9_1_" class="st3" d="M38.2,232.7c-4.2-6.9-8.6-13.6-14.1-19.3c5.5-5.7,9.9-12.4,14.1-19.3
			c4.2,6.9,8.6,13.6,14.1,19.3C46.9,219.1,42.4,225.8,38.2,232.7z"/>
		<path id="path7086-7_1_" class="st3" d="M122.1,232.7c-4.2-6.9-8.6-13.6-14.1-19.3c5.5-5.7,9.9-12.4,14.1-19.3
			c4.2,6.9,8.6,13.6,14.1,19.3C130.7,219.1,126.3,225.8,122.1,232.7z"/>
		<path id="path7088-6_1_" class="st3" d="M122.1,179.5c-4.2-6.9-8.6-13.6-14.1-19.3c5.5-5.7,9.9-12.4,14.1-19.3
			c4.2,6.9,8.6,13.6,14.1,19.3C130.7,165.9,126.3,172.6,122.1,179.5z"/>
		<path id="path7090-8_1_" class="st3" d="M38.2,179.4c-4.2-6.9-8.6-13.6-14.1-19.3c5.5-5.7,9.9-12.4,14.1-19.3
			c4.2,6.9,8.6,13.6,14.1,19.3C46.9,165.9,42.4,172.6,38.2,179.4z"/>
		<path id="path7092-79_1_" class="st3" d="M80.2,206.1c-4.2-6.9-8.6-13.6-14.1-19.3c5.5-5.7,9.9-12.4,14.1-19.3
			c4.2,6.9,8.6,13.6,14.1,19.3C88.8,192.5,84.4,199.2,80.2,206.1z"/>
		<g id="g8345-9-6-9-5_1_" transform="matrix(1,0,0,0.9999803,1809.6754,-538.726)">
			<path id="path31-8-2-5-6_1_" class="st3" d="M-1814.1,584.6V558h2.6v26.5H-1814.1z"/>
			<path id="path33-2-0-3-1_1_" class="st3" d="M-1803.8,558c-2.5,0-4.5,2.3-4.5,5.1v16.4c0,2.8,2,5.1,4.5,5.1h1.5
				c2.5,0,4.5-2.3,4.5-5.1v-16.4c0-2.8-2-5.1-4.5-5.1H-1803.8z M-1803.1,560.5c1.5,0,2.7,1.1,2.7,2.5v16.6c0,1.4-1.2,2.5-2.7,2.5
				c-1.5,0-2.7-1.1-2.7-2.5v-16.6C-1805.7,561.7-1804.5,560.5-1803.1,560.5L-1803.1,560.5z"/>
		</g>
		<g id="g8345-5-0-8-9_1_" transform="matrix(-1,0,0,-0.9999803,4095.6729,789.6473)">
			<path id="path31-1-3-1-4_1_" class="st3" d="M3930.9,568.4v-26.5h2.6v26.5H3930.9z"/>
			<path id="path33-5-5-1-9_1_" class="st3" d="M3941.2,541.8c-2.5,0-4.5,2.3-4.5,5.1v16.4c0,2.8,2,5.1,4.5,5.1h1.5
				c2.5,0,4.5-2.3,4.5-5.1v-16.4c0-2.8-2-5.1-4.5-5.1H3941.2z M3942,544.3c1.5,0,2.7,1.1,2.7,2.5v16.6c0,1.4-1.2,2.5-2.7,2.5
				c-1.5,0-2.7-1.1-2.7-2.5v-16.6C3939.3,545.5,3940.5,544.3,3942,544.3L3942,544.3z"/>
		</g>
	</g>
</g>
</svg>
