<?xml version="1.0" encoding="utf-8"?>
<!-- Generator: Adobe Illustrator 23.0.1, SVG Export Plug-In . SVG Version: 6.00 Build 0)  -->
<svg version="1.1" xmlns="http://www.w3.org/2000/svg" xmlns:xlink="http://www.w3.org/1999/xlink" x="0px" y="0px"
	 viewBox="0 0 180 250" style="enable-background:new 0 0 180 250;" xml:space="preserve">
<style type="text/css">
	.st0{fill:#FFFFFF;}
	.st1{fill:#E2CF00;}
	.st2{fill:#131F67;}
	.st3{fill:#D40000;}
	.st4{fill:#100F08;}
</style>
<g id="white-background">
	<rect class="st0" width="180" height="250"/>
</g>
<g id="Layer_1">
	<g id="g11195-3-7_1_" transform="matrix(0.99553774,0,0,0.99680134,-117.30742,318.48631)">
		<path id="path10174-9-0_1_" class="st3" d="M131.8-263.2c0,0-1.8-2.6-4.2-5.6c-1.6-2-2.9-4.2-3-6.1c-0.1-2.2,1.2-4.3,3.5-4.4
			c2.4-0.1,3.3,1.7,3.7,3.1c0.4-1.5,1.4-3.2,3.7-3.1c2.4,0.1,3.7,2.3,3.5,4.4c-0.1,1.9-1.4,4.1-3,6.1
			C133.6-265.8,131.8-263.2,131.8-263.2z"/>
		<path id="path10176-9-9_1_" class="st3" d="M284.7-125c0,0-1.8,2.6-4.2,5.6c-1.6,2-2.9,4.2-3,6.1c-0.1,2.2,1.2,4.3,3.5,4.4
			c2.4,0.1,3.3-1.7,3.7-3.1c0.4,1.5,1.4,3.2,3.7,3.1c2.4-0.1,3.7-2.3,3.5-4.4c-0.1-1.9-1.4-4.1-3-6.1
			C286.5-122.4,284.7-125,284.7-125z"/>
		<path id="path10178-8-4_1_" class="st3" d="M208.2-214.7c0,0-3.8-6.2-8.9-13.4c-3.4-4.8-6.1-10.1-6.4-14.6
			c-0.3-5.2,2.5-10.3,7.4-10.6c5-0.3,7,4,7.8,7.5c0.8-3.5,2.8-7.7,7.8-7.5c5,0.3,7.7,5.4,7.4,10.6c-0.3,4.5-3,9.8-6.4,14.6
			C212-220.9,208.2-214.7,208.2-214.7z"/>
		<path id="path10182-1-9_1_" class="st3" d="M166.3-254.6c0,0-3.8-6.2-8.9-13.4c-3.4-4.8-6.1-10.1-6.4-14.6
			c-0.3-5.2,2.5-10.3,7.4-10.6c5-0.3,7,4,7.8,7.5c0.8-3.5,2.8-7.7,7.8-7.5c5,0.3,7.7,5.4,7.4,10.6c-0.3,4.5-3,9.8-6.4,14.6
			C170.1-260.8,166.3-254.6,166.3-254.6z"/>
		<path id="path10184-9-1_1_" class="st3" d="M250.2-174.8c0,0-3.8-6.2-8.9-13.4c-3.4-4.8-6.1-10.1-6.4-14.6
			c-0.3-5.2,2.5-10.3,7.4-10.6c5-0.3,7,4,7.8,7.5c0.8-3.5,2.8-7.7,7.8-7.5c5,0.3,7.7,5.4,7.4,10.6c-0.3,4.5-3,9.8-6.4,14.6
			C253.9-181,250.2-174.8,250.2-174.8z"/>
		<path id="path10188-5-4_1_" class="st3" d="M250.2-254.6c0,0-3.8-6.2-8.9-13.4c-3.4-4.8-6.1-10.1-6.4-14.6
			c-0.3-5.2,2.5-10.3,7.4-10.6c5-0.3,7,4,7.8,7.5c0.8-3.5,2.8-7.7,7.8-7.5c5,0.3,7.7,5.4,7.4,10.6c-0.3,4.5-3,9.8-6.4,14.6
			C253.9-260.8,250.2-254.6,250.2-254.6z"/>
		<path id="path10192-3-6_1_" class="st3" d="M166.3-174.8c0,0-3.8-6.2-8.9-13.4c-3.4-4.8-6.1-10.1-6.4-14.6
			c-0.3-5.2,2.5-10.3,7.4-10.6c5-0.3,7,4,7.8,7.5c0.8-3.5,2.8-7.7,7.8-7.5c5,0.3,7.7,5.4,7.4,10.6c-0.3,4.5-3,9.8-6.4,14.6
			C170.1-181,166.3-174.8,166.3-174.8z"/>
		<path id="path10196-7-3_1_" class="st3" d="M208.2-173.5c0,0-3.8,6.2-8.9,13.4c-3.4,4.8-6.1,10.1-6.4,14.6
			c-0.3,5.2,2.5,10.3,7.4,10.6c5,0.3,7-4,7.8-7.5c0.8,3.5,2.8,7.7,7.8,7.5c5-0.3,7.7-5.4,7.4-10.6c-0.3-4.5-3-9.8-6.4-14.6
			C212-167.4,208.2-173.5,208.2-173.5L208.2-173.5z"/>
		<path id="path10202-2-8_1_" class="st3" d="M250.2-133.6c0,0-3.8,6.2-8.9,13.4c-3.4,4.8-6.1,10.1-6.4,14.6
			c-0.3,5.2,2.5,10.3,7.4,10.6c5,0.3,7-4,7.8-7.5C251-99,253-94.8,258-95c5-0.3,7.7-5.4,7.4-10.6c-0.3-4.5-3-9.8-6.4-14.6
			C253.9-127.5,250.2-133.6,250.2-133.6z"/>
		<path id="path10204-9-4_1_" class="st3" d="M166.3-133.6c0,0-3.8,6.2-8.9,13.4c-3.4,4.8-6.1,10.1-6.4,14.6
			c-0.3,5.2,2.5,10.3,7.4,10.6c5,0.3,7-4,7.8-7.5c0.8,3.5,2.8,7.7,7.8,7.5c5-0.3,7.7-5.4,7.4-10.6c-0.3-4.5-3-9.8-6.4-14.6
			C170.1-127.5,166.3-133.6,166.3-133.6z"/>
		<path id="path27-00-0-7-4_1_" class="st3" d="M123.1-289.6c0.1-3.6,1.4-4.9,4-6.8c-2-1.5-2.9-3.6-2.7-5.4c0.4-4.4,3.9-6.7,7.6-6.6
			c3.8,0.1,7,3.1,7.3,6.3c0.2,2.8-0.6,4.2-2.6,5.6c2.4,2,3.9,3.3,3.8,6.8c-0.1,3.5-3.1,7.7-8.3,7.8C126.9-281.7,123-286,123.1-289.6
			L123.1-289.6L123.1-289.6z M137.7-289.6c0.2-3.2-2.6-5.4-5.9-5.4c-3.2,0-6,2.6-6,5.5c0,3.1,3.7,4.8,6,4.8
			C134.8-284.7,137.5-286.8,137.7-289.6L137.7-289.6L137.7-289.6z M136.7-301.1c0.1-2.7-2.5-4.7-5.1-4.6c-2.3,0.1-4.8,1.8-4.8,4.1
			c0,2.8,2.8,4.3,5.2,4.3C134.2-297.3,136.6-299.1,136.7-301.1L136.7-301.1L136.7-301.1z"/>
		<path id="path27-0-1-0-8-9_1_" class="st3" d="M276-98.6c0.1,3.6,1.4,4.9,4,6.8c-2,1.5-2.9,3.6-2.7,5.4c0.4,4.4,3.9,6.7,7.6,6.6
			c3.8-0.1,7-3.1,7.3-6.3c0.2-2.8-0.6-4.2-2.6-5.6c2.4-2,3.9-3.3,3.8-6.8c-0.1-3.5-3.1-7.7-8.3-7.8
			C279.8-106.5,275.9-102.2,276-98.6L276-98.6L276-98.6z M290.6-98.6c0.2,3.2-2.6,5.4-5.9,5.4c-3.2,0-6-2.6-6-5.5
			c0-3.1,3.7-4.8,6-4.8C287.7-103.5,290.4-101.4,290.6-98.6L290.6-98.6z M289.6-87.1c0.1,2.7-2.5,4.7-5.1,4.6
			c-2.3-0.1-4.8-1.8-4.8-4.1c0-2.8,2.8-4.3,5.2-4.3C287.1-91,289.6-89.1,289.6-87.1L289.6-87.1L289.6-87.1z"/>
	</g>
</g>
</svg>
