<?xml version="1.0" encoding="utf-8"?>
<!-- Generator: Adobe Illustrator 23.0.1, SVG Export Plug-In . SVG Version: 6.00 Build 0)  -->
<svg version="1.1" xmlns="http://www.w3.org/2000/svg" xmlns:xlink="http://www.w3.org/1999/xlink" x="0px" y="0px"
	 viewBox="0 0 180 250" style="enable-background:new 0 0 180 250;" xml:space="preserve">
<style type="text/css">
	.st0{fill:#FFFFFF;}
	.st1{fill:#E2CF00;}
	.st2{fill:#131F67;}
	.st3{fill:#D40000;}
	.st4{fill:#100F08;}
</style>
<g id="white-background">
	<rect class="st0" width="180" height="250"/>
</g>
<g id="Layer_1">
	<g id="g8484-9-4_1_" transform="matrix(0.99553774,0,0,0.99680134,-163.74334,79.60164)">
		<path id="path7018-7-4_1_" d="M213-53.6c-7.5,10.6-15.5,16.7-15.6,24.9c0,2.7,1.4,7.2,6,8.1c3,0.6,7-1.8,7.1-6.6c0-1,1-0.9,1,0.4
			c-0.1,3.8-1.4,8.2-3.4,11.9c3.3,0,6.5,0,9.8,0c-2-3.6-3.3-8-3.4-11.9c0-1.3,1-1.3,1-0.4c0.1,4.8,4.2,7.2,7.1,6.6
			c4.6-0.9,6-5.4,6-8.1C228.4-36.9,220.4-43,213-53.6L213-53.6z"/>
		<path id="path7020-0-8_1_" d="M178.4-39.7c-3.5,4.4-7.2,6.9-7.3,10.4c0,1.1,0.7,3,2.8,3.4c1.4,0.2,3.3-0.8,3.3-2.8
			c0-0.4,0.5-0.4,0.5,0.2c-0.1,1.6-0.6,3.4-1.6,4.9c1.5,0,3,0,4.6,0c-1-1.5-1.5-3.4-1.6-4.9c0-0.5,0.5-0.6,0.5-0.2
			c0,2,1.9,3,3.3,2.8c2.1-0.4,2.8-2.3,2.8-3.4C185.7-32.7,181.9-35.3,178.4-39.7L178.4-39.7z"/>
		<path id="path7024-7-1_1_" d="M331.3,130.7c-3.5-4.4-7.2-6.9-7.3-10.4c0-1.1,0.7-3,2.8-3.4c1.4-0.2,3.3,0.8,3.3,2.8
			c0,0.4,0.5,0.4,0.5-0.2c-0.1-1.6-0.6-3.4-1.6-4.9c1.5,0,3,0,4.6,0c-1,1.5-1.5,3.4-1.6,4.9c0,0.5,0.5,0.6,0.5,0.2
			c0-2,1.9-3,3.3-2.8c2.1,0.4,2.8,2.3,2.8,3.4C338.6,123.8,334.8,126.3,331.3,130.7L331.3,130.7z"/>
		<path id="path7026-2-6_1_" d="M296.8-53.6c-7.5,10.6-15.5,16.7-15.6,24.9c0,2.7,1.4,7.2,6,8.1c3,0.6,7-1.8,7.1-6.6
			c0-1,1-0.9,1,0.4c-0.1,3.8-1.4,8.2-3.4,11.9c3.3,0,6.5,0,9.8,0c-2-3.6-3.3-8-3.4-11.9c0-1.3,1-1.3,1-0.4c0.1,4.8,4.2,7.2,7.1,6.6
			c4.6-0.9,6-5.4,6-8.1C312.3-36.9,304.3-43,296.8-53.6z"/>
		<path id="path7036-9-6_1_" d="M213,26.2c-7.5,10.6-15.5,16.7-15.6,24.9c0,2.7,1.4,7.2,6,8.1c3,0.6,7-1.8,7.1-6.6c0-1,1-0.9,1,0.4
			c-0.1,3.8-1.4,8.2-3.4,11.9c3.3,0,6.5,0,9.8,0c-2-3.6-3.3-8-3.4-11.9c0-1.3,1-1.3,1-0.4c0.1,4.8,4.2,7.2,7.1,6.6
			c4.6-0.9,6-5.4,6-8.1C228.4,42.9,220.4,36.8,213,26.2L213,26.2z"/>
		<path id="path7038-9-6_1_" d="M213,144.6c-7.5-10.6-15.5-16.7-15.6-24.9c0-2.7,1.4-7.2,6-8.1c3-0.6,7,1.8,7.1,6.6c0,1,1,0.9,1-0.4
			c-0.1-3.8-1.4-8.2-3.4-11.9c3.3,0,6.5,0,9.8,0c-2,3.6-3.3,8-3.4,11.9c0,1.3,1,1.3,1,0.4c0.1-4.8,4.2-7.2,7.1-6.6
			c4.6,0.9,6,5.4,6,8.1C228.4,128,220.4,134.1,213,144.6L213,144.6z"/>
		<path id="path7040-0-9_1_" d="M296.8,144.6c-7.5-10.6-15.5-16.7-15.6-24.9c0-2.7,1.4-7.2,6-8.1c3-0.6,7,1.8,7.1,6.6
			c0,1,1,0.9,1-0.4c-0.1-3.8-1.4-8.2-3.4-11.9c3.3,0,6.5,0,9.8,0c-2,3.6-3.3,8-3.4,11.9c0,1.3,1,1.3,1,0.4c0.1-4.8,4.2-7.2,7.1-6.6
			c4.6,0.9,6,5.4,6,8.1C312.3,128,304.3,134.1,296.8,144.6z"/>
		<path id="path7050-2-9_1_" d="M296.8,26.2c-7.5,10.6-15.5,16.7-15.6,24.9c0,2.7,1.4,7.2,6,8.1c3,0.6,7-1.8,7.1-6.6
			c0-1,1-0.9,1,0.4c-0.1,3.8-1.4,8.2-3.4,11.9c3.3,0,6.5,0,9.8,0c-2-3.6-3.3-8-3.4-11.9c0-1.3,1-1.3,1-0.4c0.1,4.8,4.2,7.2,7.1,6.6
			c4.6-0.9,6-5.4,6-8.1C312.3,42.9,304.3,36.8,296.8,26.2z"/>
		<path id="path23-1-9-8_1_" d="M170.6-50.4c-0.3-2.2-0.3-8-0.1-9.7c0.8-5.2,2.8-7.6,6.2-8.4c3.3-0.8,7.9,0.1,8.9,4.5l-2.7,0.1
			c-1.5-3-5.2-2.2-7.3-0.9c-1.7,1-2.4,5.3-2.1,5.6c0,0,3.2-2.3,5.7-2.2c5.4,0.6,7.6,5.2,7.4,9.5c-0.2,5.2-1.8,9.4-7.5,9.7
			C173.6-42.4,171.1-45.3,170.6-50.4L170.6-50.4L170.6-50.4z M183.9-51.7c0-3.6-1.6-6.4-4.8-6.7c-3.1-0.3-6.3,2.8-6.1,6.5
			c0.2,3.7,1.7,6.9,5.5,6.8C182.6-45.1,183.9-49.1,183.9-51.7L183.9-51.7z"/>
		<path id="path23-1-5-6-4_1_" d="M339.2,141.4c0.3,2.2,0.3,8,0.1,9.7c-0.8,5.2-2.8,7.6-6.2,8.4c-3.3,0.8-7.9-0.1-8.9-4.5l2.7-0.1
			c1.5,3,5.2,2.2,7.3,0.9c1.7-1,2.4-5.3,2.1-5.6c0,0-3.2,2.3-5.7,2.2c-5.4-0.6-7.6-5.2-7.4-9.5c0.2-5.2,1.8-9.4,7.5-9.7
			C336.2,133.5,338.7,136.4,339.2,141.4L339.2,141.4L339.2,141.4z M325.9,142.8c0,3.6,1.6,6.4,4.8,6.7c3.1,0.3,6.3-2.8,6.1-6.5
			c-0.2-3.7-1.7-6.9-5.5-6.8C327.1,136.2,325.9,140.2,325.9,142.8L325.9,142.8z"/>
	</g>
</g>
</svg>
