<svg id="Layer_1" data-name="Layer 1" xmlns="http://www.w3.org/2000/svg" viewBox="0 0 180 250"><defs><style>.cls-1{fill:#d40000;}</style></defs><title>all_cards</title><g id="g11103-4-9"><path id="path10308-5-1" class="cls-1" d="M48.26,117.73s-3.76-6.14-8.84-13.36C36,99.54,33.31,94.31,33.06,89.81c-.29-5.14,2.45-10.31,7.41-10.56s7,4,7.79,7.45c.82-3.48,2.83-7.7,7.79-7.45s7.7,5.42,7.41,10.56c-.25,4.5-3,9.73-6.36,14.56C52,111.59,48.26,117.73,48.26,117.73Z"/><path id="path10310-7-8" class="cls-1" d="M13.88,56.1s-1.79-2.56-4.21-5.56c-1.62-2-2.91-4.19-3-6.07a3.9,3.9,0,0,1,3.53-4.4c2.36-.1,3.32,1.65,3.71,3.1.39-1.45,1.35-3.2,3.72-3.1a3.9,3.9,0,0,1,3.53,4.4c-.12,1.88-1.41,4.06-3,6.07C15.68,53.54,13.88,56.1,13.88,56.1Z"/><path id="path10312-3-5" class="cls-1" d="M166.12,193.9s-1.8,2.56-4.22,5.56c-1.62,2-2.91,4.19-3,6.07a3.9,3.9,0,0,0,3.53,4.4c2.37.1,3.33-1.66,3.72-3.1.39,1.44,1.35,3.2,3.71,3.1a3.89,3.89,0,0,0,3.53-4.4c-.11-1.88-1.41-4.06-3-6.07C167.91,196.46,166.12,193.9,166.12,193.9Z"/><path id="path10314-8-8" class="cls-1" d="M90,98.89s-3.76-6.14-8.84-13.36C77.77,80.7,75.05,75.47,74.8,71c-.29-5.15,2.45-10.31,7.41-10.56s7,4,7.79,7.45c.82-3.48,2.83-7.7,7.79-7.45s7.7,5.41,7.41,10.56c-.25,4.5-3,9.73-6.36,14.56C93.76,92.75,90,98.89,90,98.89Z"/><path id="path10318-3-7" class="cls-1" d="M48.26,64.7s-3.76-6.14-8.84-13.36C36,46.51,33.31,41.29,33.06,36.78c-.29-5.14,2.45-10.31,7.41-10.56s7,4,7.79,7.45c.82-3.48,2.83-7.7,7.79-7.45s7.7,5.42,7.41,10.56c-.25,4.51-3,9.73-6.36,14.56C52,58.56,48.26,64.7,48.26,64.7Z"/><path id="path10322-4-6" class="cls-1" d="M131.74,117.73s-3.76-6.14-8.84-13.36c-3.39-4.83-6.11-10.06-6.36-14.56C116.25,84.67,119,79.5,124,79.25s7,4,7.79,7.45c.82-3.48,2.83-7.7,7.79-7.45s7.7,5.42,7.41,10.56c-.25,4.5-3,9.73-6.36,14.56C135.5,111.59,131.74,117.73,131.74,117.73Z"/><path id="path10324-9-8" class="cls-1" d="M131.74,64.7S128,58.56,122.9,51.34c-3.39-4.83-6.11-10.05-6.36-14.56-.29-5.14,2.45-10.31,7.41-10.56s7,4,7.79,7.45c.82-3.48,2.83-7.7,7.79-7.45s7.7,5.42,7.41,10.56c-.25,4.51-3,9.73-6.36,14.56C135.5,58.56,131.74,64.7,131.74,64.7Z"/><path id="path10332-8-6" class="cls-1" d="M90,151.11s-3.76,6.14-8.84,13.36c-3.39,4.83-6.11,10.06-6.36,14.56-.29,5.15,2.45,10.31,7.41,10.56s7-4,7.79-7.45c.82,3.48,2.83,7.7,7.79,7.45s7.7-5.41,7.41-10.56c-.25-4.5-3-9.73-6.36-14.56C93.76,157.25,90,151.11,90,151.11Z"/><path id="path10334-5-0" class="cls-1" d="M131.74,132.27s-3.76,6.14-8.84,13.36c-3.39,4.83-6.11,10.05-6.36,14.56-.29,5.14,2.45,10.31,7.41,10.56s7-4,7.79-7.45c.82,3.48,2.83,7.7,7.79,7.45s7.7-5.42,7.41-10.56c-.25-4.51-3-9.73-6.36-14.56C135.5,138.41,131.74,132.27,131.74,132.27Z"/><path id="path10336-3-5" class="cls-1" d="M48.26,132.27s-3.76,6.14-8.84,13.36c-3.39,4.83-6.11,10.05-6.36,14.56-.29,5.14,2.45,10.31,7.41,10.56s7-4,7.79-7.45c.82,3.48,2.83,7.7,7.79,7.45s7.7-5.42,7.41-10.56c-.25-4.51-3-9.73-6.36-14.56C52,138.41,48.26,132.27,48.26,132.27Z"/><path id="path10338-2-9" class="cls-1" d="M131.74,185.3s-3.76,6.14-8.84,13.36c-3.39,4.82-6.11,10.05-6.36,14.56-.29,5.14,2.45,10.31,7.41,10.56s7-4,7.79-7.45c.82,3.48,2.83,7.69,7.79,7.45s7.7-5.42,7.41-10.56c-.25-4.51-3-9.74-6.36-14.56C135.5,191.44,131.74,185.3,131.74,185.3Z"/><path id="path10340-9-7" class="cls-1" d="M48.26,185.3s-3.76,6.14-8.84,13.36c-3.39,4.82-6.11,10.05-6.36,14.56-.29,5.14,2.45,10.31,7.41,10.56s7-4,7.79-7.45c.82,3.48,2.83,7.69,7.79,7.45s7.7-5.42,7.41-10.56c-.25-4.51-3-9.74-6.36-14.56C52,191.44,48.26,185.3,48.26,185.3Z"/><g id="g7724-24-8-9-7"><g id="g8345-9-7-5-1"><path id="path31-8-2-9-8" class="cls-1" d="M5.8,37.55V11.09H8.38V37.55Z"/><path id="path33-2-3-1-6" class="cls-1" d="M16,11.09a4.79,4.79,0,0,0-4.48,5.06V32.5a4.78,4.78,0,0,0,4.48,5h1.45a4.78,4.78,0,0,0,4.48-5V16.15a4.79,4.79,0,0,0-4.48-5.06Zm.75,2.51a2.57,2.57,0,0,1,2.64,2.51V32.68a2.65,2.65,0,0,1-5.29,0V16.11a2.58,2.58,0,0,1,2.65-2.51Z"/></g></g><g id="g7724-2-5-0-2-7"><g id="g8345-5-0-9-6-9"><g id="g10963-5-1"><path id="path31-1-3-2-1-5" class="cls-1" d="M174.2,212.45V238.9h-2.58V212.45Z"/><path id="path33-5-5-3-3-1" class="cls-1" d="M164,238.9a4.78,4.78,0,0,0,4.48-5.05V217.5a4.78,4.78,0,0,0-4.48-5.05h-1.45A4.78,4.78,0,0,0,158,217.5v16.35a4.78,4.78,0,0,0,4.48,5.05Zm-.75-2.5a2.57,2.57,0,0,1-2.64-2.51V217.32a2.65,2.65,0,0,1,5.29,0v16.57a2.58,2.58,0,0,1-2.65,2.51Z"/></g></g></g></g></svg>