<svg id="Layer_1" data-name="Layer 1" xmlns="http://www.w3.org/2000/svg" viewBox="0 0 180 250"><title>all_cards</title><g id="g5526"><path id="path147-0-8-1-6-13-2-22-1-5" d="M131.74,26.55c-7.92.17-11.47,9-5.6,15.89.85,1,.93,1.58-.62.62-4-2.62-11.52-.9-11.91,7.11-.48,9.88,13.42,12.72,16,2.22.13-1.1,1-1.08.82.49A32.63,32.63,0,0,1,127,65h9.41A32.46,32.46,0,0,1,133,52.88c-.22-1.57.69-1.59.83-.49,2.61,10.5,16.5,7.66,16-2.22-.38-8-8-9.73-11.9-7.11-1.56,1-1.47.39-.62-.62,5.86-6.87,2.31-15.72-5.6-15.89Z"/><path id="path147-0-8-1-6-75-2-83-21-1-8" d="M48.26,26.55c-7.92.17-11.47,9-5.61,15.89.85,1,.94,1.58-.62.62-4-2.62-11.52-.9-11.9,7.11-.48,9.88,13.41,12.72,16,2.22.14-1.1,1.05-1.08.83.49A32.46,32.46,0,0,1,43.55,65H53a32.63,32.63,0,0,1-3.42-12.15c-.22-1.57.69-1.59.83-.49,2.6,10.5,16.5,7.66,16-2.22-.39-8-8-9.73-11.91-7.11-1.55,1-1.46.39-.61-.62,5.86-6.87,2.31-15.72-5.61-15.89h0Z"/><path id="path147-0-8-1-6-7-5-5-7-3-5-5" d="M131.74,224.12c-7.92-.17-11.47-9-5.6-15.9.85-1,.93-1.57-.62-.61-4,2.62-11.52.9-11.91-7.12-.48-9.87,13.42-12.72,16-2.22.13,1.11,1,1.08.82-.49A32.63,32.63,0,0,0,127,185.63h9.41A32.46,32.46,0,0,0,133,197.78c-.22,1.57.69,1.6.83.49,2.61-10.5,16.5-7.65,16,2.22-.38,8-8,9.74-11.9,7.12-1.56-1-1.47-.39-.62.61,5.86,6.88,2.31,15.73-5.6,15.9Z"/><path id="path147-0-8-1-6-75-6-1-2-7-9-3" d="M48.26,224.12c-7.92-.17-11.47-9-5.61-15.9.85-1,.94-1.57-.62-.61-4,2.62-11.52.9-11.9-7.12-.48-9.87,13.41-12.72,16-2.22.14,1.11,1.05,1.08.83-.49a32.46,32.46,0,0,0-3.43-12.15H53a32.63,32.63,0,0,0-3.42,12.15c-.22,1.57.69,1.6.83.49,2.6-10.5,16.5-7.65,16,2.22-.39,8-8,9.74-11.91,7.12-1.55-1-1.46-.39-.61.61,5.86,6.88,2.31,15.73-5.61,15.9h0Z"/><path id="path147-0-8-1-6-2-00-7-1-1-4" d="M90,53.06c-7.92.17-11.47,9-5.61,15.9.85,1,.94,1.58-.62.61-3.94-2.62-11.51-.89-11.9,7.12-.48,9.87,13.42,12.72,16,2.22.14-1.11,1-1.08.83.49a32.46,32.46,0,0,1-3.43,12.15h9.42A32.46,32.46,0,0,1,91.28,79.4c-.22-1.57.69-1.6.83-.49,2.61,10.5,16.5,7.65,16-2.22-.39-8-8-9.74-11.9-7.12-1.56,1-1.47.39-.62-.61,5.86-6.88,2.31-15.73-5.61-15.9Z"/><path id="path147-0-8-1-6-2-0-8-6-8-1-8" d="M90,197.61c-7.92-.18-11.47-9-5.61-15.9.85-1,.94-1.58-.62-.62-3.94,2.62-11.51.9-11.9-7.11-.48-9.88,13.42-12.72,16-2.22.14,1.11,1,1.08.83-.49a32.46,32.46,0,0,0-3.43-12.15h9.42a32.46,32.46,0,0,0-3.43,12.15c-.22,1.57.69,1.6.83.49,2.61-10.5,16.5-7.66,16,2.22-.39,8-8,9.73-11.9,7.11-1.56-1-1.47-.38-.62.62,5.86,6.87,2.31,15.72-5.61,15.9Z"/><path id="path147-6-9-8-7-0-5-6-83-3-7" d="M166.12,209.93c3.17-.07,4.59-3.76,2.24-6.62-.34-.42-.37-.66.25-.26,1.58,1.1,4.61.38,4.76-3,.19-4.12-5.37-5.3-6.41-.93-.05.46-.42.45-.33-.2A14,14,0,0,1,168,193.9h-3.76a14.22,14.22,0,0,1,1.37,5.06c.08.65-.28.66-.33.2-1.05-4.37-6.61-3.19-6.41.93.15,3.34,3.18,4.06,4.76,3,.62-.4.59-.16.25.26-2.35,2.86-.93,6.55,2.24,6.62Z"/><path id="path147-0-8-1-6-75-2-9-77-44-0-7" d="M48.26,79.58c-7.92.17-11.47,9-5.61,15.89.85,1,.94,1.58-.62.62-4-2.62-11.52-.9-11.9,7.11-.48,9.88,13.41,12.72,16,2.22.14-1.1,1.05-1.08.83.49a32.46,32.46,0,0,1-3.43,12.15H53a32.63,32.63,0,0,1-3.42-12.15c-.22-1.57.69-1.59.83-.49,2.6,10.5,16.5,7.66,16-2.22-.39-8-8-9.73-11.91-7.11-1.55,1-1.46.39-.61-.62,5.86-6.87,2.31-15.72-5.61-15.89h0Z"/><path id="path147-0-8-1-6-75-2-8-0-3-9-3" d="M48.26,171.09c-7.92-.17-11.47-9-5.61-15.9.85-1,.94-1.57-.62-.61-4,2.62-11.52.9-11.9-7.12-.48-9.87,13.41-12.72,16-2.22.14,1.11,1.05,1.09.83-.49a32.41,32.41,0,0,0-3.43-12.14H53a32.58,32.58,0,0,0-3.42,12.14c-.22,1.58.69,1.6.83.49,2.6-10.5,16.5-7.65,16,2.22-.39,8-8,9.74-11.91,7.12-1.55-1-1.46-.39-.61.61,5.86,6.88,2.31,15.73-5.61,15.9h0Z"/><path id="path147-0-8-1-6-75-2-9-7-1-9-7-9" d="M131.74,79.58c-7.92.17-11.47,9-5.6,15.89.85,1,.93,1.58-.62.62-4-2.62-11.52-.9-11.91,7.11-.48,9.88,13.42,12.72,16,2.22.13-1.1,1-1.08.82.49A32.63,32.63,0,0,1,127,118.06h9.41A32.46,32.46,0,0,1,133,105.91c-.22-1.57.69-1.59.83-.49,2.61,10.5,16.5,7.66,16-2.22-.38-8-8-9.73-11.9-7.11-1.56,1-1.47.39-.62-.62,5.86-6.87,2.31-15.72-5.6-15.89Z"/><path id="path147-0-8-1-6-75-2-8-5-1-52-2-8" d="M131.74,171.09c-7.92-.17-11.47-9-5.6-15.9.85-1,.93-1.57-.62-.61-4,2.62-11.52.9-11.91-7.12-.48-9.87,13.42-12.72,16-2.22.13,1.11,1,1.09.82-.49A32.58,32.58,0,0,0,127,132.61h9.41A32.41,32.41,0,0,0,133,144.75c-.22,1.58.69,1.6.83.49,2.61-10.5,16.5-7.65,16,2.22-.38,8-8,9.74-11.9,7.12-1.56-1-1.47-.39-.62.61,5.86,6.88,2.31,15.73-5.6,15.9Z"/><path id="path147-6-9-8-7-4-5-62-52-8-0" d="M13.88,40.07c-3.16.07-4.58,3.76-2.24,6.62.34.42.38.66-.25.26-1.57-1.1-4.6-.38-4.76,3C6.44,54,12,55.21,13,50.84c.06-.47.42-.45.33.2A13.81,13.81,0,0,1,12,56.1h3.77A13.81,13.81,0,0,1,14.4,51c-.09-.65.27-.67.33-.2,1,4.37,6.6,3.19,6.41-.93C21,46.57,18,45.85,16.37,47c-.62.4-.58.16-.24-.26,2.34-2.86.92-6.55-2.24-6.62h0Z"/><path id="path31-6-7-6" d="M5.8,37.55V11.1H8.38V37.55Z"/><path id="path33-9-3-6" d="M16,11.09a4.79,4.79,0,0,0-4.48,5.06V32.5a4.78,4.78,0,0,0,4.48,5h1.45a4.78,4.78,0,0,0,4.48-5V16.15a4.79,4.79,0,0,0-4.48-5.06Zm.75,2.51a2.57,2.57,0,0,1,2.64,2.51V32.68a2.65,2.65,0,0,1-5.29,0V16.11a2.58,2.58,0,0,1,2.65-2.51Z"/><path id="path31-1-4-0-7" d="M174.2,212.45v26.46h-2.58V212.45Z"/><path id="path33-5-7-4-0" d="M164,238.91a4.79,4.79,0,0,0,4.48-5.06V217.5a4.78,4.78,0,0,0-4.48-5.05h-1.45A4.78,4.78,0,0,0,158,217.5v16.35a4.79,4.79,0,0,0,4.48,5.06Zm-.75-2.51a2.57,2.57,0,0,1-2.64-2.51V217.32a2.65,2.65,0,0,1,5.29,0v16.57a2.58,2.58,0,0,1-2.65,2.51Z"/></g></svg>