<?xml version="1.0" encoding="utf-8"?>
<!-- Generator: Adobe Illustrator 23.0.1, SVG Export Plug-In . SVG Version: 6.00 Build 0)  -->
<svg version="1.1" xmlns="http://www.w3.org/2000/svg" xmlns:xlink="http://www.w3.org/1999/xlink" x="0px" y="0px"
	 viewBox="0 0 180 250" style="enable-background:new 0 0 180 250;" xml:space="preserve">
<style type="text/css">
	.st0{fill:#FFFFFF;}
	.st1{fill:#E2CF00;}
	.st2{fill:#131F67;}
	.st3{fill:#D40000;}
	.st4{fill:#100F08;}
</style>
<g id="white-background">
	<rect class="st0" width="180" height="250"/>
</g>
<g id="Layer_1">
	<g id="g6771_1_" transform="matrix(0.99553491,0,0,0.99680337,9.6446796,-8.1397402)">
		<path id="path6858-4_1_" class="st3" d="M4.3,64.4c-1.7-2.9-3.6-5.7-5.9-8c2.3-2.4,4.1-5.2,5.9-8c1.8,2.9,3.6,5.7,5.9,8
			C7.8,58.8,6,61.6,4.3,64.4z"/>
		<path id="path6860-1_1_" class="st3" d="M122.6,73.1c-4.2-6.9-8.6-13.6-14.1-19.3c5.5-5.7,9.9-12.4,14.1-19.3
			c4.2,6.9,8.6,13.6,14.1,19.3C131.3,59.5,126.8,66.2,122.6,73.1z"/>
		<path id="path6862-0_1_" class="st3" d="M157.2,218.8c-1.7-2.9-3.6-5.7-5.9-8c2.3-2.4,4.1-5.2,5.9-8c1.8,2.9,3.6,5.7,5.9,8
			C160.8,213.1,158.9,215.9,157.2,218.8z"/>
		<path id="path6864-5_1_" class="st3" d="M38.8,73.1c-4.2-6.9-8.6-13.6-14.1-19.3c5.5-5.7,9.9-12.4,14.1-19.3
			C43,41.4,47.4,48,52.9,53.8C47.4,59.5,43,66.2,38.8,73.1z"/>
		<path id="path6870-5_1_" class="st3" d="M80.7,113c-4.2-6.9-8.6-13.6-14.1-19.3c5.5-5.7,9.9-12.4,14.1-19.3
			c4.2,6.9,8.6,13.6,14.1,19.3C89.3,99.4,84.9,106.1,80.7,113z"/>
		<path id="path6874-1_1_" class="st3" d="M38.8,152.8c-4.2-6.9-8.6-13.6-14.1-19.3c5.5-5.7,9.9-12.4,14.1-19.3
			c4.2,6.9,8.6,13.6,14.1,19.3C47.4,139.3,43,146,38.8,152.8z"/>
		<path id="path6876-6_1_" class="st3" d="M122.6,152.9c-4.2-6.9-8.6-13.6-14.1-19.3c5.5-5.7,9.9-12.4,14.1-19.3
			c4.2,6.9,8.6,13.6,14.1,19.3C131.3,139.3,126.8,146,122.6,152.9z"/>
		<path id="path6880-5_1_" class="st3" d="M38.8,232.7c-4.2-6.9-8.6-13.6-14.1-19.3c5.5-5.7,9.9-12.4,14.1-19.3
			c4.2,6.9,8.6,13.6,14.1,19.3C47.4,219.1,43,225.8,38.8,232.7z"/>
		<path id="path6882-9_1_" class="st3" d="M122.6,232.7c-4.2-6.9-8.6-13.6-14.1-19.3c5.5-5.7,9.9-12.4,14.1-19.3
			c4.2,6.9,8.6,13.6,14.1,19.3C131.3,219.1,126.8,225.8,122.6,232.7z"/>
		<path id="path25-43-4-8-8_1_" class="st3" d="M0.1,45.8c1.8-9.2,3.6-16.2,8.5-23.7h-10v3.2h-2.7v-6.1h14.6l1.8,2.9
			c-5.2,5.7-10,23.9-9.1,23.7H0.1z"/>
		<path id="path25-7-0-7-6_1_" class="st3" d="M161.3,221.3c-1.8,9.2-3.6,16.2-8.5,23.7h10v-3.2h2.7v6.1h-14.6L149,245
			c5.2-5.7,10-23.9,9.1-23.7H161.3z"/>
	</g>
</g>
</svg>
