<svg id="Layer_1" data-name="Layer 1" xmlns="http://www.w3.org/2000/svg" viewBox="0 0 180 250"><title>all_cards</title><g id="g5510"><path id="path147-0-8-1-6-13-2-9-8-8" d="M131.74,26.55c-7.92.17-11.47,9-5.6,15.89.85,1,.93,1.58-.62.62-4-2.62-11.52-.9-11.91,7.11-.48,9.88,13.42,12.72,16,2.22.13-1.1,1-1.08.82.49A32.63,32.63,0,0,1,127,65h9.41A32.46,32.46,0,0,1,133,52.88c-.22-1.57.69-1.59.83-.49,2.61,10.5,16.5,7.66,16-2.22-.38-8-8-9.73-11.9-7.11-1.56,1-1.47.39-.62-.62,5.86-6.87,2.31-15.72-5.6-15.89Z"/><path id="path147-0-8-1-6-75-2-83-3-5-0" d="M48.26,26.55c-7.92.17-11.47,9-5.61,15.89.85,1,.94,1.58-.62.62-3.94-2.62-11.51-.9-11.9,7.11-.48,9.88,13.41,12.72,16,2.22.14-1.1,1.05-1.08.83.49A32.46,32.46,0,0,1,43.55,65H53a32.63,32.63,0,0,1-3.42-12.15c-.22-1.57.69-1.59.83-.49,2.6,10.5,16.5,7.66,16-2.22-.39-8-8-9.73-11.91-7.11-1.55,1-1.46.39-.61-.62,5.86-6.87,2.31-15.72-5.61-15.89h0Z"/><path id="path147-0-8-1-6-7-5-5-7-63-0-4" d="M131.74,224.12c-7.92-.17-11.47-9-5.6-15.9.85-1,.93-1.57-.62-.61-4,2.62-11.52.9-11.91-7.12-.48-9.87,13.42-12.72,16-2.22.13,1.11,1,1.08.82-.49A32.63,32.63,0,0,0,127,185.63h9.41A32.46,32.46,0,0,0,133,197.78c-.22,1.57.69,1.6.83.49,2.61-10.5,16.5-7.65,16,2.22-.38,8-8,9.74-11.9,7.12-1.56-1-1.47-.39-.62.61,5.86,6.88,2.31,15.73-5.6,15.9Z"/><path id="path147-0-8-1-6-75-6-1-2-46-5-0" d="M48.26,224.12c-7.92-.17-11.47-9-5.61-15.9.85-1,.94-1.57-.62-.61-3.94,2.62-11.51.9-11.9-7.12-.48-9.87,13.41-12.72,16-2.22.14,1.11,1.05,1.08.83-.49a32.46,32.46,0,0,0-3.43-12.15H53a32.63,32.63,0,0,0-3.42,12.15c-.22,1.57.69,1.6.83.49,2.6-10.5,16.5-7.65,16,2.22-.39,8-8,9.74-11.91,7.12-1.55-1-1.46-.39-.61.61,5.86,6.88,2.31,15.73-5.61,15.9h0Z"/><path id="path147-0-8-1-6-1-1-0-5-61-2-0" d="M90,106.09c-7.92.17-11.47,9-5.61,15.9.85,1,.94,1.58-.62.61-3.94-2.62-11.51-.9-11.9,7.12-.48,9.87,13.42,12.72,16,2.22.14-1.11,1-1.08.83.49a32.63,32.63,0,0,1-3.42,12.15h9.41a32.46,32.46,0,0,1-3.43-12.15c-.22-1.57.69-1.6.83-.49,2.61,10.5,16.5,7.65,16-2.22-.39-8-8-9.74-11.9-7.12-1.56,1-1.47.39-.62-.61,5.86-6.88,2.31-15.73-5.61-15.9Z"/><path id="path147-6-9-8-7-0-5-6-5-2-8" d="M166.12,209.93c3.17-.07,4.59-3.76,2.24-6.62-.34-.42-.37-.66.25-.26,1.58,1.1,4.61.38,4.76-3,.19-4.12-5.37-5.3-6.41-.93-.05.46-.42.45-.33-.2A14,14,0,0,1,168,193.9h-3.76a14.22,14.22,0,0,1,1.37,5.06c.08.65-.28.66-.34.2-1-4.37-6.6-3.19-6.4.93.15,3.34,3.18,4.06,4.76,3,.62-.4.59-.16.24.26-2.34,2.86-.92,6.55,2.25,6.62Z"/><path id="path147-0-8-1-6-75-2-9-77-4-4-2" d="M48.26,79.58c-7.92.17-11.47,9-5.61,15.89.85,1,.94,1.58-.62.62-3.94-2.62-11.51-.9-11.9,7.11-.48,9.88,13.41,12.72,16,2.22.14-1.1,1.05-1.08.83.49a32.46,32.46,0,0,1-3.43,12.15H53a32.63,32.63,0,0,1-3.42-12.15c-.22-1.57.69-1.59.83-.49,2.6,10.5,16.5,7.66,16-2.22-.39-8-8-9.73-11.9-7.11-1.56,1-1.47.39-.62-.62,5.86-6.87,2.31-15.72-5.61-15.89h0Z"/><path id="path147-0-8-1-6-75-2-8-0-6-4-4" d="M48.26,171.09c-7.92-.17-11.47-9-5.61-15.9.85-1,.94-1.57-.62-.61-3.94,2.62-11.51.9-11.9-7.12-.48-9.87,13.41-12.72,16-2.22.14,1.11,1.05,1.09.83-.49a32.41,32.41,0,0,0-3.43-12.14H53a32.58,32.58,0,0,0-3.42,12.14c-.22,1.58.69,1.6.83.49,2.6-10.5,16.5-7.65,16,2.22-.39,8-8,9.74-11.91,7.12-1.55-1-1.46-.39-.61.61,5.86,6.88,2.31,15.73-5.61,15.9h0Z"/><path id="path147-0-8-1-6-75-2-9-7-1-36-2-4" d="M131.74,79.58c-7.92.17-11.47,9-5.6,15.89.85,1,.93,1.58-.62.62-4-2.62-11.52-.9-11.91,7.11-.48,9.88,13.42,12.72,16,2.22.13-1.1,1-1.08.82.49A32.63,32.63,0,0,1,127,118.06h9.41A32.46,32.46,0,0,1,133,105.91c-.22-1.57.69-1.59.83-.49,2.61,10.5,16.5,7.66,16-2.22-.38-8-8-9.73-11.9-7.11-1.56,1-1.47.39-.62-.62,5.86-6.87,2.31-15.72-5.6-15.89Z"/><path id="path147-0-8-1-6-75-2-8-5-1-55-5-4" d="M131.74,171.09c-7.92-.17-11.47-9-5.6-15.9.85-1,.93-1.57-.62-.61-4,2.62-11.52.9-11.91-7.12-.48-9.87,13.42-12.72,16-2.22.13,1.11,1,1.09.82-.49A32.58,32.58,0,0,0,127,132.61h9.41A32.41,32.41,0,0,0,133,144.75c-.22,1.58.69,1.6.83.49,2.61-10.5,16.5-7.65,16,2.22-.38,8-8,9.74-11.9,7.12-1.56-1-1.47-.39-.62.61,5.86,6.88,2.31,15.73-5.6,15.9Z"/><path id="path147-6-9-8-7-4-5-62-7-8-4" d="M13.88,40.07c-3.16.07-4.58,3.76-2.24,6.62.34.42.38.66-.25.26-1.57-1.1-4.6-.38-4.76,3C6.44,54,12,55.21,13,50.84c.06-.46.42-.45.33.2A13.81,13.81,0,0,1,12,56.1h3.77A13.81,13.81,0,0,1,14.4,51c-.09-.65.27-.67.33-.2,1,4.37,6.6,3.19,6.41-.93C21,46.57,18,45.85,16.38,47c-.63.4-.59.16-.25-.26,2.34-2.86.92-6.55-2.24-6.62h0Z"/><path id="path29-2-3-4" d="M6.45,32.45l2.43-.77a4.32,4.32,0,0,0,4.74,3c3.52-.28,4.7-4.19,5-7.66a7,7,0,0,1-5.19,2.11c-5.62-.3-7.06-4.77-7.11-9.45-.15-3.94,1.49-6.8,4.3-8.11a9.63,9.63,0,0,1,6.4.12c3.45,1.81,4.72,4.93,4.49,12.37,0,6.13-1.31,13.27-7.91,13.42a6.39,6.39,0,0,1-7.11-5ZM16,25.74a5.78,5.78,0,0,0,2.31-2.41,4.55,4.55,0,0,0,.44-3c-.31-4.44-2.65-7-6.05-6.47a4.07,4.07,0,0,0-3.52,3.3C8.09,20.8,9.48,25,12.09,26A5.08,5.08,0,0,0,16,25.74Z"/><path id="path29-6-1-3-7" d="M173.55,217.55l-2.43.76a4.31,4.31,0,0,0-4.74-3c-3.53.28-4.7,4.19-5,7.66a7,7,0,0,1,5.19-2.11c5.62.3,7.06,4.77,7.11,9.45.15,3.94-1.49,6.8-4.3,8.11a9.63,9.63,0,0,1-6.4-.12c-3.45-1.81-4.72-4.93-4.49-12.37,0-6.13,1.31-13.27,7.91-13.42a6.39,6.39,0,0,1,7.11,5ZM164,224.26a5.78,5.78,0,0,0-2.31,2.41,4.54,4.54,0,0,0-.44,3c.31,4.44,2.65,7,6,6.47a4.07,4.07,0,0,0,3.52-3.3c1.1-3.63-.29-7.87-2.9-8.84a5.08,5.08,0,0,0-3.92.27Z"/></g></svg>