<svg id="Layer_1" data-name="Layer 1" xmlns="http://www.w3.org/2000/svg" viewBox="0 0 180 250"><defs><style>.cls-1{fill:#d40000;}</style></defs><title>all_cards</title><g id="g11398-8-7"><path id="path9766-0-8" class="cls-1" d="M13.93,56.1s-1.8-2.56-4.22-5.56c-1.62-2-2.91-4.19-3-6.07a3.9,3.9,0,0,1,3.53-4.4c2.37-.1,3.33,1.65,3.72,3.1.39-1.45,1.35-3.2,3.71-3.1a3.89,3.89,0,0,1,3.53,4.4c-.12,1.88-1.41,4.06-3,6.07C15.72,53.54,13.93,56.1,13.93,56.1Z"/><path id="path9768-3-3" class="cls-1" d="M166.16,193.9s-1.79,2.56-4.21,5.56c-1.62,2-2.92,4.19-3,6.07a3.9,3.9,0,0,0,3.54,4.4c2.36.1,3.32-1.66,3.71-3.1.39,1.44,1.35,3.2,3.71,3.1a3.9,3.9,0,0,0,3.54-4.4c-.12-1.88-1.42-4.06-3-6.07C168,196.46,166.16,193.9,166.16,193.9Z"/><path id="path9772-1-7" class="cls-1" d="M90,64.7s-3.76-6.14-8.83-13.36c-3.4-4.83-6.11-10.05-6.37-14.56-.29-5.14,2.45-10.31,7.41-10.56s7,4,7.79,7.45c.82-3.48,2.84-7.7,7.79-7.45s7.7,5.42,7.41,10.56c-.25,4.51-3,9.73-6.36,14.56C93.81,58.56,90,64.7,90,64.7Z"/><path id="path9786-2-1" class="cls-1" d="M90,185.3s-3.76,6.14-8.83,13.36c-3.4,4.82-6.11,10.05-6.37,14.56-.29,5.14,2.45,10.31,7.41,10.56s7-4,7.79-7.45c.82,3.48,2.84,7.69,7.79,7.45s7.7-5.42,7.41-10.56c-.25-4.51-3-9.74-6.36-14.56C93.81,191.44,90,185.3,90,185.3Z"/><path id="path15-34-0-0-4" class="cls-1" d="M6.35,37.5l.13-1.64c.41-5,1.5-6.74,7.68-12,3-2.55,4-3.81,4.12-5.27.4-3.45-2.67-4.52-4.67-4.54C11,14,8.1,15.59,9.5,19.23l-2.91.87c-.58-3.4,0-6.58,2.74-8C13,10.26,17.61,11,20,13.89a6.88,6.88,0,0,1,1.09,6.75C18.57,26,10.18,28.4,9.49,34.63h9.28V31.16H21.5v6.39l-15.15,0Z"/><path id="path15-5-4-5-2-7" class="cls-1" d="M173.73,212.5l-.13,1.63c-.41,5.05-1.5,6.75-7.68,12-3,2.55-4,3.81-4.12,5.27-.39,3.45,2.68,4.52,4.67,4.54,2.59,0,5.52-1.54,4.12-5.18l2.9-.87c.59,3.4,0,6.58-2.73,8-3.63,1.85-8.28,1.12-10.63-1.78a6.88,6.88,0,0,1-1.09-6.75c2.47-5.39,10.87-7.76,11.56-14h-9.28v3.47h-2.73v-6.39l15.14.05Z"/></g></svg>