<?xml version="1.0" encoding="utf-8"?>
<!-- Generator: Adobe Illustrator 23.0.1, SVG Export Plug-In . SVG Version: 6.00 Build 0)  -->
<svg version="1.1" xmlns="http://www.w3.org/2000/svg" xmlns:xlink="http://www.w3.org/1999/xlink" x="0px" y="0px"
	 viewBox="0 0 180 250" style="enable-background:new 0 0 180 250;" xml:space="preserve">
<style type="text/css">
	.st0{fill:#FFFFFF;}
	.st1{fill:#E2CF00;}
	.st2{fill:#131F67;}
	.st3{fill:#D40000;}
	.st4{fill:#100F08;}
</style>
<g id="white-background">
	<rect class="st0" width="180" height="250"/>
</g>
<g id="Layer_1">
	<g id="g8511-1-4_1_" transform="matrix(0.99553774,0,0,0.99680134,-284.59654,79.60164)">
		<path id="path7155-4-0_1_" d="M334.3-53.6c-7.5,10.6-15.5,16.7-15.6,24.9c0,2.7,1.4,7.2,6,8.1c3,0.6,7-1.8,7.1-6.6
			c0-1,1-0.9,1,0.4c-0.1,3.8-1.4,8.2-3.4,11.9c3.3,0,6.5,0,9.8,0c-2-3.6-3.3-8-3.4-11.9c0-1.3,1-1.3,1-0.4c0.1,4.8,4.2,7.2,7.1,6.6
			c4.6-0.9,6-5.4,6-8.1C349.8-36.9,341.8-43,334.3-53.6z"/>
		<path id="path7157-2-9_1_" d="M299.8-39.7c-3.5,4.4-7.2,6.9-7.3,10.4c0,1.1,0.7,3,2.8,3.4c1.4,0.2,3.3-0.8,3.3-2.8
			c0-0.4,0.5-0.4,0.5,0.2c-0.1,1.6-0.6,3.4-1.6,4.9c1.5,0,3,0,4.6,0c-1-1.5-1.5-3.4-1.6-4.9c0-0.5,0.5-0.6,0.5-0.2
			c0,2,1.9,3,3.3,2.8c2.1-0.4,2.8-2.3,2.8-3.4C307-32.7,303.3-35.3,299.8-39.7L299.8-39.7z"/>
		<path id="path7162-7-0_1_" d="M452.7,130.7c-3.5-4.4-7.2-6.9-7.3-10.4c0-1.1,0.7-3,2.8-3.4c1.4-0.2,3.3,0.8,3.3,2.8
			c0,0.4,0.5,0.4,0.5-0.2c-0.1-1.6-0.6-3.4-1.6-4.9c1.5,0,3,0,4.6,0c-1,1.5-1.5,3.4-1.6,4.9c0,0.5,0.5,0.6,0.5,0.2
			c0-2,1.9-3,3.3-2.8c2.1,0.4,2.8,2.3,2.8,3.4C460,123.8,456.2,126.3,452.7,130.7L452.7,130.7z"/>
		<path id="path7164-8-3_1_" d="M418.2-53.6c-7.5,10.6-15.5,16.7-15.6,24.9c0,2.7,1.4,7.2,6,8.1c3,0.6,7-1.8,7.1-6.6
			c0-1,1-0.9,1,0.4c-0.1,3.8-1.4,8.2-3.4,11.9c3.3,0,6.5,0,9.8,0c-2-3.6-3.3-8-3.4-11.9c0-1.3,1-1.3,1-0.4c0.1,4.8,4.2,7.2,7.1,6.6
			c4.6-0.9,6-5.4,6-8.1C433.7-36.9,425.7-43,418.2-53.6z"/>
		<path id="path7168-3-2_1_" d="M376.3-13.7C368.8-3.1,360.8,3,360.7,11.3c0,2.7,1.4,7.2,6,8.1c3,0.6,7-1.8,7.1-6.6c0-1,1-0.9,1,0.4
			c-0.1,3.8-1.4,8.2-3.4,11.9c3.3,0,6.5,0,9.8,0c-2-3.6-3.3-8-3.4-11.9c0-1.3,1-1.3,1-0.4c0.1,4.8,4.2,7.2,7.1,6.6
			c4.6-0.9,6-5.4,6-8.1C391.7,3,383.7-3.1,376.3-13.7z"/>
		<path id="path7174-5-0_1_" d="M334.3,26.2c-7.5,10.6-15.5,16.7-15.6,24.9c0,2.7,1.4,7.2,6,8.1c3,0.6,7-1.8,7.1-6.6
			c0-1,1-0.9,1,0.4c-0.1,3.8-1.4,8.2-3.4,11.9c3.3,0,6.5,0,9.8,0c-2-3.6-3.3-8-3.4-11.9c0-1.3,1-1.3,1-0.4c0.1,4.8,4.2,7.2,7.1,6.6
			c4.6-0.9,6-5.4,6-8.1C349.8,42.9,341.8,36.8,334.3,26.2z"/>
		<path id="path7176-7-0_1_" d="M334.3,144.6c-7.5-10.6-15.5-16.7-15.6-24.9c0-2.7,1.4-7.2,6-8.1c3-0.6,7,1.8,7.1,6.6
			c0,1,1,0.9,1-0.4c-0.1-3.8-1.4-8.2-3.4-11.9c3.3,0,6.5,0,9.8,0c-2,3.6-3.3,8-3.4,11.9c0,1.3,1,1.3,1,0.4c0.1-4.8,4.2-7.2,7.1-6.6
			c4.6,0.9,6,5.4,6,8.1C349.8,128,341.8,134.1,334.3,144.6z"/>
		<path id="path7178-9-4_1_" d="M418.2,144.6c-7.5-10.6-15.5-16.7-15.6-24.9c0-2.7,1.4-7.2,6-8.1c3-0.6,7,1.8,7.1,6.6
			c0,1,1,0.9,1-0.4c-0.1-3.8-1.4-8.2-3.4-11.9c3.3,0,6.5,0,9.8,0c-2,3.6-3.3,8-3.4,11.9c0,1.3,1,1.3,1,0.4c0.1-4.8,4.2-7.2,7.1-6.6
			c4.6,0.9,6,5.4,6,8.1C433.7,128,425.7,134.1,418.2,144.6z"/>
		<path id="path7180-5-1_1_" d="M376.3,104.7c-7.5-10.6-15.5-16.7-15.6-24.9c0-2.7,1.4-7.2,6-8.1c3-0.6,7,1.8,7.1,6.6
			c0,1,1,0.9,1-0.4c-0.1-3.8-1.4-8.2-3.4-11.9c3.3,0,6.5,0,9.8,0c-2,3.6-3.3,8-3.4,11.9c0,1.3,1,1.3,1,0.4c0.1-4.8,4.2-7.2,7.1-6.6
			c4.6,0.9,6,5.4,6,8.1C391.7,88.1,383.7,94.2,376.3,104.7z"/>
		<path id="path7189-7-7_1_" d="M418.2,26.2c-7.5,10.6-15.5,16.7-15.6,24.9c0,2.7,1.4,7.2,6,8.1c3,0.6,7-1.8,7.1-6.6
			c0-1,1-0.9,1,0.4c-0.1,3.8-1.4,8.2-3.4,11.9c3.3,0,6.5,0,9.8,0c-2-3.6-3.3-8-3.4-11.9c0-1.3,1-1.3,1-0.4c0.1,4.8,4.2,7.2,7.1,6.6
			c4.6-0.9,6-5.4,6-8.1C433.7,42.9,425.7,36.8,418.2,26.2z"/>
		<path id="path27-43-30-7_1_" d="M291.1-50c0.1-3.6,1.4-4.9,4-6.8c-2-1.5-2.9-3.6-2.7-5.4c0.4-4.4,3.9-6.7,7.6-6.6
			c3.8,0.1,7,3.1,7.3,6.3c0.2,2.8-0.6,4.2-2.6,5.6c2.4,2,3.9,3.3,3.8,6.8c-0.1,3.5-3.1,7.7-8.3,7.8C295-42.1,291-46.4,291.1-50
			L291.1-50L291.1-50z M305.8-49.9c0.2-3.2-2.6-5.4-5.9-5.4c-3.2,0-6,2.6-6,5.5c0,3.1,3.7,4.8,6,4.8C302.8-45,305.6-47.2,305.8-49.9
			L305.8-49.9z M304.7-61.5c0.1-2.7-2.5-4.7-5.1-4.6c-2.3,0.1-4.8,1.8-4.8,4.1c0,2.8,2.8,4.3,5.2,4.3
			C302.2-57.6,304.7-59.4,304.7-61.5L304.7-61.5L304.7-61.5z"/>
		<path id="path27-43-3-4-8_1_" d="M444.1,141c0.1,3.6,1.4,4.9,4,6.8c-2,1.5-2.9,3.6-2.7,5.4c0.4,4.4,3.9,6.7,7.6,6.6
			c3.8-0.1,7-3.1,7.3-6.3c0.2-2.8-0.6-4.2-2.6-5.6c2.4-2,3.9-3.3,3.8-6.8c-0.1-3.5-3.1-7.7-8.3-7.8
			C447.9,133.1,443.9,137.5,444.1,141L444.1,141L444.1,141z M458.7,141c0.2,3.2-2.6,5.4-5.9,5.4c-3.2,0-6-2.6-6-5.5
			c0-3.1,3.7-4.8,6-4.8C455.7,136.1,458.5,138.3,458.7,141L458.7,141z M457.6,152.6c0.1,2.7-2.5,4.7-5.1,4.6
			c-2.3-0.1-4.8-1.8-4.8-4.1c0-2.8,2.8-4.3,5.2-4.3C455.1,148.7,457.6,150.5,457.6,152.6L457.6,152.6L457.6,152.6z"/>
	</g>
</g>
</svg>
