<svg id="Layer_1" data-name="Layer 1" xmlns="http://www.w3.org/2000/svg" viewBox="0 0 180 250"><defs><style>.cls-1{fill:#d40000;}</style></defs><title>all_cards</title><g id="g11234-8-5"><path id="path10106-2-3" class="cls-1" d="M13.88,56.1s-1.79-2.56-4.21-5.56c-1.62-2-2.91-4.19-3-6.07a3.89,3.89,0,0,1,3.53-4.4c2.36-.1,3.32,1.65,3.71,3.1.39-1.45,1.35-3.2,3.72-3.1a3.9,3.9,0,0,1,3.53,4.4c-.12,1.88-1.41,4.06-3,6.07C15.68,53.54,13.88,56.1,13.88,56.1Z"/><path id="path10108-3-1" class="cls-1" d="M166.12,193.9s-1.8,2.56-4.22,5.56c-1.62,2-2.91,4.19-3,6.07a3.9,3.9,0,0,0,3.53,4.4c2.37.1,3.33-1.66,3.72-3.1.39,1.44,1.35,3.2,3.71,3.1a3.89,3.89,0,0,0,3.53-4.4c-.11-1.88-1.41-4.06-3-6.07C167.91,196.46,166.12,193.9,166.12,193.9Z"/><path id="path10110-3-5" class="cls-1" d="M90,104.47s-3.76-6.14-8.84-13.35c-3.39-4.83-6.11-10.06-6.36-14.57-.29-5.14,2.45-10.3,7.41-10.55s7,4,7.79,7.44c.82-3.48,2.83-7.69,7.79-7.44s7.7,5.41,7.41,10.55c-.25,4.51-3,9.74-6.36,14.57C93.76,98.33,90,104.47,90,104.47Z"/><path id="path10114-8-3" class="cls-1" d="M48.26,64.7s-3.76-6.14-8.84-13.36C36,46.51,33.31,41.29,33.06,36.78c-.29-5.14,2.45-10.31,7.41-10.56s7,4,7.79,7.45c.82-3.48,2.83-7.7,7.79-7.45s7.7,5.42,7.41,10.56c-.25,4.51-3,9.73-6.36,14.56C52,58.56,48.26,64.7,48.26,64.7Z"/><path id="path10116-2-5" class="cls-1" d="M131.74,144.24s-3.76-6.14-8.84-13.35c-3.39-4.83-6.11-10.06-6.36-14.57-.29-5.14,2.45-10.3,7.41-10.55s7,4,7.79,7.44c.82-3.47,2.83-7.69,7.79-7.44s7.7,5.41,7.41,10.55c-.25,4.51-3,9.74-6.36,14.57C135.51,138.1,131.74,144.24,131.74,144.24Z"/><path id="path10120-6-5" class="cls-1" d="M131.74,64.7S128,58.56,122.9,51.34c-3.39-4.83-6.11-10.05-6.36-14.56-.29-5.14,2.45-10.31,7.41-10.56s7,4,7.79,7.45c.82-3.48,2.83-7.7,7.79-7.45s7.7,5.42,7.41,10.56c-.25,4.51-3,9.73-6.36,14.56C135.51,58.56,131.74,64.7,131.74,64.7Z"/><path id="path10124-1-1" class="cls-1" d="M48.26,144.24s-3.76-6.14-8.84-13.35c-3.39-4.83-6.11-10.06-6.36-14.57-.29-5.14,2.45-10.3,7.41-10.55s7,4,7.79,7.44c.82-3.47,2.83-7.69,7.79-7.44s7.7,5.41,7.41,10.55c-.25,4.51-3,9.74-6.36,14.57C52,138.1,48.26,144.24,48.26,144.24Z"/><path id="path10134-7-3" class="cls-1" d="M131.74,185.3s-3.76,6.14-8.84,13.36c-3.39,4.82-6.11,10.05-6.36,14.56-.29,5.14,2.45,10.31,7.41,10.56s7-4,7.79-7.45c.82,3.48,2.83,7.69,7.79,7.45s7.7-5.42,7.41-10.56c-.25-4.51-3-9.74-6.36-14.56C135.51,191.44,131.74,185.3,131.74,185.3Z"/><path id="path10136-5-7" class="cls-1" d="M48.26,185.3s-3.76,6.14-8.84,13.36c-3.39,4.82-6.11,10.05-6.36,14.56-.29,5.14,2.45,10.31,7.41,10.56s7-4,7.79-7.45c.82,3.48,2.83,7.69,7.79,7.45s7.7-5.42,7.41-10.56c-.25-4.51-3-9.74-6.36-14.56C52,191.44,48.26,185.3,48.26,185.3Z"/><path id="path25-43-2-3-9" class="cls-1" d="M9.79,37.55c1.75-9.2,3.62-16.11,8.51-23.6h-10v3.23H5.71V11.09H20.26L22.05,14c-5.19,5.64-10,23.87-9.11,23.6Z"/><path id="path25-7-0-2-8-2" class="cls-1" d="M170.21,212.45c-1.75,9.2-3.62,16.1-8.51,23.6h10v-3.23h2.63v6.08H159.74L158,236.05c5.19-5.64,10-23.87,9.11-23.6Z"/></g></svg>