<?xml version="1.0" encoding="utf-8"?>
<!-- Generator: Adobe Illustrator 23.0.1, SVG Export Plug-In . SVG Version: 6.00 Build 0)  -->
<svg version="1.1" xmlns="http://www.w3.org/2000/svg" xmlns:xlink="http://www.w3.org/1999/xlink" x="0px" y="0px"
	 viewBox="0 0 180 250" style="enable-background:new 0 0 180 250;" xml:space="preserve">
<style type="text/css">
	.st0{fill:#FFFFFF;}
	.st1{fill:#E2CF00;}
	.st2{fill:#131F67;}
	.st3{fill:#D40000;}
	.st4{fill:#100F08;}
</style>
<g id="white-background">
	<rect class="st0" width="180" height="250"/>
</g>
<g id="Layer_1">
	<g id="g7094_1_" transform="matrix(0.99553491,0,0,0.99680337,10.376831,-8.1397611)">
		<path id="path7130-4_1_" class="st3" d="M3.9,64.4c-1.8-2.9-3.6-5.7-5.9-8c2.3-2.4,4.1-5.2,5.9-8c1.7,2.9,3.6,5.7,5.9,8
			C7.5,58.8,5.6,61.6,3.9,64.4z"/>
		<path id="path7134-0_1_" class="st3" d="M156.1,218.8c-1.7-2.9-3.6-5.7-5.9-8c2.3-2.4,4.1-5.2,5.9-8c1.7,2.9,3.6,5.7,5.9,8
			C159.7,213.1,157.8,215.9,156.1,218.8z"/>
		<path id="path7136-1_1_" class="st3" d="M38.2,73.1c-4.2-6.9-8.6-13.6-14.1-19.3C29.6,48,34,41.4,38.2,34.5
			c4.2,6.9,8.6,13.6,14.1,19.3C46.9,59.5,42.4,66.2,38.2,73.1z"/>
		<path id="path7154-5_1_" class="st3" d="M121.7,232.7c-4.2-6.9-8.6-13.6-14.1-19.3c5.5-5.7,9.9-12.4,14.1-19.3
			c4.2,6.9,8.6,13.6,14.1,19.3C130.3,219.1,125.9,225.8,121.7,232.7z"/>
		<path id="path6263-5_1_" class="st2" d="M13.9,239.4V27.7h132.2v211.7H13.9z M61.5,62.9c-4.7-1.3-4.6,3.4-1.2,3.6
			c3.9,0.3,5.5-6.2,3.7-8.8C64,57.7,62.4,62.6,61.5,62.9z M30.8,89.3l-5.7,2.5l0,4.2C27.5,94.2,29.3,91.9,30.8,89.3L30.8,89.3z
			 M69.5,215.9c-1.1-0.6-2.5-1.8-2.3-2c0.1-0.1,0.7,0.1,1.3,0.3c4.4,1.9,7.9,1.7,13.2-0.2c0.4-0.1,1,0.6,0.8,1
			C80.2,218.6,72.6,217.3,69.5,215.9L69.5,215.9z M67.2,210.7c-1-1.5,0.3-0.4,0.8,0.1c3.3,3,7.7,4.1,11.6,1.2
			c0.2-0.2,0.2-0.4,0.1-0.5c-0.1-0.3-0.1,0-1.7,0.6c-3.7,1.4-6.8,0.2-9.8-2c-1.2-1-1.8-1.4-1.8-1.7c0-0.2,0.2-0.4,0.6-0.3
			c0.3,0,1,0.2,1.5,0.2c0.9,0.1,0.8,0,1.8-0.4c2-0.9,3.9-1.3,6-0.9c0.5,0.1,1.1,0.2,1.2,0.2c0.5-0.2-0.2-0.8-2-2.2
			c-0.4-0.3-0.8-0.5-0.9-0.8c-0.2-0.4,0-0.5,0.3-0.5c0.7,0,4,2.7,5.1,4.4c0.3,0.5,0.6,0.5,0.6,1.1c-0.1,0.5-0.2,1,0.4,1.8
			c0.4,0.5,0.8,1.4,0.8,1.4c0,0-0.1,0.3-0.5,0.1c-0.2,0-0.3-0.2-0.6-0.2c-0.3,0-0.7,0.3-1.2,0.5C74.9,215.8,70.7,214.4,67.2,210.7
			L67.2,210.7z M77.3,210.5c0.1,0-0.3-1.7-0.8-2.2c-0.9-1-2.3-1.2-3.2-0.2c-0.5,0.6-1,2.1-1,2.1s0.7,0.2,0.9,0.2
			c0-0.4,0-1.3,0.8-1.9c0.4-0.3,1.1-0.3,1.4,0c0.6,0.3,0.9,1.5,0.9,1.9C76.7,210.6,77.5,210.5,77.3,210.5L77.3,210.5z M71.7,208.1
			c-0.6,0.3-1.5,0.5-1.7,0.9c-0.3,0.6,0.6,0.7,1.1,0.9c0.6,0.3,0.7,0.2,0.9-0.3c0.1-0.3,0.3-0.7,0.5-1.1
			C73,207.6,72.5,207.7,71.7,208.1z M78.8,209.7c0.4-0.4,0.4-0.6,0.1-1c-0.2-0.2-0.6-0.4-1-0.5c-0.6-0.2-0.9-0.4-0.5,0.4l0.5,1.2
			C78.1,210.2,78.4,210.1,78.8,209.7z M17.3,170.2c0.2,0,2.5-0.7,3.3-1.1c0.8-0.3,0.9-0.3,0.6-0.7c-0.1-0.2-0.2-0.6-0.2-1.1l0.1-0.7
			c-1.4-0.3-3.5,0.5-4.2,1.5C16.4,168.6,16.4,170,17.3,170.2L17.3,170.2z M17,173.7c0.4,0.4,0.5,0.4,1.8,0c0.4-0.3,1.4-0.7,2-0.7
			c1.5-0.4,1.5-0.2,1.1-1.2c-0.2-0.4-0.3-0.8-0.2-1.2c0.1-0.5,0.1-0.6-0.1-0.6c-0.7-0.2-4.1,1-4.8,2C16.4,172.5,16.5,173.1,17,173.7
			z M96.4,207.1c0.1,0.8,0.1,2,0.1,2.6c0,1.3,0.5,1.6,1,0.9c0.5-1.7,0.8-4.3,2-5.6c1-0.3,2.1,0.2,2.8-0.4c1.6-1.5,0.3-3.2-1.1-3.3
			C98.4,201.2,96.2,204.7,96.4,207.1z M103.6,203c0.1,1.6-1.5,2.7-3.1,2.3c-0.7-0.2-0.9,0-1.3,0.9c-1,2.6-1.3,5.2-1.6,6.9
			c-0.1,1.5-0.7,5.5-0.3,6.8c4.7,5.7,9.6,11.7,15,17.6h32.1v-37.5l-9.2-8.7l0-13.9c-10,4.7-19.9,9.4-29.8,14.1
			c2.2,6.9-5.2,8.3-6.8,3.7c-1.4,1.3-2.5,8.1-2,8.5c0,0,0.2,0.2,0.5-0.3c0.5-0.9,1.2-1.6,1.9-2C101,200.2,103.4,200.8,103.6,203z
			 M78.1,202.3c-1.6-1.2-0.7-3.1,0.6-3.7c0.7-0.3,1.8-0.3,3,0.2c1.1,0.5,1.7,0.4,2.8,0.3c0.7-0.1,0.6,1.4-0.2,1.8
			c-0.5,0.3-1.8,0.1-3.3-0.7c-2.6-1.5-3.7,0.4-2.1,2.1C79.8,203.3,78.3,202.6,78.1,202.3L78.1,202.3z M24.9,179.7
			c1.4-0.9,0.8-2.4-0.5-2.7c-1.7,0-2.2,2-0.9,2.7c0,0.2-0.6,0-1-0.2c-0.5-0.4,0-1.9-0.5-1.9c-0.4,0-3.9,1.3-4.3,1.5
			c-1.6,0.9-0.1,3,0.8,2.7C20.4,181.2,23.1,180.8,24.9,179.7z M16.9,176.7c0,0.9,0.3,1.3,0.9,1.3c1.3-0.2,2.4-0.8,3.6-1.2
			c0.9-0.3,1.3-0.6,0.6-1.2c-0.2-0.2-0.4-0.6-0.3-1.2c0.2-0.8,0.1-0.8-0.3-0.8c-0.3,0-1.1,0.3-2.9,1c-1,0.4-1.2,0.5-1.4,1.1
			C16.9,176.1,16.8,176.3,16.9,176.7L16.9,176.7z M27.3,188.5c0.2-0.3,0.7-1.8,0.7-2.2c-0.1-0.7-0.6-0.8-1-0.4
			c-0.5,0.5-0.4,1.2-0.7,1.7c-0.1,0.2-0.2,0.5-0.2,0.6C26.3,188.7,27,188.8,27.3,188.5L27.3,188.5z M31.4,179.8
			c16-17,26-40.5,8.6-72.9c-1.1-1-2.6,2.3-2.7,2.5l-2.2,1.9c11.8,20.2,9.7,43.4-4.7,59.9l0,1c0,2.3,0.7,2.2,1.7,1.1
			c1-1.1,0.3-0.2-0.1,0.2c-0.4,0.4-0.9,1.1-1.1,1.3C31.1,176.3,32,178.9,31.4,179.8L31.4,179.8z M30.3,174.7
			c-0.2-0.5-0.3-1.5-0.4-2.3c-0.1-0.5-0.1-1-0.1-1.5c-0.2-1-0.6-3.4-0.9-3.9c-0.4-0.6-1.3-1-2.3-1c-0.9-0.1-0.9,0-1.1,0.2
			c-0.3,0.5-0.1,2.9,0.2,3.8c0.4,1,0.1,1.6-0.1,2.6c-0.1,0.4-0.1,0.4,0,0.4c0.8-0.1,1.1-1,1.4-0.7c0.1,0.1-0.2,0.9-0.5,1.7
			c-0.4,0.9-0.5,2,0,3.5c0.3,0.8,0.1,1.1,0,1.6c-0.1,0.3-0.3,1.3-0.3,2.3c0.4,1.2,0.2,1.8,0,2.2c-0.5,1.1-0.8,2.5-0.6,3.3
			c0.1,0.4,0.4,0.1,0.6-0.6c0.3-1.2,0.7-1.5,1.7-1.5c0.7,0,0.8,0.3,1-0.1c0.5-0.7,1.9-3.3,1.9-4C31.3,178.9,31.3,177.4,30.3,174.7
			L30.3,174.7z M38,186.8c0.4-0.2,1.1-1.1,1.1-1.4c0-0.3-2.7-2.9-3.8-3.7c-0.5-0.3-0.7-0.1-1.6,1.1c-0.8,1.1-0.9,1.1-0.8,1.3
			c0.2,0.2,2.9,2,3.8,2.5C37.1,186.8,37.6,186.9,38,186.8L38,186.8z M43.1,182.1c-0.4-0.3-3.6-3.9-4.6-4c-0.4-0.1-1.5,1.3-1.5,1.5
			c0,0.2,2,2.2,3.4,3.5c0.4,0.4,0.9,0.6,1,0.6C41.8,183.5,43,182.6,43.1,182.1z M46.5,178.8c0-0.2-0.4-0.6-1.2-1.5
			c-2.2-2.2-3.4-3.1-3.8-3.1c-0.4,0.1-1.2,1.4-1.2,1.9c0.1,0.3,3.8,3.6,4.3,3.9C45.1,180.5,46.4,179.2,46.5,178.8L46.5,178.8z
			 M49.9,175.3c0.1-0.3-0.1-0.6-0.6-1c-0.3-0.3-1.5-1.5-2.6-2.5c-2.3-2.3-2.3-2.3-3.1-1.2c-0.8,1.1-0.8,1.1,1.5,3.3
			c2.4,2.3,3,2.8,3.4,2.8C49.1,176.4,49.7,176,49.9,175.3z M24.1,173.3c-0.4-0.1-0.8-0.1-1.1,0.2c-1.7,1.4,0.7,3.3,1.7,2.1
			C25.3,175,25.3,173.6,24.1,173.3L24.1,173.3z M53.5,171.8c0-0.2-0.5-0.8-2.2-2.4c-4.3-4.1-4.1-3.9-4.6-3.6
			c-0.3,0.2-0.9,1.2-0.9,1.7c0,0.3,0.4,0.7,3.6,3.7c1.9,1.7,2.4,2.2,2.7,2.2C52.7,172.9,53.5,172.4,53.5,171.8L53.5,171.8z
			 M24.2,171.9c0.8-0.4,1-1.3,0.5-2c-0.9-0.8-2.2-0.1-2.2,0.9C22.6,171.8,23.5,172.2,24.2,171.9z M57,168.4c0-0.5-7.3-7.3-7.8-7.3
			c-0.4,0-0.6,0.3-0.9,1.1c-0.3,0.7-0.3,1.1,0.1,1.4c0.5,0.5,1.9,1.8,3.3,3c0.8,0.7,1.7,1.6,2,1.9c0.8,0.8,1.6,1.4,1.9,1.4
			C56,169.6,56.6,169.2,57,168.4L57,168.4z M23.8,167.5c0-0.3-0.1-0.6-0.3-0.8c-0.5-0.5-1.4-0.3-1.7,0.5
			C21.6,168.9,23.7,168.9,23.8,167.5z M29.2,114.6l1.4-4.3l4.4-0.1l0.6-4.3l4.5-0.6l0.1-4.5l4.3-0.6l-0.3-4.8l4-0.9L48,90l3.6-1.1
			L51.5,85l0.6-0.5L50.5,83l-1.4,0.4l0,4l-3.6,1.2l0.4,4.4l-3.7,0.8l0,4.8L38,99l-0.3,4.2l-4.1,0.8l-0.6,4.1l-4,0.3l-1.2,3.6l-2.6,0
			v2.4L29.2,114.6z M76.8,192.4c-0.1-0.3,0.2-0.3,0.8,0.1c0.7,0.4,1.6,0.8,2.3,0.8c0.3,0,1.3-0.2,2.2-0.4c1.1-0.4,2.1-0.4,3.3-0.2
			c0.9,0.1,1.8,0.2,2,0.2c0.6,0.1,1.6-0.6,1.8-1.1c0.7-1.2,0.6,1,0.6,1.3c0,1.1,0.2,2.5-0.7,1.8c-0.5-0.3-1.3-0.5-2,0
			c-0.7,0.5-1.2,0.5-2,0.1c-0.7-0.3-1-0.3-1.5,0.1c-0.5,0.5-1.9,0.3-2.6,0.1c-1.2-0.2-1.9-0.4-2.7,0.3c-0.4,0.2-0.5,0.1-0.9-0.9
			C77.1,193.6,76.8,192.5,76.8,192.4L76.8,192.4z M79.9,191.6c-0.1-0.1,0.6-0.8,1-1c1.3-0.7,3.9-0.6,5.7,0c1,0.4,1.1,1,0.2,0.8
			c-1.9-0.4-4.4-0.7-6.3,0.2C80.4,191.7,79.9,191.6,79.9,191.6L79.9,191.6z M81.5,188.5c-1.3-0.5-2-1-2-1.2c0-0.2,0.3-0.1,1.3,0.1
			c1.4,0.5,3.1,0.8,4.5,0.3c1-0.4,1.5-0.6,1.5-0.4c0,0.2-0.4,0.9-1.1,1.2C84.4,189.2,82.6,188.9,81.5,188.5z M110.5,184.9l1-0.1
			l-0.3-4.1l3.6-1.1l-0.3-4.1l3.9-1.3l-0.2-4.6l4-0.8l0.5-4l3.8-0.3l0.8-4.4l4.1-0.1l0.8-3.6l2.7,0l0-2l-4.2,0l-0.9,3.9l-4,0.1
			l-0.9,4.3l-4.2,0l-0.5,4.7l-3.9,0.6v5l-3.8,1l0.3,4.3l-3.8,1.4l0.4,4.1L110.5,184.9z M135.9,88.6c-0.5,0.4-0.7,1.1-0.6,1.8
			c0.5,1.4,2.4,1,2.6-0.1c0.1-0.4-0.2-1.1-0.7-1.3c-0.1,0-0.4,0-0.6-0.2c-0.1-0.1,0.6-0.5,1.1-0.4c0.6,0.2,1,0.9,1,1.5
			c0,0.2-0.1,0.6,0,0.7c0.9,0,2-0.5,2.9-0.8c1.7-0.5,2.3-1.4,1.9-2.5c-0.3-0.9-1.3-1.3-2.5-0.8C139.4,87.3,137.4,87.6,135.9,88.6
			L135.9,88.6z M65.3,189.3c5.6-3.9,8.9-6.1,16.1-6.5c-2.6-1-3-2.4-3.7-3.7c-8.9,0.8-13.6,3.7-17.9,6.3
			C61.5,186.2,63.4,187.1,65.3,189.3z M96.5,183.9c-2.7-1.9-5.9-3.1-9.3-4l-2.6,2.6C84.5,182.5,92.1,182.7,96.5,183.9L96.5,183.9z
			 M122.6,158.8c-17.5-26.8-5.8-50.3,6.4-65.3c0.4-0.5,0.5-0.5,0.4-0.9c-0.1-0.5-0.3-3.1-0.2-4.6c-22.5,22.2-23.1,51.1-9,74
			C121.3,161.1,123.3,159.9,122.6,158.8L122.6,158.8z M125.2,156.5c-2.9-4.8-18.2-30.5,5.2-59.3c0,0-0.1-1.5-0.3-2
			c-0.3-1-0.8-1.4-0.8-1.4c-9.8,14.7-24.1,33-6.3,64.8L125.2,156.5z M111.8,108c0.3-0.3,0.9-1.3,0.9-1.7c0-0.4-0.3-0.7-2.9-3.4
			c-3.5-3.5-4.1-4.1-4.6-4.1c-0.4,0-1.5,1-1.5,1.4c0,0.2,1,1.3,3.5,3.7C111.7,108.5,111.4,108.3,111.8,108L111.8,108z M115.1,101.5
			c0-0.2-0.3-0.6-1.1-1.4c-2-2.1-4.9-4.7-5.2-4.7c-0.3,0-1.2,0.7-1.4,1.2c-0.2,0.3-0.2,0.4,0,0.7c0.4,0.6,4.9,4.8,6.2,5.9
			C114.3,103.8,115,102,115.1,101.5L115.1,101.5z M116.8,98.8c0.4-0.2,1-1.5,1-1.8c0-0.2-1.2-1.4-2.6-2.7c-2.7-2.7-2.9-2.8-3.5-2.2
			c-0.6,0.5-1,1.1-0.9,1.3c0.1,0.3,4.1,4.4,5,5C116.4,99,116.5,99,116.8,98.8z M137.5,98.6c1.3-1.2-0.2-2.5-1.2-1.9
			c-0.4,0.3-0.7,0.9-0.6,1.3C135.9,98.6,136.8,99,137.5,98.6z M140,98.3c2.2-0.6,3.2-0.9,3.6-1.6c0.3-0.5,0.3-0.7,0-1.5
			c-0.3-0.7-0.7-0.9-2.1-0.2c-0.9,0.5-3,0.7-3.7,1.2c-0.3,0.2-0.1,0.2,0.1,0.4c0.5,0.3,0.8,0.6,0.7,1
			C138.5,98.5,138.6,98.7,140,98.3L140,98.3z M137.7,94.9c1-0.5,0.8-1.8-0.3-2.3c-1.5-0.4-2.5,1.4-1.3,2.3
			C136.4,95.2,137.3,95.2,137.7,94.9z M141.2,94.4c1.5-0.5,2.1-0.9,2.5-1.7c0.3-0.7,0.2-1,0.2-1.6c-0.1-1-0.6-0.9-2-0.3
			c-0.7,0.3-4,1.2-4,1.5c1.6,0.9,1.2,1.4,1.2,2.5C139.2,95.1,139.9,94.9,141.2,94.4L141.2,94.4z M120.6,92.9c0-0.4-4.2-4.5-4.7-4.5
			c-0.7,0-1.7,1.1-1.5,1.7c0.1,0.3,4,4.2,4.5,4.5C119.6,94.9,120.5,93.5,120.6,92.9z M123,90.3c0.2-0.1,0.5-0.5,0.7-0.8
			c0.5-0.7,0.4-1-0.1-1.4c-0.2-0.1-1.1-0.9-2-1.8c-0.9-0.8-1.7-1.6-1.9-1.6c-0.7-0.1-2,1.1-1.9,1.7c0.1,0.3,3.3,3.5,4,4
			C122.4,90.7,122.6,90.7,123,90.3z M128.7,84.2c0-0.1-0.7-0.6-1.9-1.2c-3.6-1.9-3.7-2-4.8-1c-0.4,0.3-0.7,0.7-0.7,0.8
			c0,0.1,0.8,1,1.8,1.9c2.1,1.9,2.6,2.4,2.9,2.4C126.6,86.5,128.6,84.7,128.7,84.2z M133.8,82.4c0.4-0.5,0.9-2.4,0.7-2.7
			c-0.2-0.2-0.8-0.2-1,0.1c-0.3,0.2-1,2.6-0.9,2.8C132.7,82.8,133.4,82.7,133.8,82.4L133.8,82.4z M94.5,160.3c0.3,0,1-0.5,2-1.3
			c1-0.9,4.3-2.9,4.7-3.6c0.2-0.5,0-1.1-0.3-1.1c-0.3,0-0.3,0.2-2.5,1.7c-1.5,1.1-4.1,2.9-4.4,3.3C93.7,159.8,94.1,160.3,94.5,160.3
			z M94.2,172.9c2.2-1.5,4.1-3.2,7-4.9c0.2-0.3,0.3-0.7,0.1-1.1c-0.2-0.4-0.4-0.3-1.3,0.3c-2.2,1.4-4.4,3.1-6.2,4.4
			c-0.6,0.4-1.1,0.6-1,0.8C92.9,172.8,93.9,172.9,94.2,172.9z M96.3,173.9c1.5-1.2,3.2-2.3,4.8-3.5c0.2-0.2,0.3-1,0.1-1.3
			c-0.2-0.2,0-0.2-0.5,0.1c-0.6,0.4-4.5,3-5.2,3.5c-0.4,0.3-0.8,0.5-0.7,0.6C95.4,173.7,95.9,173.8,96.3,173.9L96.3,173.9z
			 M98.2,174.8c0.3-0.2,2.9-1.9,3.1-2.1c0.2-0.3,0.2-1.4-0.1-1.5c-0.7,0.5-4.2,2.6-4.2,3C97.5,174.6,97.9,174.9,98.2,174.8
			L98.2,174.8z M101,175.1c0.4-0.4,0.5-0.4,0.5-0.8c0-0.7-0.2-0.7-1.2,0c-0.7,0.5-1.2,0.8-1.1,1.1C99.7,176.2,100.5,175.5,101,175.1
			L101,175.1z M101.3,176.6c0.2-0.1,0.2-0.2,0.2-0.4c0-0.3-0.1-0.3-0.4-0.3C100.2,175.9,101,176.7,101.3,176.6z M91.1,172.4
			c0.4-1.3,0.9-2.3,1.8-3.2c3.5-3.1,2.5-6.9,0.2-10.1c2.9-4,5.8-8.3,8.3-12.2l0-6.3l0.3,0c-0.1,13.8,0.5,36.5,0.5,36.5l2.9,2.2
			l-0.4,0.2C105.1,179.5,96.3,174,91.1,172.4L91.1,172.4z M93.7,170.8c2.4-1.8,4.8-3.3,7.2-5.2c0.3-0.2,0.4-0.2,0.4-0.7
			c0-0.9-0.2-0.9-1.1-0.3c-0.4,0.3-1.9,1.3-3.3,2.2c-1.5,1-2.8,1.8-3.1,2.2c-1.4,1.6-1.9,2.3-1.7,2.5
			C92.3,171.8,92.6,171.5,93.7,170.8L93.7,170.8z M96.3,166.4c1.3-0.8,4.3-2.9,4.5-3.2c0.5-0.4,0.6-1.2,0.1-1.2
			c-0.2,0-2.5,1.5-4.5,3c-1,0.7-1.2,0.9-1.2,1.6C95.3,167,95.6,166.9,96.3,166.4z M97.6,163.2c3.9-2.7,3.8-2.5,3.7-3.5
			c0-0.3-0.1-0.5-0.3-0.5c-0.1,0-0.8,0.5-1.6,1c-0.8,0.5-1.7,1.3-2.1,1.6c-1.3,0.9-1.8,1.2-1.8,1.7c0,0.5,0.1,0.9,0.4,0.9
			C96,164.3,96.7,163.8,97.6,163.2z M97,161.1c1.8-1.2,3.7-2.6,4-3c0.3-0.4,0.3-1.3-0.1-1.3c-1.8,1.2-3.9,2.7-5.4,4
			c-0.2,0.2-0.4,0.3-0.5,0.6c0,0.3,0.3,0.7,0.5,0.7C95.7,162,96.2,161.7,97,161.1L97,161.1z M95.9,156.8c1.4-0.9,2.6-2,3.9-2.9
			c1-0.7,1.3-0.9,1.2-1.8c0-0.5-0.5-0.2-2.2,0.9c-1.3,0.8-1.8,1.2-2.3,1.7c-0.3,0.7-1.3,1.4-1.4,2.2
			C95.2,157.3,95.4,157.2,95.9,156.8L95.9,156.8z M100,151.4c1-0.7,1.1-0.7,1-1.6c-0.1-1.1-0.3-1.1-1.3,0.4c-0.7,1-0.9,1.3-0.8,1.5
			C99.2,152,99.4,151.8,100,151.4z M96.2,143c-0.1-0.5-0.3-0.4-0.8,0.1c-1,0.8-1.1,1.4-0.5,1.8c0.3,0.2,0.6,0.1,0.8-0.3
			C96.1,143.7,96.2,143.3,96.2,143z M90.8,150.9c-0.1-0.5-0.7-1.1-1.1-1.3c-0.4-0.2-0.7-0.2-1.1,0.3c-0.4,0.5-0.2,0.8,0.4,1.5
			c0.4,0.5,0.6,0.7,0.9,0.7C90.3,152,90.9,151.4,90.8,150.9L90.8,150.9z M70,170.9c-0.3-0.5-0.9-1.1-1.1-1c-0.3,0.1-0.6,0.5-0.6,0.8
			c0.1,0.5,0.6,0.9,0.9,0.9C69.8,171.5,70.2,171.3,70,170.9z M72.5,170.1c-0.6-0.6-1.6-1.8-1.8-1.8c-0.3,0-0.9,0.7-0.9,1
			c0,0.3,1,1.7,1.3,1.8C71.9,171,73.4,171.1,72.5,170.1z M75.6,170.3c-0.1-0.3-3.2-3.5-3.4-3.5c-0.3,0-0.9,0.6-0.9,0.9
			c0,0.2,1,1.5,1.9,2.5c0.5,0.5,0.5,0.5,1.1,0.5C75,170.5,75.8,170.6,75.6,170.3L75.6,170.3z M81.1,169.5c0-0.7-0.3-1-1.7-2.5
			c-0.5-0.5-1.4-1.5-1.9-2.1c-1-1.2-1.5-1.5-1.9-1.6c-0.3,0-0.8,0.5-0.8,0.9c0,0.2,2.6,3.1,4.9,5.6c0.5,0.6,0.7,0.7,1.2,0.5
			C81.2,170.1,81.1,169.8,81.1,169.5L81.1,169.5z M77.1,161.7c-0.5,0.4-0.7,0.6-0.7,0.9c0,0.4,4.4,5.3,4.8,5.3c0.2,0,0.2,0,0.3-0.6
			c0.3-1.6-0.2-2-1.3-3.1C79.5,163.5,77.9,161.1,77.1,161.7L77.1,161.7z M84.9,158.4c-1.2-1.5-1.9-2.2-2.2-2.2
			c-0.2,0-0.4,0.2-0.7,0.5c-0.5,0.4-0.4,0.4-0.1,0.9c0.2,0.3,0.6,0.8,0.9,1.2c0.7,0.7,1,0.9,1.4,0.6
			C84.5,159.2,85.2,158.8,84.9,158.4z M84.3,154.7c-0.3,0-0.8,0.5-0.8,0.8c0,0.2,1,1.5,1.7,2.1c0.6,0.5,0.8,0.6,1.2,0.3
			c0.3-0.4,0.2-0.8,0-1.1C85.9,156.3,84.8,154.8,84.3,154.7L84.3,154.7z M87.8,155.1c0-0.4-1.3-2.1-1.7-2.2c-0.3,0-1,0.8-1,1.1
			c0,0.2,0.3,0.6,0.7,1.1c0.9,1,1.1,1.3,1.3,1.1C87.4,156,87.8,155.5,87.8,155.1z M89.2,153.3c0.1-0.4-0.1-0.7-0.6-1.4
			c-0.6-0.8-0.9-0.8-1.5-0.2c-0.2,0.2-0.3,0.4-0.3,0.5c0,0.3,1.3,2,1.6,2C88.8,154.1,89,153.7,89.2,153.3L89.2,153.3z M86.9,157.4
			c-0.1,0.5-0.3,0.9-0.9,1.1c-4.1,2.9-3.9,7.6-4.8,12c-6.6-0.1-17,2.6-16.9,2.8l34.9-35c0,0,0.4,0.1,0.2,0.4c-2.8,2-2.6,5.9-4.5,7.9
			C91.8,150.4,88.9,153.6,86.9,157.4L86.9,157.4z M67.9,171.7c0.1-0.4-0.3-0.5-0.6-0.2c-0.3,0.3-0.2,0.6,0.3,0.5
			C67.8,172,67.9,171.9,67.9,171.7z M78.7,170.2c0.1-0.3-0.2-0.6-2-2.7c-1.9-2.1-2.3-2.6-2.7-2.6c-0.3,0-1,0.7-1,1
			c0,0.1,0.3,0.6,0.7,0.9c0.4,0.4,1.1,1.2,1.5,1.7c0.8,0.9,1.2,1.4,1.5,1.6c0.3,0.2,0.5,0.2,1,0.2C78.5,170.4,78.6,170.4,78.7,170.2
			z M81.9,163.7c0.1-0.4,0.3-0.8,0.3-0.9c0-0.3-2.4-2.7-2.8-3c-0.5-0.3-1.4,0.7-1.2,1.3c0.1,0.2,0.8,1,1.6,1.8
			c1,1.1,1.5,1.6,1.7,1.6C81.7,164.5,81.7,164.2,81.9,163.7z M82.9,161.1c0.2-0.3,0.3-0.6,0.3-0.8c0-0.2-0.4-0.7-1-1.3
			c-1.1-1.2-1.3-1.3-1.9-0.8c-0.6,0.6-0.4,0.8,0.6,2C82.2,161.7,82.4,161.9,82.9,161.1L82.9,161.1z M92,149.8c0.4-0.5,0.4-0.7,0-1.1
			c-0.2-0.2-0.4-0.4-0.5-0.6c-0.3-0.4-0.8-0.3-1.2,0.2c-0.2,0.2-0.4,0.5-0.4,0.6c0,0.1,0.2,0.4,0.5,0.7
			C91.2,150.3,91.5,150.3,92,149.8L92,149.8z M93.4,148c0.3-0.4,0.1-0.9-0.4-1.3c-0.5-0.4-0.7-0.5-1.1-0.1c-0.4,0.5-0.4,0.7,0.1,1.2
			C92.7,148.4,93.1,148.4,93.4,148z M94.6,146.5c0.4-0.4,0.4-0.7,0-1.1c-0.3-0.4-0.6-0.5-1-0.3c-0.6,0.3-0.5,0.8,0.1,1.4
			C94,146.8,94.2,146.8,94.6,146.5z M67.8,221.1c7.2,0.8,14.8,1.4,28.4-0.7l0.1-4.6c-4.2,3.3-9.8,1-10.1-2.7c0-3.4,0.9-7.2,1.6-10
			c0.6-2.1,0.7-2.8,0.2-3.2c-1.2-0.7-3.2-0.7-3.8-2.1c-0.3-0.7-0.3-1.5,0.1-0.9c0.2,0.3,1.5,0.9,2.6,1.1c1.8,0.4,2.1,0.5,2.3,1.3
			c0.1,0.5-0.2,2.1-0.7,3.6c-0.3,1.1-0.7,2.7-0.7,3.1c0,0.4,0.3,0.4,0.6,0.3c0.1,0,0.8-0.7,1.2-1c1.8-1.6,2.3-1.5,0.8,0
			c-0.6,0.6-1.4,1.4-1.4,1.5c0,0.3,0.3,0.3,1,0c1-0.4,3.5-0.3,4.6,0.2c1.4,0.7,1.4,0.6,1.4-1.4c-0.2-3.8-0.9-8.3-2.1-11.9
			c-1.9-5.4-5.9-10.4-11.7-10.2c-7.1,0.4-11.5,3.2-16.3,6.6c2.9,6.5-1.3,11.4-2.8,12.1c-0.1,0.1,1.9,6.6,2.8,9.9
			C66.5,215.1,67.8,221.1,67.8,221.1L67.8,221.1z M98.3,65c-0.2-0.4-4.1-13.3-5.3-18.7c-10.7-0.6-18.7-1.5-28.2,1.2
			c0,0-0.2,3.6-0.1,3.8c0.1,0.4,0.4,0.4,0.7,0.3c4.4-2.4,9.1-1.3,9.4,4.6c0.1,2.2-0.6,3.8-0.8,6c-0.1,1.9-1.6,4.3-0.7,5.8
			c0.1,0.2,0.7,0.5,1.6,0.9c1.6,0.7,2.2,1.3,2.4,2.4c0.2,0.7-0.3,1.2-0.4,0.5c-0.1-0.5-0.2-0.9-2.1-1.6c-1.9-0.7-2.5-1.4-2.6-1.8
			c-0.3-0.6-0.2-0.9,0-1.8c0.5-1.9,1-3.8,1-4.7c0-0.3-0.4-0.2-0.8,0.2c-0.6,0.5-3.1,2.1-3.2,2.1c0,0,0.4-0.7,1.1-1.4
			c0.9-0.8,1.9-1.8,1.9-2c0-0.3-0.1-0.1-1,0.1c-1.4,0.4-3.1,0.3-4.2-0.2c-0.9-0.4-1.6-0.7-1.8-0.4c-0.4,5.7,0.5,11.6,2.9,16.3
			c2.2,4.2,6.7,9.4,13.5,8.3c7-1.2,13.8-6.8,13.6-6.8C92.6,72,95.6,67.6,98.3,65L98.3,65z M42.8,221.5c-3.1-3.1-10.9-6.4-16.3-8
			c-0.4-0.1-0.9-0.3-0.9,0.2l-0.1,10.6l-9.7,8.9v4.3h20.6L50,217.8c0,0,0.7-0.1,0.7-0.2c-2.5-10.5-6.2-18.8-8.6-23
			c0,0.1-3.4,2.8-6.5-0.6c-1.7-1.9-0.7-5.2,1-6.5c-1.4-1-4.2-2.8-6-3.3c-0.4-0.1-1,0.7-1.1,1.4c-0.3,1.1-0.9,2.2-1.3,3.3
			c-0.4,1-0.8,1.1-1.4,0.8c-1-0.3-1.2-0.4-1.2-0.4l0,12.5C32.9,204.3,40.6,210.9,42.8,221.5L42.8,221.5z M73.6,88.4l2.2-2.4
			c-3.5-0.4-7.1-1-11.4-2.4C67.4,85.8,70.5,87.2,73.6,88.4z M61.5,81.7c3.9,1.3,8.8,4.3,14.9,3.2c-5.6-2.2-9.8-7.3-11.6-17.8
			c-0.4,2-1.2,6.3-2.5,6.7c-1.8-6.9-9.1-2.9-6.2,2.8c-7.4,5-16.2,7.9-24.2,11.7c0,0-1.2,3.7-7.2,8.7c-1.1-5.9,0.2-14.7-0.5-20.6
			l-9.4-8.8c0.1,1.7,0.1,2.7,0,4.7c0.3,0.3,0.6,0.5,1,0.7c0.6,34.1-0.2,67.8-0.2,98.7c-0.1,19,0.4,38.7,0.1,56.6l-0.4,0.6l0,4.3
			l9.6-9.1c0,0-0.4-6.5,0.1-11.4c6.1,1.2,11.7,4.1,16.8,7.2c0.6,0.2-3.1-12.4-16.8-18c0,0,0-3.9,0-12.5c0-8.2-0.1-9.1-0.3-9.2
			c-0.6,0.6-7.5,2.9-7.9,2.5c0.2,0.1-2-14.6-0.1-16.8l6.7,0.1c1.9,1.5,1.1-0.3,2.3-0.6c0.7-0.2,3.8,1,3.8,1
			c12.7-14.9,11.5-39.5,2.3-53.4c-2.3,1.9-4.8,4.5-7.2,5.6c0-0.1,0-7.6,0-7.6c12.2-7.8,25.4-30.3,24.6-30.3c0,0,3.8,3.6,5.2,5.7
			l-12,17.3c2.8,5.5,5.5,10.5,7.3,15.3c0.2,0.7,1,0.6,1.2,1.3c0.2,0.6-0.6,1.4-0.5,2.1c2.5,9.6,3.1,19.9,0.6,29.1
			c-0.5,2.1,0.4,3.8,1.7,5.3c0.1,0.1-1.2-1.1-1.3-1.2c-0.4-0.3-1.2,0.7-1.4,1.9c0.1,0.7,0.5,0.9,1,1.4c0.9,0.8,4.6,4.4,6.2,6
			c1.4,1.5,1.8,1.5,2.8,0.5c0.3-0.3,0.6-0.6,0.8-0.8c0,0.1,0.4-0.3,0.5-0.4l21.7-21.1c2.5-2.4-21.7,22.1-21.7,22.1
			s-11.7,11.4-14.6,14.3c-3,2.9-3.4,3.6-3.5,3.8c-0.2,0.4,1,0.4,1.5,0.3c0,0-0.4,0.1-0.9,0.1c-3.1-0.4-4.1,2.7-6,3.4
			c-5.1,3.6-1.7,9.4,3.2,7.5l1.2-0.6c3,5.4,7.2,15.4,9.2,24l-0.8,0.4l-12.8,19.1h72.8c-5.2-5.2-9.7-11.5-14.2-16.3
			c-7.3,2.2-29.2,1.7-28.9,0.8c0,0-3.3-13.4-5.2-19.9c6-5.1,5.4-13.1-3.3-16.7c6.3-4.9,12.7-6.6,18.8-7c2,5.1,6.7,5.4,9,0.7
			c0-0.1,8.4,2.6,11.5,5.4c-4.6-0.5-9.1-1.4-13.6-1.6c4,1.6,8.1,5.7,9.4,10.4c0.6,1.7,1.6,7.2,1.9,7.3c0,0,1.5-6.4,2.7-6.1
			c3,6.3,8.2,1.5,6-3.4c7.7-3.6,16.3-7.7,23.4-11.1c2.1-3.1,7.1-9,7.5-9c0,0,9.3-53.1,9.3-70.8c-0.3-21.3,0.4-45.1-0.6-65v-5.7
			h-19.6l-14.1,20.5c0,0-0.1,0.3-0.1,0.5c1.9,8.3,4.4,15.3,8.2,23c5.3-4,9.8,2.6,5.8,6.4c-0.8,0.7-0.6,0.9,0.2,1.4
			c0.7,0.5,5.8,3,6,3c0.9-1.4,1.2-3.3,1.8-4.9c0.2-0.6,0.6-0.7,1.5-0.5c1.1,0.1,1.1,0.6,1.1-6.6l0-6.2c-6.8-3.1-15.9-11.1-16.3-19.4
			c4,2.9,13,7,15.5,7.4c1.1,0.3,0.9-1.5,0.9-2.3c0.3,0.2,0.4,3,0.4,3c-4-1.2-6.1-1-16.1-6.7c1.7,8.1,9.9,14.6,15.9,17.5
			c0,0,0.2,3.9,0.2,8.2c0,13.2,0.1,13.8,0.1,13.8c0,0,3.3-0.8,4.2-1.3c1.6-1.3,4.2-0.3,4.6,0.7c0.5,5,0,9.6-0.1,14.4
			c-2.8,0.2-4.3,0.8-5.7,0.8c-0.9-0.1-1.4-0.1-1.9-0.6c-1.3-2.8-1.2-1-1.4,1.1c-0.1,0.6-3.4-0.5-3.8-0.7
			c-14.3,16.4-13.1,35.2-3.4,52.7c1.6-1.1,4.4-3.1,7.1-4.5c0.1,2.2,0.1,6.8,0.1,6.8c-11.2,8.2-24.6,29.8-24.2,29.9l-4.5-5.4
			c0,0,2.9-4.5,3.9-5.7c0.1-0.1,0.2-1.5,0.2-1.5l7-10c-3-6.7-7-11.8-8.1-18.3c-4.6-20.8,0.4-31.2,0-32c0,0-0.1-0.4-0.2-0.5
			c-0.2-0.1,0-0.2,0.2-0.5c0.3-0.6,0.9-1.8,0.7-2.1c-0.1-0.3-3.9-4-7.1-7.1c-1.7-1.6-1.6-1.8-2.5-0.9c-0.3,0.3-1.1,1.3-1.1,1.3
			c-11.7,10.7-20.9,20.5-32.6,31.9l-0.6-0.5c17-16.8,34.2-33.4,51-50.4l-3,0.1c0.1-0.2,0.2-0.4,0.4-0.5c1.6,0,3.2-0.5,4.4-1.1
			c2.4-1.8,5.9-4.1,6.1-6.5c-0.2-4.5-4-5.2-6.8-3c-3.8-6.8-6.9-15.1-8.5-22.8c-0.1-0.4-0.6-1-0.7-1.5c0.8-2.6,13.8-20.2,13.8-20.2
			H50.3L64.2,46c0-0.7,19.8-3,28.9-0.2l5.5,19.5c-5,4.8-6.5,12.8,2.7,16.9c0.2,0.4-0.9,1-0.9,1c0.1-0.2,0.4-0.5,0.3-0.7
			c-2.5-1.1-5.2-3.8-5.2-3.8c-5.6,4.3-10.8,6.7-15.9,6.9c0,0,2.7,1.8,3.2,3.8c0,0-0.2,0-0.3-0.1c-0.6-0.7-1.8-2.8-2.9-3.5
			c-1.8-0.4-2.9-0.1-4.3,0.9l-1.9,1.9C69.2,87.2,64.2,85,61.5,81.7L61.5,81.7z M60.8,129.5l2-2c0.2-1.5,0.6-3.4,2.3-5.4
			c1.9-2.3,4-4.4,5.6-6.4c1.9-2.4,2.9-4.6,2.4-5.6c2.8-0.5,5.3-2.9,5.4-7.3c0-2.3,1.2-5.7,1.2-5.6c0,0,19.3-0.7,32.6-13.3
			c0,0,0.9,0.2,0.7,0.4c-5,5-10.4,8.7-16.7,11.1L61.4,130L60.8,129.5z M64.6,125.5c0.5-0.5,0.6-0.7,0.3-0.9
			c-0.5-0.4-1.3,0.4-1.3,1.2C63.7,126.3,64,126.1,64.6,125.5L64.6,125.5z M66.4,123.8c0.4-0.4,0.4-0.7,0.1-1
			c-0.5-0.5-1.2-0.2-1.4,0.6C64.9,124.1,65.8,124.4,66.4,123.8L66.4,123.8z M68,122.2c0.2-0.2,0.4-0.5,0.4-0.6c0-0.3-0.7-0.9-1-0.9
			c-0.4,0-1,0.6-1,1c0,0.3,0.7,0.9,1,0.9C67.5,122.6,67.8,122.4,68,122.2z M69.5,119.2c-0.5-0.4-0.8-0.4-1.2,0
			c-0.5,0.5-0.4,1,0.1,1.4c0.4,0.4,0.6,0.4,1.1,0C70.1,120.2,70.2,119.7,69.5,119.2z M71.3,118.9c0.5-0.4,0.4-0.8-0.1-1.3
			c-0.6-0.6-1-0.6-1.5,0c-0.2,0.2-0.2,0.5-0.2,0.5c0,0.2,1,1.1,1.2,1.1C70.9,119.2,71.1,119.1,71.3,118.9z M73,117.3
			c0.4-0.5,0.4-0.8-0.2-1.4c-0.5-0.5-0.9-0.6-1.4-0.2c-0.5,0.4-0.4,0.9,0.2,1.4C72.1,117.7,72.5,117.8,73,117.3z M74.9,115.3
			c0.3-0.3,0.2-0.3,0-0.7c-0.4-0.6-1.4-1.5-1.7-1.5c-0.4,0-0.7,0.6-0.7,1.2c0,0.6,0.3,0.8,1,1.4c0.5,0.4,0.3,0.4,0.7,0.2
			C74.5,115.8,74.8,115.5,74.9,115.3L74.9,115.3z M76.4,113.9c0.7-0.8,0.6-0.9-1.1-2.7c-0.6-0.6-0.7-0.7-1.1-0.6
			c-0.4,0-0.4,0.1-0.6,0.5c-0.4,0.7-0.1,1.1,0.9,2.2C75.7,114.5,75.8,114.6,76.4,113.9z M78.1,112.1c0.3-0.2,0.4-0.5,0.4-0.7
			c0-0.3-1.3-1.8-1.8-2.1c-0.3-0.2-0.7-0.1-1.1,0.3c-0.3,0.2-0.3,0.3-0.2,0.5c0.1,0.4,1.8,2.2,2.1,2.2
			C77.7,112.4,77.9,112.3,78.1,112.1z M79.8,110.5c0.3-0.3,0.5-0.6,0.5-0.8c0-0.3-1.4-2-1.9-2.2c-0.4-0.2-0.6-0.1-1,0.4
			c-0.4,0.6-0.3,0.9,0.6,1.9c0.8,0.9,1.1,1.2,1.2,1.2C79.3,111,79.5,110.8,79.8,110.5z M81.4,108.8c0.4-0.2,0.8-0.7,0.6-1.1
			c-0.2-0.4-2.7-3.1-3-3.2c-0.5-0.3-0.5,0.1-0.5,1.4v0.7l1.2,1.1C81.4,109.5,81,109,81.4,108.8L81.4,108.8z M83.5,106.9
			c0.2-0.2,0.4-0.5,0.4-0.7c-1.1-1.3-4.1-5.3-4.7-5.2c-0.1,0-0.1,0-0.1,0.1c-0.1,0.4-0.2,1.2-0.1,1.9c1,0.9,3.2,3.9,3.8,4.1
			C83,107.4,83.2,107.2,83.5,106.9L83.5,106.9z M85.1,105.2c0.2-0.2,0.4-0.4,0.4-0.6c0-0.1-0.3-0.5-0.7-1c-0.4-0.4-1.1-1.3-1.6-1.9
			c-2.9-3.6-3.1-3.8-3.5-3.5c-0.3,0.2-0.4,1.1-0.2,1.4c0.3,0.5,3.4,4.3,4.4,5.3C84.5,105.6,84.6,105.7,85.1,105.2z M86.8,103.6
			c0.2-0.2,0.4-0.5,0.4-0.7c0-0.1-0.5-0.7-1-1.3c-0.5-0.6-1.3-1.5-1.8-2.2c-1.3-1.6-1.3-1.6-2.3-1.7c-1.5-0.1-1.3,0.2,0.4,2.1
			c0.4,0.5,1.2,1.4,1.7,2c1.2,1.5,1.8,2.1,2,2.1C86.4,104,86.5,103.9,86.8,103.6L86.8,103.6z M88.5,102c0.7-0.6,0.6-0.8-1.8-3.3
			c-0.8-0.8-0.9-1-1.5-1c-0.6,0-0.8,0.1-0.8,0.4c0,0.2,3.2,3.9,3.4,4C88,102.3,88.1,102.3,88.5,102L88.5,102z M90.2,100.2
			c0.2-0.2,0.4-0.5,0.4-0.6c0-0.3-0.7-1.1-1.3-1.7c-0.3-0.3-0.7-0.5-0.9-0.5c-0.4,0-1.1,0.2-1.2,0.4C87,97.9,88,99,88.9,100
			C89.5,100.6,89.7,100.7,90.2,100.2L90.2,100.2z M91.8,98.6c0.4-0.4,0.4-0.7,0-1.3c-0.3-0.4-0.4-0.4-1-0.4c-1.1,0-1.2,0.3-0.3,1.2
			C91.2,98.9,91.4,99.1,91.8,98.6z M93.5,97c0.4-0.6,0.1-0.9-0.7-0.5c-0.2,0.1-0.3,0.3-0.3,0.4C92.3,97.4,93.1,97.5,93.5,97z
			 M65.6,101.7c-1.6,1-4.3,2.9-6.2,4.2c0,0.3-0.1,1,0,1.5c1-0.7,4.4-2.8,5.9-4C65.4,103,65.5,102.2,65.6,101.7L65.6,101.7z
			 M68.5,97.1c-0.1-0.3-0.2-0.1-0.7,0.3c-0.6,0.5-5.9,4.4-7.3,5.4c-0.5,0.4-1,0.7-1.1,0.8c-0.1,0.1-0.1,1.2,0.1,1.5
			c1.1-0.9,6.6-4.5,6.7-4.6C66.7,99.5,68,98,68.5,97.1L68.5,97.1z M67.9,108.8c0,0-6.5,7.8-8.6,11.6c0,0,0,4.4-0.1,7l-0.4,0.1
			c0,0,0-6.8-0.1-14.3c-0.2-18.5-0.4-23-0.4-23l-2.1-1.5L56.2,88c0,0,9.4,6.5,13.9,7.6C66.8,100.8,63.7,102.8,67.9,108.8L67.9,108.8
			z M60.2,118.1c0.1-0.3,0-0.3-0.2-0.3c-0.2,0-0.3,0.2-0.3,0.4c0,0.2,0,0.3,0.2,0.2C60,118.4,60.1,118.3,60.2,118.1z M61.8,115.8
			c0.9-1.1,1.7-1.9,1.8-2.7c-0.6,0.1-4.1,2.5-4.1,2.8c0,1.3-0.3,1.4,0.8,0.9C60.8,116.5,61.2,116.2,61.8,115.8L61.8,115.8z
			 M62.1,113c1-0.8,4.7-2.8,5.1-3.8c0.2-0.4-0.4-0.9-0.4-0.8c0.1,0.1-5.3,3.2-7.2,4.9c-0.2,0.2-0.1,0.6,0,0.9
			C59.7,114.7,60.2,114.3,62.1,113L62.1,113z M60.9,111.5c1.1-0.7,3.7-2.5,4.3-2.9c1.1-0.8,1.3-1,0.9-1.6c-0.2-0.2-0.4-0.4-0.7-0.2
			c-3.2,2.2-3.4,2.6-5.8,4.1c-0.2,0.4-0.1,1.1,0.1,1.3C59.8,112.2,60.1,111.9,60.9,111.5L60.9,111.5z M60.8,109.1
			c2.9-2.1,4.4-3.1,4.5-3.4c0.1-0.3,0.1-1.2,0-1.3c-1.1,0.8-3.9,2.6-5.9,4.1c-0.1,0.3-0.1,1.1,0,1.2C59.9,109.9,60,109.7,60.8,109.1
			L60.8,109.1z M60.5,101.6c2.1-1.5,4-2.9,6.2-4.3c1.9-1.2,2.2-1.5,1.5-1.9c-0.2-0.1-0.7-0.3-1.1-0.2c-2.5,2-5.2,3.9-7.8,5.8
			c-0.1,0.3,0,0.8,0,1.1C59.3,102.4,59.8,102.1,60.5,101.6L60.5,101.6z M60.2,99.4c0.2-0.2,1.3-0.9,2.4-1.7c3.1-2.3,3.5-2.5,3.5-2.7
			c0-0.7-0.9-0.8-1.7-0.1c-1.5,1.2-5.1,3.5-5.1,3.8c0,0.5-0.1,0.9,0,1.1C59.5,100,59.8,99.8,60.2,99.4L60.2,99.4z M61.1,96.3
			c3.2-2.2,3.1-2.1,3.1-2.5c0-0.3-0.3-0.2-0.8-0.2c-0.5,0-0.5,0.1-1.3,0.8c-1.9,1.4-2.5,1.8-2.7,2.2c-0.1,0.1-0.1,0.6,0,0.8
			C59.5,97.5,59.8,97.2,61.1,96.3z M61.3,94.1c0.6-0.5,1.1-0.9,1.2-1c0.1-0.2-0.4-0.7-0.7-0.7c-0.4,0-0.7,0.2-1.6,1
			c-0.8,0.7-1,0.6-0.9,1c0,0.2,0,0.8,0.1,0.9C59.5,95.5,59.9,95.3,61.3,94.1z M60,92.7c0.7-0.6,0.8-0.7,0.3-1.2
			c-0.4-0.4-1-0.6-1.2-0.3c-0.2,0.2,0,1.4,0,1.6C59.1,93.2,59.6,93.1,60,92.7L60,92.7z M74.5,80.5c0-0.2,1.2-1.1,2.1-1.3
			c1.1-0.2,2.5-0.1,3.5,0.4c0.9,0.4,1.8,1.4,0.4,0.8c-1.3-0.6-4-0.6-4.9-0.1C74.9,80.6,74.5,80.7,74.5,80.5L74.5,80.5z M73.6,76.2
			c0.1-0.1,1.3,0.2,1.9,0.4c1.7,0.5,3.2,0.2,5-0.3c0.4-0.1,0.6,0.2,0.4,0.4c-0.9,0.6-2.1,1-3.2,1.1C75.5,78,73,76.8,73.6,76.2
			L73.6,76.2z M62.5,72.9c1-0.5,2.2-7.1,1.8-8.2c-1.2,1.8-2.5,2.6-4.4,2.3c-3.1-0.5-3.2-4.3-0.8-4.7c1-0.2,2.1,0.5,2.3,0.3
			c1-0.5,1.8-3.9,2.1-5c0.2-1.1,0.5-4.1,0.5-5c0.1-2,0-5,0-5L48.8,29.4H15.9c0,0-0.1,25.1,0,38l9.1,8.9l0.1,14.5
			c10.5-4.5,20.6-9.3,30.6-14.5c-1.2-1.4-1.1-4.8,1-6.1C59.8,68.3,62.3,70.9,62.5,72.9L62.5,72.9z M70.8,75.9
			c0.1-0.8,0.7-1.5,0.7-2.3c0-0.2,0.2-0.4,0.6-0.1c0.6,0.3,0.8,0.1,1.6-0.2c1.3-0.6,1.7-0.6,2.7-0.2c0.6,0.3,0.8,0.3,1.4,0
			c0.8-0.5,1.7-0.7,2.4-0.5c1.1,0.4,1.5,0.6,2.1,0.3c0.3-0.1,0.7-0.7,0.8-0.7c0.4,0.7,0.4,1.7,0.6,2.3c0.5,1,0.3,1.7-0.3,1.2
			c-1.2-1-2.2-1-4-0.6c-1,0.3-1.6,0.5-2.7,0.3c-3.6-0.4-3.8-0.3-4.6,0.2C71.4,76.1,70.9,76.1,70.8,75.9L70.8,75.9z M80.4,69.5
			c-1-0.3-2.2-1.2-3.1-0.9c-1.1,0.1-1.7-1.2-1.1-1.8c0.9-0.9,2.4,0,2.9,0.4c1.2,0.9,1.4,1,1.9,1c2,0,1.6-1.9,0.7-2.6
			c-0.6-0.6-0.6-1-0.5-1.1c0.2-0.2,0.8,0,1.4,0.6c1.2,1.1,1.2,3.4-0.2,4C81.6,69.5,81.1,69.7,80.4,69.5z M84.6,63
			c-0.9-0.7-2.6-2.2-3-2.7c-0.7-0.9-1-1.5-0.9-2.2c0.1-0.6,0.2-0.9-0.2-1.1c-0.4-0.2-0.8-1.1-0.7-1.5c0-0.1,0.5-0.1,0.7,0.3
			c0.3,0.1,0.3-0.1,0.6-0.4c3.8-2.6,6.9-2.1,10.5-0.3c1.1,0.5,3.8,2.6,2.3,1.9c-0.1,0-1.1-0.5-2-0.9c-3.2-1.5-6.7-2.4-9.5-0.5
			c-0.5,0.3-0.8,0.6-0.4,0.6c1.6-0.3,3.2-1,4.8-0.9c2.5,0,4,1.2,5.8,2.1c2,0.9,2.4,1.2,1.7,1.9c-0.2,0.2-0.4,0.2-1.3,0.1
			c-1-0.1-1.1,0-1.7,0.3c-1.5,1-3.5,1.5-5.3,1.4c-2.1-0.2-2.3-0.3-2.4,0c0,0.2,0.4,0.5,1,1.1c0.5,0.4,1.1,1.1,1.2,1.2
			C86,63.6,85.2,63.4,84.6,63z M84,59.7c0-0.2-0.5-1.3-0.7-1.6c-0.3-0.3-0.5-0.2-1,0.2c-0.4,0.3-0.5,0.5-0.1,0.9
			C83,59.9,84,60.1,84,59.7z M87.2,59.8c0.8-0.4,1.7-1.8,1.3-2.3c-0.2-0.3-0.4,0-0.9,0.8c-0.2,0.4-0.6,0.8-0.7,1c-0.7,0.5-1.6,0-2-1
			c-0.2-0.6-0.5-1-0.7-0.8c-0.5,0.4,0.1,2,1,2.4C85.8,60.1,86.6,60.1,87.2,59.8z M89.8,59.6c0.9-0.3,1.3-0.6,1.2-1
			c-0.1-0.3-0.7-0.7-1.1-0.7c-0.2,0-0.6,0-0.7,0.2c-0.3,0.4-0.8,1.6-0.8,1.7C88.5,60,88.8,59.9,89.8,59.6L89.8,59.6z M92.7,53.3
			c-4.3-1.6-7.6-2.3-11.7-0.6c-1.3,0.6-2,0.6-2.1,0.2c-0.1-0.4,0.9-1.5,1.9-2.1c2.8-1.3,6.2-1.4,9.1,0c1.1,0.5,4,2.6,4,2.8
			C94,53.8,93.7,53.6,92.7,53.3z M142.6,100.7c1-0.5,1.5-1.6,0.9-2.2c-0.2-0.2-0.4-0.2-0.6-0.2c-0.4,0-3,0.7-3.5,1
			c-0.3,0.2-0.2,0.5,0.1,0.8c0.1,0.1,0.3,0.4,0.3,0.7c0,0.4-0.1,0.8,0.2,0.7C140.4,101.4,141.3,101.3,142.6,100.7L142.6,100.7z
			 M138.8,101.7c0.3-0.5,0.2-1.2-0.6-1.7c-0.4-0.2-0.7-0.1-1,0.4C136.4,101.7,138.3,102.3,138.8,101.7z M135,102.3
			c0.2-1.7,0.1-6.9,0.1-6.9s-0.9,0.8-1.5,0.8c0.2-0.8,0.5-1,0.8-1.8c0.2-0.8,0.3-2.2,0.2-3c-0.1-0.9-0.7-0.9,0-2.5
			c0.3-0.8,0.4-1.6,0-2.6c-0.2-0.5-0.2-0.8,0.2-1.4c0.4-0.6,0.3-0.9,0.3-2.1c0-1.7,0-1.9-0.5-0.6c-0.8,1.1-1.1,0.9-2.3,0.8
			c-1.1,2.5-2.4,5.1-2.5,7.2c0,1.3-0.1,1.5,0.8,4.4c0.3,1,0.4,1.4,0.4,2.7c0,1.2,0.1,1.6,0.3,2.3C131.6,100.9,133,102.8,135,102.3z
			 M96.3,213.7l0-2.5c0,0-4,1.2-6,0.5c-2.1-0.6-2.1-0.7-2-0.4c0.1,0.4,1.6,1.2,3.1,1.6c1,0.2,3,0,4-0.3c0.6-0.2,0.6,0,0.4,0.2
			c-2.5,1.9-5.6,1-7.5-0.6c-1-1-1.7-1-1.2,0.3C89.7,217.8,96.4,214.6,96.3,213.7L96.3,213.7z M93.6,210l0.9,0c0,0-0.3-1.6-0.8-2
			c-1-0.9-2.3-0.8-3.2,0.1c-0.4,0.4-0.7,1.9-0.7,1.9l0.7,0C90.9,209.3,92.1,206,93.6,210L93.6,210z M90,207.6
			c-0.5-0.1-1.7,0.4-2.2,0.7c-0.2,0.2-0.2,0.3,0,0.6c0.5,0.7,1.3,1,1.4,0.8C89.4,209.3,90,207.7,90,207.6z M96,209.3
			c0.1-0.5-0.3-1.3-1.1-1.6c-0.3-0.1-0.6-0.1-0.5,0.2c0.1,0.4,0.3,1,0.5,1.4c0.1,0.3,0.2,0.5,0.5,0.4
			C95.7,209.6,95.9,209.5,96,209.3z M135.1,176.3l0-4.2c-2.1,2.2-4.9,5.8-5.8,7.1L135.1,176.3z M69.7,60.1c0.9-0.4,1.6-1.6,1.3-2.2
			c-0.1-0.4-0.5-0.1-0.9,0.5c-0.6,0.9-0.8,1-1.3,1c-0.6,0-0.8-0.1-1.2-0.9c-0.3-0.7-0.5-0.8-0.7-0.5c-0.1,0.1-0.1,0.3,0,0.9
			C67.3,60.2,68.4,60.7,69.7,60.1z M72.1,59.7c1-0.3,1.2-0.5,1.2-0.8c0-0.3-0.9-0.8-1.3-0.7c-0.3,0.2-1.2,1.5-1.1,1.8
			C71,60.1,71.3,60,72.1,59.7z M66.3,59.1c0-0.3-0.1-0.6-0.2-0.7c-0.3-0.4-1-0.1-1,0.4c0,0.4,0.5,0.8,1,0.8
			C66.4,59.6,66.4,59.6,66.3,59.1z M72,56.6c1.4,0.5,2.2,0.6,1.4-0.1c-1.1-1.2-6-2.5-8.6-0.6c-0.2,0.3-0.1,1.3,0.1,1.2
			C67,55.6,69.7,55.7,72,56.6L72,56.6z M67.1,52.5c-1.2,0.4-2.3,1-2.5,1.6c-0.2,0.9,0.2,0.9,1.8,0.5c2-0.7,4.3-0.4,6,0.6
			c1.3,0.9,1.7,0.6,1.5-0.2C73.2,52.4,69.1,51.9,67.1,52.5L67.1,52.5z"/>
		<path id="path6265-7_1_" class="st1" d="M144.4,35.6l-8.9,8.7l0.1,10.3c0.9,1.6-13.7-4.6-16-6.5c0.3,6.9,9.7,14.7,15.9,17.6
			l0.2,22.1c2.5-1.3,5.7-2.1,7.9-2.3C144.9,70.5,145.9,51,144.4,35.6z M95.1,46.4c-0.9,0-1.4,0.2-1.4,0.8c-0.3,0,3.3,12.9,4.9,18.3
			c-3.1,3.1-6.4,8.6-1.7,13.6c1,1.1,2.8,2,4.6,3c0.8,0.7-9.5,7.3-18.6,7.3c-2.9-6.4-7-2.9-9.3-0.6c-1.8-0.2-8.3-4.1-11.7-6.3
			c-0.1,0,0-1,0-1.1c0.2,1.5,13.2,4.8,13.8,3.3c-0.4,0-5.8-3.7-7.4-7.3c-2-4.1-3.6-9.7-3.6-9.7c-0.7,2.1-0.5,4.9-2.5,6
			c-0.6-6.7-10.3-3.3-5.5,3.3c-2.7,0.8-5,2.2-7.6,3.3c5.5,7.4,13,12.4,21,15.3c-1.1,2.2-7.3,7.2-2.2,13.2c0.2,0.2-4.9,5.7-7.4,10.1
			c-1.9,3.3-1.3,5.8-1.1,5.8c6.9-7.9,10.8-14.6,10.8-14.6c-0.1,0.9,8.2,0.4,8.1-7c0.2-2,0.5-4.2,1.3-6c12.6,0.6,23.5-3.9,32.7-13.3
			c0,0,1.9,0.5,3,0.7c3.2-0.1,5.1-1.7,6.6-3.2c1.4-1.1,2.7-2.2,3.2-3.3c1.8-7.7-6.1-4.7-6.5-4.3c-4.5-6.1-8.4-23.5-9-23.7
			C107.2,49.6,98.5,46.3,95.1,46.4L95.1,46.4z M64,58.2c-0.3,0-1.6,5.4-2.6,5.4c-4.6-2.9-4.7,3.1-0.7,2.8C64,66.2,65.8,60.9,64,58.2
			C64,58.2,64,58.2,64,58.2L64,58.2z M15.3,68.4c0.2,32.7,0.7,65.5,1.5,98.2c3-0.7,5.1-1.3,8.1,0c0.3-9.3-0.5-32.8-0.4-55.5
			C35.7,102.5,43.5,93,49,80.6l-17,7.9c0,0-5.6,7.9-7.3,8.4c-0.3-1.1-0.5-14.5-0.3-20.3L15.3,68.4z M53.1,88.7l-3.3,4.8
			c0,0,0.1,16.5,0.3,24.4c0.1,1.6,1.6,3,0.4,4.4c0.7,0,3.8,21.4,0.9,30.1c-0.5,1.6,0,2.6,0.8,3c4.2,4.6,6.5,9,12,6.4
			c6-5.5,14.6-15.1,14.6-15.1L56,125.5C54.1,120.4,53.1,88.7,53.1,88.7z M135.5,157.4c-10.3,9.1-19.7,18.5-23.5,29.9
			c5.5-2.2,10.7-4.9,16.1-7.3c2.6-3.1,4.6-6.1,7.5-9c0,0,0.3,13.4,0.1,20.1c2.7,2,9,8.1,9,8.1c0,0,1.8-95.3-2-97.7
			c-3.7,0.7-5.5,2-6.9-2.2C134.8,118.7,135.5,157.4,135.5,157.4L135.5,157.4z M99.9,103.8c-3.9,3.2-17.5,16.4-17.5,16.6
			c3.6,6,17.8,18,24.6,24.7l1,34.2c1-1.3,1.7-2.6,2.8-3.9c0,0-0.2-17.3-0.6-25.5c-0.1-2.4-0.7-4.3-0.5-4.5c-1.9-9.9-2.7-20.8,0-31.3
			C103.3,108.6,101.3,104.9,99.9,103.8L99.9,103.8z M101,142.9C101,142.9,101,142.9,101,142.9c-3.4,4.7-9.7,15-10.2,15
			c-0.1-0.3-6.6,0-7.8,4c-1,3-1.1,5.8-1.8,8.9c-12.9-0.4-22.4,3.6-32.4,12.8c-4.9,0-8.5,1.1-10.2,3.1c-2.5,1.8-3.2,3.4-3.1,5.3
			c0.2,3.5,6.4,3.9,6.7,1.5c0.3,0,6,12.9,6.6,15.1c1.3,3.6,2.8,10.2,3,10.2c2.3,0.1,15.2,3.7,15.2,2.4c1.2-0.5-4.5-19-4.5-19
			c9.9-8.3-1-17.2-3.6-16.8c5.7-4,12.2-6.7,19.3-7.1c1.1,4,6.3,6,8.8,0.7c0,0,11.1,4,11.1,5.3c-4.6-0.7-8.4-1-13-1.5
			c8.8,4.7,9.1,11,10.9,17.2c0.2-1.1,2.6-5.9,2.6-5.9c3,6.6,8.7,2,6.3-3.3l7.1-3.3c0.8-0.4-10.6-13.1-20.9-14.9
			c0.5-0.9,0.7-1.8,1.3-2.6c2.6-2.5,4.6-6.2,0.6-10.7c2.6-3.6,8.7-12.4,8.3-12.6C101.2,146.9,101.3,142.8,101,142.9L101,142.9z
			 M16,183.3c-0.1,0-0.3,30.4-0.1,45.5c-0.3,0.6-0.4,4-0.4,4l9.4-8.8l0.3-11.4c2.5-0.6,17.8,7.1,16.6,7.1c1.2-0.5-7.1-16-16.7-17.7
			c-0.2-8.8-0.3-18.7-0.5-21.4C21.2,181.4,16,183.4,16,183.3z M99.6,201.6c-2.6,0.8-3.7,6.3-2.9,9c0.2,0.5,0.1,0.6,0.5,0.1
			c1-1.5,0.7-4.5,2.5-6.1C104.5,206.1,104,199.9,99.6,201.6z"/>
		<path id="path6267-4_1_" class="st3" d="M38.6,237.5L51,218.8c14.9,4.9,30.1,5,45.4,2.6l13.7,16.1h-5.6l-8.6-12.3
			c-3.1,0.7-6.4,1-9.6,1.5l4,10.8H86l-3.2-10.7c-7.4,0.3-12.5-0.4-17.7-1l-1.9,11.6h-4.5l3-12c-3.5-0.7-7.1-1.2-10-2.2l-9.2,14.2
			H38.6z M52.8,226.5l5.2,1.4l-2.5,9.6H46L52.8,226.5z M66.2,237.5l1.5-8.5c3.5,0.7,8,0.8,12.8,0.8l2.2,7.7H66.2z M90.7,229.6
			l4.1-1.1l6.1,9h-7.4L90.7,229.6z M31.1,175.5c19.9-23,17.3-47.2,6.3-66.7l2.3-2.4c12.7,20.8,15.4,50.3-8,73.2
			C31.5,178.3,31.1,175.5,31.1,175.5z M110.6,149.7c2.9,4.8,4.6,9.7,7.6,14.6L111,174L110.6,149.7z M24.9,165c-0.2-15.2,0-46,0-46
			l6.7-5.1c8,9.7,12.4,35.3-2,52.3C28.6,165.4,25.7,165.7,24.9,165L24.9,165z M120.3,161.9c-18.4-30.9-9-53.5,8.8-73.5
			c0.1,1.5,0.1,3.1,0.2,4.7c-15.2,17.4-21.3,43-6.4,66.2L120.3,161.9z M86.9,157.4l8.4-11.4c0,0,1.6-4.5,2.9-5.9l1.5-1.4
			c0.5,0.5,1.6,1.5,1.6,1.5l-0.9,3.5c-3.1,4.8-6.4,9.5-9.8,14.3C90.6,158.1,87.6,157.6,86.9,157.4z M131.5,102.3
			c0.3-0.3,3.6,1.1,3.6,1.1l0.2,46.7l-6.7,4.3C126.7,155.3,111.6,124.6,131.5,102.3L131.5,102.3z M61.3,121.9
			c3-4.1,6.2-7.7,9.2-11.4c0.8,0.3,2.8,0.3,2.8,0.3c0.2,0.1-0.7,3.1-2.9,5.2c-6,7.1-7.3,8.4-7.6,11.4c-0.1,0.9-2.2,2-2.2,2l-1.5-1.6
			C59.6,125.5,60.3,123.7,61.3,121.9L61.3,121.9z M42.3,104l6.9-8.9l0.5,23.2L42.3,104z M64.2,46L51,29.5h6.4l7.9,11.6l9.4-1.1
			l-3.3-10.6h3.9l2.8,10.4C83.8,40,89.5,40.5,95,41l2.8-11.5h4l-3.6,12.1l10.7,2.8l9.5-14.8h4.7l-13.5,19.2C92,43.4,77.9,44,64.2,46
			z M102.4,39.1l3-9.6l9,0l-6.9,10.9L102.4,39.1z M80.5,36.7l-1.9-7.2h15.9l-2.1,8.1C88.3,36.9,84.4,36.8,80.5,36.7L80.5,36.7z
			 M61.5,29.5h6.3l2.5,7.5l-3.7,0.4L61.5,29.5z"/>
		<path id="path6269-8_1_" d="M48.9,28.5l15.3,18.2c3.2-1.1,19.3-3,28.9-0.8c1.7,6.5,3.5,13.2,5.3,19.1c0,0-0.6,0.7-1,1.1
			c-6.2,7.1-1.8,13.9,3.8,16.1c-1,2.1-11.8,7.3-18.4,6.7c0-0.1-2-4.8-6.1-3.2c-1.4,0.5-2,1.6-3.1,2.6c-3.9-1.2-9.1-3.7-11.8-6.6
			c5.1,2.5,10,3.8,15,3.2c0,0-0.6-0.5-1.3-0.8c-0.4-0.2-1.4-0.8-2.3-1.4c-2.3-1.6-3.9-3.4-5.5-6.6c-1.8-3.2-2.1-6.7-3.1-9.8
			c-0.5,1.6-0.8,5.7-2.1,6.6c-0.4,0.2-0.4,0.2-0.7-0.7c-1.1-3.2-4.9-2.8-6.2-0.5c-0.6,2-0.6,2.8,0.3,4.6l-2.3,1.3v0.4l-1.4,0.7
			l-0.3-0.2c-6.7,3.2-13.3,6.6-20.2,9.7c0,0-3.6,6-7,8.4l-0.1-20.4l-9.9-8.9l0,4.9c0,0,0.5,0.5,0.7,0.7c0.1,34.1,0,67.7,0,98.7
			l0,28.5l-0.6,0l0,3.3l0.7,0.2l-0.1,4.7l-0.4,0l-0.1,3l0.5,0.1l0,16.8l-0.5,0.7l0,4.8l10.3-9.7l0.2-11.1c8.1,1.5,16.6,7.3,16.6,7.3
			c-1.4-9.3-11.3-16.9-17-18.4l0-22c0,0-4.2,1.7-6.3,2c-1,0.1-1.4,0-1.9-0.8c-0.4-0.5-0.4-1,0-2.1c0.2-0.5,0.1-0.7,0-1.2
			c-0.3-0.7-0.3-1.1,0-2.4c0.3-0.8,0.2-1.2-0.1-1.9c-0.3-0.8-0.3-0.9-0.2-1.3c0.3-1.1,0.4-1.3,0.2-1.8c-0.4-1-0.4-1.7,0-2.4
			c1.5-2.5,4.9-1.9,6.8-1.8c0.9,1,1.5,1.6,1.6,0.1c0.7-1.8,3.2,0,4.4,0.8c10.1-13.5,15.1-31.7,2.4-54.5l-7.1,5.6l0-7
			c9.4-6,19.9-19.6,24.4-30.3c1.5,1.8,3.3,3.5,4.9,5.3L53,88l-0.3-0.2c-2.9,5.5-10.8,15.9-10.9,15.8c2.9,5.4,5.5,10.8,7.7,16.3
			l0.6-0.3l0.5,1.7l-1,0.3c3.5,11.3,3.6,21.7,1,31.3l0.6,2.6c0,0,3.7,3.5,4.6,4.5c2.6,2.5,5.4,5.2,5.4,5.2l3.3-3.2l-0.2-0.3
			l29.2-28.8l1.8,1.7c-17.9,17.9-49,48.8-49,48.8l-1.1,0.2c-0.6,0.1-1.5,0.1-2.1,0.1c-1-0.1-1.1,0-1.8,0.3c-0.9,0.4-1.6,1-2.5,2.1
			c-0.4,0.5-0.7,0.7-1.2,0.9c-6.1,3.6-0.6,10.9,4.6,7.1c3.8,7.2,7,15.6,8.8,23.9c0,0.1-0.7,0.3-0.7,0.3l-13.7,20.1H42l0.5-0.9h-3.9
			l12.6-18c16,4.3,30.7,4.9,45.5,2.4l13,15.7h-5.1l0.7,0.9l6.7,0.1l-15.2-17.9c-5.5,1.4-19.8,2.6-28.9,1.1
			c-1.4-6.7-3.7-13.9-5.3-19.7c8.6-6.7,2.1-15.5-3.2-16.8c-0.3-0.5,10.8-7.2,18.6-6.7c2.3,5.4,7.2,4.6,9,0.6c3.3,1.2,7.5,2.4,10.9,5
			c-4.5-1-9.7-1.5-13.9-1.6c8.1,3.1,10.4,9.7,11.4,15.9c0.2,1,0.7,2.4,0.7,2.4c0.7-2.2,1.3-4.6,2.6-6.5c0.6,2.2,2.9,3.9,5.3,2.6
			c1.3-1,1.8-2.6,1.4-4.9c-0.1-0.6-0.2-1-0.2-1l1.8-1l0.2,0.2c0,0,2-0.8,3-1.3c0.2-0.1-0.2-0.4-0.2-0.4l18.3-8.6
			c-0.1,0,4.6-6.4,7.3-8.8c0.1,7.6,0.1,10.7,0.1,19.7l1,1c0.9,0.9,2.9,2.7,7.4,6.8c1,0.9,1.7,1.4,1.7,1.4l-0.1-132.8h-0.2v-2.6
			l0.2,0v-6.6l-0.2-0.1v-2.1l0.3-0.2l0-17.9l-0.3,0l0-4.3l-10.2,10.7l0.1,10.1c-4.5-0.6-10.2-3.5-14-5.8c-1.2-0.8-1.9-1-1.9-0.5
			c0.5,6,9.3,15.2,16,17.6l0,22.6c0,0,1.6-0.8,2.6-1.2l0.1,0.4l2.2-0.9l0.2-0.5l1.9-0.2c0,0.4,0.1,0.3,0.1,0.3
			c1.7,0.5,2.4,1.6,1.7,2.9c-0.2,0.4-0.3,1-0.1,1.2c0.7,1.1,0.9,2.1,0,3.2c-0.3,0.5-0.3,0.9,0,1.4c0.9,1.8,0.4,1.7-0.3,2.8
			c-0.2,0.8,0.7,1.3,0.5,2.1c-0.1,0.5-0.7,1.1-1,1.4c-0.4,0.3-0.8-0.3-0.8-0.3s-1.4,0.6-2.3,0.8c-1,0.3-2.6,0.9-3.2-0.4
			c-0.3-0.7-0.1-1.4-0.1-2.2l-1.4-0.2l-0.1,3.7c-0.8,0.4-4-1.2-4-1.2c-13.7,17.7-13.3,37.3-3.2,53.7c0.1,0.3,7.2-4.8,7.2-4.8
			s0,4.2,0,6.4c-9,7.4-17.7,17.3-23.9,29.6l-3.8-4.5c0.7-0.6,0.7-1.5,0.7-2.2l2.8-4.1l0-1.1l7.3-10.1c0.1,0.6-7.5-13.5-8.5-18.1
			l0.5-0.1c-3.4-12.8-2.7-21.8-0.2-32.3l-0.7-0.7l-9.6-9.5c-0.8,0.7-1.6,1.4-2.3,2.2c-0.1,0.1-0.7,0-0.8,0.2
			c-5,4.7-9.9,9.4-14.7,14.3c-0.1,0.1,0.1,0.6,0,0.8c-4.8,4.9-9.8,9.6-14.7,14.5l-1.8-1.7c17.2-17.1,49.7-48.9,49.7-48.9
			s0.1-0.3,0.4-0.3c0.9,0,1.7-0.2,2.6-0.5c1.1-0.2,1.2-0.3,1.7-0.8c0.3-0.3,0.7-0.7,1-0.9c0.5-0.3,1.5-1.2,3.2-2.7
			c1-0.9,1.7-2.2,1.6-3.3c0-2.1-1.4-3.8-3.2-4.1c-0.7-0.1-2.2,0.3-2.9,0.8c-0.6,0.4-0.8,0.5-1.1,0.4c-3.5-7.1-6.9-16-8.4-23.3
			c-0.1-0.5,0-0.6,0.3-1.2c0.2-0.4,0.8-1.2,1.1-1.8c4.4-6.8,8.9-12.5,12.7-18.7H119l-0.7,1.1h4.5l-13.3,19
			c-24.5-7.9-44.5-2.9-45-2.8L51.3,29.5h6l-0.7-1.1H48.9z M60.8,28.5l0.7,1.1h6.3l-0.4-1.1H60.8z M71.4,29.5h3.9l-0.2-1.1h-4
			L71.4,29.5z M78.4,28.5l0.2,1.1h15.9l0.3-1.1H78.4z M97.8,29.5h4l0.3-1.1h-4L97.8,29.5z M105.7,28.5l-0.3,1.1h9l0.7-1.1H105.7z
			 M144.3,35.8l0.1,2.9l-6.5,6.8l0,9.5l-1.9-0.4l-0.1-9.8L144.3,35.8z M142.5,42.1c0.1,2.9-0.4,5.7,0.4,8.7c0.4,1.5,1.2,3.2,1.3,4.9
			l-2.1-0.1c-0.3-0.9-0.4-1.8-0.7-2.9c-0.8-2.7-1.4-5.4-0.9-8.3L142.5,42.1z M95.6,46.8c0.1,0.1,0.3,1.4,0.6,2.5
			c1.1,6.3,2.6,10.9,4.2,15.7c2,6,4.9,13.5,7.7,17c0.4,0.4,0.6,0.9,0.4,1.1c-0.2,0.4-1.4-0.1-2.2-1c-0.3-0.3-0.9-1.3-1.4-2.1
			c-1-1.8-2.3-4.5-2.4-4.9c-0.1-0.2-0.6-1.5-1.2-2.9c-1-2.5-1.6-4.2-2.5-7c-0.7-2.2-1.3-4.5-2.1-6.9c-1.2-3.8-1.9-6.9-2.6-10.4
			c-0.1-0.5-0.3-1.1-0.2-1.2C94.4,46.4,95.4,46.5,95.6,46.8z M96.3,47c-0.1-0.1,1.1-0.1,1.5,0.2c0.1,0.1,0.3,0.9,0.5,1.8
			c1.1,5.8,2.8,11.7,4.8,17.4c1.6,4.5,3.3,8.9,5.4,12.4c0.7,1.2,1.6,2.4,2.7,3.8c0.6,0.8,0.7,0.9,0.5,1.1c-0.2,0.3-0.6,0.2-1.3-0.1
			c-0.7-0.3-1.4-1-2.1-2c-0.2-0.3-0.6-0.8-0.8-1.1c-3.1-5.4-5.1-10.6-6.8-15.8c-1.8-5.4-3.4-10.8-4.5-17
			C96.3,47.5,96.3,47.3,96.3,47L96.3,47z M100.3,47.9c0.3,0.3,0.4,0.8,0.7,1.9c1.3,5.4,2.4,10.1,3.9,14.5c0.8,2.4,1.6,4.7,2.4,6.9
			c1.4,3.6,3.2,6.8,5.3,9.5c0.7,0.9,2,2,3.1,2.6c0.7,0.4,0.9,0.6,0.8,0.8c-0.1,0.2-0.8,0.3-1,0.3c-1.2-0.2-2.9-1.1-3.4-1.8
			c-3.6-3.9-6.2-10.2-8.1-15.4c-3.2-9-5.8-20.2-5.3-19.8C98.6,47.2,100,47.5,100.3,47.9L100.3,47.9z M101.8,48.2
			c0.1,0,0.2,0,0.4,0.1c0.7,0.2,0.8,0.3,0.9,1c1.2,5.1,2.4,9.6,3.7,13.9c1.4,4.4,2.8,8.5,5,12.8c1.6,3.2,3.7,5.3,5.9,6.4
			c0.6,0.3,1.2,0.6,1.3,0.7c0.1,0.1,0,0.2,0,0.4c-0.1,0.2-0.3,0.3-0.8,0.3c-1,0-1.7-0.3-2.8-1.1c-2.8-1.9-5.3-6.3-6.4-8.8
			c-1.3-3-2.6-6.2-3.7-9.7c-2-6.2-3.2-10.3-4.1-15.5C101.3,48.3,101.5,48.2,101.8,48.2L101.8,48.2z M144.3,56.5l0,1.8
			c-7.1,0.5-14.5-2.5-20.4-5.2c4.4,5.8,9.2,11,20.4,12.1l0,1.9c-14.6-0.2-24.8-14.9-24.3-18.5C126,52.4,136.9,56.9,144.3,56.5
			L144.3,56.5z M104.1,48.9c0.4,0,0.8,0.2,1,0.3c1.2,4.4,2.1,9.3,4,14.2c2.4,6,3.8,11.4,8.2,16.4c1.4,1.4,4.1,1.4,4.1,1.4
			s-0.3,0.8-0.8,0.9c-1,0.1-1.7,0.2-2.4,0c-2.6-1.1-4.6-3.8-5.6-5.7c-1-1.4-3.3-7.2-5.2-13.1c-2.1-6.4-3.8-13.1-3.6-14.4
			C104,48.9,104,48.9,104.1,48.9z M106.5,49.6c0.2,0,0.4,0.1,0.7,0.2c0.3,0.1,0.4,0.2,0.6,0.8c0.1,0.4,0.1,0.9,0.3,1.8
			c1,4.6,2.4,8.4,3.8,12c1.3,3.5,2.7,6.9,4.5,9.9c0.9,1.5,1.8,3,2.3,3.5c1.5,1.5,4,1.6,4.8,0.1c0.4-0.8,0.3-2.2-0.5-2.9
			c-0.6-0.6-2.1-0.3-2.1,0.4c0,0.2,0.4,0.1,0.9,0c1.5-0.2,1.9,2.4,0,2.8c-2.4,0.5-4-2.6-1.9-4.6c3.5-2.4,6.3,0.9,5.4,4
			c-0.8,1.9-2.2,2.8-4,2.9c-2.3,0.1-3.3-0.6-5.6-4.1c-2.7-4.3-3.9-8.6-5.8-13.3c-1.8-4.5-3-9.3-3.6-13.5
			C106.2,49.7,106.4,49.6,106.5,49.6L106.5,49.6z M108.8,50.4c0.2,0,0.7,0.1,0.8,0.2c0.1,0.1,0.3,0.2,0.3,0.2
			c3.2,11.6,5.9,18.5,8.6,23.4c0,0,0,0.9-0.2,1.2c-0.3,0.5-0.5,0.3-0.9-0.4c-1.7-3.3-3.3-6.9-4.8-10.6c-1.8-4.4-3.4-8.9-4-13.3
			C108.5,50.5,108.4,50.4,108.8,50.4z M130.3,57c0.5,0,0.8,0.4,0.8,0.8c0,0.4-0.4,0.8-0.8,0.8c-0.5,0-0.8-0.4-0.8-0.8
			C129.5,57.3,129.9,57,130.3,57z M64,56.8c-0.9,1.3-1.7,5.9-2.7,5.9c-1.1,0-2.4-0.6-3.2,0.3c-1,1.2-0.4,2.5,0.9,3.2
			c0.6,0.3,1.8,0.4,2.6,0.1C64.6,65.4,65.8,60.4,64,56.8L64,56.8z M133.4,58c0.7,0,1.2,0.5,1.2,1.2c0,0.6-0.5,1.2-1.2,1.2
			c-0.7,0-1.2-0.5-1.2-1.2C132.2,58.5,132.7,58,133.4,58z M64.1,58.6c1.1,2.6-0.1,5.8-1.4,6.9c-1.2,1-3,1.1-4.1,0.2
			c-0.9-0.8-0.5-2.8,1.2-2.7c0.6,0,1.2,0.5,1.6,1.1C62.4,64.1,63.6,58.7,64.1,58.6z M137.5,59.2c0.7,0,1.3,0.6,1.3,1.3
			c0,0.7-0.6,1.3-1.3,1.3c-0.7,0-1.3-0.6-1.3-1.3C136.2,59.8,136.8,59.2,137.5,59.2z M142.2,60.2c0.8,0,1.4,0.6,1.4,1.4
			c0,0.7-0.6,1.4-1.4,1.4c-0.8,0-1.4-0.6-1.4-1.4C140.9,60.8,141.5,60.2,142.2,60.2z M98.3,66.3c0.2,0,0.3,0.2,0.5,0.6
			c0.3,0.8,0.3,0.9-0.2,1.4c-4.2,5.8-0.4,11.6,5.7,12.3c0.5,0,0.8,0.6,1,1.3c0,0.3,0,0.3-1.4,0.3c-0.9,0-1.6,0-2.1-0.2
			c-2.1-0.6-4.7-2.5-5.8-4.2c-1.2-2-1.4-4.1-0.7-6.9c0.5-1.8,1.1-3,2.1-4C97.9,66.5,98.1,66.3,98.3,66.3z M138,66.9l0.1,19.7
			l-2.1,0.8l0.1-21L138,66.9z M142,67.7c2.6,6.5,2.8,12.5,0.4,17.9l-2.4,0.3c3.3-7.6,1.9-13.1,0-18.4L142,67.7z M15.6,68.8l8.6,8
			l0.3,89.4l-1.4-0.5l-0.5-87.9l-6.9-6.3V68.8z M99.1,69C99.1,69,99.2,69,99.1,69c0.3,0,0.5,0.3,0.7,0.9c0.2,0.6,0.2,0.7,0,1.3
			c-1.2,2.9-0.2,5.6,2.7,6.4c0.7,0.2,0.8,0.3,1.2,1.2c0.3,0.6,0.4,0.8,0.3,0.9c-0.2,0.1-0.5,0.2-1.6-0.1c-4.3-1.5-5.9-6.2-3.9-9.9
			C98.7,69.3,98.9,69.1,99.1,69C99.1,69,99.1,69,99.1,69L99.1,69z M64.8,68.7c0,0,0.9,3.2,0.8,3.9c-0.2,1.4-2.2,3.6-3.9,4.4
			c-1.6,0.6-4,0.3-5.1-0.8c-3.7-4.3,3.2-8.6,4.9-4.1c1,2.9-3.2,3.6-3.4,1.4c0-0.6,0.2-0.8,0.7-1.1c0.5-0.3,0.4-0.6,0-0.6
			c-1.6,0.6-1.6,2-0.9,3c1.4,1.5,3.2,0.6,4.5-0.5C64.1,72.7,64.4,70.6,64.8,68.7L64.8,68.7z M100.5,71.9c0.1,0,1.8,4,2,4.6
			c-0.1,0.4-0.5,0.4-1.3-0.1c-0.8-0.5-1-0.9-1.3-2.1C99.8,73.8,99.7,72.2,100.5,71.9z M66.2,73.6c0.4,0,0.8,1.4,0.6,2.1
			c-0.3,1.2-3.5,3.2-5.7,3.7c-0.4,0.1-0.9,0.2-1.1,0.2c-0.5,0.1-1-0.2-1.6-0.7c-0.4-0.4-0.6-0.8-0.5-0.9c0.1-0.1,1.1,0.1,2,0.1
			c2.4,0,4.3-1.7,5.8-3.8C65.9,73.9,66.1,73.6,66.2,73.6L66.2,73.6z M17.8,74.7c0,0,1.6,1.5,2.5,2.3c-0.1,3.9-1.6,8.2-1.6,11.7
			c0,3.1,2,5.6,2.2,8.3c0.1,1.7-0.4,4.3-1.2,6.2c-0.8,1.8-1.2,3.7-1.2,5.6c0.1,4.4,3.2,9.1,2.1,13.4c-1,4-2.2,6.4-1.9,8.5
			c0.6,4.1,2.8,7.8,2.2,11.3c-0.5,3.2-2,6.4-1.9,9.3c0.2,3.3,1.4,6.1,1.8,9.2c0.2,2-0.3,5.1-0.3,5.1l-2.3,0.2
			c1.3-4.7-0.6-8.9-1.3-13.5c-0.6-3.8,1.1-6.9,1.6-10.2c0.3-2,0-4-1.1-6.6c-2-4.8-1.3-7.9,0.2-12.1c1.8-4.4-0.7-8-1.3-12.2
			c-0.3-3.7-0.1-6.3,1.3-9.5c1-3.1,1.3-5-0.2-8c-1-1.9-1.2-3-1.2-5.5C16.8,83.3,18.1,80.5,17.8,74.7L17.8,74.7z M67.3,76.6
			c0.4,0,0.5,0.3,0.5,0.8c0,0.9-1.4,2.1-3.9,3.3c-1.3,0.6-2,0.7-2.8,0.3c-0.7-0.3-0.7-0.6,0.1-0.8c1.9-0.6,3.3-1.3,4.8-2.7
			C66.6,77,67.1,76.6,67.3,76.6L67.3,76.6z M56.1,77.3c6.4,6.8,12.6,10.2,17.3,11.9l-0.7,1.8c-6.3-2.4-12.6-5.8-18-13L56.1,77.3z
			 M68.4,78.4c0.2,0,0.8,0.8,0.8,1c0,0.1-0.2,0.5-0.5,0.9c-0.4,0.5-0.8,0.8-1.8,1.4c-1.4,0.8-2.3,1-2.9,0.6
			c-0.6-0.3-0.4-0.6,1.1-1.5c0.8-0.5,1.8-1.2,2.3-1.7C67.9,78.7,68.3,78.4,68.4,78.4z M51.5,79.4c5.2,7.1,11.9,11.8,19.8,14.3
			l-1.2,1.7c-7.2-2.5-14.2-6.9-20.7-14.8L51.5,79.4z M69.7,80.2c0.3,0,0.9,0.7,0.9,1c0,0.1-0.1,0.4-0.3,0.6
			c-0.3,0.4-1.7,1.4-2.4,1.8c-0.5,0.2-0.8,0.2-1.4,0c-0.6-0.3-0.5-0.6,0.5-1.2c0.5-0.3,1.3-0.9,1.7-1.3
			C69.2,80.6,69.6,80.2,69.7,80.2L69.7,80.2z M48.8,80.8c-0.1,0.2-7.7,17.3-23.6,29.4l-0.1-2.8c8.8-6.9,15.2-16.5,20.1-24.8
			L48.8,80.8z M71.2,82c0.2,0,0.4,0.2,0.6,0.5c0.2,0.4,0,0.7-0.9,1.4c-0.6,0.4-0.8,0.5-1.2,0.5c-1.2,0-1.2-0.3,0.1-1.5
			C70.5,82.3,70.9,82,71.2,82L71.2,82z M102,82.8l3.3,0.3c0.9,0.6-13,9.6-22.6,8.8l0.3-2.2C91.4,90,102.2,83.2,102,82.8z M73.5,83.7
			c0.8,0.4,1.7,0.9,1.5,1.1c-0.4,0.2-2.6,0.1-3.1-0.2c-0.4-0.2-0.4-0.3,0.2-0.9C72.7,82.9,72.8,83.3,73.5,83.7z M43.9,83.1
			c-5.3,9.2-11.5,17.6-18.8,23.1l-0.1-4.9c6.9-5.3,12.1-14.9,12.1-15L43.9,83.1z M109.8,83.7l1.6,0.9c-10,9.2-20.9,13.2-31.3,12.2
			L81,95C97.8,96.3,109.1,83.9,109.8,83.7z M112.2,84.1c0,0,0.5-0.1,0.5,0c-3.3,3.2-7.9,6.7-10.9,8.6
			c-14.2,14.5-26.3,25.9-38.7,38.8l-2-2.1l1.8-1.9c0-3.7,4.6-7.9,7.3-11.1c1.1-1.3,3.3-4.5,3-5.9c-0.1-0.3-0.1-0.4-0.1-0.4
			c4.3-0.9,5.3-4.3,5.4-7.4c0.2-2,0.5-3.9,1.2-5.6C99.2,98.8,111.7,84.6,112.2,84.1z M78.4,86.2c2.2,0,3.9,1.7,3.9,4.2
			c0,1-0.4,1.8-1.8,4.5c-1.4,2.3-1.5,3.7-2.1,6.4l-1.4-1.2l-2.5,2.2l0-3.3c0,0,0.9-1.1,2.3-2.7c1.8-2,3.4-4.5,3.3-5.9
			c0-1.4-1.6-2.6-3.1-1.6c-1.3,0.9-2,2.6-2.7,7.6c-0.1,0.9-0.3,1.9-0.3,2.2c-0.2,0.6-2.1,2.4-2.1,2.4c-0.2,0-0.9-3.7-0.9-3.7l-2,0.3
			c2.3-2.4,4-5.4,5.2-8.5C75.1,87.4,76.5,86.2,78.4,86.2L78.4,86.2z M35.8,87c0,0-3.9,8-10.7,13.3l0-3.1c4-3.1,7-8.3,7-8.3L35.8,87z
			 M129.5,87.2c-13.5,13.9-31.2,39.5-9.3,75.5l2.9-3.3c-17.6-32.5-5.1-49.4,6.5-66.3L129.5,87.2z M56.4,88.3c4,2.8,8.1,5.6,13.4,7.3
			c-0.3,0.9-7.6,7.1-2.4,12.8c0.2,0.3-0.3,1-1.2,2c-2.5,3.4-5,5.9-7.1,9.7l-0.1,7.2l-2.1-1.8L56.4,88.3z M129,89l0.1,4.1
			c-20.1,24.3-17.8,46.1-6.5,66.2l-2.2,2.2C101.9,129.7,113.5,105.7,129,89L129,89z M79.5,91.4c-0.9,2.3-4.8,6.3-4.8,6.3
			s0.5-3.9,0.8-5.1c0.2-0.9,0.8-2.2,1.4-2.8C78.5,88.1,80,90.1,79.5,91.4z M52.8,89.3l0.4,32.5l-2.8-2.8L50,94.1L52.8,89.3z
			 M49,95.6l0.6,22.1c-2.8-6.6-6.8-13.8-6.9-13.8C42.7,103.9,46,99.6,49,95.6z M71.3,102.5c0,0,0.4-0.4,1.1-1.1
			c1.5-1.5,1.6-1.5,1.5,0.5c-0.1,0.8,0,1.7,0,1.7c0.9-0.5,2.9-2.9,3.4-2.4c0.4,0.4,0.8,1.3,0.8,2.6c-0.1,2.6-1.5,5-3.9,5.8
			c-6.5,2-10.9-5.5-6.4-10.2c0.4-0.5,1.7-1.3,2.3-1.2C71,99.6,71,101.2,71.3,102.5z M135.9,100.2c0.4,1,0.9,2,2.2,2.5
			c-0.2,31.6-0.1,87.5-0.1,87.5l6.4,6l0,2.6l-8.5-7.7C135.9,191.1,135.4,125.1,135.9,100.2L135.9,100.2z M142.2,101.6
			c0.2,3.1-0.3,6.3,0.2,9.4c0.5,2.2,1.3,4.1,1.4,6.3c0.1,2-0.1,3.1-0.9,5.8c-0.6,1.9-0.6,2.2-0.8,4.1c-0.3,2.6,0.5,5.1,1.2,7.2
			c0.9,2.8,0.6,6.2-0.8,10.7c-0.5,1.6-0.6,2.3-0.5,3.7c0.2,3.1,1.3,6,1.9,9c0.3,1.7,0,4-1.1,7.8c-0.4,1.4-0.8,3.9-0.8,4.8
			c0,1,0.3,2.9,0.6,3.7c1.5,3.9,1.6,4.6,1.6,6.9c0,1.7-0.5,3.5-1.1,5c-1,2.5-0.4,5,0,7.7l-2.5-2.2c-0.8-2.4-0.5-4.6,0.2-6.3
			c1-2.8,1.2-3,1.2-4.6c0-2.1-1.2-4.6-1.7-6.1c-0.9-2.6-0.9-5.2,0-8c0.4-1.4,1.1-4,1.2-5.1c0.3-2.1,0.1-3.7-1-7.9
			c-0.5-2-0.6-2.8-0.7-4.9c0-1.9,0.2-3.8,0.9-6.1c0.9-3.6,0.9-5.8-0.3-9.1c-0.9-2.8-1.2-4.6-0.9-6.8c0.1-1.3,0.5-2.5,1.1-3.7
			c1.1-2.7,1.3-5.3,0.4-7.9c-1.4-5.3-1.4-8-1.2-12.8L142.2,101.6z M135.1,103.4c-0.2,21.7,0,46.4,0,46.4s-6.5,4.5-6.4,4.3
			c-8.3-13.6-11.5-33.7,3-51.8C131.7,102.3,134,103.2,135.1,103.4L135.1,103.4z M36.9,108.5c11.8,21.8,13.3,43.9-6.2,66.5
			c0.6,2,0.5,3.9,0.2,5.7c3.8-2.9,34.2-33.1,8.6-75.2L36.9,108.5z M96.9,106.7l5.8,0.3l0.4,4.9l-1.9,1.8c0,0,0-1-0.1-1.9
			c0-1.1-0.2-2.1-0.3-2.1c-0.1,0-0.2,1.3-0.3,2.8l-0.1,2.1l-0.6,0.6c-0.9,0.9-1,0.8-1.1-0.4c-0.1-2.6-0.1-2.8-0.3-2.6
			c-0.1,0.1-0.2,1-0.2,2.4c0,1.1-0.1,2.1-0.2,2.3c-0.1,0.4-1.2,1.4-1.5,1.4c-0.3,0-0.3-0.4-0.3-2c0-1.4-0.1-2.1-0.4-1.6
			c-0.1,0.1-0.1,1.5-0.2,2.6c0,1.1-0.1,2.1-0.2,2.2c-0.2,0.4-1.4,1.4-1.6,1.3c-0.3-0.1-0.4-0.9-0.3-2.3c0-0.7,0.1-1.2-0.1-1.4
			c-0.3-0.2-0.3,0.6-0.2,2.6l0,2.1l-0.7,0.8c-1.1,1.2-1.2,1.1-1.2-0.9c0.1-1.6,0-2.3-0.3-2.2c-0.3,0.1-0.2,0.9-0.1,2.5
			c0.1,1.4,0,2.1-0.1,2.3c-0.1,0.1-0.4,0.6-0.8,0.9c-0.4,0.4-0.8,0.9-0.9,0.9c-0.1-1.7-0.2-5.4-0.2-5.4l-6-0.3c0,0,1.2-1.5,1.8-1.7
			c0.3-0.1,0.7-0.2,2.2-0.1c1,0,2.4,0,2.5-0.1c0.5-0.2-0.5-0.3-1.8-0.4c-0.9-0.1-1.1,0-2.1-0.2l0.9-0.9l0.7-0.7l1.9,0.1
			c1.2,0,2,0,2.2,0c1.1-0.2,0.1-0.5-1.2-0.5c-1.3,0-2,0-2-0.3c0-0.3,1.4-1.6,1.8-1.6c0.2,0,1.2-0.1,2.3-0.1c1.8,0,2.5,0,2.4-0.3
			c-0.1-0.3-1.3-0.2-2.1-0.2c-2.2,0-2.3-0.1-0.8-1.4l0.7-0.6l1.4,0c2.1,0.1,3.1,0,3.1-0.2c0-0.2-1.4-0.3-2.5-0.3c-0.7,0-1.3,0-1.3,0
			c0.5-0.7,1.1-1.2,1.7-1.8l1.9,0c1.4,0,2.2,0.1,2.2-0.2c0-0.2-0.5-0.2-1.1-0.2c-0.8,0-1.9-0.1-2-0.2c-0.1-0.1,0.1-0.5,0.7-1.1
			L96.9,106.7L96.9,106.7z M39.6,106.8c16.2,26.3,10.3,54.6-7.7,72.3l-0.5-3.4c17-20.6,20-41.8,6.2-66.8L39.6,106.8z M69.7,110.3
			c-2.9,4.3-7.3,8.6-9,12.2c-0.3,0.4-0.5,1.3-1,1.5c-0.3,0-0.4-0.5-0.3-1.7c0-0.9,0.1-1.2,0.6-2c2.3-4.2,4.9-7.1,7.9-11.1
			L69.7,110.3z M70.4,110.8l2.7,0.2c-0.6,1.9-1.4,3.2-2.4,4.5c-1.2,1.6-2.7,3.2-4.4,5.1c-2.5,2.8-3.7,5.6-3.6,6.9
			c-0.6,0.6-1,1.1-1.8,1.8l-1.6-1.4C60.5,121.8,66.1,116.3,70.4,110.8L70.4,110.8z M103.2,113.2l0.9,0.1c3,0.2,4.8,0.4,4.9,0.5
			c0.1,0.1,0.2,0.5,0.2,1c0.1,0.7,0,1.2-0.4,2.9c-0.3,1.1-0.5,2.1-0.6,2.2c-0.3,0.3-0.5,0-0.6-1.6c-0.1-1-0.1-1.7-0.3-1.6
			c-0.1,0-0.2,1.1-0.2,1.9c0.1,2,0.1,2.5-0.5,3.1c-1.1,1.1-1.2,1-1.2-0.9c0-0.8-0.2-1.9-0.3-2c-0.2-0.2-0.3,0.8-0.3,2.7v2l-0.5,0.6
			c-0.7,0.7-0.9,0.9-1.2,0.6c-0.2-0.2-0.1-0.5-0.1-1.6c0-1.3-0.2-2.1-0.5-1.8c0,0-0.1,1.3-0.1,2.4c0,1.1,0,2.1,0,2.2
			c0,0.3-1.3,1.5-1.5,1.5c-0.3,0-0.5-1.4-0.5-2.6c0-0.8-0.2-0.9-0.3-0.5c0,0.1-0.1,1.2-0.1,2.2v1.8l-0.7,0.8c-1,1-1.1,1-1.1-0.4
			c0-1.2-0.1-1.8-0.3-1.8c-0.1,0-0.2,0.6-0.2,1.9c0,0.9-0.1,1.8-0.1,2c-0.1,0.2-0.4,0.6-0.7,0.9c-0.3,0.3-0.7,0.6-0.7,0.6
			c-0.1,0-0.3-1.1-0.3-1.6c0-0.1,0-0.8,0-1.6c0-1.8,0.1-1.8-2.8-1.8c-3.5-0.1-3.5-0.1-2.5-1.1c1-1,0.9-0.9,3.1-0.8
			c1.8,0.1,2.1,0.1,2.2-0.1c0.1-0.1,0.2-0.2,0.1-0.3c0,0-0.7-0.1-1.6-0.1c-2.3-0.1-2.5-0.3-1.5-1.2l0.5-0.5h2.3
			c1.6,0,2.6-0.1,2.7-0.2c0.2-0.2-0.5-0.3-2-0.4c-0.8,0-1.6-0.1-1.7-0.1c-0.4-0.1-0.2-0.5,0.4-1.1l0.6-0.6h2.1
			c1.9,0,2.8-0.1,2.8-0.4c0-0.2-0.4-0.2-1.4-0.3c-1.4,0-2.3-0.2-2.4-0.3c0.3-0.7,0.8-1,1.4-1.6l2.1,0.1c2.1,0.1,2.8,0,2.8-0.4
			c0-0.2-0.9-0.3-2.1-0.3c-0.8,0-1.7-0.1-1.7-0.4c0-0.1,0.3-0.5,0.7-0.9l0.7-0.7l2,0.1c1.1,0,2.4,0,2.5,0c0.3-0.2-0.4-0.4-1.7-0.5
			c-2-0.1-2.1-0.3-1.1-1.3L103.2,113.2z M31.8,114.3c10.6,18.9,9,36.7-2.3,51.8c-1.3-0.8-2.7-1.2-4.2-1.3l-0.3-45.6L31.8,114.3z
			 M107.7,121.6c0.2,0,0.2,0.3,0.1,1c0,0.6-0.1,1.2-0.2,1.4c-0.1,0.3-0.2,0.3-1.3,0.2c-1.2-0.2-1.2-0.4,0.1-1.6
			C107.2,122,107.5,121.7,107.7,121.6L107.7,121.6z M50.7,122.5c0,0,1.4,0,2.1,0c0,0,0.1,3.5,0.4,5.6l4.5,0.2l-1.8,1.8l-3.5-0.1
			C52.5,130,51.5,125,50.7,122.5z M104.9,124.6c0.6,0,2.3,0.3,2.5,0.5c0.2,0.2,0.2,0.5,0,2.8c0,0.8-0.1,2.6-0.1,3.9
			c0,2.4,0,2.4-0.3,2.5c-0.4,0.1-0.4-0.1-0.5-1.7c-0.1-0.9-0.2-1.7-0.3-1.7c-0.1,0-0.1,0.8-0.1,2.4v2.1c-0.4,0.3-0.7,0.7-1.1,0.9
			c-0.3,0-0.4-0.4-0.5-1.5c-0.1-1.1-0.2-1.9-0.4-1.6c0,0.1,0,1.3,0.1,2.2l0.1,1.8l-0.8,0.8c-0.8,0.8-0.9,0.9-1.1,0.7
			c-0.3-0.8,0.1-4.5-0.6-5c-0.1-0.1-1.1-0.1-2.2-0.1c-1.9-0.1-3-0.1-3.3-0.3c-0.2-0.1,0.7-1.2,1.2-1.4c0.3-0.2,0.7-0.2,2.3-0.1
			c1.8,0.1,2.8,0.1,2.5-0.1c-0.1-0.1-1-0.2-1.7-0.3c-1.5-0.1-2-0.3-2-0.6c0.3-0.6,0.8-1,1.3-1.5l0.7,0.1c0.4,0,1.3,0.1,2.1,0.2
			c0.7,0.1,2.2,0.1,1.6,0c0.2-0.2-0.6-0.4-1.6-0.5c-2-0.2-2.2-0.5-1.2-1.5l0.6-0.6c1.1,0.1,2.1,0.1,3.2,0.3c0.8,0.1,1.2,0.1,1.2-0.2
			c0-0.2-0.4-0.2-1.3-0.4c-0.3-0.1-2.1,0-2.1-0.5C103.5,125.7,104.2,124.7,104.9,124.6L104.9,124.6z M58.3,128.9
			c0.3,0,0.3,0.7,0.4,2.7c0,2.1,0.1,2.5,0.3,2.7c0.2,0.2,0.6,0.2,2.5,0.3c2.9,0.1,3,0.2,1.9,1.2c-0.7,0.7-0.7,0.6-1.3,0.5
			c-1.5-0.2-3.8-0.1-3.9,0c-0.2,0.2,0,0.3,1.4,0.4c1.7,0.1,2.2,0.2,2.2,0.5c0,0.1-0.3,0.5-0.6,0.8l-0.6,0.6l-1.8-0.1
			c-1.9-0.1-2.9-0.1-2.9,0.2c0,0.2,1.1,0.3,2.8,0.5c0.4,0,0.9,0.1,0.9,0.1c0.1,0.2-0.8,1.2-1.3,1.6c-0.4,0.3-0.6,0.1-2.5,0.1
			c-1.9,0-2.1,0-1.7,0.4c0.1,0.1,0.4,0.1,1.1,0.1c1.2,0.1,1.7,0.3,1.7,0.5c0,0.3-1.1,1.4-1.6,1.6c-0.4,0.2-0.6,0.2-1.6,0.1
			c-0.8-0.1-0.9-0.3-0.9-1c0-0.3,0.1-2.4,0.1-4.6c0.1-4.3,0.2-4.5,0.7-4.5c0.2,0,0.3,0.3,0.4,1.8c0.1,1.6,0.1,1.9,0.4,1.9
			c0.1,0,0.1-0.6,0.1-2.1c-0.1-2.3-0.1-2.7,0.6-3.3c0.3-0.3,0.6-0.5,0.7-0.3c0.3,0.9,0.2,1.9,0.3,2.8c0,0.9,0.4,1.1,0.4,0.2
			c0-1.4-0.1-2.7-0.1-4.2l0.9-0.9C57.8,129.2,58.1,128.9,58.3,128.9L58.3,128.9z M52.7,130.6c0.3-0.1,2.3,0,2.6,0
			c-0.5,0.8-1.5,1.8-2.2,2.2C52.8,132.9,52.6,131,52.7,130.6z M107.5,134.9l0.4,2.9l-3.2-0.2L107.5,134.9z M64.9,135.3
			C64.9,135.3,65,135.3,64.9,135.3c0.3,0.1,0.3,0.7,0.4,3.3c0,1.3,0.1,2.2,0.2,2.3c0.1,0.1,0.5,0.2,1.2,0.2c0.6,0,1.7,0,2.5,0.1
			c1.7,0.1,1.7,0.2,0.7,1.2l-0.7,0.7l-2.1-0.1c-2.2-0.1-2.5-0.1-2.5,0.2c0,0.2,0.4,0.3,1.1,0.3c0.3,0,1,0,1.5,0.1
			c1.3,0.1,1.3,0.2,0.3,1.2l-0.7,0.7l-0.7-0.1c-1.1-0.1-3.9-0.1-4,0.1c-0.3,0.3,0.1,0.4,1.4,0.4c2,0.1,2.3,0.2,2.3,0.4
			c0,0.1-0.3,0.5-0.6,0.8l-0.6,0.6l-2.5-0.1c-1.8,0-2.4,0-2.4,0.1c-0.1,0.2,0.2,0.3,2,0.4c1.7,0.2,2,0.4,1.3,1.2
			c-0.7,0.9-1,1-2.4,0.9c-1.5-0.1-3-0.1-3.3,0c-0.3,0.2,0,0.4,1.1,0.4c1.6,0.1,2.6,0.3,2.6,0.5c0,0.3-0.5,1-1.1,1.3l-0.4,0.3
			l-1.9-0.2c-1.8-0.2-2.8-0.1-2.5,0.2c0.1,0.1,0.8,0.2,1.5,0.2c1.4,0.1,2.1,0.3,2.1,0.6c0,0.1-0.4,0.5-0.8,0.9
			c-0.4,0.4-0.9,0.7-0.9,0.7l-5.7-0.5c0,0-0.3-1,0.3-3.8c0.5-2.5,0.7-3,1-2.6c0.1,0.1,0.1,0.7,0.2,1.1c0.1,1,0.4,1.6,0.5,1.6
			c0.2,0,0.2-0.6-0.1-2c-0.3-1.9-0.3-2,0.4-2.8c0.6-0.7,1-0.8,1.2-0.5c0.1,0.1,0.1,1,0.2,1.7c0.1,1.3,0.2,1.6,0.4,1.4
			c0.1-0.1,0.2-0.5,0.1-2.4l-0.2-1.9l0.8-0.8c0.8-0.8,0.9-0.8,1-0.6c0.1,0.1,0.2,0.9,0.3,1.9c0.1,1.4,0.2,1.9,0.4,1.7
			c0.1-0.1,0.1-3.3-0.1-4.1c-0.1-0.5,0-0.6,0.6-1.2c0.7-0.8,1.1-1.2,1.3-1.2c0.3,0,0.4,0.8,0.4,1.9c0,1.1,0.1,1.6,0.2,1.7
			c0.3,0.4,0.3-0.9,0.2-2.2l-0.1-2.3l0.8-0.8c0.7-0.7,0.8-0.7,1-0.5c0.2,0.2,0.2,0.6,0.2,1.7c0.1,1.6,0.4,2.4,0.5,1.3
			c0-0.3,0-0.8,0-1.1c-0.1-0.4-0.1-1.2-0.1-1.8c0-1,0-1.2,0.3-1.6C63.6,136.2,64.6,135.4,64.9,135.3L64.9,135.3z M97.9,137.1
			c0,0,1.3,1.1,1.3,1.4c0,0.1-0.5,0.7-1.2,1.4c-1.3,1.2-1.4,1.4-1.5,2.8c-0.1,0.5-0.3,1.1-0.9,2.3c-0.4,0.9-1.1,1.9-1.1,1.9
			c-2,2.4-3.9,4.6-7.4,9.6c-0.2,0.5-0.2,0.9-0.4,1.3c-0.2,0.3-0.5,0.5-0.7,0.6c-0.2,0.1-0.7,0.4-1,0.6c-1.3,1-2.2,2.3-2.5,3.9
			c-0.2,0.9-0.3,1.7-0.7,4.4c-0.1,1.1-0.6,3.1-0.6,3.1c-7.6-0.1-14.7,1.2-21,4.7L97.9,137.1z M108,138.3l1.7,7.6l-1.7,0l-0.2-5.5
			l-5.4-0.5l1.9-1.9L108,138.3z M99.8,139c0.5,0.5,1,1,1.5,1.5c-1.4,4.8-6,11-10.6,17.2l-3.3-0.4c-0.1-0.1,4.6-6.6,6.9-9.1
			c0.9-1,1.4-2,2.2-3.5c0.3-0.5,0.8-2,1.1-3.4C98.3,140.4,99.8,139,99.8,139L99.8,139z M101.6,140.7l2.5,2.5l0.6,36
			c-3.9-3-8.5-5.3-13.4-7l0.9-1.9l0.9-1c3.3-3.6,2.6-7.4,0.1-10.1c3.1-4.5,5.9-7.8,8.2-12.2l0-3
			C101.3,141.2,101.6,140.7,101.6,140.7L101.6,140.7z M71.4,142.2c0.3,0,0.3,0.6,0.4,2.5c0.1,1.8,0.1,2.6,0.3,2.8
			c0.2,0.2,0.3,0.3,2.4,0.3c2.2,0.1,2.7,0.1,2.7,0.4c0,0.1-0.3,0.4-0.6,0.8l-0.6,0.6l-2,0c-1,0-2.3,0-2.3,0
			c-0.2,0.2,0.5,0.4,1.4,0.4c0.6,0,1.5,0.1,1.7,0.1c0.4,0.1,0.2,0.5-0.6,1.3l-0.8,0.8l-1.8,0c-1,0-2.2,0-2.3,0.1
			c-0.5,0.2-0.3,0.3,0.6,0.3c1.5,0,2.5,0.1,2.6,0.4c0,0.1-0.3,0.5-0.6,0.9l-0.7,0.7l-2.6-0.1c-2.5,0-2.8,0.2-0.7,0.4
			c0.8,0.1,2,0.3,2.1,0.3c0,0,0.1,0.1,0.2,0.2c0.1,0.2-0.9,1.3-1.4,1.6c-0.3,0.1-0.5,0.2-0.9,0c-0.6-0.1-3-0.1-3.2,0.1
			c-0.2,0.1,0.3,0.3,0.9,0.3c1,0,2.2,0.3,2.2,0.5c0,0.2-0.5,0.8-1.1,1.3c-0.3,0.2-0.9,0-2.5,0.1c-1.1,0-1.9,0.1-1.9,0.2
			c0,0.1,0.6,0.3,1.3,0.3c0.7,0.1,1.7,0.2,1.8,0.3c0.2,0.2-1.1,1.7-1.1,1.7l-5.5-0.1l-0.5-5.8l0.5-0.5c1-1.2,1.3-1,1.5,1.1
			c0.2,1.6,0.3,2.1,0.5,1.8c0.1-0.1,0.1-1,0-2.3c-0.1-1.1-0.1-2.1-0.1-2.2c0-0.3,1.2-1.6,1.5-1.6c0.2,0,0.4,0.6,0.5,2.1
			c0.1,1.2,0.2,1.5,0.4,1.3c0.1-0.1,0.1-0.7,0-2.3l-0.1-2l0.5-0.6c1.1-1.3,1.3-1.1,1.4,0.9c0.1,1.4,0.2,2.1,0.5,2.1
			c0.1,0,0.1-1,0-2.6l-0.1-2.3l0.7-0.7c0.4-0.4,0.7-0.7,0.8-0.7c0.3,0,0.4,0.6,0.6,2c0.2,1.5,0.2,1.8,0.4,1.7c0.1-0.1,0-1,0-2.2
			l-0.2-2.3l0.8-0.8c0.4-0.4,0.9-0.8,1-0.8c0.2,0,0.4,0.7,0.4,1.7c0,0.9,0.2,1.7,0.4,1.9c0.1,0.1,0.1-0.5,0.1-2.1
			c0-2.5-0.1-2.7,1-3.9C71,142.4,71.2,142.2,71.4,142.2L71.4,142.2z M100.9,143.2l0,3.5c-1.4,3-4.7,7.4-8,12.2l-1.7-0.9
			C95.4,152.5,98.8,147.5,100.9,143.2L100.9,143.2z M53.4,144.3c0.1,0,0.2,0,0.3,0c0.9,0.1,0.9,0.4,0.1,1.1
			c-0.4,0.3-0.7,0.6-0.9,0.6c-0.3,0-0.3,0-0.2-0.7C52.8,144.5,52.9,144.3,53.4,144.3L53.4,144.3z M107.6,146.8l2.5,2.4l0.6,25.8
			l-2.6,4.2L107.6,146.8z M110.7,150.2c2.2,5.2,4.5,10,7.1,13.9l-6.6,9.2L110.7,150.2z M88.7,158.3c3,0,5.8,2.3,6.1,4.7
			c0.7,2.8-0.8,5.7-3.1,6.7c-0.8,0.3-1.3,0.3-1.3,0.3c-0.3-1.7-0.2-3.3-0.5-5c0,0-1.4,1.8-2.2,2.5c-0.4,0.2-0.6,0.3-0.5-0.2
			c0-0.9,0.1-3,0.1-3l-3.5,3.6c0,0-0.3-0.4-0.6-1.3c-1.1-2.9,0.3-6,2.6-7.3C86.6,158.6,87.7,158.3,88.7,158.3L88.7,158.3z
			 M135,158.1l0.1,3.2c-5.5,4.2-13.3,13.1-19.9,24.6l-2.9,1.2C116.7,176.3,126.3,165.4,135,158.1z M135.1,162.2l0.1,4.7
			c-4.8,4.6-9,9.4-12.7,15.5c-2.1,1-6.1,2.9-6.1,2.9C115.9,185.2,127.1,167.8,135.1,162.2L135.1,162.2z M86.4,166.2
			c0.2,0,0.2,0.4,0.1,1c-0.2,1.4-0.3,1.9-0.8,2.6c-1.8,2.1-4.6,4.9-5,7.5c-0.2,1.4,0.9,2.7,2,2.6c3.4-0.4,3.7-6.3,4-9.3
			c0.1-0.7,0.2-1.3,0.3-1.6c0.7-0.9,1.5-1.8,2.4-2.5l0.4,4.5l1.9-0.6c-5.3,7.2-3.8,7.7-6.6,10.6c-2.6,2.7-7.7-0.4-6.4-4.6
			c1.1-2.8,2.9-5.6,3.3-8.6c0.1-0.9,0.2-1.5,0.2-1.5l1.2,2.5C84.1,168.3,85.9,166.3,86.4,166.2L86.4,166.2z M135.3,167.8l0,3.2
			c-2.5,2.8-4.6,4.9-7.2,8.8l-4,1.8C126.7,176.6,131,171.9,135.3,167.8L135.3,167.8z M85.9,170.6c0,0,0.3,1.5-0.3,4.3
			c-0.3,1.3-1.5,5.1-3.5,4.2c-1.7-1.5,0.4-4.2,1.4-5.5C84.3,172.6,85.2,171.6,85.9,170.6L85.9,170.6z M80.6,171l-1.1,2.3
			c-9.9,0-19.5,3.6-28,10.7l-2.2-0.7C58.4,174.9,69.6,170.7,80.6,171z M91,172.8c11.1,3.7,16.3,9.1,20.5,14.8l-1.8,0.9
			c-4.4-5.7-9.9-10.9-20-13.9L91,172.8z M78.2,176.3l-0.5,2c-6.2,0.2-12.8,2.4-19.2,6.8l-2.3-0.4C62.7,179.7,70,176.9,78.2,176.3z
			 M106.8,189.9l-2,0.9c-5.9-7.6-11.2-9.8-17.3-11.7l0.7-1.7C96.3,179.5,102.3,183.6,106.8,189.9z M24.4,180.9l0.2,20.3l-1.4-0.3
			l-0.2-19.7L24.4,180.9z M21.1,182c-2.7,10.1-0.6,12.7,0.4,18.6l-2.2-0.4c-2.2-6-2.4-11.4-0.6-17.8L21.1,182z M89.4,183.5
			c0.2,0.2-0.1,0.7-0.6,0.9c-0.4,0.2-0.3,0.2-1,0c-0.6-0.2-1.4-0.8-1.4-1C86.9,183.4,89,183.3,89.4,183.5z M91.3,183.7
			c0.4,0,1.4,0,1.5,0.4c0,0.2-0.4,0.5-1.3,1.1c-1.3,0.9-1.8,1.1-2.1,0.6c-0.4-0.4-0.3-0.8,0.4-1.4C90.4,183.9,90.7,183.7,91.3,183.7
			z M46.6,183.9c0.8,0,2.1,0.9,2.9,2c0.8,1.3,1.8,2.6,2.5,3.9c1.7,2.9,3.1,5.9,4.2,9c2.9,7.3,4.7,14.3,6.1,21.3c0,0.6-0.5,0.6-1,0.4
			c-0.2-0.1-0.4-0.2-0.5-0.3c-0.6-1.7-0.8-3.5-1.3-5.2c-1.2-4.3-1.6-6.8-3.8-12.8c-1.2-3.1-2.8-7.5-4.7-10.9
			c-1.2-2.2-2.5-4.2-4.3-5.9c-0.5-0.5-1-0.9-1-1C45.7,184.1,46,183.9,46.6,183.9L46.6,183.9z M94.2,184.1c0.7,0.2,2.4,0.4,1.7,0.9
			c-2.4,0.9-3.1,1.9-4.4,2.9c-0.2,0-0.9-0.9-0.9-1.1C91.6,185.5,92.9,185,94.2,184.1z M50,184.1c1,0,2,1.2,2.4,2
			c3,4.4,5.6,10.8,7.8,17c2.3,6.7,3.8,13.1,4.4,17.7c-0.1,0.1-0.3,0.2-0.7,0.2c-0.6,0-0.7-0.1-0.9-0.6c-1.6-7.5-3.7-15.3-6.3-21.9
			c-1.4-3.5-3-7.1-5.2-10.6c-1.5-2.2-2.4-3.3-2.3-3.5C49.3,184.2,49.6,184.1,50,184.1C49.9,184.1,49.9,184.1,50,184.1L50,184.1z
			 M43.2,184.3c1.3,0,3.5,1.6,5,3.6c3.2,4.3,5,9.4,6.9,14.3c2.2,5.6,3.7,11.9,4.7,16.8c0.2,0.7,0.4,1-0.3,1.2c-1-0.3-1-0.3-1.3-1.5
			c-0.4-1.3-0.5-2.6-0.9-4c-2.1-7.7-4.5-16.1-8.5-23.1c-4.8-7.6-6.2-5.5-6.9-6.8C41.9,184.5,42.5,184.3,43.2,184.3z M54.7,186.1
			c4.1,7.1,5.9,11.5,7.2,15.8c1.9,6.5,4.1,11.7,5.1,19.3c0,0-1.1,0-1.5-0.2c-0.2-0.2-0.4-0.9-0.5-1.6c-1-5.4-2.6-11.7-4.3-16.7
			c-1.8-5.6-4-10.9-7.3-16c-0.8-1.4-1-1.9-0.5-1.9C53.9,184.9,54.3,185.6,54.7,186.1L54.7,186.1z M97.5,185.4c0.2,0,0.3,0,0.6,0.1
			c0.5,0.2,0.7,0.3,0.7,0.5c0,0.3-0.3,0.4-1.3,0.7c-0.8,0.2-2.4,1-3.6,2c-0.5,0.4-1,0.9-1.1,0.9c-0.3,0-0.9-0.7-0.9-1
			C92.8,187.2,95.6,185.5,97.5,185.4L97.5,185.4z M40.9,185.5c3.5,0.1,6.2,4.1,7.6,6.8c0.6,1.1,1.3,2.2,1.8,3.4
			c2.8,6.3,5.2,14.1,6.4,19.2c0.6,2.4,1.2,4.2,1,4.7c-0.3,0.2-0.9,0-1.2-0.2c-0.2-0.1-0.3-0.7-0.6-1.7c-0.8-2.6-2.2-10-5.7-17.8
			c-0.1-0.2-1.8-5.1-4.7-9.8c-1.2-1.9-3.1-3.1-4.9-3.5c-0.9-0.1-1.1,0-1.1-0.5c0-0.3,0.1-0.4,0.6-0.5
			C40.4,185.6,40.6,185.5,40.9,185.5L40.9,185.5z M62.6,201.6c-0.2,0-0.4-0.5-0.6-1.2c-0.1-0.4-0.2-0.6,0.5-1.1
			c4.3-4.6,0.6-11.3-4.8-11.8c-0.5-0.1-1.2-0.1-1.3-0.1c-0.3-0.2-0.8-1.1-1-1.5C62.8,184,70.8,194.7,62.6,201.6L62.6,201.6z
			 M100,186.7c0.4,0.1,1.4,1,1.3,1.2c-0.1,0.2-1,0.2-2.2,0.5c-2.6,0.5-3.7,2.1-4.9,3.4c-0.3,0.1-0.5-0.1-0.7-0.5
			c-0.2-0.3-0.3-0.7-0.3-0.8C94.5,188.5,98,186.5,100,186.7L100,186.7z M39.1,187.3c2.2,0,4.4,1.1,5.6,2.8
			c4.5,6.7,9.6,21.6,10.8,28.9c-0.1,0.2-0.4,0.3-1.1,0.1c-0.3-0.1-0.3-0.2-0.5-0.9c-1.4-5.3-3-10.5-4.8-15.3c-0.9-2.5-2-4.9-3.1-7
			c-0.7-1.4-2-3.8-2.5-4.5c-1.2-2.2-3.6-2.9-5.1-2.1c-1.6,0.8-1.8,2.8-0.6,3.7c1,0.7,2.5,0.6,3.1-0.5c0.2-0.4,0.1-0.8,0-1
			c-0.1-0.1-0.3-0.1-0.4,0c0.1,1.3-1.6,1.4-2.3,0.9c-1.2-0.9-0.4-3.6,2.8-2.5c1.2,0.6,1.6,1.8,1.1,3.1c-0.6,1.3-1.5,1.9-2.9,1.9
			c-1.7,0-3.7-1.2-3.7-3.4c0-1.6,0.8-3,2.2-3.9C38.2,187.3,38.4,187.3,39.1,187.3L39.1,187.3z M57.7,188.3c5.3,0.2,7.8,6.5,5,10.2
			c-0.7,0.9-1.2,0.7-1.5-0.4c-0.1-0.5-0.3-0.5,0.1-0.9c2.5-2.4,0.4-7-3.7-7.2c0,0-0.8-1.1-0.8-1.7C57.1,188.2,57.4,188.3,57.7,188.3
			L57.7,188.3z M102,188.7c0.4,0.1,1.3,0.9,1.3,1.2c0,0.3-0.2,0.3-1.1,0.1c-2.2-0.4-4.5,0.9-6.3,3.7c-0.9,1.7-1,1.5-1.5,0.1
			c-0.2-0.7-0.2-0.7,0.7-2.1C96.8,189.4,99.4,188.4,102,188.7L102,188.7z M104.1,191.5c1.9,1.7,1,5.4-1.5,5.8
			c-2.2,0.3-4.2-2.1-2.8-3.8c0.9-1,2.1-1.1,2.8-0.2c0.7,0.9,0.4,2.1-0.6,2.2c-0.1,0-0.2,0.1-0.2,0.2c0,0.2,0.9,0.2,1.2-0.1
			c0.6-0.7,0.6-1.7,0.1-2.5c-0.5-0.7-1.6-1.2-2.4-0.9c-1.5,0.5-3,2.6-3.9,5.1c-0.2,0.7-0.4,1.4-0.5,1.5c-0.2,0.3-0.2,0.3-0.4,0.2
			c-0.2-0.1-0.5-1.7-0.5-2.3c0-0.5,0.4-1.6,0.9-2.7C97.8,191.2,101.5,189.2,104.1,191.5L104.1,191.5z M58.5,190.8
			c2.2,0.1,3.9,3.2,3,5.3c-0.3,0.4-0.7,0.7-0.9,0.4c-0.1-0.1-0.4-1.1-0.9-2.2c-0.5-1.1-0.9-2.1-1-2.4
			C58.3,191.3,58,190.8,58.5,190.8z M43.7,192.6c2.5,4.4,4.6,9.4,6.3,14.3c1.3,3.8,2.4,7.5,3.1,10.8c0.1,0.3,0.1,0.5,0,0.7
			c-0.2,0.2-1.4-0.4-1.4-0.4c-2.1-7.1-3.8-14.2-8.7-23.3c0,0-0.2-0.4-0.3-0.6c-0.1-0.6,0.1-1.3,0.4-1.7
			C43.2,192.3,43.4,192.3,43.7,192.6L43.7,192.6z M15.9,200.8c11.7,0.8,20.8,5.7,25.7,18.7c-1.7-1-10.5-7.6-25.5-8.5l0-1.8
			c10.8-0.1,21.3,5.5,21.1,5.4c-4-8.2-14.1-11.6-21.3-11.8L15.9,200.8z M97.3,203.4c-0.7,1.2-0.7,1.1-1.1,2.1c0,0.3,0.1,2.3,0.1,3.5
			c0.1,1.5,0.1,2.1,0.2,2.3c0.2,0.2,0.6,0.3,0.8,0.1c0.1-0.1,0.2-0.4,0.3-0.7c1-3.6,1.4-5,1.8-5.4c0.3-0.3,0.3-0.3,1.4-0.2
			c2.4,0.2,3.2-2.6,1.6-3.8C100.4,200.1,98.2,202.1,97.3,203.4z M99.8,204.2c-1.7,1.4-1.8,3.4-2.3,5.3c-0.3,1.2-0.7,1.9-0.8,0
			c-0.3-2.6,0.1-4.6,1.2-6.1c0.7-1.1,1.9-1.9,2.9-2c2.2-0.2,2.5,1.6,1.8,2.6C102.2,204.7,100.9,205,99.8,204.2z M19,205.1
			c0.8,0,1.5,0.7,1.5,1.5c0,0.8-0.7,1.5-1.5,1.5c-0.8,0-1.5-0.7-1.5-1.5C17.4,205.7,18.1,205.1,19,205.1z M23.8,206.1
			c0.8,0,1.4,0.6,1.4,1.4c0,0.7-0.6,1.4-1.4,1.4c-0.8,0-1.4-0.6-1.4-1.4C22.5,206.7,23.1,206.1,23.8,206.1z M28.3,207.6
			c0.6,0,1.1,0.5,1.1,1.1c0,0.6-0.5,1.1-1.1,1.1c-0.6,0-1.1-0.5-1.1-1.1C27.2,208.1,27.7,207.6,28.3,207.6z M31.4,209.6
			c0.5,0,0.9,0.4,0.9,0.9c0,0.5-0.4,0.9-0.9,0.9c-0.5,0-0.9-0.4-0.9-0.9C30.6,209.9,31,209.6,31.4,209.6z M20.4,212.3
			c-0.3,1.6-0.1,3.3,0.3,4.5c0.9,2.5,0.5,7,0.5,7l-2.5,2.5c0.2-2.4,0.5-4.8,0.3-6.8c-0.1-1.3-0.7-2.5-0.8-3.9
			c-0.1-1.2,0.1-3.7,0.1-3.7L20.4,212.3z M24.5,213l0.1,10.7l-8.7,8.4l0-2.2l7.4-7.3l-0.2-9.9L24.5,213z M46,237.5l-0.6,0.9h9.8
			l0.2-0.9H46z M58.7,237.5l-0.2,0.9h4.6l0.2-0.9C63.2,237.5,60.8,237.5,58.7,237.5z M66.2,237.5l-0.1,0.9H83l-0.3-0.9H66.2z
			 M86,237.5l0.3,0.9h4.5l-0.4-0.9H86z M93.5,237.5l0.3,0.9h7.7l-0.6-0.9H93.5z"/>
		<path id="path35-67-2-1-9_1_" class="st3" d="M3.8,19.3v2.8h2.7c0,0,0.1,2.7,0.1,8.4c0,5.5,0.1,8.3-0.2,9.8c-1,3.6-6.2,3.6-7.3,1
			c-0.6-1.5-0.4-2.7-0.5-4.2h-2.9c0,0,0,0.8,0,1.7c0,4.1,1.4,6,4.6,6.8c3.3,0.9,7.1-0.5,8.4-3.2c0.8-1.6,0.7-1.7,0.7-11.2
			c0-6.4,0.1-9,0.1-9H12v-2.8H3.8L3.8,19.3z"/>
		<path id="path35-6-7-1-4_1_" class="st3" d="M156.2,247.8v-2.8h-2.7c0,0-0.1-2.7-0.1-8.4c0-5.5-0.1-8.3,0.2-9.8
			c1-3.6,6.2-3.6,7.3-1c0.6,1.5,0.4,2.7,0.5,4.2h2.9c0,0,0-0.8,0-1.7c0-4.1-1.4-6-4.6-6.8c-3.3-0.9-7.1,0.5-8.4,3.2
			c-0.8,1.6-0.7,1.7-0.7,11.2c0,6.4-0.1,9-0.1,9h-2.5v2.8H156.2L156.2,247.8z"/>
	</g>
</g>
</svg>
