<?xml version="1.0" encoding="utf-8"?>
<!-- Generator: Adobe Illustrator 23.0.1, SVG Export Plug-In . SVG Version: 6.00 Build 0)  -->
<svg version="1.1" xmlns="http://www.w3.org/2000/svg" xmlns:xlink="http://www.w3.org/1999/xlink" x="0px" y="0px"
	 viewBox="0 0 180 250" style="enable-background:new 0 0 180 250;" xml:space="preserve">
<style type="text/css">
	.st0{fill:#FFFFFF;}
	.st1{fill:#E2CF00;}
	.st2{fill:#131F67;}
	.st3{fill:#D40000;}
	.st4{fill:#100F08;}
</style>
<g id="white-background">
	<rect class="st0" width="180" height="250"/>
</g>
<g id="Layer_1">
	<g id="g8436-8-0_1_" transform="matrix(0.99553774,0,0,0.99680134,-42.89003,79.60164)">
		<g id="g8473-4-9_1_">
			<path id="path6882-1-0_1_" d="M91.6-53.6C84.1-43,76.1-36.9,76-28.6c0,2.7,1.4,7.2,6,8.1c3,0.6,7-1.8,7.1-6.6c0-1,1-0.9,1,0.4
				c-0.1,3.8-1.4,8.2-3.4,11.9c3.3,0,6.5,0,9.8,0c-2-3.6-3.3-8-3.4-11.9c0-1.3,1-1.3,1-0.4c0.1,4.8,4.2,7.2,7.1,6.6
				c4.6-0.9,6-5.4,6-8.1C107-36.9,99-43,91.6-53.6L91.6-53.6z"/>
			<path id="path6884-6-5_1_" d="M57-39.7c-3.5,4.4-7.2,6.9-7.3,10.4c0,1.1,0.7,3,2.8,3.4c1.4,0.2,3.3-0.8,3.3-2.8
				c0-0.4,0.5-0.4,0.5,0.2c-0.1,1.6-0.6,3.4-1.6,4.9c1.5,0,3,0,4.6,0c-1-1.5-1.5-3.4-1.6-4.9c0-0.5,0.5-0.6,0.5-0.2
				c0,2,1.9,3,3.3,2.8c2.1-0.4,2.8-2.3,2.8-3.4C64.3-32.7,60.5-35.3,57-39.7L57-39.7z"/>
			<path id="path6888-1-5_1_" d="M209.9,130.7c-3.5-4.4-7.2-6.9-7.3-10.4c0-1.1,0.7-3,2.8-3.4c1.4-0.2,3.3,0.8,3.3,2.8
				c0,0.4,0.5,0.4,0.5-0.2c-0.1-1.6-0.6-3.4-1.6-4.9c1.5,0,3,0,4.6,0c-1,1.5-1.5,3.4-1.6,4.9c0,0.5,0.5,0.6,0.5,0.2
				c0-2,1.9-3,3.3-2.8c2.1,0.4,2.8,2.3,2.8,3.4C217.2,123.8,213.4,126.3,209.9,130.7L209.9,130.7z"/>
			<path id="path6890-4-9_1_" d="M175.4-53.6c-7.5,10.6-15.5,16.7-15.6,24.9c0,2.7,1.4,7.2,6,8.1c3,0.6,7-1.8,7.1-6.6
				c0-1,1-0.9,1,0.4c-0.1,3.8-1.4,8.2-3.4,11.9c3.3,0,6.5,0,9.8,0c-2-3.6-3.3-8-3.4-11.9c0-1.3,1-1.3,1-0.4c0.1,4.8,4.2,7.2,7.1,6.6
				c4.6-0.9,6-5.4,6-8.1C190.9-36.9,182.9-43,175.4-53.6L175.4-53.6z"/>
			<path id="path6902-7-5_1_" d="M91.6,144.6C84.1,134.1,76.1,128,76,119.7c0-2.7,1.4-7.2,6-8.1c3-0.6,7,1.8,7.1,6.6
				c0,1,1,0.9,1-0.4c-0.1-3.8-1.4-8.2-3.4-11.9c3.3,0,6.5,0,9.8,0c-2,3.6-3.3,8-3.4,11.9c0,1.3,1,1.3,1,0.4c0.1-4.8,4.2-7.2,7.1-6.6
				c4.6,0.9,6,5.4,6,8.1C107,128,99,134.1,91.6,144.6L91.6,144.6z"/>
			<path id="path6904-9-7_1_" d="M175.4,144.6c-7.5-10.6-15.5-16.7-15.6-24.9c0-2.7,1.4-7.2,6-8.1c3-0.6,7,1.8,7.1,6.6
				c0,1,1,0.9,1-0.4c-0.1-3.8-1.4-8.2-3.4-11.9c3.3,0,6.5,0,9.8,0c-2,3.6-3.3,8-3.4,11.9c0,1.3,1,1.3,1,0.4c0.1-4.8,4.2-7.2,7.1-6.6
				c4.6,0.9,6,5.4,6,8.1C190.9,128,182.9,134.1,175.4,144.6L175.4,144.6z"/>
			<path id="path19-08-0-9_1_" d="M57.2-42.2v-2.3h2.1v-3.9H48.7v-2.7l11.5-17.6l1.9,0v17.6h3.3v2.7h-3.3L62-44.5h1.8v2.3L57.2-42.2
				L57.2-42.2z M59.3-62.3L52-51.1h7.3V-62.3z"/>
			<path id="path19-08-1-1-4_1_" d="M209.8,133.3v2.3h-2.1v3.9h10.7v2.7l-11.5,17.6l-1.9,0v-17.6h-3.3v-2.7h3.3l0.1-3.9h-1.8v-2.3
				L209.8,133.3L209.8,133.3z M207.6,153.4l7.3-11.2h-7.3V153.4z"/>
		</g>
	</g>
</g>
</svg>
