<?xml version="1.0" encoding="utf-8"?>
<!-- Generator: Adobe Illustrator 23.0.1, SVG Export Plug-In . SVG Version: 6.00 Build 0)  -->
<svg version="1.1" xmlns="http://www.w3.org/2000/svg" xmlns:xlink="http://www.w3.org/1999/xlink" x="0px" y="0px"
	 viewBox="0 0 180 250" style="enable-background:new 0 0 180 250;" xml:space="preserve">
<style type="text/css">
	.st0{fill:#FFFFFF;}
	.st1{fill:#E2CF00;}
	.st2{fill:#131F67;}
	.st3{fill:#D40000;}
	.st4{fill:#100F08;}
</style>
<g id="white-background">
	<rect class="st0" width="180" height="250"/>
</g>
<g id="Layer_1">
	<g id="g8409-3-3_1_" transform="matrix(0.99553774,0,0,0.99680134,138.38974,79.60164)">
		<path id="path153-0-1-2-5-5-5-3-4_1_" d="M-125.1-39.7c-3.5,4.4-7.2,6.9-7.3,10.4c0,1.1,0.7,3,2.8,3.4c1.4,0.2,3.3-0.8,3.3-2.8
			c0-0.4,0.5-0.4,0.5,0.2c-0.1,1.6-0.6,3.4-1.6,4.9c1.5,0,3,0,4.6,0c-1-1.5-1.5-3.4-1.6-4.9c0-0.5,0.5-0.6,0.5-0.2
			c0,2,1.9,3,3.3,2.8c2.1-0.4,2.8-2.3,2.8-3.4C-117.8-32.7-121.6-35.3-125.1-39.7z"/>
		<path id="path153-0-1-2-5-6-5-9-1-9_1_" d="M27.9,130.7c-3.5-4.4-7.2-6.9-7.3-10.4c0-1.1,0.7-3,2.8-3.4c1.4-0.2,3.3,0.8,3.3,2.8
			c0,0.4,0.5,0.4,0.5-0.2c-0.1-1.6-0.6-3.4-1.6-4.9c1.5,0,3,0,4.6,0c-1,1.5-1.5,3.4-1.6,4.9c0,0.5,0.5,0.6,0.5,0.2
			c0-2,1.9-3,3.3-2.8c2.1,0.4,2.8,2.3,2.8,3.4C35.1,123.8,31.3,126.3,27.9,130.7L27.9,130.7z"/>
		<path id="path153-6-3-1-6-92-7-2-9-8_1_" d="M-48.6,26.2c-7.5,10.6-15.5,16.7-15.6,24.9c0,2.7,1.4,7.2,6,8.1c3,0.6,7-1.8,7.1-6.6
			c0-1,1-0.9,1,0.4c-0.1,3.8-1.4,8.2-3.4,11.9c3.3,0,6.5,0,9.8,0c-2-3.6-3.3-8-3.4-11.9c0-1.3,1-1.3,1-0.4c0.1,4.8,4.2,7.2,7.1,6.6
			c4.6-0.9,6-5.4,6-8.1C-33.1,42.9-41.1,36.8-48.6,26.2z"/>
		<path id="path41-4-9-2_1_" d="M-133.2-42.2v-2.3h2.2l4.6-24.3h2.6l5.1,24.3h1.8v2.3h-6v-2.3h1.6l-0.6-3.7h-6.1l-0.5,3.7h1.6v2.3
			H-133.2z M-122.4-50.8l-2.6-13l-2.5,13H-122.4z"/>
		<path id="path41-4-2-4-0_1_" d="M19.7,133.3v2.3h2.2l4.6,24.3h2.6l5.1-24.3H36v-2.3h-6v2.3h1.6l-0.6,3.7h-6.1l-0.5-3.7h1.6v-2.3
			H19.7L19.7,133.3z M30.5,141.9l-2.6,13l-2.5-13H30.5L30.5,141.9z"/>
	</g>
</g>
</svg>
