<svg id="Layer_1" data-name="Layer 1" xmlns="http://www.w3.org/2000/svg" viewBox="0 0 180 250"><defs><style>.cls-1{fill:#e2cf00;}.cls-2{fill:#131f67;}.cls-3{fill:#d40000;}</style></defs><title>all_cards</title><g id="g5584"><g id="g11322-4-2"><path id="path147-6-9-8-7-0-5-6-79-2-4" d="M166.12,209.93c3.17-.07,4.59-3.76,2.24-6.62-.34-.42-.37-.66.25-.26,1.58,1.1,4.6.38,4.76-3,.19-4.12-5.37-5.3-6.41-.93-.05.47-.42.46-.33-.2A14,14,0,0,1,168,193.9h-3.76a14.22,14.22,0,0,1,1.37,5.06c.08.66-.28.67-.34.2-1-4.37-6.6-3.19-6.4.93.15,3.34,3.18,4.06,4.76,3,.62-.4.59-.16.24.26-2.34,2.86-.92,6.55,2.25,6.62Z"/><path id="path147-6-9-8-7-4-5-62-3-3-7" d="M13.88,40.07c-3.16.07-4.58,3.76-2.24,6.62.34.42.38.66-.25.26-1.58-1.1-4.6-.38-4.76,3C6.44,54,12,55.21,13,50.84c.06-.46.42-.45.33.2A13.81,13.81,0,0,1,12,56.1h3.77A13.81,13.81,0,0,1,14.4,51c-.09-.65.27-.66.33-.2,1,4.37,6.6,3.19,6.41-.93C21,46.57,18,45.85,16.37,47c-.62.4-.58.16-.24-.26,2.34-2.86.92-6.55-2.25-6.62Z"/><path id="path35-5-6-2" d="M13.8,11.1v2.76h2.7s.07,2.67.09,8.34c0,5.5.13,8.22-.22,9.79-1,3.61-6.21,3.63-7.25,1a10.24,10.24,0,0,1-.47-4.2H5.74s0,.77,0,1.7c0,4.06,1.37,6,4.53,6.77s7.05-.46,8.41-3.22c.8-1.58.71-1.69.73-11.21,0-6.35.11-9,.11-9H22V11.1Z"/><path id="path35-6-4-1-2" d="M166.2,238.91v-2.77h-2.7s-.07-2.67-.09-8.34c0-5.5-.14-8.22.22-9.79.94-3.61,6.2-3.63,7.25-1a10.24,10.24,0,0,1,.47,4.2h2.91s0-.77,0-1.7c0-4.06-1.37-6-4.53-6.77s-7.06.46-8.41,3.23c-.8,1.57-.71,1.68-.73,11.2,0,6.35-.11,9-.11,9H158v2.77Z"/></g><g id="g5275-8-4-5"><g id="layer1-1-8-4-5"><g id="g3799-8-1-3"><path id="path3306-4-9-5" class="cls-1" d="M130.31,24c.69-1,3.67,5.87,5.58,11.06.94,2.55,2.2,4.66,1.68,5.33-1.36,1.37-4.89.14-7.46-1.82a22.62,22.62,0,0,1-4.68-5.19Zm24.06,5.08.11,4a89.51,89.51,0,0,0-8.74,8.69l9.17.05c-.08,49.5.08,148.7.08,148.7s-10.2-10.29-10-10.33c0,0-.29-59.94-.33-100.26-.08-.19,5.33-.2,5.68-2.83.22-1.75-5.68-1.51-5.77-1.62,0-18.13-.05-30.92-.05-30.92l-5.42-.18ZM122.53,47.74c.79,1.57,2,7.58,3,7.44,4.41-1.46,5.83,5,1.27,5.36-1.73.12-3.66-2.12-4.74-4.91-.52-1.46,0-8.48.47-7.89Zm-1,9c1.3,2.12,2.54,9.85,4.91,9.41a2.73,2.73,0,0,1,3.33,3.06c-1.11,4.64-9,.23-11.11-.84A53,53,0,0,0,121.54,56.76Zm16.71,21.81c-1.81,4.09-1.32,7.44.22,11.56-4.71,2-9.35,4.41-14,6.82,0,0-.23-16.12,1.3-23.48.53-1.12,2.44-.23,3.54.32A74.11,74.11,0,0,1,138.25,78.57Zm-83.49,74c1,7.62.26,19.47-1.1,24.16-.52,1.58-11.42-5.57-12.21-6.06,2.14-4-.79-13.19-.47-11.54.76-.52,13.53-7.33,13.78-6.56Zm4.68,31.61c-.2.49-1,6.19-1.27,6.21-.83.07-2-5.58-4.15-7.45-4,.46-4.45-2.23-3.67-3.53-.19-.57,1.29-1.81,2.67-1.7C56.45,179.08,61.08,180.27,59.44,184.21Zm45.69,9.73s-3,16.76-3,16.74C94.73,211.75,87.6,213,81,212.22c1.3-17.42,3.35-32.49,9-35.1l-11.65-9.34s-12.93,8-12.19,7.92c.32-.09.57-6.84.76-17.75-.33-28.49-16.78-57.33-17.42-57-.35-.23,14-1.35,24.34,3.08l.46-37.73s-5.11-2.54-6.06-3.72c-1.89-6.56,3.21-8.24,6.26-6.6,1.43-5,3.6-17.32,3.68-17.31A96.51,96.51,0,0,1,99.24,37a108.92,108.92,0,0,0-2.32,16.05C96,61.77,94.24,70,89.65,72c.82-.33,11.49,9,11.49,9l13-7.94c-4.19,27.14,3,53.51,15.32,74.84-6.22.72-13.27.38-24.27-2.9,0,0,.62,37.8.62,37.59C117.94,187.3,111.3,196.6,105.13,193.94Zm-47.32,3.38c-.05.39-.23,4.66-.23,4.66-1.72-2-3.11-7.93-3.45-7.83,0,0-2.21.35-2.9-.38-2.24-2.38,0-5.2,2.2-4.67S58.12,193.48,57.81,197.32ZM34.93,69.17s.48,67,.47,100.63c-8.51-.13-6.84,4.58.11,4.09l0,31,4.61.17s-8.67,9-14.17,14.79l-.13-2.93,8.37-9-8.67,0,0-148.64ZM49.4,224.86c-2.1.46-4.29-9.19-7.93-15.05,4.14-2.47,10.67,2.23,12.13,6C52.65,219,49.34,224.83,49.4,224.86Z"/><path id="path3304-4-6-6" class="cls-2" d="M156.12,230.83V19.17H23.88V230.83Zm-43.83-44.57c-.17-.34-.47-.84-.47-.84a2.18,2.18,0,0,0,.54-.22c15.33-5.66,31.72-18.27,32-18.64v13.95l10.14,10.67V229H114.64L103,209.49c.7-5.11,2.52-15,2.52-15,1.08.26,4.7.6,6.65-2.2.93-1.33,1.43-3.15.17-6ZM37.58,142.73l-1.52,1.91,2.67-.12-1.83,2,3,.07-2.3,2,3.11,0-2.31,1.92,3.4-.16-2.44,2.09h3.37l-2.51,2.1,3.29.05-2.14,1.88,2.87,0L41,158.74a14.22,14.22,0,0,0-5.12-1l0-15.32Zm-2.33,26.56c-7.59,0-9.21,4,0,4.67-.17,10.18.41,30.56.41,30.56l5,.12S27.23,219.08,26,220.25c-1.14-48.52-1.09-161.17-1.09-161.17L35.11,69.3l.11,31.85c3.42,3.47,5.39,8.52,7.42,11.8l5.6,2.71-1.31,4.49.56,1.28,1.75-6.36-6.13-2.9-.64-1.31,1-6-5.8-2-1-1.38.36-5.84-1.22-.37V94.14l1.21.1.43-6.56-1.64-.48V85.72s1,0,1.43,0A8.73,8.73,0,0,1,39,87.48l-.58,7.29,7.35,1.47.55.77-1.36,7.29,7.72,2.35c-.8-1.94-1.84-3.76-2.72-5.67,1.06-.31,2.17-.38,3.24-.61.29-9.84,0-20.08.26-29.33,6.21-.45,3.29.14,6,.1a1.91,1.91,0,0,0,1-3.52l1.07-.38,1.87,2.11L59.5,73.1l0,1.07,4.86-4.84-2.1-2.42,1.25-.65,1.91,2s4.13-4.21,3.87-4.29a1.42,1.42,0,0,1-.51-.47c-2.94-6.33,1.07-9.35,5.92-7.6,1.23-5.83,2.4-11.09,3.37-17.13,3.62-1.36,20.65-2.15,20.84-1.84,0,0,.43.41.45.62s.49-.56.49-.56c0-.36,14.84.37,22.17,1.76a7.22,7.22,0,0,1,.09,1.63c-.13,1.85,0,1.83-1.67,1.56-3.46-.23-6.13.95-7.2,4-.59,1.7-.32,3.23.6,7.77s.89,3.94.78,4.54-.88,1.48-2,2.36c-.82.66-.91,1.92-.25,1.22a4.88,4.88,0,0,1,2-1.26c1.68-.88,1.63-1.73.63-5.35-.46-1.7-1-3.54-1-3.75,0-.67.19-.39,1.19.29a21.78,21.78,0,0,0,2,1.24c2,1.07,1.11-.1-.82-1.39C115,50.49,114.71,50,116,50.54a7.17,7.17,0,0,0,4.81-.25c.3-.17.52-.15.57.12.07.42-.19,1.49-.31,4-.28,6.23-1.75,12.87-5.9,16.71-5.94,5.49-15.7,1.76-21.11-3.33l-.59.89c3.63,3.05,9.94,6.85,16.07,6.11-2.56,2.14-8.22,5.68-8.22,5.68-3.89-2.81-6.75-5.62-11-8.66l-.74.49,11.72,9.28,12.63-8.31s-.53,8-.73,10.89l5.48-4.84L114.47,73l4.48-4.6s-.76.1.07-1.32c1.26-2.55,2-6.66,2.6-10.84-.11-3.12.66-6.57.9-9.32a24.23,24.23,0,0,0,1.85,6.26c.88,2.25,1.22,2.24,2.21,1.91,5.36-.45,2.93,9.87-3.4,3.12-.28-.29-.73-.64-.75-.57-.14.41,1.68,5.85,2.38,7.1s.74,1.51,1.84,1.4c2.06-.21,2.76.52,3,2.68-.28,4.1-4.71,2.37-7.55,1.11-.26-.2,1.33,1.44,1.9,2a3.26,3.26,0,0,1,.9,1.29l-.17,2.18-4.34,4,3.57,5.26-.15,1.89L120,91.13,124,95.54l0,1.57-3.31,4.4,4.44,3.54.21,1.42s-2.84,5.25-2.77,5.45,4.8,3.42,4.8,3.42l.48,2.21-2.06,5.61L130.8,126l.9,2.54-1.39,5.19,5.11,2.36,1.46,2.93-.95,5.46,5.72,1.69,1.52,2.4-.2,4.81,1.4.14,0,1.19-1.56,0a9.08,9.08,0,0,1,0,2.55c-.29,4-.32,3.88.64,4,2,.35,1.57,1.6-.51,1.37-.32,0-.58-.06-.81-.11-.55-.1-1-.81-1-.81l.46-7.45L134.23,153l-.7-.93,1.23-6.91-6.88-2-.92-1.68,2-7.18-6.93-3-.46-1.33,2.94-6.38-6.36-3.08-.4-1.53,3.53-6.58-7.33-5.33s.19.52.49,1.39l5.81,4.15-2.94,5.61s-.24-.41-.49-.32c.15.94.27,1.88.33,2.8l3,7.81-9.72,6.53c4.16,2.5,9.42,2.42,14.24,3.35a6.73,6.73,0,0,0,.57,1.27c1.4,2.25,2.67,5.11,4.23,8a9.23,9.23,0,0,1-2.89.72c-1.71,9.61-3.41,20.66-6.14,29a2.16,2.16,0,0,0-1.41,3.79l-.85.22c-.39,0-2-1.75-2-1.75l4.09-4,0-1.33c-1.63,1.7-5.22,5.37-5.22,5.37l2.16,2.27-1.07.5-1.75-1.93-3.93,4-1-.68a48.51,48.51,0,0,1,4.17-4.36c-1-1.22-5.05-5.08-5.05-5.08v1.33l4,3.83-3.85,3.83-.22.26s-3-1.32-3.25-1.32c1.3,1.07,3.63,2,4.9,2.9,5.74,3.38.29,10.37-5,8.64-.15-.57-2.91,14.74-2.6,15.59-.28,2.37-.35,2,.48,3.39,2.46,5.67,9.65,16.4,9.65,16.4L48,229.74a25.72,25.72,0,0,0,1.86-3.91,22.74,22.74,0,0,1-5-8.75,15.52,15.52,0,0,0-3.67-7.21c0-.07.06-.15.18-.23,5.11-1.8,10.94,2.56,12.73,7.53L57,212.39c-1.33-.15,19.53,2.36,24.65,1.73-.46-.09-1-.47-.69-1.9.52-2.47,1.45-11.4,1.45-11.4,1-8.7,1.82-19.62,7.57-23.23a10.76,10.76,0,0,0-1.64-1.41s.67.71.7.79a.7.7,0,0,1-.32.55,14.54,14.54,0,0,0-2.65,3.08c-4.74-4.11-12.16-7.65-16.63-6.18-1.76.37-2.54,2.07-3.48.69A99.54,99.54,0,0,0,66.65,153c-.73-14.4-3.92-22.65-7.07-32.85,1.62-.57,10-6.15,10-6.15,0-.71-10.05-3-14-2.61,0,0-.81-.79-.81-.62l.07.15a1.93,1.93,0,0,0-1,1.67,1.9,1.9,0,0,0,1.91,1.91,2.12,2.12,0,0,0,.57-.08c.5,1.22.92,2.28.92,2.28l-5.61-2.43,1.83-6.13-.61-1.36-2.23,8,7.16,3.06.48,1.41-3,6.06,6.4,3.78.27,1.2-3.44,6.5,6.19,4.75-4.53,5.85L65.72,152l-.06.78L61,158.09,65.81,163l.14,2-5.21,4.63,4.5,6.52a19.31,19.31,0,0,0-4.15,4.12l-1.1-.48,4-3-4.26-6.16-4.51,4.06,2.44,4L56.17,178l-1.37-2.13.23-2.18,4.44-4-3.82-5.53,0-1s2.38-2.73,4.11-4.76L54.88,153l4-5-5-4.24L54,145l3.68,3.1-2.83,3.41c-.2,2.06.25,5.59-.8,7.14,1.7,1.67.81,5.67,0,7,1.63,1.93.7,6.14-.34,6.32,1.24,1.56.75,4.71-.29,5.73-.33.18,4.43,1.89,7.44,3.95-2.5,4.65-1.92,9-2.71,10.59a78.47,78.47,0,0,0-3.66-8.82c-.13-.24-.39-.19-.79-.19-5-.45-4.49-4.54-.77-5.58,0,0-7.58-5.64-11.42-6.26,0-.1,0-.23.12-.5a13.84,13.84,0,0,0,.94-4.78c.28-2.55-.95-6.46-.95-6.46l1.57-1c.31-1.35,2.07-1.37,2.24-2.33C45,152.15,37,136.39,35.28,134.6,34.64,145.85,35.87,158.06,35.25,169.29Zm1.84-28.69-1.31,1.08,0-1.71ZM35.81,138l.66.49-.66.73Zm81-20.08c-.12-.77-.27-1.54-.42-2.3a2.15,2.15,0,0,0-.55-4.23,2.07,2.07,0,0,0-.5.06c-.34-1.19-.66-2.21-.91-3l-.44-.31c1.18,4.1-1.11,6.31,2.27,9.72C116.27,118.06,116.52,118,116.77,117.92ZM47,229.14,26,229v-7.76L42.19,204l-6.26-.08L36,174.4a28.94,28.94,0,0,0,4.93-2.88L50.8,177l.71.36a3.83,3.83,0,0,0-.85.46,3.41,3.41,0,0,0-1,3.87c.83,2.21,2.54,1.81,4,1.82,1.18.91,2.2,4,3,6a13.79,13.79,0,0,1,.85,2.07,6.06,6.06,0,0,1,.08.89s-.19-.06-.47-.63c-1.57-3.3-5.25-4.9-7.2-1.78-1,1.92-.3,4.11,1.36,4.72a8.48,8.48,0,0,0,2.24,0c.1-.06,1.25,1.62,2.88,7.15.67,2.29.84,7.24.2,8-1.07,1.3-1.35,3.14-2.26,4.46-.42.83-.4.31-1-.61-2.21-3.15-6.11-5.59-9.67-5.44-2.53.11-3.31,1-2.72,1.7a11.9,11.9,0,0,1,2.76,5.15c1.06,4,2.18,7.67,5,10.82ZM57.7,209.89c-.26-.25-.05-.64,0-1.33.12-1.78.16-1.8,1.18-1.35a6,6,0,0,0,6.41-1.71c2.11-2.28,2.17-4.63.86-9.28-1.51-5.22-1.47-5.91.33-7,1.09-.92,2.2-2.85,1.78-2.85a.78.78,0,0,0-.33.26,18.12,18.12,0,0,1-1.88,1.46c-2.09,1.43-2.75,2.16-1.79,4.8s1.72,5.16,1.32,5.32c-.19.07-.91-.78-1.35-1a21.16,21.16,0,0,0-3.09-1.5c-.33,0,0,.24,1,.86,2.53,1.65,3.56,3.15,1.12,2.2a5.26,5.26,0,0,0-3.45,0c-.91.3-1.38.6-1.48.26a34.57,34.57,0,0,1,.09-4.88c0-.11.16-1.21.28-2.44.46-4.7,1.26-8.66,3.33-11.21,6.91-8.53,14.79-6,23.63.78-3.3,9.13-3.07,16.24-3.89,19.13a3.1,3.1,0,0,1-2.21-.53,9.13,9.13,0,0,0-4-1.19c-1.25-.07-1.47.11-1.36-.26s2.11-.88,3.34-1.14c2.25-.47,2.09-1,.19-.81a12.85,12.85,0,0,0-5.95,2.32c-1.42.94-1.47.94-1.09,2.12.09.28.28.71-.39,1s-.6.55-.2.86c.1.08.35.1.45.18s0,.54,0,.6c2.57,2.17,7.11,2.22,10.84,0a.53.53,0,0,1,.2.76c-.39.86-4.41,1.88-7.26,1.93-1.3,0-1.55-.14-3.51-.74-.8-.25-1.25-.31-1.33-.19-.16.28.13,1.11.75,1.55,2.09,1.49,5.13,1.38,9.28-.27,2.22-.88,2-1.18,1.27,3.2-.19,1.21-.42,2.14-.42,2.14S60.9,211.22,57.7,209.89Zm3-4.11a3.68,3.68,0,0,1-2.52-.8c-.8-.88,0-1.16,1.31-.67a5.68,5.68,0,0,0,4.91-.63c.93-.57,1.12-.26.35.56A5.73,5.73,0,0,1,60.7,205.78Zm14.77-1.52c-1.79,0-3.43-.31-4.1-1.07s0-.76,1.51-.16a9.6,9.6,0,0,0,7.43-.6c1.23-.61,1.61-.73,1.44,0C81,203.51,78.09,204.24,75.47,204.26Zm-14.33-.56c-1.71,0-3.16-.4-2.89-1.29.1-.32.18-.13,1.4.25a7.91,7.91,0,0,0,4.35-.22c1.46-.43,1.74-.52,1.08.11A6.16,6.16,0,0,1,61.14,203.7Zm-3.48-.86c-1.73-2.66-2-6.56-3.87-8.68-3.4.64-5-2.56-2.15-4.69,1.45-.8,3.23-.2,4.53,1.94A8.67,8.67,0,0,1,57.8,196C57.69,198.67,57.84,200.12,57.66,202.84Zm19.93-1.22-.76-.09c-.55-1.85-1.77-2-2.5,0l-.57-.1C74.62,199,76.79,198.94,77.59,201.62Zm1.16,0c-.31,0-.57-.31-.71-.74-.29-1,0-.87.72-.45s1.22.7.83.87A2.9,2.9,0,0,1,78.75,201.58ZM72.28,201c-.26-.32-.32-.57,0-.8a6.08,6.08,0,0,1,.88-.39c.31-.1.49,0,.37.41a3.14,3.14,0,0,1-.5,1.12A.89.89,0,0,1,72.28,201Zm-9.14.23-.6,0c-.62-1.7-2.09-1.65-2.65-.18h-.54C60.36,198.34,62.41,198.82,63.14,201.18Zm1.08-.22c-.58,0-1.13-.83-.82-1.25.32-.26,1.73,0,1.86.56C65.31,200.58,64.79,201,64.22,201Zm-5.53-.16a.32.32,0,0,1-.27-.31c-.14-.69.69-.94.87-.67S59,200.52,58.69,200.8Zm13.15-7.42a2.7,2.7,0,0,0,2-2.94,2.23,2.23,0,0,0-1.47-2.17c-1.67-.37-2.82.79-4.53,1.26-.74.19-.56,1.14-.09,1.55s1.53.2,2.78-.75c2.45-1.87,3,1.72.8,2.36C71,192.79,71.12,193.58,71.84,193.38Zm72.36-82.83-.95-.27.95-1.12v1.39Zm-2.65-3.84,2-2.2-2.66.2,1.8-1.88-2.77-.11,2-2.1-2.72,0,2-2-2.57-.07,1.7-1.86-2.83.22,2.07-2.23-3,.06,2.29-2.08-3,0,.91-1-.81-.4c-.82.38-5.56,1.85-5.71,3,1,.28,4.12-1.29,4.33-1,1.23,5.45,6.56,17.48,10.07,21l.25-34c.54-.5,1.4-.25,1.94-.47,1.79.09,4.76-2.88,3.21-3.47-.82-.18-5.32-.95-5.33-1.17-.55-9.86.34-19.77-.07-30.29-1.26-.19-5.38-.42-5.38-.42s15.1-15.73,15.4-15.42c-.36,16.86-.17,49.83.13,50a29.38,29.38,0,0,1-.35,3.07l.32,104.87a2.85,2.85,0,0,0,.27.77c.31.51.33.65.36,2.22a2.41,2.41,0,0,1,0,1.22h0L145,180.15l0-30.49s-9.77-14.41-12-21.07c-4.94-9.91-4.4-24.35-7.39-29.88h-.19c-.07-.8-.08-1.13-.2-1.25-.22-1.8-.46-4.27-.46-4.27l1.08-1.71-1.21-1.55V85.82l1.61-1.64-1.47-1.86.41-3.85,1.15-1-.65-.87a13.79,13.79,0,0,1,.15-3c.17-1.08,1.24-.94,3.45.19a49.79,49.79,0,0,1,8.82,4.9c-.15,2-2.63,6.57.82,11.6,1.28,1,5,.61,5.31.75l0,15.51m0,1.79-1.68.29,1.69-1.69ZM64.56,185.74a1,1,0,0,0,.52-.39c.24-.26.61-.19,1.55-.13a3.72,3.72,0,0,0,1.92-.21c.76-.27.77-.27,1.3,0a2.68,2.68,0,0,0,2.08.17,2.67,2.67,0,0,1,2.08.09c.58.29.76.23,1-.29a11.47,11.47,0,0,1,.68-1.36c.62-.94.47-1.1-.82-.7a6.22,6.22,0,0,1-3.74-.06,4.23,4.23,0,0,0-3.35.31,3,3,0,0,1-3.4-.27c-.65-.54-.61-.13-.45,1S64.21,185.78,64.56,185.74Zm43.83-4a2.16,2.16,0,1,0,0-4.31C107.83,177.94,107.54,181.7,108.39,181.78Zm-41.67,0a8.26,8.26,0,0,1,5.15-.44c1.6.48,1.22-.71-.52-.86-1.2-.11-1.12-.11-.18-1,.79-.74-.2-.68-.74-.22s-2.38.4-3.35-.05c-.43-.19-.48.62,0,.8,1.29.45,1,.48-.43.94C66.16,181.06,66.14,182,66.72,181.76Zm41.67-.7c-.68-.26-.25-2.75,0-2.87a1.44,1.44,0,1,1,0,2.87ZM119.9,181c-.55.19-.93-.73-.93-1.34a1.44,1.44,0,0,1,1.43-1.44c1,.95,1.14,2,0,2.59Zm-5.67-2.11,4.61-4.65-4.52-4.58-4.54,4.68ZM59.61,177a1.2,1.2,0,1,1,1.2-1.2A1.19,1.19,0,0,1,59.61,177Zm54.66-1.57a1.2,1.2,0,1,1,1.19-1.19A1.19,1.19,0,0,1,114.27,175.45Zm-49-1.14L62,169.87l4-3.63-.21,2.26a1.91,1.91,0,0,0-.34,3.66Zm55-.24,0-1.21-4.16-4.12,4.12-4.27,0-1.18-5.13,5.45Zm-11.76,0,5.09-5.21-4.91-5.35-.06,1.35,3.85,4-3.93,3.89Zm-73.42-.83a2.22,2.22,0,0,1-2.19-1c-.21-.38-.33-.7-.64-.85-.6-.27-1.42-.08-1.46.12a4.41,4.41,0,0,1,1.14.26c.81.73.67,1.18-.48,1.09-.37,0-1.4,0-1.43-.43-.23-1.4,1.63-2.42,4-2.23,1.7.28,1.7-.37,1.82-1.27a6.58,6.58,0,0,1,.55-1.16c.6-1.07.8-.92.38-1.34a3.33,3.33,0,0,1-.92-1.79V159s3.56,0,4.79.91c1.3,2.36,2.18,7.44.28,10.23a17.74,17.74,0,0,1-2.76,2.12A5.16,5.16,0,0,1,35.08,173.23Zm20.09-.64L55.3,171a1.91,1.91,0,0,0,.3-3.69l.11-1.42,2.63,3.78Zm10.35-1.1a1.28,1.28,0,0,1,.21-2.32Zm55-.6c1.82-.94,1.19-4.61,0-4.31a2.16,2.16,0,1,0,0,4.31Zm-11.91,0a2.16,2.16,0,1,0,0-4.31C107,167,107.9,170.77,108.59,170.84Zm-53.24-.55.19-2.35a1.27,1.27,0,0,1-.19,2.35Zm65.15-.12a1.44,1.44,0,1,1,0-2.87C121,167.21,121.27,169.92,120.5,170.17Zm-11.91,0c-1-.08-.17-2.52,0-2.87a1.44,1.44,0,1,1,0,2.87Zm-48.37-1.36L65,164l-4.7-5.18-3.91,4.75Zm54.12-.91,4.57-4.69-4.32-4.45-4.55,4.8Zm30-2.56-1.7-1.77,1.7,0Zm-83.78-.18a1.2,1.2,0,1,1,0-2.39,1.2,1.2,0,0,1,0,2.39Zm53.78-.65a1.2,1.2,0,1,1,1.19-1.19A1.19,1.19,0,0,1,114.37,164.46Zm-5.9-1.39,5-5.21-4.87-5.18-.07,1.23,3.91,3.92-4,4Zm11.86,0,0-1.32-4-4,4.25-4.27-.17-1.15-5.23,5.4Zm-54.45-1.43L62.23,158l3.63-4v2.1a1.91,1.91,0,0,0,0,3.61Zm-10.07-.19,0-1.48a1.9,1.9,0,0,0-.1-3.71l0-1.18,2.89,3.19Zm84.4-.66s-1.22-1.3-1.63-1.83a2.15,2.15,0,0,0-2.59-3.33c-.22-.33-1.2-1.67-1.2-1.67l5.74.92Zm-31.72-.86a2.16,2.16,0,1,0,0-4.31C106.33,156.05,106.75,159.81,108.49,159.92Zm12-.09c3.07-.33,2.28-4.23,0-4.3a2.15,2.15,0,1,0,0,4.3Zm-64.75-.53-.07-2.39a1.27,1.27,0,0,1,.07,2.39Zm52.73-.11c-1.39-.5-1-3,0-2.86a1.43,1.43,0,1,1,0,2.86Zm12-.08a1.43,1.43,0,1,1,0-2.86A1.43,1.43,0,0,1,120.51,159.11ZM65.87,159a1.27,1.27,0,0,1,0-2.22Zm72.26-.62-1.68-2.15a1.33,1.33,0,0,1,.49-.09,1.43,1.43,0,0,1,1.44,1.43A1.39,1.39,0,0,1,138.13,158.36Zm-77.7-1,3.95-4.74-4.85-4.29-3.43,4.25Zm53.89-.57,4.84-4.91-3.42-3.54,1.89.2,2.74,2.79.06-.93-1.49-1.7,1.59.06c.57-.89-3-.92-5-1.26-2.57-.43-8.16-2.49-6.93-1l1.41.36-1.33,1.59,0,1.21,2.3-2.47.78.18-3.26,3.37.22,1,4-4.1,1.17.26-4.08,4.16ZM60.23,154a1.19,1.19,0,1,1,1.2-1.19A1.19,1.19,0,0,1,60.23,154Zm54.26-.62a1.19,1.19,0,1,1,1.19-1.19A1.19,1.19,0,0,1,114.49,153.37Zm27.1-.34s.3-3.92.48-5.81l-6.25-1.67-.78,6.27Zm2.72-.3-.87,0,.15-3.65.84.9Zm-11.56-1.58s-.63-1-1.35-2.12a2.18,2.18,0,0,0,.62-1.52,2.15,2.15,0,0,0-2.16-2.15,2.06,2.06,0,0,0-.62.09c-.29-.53-.81-1.37-.81-1.37l5.36,1.57Zm-67.07-.4-4.21-3.42,3.27-4L65,145a1.91,1.91,0,0,0,.46,3.7Zm72.74-.06a1.2,1.2,0,1,1,1.2-1.2A1.19,1.19,0,0,1,138.42,150.69Zm-84-.38a1.91,1.91,0,1,0,0-3.82C54,146.18,53.84,149.77,54.37,150.31Zm0-.64c-.11-.57-.25-2.68,0-2.54a1.27,1.27,0,1,1,0,2.54ZM131,148.4c-.48-.75-1-1.56-1.39-2.3l.26,0a1.43,1.43,0,0,1,1.44,1.43A1.4,1.4,0,0,1,131,148.4Zm-65.65-.33a1.27,1.27,0,0,1-.3-2.38ZM59.64,147l3.56-4.76L57.81,138l-3.06,5.21ZM140.75,145l-4-1.17.75-4.1a6.93,6.93,0,0,0,.59,1.18,2.19,2.19,0,0,0-.27,1.05,2.15,2.15,0,0,0,2.15,2.15h.18C140.49,144.64,140.75,145,140.75,145Zm-5.95-1,1.31-6.55L130.06,135,128.59,142ZM59,144a1.2,1.2,0,1,1,1.2-1.2A1.2,1.2,0,0,1,59,144Zm80.67-.61a1.44,1.44,0,0,1-1.1-1.39,1.09,1.09,0,0,1,0-.26C138.9,142.26,139.28,142.84,139.63,143.36Zm-85.8-.18,3.24-6.09-5.51-3.84.38,1.3,3.94,2.88-2.29,4.2Zm78.29-2.2a1.2,1.2,0,1,1,0-2.39,1.2,1.2,0,0,1,0,2.39Zm-5.71-.61-1.28-2.23a2.16,2.16,0,0,0-1.29-3.89,2.09,2.09,0,0,0-.51.07l-.93-2L128,134.8Zm-73.83,0a1.51,1.51,0,0,0,1.33-.54,1.88,1.88,0,0,0,.58-1.37,1.92,1.92,0,0,0-1.91-1.91C51.13,136.88,51.91,140.2,52.58,140.35Zm11.61-.53-4.56-3.25,2.66-5.13s.27,1,.6,2.43a1.91,1.91,0,0,0,.82,3.63h0C63.91,138.34,64.07,139.15,64.19,139.82Zm-11.61-.11c-.79-.24-.53-2.46,0-2.54a1.21,1.21,0,0,1,1.27,1.27A1.27,1.27,0,0,1,52.58,139.71Zm72.23-2.24L123.64,135l.2,0a1.44,1.44,0,0,1,1,2.5Zm-61.22-.61a1.26,1.26,0,0,1-1.15-1.27,1.25,1.25,0,0,1,.61-1.08C63.23,135.25,63.41,136.06,63.59,136.86Zm-6-.65L60.7,130l-5.78-3.51-2.65,6ZM134.85,135l-3.56-1.61,1-3.67.43.9a2.13,2.13,0,0,0-.34,1.15,2.16,2.16,0,0,0,1.93,2.14Zm-5.62-1.74,1.75-6.16-5.55-2.88-2.53,6.2Zm4.67-.22a1.44,1.44,0,0,1-.78-1.27,1.36,1.36,0,0,1,0-.29Zm-77.35-.5a1.2,1.2,0,1,1,1.19-1.2A1.2,1.2,0,0,1,56.55,132.56Zm-5.27-.34,2.64-6.45-6.07-3.35.45,1.18,4.5,2.59-1.93,4.67ZM127,130.07a1.2,1.2,0,1,1,1.19-1.19A1.19,1.19,0,0,1,127,130.07Zm-77.64-1a1.91,1.91,0,1,0,0-3.82C47.45,125.34,48.43,129.13,49.37,129.11Zm71.69-.21a13.76,13.76,0,0,1-.88-2.05,2.15,2.15,0,0,0-1.09-3.93l-.24,0-.34-1.3,4.77,2.5A32.32,32.32,0,0,1,121.06,128.9Zm-71.69-.43c-.56-.23-.71-2.47,0-2.54a1.27,1.27,0,1,1,0,2.54Zm11.76-.74-4.69-2.68L58.79,120l.7,2.32a1.91,1.91,0,0,0,1,3.49Zm58.79-1.59-.74-2.48a1.29,1.29,0,0,1,1.22,1.41A1.41,1.41,0,0,1,119.92,126.14Zm-59.58-1a1.27,1.27,0,0,1-1.05-1.25,1.28,1.28,0,0,1,.4-.92Zm70-.16-3.63-2.12,1.64-4.23.47,1.53a2.15,2.15,0,0,0,1.1,3.48Zm-75.72-.09L56.8,119l-6.36-3.34-1.59,6Zm75-2.16a1.41,1.41,0,0,1-.62-1.17,1.58,1.58,0,0,1,.09-.49Zm-4.75-.29,2.58-6-5.37-3.53-2.8,6.22Zm-72.26-1a1.2,1.2,0,1,1,1.19-1.19A1.19,1.19,0,0,1,52.61,121.46Zm-6.29-2.62a2,2,0,0,0,.85-1.69,1.9,1.9,0,0,0-1.91-1.91,2.51,2.51,0,0,0-.64.07C44.07,116,44.85,118.87,46.32,118.84Zm76.94.17a1.2,1.2,0,1,1,1.2-1.19A1.19,1.19,0,0,1,123.26,119ZM45,115.93a.54.54,0,0,1,.29-.05,1.29,1.29,0,0,1,1.27,1.27,1.3,1.3,0,0,1-.47,1C45,119,44.8,115.77,45,115.93Zm71.22-1c-.22-1-.46-1.91-.7-2.78a1.55,1.55,0,0,1,.31,0,1.43,1.43,0,0,1,.39,2.81Zm-66.65-.7,1.66-6.62-6.37-2.32-1.21,6.27Zm77.58-.09-3.38-2.33a32.1,32.1,0,0,1,2-4L126,109a2.16,2.16,0,0,0,.83,3.89Zm-71.41-.32a1.27,1.27,0,0,1-1.27-1.27.86.86,0,0,1,.5-.87c.28.63.67,1.25,1,2.09A.64.64,0,0,1,55.71,113.81Zm71-1.75a1.42,1.42,0,0,1-.86-1.31,1.46,1.46,0,0,1,.37-1Zm-5.07-1,3.06-5.32-4.49-3.44-3.52,5.33Zm-74.21-.18a1.2,1.2,0,1,1,1.2-1.2A1.2,1.2,0,0,1,47.4,110.92Zm-5.51-1.66-.78-1.2A1.91,1.91,0,0,0,39.58,105a1.84,1.84,0,0,0-.41,0l-.63-1,4,1.42Zm78.8-1.41a1.2,1.2,0,1,1,1.2-1.2A1.19,1.19,0,0,1,120.69,107.85Zm-80-.39-1.18-1.83h0A1.21,1.21,0,0,1,40.73,107.46Zm74.23-.08,4.34-5.75-5.76-4.26.09,1.27,4.21,3-3.2,4.26Zm-63.41-1.94-5.73-1.8L47.05,98l1.35,2.24a1.91,1.91,0,0,0,1.31,3.3,2.05,2.05,0,0,0,.61-.1Zm62.44-1a2.16,2.16,0,0,0-.22-4.3.37.37,0,1,0,0,.72,1.44,1.44,0,0,1,.1,2.87l.1.71Zm-70.23-.61,1-6.57-6.49-1.39-.49,6Zm81.19-.16-3.06-2.26,2.32-3.26.13.94a2.14,2.14,0,0,0,.51,3.78Zm-75.24-.82a1.27,1.27,0,0,1-1.27-1.27,1.23,1.23,0,0,1,.3-.82L50,102.83A1.24,1.24,0,0,1,49.71,102.86ZM70.2,102c-.17,0-.42-.08-.37-.18s1.09-1.24,1.09-1.24l-.12-1.06L69,101.57l-.74-.27,2.59-2.63.12-1-3.45,3.38-1.47-.4,4-3.94L65.4,92.05l-4.62,4.71,3.28,3.58-1.62-.15a10,10,0,0,0-2.7-2.68l.12.93c.07,0,1.53,1.38,1.3,1.61l-1.29-.1c-1.52.41,1.85,1,5.11,1.52,1.68.06,6.6,2.23,5.43.57Zm54.53,0a1.4,1.4,0,0,1-.59-1.15,1.38,1.38,0,0,1,.32-.89Zm-83.34-1.14a1.2,1.2,0,1,1,1.19-1.19A1.19,1.19,0,0,1,41.39,100.87Zm78.57-.12L123.69,96,119.46,92,115.13,97ZM36.14,99.54l-.3-.05V96.26l.46.1ZM65.28,98a1.2,1.2,0,1,1,1.19-1.19A1.19,1.19,0,0,1,65.28,98Zm54.1-.34a1.2,1.2,0,1,1,1.19-1.2A1.19,1.19,0,0,1,119.38,97.7Zm-5.76-.94L118.44,91l-5.18-5.34,0,1.2,4,4.21-3.77,4.38ZM59.7,96.23l5-5-4.94-5.12-.12,1.15,3.82,3.85L59.84,94.8Zm10.91-.51V94.35l-3.11-3.16L70.67,88V86.56l-4.52,4.66Zm-25.42-.6L39.34,94l.36-5.52,1.41,1.7a1.9,1.9,0,0,0,1.53,3,2,2,0,0,0,.84-.19Zm78.77-1-2.88-3L123.83,88l0,1.06a2.15,2.15,0,0,0,.09,4Zm-10.68-.77a2.16,2.16,0,0,0,0-4.2v.76a1.43,1.43,0,0,1,0,2.69Zm-42.35-.2c.88-.58.49-3.87,0-3.82a1.91,1.91,0,0,0,0,3.82Zm-11.32-.31a1.91,1.91,0,1,0,0-3.82C58.77,89.31,59.11,92.67,59.61,92.86Zm-17-.25a1.27,1.27,0,0,1-1.28-1.26,1.28,1.28,0,0,1,.18-.64l1.51,1.84A1.4,1.4,0,0,1,42.64,92.61Zm28.29-.08a1.27,1.27,0,0,1,0-2.54C70.86,90.44,71.16,92.58,70.93,92.53Zm53-.29a1.44,1.44,0,0,1,0-2.37Zm-64.31,0c-.16-.52-.36-2.63,0-2.54a1.27,1.27,0,1,1,0,2.54Zm5.78-1.85,4.66-4.63-4.76-4.86-4.49,4.8Zm53.74-.25,4.17-4.5-4-5.21-4.71,4.69Zm22.6-.17c-1.28,0-2.48-.22-3-1.07-2-2.63-1.4-8,0-9.88,3.05-2.76,4.78-3.5,8.23-2.86-.4,1.55,1.26,2.39,1.5,2,0,0,.15-.28,0-.3a1.18,1.18,0,0,1-1-1.57c1.31,0,2.16,0,2.3.61.08.36-.13.91-.9,1.54s-5,.7-5,.7a4.57,4.57,0,0,1-.41,1.85c-.36.6-.87,1.26-.52,1.53A2.08,2.08,0,0,1,144,84.26c.16,1.62-.09,5.51,0,5.55C143.3,89.88,142.5,90,141.73,90ZM65.4,87a1.2,1.2,0,1,1,1.19-1.19A1.19,1.19,0,0,1,65.4,87Zm53.69-.46a1.2,1.2,0,1,1,1.2-1.2A1.19,1.19,0,0,1,119.09,86.49ZM59.7,85.36l4.87-5L59.38,75l.17,1.46,3.73,3.84-3.65,3.8Zm11-.09.14-1.37-3.45-3.62,3.13-3.21,0-1.56L66,80.36ZM124,83.4l-2.75-3.86,3.27-2.87-.08,1.1a2.15,2.15,0,0,0-.32,4.09Zm-10.31-.76c.07-.8.11-1.45.15-2a2.15,2.15,0,0,0,.29-4c.06-.61.14-1.3.25-2.16l3.29,4.81Zm-77.84-.23-.11-13.48L25.94,58.79v-38H66.19L76.55,38.25c.21.35.51.23.73.56L74.21,55.19c-4.84-2.22-8.91,3.53-6.27,8.2-14.91,5.43-32.08,19-32.08,19Zm23.82-.07a1.91,1.91,0,0,0,0-3.82C58.3,79.15,59,82.31,59.68,82.34Zm11.14-.12c.53-.6.83-3.84,0-3.82a2,2,0,0,0-1.92,1.92A1.91,1.91,0,0,0,70.82,82.22ZM59.68,81.7c-1-.74-.1-2.37,0-2.54a1.27,1.27,0,0,1,0,2.54Zm11.14-.11a1.27,1.27,0,1,1,0-2.54C70.74,79.26,71.13,81.5,70.82,81.59Zm53.37-.51a1.42,1.42,0,0,1-.68-1.21,1.44,1.44,0,0,1,.88-1.33ZM113.91,79.8c.06-.91.1-1.66.16-2.42a1.41,1.41,0,0,1,.61,1.16A1.43,1.43,0,0,1,113.91,79.8Zm-48.46-.44L70,74.83l-4.73-4.91-4.5,4.75Zm54-1.17,4.76-3.82-3.07-4.68-1.06-.64-4.36,3.72Zm19.09-.32-11.19-6s2.9-1.21,2.82-3.15c-.11-2.16-1.41-3.93-4-3.27-.59.09-.86-.16-1.44-1.49-1.09-2.54-2.17-5.34-1.74-5.25a8.65,8.65,0,0,0,2.78,1.88,3.14,3.14,0,0,0,3.9-4.24c-.89-2.09-2.37-2.21-3.85-2a1,1,0,0,1-.55-.56,22.33,22.33,0,0,1-1.74-5.25c-.86-4-1-9-.42-10.31.86-1.75,2.06-4.12,2.06-4.12,2.34,4.44,7.42,8.34,13.14,7,.19-.12.23-.75,0-1.12-1.85-2.43-2.16-4.65-2.83-7-1.7-6.12-5.12-9.63-5.08-9l1.8-3.25s15.54-.08,21.9,0v7.46l-16.66,17,6.6.28-.23,29.38C141.4,75.35,138.56,77.87,138.56,77.87ZM65.37,76a1.2,1.2,0,1,1,1.2-1.2A1.19,1.19,0,0,1,65.37,76ZM120,74.78a1.2,1.2,0,1,1,1.19-1.19A1.2,1.2,0,0,1,120,74.78Zm-49.26-1.1-.12-1.17-3.27-3.43,3-3.08c.44-.61,1.57-.48,1.93-.52-.25-.75-.93-.66-1.62-1L66.26,69Zm0-2.66c.79-.25.65-3.63,0-3.82a1.91,1.91,0,1,0,0,3.82ZM59.43,70.5a8,8,0,0,1,0-2.54,1.27,1.27,0,1,1,0,2.54Zm11.24-.12a1.27,1.27,0,1,1,0-2.54C70.84,68.13,71.12,70.34,70.67,70.38Zm39.39-.61a2.07,2.07,0,0,1,.66,0c.66,0,1.49.47,1.67.38s.13-.53.12-.72-.53-.24-.73-.38-.25-.3.13-.39.61-.1.83-.4.14-.52-.08-.52c-1.33,0-3,.57-4.6,0-.91-.32-1.5-.52-1.64-.4-.3.26.76,1.28,1.77,1.46s1.4.12,1.06.42c-.17.16-.4.1-.42.21a.63.63,0,0,0,.47.69C109.6,70.17,109.83,69.86,110.06,69.77Zm-5.71-3.18a1,1,0,0,0,.47-.25c.61-.4,1.55-.94,3.84-.31a6.2,6.2,0,0,0,3.48-.18,3.52,3.52,0,0,1,2.29,0c.71.34,1.5.86,1.35.33,0-.14-.08-.93-.09-1.39,0-1.1-.09-2-.89-1.16-.34.38-.76.38-1.54.07-.55-.22-.94-.36-1.37-.08a2.25,2.25,0,0,1-2.26.11,2,2,0,0,0-1.77.22,1.51,1.51,0,0,1-2.27-.68c-.34-.56-.51.23-1.14,1.89C104.13,65.93,104,66.59,104.35,66.59Zm5.38-6.16c.61-.35,1.46-.45,2.08-.86,1.31-.9.08-1.65-.83-1.47a4.05,4.05,0,0,0-1.28.59c-1.64,1.09-2.55.93-2.71-.39s2-2.06,1.83-2.72c-.28-.43-1.34.16-2,1.05C104.86,59.28,107,62,109.73,60.43ZM101.23,53a17.74,17.74,0,0,0,7.26-2.59c1.32-1,1.68-1.29,1.12-1.7s-.91-.38-.2-1.1a3.88,3.88,0,0,0,.67-.9c0-.51-3.14-2-5-2.28a11.53,11.53,0,0,0-4.85.51c-1.59.64-1.65,1.08-.14.64a11.75,11.75,0,0,1,4-.5,12.85,12.85,0,0,1,3.28.75c1.93.69,1.59,1.49-.36.81a9.74,9.74,0,0,0-7.73.21c-1,.47-1.34.84-1.53.68a2.55,2.55,0,0,1-.18-.37c-.06-.17-.07.44-.16,1.4-.08.8-.15,1.88-.15,1.88a3.1,3.1,0,0,0,.15-.67c0-1.4.66-1.41,2.59-.33,2.26,1.24,3.37,1.12,5.52,1.1.94,0,1,.27-.34.71-.63.21-1.6.54-3,1C101,52.6,100.66,53,101.23,53Zm17.07-2.83c-.82,0-1.55-.7-1.76-2.05l.81.06c.28,2,1.74,1.56,2.32.36l.71,0A2.54,2.54,0,0,1,118.3,50.13ZM116.22,50a4.8,4.8,0,0,1-2-.94c-.1-.26.49-.53,1-.68s.47-.2.65.15S116.62,50,116.22,50Zm3.94-.09A1.77,1.77,0,0,1,121,48.8a.4.4,0,0,1,.39.67c-.3.16-1.12.75-1.18.44Zm-15.88-.11a2.27,2.27,0,0,1-2.09-2.24h.53c.48,2.58,2.46,2,2.91.16l.62.17c-.52,1.33-1.26,1.87-2,1.9Zm2-.18c-.29,0-.25-.21.09-.9.16-.32.28-.5.56-.49a1,1,0,0,1,.83.48c.14.3-.18.53-.84.74A3.41,3.41,0,0,1,106.32,49.62ZM102,49.43a3.39,3.39,0,0,1-1-.35c-1.33-.59-1.49-.83-.79-1.16a6.78,6.78,0,0,1,.77-.33c.62-.21.61.14.77.57.1.25.21.47.33.73S102.18,49.43,102,49.43Zm19.53-2.19a14.9,14.9,0,0,1-1.67-.63,6.94,6.94,0,0,0-4.62.27c-.76.24-1,.39-.72-.05a6.31,6.31,0,0,1,2.59-1.24c2-.49,4.58.44,4.58,1.45C121.63,47.18,121.58,47.24,121.48,47.24Zm-6.54-1.66c-.2,0,0-.31.41-.77a4.72,4.72,0,0,1,2.66-1.4c2.12-.38,3.88.2,3.9,1.39,0,.86-.14.87-1.19.33a6.93,6.93,0,0,0-4.5-.05,8.85,8.85,0,0,0-1.17.48.26.26,0,0,1-.11,0ZM98.6,44.43c1.61-.43,3.32-.86,4.89-1.16a10.12,10.12,0,0,1,5.4.61c.94.46,1.27.19.86-.71a2.85,2.85,0,0,0-1.89-1.63c-1.76-.61-5.88.38-8.94,2-1.78.79-1.44,1.27-.32.93Zm26.57-12.11L122.41,37c-18.64-3.6-38.82-1-45-.13,0,0-6.75-11.14-9.17-15C68,21.39,67.4,20,67.4,20l63.66.05c-.89,1.79-1.73,4.1-1.73,4.1,1.94.78,3.45,3.68,4.38,6.13.82,2.15,2.24,7.4,4.11,10C134.55,42.08,126.34,38,125.17,32.32Z"/><path id="path3302-0-9-2" class="cls-3" d="M67.94,20.51H131l-8.22,16.4a147.47,147.47,0,0,0-45.38.33L67.94,20.51Zm86.2,13.29.14,7.86-8.17-.18ZM85.2,86.66l-.09,23.87a101.21,101.21,0,0,0-9.87-6.42l.13-24.69Zm27.49,5.23c.57,13.49,2.54,18.76,3.82,25.6L104.82,125l0-27.7Zm32,23.67-.06,33.23c-10.75-15.44-17.54-31.12-19.42-52.29C128.1,95.33,131,94,134,93A137.73,137.73,0,0,0,144.65,115.56ZM35.81,101.87c9.94,12.6,15.86,29.39,19,50.08l-9.09,4.41c-3-7.31-6.08-15.06-9.9-21.13Zm38.82,22.29,0,27.79-7.76,5A129.29,129.29,0,0,0,63,131.32Zm20.43,14.63a48.69,48.69,0,0,0,9.18,5.65l-.49,24.66L95,162.36Zm-61.6,69.46S28,213.8,26,215.6l0-7.53Zm68.83,3.59,10.19,17.37-63.88.54,8.21-17.49C73.72,215.35,88.2,214,102.29,211.84Z"/><path id="path3300-3-9-0" d="M73,55.63a8,8,0,0,0-3.14,3.26c-1.11,2.17-.11,4.3-.44,4.31-2-.61-1.45-4.49-.74-5.69a4.2,4.2,0,0,1,2.94-1.95c1.18-.2,1.38.07,1.38.07Zm-3.32,8.49a1,1,0,0,1,.86.34,1.69,1.69,0,0,0,1.06.62c.33,0,.47,0,.48.18s-.14.16-.68.12c-.32,0-1,.48-1,.48v36.68a43.8,43.8,0,0,0-10.52-2.28l-.22-32.69S54.79,70.11,53,71.13L53,100.4l-3.45.37,5.45,11c.76-.59,11.48.41,14.15,2.15l-9.77,6.09c1,3,1.89,5.92,2.72,9,0,.09.21.08.23.18.21.74.35,1.08.54,1.83,0,.14,0,.37,0,.51A111.18,111.18,0,0,1,66.68,157c0,.08-.34,0-.34,0l.06,5.25.35-.23,0,2.38-.36.34c0,.47,0,1.33,0,1.33l.45.29-.23,4-.47.07-.25,6.3,12.38-8s8.08,5.77,11.62,8.77c-3.89,2.64-4.92,7.79-5.89,12.06a72.17,72.17,0,0,0-1.59,11.26,107.24,107.24,0,0,1-1.47,11.34c-.31,1.49-.3,1.65.14,1.67.15,0,0,.06-.35.11-7.94.32-16.47-.86-24-1.84,0,0-1.87,3.48-2.52,4.77a17.31,17.31,0,0,0-.79-2,13,13,0,0,0-4.82-4.58,13.74,13.74,0,0,0-3.9-1.31,6.56,6.56,0,0,0-2.92.48c-.31.13-.56.3-.56.46s.25.34.56.64a4.67,4.67,0,0,1,.81,1.1,28.24,28.24,0,0,1,1.86,4.74c1.32,3.48,2.3,7.69,5.33,9.54l-2.09,4.18,65.89,0L103.28,213s-.31-.51-.41-.69c-.3-.54-.43-.46-.43-.46a178,178,0,0,1,2.86-17.71s.13.47,2.07.44c5.66-.08,7.65-6.37,2.91-9.15-.45-.27-1.21-.78-2-1.17-.21-.11-2.93-1.7-2.93-1.7l3.26,1.46.23-37.74s6.79,2,11.27,2.23l-.05,32.72,6.26-3.37.28-29.25,3.42-.22s-1.29-2.76-1.58-3.34c-.58-1.16-2-3.74-3-5.37-.35-.57-1.18-1.86-1.18-1.86a35.49,35.49,0,0,1-13.47-2.68l9.82-6.39c-4.1-11.54-9.22-28.42-6.37-55.68l-.69.43-.19,2.94-12.22,8.4L86.07,72.66l1.34,0c3.84.14,6.55-3.79,7.48-7.07,1.64-5.78,1.86-7.21,2.61-16.38a84.73,84.73,0,0,1,1.75-10.57,7.51,7.51,0,0,0,.33-1.91,92,92,0,0,0-21.69,1.89s-2.54,12-3.45,17.13a4.45,4.45,0,0,0-2.38-.69c-6,.65-5.44,8.79-2.37,9ZM96.16,229,93.05,218l7.63-.7L107,228.86Zm-46.94.15,7.85-16.63c16.47,2.31,26,2.53,45.09-.17l9.94,16.58-2.62,0L102,215.66l-11.13,1.11,3.08,12.11L91,229l-3-11.89-17.22.09c-.56,4-1.64,11.77-1.64,11.77l-3.18,0,2.12-12-10.18-1.27L52,229.06ZM71.3,229l1-10.11,14.25-.11L88.83,229ZM54,229.14l4.84-12,7.05.94L64,229Zm-8.69-11.76c-.31-1-.63-2-.71-2.23C43.5,212,43,211,42.27,210c-.12-.17-.16-.15,0-.29C45.75,208,52,212.15,53.52,216c-.19.37-1,1.92-1,1.92-.44-.85-.11-1.69-.4-2.46-.07-.32-.78,2.2-.78,2.2a7.26,7.26,0,0,1-.78-3.28c0-.33-.9,1.45-.9,1.45a7.83,7.83,0,0,1-1.05-4.09c-1.25,1.52-.47,2.39-2.41-1.49-.22.4-.11.83-.41.72a7.75,7.75,0,0,0-2.48-.81c.57.72,1.67,1.09,2,2a6.88,6.88,0,0,0-.93,0,7.19,7.19,0,0,1,2.69,2c-.22.08-1.12-.07-1.08,0,1.34,1.21,3.35,2.19.44,1.92,1.89,1.33,4,2.25.72,2.15,2.34,1.1,3,1.79,2.54,2-.25.11-1-.31-2.07,0,1.89.76,2.66,1.11,2.74,1.37s-.81.47-1.42,1.14c0,0,.76-.18,1.09.17,0,0-.37,1.06-.65,1.68C46.92,222.44,46,219.36,45.35,217.38ZM25.14,221.6,41,204.54l-5.13-.08-.23-30.88c-1.79-.24-4.89,0-6.06-1.2-.73-1.07,2.09-3.19,3.67-2.74a6.62,6.62,0,0,0,2.37.06l-.11-34.42c3.39,6.28,6,10.25,9.72,21.14-1.08.75-2.2,1.34-2.39,1.46,1.44,3.47,2.44,8.93.43,13.68l-1.39-.83a16,16,0,0,0-.27-11.15l-.38.4a11.51,11.51,0,0,1,.68,1.66,10.06,10.06,0,0,1,.57,2.83,15.31,15.31,0,0,1-.42,4.9c-.15.48-.37,1.2-.48,1.42a2.57,2.57,0,0,0-.22.49c4.08,1.65,7,4.06,10.52,5.79l.34.17c.44.25.32.33-.37.61-1.47.58-2.07,1.29-2,2.71.05,2,1.13,2.82,3.5,2.68.86-.05.92,0,1.07.26.36.69,1.6,3.42,1.6,3.52a13.42,13.42,0,0,0,.57,1.37,16.43,16.43,0,0,1,1.28,3.37c.12.56.45.79.53.2a33.17,33.17,0,0,1,2.33-9.27,8.93,8.93,0,0,0,.56-1.46c-.11-.09-2-1-2.87-1.33-3.45-1.42-5-2.29-4.48-2.5.37-.15.5-.4.59-1.14.25-1.91.22-2.89-.1-3.5s-.33-.68.23-1,.37-.31.5-1.92a21.35,21.35,0,0,0,0-3.11l-.86-1.1.88-1.08.2-5-1.18-.89,1.1-1.09L54.91,153a2.2,2.2,0,0,1,.33-.63c-1.86-19.2-9.07-38.56-19.87-51.75l-.11-31.55L24.68,58.51Zm.83-2v-2.48l9-9.67-9-.15v-2.11l13.79,0Zm.14-4.22,0-7H32.8Zm61.62-3.51-1.4.06c.06-1.4.61-7.89,1.28-13.56.75-6.4,2.29-11.92,2.58-11.92l1.35.82C89.3,194.58,88.71,204,87.73,211.84Zm-6.35.2c.19-4,1-6.73,1.28-11.42.31-5.72,1.3-12.84,3.88-18.75a8.8,8.8,0,0,1,4.72-4.74c3.95-1.55,7.3,3.34,4.63,6.93-2.11,2.84-5.41,2.8-6.41-.07-.83-2.37,1.83-5.35,4-4.43,1.48.65,1.1,3.3-.56,3.93-.68.25-1.26-.62-.93-1.4.27-.61.3-1-.06-.73A1.51,1.51,0,0,0,93.37,184c2.48-1.25,2.06-4.94-.44-5.1-3.16-.31-5.6,3.58-7.17,11-1.71,8.27-1.28,15.67-2.93,22.17Zm4-.14-1.66,0c.13-.61.15-1.27.27-2,.65-4.33,1-10.67,1.71-15.63,1-7,2.65-11.26,2.69-10.74a7.46,7.46,0,0,0,1.14,2.21,53,53,0,0,0-2.85,12.88C86.21,203.32,86.07,207.64,85.42,211.9Zm7.11-.4-1.46.08a154.39,154.39,0,0,1,2.74-21.32c.25-1.09.33-1.56.54-1.65s.61.27,1.54.79C94.47,189.2,93.34,205.18,92.53,211.5Zm-2.28.13-1.58.16c.23-3.36.8-8.63,1.44-13.39.77-5.75,1.77-10.85,2.27-10.77l1.32.45C92.82,187.81,90.64,205,90.25,211.63Zm3-.16c1-7,1.13-15.24,3.28-21.8l1.48.69c-.4-.13-1.46,4.27-1.82,9.25-.31,4.34-1.09,9-1.32,11.67Zm2.45-.26c.59-2.48.59-6.13,1-9.19.55-3.77,1.13-11.44,2-11.27l1.52.77c-.8-.24-2.18,14.29-3,19.46Zm4-.61-1.54.21c.74-5.68,2.08-18.91,2.87-19l1.44.77A171.06,171.06,0,0,0,99.7,210.6Zm1-.22c.64-6.24,1.24-12.56,2.57-17.41l1.58.71s-1.1,5.34-1.62,9.08-.59,4.23-.75,5.19a10.16,10.16,0,0,1-.46,2.21ZM33.08,204,33.24,174l1.75.07L34.91,204ZM29,203.75a1.2,1.2,0,1,1,1.2-1.2A1.19,1.19,0,0,1,29,203.75Zm28.17-11c-1.23-2.27-2.18-3.09-3.27-3.53a2.93,2.93,0,0,0-3.7,3.83c.52,1.42,1.84,1.63,3.51,1.35,0,0,.72.51,1.57,3.07a52.32,52.32,0,0,0,2.57,6.16C57.9,199.83,58.8,195.87,57.12,192.76ZM27.18,201a1.2,1.2,0,1,1,1.2-1.2A1.19,1.19,0,0,1,27.18,201Zm3.28-.05a1.2,1.2,0,1,1,1.2-1.19A1.19,1.19,0,0,1,30.46,200.92Zm26.81.29c-1.11-2.3-1.35-4-2.42-6.11-.47-.91-.9-1.69-.9-1.69-3.51,1.65-4.86-2.5-2-3.83s6,3.66,5.66,9A20.69,20.69,0,0,1,57.27,201.21Zm-28.38-3.1a1.2,1.2,0,1,1,1.19-1.2A1.19,1.19,0,0,1,28.89,198.11Zm-3.17-2.25v-2.55L32,187.26v2.47Zm82.14-2c-1.2,0-1.77-.37-1-.68,2.63-1,3.79-2.7,3.94-5.6,0-1.46-.17-1.65.73-.84C113.85,190,110.53,193.92,107.86,193.9Zm-2.19-1.05a2.61,2.61,0,0,1-.87-.12c-.7-.22-.45-.23.74-1,2.26-1.5,2.94-3,3-6,0-.45-.07-.83,0-1s.2-.09.31-.09c.43.07.7.53.82.91C111.12,188.41,108.48,192.74,105.67,192.85Zm-2.45-1a1.06,1.06,0,0,1-.5-.1c-.56-.27-.35-.31.66-1a7,7,0,0,0,2.89-5.26c.14-1.35-.9-2.95.94-1.63,1.29,1.07,1,3.86-.34,5.77A5.74,5.74,0,0,1,103.22,191.86Zm-77.5.58v-2.9L32,183.61v3Zm75.49-1.51c-.71,0-1-.46-.2-1a7,7,0,0,0,3.12-6.22c-.11-1.53-.17-1.8.81-.79,1.57,1.62.46,6-2.59,7.68A2.45,2.45,0,0,1,101.21,190.93Zm-2.07-.85c-1.16,0-1.32-.56-.28-1.29a7.64,7.64,0,0,0,3.28-6c0-1,.07-1.16.53-.81,2.29,1.75-.17,7.86-3.28,8.13Zm-41.08-.19c-.28,0-.79-1-1.59-3.14a21.55,21.55,0,0,0-2.27-4.7,1.82,1.82,0,0,0-.78.27c-2.62,1.37-4.47-2.52-1.88-4,1.84-1,3.57.07,5.17,3.3,1.89,3.8,2.4,6.63,1.49,8.15A.16.16,0,0,1,58.06,189.89Zm39-1a1.72,1.72,0,0,1-.91-.19c-.68-.35-.58-.61.46-1.22a5.29,5.29,0,0,0,2.12-1.95,5.46,5.46,0,0,0,1.12-3.89c0-1.52.45-1.61,1.37-.25C102.74,183.69,99.59,188.74,97,188.85Zm-2.61-1.36c-1,0-1.71-.4-.73-.92,3.14-1.65,4.45-4,3.85-6.95-.18-.91.86-.14,1.5,1.11.93,1.82-.79,5.34-3.12,6.42a4.22,4.22,0,0,1-1.5.34ZM59,184.8c-.2,0-.42-.54-.92-1.82-.33-.83-.77-1.83-1-2.22a2,2,0,0,1-.32-.81c.17-.29,1.62.21,2.11.73a3.78,3.78,0,0,1,.49,3.65C59.27,184.63,59.16,184.81,59,184.8ZM29,182.6a1.2,1.2,0,1,1,1.2-1.2A1.19,1.19,0,0,1,29,182.6Zm122.63-1.93a1.2,1.2,0,1,1,1.2-1.2A1.19,1.19,0,0,1,151.58,180.67Zm-49.4-.36c-1.31.05-1.71-.57-1.93-2.55-.15-1.36-.44-1.48-2.59-1.13s-3-.23-3.17-2.56c-.13-1.86-.12-1.84-2.69-1.86s-2.8-.27-3.09-2.86c-.21-1.93-.14-1.87-2.63-1.84-2.76,0-3-.17-3.19-2.6-.15-2-.28-2.1-2-2a36.55,36.55,0,0,1-5.44,0c-1.47-.32-1.53-.26-1.84,1.72-.42,2.6-.93,2.92-4.14,2.6-1.57-.16-1.75-.13-2,1.26-.3,1.84-.67,2.38-.67.78,0-4,.28-4.22,3-3.5,2,.54,2.06.12,2.27-1.82.19-1.72.48-2.42,1.11-2.7a6.84,6.84,0,0,1,2.81.16,31.21,31.21,0,0,0,3.68.09c4.49,0,4.53-.06,4.53,3.09,0,1.32.29,1.61,2.64,1.54,2.94-.09,2.79-.17,3.29,3.36.17,1.22.27,1.27,2.71,1.23,2.66,0,3.26-.07,3.1,2.16-.14,2,.36,2.57,2.57,2.05,2.36-.54,2.81.46,3,2.27s.36,1.27,1.49,1.35,1.1,1.5-.22,1.63Zm-75.07-.61a1.2,1.2,0,1,1,1.19-1.19A1.2,1.2,0,0,1,27.11,179.7Zm3.36-.07a1.2,1.2,0,0,1,0-2.39,1.2,1.2,0,1,1,0,2.39Zm119.32-2a1.19,1.19,0,1,1,1.19-1.19A1.19,1.19,0,0,1,149.79,177.64Zm3.36,0a1.2,1.2,0,1,1,0-2.39,1.2,1.2,0,0,1,0,2.39Zm-62.49-1-12.43-9.26L66.47,175.2l.07-2.87,11.68-7.76L93,176Zm-61.86-.14A1.2,1.2,0,1,1,30,175.27,1.2,1.2,0,0,1,28.8,176.46Zm20.36-1.56-2.95-4.79L49.15,168l-2.68-3.42,2.89-2.95-3.17-2,3-4.13,4.11-1.82L49.16,159l3.4,2.33-3.23,3.48,2.9,3.79-3,2.33,3.24,5.32-.21.25Zm54.5,1.06L81.82,159.64s-2-1.52-2.6-1.88c-1.23-.78-1.47-.47-2.69.37-2.76,1.64-9.45,6.18-9.45,6.18l.06-2.35s6.72-5,10.44-7.11a1.38,1.38,0,0,1,1.49.29c8.11,6.41,16.41,12.63,24.64,18.92Zm-50.19-.26c-.09-.17-.39-.23-.53-.45-1-1.49-2.72-4.15-2.72-4.15l3.07-2.44L50.47,165,54,161.39,50.39,159a34.63,34.63,0,0,1,3.93-5l0,2.65-1.44,1.74,1.65,1.14v3.65l-1.69,1.77,1.55,1.56-.28,4-1.47,1.16,1.21,1.66Zm98.07-.82a1.19,1.19,0,1,1,1.19-1.19A1.19,1.19,0,0,1,151.54,174.88ZM26,170.53,32,164.92v2.55L26,173.42Zm122.11,2.74v-3.08l6.49-6v3ZM26,169.74v-3.05L32,161v3Zm7.15-.48L33,70.09l-7.06-7.46V60.16l8.92,9.24.21,99.78Zm115,.3v-3.45l6.49-5.91v3.25Zm-44.39-.63-8.58-6.67,0-23.26a55.49,55.49,0,0,0,8.9,5.49Zm-74.89-7.52a1.2,1.2,0,1,1,1.2-1.2A1.2,1.2,0,0,1,28.79,161.41Zm63.72-1.14,0-23.73,1.69,1.54.1,23.54Zm58.61-.23a1.2,1.2,0,1,1,1.2-1.19A1.19,1.19,0,0,1,151.12,160ZM27.19,158.35a1.2,1.2,0,1,1,1.2-1.2A1.19,1.19,0,0,1,27.19,158.35Zm3.41-.15A1.2,1.2,0,1,1,31.79,157,1.19,1.19,0,0,1,30.6,158.2Zm61,.12-5.23-4.89,5.39-5.11,0,2.36-3,2.89,3,3.12Zm-2-.44-4.36-3.21.68-.83Zm59.79-.72a1.19,1.19,0,1,1,1.19-1.19A1.19,1.19,0,0,1,149.35,157.16Zm3.5-.06a1.2,1.2,0,0,1,0-2.39,1.2,1.2,0,1,1,0,2.39Zm-85.78-.43c-.84-9.49-1.43-16.06-3.88-25l11.29-7.2-.11,27.49ZM36,135l0-32.61c10.66,15.14,16.4,32.84,18.25,49.62,0,0-5.72,2.63-8.49,4.24C42.8,149.32,44.07,149.33,36,135Zm-7.3,20.34a1.2,1.2,0,1,1,1.19-1.2A1.2,1.2,0,0,1,28.65,155.29ZM151.07,154a1.2,1.2,0,1,1,1.2-1.19A1.19,1.19,0,0,1,151.07,154Zm-66.62.11L80.31,151l0-2.4,5,4.77Zm1.42-1.27-5.18-5.11,5.43-5.42,5.36,5.07Zm-39-.18,5-2c-1.91-17.31-6.87-30.27-13.56-40.79l-.15,24.27C41.57,139.57,44.18,146.14,46.83,152.67Zm-21-.35V149.6L32,143.9v2.71Zm60.06-1.5,3.3-3.22-3.33-3.21-3.2,3.21Zm62.19.36v-2.9l6.17-6v3.08ZM78.5,149.55l0-27.69,1.38-.65-.1,28.93Zm7.44-.42-1.5-1.5L86,146.05l1.48,1.51Zm-60.12-.28v-3.14L32,139.9l.1,3Zm68.85-11.77c-6.42-5.55-11.36-14-16.77-18.68a39.74,39.74,0,0,0-10.44-5.77,29.79,29.79,0,0,0-9.15-1.52c-2.6,0-2.62-.06-2.62-.06l-1.1-2,1.83,0,.12-6.91a32.52,32.52,0,0,0-5.69.24l-.68-1.26a46.07,46.07,0,0,1,34.08,9.65c3.56,2.93,6.45,6.5,10,11.69,6.78,10.56,18.72,15.66,29.84,15.78l.92,1.43-1.86-.06a32.91,32.91,0,0,0-.21,3.59c0,2.54,0,3,.19,3.06a25.75,25.75,0,0,0,5.29-.1l.84,1.49c-13.26,1.37-26.31-3.24-34.57-10.64Zm53.4,10.42v-2.84l6.17-5.82v2.84Zm-67.91-.24.16-2.54,3-2.91-3.14-3,.08-2.12,5.52,5.12Zm40.35-.91c.29,0,.46,0,.49-.07s0-1.22.27-5.16c.09-1.45.19-1.45-1-1.6-1,0-3.3-.62-4.82-.8-1.28-.17-1,.22-1.37,1.24s-.6,2.11-1.09,3.7-.24,1.51,2.63,2.05A36.08,36.08,0,0,0,120.51,146.35Zm-28.73.25-5-5,4.92-5,.09,2.41a34.72,34.72,0,0,0-2.92,2.76l2.9,3ZM116.85,145l-.53-.88-1.29-.21.22-.9-.65-.92.8-.61,0-1.11,1,0,.88-.63.69.88,1,0-.06,1.25.66.55-.79.7.1,1.11-1.24-.21Zm8.12-1.5-.79-.52.81-.56,0-.85.5-.42,1.81,3.54-1.18-.47-.9.59Zm-14.55.82c.63,0,.71-1.18,1.4-3.4,1-3.09,1-2.81-.81-3.45-.82-.29-2.39-.82-3.22-1.2-2-.95-2-.95-2.78.34-.33.57-1,2-1.41,2.7-1.11,1.81-1.14,1.73.9,2.7,1.19.58,1.92.82,4.44,1.84A4.91,4.91,0,0,0,110.42,144.3Zm-2-2.05-.88-.55-1,.41-.2-1.07-1.08-.42.3-1-.47-.79.92-.18.67-1.45,1,.71,1.08-.39.3.8,1.1.53-.4.88.55,1.19-1.26.1Zm-22.17-1.09-5.52-5.4,5-5,5.51,5.42Zm-57.58-1a1.2,1.2,0,1,1,0-2.39,1.2,1.2,0,0,1,0,2.39Zm72.32-.27c.32,0,.5-.3.78-.86.12-.24.8-1.51,1.43-2.5,1.42-2.22,1.42-2.1,0-3A31.81,31.81,0,0,1,100,131c-1.1-1-1-.76-3.35,1.61-1.55,1.54-2.5,2-1.9,2.79,1.47,1.25,2.67,2.17,4.26,3.37C100.07,139.55,100.61,139.92,101,139.91Zm-15-.6,3.26-3.19-3.67-3.31-3,3.11Zm55.76,1.08,0-24.91c-3.58-6.12-7.26-12.28-9.17-19.16l-5.25,2.57c2.51,20.35,8.35,31.64,14.45,41.5Zm9.35-1.56a1.2,1.2,0,1,1,1.2-1.2A1.19,1.19,0,0,1,151.08,138.83ZM85.93,137.5l-1.57-1.44,1.45-1.57,1.58,1.64Zm-58.75-.24a1.19,1.19,0,1,1,1.2-1.19A1.19,1.19,0,0,1,27.18,137.26Zm3.21-.12a1.19,1.19,0,1,1,1.2-1.19A1.19,1.19,0,0,1,30.39,137.14Zm69.84.08-.91-.67-1.06.45-.08-1.25-1-.48.61-.88-.37-1.17,1,0,.82-1.06.73.7,1.43-.1.23,1.22.62.48-.48.81.35,1.07-1.23.08Zm52.61-1.33A1.2,1.2,0,1,1,154,134.7,1.19,1.19,0,0,1,152.84,135.89Zm-3.44,0a1.19,1.19,0,1,1,1.19-1.19A1.19,1.19,0,0,1,149.4,135.85ZM80.2,133l2.85-2.66-2.81-2.92.08-2.25,5,5-5.07,5Zm28.18.57,10.69-7.08.65,1.77-9.53,6.24Zm-79.58.58a1.2,1.2,0,0,1,0-2.39,1.2,1.2,0,1,1,0,2.39Zm64.13-.72c.5,0,1-.62,2-1.64s2.06-2.17,2.29-2.34c.75-.52.71-.64-.58-2.09-.39-.44-1.14-1.34-1.65-2s-1.33-1.49-1.49-1.66c-.53-.55-.82-.44-3.23,1.29-2.93,2.1-2.91,1.79-.22,5.26C91.56,132.26,92.3,133.49,92.93,133.44Zm58.19-.73a1.2,1.2,0,1,1,1.2-1.19A1.19,1.19,0,0,1,151.12,132.71Zm-62.74-.43-1.93-2.07.17-.21Zm-62.49-.47v-3.58l5.95-5.5V126Zm66.68-1-.72-1-1.23.08.18-1.17-.65-.48.64-.88,0-1.12,1,.24.83-1,.82,1,1-.12,0,1.17,1,.55-.69.76,0,1.31-1.43.05Zm-29.45-.08-.6-1.81,14.89-9.67,1.3,1.49Zm39-1.21-1.19-.89,15.63-10,.47,1.3Zm45.7.38v-3l6.59-6.34v3.08Zm-61.87-.71-.2.16-5.1-4.9,1-1ZM100,127.71l-.14-28.93,1.36.94-.1,27.45Zm-.84-.67-1.11-1,1.06-1Zm-73.3.25v-2.93l5.95-5.65v3.07Zm121.9-1.41v-2.76l6.59-6.29v2.79Zm-61.43-.37a1.14,1.14,0,0,0,.62-.32c.25-.2.85-.61,1.33-.93a25.55,25.55,0,0,0,3.38-2.41c.14-.34-1.66-2.68-4.15-5.49-1-1.11-1-1.32-1.94-.34-.79.89-3.66,3.32-3.58,4s1.15,1.59,3.6,4.9C86,125.31,86.14,125.5,86.36,125.51Zm11.07-.31-3.92-5.6.52-.52,4.81,4.74Zm7.66-.66v-27l7.35-5.22c-.13-.07.91,16.22,3.72,24.91Zm-18.3-1-.72-1.34-1.09.18.14-1.23-.92-.73.91-1.25-.12-.9,1.07.25,1-1,.67,1.28,1.41,0-.2,1.23,1,.82-1.07.63-.15,1.13-.92-.08Zm-6.38-.21-.12-1.1.65.57Zm18.8-2V123l-4.69-4.52L99.32,114l0,2.13-2.73,2.59Zm-38.76.88-.66-2,9.63-5.92,1.94,1ZM28.71,119a1.2,1.2,0,1,1,1.19-1.19A1.2,1.2,0,0,1,28.71,119ZM90,115.08l3.38,3.39-.42.46Zm-8.73,3c1.15-1,3.6-3.81,3.59-4.27s-3.39-3.39-5.42-4.69c-.64-.41-.9-.42-1.14,0-3.52,5.25-3.67,5.07-2.28,6.1a38.48,38.48,0,0,0,4.2,3.24C80.74,118.69,80.82,118.55,81.31,118.13ZM94,117.87l-5.58-5.34,5.18-5L99,113.2Zm57-.4a1.2,1.2,0,1,1,1.2-1.2A1.19,1.19,0,0,1,151,117.47Zm-70.51-1.08-.94-.83-1.12.29-.25-1.1-1.08-.4.58-1.12-.08-1.42,1.09.2.75-1.16L80.53,112l1.26-.11-.07,1.24,1.12.54-.71.82.45,1.11-1.34-.21Zm-53.35-.49a1.2,1.2,0,1,1,1.2-1.2A1.2,1.2,0,0,1,27.12,115.9Zm69.81-2.82-3.3-3.38-3,2.92L93.81,116Zm-66.52,2.77a1.2,1.2,0,0,1,0-2.39,1.2,1.2,0,1,1,0,2.39Zm122.22-1.24a1.2,1.2,0,1,1,1.2-1.2A1.19,1.19,0,0,1,152.63,114.61Zm-3.5,0a1.2,1.2,0,1,1,1.19-1.19A1.19,1.19,0,0,1,149.13,114.59Zm-55.33-.26-1.51-1.55,1.4-1.47,1.55,1.6Zm-20.42-1.06c.77-.55,2.86-4.51,3.22-5.38a5.94,5.94,0,0,0-2.27-1.43c-1.07-.5-4.56-1.9-4.88-2-.7-.17-.82.1-.93.55-.06.24-.34,1.16-.65,2.16-1.08,3.5-1.4,3.34.2,3.87.56.18,2.29.77,3.39,1.27S73,113.27,73.38,113.27Zm-44.58-.64a1.2,1.2,0,0,1,0-2.39,1.2,1.2,0,1,1,0,2.39ZM85.89,111,85.7,87.53,87.54,89l0,23.55Zm8.22-4,5.08-5.16,0,2.62L96.38,107l2.89,3-.06,2A64.45,64.45,0,0,1,94.11,107Zm56.9,4.5a1.2,1.2,0,1,1,1.2-1.19A1.2,1.2,0,0,1,151,111.5Zm-78.36,0-1-.85-.86.51-.49-.88-1.23-.17.55-1.34-.73-1,1.21-.22.29-1.43,1.18.7.9-.38.65,1.21,1.39,0L73.73,109l.72,1-1,.07Zm15.67-.09v-2.07l2.21-2.24-2.22-2.41v-2.41l4.6,4.67ZM64.77,110.1c.46,0,.46-.5.82-2.09.08-.35.32-1.27.54-2.05.67-2.38.75-2.42-1.31-2.83-1.2-.18-6.37-1.38-6.47-.56-.13,1.4-.22,4.69-.24,5.81,0,.37,0,.73.42.77,2.36.29,5,.9,6.24.95Zm20.15-.1a99.33,99.33,0,0,0-9.16-5.87L75.68,80l9.26,6.89Zm-59-.07v-3l6.18-5.89v2.83Zm36.17-1-.53-1.14-1.13.37v-1.37l-1-.63,1.21-.56.1-1.66,1.23.38,1-.63.89.94,1.09,0-.4,1.48.71.67-1,.51-.08,1.32-1.1-.66Zm85.53.22v-2.85l6.72-6.18v2.49Zm-93.94-1.79-1.51-2.54.54-1,1,.49,1.12-.41-.17,1.36.85.68-.86.8,0,1Zm39.81-.84-5.15-5.33,5.25-5.41,5.15,5.4ZM26,103.15l6.18-5.72v2.78L26,106.06Zm121.7,2.33V102.7l6.72-6.29V99Zm-54.14-1,3.35-3.31-3.32-3.33-3.36,3.25Zm0-1.9L92,101.12l1.37-1.42,1.48,1.44Zm5.75-2-5.11-5.24.59-.69,4.53,3.51Zm-11-.43-.13-2.36,2.78-2.38-2.54-2.66-.07-2.46,4.84,5Zm-59.54-2.4a1.19,1.19,0,1,1,1.2-1.19A1.19,1.19,0,0,1,28.71,97.73Zm122.15-1.44a1.2,1.2,0,0,1,0-2.39,1.2,1.2,0,1,1,0,2.39Zm-24.46-.73,3.77-5.63-3-2L130,84.17l-2.93-3.52,3-2.52L127,73a15.18,15.18,0,0,1,3.49,1.58l2.26,4.28-2.6,2.23,2.64,3.05-2.76,3.26,2.76,1.94-3,4.64Zm-99.12-.75a1.2,1.2,0,0,1,0-2.39,1.2,1.2,0,1,1,0,2.39Zm74.16.09-26-20,.11-2.65,26,20,11-7.79-.1,2.84Zm-71-.25a1.2,1.2,0,1,1,1.19-1.19A1.19,1.19,0,0,1,30.47,94.65ZM91,92.09l.27,0,2.84,2.07-.62.7S91.67,92.75,91,92.09Zm58.05,1.16a1.2,1.2,0,1,1,1.2-1.2A1.19,1.19,0,0,1,149.09,93.25Zm3.23,0A1.19,1.19,0,1,1,153.51,92,1.19,1.19,0,0,1,152.32,93.23ZM28.71,91.66a1.2,1.2,0,1,1,1.2-1.2A1.19,1.19,0,0,1,28.71,91.66Zm122.17-1.33a1.2,1.2,0,1,1,1.19-1.19A1.19,1.19,0,0,1,150.88,90.33ZM26,88.11V85.48l5.84-5.65v2.54Zm78.78-.79c-.87,0-2,0-3.6-.09-1.34,0-2.82-.07-3.29-.06-1.86,0-2.46-.58-2.5-2.58,0-1.78,0-1.78-2.35-1.87-2.81-.12-3.56-.84-3.59-3.49,0-1-.85-1.44-2.49-1.21-2.58.37-3.08,0-3.38-2.38-.25-2-.12-1.9-2.48-1.88-2.54,0-3.11-.41-3.14-2.36,0-1.14-.29-1.48-1.28-1.57s-1.5-.63-1-1.16A3.11,3.11,0,0,1,77,68.5c1.62,0,2.15.49,2.45,2.34.21,1.29.34,1.35,2.5,1.29,2.74-.07,3,.09,3.26,2.49.25,2,.6,2.26,3,1.82,1.72-.33,2.63.43,2.85,2.36.25,2.17.35,2.25,2.78,2.33s3.13.52,3.15,2c0,2.27.32,2.48,3.32,2.39a33.88,33.88,0,0,1,3.81.07c1.82.19,1.81.2,2-1.55.27-2.61.65-2.84,4.11-2.59,1.44.11,1.54,0,1.64-1.06.12-1.37.63-2.21,1-1.7.21.27.21.3,0,2.31-.23,2.24-.25,2.26-3.19,2-2-.16-1.89-.23-2.1,1.58C107.3,86.79,107.34,87.3,104.74,87.32Zm42.82.21v-2.9l6.82-6.32v2.8Zm-21.18-3.4-1.49-2,.48-3.76,1.26-1-.89-1.79.29-2.2.35-.2,2.48,4.8-2.93,2.57,3,3.66-2.84,3.82L129,90.12l-3.54,5.2c-.61.74-.65-2.21-.65-2.21l1.47-2.22-1.64-1.41h0V86Zm-1.88,1.7-.16,4.72,1.28,1-1,1.64.06,4.18.3.2c2.46,29.94,17.13,47.62,19.43,51.63a1.65,1.65,0,0,1,.42,1.44c0,.45-.06,3.09,0,5.87.1,14.18,0,23.9,0,23.9l10.78,11.49-.06-4.2-.53-.39V168.18l.45,0s.14-5.14.11-8.68h-.65l0-13.15.55-.06,0-8.52h-.6s-.14-8.93.08-13.27l.44,0,0-8.47-.5,0,0-12.11.62-.09-.17-8-.5,0c-.18-4.94-.09-13.47-.09-13.47l.57,0-.14-7.94-.41,0,.12-13.93.37,0L155,52l-.41,0,.07-6.85.28,0,.07-2.56-.3-.68,0-9.12.23-.1.06-4.57L138.27,45l6.16.18v5.46c0,9-.12,16.28.15,25.07a4.78,4.78,0,0,0,1.36.21c3.17.19,4,.44,4,1.2,0,.94-1.43,2.11-2.62,2.12a2.18,2.18,0,0,0-.72.27l.38,100,7.49,7.83,0,2.48L145.25,180l-.34-99.91-.35.16,0,33.56c-4.73-7.06-7.38-14.06-10-21.06l-1,.34s.34.12.34.12a81.08,81.08,0,0,0,10.47,22.19l-.06,32.52c-11.27-15.9-16.72-30.2-19-50.8l5.7-2.85.56-.74,4.3-2.15.42.69,2.61-1.81c-2-3.51-1.95-8.57-.3-11.24l-.71-.44a13,13,0,0,0,.27,11.23L136.22,91c-2.8-5.8-1.5-12-.18-13.65,0,0-2-1.29-3.49-2.08a27.25,27.25,0,0,0-4.9-2.26,2,2,0,0,0-1.92.09l-.57,3.24.91,1.23-1.06.85-.48,5,1.14,1.14ZM26,84.51V81.32L31.8,75.8v3.14Zm121.6-3.42,6.82-6.25v2.6l-6.82,6.4ZM28.28,76.84a1.2,1.2,0,1,1,1.2-1.2A1.2,1.2,0,0,1,28.28,76.84Zm116.56-1.93V45.46h1.8l-.08,29.81Zm6,.27a1.2,1.2,0,1,1,1.2-1.2A1.19,1.19,0,0,1,150.86,75.18ZM30,74a1.2,1.2,0,1,1,1.2-1.2A1.19,1.19,0,0,1,30,74ZM26.76,74a1.2,1.2,0,1,1,1.2-1.2A1.19,1.19,0,0,1,26.76,74ZM149,72.19A1.2,1.2,0,1,1,150.19,71,1.19,1.19,0,0,1,149,72.19Zm-61.57,0c-6.23-.77-4.58-7.3-2-8.65,3.57-1.67,6.44,1.68,4.15,5.08C88,71.08,84.77,69.43,86,66.7c.7-1.54,2.13-1.36,2.12.2-.51,1.47,0,.95.36.43,1.26-1.64-1.28-3.38-2.59-1.76a3.46,3.46,0,0,0-.7,3.11c.47,1.61,2.33,2.55,4.43,1.06,2.51-3,3.86-6.9,4.6-11.25,1.58-9.27,1.66-19,3-21.48l1.48,0c-2.15,10.6-2.16,19.68-4.45,28-1.13,4.15-4,7.1-6.83,7.09Zm64.84,0a1.2,1.2,0,1,1,1.19-1.2A1.2,1.2,0,0,1,152.27,72.11ZM127,71.94a3.16,3.16,0,0,0,3.18-3.12c-.16-2.11-1.41-3-3.46-2.84-1.1.11-1.07.13-1.82-1.19a38.75,38.75,0,0,1-2.43-7.05c.84,1.12,2.82,3.2,4.64,3.11s3.6-2,2.12-4.61a2.94,2.94,0,0,0-3.61-1.11c-2.12-3.31-2.52-6.62-3.2-10.46,0,0-.84,8.22-1.09,11.5-.49,5-1.18,8.28-3.12,12.27a37.47,37.47,0,0,0,5.11,2.34,9.75,9.75,0,0,1,2.11.72A2.7,2.7,0,0,0,127,71.94Zm-98.84-.67a1.2,1.2,0,0,1,0-2.39,1.2,1.2,0,1,1,0,2.39Zm95.47-2.63a17.53,17.53,0,0,1-2.54-6.7,25.09,25.09,0,0,1,.4-4.06c.11-.68.36,0,.83,1.46,1.94,6.12,2.45,7.29,3.79,7a3.17,3.17,0,0,1,2.09.09,2.56,2.56,0,0,1-.63,4.69C125.59,71.52,124.33,69.78,123.62,68.64Zm0,1.52c-2.49-1-4.07-2.45-3.62-4.85.2-.9.33-1.64.58-1.54s.66,1.19,1.43,3C122.23,67.42,124,70.14,123.67,70.16Zm-41.09-.11c-.13,0-.33-.1-.61-.36-2-1.93-.9-6.26,1.71-7.51,1.07-.74,3-.62,3.06.09,0,.28-.06.36-.34.36-2.19,0-4.52,3-3.87,6.27C82.61,69.38,82.75,70,82.58,70.05Zm68.23-1a1.2,1.2,0,0,1,0-2.39,1.2,1.2,0,1,1,0,2.39Zm-70.28-.37a1.53,1.53,0,0,1-.93-.56c-1.84-2.22-.35-6,2.55-7.29,1.11-.6,2-.19,1.81.43A5.88,5.88,0,0,0,80.31,67C80.39,68.05,80.73,68.6,80.53,68.63Zm39.08-.4-.67-.32.28-.58A3.18,3.18,0,0,0,119.61,68.23ZM78.43,68a1,1,0,0,1-.79-.25c-1.19-1.16-1.38-4.4-.23-6a9.36,9.36,0,0,1,2.7-2.26,2.94,2.94,0,0,1,2,.28c.32,0-.15.32-.76.67-2.16,1.24-3.59,3.46-3.21,5.55C78.32,67.27,78.71,68,78.43,68Zm-2.19-1A1.9,1.9,0,0,1,75,66c-1.42-2-.24-6.31,2.66-7.2,1.93-.59,2.65,0,1.09.88-2.25,1.31-3.42,3.87-2.77,5.9C76.25,66.52,76.55,66.92,76.24,66.94Zm-2.33-1.48a1.7,1.7,0,0,1-1.44-1.06A5.38,5.38,0,0,1,72.73,60a5,5,0,0,1,3.65-2.52,2,2,0,0,1,1.06.16c.68.29.45.33-.83,1a5.58,5.58,0,0,0-2.93,5.71C73.8,65.21,74.17,65.45,73.91,65.46Zm73.65.44V62.75l6.64-6.26v3.08Zm-56.4-.41a18.82,18.82,0,0,1-1-2.28c1.56-2.24,2-5.9,2.24-8.68.87-7.87,1.79-17.37,2.18-17.46l1.73,0c-.66-.43-1.5,13-2.84,21.6-.1.67-1.54,7.26-2.34,6.86ZM71.08,64.1c-2.28-1.54-1.06-6.35,2.11-7.54,1.15-.44,1.57-.5,2.09,0,.33.31.65.42-.19.72a4.75,4.75,0,0,0-3.61,5.33c0,.62.63,2.25-.4,1.48Zm18.44-1.33-1-.67a57.55,57.55,0,0,0,2-11.06c.55-4.6,1-9.33,1.71-13.84l1.58-.06c-.82,2.79-1.21,10.58-2,17.11-.47,3.3-1,7.85-2.22,8.52Zm-1.8-1.09-1.33-.77a56.16,56.16,0,0,0,1.3-5.84c.61-4.34.86-9.59,2.26-17.68l1.44-.12c-.36,2.6-1,8.38-1.63,13.7-.68,6.18-1.75,10.86-2,10.71Zm59.84.21v-3.1l6.64-6.1v2.85ZM85.48,60.7,84.19,60A87.57,87.57,0,0,0,85.9,50.3c.57-4.17,1-8.24,1.79-12.82l1.53-.1C88.46,40.9,87.59,49.16,86.9,55,86.5,58.38,85.68,60.77,85.48,60.7Zm36.54-7a51.53,51.53,0,0,1,.49-6c.2-.11.83,5.3,3,7.75a2.48,2.48,0,0,1,3.14,3.75C125.13,62.34,122,55.83,122,53.75Zm-38.54,6-1.86-.86c.23,0,.67-1.23,1.09-3.22,1.3-6.07,2.59-18,2.8-18l1.43-.11c-.46,3.21-1.1,8.28-1.76,12.77-.76,5.08-1.46,9.41-1.7,9.44ZM80.9,58.61l-1.41-.85a8,8,0,0,0,.88-2.46c1.27-6,1.84-11.36,2.62-17.23l1.54-.2c.12-.17-1.32,11.55-2.51,17.47A8.18,8.18,0,0,1,80.9,58.61Zm-2.2-1.06-1.51-.74c1.64-4.64,1.79-9.08,3.37-18.4l1.6-.29a169,169,0,0,1-2.87,18.21A2.68,2.68,0,0,1,78.7,57.55Zm-2.16-1.09-1.7-.68,3.56-17.1,1.43-.2c-.89,4.93-1.35,10.64-2.56,15.13a24.16,24.16,0,0,1-.73,2.85Zm74-2.71a1.19,1.19,0,1,1,1.19-1.19A1.19,1.19,0,0,1,150.56,53.75ZM149,51a1.2,1.2,0,1,1,1.19-1.19A1.19,1.19,0,0,1,149,51Zm3.11-.07a1.2,1.2,0,1,1,1.19-1.19A1.19,1.19,0,0,1,152.11,50.88Zm-1.49-2.75a1.2,1.2,0,1,1,1.2-1.2A1.2,1.2,0,0,1,150.62,48.13Zm-10.82-4,14.34-14.5.05,2.9-9.83,9.63,9.9.15,0,2Zm6.58-2.76,7.68-7.33.06,7.45Zm-8.21-.54s0-.27-.68-1.53c-2.1-3.64-2.58-7-4.43-10.89A11.18,11.18,0,0,0,129.59,24l2.31-4.22-65.11.13L77.21,38.09A125.71,125.71,0,0,1,122.59,38a49.71,49.71,0,0,0,2.52-4.85C127.2,38.78,133.87,42.4,138.17,40.84Zm-2.37-.49c-3.44,0-6.31-1.58-8.86-5.05-.81-1.1-1.12-1.6-1.12-2.06A12.57,12.57,0,0,1,127,31a22.75,22.75,0,0,1,.77,2.52c.93-3.4,1.29.54,1.65,1.58,1.13-3.28,1.74,1.23,1.68,2.45,1.54-2.1,1.44,1.36,2.19,2,0-1.82,1.09-.58,2.48-.19-.72-1-2.14-1.7-.33-1.93-1.81-1.24-2.71-1.05-1-1.74-1.35-.75-3.58-1.64-1.12-2.13-1.5-.95-3.92-1.35-1.32-2.25-2-1.2-4.58-1.12-.9-2.08-1.33-.78-3.68-1.07-1.05-1.75a9.93,9.93,0,0,1-1.11-.65L130.08,25a1.18,1.18,0,0,1,.69.32c1.21,1.26,2.38,3.58,3.43,6.82a55,55,0,0,0,2.71,7c.55,1.1.5,1.16-1.11,1.18ZM77.65,36.26l-9-15.37,2.13,0,8,13.17,10.72-1.21L85.92,21,89.1,21l3.17,11.58a143.36,143.36,0,0,1,16.67.09l1.68-11.74,3,.1L111.74,32.6l10.06,1.29,5.45-13,3.15-.06c-2,3.42-7.1,14.45-8,15.53-21.92-3.5-33.29-1.61-44.71-.06Zm2.1-3.56L72.94,20.87l10.94-.05,3.68,11Zm41-.35a28.31,28.31,0,0,0-6.82-.85l2-10.58,9.7,0ZM93.4,31.11,90.83,20.83l18.26-.1L107.58,31C102.79,30.69,98.11,31,93.4,31.11Z"/></g></g></g><path id="path147-0-8-1-3-6-4-3-4" d="M131.75,223.79c7.91-.17,11.46-9,5.6-15.9-.85-1-.94-1.58.62-.61,3.95,2.62,11.52.89,11.9-7.12.48-9.88-13.41-12.72-16-2.22-.14,1.11-1,1.08-.83-.49a32.46,32.46,0,0,1,3.43-12.15H127a32.63,32.63,0,0,1,3.42,12.15c.22,1.57-.69,1.6-.82.49-2.61-10.5-16.51-7.66-16,2.22.39,8,8,9.74,11.91,7.12,1.55-1,1.47-.39.62.61-5.87,6.87-2.32,15.73,5.6,15.9Z"/><path id="path147-0-8-1-0-3-83-9-4-0" d="M48.26,26.21c7.92.18,11.47,9,5.61,15.9-.85,1-.94,1.58.61.62,4-2.63,11.52-.9,11.91,7.11.48,9.88-13.42,12.72-16,2.22-.14-1.11-1-1.08-.83.49A32.63,32.63,0,0,0,53,64.7H43.55A32.46,32.46,0,0,0,47,52.55c.22-1.57-.69-1.6-.83-.49-2.61,10.5-16.5,7.66-16-2.22.39-8,8-9.74,11.9-7.11,1.56,1,1.47.38.62-.62-5.86-6.87-2.31-15.72,5.61-15.9Z"/></g></svg>