<?xml version="1.0" encoding="utf-8"?>
<!-- Generator: Adobe Illustrator 23.0.1, SVG Export Plug-In . SVG Version: 6.00 Build 0)  -->
<svg version="1.1" xmlns="http://www.w3.org/2000/svg" xmlns:xlink="http://www.w3.org/1999/xlink" x="0px" y="0px"
	 viewBox="0 0 180 250" style="enable-background:new 0 0 180 250;" xml:space="preserve">
<style type="text/css">
	.st0{fill:#FFFFFF;}
	.st1{fill:#E2CF00;}
	.st2{fill:#131F67;}
	.st3{fill:#D40000;}
	.st4{fill:#100F08;}
</style>
<g id="white-background">
	<rect class="st0" width="180" height="250"/>
</g>
<g id="Layer_1">
	<g id="g11398-8-7_1_" transform="matrix(0.99553774,0,0,0.99680134,10.746305,318.48631)">
		<path id="path9766-0-8_1_" class="st3" d="M3.2-263.2c0,0-1.8-2.6-4.2-5.6c-1.6-2-2.9-4.2-3-6.1c-0.1-2.2,1.2-4.3,3.5-4.4
			c2.4-0.1,3.3,1.7,3.7,3.1c0.4-1.5,1.4-3.2,3.7-3.1c2.4,0.1,3.7,2.3,3.5,4.4c-0.1,1.9-1.4,4.1-3,6.1C5-265.8,3.2-263.2,3.2-263.2z"
			/>
		<path id="path9768-3-3_1_" class="st3" d="M156.1-125c0,0-1.8,2.6-4.2,5.6c-1.6,2-2.9,4.2-3,6.1c-0.1,2.2,1.2,4.3,3.5,4.4
			c2.4,0.1,3.3-1.7,3.7-3.1c0.4,1.5,1.4,3.2,3.7,3.1c2.4-0.1,3.7-2.3,3.5-4.4c-0.1-1.9-1.4-4.1-3-6.1
			C157.9-122.4,156.1-125,156.1-125z"/>
		<path id="path9772-1-7_1_" class="st3" d="M79.7-254.6c0,0-3.8-6.2-8.9-13.4c-3.4-4.8-6.1-10.1-6.4-14.6
			c-0.3-5.2,2.5-10.3,7.4-10.6c5-0.3,7,4,7.8,7.5c0.8-3.5,2.8-7.7,7.8-7.5c5,0.3,7.7,5.4,7.4,10.6c-0.3,4.5-3,9.8-6.4,14.6
			C83.4-260.8,79.7-254.6,79.7-254.6z"/>
		<path id="path9786-2-1_1_" class="st3" d="M79.7-133.6c0,0-3.8,6.2-8.9,13.4c-3.4,4.8-6.1,10.1-6.4,14.6
			c-0.3,5.2,2.5,10.3,7.4,10.6c5,0.3,7-4,7.8-7.5c0.8,3.5,2.8,7.7,7.8,7.5c5-0.3,7.7-5.4,7.4-10.6c-0.3-4.5-3-9.8-6.4-14.6
			C83.4-127.5,79.7-133.6,79.7-133.6z"/>
		<path id="path15-34-0-0-4_1_" class="st3" d="M-4.4-281.9l0.1-1.6c0.4-5.1,1.5-6.8,7.7-12c3-2.6,4-3.8,4.1-5.3
			c0.4-3.5-2.7-4.5-4.7-4.6c-2.6,0-5.5,1.5-4.1,5.2l-2.9,0.9c-0.6-3.4,0-6.6,2.7-8c3.6-1.8,8.3-1.1,10.7,1.8c1.6,2,1.9,4.7,1.1,6.8
			c-2.5,5.4-10.9,7.8-11.6,14h9.3v-3.5h2.7v6.4L-4.4-281.9L-4.4-281.9z"/>
		<path id="path15-5-4-5-2-7_1_" class="st3" d="M163.7-106.3l-0.1,1.6c-0.4,5.1-1.5,6.8-7.7,12c-3,2.6-4,3.8-4.1,5.3
			c-0.4,3.5,2.7,4.5,4.7,4.5c2.6,0,5.5-1.5,4.1-5.2l2.9-0.9c0.6,3.4,0,6.6-2.7,8c-3.6,1.8-8.3,1.1-10.7-1.8c-1.6-2-1.9-4.7-1.1-6.8
			c2.5-5.4,10.9-7.8,11.6-14h-9.3v3.5h-2.7v-6.4L163.7-106.3L163.7-106.3z"/>
	</g>
</g>
</svg>
