<?xml version="1.0" encoding="utf-8"?>
<!-- Generator: Adobe Illustrator 23.0.1, SVG Export Plug-In . SVG Version: 6.00 Build 0)  -->
<svg version="1.1" xmlns="http://www.w3.org/2000/svg" xmlns:xlink="http://www.w3.org/1999/xlink" x="0px" y="0px"
	 viewBox="0 0 180 250" style="enable-background:new 0 0 180 250;" xml:space="preserve">
<style type="text/css">
	.st0{fill:#FFFFFF;}
	.st1{fill:#E2CF00;}
	.st2{fill:#131F67;}
	.st3{fill:#D40000;}
	.st4{fill:#100F08;}
</style>
<g id="white-background">
	<rect class="st0" width="180" height="250"/>
</g>
<g id="Layer_1">
	<g id="g5421_2_" transform="translate(4.9835822,-5.5524948)">
		<path id="path147-0-8-1-6-7-2-1-6-3_2_" d="M85,32.1c-7.9,0.2-11.5,9-5.6,15.9c0.9,1,0.9,1.6-0.6,0.6c-3.9-2.6-11.5-0.9-11.9,7.1
			c-0.5,9.9,13.4,12.7,16,2.2c0.1-1.1,1-1.1,0.8,0.5c-0.2,4.3-1.6,8.3-3.4,12.1c3.1,0,6.6,0,9.4,0c-1.8-3.9-3.2-7.9-3.4-12.1
			c-0.2-1.6,0.7-1.6,0.8-0.5c2.6,10.5,16.5,7.7,16-2.2c-0.4-8-8-9.7-11.9-7.1c-1.6,1-1.5,0.4-0.6-0.6C96.5,41.1,92.9,32.3,85,32.1
			C85,32.1,85,32.1,85,32.1L85,32.1z"/>
		<path id="path147-0-8-1-6-1-4-5-4-2_2_" d="M85,229.7c-7.9-0.2-11.5-9-5.6-15.9c0.9-1,0.9-1.6-0.6-0.6c-3.9,2.6-11.5,0.9-11.9-7.1
			c-0.5-9.9,13.4-12.7,16-2.2c0.1,1.1,1,1.1,0.8-0.5c-0.2-4.3-1.6-8.3-3.4-12.1c3.1,0,6.6,0,9.4,0c-1.8,3.9-3.2,7.9-3.4,12.1
			c-0.2,1.6,0.7,1.6,0.8,0.5c2.6-10.5,16.5-7.7,16,2.2c-0.4,8-8,9.7-11.9,7.1c-1.6-1-1.5-0.4-0.6,0.6
			C96.5,220.6,92.9,229.5,85,229.7C85,229.7,85,229.7,85,229.7L85,229.7z"/>
		<path id="path147-6-9-8-7-0-5-4-9-1_2_" d="M161.1,215.5c3.2-0.1,4.6-3.8,2.2-6.6c-0.3-0.4-0.4-0.7,0.2-0.3c1.6,1.1,4.6,0.4,4.8-3
			c0.2-4.1-5.4-5.3-6.4-0.9c-0.1,0.5-0.4,0.5-0.3-0.2c0.1-1.8,0.6-3.4,1.4-5.1c-1.3,0-2.5,0-3.8,0c0.7,1.6,1.3,3.3,1.4,5.1
			c0.1,0.7-0.3,0.7-0.3,0.2c-1-4.4-6.6-3.2-6.4,0.9c0.2,3.3,3.2,4.1,4.8,3c0.6-0.4,0.6-0.2,0.2,0.3
			C156.5,211.7,158,215.4,161.1,215.5C161.1,215.5,161.1,215.5,161.1,215.5L161.1,215.5z"/>
		<path id="path147-6-9-8-7-4-5-9-2-7_2_" d="M8.9,45.6c-3.2,0.1-4.6,3.8-2.2,6.6C7,52.7,7,52.9,6.4,52.5c-1.6-1.1-4.6-0.4-4.8,3
			c-0.2,4.1,5.4,5.3,6.4,0.9c0.1-0.5,0.4-0.5,0.3,0.2C8.3,58.4,7.8,60,7,61.7c1.3,0,2.5,0,3.8,0C10,60,9.5,58.4,9.4,56.6
			c-0.1-0.7,0.3-0.7,0.3-0.2c1,4.4,6.6,3.2,6.4-0.9c-0.2-3.3-3.2-4.1-4.8-3c-0.6,0.4-0.6,0.2-0.2-0.3C13.5,49.4,12.1,45.7,8.9,45.6
			C8.9,45.6,8.9,45.6,8.9,45.6L8.9,45.6z"/>
		<path id="path15-9-1-0-1_2_" d="M0.9,43l0.1-1.6c0.4-5,1.5-6.7,7.7-12c3-2.6,4-3.8,4.1-5.3c0.4-3.4-2.7-4.5-4.7-4.5
			c-2.6,0-5.5,1.5-4.1,5.2l-2.9,0.9c-0.6-3.4,0-6.6,2.7-8c3.6-1.8,8.3-1.1,10.6,1.8c1.6,1.9,1.9,4.6,1.1,6.8
			c-2.5,5.4-10.9,7.8-11.6,14h9.3v-3.5h2.7v6.4L0.9,43L0.9,43z"/>
		<path id="path15-5-7-4-9-4_2_" d="M168.7,218.1l-0.1,1.6c-0.4,5-1.5,6.7-7.7,12c-3,2.6-4,3.8-4.1,5.3c-0.4,3.4,2.7,4.5,4.7,4.5
			c2.6,0,5.5-1.5,4.1-5.2l2.9-0.9c0.6,3.4,0,6.6-2.7,8c-3.6,1.8-8.3,1.1-10.6-1.8c-1.6-1.9-1.9-4.6-1.1-6.8
			c2.5-5.4,10.9-7.8,11.6-14h-9.3v3.5h-2.7V218L168.7,218.1L168.7,218.1z"/>
	</g>
</g>
</svg>
