<?xml version="1.0" encoding="utf-8"?>
<!-- Generator: Adobe Illustrator 23.0.1, SVG Export Plug-In . SVG Version: 6.00 Build 0)  -->
<svg version="1.1" xmlns="http://www.w3.org/2000/svg" xmlns:xlink="http://www.w3.org/1999/xlink" x="0px" y="0px"
	 viewBox="0 0 180 250" style="enable-background:new 0 0 180 250;" xml:space="preserve">
<style type="text/css">
	.st0{fill:#FFFFFF;}
	.st1{fill:#E2CF00;}
	.st2{fill:#131F67;}
	.st3{fill:#D40000;}
	.st4{fill:#100F08;}
</style>
<g id="white-background">
	<rect class="st0" width="180" height="250"/>
</g>
<g id="Layer_1">
	<g id="g6503_1_" transform="matrix(0.99999718,0,0,1.000002,-4.9738447,-7.5442065)">
		<path id="path7431-0-1_1_" d="M18.9,47.6c-3.5,4.4-7.2,6.9-7.3,10.4c0,1.1,0.7,3,2.8,3.4c1.4,0.2,3.3-0.8,3.3-2.8
			c0-0.4,0.5-0.4,0.5,0.2c-0.1,1.6-0.6,3.4-1.6,4.9c1.5,0,3,0,4.6,0c-0.9-1.5-1.5-3.3-1.6-4.9c0-0.5,0.5-0.6,0.5-0.2
			c0,2,1.9,3,3.3,2.8c2.1-0.4,2.8-2.2,2.8-3.4C26,54.5,22.3,52,18.9,47.6z"/>
		<path id="path7435-3-6_1_" d="M171.1,217.5c-3.5-4.4-7.2-6.9-7.3-10.4c0-1.1,0.7-3,2.8-3.4c1.4-0.2,3.3,0.8,3.3,2.8
			c0,0.4,0.5,0.4,0.5-0.2c-0.1-1.6-0.6-3.4-1.6-4.9c1.5,0,3,0,4.6,0c-0.9,1.5-1.5,3.3-1.6,4.9c0,0.5,0.5,0.6,0.5,0.2
			c0-2,1.9-3,3.3-2.8c2.1,0.4,2.8,2.2,2.8,3.4C178.3,210.6,174.6,213.1,171.1,217.5L171.1,217.5z"/>
		<path id="path37-0-2-9_1_" d="M13,36.3h-2.2v-3H13c0,0,0-1.6,0.1-4.5c0.1-6.1,0.3-7.1,2.1-8.7c3.5-3.3,9.4-0.6,9.3,4.4
			c-0.1,7,0,13.8-0.2,14.7c-0.4,1.7-0.4,1.8-0.3,2.1c0.3,0.6,3,0.9,3,0.7v3c-2,0.2-2.9,0-4.5-1.2c-1,1-4.1,1.9-6.6,0.8
			C14,43.7,12.6,41.4,13,36.3L13,36.3L13,36.3z M20.5,41.6c-1.1-1.6-3-3.7-4.7-4.5c-0.1,1.8,0,3.3,0.7,4.2
			C17.5,42.6,19.2,42.9,20.5,41.6L20.5,41.6L20.5,41.6z M21.4,24.2c-0.8-2.3-2.9-3.1-4.5-1.6c-1,0.9-1.1,1.8-1.1,7
			c0,3.2,0,4.5,0,4.5c3,1,5.8,4.4,5.8,4.4l0.1-9.6C21.7,27.3,21.6,25.7,21.4,24.2L21.4,24.2L21.4,24.2z"/>
		<path id="path37-0-5-5-3_1_" d="M176.9,228.7h2.2v3h-2.2c0,0,0,1.6-0.1,4.5c-0.1,6.1-0.3,7.1-2.1,8.7c-3.5,3.3-9.4,0.6-9.3-4.4
			c0.1-7,0-13.8,0.2-14.7c0.4-1.7,0.4-1.8,0.3-2.1c-0.3-0.6-3-0.9-3-0.7v-3c2-0.2,2.9,0,4.5,1.2c1-1,4.1-1.9,6.6-0.8
			C175.9,221.4,177.3,223.6,176.9,228.7L176.9,228.7L176.9,228.7z M169.4,223.5c1.1,1.6,3,3.7,4.7,4.5c0.1-1.8,0-3.3-0.7-4.2
			C172.4,222.5,170.8,222.2,169.4,223.5L169.4,223.5z M168.5,240.9c0.8,2.3,2.9,3.1,4.5,1.6c1-0.9,1.1-1.8,1.1-7c0-3.2,0-4.5,0-4.5
			c-3-1-5.8-4.4-5.8-4.4l-0.1,9.6C168.2,237.8,168.3,239.4,168.5,240.9L168.5,240.9L168.5,240.9z"/>
		<path id="path4075-4-3-9_1_" class="st1" d="M87.3,237l18.9-34.3c0,0,4.5,1.8,9.9,3.2c-5.1,13.3,0,30.9,0,30.9S87.3,237,87.3,237z
			 M35.4,178.3c-1.1-14.6,0.6-27,1.3-40.4c0-0.2-6.1-4-6.1-4l14.6-8.2c1.4,0.7,2.3,0.6,2.6-0.8c-1.5-5-1.8-9.8,1.6-13.9
			c2.5-3,8.3-1.5,9.9-1.5c1.3,0,4.4-10.3-0.8-13.3c-1.1-0.6-1.6,6-2.4,8.8c-3.4-2-9.6-3.6-10.4-7.1c-0.4-1.9,5.7-5.6,4.5-7.8
			c-1.8-3.1-6.3-7.9-8.2-6.6c-1.8,1.6-6.2,5-6.2,7.3c1.4,4.1,4.8,4.4,6.7,8.3c0.5,0.8,3.8,4.4,3.8,4.4c-1.3,1.9,0.8,5.3,0.9,4.8
			l-15.9-6.9c0,0,3.6,27.3-0.2,31.3c-0.4,0.4,3.4-1.1,3.5-0.8c1.2,1.5,14,9.6,17.6,12.5c6.5-9.1,8.9-13,17.3-21.1
			c1.8-1.5,6-4.3,8.3-7.6c1.9-2.7,2.7-5.7,2.3-8c-0.4-3-0.7-5.1-2.6-7.5c-4.3-5.6-11.2-10.9-11.1-11l2.4-1.9c0,0,8.5,7,12.1,12.1
			c2.4,3.5,1.3,7.4,3.4,8.2c0.5,0.2,3.9-0.1,5.1,0.1c0.1,0,25,17.5,20.5,18.5c-6.2,1.4-16.2,0.5-16.2,0.5c-7.1-6.9-10.5-9.2-14.8-7
			c0,0-10.7,9.3-16.9,16.7c-3.5,4.2-9.1,12.9-9.1,12.9c-0.4-0.2-12.7-9.9-12.2-8.8c0,0,2.9,26.5,1.6,36.2
			c-0.9,8.2-2.1,17.1-2.7,24.7c1.7-0.4,4.3-0.9,4.8,1.8c0.4,3.6-4.2,2.8-4.4,2.5c0,0,2.6,5.6,2.6,5.6s-4,7-3.9,6.7
			c0.1-0.2-3.7-6.2-3.7-6.2s2.8-5,3.2-6c0.3-0.7-4.3,1.8-4.4-1.8c-0.2-3.8,4.7-2.9,4.5-2.4C37.6,193.5,36.3,185.1,35.4,178.3
			L35.4,178.3z M96.3,196.5c0.1-0.1-10.7-4.3-20.7-3.9c-3.5-1.4-9.2-2.8-13.1-0.2c-4.3-2.9-8-6.1-11.8-9.3c1.1,0,5.6-26,7.6-34.2
			c-1.2-11,9.5-11,10.4-2.2c11.4,11.8,25.4,23.9,39.9,35.9C106.3,187.3,98,191,96.3,196.5L96.3,196.5z M121.3,118.9
			C108.2,105.7,81,82,81,82l12.8-12.4c6.7,2,13.6,3.7,21.4,3.7c0,0,8.5,3.9,13.1,0l11.8,9.3c0,0-4.9,25.6-7.8,34.5
			c0.1,3.5-1.3,7.8-4.8,8.5C124.4,126.2,122.1,122,121.3,118.9L121.3,118.9z M147.6,88.2c1.4-8.3,1.6-14.4,2.6-24.1
			c-5.9,1.7-5.8-6.2,0-4.1l-2.7-5.9l4-6.6l3.6,6.3l-3.1,5.6c6.5,0.3,4.9,6.3-0.7,4.9c1.1,9.3,3.4,18.7,3.3,27.9
			c2,14.7-2.5,35.3-1.7,35.8l6.4,4.3l-1.1,32.1l-10-4.4l-3,2c1,1.9,2.2,3.7,2.6,5.8c0,0,6.9,5.7,5.9,7.4c0.4,0.3-4.9,7.3-6.5,7.1
			c-3-0.3-6.5-4.2-7.5-6.9c-0.8-2.8,6.2-5.5,5.3-7.5c-1.1-2.4-3.7-3.6-6.1-4.3c-3.3-1-4.8-3.6-4.9-3.6c0,0-1.3,10.3-2.5,9.4
			c-4.9-3.3-1.6-13.8-0.6-13.5c0,0,2.2,0.5,4.7,0.7c9,0.9,8.4-10.1,6.6-15.4c-0.6-2.1,2-1.4,3.2-1.7c4.4-1.3,11.1-5.8,11.1-5.8
			c-7-3.9-13.2-8.3-18.8-12.5c0,0-5.2,8.8-11.3,14.8c-4.5,4.4-5.2,5.9-12.6,11.6c-0.1,0.1-5.6,6.7-3,14.3c2.2,6.5,13,13.6,12.9,14.1
			l-2.1,2c0.1,0.1-15.3-9.5-14.9-19.8c0-0.4-7-0.5-7-0.5l-20.2-18.6l17.1-0.1l8.8,7.1l5.5,0.3c0.4,0.3,0.6-1.4,5.4-5
			c9.2-6.9,20.7-24.5,20.7-24.5s12.1,8.5,12.1,8.5C148.4,112.9,146.4,99.2,147.6,88.2L147.6,88.2z M103.5,28.1
			c0,0-12.6,23.5-19.5,34.6l-9.8-2.8c4.1-10.8,0.2-31.4-0.9-32L103.5,28.1z"/>
		<path id="path4073-4-2-4_1_" class="st2" d="M28.8,26.7v211.7h132.2V26.7H28.8z M120.3,180.2c6.3-5.8,12.5-10.6,18.3-14.1
			c2.2-1.3,2.9-1.5,3.8-0.7c1.4,1.3,2.3,2.4,1.9,3.4c-0.1,0.2-0.4,0.5-0.4,0.5l-3.5-1.3l1.1,3.9c-3.1,1.3-3.1,4.6-0.1,6.4l-2.1,4.7
			l4.8-2.1c0.2,1,3.6,3.5,5.7,0l4.3,2.1l-1.5-5.3c1.4-1.4,2.3-3.5,0-5.5l1-4.1l-3.9,1.3c-1-1.3-1.6-1.2-1.8-1.6
			c-0.1-0.5-0.1-1.7-0.7-2.7c-0.5-0.9-1.2-1.8-1.7-2.5c-0.3-0.5-0.1-0.6,1.5-1.4c0.7-0.4,1.3-0.8,1.3-0.8s7.7,3.9,10.8,5.3v70.9
			h-42.1c-4.8-14.1-1.3-26.4-0.1-31.6c-2.2-0.2-13.7-3.9-14-5.1C107.6,192.7,113.7,186.2,120.3,180.2L120.3,180.2z M37.9,200.9
			c-5.5-1.8-5.6,4.8-2.8,5.4c0.7,0.1,1.5,0.2,2.6-0.1c0.3,0.1-3.3,5.5-3.3,5.5s2.9,5.2,4.3,7.4l4.3-7.7l-2.8-5.3
			c4.4,2.3,6.8-4.5,2.1-5.3c-1.1-0.2-2.4,0.4-2.4,0.4l2.5-23c2,1.3,5.6,4,5.6,4c0.8,12.7,0.2,23.2,7.3,41.7l0.1,12.8H30.6v-66.9
			l4.5,3c0.1,0.4-0.7,0.1-0.3,4.8C35.3,181.7,36.6,189,37.9,200.9L37.9,200.9z M125.6,28.7c0.2,0.3,0.2,0.7,0.3,1.3
			c1,3.3,4.4,7.2,7.2,8.3c1,0.4,1.3,0.9,0.8,1.5c-0.7,0.7-3.6-1.2-5.7-3.7c-1.9-2.2-3.2-4.1-3.5-5.5c-0.2-0.8-0.3-1.4-0.1-1.8
			C124.9,28.2,125.3,28.3,125.6,28.7z M129,28.3c0.4,0,0.8,0.4,1.1,1.2c0.7,1.9,1.8,3.2,3.5,4.4c0.5,0.3,0.6,0.8,0.4,1.1
			c-0.1,0.1-0.2,0.2-0.3,0.2c-1.3,0.4-4.9-3.7-5.2-6.2C128.6,28.4,128.8,28.3,129,28.3z M133.4,28.4c0.7,0,1.1,1.5,0.6,2.3
			c-0.3,0.2-0.9-0.1-1.4-1.1C132.2,28.7,132.4,28.4,133.4,28.4z M131,28.4c0.2,0,0.5-0.1,0.7,0.1c0.3,1.5,1.4,2.6,2.4,3.5
			c0.2,0.3,0.2,0.9-0.1,1.1c-0.8,0.4-3.3-2.4-3.3-4C130.7,28.6,130.8,28.4,131,28.4L131,28.4z M127.9,29.4c0.9,2.8,2.9,5.1,4.8,6.3
			c1.3,0.8,1.8,1.3,1.2,1.8c-0.2,0.1-0.3,0.2-0.3,0.2c-3.1-1.2-6.9-5.7-7.1-8.9C127.2,27.9,127.8,28.8,127.9,29.4z M117.2,41.5
			c-1.6,0-3.6,0.4-5.3,1.1c-2.3,1-2.8,1.7-2.5,2c0.2,0.2,1.7-0.4,2.4-0.5c3.9-1,6.7-1.2,9.2-0.1c2,0.9,2,0.5,0.7-1
			C120.7,42,119,41.5,117.2,41.5L117.2,41.5z M131.1,43.7c1.3,0,2.6,0.3,3.1,0.9c0.4,2-0.6,1.1-1.4,0.7c-1.1-0.5-2.5-1-3.7-0.8
			c-0.8,0.1-0.8,0.1-0.4-0.2C129.4,43.9,130.4,43.7,131.1,43.7L131.1,43.7z M115.6,44.5c-3.7,0.3-5,2.2-7.4,4.1
			c-1,0.8-0.8,1.3,0.4,1.1c1.5-0.2,2.1-0.2,4.1,0.5c2.2,0.8,3.8,1.1,5,0.6c2.3-0.9,2.1-0.7-1.2,2.4c-1.8,1.4-1.1,1.3,0.7,0.1
			c1.3-1,2.2-1.7,2.5-2.3c0.1-0.3,0.1-1.3,0.4-1.3c0.8,0,0.4-1-0.4-1.5c-0.5-0.4-0.4-0.7,0.3-1.4c1-1.1,0.7-1.5-0.4-0.9
			c-0.2,0.1-0.3-0.2-1-0.6C117.6,44.7,116.7,44.4,115.6,44.5L115.6,44.5z M118.3,45.9c0.9,0.8,0.5,1-1.5,0.9c-1.7,0-3.1,0.2-5.1,0.8
			c-2.2,0.7-2.4,0.8-1.1-0.4C112.5,45.7,116.2,44.2,118.3,45.9z M130,45.2c0.9,0,1.7,0.1,2.4,0.5c1.9,1,2.3,1.9,0.2,1.2
			c-1.3-0.5-3.1-0.4-4.3-0.1c-1.3,0.3-1.5,0.5-1.3-0.2C127.1,45.8,128.4,45.2,130,45.2z M115.2,48.3c0.4,2.2,2.1,1.5,2.3,0.2l0.6,0
			c-0.3,1.8-2.7,3.3-3.7-0.2C114.6,48.2,115.5,48.3,115.2,48.3L115.2,48.3z M128.7,48.3l0.5,0c0.3,1.7,1.9,2.3,2.6,0.1l0.6,0
			C131.9,52,128.1,50.2,128.7,48.3z M113.9,48.5c0.3,0.1,0.4,0.9,0.4,1.2c-0.1,0.5-1.6,0-1.9-0.5C112.7,48.8,113.4,48.3,113.9,48.5z
			 M134.2,48.8v0.6c-0.7,0.2-1,0.6-1.6,0.4c0-0.4,0-0.9,0.3-1.4C133.4,48.2,134,48.5,134.2,48.8L134.2,48.8z M119.1,49.6
			c-0.3,0.2-0.7,0.3-0.7,0.3c-0.1-0.6-0.2-1.3,0.6-1.3C119.5,48.7,119.4,49.3,119.1,49.6z M127.8,48.6c0.3,0,0.6,0.7,0.6,1
			c-0.1,0.6-1.6,0.4-1.6-0.2C126.8,49.1,127.4,48.6,127.8,48.6L127.8,48.6z M113.7,72.1c-1.2-0.6-10.2-6-12.5-15.7l-0.5,1
			c1,2.3,2.4,6.1,2.4,6.1c-0.1-0.3,0.4,2.5,1.3,7.3c-0.5,0-1-0.1-1.6-0.3c-1.2-4.4-1.5-7.9-2.5-12.2l-0.4,1.2c0,0,1.3,7.7,2.1,10.8
			c-0.5,0-1.4-0.2-1.4-0.2c-0.7-3.3-1.3-5.4-1.9-8.7l-0.6,0.8c0.9,2.7,1.2,5.1,1.7,7.7c-0.6-0.1-1.2-0.1-1.8-0.5c0,0-0.9-4.7-1-4.8
			c-0.3,0.3-0.5,0.8-0.5,0.8c0,0,0.8,2.6,0.7,3.7c-0.6-0.1-1.6-0.4-2.3-0.6c-0.4,0.2-0.6,0.7-0.8,1c0.3,1.5,21,4.7,19.8,3.5
			c0,0.1,9.1,4,14.2,0.7c0,0,8.8,6.5,12.3,9.1c0,0.3,1.2,1.7,2.4,2.6l3.5,2.7c1,0.8,1.4,0.2,1.6-1.3c0.2-1.7,1.4-12.8,1.7-15.2
			c1.1-8,1.1-7.9-0.2-7.5c-1.9,0.6-3.5-0.2-3.5-2.1c0-1.2,0.5-2.1,1.8-2.6c0.4-0.1,0.8-0.1,1.3-0.1c0.2,0,0.7,0.1,0.7,0.1
			c0.6,0-2.3-5.3-2.3-5.3s2.8-4.9,4.1-6.7l3.6,6.5l-2.9,5.7c5.7-0.4,5.1,6.7-0.4,4.3c0,0,0,2.1,0,2c0.1-0.6,0-1.1,0.2-1.2
			c5.4,2,6.5-5.8,0.7-5.5c1-1.7,2-3.4,3-5.2l-4.2-7.7l-4.8,7.9l2.4,4.9c-0.5-0.1-1-0.1-1.5,0c-3.5,0.7-2.8,6.4,1.3,5.6
			c0.5-0.1,1.2-0.4,1.2-0.4l-2.6,23.1c0,0-0.3,0.2-1.3-0.5c-1.2-0.9-3.7-2.7-3.9-2.9c0.9-14.8-2.8-30.3-7-40.1
			c-0.3-0.7-0.1-15.4-0.1-15.4h24.2v68.1c-1.3-0.8-2.7-1.8-4-2.7c-0.4-0.3-0.6-0.7-0.5-1.3c-0.4,0.9-0.2,1.3-0.2,1.3l5.3,4.2
			l-0.2,67c0,0-8.6-4.4-13.8-6.5c-2.4-1-2.5-0.7-2.5-0.7c0,0,1.7,3.8,1.2,4.4c1.1,1.1,3,3.4,3.1,5.6c1,0.9,1.3,1,2.1,2.2l3.2-1.1
			l-0.7,3.3c3.4,2.4,0.1,5.5-0.5,5.2c0,0,1.5,3.2,1.8,4.6c-0.5,0-3.2-1.5-4-1.8c-1.9,3.8-5.2,0.6-5.2,0.1l-3.6,1.6l1.3-4.1
			c-2.3-1.4-3.9-3.6-0.1-5.9l-0.9-3.2l3.1,1.2c0,0,0.6-0.9,1-1.6c-1.2-5.1-8.8-4.1-11.3-8.6c0,0-0.6,5.7-1.2,7.7
			c-0.2,5.4-4.1-0.1-4.1-5.8c0-1.3,1.6-5.7,2.2-5.9c0.6-0.1,6,2.6,9.7-0.1c1.7-1.7,4.6-6.6,1.8-14.2c-0.9-1.8,1.7-2,2.6-1.4
			c0,0,8-4.2,11.6-6.2c-6.1-3.3-18.6-12.1-18.6-12.5c-1.7,2.7-3.6,4.9-6.3,8.6c-4.4,5.1-7.8,10-13.4,14.1
			c-7.8,5.7-9.7,11.4-7.5,18.1c0.9,2.9,2.7,5.8,5.6,6.9c1.5,1.5,7.4,7.1,7.4,7.1c-9.9,9-16.7,16.4-21.5,24.6
			c4,2.1,13.8,5.2,13.8,5.2c-3.6,12-2,21.5,0.4,31c0,0-28.3,0-42.9-0.4c-0.1,0.1-1.7,0-1.7-0.1c-0.1-1.1,2.6-4,3.4-3.6
			c0.4-0.4,1.3-0.6,1.1-1.1c-2-0.2-5.1,3.2-5.2,4.7h-1.2c-0.2-0.2,2.2-5.9,7.1-6.3c-0.1,0.2,0.7-0.4,0.1-0.7c-5.7,0.7-8.3,7-8.2,7
			h-0.9c1.9-6.2,7-8.1,9.9-8.4c0,0,0.9-0.3,0.7-0.9c-6.4,1.1-9.7,3.9-11.2,9.3h-1.2c0.8-5.5,6.5-10.3,12.9-10.1
			c0.2-0.1,0.4-0.3,0.3-0.9c-7.1,0.8-10.6,3.1-13.5,9.2c-2.6-6.7-9.8-9.9-9.9-9.9c0,0-0.2-1.9,0.2-1.8c6.2,2.2,8.5-3.1,8.3-6.2
			c-0.1-1.7,0-2.7-0.6-5.2c-0.5-2.2-0.9-3.7-0.9-4.7c0-1,0.3-1.1,1-1.5c1.3-0.6,2.2-2.8,1.9-3c-0.7,1.6-2.5,1.8-3.3,2.9
			c-0.7,0.9-0.4,2.3,0.8,7.1c0.7,2.9-0.1,1.6-1.8,0.7l-1.1-0.6c0.7,0.8,1.5,1.5,2.3,2.2c0.7,0.6,0.3,1-0.7,0.6
			c-1.4-0.7-4.1-0.4-5.2,0.5c-0.4,0.3-0.6,0.3-0.7,0c-0.5-7.5,0.3-12.1,2.8-17.7c1.6-3.8,4-6.7,7.2-6.9c3.2-0.3,7.8,0.9,12,3.7
			c4.9,3.3,9.7,8.4,10.2,14.6c0,0.1,0.4-0.5,0.5-0.9c0.2-0.7-0.6-3-1.9-5.5c-0.2-1.9-0.9-5.3-1.4-7.6c0.4-0.2,1.3-0.1,1.5,0.2
			c0.9,3.8,1.5,6.8,2.3,11.8c0,0.5,0.7-0.7,0.7-1.1c-0.1-0.8-2.2-10.7-2.2-10.5c0-0.3,2,0.1,1.7,0.4c0,0,1.5,8.4,1.6,8.1l0.5-0.7
			c0,0-1.5-6.1-1.3-7.3c0.1-0.2,1.3,0.2,1.6,0.4c0.4,0.6,0.7,2.8,0.9,4.3c0.5,0.4,0.6-0.7,0.6-1c-0.4-0.6-0.8-2.8-0.5-2.9
			c0.2-0.1,1.5,0.4,1.8,0.6c0.3,0.3,1.4-1.3,1.1-1.6c-6.1-2.3-13.8-3.7-19.6-3.8c-1.3,0-1.9-0.2-3.9-0.9c-5.3-1.9-9.6,0-10.2,0.6
			c-6.4-4.4-13.6-10.7-19.3-14.6c-0.3-0.2-0.9-0.3-1-0.3c-0.9,6.9-1.5,14.9-2.3,21.2c-0.3,2.5-0.4,2.7-0.2,2.8
			c0.1,0.1,0.3,0,0.4-0.1c1.9-0.7,3.6-0.2,4.5,1.4c0.5,2.4-1.7,4-3.9,2.9c-0.8-0.4-1-0.3-0.6,0.5c0.7,1.5,2.5,5.3,2.5,5.3
			c0,0-2.5,5.2-3.8,6.6c-1.3-2-2.9-4.1-3.6-6.3c1-1.9,2.9-4.4,3.4-6.3c-0.1-0.1-0.6,0-0.9,0.2c-3.3,1.5-3.8-1.4-3.7-2.4
			c0.1-2.1,1.9-2.6,4.6-1.6c-2.9-19.2-3.5-30.2-2.8-29c0,0-3.5-2.5-5.3-4.2l0.2-139.9h41.6c4.3,11.4,3.1,25.2,0.5,32.3
			c4.5,0.8,9.1,1.9,14.3,4.9c-8.8,12.8-22.5,26.6-37.4,35.5c-0.8,0.4-3.6-1.3-3.9-3c-0.1-0.4,0.1-1.2,0.6-1.2
			c1.1,0.4,2.2,0.8,3.2,1.3c0,0-1.5-3.7-0.8-4.3c0.5-0.3,0.9-0.6,1.1-0.9c1.1-1.4,1-2.9-0.1-4.1c-0.5-0.5-1-0.8-1.3-0.9
			c0,0,1-2.9,1.6-4.3L46,85c-1.3-1.8-3.8-3.3-5.6-0.5c-0.3,0.7-0.3,0.6-2.8-0.5c-1.5-0.6-2.3-1-2.3-1c0.5,1.6,1.3,3.1,1.9,5
			c-2.8,1.8-2.2,4.9,0.2,5.8L36,97.9c0,0,2.7-1,4.2-1.4c0,0,1.3,1.3,1.7,2.5c0.7,2.1,2.1,3.6,3.1,4.5c-1.6,1.1-2.3,1.5-4.1,2.4
			l6.1,2.4c-0.4-1.3-1.2-2.2-1.3-3.8c-0.1-1.4-0.2-1.4-1-2.3c-1.6-1.4-1.8-3.1-2.4-4.2c-0.8-0.4-1.2-1.1-1.6-1.9
			c-0.4-0.8-3,1.1-3.4,0.7c-0.5-0.5,0.8-3.1,0.7-3.4c-1.1-0.1-4-2.4-0.5-5l-1.1-4.2c0,0,2.7,1.2,4,1.8c0.9-4.2,5-2.2,5.7-0.4
			c0,0,3.2-1.1,3-0.2c-0.1,0.8-0.6,2.7-0.6,2.7c2.9,2.6,2.3,3.8-0.1,5.5c0,1.4,0.5,3.5,0.5,3.5s-1.7-0.7-2.7-1
			c-0.4,0.4-0.9,1.2-0.8,1.6c0.7,3.3,4.8,4.2,10.7,7.5c0.2-2.1,1.7-5,1.8-7.5c0.1-1.8,0.2-1.9,1.5-1.3c3.4,2.5,2.4,9.2,1.1,12
			c-0.7,1.6-0.9,1.5-2.3,1.1c-2-0.6-5.5-0.4-7.4,0.3c-2.7,1.1-3.9,7-4,8.8c0,1.7,0.1,3.4,1,5.5c0.4,1.4-0.3,2.4-1.5,2
			c-0.3-0.1-0.9-0.3-0.9-0.3l-11.5,5.9l2.2,1.3c0,0-1.6-1-0.6-1.5l9.9-5.1c1.8,0.7,1.6,0.9,2.8-0.4c0.7-0.7,1.1-0.7,2-0.7
			c5.8,0.6,8.4-0.3,9.4-2.7c0.2-0.4,0.1-0.4,0.7-0.7c1.1-0.4,1.6-1.2,1.7-2.2c0-0.6,0.3-0.7,0.8-1.2c0.9-0.8,1.1-1.9,0.5-2.9
			c-0.3-0.5-0.5-0.7-0.4-1.2c0.2-0.9-0.1-1.8-1-2.7c-1-1.1-1-0.9,0.9-2.6c3.6-3.4,6.8-6,10.3-9.1c2.4-2.1,2.1-2,3.1-1
			c3.4,3.5,4.8,9.1,3.2,13.9c-0.1,0.2-0.1,0.2,0.1,0c1-1.1,1-6.6,0.2-9c-1-3-2-4.6-5.3-7.5c-2.1-1.9-7.8-7.3-7.8-7.3
			c8.2-7.1,17.1-16,22.1-24.1C85.8,62.4,74,59.9,74,59.9c1.5-3,4.4-16.7-0.6-31.9c14.7,0.7,29.4-0.4,44.1,0.6c0,0,0.2-0.1,0.4-0.1
			c0.4-0.1,0.6,0.2,0.5,0.6c-0.3,1.2-2,3.9-3.2,3.6c-0.5-0.2-0.4,0.8-0.6,1.2c1.9-0.2,4.1-2.6,4.7-5c0.3-0.5,0.5-0.6,0.8-0.5
			c0.4,0.1,0.3,0.4-0.1,1.6c-1.2,2.9-3.6,5.5-6.4,5.3l-0.4,1c3.8-0.1,6.7-3.6,7.6-6.2c0.6-1.6,0.6-1.8,1.2-1.6
			c0.5,0.5,0.2,1.1,0,1.7c-1.9,6.1-7.1,7.7-9.7,7.4c-0.3,0-0.4,0.3-0.3,0.8c5.6,0.4,10-4.4,10.7-8.5c0.3-1.1,0.8-1.5,1.1-1
			c0.2,0.5,0.1,0.9,0,1.4c-1.5,6.5-8.5,10.2-12.7,9.1c-0.2-0.2-0.5,0.7-0.1,1c8.6-0.3,11.2-4.7,13.2-8.6c2.3,3.5,4.2,7.1,9.8,9.2
			c0,0,0.6,1.2,0.1,1.5c-0.2,0.1-0.6,0.1-1.1,0c-6.8-1.1-9.1,5.2-6.2,14.7c0.8,2.6,0.4,2.2-1.3,3.8c-0.8,0.8-1.2,2.1-1,2.2
			c0.3-0.2,0.4-0.6,1.1-1.2c0.3-0.3,0.9-0.5,1.4-0.8c1.3-0.7,1.2-1.2,0.8-2.9c-0.3-1.3-1.2-5.2-1.2-5.6c0-0.7,0.2-0.7,1.1,0
			c1.3,1,2,0.9,0.5-0.3c-0.6-0.5-1-0.9-1.2-1.1c-0.3-0.4-0.1-0.6,0.4-0.4c2.3,0.7,4.4,0.7,6.6-0.7c0.3,6.3-0.6,15.7-5.9,22.5
			C124.3,77,116.5,73.6,113.7,72.1L113.7,72.1z M119.9,57.8c-0.2,0-0.7,0.1-1.1,0.3c-1.5,0.9-1.2,4,0.5,4.4c0.7,0.2,1.3,0.3,2.4-0.3
			c0.7-0.3,1.6-0.6,1.9-0.5c0.6,0.2,0.7-0.3,0.9-0.8c0.3-1.2-1.8-1.3-3.4,0c-2.1,1.6-3.6-0.8-1.7-2.6C120,58,120,57.8,119.9,57.8
			L119.9,57.8z M103.9,64.5l1.7,2l1.1,4.7c-0.7,0.1-1.5-0.3-1.5-0.3C104.7,68.8,104.2,66.7,103.9,64.5z M127.4,65.7
			C127.4,65.7,127.4,65.7,127.4,65.7c-0.1,0-0.5,0.2-0.9,0.2c-0.3,0-0.6-0.2-0.9-0.1c-0.8,0-1.5,0.3-1.7,0.3c-0.2,0.1-0.5,0.1-0.7,0
			c-0.6-0.3-2.2-0.2-2.7,0.1c-0.6,0.3-1.3,0.3-1.7,0c-0.2-0.1-0.4-0.4-0.5-0.3c-0.1,0.1-0.4,1.4-0.5,1.9c0,0.2-0.1,0.5-0.1,0.5
			c0.1,0,0.4-0.2,0.8-0.4c0.8-0.4,1.7-0.4,3.2,0c1.9,0.5,2.6,0.3,3.8-0.2c0.9-0.5,1.4-0.6,2-0.4c0.1,0,0.5,0.2,0.6,0.2
			c0.1-0.1-0.2-0.7-0.4-1.2C127.6,65.8,127.5,65.6,127.4,65.7L127.4,65.7z M106.9,67.8c1.7,1.6,1.5,1.4,2.6,2.2l-0.1,1.5
			c0,0-1.3,0-1.9-0.2C107.3,70.8,106.4,67.8,106.9,67.8z M120.6,68.8c0.1,0.1,0.3,0.2,0.5,0.2c2.7,1-0.1,0.7-0.4,1.7
			c0,0.1,0.1,0.1,0.3,0c0.9-0.4,3.1-0.6,4.2-0.4c1.3,0.4,1.4,0.1,0.1-0.5c-0.9-0.4,0.2-0.6,0.6-0.9c0.8-0.5,0.2-0.7-0.8-0.2
			c-1,0.5-2.8,0.5-3.6,0c-0.4-0.2-0.7-0.4-0.9-0.4C120.3,68.4,120.5,68.7,120.6,68.8L120.6,68.8z M110.2,70.5l1.6,1.2l-1.6-0.2
			L110.2,70.5z M74.9,101c-0.3,0-0.6,0.3-0.6,0.6s0.3,0.6,0.6,0.6c0.3,0,0.6-0.3,0.6-0.6S75.2,101,74.9,101z M76.9,101.6l-7.1,3.4
			l1.9,0.6l0,1.9l1.7-0.6l0.7,1.8L76.9,101.6z M77.3,103.2c-0.3,0-0.6,0.3-0.6,0.6c0,0.3,0.3,0.6,0.6,0.6c0.3,0,0.6-0.3,0.6-0.6
			C77.8,103.4,77.6,103.2,77.3,103.2z M68.2,106.6c-0.3,0-0.6,0.3-0.6,0.6c0,0.3,0.3,0.6,0.6,0.6c0.3,0,0.6-0.3,0.6-0.6
			C68.8,106.9,68.5,106.6,68.2,106.6z M70.4,107.7l-8,3.7l2.4,0.7l-0.6,2.4l1.9-0.8l1.1,1.6L70.4,107.7z M70.6,109.4
			c-0.3,0-0.6,0.3-0.6,0.6c0,0.3,0.3,0.6,0.6,0.6c0.3,0,0.6-0.3,0.6-0.6C71.2,109.7,71,109.4,70.6,109.4z M54.7,109.8
			c3,0,6.4,1.1,7.6,3.7c0.3,1.3-1,2.1-3.7,1.3c-4.5-1.2-5.3-1.4-4.6-0.6c0.1,0.1,0.3,0.3,1,0.6c1.7,0.6,5,1.2,5.8,1.1
			c1.2-0.2,2,0.4,1.7,1.4c-0.3,1.1-1.9,1.6-4.3,1.3c-2.4-0.3-3.8-0.6-4.6-0.9c-1-0.3-1.1-0.3-0.6,0.4c0.3,0.4,0.3,0.7,0.7,0.8
			c1.6-0.1,3.3,0.2,4.8,0.4c2.6,0.2,3.1,1,1.1,2.1c-0.9,0.5-3.7,0.4-5.2-0.2c-1.1-0.4-3.7-1-2.7-0.2c0.2,0.2,0.2,0.6,0.6,0.8
			c1.4,0.2,5.2,0.5,5.8,1c0.4,0.3-0.5,1.2-2.3,1.7c-2.7,0.5-6.7,0.3-7.8-0.4c-2-4-0.9-10.6,2.2-13.1
			C51.2,110.2,52.9,109.8,54.7,109.8L54.7,109.8z M72.4,111.9c-0.3,0-0.6,0.3-0.6,0.6c0,0.3,0.3,0.6,0.6,0.6c0.3,0,0.6-0.3,0.6-0.6
			C73,112.2,72.7,111.9,72.4,111.9z M74.8,112.5l-8.3,4.1l2.1,0.6l-0.5,2.4l1.9-0.8l1.2,1.6L74.8,112.5z M74.9,114.5
			c-0.3,0-0.6,0.3-0.6,0.6c0,0.3,0.3,0.6,0.6,0.6c0.3,0,0.6-0.3,0.6-0.6C75.4,114.8,75.2,114.5,74.9,114.5z M79.7,119.4
			c-3.7,3.6-7.8,6.4-11.6,9.8l0.8,0l2.1-1.9l58-0.2l-1.4,2l0.6,0.2c0,0,1.7-2.6,1.6-2.7c-12.7,0-22.6,0-36.6,0.1
			c-2.5-2.5-5.2-4.9-7.9-7.3L79.7,119.4z M62,121.6c-0.3,0-0.6,0.3-0.6,0.6c0,0.3,0.3,0.6,0.6,0.6c0.3,0,0.6-0.3,0.6-0.6
			C62.6,121.9,62.4,121.6,62,121.6z M137.8,122.1c5,3.7,11,8.2,15.9,10.9c2,0.9,1.8,1.1-0.2,2.1c-2,1.2-5.3,2.8-8,4.2
			c-1.2,0.4-1.7-0.1-2.5,0c-0.6,0.2-0.8,0.3-1.1,0.7c-0.6,0.8-0.4,0.8-3.6,0.6c-3.2-0.1-4.5-0.1-5.2,0.3c-0.7,0.3-1.8,1.5-1.8,2
			c0,0.5-0.4,1-1,1.2c-0.8,0.2-1.7,0.8-1.6,1.7c-0.2,0.7-0.6,1-1,1.4c-0.9,0.9-0.8,1.6-0.6,2.5c0.1,0.4,0.3,0.3,0.2,1.4
			c-0.2,2.6-0.4,2.4,2.4,4.3l-14.2,12.3c-0.3,0.3-0.4,0.2-0.7,0c-1.7-1.3-2.9-3.4-3.6-5.5c-2.4-6.6,0.5-12,4.4-15.3
			c1.3-1.1,3.2-2.5,3.7-2.9C126.4,137.9,132.8,129.1,137.8,122.1z M64.2,122.6l-8.1,3.8l2.6,0.4l-0.5,2.2l1.9-0.7l1,1.9L64.2,122.6z
			 M64.6,124.3c-0.3,0-0.6,0.3-0.6,0.6c0,0.3,0.3,0.6,0.6,0.6c0.3,0,0.6-0.3,0.6-0.6C65.2,124.6,65,124.3,64.6,124.3z M138.9,126.8
			l-0.9-2.2c0,0-2.6,6.3-3.1,8.4c2.2-1.1,8.5-4.3,8.5-4.3l-2.7-0.5l0.3-2.5L138.9,126.8z M46.3,127.2c-0.3,0-0.6,0.3-0.6,0.6
			c0,0.3,0.3,0.6,0.6,0.6c0.3,0,0.6-0.3,0.6-0.6C46.9,127.5,46.7,127.2,46.3,127.2z M48.8,127.7c0,0-6,2.8-8.7,4l2.5,0.5l-0.4,2.5
			l2.3-0.9l0.9,2.4L48.8,127.7z M49.1,129.6c-0.3,0-0.6,0.3-0.6,0.6c0,0.3,0.3,0.6,0.6,0.6c0.3,0,0.6-0.3,0.6-0.6
			C49.7,129.9,49.5,129.6,49.1,129.6z M134.4,130c-0.3,0-0.6,0.3-0.6,0.6c0,0.3,0.3,0.6,0.6,0.6c0.3,0,0.6-0.3,0.6-0.6
			C135,130.3,134.7,130,134.4,130z M144.3,130.5l-2.9,7.9l7.8-3.9l-2.1-0.6l0-2l-1.7,0.5L144.3,130.5z M52.6,132.4
			c-0.3,0-0.6,0.3-0.6,0.6c0,0.3,0.3,0.6,0.6,0.6c0.3,0,0.6-0.3,0.6-0.6C53.2,132.7,52.9,132.4,52.6,132.4z M137.4,132.6
			c-0.3,0-0.6,0.3-0.6,0.6c0,0.3,0.3,0.6,0.6,0.6c0.3,0,0.6-0.3,0.6-0.6C138,132.8,137.8,132.6,137.4,132.6z M55,133.2l-8.2,4
			l2.6,0.6l-0.3,2.6l2.1-1.2l1.1,2.3L55,133.2z M55.5,134.8c-0.3,0-0.5,0.3-0.5,0.6s0.3,0.6,0.6,0.6c0.3,0,0.6-0.3,0.6-0.6
			S55.8,134.8,55.5,134.8z M141,135.3c-0.3,0-0.6,0.3-0.6,0.6c0,0.3,0.3,0.6,0.6,0.6c0.3,0,0.6-0.3,0.6-0.6
			C141.5,135.6,141.3,135.3,141,135.3z M129.6,138l-0.8-2.1l-3,7.8l8.2-3.7l-2.6-0.6l0-2L129.6,138z M121.3,136.3
			c-0.1,0-0.2,0-0.2,0.1c0,0.2-2.1,2.2-2.1,2.2l-24.1,0.2c0,0,2,0.5,2,0.5c3.2,2.5,8.1,7,8.1,7l6-0.2c3.3-3.2,8.3-5.7,10.5-9.7
			C121.5,136.3,121.4,136.3,121.3,136.3L121.3,136.3z M144,137.9c-0.3,0-0.6,0.3-0.6,0.6c0,0.3,0.3,0.6,0.6,0.6
			c0.3,0,0.6-0.3,0.6-0.6C144.5,138.1,144.3,137.9,144,137.9z M125.3,140.6c-0.3,0-0.6,0.3-0.6,0.6c0,0.3,0.3,0.6,0.6,0.6
			c0.3,0,0.6-0.3,0.6-0.6C125.9,140.9,125.6,140.6,125.3,140.6z M137.6,141.4c1.7,0,3.4,0.1,3.8,0.4c2.7,2.2,1.4,12.7-2,14.1
			c-3.7,0.8-6.3,1-9.5-1.1c-0.9-0.4-2.7-1.8-2.4-2.9c0.5-1.4,1.8-1.3,5.6-0.1c1.4,0.4,2.1,0.3,2.5,0.1c0.3-0.3-0.1-0.5-0.8-0.5
			c-0.3,0-1.5-0.3-2.5-0.6c-1.4-0.4-1.9-0.6-2.8-0.6c-1.6-0.1-2-0.2-2-1.1c0-1.8,2.5-2,7.1-1c0.5,0.1,1.5,0.3,1.8,0.3
			c0.2,0.1-0.3-0.6-0.4-1c-0.2-0.1-0.5-0.2-1.2-0.2c-3-0.3-5.4-0.5-5.5-0.9c-0.3-1.9,3.6-2.4,7.5-0.9c1,0.4,1,0.2,1-0.1
			c0-0.5-1.7-1.5-4.2-1.5c-2.4,0-2.1-1.2-0.1-2.1C134.2,141.3,135.8,141.5,137.6,141.4z M128.1,143.5c-0.3,0-0.6,0.3-0.6,0.6
			c0,0.3,0.3,0.6,0.6,0.6c0.3,0,0.6-0.3,0.6-0.6C128.7,143.7,128.5,143.5,128.1,143.5z M119.3,147.4l-0.5-2.1l-3.3,8.2l8.4-4.3
			l-2.8-0.5l0.2-1.7L119.3,147.4z M115.1,150.7c-0.3,0-0.6,0.3-0.6,0.6c0,0.3,0.3,0.6,0.6,0.6c0.3,0,0.6-0.3,0.6-0.6
			C115.6,151,115.4,150.7,115.1,150.7z M123.4,153l-0.7-2l-2.8,7.2l7.2-3.2l-2.1-0.6l0.3-2.2L123.4,153z M117.7,153.1
			c-0.3,0-0.6,0.3-0.6,0.6c0,0.3,0.3,0.6,0.6,0.6c0.3,0,0.6-0.3,0.6-0.6C118.3,153.3,118,153.1,117.7,153.1z M119.6,155.8
			c-0.3,0-0.6,0.3-0.6,0.6c0,0.3,0.3,0.6,0.6,0.6c0.3,0,0.6-0.3,0.6-0.6C120.1,156.1,119.9,155.8,119.6,155.8z M116,157.5l-2.4,6.8
			l6.7-3.2l-2-0.6c0,0,0.1-1.5-0.1-1.5c-0.1,0-1.4,0.4-1.4,0.4L116,157.5z M122,158.3c-0.3,0-0.6,0.3-0.6,0.6c0,0.3,0.3,0.6,0.6,0.6
			c0.3,0,0.6-0.3,0.6-0.6C122.5,158.5,122.3,158.3,122,158.3z M113,161.6c-0.3,0-0.6,0.3-0.6,0.6c0,0.3,0.3,0.6,0.6,0.6
			c0.3,0,0.6-0.3,0.6-0.6C113.6,161.8,113.4,161.6,113,161.6z M115.6,164.2c-0.3,0-0.6,0.3-0.6,0.6c0,0.3,0.3,0.6,0.6,0.6
			c0.3,0,0.6-0.3,0.6-0.6C116.2,164.4,115.9,164.2,115.6,164.2z M80.1,195.5c-0.3,0-1.1-0.7-1.3-1c0.5-0.1,0.9,0,1.2,0.2
			C80.3,194.8,80.4,195.4,80.1,195.5z M82.6,195c-0.1,0.8,0.4,2.3,0.3,2.7c-0.3,0.1-1.6-1.3-1.9-1.6c-0.1-0.5,0-1.1,0-1.3
			C81.4,194.6,82.3,194.6,82.6,195L82.6,195z M85,195.4c0.3,1.8,1.1,4.8,1,5.8c-0.1-0.1-1.2-1.1-1.9-2.2c-0.3-0.6-0.7-2.9-0.6-4
			C83.9,195,84.6,195.1,85,195.4z M68.8,195.2c-0.8,0.4-1.8,0.7-2.9,0.7c-0.9,0-2.6-0.5-2.4-0.4c0.4,0.8,1.5,0.4,1.6,0.9
			c-0.3,0.5-1,0.4-1.4,0.9c-0.1,0.1,0.1,0.2,0.6,0.2c1.6-0.7,3.7-0.7,5.6-0.1c0.4,0.1,0.1-0.3,0-0.4c-0.2-0.2-0.7-0.4-1-0.4
			c-1.7-0.3-0.9-0.5,0.2-1C69.9,195.4,70.1,194.6,68.8,195.2L68.8,195.2z M72.4,197.5c-0.2,0-0.8,0.3-1.4,0.5c-1,0.4-2,0.3-3.3-0.1
			c-1.2-0.3-1.6-0.2-2.8,0.4c-0.8,0.5-1.7,0.6-2.3,0.3c-0.8-0.5-0.8-0.3-0.4,0.8c0.1,0.3-0.1,1.1,0.3,1.3c0.3,0.2,0.6-0.4,0.8-0.4
			c0.2-0.1,1.5,0.5,2.2-0.1c1.3-0.5,1.7,0.3,2.6,0.2c1.5-0.5,2.4-1,3.6-0.1C71.8,200.1,72.1,198.1,72.4,197.5
			C72.5,197.5,72.5,197.5,72.4,197.5L72.4,197.5z M69.8,203.4c-1.1,0-1.6,0.7-3,0.5c-1.1-0.1-1.5,0.9-1,1.6c0.3,0.5,0.8,0.6,2.2-0.1
			c0.6-0.3,1.5-0.9,1.9-0.8c1.4,0.1,1.8,1.5,0.6,2.7c-0.6,0.3-0.6,0.7-0.4,0.7c0.5,0,1.4-0.5,1.7-1.2
			C72.4,205,71.3,203.3,69.8,203.4L69.8,203.4z M74.5,211.7c-1.4,0.3-3.3,1.8-4,2.9c-0.6,1-1.2,2.1-0.8,2.7c0.4,0.5,0.9,0.9,0.9,1.1
			c0,0.2-0.3,0.4-0.5,0.7c-1.2,1.3-0.9,1.4,0.8,0.5c0.9-0.4,1.2-0.6,1.8-0.5c1.6,0.4,3.6,0.1,5-0.4c0.6-0.2,1.2-0.5,1.3-0.4
			c-2.5,2.7-5.6,2.1-6.7,1.9c-0.2-0.1-0.3,0-0.3,0c0,0.1,0.3,0.4,1,0.7c1.2,0.5,3.9,0,5.7-1.3c3.4-2.2,5.3-4.4,2.6-3.5
			c-1.2,0.4-1.7,0.3-3.2-0.3c-2.3-1-4-1.3-5.8-0.7c-2.4,0.8-0.6-1.1,2.1-2.8C74.8,212.1,74.8,211.7,74.5,211.7L74.5,211.7z
			 M61.8,217.5l-0.8,0c-0.6-1.9-1.9-1.9-2.5,0l-0.7,0C58.4,215.1,60.9,214.6,61.8,217.5L61.8,217.5z M75.8,217.6l-0.6,0
			c-0.4-1.1-1.6-2.2-2.5-0.3l-0.4-0.1C73,214.3,75.9,216,75.8,217.6L75.8,217.6z M71.8,215.9c0.4,0,0.5,0.4,0,1.1
			c-0.3,0.5-0.6,0.4-1,0.1c-0.3-0.3-0.3-0.4,0-0.7C71.3,216.1,71.6,215.9,71.8,215.9z M76.2,215.9c0.2,0,0.5,0.1,0.8,0.2
			c0.9,0.3,1.1,0.6,0.7,0.9c-0.4,0.4-1,0.5-1.4,0.3c0-0.5-0.5-0.8-0.5-1.2C75.9,216,76,215.9,76.2,215.9z M62.1,215.9
			c0.6,0,1.5,0.3,1.4,0.7c-0.1,0.4-0.7,0.6-1.2,0.7c-0.3,0-0.3-0.1-0.4-0.3c-0.1-0.2-0.2-0.5-0.2-0.7
			C61.5,215.9,61.8,216,62.1,215.9L62.1,215.9z M57.9,216.1c0,0-0.3,1-0.5,1.4c-1.3-0.1-1.2-0.6-0.6-1.1
			C57.1,216.2,57.5,216.2,57.9,216.1z M56.8,218.5c0.2,0,0.5,0.2,0.9,0.3c1.2,0.4,3.1,0.3,4.6,0c0.7-0.2,1.1-0.4,1.2-0.3
			c0.3,0.2,0,0.9-1,1.4c-1.3,0.5-3.4,0.8-5,0C56.2,219.2,56.1,218.5,56.8,218.5L56.8,218.5z M56.5,220c1.2,0.8,2.4,1.1,4,0.9
			c2.3-0.1,2.7-0.4,0.8,0.6c-1.8,0.9-4.5,0.8-5-0.2C55.9,220.8,56.1,220.1,56.5,220z M67.4,221.4C67.4,221.4,67.4,221.4,67.4,221.4
			c0.2,1.2,2.2,2.3,3.2,2.6c2.1,0.9,5.4,0,7.9-1.1c1.8-0.8,2.5-2,0.3-1.3c-3.5,1.1-7.9,1.2-10.1,0.3
			C68.1,221.6,67.6,221.4,67.4,221.4L67.4,221.4z M55.9,225.9c4.4,1,9.7,7.7,9.6,10.6h-1.4c-2.1-7.5-7.7-9.1-8.3-9.5
			C55.6,226.1,56,225.9,55.9,225.9L55.9,225.9z M55.9,227.8c5.2,2.3,7,6.3,7.8,8.7h-1.5c-1.1-3.3-3.2-5.7-6.3-7.2
			C55.7,228.9,55.9,227.8,55.9,227.8L55.9,227.8z M55.9,230.1c2.7,0.8,5,4.3,5.7,6.5l-1.3,0c-0.9-2.4-2.3-4-4.4-4.9
			C55.7,231.2,55.7,230.7,55.9,230.1L55.9,230.1z M55.8,232.5c1.2,0.3,3.4,2.2,3.7,4.1h-1.2c-0.4-1.3-1.8-2.4-2.4-2.9
			C55.8,233.4,55.8,232.5,55.8,232.5z M56,234.5c0.1-0.1,2,1.6,1.7,2.1H56C55.9,236,55.9,234.5,56,234.5L56,234.5z"/>
		<path id="path4071-9-6-8_1_" class="st3" d="M103.6,28.4C100.4,34.5,84.1,62.1,84,63l4.2,1.8l20.2-36.3
			C108.4,28.5,104.2,28.4,103.6,28.4z M151.4,51.5l-1.8,2.5l1.4,2.9l1.7-2.7L151.4,51.5z M77,79c0,0-5.8,5.8-8.1,8.5
			c4.9,4.9,14.3,11,14.3,20.4l6.5,0l20.9,18.6c0,0,18.9,0.1,19.3,0.1c0.4-0.1,7.1-9.7,7.1-9.7l12,8.7c0,0-0.6-9.4-1-15.1
			c-0.1-3.8-0.3-6.2,2.5-7.9c-3.9-1.8-3.6-5.2-0.8-7.7c-0.9-1.3-2.3-1.5-2.6-6.1c-0.6-0.6-1.2-1-1.9-1.5l-0.8,0.7
			c-2.5,2.2-4.2,4.5-4.5,6c-0.5,2.8,2.3,4.7,4,2.7c0.5-0.6,0.9-0.4,0.9,0.3c0,1.5-1.9,2.4-3.6,1.6c-0.4-0.2-0.7-0.3-0.8-0.3
			c-0.1,0.1,1.6,4.2,2.1,5.1c0.8,1.5,1.2,3,1.2,4.6c0.1,1.7,0,1.9-0.8,4.8c-0.7,2.8-0.4,4.4,0.9,4.4c0.8,0,0.7,0.7,0,1
			c-1.6,0.6-2.6-0.6-2.7-3.2c0-1.5-0.1-1.6-0.9-1.2c-2.8,1.3-5.8-1-4.5-3.4c0.3-0.5,0.6-0.3,0.8,0.4c0.3,1.4,1,2,2.3,2
			c3,0,4.2-4.2,2.5-8.4c-0.3-0.8-0.5-0.8-1,0.3c-0.7,1.7-1.9,2.2-2.9,1.2c-0.3-0.3-0.5-0.9-0.3-0.9c0.1,0,0.4,0,0.7,0
			c1.7-0.1,2.3-1.7,1.5-4.3c-0.7-2.2-0.8-2.6-1-3.8c-0.3-1.9-0.1-3.3,0.8-5.1c0.2-0.3,1.2-1.5,2.5-2.7c1.3-1.3,2.4-2.3,2.4-2.3
			c-1.2-1-2.4-1.8-3.7-2.9c0,0-8.9,24.3-8.3,33.8c-1.1,12.5-10.3,9-11,0.4L77,79z M76.6,82.7c3-0.1,5,4,6.2,12.3
			c0.4,2.8,2.1,6.6,3.3,7.5c3.1,2.3,7.9,0.5,7.9-2.9c0-4.3-6-4.9-6.1-0.6c0,1-0.5,1.1-1,0.1c-0.4-0.9,0-2.4,0.8-3.3
			c0.6-0.5,0.5-0.6-0.5-1.2c-3.7-2-5.2-5-3.3-6.3c0.9-0.6,2,0.1,1.5,0.9c-0.8,1.2-0.9,1.4-0.1,2.3c0.8,1.1,1.7,1.7,4,2.3
			c1.9,0.6,2.2,0.7,3.1,1.1c2.5,1.2,3.7,3.7,2.8,6.2c-0.2,0.6-0.4,1.2-0.5,1.3c-0.1,0.3,0.1,0.3,1.8,0c2.9-0.4,6,0.6,7.6,2.4
			c0.8,1,1.5,3.1,1.5,4.9c0,0.3,0.1,1.1,0.2,1.7c0.1,0.6,0.3,1.6,0.4,2.3c0.7,6.2,5.9,9.3,8.1,5c1.4-2.7-1.8-5.5-3.5-3
			c-0.6,0.9-1.2,0.5-0.8-0.6c0.7-2.1,3.2-2.4,5-0.7c0.9,0.9,1.4,3.1,0.9,4.4c-0.2,0.7-0.2,0.8,0.3,0.6c1.2-0.4,3.2,0,3.9,0.8
			c1.7,1.8,1.4,4-0.7,4.8c-1,0.3-2.1,0-2.4-1.1c-0.2-0.8,0.4-1,0.8-0.3c0.8,1.3,2.5,0.3,2.1-1.3c-0.5-1.7-2-2.1-4.7-1.2
			c-4.4,1.5-5.8,1.4-7.9-0.7c-1.5-1.5-2.1-2.8-2.5-5.6c-0.4-3.1-0.5-3.2-1.3-2.5c-3.7,3.1-8.6-1.6-5.4-4.7c1-1,1.7-0.1,0.8,1
			c-1.3,1.6,0.4,3.8,2.5,3.3c3.8-0.9,3-6.4-1.1-7.7c-1.2-0.4-4.7-0.2-7.3,0.3c-7.4,1.6-10.6-1.5-12.1-11.7c-0.2-1.2-0.4-2.1-1.1-4.6
			c-0.8-3-3.7-4.7-5.2-3c-1.2,1.3-0.6,3.1,1.1,3.1c1.7,0,1.2,1.2-0.6,1.3c-3.1,0.3-3.6-4.8-0.7-6.3C75.3,82.9,76,82.7,76.6,82.7
			L76.6,82.7z M36.4,84.5l1,3.7l3.8,1.1L40,85.8L36.4,84.5z M46.2,85.6l-1,3.3l2.8-1l1-3.2L46.2,85.6z M77.5,91
			c0.6,0,1.1,0.5,1.1,1.1c0,0.6-0.5,1.1-1.1,1.1c-0.6,0-1.1-0.5-1.1-1.1C76.4,91.5,76.9,91,77.5,91z M41.1,92.9L37.8,94l-0.6,2.6
			l3-0.7L41.1,92.9z M48,94.1l-2.4-0.7l0.6,2.7l2.6,1.1L48,94.1z M154.4,93.6l-1.6,1.2c4.6,4-0.4,7.8-0.5,7.6
			c3.3,2.2,2.7,5.6,2.3,8.8c-0.8,5.6-1.1,11-1.9,16.8c0,0,4,2.8,6.7,3.8c0,0,0-33.9,0-33.9L154.4,93.6z M97.7,98.7
			c0.6,0,1.1,0.5,1.1,1.1c0,0.6-0.5,1.1-1.1,1.1c-0.6,0-1.1-0.5-1.1-1.1C96.6,99.2,97.1,98.7,97.7,98.7z M30.5,101.5l0.1,31.7
			l6.6-11.7l-4.5-5.2l3.9-4.2C34.3,108.7,32.4,105.1,30.5,101.5z M94.6,106.3c0.6,0,1.1,0.5,1.1,1.1c0,0.6-0.5,1.1-1.1,1.1
			s-1.1-0.5-1.1-1.1C93.5,106.8,94,106.3,94.6,106.3z M109.5,109.6c0.6,0,1.1,0.5,1.1,1.1c0,0.6-0.5,1.1-1.1,1.1
			c-0.6,0-1.1-0.5-1.1-1.1C108.4,110.1,108.9,109.6,109.5,109.6z M152.3,144.9l4.8,4.9l-3.8,4.7l6,10.1l-0.1-31.1L152.3,144.9z
			 M30.4,134.5l0.2,34.1l5.2,3.8l1.3-1.2c-3.3-3.5-1.3-6.2,1.2-7.7c-4.4-1-3.1-6.9-2.8-9.6c-0.1-5,1.7-10.8,1.2-15.6L30.4,134.5z
			 M60.2,139.2l-7.4,10.3c0,0-8.1-6.1-12.2-8.9c0.4,4.4,0.8,10.1,1.4,14.9c1.3,7-2.1,7.1-2.2,7.8c5.5,4.2,0.9,8.1,0.1,7.9
			c2.9,1.6,2.7,6.4,2.7,6.4l1.4,0.8c0,0,0.5-0.3,0.6-0.4c1.5-0.8,3.9-3.6,4.5-5.5c0.9-3.2-1.8-5.8-3.6-3.4c-0.9,1.2-1.5,0.4-0.8-1
			c0.6-1.2,2.3-1.9,3.4-1.3c0.6,0.3,0.5-0.5-0.5-3.1c-0.3-0.8-0.6-1.8-1.1-3.6c-0.5-1.8-0.3-4,0.5-6.2c1.1-3.2,0.7-5.2-1.1-5.3
			c-1-0.1-1.1-0.4-0.3-0.8c1.8-1,3.5,0.4,3.4,2.8c0,1.3,0,1.3,0.7,1.1c3.5-1.4,6.3,2.2,3.8,5c-0.7,0.8-1.2,0.3-0.7-0.8
			c0.8-1.8,0-3-1.7-3c-2.6,0-4,3.5-3,7.4c0.3,1.2,0.4,1.2,1.2,0.4c0.8-0.7,1.3-1,1.9-0.8c1.2,0.4,1.5,1.7,0.4,1.5
			c-2-0.3-2.5,1.8-1.4,5.6c1.5,5,0,9-4.5,11.9c-0.2,0.1-0.6,0.4-0.6,0.4c1.7,1.5,2.8,2.4,5.1,3.8l8.1-32.7c0,0-0.1-1.9-0.3-2.7
			c0-8.8,8.2-9.6,10.8-1.7c0.2,0.8,1.6,2.7,1.6,2.7l42.9,37.9c0,0,8-7.7,7.9-7.9c-6.1-6.1-14.3-10.4-14.6-20.1c-1.5,0-6.3,0-6.3,0
			l-20.8-19C72.8,139.5,67,139,60.2,139.2L60.2,139.2z M71.9,139.9c1.1,0,2.3,0.6,2.3,1.5c0,0.8-0.6,1-1,0.3c-0.6-0.9-1.4-1-2.1-0.2
			c-2.1,2.2,1.2,4.2,4.9,3c2.3-0.7,3.4-0.9,4.2-0.7c3.5,0.7,5.2,3.1,5.5,7.7c0.2,2.4,0.1,2.3,1.2,1.4c2.5-2.3,6.1-1,6.6,2.3
			c0.2,1.4-1.3,3.2-2.8,3.2c-0.6,0-0.5-0.6,0.1-0.9c1.5-0.7,1.6-3.1,0.1-4c-1.9-1.2-4.5,0.7-4.4,3.3c0,3.2,2.4,4.6,7.1,4.4
			c0.7,0,2.4-0.1,3.8-0.2c2.2-0.1,4.7-0.5,6.9,1.2c2.4,1.9,4,5.7,4.7,11.1c1.1,6.7,1.9,8.5,4.2,8.7c1.3,0.1,2.5-1,2.5-2.4
			c0-0.9-1.2-1.8-2.2-1.4c-1.1,0.4-1.4-0.9-0.2-1.3c1.5-0.6,3.4,0.6,3.9,2.5c0.2,1.1-1,3.3-2.4,3.8c-3.5,1.4-6-1.5-6.8-7.9
			c-0.5-3-0.8-5-1.7-7.5c-1.7-4.7-4.5-6.6-7.5-5.2c-3.4,1.6-2.8,6.7,0.9,6.7c2,0.2,2.4-1.3,2.5-2.9c0-1.2,1.4-0.1,1.5,0.7
			c0.1,1-0.8,2.2-1.5,2.7c-1.2,0.8-0.8,0.8,0.5,1.1c3.4,0.6,6,5.1,3.9,6.7c-1.1,0.6-2.2-0.3-1.5-1.2c1.2-1.5-0.8-3.8-4.4-4.6
			c-4.7-1-6.6-4.5-4.9-8.1c0.6-1.2,0.6-1.2-1.7-1c-5.1,0.3-6.9-0.4-8.6-3.3c-0.5-0.9-0.7-2.1-0.8-4.4c-0.2-4.2-0.6-6.8-1.1-7.5
			c-2.6-3.6-8.1-2.5-7.4,1.5c0.4,2.1,2.5,2.8,4,1.2c1.1-1.2,1.6-0.1,0.6,1.1c-2.6,2.9-7.2-0.5-5.9-4.3c0.3-0.9,0.4-0.9-1.3-0.9
			c-3.8-0.1-5.6-3.3-3.1-5.6C70.7,140.1,71.3,139.9,71.9,139.9L71.9,139.9z M81,153.7c0.6,0,1.1,0.5,1.1,1.1c0,0.6-0.5,1.1-1.1,1.1
			c-0.6,0-1.1-0.5-1.1-1.1C79.9,154.2,80.4,153.7,81,153.7z M96.2,157.6c0.6,0,1.1,0.5,1.1,1.1c0,0.6-0.5,1.1-1.1,1.1
			c-0.6,0-1.1-0.5-1.1-1.1C95.1,158.1,95.5,157.6,96.2,157.6z M92.9,164.7c0.6,0,1.1,0.5,1.1,1.1c0,0.6-0.5,1.1-1.1,1.1
			c-0.6,0-1.1-0.5-1.1-1.1C91.8,165.2,92.3,164.7,92.9,164.7z M141.1,168.9l0.7,3.2l2.5,0.7l-0.4-2.8L141.1,168.9z M149.9,170.1
			l-0.1,1.9l2.2,0.3l0.8-3.3L149.9,170.1z M112.4,172.9c0.6,0,1.1,0.5,1.1,1.1c0,0.6-0.5,1.1-1.1,1.1c-0.6,0-1.1-0.5-1.1-1.1
			C111.3,173.4,111.8,172.9,112.4,172.9z M144.5,177.4l-2.6,0.7l-1.3,3.6l3.4-1.2L144.5,177.4z M149.6,177.7l0.3,2.7l3.2,1.5
			l-1.1-3.8L149.6,177.7z M101.9,200.7l-20.1,36.2l5.5-0.1l19-34.1L101.9,200.7z M38.7,209.4l-1.8,2.4l1.7,2.8l1.9-2.8L38.7,209.4z"
			/>
		<path id="path4069-2-6-0_1_" d="M72.8,27.5c3.7,11.2,4,22.2,0.8,32.8c1.8,0.1,9.8,2.1,14.2,4.8c-0.8,2.1-13.3,17.3-21.7,24.2
			c2.4,2.4,5,4.7,7.8,7.4c4.2,4,5.7,6.7,6,11.9c0,2.5-0.9,5.6-2.5,7.7c-1.2,1.6-2.5,2.9-5,4.6c-2.4,1.6-5.8,4.9-10.2,9.9
			c-1.7,1.9-4.5,5.3-6.8,8.6c-0.9,1.2-3.5,4.9-3.5,4.9c-8.6-7-17.8-12.4-18.1-12.3c0,0,9.3-4.9,11.3-5.9c1.5,1,3.5,0.1,2.6-2
			c-1.9-4.8-0.6-9.8,1.7-13.2c0.6-0.8,1.9-1.3,4-1.5c0.9-0.1,1.9,0,2.9,0c0.4,0,1.3,0.1,1.8,0.4c1.8,1,2.1-0.3,3.2-4.4
			c1.1-4.1-0.7-9.3-3.2-9.3c-0.6,0-0.9,0.2-0.8,1.7c0.1,1.1-0.2,1.7-0.5,2.4c-0.6,1.5-1,3-1.2,5c0.4,0.1-2.3-2.7-6.6-3.8
			c-2.8-0.3-4.2-3.7-4-3.7c0,0,0.4-0.9,0.8-1.3c0.9,0.4,1.9,1,3,1.3c0,0-0.3-1.4-0.4-1.7c-0.5-1.9-0.5-2.2,0.3-2.6
			c1.8-1,2-2.7,0.6-4.3c-0.4-0.4-0.7-0.7-1.1-0.9l0.9-3.6c0,0-0.8,0.2-1.5,0.4c-1.9,0.6-1.8,0.6-2.6-0.3c-1.8-2-4.5-1.6-4.9,0.7
			c0,0.3-0.2,0.7-0.2,0.7l-4.1-2c0.1,1,1.2,4.2,1.2,4.2c-3.6,2.8-0.6,5.2,0.4,5.5c0,0-0.8,2.6-1.1,3.7l4-1.1
			c0.3,0.8,0.8,1.3,1.6,1.9c0.2,2.3,2,4.1,3.2,5.2c0,0,0.2,0.8,0.1,1.4c-0.3,1.3,1.1,3.4,1.3,3.5c-5.5-2.3-11.3-5-16.9-7.6l0.3,68.2
			c0,0,1.3,1.2,3.9,3c1.2,0.9,1.2,0.9,1,1.9c-0.3,1.3-0.3,2.4,0.9,11.2c0.6,4.7,1.3,9.5,1.9,13.8c0.2,1.6,0.3,2.6,0.3,2.6
			c-1.2-0.6-3-0.6-3.9,0.4c-1.6,1.8-0.3,4.7,2,4.7c0.5,0,0.9-0.2,1.4-0.5c0.3-0.2,0.7,0,0.7,0l-3.5,6.2l4.1,6.8l4.1-7.3l-2.9-5.8
			c0,0,0.3,0,0.7,0.2c0.4,0.2,0.9,0.3,1.3,0.4c2.1,0,2.5-0.9,2.7-2.6c0-2.2-1.7-3.1-4.1-2.3c-0.4,0.1-0.8,0.2-0.8,0.2l2.5-23.8
			l1.3,1l0.4-0.2l-1.2-1c0.3-3.8-1-5.2-2.4-6.1c4.6-2.6,2.6-6.7-0.4-7.9c0,0,2-1.1,2.4-2.3c0.3-1.1,0.2-2.8-0.2-5.8
			c-0.3-4.7-1.3-14.3-1.3-14.3c4,3,8.1,6.2,11.9,9.2l7.7-10.7l18.6,0.1c0,0,14.1,12.8,21.2,19.3l6.1,0.1c0,0,0.1,0.7,0.1,1.1
			c0.6,6.3,4.8,10.6,8.7,13.7c1.6,1.4,5.5,5.1,5.5,5.1l-7.2,7.2l-44.2-39.3c0,0-0.2-0.6-0.3-0.9c-1-4.2-3.8-5.9-6.3-5.6
			c-2.6,0.3-4.9,2.9-4.8,7.3c0,0.7,0.3,1.9,0.3,1.9L50,182.8c0,0-3.2-2.5-5-3.6l-0.4,0.2l4.7,3.5l0.4-0.2l1.3,1l0.1,0.7
			c4.1,2.8,11.1,8,11.1,8c3.3-2.4,6.8-1.6,10.3-0.7c0,0,2.5,0.8,3.9,0.8c6.8,0.2,12.9,1.5,19.3,3.8l-23.2,40.9l44.2,0.1
			c-2.2-8.6-4.5-17.3-0.4-31.9c-4.4-0.9-14-4.7-14-4.7s0-0.2,0.4-0.7c1.8-2.6,6.3-9.5,10.6-13.5c0.5-0.4,7.9-7.5,8-7.7
			c0-0.1,0.2-0.6,0.5-0.8c0.7-0.5,2.5-2.2,2.5-2.2l-9.3-8c0,0-0.4,0-0.5-0.1c-1.3-0.7-3.6-4.7-4.2-7.4c-1.3-6.2,1.1-11.1,8-16.1
			c6.7-4.6,19.5-22.4,19.5-22.8c6.9,5.7,12.2,8.6,18.3,12.3c-3.7,2.1-6.6,3.5-9.2,4.9c-1.7,0.9-1.9,1.1-3.3,0.7
			c-1.6,0-2.1,0.6-1.7,2c2.4,3.8,1.4,12.6-1.9,14.3c-2.8,1.5-5.6,1.1-7.8,0.2c-1.8-0.6-1.7-0.6-2.5,1c-1.7,3.6-1.8,6.7-0.2,10.2
			c1.3,2.8,3.2,4.1,3.5,0.3c0.1-2.2,1.1-4.8,1.1-7.2c2,2.2,3.3,3.2,6.5,4c2.2,0.3,4.5,3,4.4,4.2c-0.6,0.6-0.8,1.4-0.9,1.3
			c-1.1-0.3-3.3-1.3-3.3-1.3l1,3.4c0,0-0.2,0.2-0.6,0.4c-2.2,1.1-2,4.1,0.2,5.2c0.5,0.2,0.5,0.4,0.3,1c-0.3,1.4-0.9,2.3-1.2,3.7
			c0,0,0.3,0,2.9-1.2l1-0.5l0.6,0.7c1.3,1.4,2.9,1.4,4.3,0l0.6-0.7l1.8,0.9c1.7,0.9,2.1,1,2.1,1s-1-3.8-1.2-4.2
			c-0.1-0.2-0.3-0.5-0.4-0.5c-0.2-0.1-0.2-0.1,0.4-0.7c1.6-1.3,1.8-3,0.4-4.4c-0.5-0.5-0.6-0.6-0.6-0.6l0.8-3.5l-3.5,1.2
			c-0.6-1.2-1.4-1.7-2-1.9c-0.1-1.6-0.3-3.2-3-5.6c0.9-0.8-0.2-2.8-1.1-4c1.5,0.5,5.3,2.1,5.3,2.1l0.6,0l1.8,0.9l0.2,0.3
			c0,0,5.7,2.7,8.4,4c0-0.1,0-3,0-34c0-18.5,0-33.7,0-33.8c0-0.1-0.7-0.6-1.3-1.1c-1.2-0.9-1.5-1.1-3-2.1c-1.2-0.8-1.1-0.8-0.9-1.8
			c0.3-1.1,0.3-2.6-0.1-5.4c-0.3-2.1-1.3-9.3-2.1-15.1c-0.5-4.1-0.6-5-0.8-5.7c-0.2-1.7,0-2.4,0-2.4c5.8,2.5,6.2-5.8,0.4-4.6
			c1.1-2.2,2-3.2,3-5.6c-1.2-2.6-3.9-6.9-3.9-6.9l-4.2,7.3l2.5,5.1c-2.9-0.5-4.4,1.6-3.8,3.4c0.6,1.6,2.2,2.1,3.5,1.4
			c1.1-0.4,1.1-0.5,0.1,7.5c-0.3,2.4-1.5,13.5-1.7,15.1c-0.1,1.1-0.2,1.4-0.6,1.2c-0.6-0.3-1-0.6-1.6-1.1l-0.3,0.3
			c0.5,0.4,1.2,1,1.9,1.6c-0.2,2.9-0.1,4.6,2.4,6.1c-4.5,2.8-1.8,7.1,0.8,7.7c-1.6,0.4-3.1,2.4-2.7,6.4l1.3,16.4l-12.1-8.9
			l-7.1,10.1l-18.7,0l-21.1-18.9c0,0-4.6-0.1-6.5-0.1c0.2-0.1-0.4-5.8-3.4-9.6c-3.3-3.9-10.9-10.4-10.8-10.4l7.9-8l44.5,39.9
			c0,0,0.2,1.1,0.3,1.6c1.5,6.3,8.7,6.7,10.2,0.3c0.2-1,0.5-3.4,0.4-3.7c0-0.1,0.2-1.1,0.5-2.3c2.4-9.3,4.4-17.4,6.8-26.4
			c0.3-1.2,0.7-2.6,0.8-3.1c0.4-1.8,0.3-1.8,2.2-0.4c1.2,0.9,1.7,1.2,1.7,1.2l0.4-0.4c-1.3-1-3.6-2.6-3.6-2.6l0-0.7
			c-7.2-5.1-8.7-6.5-13-9.9c-3.3,2.9-8,1.7-11,0.7c-0.8-0.3-2.6-0.8-2.6-0.8c-7.4,0-13.9-1.4-20-3.4l23.6-41.9H109l-0.3,0.4H104
			l0-0.4L72.8,27.5z M160,165.5 M99.8,28.4l3.2,0.1l-19.1,34l-2-0.8c0,0,0.2-0.1,0.2-1.5c0-1.5-0.3-2.2-1-3.1
			c-0.6-0.8-0.8-0.8,0.9-0.6c3.5,0.5,6-3.3,4.6-6.3c-0.5-1.1-0.5-1.2,1-1.3c3.9-0.4,5.4-5.3,2.6-7.8c-0.6-0.5-0.3-0.8,0.7-0.6
			c3.4,0.7,6-3,4.6-5.9c-0.4-0.8,0-0.9,0.6-1C98.9,32.9,99.9,30.7,99.8,28.4L99.8,28.4z M74,28.5l15,0c-2,3.1,1.5,4.9,2,4.7
			c-3.2,1.8-2.3,4.2-0.7,5.1c1.6,0.8,4.1,0.1,3.4-3.5l0.8-0.3c0.8,0.9,1.6,6.3-4.4,5.6c-1.1-0.1-1.6,0.8-0.7,1.4
			c4.7,5.4-2.7,7.8-3,6.9l0-0.9c2,0.4,4.5-2.2,2.3-4.5c-1.3-1.3-4.9-0.7-4.3,3.3c-2.2-3.2-4.5-2.3-5.2-0.5c-0.5,1.3,0.1,3.1,2.3,3.4
			c-2.4,2-1.2,4.3,0.4,4.8c1.8,0.5,3.7-0.2,3.2-3.5c0-0.3,0.7-0.2,0.7-0.2c1.9,4.7-2.6,6.5-5.1,5.5c-0.9-0.4-1.4,1-0.4,1.8
			c1.5,1.1,1,4.2,0.8,4.2c-2.7-1-6.6-1.8-6.5-1.7C77.3,49.5,77.1,39.1,74,28.5L74,28.5z M97.9,28.5l1.4,0c0,1.9-0.8,4.3-4.1,4.7
			c0-0.5,0-1-0.2-1.6C96.2,31.3,97.8,31.6,97.9,28.5L97.9,28.5z M103.8,28.6l4.3,0L87.8,64.5l-3.2-1.7L103.8,28.6z M93.1,31.3
			c0.8,0,1.4,0.6,1.4,1.4c0,0.8-0.6,1.4-1.4,1.4c-0.8,0-1.4-0.6-1.4-1.4C91.7,31.9,92.4,31.3,93.1,31.3z M84.5,47
			c0.7,0,1.3,0.6,1.3,1.3c0,0.7-0.6,1.3-1.3,1.3c-0.7,0-1.3-0.6-1.3-1.3C83.2,47.5,83.8,47,84.5,47z M151.4,48l3.4,6l-3.9,6.9
			l-3.3-6.6L151.4,48z M151.3,50l-2.4,4l2.2,4.1l2.5-3.9L151.3,50z M151.4,51.7l1.3,2.4l-1.5,2.4l-1.3-2.6L151.4,51.7z M148,59.8
			c0.3,0,0.5,0.1,0.8,0.2c2.3,1,1.6,4.5-0.9,4.3c-0.3,0-0.8-0.2-1.1-0.4C145.2,62.4,146.2,59.8,148,59.8z M153.7,59.9
			c2,0,3.2,2.8,1.1,4.2c-1,0.6-2.6,0.2-3.2-0.8c-0.5-0.9-0.3-2.3,0.9-3.1C152.9,59.9,153.3,59.9,153.7,59.9z M150.9,63.9
			c0.2,0,0.4,1,0.6,2.7c0.1,0.6,0.3,2.2,0.4,3.4c0.3,2.7,0.6,5.2,0.9,7.9c0.1,0.5,0.2,1.6,0.3,2.4c1.2,8.5,1.4,11.2,1.2,11.9
			c-0.7,2.5-4.2,2.7-5.7,1.3c-1.1-1.1-1.3-2.3-0.8-5.5c0.2-1.8,0.4-2.8,1.1-9.8c0.2-1.6,0.4-3.8,0.6-4.9c0.3-2.7,0.6-5.3,1-8
			C150.6,64.3,150.7,63.9,150.9,63.9z M94.1,70.2c0,0,11.1,3.6,19.6,3.5c1.2,0,1.4,0,3,0.5c0.9,0.3,2.4,0.7,3.2,0.9
			c2.6,0.5,4.9,0.4,6.9-0.5c0.3-0.1,0.8-0.5,1.3-0.4c0.3,0.1,0.7,0.7,0.7,0.7c-7.4,2-24.7,1.6-35.5-2.9L94.1,70.2z M151.2,71.3
			c0,0-0.1,0.1-0.1,0.2c-0.2,0.3,0,2.2,0.6,8.1c1.3,11.4,1.3,11.6-0.3,12.8c-0.8,0.6-0.9,0.8-0.5,1c0.3,0.2,0.3,0.2,0.8,0
			c1.3-0.4,1.9-1.4,1.8-3.5c0-1.6,0-1.8-0.5-5.8c-0.2-1.4-0.4-3.3-0.5-4.3C151.6,72.8,151.4,71.3,151.2,71.3L151.2,71.3z M93,72.5
			c11.1,3.9,22.6,5.1,36.5,2.9c0,0,1.3,0.9,2,1.3l-0.5,0.1l0.2,1.9l2.4-0.4c0,0,1.3,1,2.2,1.6c-12.4,3.8-32.5,3.1-44.9-2.4
			c-0.5-0.3-0.7-0.5-0.7-0.5c0.3-0.7,0.6-1,0.9-1.4l2.3,0.6l0.7-2.1l-1.7-0.6L93,72.5z M95.9,75l-0.7,2l3.2,0.9l0.5-2.1L95.9,75z
			 M100.7,76.2l-0.4,2.3l3.2,0.6l0.4-2.2L100.7,76.2z M105.9,77.3l-0.3,2.2l3.4,0.4l0.2-2.2L105.9,77.3z M129,77.4l-2.9,0.3l0.2,2
			l2.9-0.3L129,77.4z M124,77.9l-2.8,0.2l0.1,2l2.9-0.2L124,77.9z M111.2,78v2.2l2.9,0.1l0-2.2L111.2,78z M119.2,78.2l-2.7,0l0,2.1
			l2.7,0L119.2,78.2z M88.1,78.6c0.3,0,1,0.6,1.2,1.4c0.5,1.4,0.3,3-0.6,3.5c-1.1,0.7-2.5-0.4-1.7-1.4c0.1-0.2,0.4-0.4,0.5-0.4
			c0.6-0.2,0.7-1.1,0.4-2.7C87.9,78.7,88,78.6,88.1,78.6z M92.4,79.1c12,3.9,25.6,5.2,39.6,2.4c0,0-6.6,27-6.8,27L92.4,79.1z
			 M86.5,79.2c0.6,0,0.7,1.1,0.2,1.6c-0.7,0.7-2.1,0.1-1.8-0.8C85,79.8,86.1,79.2,86.5,79.2z M90,79.9c0.1,0,0.4,0.2,0.8,0.8
			c1.3,1.8,1.4,3.8,0.2,4.7c-1.4,1.1-2.4-0.6-1.3-2.1c0.3-0.4,0.3-1.1,0.2-2.6C89.8,80.1,89.8,79.9,90,79.9z M136.4,80.5
			c0.2,0,0.4,0.1,1,0.4c0.9,0.4,1.2,1,0.7,1.5c-0.6,0.7-2.2-0.7-1.9-1.7C136.2,80.6,136.3,80.5,136.4,80.5L136.4,80.5z M135.1,81.4
			c0.2,0,0.6,0.4,1,1.2c0.3,0.5,0.4,0.7,0.8,0.8c1,0.4,1.2,1.4,0.3,1.7c-1,0.3-1.7-0.4-2.2-2.1C134.8,82,134.8,81.4,135.1,81.4z
			 M92.3,82.2c0.1,0,0.4,0.3,0.9,1c1.3,2,0.9,5.7-0.8,6.6c-0.7,0.4-1.3,0.3-1.9-0.3c-0.9-0.9-0.7-1.6,0.6-2c1.1-0.4,1.5-1.7,1.1-3.9
			C92.1,82.7,92.1,82.2,92.3,82.2L92.3,82.2z M98.7,82.8c8.2,6.7,15.6,13.9,25.1,22.3c2.3-6.9,5.6-21.3,5.6-21.3
			C128.9,84.1,113.3,86.3,98.7,82.8z M129.3,83.8C129.3,83.8,129.3,83.8,129.3,83.8L129.3,83.8z M134.4,82.8c0.1,0,0.5,1,0.8,1.9
			c0.2,0.8,1,2.2,1.3,2.3c1.6,0.3,2.3,1.2,1.5,2c-0.6,0.6-1.8,0.3-2.5-0.6C134.3,86.7,133.6,82.8,134.4,82.8L134.4,82.8z M43.1,83.8
			c1,0,1.9,0.6,2.1,1.9c0.3,1.5-0.6,2.5-1.3,2.4c-0.8-0.3-1-1.5-1-1.5s-0.2,1-0.5,1.5c-0.7,1-2.1-0.5-1.9-2
			C40.9,84.5,42,83.8,43.1,83.8z M101.3,84.2c8.9,1.3,16.6,1.7,27.2,0.5l-5,19.4L101.3,84.2z M94.6,84.2c0.1,0,0.4,0.2,0.8,0.7
			c1.4,1.5,1.8,3.5,0.9,4.5c-0.5,0.6-0.9,0.7-1.5,0.3c-0.7-0.5-0.8-1.3-0.1-1.6c0.6-0.3,0.7-1,0.2-2.4
			C94.5,84.6,94.4,84.2,94.6,84.2L94.6,84.2z M36.5,84.7l3.3,1.3l1.2,2.7l-3.2-0.8L36.5,84.7z M48.8,85l-1,2.7l-2.5,0.9l1-2.9
			L48.8,85z M133.7,85.6c0.1,0,0.3,0.3,0.5,1.1c0.5,1.8,0.8,2.2,1.3,2.4c0.8,0.4,0.9,1.3,0.1,1.7c-0.5,0.2-0.6,0.2-1-0.3
			c-0.5-0.7-1-2-1-3.2C133.5,86.2,133.5,85.6,133.7,85.6z M97.5,86.8c0.1,0,0.2,0.1,0.4,0.4c1.3,1.5,1.4,3.8,0.3,4.5
			c-1.1,0.7-2.6-0.7-1.7-1.5c0.1-0.1,0.3-0.2,0.4-0.4c0.3-0.2,0.3-0.3,0.3-1.6C97.3,87.3,97.3,86.9,97.5,86.8z M107.1,87l15.6,14.1
			l3.6-13.9C120.1,87.7,113.6,87.5,107.1,87z M68.8,87.7c4.9,5.2,11.4,9.4,12.9,14.5c2.7,7.1,0.7,15.3-5.7,20
			c-3.5,2.7-7,5.5-9.9,8.9c-4.7,5-7.9,10.5-11.1,14.5c-0.5,0.7-2,2.8-2,2.8s-0.7,0.8-3-1.1c-6.1-5.4-12.6-9.4-19.1-13.1l2.8-1.5
			c5.5,3.1,12.3,7.5,18.4,12.7c0,0,4.9-7.1,6.4-9.1c2.3-2.9,3.8-4.8,5.9-7c5.4-6.6,10.9-8.8,13.2-12.1c3.4-4.9,3.5-10.7,0.7-15.6
			c-2.7-4.7-8.1-8-11.6-11.9L68.8,87.7z M115.5,88.1h6.1c0,0-0.9,0.7-1.6,1.2c-0.4,0.3-0.9,0.2-1.9-0.1
			C117.2,88.8,115.5,88.1,115.5,88.1L115.5,88.1z M122.5,88.1l1.4,0c-1.1,1.3-2.1,2.2-3.6,3.4c-0.2,0.1-0.3,0.1-0.7,0
			c-2.9-1-5.6-2.2-8.4-3.3l2.5,0c0,0,1.2,0.4,3,1.1c2.1,0.9,2.6,1.1,3.4,0.6C121,89.4,121.6,88.6,122.5,88.1L122.5,88.1z
			 M125.3,88.1l-0.5,1.9c-0.8,1.1-2.6,2.3-4,3.5c-0.3,0.2-0.3,0.2-1.8-0.4c-5.4-2.1-8-3.5-8-3.5l-1.1-1c0,0,1.4,0.4,2.3,0.8
			c0.6,0.2,1.7,0.7,2.4,0.9c0.7,0.3,2.2,0.9,3.2,1.3c2.3,0.9,2.2,0.9,4.5-1C124.8,88.4,125.3,88.1,125.3,88.1L125.3,88.1z
			 M43.4,88.3l2.4,2.7l-3.1,2.6l-2.4-2.8L43.4,88.3z M133,88.3c0.5,1,0.9,2.2,1.8,3.1c0.7,0.6,0.8,1.1,0.4,1.5
			c-1,0.6-1.2-0.4-1.5-1.1C133.1,90.6,132.4,89,133,88.3L133,88.3z M47.6,88.5c0.1,0,0.1,0,0.2,0c2.5,0,3.1,3.7,0.7,4.6
			c-0.8,0.3-1.8,0.2-2.4-0.4c-0.5-0.5-0.6-0.9-0.2-1.2c0.5-0.4,1.8-0.4,1.8-0.4s-1.2-0.4-1.7-0.7C45,89.9,45.9,88.6,47.6,88.5
			L47.6,88.5z M99.4,88.5c0.1,0,0.4,0.3,0.7,0.9c1.3,2.1,1.2,6.1-0.1,7.1c-0.7,0.5-1.5,0.4-2.1-0.2c-0.8-0.8-0.5-1.7,0.6-2.2
			c1.1-0.5,1.3-1.6,0.9-4.2C99.2,89,99.2,88.5,99.4,88.5z M38.3,88.6c0.8,0,1.5,0.3,1.8,0.9c0.3,0.4,0.1,0.8-0.4,1
			c-0.6,0.2-1.8,0.5-1.8,0.5s1.1,0.2,1.8,0.5c0.9,0.4,0.8,1.1-0.5,1.7c-2.4,1.1-4.7-2-2.7-3.8C37.1,88.8,37.7,88.6,38.3,88.6
			L38.3,88.6z M101.5,90.1C101.5,90.1,101.5,90.1,101.5,90.1c0.3,0,0.7,0.3,1.1,0.9c1.4,1.9,1.7,4.7,0.5,5.3
			c-1.3,0.6-2.2-0.6-1.3-1.7c0.7-0.7,0.6-1.8-0.3-4C101.3,90.3,101.3,90.1,101.5,90.1L101.5,90.1z M132.4,90.2
			c0.1,0,0.3,0.4,0.6,1.4c0.7,2,1.4,2.9,2.1,2.9c0.9,0,1.4,1.3,0.7,1.8c-1.5,1-3.4-1.5-3.5-4.6C132.3,90.7,132.3,90.2,132.4,90.2
			L132.4,90.2z M124.6,91.2l-0.4,1.6c0,0-1,1-1.7,1.6c-1.1,1-1.4,1.2-2.3,0.9c-1.4-0.5-2.7-0.9-4.2-1.3l-3.3-2.7l7.6,3
			c0,0,0.7,0.2,0.9,0C122.1,93.2,123.2,92.4,124.6,91.2z M131.8,92.8c0.1,0,0.2,0.1,0.3,0.4c0.3,1.6,0.8,2.7,1.3,2.9
			c0.5,0.2,0.7,0.7,0.5,1.1c-0.6,1.4-2.3-1-2.3-3.3C131.5,93.2,131.6,92.8,131.8,92.8L131.8,92.8z M104.4,92.9
			c0.1,0,0.2,0.1,0.5,0.4c1,1,1.4,3.9,0.5,4.8c-1.2,1.2-2.5-0.6-1.3-1.9c0.3-0.3,0.3-0.4,0.2-1.8C104.2,93.3,104.2,92.9,104.4,92.9z
			 M40.8,93.1L40,95.9l-2.6,0.7l0.6-2.2L40.8,93.1z M43.9,93.4c0.2,0,0.4,0.1,0.7,0.2c1.1,0.8,1.2,2.1,0.7,3.1
			c-0.5,0.9-1.5,1.2-2.4,1.1c-1.2-0.1-2.2-1-2.1-2.3c0-0.7,0.3-1.4,0.8-1.7c0.3-0.2,0.6-0.1,0.8,0.3c0.3,0.4,0.7,1.4,0.7,1.4
			s0-1,0.2-1.5C43.3,93.7,43.6,93.4,43.9,93.4z M45.9,93.7l1.9,0.6l0.8,2.6l-2.1-0.8L45.9,93.7z M154.3,94.1c0,0,0.5,0.2,3.1,2.3
			c0.6,0.5,1.7,1.5,1.7,1.5l-0.1,33.5l-6.2-3.8l0.3-2.9c0,0,0.8-8.9,1.5-13.5c0.5-5.2,1.5-6.7-2-8.9c3.7-2.3,2.7-6,0.3-7.5
			L154.3,94.1z M123.7,94.3l-0.3,1.5c-1.2,2.1-2.3,2-4.2,1l-2.3-1.9c1.5,0.3,2.3,0.8,3.7,1.2c0.7,0.2,1,0.1,1.5-0.4
			C122.6,95.2,123.1,94.8,123.7,94.3L123.7,94.3z M106.9,95.1c0.8,0.8,1,1.7,0.9,3.7c-0.1,1.4-0.1,2.5-1.3,3.3c-0.6,0.4-1.6,0.4-2,0
			c-1.1-0.7-0.5-2.2,0.9-2.2c0.9,0,1.3-2.9,0.8-4.7c-0.1-0.3-0.1-0.5,0.1-0.5C106.4,94.7,106.7,94.8,106.9,95.1L106.9,95.1z M131,95
			c0.2,0,0.5,0.4,0.7,1.2c0.3,1,0.6,1.6,1.2,1.9c0.7,0.4,1,1.1,0.5,1.5c-0.9,0.9-1.9-0.2-2.2-2.3C131.2,97,130.7,95,131,95z
			 M151.3,95.3c2.1,0,3.3,1.5,3.3,3.3c0,1.3-0.7,2.6-2,3.1c-3.1,0.9-4.8-1.2-4.8-3.2C147.8,97,149.2,95.3,151.3,95.3z M108.7,96.5
			c1.8,1.8,1.9,5.5,0.1,5.5c-2.1-0.7-0.5-1.9-0.4-2.2c0.2-1.3-0.1-2.1-0.4-3.3C107.9,95.7,108.6,96.3,108.7,96.5z M151.4,96.3
			c-0.4,0-0.3,0.4,0.3,0.9c1.2,1.1,0.6,3-0.9,3c-0.7,0-0.9,0.5-0.3,0.7c2.4,1,4.1-2.7,1.9-4.2C152,96.5,151.6,96.3,151.4,96.3z
			 M58.4,96.8c2,0.7,2.6,4.4,2.7,5.7c0.1,2.3-1,6-1.9,6.7c-2.5,1.9-3.6-4.9-1.5-9.3c0.2-0.4,0.4-0.8,0.3-1.7
			C58,97.3,58.1,96.8,58.4,96.8L58.4,96.8z M123.1,97.2c0,0-0.2,1.1-0.5,1.7c-0.3,0.7-0.5,0.7-1.2,0.1c-0.4-0.3-1-1-1-1
			c0.6,0.1,1.2,0.4,1.7,0.2C122.5,97.9,123,97.4,123.1,97.2z M130.5,97.2c0.1,0,0.3,0.4,0.6,1.2c0.6,2.1,1.2,2.9,2.1,2.9
			c1.4,0,1.7,1.7,0.4,2.1c-0.5,0.2-0.7,0.2-1.3,0c-0.9-0.2-2.2-3.4-2-5C130.3,97.6,130.4,97.2,130.5,97.2L130.5,97.2z M44.4,98.5
			c0.5,0,0.7,0.2,1,0.9c0.3,0.7,1.2,1.6,2,2c1.8,0.9,3.8,1.6,5.6,2.5c2.4,1.2,4.5,4.8,3,5.2c-0.5,0.1-1.1,0.1-1.7,0.1
			c-0.2-0.1-0.5-0.5-0.8-0.9c-1.1-1.8-3.1-3.5-6.2-4.3c-2.2-0.6-4.1-3.2-4.6-4.5c-0.1-0.3-0.1-0.6,0.2-0.7
			C43.7,98.6,44.1,98.5,44.4,98.5L44.4,98.5z M110.8,98.7c0.1,0,0.2,0.1,0.5,0.3c1.3,1.4,1.5,3.9,0.3,4.6c-1.3,0.8-2.4-0.5-1.4-1.6
			c0.4-0.5,0.4-0.5,0.4-1.9C110.6,99.1,110.6,98.7,110.8,98.7L110.8,98.7z M129.7,100.3c0.2,0,0.4,0.4,0.7,1.3
			c0.4,1.2,0.5,1.3,0.9,1.5c0.8,0.4,0.9,1,0.3,1.6c-1.1,1.1-2.1-0.6-2.1-3.4C129.5,100.6,129.6,100.3,129.7,100.3L129.7,100.3z
			 M112.7,100.5c0.1,0,0.4,0.2,0.6,0.5c1.6,1.9,1.3,6.3-0.5,6.9c-0.6,0.2-0.8,0.2-1.1,0.1c-1.3-0.6-1.2-2,0.5-2.8
			C113.3,104.5,112.5,100.5,112.7,100.5z M31.3,101.9l6.6,3.2c0,0,1.8,3.8,2.6,5.2c0.6,1,1.7,1.9,0.5,2.6c-2,1.3-3.1,2.1-3.1,2.9
			c0,0.7,0.9,1.4,2,2.7c1.6,1.9,1.6,1.5,0.1,4.4c-1.1,2-2.1,6.6-2.1,6.6l-6.6,3.4c2-4.7,4.3-8.7,6.9-11.6c-1.9-1.4-3.6-2.9-5.3-4.9
			c1.3-1.7,2.9-3,4.4-4.5C34.3,108.4,32.4,105.1,31.3,101.9L31.3,101.9z M114.5,101.9C114.5,101.9,114.5,101.9,114.5,101.9
			c0.3,0,0.9,0.7,1.5,1.8c0.7,1.4,0.8,3.2,0.1,3.8c-1.1,1.1-2.5-0.3-1.5-1.5c0.7-0.5,0.5-1.8,0-3.2
			C114.3,102.2,114.3,101.9,114.5,101.9L114.5,101.9z M30.6,102.6c1.7,3.6,3.6,6.6,5.6,9.4l-4.3,4.5c1.3,1.5,2.9,3.2,5.2,5.1
			c-2.8,3-4.6,7.3-6.4,11.3L30.6,102.6z M129,102.6c0.1,0,0.4,0.4,0.6,1.3c0.3,1.1,0.5,1.4,1.1,1.7c1,0.4,1.1,1.4,0,1.8
			c-0.4,0.1-1.1-0.2-1.4-0.7c-0.4-0.7-0.6-1.6-0.6-2.5C128.7,103.2,128.8,102.6,129,102.6z M152.7,103.3c1.6,0.5,2.2,2.1,1.9,5.1
			c-0.4,4-0.9,8.4-1.3,12.1c-0.5,4.2-0.8,6.9-0.8,6.9l-0.4-0.3c0,0,0.1-2.3,0.3-3.7c0.4-3.2,0.6-5.9,0.9-9.1c0.7-7,0.5-9.3-0.8-9.9
			c-1-0.5-1.4-0.2-0.7,0.5c1.4,1.1,1.3,1.5-0.1,18.8c-0.2,1.8-0.2,3.1-0.2,3.1l-1.9-1.2c0,0-0.1-1.5-0.3-3.7
			c-0.4-4.2-0.7-8.7-1-12.8c-0.3-4.3,0.5-5.8,3.2-5.9C151.8,103.2,152.3,103.2,152.7,103.3L152.7,103.3z M118,105.8
			c0.2,0.6,1.1,4.8-1.3,3.6c-0.6-0.4-0.7-0.9-0.2-1.5c0.5-0.6,0.7-1.5,0.4-2.7c-0.2-0.8-0.4-1.4-0.4-1.4
			C117,104,117.9,105.7,118,105.8L118,105.8z M46.6,104.5c2,0.4,4.3,1.6,5.7,3c0.9,0.9,0.8,1.7-0.5,1.8c-1.3,0.2-1.4,0.4-2-0.1
			c-0.3-0.2-0.8-0.8-1.5-0.9C46.3,108,45.2,104.2,46.6,104.5z M128.6,105.6c0.2,0.3,0.2,1,0.4,1.5c0.3,1.4,1.2,2.3,2.1,2.2
			c0.6-0.1,1.3,0.1,1.4,0.8c0.2,0.6-0.1,1.1-0.8,1.3c-0.7,0.3-1.5,0.1-2.1-0.4C128.4,109.8,127.6,106,128.6,105.6L128.6,105.6z
			 M118.8,105.6c0.7,0.3,1.7,2.6,1.8,4.4c0,1.3-0.2,3-1.3,3.6c-0.7,0.4-1.5,0.2-1.8-0.4c-0.4-0.8-0.1-1.6,0.7-1.9
			c1-0.5,1.3-2.5,0.7-4.5C118.8,106.5,118.3,105.5,118.8,105.6z M41.3,106.6l5.4,2.7c-0.8,1.1-1.4,2-1.8,3.2
			C43.1,110.6,42.2,108.6,41.3,106.6z M120.8,107.5c0.1,0,0.4,0.3,0.7,0.6c1.3,1.3,1.9,3.6,1.1,4.5c-0.6,0.7-1.8,0.6-2-0.1
			c-0.1-0.4,0.3-1,0.5-1.3c0.2-0.5,0.3-1.8-0.1-2.8C120.9,107.9,120.7,107.5,120.8,107.5z M83.6,108.1l6.1,0.2l20.3,18.2l-1.9,0
			l-18.6-16.9l-5.8,0L83.6,108.1z M48.7,111.3c-2.3,3.7-2.9,8.3-1.5,12.4c1.1,2.9-1.3,3.1-2.2,1.2c-0.7-1.4-1.2-3.9-0.9-6.6
			c0.3-4.3,2.3-8.6,3.9-9.1C49.5,108.7,49.2,110.8,48.7,111.3z M131.8,120.1c-0.6,2.9-1.8,4.3-3.4,4.9c-6.6,2.4-9.5-10.9-3.4-14
			C130.9,109,132.6,116.4,131.8,120.1L131.8,120.1z M83.2,111.5l5.7,0.1c5.2,4.7,10.8,9.1,16.4,14.8h-2.7c0,0-0.8-0.7-1-0.9
			c-5-4.5-8.8-8.1-13.6-12.3l-5.1-0.1L83.2,111.5z M126.8,112.3c-3.1,0.1-3.3,4.3-3.2,5.9c0.2,2.3,1.1,5.6,4,5.4
			c2.1-0.2,3.1-2.7,2.9-5.7C130.3,115,129.2,112.3,126.8,112.3L126.8,112.3z M82.7,113.7l5,0.1c4.4,3.8,9.1,8,13.7,12.6h-2.2
			c0,0-0.6-0.5-0.7-0.7c-3.8-3.4-7.6-7.1-11.2-10.2l-5.2-0.2L82.7,113.7z M126.9,113.9c0.9,0.3,1,2.4,0.3,3.3
			c-0.5,0.6-1.7-0.5-1.8-2C125.2,114.4,126.1,113.6,126.9,113.9z M44.1,114.1c-0.4,1.4-0.7,2.9-0.8,4.6l-2.1-2.7L44.1,114.1z
			 M128.5,116.7c0.5,0,0.9,0.4,0.9,0.9c0,0.5-0.4,0.9-0.9,0.9c-0.5,0-0.9-0.4-0.9-0.9C127.5,117.1,128,116.7,128.5,116.7z
			 M86.4,117.2l10,9.3l-2.8,0l-8.2-7.4l-5.2-0.2l1-1.8L86.4,117.2z M125.2,117.3c0.5,0,0.9,0.4,0.9,0.9c0,0.5-0.4,0.9-0.9,0.9
			s-0.9-0.4-0.9-0.9C124.3,117.7,124.7,117.3,125.2,117.3z M137.1,117.3c5.6,4.4,13.6,10.1,21.8,14.8c0,0-1.4,1.1-2.6,1.4
			c-6.4-3.5-14.1-8.5-18.8-12.5c-4.5,6.6-13.1,18.5-20.7,24c-4.8,3.4-7.2,7.7-7.2,12.6c0,5.1,1.8,8.4,6.9,12.6
			c3.3,2.7,6.8,6.1,6.8,6.1l-1.9,1.6c-0.3,0-5.5-4.5-10.7-9.7c-2.9-2.9-4.1-9.2-3.7-12.5c0.7-4.6,2.2-7.9,6.6-11.5
			c1.7-1.3,3.4-2.3,4.9-3.8C132.2,126,137.1,117.3,137.1,117.3L137.1,117.3z M128,119.7c0.5,1.1,0.8,2.4-0.8,2.5
			c-1,0.1-1.5-1.5-0.7-2.9C127.1,118.2,127.6,119.1,128,119.7L128,119.7z M79.9,119.4l5.4,0.2c0,0,5.3,4.6,8,7.2h18
			c9.9,0,18.1,0,18.1,0.1c0.1,0.1-1.3,2-1.3,2l-59.5,0c0,0,3.7-3.3,5-4.2C75.9,123.1,78.1,121.6,79.9,119.4z M43.4,121.7
			c0.4,1.4,0.7,2.9,1.4,4.2l-4.1,2.2C41.4,125.9,42.3,123.8,43.4,121.7L43.4,121.7z M158.2,133.6c-0.8,2.2-3,6.8-5.6,10.2
			c-0.5,0.7-0.9,1.2-0.9,1.2l5.1,4.8l-4.4,4.7c2.5,2.6,4.6,6.5,5.7,9.6c-2-0.8-3.1-1.3-5.6-2.6c-0.7-1.7-1.4-3.6-2.2-5.2
			c-1.8-3.6-1.8-3.3-0.3-4.3c2.1-1.6,2.8-1.9,2.2-2.7c-0.4-0.6-2.9-3.5-3.1-3.6c-0.2-0.1-0.1-0.6,0.3-1.3c1.5-2.6,2.7-5.5,3.4-8.1
			L158.2,133.6z M159.1,133.8l0.1,30.4c-1.8-3.6-3.7-7.4-5.8-9.7c-0.1-0.2,4.6-4.7,4.6-4.7c-1.7-1.6-2.7-2.5-5.1-4.7
			C155.3,141.8,157.1,137.4,159.1,133.8z M30.7,134.8l5.8,3.4c-0.3,4.3-0.7,9.9-1.3,15.6c-0.5,4.5-0.7,6.5,0.1,7.8
			c0.7,0.9,2.5,1.9,2.5,1.9c-3.1,1.2-4.2,4.9-0.8,7.6c0,0-0.8,0.7-1.2,1l-4.8-3.5L30.7,134.8z M121.6,136.4c-1.4,1.6-3.7,4-5.5,5.2
			c-2.3,1.5-5.6,4.5-5.4,4.5c0,0-3.4,0-5.7-0.1l-8-7.1c0,0,0.3-0.1-10.6,0c-14,0.1-25.4,0-25.4,0l1.6-2.2L121.6,136.4z M150,137.7
			c-0.8,2.5-2,4.8-3.6,7c-0.4-1.5-0.6-3.2-1.3-4.5L150,137.7z M37.2,138.6l0.7,0.5c0,0-0.4,5.3-0.6,6.8c-0.2,2.8-0.4,5.4-0.6,8.3
			c-0.5,5.7-0.4,6.6,0.7,7.5c0.9,0.6,1.5,0.4,0.7-0.5c-0.5-0.7-0.5-0.6-0.7-1.6c-0.1-0.7-0.1-1.7,0.1-4.4c0.9-15.2,1-15.7,1.1-15.7
			l1.7,1.1c-0.1,0.2,1.6,15.3,1.4,19c-0.2,4.4-6.1,3.4-6.4,0.2c-0.1-0.7,1-13,1-13L37.2,138.6z M85.5,139.4l2.3,0.1l14.3,13.1
			l4.9,0.1l-0.4,1.7l-4.7,0L85.5,139.4z M94.4,139.4h2.2l8.2,7.4l5,0.1l-1,1.4l-5-0.1L94.4,139.4z M91.6,139.4l12.1,10.9l4.1,0.2
			l-0.6,1.5l-4.9-0.1l-13.6-12.4L91.6,139.4z M79.9,139.5h2.5l18.9,17l5,0.1l-0.1,1.5l-6,0L79.9,139.5z M143.7,140
			c1,0.2,1.5,1.2,2.2,4.8c0.8,4.2-1,11-3.2,12.2c-1.2,0.9-2.4-0.1-1.6-1.2c2.7-3.9,3-10.2,1.4-13.7C142,140.9,142.5,139.8,143.7,140
			z M63.3,140.6c6.1,0.1,7.6,12.5,1.7,14.2c-3.9,0.6-5.9-2.9-6.4-6.1C57.9,144.8,59.6,140.6,63.3,140.6z M59.9,148
			c0.4,2.5,1.9,5.3,4.2,5.1c3-0.3,3.3-4.2,3-6.2c-0.4-2.4-1.7-4.5-3.8-4.7C60.2,142,59.7,146.1,59.9,148z M63.2,143.2
			c0.8,0,1.5,1.1,1.2,2.5c-0.1,0.9-0.5,2-1.5,1.3c-0.5-0.4-0.9-1.7-0.8-2.6C62.2,143.7,62.5,143.2,63.2,143.2z M146.7,146.1l2.8,3.3
			l-3.2,2.3C146.7,149.9,146.9,148,146.7,146.1z M65.3,146.4c0.5,0,0.9,0.4,0.9,0.9c0,0.5-0.4,0.9-0.9,0.9c-0.5,0-0.9-0.4-0.9-0.9
			C64.3,146.8,64.7,146.4,65.3,146.4z M61.9,146.9c0.5,0,0.9,0.4,0.9,0.9c0,0.5-0.4,0.9-0.9,0.9c-0.5,0-0.9-0.4-0.9-0.9
			C61,147.3,61.4,146.9,61.9,146.9z M63.8,148.1c0.5,0.1,0.8,0.6,1,0.9c0.6,0.9,0.7,2.1,0.3,2.6c-0.9,1.1-2.3-0.1-2.1-1.7
			C63.1,148.7,63.4,148,63.8,148.1L63.8,148.1z M71.8,151.7c1.3,0,1.7,1.6,0.6,2.3c-0.7,0.5-0.9,2.1-0.4,4.3
			c0.4,1.6,0.2,1.9-0.8,0.4C69.4,156.2,69.8,151.7,71.8,151.7z M68.6,152.6c1.2,0,1.5,0.8,0.9,1.5c-0.4,0.4-0.4,1.6,0.1,2.6
			c0.6,1.4,0.5,1.8-0.7,0.5C67.3,155.4,67.3,152.6,68.6,152.6z M145.7,153.3c1.3,1.8,2.5,4,3.6,6.6l-5.7-2.6L145.7,153.3z
			 M61.9,160.3c-0.4-0.5-0.6-2-0.9-2.6c-0.3-0.8-0.5-1.2-0.9-1.2c-2.4,0.2-2.3-2.1-0.9-2.5C62,153,63.1,160,61.9,160.3z M73.9,158
			c-0.4,1.2-0.1,1.9,0,3.2c0.1,0.6,0.1,0.7-0.4,0.3c-1.1-1-1.8-4.4-0.7-5C74.2,155.6,74.6,157,73.9,158z M131.4,156.4
			c0.6,0,1.2,0.4,1.5,1.2c0.5,1.2,0.4,4,0.2,5.5c-0.4,2.3-0.9,4.4-1.1,6c-0.8,1-2.8-2.4-3-5.1c-0.3-2.1,0.4-6.5,2.1-7.5
			C131.1,156.4,131.3,156.4,131.4,156.4L131.4,156.4z M139.1,156.7c0.5,0,0.4,0.1,0.8,0.5c0.6,0.6,0.8,0.7,1.6,1
			c1.6,0.5,3.5,2.8,2.8,3.5c-0.6,0.4-2-0.4-2.6-0.6c-0.6-0.2-1.2-0.4-1.5-0.5c-1.4-0.5-3.4-3-2.7-3.5
			C137.7,156.9,138.7,156.7,139.1,156.7z M135.1,157.1c1,0,1.3,0.3,1.9,1.4c0.9,1.6,2.5,2.8,4.8,3.4c3,0.9,5.5,2.6,5.4,5.8
			c-0.7,0-1.4,0.1-2.1,0.3c-0.8-2.3-2.9-3.6-4.6-4c-4.1-0.9-7.8-5-6.8-6.7C134.2,157.1,134.7,157.1,135.1,157.1L135.1,157.1z
			 M64.9,157.3l35.2,30.5c-14.8-5.5-28.4-5.4-41.6-3.3L64.9,157.3z M79.9,159.4c-0.1,0.9-1.4,1.2-1.6,1.4c-0.7,0.6-0.6,2.2-0.3,4.1
			c0.2,1.2-0.1,1.1-0.7,0.2c-1.1-1.6-1.1-4.4-0.3-6C77.9,157,80,158,79.9,159.4z M59.7,157.9c1.3,0.1,1.7,2,1.8,3.2
			c0,1.7-0.5,1.6-0.7,0c-0.1-0.7-0.4-1-0.9-1.2C58.5,159.5,58.4,157.9,59.7,157.9z M76,159.7c-0.3,0.4-0.4,2.1,0,3.3
			c0.2,0.7-0.1,0.7-0.6,0.2c-1.5-1.7-1.6-4.6-0.2-5.1C76.3,157.8,76.6,159.2,76,159.7L76,159.7z M60.8,163.1c0,1.7-0.4,1.9-0.9,0.2
			c-0.1-0.4-0.4-0.8-0.5-0.9c-1-0.7-1.1-1.2-0.6-1.7C60.2,159.7,60.8,162.6,60.8,163.1z M66,161.6l-4.8,20.2
			c11.7-1,17.1-1.2,29.6,1.3L66,161.6z M80.2,162c0.7,0.2,1,1.1,0.1,2c-0.3,0.3-0.5,0.9-0.2,2.3c0.5,2-0.3,1.3-1.3-0.5
			C78.3,164.6,78.5,161.6,80.2,162z M57.7,162c1.3,0,2.5,2.1,2.5,4.3c0,1.8-0.2,1.7-0.9-0.1c-0.5-1.2-0.9-1.6-1.7-1.9
			C56,163.9,56.1,162,57.7,162z M66.4,162.6l22.1,19.2c-9-1.4-17.9-1.5-26.5-0.5L66.4,162.6z M84.7,163.4c1.7,0,2.4,2.1,0.3,2.9
			c-1.3,0.4-0.7,3-0.5,4.5c0.1,0.6-0.1,0.6-0.5,0.1C82.7,168.9,82,163.9,84.7,163.4L84.7,163.4z M82.4,165.7c-0.3,0.5-0.3,1-0.1,2
			c0.6,2.1,0.7,2.4-0.5,1.4c-1.2-1.3-1.8-3.9-0.7-4.6C82.2,163.6,83.3,164.6,82.4,165.7L82.4,165.7z M38.8,164.2
			c2,0,3.5,1.3,3.5,3.1c-0.1,2-1.4,3.3-3.2,3.4c-2.1,0.1-3.4-1.6-3.4-3.3C35.5,165.9,36.5,164.2,38.8,164.2L38.8,164.2z M38.7,165
			c-2.3,0-3.2,3.1-1.3,4.5c0.8,0.6,1.5,0.4,0.8-0.2c-1.3-1.2-0.8-3.2,0.9-3.6C40,165.5,39.7,165,38.7,165L38.7,165z M67.3,165.5
			l-2.8,13.6c5.8-0.9,12.8-0.6,18.2-0.1L67.3,165.5z M57.8,166c1.4-0.1,1.8,2,1.8,2.9c0,1.1-0.1,1.6-0.3,1.1
			c-0.5-1.4-0.9-2.1-1.4-2.1c-0.3-0.1-0.5-0.2-0.7-0.4C56.6,166.8,57.1,166,57.8,166z M67.6,166.6l1.9,1.6c-1.2-0.5-2.2,0.8-2.2,0.8
			L67.6,166.6z M86.7,169.1c-0.5,0.7-0.5,2.1-0.1,3.8c0.1,0.5-0.3,0.1-0.8-0.4c-0.8-1-1.2-2.3-1.1-3.3
			C84.9,166.7,88.2,167.1,86.7,169.1z M57.3,167.9c1.2,0.1,1.7,2.6,1.6,3.4c0,0.8-0.2,1.3-0.4,0.8c-0.3-1-1-2.6-1.5-2.9
			C56.1,168.7,56.3,168,57.3,167.9L57.3,167.9z M149.5,170.7c0,0.9-0.3,1.8-0.9,2.1c-0.6,0.3-0.9-0.1-1.2-1.1c-0.2-0.7-0.3-1-0.3-1
			s-0.2,0.9-0.3,1.1c-0.4,1.3-1.9,1.3-2.4-0.1c-0.6-1.7,1.1-3.4,2.5-3.4C148.3,168.3,149.4,169.3,149.5,170.7L149.5,170.7z
			 M69,168.8c0.4,0,2.1,0.7,2.1,0.7l1.6,1.4c0,0-1.5-0.7-2-0.8c-1.3-0.4-1.2-0.4-2.3,0.4c-1.1,0.9-1.9,1.5-1.9,1.5l0.3-1.8
			C66.9,170.2,68.4,168.8,69,168.8L69,168.8z M58.3,173.4c0.2,2-0.3,2.1-0.8,0.3c-0.5-1.6-0.9-2.2-1.7-2.2c-1.4,0.2-1.9-1.9-0.6-2.3
			C57.6,168.5,58.2,172.6,58.3,173.4z M141.3,169.1l2.2,1l0.5,2.3l-2.1-0.5L141.3,169.1z M91.2,169.3c2.1-0.6,2.4,2.1,0.8,2.5
			c-1,0.2-1,1.8-0.7,4c0.1,0.5,0.2,1.1,0.2,1.2c-0.2,0.4-0.7-0.2-1.4-1.7C89.1,172.7,89.4,169.8,91.2,169.3L91.2,169.3z
			 M152.7,169.3l-0.6,2.7l-1.9-0.1l-0.1-1.6L152.7,169.3z M89,171c-1,1.5-0.1,2.9,0.1,4c0,0.7-0.8,0-1.3-1c-1.1-2.1-1.1-3.7-0.2-4.5
			C89,168.8,89.6,170.2,89,171z M69.7,170.6c0.4,0,0.9,0.2,1.9,0.6c0.8,0.3,2.6,1,2.6,1l2.4,2.1c0,0-2.1-0.8-3.6-1.4
			c-3.3-1.4-2.8-1.4-5.5,0.5c-0.8,0.6-1.5,1.2-1.5,1.2l0.3-1.7c0,0,1-1,2.2-1.9C69.1,170.8,69.3,170.6,69.7,170.6z M38.8,171.4
			c1.7,0,2.8,1.3,3.2,2.8c0.2,0.9,0,1.7,0,2.5c-1.2,9-1.7,17.3-2.8,25.6c-0.1,0.4-0.3,0.2-0.4-0.5c-1.2-7.5-2.1-15.8-3.1-23.2
			c-0.2-2.8-1-6.4,2.6-7.1C38.4,171.5,38.6,171.4,38.8,171.4L38.8,171.4z M38.7,172.4c-0.7,0-1.6,0.5-2,1.2
			c-0.6,1.4-0.5,4.1,0.7,12.3c0.1,0.7,0.2,1.8,0.3,2.5c0.2,2.2,0.5,3.9,0.7,4.2c0.4,0.6,0.5,0,0.2-2.2c-0.1-1.1-0.3-2.8-0.4-3.7
			c-0.5-3.9-0.7-6.7-1-10.2c-0.2-1.8,0.5-3,1.9-3.4c0.7-0.2,0.8-0.5,0.1-0.7C39,172.5,38.8,172.4,38.7,172.4z M151.1,172.5
			c2.5,0,3.4,3.5,1,4.7c-0.9,0.5-2.4,0.2-2.8-0.5c-0.2-0.6,0-0.9,0.5-1.1c0.5-0.3,1.4-0.5,1.4-0.5s-1.3-0.3-1.7-0.9
			C148.6,172.9,150.1,172.6,151.1,172.5L151.1,172.5z M57.7,176.3c0,0.7-0.4,0.4-0.4,0c-0.3-0.9-0.8-1.8-1.3-2.2
			c-0.6-0.5-0.7-1.1-0.3-1.4C57.1,171.4,57.7,175.9,57.7,176.3z M141.9,172.5c0.6,0,1.5,0.2,2,0.7c0.7,0.7,0.7,1-0.5,1.4
			c-0.6,0.2-1,0.4-1,0.4s0.5,0.2,0.9,0.3c1.1,0.4,1.1,1,0,1.8c-1.4,1.1-3.7-0.3-3.7-2.2C139.8,173.5,140.7,172.6,141.9,172.5
			L141.9,172.5z M147.1,172.5l2.3,2.5l-2.6,2.7l-2.5-2.7L147.1,172.5z M70.1,172.8C70.1,172.8,70.1,172.8,70.1,172.8
			c0.8,0,1.9,0.5,4.7,1.6c1.5,0.6,3.3,1.3,3.3,1.3l2.5,2.2c0,0-3.4-1.1-4.6-1.7c-0.3-0.1-0.8-0.4-1.3-0.5c-0.4-0.2-1.5-0.6-2.4-0.9
			c-1.9-0.8-1.9-0.8-2.5-0.2c-0.3,0.2-0.9,0.7-1.5,1.2c-0.5,0.4-1.3,1-1.8,1.3c-0.5,0.4-1.1,1-1.1,1l0.4-2.1c0,0,0.4-0.3,1-0.8
			c0.5-0.4,1.4-1.1,2-1.5C69.3,173,69.6,172.8,70.1,172.8z M94.4,174.6c0.1,0.4,0,0.5-0.5,1c-0.6,0.6-0.7,1.7-0.3,3.1
			c0.1,0.4,0.3,0.8,0.3,0.9c-0.7,0.7-2.5-3.6-2-4.8C92.4,173.3,94.1,173.2,94.4,174.6L94.4,174.6z M55.5,174.8c0.5,0,1,0.3,1.3,1.1
			c0.7,2,0.3,4.5-0.5,2.2c-0.2-0.5-0.5-1-0.8-1.3c-0.3-0.3-0.9-0.6-0.8-1.1C54.7,175.1,55.1,174.8,55.5,174.8L55.5,174.8z
			 M70.7,174.8c0.3,0,0.7,0.2,1.4,0.4c0.6,0.3,2.5,0.9,3.5,1.3c1.6,0.6,3.3,1.4,3.3,1.4l-3.6-0.2c0,0-1.2-0.4-2-0.7
			c-2.7-1.1-2.5-1.1-3.8-0.1c-0.5,0.4-1.1,0.9-1.1,0.9l-1.8,0.1c0,0,0.9-0.9,2.1-1.8c0.4-0.3,1-0.7,1.2-1
			C70.2,175,70.4,174.8,70.7,174.8z M99.1,175.6c1-0.2,1.6,0.8,1.5,1.4c-0.1,0.7-0.7,1.3-1.6,1.5c-0.2,0.7-0.8,2.4-0.4,4.9
			c0.3,1.2-0.2,1.2-0.7,0.1C96.9,181.6,95.7,176.2,99.1,175.6z M96.2,177.6c-0.4,0.9-0.6,1.6-0.3,2.8c0.3,1.3,0.3,1.6-0.4,0.8
			c-1.4-1.9-1.6-4.9-0.3-5.2C96.4,175.6,96.6,177,96.2,177.6z M53.8,176.2c2.2,0.3,2.9,4.1,2.5,5.7c-0.6,1.9-0.6,0.6-0.8-0.2
			c-0.5-1.9-1.2-3-1.8-3.1C52,178.3,52.2,175.9,53.8,176.2L53.8,176.2z M70.7,176.9c0,0,0.1,0,0.1,0c0.7,0.1,2.7,0.7,1.8,0.9l-2.9,0
			C69.2,177.9,70.2,176.9,70.7,176.9L70.7,176.9z M147.9,177.5c0.3,0,0.7,0.3,1.1,0.8c1,1,0.6,2.7-0.8,3.5c-2.2,1.3-4.6-1.1-3.4-3.3
			c0.7-1.2,1.4-1,2.1,0.7c0.1,0.2,0-0.2,0.2-0.7C147.3,177.9,147.6,177.5,147.9,177.5L147.9,177.5z M144.3,177.6l-0.6,2.6l-2.6,1.3
			l1-3.2L144.3,177.6z M149.8,178.1l2.1,0.2l1.2,3.4l-3-1.3L149.8,178.1z M100.1,180c1.5,0.1,1.7,1.5,0.8,2.1
			c-0.5,0.5-0.7,1.1-0.6,2.2c0,0.5,0.1,1.1,0.1,1.1c0,0.2-0.2,0.2-0.5-0.1C98.4,183.6,98.7,179.9,100.1,180z M54,180.6
			c1,0,2.1,2.8,1.5,3.8c-0.3,0.6-0.7,0.5-0.8-0.3c-0.1-0.5-0.4-1.2-1.2-1.4C52.4,182.4,52.7,180.6,54,180.6z M102.9,182.2
			c0.7,0.4,0.8,1.2,0.1,1.7c-0.5,0.4-0.7,0.7-0.7,1.7c0.2,2.3-1.1,0.8-1.2-1.2C101,183.2,101.7,181.6,102.9,182.2z M53.1,182.9
			c0.7,0,1.5,1.2,1.3,2c-0.1,0.6-0.4,0.5-0.8,0c-0.2-0.1-0.5-0.3-0.7-0.3C51.9,184.3,52.1,182.9,53.1,182.9L53.1,182.9z M72.9,183.9
			c9.4,0,19.2,1.4,27.3,4.7l-0.7,1.2l-2.1-0.7l-0.7,1.9l1.8,0.7l-0.8,1.8c-9.6-3.1-19.9-5.5-37.1-2.9c-0.9-0.6-2.4-1.8-2.4-1.8
			l1.4-0.3l-0.2-1.9l-3.5,0.6l-1-1.1C60.2,184.6,66.5,183.9,72.9,183.9L72.9,183.9z M104.4,184.3c0.9,0,1.5,1,0.8,1.4
			c-0.5,0.3-1.5,0.4-1.7,0.1C103,185.4,103.7,184.3,104.4,184.3z M71.6,185.5l0,2l2.8-0.1l0.1-1.9L71.6,185.5z M76.5,185.5l0,1.9
			l2.7,0.1l0.1-1.9L76.5,185.5z M69.3,185.6l-2.8,0.2l0.1,1.8l2.8-0.1L69.3,185.6z M81.7,185.9l-0.1,1.9l2.8,0.3l0.2-1.9L81.7,185.9
			z M64.1,186l-2.8,0.4l0.2,1.9l2.7-0.3L64.1,186z M87.1,186.6l-0.3,1.9l2.6,0.4l0.3-1.8L87.1,186.6z M92.3,187.7l-0.3,2l2.7,0.6
			l0.4-1.8L92.3,187.7z M73.5,190c8.8,0,16.8,1.5,23.6,4.1c0,0-0.9,1.9-1.2,2.1c-4.8-1.9-13.1-3.7-18.7-3.8c-2-0.1-2.5-0.1-3.3-0.4
			c-4.3-1.4-8-2-11.5,0.1l-1.4-1C65.4,190.3,69.5,190,73.5,190L73.5,190z M36.4,201.2c2,0,3,3.1,0.8,4.4c-0.6,0.3-1.3,0.3-1.9,0
			c-1.7-0.8-1.9-3.4,0.2-4.2C35.8,201.3,36.1,201.2,36.4,201.2L36.4,201.2z M102.2,201.3c0.7,0.4,3.4,1.6,3.4,1.6l-18.7,33.7l-4.5,0
			L102.2,201.3z M41.9,201.4c1.1-0.1,1.9,0.8,2.2,1.6c0.4,1.1-0.3,3-2.3,2.9C39.5,205.8,38.5,201.8,41.9,201.4z M106.2,203.2
			c0.5,0.3,2.3,0.6,2.5,0.9c0.1,0.2-0.1,0.5-0.1,1c-0.1,1.1,0.2,2.3,0.8,3.2c1.1,1.5-0.1,0.8-1.2,0.8c-2.4-0.6-5.5,2.6-4.3,6
			c0.3,0.7,0.2,0.8-1.1,1.2c-2.9,0.9-4.2,4-2.8,6.7c0.7,1.4,0.8,1.4-0.5,1.5c-3.6,0.3-5.7,3.5-4.2,6.7c0.2,0.5,0.1,0.6-0.7,0.8
			c-2.4,0.4-3.5,2.5-3.8,4.7l-3.2,0L106.2,203.2z M109.2,204.4l6.2,1.7c-2.6,8.7-2.9,18.9,0.2,30.6l-14.3,0c2-1.8,1.2-4.2-1.1-4.8
			c2.2-1.3,2.2-4.7-0.4-5.1c-2.4-0.4-3.6,1.9-2.5,4.1l-1,0.3c0,0-0.5-0.6-0.6-0.9c-0.9-2.6,1-5.2,4.2-5.2c2,0,2.4-0.5,1.3-1.8
			c-1.9-2.2-1.3-5.2,1.2-6.4c1.2-0.5,1.9-0.2,1.9-0.2l0.1,1.4c0,0-0.5,0-0.8,0.1c-2.8,0.4-2.3,4.9,0.6,4.9c1.6,0,2.7-1.2,2.7-2.9
			c0-0.5,0-1.2,0-1.2c1.4,2.5,3.9,2.6,5,0.6c1.2-2.3-1-3.8-3.3-3.6c0,0,0.5-0.3,0.8-0.5c2.4-1.2,1.6-4.7-1.1-4.7
			c-1.8,0-2.9,1.7-2.3,3.5c0.1,0.3,0.3,0.7,0.3,0.7l-1.1,0.3c0,0-0.2-0.2-0.4-0.4c-1.9-2.9,1.1-6.1,4.9-5.4c1.4,0.4,1.3-0.5,0.6-1.4
			C109.3,207.2,108.6,205.8,109.2,204.4L109.2,204.4z M39.1,205.6l3.3,5.7l-3.6,6.6l-3.6-6.2L39.1,205.6z M38.8,208.6l-2.3,3.1
			l2.2,3.6l2.1-3.6L38.8,208.6z M38.7,209.8l1.5,2l-1.5,2.4l-1.5-2.3L38.7,209.8z M106,215.9c0.7,0,1.2,0.6,1.2,1.2
			c0,0.7-0.6,1.2-1.2,1.2c-0.7,0-1.2-0.6-1.2-1.2C104.8,216.5,105.3,215.9,106,215.9z M97.2,231.4c0.7,0,1.3,0.6,1.3,1.3
			c0,0.7-0.6,1.3-1.3,1.3c-0.7,0-1.3-0.6-1.3-1.3C96,232,96.5,231.4,97.2,231.4z M95.3,232.3c-0.1,0.1,0,1.2,0.3,1.6
			c-1.9,0.1-2.3,1.5-2.5,2.7l-1.7,0C91.7,232.6,95.2,232.5,95.3,232.3L95.3,232.3z"/>
		<path id="path153-6-3-1-9-55-1-6_1_" d="M53.2,33.8c-7.4,10.5-15.4,16.6-15.5,24.8c0,2.7,1.4,7.2,5.9,8.1c2.9,0.6,7-1.8,7.1-6.6
			c0-1,1-0.9,1,0.4c-0.1,3.8-1.3,8.2-3.4,11.8c3.2,0,6.5,0,9.7,0c-2-3.6-3.2-8-3.4-11.8c0-1.3,1-1.3,1-0.4c0.1,4.8,4.1,7.2,7.1,6.6
			c4.5-0.9,6-5.4,5.9-8.1C68.6,50.4,60.7,44.3,53.2,33.8L53.2,33.8z"/>
		<path id="path153-6-3-1-8-6-8-8-0_1_" d="M136.7,231.3c-7.4-10.5-15.4-16.6-15.5-24.8c0-2.7,1.4-7.2,5.9-8.1
			c2.9-0.6,7,1.8,7.1,6.6c0,1,1,0.9,1-0.4c-0.1-3.8-1.3-8.2-3.4-11.8c3.2,0,6.5,0,9.7,0c-2,3.6-3.2,8-3.4,11.8c0,1.3,1,1.3,1,0.4
			c0.1-4.8,4.1-7.2,7.1-6.6c4.5,0.9,6,5.4,5.9,8.1C152.1,214.7,144.2,220.8,136.7,231.3L136.7,231.3z"/>
	</g>
</g>
</svg>
