<?xml version="1.0" encoding="utf-8"?>
<!-- Generator: Adobe Illustrator 23.0.1, SVG Export Plug-In . SVG Version: 6.00 Build 0)  -->
<svg version="1.1" xmlns="http://www.w3.org/2000/svg" xmlns:xlink="http://www.w3.org/1999/xlink" x="0px" y="0px"
	 viewBox="0 0 180 250" style="enable-background:new 0 0 180 250;" xml:space="preserve">
<style type="text/css">
	.st0{fill:#FFFFFF;}
	.st1{fill:#E2CF00;}
	.st2{fill:#131F67;}
	.st3{fill:#D40000;}
	.st4{fill:#100F08;}
</style>
<g id="white-background">
	<rect class="st0" width="180" height="250"/>
</g>
<g id="Layer_1">
	<g id="g6758_1_" transform="matrix(0.99553491,0,0,0.99680337,9.4615202,-8.1397402)">
		<path id="path6790-5_1_" class="st3" d="M4.4,64.4c-1.8-2.9-3.6-5.7-5.9-8c2.3-2.4,4.1-5.2,5.9-8c1.7,2.9,3.6,5.7,5.9,8
			C8,58.8,6.2,61.6,4.4,64.4z"/>
		<path id="path6792-5_1_" class="st3" d="M122.8,73.1c-4.2-6.9-8.6-13.6-14.1-19.3c5.5-5.7,9.9-12.4,14.1-19.3
			c4.2,6.9,8.6,13.6,14.1,19.3C131.4,59.5,127,66.2,122.8,73.1z"/>
		<path id="path6794-1_1_" class="st3" d="M157.4,218.8c-1.7-2.9-3.6-5.7-5.9-8c2.3-2.4,4.1-5.2,5.9-8c1.8,2.9,3.6,5.7,5.9,8
			C161,213.1,159.1,215.9,157.4,218.8z"/>
		<path id="path6796-2_1_" class="st3" d="M39,73.1c-4.2-6.9-8.6-13.6-14.1-19.3C30.4,48,34.8,41.4,39,34.5
			c4.2,6.9,8.6,13.6,14.1,19.3C47.6,59.5,43.2,66.2,39,73.1z"/>
		<path id="path6806-6_1_" class="st3" d="M39,152.8c-4.2-6.9-8.6-13.6-14.1-19.3c5.5-5.7,9.9-12.4,14.1-19.3
			c4.2,6.9,8.6,13.6,14.1,19.3C47.6,139.3,43.2,146,39,152.8z"/>
		<path id="path6808-6_1_" class="st3" d="M122.8,152.9c-4.2-6.9-8.6-13.6-14.1-19.3c5.5-5.7,9.9-12.4,14.1-19.3
			c4.2,6.9,8.6,13.6,14.1,19.3C131.4,139.3,127,146,122.8,152.9z"/>
		<path id="path6812-0_1_" class="st3" d="M39,232.7c-4.2-6.9-8.6-13.6-14.1-19.3c5.5-5.7,9.9-12.4,14.1-19.3
			c4.2,6.9,8.6,13.6,14.1,19.3C47.6,219.1,43.2,225.8,39,232.7z"/>
		<path id="path6814-4_1_" class="st3" d="M122.8,232.7c-4.2-6.9-8.6-13.6-14.1-19.3c5.5-5.7,9.9-12.4,14.1-19.3
			c4.2,6.9,8.6,13.6,14.1,19.3C131.4,219.1,127,225.8,122.8,232.7z"/>
		<path id="path23-5-3-5-5_1_" class="st3" d="M-3.4,37.7c-0.3-2.2-0.3-8-0.1-9.7c0.8-5.2,2.8-7.6,6.2-8.4c3.3-0.8,7.9,0.1,8.9,4.5
			l-2.7,0.1c-1.5-3-5.2-2.2-7.3-0.9c-1.7,1-2.4,5.3-2.1,5.6c0,0,3.2-2.3,5.7-2.2c5.4,0.6,7.6,5.2,7.4,9.5c-0.2,5.2-1.8,9.4-7.5,9.7
			C-0.4,45.6-2.9,42.7-3.4,37.7L-3.4,37.7L-3.4,37.7z M9.9,36.3c0-3.6-1.6-6.4-4.8-6.7C2,29.3-1.2,32.4-1,36.1
			c0.2,3.7,1.7,6.9,5.5,6.8C8.6,42.9,9.9,38.9,9.9,36.3L9.9,36.3z"/>
		<path id="path23-6-5-6-6_1_" class="st3" d="M165.2,229.5c0.3,2.2,0.3,8,0.1,9.7c-0.8,5.2-2.8,7.6-6.2,8.4
			c-3.3,0.8-7.9-0.1-8.9-4.5l2.7-0.1c1.5,3,5.2,2.2,7.3,0.9c1.7-1,2.4-5.3,2.1-5.6c0,0-3.2,2.3-5.7,2.2c-5.4-0.6-7.6-5.2-7.4-9.5
			c0.2-5.2,1.8-9.4,7.5-9.7C162.2,221.5,164.7,224.4,165.2,229.5L165.2,229.5L165.2,229.5z M151.9,230.8c0,3.6,1.6,6.4,4.8,6.7
			c3.1,0.3,6.3-2.8,6.1-6.5c-0.2-3.7-1.7-6.9-5.5-6.8C153.2,224.2,151.9,228.3,151.9,230.8L151.9,230.8z"/>
	</g>
</g>
</svg>
