<?xml version="1.0" encoding="utf-8"?>
<!-- Generator: Adobe Illustrator 23.0.1, SVG Export Plug-In . SVG Version: 6.00 Build 0)  -->
<svg version="1.1" xmlns="http://www.w3.org/2000/svg" xmlns:xlink="http://www.w3.org/1999/xlink" x="0px" y="0px"
	 viewBox="0 0 180 250" style="enable-background:new 0 0 180 250;" xml:space="preserve">
<style type="text/css">
	.st0{fill:#FFFFFF;}
	.st1{fill:#E2CF00;}
	.st2{fill:#131F67;}
	.st3{fill:#D40000;}
	.st4{fill:#100F08;}
</style>
<g id="white-background">
	<rect class="st0" width="180" height="250"/>
</g>
<g id="Layer_1">
	<g id="g8526-6-2_1_" transform="matrix(0.99553774,0,0,0.99680134,-345.02296,79.60164)">
		<path id="path7225-5-2_1_" d="M395-53.6c-7.5,10.6-15.5,16.7-15.6,24.9c0,2.7,1.4,7.2,6,8.1c3,0.6,7-1.8,7.1-6.6c0-1,1-0.9,1,0.4
			c-0.1,3.8-1.4,8.2-3.4,11.9c3.3,0,6.5,0,9.8,0c-2-3.6-3.3-8-3.4-11.9c0-1.3,1-1.3,1-0.4c0.1,4.8,4.2,7.2,7.1,6.6
			c4.6-0.9,6-5.4,6-8.1C410.5-36.9,402.5-43,395-53.6z"/>
		<path id="path7227-2-8_1_" d="M360.5-39.7c-3.5,4.4-7.2,6.9-7.3,10.4c0,1.1,0.7,3,2.8,3.4c1.4,0.2,3.3-0.8,3.3-2.8
			c0-0.4,0.5-0.4,0.5,0.2c-0.1,1.6-0.6,3.4-1.6,4.9c1.5,0,3,0,4.6,0c-1-1.5-1.5-3.4-1.6-4.9c0-0.5,0.5-0.6,0.5-0.2
			c0,2,1.9,3,3.3,2.8c2.1-0.4,2.8-2.3,2.8-3.4C367.7-32.7,364-35.3,360.5-39.7L360.5-39.7z"/>
		<path id="path7229-4-8_1_" d="M395,91.4c-7.5-10.6-15.5-16.7-15.6-24.9c0-2.7,1.4-7.2,6-8.1c3-0.6,7,1.8,7.1,6.6c0,1,1,0.9,1-0.4
			c-0.1-3.8-1.4-8.2-3.4-11.9c3.3,0,6.5,0,9.8,0c-2,3.6-3.3,8-3.4,11.9c0,1.3,1,1.3,1,0.4c0.1-4.8,4.2-7.2,7.1-6.6
			c4.6,0.9,6,5.4,6,8.1C410.5,74.8,402.5,80.9,395,91.4z"/>
		<path id="path7231-7-8_1_" d="M513.4,130.7c-3.5-4.4-7.2-6.9-7.3-10.4c0-1.1,0.7-3,2.8-3.4c1.4-0.2,3.3,0.8,3.3,2.8
			c0,0.4,0.5,0.4,0.5-0.2c-0.1-1.6-0.6-3.4-1.6-4.9c1.5,0,3,0,4.6,0c-1,1.5-1.5,3.4-1.6,4.9c0,0.5,0.5,0.6,0.5,0.2
			c0-2,1.9-3,3.3-2.8c2.1,0.4,2.8,2.3,2.8,3.4C520.7,123.8,516.9,126.3,513.4,130.7L513.4,130.7z"/>
		<path id="path7233-8-9_1_" d="M478.9-53.6c-7.5,10.6-15.5,16.7-15.6,24.9c0,2.7,1.4,7.2,6,8.1c3,0.6,7-1.8,7.1-6.6
			c0-1,1-0.9,1,0.4C477.3-23,476-18.6,474-15c3.3,0,6.5,0,9.8,0c-2-3.6-3.3-8-3.4-11.9c0-1.3,1-1.3,1-0.4c0.1,4.8,4.2,7.2,7.1,6.6
			c4.6-0.9,6-5.4,6-8.1C494.4-36.9,486.4-43,478.9-53.6z"/>
		<path id="path7235-9-4_1_" d="M395-0.4c-7.5,10.6-15.5,16.7-15.6,24.9c0,2.7,1.4,7.2,6,8.1c3,0.6,7-1.8,7.1-6.6c0-1,1-0.9,1,0.4
			c-0.1,3.8-1.4,8.2-3.4,11.9c3.3,0,6.5,0,9.8,0c-2-3.6-3.3-8-3.4-11.9c0-1.3,1-1.3,1-0.4c0.1,4.8,4.2,7.2,7.1,6.6
			c4.6-0.9,6-5.4,6-8.1C410.5,16.3,402.5,10.2,395-0.4z"/>
		<path id="path7241-7-2_1_" d="M478.9-0.4c-7.5,10.6-15.5,16.7-15.6,24.9c0,2.7,1.4,7.2,6,8.1c3,0.6,7-1.8,7.1-6.6c0-1,1-0.9,1,0.4
			c-0.1,3.8-1.4,8.2-3.4,11.9c3.3,0,6.5,0,9.8,0c-2-3.6-3.3-8-3.4-11.9c0-1.3,1-1.3,1-0.4c0.1,4.8,4.2,7.2,7.1,6.6
			c4.6-0.9,6-5.4,6-8.1C494.4,16.3,486.4,10.2,478.9-0.4z"/>
		<path id="path7245-1-6_1_" d="M395,144.6c-7.5-10.6-15.5-16.7-15.6-24.9c0-2.7,1.4-7.2,6-8.1c3-0.6,7,1.8,7.1,6.6c0,1,1,0.9,1-0.4
			c-0.1-3.8-1.4-8.2-3.4-11.9c3.3,0,6.5,0,9.8,0c-2,3.6-3.3,8-3.4,11.9c0,1.3,1,1.3,1,0.4c0.1-4.8,4.2-7.2,7.1-6.6
			c4.6,0.9,6,5.4,6,8.1C410.5,128,402.5,134.1,395,144.6z"/>
		<path id="path7247-0-6_1_" d="M478.9,144.6c-7.5-10.6-15.5-16.7-15.6-24.9c0-2.7,1.4-7.2,6-8.1c3-0.6,7,1.8,7.1,6.6
			c0,1,1,0.9,1-0.4c-0.1-3.8-1.4-8.2-3.4-11.9c3.3,0,6.5,0,9.8,0c-2,3.6-3.3,8-3.4,11.9c0,1.3,1,1.3,1,0.4c0.1-4.8,4.2-7.2,7.1-6.6
			c4.6,0.9,6,5.4,6,8.1C494.4,128,486.4,134.1,478.9,144.6z"/>
		<path id="path7251-3-6_1_" d="M478.9,91.4c-7.5-10.6-15.5-16.7-15.6-24.9c0-2.7,1.4-7.2,6-8.1c3-0.6,7,1.8,7.1,6.6
			c0,1,1,0.9,1-0.4c-0.1-3.8-1.4-8.2-3.4-11.9c3.3,0,6.5,0,9.8,0c-2,3.6-3.3,8-3.4,11.9c0,1.3,1,1.3,1,0.4c0.1-4.8,4.2-7.2,7.1-6.6
			c4.6,0.9,6,5.4,6,8.1C494.4,74.8,486.4,80.9,478.9,91.4z"/>
		<path id="path7255-7-8_1_" d="M437,26.2c-7.5,10.6-15.5,16.7-15.6,24.9c0,2.7,1.4,7.2,6,8.1c3,0.6,7-1.8,7.1-6.6c0-1,1-0.9,1,0.4
			c-0.1,3.8-1.4,8.2-3.4,11.9c3.3,0,6.5,0,9.8,0c-2-3.6-3.3-8-3.4-11.9c0-1.3,1-1.3,1-0.4c0.1,4.8,4.2,7.2,7.1,6.6
			c4.6-0.9,6-5.4,6-8.1C452.4,42.9,444.4,36.8,437,26.2z"/>
		<path id="path29-33-4-4_1_" d="M353-47.3l2.4-0.8c0.9,2.4,2.8,3.2,4.8,3c3.5-0.3,4.7-4.2,5-7.7c-1.4,1.5-3.5,2.2-5.2,2.1
			c-5.6-0.3-7.1-4.8-7.1-9.5c-0.2-4,1.5-6.8,4.3-8.1c1.5-0.7,4.9-0.7,6.4,0.1c3.5,1.8,4.7,4.9,4.5,12.4c0,6.1-1.3,13.3-7.9,13.5
			C356.4-41.7,353.4-44.7,353-47.3L353-47.3L353-47.3z M362.7-54c1.2-0.7,1.8-1.4,2.3-2.4c0.4-0.8,0.6-1.3,0.4-3
			c-0.3-4.5-2.7-7-6.1-6.5c-1.9,0.3-2.9,1.3-3.5,3.3c-1.1,3.6,0.3,7.9,2.9,8.9C359.9-53.3,361.7-53.4,362.7-54L362.7-54z"/>
		<path id="path29-33-3-8-6_1_" d="M520.9,138.4l-2.4,0.8c-0.9-2.4-2.8-3.2-4.8-3c-3.5,0.3-4.7,4.2-5,7.7c1.4-1.5,3.4-2.2,5.2-2.1
			c5.6,0.3,7.1,4.8,7.1,9.5c0.2,4-1.5,6.8-4.3,8.1c-1.5,0.7-4.9,0.7-6.4-0.1c-3.5-1.8-4.7-4.9-4.5-12.4c0-6.1,1.3-13.3,7.9-13.5
			C517.6,132.8,520.5,135.8,520.9,138.4L520.9,138.4L520.9,138.4z M511.3,145.1c-1.2,0.7-1.8,1.4-2.3,2.4c-0.4,0.8-0.6,1.3-0.4,3
			c0.3,4.5,2.7,7,6.1,6.5c1.9-0.3,2.9-1.3,3.5-3.3c1.1-3.6-0.3-7.9-2.9-8.9C514.1,144.4,512.2,144.5,511.3,145.1L511.3,145.1z"/>
	</g>
</g>
</svg>
