<svg id="Layer_1" data-name="Layer 1" xmlns="http://www.w3.org/2000/svg" viewBox="0 0 180 250"><defs><style>.cls-1{fill:#131f67;}.cls-2{fill:#d40000;}.cls-3{fill:#e2cf00;}</style></defs><title>all_cards</title><g id="g6392"><path id="path7363-8-9" d="M13.89,40.07C10.41,44.46,6.69,47,6.63,50.42a3.33,3.33,0,0,0,2.78,3.36A2.87,2.87,0,0,0,12.71,51c0-.4.48-.39.48.16a10.48,10.48,0,0,1-1.58,4.92h4.55a10.48,10.48,0,0,1-1.58-4.92c0-.55.48-.56.47-.16a2.88,2.88,0,0,0,3.31,2.76,3.34,3.34,0,0,0,2.78-3.36c-.06-3.43-3.78-6-7.25-10.35Z"/><path id="path7367-3-1" d="M166.12,209.93c-3.48-4.39-7.2-6.92-7.26-10.35a3.34,3.34,0,0,1,2.78-3.36A2.88,2.88,0,0,1,165,199c0,.4.48.39.47-.16a10.36,10.36,0,0,0-1.58-4.92h4.55a10.46,10.46,0,0,0-1.57,4.92c0,.55.47.56.47.16a2.88,2.88,0,0,1,3.31-2.76,3.32,3.32,0,0,1,2.77,3.36c-.06,3.43-3.78,6-7.25,10.35Z"/><path id="path35-7-9-2" d="M13.8,11.09v2.77h2.7s.07,2.67.09,8.34c0,5.5.14,8.22-.22,9.79-.94,3.61-6.2,3.63-7.25,1a10.24,10.24,0,0,1-.47-4.2H5.74s0,.77,0,1.7c0,4.06,1.37,6,4.53,6.77s7.06-.46,8.41-3.22c.8-1.58.71-1.69.73-11.21,0-6.35.11-9,.11-9H22V11.09Z"/><path id="path35-7-8-1-4" d="M166.2,238.9v-2.76h-2.7s-.07-2.67-.09-8.34c0-5.5-.13-8.22.22-9.79,1-3.61,6.21-3.63,7.25-1a10.24,10.24,0,0,1,.47,4.2h2.91s0-.77,0-1.7c0-4.06-1.37-6-4.53-6.77s-7.05.46-8.41,3.22c-.8,1.58-.71,1.69-.73,11.21,0,6.35-.11,9-.11,9H158v2.76Z"/><g id="g3851-4-2-7-4"><path id="path4037-8-0-2" class="cls-1" d="M23.88,19.17V230.83H156.12V19.17Zm42,1.16,59.91.22-9.29,14.09c-12.11-3.8-31.75-1.33-41.88.59C72,30.82,68.11,25.28,65.89,20.33Zm-40.27.54H64.08l9,16.29c.33.46,0,1.39-.18,1.92a41.44,41.44,0,0,1-4.35,8.62c-2.14,3.51-2.91,6.73-2.15,8.89a2.2,2.2,0,0,1,.18,1,5.12,5.12,0,0,1-2.29,3.18c-.84.13-2.6.24-3.61,1.23a5.27,5.27,0,0,0-1.48,4.39,12.3,12.3,0,0,0,.16,1.33C47.9,72.47,39.67,78,39.94,78.22c-.1,0-10.16-4.6-14.32-5.73Zm102.31,0h26.4V95.71l-10-6.51,2.22-1.51c.16,0,.45,0,.64-.09,1.77-.39,3-1.7,2.39-3-.42-.92.15-.87.66-1.62a2.06,2.06,0,0,0,.09-2.31c-.18-.35-.08-.49.22-1.14a2.28,2.28,0,0,0-.82-3.22c-.11-.16.12-.41.17-.64a2.21,2.21,0,0,0-1.42-2.83c-.61-.15-.81-.26-.6-.79.38-1-.12-1.3-.9-1.61-1.33-.52-.95-.6.68-1.33,3.35-1.5,4.14-5.93,1.84-10-.29-.51-1.08-1.71-1.61-2.52s-1.22-1.75-1.22-1.75l4.43-6.12A50,50,0,0,1,147,43.08c.26-1,3.35-4.1,3.75-7.11.63-4.73-3-7.75-6.42-7.4-2.38.25-5.3,1.75-5.08,6.13a10,10,0,0,0,1.57,4.46c.68,1.28,1.56,2.62,2.4,3.92l-4.46,6,4.51,5.66-.16.24c-.45.71-1.75,2.79-2.32,4-1.66,3.26-2.25,6.84,1.16,9.36a8.09,8.09,0,0,1,1.32.92c.33.33.12.58-.42.7a11.7,11.7,0,0,0-1.94.39,21.09,21.09,0,0,0-5.81,3.25A16.42,16.42,0,0,0,132,78.27c-.92,1.92-1.17,2.34-1.17,2.34l-15.69-10s-.39-.31-.5-.43c-.29-.32-.19-.51,0-.87a4.19,4.19,0,0,0,.1-1.88,3.09,3.09,0,0,1,.75-2.51,1.76,1.76,0,0,0,.23-1.49c-.25-.73-.27-.5.2-1,.18-.22.4-.33.44-.58s0-.89,0-1.94c0-2.12,0-1.94,1.18-2.87,1.49-1.16,2-1.7,2.28-2.23.34-.74,0-1.31-.83-2.81-.39-.68-1-1.6-1.26-2.12a17.38,17.38,0,0,1-1.68-3.31,3.72,3.72,0,0,1,0-3.36c.65-1.14.83-1.83.81-4.15,0-2.14-.18-1.94.37-2.66C121.39,31.05,127.93,20.87,127.93,20.87Zm16.79,8H145a5.63,5.63,0,0,1,3.79,1.63c1.62,1.61,1.51,3.94,1,6.37a8.44,8.44,0,0,1-.93,2.15,5.41,5.41,0,0,0-.51.84,14.38,14.38,0,0,1-.89,1.43c-.48.72-1,1.71-1,1.71a26,26,0,0,0,2.12,3.07c1,1.51,1.69,2.83,1.77,2.75a5.82,5.82,0,0,1-.61,1.12,47.09,47.09,0,0,0-3.15,4.63c0,.07-.22.15-.22.22,0,.27.41.6,1,1.4,3.58,4.88,4.08,9,1.39,11.41a5,5,0,0,1-4.07,1.42,5.2,5.2,0,0,1-4.72-5.67,7.06,7.06,0,0,1,.93-3.62,20.82,20.82,0,0,1,1.88-3.44,15.54,15.54,0,0,0,1.07-1.45,49.08,49.08,0,0,0-3.62-4.68,4.79,4.79,0,0,1-.68-1.17l4-5.9a13.72,13.72,0,0,0-1.25-2.3c-1.6-2.37-2.64-4.89-2.63-6.31C139.65,31,142,28.91,144.72,28.91Zm10,84.17c-2.37,1.25-4.68,5.52-.17,2.54l.12,2.45c-2.35,3.3-6.93.89-5.77-2.53-3.16.41-3.66-2.78-3.5-4.3-4.16-.89-2.72-5.27-2.72-5.27-2.41-2-2.83-4.08-.88-6.28-2-1.21-2.53-2-4.7-2.87,1.66,14.63,9.64,22.24,18,29-.23,0-.25,4.71-.78,3.85-12-8.87-19.68-19-21-35.42-.1.25-5.68-4.28-6.61-4-1.93,26.57,19.41,44,28.29,47.47a28.89,28.89,0,0,1,0,3.72c-13.45-5.82-28.41-22.89-31.29-43.19l-7.93,12.18-3-1.26,12.84-20L117,83.71,102.82,105.9s-.38,1.85.65,1.82c19.83,2.1,49.33,25.72,39.44,64.15-.85-.34-2.22-1-2.28-1,1.54-3.32,5.87-24.77-7.14-42.11-6-7.94-15.21-16.39-30-18.88,1.23,2.5.69,8.19.69,8.19l3.46.69a10.47,10.47,0,0,1-2.61-3.55c-.64-2.07.3-3.29,2.61-2.06.92.51,1.15.49,2-.17a2.16,2.16,0,0,1,3.49,2.32c-.08.33,0,.55.9.63a8.1,8.1,0,0,1,5.31,2.71c.64.81.78.69,1.35.2,1.39-1.2,3.7.47,3.29,2.32-.23,1.07-.1,1.32.39,1.53,2.72,1.13,3.39,1.85,4.24,4.21.31.87.57,1.15.73,1.1s.56-.18.95-.33c2-.76,3.23,1.67,1.78,3.59-.29.39-.07.76.45,1a6.79,6.79,0,0,1,3,5.39c.07.87.17.87,1.05.84,2.25-.1,3.32,2.92,1.49,4-.64.39-.52.89,0,1.47a5.38,5.38,0,0,1,1.51,4.42c-.16,2.34,0,2.3.75,2.58,2.19.83,1.78,4.29-.37,4.28,1.55,3.57-.49,7.92-.42,8,4.12,2.3.4,4.74-.8,4.31,0,0-.61,1.6.08,2.43-3.61,4.74-8.35,5.53-13.59,7.88l-.17-16.69c2.18,1.74,4.35,3.36,6.51,5,0,0,.54-.16,0-.62-1-.88-3.38-2.43-4.06-3a88.56,88.56,0,0,1-7.76-7.36c-.43-.81-1.07-.34-1-.29.64,1.09,1.12,2.37,1.94,3.51,1.79,2.45,3.53,5.18,3.35,7.89a10.3,10.3,0,0,1-1,3.83c-.25,1-1.92-.18-1.5-1,.74-2.4,1.35-4.36-1.3-8.21a54.36,54.36,0,0,1-3-5.28l-1.07.26,0,21.78c-.9,0-3.18.63-2.71.64,7.11-1.41,9.28,8.67,2.42,9-1.3.05-2.65,2.27-2.79,3.48.06,2.92.49,6-1.67,8.82a26.72,26.72,0,0,0-1.35,2.83c-2.64,4.63-3.82,7.28-3.55,8.48.07.3.13.71.13.71a97.19,97.19,0,0,1-23.16,2.81,99.93,99.93,0,0,1,5-12.46c1.58-3.09,2.39-5.2,2-5.84-6.71.33-5.42-9.42,1-9.08,0,0,1.61-5.61,3.41-8.15,1.71-.94,5.14.34,7.07-.92,4.54-1.38,7.51,3.94,7.51,3.94l1.22-5.06-40.13-.19s-3.9,1.6-6,.74a19.31,19.31,0,0,1-3.28-2s15.48-24.58,17.73-28.1c.18-.29-.4-.9-.4-.91-.09-.8-18.37,28.41-18.37,28.41C50,168.25,37,160,25.49,152.68l0-10.94c8.35-5.22,7.6-7.35-.13-1.67-.11.1-.17-4.11-.17-4.11,5.89-5.21,1-3.58-.17-1.77,0-1.3-.28-3.07.56-3.84,2.58-2.36,5.61-.2,5.77,3.28,3.35.65,2.94,3.58,3.8,4.75,3.43,1.92,1.62,4.82,2.47,5.81,3.61,2.26,1.09,5.88.33,5.8.46.3,4.94,3.28,5.32,3.17C42.85,137.55,27.11,125,25,123.43l.37-3.37s21.68,13.74,21.49,35.79l6.91,4.07c-.61-22.62-10.95-38-28.38-47.68l-.22-4.19c14.63,6.75,28.2,20.41,31.36,42.8l8.1-12.46,2.85,1.37-13,20.68,8.12,5.3c6.3-8.22,11.55-18.3,14.76-23.1-.09-.44-.26-1.07-.26-1.07-31-5.06-48.42-33.82-40.11-63.88l2.16.94c-6.46,22.26,4.07,54.3,37.76,60.85-.07-2.37-.49-8.19-.49-8.19S72,130,72.66,130.5c1.09.92,3.52,4.88,2.49,6.29a5.33,5.33,0,0,1-3.33-1.3c-.51-.37-.52-.29-1.1.32-1.59,1.68-3.9.72-3.93-1.6,0-1,0-1.18-1.44-1.19-2.12,0-3.08-.38-4.35-2.06-.9-1.2-.82-1.21-1.88-.84a2.17,2.17,0,0,1-3-2.72c.31-.78,0-1-1-1.18-1.8-.3-3.84-2.54-4.21-4.37-.08-.37-.27-.46-1.33-.43-2.08.07-3.23-1.18-2.41-2.93.44-.95.57-1.33-.27-2a6,6,0,0,1-2-2.28,9.28,9.28,0,0,1-.66-2.86c-.08-.56-.27-.65-1-.74-2.15-.28-3-2.47-1.42-3.88.48-.44.48-.43-.25-1.37-1.41-1.8-1.94-4.17-1.33-5.74a.77.77,0,0,0-.49-1.07c-2-.48-2-2.64-.12-3.85.54-.36.57-.59.16-1.3-.72-1.25-.69-4.5,0-6.06.45-1,.45-1-.25-1.48a2.26,2.26,0,0,1,.7-4c.86-.21.91-.32.68-1.35-.41-1.84-.48-2.32.61-3,3-1.93,10.73-5.64,10.73-5.64l2.55-1.2s.25,15.43.09,17.25c-.1.79.61,1.26,1.44,2.08C58,91.67,59,93.69,61.26,95.09c0,0,1.42-.79,2.3-1.35l.09-22c.18-.49.3-.55.89-.62s1.71-.23,2.12-.34c1-.29,1.14-.68-.16-.55-.39,0-1,.2-1.62.33-4,1.2-7-5-3.95-8.17a9.52,9.52,0,0,1,3.79-1.5c.29,0,1.16-1,1.74-2A2.84,2.84,0,0,0,67,56.2c-.71-2.05,0-5.21,2.1-8.66a31.47,31.47,0,0,0,5-10.75c8.18-1,15.11-3,22.5-2.55.29,2.48-8.08,17.06-6.33,17.92,6.58,1.56,4.33,9.3-.67,9-.75,0-.82.06-1.3,1.7-.91,2.4-1.5,4.23-2.47,6.46,0,.58-3.27.42-6,.4-1.17.9-6.21,3.33-9-2.89l-.1,5.32s37.68-.59,44.38.24c.15-1.67,3.73,1.29,3.73,1.29l-18.39,28.67.86.84C104,100,120,74.45,120,74.45L154.61,96.6c-.28,3.29,0,10.67,0,10.67-9.51,5-6.6,7.55-.06,1.49ZM97.33,34.66a138.27,138.27,0,0,1,14.73.86c4.31.69,4.08.56,4.07,3.66,0,2.2,0,2.15-.59,3.21-1.05,1.94-.87,3.86.79,6.55a31.17,31.17,0,0,1,2.79,4.9c0,.58-.1,1.28-1.49,2.25-1.65,1.14-2,1.93-1.94,3.09,0,.94-.16,1.25-.73,1.25a8.53,8.53,0,0,0-1.89.77,4.63,4.63,0,0,1-2.93.69c-.71,0-1-.27-1.25-.19-.38.17-.72,1.44-.71,1.8,0,.13.24.06.66-.09,2.34-.79,5.83-.43,5.92-.08.48.42.48,1.07-.23,1.75a2.44,2.44,0,0,0-.48,2.21c.26,1.51.06,2.12-.72,2.64-2.38,1.6-5.56,1.8-10.65.83-5.36-1-9-3.05-12.08-6.68-1.36-1.62-1.69-2.18-1-2.3a10.14,10.14,0,0,0,2.6-.66c3.77-1.6,3.7-8.44-1.37-9.16C88.74,51.89,95.08,42.22,97.33,34.66Zm4.84,4.71c-1.82,1-2.77,2.25-2.78,2.92,0,.27.06.22.93-.35,2.53-1.64,9.18-4,11.56-2.65,1.71,1,2.37.69,1.38-.68C110.94,35.4,104.66,38,102.17,39.37Zm6.51,1.08a4,4,0,0,0-.83.09c-1.76.39-3.69,1.82-5.29,3.08a12.61,12.61,0,0,0-2.08,2.18c-.4.73.47,1.54,1.66.9a1.54,1.54,0,0,1,1.42-.2,14.4,14.4,0,0,0,6,.94c.26.06.24.11.15.35A8.48,8.48,0,0,1,107.32,50c-.64.48-1.21.86-1.25.93-.2.32.66.34,1.61-.19a13.89,13.89,0,0,0,3.82-3.75,1.67,1.67,0,0,0,.26-.37c.09-.31-.48-.18-.78-.27-.13,0-.1-.36-.13-.51a5.88,5.88,0,0,1,.13-1.6c.06-.45.55-.81.87-1.14,1.41-1.45,1.3-2.11-.6-1a2,2,0,0,1-.88.32c-2.8.09-4.42,0-6.76,1.93-1,.83-1.66.91-.74,0,1.41-1.13,3.18-2.74,5.14-3.17,1.18-.29,2.3.61,2.82.38C110.83,40.91,109.84,40.44,108.68,40.45Zm-.41,4a2.81,2.81,0,0,1,.61,1.66c0,.43-.78.25-.88,0l-.4-1.2C107.43,44.57,108,44.34,108.27,44.47Zm-1.43.25c.35.33.42,1.06.62,1.66-.12.43-2.88-.15-3.23-.64A3.57,3.57,0,0,1,106.84,44.72Zm4.84,7.79a1,1,0,0,0-.73.34,2.58,2.58,0,0,0,.65,4.1c.73.34,1.83.09,3.46-.4a7.76,7.76,0,0,1,1.47-.35.87.87,0,0,0,.54-1.41c-.52-.52-1.74-.44-3,.56a2.74,2.74,0,0,1-1.67.75c-1.31,0-1.95-1.36-.61-2.76C112.19,52.87,112,52.53,111.68,52.51Zm-9.19,9.24C104,63,107,62.34,109,61c1.76-1.16,2.49-1.5,3.91-1.26,1.73.3,1.67-.38.92-1.23s-3-.66-4.72.49c-3.9,2.57-5.31,3-6.44,1.61s.23-3.4,1.66-2.36c1.17.79,1.16.2.67-.35C102.12,55.58,100.08,59.82,102.49,61.75ZM88.77,63a21.1,21.1,0,0,0,6.69,6l0,.47-9.16,0A61.74,61.74,0,0,0,88.77,63Zm-31,6.45c-.19,3.73.48,5.92,2.69,8.53,2.34,2.77,2.17,7.1.66,9.77-.67,1.18-2-.28-1.39-1,.91-1.13,1-3.9.54-5.63-1-2.86-3.16-4.26-4-7.28A18,18,0,0,1,56,70.16Zm2.87.32c.16,0,.41.14.79.46,1.3,1.11,1.08,4.29-.41,6.33-.45.62-.83.44-1.26-.13-.59-.57-.38-.63.11-1.64a6.82,6.82,0,0,0,.57-3.61C60.36,70.2,60.39,69.76,60.63,69.73Zm84,1.09c1.15,0,2.58.22,2.71.63s-.15.9-.79,1.17c-1.67.7-3.88-.28-3.33-1.48C143.36,70.93,144,70.83,144.63,70.82Zm-2.89.27a1.71,1.71,0,0,1,.78.16c.55.28-.31,2.2,2.42,2.16.65.09,1.13-.06,1,.24s-1.3,1.1-2.57,1.28c-3.81.56-3.64.37-3.47,3a9.45,9.45,0,0,1-.24,3.37c-.41,1.83-.57,3.6-.3,3a14.45,14.45,0,0,0,1.32-4.63c0-2,.73-2.46,1-1,.13,1-.31,1.54.35,2.55.38.56.56.55.3,1.43a1.27,1.27,0,0,0,.21,1.39c.27.4.55.49.31,1a1.7,1.7,0,0,0,1.43,2.42c.53,0,.67.27.52.47a2.39,2.39,0,0,1-1.3.61L131.48,81s.9-1.78,1.16-2.26c1.74-3.77,3.12-5.48,8.19-7.46A2.31,2.31,0,0,1,141.74,71.09Zm6.41,2.47a1,1,0,0,1,.86.52c.75,1,.1,2.13-1.72,3.14-1.56.88-2,1-2.35-.39a1.93,1.93,0,0,0-.42-.68c-.36-.33-.28-.6.18-.84a13.82,13.82,0,0,0,1.48-.77A4.91,4.91,0,0,1,148.15,73.56ZM143,76.3a2.11,2.11,0,0,1,1.07.29.86.86,0,0,1,0,1.4c-1,.39-2.5-.13-2.37-1C141.77,76.53,142.38,76.29,143,76.3Zm6.22,1a.89.89,0,0,1,.81.48c.57.87-.1,1.74-2,2.67-1.26.61-2.87.88-2.77.52a4.7,4.7,0,0,0-.56-2c-.08-.24,0,0,1.61-.52a8.61,8.61,0,0,0,1.6-.68A2.8,2.8,0,0,1,149.23,77.27Zm-90.6,2.26A7.36,7.36,0,0,0,58,84.79c.36,1.85.76,2.77,2.68,5.5,1.45,2.08,1.92,2.89,1.57,3.54-.25.36-.81.69-1.15.35-.71-.93-1.14-2.05-1.83-3.07-2.68-3.89-2.86-4.88-3.21-7.94-.15-1.41.66-4.39,1.36-4.84C58.22,78,58.87,79,58.63,79.53Zm61.77-1a6.54,6.54,0,0,0-1.57,2.4c.08.56.54.2,1.75-1.56C120.87,79,120.67,78.52,120.4,78.55Zm23,1c1.07,0,1.45,1,1,1.48a1.16,1.16,0,0,1-2-.84C142.42,79.72,142.62,79.5,143.41,79.51Zm5.93,1.35c.61,0,.69.63.37,1.51s-.9.95-2.37,1.4c-1.76.55-2.05.47-2.31-1.14-.1-.61-.05-.48,1.57-.9a20.54,20.54,0,0,0,1.94-.69A1.89,1.89,0,0,1,149.34,80.86Zm-104,.72.44,3.24.7-2.43Zm98.29,1.09c.86,0,1.33.77.89,1.23a1.19,1.19,0,0,1-1.17.12C142.65,83.52,142.77,82.67,143.62,82.67Zm-26.47,1.69,1.69,1-13.72,21.46-1.65,0-.16-.34Zm31.13.21c1,0,1.1.93-.13,1.8a3,3,0,0,1-1.5.42c-.61,0-1-.13-1.07-.55-.27-1-.42-1.28.52-1.22a3,3,0,0,0,1.11-.19A2.83,2.83,0,0,1,148.28,84.57Zm-4.2.94c.7,0,1.15.75.68,1.12s-1.31.18-1.3-.51C143.46,85.68,143.58,85.51,144.08,85.51ZM45.37,87,41.64,90.3c1.37,1.61,2.52,3.21,3.7,4.89Zm75.47.21c1.62-.07,2.15.71,1.38,1.23a4,4,0,0,1-3.12.5c-1.57-.29-.32-1.53,1.4-1.71Zm-1.72,2.33a4.4,4.4,0,0,1,1.43.29c1.06.36,2.38,1.46,2.32,2.07-.1,1-2,.48-3.49-.94C118.44,90.1,118.4,89.59,119.12,89.57Zm-1.43,0c.91.08,1.83,3.16,1.12,4.11s-1.93-1.07-1.71-2.64c.09-.62.25-1.44.5-1.47A.27.27,0,0,1,117.69,89.59Zm-60,.67c.52.13,1.18.83,1,1.37-.11.22-.32.16-.56.1a1.25,1.25,0,0,1-.67-1.25C57.55,90.35,57.61,90.27,57.7,90.26Zm69.61.53,2.7,1.82-2.7.1Zm-11.18,3.67c2.07,0,2.5.68,1,1.49a5.13,5.13,0,0,1-3,.12C112.79,95.62,114.33,94.45,116.13,94.46Zm16.74,1.38L133,97.7l-5.19.46-.27-1.94Zm-18,.93a3.67,3.67,0,0,1,1.68.53c1.42.72,2.22,1.93,1.49,2.31s-1.84-.07-2.67-.93C114.31,97.53,114.22,96.81,114.91,96.77Zm-1.77,0c1,.06,1.76,2.62,1.14,3.89-.34.7-.77.55-1.39-.6s-.63-3,.06-3.26A.63.63,0,0,1,113.14,96.77Zm-67.58.73L43.29,102l4.12,3.57ZM133.51,101l.37,1.79-5,1.21L128.4,102Zm-21.78.35a2.42,2.42,0,0,1,1.51.44c.46.39.36.57-.72,1-1.91.78-4.27.31-2.9-.84A3.32,3.32,0,0,1,111.73,101.34Zm32.4-.11c-1.9,1.27-.07,2,1.29,1A2.13,2.13,0,0,0,144.13,101.23Zm-33.8,2.54c1.37,0,4,1.89,3.47,2.78-.31.49-2.1.07-2.81-.6-.93-.89-1.43-2.07-.91-2.17A1,1,0,0,1,110.33,103.77Zm-1.72.08c.71-.13,1.83,3.12,1,4-.31.32-.4.3-.94-.17a2.9,2.9,0,0,1-.24-3.62A.37.37,0,0,1,108.61,103.85Zm41.87,1.72a2,2,0,0,0-.67-.7C143.19,107.39,144.88,109.8,150.48,105.57Zm-15.69.22.66,1.81-5,2-.74-2Zm-85.92,3.43-1.7,4.44a13,13,0,0,1,5.21,1.64Zm87.59,1.3,1.06,1.79-4.72,2.53-.94-1.88ZM26.7,114l1.94,1.35-2.85,3.5-.26-.49,0-2.91ZM139,115.1l1.14,1.63-4.55,3.13-1.11-1.77ZM31.58,117.2l2.09,1.59-3.31,3.95-2-1.51Zm23,1-.1,4.75,4.92.18Zm56.83,2.14,5.59,3.19-.84-4.87A45.44,45.44,0,0,0,111.4,120.32Zm30.69-1,1.31,1.61-4.2,3.5-1.35-1.68ZM35.84,120.73l1.95,1.79-3.43,3.68-1.8-1.69Zm109.84,2.61,1.52,1.52-3.83,3.94-1.52-1.52ZM40.27,125.27,41.78,127l-3.92,3.09-1.45-1.75Zm22.58.41,1.1,4.65c-.08-.33,4.88-1.38,5.53-1Zm57.74.39,4.68,4.9.53-4.72Zm28.95.77,1.69,1.31-3.14,4.44-1.92-1.49Zm-105.9,3,1.4,2-4.11,2.42-1.17-1.76Zm110.33.47.26.26v3.17l-1.31,1.9-1.78-1Zm-26.48,3.56,4.14,7.46,1.17-5.56A12.21,12.21,0,0,1,127.49,133.83Zm-80.57,1,1,2.16-4.34,2-1-2.14ZM49.26,140l.8,2.16-4.62,1.52-.73-2.08Zm-20.63,3.91,1.44,1C37.56,141,35.22,139.82,28.63,143.87Zm42.31-2.48c.29,0,.61.36.88,1.22.39,1.29.18,2.9-.7,2.87-.6-.07-.82-1.58-.82-2C70.29,142.16,70.58,141.43,70.94,141.39Zm4.11.78,1.78.19v.5L62.62,165.2l-1.72-1.08Zm-7.65.52a3.31,3.31,0,0,1,2.13,1.16,3.74,3.74,0,0,1,1,1.79c0,.22-.39.13-.76.08A4.27,4.27,0,0,1,67,144.15C66.45,143.17,66.76,142.68,67.4,142.69Zm65.29.79,1.89,9.15c.59-2.29,1.83-3.61,2.74-5.41A12.78,12.78,0,0,1,132.69,143.48ZM51.1,145.33l.44,2.37-4.78,1.1-.5-2.3Zm17.84.82h.2c1.75.2,2,.58.82,1.36-.71.48-2.64.54-3,0s.92-1.4,1.94-1.41Zm-34.71,1.39,1.48.86C38.26,146.58,35.48,146.22,34.23,147.54Zm32.19.8c.54,0,.86.95,1,1.82a2.62,2.62,0,0,1-.08,2c-.4.51-.79.6-1.11.09C65.34,150.78,65.37,148.33,66.42,148.34Zm-3.94,1.37a2.69,2.69,0,0,1,.93.2c1.24.46,2.89,2.34,2.19,2.6-1,.39-3.27-.73-3.69-1.86C61.7,150.08,61.93,149.73,62.48,149.71Zm-10.24,1.52.12,2.34-5,.2-.15-2.32Zm12.33,2a3.47,3.47,0,0,1,1.39.22c.72.31.19.87-1,1.3a3.26,3.26,0,0,1-2.39,0C61.58,154,63.08,153.24,64.57,153.2Zm-38.95.27c3.45,2.08,10.59,6.7,10.59,6.7a2.92,2.92,0,0,0-1,.58,3,3,0,0,1-.77.5,5.52,5.52,0,0,1-1.06.25c-2.22.48-3.31,1.72-2.61,3.27.27.61.34.51-.13,1-1.33,1.25-1.16,1.62-.69,3.23,0,.22-1.58,2.15-.18,3.6.78.67.81.25.53,1.77-.1.91.15,1.66,1.5,1.93.74.34.73.22.47.85a1.22,1.22,0,0,0,.71,1.59c.58.36.82.46.41.78-4.47,2.26-5.85,6.21-1.63,12,.49.68,1.75,2.62,1.75,2.62-1.43,2.09-2.78,3.81-4.23,5.68l4.22,5.85a42.74,42.74,0,0,0-3.27,5.35c-1.47,3.2-.5,7.68,3.75,9a5.56,5.56,0,0,0,5.73-1.64,7.26,7.26,0,0,0,.78-7.15,28.73,28.73,0,0,0-3.67-5.82l4.52-5.62s-3.11-4.44-4.36-6c8.48-10.28,1.56-13.15.23-14-.21-.14-.16-.8-.16-.8,7.61-.86,10.21-5,12.45-10.25,4.54,2.9,11,6.79,15.6,9.84.43.41.72.66.66.88a7.57,7.57,0,0,0-.24,1.87c.21,1.36.11,2-.45,2.5s-.42.72-.33,1.25c.14.92.29,1-.13,1.48s-.69.84-.59,2.23a4.27,4.27,0,0,1-.06,1.93c-.28.63-1,1-2.07,1.74-1.78,1.39-1.54,1.81.92,6.85,2.09,4.29,2.33,5.27,1.53,6.79a7,7,0,0,0-.84,4.08c0,.47.06,1,.06,1.22,0,.59,0,.53-.35.9s-.71.86-1,1.26c-2.92,4.35-10.62,15.53-10.62,15.53H25.62Zm36.34,2c.31,0,.67.51,1.09,1.6a2.5,2.5,0,0,1-.18,2.14c-.77.83-1.83-1.12-1.49-2.67C61.53,155.87,61.73,155.51,62,155.5Zm72.8-1.18c0,4-.08,9.11-1.46,12.9l1.56.7c-.5-3.89.12-7.09,3.73-8.77A12.58,12.58,0,0,1,134.76,154.32Zm-76.68,2.5a1.46,1.46,0,0,1,.43.08,4.16,4.16,0,0,1,1.73.93c.74.75,1.5,1.65,1.31,1.73-1.22.54-4.33-1.09-3.92-2.36A.48.48,0,0,1,58.08,156.82Zm-5.44.17,0,1.94-3-1.91Zm68.7.93c.49,0,1.24.68,1.12,1.12s-.47.43-.8-.07S121.07,158,121.34,157.92Zm-61,2.4c.74,0,1.37.14,1.43.52s-.55.82-1.24,1c-1.71.52-3,.18-2.52-.65C58.34,160.67,59.45,160.35,60.38,160.32ZM120,162.53c-.72,1.28-.81,5.39.47,7.06,2,2.17,3.81,5,3.6,8.76l-1.91.84c.11-3.09,0-5.1-2.45-7.77-2.9-3.12-2.22-8.53-1.22-10.12S120.54,162,120,162.53Zm-83.44-1.71c.61,0,1.35.32,2.7,1.2,3.45,2.42,5.32,3.35,8.73,5.74.5.47.48.4.39.77a12.59,12.59,0,0,1-10.72,9.61c-.65.08-.32-.32-.71-1.1a2.12,2.12,0,0,0-2-1.16c-2.32,0-.33-1.31,2.5-1.68a5.27,5.27,0,0,0,2.67-.83c.12.06-.5-3.87.14-5.26.32-1.25,0-1.85-.33-1.08a13.49,13.49,0,0,0-.7,3c-.14,1.09-.37,1.24-.63.71a1.84,1.84,0,0,1,.07-1.27c.21-1-1.1-1.81-.84-2.75a1.66,1.66,0,0,0-.45-1.95,2.13,2.13,0,0,1-.18-1.23,2,2,0,0,0-1.38-2c-.39-.2-.27-.41.14-.61A1.33,1.33,0,0,1,36.51,160.82Zm-2.82,1.41a2.81,2.81,0,0,1,.65.07c.46.28.83,1.85.32,1.91a8.11,8.11,0,0,0-1.23.22c-1.54.45-2.27.39-2.24-.49S32.48,162.25,33.69,162.23Zm2.05.16c.6,0,1.09.71.71,1.08A.69.69,0,0,1,35.3,163C35.3,162.72,35.44,162.39,35.74,162.39Zm.41,2.44a1.15,1.15,0,0,1,.57.13c.57.25.89,1.22.53,1.57s-1,.17-1.47-.18C35,165.72,35.4,164.86,36.15,164.83Zm-1.91.14c.35,0,.6.12.67.36s0,.39.05.69c.15.46.44.81.18,1-1.18-.07-3.63,1.4-4.34,1.33s-.66-.62-.15-1.5A5.09,5.09,0,0,1,34.24,165Zm.71,2.85c.26,0,.3.12.2.49a2.45,2.45,0,0,0,.17,1.31c.19.43.55.69.36.87a19.17,19.17,0,0,0-2.17.6c-1.1.6-4.2,2.42-3.42-.49.25-1,1.39-1.64,3.38-2.33A7.71,7.71,0,0,1,35,167.82Zm1.62,0a1.25,1.25,0,0,1,1.27.78c.72,1.42-1.34,1.62-2,.44C35.45,168.37,36,167.89,36.57,167.85Zm.4,3.3c1.07,0,1.9,1.32,1.12,1.81a2.57,2.57,0,0,1-2,.12C35.15,172.65,35.61,171.14,37,171.15Zm102.4,0a78.62,78.62,0,0,0,15,5.51V229.1H117.65l-10-17.37a8.58,8.58,0,0,1-.44-.81,1.82,1.82,0,0,1,0-1.34,29.52,29.52,0,0,1,2.27-5.13c2.43-4.42,5.88-9.26,4-13.5-.21-.48,1.93-3.11,1.93-3.11,3.29.26,6-1.87,5.05-6.9C127.31,178.15,133,175.89,139.37,171.17Zm-104.3.26c.09,0-.19,1.15.4,1.85.36.55.3.54-.93,1a6.69,6.69,0,0,0-1.19.86c-1.77,1.56-3.52-.49-1.81-2.13a6.31,6.31,0,0,1,3.51-1.58Zm84.12,1.08c.6.11,1.37.89,1.12,1.32a6.15,6.15,0,0,0-1,3.57c-.08,1.61.19,1.84-.43,1.57-.4-.19-1.15-.51-1.32-.92C117.22,177.11,118.22,172.34,119.19,172.51Zm-84.7,4a2.15,2.15,0,0,1,1.74.7c.32.41.36.76,0,.93-.76.4-3.3.19-3.43-.32C32.64,177.05,33.53,176.56,34.49,176.54Zm38.4,1a25.59,25.59,0,0,1,9.51,1.88,17.92,17.92,0,0,1,8.26,6.88c.24.49-.25.49-.68.54-4.73.77-6.3,6.54-2.31,9.3a4.1,4.1,0,0,0,2.26.69c1-.09-4.5,10.39-6.69,16.92-6.79-.28-11.92.76-18.55-1.5-.71-1.18-.55-3.77,0-5.11s1.11-2.15.81-3.55C64.94,201.17,62.7,198,62,196c-.66-1.53-.62-2.11.53-3a9,9,0,0,0,2.05-1.78c.35-.49.2-.6.21-1.7,0-1.34,0-1.13,1.08-1.33a8.88,8.88,0,0,0,2-.72,3.27,3.27,0,0,1,3.31-.26c.37.1.34-.28.49-.79a3.16,3.16,0,0,0,.21-.69c0-.22-.51-.16-1-.08a12,12,0,0,1-4.75,0c-.76-.28-.76-.79-.32-1.63a2.59,2.59,0,0,0,.52-2.3c-.21-2,.07-2.38,1-3,1.16-.8,3.25-1.18,5.66-1.17Zm11.2,1.73H94.15a25.22,25.22,0,0,0-2.71,6.33c-.09.18-.2.35-.43.12A20.5,20.5,0,0,0,84.09,179.29Zm-8.35,7a10.56,10.56,0,0,0-4.6,1.68,5.17,5.17,0,0,1-3.7.93c-.78-.14-.88,0-1,.22-.46,1.13,1.24,2.34,3,1.55.49-.21,4.33-2.18,4.54-2.35a7.73,7.73,0,0,1,2.24-.64,1.85,1.85,0,0,1,1.9,2.14c-.21,1.52-2.39,1.6-2.53.25-.11-1-.55-.58-.59-.07a2.62,2.62,0,0,0,.7,1.66c1.84,1.14,4.26-1.08,3.1-3.36A3.14,3.14,0,0,0,75.74,186.32Zm-8.26,5.31a29.3,29.3,0,0,1-3.41.82c-1.11.25-1,1.12-.33,1.58.53.35,1.2.14,3.15-1.08a1.64,1.64,0,0,1,2,2.58c-1,.81-.31,1,.35.53C71,194.81,70,191.15,67.48,191.63Zm5.91,6.44a1.62,1.62,0,0,0-.69.19,8,8,0,0,0-3.21,2.24c-.12.2-.06.53-.11.8s-.21.46-.18.6.43.25.49.37a5.34,5.34,0,0,1-.06,2.5c-.07.41-.68.53-.92.78-.81.81-.61,1.06.25.74.6-.22.35-.63,1.83-.34a7,7,0,0,0,5-1c1.68-.93,2.29-1.44,2.36-1.33s0,.28-1.18,1.26c-3,2.48-5.23,3-6.92,2.12-.5-.33-.9-.47-.52.25a2.71,2.71,0,0,0,.74.53c1.73.77,3.9.11,6.66-2.05.61-.47,1.14-1,1.84-1.59,2.29-1.9,1.69-2.76-.9-1.84-.81.29-1,0-2.14-.45a8.27,8.27,0,0,0-3.68-.65c-1.48,0-1.7.11-1.7-.14a4.26,4.26,0,0,1,2.12-1.91C73.52,198.7,73.83,198.1,73.39,198.07Zm2.73,4.69c.28.28-.12.46-1.19,1a8.58,8.58,0,0,1-1.24.52c-.09.17-1.1-2.09-.83-2.2A7.86,7.86,0,0,1,76.12,202.76Zm-3.88-.23a6.87,6.87,0,0,1,.53,1.54c0,.15.13.37-.11.37s-.5,0-.62-.13a4.36,4.36,0,0,1-.42-1.91C71.81,202.15,72.14,202.32,72.24,202.53Zm8.8,4.05a1.37,1.37,0,0,0-.52.22c-4.26,2.5-9.37,3.79-12.65,2.56-1.11-.41-1.31-.26-.91.49a2.78,2.78,0,0,0,1.68,1.36c2.68.73,7-.33,10.33-2.5C80.32,207.84,81.43,206.58,81,206.58Zm25.07,6.68s8.26,15.37,9,16.1l-61.23-.26,10.32-14.47C64.27,215.45,89.06,218.82,106.11,213.26Z"/><path id="path4035-6-4-6" class="cls-2" d="M54.25,229.09l9.89-14.47c14.62,2.76,27.78,1.3,42.19-1.25l9.6,16Zm77.54-53.93-.06-8.59,3,1.11c-1.05-4,1.6-8.17,4-8.34-7.71-5.75-1.31-11.91-1.44-12-8.42-4.31-4.2-10.93-4.78-11.52-10.27-2.64-6.26-10.71-7-9.88-6,1.78-9.27-3.18-9.37-7.21-5.17,2.9-13.16-1.22-10.65-5.84,0,0,2.73,1.29,3.22,1,4.22-3,3.89,1.32,4.77,2.27,3.14-.45,5,1.94,5.79,3.1,4.64,0,4.45-1.1,4.49,3.36,3.5.88,3.36,2.76,5.39,5.32,4.41,0,3.67,1.47,2.67,3.89,3.18,2.51,3.43,4.47,4,6.75,3.47,1.25,4.09,1.76,1.83,4.65,3.06,4.55,1.58,7.19,2,7.43,3.82,2.73,1.91,3.72.24,4.77.58,3.63,1,4.16-.3,7.85,4.39,3.09-.7,4.48-1,4.41v3.06ZM25.55,152.76l-.09-10.65,37.2,23.82L58,173.24ZM75,168.43l8.8-18.24-3.16-19.9,25.19.55c2.84,6.38,4.54,11.8,11.8,22.37l-7.67,2.36.27,12.79Zm21.55-4.8a2.24,2.24,0,0,1-.35-1.12c.1-.31.33-.29.63-.13,1.07.52,2.14,1,2.93,0a1.38,1.38,0,0,0,0-1.65c-.61-1.22-2.51-.34-3.15-.3s-.82-.48-.33-1.18a1.84,1.84,0,0,0,.52-1c.33-2.78-4.46-1.79-2.8.91.76,1,.32,1.61-.79,1s-2.93,0-2.87,1.42a1.69,1.69,0,0,0,2.63,1.13c.28-.16.49-.32.68-.41.55-.24,1,0,.77.57-.5.77-1.07,1.87-.59,2.6a1.77,1.77,0,0,0,2.72.3A1.72,1.72,0,0,0,96.51,163.63Zm58.13-55.91L117.37,83.78a51.3,51.3,0,0,0,5-7.73l32.35,20.62ZM96.37,99.63,100.19,119l-26,.37c-1.43-6.49-10.36-21.18-10.34-20.92l6.94-16.89,34.52-.05Zm-9.76-7.2c.66-.6.61-1.51-.11-2.54s-.39-1.71.74-1a2.91,2.91,0,0,0,2.28.29,1.52,1.52,0,0,0,1.08-1.81c-.15-1-1.3-1.31-2.53-.86-.35.08-.57.36-.88.5-.66.29-.92-.5-.32-1.52A1.58,1.58,0,0,0,85.61,83a1.55,1.55,0,0,0-1.56,2.19c.77,1.17.21,2-.9,1.2-1.59-1.12-3.68.3-2.81,2,.42.81,1.79,1,3,.51,1-.43,1.33.07.71,1.11C82.78,92.12,84.88,94,86.61,92.43Zm-37.75-19-.27,10.29c-3.89-2.35-3.32-2.38-3.46-2.35a7.37,7.37,0,0,1-3.49,8.8c6,5.53,2.73,9.42,1.76,12a8.5,8.5,0,0,1,3.77,11.53c7.49,0,7.34,6.54,7.56,9.25,9.27-.58,8,6.76,9.25,7.39,4.49-2,9.73-1.31,11.13,4.68.9,3.39-2.41.12-3.85.26-5.12,3.16-4.13-1.66-4.42-2.33-4.24.4-4.81-1.61-6.67-3-4.58.87-4.21-.62-3.94-3.38-3.59-.72-4.37-2.94-5.8-5.12-5,.16-2.94-3.31-2.92-4-.61-.53-3.46-3.31-3.6-6.49-5.09-1.43-1.89-4-1.71-4.85-1.93-2.38-2.43-4.13-1.79-7.13-4.52-2.1-.74-4-.42-5.24-1.48-3.91-.4-5.08.18-7.19-2.91-3.38-1.17-3.2,1-5.25.27-.37-.48-2.07-.43-3.07ZM75,35.29,66.84,20.83h58.25s-6.34,8.7-8.8,13.08C101.77,31.64,88.17,32.72,75,35.29Z"/><path id="path4039-1-1-4" class="cls-3" d="M34.33,219.7c-5.11-1.15-6-7.52-1.18-12.81a4.18,4.18,0,0,0,.65-1.09c-1.66-2.54-2.42-3.43-4.11-6,1.49-2.24,3.24-3.94,4.36-5.89-.07-.33-.57-.67-1.16-1.54-3.46-5-3.84-7-2.09-10a5,5,0,0,1,8-.66c2.59,2.69,2.47,5.13-.9,10.11-.74,1.09-1.27,2.07-1.27,2.07.93,1.86,2.51,3.59,4.12,5.93a55.33,55.33,0,0,0-4.33,5.67,2.24,2.24,0,0,0,.43.78c5.35,6,4.93,12.91-1.13,13.5A8.2,8.2,0,0,1,34.33,219.7ZM77.39,143c-.14-.23-19.26,30.45-19.26,30.45l2.18,1.38L78.6,146.46c.28.21.55.46.5.8,0,0-15.07,24.34-17.58,28.22a36,36,0,0,0,3.86,2.35c5.6-2.74,29-.37,44.5-1.31.06,0-.24,5.4-.24,5.4s-3.54-4-4.25-4.08c-3.53-.12-7.24,1.37-9.9,1.2-1.7.52-3.64,6.65-4,8.18-3.09-.35-6.07,2.85-5.36,5.84,1,3.31,2.75,3.06,4.62,3.11-.17,3.76-6.86,13.64-6.88,18.52,7.07-.56,14.71-.68,22-2.86,0,0,2.73-7.81,6.19-13a10.41,10.41,0,0,0,1.22-6.79c-.29-2,.6-2.55,1.39-4,.48-.89,2.26-.85,2.49-.92,4.64-1.33,3-7.28,1-8.33-2.46-1.32-5.94.72-7.28-2-1.42-2.83-1-8.68-1-8.68l-35,.16s9.89-18.63,9.64-18.77C81.84,148.15,77.43,143,77.39,143ZM54,159.94c.16-1.88.47-32.5-28.73-47.72l.16-4c.18-.21,26.56,11.8,31.08,43l8.14-12.64,3,1.16C63.19,146.29,54.39,162.28,54,159.94Zm-17.73-11c1.21-3.53-.77-1.66-2.57-1.8-1.23-.67-2.43-1.52-3.57-2.27,8.53-4.48,3.45-4.26-1.52-1.12-1.29-.69-2.92-2.2-3-2.08,9.63-6.13,6-6.26-.14-1.81.21-4.17.06-2.61.14-4,5.26-5.58.36-2.55,0-2.48-1.29-5.56,4.9-4.4,5.46-.19,1.09.8,3.23,1.79,3.86,5.24,3,1.88,2.66,3.43,2.52,5.68,1.16,1.13,4.16,3.53.66,5.75ZM25.17,123.52l.2-3.08c.4-1.25,22.91,14.67,21.29,35.12.27-.14-2.49-1.43-3.28-2.13C43.39,138.38,27.27,125.14,25.17,123.52Zm129.14,17.27c-15-6.83-29.29-23.18-30-44.44l-8.49,14.08-3-1.26c.28.23,6.71-11.6,13.33-19.77,1.87,26.83,12.49,39.31,28.58,48.37ZM75.63,131C61.07,129.19,40,109.54,46.32,82.92c.89-2.7,14.93,12.28,14.93,12.28.09-.68,12.63,19.34,12.28,23.25,10.58,3,31.24.15,31.24.15,17.18,3.81,35.14,22.17,28.66,48.28a75.88,75.88,0,0,1-8.38-6.43c-11.6-11.11-15.28-20.23-19.38-30.3C90.82,128.81,76.9,131.45,75.63,131Zm78.82-22.18a33.76,33.76,0,0,1,.14,4.07c-3.87,4.18-4.27,4.25.58,2.91-.6,4-3.59,4.66-5.37,3.3-.65-.5-.65-3.26-.65-3.26-3-.73-4-1.61-3.54-4.75-3.39-.4-3.25-2-3-5.44-3.08-1.72-2.31-4.46-.49-5.63l1.53,1c-.49.44-.25,3.15,2.45,1.13,0,0,2.16,1.78,3.2,2.47-7.82,5-3.08,3.89,1.74.62.91.61,2.14,1.61,2.78,2C147.5,111.81,145.41,115.58,154.45,108.8Zm.38,17-.26,3.6c-15.44-9.37-19.63-21.72-20.77-34.87,0,0,2.07,1.51,3,2.14C138.2,113.59,153.88,125,154.83,125.75ZM70.21,81.22l37,.24-9.82,18.62,5.18,6.07S115.48,86.28,122,75.87l-2.24-1.33L101.25,103.3l-.74-.81,18.21-28.73c-1.1-.71-3.16-1.85-3.16-1.85s-31.54.5-45.25.45a34.65,34.65,0,0,0,.54-5.2c2,2.88,4.19,5.44,8.9,2.62,0,0,5.58.18,5.78-.08a75.66,75.66,0,0,0,3.3-8.41c5.38-.36,4.84-2.94,5.45-3.78-.41-7.58-4.69-3.5-4.33-6.25,1.22-4.91,7.41-16,6.63-17-1.6-1.05-17.44,2-22,2.6-.43-.16-2.68,7.13-5,10.25-2.59,3.39-3.51,7-2.19,10.45-1.37,3.77-4,3.39-6.09,4.46-2.38,2.56-1.72,6.48.55,8,1.58,1,4,1,6.49-1Zm73.6-26.33-4.33-5.77,4.2-6.07c-1.66-2.6-4.39-6.59-3.9-9.75,1.07-6.27,9.6-5.35,10.34.65.41,2.78-1.64,6.19-3.72,9.1,1.37,2.47,2,2.88,4,5.72-1.19,2.07-4.07,6.13-4.07,6.13,1.8,3,4.3,6.31,4.12,9.36-.19,2.62-3.07,5.28-5.76,4.72C136.28,67.24,141,58.38,143.81,54.89Z"/><g id="g4049-4-4-2"><path id="path4033-2-3-3" d="M65.45,20.16C67.75,24.44,74.28,36,74.28,36c15.51-3.19,28.55-4,42.26-1l9.8-14.71Zm2,.87h2.8l5.5,11.22,9.49-1.88-1.61-9.31h2.68l1.36,9,14-.35,1.8-8.65,2.58,0-1.85,8.79,11,1.48L120.63,21h3.71l-8.22,12.71a98.21,98.21,0,0,0-41.28,1.09Zm5.29,0H81l2,7.58a18.48,18.48,0,0,1-6,1.28A95.33,95.33,0,0,1,72.77,21Zm15.79,0H101L100,27.48l-10.46.33Zm19.75,0h9.6l-3.79,7.83-7.24-1Zm36.56,7.84a8.46,8.46,0,0,0-1.56.14c-2.49.52-3.79,2.42-3.81,5.52,0,1.41,1,3.92,2.65,6.3a20.09,20.09,0,0,1,1.3,2.22l-4.18,6.09,4.45,5.75s-.69.81-1.1,1.38c-2,2.86-3,5.53-2.85,7.72a5.48,5.48,0,0,0,4.14,5,5.34,5.34,0,0,0,4.84-1.33,5,5,0,0,0,1.69-3.81c0-2.17-1-4.8-3.13-7.66a9,9,0,0,1-.85-1.39s2.95-4.16,4.06-6.07l-4-5.73c3.21-4.77,3.85-5.83,3.94-8.76A5.5,5.5,0,0,0,144.87,28.87Zm-.4.35h.42c3.66.28,5.59,3,5.1,6.44-.5,3.29-3.5,6.37-4,7.43a69.45,69.45,0,0,0,4.17,5.63C149,50.81,146,54.84,146,54.84a6,6,0,0,0,.36.6c3.11,4.37,4,6.43,3.76,9a4.88,4.88,0,0,1-3.87,4.29A5.28,5.28,0,0,1,140,64c-.2-2.7,1.56-5.33,2.93-7.38.58-.86,1.07-1.68,1.07-1.68l-4.43-5.76c1.35-2.13,3.06-4.21,4.31-6l-1.27-2c-2.43-3.8-3.11-5.75-2.74-7.85A4.75,4.75,0,0,1,144.47,29.22Zm.33,2a3.61,3.61,0,0,0-3.16,2.45c-.74,2.68,2.1,6.74,3.4,7.83,2.43-2.77,4-5.87,3.07-8A3.74,3.74,0,0,0,144.8,31.17Zm.33.87c2.45.05,3.37,2.93,1.48,6.21A20.49,20.49,0,0,1,145,40.54s-.9-1.11-1.44-1.95c-2.19-3.39-1.63-6.05,1.06-6.52Zm-48.75,1.5a113.71,113.71,0,0,0-22.52,2.78A28.69,28.69,0,0,1,69,47.53C66.84,51,66.07,54,66.78,56s-1.15,4.8-3.15,5a4.16,4.16,0,0,0-4,4.38c-.07,3.92,2.66,6.31,6.36,5a.83.83,0,0,1,.62.2L66.35,93a15.09,15.09,0,0,0-5.24,1.7,56.51,56.51,0,0,0-8.56-8.19c-.07-5,.13-10-.09-15a60.07,60.07,0,0,0-11,5.9c-1.09.73-1.2,1.14-.79,3,.23,1,.17,1.15-.68,1.35-1.77.43-2.32,3.22-.83,4.16.7.45.71.47.25,1.48a8.11,8.11,0,0,0,.06,5.79c.41.71.38.94-.17,1.29-1.88,1.21-1.75,3.81.22,4.29.5.13.63.34.46.76-.61,1.58-.05,4,1.36,5.77.73.94.73.93.25,1.36a2.44,2.44,0,0,0,1.43,4.24c.73.09.74.1.82.66a8.45,8.45,0,0,0,.72,2.81,6.16,6.16,0,0,0,2,2.39c.83.64.83.65.39,1.6-.82,1.75.49,3.49,2.57,3.42,1.06,0,1.06,0,1.14.34a6.34,6.34,0,0,0,4.37,4.27c.92.15,1.07.37.76,1.15-.51,1.25-.18,2,1.1,2.7a2,2,0,0,0,2,.14c1.06-.36,1.08-.36,2,.84a4.33,4.33,0,0,0,4.23,2.12c1.4,0,1.46.05,1.47,1a2.29,2.29,0,0,0,4.08,1.59c.57-.61.57-.6,1.08-.23,2.24,1.62,4.23,2,4,.52a9.59,9.59,0,0,0-3-5.73l3.25.84c.14,3.76.28,8.29,1.07,11.43L62.69,165.62s-.87-.54-1.8-1.17c-1.36-.93-3-2-4-2.66a15.52,15.52,0,0,1-1.71-1.15c-.51-.42.31-1,.48-1.41,3.33-5.9,8.55-13,12.35-19.88l-3.68-1.41c-2.81,4.39-4.88,7.92-7.5,12-2.61-19-16-35.6-32.11-42.61l.06,5a52.13,52.13,0,0,1,28.73,47.26,19.28,19.28,0,0,1-3.25-1.93c-1-.64-2.9-1.9-3.14-2,.78-23.17-22.41-36.87-22.45-36.22,0,0-.14,3-.21,4.38,9.88,6.56,17.65,18.5,18.43,29.12,0,.08-4.64-2.87-4.64-2.87a3.29,3.29,0,0,0,0-5.86c-.63-.28-.66-.41-.35-1.25.63-1.71-.54-4.29-2.14-4.72-.71-.19-.83-.37-.86-1.35A3.33,3.33,0,0,0,32,133.44c-.5-.11-.5-.12-.53-.74-.15-3.47-3.58-4.89-6.16-2.54a4.42,4.42,0,0,0-.59.76l0,3.78c.88-.48,2.22-2.12,2.76-2s.31.47-1.05,1.63c-.88.76-1.74,1.56-1.74,1.56l.06,5c1.47-.94,2.93-2,4.31-3,1.18-.82,1.79-1.09,1.93-.85s-.1.61-.77,1c-1.8,1.19-3.91,2.59-5.42,3.77v3.42l.29.42.09,3-.27.06v3.78L60.55,175l18.14-28.38.3.3L60.84,175.21a9.61,9.61,0,0,0,1.45,1c.72.4,1.62.93,2.39,1.44a1.9,1.9,0,0,0,1.69,1C67,178,69.72,177.3,70,177c10.15-.15,39.3,0,39.3,0l.16,4.62c-1.31-4.48-5.53-5.4-8.85-3.4H95.13S91.9,184,91.44,187c-2.3-.31-5.35,1.9-5.5,4.15-.37,3.2,1.75,5.53,4.52,5.07a15,15,0,0,1-2,5.63A86.54,86.54,0,0,0,84,212.35c-.86,2.33-.56,2.74-.42,2.8A78.52,78.52,0,0,0,107,211.79s-.14-.55-.21-.86c-.28-1.24.77-3.77,3.74-9,2.3-4,3-5.59,3.18-7.5a7.51,7.51,0,0,0-.24-3c0-.17-.15-.41-.12-.59a9.45,9.45,0,0,1,2.15-3.3s.68-.12,1-.15c4.2-.29,5.51-6,2-8.51a5,5,0,0,0-4.59-.66l0-22,2.56.09,2.81-1.37c4.52,3.82,7.46,7.73,12.32,10.67l-.07.19-3.62-2.45v14.4a67.18,67.18,0,0,0,11.84-7.17l-.76-.65,0-2.06c3.54.28,3.88-4.18,1-4.71a4.17,4.17,0,0,1,.35-.93,6.62,6.62,0,0,0,.35-5.4c-.39-1.15-.38-1.44.09-1.43,2.15,0,2-3.77-.24-4.59-.75-.29-.7-.05-.54-2.39a5.68,5.68,0,0,0-1.63-4.5c-.5-.58-.46-.86.18-1.25,1.83-1.1.51-4.3-1.75-4.21-.88,0-.87,0-1-.84a6.93,6.93,0,0,0-3.18-5.39c-.53-.28-.61-.52-.31-.91,1.44-1.91.09-4.52-1.94-3.76-.39.15-.81.3-.92.33s-.29-.17-.61-1c-.84-2.35-1.59-3.09-4.28-4.21-.53-.22-.56-.38-.33-1.46.42-1.85-2.16-3.58-3.56-2.38-.57.49-.58.48-1.22-.33a8.48,8.48,0,0,0-5.19-2.65c-.88-.08-1-.15-.94-.48a2.25,2.25,0,0,0-3.6-2.39c-.9.65-1.13.67-2,.16-1.93-1.07-2.77-1.11-3-.14a6.83,6.83,0,0,0,.31,2.35,6,6,0,0,0,2.41,3.32s-2.21-.61-2.76-.72c.05-.06-.16-7.59-1.61-11.85l14.09-22.23,8.08,5.28-12.91,20.24,3.75,1.51s5-8.26,7.65-12.31c1.72,20.12,17.42,37.76,31.63,43,0,0,.05-2.89.11-4.31-15-6.54-29.27-24.83-28.37-46.78l6,3.82c1.75,17.59,9.49,27.9,22.38,36.62v-5.39c-8.88-6.51-16.26-15-18.21-28.62,0,0,3,1.88,4.36,2.77a6.12,6.12,0,0,0-.58.38c-1.61,1.33-1.13,4.06,1,5.6.34.25.34.25,0,1.11a3.23,3.23,0,0,0,2,4.19c1,.25,1,.23,1,1.33,0,2.12.9,3.09,3.18,3.6.31.07.32.1.32,1.05a3,3,0,0,0,4.24,2.94,27.27,27.27,0,0,0,2.57-1.92v-3.78s-.89.72-1.52,1.31c-1.12,1-1.47,1.16-1.47.53,0-.46.52-1.06,1.59-1.85a16.24,16.24,0,0,0,1.4-1.28v-4.4a3.34,3.34,0,0,1-.47-1.71,9.5,9.5,0,0,1,.16-1.29h.53v-5.08l-.65-.51,0-3.37L119.62,73.92l-18.37,29-.45-.53,18.38-28.77-4.88-3.09-3,1.44S90.94,71.6,71,71.85c0,0,0-.54,0-2.08,0-1.93.1-2.2.46-1.39a5.17,5.17,0,0,0,5.13,2.83,5,5,0,0,0,3-.9c.54-.28.63-.29,3.19-.28,2.74,0,3.23-.08,3.23-.65a58.26,58.26,0,0,0,2.44-6.51c.26-.91.37-1.31.59-1.5s.3-.11.69-.14a4.16,4.16,0,0,0,3.5-1.44c2.53-2.52,1.08-7.64-2.58-7.66-1,0-.31-2.56,1.74-6.71a68.28,68.28,0,0,0,3.52-7.83A17.72,17.72,0,0,0,97,33.54Zm-.2,1.24c.51.42-.76,3.52-3,8.21A51.51,51.51,0,0,0,90,50.21c-.11.4-.28,1-.37,1.3a1.5,1.5,0,0,1-.72,1l-1,.71c-.62.49-.77.34-.61-.65.28-1.84,1-3.82,2.71-7.26a76.65,76.65,0,0,0,3.68-8.68c.23-.7.33-1.41.71-1.67A2.49,2.49,0,0,1,96.18,34.78ZM93.44,35c.35.24-1.31,4.48-4.18,10.38-3.58,7.36-3.77,12.51-.55,13.77,2.54,1,5.1-1.78,3.53-3.8a1.83,1.83,0,0,0-2.94-.05c-.31.55.12,1.19.66.42.79-1.13,2.38.17,2,1.5a2.42,2.42,0,0,1-2.35,1.49c-3.52-.7-2.86-5.62.79-5.89,3.49-.26,5.08,4.39,2.55,7a4.16,4.16,0,0,1-3.39,1.29c-2.27,0-4.4-1.87-4.18-3.59a6.71,6.71,0,0,0-.2-4.1,3,3,0,0,1-.37-1.3c0-1.4,1.2-3.57,3.79-8.93a49.46,49.46,0,0,0,2.63-7.36c.2-.61.1-.78.33-.87A3,3,0,0,1,93.44,35Zm-3,.07c.53,0-.69,3.89-2.23,7.19C87,44.74,85.43,48,84.25,51c-.38.64-.64.69-1.42.28s-.6-1.18,1.42-5.18a61.24,61.24,0,0,0,4-9.92,1.35,1.35,0,0,1,.58-1A3.41,3.41,0,0,1,90.44,35Zm-2.85.44c.28.37-1.58,5.58-4.45,11.47-.61,1.24-1,2.39-1.64,3.66a5.7,5.7,0,0,1-2,.56c-.59-.07,0-1.17,1.65-4.54,1.37-2.74,1.75-3.52,2.47-5.19.53-1.22,1.29-3.32,2-5.29,0-.15.11-.51.26-.59A2.26,2.26,0,0,1,87.59,35.47Zm-2.81.32c0,.13-.06.39-.09.59a45.94,45.94,0,0,1-2.24,6.06c-.09.27-.92,2-1.84,3.79s-1.77,3.55-1.88,3.85-.42,1.12-.68,1.8c-1.65,3.51.13,6.28,2.32,6.48,3.41.28,3.73-4.47,1.32-4.92a1.52,1.52,0,0,0-1.91,1.37c-.06.55.61,1.17.6.4,0-1.42,2-1.35,2.2-.15.48,2.34-2.2,3.48-3.8,1.64a2.74,2.74,0,0,1-.53-2.39,3.14,3.14,0,0,1,5-2,4.29,4.29,0,0,1-2,7.73,4.51,4.51,0,0,1-4.16-1.2,5.18,5.18,0,0,1-1.31-3,8.69,8.69,0,0,1,0-2.34c.33-2.45,2.13-6,3.72-9.07,1.22-2.52,2.18-5.85,3.3-8.52C83.14,35.65,84.83,35.44,84.78,35.79Zm-3,.34c.18,0-.75,3-2.08,6.11s-3.36,6.83-4.44,10c-.34.77-.59.74-1.55-.15-.51-.47-.22-1.17,1.56-4.78A77.68,77.68,0,0,0,79.44,38c.19-.62.35-1.39.76-1.63A2.18,2.18,0,0,1,81.77,36.13Zm-2.74.7a53,53,0,0,1-2.87,7c-1,2.07-2,4.37-3,6.51-.56,1.32-.58,1.32-1.54,1.52-1.62.33-1.62.32-.19-2.56.43-.85,1.24-2.42,1.82-3.48a58.21,58.21,0,0,0,3.3-7.66,3.25,3.25,0,0,1,.64-1.25C77.32,36.82,78.6,36.44,79,36.83Zm-3.54.35a.83.83,0,0,1,.67.19c.07.66-1.71,4.83-2.8,6.76-.33.6-.66,1.37-1,2a37.31,37.31,0,0,0-3.5,8.17c-.69,2.78,2.52,4.89,4.19,2.86,1.06-1.22,0-3.42-1.57-2.81-.53.22-.31.45.41.51,1.2.1,1.3,1.93,0,2.34a2,2,0,0,1-2.44-2A2.77,2.77,0,0,1,74,53.12a3.8,3.8,0,0,1-.62,6.24c-2.6,1.3-5.79-.47-6.43-3.55-.49-2.36,0-4.52,2.33-8.15a46,46,0,0,0,4.4-8.86,4.92,4.92,0,0,1,.57-1.21A2.06,2.06,0,0,1,75.49,37.18ZM145,44.59,141.54,49c1,1.44,3.39,4.27,3.39,4.27l3.3-4.23Zm0,2.46,1.44,1.85-1.65,1.93L143.3,49Zm.13,9.54s-4.21,4.57-3.24,8c.86,3,5.45,3.76,6.57-.66a5.78,5.78,0,0,0,0-1.42C148.38,60.67,145.18,56.59,145.18,56.59Zm0,.9s1.21,1.74,2.06,3.28,1.21,5.55-2.18,5.43c-1.84.18-3.59-2.21-2.13-5.15A41.79,41.79,0,0,1,145.18,57.49Zm-69.51.74c.23,0,.47.46.62.83a4,4,0,0,1-1,2.63,18.8,18.8,0,0,0-2,.76,8.47,8.47,0,0,1,.54-2.22c.79-.77,1.45-1.68,1.76-1.95A.16.16,0,0,1,75.67,58.23Zm-8.39.25c.51.58,1,1.09,1,1.45,0,.52-.65,1.17-1.12,1.64s-1.78.23-1.78-.52A10.46,10.46,0,0,1,67.28,58.48Zm17.82.76a2.78,2.78,0,0,1,1.07,1.58,33.8,33.8,0,0,1-3.35,8.51,5.42,5.42,0,0,1-2.37-.06,29.83,29.83,0,0,0,3.88-8.33C84.69,59.81,84.85,59.24,85.1,59.24Zm-1.54.55c.28,0,.39.2.16.81-1.08,4.33-3.49,8.87-5.39,9.7a4.65,4.65,0,0,1-6-1.67c-1.15-2-1-5.19,2.89-5.89,2.26-.22,4.57,1.54,3.37,4.37-1.35,2.11-5,.94-3.89-1.78.8-1,2.47-.13,1.92,1-.28.57,0,.92.4.52,1.32-1.27-.85-3.44-2.3-2.35-2.38,1.77.56,5.68,3.32,4C78.86,68,80.38,65.13,81,63A4.67,4.67,0,0,1,82,60.74,3.42,3.42,0,0,1,83.56,59.79Zm-6.3.17a1.25,1.25,0,0,1,.51.18c.28.13.61.38.57.7a2.83,2.83,0,0,1-.68,1.55c-.26-.08-1-.36-1.46-.49-.3-.09.1-.73.29-1.09.3-.58.47-.82.71-.85Zm-7.84.15c.36,0,.92.38,1.3.44.07.53-.62,1.68-1.74,3-.92,1.11-.92,1.11-1.53-.11-.4-.8-.41-.77.73-2.17.61-.76.9-1.1,1.17-1.2ZM73,60.5a4.41,4.41,0,0,1-.26,1.29c-1.27,3.77-4.24,7.5-6.7,8.42-3.2,1-6.13-.64-6.2-4.49.08-4.54,5.53-5.8,7.18-1.66.74,1.87-1.29,4.68-3,4.21s-2.5-3.21-1.05-3.88a1.19,1.19,0,0,1,1.74,1.3c-.07.35-.05.4.15.36.91-.17.43-2-.64-2.43-2-.85-3.56,1.85-2.19,3.87,1.63,2.42,4.21,2,5.7-1a9.07,9.07,0,0,1,1.06-1.62,14.42,14.42,0,0,0,2-2.8,13.15,13.15,0,0,1,.89-1.47A5.24,5.24,0,0,0,73,60.5Zm7.18.2c.39,0,.68.25.67.78a9.9,9.9,0,0,1-.94,2.74c-.11.17-.38.77-.42.64a6.59,6.59,0,0,0-1.14-1.94c-.11-.39.23-.75.38-1.09A1.74,1.74,0,0,1,80.16,60.7Zm6.77.59c.47,0,1.12.2,1.26.54.42.74-2.44,7.6-2.55,7.62l-2.14-.09a66,66,0,0,0,3.25-8.06Zm28.72,10.86,2.72,1.6L100.43,102l-2.61-2Zm-44.76.58c16.76.06,39.83,0,39.83,0l-1,1.84s-25.21-.25-38.86-.22ZM48.27,73.89l0,9.28a64.88,64.88,0,0,0-7-4.73S45.75,75.45,48.27,73.89Zm71.74.92,1.69,1L102.85,105.6l-1-2Zm-49.12.41h2.63v2.94H70.89Zm6,0h3.19v2.94H76.9Zm7,0h3.28v2.94H83.86Zm6.83,0H94V78.2H90.69Zm6.88,0h3.27v2.94H97.57Zm6.89.07h3.34v2.07l-.51.86h-2.83Zm18,1,32,20.5,0,2.83L121.14,78.32Zm-2.1,2.4.28.2-1.36,2L119,80.8ZM71,79h35.89l-1.08,1.81L71,80.76Zm-29.46.92a3.93,3.93,0,0,1,1.45.61c1.76,1,2.87,3,2.11,3.79s-2.27-.75-3.25-2.79C41.31,80.45,41.17,80,41.52,79.92ZM105,81.7,93.44,100c-2.61-3.56-5.55-6.63-12-4.55-3.34-2.56-6.88-2.95-10.64-.78l.05-12.95Zm-59.6,0,.9.77a10.85,10.85,0,0,0-.56,1.89A10,10,0,0,0,45.42,81.71Zm73.4.19,35.67,23.25v2.16L117.57,83.74Zm-78.13.53a1.56,1.56,0,0,1,1.25.59,1.67,1.67,0,0,1-.44,2.32c-1.5,1-3.31-.94-2.12-2.27A1.79,1.79,0,0,1,40.69,82.43Zm5.91.27,1.94,1.55c-3.38,19.11,6.28,38.4,27.09,44.18l.23,2.44c0,.12-8.84-2.61-12.71-5.48A39.77,39.77,0,0,1,50.28,111a41.35,41.35,0,0,1-4-11.23A47.14,47.14,0,0,1,46.6,82.7Zm-2.21,2.59c.74,0,.82.57.22,1.59a7.22,7.22,0,0,1-3.8,3c-1,.43-1.3.23-1.18-.86C39.81,87.4,41,86.2,43,85.57A5.18,5.18,0,0,1,44.39,85.29Zm5.73.21.77.65A1.61,1.61,0,1,0,53,87.94l.77.67a2.56,2.56,0,0,1-4.93-.94A2.53,2.53,0,0,1,50.12,85.5Zm1.3,1.27a.69.69,0,0,1,.25,0l.57.48a.79.79,0,0,1,.09.38.91.91,0,1,1-.91-.9Zm-6.14.58A68.93,68.93,0,0,0,45.21,95a6.92,6.92,0,0,0-3.33-4.62A15.1,15.1,0,0,0,45.28,87.35Zm9.37,1.94,1.74,1.48c-1.49,20.23,16.4,27.9,16.88,27.57l.75,2.28C61.67,116.46,53.13,103.81,54.65,89.29Zm99.64,48.49-.09,2.55c-14-5.39-30-25.28-29.79-44.33-3.59,5.47-5.62,9.12-8.71,14l-2.46-1.16c4.05-6,7.89-12.36,12-18.22.46-.66.84-1,.86.48C126.05,97.7,128.1,124.67,154.29,137.78Zm-114-46.91a3.34,3.34,0,0,1,1.91.72c1.29.86,2.72,3.49,2.23,4.08s-2.35-.1-3.3-1.09C39.3,92.61,39.17,90.94,40.32,90.87Zm10.93.26a2.53,2.53,0,1,1-2.55,2.53A2.55,2.55,0,0,1,51.25,91.13Zm5.73.24,1.66,1.94c.33,17,13.85,22.21,13.73,22.25l.41,1.83C72,117.49,56.05,110.29,57,91.37Zm-5.73.68a1.61,1.61,0,1,0,1.63,1.61A1.62,1.62,0,0,0,51.25,92.05Zm0,.71a.9.9,0,1,1-.91.9A.9.9,0,0,1,51.25,92.76Zm8.64,1.54c.21,0,1.17,1.39,1.17,1.39s-1.06.36-1.51-.09S59.34,94.29,59.89,94.3Zm74,.62,2.51,1.7c1.17,11.45,7.79,21.9,17.77,29.15l-.06,2.84C142,120.46,135.24,109.4,133.93,94.92Zm-93.87.2a.48.48,0,0,1,.12,0,1.58,1.58,0,0,1,.54,3,1.6,1.6,0,0,1-2.26-1.22,1.71,1.71,0,0,1,1.22-1.73A1.27,1.27,0,0,1,40.06,95.12ZM61,96.65a1.78,1.78,0,0,1,1.25.69c1.1,1.23,1.09,1.58-.07,2-1.63.66-3-.26-2.44-1.64C60,97,60.45,96.65,61,96.65Zm-16.7,0a1.1,1.1,0,0,1,.37.06c1.2.47-1.4,5.2-3.13,5.68-1.09.3-1.32-.12-1-1.78C41,98.81,43,96.73,44.27,96.7Zm7.67.11a2.54,2.54,0,1,1-2.56,2.53A2.54,2.54,0,0,1,51.94,96.81Zm0,.92a1.61,1.61,0,1,0,1.62,1.61A1.62,1.62,0,0,0,51.94,97.73Zm-6.39.14a27.65,27.65,0,0,0,1.66,7.39A11.06,11.06,0,0,0,43.47,102C44.42,100.65,45.51,99.26,45.55,97.87Zm6.39.57a.91.91,0,1,1-.91.9A.9.9,0,0,1,51.94,98.44Zm14.46.28a4.22,4.22,0,0,1,4.44,4.2,58.53,58.53,0,0,1,0,7L68.64,106c0-1.11.16-2,.07-3.06a2.39,2.39,0,0,0-3.33-2.27l-.93-1.5A5.4,5.4,0,0,1,66.4,98.72Zm9.39.3a3.65,3.65,0,0,1,4,3.87c.14,4.75-.11,15.59-.11,15.59H74.3l-3-7.25a7.62,7.62,0,0,1-.09-1.2c.19-2.33.07-4.91.15-7A4.55,4.55,0,0,1,75.79,99Zm-12.5.75a1.24,1.24,0,0,1,.92.34c1.25,1.26,1.24,2.08,0,2.65-1.68.75-2.55.61-3.12-.51S62.05,99.78,63.29,99.77Zm78.78.34,1.37.88s-.29.44-.44.71c-.78,1.32.54,2.1,2.37,1.4a4.38,4.38,0,0,0,.62-.31l1.13.76s-.82.44-1.71.87c-2.28,1.11-3.93.64-4.48-1.28a2.76,2.76,0,0,1,.43-2.27A9,9,0,0,1,142.07,100.11Zm-58,.16A4.77,4.77,0,0,1,88.72,104c.2,1-.06,14.5-.06,14.5h-8.3l.14-14.13a3.56,3.56,0,0,1,.49-2.41A4.15,4.15,0,0,1,84.11,100.27Zm-8.62.62c-1.68.07-2.63,2.76-.91,4,.73.53.74.63.35,2.42a9.51,9.51,0,0,0,1,6.42c.79,1.31.63.64.22-.52-.52-2.18-.26-3.79,1-6.32,1.13-2.13,2.23-5.42-1.38-6A1.3,1.3,0,0,0,75.49,100.89Zm68.87.61.75.51s-.12.09-.28.24-.9.34-1.08.12C143.45,102,144.36,101.5,144.36,101.5Zm-59.78,1c-1.8-.06-3,3.25-.69,4,.53.33.61.77.29,1.39a9.58,9.58,0,0,0-.81,3.64A13.93,13.93,0,0,0,84,114.9c.6,1.47.48.88.32-.83A8.34,8.34,0,0,1,85.79,109c1.34-2.19,3.17-5.75-1-6.4Zm-31,0A2.53,2.53,0,1,1,51,105.09,2.55,2.55,0,0,1,53.58,102.56Zm11.85.25c.44,0,.77.29,1.18.88,1.1,1.63,1,2-1.16,3.13s-3.76-1.86-1.6-3.29a3.5,3.5,0,0,1,1.49-.71Zm-23.4.13c2.38,0,6.1,3.38,4.28,3.87a2.86,2.86,0,0,1-.72.11C42.6,106.74,39.18,102.91,42,102.94Zm11.55.54a1.61,1.61,0,1,0,1.63,1.61A1.61,1.61,0,0,0,53.58,103.48Zm94.18.47,1.18.8s-.72.33-1.58.78c-2.31,1.23-3,2.13-2.19,2.93a1,1,0,0,0,1.24.18,34.64,34.64,0,0,0,4.6-2.56l.89.6s-3.54,2.49-5.47,3.55c-3,1.54-4.74-1.61-3.06-3.71C144.66,105.25,146.05,104.83,147.76,104Zm-94.18.24a.9.9,0,1,1-.91.9A.9.9,0,0,1,53.58,104.19Zm96,.84.65.43-2,1.16c-2.16,1.23-2.25,1.25-2.37,1.06s0-.56.7-1A27,27,0,0,1,149.61,105Zm-56.05.06a4.23,4.23,0,0,1,3.81,2.14,8.46,8.46,0,0,1,.47,3.34l0,7.92H89.45a73.87,73.87,0,0,1,0-9.88A4.15,4.15,0,0,1,93.56,105.09Zm-26,1.17c.53,0,.92.48,1.43,1.6s.12,1.73-1.45,2.4a1.36,1.36,0,0,1-.5.14,1.76,1.76,0,0,1-1.1-3.06C66.69,106.66,67.19,106.29,67.6,106.26Zm84.94.81.73.45s-.38.33-3.07,2.28c-2.18,1.58-2.5,2-2,2.89.37.72,1.16.62,2.26-.22,1.53-1.16,3.93-3.13,3.93-3.13l.08,1.35c-1.58,1.26-3.49,3.41-5,4.22-2.93,1.44-5-2.49-2.35-4.43A63.25,63.25,0,0,1,152.54,107.07Zm-58.66,0c-2.19,0-3,3.19-.65,3.87.67.36.62.55.17,2.15a7.14,7.14,0,0,0-.22,2.92c.18,1,.4.94.31-.09a8.53,8.53,0,0,1,1.18-3C96.85,109.88,96.28,107.11,93.88,107.08Zm-50.9,0A1.61,1.61,0,0,1,44,110c-.89.61-2.74-.13-2.74-1.09a1.85,1.85,0,0,1,1.44-1.74A1.6,1.6,0,0,1,43,107.11Zm4.15.17c.45,0,.71.66.71,2A5.78,5.78,0,0,1,46,113.7c-1.67,1.37-2-2.38-.49-4.87C46.17,107.8,46.73,107.28,47.13,107.28Zm106.94.5c.41,0,.35.3-.13.63s-1,.77-2.94,2.39a13.66,13.66,0,0,1-1.13.86c-.64.43-1.19.32-.88-.18A30.57,30.57,0,0,1,154.07,107.78Zm-97.93.08a2.54,2.54,0,1,1-2.56,2.53A2.54,2.54,0,0,1,56.14,107.86Zm0,.92a1.61,1.61,0,1,0,1.62,1.61A1.62,1.62,0,0,0,56.14,108.78Zm-30.58,0c17.29,8.66,28.07,24.87,30.73,43.33l8.4-13.2,2.27.85L54.72,159.58l-.53-.17c0-19.31-9.76-37.58-28.67-47.61Zm30.58.66a.9.9,0,1,1-.92.9A.9.9,0,0,1,56.14,109.49Zm-7.14.1A31.52,31.52,0,0,0,52.1,115c-1.44-1.35-3-1.29-4.58-1.49Zm20.56.36a.85.85,0,0,1,.74.39c.71,1,.84,1.85.35,2.34a1.39,1.39,0,0,1-2.23-.54A1.57,1.57,0,0,1,69.56,110Zm84.79,1.34,0,1.5a9.62,9.62,0,0,1-.66.7,14.17,14.17,0,0,0-2.38,2.68c-.3,1.18.88,1.62,2,.75.4-.3,1-.76,1-.76V118c-1,.82-1.95,1.64-3.29,1.37a2.27,2.27,0,0,1-1.61-1.62c-.55-2.32,1.72-3.62,3.48-5.18C153.5,112.08,154.35,111.29,154.35,111.29ZM59.74,112.6h.13a2.5,2.5,0,1,1-.13,0Zm51.33.57a1.66,1.66,0,0,1,1,2.9,1.82,1.82,0,0,1-2,.32C108.53,115.32,109.67,113.24,111.07,113.17Zm-2.78,1.47c.81.85,1.42,3.31.95,3.78-1.06,1.07-4.11-2.5-3.93-4.84C105.64,112.18,108,114.33,108.29,114.64ZM70.93,113.3a.58.58,0,0,1,.56.83c-.12.29-.58.31-.95.17C69.93,114,70.22,113.3,70.93,113.3Zm-11.06.22a1.61,1.61,0,1,0,1.62,1.61A1.62,1.62,0,0,0,59.87,113.52Zm-12.17.71c3.08,0,6.33,2.41,3.5,2.88a5.32,5.32,0,0,1-5.09-1.53c-.84-.76-.54-1.16,1-1.32A4.22,4.22,0,0,1,47.7,114.23Zm12.17,0a.9.9,0,1,1-.92.9A.9.9,0,0,1,59.87,114.23Zm4.26,2.29h.14a2.49,2.49,0,1,1-.14,0Zm50.25.13a2.48,2.48,0,0,1,1.73.46c.46.41-.22,1.19-1.61,1.86-1.62.79-4.44.68-4.44-.17C110.07,117.68,112.51,116.68,114.38,116.65Zm-61.55.66c1.42,0,1.8,4.36.57,6.45-.64,1.08-1.5.36-2.11-1.78C50.78,120.23,51.75,117.31,52.83,117.31Zm11.44.13a1.61,1.61,0,1,0,1.62,1.61A1.62,1.62,0,0,0,64.27,117.44Zm53,.28a1.21,1.21,0,0,1,.48.16c1.55.75,2.67,4.27,1.86,5.83s-2.76-1.52-2.74-4.56c0-1,.07-1.39.35-1.43ZM48.81,118a.17.17,0,0,1,.1,0c1.4,0,2.41,2,1.1,2.93a1.91,1.91,0,0,1-2,.16,1.7,1.7,0,0,1,.1-2.9A1.75,1.75,0,0,1,48.81,118Zm15.46.19a.91.91,0,1,1-.91.91A.91.91,0,0,1,64.27,118.14Zm-9.55.31A33,33,0,0,0,59,122.81a9.4,9.4,0,0,0-4.19-.06A10.69,10.69,0,0,0,54.72,118.45Zm49.84.25c21,4.88,33.85,27,28.78,47.73a9.3,9.3,0,0,1-2.05-1.45,43.71,43.71,0,0,0,.27-15c-1.58-9.69-9.51-23.92-26.88-28.8A12.54,12.54,0,0,1,104.56,118.7Zm11.33.16a38.49,38.49,0,0,0,.82,4.12,26.52,26.52,0,0,0-4.88-2.69A12.25,12.25,0,0,0,115.89,118.86Zm6.06.45a1.57,1.57,0,0,1,1.67,1.59,2.24,2.24,0,0,1-.87,1.45,1.6,1.6,0,0,1-2.22-2.08A1.57,1.57,0,0,1,122,119.31Zm-52.82.55a2.53,2.53,0,1,1-2.56,2.53A2.55,2.55,0,0,1,69.13,119.86Zm0,.92a1.61,1.61,0,1,0,1.63,1.61A1.62,1.62,0,0,0,69.13,120.78Zm-43.5.24c10.44,6.11,19.82,19.1,20.51,33.8l-2.53-1.64c-1.09-9.9-6.2-20.67-18.06-29.49C25.55,123.69,25.58,122.74,25.63,121Zm57.84,0H97v2.88l4-2.06v6.38l-4-2.43v2.78H83.47v-2.93l-4.13,2,0-6.34,4.09,2.27Zm-14.34.47a.9.9,0,1,1-.91.9A.9.9,0,0,1,69.13,121.49Zm5.31.5h0l.16.92h-.08a1.61,1.61,0,1,0,0,3.22,1.59,1.59,0,0,0,.62-.12l.15.93a2.76,2.76,0,0,1-.77.11,2.53,2.53,0,0,1-.13-5.06Zm30.5.32h.13a2.53,2.53,0,0,1,.58,5l-.15-.92a1.6,1.6,0,0,0,1.2-1.55,1.62,1.62,0,0,0-1.63-1.61H105l-.16-.92Zm17.93.86c3.15,0,4.46,1.81,1.87,2.57a6.55,6.55,0,0,1-4.31-.51C119.14,124.66,120.92,123.16,122.87,123.17ZM57,123.34a4.94,4.94,0,0,1,2,.37c1.32.62,1.29,1-.12,1.84-2,1.13-6.6,0-5.2-1.27A5.28,5.28,0,0,1,57,123.34Zm17.61.28a.75.75,0,0,1,.21,0l.28,1.64a.9.9,0,1,1-.49-1.66Zm30.51.32a.9.9,0,0,1,.9.9.89.89,0,0,1-.61.85Zm5.56.65a2.53,2.53,0,1,1-2.56,2.53A2.55,2.55,0,0,1,110.64,124.59Zm-49.77.63a.9.9,0,0,1,.51.21,5.89,5.89,0,0,1,1.69,5.83c-.57,1.86-3-1.45-3-4.09C60.13,126,60.42,125.25,60.87,125.22Zm66.19.23c.22,0,.44.16.66.52.95,1.57.91,4.81-.08,5.82-.56.58-.77.47-1.35-.7C125.29,129.09,126.05,125.44,127.06,125.45Zm-16.42,0a1.62,1.62,0,1,0,1.63,1.62A1.61,1.61,0,0,0,110.64,125.5Zm-47.74.44a50.48,50.48,0,0,0,6,3.22,6.13,6.13,0,0,0-4.81,1.05A5.72,5.72,0,0,0,62.9,125.94Zm58,.34a13.35,13.35,0,0,0,4.53.12,13.69,13.69,0,0,0-.28,4.29A27.62,27.62,0,0,0,120.91,126.28Zm-10.27-.07a.91.91,0,1,1-.91.91A.91.91,0,0,1,110.64,126.21Zm-51.81.86a1.51,1.51,0,0,1,.07,2.74c-1.45.94-3.34-.7-2.43-2.11A1.79,1.79,0,0,1,58.83,127.07Zm56.94.82a2.54,2.54,0,1,1-2.56,2.53A2.55,2.55,0,0,1,115.77,127.89Zm15,.43a1.52,1.52,0,0,1,.76.18,1.52,1.52,0,1,1-2,2.07A1.5,1.5,0,0,1,130.72,128.32Zm-24.65.37c12.58,4.25,21,18.12,19,31.47l-1.57-1.47c1.19-7.57-3-22-17-28Zm9.7.12a1.61,1.61,0,1,0,1.63,1.61A1.62,1.62,0,0,0,115.77,128.81Zm0,.71a.91.91,0,1,1-.91.9A.9.9,0,0,1,115.77,129.52Zm-47.85.16c.65.06,1.73-.06,2,.54.29.76-1.28,2.07-3.27,2.33-.81,0-2.55.25-2.92-.33S65.72,129.7,67.92,129.68ZM28,130.12c1.7-.07,3.62,2.18,1.89,4a34.58,34.58,0,0,1-4.19,3.34v-1.24s2.76-2,2.8-2.9a1.12,1.12,0,0,0-1.83-1c-.19.13-.95.74-.95.74l.06-2.07A3.35,3.35,0,0,1,28,130.12Zm43.45.53c1.26,0,4.19,4.52,3.44,5.43-.59.73-3-.88-3.85-2.61-.48-.92-.34-2.57.24-2.79A.47.47,0,0,1,71.43,130.65Zm19.45.54s.13,10.4-.46,11.38c-2.36,4.24-7.47,2-7.9-1.14-.32-1.92-.13-10.22-.13-10.22Zm.75,0h8.15s0,14.63-.37,15.47a5.49,5.49,0,0,1-2.19,2.19c-2.4,1-5-.44-5.59-3.21-.46-2,0-14.45,0-14.45Zm8.83,0h5.41s.19.78.4,1.42c.38,1.11,1.66,4.3,1.8,4.49.66.88.7,10.44,0,11.53-2.39,3.55-6.36,2.51-7.81-1.41C99.94,146,100.46,131.19,100.46,131.19Zm6.31.37c9.71,4.56,17.14,14.25,16.21,26.68l-1.79-1.76c.65-8.58-5.94-19.3-13.63-22.49Zm13.37.29a2.53,2.53,0,1,1-2.56,2.53A2.54,2.54,0,0,1,120.14,131.85Zm9.57.25a5,5,0,0,1,3,1.05c1,.85,1.18,1.52.38,1.76a4.8,4.8,0,0,1-4.6-1.12C127.39,132.72,128.32,132.08,129.71,132.1Zm-9.57.67a1.61,1.61,0,1,0,1.62,1.61A1.62,1.62,0,0,0,120.14,132.77ZM69,133a1.66,1.66,0,0,1,.94,2.87,2.2,2.2,0,0,1-2.11.15C66.44,135.09,67.26,133,69,133Zm18,.48a22.68,22.68,0,0,1-1.78,3.73c-1.61,2.65-1.4,4.43.3,5.33a2,2,0,1,0,1.84-3.61c-.86-.49-.86-.5-.55-1.81C87.2,135.44,87.27,133.49,87,133.45Zm33.14,0a.91.91,0,1,1,0,1.81.91.91,0,1,1,0-1.81ZM95.73,134c-.11,0,0,.65,0,1.82,0,1.89-.18,2.47-1.4,5-1.55,3.24-1.35,5.45.59,6.17a2.24,2.24,0,0,0,3-2.32,1.58,1.58,0,0,0-.93-1.64c-.52,0-1.09-.27-1-.52C96.18,140.59,97.88,136.94,95.73,134Zm32.25.26a8.75,8.75,0,0,0,4.43,1.62,13.43,13.43,0,0,0-.85,4.81,30,30,0,0,0-3.58-6.43Zm-96.27.29.3,0a2.53,2.53,0,0,1,1.91,2.86c-.29,1-.38,1.16-4.26,3.73a19.41,19.41,0,0,1-2.38,1.49l-1.15-.77,2.52-1.68c3-2,3.42-2.46,3.11-3.34s-1.44-.76-3.21.58c-2.6,2-2.87,2.12-2.87,2.12v-1.19s1.14-.9,1.63-1.32C28.52,136.2,30.19,134.57,31.71,134.55Zm77.14.52a.41.41,0,0,1,.41.53c-.05.12-.22.2-.45.2a.37.37,0,0,1,0-.73ZM135,136.45c.55,1.87-.63,5-1.36,5.4-.77.75-1.26,0-1.42-1.93C132.24,138.33,134.08,133.36,135,136.45Zm-31-1c.24,2.7.33,4.94-1,7.13-1.65,2.84-1.23,5.28.55,5.82a2.21,2.21,0,0,0,3-2.42,2.5,2.5,0,0,0-1.26-1.48c-.54-.14-.61-.48-.3-1.55a9.93,9.93,0,0,0-.5-6.59c-.09-.28-.42-.92-.55-.91Zm5.94.9a1.7,1.7,0,0,1,1.08,2.94c-.62.56-1,.31-1.67-1.08S108.92,136.29,109.92,136.3Zm13.87.39a2.54,2.54,0,1,1-2.56,2.53A2.54,2.54,0,0,1,123.79,136.69Zm0,.92a1.61,1.61,0,1,0,1.62,1.61A1.62,1.62,0,0,0,123.79,137.61Zm0,.71a.9.9,0,1,1-.92.9A.9.9,0,0,1,123.79,138.32Zm-11,.67a1.24,1.24,0,0,1,.6.11c1.34.65,1.2,2.49-.29,3.6-.94.7-1.34.45-2.21-1.35C110.44,140.37,111.69,139,112.82,139Zm-78.06.21a1.67,1.67,0,0,1,.39.05,2.78,2.78,0,0,1,1.92,3.21c-.77,1.88-3.36,2.51-5.33,3.3l-1-.74s1.44-.81,2.85-1.45,1.52-.84,1.42-1.6c-.19-1.47-.91-1.42-4.17.32-1.33.71-2.3,1.34-2.3,1.34L27.8,143c1.08-.7,1.72-1.09,2.9-1.89,2-1.34,3.09-1.91,3.92-2Zm103.7,1.09c.47,1.43-.49,2.68-2,2.12a1.61,1.61,0,0,1-.86-2.24C136.3,139.15,138.14,139.33,138.46,140.29Zm-29.26-.5,2.29,4.09s0,1.14.05,1.77c.09,2.66.67,3.54,2.23,3.28.12,0,.68-.18.68-.18l1,1.66s-1.08.47-1.35.53c-1.85.39-4.41-1-4.81-2.83s-.08-8.32-.08-8.32Zm-75.27,1.68c.7.05.4.58.08.75-1.35.68-2.62,1.42-4,2.23l-.94-.59,1.23-.7A12.24,12.24,0,0,1,33.93,141.47Zm92.33.53a2.53,2.53,0,1,1-2.55,2.53A2.55,2.55,0,0,1,126.26,142Zm-10.81.34a1.53,1.53,0,0,1,1.4.76c.68,1.13,0,2.5-1.7,3.23-.93.41-1.08.32-2.07-1.13-.66-1-.66-1.15.08-1.77a4,4,0,0,1,2.29-1.09Zm-89.73.23,36.62,23.49-1.05,1.76-35.5-23Zm108.79.3c2.23,0,5.13,2.59,4.1,3.6a.67.67,0,0,1-.47.18C135,146.47,131.46,142.81,134.51,142.87Zm-8.25,0a1.61,1.61,0,1,0,1.63,1.61A1.62,1.62,0,0,0,126.26,142.92Zm-48.89.44,1,2.5L60.11,174.61l-1.79-1.14Zm48.89.26a.91.91,0,1,1-.91.91A.91.91,0,0,1,126.26,143.62Zm6.69.3a7.75,7.75,0,0,0,4.07,3.36,5.85,5.85,0,0,0-2.33,4.77A44.23,44.23,0,0,0,133,143.92Zm-96.33.87a1.88,1.88,0,0,1,1,.27c3.41,2.32.27,4.62,0,4.44l-1.16-.73c.4-.66,1.31-1.55-.15-2.38a2.74,2.74,0,0,0-2.56.63l-1.22-.83A10.38,10.38,0,0,1,36.62,144.79Zm80.54,1.31a2.31,2.31,0,0,1,.37,0c1.93.37,1.8,2.4-.22,3.34-1.14.53-1.35.42-2.35-1.28C114.5,147.39,115.91,146.14,117.16,146.1ZM36,146.85a.57.57,0,0,1,.5.35c.1.53-.9,1.06-.9,1.06l-1.14-.75A4.09,4.09,0,0,1,36,146.85Zm102.69.48a.51.51,0,0,1,.57.44c.39,1.58-1.38,4.5-3,5-.95.28-1.22-.16-.91-1.47.43-1.83,2.35-3.86,3.35-3.94Zm-59.06.12,3,2.14L64.82,177.45l-3.08-1.81Zm48.41.23a2.53,2.53,0,1,1-2.55,2.53A2.55,2.55,0,0,1,128.05,147.68Zm0,.92a1.61,1.61,0,1,0,1.63,1.61A1.62,1.62,0,0,0,128.05,148.6Zm0,.71a.9.9,0,1,1-.91.9A.91.91,0,0,1,128.05,149.31Zm-40.87.09c1.93,2.16,4.1,7,11.67,4.7a9,9,0,0,0,10.53,1l0,13-33.62,0Zm-61.41.33,33.11,21.6-1,1.81L25.74,152.8Zm93,0h.09c1.69.41,1.88,2.08.31,2.73-.85.34-1,.25-1.82-.92a2,2,0,0,1-.46-1,3.46,3.46,0,0,1,1.88-.85ZM140,151.52a1.61,1.61,0,0,1,1.46.93,1.58,1.58,0,0,1-.68,2.2,1.66,1.66,0,1,1-.78-3.13Zm-20.73,1.77c.78,0,1.43.74,1.05,1.19s-.57.21-1-.26S118.79,153.28,119.24,153.29Zm9.49.32a2.53,2.53,0,1,1-2.56,2.53A2.55,2.55,0,0,1,128.73,153.61Zm7.2.14c1.93,0,4.6,3.2,4.15,4.95-.15.57-1.23.26-2.52-.71C135.83,156.66,134.7,153.74,135.93,153.75Zm-7.2.78a1.61,1.61,0,1,0,1.63,1.61A1.62,1.62,0,0,0,128.73,154.53Zm6.19.33a6.12,6.12,0,0,0,3.48,4.26c-3.73,1.73-4.44,4.62-3.88,8.34l-.87-.53A44.68,44.68,0,0,0,134.92,154.86Zm-6.19.38a.9.9,0,1,1-.91.9A.9.9,0,0,1,128.73,155.24Zm-.48,4.06a2.53,2.53,0,0,1,1.41,4.65l-.82-.61a1.62,1.62,0,1,0-2.2-1.63l-.83-.62A2.56,2.56,0,0,1,128.25,159.3Zm11.64.33c1.21,0-.68,3.35-2.41,4.26-1.33.69-2.54.75-2.53.11C135,162.34,138,159.62,139.89,159.63Zm-11.64,1.3a.91.91,0,1,1,0,1.81,1,1,0,0,1-.91-.91A.91.91,0,0,1,128.25,160.93Zm11.24,3a1.6,1.6,0,0,1,1.45.77,1.42,1.42,0,0,1-.4,1.81A1.56,1.56,0,0,1,138,164.7,1.6,1.6,0,0,1,139.49,164Zm-4.7,1.36a3.73,3.73,0,0,1,3.23,4c-.32.38-2.58-1.31-2.82-1.49A7,7,0,0,1,134.79,165.34ZM132,166.9a68.41,68.41,0,0,0,6.42,3.82L132,174.8Zm-57.14,1.89,34.47.13v1.43l-35.41,0ZM73.45,171h2.32v2.8H72.59v-1.55Zm33.13.06h2.78v2.8h-2.78Zm-27.36,0h3.17v2.8H79.22Zm6.6,0h3.43V174H85.82Zm7,0h3.3V174h-3.3Zm7,0H103V174H99.88Zm-28.7,3.45,38.23.09v1.68l-39.32-.09Zm32.62,3.54c3.89-.05,6.16,4.26,3.11,7.28-2.79,2.78-7.46-.77-5.13-3.89,1.3-1.75,4.5-.34,3.7,1.52a1.16,1.16,0,0,1-2.19-.68c0-.53-.4-.17-.44.4a1.56,1.56,0,0,0,1.55,1.51c2.26,0,2.59-3,.42-4-1.95-1-4,.27-4.47,2.73a7.64,7.64,0,0,1-.62,1.42,14.27,14.27,0,0,0-1.31,3.89,3.86,3.86,0,0,1-1,.71c-1.11.55-1.06.32-.65-1.47,1.2-5.16,3.16-8.47,5.55-9.15A5.39,5.39,0,0,1,103.8,178.18Zm11.51.26a4.73,4.73,0,0,1,4.53,3.43c1.38,4.61-4.8,7.44-7,3.26-1.2-2.39,1.29-5.24,3.58-4.13,1.87.91,1.75,3.74-.16,3.72-1,.05-1.67-.87-1.1-1.61.3-.29.65-.06.8-.55.06-.21-.23-.37-.94-.23-1.17.24-1,2.58.31,3,2,.7,3.76-1.42,2.79-3.51-1.16-2.52-4.29-2.53-5.73.11-.21.38-.53.92-.71,1.17-2.14,2.88-2.31,3.31-3,4.91a.34.34,0,0,1-.37.26,4.35,4.35,0,0,0-1.56.28c-.27-.07.09-1.08.11-1.16C108.41,183,112.16,178.55,115.31,178.44ZM96.68,179.7a32.16,32.16,0,0,0-3.09,7.92A11.49,11.49,0,0,0,92,187c-.2-.07,0-.3,0-.66a19.44,19.44,0,0,1,3-6.9C95.25,179.18,97.1,179.12,96.68,179.7Zm2.18.84c-1.3,1.65-2.67,6-3,8.3,0,.34-.11.72-.14.84-.2.68-1.48-.77-1.48-1.67,0-1.53,1.72-6.19,2.94-8,.43-.62.48-.72,1.39-.76,1.46,0,.82.53.24,1.26ZM35,179.45a5,5,0,0,0-1,.12c-1.89.47-4.15,2.45-4.37,4.56a5.18,5.18,0,0,0-.19,2.28c.62,2.83,2.29,4.75,4.33,7.55a50.29,50.29,0,0,1-4.32,5.75l4.16,6c-1.15,2.25-3.15,4-3.65,6.73-.79,3.65,1.14,7.21,5.25,7.54,3.07.09,5.08-2,5.46-5.07.15-2.07-.71-4.66-3.79-8.76-.16-.2-.45-.62-.45-.62s.34-.41.53-.68c1.08-1.45,3.91-5,3.91-5l-4.23-5.93a5.45,5.45,0,0,1,.51-.84c3.45-4.66,4.1-7,3.49-9.35a5.55,5.55,0,0,0-1.59-2.4A5.65,5.65,0,0,0,35,179.45Zm-.1.57a5.28,5.28,0,0,1,3.87,1.68c2.59,2.7,2.36,5-1,10-.74,1.09-1.46,2.29-1.46,2.29l4.25,5.82c-1.39,2-3,3.69-4.44,5.75.74,1.12,1.94,2.32,2.69,3.66a11.39,11.39,0,0,1,1.61,4.44c.34,2.93-1.58,6-4.87,6.13A5.59,5.59,0,0,1,30,213.82a9,9,0,0,1,1.39-4.16c.77-1.35,2.56-4,2.56-4l-4.12-6L34.21,194s-3.17-3.84-4.14-6.62a5.83,5.83,0,0,1,.89-5.21,4.94,4.94,0,0,1,4-2.11Zm-2.7,8.35a11.45,11.45,0,0,0,2.83,4A18.44,18.44,0,0,0,38,187.92C41.19,180.35,28.89,179.74,32.23,188.37ZM35,191.64c-1.56-1.8-2.66-3.29-2.77-5.67A2.89,2.89,0,1,1,38,186C37.62,188.29,36.41,189.74,35,191.64Zm76.87-7.39c.12.66.77,1.78.72,2.05-.31.69-.75,1-1.36,2.18-.13.24-.07.29-.41.23s-.89-.22-1.2-.3-.37-.15-.28-.37C109.93,186.7,110.59,185.11,111.88,184.25Zm-10.28,2-.73,1.88c-.07.2-.08.23-.29.19a6,6,0,0,0-1.19-.05c-.91-.11.79-3.46,1-4,.37.06.92,1.49,1.16,2Zm.69.44s0,0,0,0a5.35,5.35,0,0,1,1.33.42c.23.09.23.1.13.38s-.46,1.6-.74,2c0,.06-1.29-.76-1.65-.91C101.39,188.39,101.81,186.77,102.29,186.71Zm10.86.22a2.59,2.59,0,0,1,1.24.61c.13.27,0,.53-.46,1.34s-.85,1.48-1,1.4a6.12,6.12,0,0,1-1.19-1c-.22-.3.19-1,.47-1.47C112.69,187.2,112.91,187,113.15,186.93Zm-6.91-.1c.4.09-.23,2.09-.34,2.34a6.14,6.14,0,0,1-1.41,1.56c-.23.15-.95-.27-.94-.77a15.49,15.49,0,0,1,.93-2.63,6.45,6.45,0,0,1,1.76-.5Zm-16,.77h.27A4.62,4.62,0,0,1,94.64,190c.47.8.47.83.37,1.57a6.91,6.91,0,0,0,.3,4c.52,1.22.45,1.64-.85,4.35s-2.87,6-4.07,9.13a33.94,33.94,0,0,0-1.33,4c-.2.77-1.14.54-2.09.5-.48.11.69-3.09,2.43-6.92,1.39-3.07,3.29-6.52,4-10,.62-2.79.42-3.94.08-5.12-1.3-3.41-5.83-2.58-5.82.57.1,2,2.47,3.13,3.35,1.13.14-.92-.31-.38-.7.07-.82,1-2.23-.11-2-1.52a2.2,2.2,0,0,1,3.87-1c1.28,1.61,1,3.26-.85,4.5a3,3,0,0,1-4.58-.84,4.55,4.55,0,0,1,3.46-6.89ZM99.66,189c1.89,0,3.94,1.61,4.27,2.85.18.84-.1,1.83.21,2.65.25.65.49,1,.31,1.6-1.55,5-5.22,10.24-7,16.11-.21.41-.4.46-.87.59-.72.2-1,.18-1.08-.19a6.56,6.56,0,0,1,.59-2.3,45.93,45.93,0,0,1,2.28-5.36c1.54-2.85,2.39-4.8,3.5-7.24.21-.45.27-.72.6-1.38,1.4-2.82-.18-5.6-3.09-5.61-2.3,0-3.33,3.56-1.32,4.6s3.45-1.66,1.69-2.61c-.42-.23-.53,0-.19.39.78.93.08,2.18-1,1.69-1.69-.77-.82-3.61,1.14-3.45,3,.25,3.42,4.62.34,5.73-4.25,1.52-6.48-5.26-2.48-7.54A4.14,4.14,0,0,1,99.66,189Zm9,.14a4.5,4.5,0,0,1,3.25,1.28c2.38,2.26,1.74,5.75-2.27,12.49a46.17,46.17,0,0,0-3.29,7,1.43,1.43,0,0,1-.72,1c-.69.39-1.48.43-1.58.16-.26-.68,1.72-4.94,5.26-11.64.93-1.78,2.11-3.85,2-6a2.69,2.69,0,0,0-3.54-2.35,1.9,1.9,0,0,0-.86,3.05,1.69,1.69,0,0,0,1.19.54c.58,0,1.25-.55.11-.62a1.17,1.17,0,0,1-.59-2.18c1.46-1,3.13.18,3,2.07-.24,3.79-5.84,3.23-6-.68A3.92,3.92,0,0,1,108.61,189.09Zm-15.82,6.08c.85-.06-.61,4.45-3.15,9.52a88.45,88.45,0,0,0-3.52,8.76c-.29.39-2.05.46-2,.06,3.11-9.88,5.3-11.58,6.37-15.34.18-.65.32-1.59.34-1.67C91.58,196.27,92.24,195.34,92.79,195.17Zm-57.57.67-3.3,4.25,3.22,4.53,3.34-4.33Zm71.35,1.31a21.52,21.52,0,0,1-1.73,4.44c-3.23,6.46-4,8.2-4.59,9.92a.88.88,0,0,1-.46.59c-.41.15-1.52.36-1.62.21.68-3.77,5.91-12.36,6.92-16.12C105.5,196.18,106.53,196.79,106.57,197.15Zm2.58-.39c.22,0,.31.07.25.36a26.16,26.16,0,0,1-1.65,3.48c-2.72,5.29-4.14,8.43-4.6,10-.1.38-.17.68-.35.77-.38.2-1.68.72-1.75.16.41-2.39,2-3.95,6.12-13.93.19-.33.36-.49.54-.52C108.22,197,108.66,196.8,109.15,196.76ZM98,198.4a28.94,28.94,0,0,1-2,4.29,60.6,60.6,0,0,0-4,9.55,2.27,2.27,0,0,1-.47,1,5.29,5.29,0,0,1-1.74.16c-.22-1.09,1.5-5.13,3.42-9.39,1-2.31,2.26-4.62,3.07-6.69C96.85,197.38,97.92,197.91,98,198.4Zm2.91-1c.58,0,.13,1-1.27,3.69A58.38,58.38,0,0,0,95.55,210c-.3.79-.66,1.76-.79,2.17s-.33.79-.55.9a2.08,2.08,0,0,1-1.62,0c-.28-.34,1.22-4.35,2.69-7.44,1.29-2.59,2.2-4.67,3.32-7.07.31-.47.32-.5.63-.57a10.78,10.78,0,0,0,1.68-.54Zm-65.64.51,1.7,2.25-2,2.46-1.66-2.39Zm-.25,9.7a14.53,14.53,0,0,0-1.46,2.13c-2.17,3.58-2.23,6.21.33,7.78a3.12,3.12,0,0,0,3.37-.34c2.9-2.5.74-5.94-1.13-8.27A11.17,11.17,0,0,0,35,207.59Zm.1.92a14.6,14.6,0,0,1,2.61,3.82c.83,2.14.3,3.82-1.31,4.62-2.55,1.25-4.86-1.56-3.66-4.56A15.24,15.24,0,0,1,35.12,208.51Zm71.27,4.23c.24.45-24.22,6.06-42.27,1.25l-11,15.74,63.4-.11Zm-.93,1.12,8.79,15.06h-4.06l-5.8-12.29a65.88,65.88,0,0,1-9.25,1.86l2.06,10.43h-3l-1.72-10a129.75,129.75,0,0,1-13.58.34l-2,9.63H73.68l2-9.56c-3.5-.47-7-.91-10.55-1.49l-6,11H54.7l9.37-13.87C78.07,217.83,91,217.18,105.46,213.86Zm-2.21,5.42,4.59,9.64h-8.7l-1.6-8.6ZM66,220l7.61,1-2,8H61.36Zm24.84,1.19,1,7.75H78.76l1.46-7.6Z"/></g></g><path id="path153-6-3-1-9-5-1-4" d="M48.26,26.21c-7.44,10.55-15.4,16.62-15.53,24.85,0,2.67,1.4,7.2,5.94,8.06,2.95.56,7-1.8,7.09-6.62,0-1,1-.93,1,.38A27.25,27.25,0,0,1,43.39,64.7h9.74a27.25,27.25,0,0,1-3.38-11.82c0-1.31,1-1.34,1-.38.09,4.82,4.14,7.18,7.09,6.62,4.54-.86,6-5.39,5.94-8.06C63.66,42.83,55.7,36.76,48.26,26.21Z"/><path id="path153-6-3-1-8-6-9-9-4" d="M131.74,223.79c-7.44-10.55-15.4-16.62-15.53-24.85,0-2.67,1.41-7.2,6-8.06,2.94-.56,7,1.8,7.08,6.62,0,1,1,.93,1-.38a27.25,27.25,0,0,0-3.38-11.82h9.75a27,27,0,0,0-3.38,11.82c0,1.31,1,1.34,1,.38.08-4.82,4.14-7.18,7.08-6.62,4.54.86,6,5.39,5.94,8.06C147.14,207.17,139.18,213.24,131.74,223.79Z"/></g></svg>