<?xml version="1.0" encoding="utf-8"?>
<!-- Generator: Adobe Illustrator 23.0.1, SVG Export Plug-In . SVG Version: 6.00 Build 0)  -->
<svg version="1.1" xmlns="http://www.w3.org/2000/svg" xmlns:xlink="http://www.w3.org/1999/xlink" x="0px" y="0px"
	 viewBox="0 0 180 250" style="enable-background:new 0 0 180 250;" xml:space="preserve">
<style type="text/css">
	.st0{fill:#FFFFFF;}
	.st1{fill:#E2CF00;}
	.st2{fill:#131F67;}
	.st3{fill:#D40000;}
	.st4{fill:#100F08;}
</style>
<g id="white-background">
	<rect class="st0" width="180" height="250"/>
</g>
<g id="Layer_1">
	<g id="g5444_2_" transform="matrix(0.99999718,0,0,1.000002,2.9940799,-5.5506344)">
		<path id="path147-0-8-1-6-13-2-06-7_2_" d="M128.7,32.1c-7.9,0.2-11.5,9-5.6,15.9c0.9,1,0.9,1.6-0.6,0.6
			c-3.9-2.6-11.5-0.9-11.9,7.1c-0.5,9.9,13.4,12.7,16,2.2c0.1-1.1,1-1.1,0.8,0.5c-0.2,4.3-1.6,8.3-3.4,12.1c3.1,0,6.6,0,9.4,0
			c-1.8-3.9-3.2-7.9-3.4-12.1c-0.2-1.6,0.7-1.6,0.8-0.5c2.6,10.5,16.5,7.7,16-2.2c-0.4-8-8-9.7-11.9-7.1c-1.6,1-1.5,0.4-0.6-0.6
			C140.2,41.1,136.7,32.3,128.7,32.1C128.7,32.1,128.7,32.1,128.7,32.1L128.7,32.1z"/>
		<path id="path147-0-8-1-6-75-2-83-35-3_2_" d="M45.3,32.1c-7.9,0.2-11.5,9-5.6,15.9c0.9,1,0.9,1.6-0.6,0.6
			c-3.9-2.6-11.5-0.9-11.9,7.1c-0.5,9.9,13.4,12.7,16,2.2c0.1-1.1,1-1.1,0.8,0.5c-0.2,4.3-1.6,8.3-3.4,12.1c3.1,0,6.6,0,9.4,0
			c-1.8-3.9-3.2-7.9-3.4-12.1c-0.2-1.6,0.7-1.6,0.8-0.5c2.6,10.5,16.5,7.7,16-2.2c-0.4-8-8-9.7-11.9-7.1c-1.6,1-1.5,0.4-0.6-0.6
			C56.7,41.1,53.2,32.3,45.3,32.1C45.3,32.1,45.3,32.1,45.3,32.1L45.3,32.1z"/>
		<path id="path147-0-8-1-6-7-5-5-7-77-6_2_" d="M128.7,229.7c-7.9-0.2-11.5-9-5.6-15.9c0.9-1,0.9-1.6-0.6-0.6
			c-3.9,2.6-11.5,0.9-11.9-7.1c-0.5-9.9,13.4-12.7,16-2.2c0.1,1.1,1,1.1,0.8-0.5c-0.2-4.3-1.6-8.3-3.4-12.1c3.1,0,6.6,0,9.4,0
			c-1.8,3.9-3.2,7.9-3.4,12.1c-0.2,1.6,0.7,1.6,0.8,0.5c2.6-10.5,16.5-7.7,16,2.2c-0.4,8-8,9.7-11.9,7.1c-1.6-1-1.5-0.4-0.6,0.6
			C140.2,220.6,136.7,229.5,128.7,229.7C128.7,229.7,128.7,229.7,128.7,229.7L128.7,229.7z"/>
		<path id="path147-0-8-1-6-75-6-1-2-08-0_2_" d="M45.3,229.7c-7.9-0.2-11.5-9-5.6-15.9c0.9-1,0.9-1.6-0.6-0.6
			c-3.9,2.6-11.5,0.9-11.9-7.1c-0.5-9.9,13.4-12.7,16-2.2c0.1,1.1,1,1.1,0.8-0.5c-0.2-4.3-1.6-8.3-3.4-12.1c3.1,0,6.6,0,9.4,0
			c-1.8,3.9-3.2,7.9-3.4,12.1c-0.2,1.6,0.7,1.6,0.8,0.5c2.6-10.5,16.5-7.7,16,2.2c-0.4,8-8,9.7-11.9,7.1c-1.6-1-1.5-0.4-0.6,0.6
			C56.7,220.6,53.2,229.5,45.3,229.7C45.3,229.7,45.3,229.7,45.3,229.7L45.3,229.7z"/>
		<path id="path147-6-9-8-7-0-5-6-17-9_2_" d="M163.1,215.5c3.2-0.1,4.6-3.8,2.2-6.6c-0.3-0.4-0.4-0.7,0.2-0.3
			c1.6,1.1,4.6,0.4,4.8-3c0.2-4.1-5.4-5.3-6.4-0.9c-0.1,0.5-0.4,0.5-0.3-0.2c0.1-1.8,0.6-3.4,1.4-5.1c-1.3,0-2.5,0-3.8,0
			c0.7,1.6,1.3,3.3,1.4,5.1c0.1,0.7-0.3,0.7-0.3,0.2c-1-4.4-6.6-3.2-6.4,0.9c0.2,3.3,3.2,4.1,4.8,3c0.6-0.4,0.6-0.2,0.2,0.3
			C158.5,211.7,160,215.4,163.1,215.5C163.1,215.5,163.1,215.5,163.1,215.5L163.1,215.5z"/>
		<path id="path147-6-9-8-7-4-5-62-79-3_2_" d="M10.9,45.6c-3.2,0.1-4.6,3.8-2.2,6.6C9,52.7,9,52.9,8.4,52.5c-1.6-1.1-4.6-0.4-4.8,3
			C3.4,59.6,9,60.8,10,56.4c0.1-0.5,0.4-0.5,0.3,0.2C10.3,58.4,9.7,60,9,61.7c1.3,0,2.5,0,3.8,0c-0.7-1.6-1.3-3.3-1.4-5.1
			c-0.1-0.7,0.3-0.7,0.3-0.2c1,4.4,6.6,3.2,6.4-0.9c-0.2-3.3-3.2-4.1-4.8-3c-0.6,0.4-0.6,0.2-0.2-0.3C15.5,49.4,14.1,45.7,10.9,45.6
			L10.9,45.6L10.9,45.6z"/>
		<path id="path19-0-7-3_2_" d="M11.1,43.1v-2.3h2.1v-3.9H2.6v-2.7l11.5-17.5l1.9,0v17.5h3.2v2.7h-3.2l-0.1,3.9h1.8v2.3L11.1,43.1
			L11.1,43.1z M13.2,23.1L5.9,34.2h7.3V23.1z"/>
		<path id="path19-4-4-9-1_2_" d="M162.9,218v2.3h-2.1v3.9h10.6v2.7l-11.5,17.5l-1.9,0v-17.5h-3.2v-2.7h3.2l0.1-3.9h-1.8V218
			L162.9,218L162.9,218z M160.8,238l7.3-11.1h-7.3V238z"/>
	</g>
</g>
</svg>
