<svg id="Layer_1" data-name="Layer 1" xmlns="http://www.w3.org/2000/svg" viewBox="0 0 180 250"><title>all_cards</title><g id="g8511-1-4"><path id="path7155-4-0" d="M48.26,26.21c-7.44,10.55-15.4,16.62-15.53,24.85,0,2.67,1.4,7.2,5.94,8.06,2.95.56,7-1.8,7.09-6.62,0-1,1-.93,1,.38A27.25,27.25,0,0,1,43.39,64.7h9.74a27.25,27.25,0,0,1-3.38-11.82c0-1.31,1-1.34,1-.38.09,4.82,4.14,7.18,7.09,6.62,4.54-.86,6-5.39,5.94-8.06C63.66,42.83,55.7,36.76,48.26,26.21Z"/><path id="path7157-2-9" d="M13.88,40.07C10.41,44.46,6.69,47,6.63,50.42A3.33,3.33,0,0,0,9.4,53.78,2.88,2.88,0,0,0,12.71,51c0-.4.48-.39.48.16a10.48,10.48,0,0,1-1.58,4.92h4.55a10.48,10.48,0,0,1-1.58-4.92c0-.55.48-.56.47-.16a2.88,2.88,0,0,0,3.31,2.76,3.34,3.34,0,0,0,2.78-3.36c-.06-3.43-3.78-6-7.26-10.35Z"/><path id="path7162-7-0" d="M166.12,209.93c-3.48-4.39-7.2-6.92-7.26-10.35a3.34,3.34,0,0,1,2.78-3.36A2.88,2.88,0,0,1,165,199c0,.4.48.39.47-.16a10.36,10.36,0,0,0-1.58-4.92h4.55a10.46,10.46,0,0,0-1.57,4.92c0,.55.47.56.47.16a2.88,2.88,0,0,1,3.31-2.76,3.32,3.32,0,0,1,2.77,3.36c-.06,3.43-3.78,6-7.25,10.35Z"/><path id="path7164-8-3" d="M131.74,26.21c-7.44,10.55-15.4,16.62-15.53,24.85,0,2.67,1.41,7.2,5.94,8.06,2.95.56,7-1.8,7.09-6.62,0-1,1-.93,1,.38a27.25,27.25,0,0,1-3.38,11.82h9.75a27,27,0,0,1-3.38-11.82c0-1.31,1-1.34,1-.38.08,4.82,4.14,7.18,7.08,6.62,4.54-.86,6-5.39,5.94-8.06C147.14,42.83,139.18,36.76,131.74,26.21Z"/><path id="path7168-3-2" d="M90,66C82.56,76.53,74.6,82.6,74.47,90.83c0,2.67,1.4,7.2,5.94,8.07,3,.56,7-1.81,7.09-6.63,0-1,1-.93,1,.38a27.25,27.25,0,0,1-3.38,11.82h9.74a27.25,27.25,0,0,1-3.38-11.82c0-1.31,1-1.34,1-.38.09,4.82,4.14,7.19,7.09,6.63,4.54-.87,6-5.4,5.94-8.07C105.4,82.6,97.44,76.53,90,66Z"/><path id="path7174-5-0" d="M48.26,105.76c-7.44,10.55-15.4,16.62-15.53,24.85,0,2.66,1.4,7.19,5.94,8.06,2.95.56,7-1.81,7.09-6.63,0-.95,1-.93,1,.38a27.25,27.25,0,0,1-3.38,11.82h9.74a27.25,27.25,0,0,1-3.38-11.82c0-1.31,1-1.33,1-.38.09,4.82,4.14,7.19,7.09,6.63,4.54-.87,6-5.4,5.94-8.06C63.66,122.38,55.7,116.31,48.26,105.76Z"/><path id="path7176-7-0" d="M48.26,223.79c-7.44-10.55-15.4-16.62-15.53-24.85,0-2.67,1.4-7.2,5.94-8.06,2.95-.57,7,1.8,7.09,6.62,0,1,1,.93,1-.38a27.25,27.25,0,0,0-3.38-11.82h9.74a27.25,27.25,0,0,0-3.38,11.82c0,1.31,1,1.34,1,.38.09-4.82,4.14-7.19,7.09-6.62,4.54.86,6,5.39,5.94,8.06C63.66,207.17,55.7,213.24,48.26,223.79Z"/><path id="path7178-9-4" d="M131.74,223.79c-7.44-10.55-15.4-16.62-15.53-24.85,0-2.67,1.41-7.2,5.94-8.06,2.95-.57,7,1.8,7.09,6.62,0,1,1,.93,1-.38a27.25,27.25,0,0,0-3.38-11.82h9.75a27,27,0,0,0-3.38,11.82c0,1.31,1,1.34,1,.38.08-4.82,4.14-7.19,7.08-6.62,4.54.86,6,5.39,5.94,8.06C147.14,207.17,139.18,213.24,131.74,223.79Z"/><path id="path7180-5-1" d="M90,184c-7.44-10.54-15.4-16.61-15.53-24.84,0-2.67,1.4-7.2,5.94-8.07,3-.56,7,1.81,7.09,6.63,0,1,1,.93,1-.38a27.25,27.25,0,0,0-3.38-11.82h9.74a27.25,27.25,0,0,0-3.38,11.82c0,1.31,1,1.34,1,.38.09-4.82,4.14-7.19,7.09-6.63,4.54.87,6,5.4,5.94,8.07C105.4,167.4,97.44,173.47,90,184Z"/><path id="path7189-7-7" d="M131.74,105.76c-7.44,10.55-15.4,16.62-15.53,24.85,0,2.66,1.41,7.19,5.94,8.06,2.95.56,7-1.81,7.09-6.63,0-.95,1-.93,1,.38a27.25,27.25,0,0,1-3.38,11.82h9.75a27,27,0,0,1-3.38-11.82c0-1.31,1-1.33,1-.38.08,4.82,4.14,7.19,7.08,6.63,4.54-.87,6-5.4,5.94-8.06C147.14,122.38,139.18,116.31,131.74,105.76Z"/><path id="path27-43-30-7" d="M5.24,29.8c.13-3.55,1.42-4.88,4-6.74a6.12,6.12,0,0,1-2.71-5.43c.42-4.42,3.85-6.63,7.6-6.53s7,3.05,7.23,6.26A5.44,5.44,0,0,1,18.71,23c2.36,2,3.87,3.29,3.82,6.79a8.26,8.26,0,0,1-8.27,7.79c-5.21.13-9.15-4.2-9-7.75Zm14.56,0c.22-3.22-2.63-5.39-5.86-5.42A5.93,5.93,0,0,0,8,29.92c0,3.1,3.65,4.78,6,4.79,2.87,0,5.61-2.13,5.8-4.89Zm-1-11.51a4.74,4.74,0,0,0-5-4.57C11.42,13.81,9,15.56,9,17.82c0,2.84,2.78,4.25,5.15,4.31,2.15.05,4.59-1.77,4.64-3.82Z"/><path id="path27-43-3-4-8" d="M157.47,220.2c.13,3.55,1.42,4.88,4,6.74a6.14,6.14,0,0,0-2.71,5.43c.42,4.42,3.86,6.63,7.6,6.53s7-3.05,7.23-6.26a5.43,5.43,0,0,0-2.61-5.61c2.37-2,3.88-3.29,3.82-6.79a8.25,8.25,0,0,0-8.26-7.79c-5.22-.13-9.16,4.2-9,7.75Zm14.57,0c.22,3.22-2.64,5.39-5.87,5.42a5.93,5.93,0,0,1-5.95-5.52c0-3.1,3.66-4.79,6-4.79,2.87,0,5.6,2.13,5.8,4.89Zm-1,11.51a4.74,4.74,0,0,1-5,4.57c-2.3-.07-4.74-1.82-4.74-4.08,0-2.84,2.77-4.25,5.14-4.31,2.15-.05,4.6,1.77,4.64,3.82Z"/></g></svg>