<svg id="Layer_1" data-name="Layer 1" xmlns="http://www.w3.org/2000/svg" viewBox="0 0 180 250"><title>all_cards</title><g id="g5431"><path id="path147-0-8-1-6-7-2-5-9-2" d="M90,26.55c-7.92.17-11.47,9-5.61,15.89.85,1,.94,1.58-.62.62-3.94-2.62-11.51-.9-11.9,7.12-.48,9.87,13.41,12.72,16,2.22.14-1.11,1-1.09.83.48A32.46,32.46,0,0,1,85.29,65h9.42a32.46,32.46,0,0,1-3.43-12.15c-.22-1.57.69-1.59.83-.48,2.6,10.5,16.5,7.65,16-2.22-.39-8-8-9.74-11.9-7.12-1.56,1-1.47.39-.62-.62,5.86-6.87,2.31-15.72-5.61-15.89h0Z"/><path id="path147-0-8-1-6-1-4-3-4-3" d="M90,224.12c-7.92-.17-11.47-9-5.61-15.9.85-1,.94-1.57-.62-.61-3.94,2.62-11.51.9-11.9-7.12-.48-9.87,13.41-12.72,16-2.22.14,1.11,1,1.09.83-.49a32.41,32.41,0,0,0-3.43-12.14h9.42a32.41,32.41,0,0,0-3.43,12.14c-.22,1.58.69,1.6.83.49,2.6-10.5,16.5-7.65,16,2.22-.39,8-8,9.74-11.9,7.12-1.56-1-1.47-.39-.62.61,5.86,6.88,2.31,15.73-5.61,15.9h0Z"/><path id="path147-0-8-1-6-1-1-0-4-8-8" d="M90,106.09c-7.92.17-11.47,9-5.61,15.9.85,1,.94,1.58-.62.61-3.94-2.62-11.51-.9-11.9,7.12-.48,9.87,13.41,12.72,16,2.22.14-1.11,1-1.08.83.49a32.46,32.46,0,0,1-3.43,12.15h9.42a32.46,32.46,0,0,1-3.43-12.15c-.22-1.57.69-1.6.83-.49,2.6,10.5,16.5,7.65,16-2.22-.39-8-8-9.74-11.9-7.12-1.56,1-1.47.39-.62-.61,5.86-6.88,2.31-15.73-5.61-15.9h0Z"/><path id="path147-6-9-8-7-0-5-5-1-4" d="M166.12,209.93c3.17-.07,4.58-3.76,2.24-6.62-.34-.42-.38-.66.25-.26,1.58,1.1,4.6.38,4.76-3,.19-4.12-5.37-5.3-6.41-.93-.06.47-.42.46-.33-.2A13.81,13.81,0,0,1,168,193.9h-3.77a14,14,0,0,1,1.38,5.06c.08.66-.28.67-.34.2-1-4.37-6.6-3.19-6.4.93.15,3.34,3.18,4.06,4.76,3,.62-.4.59-.16.24.26-2.34,2.86-.92,6.55,2.25,6.62Z"/><path id="path147-6-9-8-7-4-5-8-2-3" d="M13.88,40.07c-3.17.07-4.59,3.76-2.24,6.62.34.42.38.66-.25.26-1.58-1.1-4.6-.38-4.76,3C6.44,54,12,55.21,13,50.84c.06-.46.42-.45.33.2A13.81,13.81,0,0,1,12,56.1h3.77A13.81,13.81,0,0,1,14.4,51c-.09-.65.27-.66.33-.2,1,4.37,6.6,3.19,6.4-.93C21,46.57,18,45.85,16.37,47c-.62.4-.58.16-.24-.26,2.34-2.86.92-6.55-2.25-6.62Z"/><path id="path17-9-7-6-4" d="M5.25,31.75l2-1.49C9.07,33.13,11.06,35,14.1,34.7c4.57-.31,6.46-5.06,5.5-8.65A5.28,5.28,0,0,0,11.9,23a7.82,7.82,0,0,1-1.53.73c-.32,0-1-1.41-.93-1.84a92.53,92.53,0,0,1,6.91-8.06H8.7v3.44H5.77V11.1h15v2.09a50.4,50.4,0,0,0-5.33,6.39A7.24,7.24,0,0,1,22.22,25a14.32,14.32,0,0,1-.42,7.31,9.21,9.21,0,0,1-7.49,5.22c-5.05.34-7.73-3.18-9.06-5.78Z"/><path id="path17-5-0-1-5-7" d="M174.75,218.25l-2.05,1.5c-1.77-2.88-3.76-4.78-6.8-4.45-4.57.31-6.46,5.06-5.5,8.65a5.29,5.29,0,0,0,7.7,3.07,7.5,7.5,0,0,1,1.53-.74c.31,0,1,1.41.93,1.84a94.39,94.39,0,0,1-6.91,8.06h7.65v-3.44h2.93v6.17H159.28v-2.1a50.4,50.4,0,0,0,5.33-6.39,7.24,7.24,0,0,1-6.83-5.42,14.32,14.32,0,0,1,.42-7.31,9.21,9.21,0,0,1,7.49-5.22c5.05-.34,7.73,3.18,9.06,5.78Z"/></g></svg>