<svg id="Layer_1" data-name="Layer 1" xmlns="http://www.w3.org/2000/svg" viewBox="0 0 180 250"><title>all_cards</title><g id="g8447-5-9"><g id="g8459-0-4"><path id="path6950-9-9" d="M131.74,223.79c7.44-10.55,15.4-16.62,15.53-24.85,0-2.67-1.4-7.2-5.94-8.06-2.94-.57-7,1.8-7.08,6.62,0,1-1,.93-1-.38a27,27,0,0,1,3.38-11.82h-9.75a27.25,27.25,0,0,1,3.38,11.82c0,1.31-1,1.34-1,.38-.09-4.82-4.14-7.19-7.09-6.62-4.54.86-6,5.39-5.94,8.06.13,8.23,8.09,14.3,15.53,24.85Z"/><path id="path6952-6-0" d="M166.12,209.93c3.47-4.39,7.19-6.92,7.25-10.35a3.33,3.33,0,0,0-2.77-3.36,2.88,2.88,0,0,0-3.31,2.76c0,.4-.48.39-.48-.16a10.48,10.48,0,0,1,1.58-4.92h-4.55a10.36,10.36,0,0,1,1.58,4.92c0,.55-.48.56-.47.16a2.88,2.88,0,0,0-3.31-2.76,3.34,3.34,0,0,0-2.78,3.36c.06,3.43,3.78,6,7.26,10.35Z"/><path id="path6956-5-0" d="M13.88,40.07c3.48,4.39,7.2,6.92,7.26,10.35a3.34,3.34,0,0,1-2.78,3.36A2.88,2.88,0,0,1,15.05,51c0-.4-.47-.39-.47.16a10.48,10.48,0,0,0,1.58,4.92H11.61a10.48,10.48,0,0,0,1.58-4.92c0-.55-.48-.56-.48-.16A2.88,2.88,0,0,1,9.4,53.78a3.33,3.33,0,0,1-2.77-3.36c.06-3.43,3.78-6,7.25-10.35Z"/><path id="path6958-4-1" d="M48.26,223.79c7.44-10.55,15.4-16.62,15.53-24.85.05-2.67-1.4-7.2-5.94-8.06-3-.57-7,1.8-7.09,6.62,0,1-1,.93-1-.38a27.25,27.25,0,0,1,3.38-11.82H43.39a27.25,27.25,0,0,1,3.38,11.82c0,1.31-1,1.34-1,.38-.08-4.82-4.13-7.19-7.08-6.62-4.54.86-6,5.39-5.94,8.06.13,8.23,8.09,14.3,15.53,24.85Z"/><path id="path6970-5-5" d="M131.74,26.21c7.44,10.55,15.4,16.62,15.53,24.85,0,2.67-1.4,7.2-5.94,8.06-2.94.56-7-1.8-7.08-6.62,0-1-1-.93-1,.38a27,27,0,0,0,3.38,11.82h-9.75a27.25,27.25,0,0,0,3.38-11.82c0-1.31-1-1.34-1-.38-.09,4.82-4.14,7.18-7.09,6.62-4.54-.86-6-5.39-5.94-8.06.13-8.23,8.09-14.3,15.53-24.85Z"/><path id="path6972-5-8" d="M48.26,26.21c7.44,10.55,15.4,16.62,15.53,24.85.05,2.67-1.4,7.2-5.94,8.06-3,.56-7-1.8-7.09-6.62,0-1-1-.93-1,.38A27.25,27.25,0,0,0,53.13,64.7H43.39a27.25,27.25,0,0,0,3.38-11.82c0-1.31-1-1.34-1-.38-.08,4.82-4.13,7.18-7.08,6.62-4.54-.86-6-5.39-5.94-8.06.13-8.23,8.09-14.3,15.53-24.85Z"/><path id="path6980-6-3" d="M90,144.24c7.44-10.55,15.4-16.62,15.53-24.85,0-2.66-1.4-7.19-5.94-8.06-3-.56-7,1.81-7.09,6.63,0,1-1,.93-1-.38a27.25,27.25,0,0,1,3.38-11.82H85.13a27.25,27.25,0,0,1,3.38,11.82c0,1.31-1,1.33-1,.38-.09-4.82-4.14-7.19-7.09-6.63-4.54.87-6,5.4-5.94,8.06.13,8.23,8.09,14.3,15.53,24.85Z"/><path id="path21-4-5-5" d="M174.51,219.3l-2.61,0c-.5-1.6-1.6-3.22-3.1-3.67a6.24,6.24,0,0,0-7.83,4.14c-1.09,3.35,0,8,2.93,9.71,2.41,1.38,6,.21,7.63-2.74l1.83,1.13-1,11H160.45v-2.6h9.67l.15-4.59a7.67,7.67,0,0,1-7.36.43c-3.94-1.91-5.77-6.23-5-11.33,1.06-5.08,3.4-7.95,8.68-8.36,5.88-.06,7.95,4,7.93,6.85Z"/><path id="path21-4-9-2-8" d="M5.5,30.7l2.61,0a5.35,5.35,0,0,0,3.09,3.67A6.24,6.24,0,0,0,19,30.21c1.09-3.35,0-8-2.93-9.71-2.41-1.38-6-.21-7.63,2.74L6.64,22.11l1-11H19.56V13.7H9.89l-.16,4.59a7.69,7.69,0,0,1,7.37-.43c3.94,1.9,5.77,6.23,5,11.33-1.06,5.08-3.4,8-8.68,8.36-5.87.06-7.95-4-7.92-6.85Z"/></g></g></svg>