<svg id="Layer_1" data-name="Layer 1" xmlns="http://www.w3.org/2000/svg" viewBox="0 0 180 250"><title>all_cards</title><g id="g5444"><path id="path147-0-8-1-6-13-2-06-7" d="M131.74,26.55c-7.92.17-11.47,9-5.61,15.89.85,1,.94,1.58-.62.62-3.94-2.62-11.51-.9-11.9,7.11-.48,9.88,13.42,12.72,16,2.22.14-1.1,1.05-1.08.83.49A32.63,32.63,0,0,1,127,65h9.41A32.46,32.46,0,0,1,133,52.88c-.22-1.57.69-1.59.83-.49,2.61,10.5,16.5,7.66,16-2.22-.39-8-8-9.73-11.9-7.11-1.56,1-1.47.39-.62-.62,5.86-6.87,2.31-15.72-5.61-15.89Z"/><path id="path147-0-8-1-6-75-2-83-35-3" d="M48.25,26.55c-7.91.17-11.46,9-5.6,15.89.85,1,.94,1.58-.62.62-4-2.62-11.52-.9-11.9,7.11-.48,9.88,13.41,12.72,16,2.22.14-1.1,1.05-1.08.83.49A32.46,32.46,0,0,1,43.55,65H53a32.63,32.63,0,0,1-3.42-12.15c-.22-1.57.69-1.59.82-.49,2.61,10.5,16.51,7.66,16-2.22-.39-8-8-9.73-11.91-7.11-1.55,1-1.47.39-.62-.62,5.87-6.87,2.32-15.72-5.6-15.89Z"/><path id="path147-0-8-1-6-7-5-5-7-77-6" d="M131.74,224.12c-7.92-.17-11.47-9-5.61-15.9.85-1,.94-1.57-.62-.61-3.94,2.62-11.51.9-11.9-7.12-.48-9.87,13.42-12.72,16-2.22.14,1.11,1.05,1.08.83-.49A32.63,32.63,0,0,0,127,185.63h9.41A32.46,32.46,0,0,0,133,197.78c-.22,1.57.69,1.6.83.49,2.61-10.5,16.5-7.65,16,2.22-.39,8-8,9.74-11.9,7.12-1.56-1-1.47-.39-.62.61,5.86,6.88,2.31,15.73-5.61,15.9Z"/><path id="path147-0-8-1-6-75-6-1-2-08-0" d="M48.25,224.12c-7.91-.17-11.46-9-5.6-15.9.85-1,.94-1.57-.62-.61-4,2.62-11.52.9-11.9-7.12-.48-9.87,13.41-12.72,16-2.22.14,1.11,1.05,1.08.83-.49a32.46,32.46,0,0,0-3.43-12.15H53a32.63,32.63,0,0,0-3.42,12.15c-.22,1.57.69,1.6.82.49,2.61-10.5,16.51-7.65,16,2.22-.39,8-8,9.74-11.91,7.12-1.55-1-1.47-.39-.62.61,5.87,6.88,2.32,15.73-5.6,15.9Z"/><path id="path147-6-9-8-7-0-5-6-17-9" d="M166.12,209.93c3.16-.07,4.58-3.76,2.24-6.62-.34-.42-.38-.66.25-.26,1.58,1.1,4.6.38,4.76-3,.19-4.12-5.37-5.3-6.41-.93-.06.46-.42.45-.33-.2A13.81,13.81,0,0,1,168,193.9h-3.77A13.81,13.81,0,0,1,165.6,199c.09.65-.27.66-.33.2-1-4.37-6.6-3.19-6.41.93.16,3.34,3.19,4.06,4.77,3,.62-.4.58-.16.24.26-2.34,2.86-.92,6.55,2.25,6.62Z"/><path id="path147-6-9-8-7-4-5-62-79-3" d="M13.88,40.07c-3.17.07-4.59,3.76-2.24,6.62.34.42.38.66-.25.26-1.58-1.1-4.6-.38-4.76,3C6.44,54,12,55.21,13,50.84c.06-.47.42-.45.33.2A13.81,13.81,0,0,1,12,56.1h3.77A14,14,0,0,1,14.39,51c-.08-.65.28-.67.34-.2,1,4.37,6.6,3.19,6.4-.93C21,46.57,18,45.85,16.37,47c-.62.4-.59.16-.24-.26,2.34-2.86.92-6.55-2.25-6.62Z"/><path id="path19-0-7-3" d="M14.07,37.55V35.21h2.12V31.36H5.58V28.64L17.06,11.09h1.88V28.64h3.24v2.72H18.94l-.07,3.85h1.78v2.34Zm2.12-20L8.9,28.64h7.29Z"/><path id="path19-4-4-9-1" d="M165.93,212.45v2.34h-2.12v3.85h10.61v2.72l-11.48,17.55h-1.88V221.36h-3.25v-2.72h3.25l.06-3.85h-1.77v-2.34Zm-2.12,20,7.29-11.12h-7.29Z"/></g></svg>