<svg id="Layer_1" data-name="Layer 1" xmlns="http://www.w3.org/2000/svg" viewBox="0 0 180 250"><defs><style>.cls-1{fill:#d40000;}.cls-2{fill:#131f67;}.cls-3{fill:#e2cf00;}</style></defs><title>all_cards</title><g id="g6073"><path id="path10446-4-8" class="cls-1" d="M13.88,56.1s-1.79-2.56-4.21-5.56c-1.62-2-2.91-4.19-3-6.07a3.89,3.89,0,0,1,3.53-4.4c2.36-.1,3.32,1.65,3.71,3.1.4-1.45,1.35-3.2,3.72-3.1a3.9,3.9,0,0,1,3.53,4.4c-.12,1.88-1.41,4.06-3,6.07-2.42,3-4.22,5.56-4.22,5.56Z"/><path id="path10448-8-7" class="cls-1" d="M166.12,193.9s-1.8,2.56-4.22,5.56c-1.62,2-2.91,4.19-3,6.07a3.9,3.9,0,0,0,3.53,4.4c2.37.1,3.33-1.65,3.72-3.1.39,1.45,1.35,3.2,3.71,3.1a3.89,3.89,0,0,0,3.53-4.4c-.11-1.88-1.41-4.06-3-6.07C167.91,196.46,166.12,193.9,166.12,193.9Z"/><path id="path37-2-5-5-0" class="cls-1" d="M8,28.8H5.8v-3H8s0-1.62.08-4.49c.14-6.1.29-7,2.07-8.73,3.51-3.32,9.39-.62,9.32,4.38-.1,7,0,13.77-.23,14.72-.37,1.68-.41,1.77-.26,2.08.31.61,3,.88,3,.71v3a5.53,5.53,0,0,1-4.5-1.19,6.67,6.67,0,0,1-6.55.8C9.05,36.16,7.64,33.9,8,28.8Zm7.52,5.26c-1.1-1.58-3-3.74-4.7-4.51-.11,1.82.05,3.35.69,4.17a2.58,2.58,0,0,0,4,.34Zm.91-17.41C15.63,14.34,13.53,13.56,12,15c-1,.9-1.12,1.84-1.14,7,0,3.16,0,4.49,0,4.49,3,1,5.78,4.43,5.76,4.39l.07-9.57a26.52,26.52,0,0,0-.23-4.63Z"/><path id="path37-3-27-3-0-9" class="cls-1" d="M172,221.2h2.22v3H172s0,1.62-.08,4.49c-.14,6.1-.3,7-2.07,8.73-3.51,3.32-9.39.62-9.32-4.38.1-7.05,0-13.77.23-14.72.37-1.68.41-1.77.26-2.08-.31-.62-3-.88-3-.71v-3a5.53,5.53,0,0,1,4.5,1.19,6.67,6.67,0,0,1,6.55-.8c1.86.87,3.28,3.13,2.9,8.23Zm-7.52-5.26c1.1,1.58,3,3.74,4.7,4.51.11-1.82,0-3.35-.69-4.17a2.58,2.58,0,0,0-4-.34Zm-.91,17.41c.82,2.31,2.92,3.09,4.45,1.65,1-.9,1.12-1.84,1.14-7,0-3.16,0-4.49,0-4.49-3-1-5.78-4.43-5.76-4.39l-.07,9.57a26.52,26.52,0,0,0,.23,4.63Z"/><path id="path3054-4-0-3" class="cls-2" d="M156.12,19.17H23.88V230.83H156.12Zm-16.29,1.7H154v81.6s-1.17,0-1.09-.59a4.21,4.21,0,0,0-.54-2.79,5.42,5.42,0,0,1-.74-1,3.86,3.86,0,0,0-1.45-1.68c-.24-.1-.52-.16-.55-.33s-.12-.66-.22-1.12c-.25-1.17-.48-1.14.26-2.3,2.58-4,3.57-7.74,3.25-11.42a12.32,12.32,0,0,0-.53-2.84c-2.49,2.5-4.29,5.58-6,7.86a79.5,79.5,0,0,1-.38-8.32,3.69,3.69,0,0,0,2.71-2.91s1.43,1.12,2.3,1l-.57-2.1c3.81-1.17,4.33-6.15-.17-7.21l.4-2.62s-1.36.46-1.95.75c-.3.13-.38,0-.59-.4-2.1-3.27-5.36-2.58-6.8.65l-1.76-.75a7,7,0,0,1,.26,2.69c-3.69,1.64-2.78,6.14.17,6.73l-.26,2.1,2.22-.71A3.36,3.36,0,0,0,144,77.84c0,4.4-.12,7.16,0,11.07a18.28,18.28,0,0,0-8.45-5.22,14.48,14.48,0,0,0,.19,2.39c.08.48.06.41-.16.41-.51,0-2.8-3.69-2.8-3.69a.77.77,0,0,0-.5.23c-.27.27.35.77,1.23,2.07,1,1.52.92,1.46.12,2.14-4.58,3.88-11.19,18.67-10.08,20.1-2.89.18-14.17,5.71-16.22,17.11-.12.51-.36,1.18-.36,1.18l-3.26-.81c2-9.34,6.41-28.33,6.41-28.33A40.91,40.91,0,0,1,115,95.41l0-.74-4.29,1,.2-1.63,4.06-.8v-.38l-4.3.57.7-2.71S101.74,92.15,98.28,92c.22,10.54-.61,19.29-.16,30.64l-4.71-2.85C93,111.92,92.86,92,92.86,92l-13-2,.43,3.14c-10.78-4.27-21.6-8.21-29.57-16.56C55.62,72.72,63.8,69,63.8,69l-.27-.6C43.41,78.77,36.11,86,26,94.92v-74H80.48l-.19,13.57a1.5,1.5,0,0,1-.17.47C79.45,38.18,81.37,44,81,46.8a13.65,13.65,0,0,1,.11,2.49,40.76,40.76,0,0,0-6.47,14c-.57.22-1.4.68-2,.84l-.17.72A43,43,0,0,1,77.41,63c16.25,7.93,28.2,6,41,.1-2,7.16,2.4,16.25,9.69,18.17a7.49,7.49,0,0,0,3.08.19c.81-.24-1.84-6.31-3-6.54-3.52-1.52-5-5.11-4.6-9.22l-.58-1c-1.2,5,1.69,10.07,5.66,11.3l1.06,2.33c-7.19-2.16-10.25-8.89-7.85-15.54,0-4.16-2.65-6-3.89-7.78-6.25-2.39-7.41-8.18-6.32-12.86,2.91,1.24-2-4.11-2-4.11-2.15,4.64-3,10.51,1.86,16.46A42.5,42.5,0,0,1,99.68,64.85C93,68.34,88,66,84.76,58.27a35.47,35.47,0,0,1-2.62-14.11c0-3,0-3.08,1.16-2.58A6.48,6.48,0,0,0,88,41.42c1.86-1,1.78-.37-.25,1.71a10.28,10.28,0,0,0-1.14,1.19c0,.62.86.1,2.1-1.13.45-.45.79-.88.93-.87s.14.58,0,1.21c-.07.24-.3,1.25-.51,2.24s-.49,2.16-.63,2.59c-.55,1.72-.4,2.52,1.25,3.32a12.8,12.8,0,0,1,2.35,1.84,7.59,7.59,0,0,1-.23-2.07c.16-.6.88-.17,1.62.18,1.61.77,2.56.79,3.43.07a2.37,2.37,0,0,0-.63-3.84c-1.09-.43-1.28,0-.19.72,1.63,1.14-.21,2.9-1.59,1.81-1.09-.85-3-1-3.17-.24s-.41.55-1.16.11c-1.16-.68-1.17-.8-.2-4.55,1.85-7.11,1.67-9.72-.78-11.88a6.67,6.67,0,0,0-7.91-.57V30.84c4.56-1.82,7.88-4.92,10.55-10h.52c2.67,5.77,7,10,15.07,13,3.16,3.13-4-9-1.72-4a19.78,19.78,0,0,1-10.24-9h1.17a22,22,0,0,0,8.19,7.38c1.94,0-2.85-5.88-3.55-7.38h37.33c-1.18,9.1-2.85,18.82,3.71,36.53-3.08-1.62-15.42,1.83-13.25,2.51,1.09-1.26,9-3.12,14.78-1.74-.48-.42-8.88-19.94-4-37.3Zm4,37.3h0ZM115,93.25l0,1.42.3-.06-.17-1.39ZM81.27,20.87h1.64a4.12,4.12,0,0,1-1.68,1.84Zm2.82,0h1.76a13.11,13.11,0,0,1-4.59,4.63l0-1.71a22.63,22.63,0,0,0,2.8-2.92Zm2.92,0h1.62c-2.2,3.4-4.47,5.76-7.37,7.2V26.68A25,25,0,0,0,87,20.87Zm2.48,0h1.32a18.56,18.56,0,0,1-9.55,9v-1A19.84,19.84,0,0,0,89.49,20.87Zm3.6,0h1.58a22.17,22.17,0,0,0,11.62,10.26l.75,1.75c-6.52-2.34-10.84-5.84-14-12Zm4.57,0h1.13a16.5,16.5,0,0,0,4.3,4.2l1,2A20.89,20.89,0,0,1,97.66,20.87Zm2.06,0H101l1.67,2.94c-1.11-.63-2-2-2.93-2.94ZM98.27,32.15a6.91,6.91,0,0,0-4.44,1.39c-1.2,1-.32,2.05,1.41,1.25,3-1.37,6.34-.75,10,1.25,3.08,1.68,2-.07-.87-1.95A11.23,11.23,0,0,0,98.27,32.15Zm-13.9,2.2c2.48,0,5.32,1.12,5.39,2.57a8.11,8.11,0,0,0-8.13-.63c-.24,0-.27-.91-.13-1.23A4.94,4.94,0,0,1,84.37,34.35Zm15,.94a4.62,4.62,0,0,0-3.67,1.29c-.34.42-.43.47-.8.4-.73-.12-.69.3.14,1.46a1.56,1.56,0,0,1-.2,2c-.62.87-.5.9,1.35,1.79A40.21,40.21,0,0,1,100,44.65c.92.52,1.1.06.26-.62-.29-.23-1.15-.85-1.93-1.35-1.3-.85-2.27-1.71-1.23-1.33a6.69,6.69,0,0,0,1.13.3,9.49,9.49,0,0,0,3.81.23,6.49,6.49,0,0,0,2.74-1.45c.23-.1.45,0,1,0,2.06.08,1.6-.53-1.36-2.15s-5.23-1.89-7.1-1c-.8.37-1.25.47-1.14.23a1.72,1.72,0,0,1,.7-.73c3-1.82,5.47-.31,8.14,1.05,1.14.68,1.45.86,1.59.64s-1.28-1.31-3.23-2.29a9.08,9.08,0,0,0-4-.91Zm-9.69,2.1c.52.2.29.79-.18.6-2.8-1.25-3.36-1.87-6.7-.7-1.1.38-1.54,0-.18-.54C85.58,35.52,87.72,36.35,89.7,37.39Zm-1.92,1.48c-.75,3.85-4.58,2.66-4.15,0h.7c.06,2.33,2.39,2.31,2.79,0Zm22.29,0,1,2.2a11.33,11.33,0,0,0,7.47,14.84s1.07,1.65.86,1.86C106.93,55,107.89,43.08,110.07,38.88ZM98.22,39l.35,0c1.08,2.68,2.65,1.14,3,0l.8,0c-.24,2.77-4.46,3.25-4.1,0Zm-9.64.08c.51-.06.68.7.54.84s-1,.94-1.08.41a1,1,0,0,1,.54-1.25Zm-5.84.08h.14a1.35,1.35,0,0,1,.27,1.33c-.19.19-.94-.07-1.09-.36a.67.67,0,0,1,.68-1Zm20.29.25c.25,0,.93.3.86.63,0,.09-1,.78-1.17.67-.41-.22.15-1.22.23-1.28l.08,0Zm-5.53.12h0a.72.72,0,0,1,.16,1.13A1.61,1.61,0,0,1,97,40.4C96.9,40,97.41,39.58,97.5,39.55Zm15.16,4.88c-.15,3.19.68,6.29,4.17,8.28l-.75-1.37c-.9-.71-2.77-2.74-2.54-5.16ZM81.34,50.14l.39,2.1a47.8,47.8,0,0,0-4.59,10l-1.81.66A39.41,39.41,0,0,1,81.34,50.14Zm.76,3.27.51,1.8a27.27,27.27,0,0,0-2.56,6l-2,.74A28.73,28.73,0,0,1,82.1,53.41Zm6.35.75h-.08c0,.35,0,1.34,0,3,0,.31.32.18,1.17-.26s.67-.44,1.39-.2a5.26,5.26,0,0,0,3.67.19,2.57,2.57,0,0,1,2.37.23,5.13,5.13,0,0,0,1,.43c.54.2.34,0,0-1.51-.42-1.67-.24-1.85-.9-1.41a2.93,2.93,0,0,1-.8.35c-.58.07-1.55-.64-2.13-.42-1.4.55-1.38.41-2.68.09-.65-.16-1.27.23-1.84.35C89.31,55,88.9,54.15,88.45,54.16Zm23.79.86c2.37,2.16,4.8,2.91,7.43,3.73-.32,1.07-1,2.29-1.25,3.69-13.71,7.25-27.49,7-40.49.44l6.75-2.57c3.68,6.38,8.4,8.08,13.72,6A35.83,35.83,0,0,0,112.24,55Zm-29.3,1.27.59,1.57-.87,2.36L81,60.89A13.65,13.65,0,0,1,82.94,56.29Zm12.4,1.82a13.92,13.92,0,0,1-2.45.3,14.66,14.66,0,0,0-1.66,0c-.62.12.1.4,1.48.79s3.07-.2,3.28-.8c.05-.14-.13-.32-.65-.29Zm-11.43.77.36.79-.61.22Zm36.46.45,1,2.33c-1.78,3.84-3,14.36,8.89,17.63l.51,1.51c-8.06.15-16.13-10.09-10.43-21.47Zm-27.11.79a5.22,5.22,0,0,0-3.15.89c-.71.56.16.91,1.07.47a5,5,0,0,1,4.34.2c.89.6,1.35.5.76-.43a3.74,3.74,0,0,0-3-1.13ZM145,62.74c3.1-.05,3.42,4.38,2.81,4.76a4.29,4.29,0,0,1,1.46-.2c2.27.06,3.45,1.32,3.58,3.14s-1.26,2.86-3.3,2.76c-.76,0-1.28-.11-1.24,0,.38,1.47-.08,3.68-2,4.24-.22.06-.54.37-.54.48-.15,2.33.51,10.33.51,10.33s3.65-6.13,4.47-7.06c1.61-2.19,2.18-2,1.9,1.65-.39,5-1.16,6.19-4.05,10.45-1.27,1.83-4.29.87-4,2.1a4.21,4.21,0,0,0,1,1.23,1.69,1.69,0,0,0,1.37.46c1.29,0,1.79-.31,1,.81-.61.89-2.75,1.07-3,1.53-.56,1.07-.17.83-1.13,1.77-.73.81-.48.4-.14,1.06.52.85.3,2.55-.22,3.7a3.74,3.74,0,0,0-.38,1.6,5.92,5.92,0,0,0,1.55-2.72c.3-1.25.65-1.87.64-1.18,0,.89.16,2.08.95,2.54.63.36.72.73.62,1.17s.38.86.86,1.25c.12.11.5.26.46.51-.13.76.18,1.66.74,1.81.25.13,1.84,0,2.1-.9,0-.29,0-1.46-.63-1.53-.45-.21-.4-.33.27-.73a9,9,0,0,1,2.25-1.13,2.66,2.66,0,0,0,1.31-.82l.13,48.23a141.88,141.88,0,0,1-21.26,18.26,103.84,103.84,0,0,0-16.4-11.63l-2-1.2.73-.92L111.87,154l3.95-3.17,1,1.26L115,153.85l2.8,3.1,6.3-6.14-4.15-4,2.16-4,1.38.67-1,2.57,3.16,2,3.95-7.84-5-2.28,1.27-5.27,1.54.16-.51,3.8,3.9.77,1.59-9-5.73-1,.49-5.11,1.6,0-.24,2.83,4.05.57.76-7.8-5.61-.93.72-6,1.29.18-.25,3.72,4.12.7c.45-2.52.82-5.68,1.49-8.15l-5.31-2,1.88-5.05,1.2.41-1,2.74,3.92,1.67,3.3-6.52-4.62-3.26a21.36,21.36,0,0,1,3.55-4.74l.91.79a6.57,6.57,0,0,0-.85,1c-.62.86-.81,1.29-.73,1.51a19.56,19.56,0,0,0,3.15,2.33A5.6,5.6,0,0,0,142,94.88c.52-.62.79-.68,1.33-.29a2.52,2.52,0,0,1,.38.36.76.76,0,0,1,.19.39.29.29,0,0,1,0,.2,2.55,2.55,0,0,1,.36-.24c.39-.21-.75-1.22-1.68-1.73-2.78-1.57-6.06-4.51-6.82-8.19-.27-1.66,4,.33,6.95,3.27.44.44,2.1,2,2.1,2-.24-4.26-.58-8.59-.4-12.89l-.65-.46a3.46,3.46,0,0,1-1.34-2.71c-.06-.72.56-1.09-.85-1-2.93,0-4.63-2.73-2.85-5.09.64-.89,3.34-1.32,3.34-1.29A3.44,3.44,0,0,1,145,62.74Zm-1.07,32.8,3.88-28-.08,0A.11.11,0,0,0,147.77,67.5ZM50.19,76.71c8.18,6.89,13.4,11.53,30.06,16.72l.42,2.47c-9.58-2.21-20-6.69-32.46-17.82ZM47.72,78.3A84.8,84.8,0,0,0,63.59,89.92l1.89,1.14-1,1,3.16,4.56L63.6,99.93l-1-1,2.13-2.08-3-3-6.16,6.24,4.23,3.74-2.45,3.77-.89-.4,1.3-2.63-3.92-2.14-4.39,8.06L55,113.09l-1.27,5-1.3-.07.44-3.87-4.2-.75-1.41,9.06,5.4.85-.13,5.22-1.44,0,.1-2.94-4.26-.2-.39,7.6,5.26.68-.53,6.17L50,139.43l.15-4-4-.39-1.37,8.52,5.4,1.54-1.91,5.31-1.17-.64.76-2.75-3.75-1.58-3.53,6.62,4.58,3.11-2.82,4.94-1.08-.72,1.94-2.89-3.8-2.38-2.16,2.95a39.23,39.23,0,0,1-3.2-2.65,1.94,1.94,0,0,0-2-.5c-.69.16-1.35.29-1.2.05a38.4,38.4,0,0,1,3.36-2.25c.55-.36,1-.66,1-1s.3-.6.7-.85.34-.51.27-.79a8.86,8.86,0,0,1,.61-5.37c.5-1,.65-1.23.33-1.23-1,.12-2.15,3.62-2.37,4.6a10.44,10.44,0,0,1-.25-1.35c-.12-.64-.21-1-.73-1.16s-.42-.44-.48-.9a1.74,1.74,0,0,0-1.1-1.5c-.62-.25-.68-.35-.66-1a2.55,2.55,0,0,0-.87-1.56l-2.15.76a1.63,1.63,0,0,0,.41,1.56c1.08,1-.5,1-1.57,1.69-.29.18-.64.59-.88.46-.68-.22-.63,1.82-1.3,1.56l.16-49.05C31,90.69,47.72,78.3,47.72,78.3ZM134.42,87l.82.92a52.46,52.46,0,0,0-6.46,9.46,38.62,38.62,0,0,0-4,12.13c-.61,2.89-.7,5.83-1.08,8.78-.39,3.18-.46,7.46-1.07,10.82-1.12,9.21-3.71,14.11-9.33,19.33-2.47,2.3-10.16,6.63-10.36,6.59l-1.83-.45c15.76-8.07,19.7-13.63,21.41-32.73.33-24,11.23-33.24,11.94-34.85Zm1.55,1.6.84.82-4.6,6.49,4.54,3.2-1.8,4.2-1.38-.51,1-2.87-3.81-1.6-3.09,8.34,5.44,1.71-.9,5.44-1.09-.29V109.8l-4-.82-1.17,9.32,5.94.83-.43,4.81-1.41-.1-.05-2.86-4.13-.22-.94,8.08,5.85,1-1.06,5.74-1.24-.29.28-3.79-3.93-.52-2.26,7.75,4.92,2.49-2.42,5-1-.73,1.34-2.93-3.83-1.9-3.7,6.42,4,4-3.92,4.11L117,154l2-2.18-3-3-6.29,5,3.22,4.23-.38.53-3.32-1.33-1.59-2.1-1.9.84-1.49-.58c9.29-4.87,15.33-10.52,17.83-19,1.37-4.71,1.77-9.85,2.22-15,.23-2.69.47-5.39.86-8A40.29,40.29,0,0,1,128,101.12,48,48,0,0,1,136,88.58ZM86,91.79l6.37,3.37-.09,2.23-5.9-3Zm1.79.07,4.55.62v1.83Zm-20.49.06,2.65,1.19,2.25,2.6,1.69-1.11,1.82.69c-5.78,3-10.9,6.52-14.9,12.65-4.45,6.84-4.94,15.79-5.51,24.42-1,11.91-3,20.28-10.91,29.94l-1.17-.74,4.27-6.79-4.82-3.11,2.2-4L46,148l-.86,2.39,4,2.1L52.14,144l-5.62-1.75.94-5.36,1.41.13-.37,3.83,4,.64,1.15-9.05-5.42-.83.13-4.78,1.32.13v2.91l4.27.23.33-8.25-5.3-.59.65-5.83,1.49.15-.35,3.5,4.09.58,1.94-7.54-5.31-2.4,2.86-5.09,1.29.59L54.34,108,58,109.8l3.86-5.9L57.78,100l4-4.22,1,1-2.19,2.51,3,2.81,6-5-2.93-4.41Zm38.18.28-.19,2.11-6.4,3.63V95.87Zm34.32.07,1.41.88-1,1.21-1.24-.78Zm-37,.3-3.83,2.21v-2.2Zm45.16,2.06a1.1,1.1,0,0,1,.53.14.73.73,0,0,1-.11,1.18c-.56.39-2.12.37-2.27,0-.22-.59,1-1.3,1.85-1.28ZM86.8,95.5l5.5,3,0,2.09L87,97.65Zm17.91.07-.32,2.72-5.66,3,0-2.37Zm-27.4.05,2.26.57c-8.34,3.72-16.59,9.12-19.8,18.54a43.48,43.48,0,0,0-2.11,10c-.21,4.24-.76,8.41-1,11.94-.41,7.19-2.77,16.93-11,27.28l-.78-.61A46.26,46.26,0,0,0,54.2,145.6c2.55-9.43,1.29-19.82,4-29.31a32.08,32.08,0,0,1,10.27-15.4,57,57,0,0,1,8.84-5.27Zm3.79.79s0,0,0,0c2,6.82,4.53,19.25,4.53,19.25-5.36-2.59-14.28-2.12-14.28-2.12s-5-6.47-6-7c4-5.41,14.94-10.09,15.7-10.13Zm69,1.08c1.23,0,1.14,1.83-.42,3.11-.79.65-1.16.55-1.75,0a1.35,1.35,0,0,0-1-.35c-.87,0,.86-1.81,2.4-2.56a1.86,1.86,0,0,1,.82-.23ZM87.45,99l4.9,2.52.05,2.07-4.54-2.46Zm16.61.28-.26,2.28-5.1,2.65,0-2.09Zm47.75.85a.47.47,0,0,1,.43.19c.69.77-.63,3.12-2.13,3.82a1.11,1.11,0,0,1-1.41-.18c-.23-.2-.57-.47-.77-.45-.86.09-.38-.87.31-.93a13.62,13.62,0,0,0,2.3-1.67,3.07,3.07,0,0,1,1.27-.78Zm-5.18.91c1.08,0,1.48.88.19,1.27-.91.28-1.42.08-1.42-.53C145.6,101.16,146.15,101.09,146.63,101.05Zm-58.51,1.22,4.35,2.18,0,2.24-4-2.09Zm15.56.31-.3,2.11L98.7,107.1v-1.75Zm49.08.89c.3,0,.38.35.38.93a2.61,2.61,0,0,1-1.61,2.31c-.71.32-1.2.29-1.56-.09a1,1,0,0,0-.49-.31c-1.52-.06-1.27-.45.18-1.06a14.45,14.45,0,0,0,2-1.24,2.13,2.13,0,0,1,1.12-.54Zm-5.55.69c.74,0,1.4.52,1,.86a2.18,2.18,0,0,1-1.75.15C146,104.72,146.39,104.15,147.21,104.16Zm-58.37,1.5,3.71,2,0,2.12-3.54-2Zm14.22.16L103,108l-4.25,2.1,0-2.08Zm45.77.91c.72,0,.63.74,0,1.08a.89.89,0,0,1-1.23-.21C147.14,106.62,148.31,106.74,148.83,106.73Zm1.45,2.23a.67.67,0,0,1-.19.8,1.42,1.42,0,0,1-1.26-.24c-.1-.2-.08-.3.12-.5S150,108.56,150.28,109Zm-60.9,0,3.17,1.73,0,2.08-2.91-1.69Zm13.16,0-.15,2-3.69,1.83,0-2ZM64,110.32c.79,0,1.4.53.94,1.43-.29.56-.51.77-1.78,1.66a11.48,11.48,0,0,0-1,.74s-.36.27-.58.42c-1.13.78-.74-.85.67-3.26A2,2,0,0,1,64,110.32Zm38.27,1.79-.29,2.21L98.68,116v-2.13Zm-12.38.2,2.66,1.32,0,2.16-2.42-1.27Zm32,.17a.27.27,0,0,1,.22.1,4.29,4.29,0,0,1,0,2.37c-.38.88-1.1-1.33-1-1.89a1.22,1.22,0,0,1,.76-.58Zm-56,.4c1.08,0,1.86.72,1.5,1.81s-2.86,1.71-4,2.44c-.72.36-.89,0-.67-.65.1-.29.18-.51-.37-.59-1.32-.2-.51-.84,1.92-2.47a3,3,0,0,1,1.58-.54Zm53.4.69a2,2,0,0,1,1.34.75c.84.91,1.44,2.82,1,3.32-.35,0-.52.47-.54.68,0,.6-1.15-.5-2.19-2.23-.84-1.4-.43-2.51.41-2.52Zm-44.84.33c3.28,0,9.55.65,18.22,6.08a38.58,38.58,0,0,0,3.46,2.07,31.91,31.91,0,0,0,10.25,3.77l-.12,2.2c0,.69,1.11,4.7.58,7-.78,0,.75.66.75.66l1,2a58.46,58.46,0,0,1-7.57-.51c-3.82-.62-10.78-3.85-14.14-6.39a34.74,34.74,0,0,0-13.3-5.52l-.06-1.89a69.44,69.44,0,0,0-.81-7.35l-.83-2c.2.08,1.07-.07,2.57-.08Zm27.38,1.41-.25,2.17-2.89,1.35V117Zm14.39.1c.81,0,2,1,3.43,2.84a3.15,3.15,0,0,1,.61,1,.28.28,0,0,1-.34.34c-.55-.1-.75-.3-.91.39,0,.17.06.47-.12.42-1-.29-3.79-3.12-3.62-4,.13-.68.47-1,1-1Zm-25.72.14,2.11,1.12.09,2.14-1.87-.8Zm-22.63.65a1.18,1.18,0,0,1,1.26.74c.49,1.21-.39,1.94-3,2.48-2.26.54-2.22.57-1.9-.27.21-.55-.49-.62-.88-.76-.66-.25-.12-.33,1.78-1.28A7.35,7.35,0,0,1,67.87,116.2Zm-7.53.58c.07,0,.15,0,.26.19a8.64,8.64,0,0,1-1.72,12.66c-.48.31-.49,0-.44-.6l.08-1.18c0-.24,4.79-3.16,1.26-9.67l.3-.91c.09-.3.16-.48.26-.49ZM114.08,118c1.3,0,4.94,3.31,3.39,3.43-.18,0-.12.25-.12.4a2.34,2.34,0,0,1,0,.55c-.11.29-.54.23-1.19-.16a11.89,11.89,0,0,1-2.61-1.83c-1.13-1.07-.81-2.39.58-2.39Zm-12.83.57,0,1.78-2.59,1.26V120Zm-32.91,1.28c1.75-.06,2.73,1.68,1,2.6-.7.36-3,.11-4.07,0s-.49-.46-.42-.57c.16-.27.29-.31-.34-.69s-.78-.65.46-.81a24.33,24.33,0,0,0,2.59-.39A3,3,0,0,1,68.34,119.86Zm53.19.43c.13,0,.12.2.07.76l-.09,1.19c-.8.13-4.75,5-1.54,10.76l-.27,1c-.12.51-.16.58-.58.27-2.4-1.66-3.19-10.13,1.8-13.64C121.25,120.43,121.43,120.29,121.53,120.29Zm-9.39,1a4.32,4.32,0,0,1,1.69.44,8.56,8.56,0,0,1,2.76,1.61c.15.23-.08.42-.39.51s-.41.26-.31.7c0,.25.06.53-.25.55a8.06,8.06,0,0,1-3.22-1.1C110.18,122.79,110.48,121.25,112.14,121.28Zm-11.35,0v2.16l-2.14-1ZM65,123.17a9.18,9.18,0,0,1,.92.11,10.74,10.74,0,0,0,1.61.14c2.43,0,3.44,1.65,1.43,2.51-.54.24-.77.21-2.27-.22-.72-.21-1.6-.43-2-.53-.72-.21-1-.43-.5-.6s.49-.46.21-.86c-.07-.41.06-.56.56-.55Zm56.49,0c-.34,3.36-.62,6-1.13,9.26C120,132.28,117.39,126.09,121.52,123.17Zm-10.23,1.61a11.22,11.22,0,0,1,3.43.83c1.13.42,1.27.53.49.86-.47.2-.42.38-.27.69s.62.7,0,.61a21.61,21.61,0,0,1-3.39-.17c-1.83-.32-2.33-2-.83-2.74A1.32,1.32,0,0,1,111.29,124.78Zm-47.07.85a4.63,4.63,0,0,1,1,.27c3.29,1,4.63,2.29,3,3.51-.47.35-1.2.2-2.56-.56a12.73,12.73,0,0,1-2.37-1.49c-.26-.27-.11-.59.28-.56.55,0,.47-.24.42-.7S64,125.63,64.22,125.63Zm8.88.3,2.52.57L69.32,154a22.4,22.4,0,0,0-4.9,1.71l4.36-.76-.38,2-4,.75-.09.59,4.53-.82s-.16,1.88-.32,2.61c4.33-.35,8.6-1.56,13-1.59,0,0,.1-21.73.09-24.1,0-2.56,0-5.62,0-5.62L86,131.24l.72,27.39,13.65,2.22c-.09-.46-.47-2.58-.47-2.58,10.13,3,20.39,7.4,29.48,16.51-4.23,2.29-8.23,4.56-12.33,6.76l-.6.86A152.12,152.12,0,0,0,154,156.24v72.64H99.62v-6.77l0-6.05c-.22-3.89.46-8.17-.73-11.42l-.24-3.42c3.38-3.92,5.2-8.87,6.81-13.92,0,0,1.62-.63,2.41-.91l.27-1c-1.56.8-5.16,2.14-5.16,2.14.38-.3-7.66-3.68-12.63-4.48a49.6,49.6,0,0,0-28,4.4c-.43.3-.62.3-.51-.1a13.83,13.83,0,0,0-9.8-17,11.7,11.7,0,0,0-2.91-.46l.13.65c12.33,1.39,15.23,14.42,10.48,20.48-1.25,2-1.43,2.58,1.18,2.51,10.56-.08,14.23,11.71,9.42,18.24a7.66,7.66,0,0,1,.39.76,13.06,13.06,0,0,0-1.52-16.78c3.93-4.38,11.48-11.39,18-11,2.38.15,4.72,3,6.29,5.32,3.3,4.86,4.15,11.65,4.39,15.52,0,1,.19,1.75.19,2.28,0,1.55-.29,1.37-1.29,1.11a8.54,8.54,0,0,0-4.26.05c-2,.62-1.71.27.11-2,1.07-1.33,1.22-1.74.77-1.83-.13,0-.59.43-1.18,1.35-1.8,2.76-1.66,1.62-.36-2.69.84-2.8.76-3-1.54-4.74a17,17,0,0,1-1.78-1.31c-.44-.92-.62.24-.23,1s-.42,1.08-1.84.32C83.18,197.29,81,201,84,202.63c.7.38,1.09.07.55-.43-1.83-1.69-.55-3.11,1.92-1.62,1.42.87,2,.59,2.44-.49.27-.44,2.49,1.15,2.48,1.76a14.43,14.43,0,0,1-.51,2.57,44.44,44.44,0,0,0-1.21,4.79c-.55,2.88-.54,4.35.06,5.61a6.06,6.06,0,0,0,7.63,3,7.58,7.58,0,0,1,1.23-.3l0,2.08c-5.76,2.18-9.93,9-9.74,9.22H86.82a24.33,24.33,0,0,0-13.63-11.74c-1.19-1,.3,2.76,1.67,3.6,2.9,1.47,6.73,4.09,8.85,8.14l-1.46,0A23.81,23.81,0,0,0,76,222.75c-.51-.11.38,4.9,2.47,6.45l-37.56.66c2.56-10,3.06-21.16-2.95-35.75a28.5,28.5,0,0,0,13.44-2.53l-.36-1a27.32,27.32,0,0,1-14.74,2.12c3.84,7.11,7.21,21.88,3.93,36.22H26V150.94a9,9,0,0,1,1,.66,3.52,3.52,0,0,1,.85,1.55c.16.6.33.64,1.19,1.28.41.31.65.58.65.74a1.53,1.53,0,0,0,.25,1.07c.75.91.62,1.5.05,2.09-2.64,2.75-4.3,8.53-3,14.62,3.13-2.11,6.36-7.62,6.46-7.63l.31,7.53a3.27,3.27,0,0,0-2.22,2.56,5.44,5.44,0,0,1-2.8-.44l.63,2.22a3.62,3.62,0,0,0,.34,6.94s-.34,1.72-.63,2.65l2.42-.37c1.4,4.2,6.8,2.86,6.78-.07,0,0,1.64.61,2.26.89l-.6-2.87c6.14-3.06,1.54-7.07.14-7,0-.8.39-1.06.73-2l-2.48.16A4.44,4.44,0,0,0,36.13,173l-.34-10.78a31.74,31.74,0,0,0,6.2,4.61c2.3,1.2,2.53.93,2.19-1.14a9.86,9.86,0,0,1-.14-1.55c.86.2,3,3,2.93,4.41.79,1,1.51-1.74-.53-4.11a44.19,44.19,0,0,0,10.47-21.6L64.15,140l.09-.94c4.93-3.3,7.5-7.89,8.85-13.08Zm6,1.69,1.67.74-1.89.94Zm-16.05.45a10,10,0,0,1,1.47,1c1.42,1,2.25,1.75,2.27,2.38a1,1,0,0,1-.57.9c-.85.46-1.67.09-3.52-1.81a12.81,12.81,0,0,1-1.18-1.21c-.21-.31-.06-.61.3-.48C63.34,129.48,62,127.6,63.07,128.07Zm51,.39a4.08,4.08,0,0,1,.7,0c.4.08.52.31.27.53s-.28.69.11.87.16.4-.16.58a4.39,4.39,0,0,1-.87.35c-2.27.71-4,.5-4.39-.56-.5-1.22.46-1.81,3.24-1.81Zm-33.1.72,0,1.63L78.61,132l.26-1.66Zm-20,.51c.21,0,.55.33,1,.94,2.28,2.78,2.58,3.32,1.84,4.06s-2.13,0-3.46-2.41a7.42,7.42,0,0,0-.53-.9c-.49-.58-.27-.76.35-.71.34,0,.5-.09.51-.44s.09-.55.25-.54Zm54.52,1.41c.42,0,.39.15.2.63s-.37.56.23.83c.1.05.32.32.12.44a25.24,25.24,0,0,1-3.36,1.54c-1.49.5-2.41-.72-1.54-1.93.37-.5,2.89-1.42,4.15-1.5Zm-55.71,1.62c1.51,2.25,1.7,3.31.7,4-.63.48-2-.2-2.28-1.66a5.91,5.91,0,0,1,0-3.21c.55-1.4,1.4.68,1.56.91ZM81,131.78v1.77L78.12,135l.27-1.94Zm5.84.07,2.7,1.75.16,1.5-2.79-1.53Zm30.1,1.74c.07,0,.11,0,.11.12s-.06.94.35,1c.79.13.61.38-.09,1a13.63,13.63,0,0,1-2.34,1.94c-2.34.86-3.08-1.61-.86-2.89a8.94,8.94,0,0,1,2-.9A6.65,6.65,0,0,1,116.92,133.59Zm-30,.91L90,136.34l.11,1.85L87,136.61Zm-6,.17v1.61l-3,1.75.25-1.8ZM93.5,136c.86.41,12,3.49,15.63,2.44,0,0,3.14,4.53,5.47,6.15C111,149.85,98.81,155,98.81,155Zm25,.12c.21,0,.26.19.25.57,0,1.1-1.85,5.13-3.28,3.06-.4-.77,0-1.56,1.26-2.52a5.44,5.44,0,0,1,1.78-1.11Zm-60.38.63c.27.3.15,1.22-.44,1.16-.17,0-.2-.95-.09-1.46C57.72,136.35,58,136.64,58.08,136.73Zm22.83.52,0,2-3.62,2,.39-2.27Zm6,.28,3.59,1.91.42,2.27-4-2.06Zm-6,2.79v2.06l-4.07,2.09.28-2Zm6.06.18,4,2.28.53,2.14L87,142.61Zm-56.82.06a.62.62,0,0,1,.39,1.14c-.32.3-1.25.24-1.34,0C28.77,141.29,29.35,140.57,30.14,140.56Zm1.22,2.18a1.14,1.14,0,0,1,.27,0,.84.84,0,0,1,.48,1.2c-.54.72-1.95.22-1.74-.69C30.42,143,30.94,142.77,31.36,142.74Zm49.47.69v1.85l-4.43,2.33.29-2.06Zm6.26.26,4.56,2.45.35,2.07-4.9-2.55Zm-57.9.06a.48.48,0,0,1,.49.21,1.56,1.56,0,0,0,.51.71c.59.34.65.41-.47.91a13.62,13.62,0,0,0-1.73,1c-1,.67-1.4.45-1.47-.34-.1-1,1.72-2.49,2.67-2.54Zm3.43,1.51a1,1,0,0,1,.61.13.6.6,0,0,1,0,1c-.84.53-2.14-.2-1.45-.84a1.29,1.29,0,0,1,.8-.3Zm48.2,1,0,2.39-4.94,2.6.33-2.42Zm-50.64.28a1.33,1.33,0,0,1,.9.25,1.14,1.14,0,0,0,.85.49c.85,0,.58.35-.31.75a11,11,0,0,0-3,2.09c-.91.85-1,1-1.28.68-1.12-1.3,1.06-4.17,2.81-4.26Zm57,0,5.18,2.83.44,2.39-5.62-3.12Zm-53.58,1.69a.8.8,0,0,1,.56.17c.37.3.15.88-.36,1.14a1.45,1.45,0,0,1-1.35-.08c-.49-.49.4-1.21,1.15-1.23Zm-2.5,1.2c.31,0,.6.37.85.81.09.11.45.06.7.06,1,0,1.1.42.16.94A18.7,18.7,0,0,0,31,152.61c-1.63,1.55-2.51,1.19-2.3-.4a3.31,3.31,0,0,1,2.36-2.76Zm56.08.15,5.71,3.13.56,2.57-6.27-3.37Zm-6.29.05,0,2.37-5.37,2.84.42-2.41Zm6.38,3,6.39,3.87.23,2.52-6.62-3.81Zm-6.39.42v2.33l-5.94,3,.3-2.2Zm-48.22,1.54a1.12,1.12,0,0,1,.42.07c.69.32.51.88-.54,1.45s-1.43.48-1.66-.17S31.82,154.64,32.64,154.62Zm66.74.32c11.11,2.54,22,8,32.55,17.64l-2.2,1.56s-9.26-10.55-29.83-16.74ZM87.32,156l3.08,1.82v.46l-3.09-.25Zm-52.52,0a6.46,6.46,0,0,1,1.54.67c4.42,3.2,6.19,5.12,7.29,8.63.66,2.09.65,2-1.52.87a21.3,21.3,0,0,1-6.62-5.2,98.47,98.47,0,0,0,.34,12.24c2.76,1.36,1.87,4.91,1.86,4.89,7.11-1.94,5.55,7.44.25,5.42,1.27,7-6.8,6.47-6,.43-6.42-.25-5.28-7.24,0-6.27a3.55,3.55,0,0,1,2.18-4.55l-.3-9.22s-5.23,7.51-6.1,7.39c-.52-.07-1.29-.93,0-7.51.68-3.43,4.31-7.6,6.35-7.73a6.27,6.27,0,0,1,.65-.06Zm5.11.07.94.64L40,158.35l-1-.71Zm40.92.45,0,1.38-2.88.18ZM50.71,173.12c6.78,1,10.93,9.34,7.79,15.35-.38.27.21,1.57.59,1.08,3.3-4.68.84-16.2-8.8-17.3-2-.24-.18.35.42.87Zm1.1,2.21c-.55,1.49-.69,1.85.71,1.24,2.46.92,5.13,4.93,4.28,9-.28.47.2-.31.52,1C58.54,183.6,57.32,177.23,51.81,175.33Zm31.33,7.52a38.94,38.94,0,0,1,19.27,4.63c-1.86,1-7.79,2.47-7.79,2.47-3.32-3.73-5-7.47-11-5.56-6.31,1.63-12,7.09-15.18,10.71a14.48,14.48,0,0,0-7.78-2.53c-.16,0-.41.71-.21-.45a20.77,20.77,0,0,0,1.92-4.1A43.05,43.05,0,0,1,83.14,182.85Zm21.57,4.79a38.89,38.89,0,0,1-6.2,12.75l-.37-1.93a44.45,44.45,0,0,0,4.8-10.09ZM102,188.8c.18.29-2.76,7.29-4.21,8.56l-.57-1.81a37,37,0,0,0,2.88-6.13Zm-17.91,0c-.09,0-.13.09-.13.27,0,.64.67,1.14,1.89,1.42,1.65.37,4-.2,4-1,0-.45-.32-.48-1.26,0-1.19.54-2.23.44-3.78-.38a1.8,1.8,0,0,0-.68-.29Zm14.68,1.12a13.73,13.73,0,0,1-2,4.24l-.28-.89a33,33,0,0,0,1.5-3.17Zm-1.72.55a4.87,4.87,0,0,1-1,1.79l-.66-1.4Zm-10.44,1.3c-1.12,0-2.22.38-2.32,1,0,.28.38.17,2.46-.08,1.1-.13,1.62.52,2.63.45.51-.06,0-.53-.13-.67A4.27,4.27,0,0,0,86.63,191.78Zm-4.77,1.29c-.11,0,0,.31.43,1a4.9,4.9,0,0,1,.33,1.7c-.05,1.23-.05,1.2.56.48.39-.38,1.13-.3,2.32,0,.76.21.94.28,1.47-.05s.76-.19,1.29-.08a3.28,3.28,0,0,0,1.53-.26,2.06,2.06,0,0,1,1.41,0c.91.43.78.39.86-1.15s0-1.62-.89-1.11a2.72,2.72,0,0,1-2.74.26,3,3,0,0,0-2.63-.06c-1.22.36-1.77.49-2.74-.1a4.89,4.89,0,0,0-1.2-.68ZM62,195.36l.54.89c4.92,1.75,8.25,5.77,6.28,12.54l.47.75c2.46-6.82-.35-12.46-7.29-14.18Zm1.52,2.89.67,1.37c3.7,1.79,3.48,6.7,3.27,6.51l.58,1.28c.93-3.18-.76-7.88-4.52-9.16ZM79,205.58c-.15,0-.24,0-.28.15-.1.25.19.4,1.88,1.56,1.45,1,2.57,1.75,2.48,1.9a5.15,5.15,0,0,1-1.6-.32A7.35,7.35,0,0,0,75.88,210c-.36.24-.95,0-1.46-.16a2.17,2.17,0,0,0-.88-.05c-1.06.27,0,1.28,2.55,2.59,3.17,1.61,4.89,1.75,6.81.78,1.28-.66,1.74-.17.34.58-2.44,1.32-4.78.91-8.64-1.74-1.79-1.23-2.5-1-1,.15,2.7,2.1,7.89,4.68,11.08,1.53a2.49,2.49,0,0,1,.55,0c.66,0,.69-.21,0-1.3-.42-.66-1.26-1.35-.23-2.16.77-.61.72-.9-.22-1.18-.25-.07-.22.09-.6-.21C82,207,79.75,205.58,79,205.58Zm1,3.6a2.43,2.43,0,0,1,2.2,2.06c0,.12,0,.24.07.36l-.81,0c-.67-2.67-2.68-1.78-2.88-.22l-.73-.09c.27-1.49,1.21-2.17,2.15-2.14Zm16.71,2.28-.53.08c-.36-1-2-2.31-2.71.09l-.67,0C93.21,208.35,96.16,208.86,96.65,211.46Zm-4.12-1.35c.22.31-.16.83-.39,1.07s-.69,0-.89-.19a.6.6,0,0,1,.25-.81c.3-.16.81-.3,1-.07Zm-9.44.09c.23.51-.4.88-.48.71s-.3-.88-.23-.93.63.06.71.22Zm14.2-.08a.79.79,0,0,1,.78.57.65.65,0,0,1-.63.55.93.93,0,0,1-.61-1C97,210,97.09,210.11,97.29,210.12Zm-19.74.16c.12.18-.1.73-.15.8a2,2,0,0,1-.74,0,1.54,1.54,0,0,1,.11-.77c.2-.12.64-.19.78,0ZM90.72,212a.69.69,0,0,1,.35.13c2,1.32,4.64,1.91,6.51,1,.42-.21.7-.2.7,0s-.47.68-1.34.94c-1.93.58-5.12-.19-6.23-1.37-.32-.35-.27-.68,0-.67Zm-17.78,1.38c-.19,0-.26.11-.22.34.13.79,5.55,3.9,7.82,4.32a6.29,6.29,0,0,0,4.44-.47c2.77-1.61,2.06-3.78-.65-2.14-1.81,1.1-6.42.59-9.16-1A7.66,7.66,0,0,0,72.94,213.42Zm24.42,1.14c.69-.29,1-.39,1.13-.26.7.58-.44,1.49-2.52,1.84a4.88,4.88,0,0,1-4.57-1.08c-1.47-1.08-.78-1.61.07-1.12a6.14,6.14,0,0,0,5.89.62ZM73.42,218c4.8,1.72,10.25,5.86,12.68,10.89H84.62a23.4,23.4,0,0,0-10.28-9.09,3.6,3.6,0,0,1-.92-1.79Zm25.19,2.36v1.57a17.63,17.63,0,0,0-7.32,7l-1.68,0A19.83,19.83,0,0,1,98.61,220.32Zm0,2.39v1.93a13.71,13.71,0,0,0-4.53,4.21h-2a15.19,15.19,0,0,1,6.52-6.14Zm-22,1.49a14.6,14.6,0,0,1,4.66,4.69l-.77,0a27,27,0,0,0-3-3A4.42,4.42,0,0,1,76.65,224.2Zm22,1.23s0,0,0,0V227a11.3,11.3,0,0,0-2,1.84H95A9,9,0,0,1,98.61,225.43Zm0,2.55v.87h-1a3.81,3.81,0,0,1,1-.87Zm-19.75.22a1.79,1.79,0,0,1,.54.73l-.27,0Z"/><path id="path3052-2-5-5" class="cls-3" d="M37.87,194.24c3.33.09,10.37-1.16,10.26-1S70,229.49,69.08,229.14c-.28.45-28,.43-28,.43C40.5,229.58,47,216.12,37.87,194.24Zm9.9-25.57c10.64-8.82,21.79-8.88,33.76-10.09l.27-30,4.34,2.59.09,27.46a69.17,69.17,0,0,1,41.15,17.1c.14.22-16.95,9.36-24.43,11.78-5.82-4.27-21.15-7-31.32-3.68-2.79.9-6.22,2.34-9.55,3.41,2.41-14.47-8.88-16.6-12.86-17.27C48.73,169.91,48.13,168.84,47.77,168.67Zm-13.66,4.68a67.78,67.78,0,0,0-.25-9.32c-.06-.72-6.22,9.38-6.56,6.93-.87-6.13,2.18-13.93,7-14.88.48-.65,10,5.22,9.52,10.28-.14,1.65-8.45-5.57-8.48-5.14-.2.84.24,12.15.5,12.13,2.39,1.35,1.87,3.08,2.13,4.51,6.42-.94,6.06,6.17,0,5.95.37,8.4-7.43,4.6-5.89.13-7.86-.37-4-7.71-.08-6.1-.23-1.85.22-3.79,2.14-4.49Zm9-35.66c-.45-.18-16.77-1-16.77-1L27.21,97c8.33-19.13,39.68-10.18,34.7-6.11C46.92,100.65,44.64,118.54,43.13,137.69Zm30.09-16.32-.5-4.41c-1.27-2.74,33.36,13.25,33.76,13.59l1,4.71C107.68,137.33,85.45,126.88,73.22,121.37Zm63.06-7.83c-2.58,19.8-2.44,39.72-17.11,46.61,11,10.69,20.26,2.45,34.15-4.47.38,0-.46-42.4-.69-42.37C147.12,113.6,141.69,113.73,136.28,113.54Zm7.64-19.32c-2.73-.42-9.08-7-7.76-9,0-1.5,7.9,4.22,8.72,5.76-.41-.45-.46-14-.59-13.43-.3.16-2.4-1.34-1.85-4.16-6,1.33-5.7-6.5-.43-6.18-.68-7.12,8-4.5,5.7.27,7.45-1.37,6.16,7,.54,5.62.47,3.17-.83,4-2.66,4.68.12,1.33.61,10.19.61,10.19s5.51-8.43,5.9-7.71c1.41,2-.86,16-8.18,14Zm-25.51-31.1c-2.48,8.56,4.32,18.34,10.75,18.31,1.3-.2,3.77.5,2.92,1.19-10.14,8.21-33.82,9.92-33.82,9.56.24,10.09-.21,20.28-.45,30.36l-4.34-2.61c-.14-9.2-.36-18.61-.57-27.8-15.17-2-28.8-6.87-39.58-17.28,7.16-5.3,15.7-8.61,23.91-11.95,10.34,5.37,24.73,8.47,41.18.22Zm-7.48-40.67c-.48-.21,1.63-1.77,1.63-1.77s17.62.23,26.37.11c-3.19,13.07-.94,24.78,3.18,36-1.09-.25-8.33.33-10.1,1.12C131.73,58.22,111.15,22.77,110.93,22.45Z"/><path id="path3050-3-4-7" class="cls-1" d="M69.65,229.08l-21.3-36,3.2-1.39,22,37.41ZM31.74,181l3.08-3.16L37.91,181l-3.23,3Zm68.36-20.17-.43-2.57a66.05,66.05,0,0,1,29.55,16.19l-1.72,1.25C128,175.56,110.06,162.08,100.1,160.83Zm-35.26-2.34,3.5-.75-.11,2.16-3.4.67Zm71.46-1.9-2.12-1.71,1.53-1.81,2.06,1.63ZM64.2,139.17c5.27-2.5,9.39-12.56,8.87-13.23l2.87.68-6.63,27.57-4.59,1C64.7,149.92,64.2,144.44,64.2,139.17Zm34.68,15.59c-1.78-5.8-5.3-18.92-5.3-18.92.13.42,11.43,3.64,15.46,2.47a46.93,46.93,0,0,0,5.61,6.32A48.54,48.54,0,0,1,98.88,154.76Zm47.38-21.12-2-1.73,1.79-2.18,2.19,1.66Zm-26-1.15c-1.63-2.92-1.74-6.21,1.27-9.46Zm-61.88-5.08a31.41,31.41,0,0,1,1-8.51C61.14,122.05,61.12,125.21,58.37,127.41Zm45.52-2.72s4.37-20.27,6.27-28.22L115,95.35l-.21,16.42c-4.82,3.93-8.19,13.27-8,13.27Zm-70.35-3.37-2.11-2,1.79-2,1.86,1.91Zm37.86-7.9a58.37,58.37,0,0,0-5.81-6.79c3.6-5,9.57-7.9,15.89-10.17l4.29,19.05C80.93,114.05,75.71,112.47,71.4,113.42Zm-29.67-17,1.49-1.86,2,1.54-1.48,2Zm70-5.58,3-.67.11,2.34-3.62.66Zm-61-14.55,2.3-1.44A68.26,68.26,0,0,0,79.79,90l.32,2.71c-11-3.38-21-8.08-29.34-16.36Zm94.35-2.9-3-2.94,2.69-3,3.2,2.76A18.72,18.72,0,0,1,145.12,73.41ZM128.55,59.07,106.17,20.89l3.23,0,22,36.78Z"/><path id="path3048-5-8-9" d="M106,20.25l-5.35,0,30.36,61a6.45,6.45,0,0,1-2.43-.28c-7.29-1.91-11.79-9.62-10.14-17.17a6.17,6.17,0,0,0,.21-1.09c-18.79,8.51-30.43,5.37-41.28,0L72.7,64.5c.31-2.79,3.77-13.29,8.94-18.23V41l-.12-2.5-.41-4.54c-7.7,7.25-16.67,18.65-17.8,34.84,0,0-7,3.6-13,7.58.33,0,9.31,11,30.89,17.18L80.26,90a94.66,94.66,0,0,0,12.31,2.19l.61,27.64,5.15,3.05.17-30.6A70.68,70.68,0,0,0,111.07,91l-.62,3,4.29-.85v2.16l-4.7,1.1L103.35,125l3.9.87c1.14-5.76,4-10.43,8.2-13.28l0-1.1c2.68-1.92,8.24-3.45,8.28-3.41,1.9-9.28,6.32-15.71,11-21.82l-2.24-3L141.05,80,129.14,59.75c4.58-3.16,13.67-2,13.67-2-3.89-10.51-7.32-21.36-3.47-37.28l-33.14,0Zm10.87.66c0,2.66-3.48,2.38-3.9,0Zm21.3-.09C136,33,136.72,44.89,141.6,56.17c0,0-.71,0-.8,0s.09-.61,0-.77c-.1-.42-.8-.22-1.39.18a8.11,8.11,0,0,1-.74.46,17.67,17.67,0,0,1-3.68.28c1-.68,2.42-2.59,1.6-3.7-.19-.24-.3-.14-.48.18-.87,1.56-1.31,1.8-2.47,1.78-1.83,0-3.14-1.15-3-2.86s2.59-2.54,2.23-.93c-.1,1.44,1.32,1.72,1.58.29.1-.54,0-.29.14-.92,2.85-1.51,1.28-4.58-1.38-3.94-.63.16-.71.22-1.15,0-.82-.43-1.5-.29-1.81.3s.15.94.76.94.75.31.75.69c0,.88-1.53,1.3-2.53.79-2.66-1.36-1.68-4.89,1.41-4.87.94,0,1.33.06,1.37-.14.11-.57-1.32-1.56-2.13-1.41s-1.1.31-.74-.6a3.6,3.6,0,0,0,0-2.08c-.5-1-.48-.49-.79.33-1,1.69-2.55,2.06-3.87,1.14s-1.19-2.48,0-3.64c.81-.81,1.68-.26,1.19.64a.64.64,0,0,0,.32.93c.73.18,1.18-.25,1.19-1.13,0-.49-.15-.6.72-1.1a2.11,2.11,0,0,0-2-3.71c-.56.25-.69.5-1,.38-1.07-1-2.61.27-1.7.95a3.24,3.24,0,0,0,1,.27c.22.13.15.45-.17.84-1.07,1.25-3.48.64-4-1.13-.66-2.05,1.43-4.2,3-3,.47.36.88.39.89-.13a2.08,2.08,0,0,0-2.33-1.65c-1.33.09-1.18.26-.46-.94a2.66,2.66,0,0,0,0-2.73c-.36-.49-.73-.59-.69-.08a2.32,2.32,0,0,1-3.09,2.43A2.74,2.74,0,0,1,116,24.8c.66-1.31,2.27-1.44,2,0-.13.89.55,1.36,1.21.83.24-.19.29-.36.31-.93s-.24-.83.17-1.21c1.09-.14,1.15-2.45,1-2.55l17.44-.08Zm-19.45.08c.69,0,1.26.23,1.26.92a1.25,1.25,0,1,1-2.49,0C117.45,21.13,118,20.9,118.68,20.9ZM106.46,21h2.77l21.9,36.49-2.59,1.26ZM111,22.27a10.15,10.15,0,0,0,4.22,1.54,8.88,8.88,0,0,0-1,3.91Zm4.46,7.34c1.35.49,2.53,1.22,4.75.48a8.84,8.84,0,0,0-2.36,3.63ZM126.86,34a1.16,1.16,0,1,1-1.15,1.16A1.16,1.16,0,0,1,126.86,34Zm-7.09,2.88a7.93,7.93,0,0,0,3.14.55,5.87,5.87,0,0,0-.79,3.29Zm3.35,5.75a6.19,6.19,0,0,0,3.87.88,6.31,6.31,0,0,0-1.11,3.65Zm11,4.24a1.21,1.21,0,1,1-1.21,1.21A1.21,1.21,0,0,1,134.1,46.89Zm-6.8,2.72a5.36,5.36,0,0,0,2.48.61,8.12,8.12,0,0,0-.54,2.61Zm3.81,6.21a7.05,7.05,0,0,0,3.24.71,14.16,14.16,0,0,0-2.47.72ZM145,62.65c-2.83.18-3.49,2.35-3.15,4.56a3.48,3.48,0,0,0-3.91,4.2c.64,2.38,2.85,2.46,4.38,2.3a3.88,3.88,0,0,0,1.9,4.16l.32,12.34s-1-.95-1.71-1.63c-2.95-2.93-7.38-5.06-7.1-3.4,0,.24.13.86.2,1.37.47,2.79,4.22,5.81,6.78,7.33a8.13,8.13,0,0,1,1.48,1.05c-4.78,5.12-7.35,10.57-8,16-.6,5-1.08,9.56-1.55,14.18-2,23.18-11.9,29-12.37,30.14l-.19,3.09-2.78-.21-3.2,2.77c10.49,5.42,16.6,12,16.51,12.07A169.73,169.73,0,0,0,155,155.1l-.13-51.6a3.75,3.75,0,0,1-.71.2c-.52,0-.59.24-.77,1.22a3.64,3.64,0,0,1-.65,1.37c-.47.65-.31.32.28.56,1.35.54-.4,3-2.31,3.3-1.37.22-2.14.47-2.37.79-2.89,2.53-5.77,2.93-7.95,2a4.39,4.39,0,0,1-2.63-2.24c-.9-2.53,1-6.18,2.06-8.29a26.28,26.28,0,0,1,5.34-6.77l-.55-.59a4.59,4.59,0,0,0,.78,0c2.88-1,3-1.06,3.58-1.82a30.55,30.55,0,0,0,2.14-3.65c1.48-3.84,1.68-4.09,1.67-6.61,0-2-.14-3.41-.53-3.52-2.27,1.74-4.55,5.79-5.89,8.18-.46-3.54-.6-9.72-.6-9.72.48-.53,3.2-.23,2.6-4.66a3.29,3.29,0,0,0,4.81-2.88c-.17-3.59-2.93-3.49-5.18-3a3.37,3.37,0,0,0-3-4.65Zm0,.3c3,.09,3.54,3.36,1.73,5.21,0,0-1.18-.9-1.8-1.42-.59.47-.76.87-1.41,1.35a3.25,3.25,0,0,1-1.24-2.55A2.82,2.82,0,0,1,144.94,63Zm-67.58.1c12,6.69,27,7.17,40.72.35l-.17,1.13-1.51.85.85,1.56.48-.22v1c-11.33,6.12-30.3,7.38-45.15-2.78l1.29-.6s.29.21.57.38a22.43,22.43,0,0,0,2,1.14l.9-1.3s-1.37-.84-1.24-.89l1.22-.65Zm1,2-.68,1.56,1.71.91L80.1,66Zm-6.51.18c18.43,11.57,35.59,8.12,45.9,3.39l.13,1.23c-13.3,5.66-30.79,7.18-47.43-4Zm43.39.74-1.64.65.65,1.51,1.69-.72ZM69.7,66.3c15,9.66,31,11.55,48.36,4.47l.66,1.85c-16.86,6.77-34.66,6-50.92-5.52Zm11.51,0L80.54,68l1.85.71.55-1.59Zm31.5.67-1.63.53.51,1.55,1.68-.57Zm-28.66.45-.41,1.63,1.9.53L85.87,68Zm68.59,2.68c.26,2.76-3.84,4.1-5.38,1.52L148.61,70,147.4,68.9a2.81,2.81,0,0,1,5.24,1.25ZM67.39,67.56l4.47,3.07-3.25,5L63.8,72.44Zm77.45.14,2.83,2.46-2.6,3-2.66-2.69Zm-1.77.83-1.59,1.86,1.72,1.83a2.83,2.83,0,0,1-5.07-1.83C138.15,68.36,141.27,66.38,143.07,68.53ZM110,67.82l-1.7.51.39,1.49,1.76-.46Zm-23,.47-.32,1.61,2,.42.33-1.6Zm20.18.27-1.82.39.31,1.6,1.82-.38Zm37.85.38-1.5,1.47L145,72l1.5-1.55ZM90.14,69l-.23,1.62,2,.27.16-1.64Zm13.81.22-1.84.21.18,1.59,1.92-.25Zm-10.89.18,0,1.67,1.79.14V69.55Zm7.93.16-1.8.07v1.6l1.84-.11L101,69.55ZM68,69.57A1.92,1.92,0,1,0,70,71.49,1.92,1.92,0,0,0,68,69.57ZM98,69.62l-1.77,0v1.62H98L98,69.62Zm47.07,0,.78.78-.78.76-.8-.76Zm-77,.61a1.27,1.27,0,1,1-1.27,1.26A1.27,1.27,0,0,1,68,70.24Zm-6.84.1,2.55,2.08a48.36,48.36,0,0,1-3.39,4.85l-4.72-3.79,2.47-1.4a1.79,1.79,0,0,0-.21.86,1.89,1.89,0,1,0,2-1.88Zm-1.43,1.34a1.27,1.27,0,1,1-1.27,1.26A1.26,1.26,0,0,1,59.77,71.68Zm86.91.59a2.51,2.51,0,0,1,.87.53,2.86,2.86,0,0,1-2.35,4.56,2.68,2.68,0,0,1-1.55-4.8l1.5,1.42Zm-69.81.86,5.29,2-2,5.76-5.79-2.38Zm-21.76.6a64.12,64.12,0,0,0,74.58,7.94l1.36,0,.72.74A66.11,66.11,0,0,1,53.46,74.8Zm59.47,1.16,1.7,5.69-5.85,1.54-1.31-5.76Zm-61.69.21a64.83,64.83,0,0,0,26.71,15l.27,2.33C68.31,89,59.59,84.32,51.09,76.27Zm25.38.09a1.89,1.89,0,1,0,1.89,1.89A1.88,1.88,0,0,0,78.27,75.19Zm-9.42.42,5.46,2.89-2.72,5.44-5.8-3.11Zm9.4.2A1.27,1.27,0,1,1,77,77.08,1.26,1.26,0,0,1,78.25,75.81Zm9,.77,5.24.77-.24,5.81-6.12-.73C86.4,80.38,87.29,76.58,87.29,76.58Zm25.34.15a1.89,1.89,0,1,0,1.89,1.89A1.89,1.89,0,0,0,112.63,76.73Zm0,.62a1.27,1.27,0,1,1-1.27,1.27A1.27,1.27,0,0,1,112.61,77.35ZM70,77.43a1.89,1.89,0,1,0,1.89,1.89A1.9,1.9,0,0,0,70,77.43Zm33.54,0,.75,5.84-5.73.29-.34-5.83Zm41.07.52h.81a137.4,137.4,0,0,0,1,15.15c.09.65.13.84.07,1-.57,1-1.22-.26-1.48-3.12-.07-.79-.16-1.93-.25-2.69-.3-2.28-.2-10.29-.2-10.29Zm-96.84.09C39.1,83.43,24.77,96.26,24.86,96.56l.06,49.33L26,146l.92-1.82c-1.43-.35-1-3,1.72-3.59a9.32,9.32,0,0,0,2.25-.84,10.19,10.19,0,0,1,7.84-1.9c3.46.89,4.17,3.43,2.51,7.86-1.32,3.49-3.92,8-6.36,9.23l-.64.31a9.62,9.62,0,0,0,.78.65C41.79,152,45.19,138,45,129.32c.27-8.89,1.8-17.81,5.39-24.3,5.94-10.73,13.78-15,13.74-15.08S53.56,83.52,47.72,78.05Zm22.2,0a1.27,1.27,0,1,1-1.27,1.26A1.26,1.26,0,0,1,69.92,78.06Zm52.34.2,2,5.43L118.62,86l-2.05-5.7Zm-32.67,0a1.89,1.89,0,1,0,1.89,1.89A1.89,1.89,0,0,0,89.59,78.29Zm11.55.47A1.89,1.89,0,1,0,103,80.65,1.89,1.89,0,0,0,101.14,78.76Zm-11.57.15a1.27,1.27,0,1,1-1.27,1.27A1.27,1.27,0,0,1,89.57,78.91Zm11.54.47a1.27,1.27,0,1,1-1.27,1.27A1.27,1.27,0,0,1,101.11,79.38Zm19.32.65a1.89,1.89,0,1,0,1.89,1.89A1.9,1.9,0,0,0,120.43,80Zm0,.62a1.27,1.27,0,1,1-1.27,1.27A1.27,1.27,0,0,1,120.4,80.65Zm-40.11.1L86,82.2l-1.32,6-6.41-1.7Zm71.79-.16c.93,2.91-.77,6.64-.86,6.88-1,2.93-2.27,5.32-2.72,5.45s-.56.06-.56-.3a45,45,0,0,1,2.27-6.71,17.71,17.71,0,0,0,.81-2.67c0-.45-.44.28-.91,1.41-.91,2.24-2.24,4.65-2.53,6.83-.21,1.79-.55,1.53-.79-.59-.35-2.94.3-4.46,3.61-8.56.79-1,1.6-2,1.68-1.74ZM110.39,82.1,112,87.93l-6.69,1.14-1-5.9Zm-28,.59a1.89,1.89,0,1,0,1.9,1.89A1.89,1.89,0,0,0,82.34,82.69Zm10,.38,6.07.34,0,6.06-6.59-.28Zm-10,.24a1.27,1.27,0,1,1-1.27,1.27A1.27,1.27,0,0,1,82.32,83.31Zm25.47.54a1.89,1.89,0,1,0,1.89,1.89A1.89,1.89,0,0,0,107.79,83.85Zm-12.58.49a1.89,1.89,0,1,0,1.89,1.89A1.89,1.89,0,0,0,95.21,84.34Zm12.55.13a1.27,1.27,0,1,1-1.26,1.27A1.27,1.27,0,0,1,107.76,84.47ZM95.18,85a1.27,1.27,0,1,1-1.27,1.27A1.27,1.27,0,0,1,95.18,85Zm41.38.36.32,0c1.36,0,5.93,3.26,7.1,5.25,1,1.76.47,2.45-.65.89-1.54-1.72-4.39-4.27-4.76-4.27s.15.55,2,2.32,3.7,4,3.7,4.45-.36.23-.87-.08a19.21,19.21,0,0,1-2.6-1.86c-.3-.29-.87-.81-1.28-1.16-1.68-1.47-3.59-4.87-3-5.52a.18.18,0,0,1,.13,0ZM51.9,85.8a2.34,2.34,0,0,1,2.54,2.08c0,1,.1,1,1,1.05s3.23.3,3.23.3v2.69s-1.15,0-2.49-.07c-2.27-.11-2.26-.11-2.55.89a1.42,1.42,0,0,1-.73.9c-2,1.34-4-1.09-2.74-3.39.44-.79.46-1.06.16-1.53a2,2,0,0,1,1.6-2.91Zm.5,1.38a1.1,1.1,0,0,0-.78.36,1.77,1.77,0,0,0,0,1.84c.32.53.31.67-.07,1a1.6,1.6,0,0,0,0,2.29c.59.42,1.21-.14,1.21-1s.65-.91.65-.91l4.27.07v-.69L54.57,90a2.26,2.26,0,0,1-1.22-.26c-.35-.25-.75-.67-.37-1.18a.81.81,0,0,0-.58-1.4Zm-9.25,1.59,2,3.45,2.36.08.21,2.09,2.86,1.85L47.67,98l-.15,2.11-2.22.28-2.07,2.59-2-2.59H39.06l0-2.16-3-1.93,3.29-1.85,0-2.47,2.33-.16,1.54-3Zm71.49,1.57.1,2.08-3.31.59.43-2.12ZM93.41,92.43l4.47.14-.26,29.17H96.57l0-1.13-1.42,0-1.46-.87Zm-50.26.74-2.62,3.32,3.17,2.77L46.49,96Zm51.6.45V95h1.87V93.62ZM43.21,94.77l1.84,1.35L43.65,98l-1.78-1.54Zm71.53.76-.06,16c-6.14,4.82-8.05,13.29-8.05,13.29l-2.49-.15,6.34-28.12Zm-33.26.35C76,98.51,70.4,100.5,64.93,106.76a30.57,30.57,0,0,1,6.35,7.1c4.56-.67,9.63.14,15.16,2.32Zm13.27.36v1.39h1.87V96.24Zm-62,2a4.54,4.54,0,0,1,.18.88c4-.34,3,4.36.44,4.52-.3,0,.25.84.85,1.09a2.74,2.74,0,0,0,3.64-1.11,8.52,8.52,0,0,0,.82-1.18l2.5,1.33s.07,0-.37,1.11c-.81,2.08.37,4.64,1.27,2.78a2.42,2.42,0,0,1,2.88-1.15c1.15.48,1.55,2.53.74,3.82-.24.39-.25.47-.1.83a4.37,4.37,0,0,1,.13,2.39c-.31.59-.66.72-1.35.24a8.39,8.39,0,0,0-3.11-1.38c-2.88-.54-3.44-1.55-4.59-3.92-3.41,1-8.51-1.12-7.83-6.18.31-1.12.39-3.26-.18-3.7-1.11-.86.11-2.1,1.79-2.3,1.38-.14,2,1.17,2.29,1.93ZM81,96.78l4.44,18.58c-4.87-1.78-9.65-3.18-13.88-2.14a29.61,29.61,0,0,0-5.74-6.62c4.19-5,9.51-7.87,15.18-9.82Zm-50.2.91a1.44,1.44,0,0,0-1,.42,2,2,0,0,1,.46.59c.26.54.27.54,0,1.75-1.35,4.84,1.86,8,6.42,6.65,1.12-.35,1.08-.31,1.4,1,.54,2.17,2.07,3.29,5.11,3.7a2.15,2.15,0,0,1,.75.24c1.34.85.79-.28.43-.72a4.27,4.27,0,0,0-.74-.69s.4-.27.6-.37c.85-.46,1.18-2.24.47-2.62s-1.75.17-1.76.84c0,1.21-1.53,1.34-2.86.33-1.72-1.29-.2-4.55-.19-4.54l-1-.43c.13.12-2,3.19-4.7,2.12-1.86-.75-3.17-2.9-2.31-3.52.63-.17,1.38.18,1.86-.19,1-.75.18-2.06-1.18-2a8.82,8.82,0,0,0-.93.14,6.08,6.08,0,0,0,.15-1.63,1.12,1.12,0,0,0-1-1.06Zm64,1.41v1.15h1.85V99.11Zm0,2.36v1.18h1.87v-1.18Zm0,2.54v1.21h1.87V104Zm0,2.37v1.28h1.87v-1.28Zm0,2.38v1.19h1.87v-1.19Zm0,2.42v1.21h1.87v-1.21Zm-60.87,1.18L35.46,115l1.87.08.08,1.83,3.18,2.44-2.78,2-.2,2-2.21.07-1.79,3-2.2-2.64-1.77-.29-.2-2.4-2.72-2,2.56-2,.2-2.14,2.09.19Zm103.61,1.27a1.38,1.38,0,0,1,.55.15c.66.34.87.38,2.59.46,2,.1,2.7.28,3.69.94.59.4.63.4,1.27,0,2.8-1.86,6-.17,6.22,3.28a4.88,4.88,0,0,0,.51,2c.25.52.5.94.35,1.28-.44,1-2.6,1.09-3.77-.44a.91.91,0,0,0-.72-.33c-.58.22-2.08-1-2.06-1-.14.81-.21,1.46-.35,2.65l-2.62,0s-.05-.48-.17-2.15c-.14-1.92-.62-2.48-1.23-1.44a2.21,2.21,0,0,1-4-1.13c-.05-.72-.1-.81-.49-1.11-1.32-1-.94-3.16.26-3.14Zm-42.74.11v1.07h1.87v-1.07Zm43,1.14c-.52,0-.23,1,.63,1.44.49.28.49.28.42,1.12-.11,1.54,1.37,2.29,2,1a1.06,1.06,0,0,0,.11-.68c-.27-1.11,2.14-.81,2.72.34a6.42,6.42,0,0,1,.35,1.68c.07.68.09,1.46.09,1.46h.77s0-.47,0-.91c.19-1.91,1-3.11,2.18-3.11.48,0,.5.09.16.72-.58,1.06,0,1.83,1.32,1.84.85,0,.85,0,1.16.61s.61.88.94.75.23,0-.07-2.22c-.45-3.37-2.41-4.28-5.12-2.37-.76.54-.93.52-1.61-.13-1-1-1.67-1.21-3.66-1.29a12,12,0,0,1-2.08-.2.73.73,0,0,0-.37-.08Zm-64.32,1c-.45,0-1,.1-1.41.14a74.79,74.79,0,0,1,1,7.82c2.29-.39,5.24,0,9.14,1.79a60.81,60.81,0,0,1,8.38,5.18,29.55,29.55,0,0,0,10.52,4.42c4,.88,7.27.8,7.18.61A35.51,35.51,0,0,1,107,128a32.89,32.89,0,0,1-15.09-5.37C86.41,118.94,80.11,115.72,73.47,115.83Zm21.28.22v1.08h1.87v-1.08Zm-61.43.22-3,3.08,3.23,3.05,2.73-3.11Zm-.09,1.4,1.68,1.61L33.56,121l-1.89-1.63Zm41.77.25c.39,0,.78.28,2.08,1,1.1.76,2,1.23,1.66,0,.25-.34,1.46.77,2.89,1.47,1.72,1.38,1.73,1,2,.36.23-.5.55-.16,1.93,1.12,1.81,1.67,1.64,1.68,2,1.26.41-.78.55-.78,2,.92s1.86,2.07,2.18,1.34c.51-.38.77,0,2.85,1.94,1,1,1.26.86,1.45.18s.26-.55,2,.82c2,1.6,2.19,1.72,2.28,1.16.13-.88.75-.56,2.81.91,1.24.9,1.72,1.14,2,.92.27-.48-.67-1.4,1.34-.53l.55,2.92-.7-.2c-.42-.12-1.36-.44-1,.47.21.53-.3.46-1.86-.47-2.24-1.33-2.65-1.64-2.82-1.36-.3,1-.26,1.06-1.77-.12-1.75-1.34-2.11-1.7-2.35-1.25,0,1-.53.8-2.16-.61-1.39-1.21-1.68-1.84-2.3-.92-.17.33-.34.24-.57.08a32.71,32.71,0,0,1-2.89-2.8c-.36-.39-.56-.26-.86.06s-.29.21-1.19-.61c-2.13-2-2.53-2.45-2.83-2.18-.24.46,0,1.08-1.65-.21-2.05-1.48-3-2.14-2.81-1.17-.35.44-.1.52-2.16-.62s-2.21-1.41-2.49-1a.61.61,0,0,1-.85.34l-.39-3H74a4,4,0,0,1,1-.28Zm-15.7.25c-.16.46-1.24,3.11-1.25,9.85a7.62,7.62,0,0,0,2.8-4.85A10.44,10.44,0,0,0,59.3,118.17Zm35.45.19v1.23h1.87v-1.23Zm-35.32,1c2.38,3.77-.24,7.33-.89,7.58A35,35,0,0,1,59.43,119.33Zm62.46,3.17c-3.91,2.47-3.28,9.14-1.36,10.85A61.36,61.36,0,0,0,121.89,122.5Zm-.54.82-1,8.59C118.93,130.39,118.69,125.88,121.35,123.32ZM146,124.77l2.06,2.6,1.84.14.41,1.87,2.68,2.19-2.68,1.82-.24,2.08-2,.2-2,3.11-1.93-3.05-1.85-.2-.06-2-2.91-2.15,2.78-1.67,0-2.26h2.18Zm-73.2.81A20.07,20.07,0,0,1,64,139l0,.63-7.45,3a46.73,46.73,0,0,1-10.73,22l1.72,3.49L39.19,171,51.11,191.4c.82,0-5.77,3.12-13.73,2.31,5,12.33,6.07,25.11,3.28,36.29l39-.16L49.86,171.33l-.48-1c-.42-.77,15.85,2.28,12.39,17.37-.05.35.08.39.27.25,3.16-2.72,24.16-10.25,40.93-.31l5-2.06c-2.37,8.3-5.06,14-9.61,19l.77,11.82a50.25,50.25,0,0,0,17.94-34.74c3.62-1.76,6.77-3.76,10.14-5.65l.45.14,2.18-1.31c-7-7.66-21.3-15-30.46-16.91l.54,2.6a75.52,75.52,0,0,0-12.77-2.08L86.52,131l-5.09-3-.16,30.33a120,120,0,0,0-12.56,1.54l.4-2.59-4,.83L65,155.6l4.53-1.3,6.57-27.85Zm.55.62,2.09.43L69,153.94a28.41,28.41,0,0,1-3.87.86c-.29-5.12-.4-15.55-.4-15.55,6.41-5.35,7.42-9.14,8.68-13Zm-44.64,2c1,0,2,.7,2.1,1.34.17.4.31.57.57.6,1.64.23,1.69.66,1.74,1.61-.23,1.82,1,.29,1.33-1.51,0-.19,0-1.56,0-1.56l2,0s.07,1.43.1,1.66c.18,1.4.77,2.53,1.18,1.79,1.42-2.54,4.65-1.25,4.14,1.2-.12.58-.12.61.28,1.05a2.24,2.24,0,0,1,.67,2.14c-.21.65-.66.74-1.63.35a7.78,7.78,0,0,0-2.49-.29c-2.1-.06-2.23-.1-3-.89l-.51-.5-.89.52a4.14,4.14,0,0,1-4.38.11q-1.53-.8-1.77-3.72c0-1-.32-1.79-1-2-.34-.33,0-1,.63-1.57a1.58,1.58,0,0,1,.92-.28Zm117.11.29-2.75,3.44,3.28,2.94,3.05-3.59Zm-63.92.5,3.82,2.19.49,27.09-4.32-.12V129Zm-53.09.38c-.29,0-.1.49.11,1.2a3.31,3.31,0,0,1,.18,1.48c-.41,3,3,4.48,5.45,2.42.66-.75.76-.7,1.31.1s1.66,1.12,3.72,1c.93-.06,1.56.44,2,.11s0-.78-.56-1.11c-.34-.2-.36-.23-.29-.93.18-1.76-1.27-2.22-2.3-.74-.85,1.22-2.13.42-2.55-1.61-.24-1.55-.44-1.53-.62-.17-.2,1.65-2.38,3.44-3.25,2.62-.23-.23-.23-.17,0-1,.32-1.07.06-1.46-1.1-1.74a.79.79,0,0,1-.48-.35c-.61-.95-.59-1.28-1.59-1.28Zm117.29.63,1.75,1.51-1.52,1.8-1.87-1.43Zm-63,1v1.28h1.63V131Zm0,2.58v1.35h1.63v-1.35ZM93,135.1q2.74,10.22,5.52,20.4c1.74-.69,11.81-5.16,16.55-10.88a31.78,31.78,0,0,1-5.76-6.65c-4.75.78-10.2-.21-16.31-2.87Zm-9.85.81v1.26h1.63v-1.26Zm10.88.34c4.33,1.29,9.87,3.07,15,2.17a22.21,22.21,0,0,0,5.37,6.1c-3.86,4.21-9.44,7.41-15.22,9.88Zm41.07.49a1,1,0,0,1,.65.28,4.31,4.31,0,0,0,2.61,1,5.27,5.27,0,0,1,4.46,3.65c.21.79.32.84,1.44.55,4.26-1.07,7.53,2.46,6.52,7.16-.35,1.65-.46,1.84,0,2.5,1.09,1.16,1.32,1.18.14,2.2a2.35,2.35,0,0,1-3.67-1.07c-.44-.86-.43-.92-1.14-1a2.39,2.39,0,0,1-.05-4.72,3.73,3.73,0,0,0,.49,0c.74-.33-.81-2.09-2.09-1.82-1.57.33-2.36,1.34-3,2.92L139,146.93c.62-1.29,1.08-2.94.54-4-.44-.87-1-.9-1.16-.07-.4,1.94-2.81,2.52-4.4.94a2.39,2.39,0,0,1-.34-3.12c.43-.82.44-.88.26-1.23-.63-1.22.22-2.75,1.16-2.75Zm-52,1.58v1.32h1.64v-1.31Zm52.25.11c-.5,0-.5.5,0,1.09.41.42.49.61-.08,1a1.89,1.89,0,0,0-.38,2.42,1.23,1.23,0,0,0,2.27-.84c-.14-1,.6-1.37,1.78-1a3.23,3.23,0,0,1,1.86,4.37c-.12.36-.38,1.21-.38,1.21l.51.31s.6-1,.84-1.25c1.95-2.4,6.56-1.19,6,1.82-.08.94-.08,1.06-1.11.77-.68-.35-1.34.38-1.31,1.29a1.45,1.45,0,0,0,1.73,1.35c.78-.15,1-.13.92.93a1.72,1.72,0,0,0,.83,1.47c1.17.48,1.77-.19.84-1.16a2.16,2.16,0,0,1-.18-2.36,6.78,6.78,0,0,0-.45-4.54c-.93-1.83-3.56-2.6-5.75-1.68-1,.53-1.11.66-1.21-.28a5.2,5.2,0,0,0-4.49-4.25,13.11,13.11,0,0,1-2.26-.64Zm-52.25,2.39V142h1.64v-1.2Zm0,2.36v1.34h1.63v-1.34Zm0,2.61v1.33s.89,0,1.63,0v-1.33Zm53.39,2.14,1.79,2.64,2,.14.23,2.13,3,1.87-2.61,1.64,0,2.06-2.48.21-2.19,2.91L134.36,159h-1.87l-.44-2.29L128.74,155l3.39-1.93-.09-2.41,2.31,0,2.17-2.71Zm-53.39.31v1.37h1.63v-1.37Zm0,2.51v1.36h1.63v-1.36Zm52.38,1L133,155.17,136.4,158l2.75-3.45Zm-52.38,1.37v1.48h1.63v-1.48Zm52.65.18,1.78,1.37-1.27,1.62L134.52,155Zm-52.65,2.56v1.24h1.63v-1.24ZM34.47,156c-3.15,0-6.13,5.11-6.84,7.53-.85,3.1-1,8.7-.17,8.86,2.83-2,4.17-5.48,6.29-8.06.33,3,.27,8.73.27,8.73a6,6,0,0,0-1.93,1.71,3.23,3.23,0,0,0-.23,2.87c-1.57-.51-4.41.07-4.57,3,.1,4.08,4.56,3.5,4.57,3.45s-.87,4.34,3.08,4.81c1.42.16,3.92-.87,3.18-4.85,2.5.42,4.65-1,4.68-3.36a3.08,3.08,0,0,0-3.38-3.07,8.4,8.4,0,0,0-1.39.2,4.1,4.1,0,0,0-2-4.65l-.46-11.82s1,1.09,1.45,1.5a22.17,22.17,0,0,0,5.41,3.84c2.16,1.14,1.89.86,1.52-1.31-1-3.25-3.16-5.71-7.68-8.79a3,3,0,0,0-1.76-.56Zm.32.25L35.42,173h-.94l-.8-16.71Zm92.74.55h.26a2.18,2.18,0,0,1,1.65,3.46c-.37.4-.49.49-.3.74.87,1.1.38,2.86-.48,3.12-2.75.86-3.17-.65-3.16-2.42l-4.25-.16,0-2.47,4.69.09a1.76,1.76,0,0,1,1.57-2.37Zm-94.71,0h0c.44,0,0,1.21-1.24,3a29.78,29.78,0,0,0-2.34,4.21c-.75,1.89-1.26,5.28-.75,4.66.45-1.42.5-2,.89-3a41.77,41.77,0,0,1,3.41-6.12c.41-.37.52-.14.51,1.09,0,2.76-1.33,5.67-4.46,9.08A9.84,9.84,0,0,1,27.63,171c-.3,0-.29-.63-.29-1.95,0-5.22,2-9.89,4.94-11.89a1.28,1.28,0,0,1,.54-.25Zm3.16.24c1.37.4,3.83,2.6,4.85,3.73,1.17,1.27,2.75,4.78,2.47,5.32-.09.24-.29.2-1-.19-4.36-2.45-7.48-5.48-6.67-6.46.23-.27,1.17.29,2.43,1.46.85.75,1.72,1.52,2.5,2.29,1.23,1.21,1.5,1.38.77,0a19.93,19.93,0,0,0-4.82-4.94C35.6,157.65,35.39,157.09,36,157.1Zm91.82.7-.15,0c-.86.36-.51,1.48-.59,2.33l-4.72-.16,0,.65,4.43.24c.08.67-.27,2.11.3,2.35,1.24.52,1.91-1.08.86-2-.37-.33-.78-.48.26-.95a1.56,1.56,0,0,0,.21-2.24.91.91,0,0,0-.57-.21Zm-59.68.2-.24,1.75-2.74.69-.07-1.87Zm32.27.62c10.1,2.72,21.33,8.9,28.62,15.87l-1.46,1A69,69,0,0,0,100.8,160.5ZM83,158.89c16.64,0,31.8,6.42,44,16.86L125,177c-11.16-9.22-23.53-15.38-40.17-16.11-10.88-.48-23.29,2.31-35.52,9l-.91-1.66C60.3,161.81,72,158.92,83,158.89Zm-1.31,2.5,6.55.19-.41,6.08-5.94-.2Zm-7,.44.92,5.86-5.69,1.06-1.62-5.88Zm20.71.77,6.5,1.73-2.15,6L94,168.68Zm-10.41.09a1.87,1.87,0,1,0,1.86,1.86A1.86,1.86,0,0,0,84.94,162.69Zm0,.64a1.23,1.23,0,1,1-1.25,1.22A1.24,1.24,0,0,1,84.94,163.33Zm-12.91,0a1.87,1.87,0,1,0,1.87,1.87A1.87,1.87,0,0,0,72,163.34Zm0,.65a1.23,1.23,0,1,1,0,2.45A1.23,1.23,0,1,1,72,164Zm25.73.75a1.87,1.87,0,1,0,1.87,1.87A1.87,1.87,0,0,0,97.76,164.74ZM61.54,165l1.93,5.72L58,172.91l-2.07-5.65Zm36.22.43a1.23,1.23,0,1,1-1.24,1.22A1.23,1.23,0,0,1,97.76,165.39Zm10.81,1.37,5.85,3.09-3,5.46-5.45-2.84Zm-49,.49a1.87,1.87,0,1,0,1.86,1.87A1.87,1.87,0,0,0,59.59,167.25Zm22.1.18L82,173.2l-5.18.37-.94-5.74Zm6.21.3,5.91.82-1.39,5.56-5.35-.86Zm-28.31.17a1.23,1.23,0,1,1-1.25,1.22A1.23,1.23,0,0,1,59.59,167.9Zm19.34.75a1.87,1.87,0,1,0,1.87,1.86A1.87,1.87,0,0,0,78.93,168.65Zm-9.43.23L71,174.49l-5.7,1.64-1.75-5.41Zm20.67.09A1.87,1.87,0,1,0,92,170.84,1.87,1.87,0,0,0,90.17,169Zm-11.24.32a1.23,1.23,0,1,1-1.25,1.22A1.24,1.24,0,0,1,78.93,169.29Zm11.24.32a1.23,1.23,0,1,1-1.25,1.23A1.23,1.23,0,0,1,90.17,169.61Zm20,0a1.87,1.87,0,1,0,1.87,1.86A1.87,1.87,0,0,0,110.15,169.63Zm-10.11.54,5.71,2-2.28,5.33L98,175.37Zm10.11.1a1.23,1.23,0,1,1-1.24,1.22A1.24,1.24,0,0,1,110.15,170.27Zm-42.92.2a1.87,1.87,0,1,0,1.86,1.87A1.87,1.87,0,0,0,67.23,170.47Zm0,.65A1.22,1.22,0,1,1,66,172.34,1.22,1.22,0,0,1,67.23,171.12Zm34.57,1.09a1.87,1.87,0,1,0,1.87,1.86A1.87,1.87,0,0,0,101.8,172.21Zm0,.64a1.23,1.23,0,1,1-1.25,1.22A1.23,1.23,0,0,1,101.8,172.85ZM35,173.5a3,3,0,0,1,2.68,2.8c0,1.06-1.3,2.45-1.3,2.45l-1.58-1.46-1.51,1.4c-.25.08-1.43-1.92-1.07-2.95A2.9,2.9,0,0,1,35,173.5Zm84.84,0,4.52,3.7s-2,1.21-2.36,1.42a1.68,1.68,0,0,0,.07-.5,1.87,1.87,0,1,0-2.29,1.82l-1.08.61-2.39-2Zm-7.16,9.88-2,.82c-12.3-8.08-29.14-12.5-48.38-4.36l-.66-1.6C75.88,172.29,93.91,170.44,112.64,183.38Zm-1.09-8.07,4.84,3L113.32,183l-4.73-3Zm-1.46,9.15-2,.77c-15-9.65-31-9.14-45.33-3.36l-.22-1.35C79.34,173.23,96.25,175.55,110.09,184.46Zm10.07-7.57a1.23,1.23,0,1,1-1.24,1.23A1.24,1.24,0,0,1,120.16,176.89Zm-87.39,2.22-1.67,1.68,1.52,1.71a6.29,6.29,0,0,1-.83.6,2.78,2.78,0,0,1-4.08-2.48c.15-2.71,3.41-4,5.06-1.51Zm79.48-1.3a1.87,1.87,0,1,0,1.86,1.87A1.87,1.87,0,0,0,112.25,177.81Zm-72.72.08a2.82,2.82,0,0,1,2.78,2.47,2.87,2.87,0,0,1-1.6,2.76c-1.6,1-3.45-.6-3.41-.69l1.34-1.33L37,179.45A3.4,3.4,0,0,1,39.53,177.89Zm-4.65.32L37.63,181l-2.91,2.71L32,181Zm72.57,7.3-1.54.71L103.8,185l-.62,1.2,1.17.74-1.22.46c-14-7.89-29.89-5.6-40.43-.37l.09-.81,1.15-.59-.43-1.45-.61.18,0-1.61c15.05-6.77,32.13-5.22,44.6,2.81Zm4.8-7a1.23,1.23,0,1,1-1.25,1.22A1.24,1.24,0,0,1,112.25,178.46Zm-77.43,1-1.47,1.46,1.46,1.56L36.23,181Zm45.94.32-1.93.09.1,1.57,1.88,0Zm1.31,0,0,1.57h1.75v-1.55Zm3.09,0-.08,1.56,1.73.08.12-1.55Zm-7.47.2-2,.21.22,1.58,1.86-.22Zm10.7,0-.14,1.61,1.78.21.24-1.55Zm-53.56,0,.85.91-.85.85-.91-.89Zm39.54.48-1.9.3.2,1.62,1.85-.36Zm17.23,0-.32,1.5,1.77.43.29-1.54Zm-20.34.66-1.6.42.35,1.58,1.68-.41Zm23.37.06-.33,1.52,1.8.5.36-1.47Zm-26,.76-1.67.59.43,1.46,1.7-.57Zm29.12.17-.56,1.46,1.56.63.69-1.33ZM65.86,183l-1.58.65.65,1.45,1.51-.69Zm-32.65,0,1.6,1.6,1.91-1.72c1.66,1.47,1.64,4.91-1.31,5.49-2.57.5-4.92-3.35-2.2-5.37Zm67.39.31-.62,1.35,1.73.76.59-1.3ZM51.41,192l21.76,37-3.44-.06L48.67,193.19Zm-3.57,1.41,1.2,1.87c-2.35-1.88-5.82-.3-5.67,2.06.12,1.06,1,1.7,1,.69s1.4-2,2.49-1.94c2,0,3.25,2.62,1.86,3.91-.92.84-2.15.8-1.74-.35.07-.4,0-.55-.15-.72a.89.89,0,0,0-1.39.91c.17.5.22.62-.37,1-2.31,1.62-.7,4.81,2.09,3.36.57-.21.81-.24,1.07-.14,1.16.45,1.95-.56.85-1.08-.64-.31-.66-.83,0-1.24,1.32-.88,3.37.5,3.37,2.26,0,1.24-1.65,2.17-3.23,1.8-.94-.21-1,.42-.19,1.08,1.66,1.28,4.15.22,4.9-2.08a2.56,2.56,0,0,0,.2-.87l2.22,3.67a11,11,0,0,0-1.11-.46c-2.09-.64-4.43.72-4.44,2.57,0,.87.52,1.21.81.53a2.6,2.6,0,0,1,3.64-1.54A2.52,2.52,0,0,1,56.7,212c-.57,1.32-2.48,1.7-2.26.46.1-.59-.26-.95-.9-.9-.24,0-.55.73-.47,1.06s0,.39-.79,1c-1.94,1.51-.45,4,2,3.27a1,1,0,0,1,.93.06c.87.42,1.79.16,1.79-.51,0-.46-.2-.64-.75-.64-.83,0-.65-.94.27-1.4,2.3-1.15,4.65,1.75,3.25,4-.6,1-1,1.07-3.14.83-.34,0-.5.2-.29.49a3.38,3.38,0,0,0,3.63.69,3.88,3.88,0,0,0,2-3.36l2.43,4.25A3.27,3.27,0,0,0,58.69,223c0,.71.66,1.09.88.5a2.45,2.45,0,0,1,4.72,1,1.6,1.6,0,0,1-.37,1.08c-.69,1.33-2.45,1.65-2.13.47.14-.37-.14-.77-.62-.89s-.78.29-.77,1c0,.54,0,.71,0,.71A2.69,2.69,0,0,0,58.79,229l-17,0c2-11.81,1.55-22.48-2.32-32.57l-.82-2.15,3,.08c.73.63,3.47.39,4.54-.58Zm2.89,4.64,1.76,3.16a5.83,5.83,0,0,0-2.6-.79A6.86,6.86,0,0,0,50.73,198.06Zm-4.62,3.36a1.16,1.16,0,1,1-1.17,1.16A1.16,1.16,0,0,1,46.11,201.42Zm12.13,9.44,1.7,3a6.78,6.78,0,0,0-2.81-.73A6.61,6.61,0,0,0,58.24,210.86Zm-4.89,3.24a1.1,1.1,0,1,1,0,2.19,1.1,1.1,0,0,1,0-2.19Zm12.29,9.4,2.5,4.44a5.58,5.58,0,0,0-3.37-1.14A5.89,5.89,0,0,0,65.64,223.5ZM62.31,229H59.62C60.16,226.7,62.33,227.31,62.31,229Zm2.54-1.13A2.53,2.53,0,0,1,67,229.06H63.66A1.17,1.17,0,0,1,64.85,227.91Z"/><path id="path163-0-2-5-8-7-5-8-8-7" class="cls-1" d="M48.26,64.7s-3.76-6.14-8.84-13.36C36,46.51,33.31,41.29,33.06,36.78c-.29-5.14,2.45-10.31,7.41-10.56s7,4,7.79,7.45c.82-3.48,2.83-7.7,7.79-7.45s7.7,5.42,7.41,10.56c-.25,4.51-3,9.73-6.36,14.56C52,58.56,48.26,64.7,48.26,64.7Z"/><path id="path163-0-2-5-8-7-7-8-4-8-6" class="cls-1" d="M131.74,185.3s-3.76,6.14-8.84,13.36c-3.39,4.82-6.11,10.05-6.36,14.56-.29,5.14,2.45,10.31,7.41,10.56s7-4,7.79-7.45c.82,3.48,2.83,7.7,7.79,7.45s7.7-5.42,7.41-10.56c-.25-4.51-3-9.74-6.36-14.56C135.51,191.44,131.74,185.3,131.74,185.3Z"/></g></svg>