<?xml version="1.0" encoding="utf-8"?>
<!-- Generator: Adobe Illustrator 23.0.1, SVG Export Plug-In . SVG Version: 6.00 Build 0)  -->
<svg version="1.1" xmlns="http://www.w3.org/2000/svg" xmlns:xlink="http://www.w3.org/1999/xlink" x="0px" y="0px"
	 viewBox="0 0 180 250" style="enable-background:new 0 0 180 250;" xml:space="preserve">
<style type="text/css">
	.st0{fill:#FFFFFF;}
	.st1{fill:#E2CF00;}
	.st2{fill:#131F67;}
	.st3{fill:#D40000;}
	.st4{fill:#100F08;}
</style>
<g id="white-background">
	<rect class="st0" width="180" height="250"/>
</g>
<g id="Layer_1">
	<g id="g11270-7-7_1_" transform="matrix(0.99553774,0,0,0.99680134,-74.622859,318.48631)">
		<path id="path10038-5-0_1_" class="st3" d="M88.9-263.2c0,0-1.8-2.6-4.2-5.6c-1.6-2-2.9-4.2-3-6.1c-0.1-2.2,1.2-4.3,3.5-4.4
			c2.4-0.1,3.3,1.7,3.7,3.1c0.4-1.5,1.4-3.2,3.7-3.1c2.4,0.1,3.7,2.3,3.5,4.4c-0.1,1.9-1.4,4.1-3,6.1
			C90.7-265.8,88.9-263.2,88.9-263.2z"/>
		<path id="path10040-7-6_1_" class="st3" d="M241.8-125c0,0-1.8,2.6-4.2,5.6c-1.6,2-2.9,4.2-3,6.1c-0.1,2.2,1.2,4.3,3.5,4.4
			c2.4,0.1,3.3-1.7,3.7-3.1c0.4,1.5,1.4,3.2,3.7,3.1c2.4-0.1,3.7-2.3,3.5-4.4c-0.1-1.9-1.4-4.1-3-6.1
			C243.6-122.4,241.8-125,241.8-125z"/>
		<path id="path10046-1-1_1_" class="st3" d="M123.4-254.6c0,0-3.8-6.2-8.9-13.4c-3.4-4.8-6.1-10.1-6.4-14.6
			c-0.3-5.2,2.5-10.3,7.4-10.6c5-0.3,7,4,7.8,7.5c0.8-3.5,2.8-7.7,7.8-7.5c5,0.3,7.7,5.4,7.4,10.6c-0.3,4.5-3,9.8-6.4,14.6
			C127.2-260.8,123.4-254.6,123.4-254.6z"/>
		<path id="path10048-2-0_1_" class="st3" d="M207.3-174.8c0,0-3.8-6.2-8.9-13.4c-3.4-4.8-6.1-10.1-6.4-14.6
			c-0.3-5.2,2.5-10.3,7.4-10.6c5-0.3,7,4,7.8,7.5c0.8-3.5,2.8-7.7,7.8-7.5c5,0.3,7.7,5.4,7.4,10.6c-0.3,4.5-3,9.8-6.4,14.6
			C211.1-181,207.3-174.8,207.3-174.8z"/>
		<path id="path10052-3-1_1_" class="st3" d="M207.3-254.6c0,0-3.8-6.2-8.9-13.4c-3.4-4.8-6.1-10.1-6.4-14.6
			c-0.3-5.2,2.5-10.3,7.4-10.6c5-0.3,7,4,7.8,7.5c0.8-3.5,2.8-7.7,7.8-7.5c5,0.3,7.7,5.4,7.4,10.6c-0.3,4.5-3,9.8-6.4,14.6
			C211.1-260.8,207.3-254.6,207.3-254.6z"/>
		<path id="path10056-4-2_1_" class="st3" d="M123.4-174.8c0,0-3.8-6.2-8.9-13.4c-3.4-4.8-6.1-10.1-6.4-14.6
			c-0.3-5.2,2.5-10.3,7.4-10.6c5-0.3,7,4,7.8,7.5c0.8-3.5,2.8-7.7,7.8-7.5c5,0.3,7.7,5.4,7.4,10.6c-0.3,4.5-3,9.8-6.4,14.6
			C127.2-181,123.4-174.8,123.4-174.8z"/>
		<path id="path10066-9-2_1_" class="st3" d="M207.3-133.6c0,0-3.8,6.2-8.9,13.4c-3.4,4.8-6.1,10.1-6.4,14.6
			c-0.3,5.2,2.5,10.3,7.4,10.6c5,0.3,7-4,7.8-7.5c0.8,3.5,2.8,7.7,7.8,7.5c5-0.3,7.7-5.4,7.4-10.6c-0.3-4.5-3-9.8-6.4-14.6
			C211.1-127.5,207.3-133.6,207.3-133.6z"/>
		<path id="path10068-1-2_1_" class="st3" d="M123.4-133.6c0,0-3.8,6.2-8.9,13.4c-3.4,4.8-6.1,10.1-6.4,14.6
			c-0.3,5.2,2.5,10.3,7.4,10.6c5,0.3,7-4,7.8-7.5c0.8,3.5,2.8,7.7,7.8,7.5c5-0.3,7.7-5.4,7.4-10.6c-0.3-4.5-3-9.8-6.4-14.6
			C127.2-127.5,123.4-133.6,123.4-133.6z"/>
		<path id="path23-5-2-7-3_1_" class="st3" d="M81.1-290c-0.3-2.2-0.3-8-0.1-9.7c0.8-5.2,2.8-7.6,6.2-8.4c3.3-0.8,7.9,0.1,8.9,4.5
			l-2.7,0.1c-1.5-3-5.2-2.2-7.3-0.9c-1.7,1-2.4,5.3-2.1,5.6c0,0,3.2-2.3,5.7-2.2c5.4,0.6,7.6,5.2,7.4,9.5c-0.2,5.2-1.8,9.4-7.5,9.7
			C84.1-282,81.6-285,81.1-290L81.1-290L81.1-290z M94.4-291.4c0-3.6-1.6-6.4-4.8-6.7c-3.1-0.3-6.3,2.8-6.1,6.5
			c0.2,3.7,1.7,6.9,5.5,6.8C93.1-284.8,94.4-288.8,94.4-291.4L94.4-291.4L94.4-291.4z"/>
		<path id="path23-6-5-1-7-1_1_" class="st3" d="M249.7-98.2c0.3,2.2,0.3,8,0.1,9.7c-0.8,5.2-2.8,7.6-6.2,8.4
			c-3.3,0.8-7.9-0.1-8.9-4.5l2.7-0.1c1.5,3,5.2,2.2,7.3,0.9c1.7-1,2.4-5.3,2.1-5.6c0,0-3.2,2.3-5.7,2.2c-5.4-0.6-7.6-5.2-7.4-9.5
			c0.2-5.2,1.8-9.4,7.5-9.7C246.7-106.2,249.1-103.2,249.7-98.2L249.7-98.2L249.7-98.2z M236.3-96.8c0,3.6,1.6,6.4,4.8,6.7
			c3.1,0.3,6.3-2.8,6.1-6.5c-0.2-3.7-1.7-6.9-5.5-6.8C237.6-103.5,236.4-99.4,236.3-96.8L236.3-96.8L236.3-96.8z"/>
	</g>
</g>
</svg>
