<?xml version="1.0" encoding="utf-8"?>
<!-- Generator: Adobe Illustrator 23.0.1, SVG Export Plug-In . SVG Version: 6.00 Build 0)  -->
<svg version="1.1" xmlns="http://www.w3.org/2000/svg" xmlns:xlink="http://www.w3.org/1999/xlink" x="0px" y="0px"
	 viewBox="0 0 180 250" style="enable-background:new 0 0 180 250;" xml:space="preserve">
<style type="text/css">
	.st0{fill:#FFFFFF;}
	.st1{fill:#E2CF00;}
	.st2{fill:#131F67;}
	.st3{fill:#D40000;}
	.st4{fill:#100F08;}
</style>
<g id="white-background">
	<rect class="st0" width="180" height="250"/>
</g>
<g id="Layer_1">
	<g id="g5431_2_" transform="translate(3.9868881,-5.5524942)">
		<path id="path147-0-8-1-6-7-2-5-9-2_2_" d="M86,32.1c-7.9,0.2-11.5,9-5.6,15.9c0.9,1,0.9,1.6-0.6,0.6c-3.9-2.6-11.5-0.9-11.9,7.1
			c-0.5,9.9,13.4,12.7,16,2.2c0.1-1.1,1-1.1,0.8,0.5c-0.2,4.3-1.6,8.3-3.4,12.1c3.1,0,6.6,0,9.4,0c-1.8-3.9-3.2-7.9-3.4-12.1
			c-0.2-1.6,0.7-1.6,0.8-0.5c2.6,10.5,16.5,7.7,16-2.2c-0.4-8-8-9.7-11.9-7.1c-1.6,1-1.5,0.4-0.6-0.6C97.5,41.1,93.9,32.3,86,32.1
			C86,32.1,86,32.1,86,32.1L86,32.1z"/>
		<path id="path147-0-8-1-6-1-4-3-4-3_2_" d="M86,229.7c-7.9-0.2-11.5-9-5.6-15.9c0.9-1,0.9-1.6-0.6-0.6c-3.9,2.6-11.5,0.9-11.9-7.1
			c-0.5-9.9,13.4-12.7,16-2.2c0.1,1.1,1,1.1,0.8-0.5c-0.2-4.3-1.6-8.3-3.4-12.1c3.1,0,6.6,0,9.4,0c-1.8,3.9-3.2,7.9-3.4,12.1
			c-0.2,1.6,0.7,1.6,0.8,0.5c2.6-10.5,16.5-7.7,16,2.2c-0.4,8-8,9.7-11.9,7.1c-1.6-1-1.5-0.4-0.6,0.6
			C97.5,220.7,93.9,229.5,86,229.7C86,229.7,86,229.7,86,229.7L86,229.7z"/>
		<path id="path147-0-8-1-6-1-1-0-4-8-8_2_" d="M86,111.6c-7.9,0.2-11.5,9-5.6,15.9c0.9,1,0.9,1.6-0.6,0.6
			c-3.9-2.6-11.5-0.9-11.9,7.1c-0.5,9.9,13.4,12.7,16,2.2c0.1-1.1,1-1.1,0.8,0.5c-0.2,4.3-1.6,8.3-3.4,12.1c3.1,0,6.6,0,9.4,0
			c-1.8-3.9-3.2-7.9-3.4-12.1c-0.2-1.6,0.7-1.6,0.8-0.5c2.6,10.5,16.5,7.7,16-2.2c-0.4-8-8-9.7-11.9-7.1c-1.6,1-1.5,0.4-0.6-0.6
			C97.5,120.7,93.9,111.8,86,111.6C86,111.6,86,111.6,86,111.6L86,111.6z"/>
		<path id="path147-6-9-8-7-0-5-5-1-4_2_" d="M162.1,215.5c3.2-0.1,4.6-3.8,2.2-6.6c-0.3-0.4-0.4-0.7,0.2-0.3c1.6,1.1,4.6,0.4,4.8-3
			c0.2-4.1-5.4-5.3-6.4-0.9c-0.1,0.5-0.4,0.5-0.3-0.2c0.1-1.8,0.6-3.4,1.4-5.1c-1.3,0-2.5,0-3.8,0c0.7,1.6,1.3,3.3,1.4,5.1
			c0.1,0.7-0.3,0.7-0.3,0.2c-1-4.4-6.6-3.2-6.4,0.9c0.2,3.3,3.2,4.1,4.8,3c0.6-0.4,0.6-0.2,0.2,0.3
			C157.5,211.7,159,215.4,162.1,215.5C162.1,215.5,162.1,215.5,162.1,215.5L162.1,215.5z"/>
		<path id="path147-6-9-8-7-4-5-8-2-3_2_" d="M9.9,45.6c-3.2,0.1-4.6,3.8-2.2,6.6C8,52.7,8,52.9,7.4,52.5c-1.6-1.1-4.6-0.4-4.8,3
			c-0.2,4.1,5.4,5.3,6.4,0.9c0.1-0.5,0.4-0.5,0.3,0.2C9.3,58.4,8.8,60,8,61.7c1.3,0,2.5,0,3.8,0c-0.7-1.6-1.3-3.3-1.4-5.1
			c-0.1-0.7,0.3-0.7,0.3-0.2c1,4.4,6.6,3.2,6.4-0.9c-0.2-3.3-3.2-4.1-4.8-3c-0.6,0.4-0.6,0.2-0.2-0.3C14.5,49.4,13.1,45.7,9.9,45.6
			C9.9,45.6,9.9,45.6,9.9,45.6L9.9,45.6z"/>
		<path id="path17-9-7-6-4_2_" d="M1.3,37.3l2-1.5c1.8,2.9,3.8,4.8,6.8,4.4c4.6-0.3,6.5-5.1,5.5-8.7c-0.9-3.2-4.7-4.8-7.7-3.1
			c-0.7,0.4-1.4,0.7-1.5,0.7c-0.3,0-1-1.4-0.9-1.8c2-2.9,6.9-8.1,6.9-8.1H4.7v3.4H1.8v-6.2h15v2.1c0,0-4,4.1-5.3,6.4
			c3.3,0.1,5.9,2.2,6.8,5.4c0.6,1.7,0.3,5.6-0.4,7.3c-1.2,2.8-4.5,5.1-7.5,5.2C5.3,43.4,2.6,39.9,1.3,37.3L1.3,37.3L1.3,37.3z"/>
		<path id="path17-5-0-1-5-7_2_" d="M170.8,223.8l-2,1.5c-1.8-2.9-3.8-4.8-6.8-4.4c-4.6,0.3-6.5,5.1-5.5,8.7
			c0.9,3.2,4.7,4.8,7.7,3.1c0.7-0.4,1.4-0.7,1.5-0.7c0.3,0,1,1.4,0.9,1.8c-2,2.9-6.9,8.1-6.9,8.1h7.6v-3.4h2.9v6.2h-15v-2.1
			c0,0,4-4.1,5.3-6.4c-3.3-0.1-5.9-2.2-6.8-5.4c-0.6-1.7-0.3-5.6,0.4-7.3c1.2-2.8,4.5-5.1,7.5-5.2
			C166.8,217.7,169.4,221.2,170.8,223.8L170.8,223.8L170.8,223.8z"/>
	</g>
</g>
</svg>
