<svg id="Layer_1" data-name="Layer 1" xmlns="http://www.w3.org/2000/svg" viewBox="0 0 180 250"><title>all_cards</title><g id="g8526-6-2"><path id="path7225-5-2" d="M48.26,26.21c-7.44,10.55-15.4,16.62-15.53,24.85,0,2.67,1.4,7.2,5.94,8.06,2.95.56,7-1.8,7.09-6.62,0-1,1-.93,1,.38A27.25,27.25,0,0,1,43.39,64.7h9.74a27.25,27.25,0,0,1-3.38-11.82c0-1.31,1-1.34,1-.38.09,4.82,4.14,7.18,7.09,6.62,4.54-.86,6-5.39,5.94-8.06C63.66,42.83,55.7,36.76,48.26,26.21Z"/><path id="path7227-2-8" d="M13.88,40.07C10.41,44.46,6.69,47,6.63,50.42a3.33,3.33,0,0,0,2.78,3.36A2.87,2.87,0,0,0,12.71,51c0-.4.48-.39.48.16a10.48,10.48,0,0,1-1.58,4.92h4.55a10.48,10.48,0,0,1-1.58-4.92c0-.55.48-.56.47-.16a2.88,2.88,0,0,0,3.31,2.76,3.34,3.34,0,0,0,2.78-3.36c-.06-3.43-3.78-6-7.26-10.35Z"/><path id="path7229-4-8" d="M48.26,170.76c-7.44-10.55-15.4-16.62-15.53-24.85,0-2.67,1.4-7.2,5.94-8.06,2.95-.56,7,1.81,7.09,6.62,0,1,1,.93,1-.38a27.25,27.25,0,0,0-3.38-11.82h9.74a27.25,27.25,0,0,0-3.38,11.82c0,1.31,1,1.34,1,.38.09-4.81,4.14-7.18,7.09-6.62,4.54.86,6,5.39,5.94,8.06C63.66,154.14,55.7,160.21,48.26,170.76Z"/><path id="path7231-7-8" d="M166.12,209.93c-3.48-4.39-7.2-6.92-7.26-10.35a3.34,3.34,0,0,1,2.78-3.36A2.88,2.88,0,0,1,165,199c0,.4.48.39.47-.16a10.36,10.36,0,0,0-1.58-4.92h4.55a10.46,10.46,0,0,0-1.57,4.92c0,.55.47.56.47.16a2.88,2.88,0,0,1,3.31-2.76,3.32,3.32,0,0,1,2.77,3.36c-.06,3.43-3.78,6-7.25,10.35Z"/><path id="path7233-8-9" d="M131.74,26.21c-7.44,10.55-15.4,16.62-15.53,24.85,0,2.67,1.41,7.2,6,8.06,2.94.56,7-1.8,7.08-6.62,0-1,1-.93,1,.38a27.25,27.25,0,0,1-3.38,11.82h9.75a27.11,27.11,0,0,1-3.38-11.82c0-1.31,1-1.34,1-.38.08,4.82,4.14,7.18,7.08,6.62,4.54-.86,6-5.39,5.94-8.06C147.14,42.83,139.18,36.76,131.74,26.21Z"/><path id="path7235-9-4" d="M48.26,79.24c-7.44,10.55-15.4,16.62-15.53,24.85,0,2.67,1.4,7.2,5.94,8.06,2.95.56,7-1.81,7.09-6.62,0-1,1-.93,1,.38a27.25,27.25,0,0,1-3.38,11.82h9.74a27.25,27.25,0,0,1-3.38-11.82c0-1.31,1-1.34,1-.38.09,4.81,4.14,7.18,7.09,6.62,4.54-.86,6-5.39,5.94-8.06C63.66,95.86,55.7,89.79,48.26,79.24Z"/><path id="path7241-7-2" d="M131.74,79.24c-7.44,10.55-15.4,16.62-15.53,24.85,0,2.67,1.41,7.2,6,8.06,2.94.56,7-1.81,7.08-6.62,0-1,1-.93,1,.38a27.25,27.25,0,0,1-3.38,11.82h9.75a27.11,27.11,0,0,1-3.38-11.82c0-1.31,1-1.34,1-.38.08,4.81,4.14,7.18,7.08,6.62,4.54-.86,6-5.39,5.94-8.06C147.14,95.86,139.18,89.79,131.74,79.24Z"/><path id="path7245-1-6" d="M48.26,223.79c-7.44-10.55-15.4-16.62-15.53-24.85,0-2.67,1.4-7.2,5.94-8.06,2.95-.57,7,1.8,7.09,6.62,0,1,1,.93,1-.38a27.25,27.25,0,0,0-3.38-11.82h9.74a27.25,27.25,0,0,0-3.38,11.82c0,1.31,1,1.34,1,.38.09-4.82,4.14-7.19,7.09-6.62,4.54.86,6,5.39,5.94,8.06C63.66,207.17,55.7,213.24,48.26,223.79Z"/><path id="path7247-0-6" d="M131.74,223.79c-7.44-10.55-15.4-16.62-15.53-24.85,0-2.67,1.41-7.2,6-8.06,2.94-.57,7,1.8,7.08,6.62,0,1,1,.93,1-.38a27.25,27.25,0,0,0-3.38-11.82h9.75a27.11,27.11,0,0,0-3.38,11.82c0,1.31,1,1.34,1,.38.08-4.82,4.14-7.19,7.08-6.62,4.54.86,6,5.39,5.94,8.06C147.14,207.17,139.18,213.24,131.74,223.79Z"/><path id="path7251-3-6" d="M131.74,170.76c-7.44-10.55-15.4-16.62-15.53-24.85,0-2.67,1.41-7.2,6-8.06,2.94-.56,7,1.81,7.08,6.62,0,1,1,.93,1-.38a27.25,27.25,0,0,0-3.38-11.82h9.75a27.11,27.11,0,0,0-3.38,11.82c0,1.31,1,1.34,1,.38.08-4.81,4.14-7.18,7.08-6.62,4.54.86,6,5.39,5.94,8.06C147.14,154.14,139.18,160.21,131.74,170.76Z"/><path id="path7255-7-8" d="M90,105.76c-7.44,10.55-15.4,16.62-15.53,24.85,0,2.66,1.41,7.19,5.94,8.06,3,.56,7-1.81,7.09-6.63,0-.95,1-.93,1,.38a27.25,27.25,0,0,1-3.38,11.82h9.74a27.25,27.25,0,0,1-3.38-11.82c0-1.31,1-1.33,1-.38.08,4.82,4.13,7.19,7.08,6.63,4.54-.87,6-5.4,5.94-8.06C105.4,122.38,97.44,116.31,90,105.76Z"/><path id="path29-33-4-4" d="M6.45,32.45l2.44-.76a4.3,4.3,0,0,0,4.73,3c3.52-.28,4.7-4.19,5-7.66a7,7,0,0,1-5.19,2.11c-5.62-.3-7.06-4.77-7.11-9.45-.15-3.94,1.49-6.8,4.3-8.11a9.63,9.63,0,0,1,6.4.12c3.45,1.81,4.72,4.93,4.49,12.37,0,6.13-1.31,13.27-7.91,13.42a6.39,6.39,0,0,1-7.11-5ZM16,25.74a5.78,5.78,0,0,0,2.31-2.41,4.54,4.54,0,0,0,.44-3c-.31-4.44-2.65-7-6.05-6.47a4.07,4.07,0,0,0-3.52,3.3C8.09,20.8,9.48,25,12.09,26A5.08,5.08,0,0,0,16,25.74Z"/><path id="path29-33-3-8-6" d="M173.55,217.55l-2.43.76a4.31,4.31,0,0,0-4.74-3c-3.52.28-4.69,4.19-5,7.66a7,7,0,0,1,5.19-2.11c5.62.3,7.06,4.77,7.11,9.45.15,3.94-1.49,6.8-4.3,8.11a9.63,9.63,0,0,1-6.4-.12c-3.44-1.81-4.72-4.93-4.49-12.37,0-6.13,1.31-13.27,7.91-13.42a6.39,6.39,0,0,1,7.11,5ZM164,224.26a5.78,5.78,0,0,0-2.31,2.41,4.54,4.54,0,0,0-.44,3c.31,4.44,2.65,7,6,6.47a4.1,4.1,0,0,0,3.53-3.3c1.09-3.63-.3-7.87-2.91-8.84a5.08,5.08,0,0,0-3.92.27Z"/></g></svg>