<svg id="Layer_1" data-name="Layer 1" xmlns="http://www.w3.org/2000/svg" viewBox="0 0 180 250"><defs><style>.cls-1{fill:#d40000;}</style></defs><title>all_cards</title><g id="g6708"><path id="path6399-9" class="cls-1" d="M13.88,56.1a45.35,45.35,0,0,0-5.86-8,44.92,44.92,0,0,0,5.86-8,45.46,45.46,0,0,0,5.87,8A45.91,45.91,0,0,0,13.88,56.1Z"/><path id="path6403-1" class="cls-1" d="M166.12,209.93a45,45,0,0,0-5.87-8,45.41,45.41,0,0,0,5.87-8,45.35,45.35,0,0,0,5.86,8A44.92,44.92,0,0,0,166.12,209.93Z"/><path id="path6413-1" class="cls-1" d="M90,144.24c-4.18-6.86-8.58-13.54-14.08-19.24,5.5-5.7,9.9-12.37,14.08-19.24,4.18,6.87,8.58,13.54,14.08,19.24C98.58,130.7,94.18,137.38,90,144.24Z"/><path id="path41-87-9-4-8" class="cls-1" d="M5.75,37.55V35.29H7.92L12.54,11.1h2.63l5.1,24.19H22v2.26h-6V35.29h1.61L17,31.58H11l-.47,3.71h1.62v2.26ZM16.5,28.94,13.88,16l-2.45,13Z"/><path id="path41-8-5-6-1" class="cls-1" d="M158,212.45v2.26h2.17l4.62,24.2h2.64l5.09-24.2h1.75v-2.26h-6v2.26h1.61l-.64,3.71h-6l-.46-3.71h1.61v-2.26Zm10.75,8.61L166.11,234l-2.45-12.95Z"/></g></svg>