<svg id="Layer_1" data-name="Layer 1" xmlns="http://www.w3.org/2000/svg" viewBox="0 0 180 250"><defs><style>.cls-1{fill:#d40000;}</style></defs><title>all_cards</title><g id="g6785"><path id="path6926-2" class="cls-1" d="M13.88,56.1a45.35,45.35,0,0,0-5.86-8,44.92,44.92,0,0,0,5.86-8,45.46,45.46,0,0,0,5.87,8A45.91,45.91,0,0,0,13.88,56.1Z"/><path id="path6928-9" class="cls-1" d="M131.74,64.7c-4.18-6.87-8.58-13.54-14.08-19.24,5.5-5.71,9.9-12.38,14.08-19.25,4.18,6.87,8.58,13.54,14.08,19.25C140.32,51.16,135.92,57.83,131.74,64.7Z"/><path id="path6930-6" class="cls-1" d="M166.12,209.93a45,45,0,0,0-5.87-8,45.41,45.41,0,0,0,5.87-8,45.35,45.35,0,0,0,5.86,8A44.92,44.92,0,0,0,166.12,209.93Z"/><path id="path6932-2" class="cls-1" d="M48.26,64.7c-4.18-6.87-8.58-13.54-14.08-19.24,5.5-5.71,9.9-12.38,14.08-19.25,4.18,6.87,8.58,13.54,14.08,19.25C56.84,51.16,52.44,57.83,48.26,64.7Z"/><path id="path6938-4" class="cls-1" d="M90,104.46c-4.18-6.87-8.58-13.54-14.08-19.24C81.42,79.51,85.82,72.84,90,66c4.18,6.87,8.58,13.54,14.08,19.25C98.58,90.92,94.18,97.59,90,104.46Z"/><path id="path6942-4" class="cls-1" d="M48.26,144.22c-4.18-6.87-8.58-13.54-14.08-19.25,5.5-5.7,9.9-12.37,14.08-19.24,4.18,6.87,8.58,13.54,14.08,19.24C56.84,130.68,52.44,137.35,48.26,144.22Z"/><path id="path6944-9" class="cls-1" d="M131.74,144.23c-4.18-6.87-8.58-13.54-14.08-19.24,5.5-5.7,9.9-12.38,14.08-19.25,4.18,6.87,8.58,13.55,14.08,19.25C140.32,130.69,135.92,137.36,131.74,144.23Z"/><path id="path6948-4" class="cls-1" d="M48.26,223.79c-4.18-6.87-8.58-13.54-14.08-19.24,5.5-5.7,9.9-12.38,14.08-19.24,4.18,6.86,8.58,13.54,14.08,19.24C56.84,210.25,52.44,216.92,48.26,223.79Z"/><path id="path6950-4" class="cls-1" d="M131.74,223.8c-4.18-6.87-8.58-13.54-14.08-19.25,5.5-5.7,9.9-12.37,14.08-19.24,4.18,6.87,8.58,13.54,14.08,19.24C140.32,210.26,135.92,216.93,131.74,223.8Z"/><path id="path6956-4" class="cls-1" d="M90,184c-4.18-6.86-8.58-13.54-14.08-19.24,5.5-5.7,9.9-12.37,14.08-19.24,4.18,6.87,8.58,13.54,14.08,19.24C98.58,170.46,94.18,177.14,90,184Z"/><path id="path27-00-7-8-6" class="cls-1" d="M5.24,29.8c.12-3.55,1.42-4.88,4-6.74a6.12,6.12,0,0,1-2.71-5.43c.42-4.42,3.85-6.63,7.6-6.53s7,3.05,7.23,6.26A5.44,5.44,0,0,1,18.71,23c2.36,2,3.87,3.29,3.82,6.79a8.26,8.26,0,0,1-8.27,7.79c-5.21.13-9.15-4.2-9-7.75Zm14.56,0c.22-3.22-2.63-5.39-5.86-5.42a5.94,5.94,0,0,0-6,5.52c0,3.1,3.66,4.78,6,4.79,2.87,0,5.61-2.13,5.8-4.89Zm-1-11.51a4.74,4.74,0,0,0-5-4.57C11.42,13.81,9,15.56,9,17.82c0,2.84,2.78,4.25,5.14,4.31,2.15.05,4.6-1.77,4.65-3.82Z"/><path id="path27-0-1-9-8" class="cls-1" d="M157.47,220.2c.13,3.55,1.42,4.88,4,6.74a6.12,6.12,0,0,0-2.71,5.43c.42,4.42,3.85,6.63,7.6,6.53s7-3.05,7.23-6.26a5.44,5.44,0,0,0-2.61-5.61c2.37-2,3.88-3.29,3.82-6.79a8.25,8.25,0,0,0-8.26-7.79c-5.22-.13-9.16,4.2-9,7.75Zm14.56,0c.23,3.22-2.63,5.39-5.86,5.42a5.93,5.93,0,0,1-5.95-5.52c0-3.1,3.65-4.78,6-4.79,2.87,0,5.6,2.13,5.79,4.89Zm-1,11.51a4.74,4.74,0,0,1-5,4.57c-2.3-.07-4.74-1.82-4.74-4.08,0-2.84,2.77-4.25,5.14-4.31,2.15-.05,4.59,1.77,4.64,3.82Z"/></g></svg>