<svg id="Layer_1" data-name="Layer 1" xmlns="http://www.w3.org/2000/svg" viewBox="0 0 180 250"><defs><style>.cls-1{fill:#d40000;}</style></defs><title>all_cards</title><g id="g6725"><path id="path6584-3" class="cls-1" d="M90,64.7c-4.18-6.87-8.58-13.54-14.08-19.24,5.5-5.71,9.9-12.38,14.08-19.25,4.18,6.87,8.58,13.54,14.08,19.25C98.58,51.16,94.18,57.83,90,64.7Z"/><path id="path6586-2" class="cls-1" d="M13.88,56.1a45.35,45.35,0,0,0-5.86-8,44.92,44.92,0,0,0,5.86-8,45.46,45.46,0,0,0,5.87,8A45.91,45.91,0,0,0,13.88,56.1Z"/><path id="path6590-7" class="cls-1" d="M166.12,209.93a45.46,45.46,0,0,0-5.87-8,45.91,45.91,0,0,0,5.87-8,45.35,45.35,0,0,0,5.86,8A44.92,44.92,0,0,0,166.12,209.93Z"/><path id="path6600-5" class="cls-1" d="M90,144.24c-4.18-6.86-8.58-13.54-14.08-19.24,5.5-5.7,9.9-12.37,14.08-19.24,4.18,6.87,8.58,13.54,14.08,19.24C98.58,130.7,94.18,137.38,90,144.24Z"/><path id="path6606-3" class="cls-1" d="M90,223.79c-4.18-6.87-8.58-13.54-14.08-19.25,5.5-5.7,9.9-12.37,14.08-19.24,4.18,6.87,8.58,13.54,14.08,19.24C98.58,210.25,94.18,216.92,90,223.79Z"/><path id="path17-2-9-4-8" class="cls-1" d="M5.25,31.75l2-1.49C9.07,33.13,11.06,35,14.1,34.7c4.57-.31,6.46-5.06,5.5-8.65A5.29,5.29,0,0,0,11.9,23a7.5,7.5,0,0,1-1.53.74c-.32,0-1-1.41-.93-1.84a92.53,92.53,0,0,1,6.91-8.06H8.7v3.44H5.76V11.1h15v2.09a50.4,50.4,0,0,0-5.33,6.39A7.25,7.25,0,0,1,22.22,25a14.32,14.32,0,0,1-.42,7.31,9.21,9.21,0,0,1-7.5,5.22c-5,.34-7.72-3.18-9-5.78Z"/><path id="path17-5-3-3-8" class="cls-1" d="M174.75,218.25l-2.05,1.49c-1.77-2.87-3.76-4.77-6.81-4.44-4.56.31-6.45,5.06-5.49,8.65a5.29,5.29,0,0,0,7.7,3.07,7.5,7.5,0,0,1,1.53-.74c.31,0,1,1.41.93,1.84a94.39,94.39,0,0,1-6.91,8.06h7.65v-3.44h2.93v6.17H159.28v-2.1a50.4,50.4,0,0,0,5.33-6.39,7.24,7.24,0,0,1-6.83-5.42,14.32,14.32,0,0,1,.42-7.31,9.21,9.21,0,0,1,7.49-5.22c5.05-.34,7.73,3.18,9.06,5.78Z"/></g></svg>