<svg id="Layer_1" data-name="Layer 1" xmlns="http://www.w3.org/2000/svg" viewBox="0 0 180 250"><title>all_cards</title><g id="g8426-7-4"><path id="path6816-2-4" d="M13.88,40.07C10.41,44.46,6.69,47,6.63,50.42A3.33,3.33,0,0,0,9.4,53.78,2.88,2.88,0,0,0,12.71,51c0-.4.48-.39.48.16a10.48,10.48,0,0,1-1.58,4.92h4.55a10.48,10.48,0,0,1-1.58-4.92c0-.55.48-.56.47-.16a2.88,2.88,0,0,0,3.31,2.76,3.34,3.34,0,0,0,2.78-3.36c-.06-3.43-3.78-6-7.26-10.35Z"/><path id="path6820-0-2" d="M166.12,209.93c-3.48-4.39-7.2-6.92-7.26-10.35a3.34,3.34,0,0,1,2.78-3.36A2.88,2.88,0,0,1,165,199c0,.4.47.39.47-.16a10.36,10.36,0,0,0-1.58-4.92h4.55a10.48,10.48,0,0,0-1.58,4.92c0,.55.48.56.48.16a2.88,2.88,0,0,1,3.31-2.76,3.33,3.33,0,0,1,2.77,3.36c-.06,3.43-3.78,6-7.25,10.35Z"/><path id="path6828-8-3" d="M90,26.21C82.56,36.76,74.6,42.83,74.47,51.06c0,2.67,1.4,7.2,5.94,8.06,3,.56,7-1.8,7.09-6.62,0-1,1-.93,1,.38A27.25,27.25,0,0,1,85.13,64.7h9.74a27.25,27.25,0,0,1-3.38-11.82c0-1.31,1-1.34,1-.38.09,4.82,4.14,7.18,7.09,6.62,4.54-.86,6-5.39,5.94-8.06-.13-8.23-8.09-14.3-15.53-24.85Z"/><path id="path6842-0-7" d="M90,223.79c-7.44-10.55-15.4-16.62-15.53-24.85,0-2.67,1.4-7.2,5.94-8.06,3-.57,7,1.8,7.09,6.62,0,1,1,.93,1-.38a27.25,27.25,0,0,0-3.38-11.82h9.74a27.25,27.25,0,0,0-3.38,11.82c0,1.31,1,1.34,1,.38.09-4.82,4.14-7.19,7.09-6.62,4.54.86,6,5.39,5.94,8.06-.13,8.23-8.09,14.3-15.53,24.85Z"/><path id="path6844-7-0" d="M90,105.76c-7.44,10.55-15.4,16.62-15.53,24.85,0,2.66,1.4,7.19,5.94,8.06,3,.56,7-1.81,7.09-6.63,0-.95,1-.93,1,.38a27.25,27.25,0,0,1-3.38,11.82h9.74a27.25,27.25,0,0,1-3.38-11.82c0-1.31,1-1.33,1-.38.09,4.82,4.14,7.19,7.09,6.63,4.54-.87,6-5.4,5.94-8.06-.13-8.23-8.09-14.3-15.53-24.85Z"/><path id="path17-9-11-4" d="M5.25,31.75,7.3,30.26c1.77,2.87,3.76,4.77,6.8,4.44,4.57-.31,6.46-5.06,5.5-8.65A5.29,5.29,0,0,0,11.9,23a7.5,7.5,0,0,1-1.53.74c-.32,0-1-1.41-.93-1.84a92.53,92.53,0,0,1,6.91-8.06H8.7v3.44H5.76V11.09h15v2.1a50.4,50.4,0,0,0-5.33,6.39A7.25,7.25,0,0,1,22.22,25a14.32,14.32,0,0,1-.42,7.31,9.21,9.21,0,0,1-7.49,5.22c-5.05.34-7.73-3.18-9.06-5.78Z"/><path id="path17-9-1-0-8" d="M174.75,218.25l-2.05,1.49c-1.77-2.87-3.76-4.77-6.8-4.44-4.57.31-6.46,5.06-5.5,8.65a5.29,5.29,0,0,0,7.7,3.07,7.5,7.5,0,0,1,1.53-.74c.32,0,1,1.41.93,1.84a92.53,92.53,0,0,1-6.91,8.06h7.65v-3.44h2.93v6.16H159.28v-2.09a50.4,50.4,0,0,0,5.33-6.39,7.24,7.24,0,0,1-6.83-5.42,14.32,14.32,0,0,1,.42-7.31,9.21,9.21,0,0,1,7.49-5.22c5.05-.34,7.73,3.18,9.06,5.78Z"/></g></svg>