<?xml version="1.0" encoding="utf-8"?>
<!-- Generator: Adobe Illustrator 23.0.1, SVG Export Plug-In . SVG Version: 6.00 Build 0)  -->
<svg version="1.1" xmlns="http://www.w3.org/2000/svg" xmlns:xlink="http://www.w3.org/1999/xlink" x="0px" y="0px"
	 viewBox="0 0 100 100" style="enable-background:new 0 0 100 100;" xml:space="preserve">
<style type="text/css">
	.st0{fill:none;stroke:#000000;stroke-width:2;stroke-miterlimit:10;}
	.st1{fill:#FFFFFF;}
	.st2{fill:url(#SVGID_1_);}
	.st3{fill:#EC008C;}
	.st4{fill:url(#SVGID_2_);}
	.st5{fill:url(#SVGID_3_);}
	.st6{fill:url(#SVGID_4_);}
	.st7{fill:url(#SVGID_5_);}
	.st8{fill:#2D2D2D;}
	.st9{fill:url(#SVGID_6_);stroke:#EC008C;stroke-width:2;stroke-miterlimit:10;}
	.st10{opacity:0.6;fill:none;stroke:#FFFFFF;stroke-miterlimit:10;}
</style>
<g id="Layer_1">
	<g>
		<g>
			
				<image style="overflow:visible;" width="139" height="142" xlink:href="6276596EC2B369AD.png"  transform="matrix(1 0 0 1 -128 -10)">
			</image>
		</g>
		<g>
			
				<image style="overflow:visible;" width="139" height="143" xlink:href="6276596EC2B369AF.png"  transform="matrix(1 0 0 1 -129 -11)">
			</image>
		</g>
		<g>
			
				<image style="overflow:visible;" width="139" height="143" xlink:href="6276596EC2B369AA.png"  transform="matrix(1 0 0 1 -130 -11)">
			</image>
		</g>
		<g>
			
				<image style="overflow:visible;" width="139" height="142" xlink:href="6276596EC2B369AB.png"  transform="matrix(1 0 0 1 -130 -12)">
			</image>
		</g>
		<g>
			
				<image style="overflow:visible;" width="139" height="143" xlink:href="6276596EC2B369B5.png"  transform="matrix(1 0 0 1 -131 -13)">
			</image>
		</g>
		<g>
			
				<image style="overflow:visible;" width="139" height="143" xlink:href="6276596EC2B369B7.png"  transform="matrix(1 0 0 1 -132 -13)">
			</image>
		</g>
	</g>
</g>
<g id="Layer_2">
</g>
<g id="Layer_3">
	<g>
		<g>
			
				<image style="overflow:visible;" width="139" height="142" xlink:href="6276596EC2B369BA.png"  transform="matrix(1 0 0 1 -7 -10)">
			</image>
		</g>
		<g>
			
				<image style="overflow:visible;" width="139" height="142" xlink:href="6276596EC2B369BB.png"  transform="matrix(1 0 0 1 -8 -11)">
			</image>
		</g>
		<g>
			
				<image style="overflow:visible;" width="139" height="142" xlink:href="6276596EC2B369BD.png"  transform="matrix(1 0 0 1 -9 -11)">
			</image>
		</g>
		<g>
			
				<image style="overflow:visible;" width="139" height="142" xlink:href="3B1AED0223EE4606.png"  transform="matrix(1 0 0 1 -9 -12)">
			</image>
		</g>
		<g>
			
				<image style="overflow:visible;" width="139" height="142" xlink:href="3B1AED0223EE4601.png"  transform="matrix(1 0 0 1 -10 -13)">
			</image>
		</g>
		<g>
			
				<image style="overflow:visible;" width="139" height="142" xlink:href="3B1AED0223EE4602.png"  transform="matrix(1 0 0 1 -11 -13)">
			</image>
		</g>
		<circle class="st0" cx="50.9" cy="50.5" r="44"/>
		<path class="st1" d="M74.7,61.6c1.8-3.6,2.8-7.7,2.8-12.1c0-3.7-0.7-7.2-2-10.4l2.3-0.9l11.1-4.1c-4.2-10.5-12.4-19-22.8-23.3
			l-4.8,10.4L60,23.8c-3.1-1.2-6.5-1.9-10.1-1.9c-3.9,0-7.7,0.8-11.1,2.3l-1-2.7l-4-10.8c-10,4.2-18,12.1-22.3,22l10.8,4.9l2.3,1
			c-1.4,3.3-2.2,6.9-2.2,10.7c0,3.1,0.5,6.1,1.5,8.9l-1.8,0.7l-11.6,4.3c3.6,10.2,11,18.6,20.5,23.4l5.4-11.7l0.6-1.3
			c3.9,2.1,8.2,3.2,12.9,3.2c2.8,0,5.5-0.4,8-1.2l0.5,1.3l4.5,12.1c10.9-3.6,19.9-11.5,24.8-21.8l-11.3-5.2L74.7,61.6z M22.1,21.9
			c0,0,0.7,0.3,2.1,0.3c1.4,0,2.5-0.2,3.2,0.3c0.7,0.5,1,1.3,0.8,2.2c-0.3,0.9-1.1,1.5-2,1.2c0,0,1.2,1.1,2.1,0.9l-0.7,0.7L27,28.1
			c0.2-1-0.9-2.1-0.9-2.1c0.3,0.9-0.3,1.8-1.2,2c-0.9,0.3-1.6-0.1-2.2-0.8s-0.3-1.8-0.3-3.2C22.4,22.5,22.1,21.9,22.1,21.9z
			 M26.8,74.7c-1.5,1.5-2.8,0.2-2.8,0.2c-0.1,0.3-0.4,0.8-1.2,1.2c-0.5,0.2-1.4,0.2-2-0.5c-0.6-0.6-0.7-1.5-0.5-2
			c0.3-0.8,0.9-1.1,1.2-1.2c0,0-1.3-1.4,0.2-2.8c1.5-1.5,3.6,0.1,3.2,1.7c0,0,1.2-1.3,1-2.2l0.7,0.7l0.7,0.7c-1-0.2-2.2,1-2.2,1
			C26.7,71.1,28.3,73.2,26.8,74.7z M71.3,23.1c0.1-0.8,1.6-2.3,3.1-1.3c1.5,1,0.9,2.4,0.9,2.4s1.4-0.6,2.4,0.9
			c1,1.5-0.5,2.9-1.3,3.1c-0.7,0.1-3.5-0.2-4.9,0.1c-0.2,0.1-0.4,0.1-0.5,0.3c0.1-0.1,0.2-0.3,0.3-0.5
			C71.5,26.6,71.2,23.7,71.3,23.1z M70.8,77.3l-1-4.9l4.9,0.9l1.1,5L70.8,77.3z"/>
		<g>
			<radialGradient id="SVGID_1_" cx="48.9484" cy="49.5" r="44.9485" gradientUnits="userSpaceOnUse">
				<stop  offset="0" style="stop-color:#F2F2F2;stop-opacity:0"/>
				<stop  offset="7.585531e-02" style="stop-color:#F1C5DF;stop-opacity:0.1401"/>
				<stop  offset="0.2014" style="stop-color:#EF80C2;stop-opacity:0.372"/>
				<stop  offset="0.3149" style="stop-color:#EE4AAB;stop-opacity:0.5816"/>
				<stop  offset="0.4122" style="stop-color:#ED239B;stop-opacity:0.7613"/>
				<stop  offset="0.4895" style="stop-color:#EC0B91;stop-opacity:0.9041"/>
				<stop  offset="0.5372" style="stop-color:#EC028D;stop-opacity:0.9921"/>
				<stop  offset="0.6236" style="stop-color:#EE3FA6;stop-opacity:0.9936"/>
				<stop  offset="0.7236" style="stop-color:#EF7EC1;stop-opacity:0.9953"/>
				<stop  offset="0.8149" style="stop-color:#F0B0D6;stop-opacity:0.9968"/>
				<stop  offset="0.8942" style="stop-color:#F1D4E5;stop-opacity:0.9982"/>
				<stop  offset="0.9586" style="stop-color:#F2EAEF;stop-opacity:0.9993"/>
				<stop  offset="1" style="stop-color:#F2F2F2"/>
			</radialGradient>
			<path style="fill:url(#SVGID_1_);stroke:#EC008C;stroke-width:2;stroke-miterlimit:10;" d="M90.7,33L90.7,33
				c-4.4-11.3-13.4-20.4-24.5-25c-5.5-2.3-11.3-3.4-17.2-3.4c-6,0-11.8,1.2-17.2,3.4c-10.8,4.5-19.3,12.9-24,23.7
				c-2.5,5.7-3.7,11.7-3.7,17.9c0,5.1,0.9,10.1,2.5,15c3.9,11,11.7,19.9,22,25.2c6.3,3.2,13.2,4.9,20.3,4.9c4.7,0,9.4-0.7,13.9-2.2
				c11.6-3.8,21.3-12.4,26.6-23.5c0,0,0,0,0,0c2.9-6.1,4.3-12.6,4.3-19.3C93.8,43.8,92.8,38.3,90.7,33z"/>
			<path class="st3" d="M87.8,34.1c-4.2-10.5-12.4-19-22.8-23.3l-4.8,10.4L59,23.8c-3.1-1.2-6.5-1.9-10.1-1.9
				c-3.9,0-7.7,0.8-11.1,2.3l-1-2.7l-4-10.8c-10,4.2-18,12.1-22.3,22l10.8,4.9l2.3,1c-1.4,3.3-2.2,6.9-2.2,10.7
				c0,3.1,0.5,6.1,1.5,8.9l-1.8,0.7L9.5,63.4c3.6,10.2,11,18.6,20.5,23.4l5.4-11.7l0.6-1.3c3.9,2.1,8.2,3.2,12.9,3.2
				c2.8,0,5.5-0.4,8-1.2l0.5,1.3l4.5,12.1c10.9-3.6,19.9-11.5,24.8-21.8l-11.3-5.2l-1.7-0.8c1.8-3.6,2.8-7.7,2.8-12.1
				c0-3.7-0.7-7.2-2-10.4l2.3-0.9L87.8,34.1z"/>
			<path class="st1" d="M24.1,71.5c0,0,1.3-1.2,2.2-1l-0.7-0.7l-0.7-0.7c0.2,1-1,2.2-1,2.2c0.4-1.6-1.7-3.2-3.2-1.7
				c-1.5,1.5-0.2,2.8-0.2,2.8c-0.3,0.1-0.8,0.4-1.2,1.2c-0.2,0.5-0.2,1.4,0.5,2c0.6,0.6,1.5,0.7,2,0.5c0.8-0.3,1.1-0.9,1.2-1.2
				c0,0,1.4,1.3,2.8-0.2C27.3,73.2,25.7,71.1,24.1,71.5z"/>
			<polygon class="st1" points="68.8,72.5 69.8,77.3 74.8,78.4 73.7,73.4 			"/>
			<path class="st1" d="M25.2,25.8c0.9,0.3,1.8-0.3,2-1.2c0.3-0.9-0.1-1.6-0.8-2.2c-0.7-0.5-1.8-0.3-3.2-0.3c-1.4,0-2.1-0.3-2.1-0.3
				s0.3,0.7,0.3,2.1c0,1.4-0.2,2.5,0.3,3.2s1.3,1,2.2,0.8c0.9-0.3,1.5-1.1,1.2-2c0,0,1.1,1.2,0.9,2.1l0.7-0.7l0.7-0.7
				C26.4,26.9,25.2,25.8,25.2,25.8z"/>
			<path class="st1" d="M75.3,28.1c0.8-0.1,2.3-1.6,1.3-3.1c-1-1.5-2.4-0.9-2.4-0.9s0.6-1.4-0.9-2.4c-1.5-1-2.9,0.5-3.1,1.3
				c-0.1,0.7,0.2,3.5-0.1,4.9c-0.1,0.2-0.2,0.4-0.3,0.5c0.1-0.1,0.3-0.2,0.5-0.3C71.8,27.8,74.6,28.2,75.3,28.1z"/>
		</g>
		<g>
			<path class="st1" d="M42.7,44.3L39,32.8h-3.7l-3.8,11.4h-1v2.5h5.3v-2.5h-1.5l0.6-2h4.3l0.6,2h-1.4v2.5h5.3v-2.5H42.7z
				 M35.7,39.9l1.4-4.5l1.4,4.5H35.7z"/>
		</g>
		<path class="st1" d="M45,32.8h6v2.5h-1.5v8.9h3c0.1,0,0.2,0,0.2-0.1c0.1,0,0.1-0.1,0.2-0.2c0.1-0.1,0.1-0.2,0.1-0.2
			c0-0.1,0.1-0.2,0.1-0.2v-1.9h3v5.1H45v-2.5h1.4v-8.9H45V32.8z"/>
		<path class="st1" d="M57.4,32.8h6v2.5h-1.5v8.9h3c0.1,0,0.2,0,0.2-0.1c0.1,0,0.1-0.1,0.2-0.2c0.1-0.1,0.1-0.2,0.1-0.2
			c0-0.1,0.1-0.2,0.1-0.2v-1.9h3v5.1H57.4v-2.5h1.4v-8.9h-1.4V32.8z"/>
		<g>
			<path class="st1" d="M38.7,53.9h6v2.5h-1.5v8.9h1.5v2.5h-6v-2.5h1.4v-8.9h-1.4V53.9z"/>
			<path class="st1" d="M55,53.9h5.3v2.5h-1.1v11.4h-3.1l-5.8-9v6.5h1.2v2.5h-5.3v-2.5h1.1v-8.9h-1.1v-2.5h4.2l5.8,9.1v-6.6H55V53.9
				z"/>
		</g>
		<circle class="st10" cx="49" cy="50" r="26"/>
	</g>
</g>
</svg>
