<?xml version="1.0" encoding="utf-8"?>
<!-- Generator: Adobe Illustrator 23.0.1, SVG Export Plug-In . SVG Version: 6.00 Build 0)  -->
<svg version="1.1" id="Layer_1" xmlns="http://www.w3.org/2000/svg" xmlns:xlink="http://www.w3.org/1999/xlink" x="0px" y="0px"
	 viewBox="0 0 100 100" style="enable-background:new 0 0 100 100;" xml:space="preserve">
<style type="text/css">
	.st0{fill:none;stroke:#000000;stroke-width:2;stroke-miterlimit:10;}
	.st1{fill:#FFFFFF;}
	.st2{fill:url(#SVGID_1_);}
	.st3{fill:#EC008C;}
	.st4{fill:url(#SVGID_2_);}
	.st5{fill:url(#SVGID_3_);}
	.st6{fill:url(#SVGID_4_);}
	.st7{fill:url(#SVGID_5_);}
	.st8{fill:#2D2D2D;}
	.st9{font-family:'Arvo-Bold';}
	.st10{font-size:25.9758px;}
</style>
<g>
	<g>
		
			<image style="overflow:visible;" width="139" height="142" xlink:href="7CBD564F9C0E53CB.png"  transform="matrix(1 0 0 1 -8 -10)">
		</image>
	</g>
	<g>
		
			<image style="overflow:visible;" width="139" height="143" xlink:href="7CBD564F9C0E53C9.png"  transform="matrix(1 0 0 1 -9 -11)">
		</image>
	</g>
	<g>
		
			<image style="overflow:visible;" width="139" height="143" xlink:href="7CBD564F9C0E53CF.png"  transform="matrix(1 0 0 1 -10 -11)">
		</image>
	</g>
	<g>
		
			<image style="overflow:visible;" width="139" height="142" xlink:href="7CBD564F9C0E53C8.png"  transform="matrix(1 0 0 1 -10 -12)">
		</image>
	</g>
	<g>
		
			<image style="overflow:visible;" width="139" height="143" xlink:href="7CBD564F9C0E53C6.png"  transform="matrix(1 0 0 1 -11 -13)">
		</image>
	</g>
	<g>
		
			<image style="overflow:visible;" width="139" height="143" xlink:href="7CBD564F9C0E53C7.png"  transform="matrix(1 0 0 1 -12 -13)">
		</image>
	</g>
	<circle class="st0" cx="50" cy="51" r="44"/>
	<path class="st1" d="M73.7,62.1c1.8-3.6,2.8-7.7,2.8-12.1c0-3.7-0.7-7.2-2-10.4l2.3-0.9l11.1-4.1c-4.2-10.5-12.4-19-22.8-23.3
		l-4.8,10.4l-1.2,2.6c-3.1-1.2-6.5-1.9-10.1-1.9c-3.9,0-7.7,0.8-11.1,2.3l-1-2.7l-4-10.8c-10,4.2-18,12.1-22.3,22l10.8,4.9l2.3,1
		c-1.4,3.3-2.2,6.9-2.2,10.7c0,3.1,0.5,6.1,1.5,8.9l-1.8,0.7L9.6,63.9c3.6,10.2,11,18.6,20.5,23.4l5.4-11.7l0.6-1.3
		c3.9,2.1,8.2,3.2,12.9,3.2c2.8,0,5.5-0.4,8-1.2l0.5,1.3L62,89.8C72.9,86.3,81.9,78.3,86.8,68l-11.3-5.2L73.7,62.1z M21.2,22.4
		c0,0,0.7,0.3,2.1,0.3c1.4,0,2.5-0.2,3.2,0.3c0.7,0.5,1,1.3,0.8,2.2c-0.3,0.9-1.1,1.5-2,1.2c0,0,1.2,1.1,2.1,0.9l-0.7,0.7L26,28.6
		c0.2-1-0.9-2.1-0.9-2.1c0.3,0.9-0.3,1.8-1.2,2c-0.9,0.3-1.6-0.1-2.2-0.8s-0.3-1.8-0.3-3.2C21.5,23,21.2,22.4,21.2,22.4z M25.8,75.2
		c-1.5,1.5-2.8,0.2-2.8,0.2c-0.1,0.3-0.4,0.8-1.2,1.2c-0.5,0.2-1.4,0.2-2-0.5c-0.6-0.6-0.7-1.5-0.5-2c0.3-0.8,0.9-1.1,1.2-1.2
		c0,0-1.3-1.4,0.2-2.8c1.5-1.5,3.6,0.1,3.2,1.7c0,0,1.2-1.3,1-2.2l0.7,0.7l0.7,0.7c-1-0.2-2.2,1-2.2,1
		C25.8,71.6,27.3,73.7,25.8,75.2z M70.3,23.6c0.1-0.8,1.6-2.3,3.1-1.3c1.5,1,0.9,2.4,0.9,2.4s1.4-0.6,2.4,0.9c1,1.5-0.5,2.9-1.3,3.1
		c-0.7,0.1-3.5-0.2-4.9,0.1c-0.2,0.1-0.4,0.1-0.5,0.3c0.1-0.1,0.2-0.3,0.3-0.5C70.6,27.1,70.2,24.2,70.3,23.6z M69.9,77.8l-1-4.9
		l4.9,0.9l1.1,5L69.9,77.8z"/>
	<g>
		<radialGradient id="SVGID_1_" cx="49" cy="50" r="44.9485" gradientUnits="userSpaceOnUse">
			<stop  offset="0" style="stop-color:#FF7BAC;stop-opacity:0"/>
			<stop  offset="0.1939" style="stop-color:#FC69A7;stop-opacity:0.1939"/>
			<stop  offset="0.5843" style="stop-color:#F5399B;stop-opacity:0.5843"/>
			<stop  offset="1" style="stop-color:#EC008C"/>
		</radialGradient>
		<path class="st2" d="M90.8,33.5L90.8,33.5c-4.4-11.3-13.4-20.4-24.5-25C60.8,6.2,55,5,49,5c-6,0-11.8,1.2-17.2,3.4
			C21,12.9,12.5,21.3,7.8,32.1C5.3,37.8,4.1,43.8,4.1,50c0,5.1,0.9,10.1,2.5,15c3.9,11,11.7,19.9,22,25.2C35,93.4,41.9,95,49,95
			c4.7,0,9.4-0.7,13.9-2.2C74.6,89,84.3,80.4,89.6,69.3c0,0,0,0,0,0c2.9-6.1,4.3-12.6,4.3-19.3C93.9,44.3,92.8,38.8,90.8,33.5z
			 M62,89.8l-4.5-12.1L57,76.4c-2.5,0.8-5.2,1.2-8,1.2c-4.7,0-9.1-1.2-12.9-3.2l-0.6,1.3l-5.4,11.7c-9.5-4.8-16.9-13.2-20.5-23.4
			l11.6-4.3l1.8-0.7c-1-2.8-1.5-5.8-1.5-8.9c0-3.8,0.8-7.4,2.2-10.7l-2.3-1l-10.8-4.9c4.3-9.9,12.3-17.9,22.3-22l4,10.8l1,2.7
			c3.4-1.5,7.1-2.3,11.1-2.3c3.5,0,6.9,0.7,10.1,1.9l1.2-2.6L65,11.3c10.4,4.3,18.7,12.8,22.8,23.3l-11.1,4.1l-2.3,0.9
			c1.3,3.2,2,6.7,2,10.4c0,4.3-1,8.4-2.8,12.1l1.7,0.8L86.8,68C81.9,78.3,72.9,86.3,62,89.8z"/>
		<path class="st3" d="M24.2,72c0,0,1.3-1.2,2.2-1l-0.7-0.7l-0.7-0.7c0.2,1-1,2.2-1,2.2c0.4-1.6-1.7-3.2-3.2-1.7
			c-1.5,1.5-0.2,2.8-0.2,2.8c-0.3,0.1-0.8,0.4-1.2,1.2c-0.2,0.5-0.2,1.4,0.5,2c0.6,0.6,1.5,0.7,2,0.5c0.8-0.3,1.1-0.9,1.2-1.2
			c0,0,1.4,1.3,2.8-0.2C27.3,73.7,25.8,71.6,24.2,72z"/>
		<polygon class="st3" points="68.9,73 69.9,77.8 74.9,78.9 73.8,73.9 		"/>
		<path class="st3" d="M25.2,26.3c0.9,0.3,1.8-0.3,2-1.2c0.3-0.9-0.1-1.6-0.8-2.2c-0.7-0.5-1.8-0.3-3.2-0.3c-1.4,0-2.1-0.3-2.1-0.3
			s0.3,0.7,0.3,2.1c0,1.4-0.2,2.5,0.3,3.2s1.3,1,2.2,0.8c0.9-0.3,1.5-1.1,1.2-2c0,0,1.1,1.2,0.9,2.1l0.7-0.7l0.7-0.7
			C26.4,27.4,25.2,26.3,25.2,26.3z"/>
		<path class="st3" d="M75.4,28.6c0.8-0.1,2.3-1.6,1.3-3.1c-1-1.5-2.4-0.9-2.4-0.9s0.6-1.4-0.9-2.4c-1.5-1-2.9,0.5-3.1,1.3
			c-0.1,0.7,0.2,3.5-0.1,4.9c-0.1,0.2-0.2,0.4-0.3,0.5c0.1-0.1,0.3-0.2,0.5-0.3C71.8,28.3,74.7,28.7,75.4,28.6z"/>
	</g>
</g>
<g>
	<g>
		
			<image style="overflow:visible;" width="139" height="142" xlink:href="7CBD564F9C0E53D7.png"  transform="matrix(1 0 0 1 -127 -10)">
		</image>
	</g>
	<g>
		
			<image style="overflow:visible;" width="139" height="143" xlink:href="7CBD564F9C0E53D9.png"  transform="matrix(1 0 0 1 -128 -11)">
		</image>
	</g>
	<g>
		
			<image style="overflow:visible;" width="139" height="143" xlink:href="7CBD564F9C0E53DB.png"  transform="matrix(1 0 0 1 -129 -11)">
		</image>
	</g>
	<g>
		
			<image style="overflow:visible;" width="139" height="142" xlink:href="75D79818E121C68.png"  transform="matrix(1 0 0 1 -129 -12)">
		</image>
	</g>
	<g>
		
			<image style="overflow:visible;" width="139" height="143" xlink:href="75D79818E121C6F.png"  transform="matrix(1 0 0 1 -130 -13)">
		</image>
	</g>
	<g>
		
			<image style="overflow:visible;" width="139" height="143" xlink:href="75D79818E121C69.png"  transform="matrix(1 0 0 1 -131 -13)">
		</image>
	</g>
</g>
<text transform="matrix(1 0 0 1 25.9143 59.7939)" class="st8 st9 st10">500</text>
</svg>
