<svg id="Layer_1" data-name="Layer 1" xmlns="http://www.w3.org/2000/svg" xmlns:xlink="http://www.w3.org/1999/xlink" viewBox="0 0 100 100"><defs><style>.cls-1{fill:#f798d1;stroke:#ec008c;stroke-miterlimit:10;stroke-width:0.5px;}.cls-2{fill:#fff;}.cls-3{fill:url(#radial-gradient);}.cls-4{fill:#ec008c;}</style><radialGradient id="radial-gradient" cx="50" cy="50" r="44.95" gradientUnits="userSpaceOnUse"><stop offset="0" stop-color="#ff7bac" stop-opacity="0"/><stop offset="0.11" stop-color="#fe71aa" stop-opacity="0.08"/><stop offset="0.33" stop-color="#fa59a3" stop-opacity="0.28"/><stop offset="0.65" stop-color="#f33099" stop-opacity="0.61"/><stop offset="1" stop-color="#ec008c"/></radialGradient></defs><title>chips</title><circle class="cls-1" cx="53" cy="52" r="44"/><path class="cls-2" d="M74.73,62.07a27.72,27.72,0,0,0,.76-22.44l2.32-.87,11.07-4.15A42,42,0,0,0,66,11.3L61.25,21.73l-1.2,2.61a27.43,27.43,0,0,0-21.12.42l-1-2.68L34,11.3a42,42,0,0,0-22.32,22l10.76,4.9,2.26,1A27.73,27.73,0,0,0,24,58.91l-1.82.69L10.57,63.93A42,42,0,0,0,31.11,87.38l5.36-11.69.62-1.34a27.49,27.49,0,0,0,20.91,2l.49,1.33L63,89.84A42,42,0,0,0,87.76,68L76.42,62.83ZM22.2,22.37a6.34,6.34,0,0,0,2.09.27c1.44,0,2.51-.25,3.2.27a1.91,1.91,0,0,1,.78,2.15,1.63,1.63,0,0,1-2,1.21s1.19,1.12,2.15.92l-.69.68-.68.68c.21-1-.92-2.14-.92-2.14a1.63,1.63,0,0,1-1.21,2,1.91,1.91,0,0,1-2.15-.78c-.52-.7-.26-1.77-.27-3.21A6.66,6.66,0,0,0,22.2,22.37ZM26.85,75.2a1.93,1.93,0,0,1-2.81.25,2.26,2.26,0,0,1-1.23,1.17,1.93,1.93,0,0,1-2.46-2.46,2.25,2.25,0,0,1,1.18-1.22,1.93,1.93,0,0,1,.24-2.81A1.88,1.88,0,0,1,25,71.82s1.18-1.26,1-2.24l.73.73.73.74c-1-.23-2.24,1-2.24,1A1.88,1.88,0,0,1,26.85,75.2ZM71.34,23.58c.15-.77,1.58-2.31,3.07-1.31a1.92,1.92,0,0,1,.86,2.38,1.94,1.94,0,0,1,2.39.87c1,1.49-.54,2.92-1.31,3.07s-3.54-.24-4.87.13a1.3,1.3,0,0,0-.54.26,1.14,1.14,0,0,0,.27-.54C71.58,27.1,71.22,24.23,71.34,23.58Zm-.48,54.25-1-4.87,4.91.94,1.08,5Z"/><path class="cls-3" d="M91.76,33.48h0a45.25,45.25,0,0,0-24.53-25A45,45,0,0,0,7.65,65a44.81,44.81,0,0,0,22,25.18A44.31,44.31,0,0,0,50,95,44.88,44.88,0,0,0,90.55,69.33h0a45.08,45.08,0,0,0,1.21-35.85ZM63,89.84,58.49,77.71,58,76.38a27.49,27.49,0,0,1-20.91-2l-.62,1.34L31.11,87.38A42,42,0,0,1,10.57,63.93L22.15,59.6,24,58.91a27.73,27.73,0,0,1,.69-19.64l-2.26-1-10.76-4.9A42,42,0,0,1,34,11.3l4,10.78,1,2.68a27.43,27.43,0,0,1,21.12-.42l1.2-2.61L66,11.3A42,42,0,0,1,88.88,34.61L77.81,38.76l-2.32.87a27.72,27.72,0,0,1-.76,22.44l1.69.76L87.76,68A42,42,0,0,1,63,89.84Z"/><path class="cls-4" d="M25.15,72s1.26-1.18,2.24-1l-.73-.74-.73-.73c.22,1-1,2.24-1,2.24a1.88,1.88,0,0,0-3.2-1.69,1.93,1.93,0,0,0-.24,2.81,2.25,2.25,0,0,0-1.18,1.22,1.93,1.93,0,0,0,2.46,2.46A2.26,2.26,0,0,0,24,75.45a1.93,1.93,0,0,0,2.81-.25A1.88,1.88,0,0,0,25.15,72Z"/><polygon class="cls-4" points="69.88 72.96 70.86 77.83 75.87 78.95 74.79 73.9 69.88 72.96"/><path class="cls-4" d="M26.23,26.27a1.63,1.63,0,0,0,2-1.21,1.91,1.91,0,0,0-.78-2.15c-.69-.52-1.76-.26-3.2-.27a6.34,6.34,0,0,1-2.09-.27,6.66,6.66,0,0,1,.26,2.09c0,1.44-.25,2.51.27,3.21a1.91,1.91,0,0,0,2.15.78,1.63,1.63,0,0,0,1.21-2s1.13,1.18.92,2.14l.68-.68.69-.68C27.42,27.39,26.23,26.27,26.23,26.27Z"/><path class="cls-4" d="M76.35,28.59c.77-.15,2.31-1.58,1.31-3.07a1.94,1.94,0,0,0-2.39-.87,1.92,1.92,0,0,0-.86-2.38c-1.49-1-2.92.54-3.07,1.31s.24,3.52-.13,4.86a1.14,1.14,0,0,1-.27.54,1.3,1.3,0,0,1,.54-.26C72.81,28.35,75.7,28.71,76.35,28.59Z"/><path class="cls-4" d="M32.6,35.37v2.22l.12.11a.21.21,0,0,1,.15.07.87.87,0,0,1,.32.48.6.6,0,0,0,.07.18s0,0,0-.14a1.25,1.25,0,0,1,.11-.41.76.76,0,0,1,.27-.32.92.92,0,0,1,.42-.18h1.76a1.1,1.1,0,0,1,.61.14c.09,0,.16.19.19.43v7.14a1,1,0,0,1-.11.5c0,.07-.23.12-.62.16H34.25a.47.47,0,0,1-.37-.23,3.55,3.55,0,0,1-.14-1,1.19,1.19,0,0,0-.34-.88,2,2,0,0,0-.8-.48V47.6l.52.44.48.39a.94.94,0,0,1,.1.14.19.19,0,0,1,.14.08l.2.15.18.15a2.14,2.14,0,0,1,.35.28A7.27,7.27,0,0,1,36,51.13a9.31,9.31,0,0,1,.69,4v.17a18.18,18.18,0,0,1-.48,4.48c-.28,1.26-1.4,1.9-3.34,1.94l-.3,0v1.81H31.29V61.24l-.08,0-.11-.05-.12,0a.61.61,0,0,0-.07-.1l-.1-.11a.73.73,0,0,0-.14-.2.56.56,0,0,0,0-.21L30,61.53a1.68,1.68,0,0,0-.32,0H28a1.53,1.53,0,0,1-.5-.12c-.15-.07-.23-.25-.23-.54V53.67a.84.84,0,0,1,.07-.39.79.79,0,0,1,.52-.12H29.5c.28,0,.45.06.51.19a1.52,1.52,0,0,1,.11.77,1.77,1.77,0,0,0,.33,1.15,1.14,1.14,0,0,0,.84.41V51.13a1.27,1.27,0,0,1-.45-.3,2,2,0,0,1-.32-.25,13.72,13.72,0,0,1-2-1.77,6.23,6.23,0,0,1-1-1.6,4,4,0,0,1-.38-1.53c0-.74,0-1.33,0-1.8V42.07a8.93,8.93,0,0,1,.69-3.32q.61-1.53,2.94-1.53H31a.34.34,0,0,1,.16,0h.11V35.37ZM31.29,46.44V43.33a2.62,2.62,0,0,0-.56.48,1.4,1.4,0,0,0-.24.77,2.8,2.8,0,0,0,.21,1,3.49,3.49,0,0,0,.59.86Zm1.31,5.71v3.16a1,1,0,0,0,.48-.39,1.13,1.13,0,0,0,.21-.69,3.37,3.37,0,0,0-.21-1.18,2.33,2.33,0,0,0-.48-.87Z"/><path class="cls-4" d="M39.05,50,40.4,35.16H50L49.46,42H43.12a3.12,3.12,0,0,1-.07.73,13.47,13.47,0,0,1-.18,1.49c0,.25,0,.48-.07.69s-.06.51-.11.87a5.53,5.53,0,0,1-.07.73A4.36,4.36,0,0,1,44,46a10.07,10.07,0,0,1,1.27-.18,4,4,0,0,1,3,1.3,4.7,4.7,0,0,1,1.21,3.25v6.51a7.77,7.77,0,0,1-.07,1.21,6.81,6.81,0,0,1-.3,1.35,6.38,6.38,0,0,1-1.71,2.79,5.25,5.25,0,0,1-3.82,1.27c-2.24,0-3.67-.54-4.3-1.63a8.06,8.06,0,0,1-.9-3.61v-5.1a.65.65,0,0,1,.18-.53,1,1,0,0,1,.55-.2h2.5c.29,0,.47.07.55.2a.89.89,0,0,1,.18.53v2.46a1.69,1.69,0,0,0,.18.94.7.7,0,0,0,.48.21h.14a.25.25,0,0,0,.14,0h.16a.32.32,0,0,0,.14,0,1,1,0,0,0,.32,0,.8.8,0,0,0,.48-.17,2.14,2.14,0,0,0,.66-.7,3.85,3.85,0,0,0,.28-1.49v-3A2.18,2.18,0,0,0,45,50a2.21,2.21,0,0,0-.73-.5,1.12,1.12,0,0,1-.27,0,.37.37,0,0,1-.21,0,.5.5,0,0,0-.36.11.57.57,0,0,0-.12.18.55.55,0,0,1-.11.25l-.39.07H39.05Z"/><path class="cls-4" d="M51.33,56.8v-15a7,7,0,0,1,1.49-4.91,4.42,4.42,0,0,1,3.3-1.63h.12a4.17,4.17,0,0,1,3.19,1.67,7.46,7.46,0,0,1,1.46,4.87V56.84A8.06,8.06,0,0,1,59.47,62a4,4,0,0,1-3.16,1.6h-.1a4.58,4.58,0,0,1-3.36-1.77,7.56,7.56,0,0,1-1.52-5Zm3.38-12.7V54.58a2.6,2.6,0,0,0,.39,1.56,1.36,1.36,0,0,0,.91.55h.11a1.35,1.35,0,0,0,1-.55,2.4,2.4,0,0,0,.43-1.56V44.1a2,2,0,0,0-.43-1.41,1.61,1.61,0,0,0-1-.48,1.23,1.23,0,0,0-1,.52,2,2,0,0,0-.42,1.42Z"/><path class="cls-4" d="M62.79,56.8v-15a7,7,0,0,1,1.49-4.91,4.42,4.42,0,0,1,3.3-1.63h.12a4.17,4.17,0,0,1,3.19,1.67,7.46,7.46,0,0,1,1.46,4.87V56.84A8.06,8.06,0,0,1,70.93,62a4,4,0,0,1-3.16,1.6h-.1a4.58,4.58,0,0,1-3.36-1.77,7.56,7.56,0,0,1-1.52-5Zm3.38-12.7V54.58a2.6,2.6,0,0,0,.39,1.56,1.36,1.36,0,0,0,.91.55h.11a1.35,1.35,0,0,0,1-.55A2.4,2.4,0,0,0,69,54.58V44.1a2,2,0,0,0-.43-1.41,1.58,1.58,0,0,0-1-.48,1.23,1.23,0,0,0-1,.52,2,2,0,0,0-.42,1.42Z"/></svg>