<svg xmlns="http://www.w3.org/2000/svg" viewBox="0 0 348.29 307.62"><defs><style>.cls-1{font-size:12px;font-family:Campanile;}.cls-2{fill:#d40000;stroke-width:1.23px;}.cls-2,.cls-3,.cls-4,.cls-5,.cls-6,.cls-7,.cls-8{stroke:#000;}.cls-3{stroke-width:6.53px;}.cls-4,.cls-6,.cls-8{fill:#fff;}.cls-4{stroke-width:1.31px;}.cls-5{stroke-width:4.13px;}.cls-6{stroke-width:0.83px;}.cls-7{stroke-width:5.51px;}.cls-8{stroke-width:1.1px;}</style></defs><title>logo</title><g id="Layer_1" data-name="Layer 1"><text class="cls-1" transform="translate(0 10.84)">BLACKJACK</text><text class="cls-1" transform="translate(15 23.84)">PDR</text><text x="98.85" y="59.62"/></g><g id="Layer_7" data-name="Layer 7"><path d="M152.36,237.14c3.39.91,6.52,2,9.74,2.58a44.4,44.4,0,0,0,21-1.65,58.33,58.33,0,0,0,17.73-8.61c3-2.18,6-4.36,7.92-7.65a3.6,3.6,0,0,1,2.14-1.74,13.71,13.71,0,0,0,6.26-4.27,22.78,22.78,0,0,0,5.22-17.7,1.43,1.43,0,0,1,.81-1.71,8.85,8.85,0,0,0,4.9-6.77,3,3,0,0,1,.85-1.54,8.84,8.84,0,0,0,2.93-7.3,42.68,42.68,0,0,1,0-7.5c.61-4.79,2.88-8.91,5.78-12.69,2.41-3.14,5.05-6.11,7.25-9.38,5-7.42,5.78-15.39,2.39-23.7a1.54,1.54,0,0,1,.17-1.76c1.85-2.62,2.61-5.49,1.26-8.57-1.76-4-1.91-8.24-2.08-12.51-.21-5-.49-10.11-2.77-14.79a2,2,0,0,1,0-1.38c1.72-4.81,1.67-9.84,1.91-14.84.14-2.87,0-5.74,1.62-8.41a8.63,8.63,0,0,0-3-11.48,63.17,63.17,0,0,0-6-2.89,7.73,7.73,0,0,0-1.87-.61,80.38,80.38,0,0,1-8.78-1.64c-4.82-1.48-9.53-3.32-14.26-5.09a2.77,2.77,0,0,1-1.32-1.47c-2.25-5.53-6-9.19-12.12-10-.9-.13-1.81-.22-2.76-.33-.08-.38-.16-.72-.21-1.07a18.22,18.22,0,0,0-13.68-15.08q-8.34-1.91-16.69-3.81c-6.42-1.48-12.82-3-19.24-4.46-4.49-1-9-2-13.48-3a23.73,23.73,0,0,0-8.77-.3c-2.52.36-4.62,1.85-7.4,1.73-5.83-.26-11.69.2-17.54.35-3.12.07-6.26,0-9.37.17A16.76,16.76,0,0,0,78.7,12.81a7.5,7.5,0,0,1-4.13,2.71c-.64.18-1.3.23-1.94.41-5,1.45-10,2.95-15,4.36a16.84,16.84,0,0,0-12,14.24c-.19,2.08,0,4.19,0,6.24a1.72,1.72,0,0,1-.3.18C39,42.49,34.77,46.11,33,52.4c-.12.43-.63.79-1,1.1-1.91,1.47-3.87,2.88-5.77,4.36-3,2.35-6,4.84-9.68,6a9,9,0,0,0-5.07,4,2.8,2.8,0,0,1-.9.91A9,9,0,0,0,6.27,78a37,37,0,0,1,.61,5.63q-.15,10.6-.55,21.22a133.4,133.4,0,0,0,.57,20.58A41,41,0,0,0,10.58,139a22.13,22.13,0,0,0,7.26,8.5c-.07.27-.09.45-.15.61a24.29,24.29,0,0,0-1.76,13.94,7.34,7.34,0,0,1-.56,5.29,6.4,6.4,0,0,0-.59,2.28c-.79,5.49,1.14,10,4.92,13.88a2.51,2.51,0,0,1,.71,1.3c.32,2.58.43,5.19.87,7.74.94,5.37,3,10.27,7.24,13.87a57.1,57.1,0,0,0,6.61,4.24,19.16,19.16,0,0,0,.95,11.19c2.56,6.68,6.86,11.5,14.28,12.83a1.79,1.79,0,0,1,1,.47c3.9,4.21,9,6.38,14.21,8.34a60.52,60.52,0,0,0,15.81,3.43A44.07,44.07,0,0,0,95.55,246a31,31,0,0,0,10.89-4.73C120.88,251.8,141.87,249.65,152.36,237.14Z" transform="translate(98.85 59.62)"/><path class="cls-2" d="M147.22,234.57c-10.49,12.51-31.48,14.66-45.92,4.1a31,31,0,0,1-10.89,4.74,44.13,44.13,0,0,1-14.17.94,60.15,60.15,0,0,1-15.8-3.44c-5.21-2-10.31-4.12-14.21-8.33a1.86,1.86,0,0,0-1-.47C37.8,230.78,33.5,226,30.94,219.27a19.05,19.05,0,0,1-1-11.18,58.11,58.11,0,0,1-6.62-4.24c-4.25-3.6-6.29-8.51-7.23-13.87-.44-2.55-.55-5.16-.88-7.74a2.56,2.56,0,0,0-.7-1.3c-3.78-3.87-5.71-8.39-4.92-13.88a6.33,6.33,0,0,1,.58-2.28,7.3,7.3,0,0,0,.57-5.29,24.29,24.29,0,0,1,1.75-13.94,3.61,3.61,0,0,0,.15-.61,22.1,22.1,0,0,1-7.25-8.5,40.73,40.73,0,0,1-3.68-13.56,133.44,133.44,0,0,1-.57-20.58q.38-10.6.54-21.22a35.89,35.89,0,0,0-.61-5.64A9,9,0,0,1,5.4,66.21a2.86,2.86,0,0,0,.9-.9,8.94,8.94,0,0,1,5.07-4c3.71-1.21,6.65-3.7,9.67-6.05,1.91-1.48,3.86-2.89,5.77-4.36.4-.31.92-.67,1-1.1,1.78-6.29,6-9.91,12.22-11.45a1.41,1.41,0,0,0,.31-.18c0-2.05-.16-4.16,0-6.24a16.84,16.84,0,0,1,12-14.24c5-1.41,10-2.91,15-4.36.63-.18,1.3-.23,1.93-.41a7.52,7.52,0,0,0,4.14-2.71A16.76,16.76,0,0,1,85.84,3.62c3.12-.22,6.25-.1,9.38-.18,5.85-.14,11.71-.6,17.54-.35,2.78.12,4.88-1.37,7.39-1.72a23.93,23.93,0,0,1,8.77.29c4.5,1,9,2,13.49,3.05,6.41,1.47,12.82,3,19.24,4.46Q170,11.09,178.34,13A18.24,18.24,0,0,1,192,28.06c0,.35.13.69.2,1.07.95.11,1.86.2,2.77.33,6.1.85,9.87,4.51,12.12,10A2.73,2.73,0,0,0,208.43,41c4.72,1.77,9.44,3.61,14.26,5.09a79.94,79.94,0,0,0,8.78,1.64,8.16,8.16,0,0,1,1.87.6,63.24,63.24,0,0,1,6,2.9,8.61,8.61,0,0,1,2.94,11.48c-1.61,2.67-1.47,5.54-1.61,8.41-.24,5-.19,10-1.91,14.84a2,2,0,0,0,0,1.38c2.27,4.68,2.56,9.74,2.76,14.79.18,4.27.33,8.5,2.08,12.51,1.35,3.08.6,6-1.26,8.57a1.56,1.56,0,0,0-.16,1.76c3.38,8.31,2.62,16.27-2.39,23.69-2.2,3.27-4.84,6.25-7.25,9.39-2.9,3.78-5.18,7.9-5.78,12.68a41.85,41.85,0,0,0-.05,7.51,8.89,8.89,0,0,1-2.93,7.3,3,3,0,0,0-.85,1.53,8.84,8.84,0,0,1-4.91,6.78,1.42,1.42,0,0,0-.8,1.71,22.83,22.83,0,0,1-5.22,17.7,13.67,13.67,0,0,1-6.26,4.26,3.62,3.62,0,0,0-2.14,1.75c-1.91,3.28-4.94,5.47-7.92,7.65A58.44,58.44,0,0,1,178,235.5a44.27,44.27,0,0,1-21,1.64C153.74,236.56,150.61,235.48,147.22,234.57Zm-24.29-13.31c1.69.54,3.16-.2,4.61-.86,2-.89,3.81-1.94,4.9-3.92a4.1,4.1,0,0,0,.73-.71,13.09,13.09,0,0,0-11.94-20.29,13.05,13.05,0,0,0-11.64,10.25,19.1,19.1,0,0,0-.13,2.84,1.73,1.73,0,0,0-.16.6,12.91,12.91,0,0,0,6.89,10.74c1.83,1,3.75,1.92,6,1.34ZM216,121.71c-.82-.59-.69.06-.74.54-.13,1.47-.26,2.94-.45,4.4-.09.75-.28,1.48-.48,2.5l.72-.49c-1.68,1.65-1.8,3.81-1.94,6-.32,5.11,4.59,7.89,8.89,6.61,2.59-.78,3.68-3.09,2.61-5.4-.51,1.86-1.81,2.48-3.47,1.64a2.86,2.86,0,0,1-1.57-3.06,5.67,5.67,0,0,1,3.22-4.4c.8-.37.82-.64.26-1.18a5.24,5.24,0,0,0,1.39.92,4.63,4.63,0,0,1,3,2.87,15.08,15.08,0,0,0,.85,1.44,1.06,1.06,0,0,0-.21-.11s-.1,0-.1.06c.06.6.15,1.2.17,1.8.23,4.9-2.4,10.21-9,9.84a3.41,3.41,0,0,0-3.54,2.15,14.78,14.78,0,0,0-1.07,2.69,38,38,0,0,0,.14,21.47,63.06,63.06,0,0,0,2.61,6.29c0-2.1-.09-3.82,0-5.52a38.34,38.34,0,0,1,.66-5.23c1.24-6.3,4.55-11.55,8.44-16.52,2.43-3.11,4.68-6.37,7-9.59a1.66,1.66,0,0,0,.08-2.29c.71.69.94.12,1-.44a30.51,30.51,0,0,0,.46-6c-.4-4.17-2.19-7.68-6.4-9.16a39.15,39.15,0,0,0-6.7-1.2c-.21,0-.45.22-.66.32.65-.72,0-.8-.47-1.06-1.79-1-3.55-2.09-5.32-3.14-.23-.13-.48-.24-.72-.36l-.32.23Zm-91.68-91.2c.68.73.88-.05,1.14-.4,1.17-1.65,2.34-3.3,3.42-5a5.34,5.34,0,0,0,.36-1.75l-2.14-.17c-.38-.79-2.24-1.35-3.71-1A3.56,3.56,0,0,0,127,23.27a10.54,10.54,0,0,1-.67,1.54c-.79,1.22-1.69,2.37-2.44,3.61a4,4,0,0,0-.19,1.47c-.31.11-.88.21-.89.32,0,.4.06,1,.32,1.15s.88.13,1.33.17ZM140.16,204a4.83,4.83,0,0,0-.28,1.43,18.64,18.64,0,0,1-.36,7.15,16,16,0,0,1-1.85-.41c-.93-.35-1.27,0-1.65.86a48.81,48.81,0,0,1-2.38,4.37c-.25.44-.56.84-1,1.5l2.34,1.89a16.29,16.29,0,0,1-7.58,4.61c-.23-.71-.39-1.34-.63-1.93-.16-.38-.49-1-.61-1a12.84,12.84,0,0,0-1.94.77c-1.68-.21-3.35-.44-5-.58-.2,0-.52.4-.64.69a7.19,7.19,0,0,0-.36,1.4c-.15.64-.48.93-1.13.58-2-1.06-4-2.1-6-3.19-.9-.5-.83-1.09-.08-1.75a12.51,12.51,0,0,0,1.2-1.31c-1.1-1.75-2.18-3.25-3-4.87s-.81-1.8-2.79-1.26a9.34,9.34,0,0,1-1,.16,16.18,16.18,0,0,1-.14-8.91l2.75.75,3.31-5.67c.2-.35.57-.92.45-1.08-.35-.45-.89-1-1.38-1-2.11-.12-4,.29-4.81,2.66a24.42,24.42,0,0,1-1,2.3A1.27,1.27,0,0,0,105,204l-.92-.23a18.44,18.44,0,0,0,1.5,13.36c4,8.07,12.52,11.53,20.76,9.86.27-.06.46-.51.69-.78a6.48,6.48,0,0,0,2.12-.07,18.09,18.09,0,0,0,9.61-8.2,18.8,18.8,0,0,0,2.15-13c-.06-.34-.5-.6-.77-.9a8.14,8.14,0,0,0-.16-2.44,18.26,18.26,0,0,0-8.3-9.56,17.79,17.79,0,0,0-10.15-2.38l.23,4.3,4.15.51c.29-1,.57-2,.88-3,3,.66,5.45,2.2,8.14,4.52a16.35,16.35,0,0,0-2,1.47,1.13,1.13,0,0,0-.17,1.07c1.27,2,2.61,3.9,3.9,5.81ZM118.59,24.9c.8.67,1.23.41,1.46-.54.3-1.24.6-2.48,1-3.69a5.69,5.69,0,0,1,6.34-3.79c1.72.32,3.45.61,5.17.92a4.72,4.72,0,0,0,.86.45c3.47.86,7,1.66,10.43,2.55q15.81,4.07,31.6,8.18c1.67.43,2.2.92,2.07,2.68a46.21,46.21,0,0,1-1,7.81c-1.5,6-3.26,12-4.91,17.91-.16.57-.26,1.16-.44,2a4.36,4.36,0,0,0,3.07-2.18,52.57,52.57,0,0,0,4.06-8.25c1.74-5.29,3.2-10.69,4.47-16.11a8.81,8.81,0,0,0-6.8-10.9c-5.68-1.36-11.38-2.63-17.07-3.93-6.85-1.57-13.7-3.14-20.56-4.65-.49-.11-1.07.24-1.62.37-.34-.34-.62-.9-1-1-3.14-.77-6.33-1.39-9.47-2.19-5.74-1.46-11.16,2.79-12.48,7.89a1.94,1.94,0,0,0,.54,2.14c-1-.65-1,.18-1.08.75q-1.45,6.81-2.88,13.63-.56,2.63-1,5.27c-.06.34-.21,1,.51.37a9.77,9.77,0,0,0-1,2.35c-.75,4.86-1.54,9.72-2,14.61a24.79,24.79,0,0,0,.48,9.7,4.83,4.83,0,0,0,1.3,2c.79.72,1.42.41,1.64-.64.68-3.31,1.32-6.64,2-9.94,1.81-8.23,3.66-16.46,5.46-24.69a3.8,3.8,0,0,0-.14-1.18c.56-1.71,1.09-3.44,1.71-5.12A2.38,2.38,0,0,0,118.59,24.9Zm-17,175.67.94.65,2.55-5a5.57,5.57,0,0,0-3.89,3c-.13.31.07.77.11,1.16-.33.14-.81.18-1,.43a9.41,9.41,0,0,0-.82,1.93,30.5,30.5,0,0,0-1,14.44c1,6.93,4.86,12,10.76,15.68.82.51,1.61.73,2.32-.19-.73.93-.13,1.33.66,1.64a26.1,26.1,0,0,0,20.74-.34c.84-.37.87-.89.37-1.55a1.43,1.43,0,0,0,2.2.14c1.22-.94,2.47-1.86,3.6-2.89a26.11,26.11,0,0,0,8-14.93,22.28,22.28,0,0,0-1.74-14c-.23-.49-.42-1.17-1.21-.59,0-.49.17-1.1-.06-1.43a17.89,17.89,0,0,0-8.94-6.61,23.06,23.06,0,0,1,7,9.34l1.85-1.15c-.52.9-1.81,1.39-1.34,2.83a18.23,18.23,0,0,1,.69,9,19.34,19.34,0,0,1-3,7.61,23.55,23.55,0,0,1-9.82,8.35c-.6.28-.8.67-.31,1.22a6.23,6.23,0,0,0-2.2-.17,21.71,21.71,0,0,1-11.93.44c-.49-.12-1.1.22-1.65.35.48-.74,0-1-.59-1.25a22.38,22.38,0,0,1-11.81-25.36A2.77,2.77,0,0,0,101.55,200.57ZM49.2,148.84l.33.06-1.1-10.72c-2.37.45-4.94.93-7.51,1.45-.23,0-.42.29-.62.44a33,33,0,0,0-3.73.07A9.23,9.23,0,0,0,29.09,148,12.81,12.81,0,0,0,32,158c2.66,3.34,5.58,6.48,8.09,9.92,3.83,5.26,6,11.12,5.17,17.79-.1.82-.14,1.65-.24,2.76.38-.49.59-.71.75-1,4.74-7.47,5.49-15.54,3.31-23.94-1-3.65-1.71-4.06-5.43-4.13A7.66,7.66,0,0,1,35.93,153a6.74,6.74,0,0,1,1.27-5.86c2-2.28,5.06-1.63,6.65,1.18.94,1.65.68,3-.72,3.89-1.57,1-2.72.69-3.9-1a2.45,2.45,0,0,0,.52,3,6.06,6.06,0,0,0,9.08-.38A4.2,4.2,0,0,0,49.2,148.84ZM194.6,51.18l-.48.59c2.5.2,4.95-2.23,4.65-4.56l-.4.35c1.89-2.88-.66-8.37-4.23-9a8.81,8.81,0,0,0-8.47,2.87c-2.41,2.68-3.51,6-4.4,9.32-1.06,3.93-2.71,7.42-6,10-.11.09-.15.26-.26.46a32.41,32.41,0,0,0,13.92-1c6.22-1.86,12.31-2.06,18.47.28a12.16,12.16,0,0,0,11.15-.91,19,19,0,0,1,9.32-3,61.46,61.46,0,0,1-14.66-4c-2.95-1.12-5.93-2.17-8.89-3.25-1.46-.53-2.39-.09-3.27,1.26-2.51,3.85-8.17,5.52-12.14,3.73a3.21,3.21,0,0,1-2.08-3.08,6,6,0,0,1,5.45-5.46,1.9,1.9,0,0,1,2,2.54A3.24,3.24,0,0,1,191,51C192.56,52.39,193.24,52.39,194.6,51.18Zm10.24,154.93c.79.67,1.07-.06,1.4-.54a13.05,13.05,0,0,0,2-6.08c.4-3.7-.92-8.45-4.65-10.49a10.61,10.61,0,0,0-7.45-.83c-4.72,1-9.41,1.77-14.4.58.28.57.45.94.65,1.31a24.66,24.66,0,0,1-4.4,29c-6.64,6.41-14.72,8-23.56,6.68-1.82-.26-3.6-.73-5.4-1.1a2.51,2.51,0,0,0,.84.64,29.16,29.16,0,0,0,18.68,3,50,50,0,0,0,23.09-9.69,35.17,35.17,0,0,0,4.21-4.16c.79-.85.78-1.61-.37-2.35a13.94,13.94,0,0,1-2.87-2.5c-3.87-4.35-3.56-9.65.71-13.12a5.9,5.9,0,0,1,6.64-.62c1.68,1.08,2.19,3,1.6,5.67a4.19,4.19,0,0,0,.19,1.42c-.43,0-.86,0-1.28.08a7,7,0,0,1-2,.29,3.65,3.65,0,0,1-3.24-3.3,2.92,2.92,0,0,0-2.17,3.36c.19,2.29,1.63,3.74,3.4,4.91a6.61,6.61,0,0,0,8.26-.72C205.08,207.09,205.54,206.67,204.84,206.11ZM87.63,61.53c-.08-1.38-.17-3-.29-4.7q-.5-6.51-1-13c-.22-2.8-.48-5.6-.67-8.41-.24-3.68-.5-7.37-.61-11.06-.07-2.2,2.47-4.92,4.51-5,5.1-.21,10.2-.34,15.31-.57a26.41,26.41,0,0,0,4.43-.54c.89-.18,1.48-.82.88-1.87.32,0,.88,0,.92-.14.4-1.29.71-2.61,1.1-4.16l-5.76.36.76,1a4.29,4.29,0,0,0-3.15-1c-4.4.15-8.81.19-13.21.32a32.19,32.19,0,0,0-5.39.36,9.32,9.32,0,0,0-7.09,9.29c.05,3.12.31,6.23.49,9.35.25,4.17.47,8.34.79,12.51.5,6.57,1.06,13.14,1.61,19.72A2.4,2.4,0,0,0,81.51,65c1.07,1.63,1.54,3.7.18,4.5a25.47,25.47,0,0,1,.67,3c.23,2.17.16,4.39.52,6.53,1.23,7.45,2.44,14.9,4,22.29a54.51,54.51,0,0,0,3.26,9c.28.69,1.13,1.16,1.95,2M97,230.1l-.81.18c-2.92.77-5.81,1.78-8.78,2.26a24.82,24.82,0,0,1-18.85-4.07,23.36,23.36,0,0,1-9.71-25.06c.2-.78.5-1.54.81-2.5l-.94.27c-2.83.74-5.65,1.56-8.51,2.18-1.92.41-3.93.43-5.86.81a6.68,6.68,0,0,0-5.19,4.77c-1.4,4.18.72,10.34,4.34,12.88s8.06.87,8.93-3.65c.41-2.12-.4-3.65-2.19-4.1a2.4,2.4,0,0,1-.43,3,2.79,2.79,0,0,1-2.94.69c-1.44-.54-2.47-3.14-2.06-5a3.2,3.2,0,0,1,3.56-2.49A7.8,7.8,0,0,1,55,214.83c1.74,3.47.6,6.58-1.56,9.46-1.05,1.39-1.07,1.61.2,2.82a6.89,6.89,0,0,0,1.47,1.12A72.08,72.08,0,0,0,63,232.08c7.53,2.72,15.26,4.22,23.29,2.83A20.08,20.08,0,0,0,97,230.1Zm-37-157,.21-.46a9.92,9.92,0,0,0-.69-1.08,28.29,28.29,0,0,1-5.75-11.75c-1-4.15-2.64-7.92-6.14-10.73a6.86,6.86,0,0,0-7.34-1.15,7,7,0,0,0-3.79,7.21c.33,2.91,3,6.2,5.59,6.79a2.23,2.23,0,0,0,2.76-1,4.14,4.14,0,0,1-3.21-4.34c.07-1.93,1.35-2.69,3-1.76a8.59,8.59,0,0,1,3.93,5c1,2.85-.47,4.85-3.52,5C40.86,65,37.67,63,35,60c-1.74-2-2.23-2.11-4.38-.54-1.81,1.32-3.46,2.86-5.29,4.16-3,2.12-6.08,4.12-8.94,6l2.5-.26c4.63-.5,9.27-.95,13.89-1.51a27.75,27.75,0,0,1,11,.44c3.67,1,7.24,2.42,10.89,3.54C56.39,72.36,58.21,72.66,60,73.07ZM75.78,20.7,68,22.9c-4.43,1.25-8.88,2.44-13.28,3.81a7.4,7.4,0,0,0-3,1.95c-2.46,2.63-2.72,5.81-1.8,9.13s1.8,6.43,2.81,9.61c2.45,7.68,4.66,15.48,9.25,22.26,1.29,1.91,2.79,3.71,5.39,4.4-.13-.47-.2-.75-.29-1C63.2,61.38,59.43,49.72,55.58,38.08c-.76-2.3.91-5.89,3.3-6.64,4.82-1.49,9.53-3.33,14.28-5a3.37,3.37,0,0,0,2.62-3.75Zm-49,149.38c2.14-1.43,2.1-3,0-4.19a8.19,8.19,0,0,0-2.08-.79c-3.65-.81-6.68,1.67-6.11,5a7.4,7.4,0,0,0,5.83,6.1,38.66,38.66,0,0,0,4.45.12c3.79.23,7.57.52,11.45.8a9.24,9.24,0,0,0-.11-1.41,15.84,15.84,0,0,0-3.1-6.79c-1.76-2.19-3.75-4.21-5.51-6.39A43.39,43.39,0,0,1,26.88,156c-2-3.77-1.32-7.67.38-11.43.25-.56.45-1.13.68-1.69a10.71,10.71,0,0,0-6.69,5.56,15.51,15.51,0,0,0-.89,11.91c.56,1.68,1.17,2.08,2.9,2a8.07,8.07,0,0,1,5.57,1.65,5.67,5.67,0,0,1,2.09,6.11,3.72,3.72,0,0,1-3.31,2.78,3.33,3.33,0,0,1-3.44-2.14c-.43-1.15,0-2.22,1-2.4C26.42,168.19,26.63,169.09,26.79,170.08ZM75.09,189a17.15,17.15,0,0,0-7.87,5.2,20.93,20.93,0,0,0-4.67,17.64,19.43,19.43,0,0,0,8.93,13.71,25.67,25.67,0,0,0,17.92,3.72,12.62,12.62,0,0,0,7.52-3.46,4.61,4.61,0,0,0,1.26-4.25A25,25,0,0,1,88,224.78a19.39,19.39,0,0,1-18.19-9.21C64.87,207.56,65.42,197,75.09,189Zm73.27,26.8a5.64,5.64,0,0,0,2.62,5.56,14.16,14.16,0,0,0,7.26,2c7.45.25,13.72-2.32,18.44-8,5-6,6-13,3.85-20.47a19.09,19.09,0,0,0-7.85-10.8c-1.35-.92-2.87-1.61-4.31-2.4,11.34,9.26,11,20.61,6.63,27.81a19.44,19.44,0,0,1-10.26,8.38C159,219.92,153.62,218.8,148.36,215.82ZM95.11,204.41a8.16,8.16,0,0,0-1.76-4.61,2.6,2.6,0,0,0-2.12-1c-2.22-.16-4.43-.56-6.66-.77a3.31,3.31,0,0,0-2,.38,7.82,7.82,0,0,0-2.67,9.51,7.93,7.93,0,0,0,8.86,4.63A8.07,8.07,0,0,0,95.11,204.41Zm55.31-5.49a7.6,7.6,0,1,0,7.72-7.7A7.66,7.66,0,0,0,150.42,198.92Zm12.7-12.52a44.09,44.09,0,0,1,3.79,2.76c1.88,1.69,1.82,1.75,3.88.27a3.63,3.63,0,0,1,.62-.16c.77,1.82,1.65,3.67,2.31,5.59s.53,1.92-1.42,2.12c-.87.09-1.21.4-1.17,1.33a15,15,0,0,1-.24,3.41c-.49,2.46-.55,2.45,1.71,3.68.07,0,.09.14.18.31a15.18,15.18,0,0,1-4.88,6.19l-1.68-2.11a36.09,36.09,0,0,1-5.06,2c-1.4.33-1.84.84-1.45,2.18a4.62,4.62,0,0,1,0,1.18,14.32,14.32,0,0,1-7.84-1.15,19.8,19.8,0,0,0,.78-1.91c.08-.31,0-.86-.18-1-.95-.66-2-1.22-3-1.85-.07,1.39-.21,2.67-.17,3.94a1.77,1.77,0,0,0,.69,1.3,15.79,15.79,0,0,0,10.6,1.85,17.3,17.3,0,0,0,14.75-17.08,16.79,16.79,0,0,0-8.43-15.44c-.34-.2-1-.35-1.24-.16C164.75,184.52,163.94,185.5,163.12,186.4Zm-90.36,9.74,2.62,1.56,2.31-2.95L74.61,192c-6.9,6.08-7.37,17.34-1,24.66,6.75,7.75,17.54,7.6,23.51,3.06l-1.07-4.49-2.44,1.66L95,219.63a16,16,0,0,1-8.15,1.89v-2.67c-2.26-.77-4.3-1.51-6.38-2.15a1.31,1.31,0,0,0-1.11.41A11.49,11.49,0,0,0,78.26,219a16.31,16.31,0,0,1-5.74-6,13.18,13.18,0,0,1,1.61-.91c.92-.36,1-.85.61-1.73a16.51,16.51,0,0,1-1.06-3.64c-.38-2.27-.31-2.28-2.67-2.49a4.49,4.49,0,0,1-.65-.19A15.9,15.9,0,0,1,72.76,196.14Zm92.16-158a19.05,19.05,0,0,0-1.19-1.9,2.94,2.94,0,0,0-3.68-1.12,3.18,3.18,0,0,0-1.68,4.1,11.25,11.25,0,0,0,.89,2c1.21,2.12,2.47,4.22,3.64,6.2,1.92-1.31,4-2.65,6-4.08A10.75,10.75,0,0,0,171,41.28a3,3,0,0,0-.09-3.56,2.55,2.55,0,0,0-3.13-1C166.85,37.08,165.94,37.61,164.92,38.12ZM146.4,48.33c-.28-.54-.5-1-.75-1.45-1-1.74-2.56-2.4-4.05-1.75a3.27,3.27,0,0,0-1.67,4.18A16.07,16.07,0,0,0,141.22,52c1.05,1.9,2.16,3.76,3.17,5.51,1.76-1.19,3.67-2.43,5.52-3.75a15.36,15.36,0,0,0,2.29-2,3,3,0,0,0,.27-4,2.82,2.82,0,0,0-3.74-.87A24,24,0,0,0,146.4,48.33ZM135.65,31.15a27.42,27.42,0,0,0-1.61-2.3A2.87,2.87,0,0,0,129,30a4.24,4.24,0,0,0,.27,2.79c1.19,2.34,2.59,4.58,4,6.81a1.33,1.33,0,0,0,1.24.13q2.46-1.55,4.81-3.26a11.9,11.9,0,0,0,2.14-1.93,3.08,3.08,0,0,0,.09-3.9,2.89,2.89,0,0,0-3.68-.78A22,22,0,0,0,135.65,31.15Zm-11,37.36c2-1.33,4.18-2.68,6.24-4.15a7,7,0,0,0,1.88-2.14,2.94,2.94,0,0,0-.41-3.65,3.35,3.35,0,0,0-3.81-.38c-.56.32-1.08.72-1.57,1.05a18.82,18.82,0,0,0-2.21-2.64,2.86,2.86,0,0,0-4.63,1.85,5.24,5.24,0,0,0,.49,2.79C121.89,63.78,123.35,66.24,124.62,68.51ZM100.8,33.72l-.43.36c-.69-.36-1.36-.76-2.08-1.06a3.62,3.62,0,0,0-1.61-.38,2.38,2.38,0,0,0-2.23,2,2.47,2.47,0,0,0,1,2.78,2.36,2.36,0,0,0,2.94,0c.83-.6,1.71-1.14,2.56-1.7l.46.3-1.31,4.62,3.42-.19c-.65-1.54-1.27-3-1.88-4.41l.47-.36c.81.39,1.6.84,2.44,1.15a4.19,4.19,0,0,0,2.1.4,2.62,2.62,0,0,0,.74-4.73,2.62,2.62,0,0,0-3,.12l-2,1.34-.43-.33,1.44-3.14a2.54,2.54,0,0,0-.61-3.21,2.64,2.64,0,0,0-3.94,3.42C99.54,31.7,100.17,32.71,100.8,33.72Zm45.74,165.71c.3.6.49,1.44.78,1.47,1.64.19,1.33,1.72,1.94,2.6a.87.87,0,0,1,.05.81c-1,1.24-.41,2.42.37,3.26a10.84,10.84,0,0,0,8.78,3.52,12.2,12.2,0,0,0,3.34-23.71l-.76,2-2.16-.15c7,2.55,9.93,7.4,7.81,13.06a9.14,9.14,0,0,1-12.19,5.33,9,9,0,0,1-5.13-5.21,9.44,9.44,0,0,1,1.54-9.55l-.29-.16-1.41,1.51a5.22,5.22,0,0,0-1.16-.52c-.3,0-.86.07-.93.25-.45,1.22-.8,2.48-1.18,3.72l.45.14.67-2.44,1.52.47-.52,3.43ZM103.23,61.34l-.29-.18a15.48,15.48,0,0,1,.49-1.68c.26-.65.67-1.24.93-1.89a2.61,2.61,0,0,0-2.13-3.5,2.5,2.5,0,0,0-2.57,1.24,2.43,2.43,0,0,0,0,2.84c.65,1,1.23,2,1.84,3l-.41.33c-.81-.4-1.61-.83-2.44-1.2a2.53,2.53,0,0,0-3.54,2.15A2.5,2.5,0,0,0,96.51,65a2.37,2.37,0,0,0,2.72-.2c.8-.58,1.67-1.08,2.51-1.61l.46.38c-.44,1.47-.88,2.94-1.36,4.56l3.45-.28-1.86-4.29.39-.37,2.51,1v-4ZM69.39,37.12c-1.37,2.3-2.8,4.73-4.15,7l7.05,4.17c1.38-2.34,2.81-4.78,4.17-7.07Zm9.49,161.45-1.27-.9,1.74-2.17c-3.29,1.48-5.31,7.44-4.31,12a12.37,12.37,0,0,0,12.23,9.69c3.58,0,8.18-2.18,8.55-4l-2.21,1.57c-.21-.66-.64-1.41-.46-1.62a29.81,29.81,0,0,1,2.74-2.5V209a9.83,9.83,0,0,1-6.45,5.05,9.36,9.36,0,0,1-7.92-1.47,9.27,9.27,0,0,1-3.91-7.83,10,10,0,0,1,3.81-7.87l-.34-.27ZM75.45,59.3c-1.46,2.49-2.92,5-4.28,7.26l7.72,4.5a17.65,17.65,0,0,0-1.79-2.13c-.85-.72-.68-1.29,0-2s1.25-1.25,1.84-1.9a2.56,2.56,0,0,0-.32-3.48C77.53,60.79,76.42,60,75.45,59.3ZM88.33,23.61c1,1.86,2.62.59,3.81,1.18-.12.43-.23.84-.37,1.26-.58,1.79-1.16,3.59-1.75,5.38-.25.76-.06,1.36.71,1.57a1.09,1.09,0,0,0,1.55-.74c.79-2.46,1.68-4.9,2.5-7.35.29-.89-.08-1.58-1-1.58C92,23.33,90.28,23.5,88.33,23.61ZM61.05,35.88c0,.49,0,.95-.07,1.41-.12,1.62-.31,3.23-.34,4.85a1.37,1.37,0,0,0,.87,1c.26.07.94-.43,1-.73q.4-3.39.57-6.81c0-.34-.62-1.06-.83-1-1.49.3-2.94.76-4.41,1.17l.14.6Zm61.4,3A18.71,18.71,0,0,0,125.09,37c.38-.36.39-1.11.56-1.69a17.45,17.45,0,0,0-1.73-.31c-.22,0-.46.15-.7.24l.07-.45c-.7-.18-1.59-.71-2.07-.46-1,.52-.53,1.48-.08,2.27S122,38.06,122.45,38.89Zm-30.79-.12c0-.88,0-1.61,0-2.32a1.23,1.23,0,0,0-.92-.12c-1.35.76.15,1.62.08,2.54a4.2,4.2,0,0,0-1.23-.38,1.09,1.09,0,0,0-.83.49,1.05,1.05,0,0,0,.13.94c.18.21.73.41.9.29a2.6,2.6,0,0,1,3-.21c.19.11.76-.18,1-.44a1,1,0,0,0-.09-.94,1.44,1.44,0,0,0-1-.28A2.48,2.48,0,0,0,91.66,38.77ZM61.72,48.43,64,49.81l1.37-2.35L63,46.1ZM98.61,200c-.19-.41-.38-1.24-.65-1.27a17.19,17.19,0,0,0-2.82.11l1.93,5.29h.17l-.48-3.55Zm47.24-6.29-3.42.32,2.59,2.89Z" transform="translate(98.85 59.62)"/><path class="cls-3" d="M19.45,79.14q2.4-.63,8.94-3a78.64,78.64,0,0,1,9.12-2.67c.91-.14,1.79-.26,2.66-.34q10-1,10.68,6.17,1,10.13-10.49,21.49,7.8-1.31,9.5,3.52a11.19,11.19,0,0,1,.45,2.19q.57,5.71-4.34,12.12a41.91,41.91,0,0,1-9.58,8.94,34.44,34.44,0,0,1-16.57,5.79c-1,.1-2,.18-3.06.23Q18.19,117.71,19.17,91,19.5,83.43,19.45,79.14ZM30.66,110q-.33,3-.52,8,10.41-4.33,10-8.52-.15-1.53-2.82-1.26A29.41,29.41,0,0,0,30.66,110ZM32.83,89.2c-.24,1.71-.46,3.42-.65,5.13l-.57,5.14a21.16,21.16,0,0,0,7.14-8.71,3.66,3.66,0,0,0,.38-1.65C39,88.25,38.34,87.88,37,88A17.23,17.23,0,0,0,32.83,89.2Z" transform="translate(98.85 59.62)"/><path class="cls-3" d="M70.29,73.88l12.86-3.73q-3.41,21.64-4.61,39.75l13.2-3.38L92,120.8q-10.27,1.94-25.76,7.85Z" transform="translate(98.85 59.62)"/><path class="cls-3" d="M101.35,126.11A497.17,497.17,0,0,0,114,69.25l22.77-6.17q-1.69,23.48,1.81,55l-15.78,5.33.21-9.64-5,1.5-.94,6.86Zm21.91-22.74.65-29.1h-.07l-4.25,30.18Z" transform="translate(98.85 59.62)"/><path class="cls-3" d="M176,59.67q7.92-.78,12.51,7.46l-7.68,10.29A5.46,5.46,0,0,0,176.6,76q-4,.41-7.7,7.76a34.14,34.14,0,0,0-3.59,11.12,19.37,19.37,0,0,0-.11,4.32q.51,5.1,4.42,6.64a5.84,5.84,0,0,0,2.65.35q4-.39,7.73-6.69l3.33,8.83q-6.72,9.12-14.48,9.89-7.92.78-12.41-7.24a26.3,26.3,0,0,1-3.28-10.67,41.73,41.73,0,0,1,.22-9.48,47.48,47.48,0,0,1,6.85-19.36Q166.92,60.57,176,59.67Z" transform="translate(98.85 59.62)"/><path class="cls-3" d="M204.06,60.66l12.86-3.73q-1.17,6.89-1.55,10.85,6.06-6.45,11-12.32l10.17,5.27L222.9,75.54l11.45,30.19-13,8.67-8.18-28.23Q212,98.7,211.77,110.9l-11.68,4.53Z" transform="translate(98.85 59.62)"/><path class="cls-4" d="M12.44,74.54q2.4-.62,8.93-3a82.87,82.87,0,0,1,9.12-2.67c.91-.14,1.8-.25,2.66-.34q10.05-1,10.68,6.18,1,10.13-10.48,21.49,7.78-1.3,9.5,3.52a10.37,10.37,0,0,1,.44,2.19q.57,5.7-4.34,12.11a41.67,41.67,0,0,1-9.57,9A34.48,34.48,0,0,1,12.8,128.8c-1,.1-2,.17-3.05.22q1.42-15.9,2.4-42.61Q12.48,78.85,12.44,74.54Zm11.2,30.89c-.21,2-.39,4.62-.52,8q10.43-4.34,10-8.53c-.1-1-1-1.43-2.81-1.26A29.46,29.46,0,0,0,23.64,105.43ZM25.81,84.6c-.24,1.72-.45,3.43-.64,5.14l-.57,5.13a21.21,21.21,0,0,0,7.14-8.7,3.67,3.67,0,0,0,.37-1.65c-.08-.87-.79-1.23-2.11-1.1A17.23,17.23,0,0,0,25.81,84.6Z" transform="translate(98.85 59.62)"/><path class="cls-4" d="M63.27,69.29l12.86-3.73q-3.39,21.63-4.61,39.75l13.21-3.38L85,116.21q-10.26,1.94-25.75,7.85Z" transform="translate(98.85 59.62)"/><path class="cls-4" d="M94.33,121.51A493.26,493.26,0,0,0,107,64.66l22.77-6.17q-1.68,23.46,1.81,55l-15.77,5.32.2-9.63-5,1.49-.93,6.86Zm21.91-22.73.66-29.1h-.08l-4.24,30.18Z" transform="translate(98.85 59.62)"/><path class="cls-4" d="M169,55.08q7.92-.78,12.5,7.45l-7.67,10.3a5.46,5.46,0,0,0-4.22-1.43q-4,.39-7.69,7.75a34.31,34.31,0,0,0-3.6,11.13,20.55,20.55,0,0,0-.11,4.31c.34,3.41,1.81,5.62,4.43,6.64a5.68,5.68,0,0,0,2.65.36c2.64-.27,5.21-2.49,7.72-6.69l3.33,8.82q-6.7,9.12-14.48,9.89t-12.4-7.23a26.15,26.15,0,0,1-3.29-10.67,41.71,41.71,0,0,1,.22-9.48,47.67,47.67,0,0,1,6.85-19.37Q159.9,56,169,55.08Z" transform="translate(98.85 59.62)"/><path class="cls-4" d="M197,56.07l12.86-3.73q-1.17,6.88-1.54,10.84,6-6.43,11-12.31l10.17,5.27L215.89,71l11.44,30.19-13,8.67-8.17-28.24Q205,94.1,204.76,106.3l-11.69,4.53Z" transform="translate(98.85 59.62)"/><path class="cls-5" d="M90.23,192.73a44.24,44.24,0,0,1,12-3.47q6.49-.64,6.85,3.89.75,9.12-13.45,20.34-.48,6-.47,11l-7.45,2.87q0-1.07.52-6.56l1-11.63Q90.52,193.19,90.23,192.73Zm6.83,7.1q-.21,1.38-.36,2.76l-.27,2.7q4.26-2.65,5.32-5.24a1.47,1.47,0,0,0,.13-.64c0-.55-.48-.78-1.29-.7A13.64,13.64,0,0,0,97.06,199.83Z" transform="translate(98.85 59.62)"/><path class="cls-5" d="M117.57,190a30.94,30.94,0,0,1,9.21-2.76c2.89-.29,5.17.25,6.82,1.61a10.88,10.88,0,0,1,3.91,7.54,16.35,16.35,0,0,1-.08,3.61,27.94,27.94,0,0,1-7.4,15.68,28.41,28.41,0,0,1-14.82,9q0-1.06.39-6.41l1.66-22.53C117.48,192.39,117.59,190.48,117.57,190Zm7.68,7.26q-1.29,9.66-1.61,18.2a32.61,32.61,0,0,0,4.52-6.86c1.57-3.14,2.26-5.77,2.05-7.89C129.94,198,128.28,196.86,125.25,197.29Z" transform="translate(98.85 59.62)"/><path class="cls-5" d="M148.24,187a45.42,45.42,0,0,1,12.15-3.49q6.51-.64,6.9,3.89.6,6.51-6.89,13.86.85,1.76,6.72,11-2.26,2.55-6.85,7.53L153.83,207h-.11c-.35,4.28-.54,8.21-.57,11.82l-7.42,2.87q0-1.06.43-6.51Zm6.82,7c-.18,1.12-.33,2.23-.45,3.35l-.35,3.34a17.83,17.83,0,0,0,3.1-2.59,9.15,9.15,0,0,0,2.2-3.38,1.81,1.81,0,0,0,.16-.84q-.1-1.06-1.5-.93A11.15,11.15,0,0,0,155.06,194Z" transform="translate(98.85 59.62)"/><path class="cls-6" d="M85.71,189a44.6,44.6,0,0,1,12-3.47q6.51-.65,6.86,3.9.75,9.11-13.46,20.34c-.32,4-.47,7.66-.46,11l-7.45,2.87c0-.72.2-2.9.52-6.57l1-11.62Q86,189.48,85.71,189Zm6.83,7.11q-.2,1.38-.36,2.76l-.26,2.7q4.26-2.66,5.31-5.24a1.37,1.37,0,0,0,.13-.65c0-.54-.48-.78-1.28-.7A13.81,13.81,0,0,0,92.54,196.13Z" transform="translate(98.85 59.62)"/><path class="cls-6" d="M113.06,186.32a31.37,31.37,0,0,1,9.21-2.76q4.33-.42,6.82,1.62a10.9,10.9,0,0,1,3.91,7.54,15.7,15.7,0,0,1-.09,3.6A28,28,0,0,1,125.52,212a28.32,28.32,0,0,1-14.82,9q0-1.06.38-6.4L112.75,192Q113.08,187,113.06,186.32Zm7.67,7.27q-1.29,9.66-1.61,18.2a32.46,32.46,0,0,0,4.53-6.87c1.57-3.14,2.25-5.76,2-7.88Q125.29,192.95,120.73,193.59Z" transform="translate(98.85 59.62)"/><path class="cls-6" d="M143.72,183.29a45.5,45.5,0,0,1,12.16-3.48q6.5-.65,6.9,3.89.58,6.5-6.9,13.86.85,1.75,6.72,10.95-2.25,2.56-6.85,7.54l-6.44-12.79-.05,0h-.06q-.52,6.42-.57,11.82L141.22,218q0-1.07.42-6.51Zm6.82,7c-.18,1.12-.33,2.24-.44,3.35l-.35,3.34a17.32,17.32,0,0,0,3.1-2.59A9.08,9.08,0,0,0,155,191a1.65,1.65,0,0,0,.16-.84c-.07-.7-.57-1-1.5-.92A11.06,11.06,0,0,0,150.54,190.3Z" transform="translate(98.85 59.62)"/><path class="cls-7" d="M73.78,138.26l10.72-3.13q-4,27-4.2,45.53l-9.62,3.74q-.25,0-5.51-.56c-1.4-.12-2.67-.26-3.81-.4l-2.1-.25,4.48-11.87,7.58.49Z" transform="translate(98.85 59.62)"/><path class="cls-7" d="M91.57,183.18a415.48,415.48,0,0,0,10.71-48L121.5,130q-1.43,19.82,1.53,46.39l-13.31,4.5.17-8.14L105.66,174l-.79,5.79ZM110.07,164l.55-24.56h-.06L107,164.91Z" transform="translate(98.85 59.62)"/><path class="cls-7" d="M154.57,127.1q6.68-.66,10.55,6.29l-6.48,8.69a4.59,4.59,0,0,0-3.56-1.2q-3.41.33-6.49,6.55a28.52,28.52,0,0,0-3,9.38,17,17,0,0,0-.1,3.65c.29,2.87,1.53,4.74,3.74,5.6a5,5,0,0,0,2.23.3q3.34-.33,6.52-5.64l2.81,7.44q-5.65,7.71-12.22,8.35t-10.47-6.11a22.11,22.11,0,0,1-2.77-9,35.63,35.63,0,0,1,.18-8,40.19,40.19,0,0,1,5.79-16.34Q146.91,127.85,154.57,127.1Z" transform="translate(98.85 59.62)"/><path class="cls-7" d="M178.27,127.94l10.85-3.15q-1,5.8-1.3,9.15,5.1-5.43,9.29-10.39l8.58,4.45-11.52,12.5L203.83,166l-11,7.32L186,149.47q-1,10.56-1.19,20.87l-9.87,3.82Z" transform="translate(98.85 59.62)"/><path class="cls-8" d="M67.75,133.32l10.73-3.14q-4,27-4.2,45.53l-9.63,3.74q-.25,0-5.51-.55c-1.39-.13-2.66-.26-3.8-.41l-2.1-.24,4.47-11.87,7.58.48Z" transform="translate(98.85 59.62)"/><path class="cls-8" d="M85.55,178.23a417.31,417.31,0,0,0,10.7-48L115.47,125q-1.41,19.8,1.53,46.39l-13.31,4.49.17-8.13-4.23,1.26-.79,5.79ZM104,159l.55-24.56h-.06L100.94,160Z" transform="translate(98.85 59.62)"/><path class="cls-8" d="M148.54,122.16q6.69-.66,10.55,6.29l-6.47,8.69a4.66,4.66,0,0,0-3.56-1.21q-3.42.34-6.5,6.55a29.05,29.05,0,0,0-3,9.39,16.19,16.19,0,0,0-.09,3.64q.42,4.31,3.73,5.61a4.88,4.88,0,0,0,2.24.29q3.34-.33,6.51-5.64l2.82,7.45q-5.67,7.69-12.22,8.35t-10.47-6.11a22.11,22.11,0,0,1-2.78-9,35.58,35.58,0,0,1,.19-8,40.12,40.12,0,0,1,5.78-16.34Q140.89,122.92,148.54,122.16Z" transform="translate(98.85 59.62)"/><path class="cls-8" d="M172.24,123l10.85-3.15c-.65,3.87-1.09,6.92-1.3,9.15q5.11-5.44,9.29-10.4l8.59,4.45-11.53,12.5L197.81,161l-11,7.32-6.9-23.84q-1,10.57-1.19,20.88l-9.86,3.82Z" transform="translate(98.85 59.62)"/></g></svg>